g gas_block_416_hk_416a5_std_LOD1
v 0.005595169 -0.046978 0.01744219
v 0.005620279 -0.046978 0.02385803
v 0.005620279 -0.019118 0.02385804
v 0.005595169 -0.019118 0.01744219
v 2.633115E-05 -0.019118 0.01425602
v 2.633115E-05 -0.046978 0.01425601
v 7.655164E-05 -0.046978 0.0270877
v 7.655164E-05 -0.019118 0.0270877
v -0.005492287 -0.046978 0.02390152
v -0.005492287 -0.019118 0.02390152
v -0.005517397 -0.046978 0.01748568
v -0.005517397 -0.019118 0.01748568
v 2.633115E-05 -0.046978 0.01425601
v 2.633115E-05 -0.019118 0.01425602
v -0.005492287 -0.046978 0.02390152
v 7.655164E-05 -0.046978 0.0270877
v 2.633115E-05 -0.046978 0.01425601
v -0.005517397 -0.046978 0.01748568
v 0.005620279 -0.046978 0.02385803
v 0.005595169 -0.046978 0.01744219
v -0.006816921 -0.019118 -0.0142046
v -0.006816921 -0.003917999 -0.0198246
v -0.006816921 0.007812004 -0.01982459
v -0.006816921 0.018422 -0.01556459
v -0.01147339 -0.01911789 -0.001069927
v -0.01140611 0.0184221 -0.001025956
v -0.01013707 -0.019118 0.004295425
v -0.01013707 0.018422 0.00429543
v -0.006817074 0.018422 0.008948656
v -0.006817074 -0.019118 0.00894865
v -0.00680707 -0.019118 0.01812542
v -0.00680707 0.01842199 0.01812543
v -0.005329838 0.01842199 0.02384819
v -0.005329799 -0.019118 0.02384806
v 4.793187E-05 0.01842199 0.02709254
v 4.793187E-05 -0.019118 0.02709253
v 0.005425644 -0.019118 0.02384806
v 0.005425701 0.01842199 0.02384819
v 0.006902923 -0.019118 0.01812542
v 0.006902923 0.01842199 0.01812543
v 0.006912928 0.018422 0.008948656
v 0.006912928 -0.019118 0.00894865
v 0.01023293 -0.019118 0.004295425
v 0.01023293 0.018422 0.00429543
v 0.01150197 0.0184221 -0.001025956
v 0.01156924 -0.01911789 -0.001069927
v 0.006912775 -0.019118 -0.0142046
v 0.006912775 0.018422 -0.01556459
v 0.006912775 0.007812004 -0.01982459
v 0.006912775 -0.003917999 -0.0198246
v -0.006816921 0.018422 -0.01556459
v -0.006816921 0.007812004 -0.01982459
v 0.006912775 0.007812004 -0.01982459
v 0.006912775 0.018422 -0.01556459
v -0.006816921 -0.003917999 -0.0198246
v -0.006816921 -0.019118 -0.0142046
v 0.006912775 -0.019118 -0.0142046
v 0.006912775 -0.003917999 -0.0198246
v -0.006816921 0.007812004 -0.01982459
v -0.006816921 -0.003917999 -0.0198246
v 0.006912775 -0.003917999 -0.0198246
v 0.006912775 0.007812004 -0.01982459
v -0.005329799 -0.019118 0.02384806
v 4.793187E-05 -0.019118 0.02709253
v 0.005425644 -0.019118 0.02384806
v -0.00680707 -0.019118 0.01812542
v 0.006902923 -0.019118 0.01812542
v -0.006817074 -0.019118 0.00894865
v 0.006912928 -0.019118 0.00894865
v -0.01013707 -0.019118 0.004295425
v 0.01023293 -0.019118 0.004295425
v -0.01147339 -0.01911789 -0.001069927
v 0.01156924 -0.01911789 -0.001069927
v 0.006912775 -0.019118 -0.0142046
v -0.006816921 -0.019118 -0.0142046
v 0.01150197 0.0184221 -0.001025956
v -0.01140611 0.0184221 -0.001025956
v -0.006816921 0.018422 -0.01556459
v 0.006912775 0.018422 -0.01556459
v -0.01013707 0.018422 0.00429543
v 0.01023293 0.018422 0.00429543
v -0.006817074 0.018422 0.008948656
v 0.006912928 0.018422 0.008948656
v -0.00680707 0.01842199 0.01812543
v 0.006902923 0.01842199 0.01812543
v -0.005329838 0.01842199 0.02384819
v 0.005425701 0.01842199 0.02384819
v 4.793187E-05 0.01842199 0.02709254
vt 0.4777265 0.9574586
vt 0.5911257 0.9574678
vt 0.5911521 0.6356641
vt 0.4777529 0.6356548
vt 0.4209971 0.6356502
vt 0.4209709 0.957454
vt 0.647928 0.9574724
vt 0.6479543 0.6356688
vt 0.7046179 0.9574771
vt 0.7046443 0.6356734
vt 0.8181105 0.9574864
vt 0.8181368 0.6356827
vt 0.8747537 0.957491
vt 0.87478 0.6356874
vt 0.4891551 0.5866102
vt 0.5221517 0.5537896
vt 0.4097548 0.5071134
vt 0.4097021 0.5536149
vt 0.5221504 0.5071574
vt 0.4426973 0.4741621
vt 0.02541803 0.9232308
vt 0.163044 0.9736155
vt 0.2691258 0.9732757
vt 0.3649552 0.9344423
vt 0.02532456 0.7967458
vt 0.3648245 0.7962219
vt 0.02532454 0.7467411
vt 0.3648241 0.7467474
vt 0.364825 0.695052
vt 0.02532551 0.6950456
vt 0.02532708 0.6120538
vt 0.3648266 0.6120602
vt 0.3648276 0.5572363
vt 0.02532807 0.5572314
vt 0.3648286 0.4977017
vt 0.02532906 0.4976961
vt 0.02533004 0.4381608
vt 0.3648296 0.4381672
vt 0.02533088 0.3833384
vt 0.3648304 0.3833432
vt 0.3648316 0.3003515
vt 0.02533205 0.3003466
vt 0.0253328 0.2486512
vt 0.3648323 0.248656
vt 0.3648344 0.1991815
vt 0.02533447 0.1986463
vt 0.0254321 0.07216138
vt 0.3649697 0.06096111
vt 0.2691415 0.0221246
vt 0.1630597 0.02178119
vt 0.9501804 0.2996124
vt 0.8417628 0.2996196
vt 0.8417714 0.4298134
vt 0.9501889 0.4298062
vt 0.8081309 0.07133266
vt 0.8081175 0.2250022
vt 0.9383086 0.2250136
vt 0.9383222 0.07134406
vt 0.9458929 0.4678177
vt 0.8346617 0.4678208
vt 0.8346652 0.5980143
vt 0.9458964 0.5980113
vt 0.4465749 0.3764256
vt 0.4975701 0.4071919
vt 0.5485651 0.3764257
vt 0.4325666 0.3221598
vt 0.5625736 0.3221601
vt 0.4324718 0.2351398
vt 0.5626686 0.2351399
vt 0.4009894 0.1910149
vt 0.5941511 0.1910151
vt 0.3883176 0.1401371
vt 0.6068229 0.1401373
vt 0.5626674 0.01558572
vt 0.4324735 0.0155856
vt 0.7935116 0.4563859
vt 0.5762823 0.4563858
vt 0.6198 0.5942506
vt 0.7499939 0.5942507
vt 0.5883162 0.405925
vt 0.7814777 0.405925
vt 0.6197985 0.3618
vt 0.7499954 0.3618
vt 0.6198934 0.2747799
vt 0.7499005 0.2747799
vt 0.6339014 0.220513
vt 0.7358924 0.220513
vt 0.6848969 0.189748
vn 0.864062 0 -0.5033854
vn 0.8679756 0 0.496607
vn 0.8679755 0 0.496607
vn 0.864062 0 -0.5033854
vn -0.003913354 1.708636E-07 -0.9999924
vn -0.003913354 1.708636E-07 -0.9999924
vn 0.003913288 -1.708636E-07 0.9999924
vn 0.003913288 -1.708636E-07 0.9999924
vn -0.864062 0 0.5033854
vn -0.864062 0 0.5033855
vn -0.8679756 0 -0.496607
vn -0.8679756 0 -0.4966069
vn -0.003913354 1.708636E-07 -0.9999924
vn -0.003913354 1.708636E-07 -0.9999924
vn 0 -1 0
vn 0 -1 0
vn 0 -1 0
vn 0 -1 0
vn 0 -1 0
vn 0 -1 0
vn -0.9638584 -0.003954765 -0.2663857
vn -1 0 0
vn -1 0 0
vn -0.9679055 -0.003730601 -0.2512864
vn -0.9991226 -0.002069062 -0.04183168
vn -0.9991385 -0.002065295 -0.04144796
vn -0.9092056 0.0003726332 0.4163473
vn -0.9092066 0.0003726376 0.4163453
vn -0.9522102 0 0.3054434
vn -0.9522102 0 0.3054434
vn -0.9919645 -4.781898E-07 0.1265171
vn -0.9919645 -4.781899E-07 0.1265171
vn -0.8019236 -1.505621E-06 0.5974267
vn -0.8019242 -1.505619E-06 0.5974258
vn 3.988467E-07 -2.224964E-06 1
vn 3.988467E-07 -2.224964E-06 1
vn 0.8019244 -1.70972E-06 0.5974255
vn 0.8019239 -1.709721E-06 0.5974262
vn 0.9919645 -6.021575E-07 0.1265171
vn 0.9919645 -6.021576E-07 0.1265171
vn 0.9522102 0 0.3054434
vn 0.9522102 0 0.3054434
vn 0.9092054 0.0003725699 0.4163477
vn 0.9092063 0.0003725744 0.4163456
vn 0.9991385 -0.002065425 -0.04144769
vn 0.9991226 -0.002069192 -0.04183143
vn 0.9638583 -0.003954871 -0.2663861
vn 0.9679055 -0.0037307 -0.2512867
vn 1 0 0
vn 1 0 0
vn 0 0.3725973 -0.9279932
vn 0 0.3725973 -0.9279932
vn 0 0.3725973 -0.9279932
vn 0 0.3725973 -0.9279932
vn 0 -0.3467919 -0.9379421
vn 0 -0.3467919 -0.9379421
vn 0 -0.3467919 -0.9379421
vn 0 -0.3467919 -0.9379421
vn 0 4.065107E-07 -1
vn 0 4.065107E-07 -1
vn 0 4.065107E-07 -1
vn 0 4.065107E-07 -1
vn 0 -1 0
vn 0 -1 0
vn 0 -1 0
vn 0 -1 0
vn 0 -1 0
vn 0 -1 0
vn 0 -1 0
vn 0 -1 -1.282915E-05
vn 0 -1 -1.282915E-05
vn 0 -1 -6.302877E-06
vn 0 -1 -6.302877E-06
vn 0 -1 7.986814E-06
vn 0 -1 7.986814E-06
vn 0 1 6.779351E-06
vn 0 1 6.779357E-06
vn 0 1 -6.887567E-06
vn 0 1 -6.887566E-06
vn 0 1 1.291057E-05
vn 0 1 1.291058E-05
vn 0 1 2.169129E-07
vn 0 1 2.169129E-07
vn 0 1 2.826141E-07
vn 0 1 2.82614E-07
vn 0 1 0
vn 0 1 0
vn 0 1 0
g gas_block_416_hk_416a5_std_LOD1_0
f 3/3/3 2/2/2 1/1/1
f 4/4/4 3/3/3 1/1/1
f 5/5/5 4/4/4 1/1/1
f 6/6/6 5/5/5 1/1/1
f 2/2/2 3/3/3 7/7/7
f 3/3/3 8/8/8 7/7/7
f 7/7/7 8/8/8 9/9/9
f 8/8/8 10/10/10 9/9/9
f 11/11/11 9/9/9 10/10/10
f 12/12/12 11/11/11 10/10/10
f 11/11/11 12/12/12 13/13/13
f 12/12/12 14/14/14 13/13/13
f 17/17/17 16/16/16 15/15/15
f 18/18/18 17/17/17 15/15/15
f 16/16/16 17/17/17 19/19/19
f 17/17/17 20/20/20 19/19/19
f 23/23/23 22/22/22 21/21/21
f 24/24/24 23/23/23 21/21/21
f 21/21/21 25/25/25 24/24/24
f 25/25/25 26/26/26 24/24/24
f 25/25/25 27/27/27 26/26/26
f 27/27/27 28/28/28 26/26/26
f 28/28/28 27/27/27 29/29/29
f 27/27/27 30/30/30 29/29/29
f 30/30/30 31/31/31 29/29/29
f 31/31/31 32/32/32 29/29/29
f 33/33/33 32/32/32 31/31/31
f 34/34/34 33/33/33 31/31/31
f 35/35/35 33/33/33 34/34/34
f 36/36/36 35/35/35 34/34/34
f 36/36/36 37/37/37 35/35/35
f 37/37/37 38/38/38 35/35/35
f 38/38/38 37/37/37 39/39/39
f 40/40/40 38/38/38 39/39/39
f 40/40/40 39/39/39 41/41/41
f 39/39/39 42/42/42 41/41/41
f 42/42/42 43/43/43 41/41/41
f 43/43/43 44/44/44 41/41/41
f 44/44/44 43/43/43 45/45/45
f 43/43/43 46/46/46 45/45/45
f 46/46/46 47/47/47 45/45/45
f 47/47/47 48/48/48 45/45/45
f 49/49/49 48/48/48 47/47/47
f 50/50/50 49/49/49 47/47/47
f 53/53/53 52/52/52 51/51/51
f 54/54/54 53/53/53 51/51/51
f 57/57/57 56/56/56 55/55/55
f 58/58/58 57/57/57 55/55/55
f 61/61/61 60/60/60 59/59/59
f 62/62/62 61/61/61 59/59/59
f 65/65/65 64/64/64 63/63/63
f 65/65/65 63/63/63 66/66/66
f 67/67/67 65/65/65 66/66/66
f 67/67/67 66/66/66 68/68/68
f 69/69/69 67/67/67 68/68/68
f 69/69/69 68/68/68 70/70/70
f 71/71/71 69/69/69 70/70/70
f 71/71/71 70/70/70 72/72/72
f 73/73/73 71/71/71 72/72/72
f 73/73/73 72/72/72 74/74/74
f 72/72/72 75/75/75 74/74/74
f 78/78/78 77/77/77 76/76/76
f 79/79/79 78/78/78 76/76/76
f 76/76/76 77/77/77 80/80/80
f 81/81/81 76/76/76 80/80/80
f 81/81/81 80/80/80 82/82/82
f 83/83/83 81/81/81 82/82/82
f 83/83/83 82/82/82 84/84/84
f 85/85/85 83/83/83 84/84/84
f 85/85/85 84/84/84 86/86/86
f 87/87/87 85/85/85 86/86/86
f 88/88/88 87/87/87 86/86/86
