g gas_block_ar10_kac_low_profile_LOD1
v -0.009497866 0.005474112 0.01570537
v -0.009497872 -0.01559713 0.01570537
v -0.01303433 -0.01559713 0.009580051
v -0.01303432 0.005474114 0.009580052
v -0.003650373 0.005474109 0.01908142
v -0.003650379 -0.01559713 0.01908142
v -0.01303432 0.005474114 0.002507139
v -0.01303432 -0.01559713 0.002507137
v -0.009497859 0.005474112 -0.003618177
v -0.009497865 -0.01559713 -0.003618178
v -0.00569613 0.005474112 -0.006351769
v -0.005696137 -0.01559713 -0.006351769
v 0.01336214 -0.01559714 0.009580053
v 0.009825682 -0.01559713 0.01570537
v 0.01336214 0.005474105 0.009580054
v 0.009825689 0.005474107 0.01570537
v 0.01336214 0.005474105 0.00250715
v 0.01336214 -0.01559714 0.002507149
v 0.009825687 -0.01559714 -0.003618167
v 0.009825693 0.005474106 -0.003618165
v 0.006023921 -0.01559713 -0.006351774
v 0.006023927 0.005474107 -0.006351772
v 0.003978209 0.005474108 0.01908141
v 0.003978202 -0.01559713 0.01908141
v 0.003978208 0.005474107 0.02459721
v 0.003978202 -0.01559713 0.01908141
v 0.003978201 -0.01559713 0.0245972
v 0.003978209 0.005474108 0.01908141
v -0.003650379 -0.01559713 0.02459721
v -0.003650373 0.005474109 0.01908142
v -0.003650374 0.005474108 0.02459721
v -0.003650379 -0.01559713 0.01908142
v -0.003650374 0.005474108 0.02459721
v 0.003978208 0.005474107 0.02459721
v 0.003978201 -0.01559713 0.0245972
v -0.003650379 -0.01559713 0.02459721
v -0.005696137 -0.01559713 -0.006351769
v 0.006023921 -0.01559713 -0.006351774
v -0.00569613 0.005474112 -0.006351769
v 0.006023927 0.005474107 -0.006351772
v 0.003978201 -0.01559713 0.0245972
v -0.003650379 -0.01559713 0.01908142
v -0.003650379 -0.01559713 0.02459721
v 0.003978202 -0.01559713 0.01908141
v -0.009497872 -0.01559713 0.01570537
v 0.009825682 -0.01559713 0.01570537
v 0.01336214 -0.01559714 0.009580053
v -0.01303433 -0.01559713 0.009580051
v 0.01336214 -0.01559714 0.002507149
v -0.01303432 -0.01559713 0.002507137
v -0.009497865 -0.01559713 -0.003618178
v 0.009825687 -0.01559714 -0.003618167
v 0.006023921 -0.01559713 -0.006351774
v -0.005696137 -0.01559713 -0.006351769
v -0.003650373 0.005474109 0.01908142
v 0.003978209 0.005474108 0.01908141
v 0.003978208 0.005474107 0.02459721
v -0.009497866 0.005474112 0.01570537
v 0.009825689 0.005474107 0.01570537
v -0.003650374 0.005474108 0.02459721
v 0.01336214 0.005474105 0.009580054
v -0.01303432 0.005474114 0.009580052
v 0.01336214 0.005474105 0.00250715
v -0.01303432 0.005474114 0.002507139
v -0.009497859 0.005474112 -0.003618177
v 0.009825693 0.005474106 -0.003618165
v 0.006023927 0.005474107 -0.006351772
v -0.00569613 0.005474112 -0.006351769
vt 0.9867378 0.4665229
vt 0.6610876 0.46652
vt 0.6610864 0.5801016
vt 0.9867368 0.580106
vt 0.9867383 0.3580918
vt 0.6610886 0.3580903
vt 0.9867353 0.6936887
vt 0.6610842 0.6936834
vt 0.9867329 0.8072717
vt 0.6610815 0.8072656
vt 0.9867316 0.8824671
vt 0.6610793 0.8824611
vt 0.7610686 0.3417563
vt 0.8746499 0.3417553
vt 0.7610654 0.01610752
vt 0.8746474 0.01610656
vt 0.6474835 0.01610894
vt 0.6474875 0.3417579
vt 0.533906 0.3417593
vt 0.5339017 0.01611032
vt 0.458711 0.3417606
vt 0.4587062 0.01611129
vt 0.9830776 0.01610566
vt 0.9830793 0.3417543
vt 0.9914203 0.9889397
vt 0.6702964 0.9016499
vt 0.6702969 0.9889404
vt 0.9914199 0.9016483
vt 0.6627946 0.9886929
vt 0.3416708 0.901401
vt 0.3416708 0.9886923
vt 0.6627952 0.9014024
vt 0.007084787 0.8663164
vt 0.007085025 0.988822
vt 0.3327337 0.9888213
vt 0.3327337 0.8663169
vt 0.2045018 0.519961
vt 0.01629261 0.5199643
vt 0.2045068 0.8456109
vt 0.01629737 0.8456137
vt 0.2771096 0.5067801
vt 0.1552128 0.4173653
vt 0.1546058 0.5059412
vt 0.2777162 0.4182041
vt 0.06168403 0.3625073
vt 0.3719883 0.3646341
vt 0.4294519 0.2666609
vt 0.00556855 0.2637556
vt 0.4302304 0.1530816
vt 0.00634727 0.1501762
vt 0.06381118 0.05220255
vt 0.374115 0.05432978
vt 0.3133661 0.0100144
vt 0.1251614 0.008724232
vt 0.3763929 0.4588929
vt 0.4988955 0.4596673
vt 0.4994553 0.3710932
vt 0.2821486 0.5125132
vt 0.5924543 0.5144756
vt 0.3769528 0.3703188
vt 0.6486225 0.613198
vt 0.2247367 0.6105168
vt 0.6479042 0.726778
vt 0.2240179 0.7240968
vt 0.2801857 0.8228194
vt 0.5904925 0.8247818
vt 0.5291641 0.8682929
vt 0.3409577 0.8671021
vn -0.7071038 0 0.7071097
vn -0.7071038 0 0.7071097
vn -0.9659255 0 0.2588204
vn -0.9659271 0 0.2588148
vn -0.5000073 0 0.8660212
vn -0.5000073 0 0.8660212
vn -0.9659263 0 -0.2588175
vn -0.9659263 0 -0.2588175
vn -0.7414948 0 -0.6709586
vn -0.7414948 0 -0.6709586
vn -0.583794 0 -0.8119019
vn -0.583794 0 -0.8119019
vn 0.9659255 0 0.2588204
vn 0.7071038 0 0.7071097
vn 0.9659255 0 0.2588204
vn 0.7071097 0 0.7071038
vn 0.9659263 0 -0.2588175
vn 0.9659263 0 -0.2588175
vn 0.7414948 0 -0.6709586
vn 0.7414948 0 -0.6709586
vn 0.5837883 0 -0.8119059
vn 0.5837883 0 -0.8119059
vn 0.5000073 0 0.8660212
vn 0.5000073 0 0.8660212
vn 1 0 0
vn 1 0 0
vn 1 0 0
vn 1 0 0
vn -1 0 0
vn -1 0 0
vn -1 0 0
vn -1 0 0
vn 0 0 1
vn 0 0 1
vn 0 0 1
vn 0 0 1
vn 0 0 -1
vn 0 0 -1
vn 0 0 -1
vn 0 0 -1
vn 0 -1 0
vn 0 -1 0
vn 0 -1 0
vn 0 -1 0
vn 0 -1 0
vn 0 -1 0
vn 0 -1 0
vn 0 -1 0
vn 0 -1 0
vn 0 -1 0
vn 0 -1 0
vn 0 -1 0
vn 0 -1 0
vn 0 -1 0
vn 0 1 0
vn 0 1 0
vn 0 1 0
vn 0 1 0
vn 0 1 0
vn 0 1 0
vn 0 1 0
vn 0 1 0
vn 0 1 0
vn 0 1 0
vn 0 1 0
vn 0 1 0
vn 0 1 0
vn 0 1 0
g gas_block_ar10_kac_low_profile_LOD1_0
f 3/3/3 2/2/2 1/1/1
f 1/1/1 4/4/4 3/3/3
f 5/5/5 1/1/1 2/2/2
f 2/2/2 6/6/6 5/5/5
f 3/3/3 4/4/4 7/7/7
f 7/7/7 8/8/8 3/3/3
f 8/8/8 7/7/7 9/9/9
f 9/9/9 10/10/10 8/8/8
f 9/9/9 11/11/11 10/10/10
f 12/12/12 10/10/10 11/11/11
f 15/15/15 14/14/14 13/13/13
f 14/14/14 15/15/15 16/16/16
f 13/13/13 17/17/17 15/15/15
f 17/17/17 13/13/13 18/18/18
f 17/17/17 18/18/18 19/19/19
f 19/19/19 20/20/20 17/17/17
f 19/19/19 21/21/21 20/20/20
f 22/22/22 20/20/20 21/21/21
f 14/14/14 16/16/16 23/23/23
f 23/23/23 24/24/24 14/14/14
f 27/27/27 26/26/26 25/25/25
f 26/26/26 28/28/28 25/25/25
f 31/31/31 30/30/30 29/29/29
f 30/30/30 32/32/32 29/29/29
f 35/35/35 34/34/34 33/33/33
f 33/33/33 36/36/36 35/35/35
f 39/39/39 38/38/38 37/37/37
f 39/39/39 40/40/40 38/38/38
f 43/43/43 42/42/42 41/41/41
f 44/44/44 41/41/41 42/42/42
f 44/44/44 42/42/42 45/45/45
f 46/46/46 44/44/44 45/45/45
f 47/47/47 46/46/46 45/45/45
f 45/45/45 48/48/48 47/47/47
f 49/49/49 47/47/47 48/48/48
f 48/48/48 50/50/50 49/49/49
f 50/50/50 51/51/51 49/49/49
f 51/51/51 52/52/52 49/49/49
f 53/53/53 52/52/52 51/51/51
f 51/51/51 54/54/54 53/53/53
f 57/57/57 56/56/56 55/55/55
f 58/58/58 55/55/55 56/56/56
f 56/56/56 59/59/59 58/58/58
f 60/60/60 57/57/57 55/55/55
f 58/58/58 59/59/59 61/61/61
f 62/62/62 58/58/58 61/61/61
f 61/61/61 63/63/63 62/62/62
f 63/63/63 64/64/64 62/62/62
f 65/65/65 64/64/64 63/63/63
f 63/63/63 66/66/66 65/65/65
f 66/66/66 67/67/67 65/65/65
f 67/67/67 68/68/68 65/65/65
