g gas_block_ak_custom_ak_cut_LOD1
v 0.00756243 -0.1767319 -0.007694451
v 0.00756243 -0.1767319 0.00739805
v 0.01068815 -0.1767319 -0.0001481509
v 8.270145E-09 -0.1767319 -0.01082015
v 8.270145E-09 -0.1767319 0.01052385
v 0.01283495 -2.295494E-05 0.01001095
v 0.01008694 -0.004866962 0.01065765
v 0.00744913 -0.0006629562 0.01506165
v 8.270145E-09 -0.004866962 0.01605805
v 0.01218035 -0.000796957 -0.01164145
v 0.01258175 -0.004866962 -0.01084365
v 0.01231665 0.000429039 -0.008648051
v 0.01330795 -0.004866962 -0.0002443504
v 0.01283495 -2.295494E-05 0.01001095
v 0.01008694 -0.004866962 0.01065765
v 0.01218035 -0.000796957 -0.01164145
v 0.01231665 0.000429039 -0.008648051
v 0.01206895 0.0002450371 -0.01217045
v 0.00936915 -0.001070957 -0.01571785
v 0.00936915 -8.496284E-05 -0.01605805
v 0.00408689 -0.0006589603 0.01264915
v 0.00908765 0.005827046 0.01050545
v 0.00917142 -0.0001809597 0.009289548
v 0.01206895 0.0002450371 -0.01217045
v 0.00912954 0.000429039 -0.008648051
v 0.00936915 -8.496284E-05 -0.01605805
v 0.01231665 0.000429039 -0.008648051
v 0.00337236 -8.496284E-05 -0.01539355
v 0.00917142 -0.0001809597 0.009289548
v 0.01283495 -2.295494E-05 0.01001095
v -0.009369129 -8.496284E-05 -0.01605805
v -0.00337234 -8.496284E-05 -0.01539355
v -0.00912952 0.000429039 -0.008648051
v 0.00744913 -0.0006629562 0.01506165
v 0.00408689 -0.0006589603 0.01264915
v 8.270145E-09 -0.0006589603 0.01335375
v -0.007449119 -0.0006629562 0.01506165
v -0.00408687 -0.0006589603 0.01264915
v -0.00917141 -0.0001809597 0.009289548
v -0.01283485 -2.295494E-05 0.01001095
v -0.01231665 0.000429039 -0.008648051
v -0.01206895 0.0002450371 -0.01217045
v 0.01330795 -0.004866962 -0.0002443504
v 0.01258175 -0.004866962 -0.01084365
v 0.00930178 -0.00504796 -0.009430051
v 8.270145E-09 -0.00504796 -0.01359985
v 0.01330795 -0.004866962 -0.0002443504
v 0.00930178 -0.00504796 0.009133749
v 0.01008694 -0.004866962 0.01065765
v 8.270145E-09 -0.004866962 0.01605805
v 8.270145E-09 -0.00504796 0.01297845
v -0.00756241 -0.1767319 -0.007694451
v -0.01068815 -0.1767319 -0.0001481509
v -0.00756241 -0.1767319 0.00739805
v 8.270145E-09 -0.1767319 0.01052385
v 8.270145E-09 -0.1767319 -0.01082015
v -0.01330795 -0.004866962 -0.0002443504
v -0.00930177 -0.00504796 -0.009430051
v -0.01258175 -0.004866962 -0.01084365
v 8.270145E-09 -0.00504796 -0.01359985
v -0.01330795 -0.004866962 -0.0002443504
v -0.01008695 -0.004866962 0.01065765
v -0.00930177 -0.00504796 0.009133749
v 8.270145E-09 -0.004866962 0.01605805
v 8.270145E-09 -0.00504796 0.01297845
v 8.270145E-09 -0.004866962 0.01605805
v -0.007449119 -0.0006629562 0.01506165
v 0.00744913 -0.0006629562 0.01506165
v 8.270145E-09 -0.002045956 -0.01571785
v 0.01218035 -0.000796957 -0.01164145
v 0.00936915 -0.001070957 -0.01571785
v 8.270145E-09 -0.0006589603 0.01335375
v 8.270145E-09 0.005827046 0.01050545
v 0.00408689 -0.0006589603 0.01264915
v 0.00908765 0.005827046 0.01050545
v 0.01218035 -0.000796957 -0.01164145
v 8.270145E-09 -0.002045956 -0.01571785
v 8.270145E-09 -0.00504796 -0.01359985
v 0.01258175 -0.004866962 -0.01084365
v -0.009369129 -0.001070957 -0.01571785
v 8.270145E-09 -0.002045956 -0.01571785
v -0.009369129 -8.496284E-05 -0.01605805
v 0.00936915 -8.496284E-05 -0.01605805
v 0.00936915 -0.001070957 -0.01571785
v 8.270145E-09 0.005827046 0.01050545
v -0.009087639 0.005827046 0.01050545
v -0.009087639 0.005827046 -0.008648051
v 0.00908765 0.005827046 -0.008648051
v 0.00908765 0.005827046 0.01050545
v 0.00337236 0.005313043 -0.01539355
v -0.00337234 0.005313043 -0.01539355
v -0.01283485 -2.295494E-05 0.01001095
v -0.007449119 -0.0006629562 0.01506165
v -0.01008695 -0.004866962 0.01065765
v 8.270145E-09 -0.004866962 0.01605805
v 8.270145E-09 -0.002045956 -0.01571785
v -0.009369129 -0.001070957 -0.01571785
v -0.01218025 -0.000796957 -0.01164145
v 8.270145E-09 -0.0006589603 0.01335375
v -0.00408687 -0.0006589603 0.01264915
v 8.270145E-09 0.005827046 0.01050545
v -0.009087639 0.005827046 0.01050545
v -0.01218025 -0.000796957 -0.01164145
v 8.270145E-09 -0.00504796 -0.01359985
v 8.270145E-09 -0.002045956 -0.01571785
v -0.01258175 -0.004866962 -0.01084365
v -0.00408687 -0.0006589603 0.01264915
v -0.00917141 -0.0001809597 0.009289548
v -0.009087639 0.005827046 0.01050545
v -0.01283485 -2.295494E-05 0.01001095
v -0.01008695 -0.004866962 0.01065765
v -0.01330795 -0.004866962 -0.0002443504
v -0.01231665 0.000429039 -0.008648051
v -0.01258175 -0.004866962 -0.01084365
v -0.01218025 -0.000796957 -0.01164145
v 0.01330795 -0.004866962 -0.0002443504
v 0.01068815 -0.01953996 -0.0001481509
v 0.00930178 -0.00504796 0.009133749
v 0.00756243 -0.01953996 0.00739805
v 0.00930178 -0.00504796 -0.009430051
v 0.00756243 -0.01953996 -0.007694451
v 8.270145E-09 -0.00504796 0.01297845
v 8.270145E-09 -0.01953996 0.01052385
v 8.270145E-09 -0.01953996 -0.01082015
v 8.270145E-09 -0.00504796 -0.01359985
v -0.00337234 -8.496284E-05 -0.01539355
v 0.00337236 -8.496284E-05 -0.01539355
v -0.00337234 0.005313043 -0.01539355
v 0.00337236 0.005313043 -0.01539355
v -0.009087639 0.005827046 0.01050545
v -0.00917141 -0.0001809597 0.009289548
v -0.009087639 0.005827046 -0.008648051
v -0.00912952 0.000429039 -0.008648051
v 0.00337236 -8.496284E-05 -0.01539355
v 0.00912954 0.000429039 -0.008648051
v 0.00337236 0.005313043 -0.01539355
v 0.00908765 0.005827046 -0.008648051
v 0.00337236 -8.496284E-05 -0.01539355
v 0.00337236 0.005313043 -0.01539355
v -0.00337234 -8.496284E-05 -0.01539355
v -0.00337234 0.005313043 -0.01539355
v -0.01068815 -0.1767319 -0.0001481509
v -0.01068815 -0.01953996 -0.0001481509
v -0.00756241 -0.1767319 0.00739805
v -0.00756241 -0.01953996 0.00739805
v -0.00756241 -0.01953996 -0.007694451
v -0.00756241 -0.1767319 -0.007694451
v 8.270145E-09 -0.01953996 -0.01082015
v 8.270145E-09 -0.1767319 -0.01082015
v 8.270145E-09 -0.1767319 0.01052385
v 8.270145E-09 -0.01953996 0.01052385
v 0.00756243 -0.1767319 -0.007694451
v 0.01068815 -0.1767319 -0.0001481509
v 0.00756243 -0.01953996 -0.007694451
v 0.01068815 -0.01953996 -0.0001481509
v 8.270145E-09 -0.01953996 -0.01082015
v 8.270145E-09 -0.1767319 -0.01082015
v 0.00756243 -0.1767319 0.00739805
v 0.00756243 -0.01953996 0.00739805
v 8.270145E-09 -0.1767319 0.01052385
v 8.270145E-09 -0.01953996 0.01052385
v -0.00337234 -8.496284E-05 -0.01539355
v -0.00337234 0.005313043 -0.01539355
v -0.00912952 0.000429039 -0.008648051
v -0.009087639 0.005827046 -0.008648051
v 8.270145E-09 -0.00504796 -0.01359985
v -0.00930177 -0.00504796 -0.009430051
v 8.270145E-09 -0.01953996 -0.01082015
v -0.00756241 -0.01953996 -0.007694451
v -0.01068815 -0.01953996 -0.0001481509
v -0.01330795 -0.004866962 -0.0002443504
v -0.00930177 -0.00504796 0.009133749
v -0.00756241 -0.01953996 0.00739805
v 8.270145E-09 -0.00504796 0.01297845
v 8.270145E-09 -0.01953996 0.01052385
v 0.00908765 0.005827046 0.01050545
v 0.00908765 0.005827046 -0.008648051
v 0.00917142 -0.0001809597 0.009289548
v 0.00912954 0.000429039 -0.008648051
v -0.01218025 -0.000796957 -0.01164145
v -0.009369129 -0.001070957 -0.01571785
v -0.01206895 0.0002450371 -0.01217045
v -0.009369129 -8.496284E-05 -0.01605805
v -0.01231665 0.000429039 -0.008648051
vt 0.790717 0.068161
vt 0.790718 0.204133
vt 0.817666 0.136147
vt 0.725659 0.04
vt 0.725659 0.232294
vt 0.725659 0.308301
vt 0.725659 0.360614
vt 0.778685 0.308301
vt 0.845837 0.360614
vt 0.87497 0.710753
vt 0.829999 0.710753
vt 0.87497 0.734151
vt 0.829999 0.828203
vt 0.87497 0.890871
vt 0.829999 0.890871
vt 0.484099 0.904527
vt 0.457358 0.904527
vt 0.485689 0.914323
vt 0.527566 0.904527
vt 0.527579 0.914323
vt 0.956851 0.904527
vt 0.904527 0.96
vt 0.956851 0.96
vt 0.567997 0.700385
vt 0.594164 0.731455
vt 0.592294 0.666037
vt 0.561697 0.731443
vt 0.64511 0.671889
vt 0.594164 0.889512
vt 0.561697 0.895807
vt 0.757329 0.666037
vt 0.704513 0.671889
vt 0.755457 0.731455
vt 0.609215 0.940487
vt 0.638822 0.919244
vt 0.67481 0.925449
vt 0.740404 0.94049
vt 0.710798 0.919245
vt 0.755457 0.889515
vt 0.787925 0.895811
vt 0.787925 0.731443
vt 0.781626 0.700385
vt 0.940897 0.143439
vt 0.940897 0.04
vt 0.90834 0.0659636
vt 0.831106 0.04
vt 0.940897 0.143439
vt 0.907486 0.220562
vt 0.940897 0.212041
vt 0.829999 0.278216
vt 0.829999 0.252525
vt 1.79072 0.068161
vt 1.81767 0.136147
vt 1.79072 0.204133
vt 1.72566 0.232294
vt 1.72566 0.04
vt 1.9409 0.143439
vt 1.90834 0.0659636
vt 1.9409 0.04
vt 1.83111 0.04
vt 1.9409 0.143439
vt 1.9409 0.212041
vt 1.90749 0.220562
vt 1.83 0.278216
vt 1.83 0.252525
vt 0.957481 0.776344
vt 0.919432 0.710753
vt 0.919432 0.841934
vt 0.338113 0.904527
vt 0.421012 0.940439
vt 0.421012 0.904527
vt 0.889621 0.363382
vt 0.945764 0.363382
vt 0.889621 0.322069
vt 0.945764 0.27849
vt 0.75547 0.625674
vt 0.871671 0.625674
vt 0.871671 0.591508
vt 0.75547 0.591508
vt 0.129446 0.922058
vt 0.211955 0.922058
vt 0.129446 0.904527
vt 0.294464 0.904527
vt 0.294464 0.922058
vt 0.641715 0.397735
vt 0.561697 0.397735
vt 0.561697 0.566384
vt 0.721733 0.566384
vt 0.721732 0.397735
vt 0.671409 0.625951
vt 0.612021 0.625951
vt 1.72566 0.308301
vt 1.77869 0.308301
vt 1.72566 0.360614
vt 1.84584 0.360614
vt 1.33811 0.904527
vt 1.42101 0.904527
vt 1.42101 0.940439
vt 1.88962 0.363382
vt 1.88962 0.322069
vt 1.94576 0.363382
vt 1.94576 0.27849
vt 1.75547 0.625674
vt 1.87167 0.591508
vt 1.87167 0.625674
vt 1.75547 0.591508
vt 1.95685 0.904527
vt 1.95685 0.96
vt 1.90453 0.96
vt 1.87497 0.890871
vt 1.83 0.890871
vt 1.83 0.828203
vt 1.87497 0.734151
vt 1.83 0.710753
vt 1.87497 0.710753
vt 0.561697 0.200332
vt 0.691462 0.200332
vt 0.561697 0.120235
vt 0.691462 0.120235
vt 0.561697 0.280428
vt 0.691462 0.280428
vt 0.561697 0.04
vt 0.691462 0.04
vt 0.691462 0.361229
vt 0.561697 0.361229
vt 1.95205 0.576603
vt 1.95205 0.635991
vt 1.90453 0.576603
vt 1.90453 0.635991
vt 1.80685 0.557605
vt 1.75547 0.557605
vt 1.80685 0.397735
vt 1.75547 0.397735
vt 0.892908 0.474937
vt 0.892908 0.397735
vt 0.844904 0.474937
vt 0.844904 0.397735
vt 0.952053 0.576603
vt 0.904527 0.576603
vt 0.952053 0.635991
vt 0.904527 0.635991
vt 1.27875 0.874628
vt 1.27875 0.04
vt 1.39813 0.874628
vt 1.39813 0.04
vt 1.15938 0.04
vt 1.15938 0.874628
vt 1.04 0.04
vt 1.04 0.874628
vt 1.5175 0.874628
vt 1.5175 0.04
vt 0.159376 0.874628
vt 0.278752 0.874628
vt 0.159376 0.04
vt 0.278752 0.04
vt 0.04 0.04
vt 0.04 0.874628
vt 0.398128 0.874628
vt 0.398128 0.04
vt 0.517504 0.874628
vt 0.517504 0.04
vt 1.89291 0.474937
vt 1.8449 0.474937
vt 1.89291 0.397735
vt 1.8449 0.397735
vt 1.5617 0.361229
vt 1.5617 0.280428
vt 1.69146 0.361229
vt 1.69146 0.280428
vt 1.69146 0.200332
vt 1.5617 0.200332
vt 1.5617 0.120235
vt 1.69146 0.120235
vt 1.5617 0.04
vt 1.69146 0.04
vt 0.806853 0.557605
vt 0.806853 0.397735
vt 0.75547 0.557605
vt 0.75547 0.397735
vt 1.4841 0.904527
vt 1.52757 0.904527
vt 1.48569 0.914323
vt 1.52758 0.914323
vt 1.45736 0.904527
vn 0 -1 0
vn 0 -1 0
vn 0 -1 0
vn 0 -1 0
vn 0 -1 0
vn 0.672653 -0.2907542 0.680441
vn 0.5741988 -0.3924344 0.7185339
vn 0.4963088 -0.4599245 0.7363064
vn 0.3998228 -0.5314513 0.7467939
vn 0.9934543 0.08248897 -0.07902028
vn 0.9942477 0.07951637 -0.0717543
vn 0.9936905 0.09308097 -0.06257089
vn 0.999019 0.04264225 0.01193945
vn 0.9323236 -0.3084821 0.1887101
vn 0.8556314 -0.4516507 0.2527974
vn 0.9581455 -0.04137776 -0.2832757
vn 0.9948993 0.06901597 -0.07356799
vn 0.9168583 -0.09824571 -0.3869349
vn 0.8139482 -0.1897385 -0.5490788
vn 0.8139454 -0.1894818 -0.5491718
vn 0.5546589 -0.1576137 0.8170137
vn 0.5546589 -0.1576138 0.8170137
vn 0.5546589 -0.1576138 0.8170137
vn -0.0150468 0.9977927 -0.06467876
vn -0.005152767 0.9997126 -0.02341161
vn -0.01129159 0.9977519 -0.06605755
vn -0.003129151 0.9999608 -0.008284455
vn -0.001874757 0.9998552 -0.01691877
vn -0.04929382 0.9975455 0.04972842
vn -0.0513838 0.9977782 0.04240701
vn 0.01129156 0.9977519 -0.06605755
vn 0.001874756 0.9998552 -0.01691877
vn 0.00515276 0.9997126 -0.02341164
vn -0.03735154 0.9980081 0.05084141
vn -0.01622844 0.9995736 0.02427278
vn 0 0.9999979 0.002111243
vn 0.03735173 0.9980081 0.05084132
vn 0.01622837 0.9995736 0.02427276
vn 0.04929474 0.9975455 0.04972813
vn 0.05138503 0.9977781 0.04240684
vn 0.003129162 0.9999608 -0.00828453
vn 0.01504665 0.9977927 -0.06467874
vn 0.05352288 -0.9985599 -0.003667066
vn 0.04499533 -0.9987113 -0.02347287
vn 0.03836419 -0.998509 -0.03883318
vn 0.02806798 -0.9976431 -0.06261256
vn 0.1448294 -0.988531 0.04279003
vn 0.1030606 -0.9927536 0.06179601
vn 0.08076356 -0.993799 0.07642441
vn 0.02774321 -0.9976059 0.06334582
vn 0.02424372 -0.9979839 0.05865468
vn 0 -1 0
vn 0 -1 0
vn 0 -1 0
vn 0 -1 0
vn 0 -1 0
vn -0.05352272 -0.9985599 -0.003667048
vn -0.03836408 -0.998509 -0.03883315
vn -0.04499523 -0.9987113 -0.02347279
vn -0.02806792 -0.9976431 -0.06261248
vn -0.1448272 -0.9885314 0.04278924
vn -0.080763 -0.9937991 0.07642365
vn -0.103059 -0.9927538 0.06179553
vn -0.02774314 -0.9976059 0.06334575
vn -0.02424371 -0.9979839 0.05865467
vn 0 0.2306227 0.9730433
vn 0 0.2306227 0.9730433
vn 0 0.2306227 0.9730433
vn 0.1035049 -0.9946187 -0.004525336
vn 0.1035049 -0.9946187 -0.004525336
vn 0.1035049 -0.9946187 -0.004525336
vn 0.1559238 0.397165 0.9044046
vn 0.05420486 0.3439801 0.937411
vn 0.07557358 0.3555261 0.931606
vn 0 0.3138155 0.9494841
vn 0.2339967 -0.2359572 -0.94317
vn 0.3155802 -0.5470309 -0.7753493
vn 0.3006968 -0.4826214 -0.8225923
vn 0.2132614 -0.1676371 -0.9625058
vn -0.03392262 -0.3259756 -0.9447693
vn 0 -0.1825507 -0.9831964
vn -0.02945567 -0.3058242 -0.9516323
vn 0.02945565 -0.3058241 -0.9516323
vn 0.0339226 -0.3259755 -0.9447694
vn 0 1 0
vn 0 1 0
vn 0 0.9996331 -0.02708624
vn 0 0.9996331 -0.02708624
vn 0 1 0
vn 0 0.9971095 -0.07597899
vn 0 0.9971095 -0.07597898
vn -0.6726604 -0.2907434 0.6804382
vn -0.496311 -0.4599213 0.7363068
vn -0.5742036 -0.3924282 0.7185335
vn -0.3998223 -0.5314506 0.7467948
vn -0.1035049 -0.9946187 -0.004523359
vn -0.1035049 -0.9946187 -0.004523359
vn -0.1035049 -0.9946187 -0.004523359
vn -0.1559239 0.397165 0.9044046
vn -0.07557365 0.3555261 0.931606
vn -0.05420487 0.3439801 0.9374111
vn 0 0.3138154 0.9494841
vn -0.2339968 -0.2359525 -0.9431712
vn -0.3006985 -0.4826201 -0.8225925
vn -0.3155821 -0.5470306 -0.7753487
vn -0.2132613 -0.167632 -0.9625067
vn -0.5546582 -0.1576139 0.8170143
vn -0.5546582 -0.1576139 0.8170143
vn -0.5546582 -0.1576139 0.8170143
vn -0.932328 -0.3084673 0.1887124
vn -0.8556391 -0.4516353 0.2527989
vn -0.9990187 0.04265124 0.01194318
vn -0.9936892 0.09308735 -0.06258126
vn -0.9942463 0.07952173 -0.0717674
vn -0.9934497 0.08250518 -0.07905994
vn 0.9844142 -0.1757955 -0.004962338
vn 0.9853623 -0.1704732 0.0002040739
vn 0.6965544 -0.1687938 0.697367
vn 0.6968515 -0.167171 0.697461
vn 0.7006675 -0.1759751 -0.6914461
vn 0.696849 -0.167167 -0.6974643
vn 0.3773915 -0.1546499 0.9130493
vn 0.3773932 -0.1546488 0.9130487
vn 0.3872167 -0.1614652 -0.9077401
vn 0.4029338 -0.1724067 -0.8988438
vn 0 0 -1
vn 0 0 -1
vn 0 0 -1
vn 0 0 -1
vn -0.9999028 0.01394173 0
vn -0.9999166 0.01291189 -0.0003450001
vn -0.9999579 0.009030597 -0.00164519
vn -0.9999678 0.007758172 -0.002071421
vn 0.7606298 0 -0.6491858
vn 0.762007 0.003872843 -0.6475572
vn 0.7613571 0.002040321 -0.6483294
vn 0.7627286 0.005919002 -0.6466916
vn 0 0 -1
vn 0 0 -1
vn 0 0 -1
vn 0 0 -1
vn -1 0 2.335321E-06
vn -1 0 2.382168E-06
vn -0.7068409 0 0.7073725
vn -0.7068409 0 0.7073725
vn -0.7068386 0 -0.7073749
vn -0.7068387 0 -0.7073748
vn -0.3819786 0 -0.9241711
vn -0.3819786 0 -0.9241711
vn -0.3819889 0 0.9241669
vn -0.3819889 0 0.924167
vn 0.7068394 0 -0.707374
vn 1 0 2.341094E-06
vn 0.7068394 0 -0.707374
vn 1 0 2.402702E-06
vn 0.3819783 0 -0.9241712
vn 0.3819784 0 -0.9241712
vn 0.7068417 0 0.7073717
vn 0.7068418 0 0.7073717
vn 0.3819887 0 0.924167
vn 0.3819887 0 0.924167
vn -0.7606298 0 -0.6491858
vn -0.7613571 0.002039826 -0.6483296
vn -0.7620067 0.003871905 -0.6475576
vn -0.7627282 0.005917567 -0.6466922
vn -0.4029337 -0.1724067 -0.898844
vn -0.7006671 -0.1759751 -0.6914465
vn -0.3872168 -0.1614654 -0.9077401
vn -0.6968482 -0.1671675 -0.6974652
vn -0.9853622 -0.1704739 0.0002040642
vn -0.9844142 -0.1757954 -0.00496234
vn -0.6965539 -0.1687939 0.6973674
vn -0.6968504 -0.1671714 0.6974619
vn -0.3773914 -0.1546501 0.9130493
vn -0.3773934 -0.1546488 0.9130487
vn 0.9999028 0.01394173 0
vn 0.9999579 0.009032089 -0.00164469
vn 0.9999166 0.0129122 -0.0003448955
vn 0.9999678 0.00776005 -0.002070792
vn -0.9581441 -0.04146588 -0.2832676
vn -0.8139462 -0.1897483 -0.5490785
vn -0.9168582 -0.09831864 -0.3869166
vn -0.8139431 -0.1894828 -0.5491747
vn -0.9949061 0.06892332 -0.07356363
g gas_block_ak_custom_ak_cut_LOD1_0
f 3/3/3 2/2/2 1/1/1
f 2/2/2 4/4/4 1/1/1
f 4/4/4 2/2/2 5/5/5
f 8/8/8 7/7/7 6/6/6
f 7/7/7 8/8/8 9/9/9
f 12/12/12 11/11/11 10/10/10
f 12/12/12 13/13/13 11/11/11
f 13/13/13 12/12/12 14/14/14
f 15/15/15 13/13/13 14/14/14
f 18/18/18 17/17/17 16/16/16
f 19/19/19 18/18/18 16/16/16
f 18/18/18 19/19/19 20/20/20
f 23/23/23 22/22/22 21/21/21
f 26/26/26 25/25/25 24/24/24
f 27/27/27 24/24/24 25/25/25
f 25/25/25 26/26/26 28/28/28
f 29/29/29 27/27/27 25/25/25
f 27/27/27 29/29/29 30/30/30
f 31/31/31 28/28/28 26/26/26
f 28/28/28 31/31/31 32/32/32
f 32/32/32 31/31/31 33/33/33
f 29/29/29 34/34/34 30/30/30
f 34/34/34 29/29/29 35/35/35
f 35/35/35 36/36/36 34/34/34
f 36/36/36 37/37/37 34/34/34
f 38/38/38 37/37/37 36/36/36
f 39/39/39 37/37/37 38/38/38
f 37/37/37 39/39/39 40/40/40
f 41/41/41 39/39/39 33/33/33
f 39/39/39 41/41/41 40/40/40
f 42/42/42 33/33/33 31/31/31
f 33/33/33 42/42/42 41/41/41
f 45/45/45 44/44/44 43/43/43
f 45/45/45 46/46/46 44/44/44
f 49/49/49 48/48/48 47/47/47
f 50/50/50 48/48/48 49/49/49
f 48/48/48 50/50/50 51/51/51
f 54/54/54 53/53/53 52/52/52
f 52/52/52 55/55/55 54/54/54
f 55/55/55 52/52/52 56/56/56
f 59/59/59 58/58/58 57/57/57
f 60/60/60 58/58/58 59/59/59
f 63/63/63 62/62/62 61/61/61
f 63/63/63 64/64/64 62/62/62
f 64/64/64 63/63/63 65/65/65
f 68/68/68 67/67/67 66/66/66
f 71/71/71 70/70/70 69/69/69
f 74/74/74 73/73/73 72/72/72
f 73/73/73 74/74/74 75/75/75
f 78/78/78 77/77/77 76/76/76
f 76/76/76 79/79/79 78/78/78
f 82/82/82 81/81/81 80/80/80
f 81/81/81 82/82/82 83/83/83
f 83/83/83 84/84/84 81/81/81
f 87/87/87 86/86/86 85/85/85
f 85/85/85 88/88/88 87/87/87
f 89/89/89 88/88/88 85/85/85
f 90/90/90 87/87/87 88/88/88
f 87/87/87 90/90/90 91/91/91
f 94/94/94 93/93/93 92/92/92
f 93/93/93 94/94/94 95/95/95
f 98/98/98 97/97/97 96/96/96
f 101/101/101 100/100/100 99/99/99
f 100/100/100 101/101/101 102/102/102
f 105/105/105 104/104/104 103/103/103
f 106/106/106 103/103/103 104/104/104
f 109/109/109 108/108/108 107/107/107
f 112/112/112 111/111/111 110/110/110
f 113/113/113 112/112/112 110/110/110
f 112/112/112 113/113/113 114/114/114
f 114/114/114 113/113/113 115/115/115
f 118/118/118 117/117/117 116/116/116
f 117/117/117 118/118/118 119/119/119
f 117/117/117 120/120/120 116/116/116
f 120/120/120 117/117/117 121/121/121
f 122/122/122 119/119/119 118/118/118
f 119/119/119 122/122/122 123/123/123
f 124/124/124 120/120/120 121/121/121
f 120/120/120 124/124/124 125/125/125
f 128/128/128 127/127/127 126/126/126
f 127/127/127 128/128/128 129/129/129
f 132/132/132 131/131/131 130/130/130
f 131/131/131 132/132/132 133/133/133
f 136/136/136 135/135/135 134/134/134
f 135/135/135 136/136/136 137/137/137
f 140/140/140 139/139/139 138/138/138
f 139/139/139 140/140/140 141/141/141
f 144/144/144 143/143/143 142/142/142
f 143/143/143 144/144/144 145/145/145
f 146/146/146 142/142/142 143/143/143
f 142/142/142 146/146/146 147/147/147
f 148/148/148 147/147/147 146/146/146
f 147/147/147 148/148/148 149/149/149
f 150/150/150 145/145/145 144/144/144
f 145/145/145 150/150/150 151/151/151
f 154/154/154 153/153/153 152/152/152
f 153/153/153 154/154/154 155/155/155
f 152/152/152 156/156/156 154/154/154
f 156/156/156 152/152/152 157/157/157
f 155/155/155 158/158/158 153/153/153
f 158/158/158 155/155/155 159/159/159
f 159/159/159 160/160/160 158/158/158
f 160/160/160 159/159/159 161/161/161
f 164/164/164 163/163/163 162/162/162
f 163/163/163 164/164/164 165/165/165
f 168/168/168 167/167/167 166/166/166
f 167/167/167 168/168/168 169/169/169
f 170/170/170 167/167/167 169/169/169
f 167/167/167 170/170/170 171/171/171
f 170/170/170 172/172/172 171/171/171
f 172/172/172 170/170/170 173/173/173
f 173/173/173 174/174/174 172/172/172
f 174/174/174 173/173/173 175/175/175
f 178/178/178 177/177/177 176/176/176
f 177/177/177 178/178/178 179/179/179
f 182/182/182 181/181/181 180/180/180
f 181/181/181 182/182/182 183/183/183
f 184/184/184 182/182/182 180/180/180
