g mount_all_noname_25mm_ring_LOD1
v 0.01218715 0.00945115 0.007745774
v -0.01186056 0.009451153 -0.004361989
v 0.01218715 0.009451153 -0.004361989
v -0.01186056 0.009451151 0.007745774
v 0.01218715 -0.00935014 0.00774577
v -0.01186056 -0.009350138 -0.004361991
v -0.01186056 -0.009350139 0.00774577
v 0.01218715 -0.009350137 -0.004361991
v 0.01218715 -0.009350137 -0.004361991
v -0.01186056 0.009451153 -0.004361989
v -0.01186056 -0.009350138 -0.004361991
v 0.01218715 0.009451153 -0.004361989
v 0.01218715 -0.00935014 0.00774577
v 0.01218715 0.009451153 -0.004361989
v 0.01218715 -0.009350137 -0.004361991
v 0.01218715 0.00945115 0.007745774
v -0.01186056 -0.009350139 0.00774577
v 0.01218715 0.00945115 0.007745774
v 0.01218715 -0.00935014 0.00774577
v -0.01186056 0.009451151 0.007745774
v -0.01186056 -0.009350138 -0.004361991
v -0.01186056 0.009451151 0.007745774
v -0.01186056 -0.009350139 0.00774577
v -0.01186056 0.009451153 -0.004361989
v -0.01868209 -0.009169784 0.01503996
v 0.020917 -0.009169777 0.01978772
v 0.020917 -0.009169779 0.01503997
v -0.01868209 -0.009169783 0.01978772
v 0.01221053 -0.009169777 0.02815244
v -0.01025511 -0.009169783 0.02815244
v -0.0186821 0.009169771 0.01503997
v 0.020917 -0.009169779 0.01503997
v 0.02091699 0.009169779 0.01503997
v -0.01868209 -0.009169784 0.01503996
v -0.0186821 0.009169771 0.01503997
v -0.01868209 -0.009169783 0.01978772
v -0.01868209 -0.009169784 0.01503996
v -0.0186821 0.009169769 0.01978772
v -0.0186821 0.009169769 0.01978772
v -0.01025511 -0.009169783 0.02815244
v -0.01868209 -0.009169783 0.01978772
v -0.01025511 0.009169766 0.02815245
v -0.01003354 -0.00923718 0.02926076
v 0.0009643568 0.009488205 0.03381624
v 0.0009643568 -0.009237178 0.03381623
v -0.01003355 0.009488202 0.02926076
v -0.01458902 -0.009237179 0.01826286
v -0.01458902 0.009488202 0.01826286
v -0.01003354 -0.009237177 0.007264955
v -0.01003354 0.009488203 0.007264958
v -0.01003354 -0.00923718 0.02926076
v -0.01003354 -0.009237177 0.007264955
v -0.01458902 -0.009237179 0.01826286
v 0.01196226 -0.009237177 0.007264955
v 0.01196226 -0.009237178 0.02926076
v 0.01651774 -0.009237177 0.01826286
v 0.0009643568 -0.009237178 0.03381623
v 0.02104629 0.003046133 0.005190526
v 0.01141688 0.005908184 0.0002333091
v 0.02104629 0.005908185 0.0002333089
v 0.01141688 0.003046132 0.005190526
v 0.02104629 -0.002677968 0.005190525
v 0.01141688 -0.002677969 0.005190525
v 0.02104629 -0.005540018 0.000233307
v 0.01141688 -0.005540019 0.0002333072
v 0.02104629 -0.002677966 -0.00472391
v 0.01141688 -0.002677968 -0.004723908
v 0.01141688 0.003046133 -0.004723907
v 0.02104629 0.003046134 -0.004723909
v 0.01141688 -0.002677968 -0.004723908
v 0.02104629 -0.002677966 -0.00472391
v 0.02104629 -0.005540018 0.000233307
v 0.02104629 0.003046134 -0.004723909
v 0.02104629 -0.002677966 -0.00472391
v 0.02104629 0.003046133 0.005190526
v 0.02104629 0.005908185 0.0002333089
v 0.02104629 -0.002677968 0.005190525
v 0.01196226 0.009488204 0.02926076
v 0.01196225 0.009488202 0.007264958
v 0.01651773 0.009488202 0.01826286
v -0.01003354 0.009488203 0.007264958
v -0.01003355 0.009488202 0.02926076
v -0.01458902 0.009488202 0.01826286
v 0.0009643568 0.009488205 0.03381624
v 0.02091699 0.009169779 0.01503997
v 0.020917 -0.009169777 0.01978772
v 0.02091699 0.009169775 0.01978772
v 0.020917 -0.009169779 0.01503997
v 0.02091699 0.009169775 0.01978772
v 0.01221053 -0.009169777 0.02815244
v 0.01221053 0.009169769 0.02815245
v 0.020917 -0.009169777 0.01978772
v 0.01196226 -0.009237178 0.02926076
v 0.0009643568 0.009488205 0.03381624
v 0.01196226 0.009488204 0.02926076
v 0.0009643568 -0.009237178 0.03381623
v 0.01651774 -0.009237177 0.01826286
v 0.01651773 0.009488202 0.01826286
v 0.01196226 -0.009237177 0.007264955
v 0.01196225 0.009488202 0.007264958
v -0.0186821 0.009169771 0.01503997
v 0.02091699 0.009169775 0.01978772
v -0.0186821 0.009169769 0.01978772
v 0.02091699 0.009169779 0.01503997
v 0.01221053 0.009169769 0.02815245
v -0.01025511 0.009169766 0.02815245
vt 0.6912982 0.2570796
vt 0.5641126 0.00447128
vt 0.5641127 0.2570795
vt 0.6912981 0.00447128
vt 0.01641154 0.2199104
vt 0.2690199 0.3470958
vt 0.2690199 0.2199102
vt 0.01641154 0.3470958
vt 0.4492922 0.9938138
vt 0.3319628 0.902082
vt 0.3319629 0.9938139
vt 0.4492922 0.9020818
vt 0.484427 0.01101442
vt 0.2787256 0.1382
vt 0.4844271 0.1381998
vt 0.2787256 0.01101442
vt 0.01641171 0.01430379
vt 0.2690198 0.2118013
vt 0.26902 0.01430389
vt 0.01641154 0.2118014
vt 0.4873218 0.1526919
vt 0.2816205 0.2798775
vt 0.4873218 0.2798775
vt 0.2816205 0.1526919
vt 0.9889544 0.2129226
vt 0.9436831 0.5934324
vt 0.9889544 0.5934324
vt 0.943683 0.2129226
vt 0.8639227 0.5130785
vt 0.8639228 0.2932766
vt 0.9002839 0.2083872
vt 0.995271 0.004615675
vt 0.9002838 0.004615675
vt 0.995271 0.2083872
vt 0.005051725 0.9142044
vt 0.3208054 0.994795
vt 0.3208054 0.9142044
vt 0.005051665 0.994795
vt 0.7058179 0.2715389
vt 0.8772979 0.00289145
vt 0.7058179 0.002891518
vt 0.877298 0.2715389
vt 0.2998931 0.7243828
vt 0.01064949 0.9082593
vt 0.2998929 0.9082598
vt 0.01064978 0.7243826
vt 0.2998934 0.5405055
vt 0.01064938 0.5405055
vt 0.2998931 0.3566283
vt 0.01064928 0.3566281
vt 0.7845395 0.836348
vt 0.3114006 0.8363478
vt 0.5479701 0.9343383
vt 0.3114007 0.3632091
vt 0.7845395 0.3632091
vt 0.5479701 0.2652189
vt 0.8825297 0.5997785
vt 0.9948779 0.8042911
vt 0.8882023 0.8677034
vt 0.9948779 0.8677034
vt 0.8882023 0.8042911
vt 0.9948779 0.7408788
vt 0.8882021 0.7408789
vt 0.9948779 0.6774665
vt 0.8882021 0.6774666
vt 0.9948779 0.6140541
vt 0.8882021 0.6140543
vt 0.8882023 0.9311156
vt 0.9948779 0.9311156
vt 0.8882024 0.9945278
vt 0.9948781 0.9945277
vt 0.7146232 0.9244824
vt 0.8379535 0.8532776
vt 0.7557333 0.8532776
vt 0.8379535 0.9956874
vt 0.8790636 0.9244824
vt 0.7557333 0.9956874
vt 0.7845395 0.836348
vt 0.3114006 0.8363478
vt 0.5479701 0.9343383
vt 0.3114007 0.363209
vt 0.7845395 0.363209
vt 0.5479701 0.2652189
vt 0.8825297 0.5997785
vt 0.005051725 0.9142044
vt 0.3208054 0.994795
vt 0.005051607 0.994795
vt 0.3208054 0.9142044
vt 0.705818 0.2715389
vt 0.877298 0.00289145
vt 0.877298 0.2715389
vt 0.7058179 0.002891518
vt 0.2998931 0.7243828
vt 0.01064959 0.9082593
vt 0.01064978 0.7243826
vt 0.2998929 0.9082598
vt 0.2998934 0.5405055
vt 0.01064938 0.5405055
vt 0.2998931 0.3566283
vt 0.01064928 0.3566282
vt 0.9889544 0.2129226
vt 0.9436831 0.5934324
vt 0.943683 0.2129226
vt 0.9889544 0.5934324
vt 0.8639227 0.5130785
vt 0.8639228 0.2932766
vn 0 1 0
vn 0 1 0
vn 0 1 0
vn 0 1 0
vn 0 -1 0
vn 0 -1 0
vn 0 -1 0
vn 0 -1 0
vn 0 0 -1
vn 0 0 -1
vn 0 0 -1
vn 0 0 -1
vn 1 0 0
vn 1 0 0
vn 1 0 0
vn 1 0 0
vn 0 0 1
vn 0 0 1
vn 0 0 1
vn 0 0 1
vn -1 0 0
vn -1 0 0
vn -1 0 0
vn -1 0 0
vn 0 -1 0
vn 0 -1 0
vn 0 -1 0
vn 0 -1 0
vn 0 -1 0
vn 0 -1 0
vn 0 0 -1
vn 0 0 -1
vn 0 0 -1
vn 0 0 -1
vn -1 0 0
vn -0.9231687 0 0.3843949
vn -1 0 0
vn -0.9231687 0 0.3843949
vn -0.9231687 0 0.3843949
vn -0.704478 0 0.7097259
vn -0.9231687 0 0.3843949
vn -0.704478 0 0.7097259
vn -0.7071068 0 0.7071068
vn 0 0 1
vn 0 0 1
vn -0.7071068 0 0.7071068
vn -1 0 0
vn -1 0 0
vn -0.9238796 0 -0.3826831
vn -0.9238796 0 -0.3826831
vn 0 -1 0
vn 0 -1 0
vn 0 -1 0
vn 0 -1 0
vn 0 -1 0
vn 0 -1 0
vn 0 -1 0
vn 0 0.4999984 0.8660264
vn 0 1 0
vn 0 1 1.810115E-07
vn 0 0.4999962 0.8660276
vn 0 -0.4999984 0.8660264
vn 0 -0.4999984 0.8660264
vn 0 -1 -1.810104E-07
vn 0 -1 -3.620208E-07
vn 0 -0.5000008 -0.8660249
vn 0 -0.4999996 -0.8660256
vn 0 0.4999975 -0.8660269
vn 0 0.4999987 -0.8660262
vn 0 -0.4999996 -0.8660256
vn 0 -0.5000008 -0.8660249
vn 1 0 0
vn 1 0 0
vn 1 0 0
vn 1 0 0
vn 1 0 0
vn 1 0 0
vn 0 1 0
vn 0 1 0
vn 0 1 0
vn 0 1 0
vn 0 1 0
vn 0 1 0
vn 0 1 0
vn 1 0 0
vn 0.9200044 0 0.3919078
vn 0.9200044 0 0.3919078
vn 1 0 0
vn 0.9200044 0 0.3919078
vn 0.6928086 0 0.7211215
vn 0.6928086 0 0.7211215
vn 0.9200044 0 0.3919078
vn 0.707101 0 0.7071125
vn 0 0 1
vn 0.707101 0 0.7071125
vn 0 0 1
vn 1 0 0
vn 1 0 0
vn 0.9238796 0 -0.3826831
vn 0.9238796 0 -0.3826831
vn 0 1 0
vn 0 1 0
vn 0 1 0
vn 0 1 0
vn 0 1 0
vn 0 1 0
g mount_all_noname_25mm_ring_LOD1_0
f 3/3/3 2/2/2 1/1/1
f 4/4/4 1/1/1 2/2/2
f 7/7/7 6/6/6 5/5/5
f 8/8/8 5/5/5 6/6/6
f 11/11/11 10/10/10 9/9/9
f 12/12/12 9/9/9 10/10/10
f 15/15/15 14/14/14 13/13/13
f 16/16/16 13/13/13 14/14/14
f 19/19/19 18/18/18 17/17/17
f 20/20/20 17/17/17 18/18/18
f 23/23/23 22/22/22 21/21/21
f 24/24/24 21/21/21 22/22/22
f 27/27/27 26/26/26 25/25/25
f 28/28/28 25/25/25 26/26/26
f 26/26/26 29/29/29 28/28/28
f 30/30/30 28/28/28 29/29/29
f 33/33/33 32/32/32 31/31/31
f 34/34/34 31/31/31 32/32/32
f 37/37/37 36/36/36 35/35/35
f 38/38/38 35/35/35 36/36/36
f 41/41/41 40/40/40 39/39/39
f 42/42/42 39/39/39 40/40/40
f 45/45/45 44/44/44 43/43/43
f 46/46/46 43/43/43 44/44/44
f 43/43/43 46/46/46 47/47/47
f 48/48/48 47/47/47 46/46/46
f 47/47/47 48/48/48 49/49/49
f 50/50/50 49/49/49 48/48/48
f 53/53/53 52/52/52 51/51/51
f 52/52/52 54/54/54 51/51/51
f 54/54/54 55/55/55 51/51/51
f 56/56/56 55/55/55 54/54/54
f 55/55/55 57/57/57 51/51/51
f 60/60/60 59/59/59 58/58/58
f 61/61/61 58/58/58 59/59/59
f 58/58/58 61/61/61 62/62/62
f 63/63/63 62/62/62 61/61/61
f 62/62/62 63/63/63 64/64/64
f 65/65/65 64/64/64 63/63/63
f 64/64/64 65/65/65 66/66/66
f 67/67/67 66/66/66 65/65/65
f 59/59/59 60/60/60 68/68/68
f 69/69/69 68/68/68 60/60/60
f 68/68/68 69/69/69 70/70/70
f 71/71/71 70/70/70 69/69/69
f 74/74/74 73/73/73 72/72/72
f 73/73/73 75/75/75 72/72/72
f 76/76/76 75/75/75 73/73/73
f 75/75/75 77/77/77 72/72/72
f 80/80/80 79/79/79 78/78/78
f 79/79/79 81/81/81 78/78/78
f 81/81/81 82/82/82 78/78/78
f 83/83/83 82/82/82 81/81/81
f 82/82/82 84/84/84 78/78/78
f 87/87/87 86/86/86 85/85/85
f 88/88/88 85/85/85 86/86/86
f 91/91/91 90/90/90 89/89/89
f 92/92/92 89/89/89 90/90/90
f 95/95/95 94/94/94 93/93/93
f 96/96/96 93/93/93 94/94/94
f 93/93/93 97/97/97 95/95/95
f 98/98/98 95/95/95 97/97/97
f 97/97/97 99/99/99 98/98/98
f 100/100/100 98/98/98 99/99/99
f 103/103/103 102/102/102 101/101/101
f 104/104/104 101/101/101 102/102/102
f 102/102/102 103/103/103 105/105/105
f 106/106/106 105/105/105 103/103/103
