g mount_glock_aimtech_tiger_shark_glock_LOD1
v -0.1236934 -0.01443503 0.04928056
v -0.06609113 -0.01154708 0.05188779
v -0.06609113 -0.01443503 0.04876627
v -0.12489 -0.0115471 0.05196895
v -0.1141706 -0.01564122 0.04391439
v -0.06434074 -0.01564118 0.04391439
v -0.06609113 -0.008196937 0.05420748
v -0.12489 -0.008196956 0.05423619
v -0.05701023 -0.01564118 0.02714583
v -0.07284109 -0.01564118 0.02322458
v -0.06946521 -0.01564118 0.0195454
v -0.06767988 -0.01564118 0.01370924
v -0.06319769 -0.01564118 0.009560786
v -0.05031306 -0.01564118 0.02067568
v -0.0557616 -0.01564118 0.00943806
v -0.000368072 -0.01564117 -0.003275223
v 0.002015666 -0.01564117 0.002173328
v 0.003150776 -0.01564117 -0.001118508
v -0.06609113 -0.008196937 0.05420748
v -0.019665 0.009003743 0.05420748
v -0.06609114 0.009029816 0.05420749
v -0.019665 -0.008170825 0.05420748
v -0.1141706 -0.01564122 0.04391439
v -0.0728411 0.0164741 0.0232246
v -0.1141707 0.0164741 0.0439144
v -0.07284109 -0.01564118 0.02322458
v -0.1236934 -0.01443503 0.04928056
v -0.1236934 0.01526791 0.04928058
v -0.06319769 -0.01564118 0.009560786
v -0.05576161 0.0164741 0.009438072
v -0.0631977 0.0164741 0.009560798
v -0.0557616 -0.01564118 0.00943806
v -0.0676799 0.0164741 0.01370925
v -0.06767988 -0.01564118 0.01370924
v -0.06946522 0.0164741 0.01954541
v -0.06946521 -0.01564118 0.0195454
v -0.07284109 -0.01564118 0.02322458
v -0.0728411 0.0164741 0.0232246
v -0.000368072 -0.01564117 -0.003275223
v -0.0003680815 0.01647412 -0.003275211
v -0.05031306 -0.01564118 0.02067568
v 0.002015656 0.01647412 0.00217334
v 0.002015666 -0.01564117 0.002173328
v -0.05031307 0.0164741 0.02067569
v -0.05701023 0.0164741 0.02714584
v -0.05701023 -0.01564118 0.02714583
v -0.06434074 -0.01564118 0.04391439
v -0.06434075 0.0164741 0.04391439
v -0.06609114 0.01526791 0.04876629
v -0.06609113 -0.01443503 0.04876627
v -0.06609114 0.01237996 0.0518878
v -0.06609113 -0.01154708 0.05188779
v -0.06609113 -0.008196937 0.05420748
v -0.06609114 0.009029816 0.05420749
v -0.000368072 -0.01564117 -0.003275223
v 0.003150767 0.01647412 -0.001118496
v -0.0003680815 0.01647412 -0.003275211
v 0.003150776 -0.01564117 -0.001118508
v 0.002015656 0.01647412 0.00217334
v 0.002015666 -0.01564117 0.002173328
v -0.019665 -0.0102403 0.05675499
v -0.12489 -0.008196956 0.05423619
v -0.12489 -0.01024034 0.05676936
v -0.019665 -0.008170825 0.05420748
v -0.06609113 -0.008196937 0.05420748
v -0.12489 -0.008196956 0.05423619
v -0.019665 -0.008170825 0.05420748
v -0.12489 -0.008196956 0.05423619
v -0.12489 -0.007313395 0.05938306
v -0.12489 -0.01024034 0.05676936
v -0.12489 0.008146237 0.05938307
v -0.12489 0.01107318 0.05676936
v -0.12489 0.009029797 0.0542362
v -0.12489 0.01237994 0.05196895
v -0.12489 -0.0115471 0.05196895
v -0.1236934 -0.01443503 0.04928056
v -0.1236934 0.01526791 0.04928058
v -0.019665 -0.007313357 0.05938305
v -0.12489 -0.01024034 0.05676936
v -0.12489 -0.007313395 0.05938306
v -0.019665 -0.0102403 0.05675499
v -0.1236934 0.01526791 0.04928058
v -0.06609114 0.01237996 0.0518878
v -0.12489 0.01237994 0.05196895
v -0.06609114 0.01526791 0.04876629
v -0.1141707 0.0164741 0.0439144
v -0.06434075 0.0164741 0.04391439
v -0.06609114 0.009029816 0.05420749
v -0.12489 0.009029797 0.0542362
v -0.05701023 0.0164741 0.02714584
v -0.0728411 0.0164741 0.0232246
v -0.06946522 0.0164741 0.01954541
v -0.0676799 0.0164741 0.01370925
v -0.0631977 0.0164741 0.009560798
v -0.05031307 0.0164741 0.02067569
v -0.05576161 0.0164741 0.009438072
v -0.0003680815 0.01647412 -0.003275211
v 0.002015656 0.01647412 0.00217334
v 0.003150767 0.01647412 -0.001118496
v -0.12489 0.009029797 0.0542362
v -0.019665 0.01107322 0.056755
v -0.12489 0.01107318 0.05676936
v -0.019665 0.009003743 0.05420748
v -0.06609114 0.009029816 0.05420749
v -0.019665 0.009003743 0.05420748
v -0.12489 0.009029797 0.0542362
v -0.019665 0.008146275 0.05938306
v -0.12489 0.01107318 0.05676936
v -0.019665 0.01107322 0.056755
v -0.12489 0.008146237 0.05938307
v -0.019665 -0.007313357 0.05938305
v -0.12489 0.008146237 0.05938307
v -0.019665 0.008146275 0.05938306
v -0.12489 -0.007313395 0.05938306
v -0.019665 -0.007313357 0.05938305
v -0.019665 -0.008170825 0.05420748
v -0.019665 -0.0102403 0.05675499
v -0.019665 0.009003743 0.05420748
v -0.019665 0.008146275 0.05938306
v -0.019665 0.01107322 0.056755
vt 0.9071898 0.9904574
vt 0.9495311 0.6926816
vt 0.9055694 0.6925991
vt 0.9479179 0.9967157
vt 0.8509012 0.9410488
vt 0.8539678 0.6833944
vt 0.9916735 0.6927533
vt 0.9897515 0.9967879
vt 0.6810091 0.6449746
vt 0.6394839 0.7267103
vt 0.6016437 0.7091412
vt 0.5413998 0.6997303
vt 0.4987749 0.6764264
vt 0.6145109 0.6101468
vt 0.4979633 0.6379736
vt 0.3698992 0.3511599
vt 0.4263914 0.3390019
vt 0.392419 0.3330312
vt 0.6401788 0.9923965
vt 0.4623028 0.7523444
vt 0.4620329 0.9923965
vt 0.6399091 0.7523444
vt 0.7204984 0.2464252
vt 0.3883505 0.00741805
vt 0.3883502 0.2464252
vt 0.7204983 0.00741805
vt 0.7080237 0.3028816
vt 0.4008251 0.3028816
vt 0.3433494 0.9011853
vt 0.01354587 0.8611526
vt 0.01354587 0.9011853
vt 0.3433494 0.8611526
vt 0.01354587 0.93406
vt 0.3433494 0.93406
vt 0.01354587 0.9669124
vt 0.3433494 0.9669124
vt 0.3433494 0.99379
vt 0.01354587 0.99379
vt 0.3433492 0.5552264
vt 0.01354579 0.5552264
vt 0.3433492 0.2155014
vt 0.01354579 0.5142668
vt 0.3433492 0.5142668
vt 0.01354579 0.2155014
vt 0.01354579 0.1653763
vt 0.3433492 0.1653763
vt 0.3433492 0.06707975
vt 0.01354579 0.06707975
vt 0.02593233 0.0393148
vt 0.3309627 0.0393148
vt 0.05558975 0.02251242
vt 0.3013053 0.02251242
vt 0.2669013 0.01002542
vt 0.0899936 0.01002542
vt 0.3433492 0.5552264
vt 0.01354579 0.5330105
vt 0.01354579 0.5552264
vt 0.3433492 0.5330105
vt 0.01354579 0.5142668
vt 0.3433492 0.5142668
vt 0.958752 0.5504856
vt 0.9923352 0.006408187
vt 0.9586905 0.006407412
vt 0.9926933 0.5504867
vt 0.9925426 0.3104349
vt 0.9923352 0.006408187
vt 0.9926933 0.5504867
vt 0.6435069 0.3298231
vt 0.6343689 0.3564388
vt 0.6646402 0.3429228
vt 0.4744798 0.3564388
vt 0.4442084 0.3429228
vt 0.4653417 0.3298231
vt 0.4306934 0.3180984
vt 0.6781554 0.3180984
vt 0.7080237 0.3028816
vt 0.4008251 0.3028816
vt 0.9180731 0.5504853
vt 0.9586905 0.006407412
vt 0.9180983 0.00640622
vt 0.958752 0.5504856
vt 0.9071898 0.9904574
vt 0.9495311 0.6926816
vt 0.9479179 0.9967157
vt 0.9055694 0.6925991
vt 0.8509012 0.9410488
vt 0.8539678 0.6833944
vt 0.9916735 0.6927533
vt 0.9897515 0.9967879
vt 0.6810091 0.6449746
vt 0.6394839 0.7267103
vt 0.6016437 0.7091412
vt 0.5413998 0.6997303
vt 0.4987749 0.6764264
vt 0.6145109 0.6101468
vt 0.4979633 0.6379736
vt 0.3698992 0.3511599
vt 0.4263914 0.3390019
vt 0.392419 0.3330312
vt 0.4212256 0.5213016
vt 0.3921382 0.9925444
vt 0.3920849 0.521301
vt 0.4215358 0.9925452
vt 0.4214053 0.7846289
vt 0.4215358 0.9925452
vt 0.4212256 0.5213016
vt 0.3569048 0.992544
vt 0.3920849 0.521301
vt 0.3921382 0.9925444
vt 0.3569267 0.5213
vt 0.8955632 0.5499606
vt 0.7356914 0.00588159
vt 0.7356914 0.5499606
vt 0.8955632 0.00588159
vt 0.9360812 0.5648159
vt 0.9449484 0.5915768
vt 0.9663494 0.5784046
vt 0.7673419 0.5915768
vt 0.7762089 0.5648159
vt 0.7459407 0.5784046
vn 0.0014196 -0.7688537 0.639423
vn 0.003511208 -0.6543772 0.7561601
vn 0.00287954 -0.8922396 0.4515532
vn 0.0006959332 -0.6165507 0.7873149
vn 0.001627146 -0.9817107 0.1903717
vn 7.685152E-07 -0.9956476 0.09319775
vn 0.001103005 -0.5688864 0.8224154
vn 0.0004045982 -0.5604747 0.8281714
vn 2.349672E-07 -1 -1.016945E-07
vn 2.121723E-07 -1 -8.565831E-07
vn 0 -1 0
vn 0 -1 0
vn 0 -1 0
vn 1.461975E-07 -1 0
vn 1.243709E-07 -1 0
vn 2.339353E-07 -1 -1.037203E-07
vn 2.108791E-07 -1 0
vn 0 -1 0
vn 0 4.154852E-07 -1
vn 0 4.161769E-07 -1
vn 0 4.152006E-07 -1
vn 0 4.164622E-07 -1
vn -0.4686443 1.391255E-07 -0.883387
vn -0.6021947 1.275636E-07 -0.7983492
vn -0.4686445 1.773169E-07 -0.8833869
vn -0.6021947 1.356451E-07 -0.7983492
vn -0.4909299 1.365087E-07 -0.8711991
vn -0.4909301 2.619513E-07 -0.8711989
vn -0.3724293 2.340345E-07 -0.9280605
vn -0.1207566 3.340425E-07 -0.9926822
vn -0.3724296 2.338942E-07 -0.9280604
vn -0.1207566 3.348576E-07 -0.9926822
vn -0.8470117 0 -0.5315742
vn -0.8470117 0 -0.5315743
vn -0.8679925 0 -0.4965772
vn -0.8679926 0 -0.4965772
vn -0.6021947 1.356451E-07 -0.7983492
vn -0.6021947 1.275636E-07 -0.7983492
vn -0.2236927 2.967189E-07 -0.9746597
vn -0.2236926 2.953595E-07 -0.9746597
vn 0.5261011 -1.942291E-07 0.8504221
vn 0.3333551 -2.667878E-07 0.9428014
vn 0.3333551 -2.509692E-07 0.9428014
vn 0.5261011 -2.105376E-07 0.8504221
vn 0.8211457 0 0.5707185
vn 0.8211457 0 0.5707186
vn 0.9280037 1.168729E-07 0.372571
vn 0.9280037 1.372785E-07 0.372571
vn 0.9717959 1.943328E-07 0.2358234
vn 0.971796 1.832881E-07 0.2358233
vn 1 2.816431E-07 1.40114E-07
vn 1 2.98932E-07 0
vn 1 2.979522E-07 0
vn 1 2.768004E-07 -1.578525E-07
vn 0.5225623 4.716552E-07 -0.8526011
vn 0.9412639 4.048525E-07 -0.3376719
vn 0.5225623 4.716552E-07 -0.8526011
vn 0.9412639 4.048525E-07 -0.3376719
vn 0.9453734 1.597272E-07 0.3259894
vn 0.9453734 1.597272E-07 0.3259894
vn -8.542684E-05 -0.7783373 -0.6278464
vn -8.542684E-05 -0.7783373 -0.6278464
vn -8.542684E-05 -0.7783373 -0.6278464
vn 2.066961E-05 -0.7761715 -0.6305218
vn 0.0003688873 -0.6557496 0.7549784
vn 0.0003688872 -0.6557496 0.7549784
vn 0.0003688873 -0.6557496 0.7549784
vn -1 -1.934379E-07 1.933696E-07
vn -1 -2.225483E-07 0
vn -1 0 0
vn -1 -2.27424E-07 -1.605945E-07
vn -1 -2.443951E-07 0
vn -1 -2.768004E-07 0
vn -0.9443237 -1.298035E-07 -0.3290178
vn -0.9443236 0 -0.3290182
vn -0.9135887 0 -0.4066396
vn -0.9135889 0 -0.406639
vn 3.247729E-07 -0.6660674 0.7458915
vn 3.247729E-07 -0.6660674 0.7458915
vn 3.247729E-07 -0.6660674 0.7458916
vn 0.000101818 -0.6680949 0.7440761
vn 0.001419267 0.7688503 0.6394272
vn 0.003511027 0.6543766 0.7561606
vn 0.0006955367 0.6165479 0.787317
vn 0.002879156 0.8922378 0.4515567
vn 0.00162704 0.9817107 0.1903719
vn 0 0.9956474 0.09320029
vn 0.001102637 0.568886 0.8224157
vn 0.0004042349 0.5604743 0.8281717
vn 0 1 0
vn 0 1 0
vn 0 1 0
vn 0 1 0
vn 0 1 0
vn -1.461975E-07 1 0
vn -1.243709E-07 1 0
vn -2.339353E-07 1 1.037203E-07
vn -2.108791E-07 1 0
vn 0 1 0
vn -8.599118E-05 0.7783373 -0.6278464
vn -8.599119E-05 0.7783373 -0.6278464
vn -8.599119E-05 0.7783373 -0.6278464
vn 2.010764E-05 0.7761716 -0.6305217
vn 0.000368413 0.6558647 0.7548784
vn 0.000368413 0.6558647 0.7548784
vn 0.000368413 0.6558647 0.7548784
vn 0.0001013336 0.6680949 0.7440761
vn 0.0001013336 0.6680949 0.7440761
vn 0.0001013336 0.6680949 0.744076
vn -1.581627E-07 0.6660674 0.7458915
vn 1.116855E-07 -4.626603E-07 1
vn 1.116855E-07 -4.626603E-07 1
vn 1.116855E-07 -4.626603E-07 1
vn 1.116855E-07 -4.626603E-07 1
vn 1 2.038063E-07 0
vn 1 1.733377E-07 0
vn 1 0 0
vn 1 1.883674E-07 0
vn 1 2.220537E-07 0
vn 1 0 0
g mount_glock_aimtech_tiger_shark_glock_LOD1_0
f 3/3/3 2/2/2 1/1/1
f 4/4/4 1/1/1 2/2/2
f 1/1/1 5/5/5 3/3/3
f 6/6/6 3/3/3 5/5/5
f 2/2/2 7/7/7 4/4/4
f 8/8/8 4/4/4 7/7/7
f 6/6/6 5/5/5 9/9/9
f 10/10/10 9/9/9 5/5/5
f 11/11/11 9/9/9 10/10/10
f 12/12/12 9/9/9 11/11/11
f 12/12/12 13/13/13 9/9/9
f 14/14/14 9/9/9 13/13/13
f 15/15/15 14/14/14 13/13/13
f 15/15/15 16/16/16 14/14/14
f 17/17/17 14/14/14 16/16/16
f 18/18/18 17/17/17 16/16/16
f 21/21/21 20/20/20 19/19/19
f 22/22/22 19/19/19 20/20/20
f 25/25/25 24/24/24 23/23/23
f 26/26/26 23/23/23 24/24/24
f 23/23/23 27/27/27 25/25/25
f 28/28/28 25/25/25 27/27/27
f 31/31/31 30/30/30 29/29/29
f 32/32/32 29/29/29 30/30/30
f 31/31/31 29/29/29 33/33/33
f 34/34/34 33/33/33 29/29/29
f 33/33/33 34/34/34 35/35/35
f 36/36/36 35/35/35 34/34/34
f 36/36/36 37/37/37 35/35/35
f 38/38/38 35/35/35 37/37/37
f 32/32/32 30/30/30 39/39/39
f 40/40/40 39/39/39 30/30/30
f 43/43/43 42/42/42 41/41/41
f 44/44/44 41/41/41 42/42/42
f 44/44/44 45/45/45 41/41/41
f 46/46/46 41/41/41 45/45/45
f 46/46/46 45/45/45 47/47/47
f 48/48/48 47/47/47 45/45/45
f 48/48/48 49/49/49 47/47/47
f 50/50/50 47/47/47 49/49/49
f 49/49/49 51/51/51 50/50/50
f 52/52/52 50/50/50 51/51/51
f 52/52/52 51/51/51 53/53/53
f 54/54/54 53/53/53 51/51/51
f 57/57/57 56/56/56 55/55/55
f 58/58/58 55/55/55 56/56/56
f 56/56/56 59/59/59 58/58/58
f 60/60/60 58/58/58 59/59/59
f 63/63/63 62/62/62 61/61/61
f 61/61/61 62/62/62 64/64/64
f 67/67/67 66/66/66 65/65/65
f 70/70/70 69/69/69 68/68/68
f 69/69/69 71/71/71 68/68/68
f 71/71/71 72/72/72 68/68/68
f 72/72/72 73/73/73 68/68/68
f 73/73/73 74/74/74 68/68/68
f 75/75/75 68/68/68 74/74/74
f 75/75/75 74/74/74 76/76/76
f 77/77/77 76/76/76 74/74/74
f 80/80/80 79/79/79 78/78/78
f 81/81/81 78/78/78 79/79/79
f 84/84/84 83/83/83 82/82/82
f 85/85/85 82/82/82 83/83/83
f 82/82/82 85/85/85 86/86/86
f 87/87/87 86/86/86 85/85/85
f 83/83/83 84/84/84 88/88/88
f 89/89/89 88/88/88 84/84/84
f 87/87/87 90/90/90 86/86/86
f 91/91/91 86/86/86 90/90/90
f 90/90/90 92/92/92 91/91/91
f 90/90/90 93/93/93 92/92/92
f 93/93/93 90/90/90 94/94/94
f 95/95/95 94/94/94 90/90/90
f 95/95/95 96/96/96 94/94/94
f 96/96/96 95/95/95 97/97/97
f 98/98/98 97/97/97 95/95/95
f 98/98/98 99/99/99 97/97/97
f 102/102/102 101/101/101 100/100/100
f 101/101/101 103/103/103 100/100/100
f 106/106/106 105/105/105 104/104/104
f 109/109/109 108/108/108 107/107/107
f 110/110/110 107/107/107 108/108/108
f 113/113/113 112/112/112 111/111/111
f 114/114/114 111/111/111 112/112/112
f 117/117/117 116/116/116 115/115/115
f 116/116/116 118/118/118 115/115/115
f 118/118/118 119/119/119 115/115/115
f 120/120/120 119/119/119 118/118/118
