g mount_m_lok_magpul_4,1_inch_picatinny_rail_section_LOD1
v 0.00783865 -0.02352485 3.813207E-06
v 8.106231E-07 -0.02525032 3.812462E-06
v 8.058548E-07 -0.02187032 0.008632213
v 0.008072109 -0.02013302 0.008632214
v 0.01072119 -0.02069774 0.005992421
v -0.007838697 -0.02352485 3.808439E-06
v -0.008072719 -0.02013302 0.008632208
v -0.0107218 -0.02069774 0.005992415
v 0.007838664 0.07301989 3.736913E-06
v 0.0107212 0.07019279 0.00599235
v 0.008072133 0.06962807 0.008632143
v 8.201599E-07 0.07136538 0.008632139
v 8.249283E-07 0.0747387 3.732741E-06
v -0.007838683 0.07301989 3.732145E-06
v -0.008072696 0.06962808 0.008632137
v -0.01072179 0.07019281 0.005992343
v -0.008072696 0.06962808 0.008632137
v 8.201599E-07 0.07136538 0.008632139
v 0.008072133 0.06962807 0.008632143
v -0.008072719 -0.02013302 0.008632208
v 0.008072109 -0.02013302 0.008632214
v 8.058548E-07 -0.02187032 0.008632213
v -0.01072179 0.07019281 0.005992343
v -0.008072696 0.06962808 0.008632137
v -0.008072719 -0.02013302 0.008632208
v -0.0107218 -0.02069774 0.005992415
v -0.007838683 0.07301989 3.732145E-06
v -0.01072179 0.07019281 0.005992343
v -0.0107218 -0.02069774 0.005992415
v -0.007838697 -0.02352485 3.808439E-06
v -0.007838697 -0.02352485 3.808439E-06
v 8.106231E-07 -0.02525032 3.812462E-06
v 0.00783865 -0.02352485 3.813207E-06
v -0.007838683 0.07301989 3.732145E-06
v 0.007838664 0.07301989 3.736913E-06
v 8.249283E-07 0.0747387 3.732741E-06
v 0.007838664 0.07301989 3.736913E-06
v 0.00783865 -0.02352485 3.813207E-06
v 0.01072119 -0.02069774 0.005992421
v 0.0107212 0.07019279 0.00599235
v 0.008072109 -0.02013302 0.008632214
v 0.008072133 0.06962807 0.008632143
v 0.0107212 0.07019279 0.00599235
v 0.01072119 -0.02069774 0.005992421
vt 0.7524517 0.5592864
vt 0.6717809 0.5592864
vt 0.6717809 0.6480944
vt 0.754855 0.6480944
vt 0.7821204 0.6209241
vt 0.5910925 0.5592864
vt 0.5886833 0.6480944
vt 0.5614182 0.6209241
vt 0.6236731 0.4455071
vt 0.5940074 0.50714
vt 0.6212705 0.5343077
vt 0.7043372 0.5343077
vt 0.7043372 0.4455071
vt 0.7850184 0.4455071
vt 0.7874268 0.5343077
vt 0.8146898 0.50714
vt 0.0232016 0.1714108
vt 0.006104412 0.2508643
vt 0.02320174 0.330296
vt 0.9065623 0.1714107
vt 0.9065623 0.3302958
vt 0.9236598 0.2508643
vt 0.01154474 0.8476083
vt 0.01712221 0.8868659
vt 0.9036477 0.8868659
vt 0.9092256 0.8476083
vt 0.01154474 0.6817933
vt 0.03796676 0.7515629
vt 0.887435 0.7515629
vt 0.9138573 0.6817933
vt 0.9087428 0.1604868
vt 0.9245928 0.08333637
vt 0.9087428 0.006202216
vt 0.02189334 0.1604868
vt 0.02189334 0.00620225
vt 0.006104413 0.08333637
vt 0.01154474 0.834469
vt 0.9138603 0.834469
vt 0.8874377 0.7647023
vt 0.03796723 0.7647023
vt 0.9036499 0.8970308
vt 0.01712221 0.8970308
vt 0.01154474 0.9362882
vt 0.9092274 0.9362882
vn 0.1914467 -0.9146528 0.3560316
vn 0 -0.9318246 0.3629092
vn 4.768314E-05 -0.931824 0.3629104
vn 0.184957 -0.9158685 0.3563367
vn 0.1599717 -0.9201593 0.3573736
vn -0.191401 -0.9146621 0.3560322
vn -0.1849113 -0.9158785 0.3563346
vn -0.1599724 -0.9201632 0.3573631
vn 0.1911614 0.9147995 0.355808
vn 0.1599861 0.9201466 0.3573996
vn 0.1847308 0.9159769 0.3561755
vn 4.768427E-05 0.9319413 0.3626091
vn 0 0.9319413 0.3626091
vn -0.1911156 0.9148088 0.3558086
vn -0.1847228 0.9159845 0.35616
vn -0.1599868 0.9201506 0.3573893
vn 0 0 1
vn 0 0 1
vn 0 0 1
vn 0 0 1
vn 0 0 1
vn 0 0 1
vn -0.7058629 0 0.7083485
vn -0.7058629 0 0.7083485
vn -0.7058629 0 0.7083485
vn -0.7058629 0 0.7083485
vn -0.9010217 0 -0.4337741
vn -0.9010172 0 -0.4337834
vn -0.9010172 0 -0.4337834
vn -0.9010217 0 -0.4337741
vn 0 0 -1
vn 0 0 -1
vn 0 0 -1
vn 0 0 -1
vn 0 0 -1
vn 0 0 -1
vn 0.9010485 0 -0.4337184
vn 0.9010485 0 -0.4337184
vn 0.9010496 0 -0.433716
vn 0.9010473 0 -0.4337208
vn 0.7058629 0 0.7083485
vn 0.7058629 0 0.7083485
vn 0.7058629 0 0.7083485
vn 0.7058629 0 0.7083485
g mount_m_lok_magpul_4,1_inch_picatinny_rail_section_LOD1_0
f 3/3/3 2/2/2 1/1/1
f 4/4/4 3/3/3 1/1/1
f 5/5/5 4/4/4 1/1/1
f 2/2/2 3/3/3 6/6/6
f 3/3/3 7/7/7 6/6/6
f 6/6/6 7/7/7 8/8/8
f 11/11/11 10/10/10 9/9/9
f 12/12/12 11/11/11 9/9/9
f 13/13/13 12/12/12 9/9/9
f 12/12/12 13/13/13 14/14/14
f 15/15/15 12/12/12 14/14/14
f 16/16/16 15/15/15 14/14/14
f 19/19/19 18/18/18 17/17/17
f 19/19/19 17/17/17 20/20/20
f 21/21/21 19/19/19 20/20/20
f 21/21/21 20/20/20 22/22/22
f 25/25/25 24/24/24 23/23/23
f 26/26/26 25/25/25 23/23/23
f 29/29/29 28/28/28 27/27/27
f 30/30/30 29/29/29 27/27/27
f 33/33/33 32/32/32 31/31/31
f 33/33/33 31/31/31 34/34/34
f 35/35/35 33/33/33 34/34/34
f 35/35/35 34/34/34 36/36/36
f 39/39/39 38/38/38 37/37/37
f 40/40/40 39/39/39 37/37/37
f 43/43/43 42/42/42 41/41/41
f 44/44/44 43/43/43 41/41/41
