g mount_mosin_kochetov_mount_LOD1
v -4.248023E-05 -0.04278138 -0.006816764
v 0.00858852 -0.03603438 0.0003119349
v -4.248023E-05 -0.04277037 0.007440533
v 0.01408259 -0.04277037 0.006585135
v 0.01408259 -0.04278138 -0.005961263
v -1.966238E-05 -0.05639338 -0.01037487
v -0.008673712 -0.05801538 -0.01037487
v -1.966298E-05 -0.05800438 -0.006811564
v -0.006021012 -0.05801538 0.001205935
v -1.966298E-05 -0.05800438 0.007441535
v -0.008673712 -0.05801538 0.01096213
v -1.966238E-05 -0.05639338 0.01096213
v -0.0001679462 0.04253561 0.007327933
v 0.0102694 0.0352366 0.0002750349
v -0.0001682758 0.04253561 -0.006777964
v 0.0223569 0.0430656 0.007327933
v 0.0223566 0.0430656 -0.006777964
v 0.0268201 0.0547866 0.008827834
v 0.0303379 0.0512396 0.003833036
v 0.0223569 0.0430656 0.007327933
v 0.0303332 0.05124262 -0.002600265
v 0.0223566 0.0430656 -0.006777964
v 0.0267958 0.05478262 -0.007606864
v 0.01949674 0.0621446 0.003817034
v 0.0230222 0.05861462 0.008822236
v 0.01394464 0.05622061 0.007327036
v 0.01394464 0.05613861 -0.006782565
v 0.01949137 0.0621186 -0.002620663
v 0.02302101 0.05856161 -0.007613964
v -0.0001484484 0.02827261 -0.01040997
v -0.002565398 0.02807562 -0.01405076
v -0.008802098 0.02807562 -0.01040976
v 0.01031381 0.02827261 -0.01405097
v 0.01031381 0.02827261 -0.01040997
v -0.008822796 0.04141661 -0.01034546
v -0.002586097 0.03986361 -0.01405637
v -0.0001683664 0.0414966 -0.01034546
v 0.01031381 0.03994362 -0.01405637
v 0.01031381 0.04009062 -0.009921866
v -0.0001459682 0.02792061 0.01096213
v 0.01030384 0.02812961 0.01012484
v -0.0001462984 0.0281216 0.01011484
v 0.01030416 0.02993561 0.01460003
v -0.003004097 0.02992561 0.01461004
v -0.008800598 0.02792061 0.01096223
v -0.000167886 0.04253561 0.01011484
v 0.01028228 0.0408736 0.01012484
v -0.0001678663 0.04253561 0.01096213
v 0.01028231 0.03936661 0.01460003
v -0.003025396 0.03899961 0.01461004
v -0.008821896 0.04233461 0.01096223
v -0.0001886541 0.05613861 -0.006782565
v -0.008842694 0.05610561 -0.01035086
v -0.0001886541 0.05611761 -0.01035096
v -0.006189994 0.05617361 0.001205935
v -0.0001886541 0.05622061 0.007327036
v -0.008842694 0.0562306 0.01096223
v -0.0001886541 0.05624262 0.01096213
v 0.01394464 0.05613861 -0.006782565
v 0.01394464 0.05622061 0.007327036
v -0.008821896 0.04233461 0.01096223
v -0.008842694 0.0562306 0.01096223
v -0.0001678663 0.04253561 0.01096213
v -0.0001886541 0.05624262 0.01096213
v -0.000167886 0.04253561 0.01011484
v -0.0001484484 0.02827261 -0.01040997
v -0.0001462984 0.0281216 0.01011484
v -0.0001683664 0.0414966 -0.01034546
v -0.0001679462 0.04253561 0.007327933
v -0.0001682758 0.04253561 -0.006777964
v -0.0001886541 0.05611761 -0.01035096
v -0.0001886541 0.05613861 -0.006782565
v -4.248023E-05 -0.04278138 -0.006816764
v -4.248023E-05 -0.04277037 0.007440533
v -0.0001459682 0.02792061 0.01096213
v -1.966238E-05 -0.05639338 0.01096213
v -1.966298E-05 -0.05800438 0.007441535
v -1.966238E-05 -0.05639338 -0.01037487
v -1.966298E-05 -0.05800438 -0.006811564
v -0.0001886541 0.05622061 0.007327036
v -0.0001678663 0.04253561 0.01096213
v -0.0001886541 0.05624262 0.01096213
v -0.008822796 0.04141661 -0.01034546
v -0.008802098 0.02807562 -0.01040976
v -0.002586097 0.03986361 -0.01405637
v -0.002565398 0.02807562 -0.01405076
v -0.000167886 0.04253561 0.01011484
v -0.0001462984 0.0281216 0.01011484
v 0.01028228 0.0408736 0.01012484
v 0.01030384 0.02812961 0.01012484
v -0.006189994 0.05617361 0.001205935
v -0.008822796 0.04141661 -0.01034546
v -0.008842694 0.05610561 -0.01035086
v -0.008802098 0.02807562 -0.01040976
v -0.006021012 -0.05801538 0.001205935
v -0.008673712 -0.05801538 -0.01037487
v -0.008800598 0.02792061 0.01096223
v -0.008821896 0.04233461 0.01096223
v -0.008842694 0.0562306 0.01096223
v -0.008673712 -0.05801538 0.01096213
v 0.01949137 0.0621186 -0.002620663
v 0.02302101 0.05856161 -0.007613964
v 0.0303332 0.05124262 -0.002600265
v 0.0267958 0.05478262 -0.007606864
v 0.01949674 0.0621446 0.003817034
v 0.0303379 0.0512396 0.003833036
v 0.0230222 0.05861462 0.008822236
v 0.0268201 0.0547866 0.008827834
v -0.0001683664 0.0414966 -0.01034546
v 0.01031381 0.04009062 -0.009921866
v -0.0001484484 0.02827261 -0.01040997
v 0.01031381 0.02827261 -0.01040997
v 0.01028228 0.0408736 0.01012484
v 0.01030384 0.02812961 0.01012484
v 0.01028231 0.03936661 0.01460003
v 0.01030416 0.02993561 0.01460003
v -1.966298E-05 -0.05800438 0.007441535
v -4.248023E-05 -0.04277037 0.007440533
v 0.0141054 -0.05045938 0.006586037
v 0.01408259 -0.04277037 0.006585135
v 0.01031381 0.04009062 -0.009921866
v 0.01031381 0.03994362 -0.01405637
v 0.01031381 0.02827261 -0.01040997
v 0.01031381 0.02827261 -0.01405097
v -0.0001459682 0.02792061 0.01096213
v -1.966238E-05 -0.05639338 0.01096213
v -0.008800598 0.02792061 0.01096223
v -0.008673712 -0.05801538 0.01096213
v 0.01028231 0.03936661 0.01460003
v 0.01030416 0.02993561 0.01460003
v -0.003025396 0.03899961 0.01461004
v -0.003004097 0.02992561 0.01461004
v -1.966298E-05 -0.05800438 0.007441535
v 0.0141054 -0.05045938 0.006586037
v -1.966298E-05 -0.05800438 -0.006811564
v 0.0141054 -0.05045938 -0.005956664
v 0.01394464 0.05613861 -0.006782565
v 0.0223566 0.0430656 -0.006777964
v 0.02302101 0.05856161 -0.007613964
v 0.0267958 0.05478262 -0.007606864
v -0.0001682758 0.04253561 -0.006777964
v -0.0001886541 0.05613861 -0.006782565
v -0.002565398 0.02807562 -0.01405076
v 0.01031381 0.02827261 -0.01405097
v -0.002586097 0.03986361 -0.01405637
v 0.01031381 0.03994362 -0.01405637
v -0.008800598 0.02792061 0.01096223
v -0.008821896 0.04233461 0.01096223
v -0.003004097 0.02992561 0.01461004
v -0.003025396 0.03899961 0.01461004
v 0.01408259 -0.04277037 0.006585135
v 0.01408259 -0.04278138 -0.005961263
v 0.0141054 -0.05045938 0.006586037
v 0.0141054 -0.05045938 -0.005956664
v 0.0223569 0.0430656 0.007327933
v 0.01394464 0.05622061 0.007327036
v 0.0268201 0.0547866 0.008827834
v 0.0230222 0.05861462 0.008822236
v -0.0001679462 0.04253561 0.007327933
v -0.0001886541 0.05622061 0.007327036
v -0.0001484484 0.02827261 -0.01040997
v -0.008802098 0.02807562 -0.01040976
v -1.966238E-05 -0.05639338 -0.01037487
v -0.008673712 -0.05801538 -0.01037487
v -1.966298E-05 -0.05800438 -0.006811564
v 0.0141054 -0.05045938 -0.005956664
v -4.248023E-05 -0.04278138 -0.006816764
v 0.01408259 -0.04278138 -0.005961263
v -0.008822796 0.04141661 -0.01034546
v -0.0001683664 0.0414966 -0.01034546
v -0.008842694 0.05610561 -0.01035086
v -0.0001886541 0.05611761 -0.01035096
vt 0.575729 0.149755
vt 0.639602 0.0985292
vt 0.575729 0.04
vt 0.684913 0.051223
vt 0.684914 0.151129
vt 0.605492 0.888238
vt 0.607752 0.945943
vt 0.631122 0.889183
vt 0.683707 0.928544
vt 0.724604 0.889182
vt 0.747695 0.945941
vt 0.749978 0.888238
vt 0.04 0.940944
vt 0.11713 0.884452
vt 0.0436111 0.828713
vt 0.203787 0.939307
vt 0.207346 0.828713
vt 0.655838 0.605986
vt 0.651001 0.559907
vt 0.57619 0.583201
vt 0.650787 0.517713
vt 0.575729 0.490685
vt 0.655838 0.47156
vt 0.714542 0.29202
vt 0.709662 0.338112
vt 0.767683 0.315289
vt 0.768509 0.22275
vt 0.714886 0.249799
vt 0.709662 0.203695
vt 0.90312 0.424162
vt 0.927022 0.408292
vt 0.903137 0.36739
vt 0.927022 0.492773
vt 0.903142 0.492781
vt 0.915358 0.188814
vt 0.888668 0.22952
vt 0.915139 0.245578
vt 0.888238 0.314127
vt 0.915358 0.314999
vt 0.879066 0.659243
vt 0.874708 0.590611
vt 0.873357 0.659137
vt 0.906361 0.590712
vt 0.906361 0.677997
vt 0.87905 0.716006
vt 0.828713 0.0973731
vt 0.836257 0.166363
vt 0.834238 0.0967744
vt 0.867181 0.164697
vt 0.867181 0.0773827
vt 0.834035 0.04
vt 0.370798 0.837236
vt 0.427558 0.813832
vt 0.370798 0.813832
vt 0.41016 0.88963
vt 0.370798 0.929778
vt 0.427558 0.95362
vt 0.370798 0.95362
vt 0.278102 0.837236
vt 0.278102 0.929778
vt 0.79895 0.218577
vt 0.79895 0.309713
vt 0.855712 0.219806
vt 0.85571 0.309707
vt 0.353182 0.129914
vt 0.218577 0.223471
vt 0.353193 0.224455
vt 0.218991 0.136741
vt 0.334904 0.129916
vt 0.242388 0.129927
vt 0.218941 0.0408499
vt 0.242346 0.0407072
vt 0.242155 0.68949
vt 0.335664 0.689414
vt 0.35875 0.225768
vt 0.358764 0.778766
vt 0.335673 0.78933
vt 0.21882 0.778768
vt 0.242191 0.78933
vt 0.334817 0.040161
vt 0.358739 0.129909
vt 0.358657 0.04
vt 0.813832 0.456679
vt 0.814051 0.544182
vt 0.861417 0.466926
vt 0.861417 0.544243
vt 0.724543 0.04
vt 0.724543 0.134538
vt 0.793067 0.0510035
vt 0.793083 0.134588
vt 0.106311 0.0404001
vt 0.184049 0.137156
vt 0.184081 0.04082
vt 0.184458 0.224659
vt 0.106311 0.789334
vt 0.184233 0.789309
vt 0.0400004 0.225673
vt 0.0400004 0.131137
vt 0.04 0.04
vt 0.04 0.789308
vt 0.676912 0.40888
vt 0.676912 0.362482
vt 0.605725 0.337628
vt 0.652154 0.337701
vt 0.64707 0.43875
vt 0.575809 0.367383
vt 0.600721 0.438744
vt 0.575729 0.413715
vt 0.739425 0.855924
vt 0.808239 0.846766
vt 0.73962 0.769187
vt 0.808239 0.769187
vt 0.90312 0.0548814
vt 0.90312 0.138466
vt 0.932471 0.0647598
vt 0.932471 0.126619
vt 0.605492 0.754306
vt 0.605492 0.854221
vt 0.698378 0.803648
vt 0.698304 0.854083
vt 0.96 0.769187
vt 0.932883 0.770138
vt 0.956763 0.846698
vt 0.932883 0.846687
vt 0.543205 0.603552
vt 0.543216 0.0505557
vt 0.486441 0.603635
vt 0.486441 0.04
vt 0.871355 0.950097
vt 0.871355 0.888238
vt 0.784069 0.947893
vt 0.784071 0.888375
vt 0.669212 0.293842
vt 0.663601 0.188814
vt 0.575729 0.293842
vt 0.581336 0.188814
vt 0.491791 0.649874
vt 0.544928 0.736889
vt 0.551893 0.635255
vt 0.57604 0.660632
vt 0.397153 0.736889
vt 0.39912 0.647691
vt 0.694781 0.456679
vt 0.695549 0.541156
vt 0.772096 0.457021
vt 0.772096 0.541629
vt 0.843594 0.754306
vt 0.843594 0.848842
vt 0.888531 0.767397
vt 0.888487 0.826914
vt 0.866357 0.36739
vt 0.784069 0.367454
vt 0.866357 0.417825
vt 0.784093 0.417816
vt 0.47156 0.800886
vt 0.559116 0.854013
vt 0.548099 0.769187
vt 0.573853 0.79343
vt 0.47156 0.948661
vt 0.561299 0.946683
vt 0.453912 0.04
vt 0.397153 0.0412061
vt 0.453928 0.5953
vt 0.397153 0.605855
vt 0.743023 0.620374
vt 0.650136 0.669713
vt 0.743023 0.720215
vt 0.650211 0.720074
vt 0.784069 0.71671
vt 0.840831 0.716265
vt 0.784071 0.620374
vt 0.840831 0.620374
vn -0.3663389 0.8554384 -0.3660885
vn 0.1055321 0.9944158 -0.0004530042
vn -0.3666311 0.855848 0.3648369
vn 0.4491245 0.7770392 0.4410184
vn 0.4488117 0.776578 -0.4421479
vn 0.1683518 -0.8981941 -0.4060852
vn 0.05440905 -0.9901398 -0.1290844
vn 0.06703497 -0.9849199 -0.1594964
vn 0.001621207 -0.9999987 4.768256E-05
vn 0.06720164 -0.9845353 0.1617846
vn 0.05544464 -0.9895396 0.1331816
vn 0.1680136 -0.8963903 0.4101899
vn -0.3650835 -0.8619568 0.3517734
vn -0.008141538 -0.9999669 0
vn -0.3650835 -0.8619568 -0.3517734
vn 0.3799809 -0.8699173 0.3144176
vn 0.3799809 -0.8699173 -0.3144176
vn 0.6431109 -0.3332018 0.6894816
vn 0.7428291 -0.5899526 0.3164821
vn 0.7438666 -0.6269661 0.2314644
vn 0.7547105 -0.5813388 -0.304068
vn 0.7531388 -0.6137446 -0.2368533
vn 0.6657787 -0.3005958 -0.6829208
vn -0.6089821 0.7396281 0.2865153
vn -0.2896913 0.6740866 0.6794751
vn -0.6031922 0.7406445 0.2959812
vn -0.58039 0.7537323 -0.3082778
vn -0.6019469 0.7497338 -0.2748801
vn -0.2478316 0.6976954 -0.6721612
vn 0.01599341 -0.9991621 0.03767363
vn 0.01993357 -0.9989676 0.0408209
vn 0.02274315 -0.9989821 0.0389542
vn 0.003254179 -0.9999509 0.009369175
vn 0 -1 0
vn -0.00847612 0.9172807 -0.3981511
vn -0.007355043 0.917032 -0.3987459
vn 0.01024617 0.933468 -0.3585145
vn 0.1034139 0.9872426 -0.1210688
vn 0.1342569 0.9903206 -0.03521532
vn 0.00557905 -0.9655095 0.260308
vn 0.04641094 -0.9373271 0.3453461
vn 0.0009656454 -0.9729891 -0.2308489
vn 0.0370979 -0.9155266 0.4005429
vn 0.0003933889 -0.8762319 0.4818894
vn 0 -0.8763769 0.4816259
vn 0.1570585 0.9875893 0
vn 0.1732113 0.938226 0.2995495
vn 0.05979651 0.8855987 0.4605857
vn 0.1226834 0.8955372 0.4277406
vn -0.01796399 0.7249491 0.6885681
vn -0.01682142 0.7244538 0.6891181
vn -0.001037079 0.999983 -0.005745659
vn -0.001490057 0.9999831 -0.005626454
vn -0.001388731 0.9999818 -0.005888697
vn -0.001692702 0.9999814 -0.005864854
vn -0.001031118 0.9999818 -0.00596022
vn -0.00144237 0.9999797 -0.006198616
vn -0.00138873 0.9999807 -0.006055576
vn 0 0.9999831 -0.005817182
vn 0 0.9999831 -0.005817182
vn 1.192066E-05 0 1
vn 1.192066E-05 0 1
vn 1.192066E-05 0 1
vn 1.192066E-05 0 1
vn 0.9999988 0.001525878 -4.76837E-05
vn 0.9999988 0.001525878 -9.53674E-05
vn 0.9999988 0.001525878 -9.53674E-05
vn 0.9999992 0.001335144 -0.0002384186
vn 0.9999999 0.0005722051 0
vn 0.9999999 0.0005722051 -0.0001668932
vn 0.9999988 0.001525878 -7.152555E-05
vn 0.9999988 0.001525878 0
vn 0.9999988 0.001525879 0.0003814696
vn 0.9999988 0.001525878 -0.0004291533
vn 0.9999988 0.001525878 -4.76837E-05
vn 0.9999987 0.001525878 -0.0006675718
vn 0.9999987 0.001525878 -0.0006675718
vn 0.9999987 0.001525878 0.0006675718
vn 0.9999987 0.001525878 0.0006675718
vn 0.9999988 0.001525878 0
vn 0.9999988 0.001525878 0
vn 0.9999988 0.001525878 0
vn -0.5107187 0.003433242 -0.8597411
vn -0.5064688 0.0003814669 -0.8622582
vn -0.5087067 0.001907367 -0.8609378
vn -0.504173 -0.001335147 -0.8636017
vn 0.0009596123 0 -0.9999995
vn 0.0009596123 0 -0.9999995
vn 0.000953652 0 -0.9999995
vn 0.000953652 0 -0.9999995
vn -0.9997827 -0.001525876 -0.02079006
vn -0.9743518 -0.002288806 0.2250182
vn -0.9746503 -0.001144403 0.2237309
vn -0.9747971 -0.001525877 0.223088
vn -0.9997956 -0.00143051 -0.0201702
vn -0.9747536 -0.001335148 0.2232797
vn -0.9649707 -0.001335138 -0.2623546
vn -0.9649707 -0.001335138 -0.2623546
vn -0.9649695 -0.001525888 -0.2623574
vn -0.9649697 -0.001430521 -0.2623575
vn 0.7082589 0.7059461 -0.003051915
vn 0.7080824 0.7061273 -0.001883578
vn 0.7086425 0.7055668 -0.001144472
vn 0.7075239 0.7066895 -0.0001907394
vn 0.7086882 0.7055173 -0.002527198
vn 0.709261 0.7049457 -0.0005721961
vn 0.7092955 0.7049088 -0.001907221
vn 0.709855 0.7043478 -0.0001907251
vn -0.04103798 -0.004959129 0.9991453
vn -0.0235913 -0.02040845 0.9995133
vn -0.01896023 -0.02441406 0.9995221
vn 0 -0.04119915 0.999151
vn 0.9999985 0.001716613 0.0005722042
vn 0.9999977 0.002098106 -0.0005245264
vn 0.9999982 0.001907347 0.0002384184
vn 0.9999969 0.002288813 -0.001001356
vn 0.0603743 0.0001907373 0.9981759
vn 0.06039806 0.000190737 0.9981744
vn 0.06041587 0.0001907368 0.9981732
vn 0.06045151 0.0002861045 0.9981711
vn 1 0 0
vn 1 0 0
vn 1 0 0
vn 1 0 0
vn 1.192066E-05 0 1
vn 0 0 1
vn 1.192066E-05 0 1
vn 0 0 1
vn 0.0007510011 0 0.9999998
vn 0.0007510011 0 0.9999998
vn 0.0007510011 0 0.9999998
vn 0.0007510011 0 0.9999998
vn 0.4711506 -0.8820528 0
vn 0.4711506 -0.8820528 0
vn 0.4711506 -0.8820528 0
vn 0.4711506 -0.8820528 0
vn -0.02883681 -0.0188828 -0.9994057
vn -0.03261583 -0.02441419 -0.9991697
vn -0.06670962 -0.05092628 -0.996472
vn -0.04985303 -0.05168884 -0.9974182
vn 5.960471E-06 -0.0003814701 -1
vn 0 -0.0003814701 -1
vn -1.192094E-05 -0.0003814701 -1
vn -1.192094E-05 -0.0003814701 -1
vn 0 -0.0003814701 -1
vn 0 -0.0003814701 -1
vn -0.5324226 -0.0007629368 0.8464783
vn -0.5328118 -0.0009536635 0.8462332
vn -0.5326236 -0.0009536895 0.8463517
vn -0.533128 -0.001335115 0.8460336
vn 0.9999957 0.002956381 0
vn 0.9999957 0.002956381 0
vn 0.9999957 0.002956381 0
vn 0.9999957 0.002956381 0
vn -0.05946237 -0.03795673 0.9975086
vn -0.04673025 -0.03452317 0.9983108
vn -0.1257439 -0.09555964 0.9874496
vn -0.1286974 -0.1262656 0.9836127
vn 0 0 1
vn 0 0 1
vn -1.192094E-05 -0.0003814701 -1
vn -1.192094E-05 -0.0003814701 -1
vn 7.152564E-05 -0.0003814701 -1
vn 7.152564E-05 -0.0003814701 -1
vn 0.06054653 -0.0002861029 -0.9981654
vn 0.06049902 -0.0003814716 -0.9981682
vn 0.06051683 -0.0002861034 -0.9981672
vn 0.06045151 -0.0003814727 -0.9981711
vn 0 -0.0003814701 -1
vn 0 -0.0003814701 -1
vn -1.192094E-05 -0.0003814701 -1
vn -1.192094E-05 -0.0003814701 -1
g mount_mosin_kochetov_mount_LOD1_0
f 3/3/3 2/2/2 1/1/1
f 4/4/4 2/2/2 3/3/3
f 5/5/5 2/2/2 4/4/4
f 1/1/1 2/2/2 5/5/5
f 8/8/8 7/7/7 6/6/6
f 8/8/8 9/9/9 7/7/7
f 9/9/9 8/8/8 10/10/10
f 11/11/11 9/9/9 10/10/10
f 11/11/11 10/10/10 12/12/12
f 15/15/15 14/14/14 13/13/13
f 13/13/13 14/14/14 16/16/16
f 17/17/17 14/14/14 15/15/15
f 16/16/16 14/14/14 17/17/17
f 20/20/20 19/19/19 18/18/18
f 20/20/20 21/21/21 19/19/19
f 21/21/21 20/20/20 22/22/22
f 22/22/22 23/23/23 21/21/21
f 26/26/26 25/25/25 24/24/24
f 24/24/24 27/27/27 26/26/26
f 27/27/27 24/24/24 28/28/28
f 29/29/29 27/27/27 28/28/28
f 32/32/32 31/31/31 30/30/30
f 33/33/33 30/30/30 31/31/31
f 30/30/30 33/33/33 34/34/34
f 37/37/37 36/36/36 35/35/35
f 37/37/37 38/38/38 36/36/36
f 38/38/38 37/37/37 39/39/39
f 42/42/42 41/41/41 40/40/40
f 43/43/43 40/40/40 41/41/41
f 40/40/40 43/43/43 44/44/44
f 40/40/40 44/44/44 45/45/45
f 48/48/48 47/47/47 46/46/46
f 48/48/48 49/49/49 47/47/47
f 49/49/49 48/48/48 50/50/50
f 51/51/51 50/50/50 48/48/48
f 54/54/54 53/53/53 52/52/52
f 55/55/55 52/52/52 53/53/53
f 56/56/56 52/52/52 55/55/55
f 57/57/57 56/56/56 55/55/55
f 57/57/57 58/58/58 56/56/56
f 56/56/56 59/59/59 52/52/52
f 59/59/59 56/56/56 60/60/60
f 63/63/63 62/62/62 61/61/61
f 62/62/62 63/63/63 64/64/64
f 67/67/67 66/66/66 65/65/65
f 66/66/66 68/68/68 65/65/65
f 69/69/69 65/65/65 68/68/68
f 70/70/70 69/69/69 68/68/68
f 71/71/71 70/70/70 68/68/68
f 70/70/70 71/71/71 72/72/72
f 66/66/66 67/67/67 73/73/73
f 67/67/67 74/74/74 73/73/73
f 75/75/75 74/74/74 67/67/67
f 76/76/76 74/74/74 75/75/75
f 77/77/77 74/74/74 76/76/76
f 73/73/73 78/78/78 66/66/66
f 79/79/79 78/78/78 73/73/73
f 69/69/69 80/80/80 65/65/65
f 65/65/65 80/80/80 81/81/81
f 82/82/82 81/81/81 80/80/80
f 85/85/85 84/84/84 83/83/83
f 84/84/84 85/85/85 86/86/86
f 89/89/89 88/88/88 87/87/87
f 88/88/88 89/89/89 90/90/90
f 93/93/93 92/92/92 91/91/91
f 92/92/92 94/94/94 91/91/91
f 94/94/94 95/95/95 91/91/91
f 96/96/96 95/95/95 94/94/94
f 95/95/95 97/97/97 91/91/91
f 98/98/98 91/91/91 97/97/97
f 99/99/99 91/91/91 98/98/98
f 100/100/100 97/97/97 95/95/95
f 103/103/103 102/102/102 101/101/101
f 102/102/102 103/103/103 104/104/104
f 105/105/105 103/103/103 101/101/101
f 103/103/103 105/105/105 106/106/106
f 107/107/107 106/106/106 105/105/105
f 106/106/106 107/107/107 108/108/108
f 111/111/111 110/110/110 109/109/109
f 110/110/110 111/111/111 112/112/112
f 115/115/115 114/114/114 113/113/113
f 114/114/114 115/115/115 116/116/116
f 119/119/119 118/118/118 117/117/117
f 118/118/118 119/119/119 120/120/120
f 123/123/123 122/122/122 121/121/121
f 122/122/122 123/123/123 124/124/124
f 127/127/127 126/126/126 125/125/125
f 126/126/126 127/127/127 128/128/128
f 131/131/131 130/130/130 129/129/129
f 130/130/130 131/131/131 132/132/132
f 135/135/135 134/134/134 133/133/133
f 134/134/134 135/135/135 136/136/136
f 139/139/139 138/138/138 137/137/137
f 138/138/138 139/139/139 140/140/140
f 141/141/141 137/137/137 138/138/138
f 137/137/137 141/141/141 142/142/142
f 145/145/145 144/144/144 143/143/143
f 144/144/144 145/145/145 146/146/146
f 149/149/149 148/148/148 147/147/147
f 148/148/148 149/149/149 150/150/150
f 153/153/153 152/152/152 151/151/151
f 152/152/152 153/153/153 154/154/154
f 157/157/157 156/156/156 155/155/155
f 156/156/156 157/157/157 158/158/158
f 156/156/156 159/159/159 155/155/155
f 159/159/159 156/156/156 160/160/160
f 163/163/163 162/162/162 161/161/161
f 162/162/162 163/163/163 164/164/164
f 167/167/167 166/166/166 165/165/165
f 166/166/166 167/167/167 168/168/168
f 171/171/171 170/170/170 169/169/169
f 170/170/170 171/171/171 172/172/172
