g mount_dovetail_noname_toz106_angled_mount_LOD1
v 0.0002981594 0.09876096 0.03052419
v 0.0002943566 0.09876096 0.03549606
v 0.000294334 -0.04123904 0.03549606
v 0.0002981362 -0.04123904 0.03052419
v 0.01566188 0.09876096 0.02407988
v 0.0156455 0.09876096 0.02014494
v 0.01564547 -0.04123904 0.02014494
v 0.01566186 -0.04123904 0.02407988
v 0.01068334 0.09876096 0.02013903
v 0.008779067 0.09876096 0.01823475
v 0.008779044 -0.04123904 0.01823475
v 0.01068332 -0.04123904 0.02013903
v 0.0156455 0.09876096 0.02014494
v 0.01068334 0.09876096 0.02013903
v 0.01068332 -0.04123904 0.02013903
v 0.01564547 -0.04123904 0.02014494
v 0.0002943566 0.09876096 0.03549606
v 0.004238982 0.09876096 0.03550276
v 0.00423896 -0.04123904 0.03550276
v 0.000294334 -0.04123904 0.03549606
v 0.008779067 0.09876096 0.01823475
v -0.001606112 0.09876096 0.02861991
v -0.001606134 -0.04123904 0.02861991
v 0.008779044 -0.04123904 0.01823475
v 0.004238982 0.09876096 0.03550276
v 0.01566188 0.09876096 0.02407988
v 0.01566186 -0.04123904 0.02407988
v 0.00423896 -0.04123904 0.03550276
v -0.001606112 0.09876096 0.02861991
v 0.0002981594 0.09876096 0.03052419
v 0.0002981362 -0.04123904 0.03052419
v -0.001606134 -0.04123904 0.02861991
v 0.0002981594 0.09876096 0.03052419
v -0.001606112 0.09876096 0.02861991
v 0.008779067 0.09876096 0.01823475
v 0.01068334 0.09876096 0.02013903
v 0.01566188 0.09876096 0.02407988
v 0.004238982 0.09876096 0.03550276
v 0.0002943566 0.09876096 0.03549606
v 0.0156455 0.09876096 0.02014494
v 0.01566186 -0.04123904 0.02407988
v 0.01564547 -0.04123904 0.02014494
v 0.01068332 -0.04123904 0.02013903
v 0.00423896 -0.04123904 0.03550276
v 0.0002981362 -0.04123904 0.03052419
v -0.001606134 -0.04123904 0.02861991
v 0.008779044 -0.04123904 0.01823475
v 0.000294334 -0.04123904 0.03549606
v 0.01087818 0.04090391 0.01613564
v 0.01087818 0.04090391 -0.0109535
v 0.01087818 0.02084057 -0.0109535
v 0.01087817 0.02084057 0.01613564
v 0.01087818 0.04090391 -0.0109535
v -0.002809544 0.04090391 -0.01095351
v -0.002809547 0.02084057 -0.01095351
v 0.01087818 0.02084057 -0.0109535
v -0.002809544 0.04090391 -0.01095351
v -0.00280955 0.04090391 0.009615728
v -0.002809553 0.02084057 0.009615728
v -0.002809547 0.02084057 -0.01095351
v -0.002809553 0.02084057 0.009615728
v 0.004894259 0.02084057 0.01230676
v 0.01087818 0.02084057 -0.0109535
v -0.002809547 0.02084057 -0.01095351
v 0.01087817 0.02084057 0.01613564
v 0.004034306 0.02084057 0.01686455
v -0.002249826 0.02084057 0.0292638
v -0.00188306 0.02084057 0.02278202
v 0.01087818 0.04090391 -0.0109535
v 0.01087818 0.04090391 0.01613564
v 0.004894263 0.04090391 0.01230676
v -0.002809544 0.04090391 -0.01095351
v -0.00280955 0.04090391 0.009615728
v 0.00403431 0.04090391 0.01686455
v -0.002249822 0.04090391 0.0292638
v -0.001883056 0.04090391 0.02278202
v -0.00280955 0.04090391 0.009615728
v 0.004894263 0.04090391 0.01230676
v 0.004894259 0.02084057 0.01230676
v -0.002809553 0.02084057 0.009615728
v 0.004894263 0.04090391 0.01230676
v 0.00403431 0.04090391 0.01686455
v 0.004034306 0.02084057 0.01686455
v 0.004894259 0.02084057 0.01230676
v -0.00188306 0.02084057 0.02278202
v -0.001883056 0.04090391 0.02278202
v 0.01087817 0.02084057 0.01613564
v -0.002249826 0.02084057 0.0292638
v -0.002249822 0.04090391 0.0292638
v 0.01087818 0.04090391 0.01613564
v -0.002249826 0.02084057 0.0292638
v -0.00188306 0.02084057 0.02278202
v -0.001883056 0.04090391 0.02278202
v -0.002249822 0.04090391 0.0292638
v 0.01087817 -0.01167568 0.01613564
v 0.01087818 -0.01167568 -0.0109535
v 0.01087817 -0.03173903 -0.0109535
v 0.01087816 -0.03173903 0.01613564
v 0.01087818 -0.01167568 -0.0109535
v -0.002809553 -0.01167568 -0.01095351
v -0.002809556 -0.03173903 -0.01095351
v 0.01087817 -0.03173903 -0.0109535
v -0.002809553 -0.01167568 -0.01095351
v -0.002809558 -0.01167568 0.009615728
v -0.002809562 -0.03173903 0.009615728
v -0.002809556 -0.03173903 -0.01095351
v -0.002809562 -0.03173903 0.009615728
v 0.004894251 -0.03173903 0.01230676
v 0.01087817 -0.03173903 -0.0109535
v -0.002809556 -0.03173903 -0.01095351
v 0.01087816 -0.03173903 0.01613564
v 0.004034298 -0.03173903 0.01686455
v -0.002249834 -0.03173903 0.0292638
v -0.001883068 -0.03173903 0.02278202
v 0.01087818 -0.01167568 -0.0109535
v 0.01087817 -0.01167568 0.01613564
v 0.004894254 -0.01167568 0.01230676
v -0.002809553 -0.01167568 -0.01095351
v -0.002809558 -0.01167568 0.009615728
v 0.004034301 -0.01167568 0.01686455
v -0.002249831 -0.01167568 0.0292638
v -0.001883065 -0.01167568 0.02278202
v -0.002809558 -0.01167568 0.009615728
v 0.004894254 -0.01167568 0.01230676
v 0.004894251 -0.03173903 0.01230676
v -0.002809562 -0.03173903 0.009615728
v 0.004894254 -0.01167568 0.01230676
v 0.004034301 -0.01167568 0.01686455
v 0.004034298 -0.03173903 0.01686455
v 0.004894251 -0.03173903 0.01230676
v -0.001883068 -0.03173903 0.02278202
v -0.001883065 -0.01167568 0.02278202
v 0.01087816 -0.03173903 0.01613564
v -0.002249834 -0.03173903 0.0292638
v -0.002249831 -0.01167568 0.0292638
v 0.01087817 -0.01167568 0.01613564
v -0.002249834 -0.03173903 0.0292638
v -0.001883068 -0.03173903 0.02278202
v -0.001883065 -0.01167568 0.02278202
v -0.002249831 -0.01167568 0.0292638
v 0.00990375 0.0370956 -0.01477578
v 0.009903743 0.0370956 -0.01072759
v 0.006259623 0.04006952 -0.01072759
v 0.006259621 0.04006952 -0.01477578
v 0.009150311 0.03245273 -0.01477579
v 0.009150307 0.03245273 -0.01072759
v 0.009903743 0.0370956 -0.01072759
v 0.00990375 0.0370956 -0.01477578
v 0.004752755 0.03078378 -0.01477579
v 0.004752751 0.03078378 -0.01072759
v 0.009150307 0.03245273 -0.01072759
v 0.009150311 0.03245273 -0.01477579
v 0.001108625 0.03375769 -0.01477579
v 0.00110862 0.03375769 -0.01072759
v 0.004752751 0.03078378 -0.01072759
v 0.004752755 0.03078378 -0.01477579
v 0.00186205 0.03840057 -0.01477579
v 0.001862054 0.03840057 -0.01072759
v 0.00110862 0.03375769 -0.01072759
v 0.001108625 0.03375769 -0.01477579
v 0.006259621 0.04006952 -0.01477578
v 0.006259623 0.04006952 -0.01072759
v 0.001862054 0.03840057 -0.01072759
v 0.00186205 0.03840057 -0.01477579
v 0.00186205 0.03840057 -0.01477579
v 0.001108625 0.03375769 -0.01477579
v 0.004752755 0.03078378 -0.01477579
v 0.009150311 0.03245273 -0.01477579
v 0.006259621 0.04006952 -0.01477578
v 0.00990375 0.0370956 -0.01477578
v 0.00844082 -0.01347712 -0.01477578
v 0.008440816 -0.01347712 -0.01059391
v 0.003790139 -0.01277356 -0.01059391
v 0.003790138 -0.01277356 -0.01477579
v 0.01015687 -0.01785651 -0.01477578
v 0.01015686 -0.01785651 -0.01059391
v 0.008440816 -0.01347712 -0.01059391
v 0.00844082 -0.01347712 -0.01477578
v 0.007222228 -0.02153236 -0.01477578
v 0.007222224 -0.02153236 -0.01059391
v 0.01015686 -0.01785651 -0.01059391
v 0.01015687 -0.01785651 -0.01477578
v 0.002571538 -0.02082881 -0.01477579
v 0.002571545 -0.02082881 -0.01059391
v 0.007222224 -0.02153236 -0.01059391
v 0.007222228 -0.02153236 -0.01477578
v 0.0008554891 -0.01644942 -0.01477579
v 0.0008554849 -0.01644942 -0.01059392
v 0.002571545 -0.02082881 -0.01059391
v 0.002571538 -0.02082881 -0.01477579
v 0.003790138 -0.01277356 -0.01477579
v 0.003790139 -0.01277356 -0.01059391
v 0.0008554849 -0.01644942 -0.01059392
v 0.0008554891 -0.01644942 -0.01477579
v 0.0008554891 -0.01644942 -0.01477579
v 0.01015687 -0.01785651 -0.01477578
v 0.00844082 -0.01347712 -0.01477578
v 0.003790138 -0.01277356 -0.01477579
v 0.007222228 -0.02153236 -0.01477578
v 0.002571538 -0.02082881 -0.01477579
vt 0.005143541 0.3602908
vt 0.005151886 0.4169101
vt 0.7820426 0.4164268
vt 0.7820343 0.3598072
vt 0.005143839 0.4291025
vt 0.005143541 0.4739136
vt 0.7820344 0.4739337
vt 0.7820345 0.4291225
vt 0.005143541 0.2030663
vt 0.005143661 0.2337344
vt 0.7820348 0.233741
vt 0.782035 0.203073
vt 0.005147356 0.2894411
vt 0.005143541 0.3459498
vt 0.7820342 0.346176
vt 0.7820382 0.2896672
vt 0.005143541 0.4870318
vt 0.005144793 0.5319532
vt 0.7820355 0.5318578
vt 0.7820342 0.4869368
vt 0.005158204 0.5456147
vt 0.005143541 0.7128674
vt 0.782034 0.7131541
vt 0.7820487 0.5459009
vt 0.005153913 0.007071636
vt 0.005143541 0.1910368
vt 0.7820343 0.1912249
vt 0.782045 0.007259629
vt 0.005143541 0.2456926
vt 0.005145806 0.2763611
vt 0.7820376 0.2761188
vt 0.7820356 0.2454506
vt 0.5927138 0.9155489
vt 0.5927132 0.8860775
vt 0.5143929 0.886086
vt 0.5143937 0.9155576
vt 0.5104824 0.9845786
vt 0.5966293 0.9845691
vt 0.611477 0.9539908
vt 0.4957058 0.9540042
vt 0.1962526 0.9845786
vt 0.2110307 0.954006
vt 0.1923437 0.9155573
vt 0.1101057 0.9845563
vt 0.1140228 0.9155368
vt 0.1140248 0.8860652
vt 0.1923455 0.8860853
vt 0.09525832 0.9539758
vt 0.994229 0.6518182
vt 0.9942288 0.37964
vt 0.894762 0.3796077
vt 0.8947626 0.6517872
vt 0.9942285 0.3670104
vt 0.9942284 0.2294816
vt 0.8947622 0.229499
vt 0.894762 0.3670274
vt 0.9942255 0.2160819
vt 0.9942244 0.009402394
vt 0.894762 0.009402514
vt 0.8947635 0.2160808
vt 0.458147 0.8659534
vt 0.4714146 0.7880714
vt 0.3568251 0.7275085
vt 0.3568068 0.8658979
vt 0.490286 0.7275815
vt 0.4938681 0.7967787
vt 0.5549482 0.8603476
vt 0.5230147 0.8566219
vt 0.005145628 0.864949
vt 0.1386068 0.8649415
vt 0.1197417 0.8044428
vt 0.005143541 0.7265589
vt 0.1064834 0.7265542
vt 0.1421968 0.7957473
vt 0.2032844 0.7322083
vt 0.1713504 0.7359181
vt 0.4570183 0.961382
vt 0.4570182 0.87939
vt 0.3575515 0.8794075
vt 0.357552 0.9613984
vt 0.9942287 0.9908223
vt 0.9942292 0.9442206
vt 0.8947625 0.9441993
vt 0.8947622 0.9908017
vt 0.8947622 0.8601159
vt 0.9942287 0.8601371
vt 0.8947622 0.6644112
vt 0.8947622 0.850953
vt 0.9942284 0.8509216
vt 0.9942282 0.6643791
vt 0.7478627 0.9333307
vt 0.7796491 0.9333307
vt 0.7796553 0.7292107
vt 0.7478693 0.7292107
vt 0.8883804 0.6517875
vt 0.8883804 0.3796077
vt 0.7889138 0.3796389
vt 0.788914 0.6518178
vt 0.8883804 0.367024
vt 0.8883804 0.229497
vt 0.788914 0.2294816
vt 0.7889137 0.3670091
vt 0.8883759 0.2160816
vt 0.8883896 0.00940311
vt 0.7889274 0.009402394
vt 0.7889138 0.2160814
vt 0.5986416 0.7275085
vt 0.5853748 0.8053911
vt 0.6999657 0.8659456
vt 0.6999809 0.7275558
vt 0.5665039 0.8658824
vt 0.5629208 0.7966866
vt 0.5018398 0.7331222
vt 0.5337733 0.7368453
vt 0.3507847 0.7265831
vt 0.2173237 0.7265545
vt 0.2361846 0.7870584
vt 0.3507774 0.8649725
vt 0.2494381 0.8649503
vt 0.213729 0.7957475
vt 0.1526371 0.8592705
vt 0.184572 0.8555689
vt 0.3496511 0.9613807
vt 0.3496512 0.87939
vt 0.2501851 0.8794283
vt 0.2501854 0.9614192
vt 0.8883805 0.9908015
vt 0.8883804 0.9441986
vt 0.7889138 0.9442168
vt 0.7889141 0.9908197
vt 0.7889141 0.8601339
vt 0.8883805 0.8601158
vt 0.7889138 0.6643791
vt 0.7889141 0.8509212
vt 0.8883802 0.8509219
vt 0.8883802 0.6643814
vt 0.7098701 0.9333311
vt 0.7416563 0.9333318
vt 0.7416424 0.7292093
vt 0.7098564 0.7292093
vt 0.03450777 0.9283485
vt 0.05445243 0.9283563
vt 0.05445684 0.8808002
vt 0.03451188 0.8807932
vt 0.06321874 0.9283564
vt 0.08316316 0.9283489
vt 0.08315893 0.8807931
vt 0.06321468 0.8808001
vt 0.005145031 0.9283533
vt 0.02508964 0.9283514
vt 0.02508767 0.8807961
vt 0.005143541 0.8807979
vt 0.06321462 0.988799
vt 0.08315911 0.9887998
vt 0.08315971 0.9412434
vt 0.06321546 0.9412421
vt 0.03450777 0.9887981
vt 0.05445291 0.9887986
vt 0.05445291 0.9412432
vt 0.03450848 0.9412433
vt 0.02508851 0.9412386
vt 0.005143541 0.9412469
vt 0.005147237 0.9888033
vt 0.02509196 0.9887966
vt 0.2209104 0.8268415
vt 0.2008431 0.8506256
vt 0.2008461 0.8981814
vt 0.2209167 0.9219532
vt 0.2409803 0.8506137
vt 0.2409839 0.8981695
vt 0.6381921 0.9412453
vt 0.6175891 0.9412421
vt 0.6175878 0.9887979
vt 0.638191 0.9887993
vt 0.668293 0.9412439
vt 0.6476896 0.9412421
vt 0.6476885 0.9887987
vt 0.6682917 0.9887998
vt 0.6765145 0.988798
vt 0.697117 0.9887973
vt 0.6971174 0.9412421
vt 0.6765141 0.9412426
vt 0.6175878 0.9283487
vt 0.6381905 0.9283528
vt 0.6381941 0.8807983
vt 0.617591 0.8807931
vt 0.6971205 0.8807993
vt 0.6765174 0.8807931
vt 0.6765143 0.9283485
vt 0.697117 0.9283552
vt 0.6682957 0.8808005
vt 0.6476923 0.8807931
vt 0.6476885 0.9283487
vt 0.668291 0.9283566
vt 0.4664582 0.8940991
vt 0.5065936 0.8465351
vt 0.4865235 0.8227613
vt 0.4664556 0.8465425
vt 0.5065956 0.8940914
vt 0.4865281 0.917873
vn -0.9999998 0 -0.0007390981
vn -0.9999998 0 -0.00076294
vn -0.9999998 0 -0.00076294
vn -0.9999998 0 -0.0007390981
vn 0.9999914 0 -0.004148452
vn 0.9999914 0 -0.004148501
vn 0.9999914 0 -0.004148452
vn 0.9999914 0 -0.004148501
vn 0.7071008 0 -0.7071127
vn 0.7071068 0 -0.7071068
vn 0.7071068 0 -0.7071068
vn 0.7070948 0 -0.7071187
vn 0.001192093 0 -0.9999993
vn 0.001204014 0 -0.9999993
vn 0.001204014 0 -0.9999993
vn 0.001192093 0 -0.9999993
vn -0.001692771 0 0.9999986
vn -0.001692771 0 0.9999986
vn -0.001692771 0 0.9999986
vn -0.001692771 0 0.9999986
vn -0.7071068 0 -0.7071068
vn -0.7071097 0 -0.7071038
vn -0.7071097 0 -0.7071038
vn -0.7071127 0 -0.7071007
vn 0.7071127 0 0.7071007
vn 0.7071187 0 0.7070948
vn 0.7071068 0 0.7071068
vn 0.7071127 0 0.7071007
vn -0.7070919 0 0.7071216
vn -0.7070919 0 0.7071216
vn -0.7070919 0 0.7071216
vn -0.7070919 0 0.7071216
vn 0 1 0
vn 0 1 0
vn 0 1 0
vn 0 1 0
vn 0 1 0
vn 0 1 0
vn 0 1 0
vn 0 1 0
vn 0 -1 0
vn 0 -1 0
vn 0 -1 0
vn 0 -1 0
vn 0 -1 0
vn 0 -1 0
vn 0 -1 0
vn 0 -1 0
vn 1 0 0
vn 1 0 0
vn 1 0 0
vn 1 0 0
vn 0 0 -1
vn 0 0 -1
vn 0 0 -1
vn 0 0 -1
vn -1 0 0
vn -1 0 0
vn -1 0 0
vn -1 0 0
vn 0 -1 0
vn 0 -1 0
vn 0 -1 0
vn 0 -1 0
vn 0 -1 0
vn 0 -1 0
vn 0 -1 0
vn 0 -1 0
vn 0 1 0
vn 0 1 0
vn 0 1 0
vn 0 1 0
vn 0 1 0
vn 0 1 0
vn 0 1 0
vn 0 1 0
vn -0.3297816 0 0.9440572
vn -0.3297673 0 0.9440622
vn -0.3297673 0 0.9440622
vn -0.3297816 0 0.9440572
vn -0.9826599 0 -0.185417
vn -0.8842255 0 -0.4670602
vn -0.8842242 0 -0.4670627
vn -0.9826598 0 -0.1854181
vn -0.7071097 0 -0.7071038
vn -0.7071097 0 -0.7071038
vn 0.7071187 0 0.7070948
vn 0.7070978 0 0.7071157
vn 0.7070978 0 0.7071157
vn 0.7071187 0 0.7070948
vn -0.9984023 0 -0.05650524
vn -0.9984036 0 -0.05648147
vn -0.9984036 0 -0.05648147
vn -0.9984023 0 -0.05650524
vn 1 0 0
vn 1 0 0
vn 1 0 0
vn 1 0 0
vn 0 0 -1
vn 0 0 -1
vn 0 0 -1
vn 0 0 -1
vn -1 0 0
vn -1 0 0
vn -1 0 0
vn -1 0 0
vn 0 -1 0
vn 0 -1 0
vn 0 -1 0
vn 0 -1 0
vn 0 -1 0
vn 0 -1 0
vn 0 -1 0
vn 0 -1 0
vn 0 1 0
vn 0 1 0
vn 0 1 0
vn 0 1 0
vn 0 1 0
vn 0 1 0
vn 0 1 0
vn 0 1 0
vn -0.3297816 0 0.9440572
vn -0.329762 0 0.9440641
vn -0.3297673 0 0.9440622
vn -0.3297816 0 0.9440572
vn -0.9826598 0 -0.1854181
vn -0.8842269 0 -0.4670578
vn -0.8842255 0 -0.4670602
vn -0.9826598 0 -0.1854181
vn -0.7071097 0 -0.7071038
vn -0.7071097 0 -0.7071038
vn 0.7071187 0 0.7070948
vn 0.7070978 0 0.7071157
vn 0.7070978 0 0.7071157
vn 0.7071247 0 0.7070889
vn -0.9984023 0 -0.05650524
vn -0.9984036 0 -0.05648147
vn -0.9984036 0 -0.05648147
vn -0.9984023 0 -0.05650524
vn 0.6322687 0.7747492 0
vn 0.6322616 0.774755 0
vn 0.632284 0.7747367 0
vn 0.6322768 0.7747425 -4.768527E-05
vn 0.9870816 -0.1602181 0
vn 0.9870819 -0.1602162 0
vn 0.9870816 -0.1602181 0
vn 0.9870819 -0.1602162 0
vn 0.3548308 -0.9349305 0
vn 0.3548544 -0.9349216 0
vn 0.3548361 -0.9349285 0
vn 0.3548256 -0.9349325 0
vn -0.6322653 -0.7747521 0
vn -0.6322687 -0.7747492 0
vn -0.6322535 -0.7747616 0
vn -0.6322687 -0.7747492 0
vn -0.9870819 0.1602166 0
vn -0.9870818 0.1602171 -2.384183E-05
vn -0.9870781 0.1602404 2.384175E-05
vn -0.9870781 0.1602404 0
vn -0.3548259 0.9349324 -4.768603E-05
vn -0.3547996 0.9349424 -2.384206E-05
vn -0.3548205 0.9349345 -2.384185E-05
vn -0.3547943 0.9349444 0
vn 1.192066E-05 0 -1
vn 0 0 -1
vn 0 0 -1
vn 0 0 -1
vn 0 0 -1
vn 0 0 -1
vn 0.1495691 0.9887512 0
vn 0.1495691 0.9887512 0
vn 0.1495691 0.9887512 0
vn 0.149575 0.9887504 0
vn 0.9310567 0.3648744 0
vn 0.9310567 0.3648744 0
vn 0.9310567 0.3648744 0
vn 0.9310552 0.3648784 0
vn 0.7815057 -0.623898 -4.768404E-05
vn 0.7815057 -0.623898 -2.384202E-05
vn 0.7815057 -0.623898 0
vn 0.7815057 -0.623898 0
vn -0.1495662 -0.9887517 0
vn -0.1495779 -0.98875 0
vn -0.1495691 -0.9887512 0
vn -0.149575 -0.9887504 0
vn -0.9310567 -0.3648744 0
vn -0.9310567 -0.3648744 0
vn -0.9310563 -0.3648754 0
vn -0.9310563 -0.3648754 0
vn -0.7815057 0.623898 0
vn -0.7815057 0.623898 0
vn -0.781508 0.6238951 0
vn -0.781508 0.6238951 0
vn 0 0 -1
vn 0 0 -1
vn 1.192066E-05 0 -1
vn 1.192066E-05 0 -1
vn 0 0 -1
vn 0 0 -1
g mount_dovetail_noname_toz106_angled_mount_LOD1_0
f 3/3/3 2/2/2 1/1/1
f 4/4/4 3/3/3 1/1/1
f 7/7/7 6/6/6 5/5/5
f 8/8/8 7/7/7 5/5/5
f 11/11/11 10/10/10 9/9/9
f 12/12/12 11/11/11 9/9/9
f 15/15/15 14/14/14 13/13/13
f 16/16/16 15/15/15 13/13/13
f 19/19/19 18/18/18 17/17/17
f 20/20/20 19/19/19 17/17/17
f 23/23/23 22/22/22 21/21/21
f 24/24/24 23/23/23 21/21/21
f 27/27/27 26/26/26 25/25/25
f 28/28/28 27/27/27 25/25/25
f 31/31/31 30/30/30 29/29/29
f 32/32/32 31/31/31 29/29/29
f 35/35/35 34/34/34 33/33/33
f 36/36/36 35/35/35 33/33/33
f 37/37/37 36/36/36 33/33/33
f 38/38/38 37/37/37 33/33/33
f 38/38/38 33/33/33 39/39/39
f 37/37/37 40/40/40 36/36/36
f 43/43/43 42/42/42 41/41/41
f 43/43/43 41/41/41 44/44/44
f 45/45/45 43/43/43 44/44/44
f 45/45/45 46/46/46 43/43/43
f 46/46/46 47/47/47 43/43/43
f 45/45/45 44/44/44 48/48/48
f 51/51/51 50/50/50 49/49/49
f 52/52/52 51/51/51 49/49/49
f 55/55/55 54/54/54 53/53/53
f 56/56/56 55/55/55 53/53/53
f 59/59/59 58/58/58 57/57/57
f 60/60/60 59/59/59 57/57/57
f 63/63/63 62/62/62 61/61/61
f 64/64/64 63/63/63 61/61/61
f 63/63/63 65/65/65 62/62/62
f 66/66/66 62/62/62 65/65/65
f 67/67/67 66/66/66 65/65/65
f 67/67/67 68/68/68 66/66/66
f 71/71/71 70/70/70 69/69/69
f 71/71/71 69/69/69 72/72/72
f 73/73/73 71/71/71 72/72/72
f 71/71/71 74/74/74 70/70/70
f 74/74/74 75/75/75 70/70/70
f 74/74/74 76/76/76 75/75/75
f 79/79/79 78/78/78 77/77/77
f 80/80/80 79/79/79 77/77/77
f 83/83/83 82/82/82 81/81/81
f 84/84/84 83/83/83 81/81/81
f 83/83/83 85/85/85 82/82/82
f 85/85/85 86/86/86 82/82/82
f 89/89/89 88/88/88 87/87/87
f 90/90/90 89/89/89 87/87/87
f 93/93/93 92/92/92 91/91/91
f 94/94/94 93/93/93 91/91/91
f 97/97/97 96/96/96 95/95/95
f 98/98/98 97/97/97 95/95/95
f 101/101/101 100/100/100 99/99/99
f 102/102/102 101/101/101 99/99/99
f 105/105/105 104/104/104 103/103/103
f 106/106/106 105/105/105 103/103/103
f 109/109/109 108/108/108 107/107/107
f 110/110/110 109/109/109 107/107/107
f 109/109/109 111/111/111 108/108/108
f 112/112/112 108/108/108 111/111/111
f 113/113/113 112/112/112 111/111/111
f 113/113/113 114/114/114 112/112/112
f 117/117/117 116/116/116 115/115/115
f 117/117/117 115/115/115 118/118/118
f 119/119/119 117/117/117 118/118/118
f 117/117/117 120/120/120 116/116/116
f 120/120/120 121/121/121 116/116/116
f 120/120/120 122/122/122 121/121/121
f 125/125/125 124/124/124 123/123/123
f 126/126/126 125/125/125 123/123/123
f 129/129/129 128/128/128 127/127/127
f 130/130/130 129/129/129 127/127/127
f 129/129/129 131/131/131 128/128/128
f 131/131/131 132/132/132 128/128/128
f 135/135/135 134/134/134 133/133/133
f 136/136/136 135/135/135 133/133/133
f 139/139/139 138/138/138 137/137/137
f 140/140/140 139/139/139 137/137/137
f 143/143/143 142/142/142 141/141/141
f 144/144/144 143/143/143 141/141/141
f 147/147/147 146/146/146 145/145/145
f 148/148/148 147/147/147 145/145/145
f 151/151/151 150/150/150 149/149/149
f 152/152/152 151/151/151 149/149/149
f 155/155/155 154/154/154 153/153/153
f 156/156/156 155/155/155 153/153/153
f 159/159/159 158/158/158 157/157/157
f 160/160/160 159/159/159 157/157/157
f 163/163/163 162/162/162 161/161/161
f 164/164/164 163/163/163 161/161/161
f 167/167/167 166/166/166 165/165/165
f 168/168/168 167/167/167 165/165/165
f 168/168/168 165/165/165 169/169/169
f 170/170/170 168/168/168 169/169/169
f 173/173/173 172/172/172 171/171/171
f 174/174/174 173/173/173 171/171/171
f 177/177/177 176/176/176 175/175/175
f 178/178/178 177/177/177 175/175/175
f 181/181/181 180/180/180 179/179/179
f 182/182/182 181/181/181 179/179/179
f 185/185/185 184/184/184 183/183/183
f 186/186/186 185/185/185 183/183/183
f 189/189/189 188/188/188 187/187/187
f 190/190/190 189/189/189 187/187/187
f 193/193/193 192/192/192 191/191/191
f 194/194/194 193/193/193 191/191/191
f 197/197/197 196/196/196 195/195/195
f 198/198/198 197/197/197 195/195/195
f 195/195/195 196/196/196 199/199/199
f 200/200/200 195/195/195 199/199/199
