g mount_mpx_2_inch_rail_LOD1
v 0.005152607 -0.02803218 9.511947E-05
v -0.004680978 -0.02803218 0.009245409
v 0.005152607 -0.02803218 0.009245409
v -0.004680978 -0.02803218 9.511947E-05
v 0.005152611 0.02983999 9.511947E-05
v -0.004680974 0.02984 0.009245409
v -0.004680974 0.02983999 9.511947E-05
v 0.005152611 0.02983999 0.009245409
v 0.005152607 -0.02803218 9.511947E-05
v -0.01023106 -0.02248209 9.511947E-05
v -0.004680978 -0.02803218 9.511947E-05
v -0.004680974 0.02983999 9.511947E-05
v -0.01023106 0.02428991 9.511918E-05
v 0.01070269 0.02428991 9.511918E-05
v 0.005152611 0.02983999 9.511947E-05
v 0.01070269 -0.0224821 9.511947E-05
v -0.01023106 -0.02248209 9.511947E-05
v -0.01023106 0.02428992 0.009245409
v -0.01023106 -0.02248209 0.009245409
v -0.01023106 0.02428991 9.511918E-05
v -0.004680978 -0.02803218 0.009245409
v 0.01070269 -0.0224821 0.009245409
v 0.005152607 -0.02803218 0.009245409
v 0.005152611 0.02983999 0.009245409
v 0.01070269 0.02428991 0.009245409
v -0.01023106 0.02428992 0.009245409
v -0.004680974 0.02984 0.009245409
v -0.01023106 -0.02248209 0.009245409
v 0.01070269 -0.0224821 0.009245409
v 0.01070269 0.02428991 9.511918E-05
v 0.01070269 -0.0224821 9.511947E-05
v 0.01070269 0.02428991 0.009245409
v 0.005152607 -0.02803218 9.511947E-05
v 0.01070269 -0.0224821 0.009245409
v 0.01070269 -0.0224821 9.511947E-05
v 0.005152607 -0.02803218 0.009245409
v -0.004680978 -0.02803218 0.009245409
v -0.01023106 -0.02248209 9.511947E-05
v -0.01023106 -0.02248209 0.009245409
v -0.004680978 -0.02803218 9.511947E-05
v -0.004680974 0.02983999 9.511947E-05
v -0.01023106 0.02428992 0.009245409
v -0.01023106 0.02428991 9.511918E-05
v -0.004680974 0.02984 0.009245409
v 0.005152611 0.02983999 0.009245409
v 0.01070269 0.02428991 9.511918E-05
v 0.01070269 0.02428991 0.009245409
v 0.005152611 0.02983999 9.511947E-05
vt 0.8559095 0.4543859
vt 0.9979996 0.3221695
vt 0.8559097 0.3221692
vt 0.9979994 0.4543862
vt 0.85591 0.002
vt 0.9979995 0.1342172
vt 0.998 0.002000498
vt 0.8559096 0.1342167
vt 0.002000031 0.5444549
vt 0.08219571 0.3221692
vt 0.002 0.402365
vt 0.8382216 0.4023649
vt 0.758026 0.3221693
vt 0.7580258 0.6246505
vt 0.8382216 0.5444548
vt 0.08219562 0.6246505
vt 0.002 0.7745551
vt 0.67783 0.6423385
vt 0.002 0.6423383
vt 0.6778299 0.7745551
vt 0.002 0.2242856
vt 0.08219571 0.002
vt 0.002000031 0.08219562
vt 0.8382218 0.08219578
vt 0.7580262 0.002000218
vt 0.7580261 0.3044814
vt 0.8382218 0.2242857
vt 0.08219562 0.3044812
vt 0.002 0.9244598
vt 0.6778295 0.792243
vt 0.002 0.792243
vt 0.6778296 0.9244598
vt 0.9881261 0.472074
vt 0.8559095 0.5854878
vt 0.9881261 0.5854878
vt 0.8559095 0.472074
vt 0.6955175 0.9056569
vt 0.8277342 0.792243
vt 0.6955175 0.792243
vt 0.8277342 0.9056569
vt 0.8559096 0.2653189
vt 0.9881263 0.151905
vt 0.8559096 0.151905
vt 0.9881263 0.2653189
vt 0.8277345 0.6423383
vt 0.6955178 0.7557522
vt 0.8277345 0.7557522
vt 0.6955178 0.6423383
vn 0 -1 0
vn 0 -1 0
vn 0 -1 0
vn 0 -1 0
vn 0 1 0
vn 0 1 0
vn 0 1 0
vn 0 1 0
vn 0 0 -1
vn 0 0 -1
vn 0 0 -1
vn 0 0 -1
vn 0 0 -1
vn 0 0 -1
vn 0 0 -1
vn 0 0 -1
vn -1 0 0
vn -1 0 0
vn -1 0 0
vn -1 0 0
vn 0 0 1
vn 0 0 1
vn 0 0 1
vn 0 0 1
vn 0 0 1
vn 0 0 1
vn 0 0 1
vn 0 0 1
vn 1 0 0
vn 1 0 0
vn 1 0 0
vn 1 0 0
vn 0.7071097 -0.7071038 0
vn 0.7071068 -0.7071068 0
vn 0.7071068 -0.7071068 0
vn 0.7071097 -0.7071038 0
vn -0.7071097 -0.7071038 0
vn -0.7071068 -0.7071068 0
vn -0.7071068 -0.7071068 0
vn -0.7071097 -0.7071038 0
vn -0.7071097 0.7071038 0
vn -0.7071068 0.7071068 0
vn -0.7071068 0.7071068 0
vn -0.7071097 0.7071038 0
vn 0.7071097 0.7071038 0
vn 0.7071068 0.7071068 0
vn 0.7071068 0.7071068 0
vn 0.7071097 0.7071038 0
g mount_mpx_2_inch_rail_LOD1_0
f 3/3/3 2/2/2 1/1/1
f 4/4/4 1/1/1 2/2/2
f 7/7/7 6/6/6 5/5/5
f 8/8/8 5/5/5 6/6/6
f 11/11/11 10/10/10 9/9/9
f 10/10/10 12/12/12 9/9/9
f 13/13/13 12/12/12 10/10/10
f 12/12/12 14/14/14 9/9/9
f 15/15/15 14/14/14 12/12/12
f 9/9/9 14/14/14 16/16/16
f 19/19/19 18/18/18 17/17/17
f 20/20/20 17/17/17 18/18/18
f 23/23/23 22/22/22 21/21/21
f 22/22/22 24/24/24 21/21/21
f 25/25/25 24/24/24 22/22/22
f 24/24/24 26/26/26 21/21/21
f 27/27/27 26/26/26 24/24/24
f 21/21/21 26/26/26 28/28/28
f 31/31/31 30/30/30 29/29/29
f 32/32/32 29/29/29 30/30/30
f 35/35/35 34/34/34 33/33/33
f 36/36/36 33/33/33 34/34/34
f 39/39/39 38/38/38 37/37/37
f 40/40/40 37/37/37 38/38/38
f 43/43/43 42/42/42 41/41/41
f 44/44/44 41/41/41 42/42/42
f 47/47/47 46/46/46 45/45/45
f 48/48/48 45/45/45 46/46/46
