g mount_acog_trijicon_rm35_LOD1
v -0.009095566 -0.03167984 0.0191046
v -0.009095566 -0.03167984 0.02055378
v -0.01127441 -0.02950099 0.02055378
v -0.01127441 -0.02950099 0.0191046
v -0.01345326 -0.03167984 0.02055378
v -0.01345326 -0.03167984 0.0191046
v -0.01127441 -0.03385869 0.0191046
v -0.01127441 -0.03385869 0.02055378
v -0.01345326 -0.03167984 0.0191046
v -0.01345326 -0.03167984 0.02055378
v -0.01127441 -0.02950099 0.02055378
v -0.009095566 -0.03167984 0.02055378
v -0.01127441 -0.03385869 0.02055378
v -0.01345326 -0.03167984 0.02055378
v 0.02009287 -0.02836376 0.01541003
v 0.02009287 -0.03286478 0.01541003
v 0.02009287 -0.03286478 0.01826439
v 0.02009287 -0.02836376 0.01826439
v 0.01475438 0.009664707 0.01541003
v 0.01475438 0.009664707 0.01911336
v -0.01475438 0.009664707 0.01911336
v -0.01475438 0.009664707 0.01541003
v 0.01475438 -0.02553934 0.01911336
v -0.01475438 -0.02553934 0.01911336
v -0.01475438 0.009664707 0.01911336
v 0.01475438 0.009664707 0.01911336
v -0.01475438 -0.03468805 0.01911336
v 0.01475438 -0.03468805 0.01911336
v 0.01475438 -0.01403798 0.01541003
v 0.01475438 -0.02553934 0.01541003
v 0.01475438 -0.02553934 0.01911336
v 0.01475438 0.009664707 0.01911336
v 0.01475438 0.005717256 0.01541003
v 0.01475438 0.009664707 0.01541003
v 0.01475438 -0.004672489 0.0136459
v 0.01475438 0.003912332 0.0136459
v 0.01475438 -0.01224789 0.0136459
v 0.01475438 -0.02553934 0.01911336
v 0.02009287 -0.02836376 0.01826439
v 0.02009287 -0.03286478 0.01826439
v 0.01475438 -0.03468805 0.01911336
v 0.01475438 -0.03468805 0.01911336
v 0.02009287 -0.03286478 0.01826439
v 0.02009287 -0.03286478 0.01541003
v 0.01475438 -0.03468805 0.01541003
v 0.01475438 -0.03468805 0.01541003
v 0.02009287 -0.03286478 0.01541003
v 0.02009287 -0.02836376 0.01541003
v 0.01475438 -0.02553934 0.01541003
v -0.01475438 -0.02553934 0.01541003
v -0.01475438 -0.03468805 0.01541003
v -0.02009287 -0.02836376 0.01541003
v -0.02009287 -0.03286478 0.01541003
v -0.01475438 -0.01403798 0.01541003
v 0.01475438 -0.01403798 0.01541003
v 0.01475438 -0.02553934 0.01541003
v 0.02009287 -0.02836376 0.01541003
v 0.02009287 -0.02836376 0.01826439
v 0.01475438 -0.02553934 0.01911336
v 0.01475438 0.003912332 0.0136459
v 0.01603597 0.003912332 0.0106204
v 0.01603597 -0.004672489 0.0106204
v 0.01475438 -0.004672489 0.0136459
v 0.02044423 -0.0001945066 0.008254248
v 0.02044423 -0.004672489 0.005021826
v 0.02044423 0.003912332 0.005021826
v 0.02045357 0.003912332 0.0004785049
v 0.01540602 0.003912332 0.0004785049
v 0.01540602 -0.004672489 0.0004785049
v 0.02045357 -0.004672489 0.0004785049
v 0.01603597 -0.004672489 0.0106204
v 0.02044423 -0.004672489 0.005021826
v 0.0115249 -0.004672489 0.006353084
v 0.0030112 -0.004672489 0.0106204
v 0.01540602 -0.004672489 0.0004785049
v 0.02045357 -0.004672489 0.0004785049
v 0.01475438 -0.004672489 0.0136459
v -0.01475438 -0.004672489 0.0136459
v -0.003011203 -0.004672489 0.0106204
v -0.01603597 -0.004672489 0.0106204
v -0.0115249 -0.004672489 0.006353084
v -0.02044423 -0.004672489 0.005021826
v -0.01540602 -0.004672489 0.0004785049
v -0.02045357 -0.004672489 0.0004785049
v 0.0030112 0.003912332 0.0106204
v 0.0030112 -0.004672489 0.0106204
v 0.0115249 -0.004672489 0.006353084
v 0.0115249 0.003912332 0.006353084
v 0.01540602 0.003912332 0.0004785049
v 0.01540602 -0.004672489 0.0004785049
v -0.003011203 0.003912332 0.0106204
v -0.003011203 -0.004672489 0.0106204
v -0.0115249 -0.004672489 0.006353084
v -0.0115249 0.003912332 0.006353084
v -0.01540602 0.003912332 0.0004785049
v -0.01540602 -0.004672489 0.0004785049
v 0.0030112 0.003912332 0.0106204
v 0.0115249 0.003912332 0.006353084
v 0.01603597 0.003912332 0.0106204
v 0.02044423 0.003912332 0.005021826
v 0.01540602 0.003912332 0.0004785049
v 0.02045357 0.003912332 0.0004785049
v 0.01475438 0.003912332 0.0136459
v -0.01475438 0.003912332 0.0136459
v -0.003011203 0.003912332 0.0106204
v -0.01603597 0.003912332 0.0106204
v -0.0115249 0.003912332 0.006353084
v -0.02044423 0.003912332 0.005021826
v -0.01540602 0.003912332 0.0004785049
v -0.02045357 0.003912332 0.0004785049
v 0.02044423 -0.004672489 0.005021826
v 0.02044423 -0.0001945066 0.008254248
v 0.02044423 0.003912332 0.005021826
v 0.02045357 -0.004672489 0.0004785049
v 0.02045357 0.003912332 0.0004785049
v -0.02009287 -0.03286478 0.01826439
v -0.02009287 -0.03286478 0.01541003
v -0.02009287 -0.02836376 0.01541003
v -0.02009287 -0.02836376 0.01826439
v -0.01475438 0.009664707 0.01911336
v -0.01475438 -0.02553934 0.01911336
v -0.01475438 -0.02553934 0.01541003
v -0.01475438 -0.01403798 0.01541003
v -0.01475438 0.005717256 0.01541003
v -0.01475438 0.009664707 0.01541003
v -0.01475438 -0.004672489 0.0136459
v -0.01475438 0.003912332 0.0136459
v -0.01475438 -0.01224789 0.0136459
v -0.01475438 -0.02553934 0.01911336
v -0.01475438 -0.03468805 0.01911336
v -0.02009287 -0.03286478 0.01826439
v -0.02009287 -0.02836376 0.01826439
v -0.01475438 -0.03468805 0.01911336
v -0.01475438 -0.03468805 0.01541003
v -0.02009287 -0.03286478 0.01541003
v -0.02009287 -0.03286478 0.01826439
v -0.01475438 -0.02553934 0.01541003
v -0.01475438 -0.02553934 0.01911336
v -0.02009287 -0.02836376 0.01826439
v -0.02009287 -0.02836376 0.01541003
v -0.01475438 -0.01224789 0.0136459
v -0.01475438 -0.01403798 0.01541003
v 0.01475438 -0.01403798 0.01541003
v 0.01475438 -0.01224789 0.0136459
v -0.01475438 0.003912332 0.0136459
v -0.01475438 -0.004672489 0.0136459
v -0.01603597 -0.004672489 0.0106204
v -0.01603597 0.003912332 0.0106204
v -0.02044423 -0.0001945066 0.008254248
v -0.02044423 -0.004672489 0.005021826
v -0.02044423 0.003912332 0.005021826
v -0.01540602 -0.004672489 0.0004785049
v -0.01540602 0.003912332 0.0004785049
v -0.02045357 0.003912332 0.0004785049
v -0.02045357 -0.004672489 0.0004785049
v -0.02044423 0.003912332 0.005021826
v -0.02044423 -0.004672489 0.005021826
v -0.02045357 -0.004672489 0.0004785049
v -0.02045357 0.003912332 0.0004785049
v -0.02044423 -0.0001945066 0.008254248
v 0.01475438 -0.03468805 0.01911336
v 0.01475438 -0.03468805 0.01541003
v -0.01475438 -0.03468805 0.01541003
v -0.01475438 -0.03468805 0.01911336
v 0.01475438 -0.01224789 0.0136459
v 0.01475438 -0.004672489 0.0136459
v -0.01475438 -0.004672489 0.0136459
v -0.01475438 -0.01224789 0.0136459
v 0.01475438 0.005717256 0.01541003
v 0.01475438 0.009664707 0.01541003
v -0.01475438 0.009664707 0.01541003
v -0.01475438 0.005717256 0.01541003
v 0.01475438 0.005717256 0.01541003
v -0.01475438 0.005717256 0.01541003
v -0.01475438 0.003912332 0.0136459
v 0.01475438 0.003912332 0.0136459
v 0.01359728 -0.03167984 0.0191046
v 0.01359728 -0.03167984 0.02055378
v 0.01141843 -0.02950099 0.02055378
v 0.01141843 -0.02950099 0.0191046
v 0.009239585 -0.03167984 0.02055378
v 0.009239585 -0.03167984 0.0191046
v 0.01141843 -0.03385869 0.0191046
v 0.01141843 -0.03385869 0.02055378
v 0.009239585 -0.03167984 0.0191046
v 0.009239585 -0.03167984 0.02055378
v 0.01141843 -0.02950099 0.02055378
v 0.01359728 -0.03167984 0.02055378
v 0.01141843 -0.03385869 0.02055378
v 0.009239585 -0.03167984 0.02055378
vt 0.2402948 0.01702827
vt 0.2402948 0.04673177
vt 0.3034526 0.04673177
vt 0.3034526 0.01702827
vt 0.3666105 0.04673177
vt 0.3666105 0.01702827
vt 0.177137 0.01702827
vt 0.177137 0.04673177
vt 0.113979 0.01702827
vt 0.113979 0.04673177
vt 0.3034526 0.06122547
vt 0.2402948 0.06122547
vt 0.2402948 0.1243833
vt 0.3034526 0.1243833
vt 0.8224159 0.8255653
vt 0.8224159 0.764151
vt 0.7834697 0.764151
vt 0.7834697 0.8255653
vt 0.08311237 0.2746286
vt 0.08311237 0.3205651
vt 0.4491415 0.3205651
vt 0.4491415 0.2746286
vt 0.4433532 0.5492715
vt 0.07732397 0.5492715
vt 0.07732397 0.9859456
vt 0.4433532 0.9859456
vt 0.07732397 0.4357902
vt 0.4433532 0.4357902
vt 0.1900149 0.364346
vt 0.04735111 0.364346
vt 0.04735111 0.4102824
vt 0.4840254 0.4102824
vt 0.4350607 0.364346
vt 0.4840254 0.364346
vt 0.3061855 0.3424635
vt 0.4126722 0.3424635
vt 0.2122193 0.3424635
vt 0.4433532 0.5492715
vt 0.5104047 0.5142372
vt 0.5104047 0.4584062
vt 0.4433532 0.4357902
vt 0.771886 0.6871787
vt 0.7834697 0.764151
vt 0.8224159 0.764151
vt 0.8224159 0.6871787
vt 0.8047513 0.6532621
vt 0.8538079 0.6365074
vt 0.8538079 0.5951464
vt 0.8047513 0.5691921
vt 0.5335878 0.5691921
vt 0.5335878 0.6532621
vt 0.4845313 0.5951464
vt 0.4845313 0.6365074
vt 0.5335878 0.4635034
vt 0.8047513 0.4635034
vt 0.8224159 0.9079725
vt 0.8224159 0.8255653
vt 0.7834697 0.8255653
vt 0.771886 0.9079725
vt 0.9787785 0.9188489
vt 0.9787785 0.8714676
vt 0.8549835 0.8714676
vt 0.8549835 0.9188489
vt 0.919557 0.7993212
vt 0.8458671 0.7691173
vt 0.988635 0.769186
vt 0.993247 0.5902051
vt 0.993247 0.5308862
vt 0.8923578 0.5308862
vt 0.8923578 0.5902051
vt 0.8165282 0.3429939
vt 0.8570367 0.2915474
vt 0.7750747 0.3037808
vt 0.6968403 0.3429939
vt 0.8107392 0.2497975
vt 0.8571224 0.2497975
vt 0.8047513 0.3707961
vt 0.5335878 0.3707961
vt 0.6414989 0.3429939
vt 0.5218112 0.3429939
vt 0.5632645 0.3037808
vt 0.4813026 0.2915474
vt 0.5275997 0.2497975
vt 0.4812166 0.2497975
vt 0.993247 0.336223
vt 0.8923578 0.336223
vt 0.8923578 0.4481414
vt 0.993247 0.4481414
vt 0.993247 0.5308862
vt 0.8923578 0.5308862
vt 0.993247 0.2654473
vt 0.8923578 0.2654473
vt 0.8923578 0.153529
vt 0.993247 0.153529
vt 0.993247 0.07078429
vt 0.8923578 0.07078429
vt 0.2314865 0.1387068
vt 0.1268907 0.08628025
vt 0.07146932 0.1387068
vt 0.01731135 0.069925
vt 0.07920851 0.01410763
vt 0.01719655 0.01410763
vt 0.08721448 0.1758768
vt 0.4497472 0.1758768
vt 0.305475 0.1387068
vt 0.4654922 0.1387068
vt 0.410071 0.08628025
vt 0.5196507 0.069925
vt 0.4577527 0.01410763
vt 0.5197654 0.01410763
vt 0.8521866 0.7339605
vt 0.9207568 0.7834575
vt 0.983643 0.7339605
vt 0.8521866 0.66439
vt 0.983643 0.66439
vt 0.7155645 0.8161757
vt 0.7509702 0.8161757
vt 0.7509702 0.7603444
vt 0.7155645 0.7603444
vt 0.4559835 0.9831362
vt 0.8926579 0.9831362
vt 0.8926579 0.9371998
vt 0.7499936 0.9371998
vt 0.5049482 0.9371998
vt 0.4559835 0.9371998
vt 0.6338233 0.9153173
vt 0.5273365 0.9153173
vt 0.7277895 0.9153173
vt 0.07732397 0.5492715
vt 0.07732397 0.4357902
vt 0.01027256 0.4584062
vt 0.01027256 0.5142372
vt 0.7050338 0.8861502
vt 0.7509702 0.8861502
vt 0.7509702 0.8161757
vt 0.7155645 0.8161757
vt 0.7509702 0.6854286
vt 0.7050338 0.6854286
vt 0.7155645 0.7603444
vt 0.7509702 0.7603444
vt 0.5335878 0.4404083
vt 0.5335878 0.4635034
vt 0.8047513 0.4635034
vt 0.8047513 0.4404083
vt 0.4664006 0.9051918
vt 0.5760289 0.9051918
vt 0.5760289 0.8632327
vt 0.4664006 0.8632326
vt 0.518845 0.7993424
vt 0.5841019 0.7725949
vt 0.4576716 0.7726556
vt 0.8923578 0.07078429
vt 0.993247 0.07078429
vt 0.993247 0.01146539
vt 0.8923578 0.01146539
vt 0.461945 0.7395087
vt 0.5880925 0.7395087
vt 0.5880925 0.672748
vt 0.461945 0.672748
vt 0.5222922 0.7870067
vt 0.8497887 0.2275141
vt 0.8497887 0.1815777
vt 0.4837594 0.1815777
vt 0.4837594 0.2275141
vt 0.8047513 0.4404083
vt 0.8047513 0.3707961
vt 0.5335878 0.3707961
vt 0.5335878 0.4404083
vt 0.08721448 0.206884
vt 0.08721448 0.2553808
vt 0.4497472 0.2553809
vt 0.4497472 0.2068841
vt 0.08721448 0.206884
vt 0.4497472 0.2068841
vt 0.4497472 0.1758768
vt 0.08721448 0.1758768
vt 0.2402948 0.01702827
vt 0.2402948 0.04673177
vt 0.3034526 0.04673177
vt 0.3034526 0.01702827
vt 0.3666105 0.04673177
vt 0.3666105 0.01702827
vt 0.177137 0.01702827
vt 0.177137 0.04673177
vt 0.113979 0.01702827
vt 0.113979 0.04673177
vt 0.3034526 0.06122547
vt 0.2402948 0.06122547
vt 0.2402948 0.1243833
vt 0.3034526 0.1243833
vn 1 0 0
vn 1 0 0
vn 0 1 0
vn 0 1 0
vn -1 0 0
vn -1 0 0
vn 0 -1 0
vn 0 -1 0
vn -1 0 0
vn -1 0 0
vn 0 0 1
vn 0 0 1
vn 0 0 1
vn 0 0 1
vn 1 0 0
vn 1 0 0
vn 1 0 0
vn 1 0 0
vn 0 1 0
vn 0 1 0
vn 0 1 0
vn 0 1 0
vn 0 0 1
vn 0 0 1
vn 0 0 1
vn 0 0 1
vn 0 0 1
vn 0 0 1
vn 1 0 0
vn 1 0 0
vn 1 0 0
vn 1 0 0
vn 1 0 0
vn 1 0 0
vn 1 0 0
vn 1 0 0
vn 1 0 0
vn 0.1570551 0 0.9875898
vn 0.1570551 0 0.9875898
vn 0.1570551 0 0.9875898
vn 0.1570551 0 0.9875898
vn 0.323204 -0.9463294 0
vn 0.323204 -0.9463294 0
vn 0.3232039 -0.9463294 0
vn 0.3232039 -0.9463294 0
vn 0 0 -1
vn 0 0 -1
vn 0 0 -1
vn 0 0 -1
vn 0 0 -1
vn 0 0 -1
vn 0 0 -1
vn 0 0 -1
vn 0 0 -1
vn 0 0 -1
vn 0.4676499 0.8839137 0
vn 0.4676499 0.8839137 0
vn 0.4676499 0.8839137 0
vn 0.4676499 0.8839137 0
vn 0.9207953 0 0.3900461
vn 0.7927723 0.1124611 0.5990531
vn 0.7963913 -0.1093661 0.5948108
vn 0.9207953 0 0.3900461
vn 0.6794183 0.01801747 0.7335299
vn 0.7173979 -0.4077509 0.5648711
vn 0.7063902 0.4377785 0.556204
vn 0 0 -1
vn 0 0 -1
vn 0 0 -1
vn 0 0 -1
vn 0 -1 0
vn 0 -1 0
vn 0 -1 0
vn 0 -1 0
vn 0 -1 0
vn 0 -1 0
vn 0 -1 0
vn 0 -1 0
vn 0 -1 0
vn 0 -1 0
vn 0 -1 0
vn 0 -1 0
vn 0 -1 0
vn 0 -1 0
vn -0.2302314 0 -0.9731358
vn -0.2302314 0 -0.9731358
vn -0.663731 0 -0.7479714
vn -0.663731 0 -0.7479714
vn -0.8343545 0 -0.5512283
vn -0.8343545 0 -0.5512283
vn 0.2302314 0 -0.9731358
vn 0.2302314 0 -0.9731358
vn 0.663731 0 -0.7479714
vn 0.663731 0 -0.7479714
vn 0.8343545 0 -0.5512283
vn 0.8343545 0 -0.5512283
vn 0 1 0
vn 0 1 0
vn 0 1 0
vn 0 1 0
vn 0 1 0
vn 0 1 0
vn 0 1 0
vn 0 1 0
vn 0 1 0
vn 0 1 0
vn 0 1 0
vn 0 1 0
vn 0 1 0
vn 0 1 0
vn 1 0 0
vn 1 0 0
vn 1 0 0
vn 0.999998 0 0.002056034
vn 0.999998 0 0.002056034
vn -1 0 0
vn -1 0 0
vn -1 0 0
vn -1 0 0
vn -1 0 0
vn -1 0 0
vn -1 0 0
vn -1 0 0
vn -1 0 0
vn -1 0 0
vn -1 0 0
vn -1 0 0
vn -1 0 0
vn -0.1570551 0 0.9875898
vn -0.1570551 0 0.9875898
vn -0.1570551 0 0.9875898
vn -0.1570551 0 0.9875898
vn -0.323204 -0.9463294 0
vn -0.323204 -0.9463294 0
vn -0.323204 -0.9463294 0
vn -0.323204 -0.9463294 0
vn -0.46765 0.8839137 0
vn -0.46765 0.8839137 0
vn -0.46765 0.8839137 0
vn -0.46765 0.8839137 0
vn 0 -0.7019255 -0.7122504
vn 0 -0.7019255 -0.7122504
vn 0 -0.7019255 -0.7122504
vn 0 -0.7019255 -0.7122504
vn -0.9207954 0 0.3900459
vn -0.9207954 0 0.3900459
vn -0.7963913 -0.1093661 0.5948107
vn -0.7927724 0.1124611 0.599053
vn -0.6794183 0.01801742 0.7335299
vn -0.7173979 -0.4077509 0.5648711
vn -0.7063903 0.4377785 0.556204
vn 0 0 -1
vn 0 0 -1
vn 0 0 -1
vn 0 0 -1
vn -0.999998 0 0.002056034
vn -0.999998 0 0.002056034
vn -0.999998 0 0.002056034
vn -0.999998 0 0.002056034
vn -1 0 0
vn 0 -1 0
vn 0 -1 0
vn 0 -1 0
vn 0 -1 0
vn 0 0 -1
vn 0 0 -1
vn 0 0 -1
vn 0 0 -1
vn 0 0 -1
vn 0 0 -1
vn 0 0 -1
vn 0 0 -1
vn 0 0.69898 -0.7151412
vn 0 0.69898 -0.7151412
vn 0 0.69898 -0.7151412
vn 0 0.69898 -0.7151412
vn 1 0 0
vn 1 0 0
vn 0 1 0
vn 0 1 0
vn -1 0 0
vn -1 0 0
vn 0 -1 0
vn 0 -1 0
vn -1 0 0
vn -1 0 0
vn 0 0 1
vn 0 0 1
vn 0 0 1
vn 0 0 1
g mount_acog_trijicon_rm35_LOD1_0
f 3/3/3 2/2/2 1/1/1
f 4/4/4 3/3/3 1/1/1
f 5/5/5 3/3/3 4/4/4
f 6/6/6 5/5/5 4/4/4
f 1/1/1 2/2/2 7/7/7
f 2/2/2 8/8/8 7/7/7
f 7/7/7 8/8/8 9/9/9
f 8/8/8 10/10/10 9/9/9
f 13/13/13 12/12/12 11/11/11
f 14/14/14 13/13/13 11/11/11
f 17/17/17 16/16/16 15/15/15
f 18/18/18 17/17/17 15/15/15
f 21/21/21 20/20/20 19/19/19
f 22/22/22 21/21/21 19/19/19
f 25/25/25 24/24/24 23/23/23
f 26/26/26 25/25/25 23/23/23
f 24/24/24 27/27/27 23/23/23
f 27/27/27 28/28/28 23/23/23
f 31/31/31 30/30/30 29/29/29
f 29/29/29 32/32/32 31/31/31
f 29/29/29 33/33/33 32/32/32
f 33/33/33 34/34/34 32/32/32
f 29/29/29 35/35/35 33/33/33
f 35/35/35 36/36/36 33/33/33
f 37/37/37 35/35/35 29/29/29
f 40/40/40 39/39/39 38/38/38
f 41/41/41 40/40/40 38/38/38
f 44/44/44 43/43/43 42/42/42
f 45/45/45 44/44/44 42/42/42
f 48/48/48 47/47/47 46/46/46
f 49/49/49 48/48/48 46/46/46
f 50/50/50 49/49/49 46/46/46
f 51/51/51 50/50/50 46/46/46
f 52/52/52 50/50/50 51/51/51
f 53/53/53 52/52/52 51/51/51
f 50/50/50 54/54/54 49/49/49
f 54/54/54 55/55/55 49/49/49
f 58/58/58 57/57/57 56/56/56
f 59/59/59 58/58/58 56/56/56
f 62/62/62 61/61/61 60/60/60
f 63/63/63 62/62/62 60/60/60
f 62/62/62 64/64/64 61/61/61
f 65/65/65 64/64/64 62/62/62
f 66/66/66 61/61/61 64/64/64
f 69/69/69 68/68/68 67/67/67
f 70/70/70 69/69/69 67/67/67
f 73/73/73 72/72/72 71/71/71
f 74/74/74 73/73/73 71/71/71
f 72/72/72 73/73/73 75/75/75
f 76/76/76 72/72/72 75/75/75
f 71/71/71 77/77/77 74/74/74
f 74/74/74 77/77/77 78/78/78
f 79/79/79 74/74/74 78/78/78
f 80/80/80 79/79/79 78/78/78
f 81/81/81 79/79/79 80/80/80
f 82/82/82 81/81/81 80/80/80
f 83/83/83 81/81/81 82/82/82
f 84/84/84 83/83/83 82/82/82
f 87/87/87 86/86/86 85/85/85
f 88/88/88 87/87/87 85/85/85
f 87/87/87 88/88/88 89/89/89
f 90/90/90 87/87/87 89/89/89
f 91/91/91 85/85/85 86/86/86
f 92/92/92 91/91/91 86/86/86
f 91/91/91 92/92/92 93/93/93
f 94/94/94 91/91/91 93/93/93
f 95/95/95 94/94/94 93/93/93
f 96/96/96 95/95/95 93/93/93
f 99/99/99 98/98/98 97/97/97
f 100/100/100 98/98/98 99/99/99
f 101/101/101 98/98/98 100/100/100
f 102/102/102 101/101/101 100/100/100
f 103/103/103 99/99/99 97/97/97
f 97/97/97 104/104/104 103/103/103
f 104/104/104 97/97/97 105/105/105
f 105/105/105 106/106/106 104/104/104
f 107/107/107 106/106/106 105/105/105
f 108/108/108 106/106/106 107/107/107
f 107/107/107 109/109/109 108/108/108
f 109/109/109 110/110/110 108/108/108
f 113/113/113 112/112/112 111/111/111
f 113/113/113 111/111/111 114/114/114
f 115/115/115 113/113/113 114/114/114
f 118/118/118 117/117/117 116/116/116
f 119/119/119 118/118/118 116/116/116
f 122/122/122 121/121/121 120/120/120
f 120/120/120 123/123/123 122/122/122
f 120/120/120 124/124/124 123/123/123
f 120/120/120 125/125/125 124/124/124
f 126/126/126 123/123/123 124/124/124
f 127/127/127 126/126/126 124/124/124
f 128/128/128 123/123/123 126/126/126
f 131/131/131 130/130/130 129/129/129
f 132/132/132 131/131/131 129/129/129
f 135/135/135 134/134/134 133/133/133
f 136/136/136 135/135/135 133/133/133
f 139/139/139 138/138/138 137/137/137
f 140/140/140 139/139/139 137/137/137
f 143/143/143 142/142/142 141/141/141
f 144/144/144 143/143/143 141/141/141
f 147/147/147 146/146/146 145/145/145
f 148/148/148 147/147/147 145/145/145
f 149/149/149 147/147/147 148/148/148
f 149/149/149 150/150/150 147/147/147
f 148/148/148 151/151/151 149/149/149
f 154/154/154 153/153/153 152/152/152
f 155/155/155 154/154/154 152/152/152
f 158/158/158 157/157/157 156/156/156
f 159/159/159 158/158/158 156/156/156
f 160/160/160 156/156/156 157/157/157
f 163/163/163 162/162/162 161/161/161
f 164/164/164 163/163/163 161/161/161
f 167/167/167 166/166/166 165/165/165
f 168/168/168 167/167/167 165/165/165
f 171/171/171 170/170/170 169/169/169
f 172/172/172 171/171/171 169/169/169
f 175/175/175 174/174/174 173/173/173
f 176/176/176 175/175/175 173/173/173
f 179/179/179 178/178/178 177/177/177
f 180/180/180 179/179/179 177/177/177
f 181/181/181 179/179/179 180/180/180
f 182/182/182 181/181/181 180/180/180
f 177/177/177 178/178/178 183/183/183
f 178/178/178 184/184/184 183/183/183
f 183/183/183 184/184/184 185/185/185
f 184/184/184 186/186/186 185/185/185
f 189/189/189 188/188/188 187/187/187
f 190/190/190 189/189/189 187/187/187
