g mount_glock_aimtech_base_glock_LOD1
v -0.01593526 0.08824747 -0.0005009392
v -0.01593526 0.08089517 -0.0006140466
v -0.01593526 0.07919849 -0.003554968
v -0.01593526 0.09017038 -0.004233639
v -0.01593526 0.07919849 -0.01271706
v -0.01593526 0.09017038 -0.01905133
v -0.01593527 0.08168696 -0.03700745
v -0.01593527 0.07490022 -0.01814644
v -0.01593527 0.06585124 -0.01984313
v -0.0159353 -0.007897911 -0.0368982
v -0.01593526 0.0848541 0.0009695202
v -0.01593528 0.05929074 -0.01848578
v -0.01593527 0.05544492 -0.01411419
v -0.01593528 0.03327493 -0.01411419
v -0.01593528 0.02727997 -0.01173884
v -0.01593529 0.02501773 -0.008531915
v -0.01593528 0.02501773 -0.0007693373
v -0.01593528 0.01992769 0.003868269
v -0.01593529 -0.007897913 -0.001334906
v -0.01593529 -0.003373435 0.003868264
v -0.01593527 0.08168696 -0.03700745
v -0.0159353 -0.007897911 -0.0368982
v -0.01398718 -0.00789791 -0.04053588
v -0.01398715 0.08417543 -0.04049919
v -0.007955267 -0.007897908 -0.0444238
v -0.007955232 0.08751224 -0.04434991
v -0.008189318 0.09084906 -0.05038288
v -0.01093586 0.09084906 -0.0475899
v -0.0109359 -0.007897909 -0.04770098
v -0.008189354 -0.007897908 -0.0503829
v -0.007955232 0.08751224 -0.04434991
v -0.007955267 -0.007897908 -0.0444238
v -0.0109359 -0.007897909 -0.04770098
v -0.01093586 0.09084906 -0.0475899
v -0.01593528 0.01992769 0.003868269
v 0.01593525 0.01992767 0.003868259
v 0.01593524 -0.003373449 0.003868254
v -0.01593529 -0.003373435 0.003868264
v -0.01593529 -0.007897913 -0.001334906
v 0.01593524 -0.007897927 -0.001334917
v -0.01593528 0.02501773 -0.0007693373
v 0.01593525 0.02501772 -0.0007693463
v -0.01593528 0.02501773 -0.0007693373
v -0.01593529 0.02501773 -0.008531915
v 0.01593525 0.02501772 -0.008531925
v 0.01593525 0.02501772 -0.0007693463
v -0.01593528 0.02727997 -0.01173884
v 0.01593525 0.02727996 -0.01173885
v 0.01593525 0.03327491 -0.0141142
v -0.01593528 0.03327493 -0.01411419
v -0.01593526 0.0848541 0.0009695202
v 0.01593527 0.08485409 0.0009695101
v 0.01593527 0.08089516 -0.0006140569
v -0.01593526 0.08089517 -0.0006140466
v -0.01593526 0.08824747 -0.0005009392
v 0.01593527 0.08824745 -0.0005009493
v -0.01593526 0.07919849 -0.003554968
v 0.01593527 0.07919848 -0.003554979
v -0.01593526 0.07919849 -0.01271706
v 0.01593527 0.07919848 -0.01271707
v -0.01593527 0.07490022 -0.01814644
v 0.01593527 0.07490021 -0.01814645
v -0.01593527 0.06585124 -0.01984313
v 0.01593526 0.06585123 -0.01984314
v -0.01593528 0.05929074 -0.01848578
v 0.01593526 0.05929073 -0.01796001
v -0.01593527 0.05544492 -0.01411419
v 0.01593526 0.05544491 -0.0141142
v -0.01593528 0.03327493 -0.01411419
v 0.01593525 0.03327491 -0.0141142
v -0.01593526 0.09017038 -0.004233639
v 0.01593528 0.09017036 -0.004233649
v 0.01593527 0.09017036 -0.01905134
v -0.01593526 0.09017038 -0.01905133
v 0.01593526 0.08168694 -0.03700746
v -0.01593527 0.08168696 -0.03700745
v -0.01398715 0.08417543 -0.04049919
v 0.01398714 0.08417542 -0.0404992
v -0.007955232 0.08751224 -0.04434991
v 0.007955221 0.08751223 -0.04434992
v 0.01093585 0.09084903 -0.0475899
v -0.01093586 0.09084906 -0.0475899
v -0.008189318 0.09084906 -0.05038288
v 0.008189306 0.09084904 -0.05038289
v -0.008189354 -0.007897908 -0.0503829
v 0.008189269 -0.007897925 -0.0503829
v 0.008189306 0.09084904 -0.05038289
v -0.008189318 0.09084906 -0.05038288
v -0.01593529 -0.007897913 -0.001334906
v 0.01593524 -0.007897927 -0.001334917
v 0.01593523 -0.007897925 -0.03689821
v -0.0159353 -0.007897911 -0.0368982
v -0.01398718 -0.00789791 -0.04053588
v 0.0139871 -0.007897924 -0.04053589
v 0.007955186 -0.007897925 -0.0444238
v -0.007955267 -0.007897908 -0.0444238
v 0.01093581 -0.007897924 -0.04770098
v -0.0109359 -0.007897909 -0.04770098
v -0.008189354 -0.007897908 -0.0503829
v 0.008189269 -0.007897925 -0.0503829
v 0.01593527 0.07919848 -0.003554979
v 0.01593527 0.08089516 -0.0006140569
v 0.01593527 0.08824745 -0.0005009493
v 0.01593528 0.09017036 -0.004233649
v 0.01593527 0.07919848 -0.01271707
v 0.01593527 0.09017036 -0.01905134
v 0.01593526 0.08168694 -0.03700746
v 0.01593527 0.07490021 -0.01814645
v 0.01593526 0.06585123 -0.01984314
v 0.01593523 -0.007897925 -0.03689821
v 0.01593527 0.08485409 0.0009695101
v 0.01593526 0.05929073 -0.01796001
v 0.01593526 0.05544491 -0.0141142
v 0.01593525 0.03327491 -0.0141142
v 0.01593525 0.02727996 -0.01173885
v 0.01593525 0.02501772 -0.008531925
v 0.01593525 0.02501772 -0.0007693463
v 0.01593525 0.01992767 0.003868259
v 0.01593524 -0.007897927 -0.001334917
v 0.01593524 -0.003373449 0.003868254
v 0.01593526 0.08168694 -0.03700746
v 0.01398714 0.08417542 -0.0404992
v 0.0139871 -0.007897924 -0.04053589
v 0.01593523 -0.007897925 -0.03689821
v 0.007955186 -0.007897925 -0.0444238
v 0.007955221 0.08751223 -0.04434992
v 0.01093581 -0.007897924 -0.04770098
v 0.01093585 0.09084903 -0.0475899
v 0.008189306 0.09084904 -0.05038289
v 0.008189269 -0.007897925 -0.0503829
v 0.007955221 0.08751223 -0.04434992
v 0.01093585 0.09084903 -0.0475899
v 0.01093581 -0.007897924 -0.04770098
v 0.007955186 -0.007897925 -0.0444238
vt 0.7212041 0.4326575
vt 0.667374 0.4333375
vt 0.6544597 0.4551834
vt 0.7353874 0.4601897
vt 0.6544594 0.522762
vt 0.7353867 0.5694832
vt 0.6728132 0.7019255
vt 0.6227556 0.5628086
vt 0.5560115 0.5753226
vt 0.01204548 0.7011166
vt 0.6965844 0.4216819
vt 0.5076221 0.5653108
vt 0.4792559 0.5369444
vt 0.3157324 0.5369437
vt 0.2715144 0.5194232
vt 0.2548285 0.4918912
vt 0.2548289 0.4309869
vt 0.2172855 0.3967802
vt 0.01244486 0.4344586
vt 0.04541906 0.3967795
vt 0.6707515 0.7112281
vt 0.01009005 0.7104883
vt 0.01009005 0.7387081
vt 0.6891016 0.7384277
vt 0.01009005 0.8014932
vt 0.7137142 0.8010472
vt 0.7383211 0.8624012
vt 0.7383211 0.8335146
vt 0.01009005 0.8341613
vt 0.01009005 0.8624688
vt 0.7137142 0.8010472
vt 0.01009005 0.8014932
vt 0.01009005 0.8341613
vt 0.7383211 0.8335146
vt 0.6306469 0.2630581
vt 0.6306469 0.01890561
vt 0.4521428 0.01890561
vt 0.4521428 0.2630581
vt 0.3993201 0.2630581
vt 0.3993201 0.01890561
vt 0.6833984 0.2630581
vt 0.6833984 0.01890561
vt 0.5733568 0.4599037
vt 0.5733568 0.3966472
vt 0.3292042 0.3966472
vt 0.3292043 0.4599037
vt 0.5733568 0.3632102
vt 0.3292042 0.3632102
vt 0.3292042 0.3138106
vt 0.5733568 0.3138106
vt 0.7475775 0.5259115
vt 0.99173 0.5259115
vt 0.99173 0.4932465
vt 0.7475775 0.4932465
vt 0.7475775 0.5542426
vt 0.99173 0.5542426
vt 0.7475775 0.4672363
vt 0.99173 0.4672363
vt 0.7475775 0.3970477
vt 0.99173 0.3970477
vt 0.7475775 0.3439981
vt 0.99173 0.3439981
vt 0.7475775 0.2734681
vt 0.99173 0.2734681
vt 0.7475775 0.2221452
vt 0.99173 0.2221452
vt 0.7475775 0.1804797
vt 0.99173 0.1804797
vt 0.7475775 0.01064093
vt 0.99173 0.01064093
vt 0.7475775 0.586409
vt 0.99173 0.586409
vt 0.99173 0.6999243
vt 0.7475775 0.6999243
vt 0.99173 0.852061
vt 0.7475775 0.852061
vt 0.7566749 0.8849087
vt 0.9826325 0.8849087
vt 0.8087105 0.9315329
vt 0.9305968 0.9315329
vt 0.9534307 0.967163
vt 0.7858768 0.967163
vt 0.8069173 0.9885597
vt 0.93239 0.9885597
vt 0.007841825 0.8732888
vt 0.007741183 0.9940762
vt 0.7359714 0.994683
vt 0.7360716 0.8738958
vt 0.3993201 0.2630581
vt 0.3993201 0.01890561
vt 0.1230889 0.01890552
vt 0.1230889 0.2630581
vt 0.09522164 0.2539607
vt 0.09522164 0.02800298
vt 0.05590114 0.08003879
vt 0.05590114 0.2019249
vt 0.03079548 0.05720487
vt 0.03079548 0.2247588
vt 0.01024987 0.2037182
vt 0.01024987 0.07824546
vt 0.6543552 0.4552137
vt 0.6664665 0.4336826
vt 0.7210785 0.4326951
vt 0.735257 0.4602183
vt 0.654355 0.5227706
vt 0.7352561 0.5694768
vt 0.6727028 0.7018764
vt 0.6226614 0.5628042
vt 0.5559389 0.5753142
vt 0.01214746 0.7010679
vt 0.6956483 0.4219821
vt 0.5075651 0.5653056
vt 0.4792079 0.5369484
vt 0.3157367 0.5369477
vt 0.2715331 0.5194328
vt 0.2548525 0.4919096
vt 0.254853 0.431025
vt 0.2173215 0.3968292
vt 0.01175047 0.4358927
vt 0.04551025 0.3968285
vt 0.6707568 0.7112195
vt 0.6891074 0.7384195
vt 0.01008353 0.7385628
vt 0.01008353 0.7103423
vt 0.01008353 0.8013501
vt 0.7137204 0.8010402
vt 0.01008353 0.8340191
vt 0.7383277 0.8335081
vt 0.7383277 0.8623953
vt 0.01008353 0.8623278
vt 0.7137204 0.8010402
vt 0.7383277 0.8335081
vt 0.01008353 0.8340191
vt 0.01008353 0.8013501
vn -1 0 0
vn -1 0 0
vn -1 0 0
vn -1 0 0
vn -1 0 0
vn -1 0 0
vn -1 0 0
vn -1 0 0
vn -1 0 0
vn -1 0 0
vn -1 0 0
vn -1 0 0
vn -1 0 0
vn -1 0 0
vn -1 0 0
vn -1 0 0
vn -1 0 0
vn -1 0 0
vn -1 0 0
vn -1 0 0
vn -0.9487274 -9.536746E-05 -0.3160955
vn -0.9487274 -0.0001907349 -0.3160954
vn -0.8118015 0.0001907344 -0.5839335
vn -0.7477328 0.000286104 -0.6639997
vn -0.6015895 0.0003814734 -0.7988053
vn -0.6015438 0.0004768339 -0.7988397
vn -0.7059197 0.0003814686 -0.7082919
vn -0.7059613 0.0003814719 -0.7082502
vn -0.7059197 0.0003814686 -0.7082919
vn -0.7059197 0.0003814686 -0.7082919
vn -0.738028 -0.0006675695 0.6747698
vn -0.7380653 -0.0006675764 0.674729
vn -0.7380653 -0.0006675764 0.674729
vn -0.7380252 -0.0006675725 0.6747727
vn 0 0.3610613 0.9325421
vn 0 0.3611088 0.9325237
vn 0 -0.4146574 0.9099777
vn 0 -0.4146574 0.9099777
vn 0 -0.754566 0.6562241
vn 0 -0.754566 0.6562241
vn 0 0.9147452 0.4040314
vn 0 0.9147456 0.4040301
vn 0 0.9147452 0.4040314
vn 0 0.9631194 0.2690743
vn 0 0.9631194 0.2690743
vn 0 0.9147456 0.4040301
vn 0 0.6454446 0.7638071
vn 0 0.6454446 0.7638071
vn 0 0.1875394 0.9822571
vn 0 0.1874934 0.9822659
vn 0 0.01420974 0.999899
vn 0 0.01420974 0.999899
vn 0 -0.6548846 0.7557288
vn 0 -0.654885 0.7557285
vn 0 0.6831129 0.7303128
vn 0 0.6831129 0.7303128
vn 0 -0.9659705 0.2586527
vn 0 -0.9659674 0.2586638
vn 0 -0.9444656 0.3286103
vn 0 -0.9444619 0.328621
vn 0 -0.5169357 0.8560243
vn 0 -0.5168955 0.8560485
vn 0 0.009346056 0.9999564
vn 0 0.009346056 0.9999564
vn 1.192097E-05 0.4747409 0.8801256
vn 0 0.4747878 0.8801003
vn 0 0.3827084 0.9238693
vn 0 0.3827084 0.9238693
vn 0 0.1874934 0.9822659
vn 0 0.1875394 0.9822571
vn 0 0.9718503 0.2355987
vn 0 0.9718498 0.2356016
vn 0 0.9757495 -0.2188903
vn 0 0.9757417 -0.2189244
vn 0 0.9994292 0.03378318
vn 0 0.9994292 0.03378318
vn 0 0.8208148 0.5711944
vn 0 0.8208148 0.5711944
vn 0 0.7754338 0.6314288
vn 0 0.7754338 0.6314288
vn 0 0.9009665 0.4338887
vn 0 0.9009478 0.4339275
vn 5.960328E-06 1 0
vn 5.960328E-06 1 0
vn 0 0 -1
vn 0 0 -1
vn 0 0 -1
vn 0 0 -1
vn 0 -1 0
vn 0 -1 0
vn 0 -1 0
vn 0 -1 0
vn 0 -1 0
vn 0 -1 0
vn 0 -1 0
vn 0 -1 0
vn 0 -1 0
vn 0 -1 0
vn 0 -1 0
vn 0 -1 0
vn 1 0 0
vn 1 0 0
vn 1 0 0
vn 1 0 0
vn 1 0 0
vn 1 0 0
vn 1 0 0
vn 1 0 0
vn 1 0 0
vn 1 0 0
vn 1 0 0
vn 1 0 0
vn 1 0 0
vn 1 0 0
vn 1 0 0
vn 1 0 0
vn 1 0 -1.490118E-06
vn 1 0 0
vn 1 0 0
vn 1 0 0
vn 0.9487274 -9.536746E-05 -0.3160955
vn 0.7477328 0.000286104 -0.6639997
vn 0.8118322 0.0001907361 -0.5838907
vn 0.9487274 -0.0001907349 -0.3160954
vn 0.6015437 0.0005722006 -0.7988396
vn 0.6015895 0.0004768417 -0.7988053
vn 0.7059197 0.0003814686 -0.7082919
vn 0.7059196 0.0004768358 -0.7082919
vn 0.7059613 0.0003814719 -0.7082502
vn 0.7059613 0.0003814719 -0.7082502
vn 0.7380653 -0.0006675764 0.674729
vn 0.7380653 -0.0005722083 0.674729
vn 0.7380653 -0.0005722083 0.674729
vn 0.738028 -0.0005722026 0.6747698
g mount_glock_aimtech_base_glock_LOD1_0
f 3/3/3 2/2/2 1/1/1
f 4/4/4 3/3/3 1/1/1
f 5/5/5 3/3/3 4/4/4
f 6/6/6 5/5/5 4/4/4
f 7/7/7 5/5/5 6/6/6
f 8/8/8 5/5/5 7/7/7
f 9/9/9 8/8/8 7/7/7
f 10/10/10 9/9/9 7/7/7
f 11/11/11 1/1/1 2/2/2
f 12/12/12 9/9/9 10/10/10
f 13/13/13 12/12/12 10/10/10
f 14/14/14 13/13/13 10/10/10
f 15/15/15 14/14/14 10/10/10
f 16/16/16 15/15/15 10/10/10
f 17/17/17 16/16/16 10/10/10
f 18/18/18 17/17/17 10/10/10
f 19/19/19 18/18/18 10/10/10
f 20/20/20 18/18/18 19/19/19
f 23/23/23 22/22/22 21/21/21
f 24/24/24 23/23/23 21/21/21
f 25/25/25 23/23/23 24/24/24
f 26/26/26 25/25/25 24/24/24
f 29/29/29 28/28/28 27/27/27
f 30/30/30 29/29/29 27/27/27
f 33/33/33 32/32/32 31/31/31
f 34/34/34 33/33/33 31/31/31
f 37/37/37 36/36/36 35/35/35
f 38/38/38 37/37/37 35/35/35
f 37/37/37 38/38/38 39/39/39
f 40/40/40 37/37/37 39/39/39
f 35/35/35 36/36/36 41/41/41
f 36/36/36 42/42/42 41/41/41
f 45/45/45 44/44/44 43/43/43
f 46/46/46 45/45/45 43/43/43
f 44/44/44 45/45/45 47/47/47
f 45/45/45 48/48/48 47/47/47
f 48/48/48 49/49/49 47/47/47
f 49/49/49 50/50/50 47/47/47
f 53/53/53 52/52/52 51/51/51
f 54/54/54 53/53/53 51/51/51
f 51/51/51 52/52/52 55/55/55
f 52/52/52 56/56/56 55/55/55
f 53/53/53 54/54/54 57/57/57
f 58/58/58 53/53/53 57/57/57
f 58/58/58 57/57/57 59/59/59
f 60/60/60 58/58/58 59/59/59
f 60/60/60 59/59/59 61/61/61
f 62/62/62 60/60/60 61/61/61
f 62/62/62 61/61/61 63/63/63
f 64/64/64 62/62/62 63/63/63
f 64/64/64 63/63/63 65/65/65
f 66/66/66 64/64/64 65/65/65
f 66/66/66 65/65/65 67/67/67
f 68/68/68 66/66/66 67/67/67
f 68/68/68 67/67/67 69/69/69
f 70/70/70 68/68/68 69/69/69
f 55/55/55 56/56/56 71/71/71
f 56/56/56 72/72/72 71/71/71
f 72/72/72 73/73/73 71/71/71
f 73/73/73 74/74/74 71/71/71
f 73/73/73 75/75/75 74/74/74
f 75/75/75 76/76/76 74/74/74
f 76/76/76 75/75/75 77/77/77
f 75/75/75 78/78/78 77/77/77
f 77/77/77 78/78/78 79/79/79
f 78/78/78 80/80/80 79/79/79
f 80/80/80 81/81/81 79/79/79
f 81/81/81 82/82/82 79/79/79
f 82/82/82 81/81/81 83/83/83
f 81/81/81 84/84/84 83/83/83
f 87/87/87 86/86/86 85/85/85
f 88/88/88 87/87/87 85/85/85
f 91/91/91 90/90/90 89/89/89
f 92/92/92 91/91/91 89/89/89
f 91/91/91 92/92/92 93/93/93
f 94/94/94 91/91/91 93/93/93
f 95/95/95 94/94/94 93/93/93
f 96/96/96 95/95/95 93/93/93
f 97/97/97 95/95/95 96/96/96
f 98/98/98 97/97/97 96/96/96
f 97/97/97 98/98/98 99/99/99
f 100/100/100 97/97/97 99/99/99
f 103/103/103 102/102/102 101/101/101
f 104/104/104 103/103/103 101/101/101
f 101/101/101 105/105/105 104/104/104
f 105/105/105 106/106/106 104/104/104
f 105/105/105 107/107/107 106/106/106
f 105/105/105 108/108/108 107/107/107
f 108/108/108 109/109/109 107/107/107
f 109/109/109 110/110/110 107/107/107
f 103/103/103 111/111/111 102/102/102
f 109/109/109 112/112/112 110/110/110
f 112/112/112 113/113/113 110/110/110
f 113/113/113 114/114/114 110/110/110
f 114/114/114 115/115/115 110/110/110
f 115/115/115 116/116/116 110/110/110
f 116/116/116 117/117/117 110/110/110
f 117/117/117 118/118/118 110/110/110
f 118/118/118 119/119/119 110/110/110
f 118/118/118 120/120/120 119/119/119
f 123/123/123 122/122/122 121/121/121
f 124/124/124 123/123/123 121/121/121
f 123/123/123 125/125/125 122/122/122
f 125/125/125 126/126/126 122/122/122
f 129/129/129 128/128/128 127/127/127
f 130/130/130 129/129/129 127/127/127
f 133/133/133 132/132/132 131/131/131
f 134/134/134 133/133/133 131/131/131
