g mount_m700_abarms_mod_x_scope_mount_rail_LOD1
v 0.00778035 0.06752589 -0.0024621
v 0.00778035 0.008992502 -0.002462105
v 0.00778035 0.008992486 0.001042653
v 0.00778035 0.06752589 0.007336206
v 0.00778035 0.00595678 0.004078374
v 0.00778035 -0.04940141 0.00407837
v 0.00778035 -0.08822384 0.007336194
v 0.00778035 -0.05243695 0.001042872
v 0.00778035 -0.08822384 -0.003504307
v 0.00778035 -0.05243696 -0.003504304
v 0.004124247 0.06752589 0.004906564
v 0.004124247 0.0882239 0.004906566
v 0.004124247 0.0882239 0.0005457089
v 0.004124247 0.06752589 0.0005457072
v 0.01086217 -0.08822384 0.01040429
v 0.01086217 0.06752589 0.0104043
v 0.00778035 0.06752589 0.007336206
v 0.00778035 -0.08822384 0.007336194
v 0.00481605 0.06752589 0.01321138
v 0.00481605 -0.08822384 0.01321137
v 0.00481605 -0.08822384 0.01026632
v 0.00481605 0.06752589 0.01026634
v 0.008089592 0.06752589 0.01321138
v 0.008067329 -0.08822384 0.01321137
v 0.00481605 -0.08822384 0.01321137
v 0.00481605 0.06752589 0.01321138
v 0.01086217 0.06752589 0.0104043
v 0.01086217 -0.08822384 0.01040429
v 0.008067329 -0.08822384 0.01321137
v 0.008089592 0.06752589 0.01321138
v 0.00778035 -0.08822384 0.007336194
v 0.00778035 -0.08822384 -0.003504307
v 1.255741E-13 -0.08822384 -0.002606026
v 0.00481605 -0.08822384 0.01026632
v 0.008067329 -0.08822384 0.01321137
v 0.01086217 -0.08822384 0.01040429
v 0.00481605 -0.08822384 0.01321137
v -0.00481605 -0.08822384 0.01026632
v -0.00778035 -0.08822384 0.007336194
v -0.00778035 -0.08822384 -0.003504307
v -0.008067329 -0.08822384 0.01321137
v -0.01086217 -0.08822384 0.01040429
v -0.00481605 -0.08822384 0.01321137
v 0.00778035 0.008992502 -0.002462105
v 0.00778035 0.06752589 -0.0024621
v -1.00752E-13 0.06752589 -0.0005161756
v -1.424389E-14 0.0089925 -0.0005161898
v 7.268369E-14 -0.05243696 -0.002606019
v 1.255741E-13 -0.08822384 -0.002606026
v 0.00778035 -0.08822384 -0.003504307
v 0.00778035 -0.05243696 -0.003504304
v 0.004124247 0.06752589 0.004906564
v 0.00778035 0.06752589 0.007336206
v 0.00481605 0.06752589 0.01026634
v 0.004124247 0.06752589 0.0005457072
v 0.00778035 0.06752589 -0.0024621
v 0.008089592 0.06752589 0.01321138
v 0.01086217 0.06752589 0.0104043
v 0.00481605 0.06752589 0.01321138
v -1.00752E-13 0.06752589 -0.0005161756
v -0.004124247 0.06752589 0.004906564
v -0.00481605 0.06752589 0.01026634
v -0.00778035 0.06752589 0.007336206
v -0.004124247 0.06752589 0.0005457072
v -0.00778035 0.06752589 -0.0024621
v -0.008089592 0.06752589 0.01321138
v -0.01086217 0.06752589 0.0104043
v -0.00481605 0.06752589 0.01321138
v -0.00778035 0.06752589 -0.0024621
v -0.00778035 0.06752589 0.007336206
v -0.00778035 0.008992486 0.001042653
v -0.00778035 0.008992502 -0.002462105
v -0.00778035 0.00595678 0.004078374
v -0.00778035 -0.04940141 0.00407837
v -0.00778035 -0.08822384 0.007336194
v -0.00778035 -0.05243695 0.001042872
v -0.00778035 -0.08822384 -0.003504307
v -0.00778035 -0.05243696 -0.003504304
v -0.004124247 0.06752589 0.004906564
v -0.004124247 0.06752589 0.0005457072
v -0.004124247 0.0882239 0.0005457089
v -0.004124247 0.0882239 0.004906566
v -0.01086217 -0.08822384 0.01040429
v -0.00778035 -0.08822384 0.007336194
v -0.00778035 0.06752589 0.007336206
v -0.01086217 0.06752589 0.0104043
v -0.00481605 0.06752589 0.01321138
v -0.00481605 0.06752589 0.01026634
v -0.00481605 -0.08822384 0.01026632
v -0.00481605 -0.08822384 0.01321137
v -0.008089592 0.06752589 0.01321138
v -0.00481605 0.06752589 0.01321138
v -0.00481605 -0.08822384 0.01321137
v -0.008067329 -0.08822384 0.01321137
v -0.01086217 0.06752589 0.0104043
v -0.008089592 0.06752589 0.01321138
v -0.008067329 -0.08822384 0.01321137
v -0.01086217 -0.08822384 0.01040429
v 0.00481605 -0.08822384 0.01026632
v -0.00481605 -0.08822384 0.01026632
v -0.00481605 0.06752589 0.01026634
v 0.00481605 0.06752589 0.01026634
v 0.00778035 -0.05243695 0.001042872
v -0.00778035 -0.05243695 0.001042872
v 7.268369E-14 -0.05243696 -0.002606019
v 0.00778035 -0.05243696 -0.003504304
v -0.00778035 -0.05243696 -0.003504304
v 0.00778035 -0.04940141 0.00407837
v -0.00778035 -0.04940141 0.00407837
v -0.00778035 -0.05243695 0.001042872
v 0.00778035 -0.05243695 0.001042872
v -0.00778035 -0.04940141 0.00407837
v 0.00778035 -0.04940141 0.00407837
v 0.00778035 0.00595678 0.004078374
v -0.00778035 0.00595678 0.004078374
v -0.00778035 0.00595678 0.004078374
v 0.00778035 0.00595678 0.004078374
v 0.00778035 0.008992486 0.001042653
v -0.00778035 0.008992486 0.001042653
v -0.00778035 0.008992486 0.001042653
v 0.00778035 0.008992486 0.001042653
v -1.424389E-14 0.0089925 -0.0005161898
v -0.00778035 0.008992502 -0.002462105
v 0.00778035 0.008992502 -0.002462105
v 0.004124247 0.06752589 0.004906564
v -0.004124247 0.06752589 0.004906564
v -0.004124247 0.0882239 0.004906566
v 0.004124247 0.0882239 0.004906566
v 0.004124247 0.0882239 0.004906566
v -0.004124247 0.0882239 0.004906566
v -0.004124247 0.0882239 0.0005457089
v 0.004124247 0.0882239 0.0005457089
v -0.004124247 0.06752589 0.0005457072
v 0.004124247 0.06752589 0.0005457072
v 0.004124247 0.0882239 0.0005457089
v -0.004124247 0.0882239 0.0005457089
v -0.00778035 0.008992502 -0.002462105
v -1.424389E-14 0.0089925 -0.0005161898
v -1.00752E-13 0.06752589 -0.0005161756
v -0.00778035 0.06752589 -0.0024621
v 7.268369E-14 -0.05243696 -0.002606019
v -0.00778035 -0.05243696 -0.003504304
v -0.00778035 -0.08822384 -0.003504307
v 1.255741E-13 -0.08822384 -0.002606026
vt 0.8939224 0.03404894
vt 0.5645802 0.03404889
vt 0.5645802 0.0777883
vt 0.8939224 0.1563318
vt 0.5474997 0.1156741
vt 0.2360227 0.115674
vt 0.01758563 0.1563316
vt 0.2189432 0.07779099
vt 0.01758563 0.02104219
vt 0.2189432 0.02104225
vt 0.1388035 0.7972592
vt 0.1388035 0.9884084
vt 0.1634057 0.9884084
vt 0.1634056 0.7972596
vt 0.01758563 0.2105785
vt 0.8939224 0.2106276
vt 0.8939224 0.1563318
vt 0.01758563 0.1563316
vt 0.8939217 0.3006552
vt 0.01758456 0.3006552
vt 0.01758456 0.3374092
vt 0.8939217 0.3374092
vt 0.8939217 0.2598464
vt 0.01758456 0.2600342
vt 0.01758456 0.3006552
vt 0.8939217 0.3006552
vt 0.8939224 0.2106276
vt 0.01758563 0.2105785
vt 0.01758456 0.2600342
vt 0.8939217 0.2598464
vt 0.6559623 0.8555372
vt 0.6559623 0.9830813
vt 0.6998556 0.9725124
vt 0.6726852 0.8210627
vt 0.6543432 0.7864129
vt 0.6385757 0.8194394
vt 0.6726852 0.7864129
vt 0.7270256 0.8210627
vt 0.7437489 0.8555372
vt 0.7437489 0.9830813
vt 0.7453676 0.7864129
vt 0.761135 0.8194394
vt 0.7270256 0.7864129
vt 0.6280286 0.8192818
vt 0.3624651 0.8192818
vt 0.3624651 0.8978075
vt 0.6280286 0.8978075
vt 0.3508322 0.9017286
vt 0.1760577 0.9017286
vt 0.1760577 0.9814986
vt 0.3508322 0.9814986
vt 0.8549754 0.8920348
vt 0.8756015 0.8634488
vt 0.8588782 0.8289742
vt 0.8549754 0.9433423
vt 0.8756015 0.9787306
vt 0.8773459 0.7943245
vt 0.8929876 0.827351
vt 0.8588782 0.7943245
vt 0.8317078 0.9558359
vt 0.8084407 0.8920348
vt 0.8045379 0.8289742
vt 0.7878147 0.8634488
vt 0.8084407 0.9433423
vt 0.7878147 0.9787306
vt 0.7860703 0.7943245
vt 0.7704283 0.827351
vt 0.8045379 0.7943245
vt 0.8948176 0.760978
vt 0.8948176 0.6386952
vt 0.5654752 0.7172387
vt 0.5654755 0.760978
vt 0.5483947 0.6793528
vt 0.2369178 0.6793528
vt 0.01848077 0.6386952
vt 0.2198383 0.7172359
vt 0.01848077 0.7739847
vt 0.2198382 0.7739847
vt 0.09226932 0.7972592
vt 0.06766727 0.7972592
vt 0.06766727 0.9884082
vt 0.09226932 0.9884082
vt 0.01758563 0.5844484
vt 0.01848077 0.6386952
vt 0.8948176 0.6386952
vt 0.8939227 0.5843995
vt 0.8939217 0.4943717
vt 0.8939217 0.4576178
vt 0.01758456 0.4576177
vt 0.01758456 0.4943717
vt 0.8939217 0.5351806
vt 0.8939217 0.4943717
vt 0.01758456 0.4943717
vt 0.01758456 0.5349926
vt 0.8939227 0.5843995
vt 0.8939217 0.5351806
vt 0.01758456 0.5349926
vt 0.01758563 0.5844484
vt 0.01758456 0.3374092
vt 0.01758456 0.4576177
vt 0.8939217 0.4576178
vt 0.8939217 0.3374092
vt 0.9059832 0.08290888
vt 0.9937695 0.08290888
vt 0.9513932 0.03997856
vt 0.9059832 0.02940959
vt 0.9952863 0.02940959
vt 0.9059832 0.133417
vt 0.9937696 0.133417
vt 0.9937695 0.08290888
vt 0.9059832 0.08290888
vt 0.9937696 0.133417
vt 0.9059832 0.133417
vt 0.9059832 0.7847329
vt 0.9937696 0.7847329
vt 0.9937696 0.7847329
vt 0.9059832 0.7847329
vt 0.905983 0.835244
vt 0.9937695 0.8352441
vt 0.9937695 0.8352441
vt 0.905983 0.835244
vt 0.9498764 0.8535846
vt 0.9937695 0.8764793
vt 0.905983 0.8764792
vt 0.1388035 0.7972592
vt 0.09226932 0.7972592
vt 0.09226932 0.9884082
vt 0.1388035 0.9884084
vt 0.9891155 0.8857194
vt 0.9079562 0.8857194
vt 0.9079562 0.975204
vt 0.9891155 0.975204
vt 0.06766727 0.7972592
vt 0.02113285 0.7972592
vt 0.02113285 0.9884082
vt 0.06766727 0.9884082
vt 0.6280286 0.9763334
vt 0.6280286 0.8978075
vt 0.3624651 0.8978075
vt 0.3624651 0.9763332
vt 0.3508322 0.9017286
vt 0.3508322 0.8219585
vt 0.1760577 0.8219582
vt 0.1760577 0.9017286
vn 1 0 0
vn 1 0 0
vn 1 0 0
vn 1 0 0
vn 1 0 0
vn 1 0 0
vn 1 0 0
vn 1 0 0
vn 1 0 0
vn 1 0 0
vn 1 0 0
vn 1 0 0
vn 1 0 0
vn 1 0 0
vn 0.7055255 0 -0.7086845
vn 0.7055255 0 -0.7086845
vn 0.7055315 0 -0.7086786
vn 0.7055315 0 -0.7086786
vn -1 0 0
vn -1 0 0
vn -1 0 0
vn -1 0 0
vn 0 0 1
vn 0 0 1
vn 0 0 1
vn 0 0 1
vn 0.710057 -4.768363E-05 0.7041442
vn 0.710057 -9.536726E-05 0.7041442
vn 0.710057 -9.536726E-05 0.7041442
vn 0.710057 -4.768363E-05 0.7041442
vn 0 -1 0
vn 0 -1 0
vn 0 -1 0
vn 0 -1 0
vn 0 -1 0
vn 0 -1 0
vn 0 -1 0
vn 0 -1 0
vn 0 -1 0
vn 0 -1 0
vn 0 -1 0
vn 0 -1 0
vn 0 -1 0
vn -0.2426324 0 -0.9701183
vn -0.2426327 0 -0.9701182
vn -0.2426337 0 -0.9701179
vn -0.2426337 0 -0.9701179
vn -0.1146936 0 -0.9934009
vn -0.1146936 0 -0.9934009
vn -0.1146913 0 -0.9934012
vn -0.1146913 0 -0.9934012
vn 0 1 0
vn 0 1 0
vn 0 1 0
vn 0 1 3.725205E-07
vn 0 1 0
vn 0 1 0
vn 0 1 0
vn 0 1 0
vn 0 1 3.725205E-07
vn 0 1 0
vn 0 1 0
vn 0 1 0
vn 0 1 3.725205E-07
vn 0 1 0
vn 0 1 0
vn 0 1 0
vn 0 1 0
vn -1 0 0
vn -1 0 0
vn -1 0 0
vn -1 0 0
vn -1 0 0
vn -1 0 0
vn -1 0 0
vn -1 0 0
vn -1 0 0
vn -1 0 0
vn -1 0 0
vn -1 0 0
vn -1 0 0
vn -1 0 0
vn -0.7055255 0 -0.7086845
vn -0.7055315 0 -0.7086786
vn -0.7055315 0 -0.7086786
vn -0.7055255 0 -0.7086845
vn 1 0 0
vn 1 0 0
vn 1 0 0
vn 1 0 0
vn 0 0 1
vn 0 0 1
vn 0 0 1
vn 0 0 1
vn -0.710057 -4.768363E-05 0.7041442
vn -0.710057 -4.768363E-05 0.7041442
vn -0.710057 -9.536726E-05 0.7041442
vn -0.710057 -9.536726E-05 0.7041442
vn 0 0 1
vn 0 0 1
vn 0 0 1
vn 0 0 1
vn 0 1 -2.235123E-06
vn 0 1 -2.235123E-06
vn 0 1 -2.980164E-06
vn 0 1 -2.980164E-06
vn 0 1 -2.980164E-06
vn 0 0.7071007 -0.7071127
vn 0 0.7071007 -0.7071127
vn 0 0.7071015 -0.707112
vn 0 0.7071015 -0.707112
vn 0 0 -1
vn 0 0 -1
vn 0 0 -1
vn 0 0 -1
vn 0 -0.7071083 -0.7071053
vn 0 -0.7071083 -0.7071053
vn 0 -0.7071078 -0.7071056
vn 0 -0.7071078 -0.7071056
vn 0 -1 -5.96047E-06
vn 0 -1 -5.96047E-06
vn 0 -1 -8.195647E-06
vn 0 -1 -4.470353E-06
vn 0 -1 -4.470353E-06
vn 0 0 1
vn 0 0 1
vn 0 0 1
vn 0 0 1
vn 0 1 0
vn 0 1 0
vn 0 1 3.725205E-07
vn 0 1 3.725205E-07
vn 0 0 -1
vn 0 0 -1
vn 0 0 -1
vn 0 0 -1
vn 0.2426324 0 -0.9701183
vn 0.2426337 0 -0.9701179
vn 0.2426337 0 -0.9701179
vn 0.2426327 0 -0.9701182
vn 0.1146936 0 -0.9934009
vn 0.1146913 0 -0.9934012
vn 0.1146913 0 -0.9934012
vn 0.1146936 0 -0.9934009
g mount_m700_abarms_mod_x_scope_mount_rail_LOD1_0
f 3/3/3 2/2/2 1/1/1
f 4/4/4 3/3/3 1/1/1
f 5/5/5 3/3/3 4/4/4
f 5/5/5 4/4/4 6/6/6
f 4/4/4 7/7/7 6/6/6
f 8/8/8 6/6/6 7/7/7
f 8/8/8 7/7/7 9/9/9
f 10/10/10 8/8/8 9/9/9
f 13/13/13 12/12/12 11/11/11
f 14/14/14 13/13/13 11/11/11
f 17/17/17 16/16/16 15/15/15
f 18/18/18 17/17/17 15/15/15
f 21/21/21 20/20/20 19/19/19
f 22/22/22 21/21/21 19/19/19
f 25/25/25 24/24/24 23/23/23
f 26/26/26 25/25/25 23/23/23
f 29/29/29 28/28/28 27/27/27
f 30/30/30 29/29/29 27/27/27
f 33/33/33 32/32/32 31/31/31
f 34/34/34 33/33/33 31/31/31
f 35/35/35 34/34/34 31/31/31
f 36/36/36 35/35/35 31/31/31
f 37/37/37 34/34/34 35/35/35
f 33/33/33 34/34/34 38/38/38
f 33/33/33 38/38/38 39/39/39
f 40/40/40 33/33/33 39/39/39
f 38/38/38 41/41/41 39/39/39
f 41/41/41 42/42/42 39/39/39
f 38/38/38 43/43/43 41/41/41
f 46/46/46 45/45/45 44/44/44
f 47/47/47 46/46/46 44/44/44
f 50/50/50 49/49/49 48/48/48
f 51/51/51 50/50/50 48/48/48
f 54/54/54 53/53/53 52/52/52
f 52/52/52 53/53/53 55/55/55
f 53/53/53 56/56/56 55/55/55
f 53/53/53 54/54/54 57/57/57
f 58/58/58 53/53/53 57/57/57
f 59/59/59 57/57/57 54/54/54
f 55/55/55 56/56/56 60/60/60
f 54/54/54 52/52/52 61/61/61
f 62/62/62 54/54/54 61/61/61
f 63/63/63 62/62/62 61/61/61
f 63/63/63 61/61/61 64/64/64
f 64/64/64 55/55/55 60/60/60
f 65/65/65 63/63/63 64/64/64
f 65/65/65 64/64/64 60/60/60
f 66/66/66 62/62/62 63/63/63
f 67/67/67 66/66/66 63/63/63
f 66/66/66 68/68/68 62/62/62
f 71/71/71 70/70/70 69/69/69
f 72/72/72 71/71/71 69/69/69
f 71/71/71 73/73/73 70/70/70
f 73/73/73 74/74/74 70/70/70
f 74/74/74 75/75/75 70/70/70
f 74/74/74 76/76/76 75/75/75
f 77/77/77 75/75/75 76/76/76
f 78/78/78 77/77/77 76/76/76
f 81/81/81 80/80/80 79/79/79
f 82/82/82 81/81/81 79/79/79
f 85/85/85 84/84/84 83/83/83
f 86/86/86 85/85/85 83/83/83
f 89/89/89 88/88/88 87/87/87
f 90/90/90 89/89/89 87/87/87
f 93/93/93 92/92/92 91/91/91
f 94/94/94 93/93/93 91/91/91
f 97/97/97 96/96/96 95/95/95
f 98/98/98 97/97/97 95/95/95
f 101/101/101 100/100/100 99/99/99
f 102/102/102 101/101/101 99/99/99
f 105/105/105 104/104/104 103/103/103
f 106/106/106 105/105/105 103/103/103
f 107/107/107 104/104/104 105/105/105
f 110/110/110 109/109/109 108/108/108
f 111/111/111 110/110/110 108/108/108
f 114/114/114 113/113/113 112/112/112
f 115/115/115 114/114/114 112/112/112
f 118/118/118 117/117/117 116/116/116
f 119/119/119 118/118/118 116/116/116
f 122/122/122 121/121/121 120/120/120
f 123/123/123 122/122/122 120/120/120
f 124/124/124 121/121/121 122/122/122
f 127/127/127 126/126/126 125/125/125
f 128/128/128 127/127/127 125/125/125
f 131/131/131 130/130/130 129/129/129
f 132/132/132 131/131/131 129/129/129
f 135/135/135 134/134/134 133/133/133
f 136/136/136 135/135/135 133/133/133
f 139/139/139 138/138/138 137/137/137
f 140/140/140 139/139/139 137/137/137
f 143/143/143 142/142/142 141/141/141
f 144/144/144 143/143/143 141/141/141
