g mount_all_trijicon_ta51_LOD1
v -0.01423417 -0.04432782 -0.007263401
v 0.01473635 -0.04432782 -0.007263401
v 0.01473635 0.04509199 -0.007263401
v -0.01423417 0.04509199 -0.007263401
v -0.01423417 -0.04432782 0.006024576
v -0.01423417 0.04509199 0.006024576
v 0.01473635 0.04509199 0.006024576
v 0.01473635 -0.04432782 0.006024576
v -0.01423417 -0.04432782 -0.007263401
v -0.01423417 -0.04432782 0.006024576
v 0.01473635 -0.04432782 0.006024576
v 0.01473635 -0.04432782 -0.007263401
v 0.01473635 -0.04432782 -0.007263401
v 0.01473635 -0.04432782 0.006024576
v 0.01473635 0.04509199 0.006024576
v 0.01473635 0.04509199 -0.007263401
v 0.01473635 0.04509199 -0.007263401
v 0.01473635 0.04509199 0.006024576
v -0.01423417 0.04509199 0.006024576
v -0.01423417 0.04509199 -0.007263401
v -0.01423417 0.04509199 -0.007263401
v -0.01423417 0.04509199 0.006024576
v -0.01423417 -0.04432782 0.006024576
v -0.01423417 -0.04432782 -0.007263401
v 0.02850971 -0.03792992 -0.0008351457
v 0.01504352 -0.03792992 -0.0008351457
v 0.01504352 -0.03531611 0.00547514
v 0.02850971 -0.03531611 0.00547514
v 0.01504352 -0.02900583 0.008088948
v 0.02850971 -0.02900583 0.008088948
v 0.02850971 -0.03531611 -0.007145435
v 0.01504352 -0.03531611 -0.007145434
v 0.02850971 -0.02900583 -0.009759239
v 0.01504352 -0.02900583 -0.009759239
v 0.02850971 -0.02269554 -0.007145435
v 0.01504352 -0.02269554 -0.007145434
v 0.02850971 -0.02008173 -0.0008351469
v 0.01504352 -0.02008173 -0.0008351469
v 0.02850971 -0.02269554 0.00547514
v 0.01504352 -0.02269554 0.00547514
v 0.02850971 -0.02900583 0.008088948
v 0.01504352 -0.02900583 0.008088948
v 0.02850971 -0.02269554 -0.007145435
v 0.02850971 -0.03531611 -0.007145435
v 0.02850971 -0.03792992 -0.0008351457
v 0.02850971 -0.02008173 -0.0008351469
v 0.02850971 -0.02269554 0.00547514
v 0.02850971 -0.03531611 0.00547514
v 0.02850971 -0.02900583 -0.009759239
v 0.02850971 -0.02900583 0.008088948
v 0.01504352 -0.02008173 -0.0008351469
v 0.01504352 -0.03792992 -0.0008351457
v 0.01504352 -0.03531611 -0.007145434
v 0.01504352 -0.02269554 -0.007145434
v 0.01504352 -0.03531611 0.00547514
v 0.01504352 -0.02269554 0.00547514
v 0.01504352 -0.02900583 0.008088948
v 0.01504352 -0.02900583 -0.009759239
v 0.02850971 0.02195164 -0.0008351457
v 0.01504352 0.02195164 -0.0008351457
v 0.01504352 0.02456545 0.00547514
v 0.02850971 0.02456545 0.00547514
v 0.01504352 0.03087574 0.008088948
v 0.02850971 0.03087573 0.008088948
v 0.02850971 0.02456545 -0.007145435
v 0.01504352 0.02456545 -0.007145434
v 0.02850971 0.03087573 -0.009759239
v 0.01504352 0.03087573 -0.009759239
v 0.02850971 0.03718602 -0.007145435
v 0.01504352 0.03718602 -0.007145434
v 0.02850971 0.03979983 -0.0008351469
v 0.01504352 0.03979983 -0.0008351469
v 0.02850971 0.03718602 0.00547514
v 0.01504352 0.03718602 0.00547514
v 0.02850971 0.03087573 0.008088948
v 0.01504352 0.03087574 0.008088948
v 0.02850971 0.03718602 -0.007145435
v 0.02850971 0.02456545 -0.007145435
v 0.02850971 0.02195164 -0.0008351457
v 0.02850971 0.03979983 -0.0008351469
v 0.02850971 0.03718602 0.00547514
v 0.02850971 0.02456545 0.00547514
v 0.02850971 0.03087573 -0.009759239
v 0.02850971 0.03087573 0.008088948
v 0.01504352 0.03979983 -0.0008351469
v 0.01504352 0.02195164 -0.0008351457
v 0.01504352 0.02456545 -0.007145434
v 0.01504352 0.03718602 -0.007145434
v 0.01504352 0.02456545 0.00547514
v 0.01504352 0.03718602 0.00547514
v 0.01504352 0.03087574 0.008088948
v 0.01504352 0.03087573 -0.009759239
vt 0.682338 0.02107667
vt 0.682338 0.1185345
vt 0.9831491 0.1185345
vt 0.9831491 0.02107667
vt 0.4990775 0.9882489
vt 0.4990776 0.01175096
vt 0.1827085 0.01175096
vt 0.1827085 0.9882489
vt 0.9806846 0.9836887
vt 0.9806846 0.8490346
vt 0.6871113 0.8490346
vt 0.6871113 0.9836887
vt 0.5176321 0.9882489
vt 0.6627417 0.9882489
vt 0.6627417 0.01175096
vt 0.5176321 0.01175096
vt 0.8254321 0.3136666
vt 0.6888735 0.3136665
vt 0.6888735 0.6113918
vt 0.8254321 0.6113918
vt 0.1611557 0.01175096
vt 0.01604609 0.01175096
vt 0.016046 0.9882489
vt 0.1611557 0.9882489
vt 0.9770149 0.5364012
vt 0.8572946 0.5364012
vt 0.8572946 0.5995377
vt 0.9770149 0.5995377
vt 0.8572946 0.6626741
vt 0.9770149 0.6626741
vt 0.9770149 0.4732646
vt 0.8572946 0.4732646
vt 0.9770149 0.410128
vt 0.8572946 0.410128
vt 0.9770149 0.3469914
vt 0.8572946 0.3469914
vt 0.9770149 0.2838549
vt 0.8572946 0.2838549
vt 0.9770149 0.2207184
vt 0.8572946 0.2207184
vt 0.9770149 0.1575819
vt 0.8572946 0.1575819
vt 0.8431913 0.6631299
vt 0.8431913 0.8000691
vt 0.7747216 0.82843
vt 0.7747216 0.6347689
vt 0.706252 0.6631299
vt 0.706252 0.8000691
vt 0.8715523 0.7315996
vt 0.677891 0.7315996
vt 0.7567919 0.1396066
vt 0.7567919 0.2958558
vt 0.8120344 0.2729737
vt 0.8120344 0.1624887
vt 0.7015495 0.2729737
vt 0.7015495 0.1624887
vt 0.6786674 0.2177312
vt 0.8349165 0.2177312
vt 0.9770149 0.5364012
vt 0.8572946 0.5364012
vt 0.8572946 0.5995377
vt 0.9770149 0.5995377
vt 0.8572946 0.6626741
vt 0.9770149 0.6626741
vt 0.9770149 0.4732646
vt 0.8572946 0.4732646
vt 0.9770149 0.410128
vt 0.8572946 0.410128
vt 0.9770149 0.3469914
vt 0.8572946 0.3469914
vt 0.9770149 0.2838549
vt 0.8572946 0.2838549
vt 0.9770149 0.2207184
vt 0.8572946 0.2207184
vt 0.9770149 0.1575819
vt 0.8572946 0.1575819
vt 0.8431913 0.6631299
vt 0.8431913 0.8000691
vt 0.7747216 0.82843
vt 0.7747216 0.6347689
vt 0.706252 0.6631299
vt 0.706252 0.8000691
vt 0.8715523 0.7315996
vt 0.677891 0.7315996
vt 0.7567919 0.1396066
vt 0.7567919 0.2958558
vt 0.8120344 0.2729737
vt 0.8120344 0.1624887
vt 0.7015495 0.2729737
vt 0.7015495 0.1624887
vt 0.6786674 0.2177312
vt 0.8349165 0.2177312
vn 0 0 -1
vn 0 0 -1
vn 0 0 -1
vn 0 0 -1
vn 0 0 1
vn 0 0 1
vn 0 0 1
vn 0 0 1
vn 0 -1 0
vn 0 -1 0
vn 0 -1 0
vn 0 -1 0
vn 1 0 0
vn 1 0 0
vn 1 0 0
vn 1 0 0
vn 0 1 0
vn 0 1 0
vn 0 1 0
vn 0 1 0
vn -1 0 0
vn -1 0 0
vn -1 0 0
vn -1 0 0
vn -2.729012E-07 -1 0
vn -2.729012E-07 -1 0
vn -1.885101E-07 -0.7071068 0.7071068
vn -1.885101E-07 -0.7071069 0.7071066
vn 0 0 1
vn 0 0 1
vn -1.874141E-07 -0.7071066 -0.7071068
vn -1.874141E-07 -0.7071066 -0.7071069
vn 0 0 -1
vn 0 -2.053595E-07 -1
vn 0 0.7071066 -0.7071069
vn 0 0.7071066 -0.7071069
vn 1.753582E-07 1 0
vn 1.753582E-07 1 0
vn 1.271347E-07 0.7071069 0.7071066
vn 1.271347E-07 0.7071069 0.7071066
vn 0 0 1
vn 0 0 1
vn 1 -3.238048E-07 0
vn 1 -3.238048E-07 0
vn 1 -3.130007E-07 0
vn 1 -3.130007E-07 0
vn 1 -3.238048E-07 0
vn 1 -3.238048E-07 0
vn 1 -3.778253E-07 0
vn 1 -3.778253E-07 0
vn -1 2.347505E-07 0
vn -1 2.347505E-07 0
vn -1 2.428536E-07 0
vn -1 2.428536E-07 0
vn -1 2.428536E-07 0
vn -1 2.428536E-07 0
vn -1 2.83369E-07 2.280376E-07
vn -1 2.83369E-07 -2.280382E-07
vn -2.729012E-07 -1 0
vn -2.729012E-07 -1 1.026798E-07
vn -1.709743E-07 -0.7071068 0.7071068
vn -1.709742E-07 -0.7071068 0.7071068
vn 0 0 1
vn 0 0 1
vn -1.687823E-07 -0.7071066 -0.7071068
vn -1.687823E-07 -0.7071068 -0.7071068
vn 0 0 -1
vn 0 -1.437517E-07 -1
vn 0 0.7071066 -0.7071069
vn 0 0.7071066 -0.7071069
vn 0 1 0
vn 0 1 0
vn 0 0.7071068 0.7071066
vn 0 0.7071068 0.7071068
vn 0 0 1
vn 0 0 1
vn 1 -3.238048E-07 0
vn 1 -3.238048E-07 0
vn 1 -3.130006E-07 0
vn 1 -3.130007E-07 0
vn 1 -3.238048E-07 0
vn 1 -3.238048E-07 0
vn 1 -3.778253E-07 0
vn 1 -3.778253E-07 0
vn -1 2.347505E-07 0
vn -1 2.347505E-07 0
vn -1 2.428536E-07 0
vn -1 2.428536E-07 0
vn -1 2.428536E-07 0
vn -1 2.428536E-07 0
vn -1 2.83369E-07 2.280374E-07
vn -1 2.83369E-07 -2.28038E-07
g mount_all_trijicon_ta51_LOD1_0
f 3/3/3 2/2/2 1/1/1
f 4/4/4 3/3/3 1/1/1
f 7/7/7 6/6/6 5/5/5
f 8/8/8 7/7/7 5/5/5
f 11/11/11 10/10/10 9/9/9
f 12/12/12 11/11/11 9/9/9
f 15/15/15 14/14/14 13/13/13
f 16/16/16 15/15/15 13/13/13
f 19/19/19 18/18/18 17/17/17
f 20/20/20 19/19/19 17/17/17
f 23/23/23 22/22/22 21/21/21
f 24/24/24 23/23/23 21/21/21
f 27/27/27 26/26/26 25/25/25
f 28/28/28 27/27/27 25/25/25
f 29/29/29 27/27/27 28/28/28
f 30/30/30 29/29/29 28/28/28
f 25/25/25 26/26/26 31/31/31
f 26/26/26 32/32/32 31/31/31
f 31/31/31 32/32/32 33/33/33
f 32/32/32 34/34/34 33/33/33
f 33/33/33 34/34/34 35/35/35
f 34/34/34 36/36/36 35/35/35
f 35/35/35 36/36/36 37/37/37
f 36/36/36 38/38/38 37/37/37
f 37/37/37 38/38/38 39/39/39
f 38/38/38 40/40/40 39/39/39
f 39/39/39 40/40/40 41/41/41
f 40/40/40 42/42/42 41/41/41
f 45/45/45 44/44/44 43/43/43
f 46/46/46 45/45/45 43/43/43
f 45/45/45 46/46/46 47/47/47
f 48/48/48 45/45/45 47/47/47
f 49/49/49 43/43/43 44/44/44
f 50/50/50 48/48/48 47/47/47
f 53/53/53 52/52/52 51/51/51
f 54/54/54 53/53/53 51/51/51
f 51/51/51 52/52/52 55/55/55
f 56/56/56 51/51/51 55/55/55
f 57/57/57 56/56/56 55/55/55
f 58/58/58 53/53/53 54/54/54
f 61/61/61 60/60/60 59/59/59
f 62/62/62 61/61/61 59/59/59
f 63/63/63 61/61/61 62/62/62
f 64/64/64 63/63/63 62/62/62
f 59/59/59 60/60/60 65/65/65
f 60/60/60 66/66/66 65/65/65
f 65/65/65 66/66/66 67/67/67
f 66/66/66 68/68/68 67/67/67
f 67/67/67 68/68/68 69/69/69
f 68/68/68 70/70/70 69/69/69
f 69/69/69 70/70/70 71/71/71
f 70/70/70 72/72/72 71/71/71
f 71/71/71 72/72/72 73/73/73
f 72/72/72 74/74/74 73/73/73
f 73/73/73 74/74/74 75/75/75
f 74/74/74 76/76/76 75/75/75
f 79/79/79 78/78/78 77/77/77
f 80/80/80 79/79/79 77/77/77
f 79/79/79 80/80/80 81/81/81
f 82/82/82 79/79/79 81/81/81
f 83/83/83 77/77/77 78/78/78
f 84/84/84 82/82/82 81/81/81
f 87/87/87 86/86/86 85/85/85
f 88/88/88 87/87/87 85/85/85
f 85/85/85 86/86/86 89/89/89
f 90/90/90 85/85/85 89/89/89
f 91/91/91 90/90/90 89/89/89
f 92/92/92 87/87/87 88/88/88
