g mount_all_nightforce_x_treme_duty_ultralite_30mm_LOD1
v 0.01799705 0.01970547 0.00853039
v 0.01799705 0.01970547 -0.005787885
v -0.01761017 0.01970547 -0.005787885
v -0.01761017 0.01970547 0.00853039
v 0.01495658 0.01970547 0.01456015
v -0.0145697 0.01970547 0.01456015
v 0.01668246 0.01970547 0.0212644
v -0.01629559 0.01970547 0.0212644
v 0.02163343 0.01970547 0.02489413
v -0.02124655 0.01970547 0.02489413
v 0.02163343 0.01970547 0.03262145
v -0.02124655 0.01970547 0.03262145
v 0.00558493 0.01970547 0.04284879
v -0.005198054 0.01970547 0.04284879
v 0.01799705 0.01970547 0.00853039
v 0.01799704 0.03436995 0.008530392
v 0.01799704 0.03436995 -0.005787882
v 0.01799705 0.01970547 -0.005787885
v 0.01495658 0.01970547 0.01456015
v 0.01495658 0.03436995 0.01456015
v 0.01668246 0.03436995 0.02126441
v 0.01668246 0.01970547 0.0212644
v 0.02163343 0.01970547 0.02489413
v 0.02163343 0.03436995 0.02489413
v 0.01668246 0.03436995 0.02126441
v 0.01668246 0.01970547 0.0212644
v 0.02163343 0.01970547 0.03262145
v 0.02163343 0.03436994 0.03262146
v 0.02163343 0.03436995 0.02489413
v 0.02163343 0.01970547 0.02489413
v 0.00558493 0.01970547 0.04284879
v 0.00558493 0.03436994 0.04284879
v 0.02163343 0.03436994 0.03262146
v 0.02163343 0.01970547 0.03262145
v -0.01761017 0.01970547 -0.005787885
v -0.01761017 0.03436995 -0.005787882
v -0.01761017 0.03436995 0.008530392
v -0.01761017 0.01970547 0.00853039
v -0.0145697 0.01970547 0.01456015
v -0.0145697 0.03436995 0.01456015
v -0.01629559 0.03436995 0.02126441
v -0.01629559 0.01970547 0.0212644
v -0.01629559 0.01970547 0.0212644
v -0.01629559 0.03436995 0.02126441
v -0.02124655 0.03436995 0.02489413
v -0.02124655 0.01970547 0.02489413
v -0.02124655 0.01970547 0.02489413
v -0.02124655 0.03436995 0.02489413
v -0.02124655 0.03436994 0.03262146
v -0.02124655 0.01970547 0.03262145
v -0.005198054 0.01970547 0.04284879
v -0.005198056 0.03436994 0.04284879
v 0.00558493 0.03436994 0.04284879
v 0.00558493 0.01970547 0.04284879
v -0.01761017 0.01970547 -0.005787885
v 0.01799705 0.01970547 -0.005787885
v 0.01799704 0.03436995 -0.005787882
v -0.01761017 0.03436995 -0.005787882
v -0.01761017 0.03436995 -0.005787882
v 0.01799704 0.03436995 -0.005787882
v 0.01799704 0.03436995 0.008530392
v -0.01761017 0.03436995 0.008530392
v 0.01495658 0.03436995 0.01456015
v -0.0145697 0.03436995 0.01456015
v 0.01668246 0.03436995 0.02126441
v -0.01629559 0.03436995 0.02126441
v 0.02163343 0.03436995 0.02489413
v -0.02124655 0.03436995 0.02489413
v 0.02163343 0.03436994 0.03262146
v -0.02124655 0.03436994 0.03262146
v 0.00558493 0.03436994 0.04284879
v -0.005198056 0.03436994 0.04284879
v -0.005198054 0.01970547 0.04284879
v -0.02124655 0.01970547 0.03262145
v -0.02124655 0.03436994 0.03262146
v -0.005198056 0.03436994 0.04284879
v 0.01745848 0.03253407 0.005839274
v 0.0258285 0.03253407 0.005839274
v 0.0258285 0.02685924 0.009115636
v 0.01745848 0.02685924 0.009115637
v 0.0258285 0.02118441 0.005839274
v 0.01745848 0.02118441 0.005839274
v 0.0258285 0.02118442 -0.0007134509
v 0.01745848 0.02118442 -0.0007134509
v 0.0258285 0.02685924 -0.003989816
v 0.01745848 0.02685924 -0.003989816
v 0.01745848 0.03253407 -0.0007134533
v 0.0258285 0.03253407 -0.0007134533
v 0.01745848 0.02685924 -0.003989816
v 0.0258285 0.02685924 -0.003989816
v 0.0258285 0.02118441 0.005839274
v 0.0258285 0.03253407 0.005839274
v 0.0258285 0.03253407 -0.0007134533
v 0.0258285 0.02118442 -0.0007134509
v 0.0258285 0.02685924 0.009115636
v 0.0258285 0.02685924 -0.003989816
v 0.01799704 -0.05104281 0.008530388
v 0.01799704 -0.05104281 -0.005787888
v -0.01761017 -0.05104281 -0.005787888
v -0.01761017 -0.05104281 0.008530388
v 0.01495658 -0.05104281 0.01456014
v -0.0145697 -0.05104281 0.01456014
v 0.01668246 -0.05104281 0.0212644
v -0.01629559 -0.05104281 0.0212644
v 0.02163343 -0.05104281 0.02489413
v -0.02124655 -0.05104281 0.02489413
v 0.02163343 -0.05104281 0.03262145
v -0.02124655 -0.05104281 0.03262145
v 0.00558493 -0.05104282 0.04284879
v -0.005198054 -0.05104282 0.04284879
v 0.01799704 -0.05104281 0.008530388
v 0.01799704 -0.03637834 0.00853039
v 0.01799704 -0.03637834 -0.005787885
v 0.01799704 -0.05104281 -0.005787888
v 0.01495658 -0.05104281 0.01456014
v 0.01495658 -0.03637834 0.01456015
v 0.01668246 -0.03637834 0.02126441
v 0.01668246 -0.05104281 0.0212644
v 0.02163343 -0.05104281 0.02489413
v 0.02163343 -0.03637834 0.02489413
v 0.01668246 -0.03637834 0.02126441
v 0.01668246 -0.05104281 0.0212644
v 0.02163343 -0.05104281 0.03262145
v 0.02163343 -0.03637834 0.03262145
v 0.02163343 -0.03637834 0.02489413
v 0.02163343 -0.05104281 0.02489413
v 0.00558493 -0.05104282 0.04284879
v 0.00558493 -0.03637835 0.04284879
v 0.02163343 -0.03637834 0.03262145
v 0.02163343 -0.05104281 0.03262145
v -0.01761017 -0.05104281 -0.005787888
v -0.01761017 -0.03637834 -0.005787885
v -0.01761017 -0.03637834 0.00853039
v -0.01761017 -0.05104281 0.008530388
v -0.0145697 -0.05104281 0.01456014
v -0.0145697 -0.03637834 0.01456015
v -0.01629559 -0.03637834 0.02126441
v -0.01629559 -0.05104281 0.0212644
v -0.01629559 -0.05104281 0.0212644
v -0.01629559 -0.03637834 0.02126441
v -0.02124655 -0.03637834 0.02489413
v -0.02124655 -0.05104281 0.02489413
v -0.02124655 -0.05104281 0.02489413
v -0.02124655 -0.03637834 0.02489413
v -0.02124655 -0.03637834 0.03262145
v -0.02124655 -0.05104281 0.03262145
v -0.005198054 -0.05104282 0.04284879
v -0.005198054 -0.03637835 0.04284879
v 0.00558493 -0.03637835 0.04284879
v 0.00558493 -0.05104282 0.04284879
v -0.01761017 -0.05104281 -0.005787888
v 0.01799704 -0.05104281 -0.005787888
v 0.01799704 -0.03637834 -0.005787885
v -0.01761017 -0.03637834 -0.005787885
v -0.01761017 -0.03637834 -0.005787885
v 0.01799704 -0.03637834 -0.005787885
v 0.01799704 -0.03637834 0.00853039
v -0.01761017 -0.03637834 0.00853039
v 0.01495658 -0.03637834 0.01456015
v -0.0145697 -0.03637834 0.01456015
v 0.01668246 -0.03637834 0.02126441
v -0.01629559 -0.03637834 0.02126441
v 0.02163343 -0.03637834 0.02489413
v -0.02124655 -0.03637834 0.02489413
v 0.02163343 -0.03637834 0.03262145
v -0.02124655 -0.03637834 0.03262145
v 0.00558493 -0.03637835 0.04284879
v -0.005198054 -0.03637835 0.04284879
v -0.005198054 -0.05104282 0.04284879
v -0.02124655 -0.05104281 0.03262145
v -0.02124655 -0.03637834 0.03262145
v -0.005198054 -0.03637835 0.04284879
v 0.01745848 -0.03821421 0.005839271
v 0.0258285 -0.03821421 0.005839271
v 0.0258285 -0.04388905 0.009115634
v 0.01745848 -0.04388905 0.009115635
v 0.0258285 -0.04956387 0.005839272
v 0.01745848 -0.04956387 0.005839272
v 0.0258285 -0.04956387 -0.0007134557
v 0.01745848 -0.04956387 -0.0007134533
v 0.0258285 -0.04388904 -0.003989818
v 0.01745848 -0.04388904 -0.003989818
v 0.01745848 -0.03821421 -0.0007134533
v 0.0258285 -0.03821421 -0.0007134533
v 0.01745848 -0.04388904 -0.003989818
v 0.0258285 -0.04388904 -0.003989818
v 0.0258285 -0.04956387 0.005839272
v 0.0258285 -0.03821421 0.005839271
v 0.0258285 -0.03821421 -0.0007134533
v 0.0258285 -0.04956387 -0.0007134557
v 0.0258285 -0.04388905 0.009115634
v 0.0258285 -0.04388904 -0.003989818
vt 0.4727094 0.157314
vt 0.4727094 0.01126114
vt 0.1094996 0.01126114
vt 0.1094996 0.157314
vt 0.4416952 0.2188203
vt 0.1405137 0.2188203
vt 0.4593 0.2872068
vt 0.122909 0.2872068
vt 0.5098022 0.3242317
vt 0.07240684 0.3242317
vt 0.5098022 0.4030538
vt 0.07240684 0.4030538
vt 0.3461002 0.5073773
vt 0.2361088 0.5073773
vt 0.1724928 0.9884407
vt 0.1724928 0.8260242
vt 0.01391017 0.8260242
vt 0.01391017 0.9884407
vt 0.2472849 0.9884407
vt 0.2472849 0.8260242
vt 0.3239586 0.8260242
vt 0.3239586 0.9884407
vt 0.3919511 0.9884407
vt 0.3919511 0.8260242
vt 0.3239586 0.8260242
vt 0.3239586 0.9884407
vt 0.4775353 0.9884407
vt 0.4775353 0.8260242
vt 0.3919511 0.8260242
vt 0.3919511 0.9884407
vt 0.8334483 0.3910171
vt 0.9804352 0.3910171
vt 0.9804352 0.2002703
vt 0.8334482 0.2002703
vt 0.9787136 0.1788096
vt 0.9787136 0.0120736
vt 0.8159137 0.0120736
vt 0.8159137 0.1788096
vt 0.7391323 0.1788096
vt 0.7391323 0.0120736
vt 0.6604192 0.0120736
vt 0.6604192 0.1788096
vt 0.6604192 0.1788096
vt 0.6604192 0.0120736
vt 0.5906189 0.0120736
vt 0.5906189 0.1788096
vt 0.5906189 0.1788096
vt 0.5906189 0.0120736
vt 0.5027583 0.0120736
vt 0.5027583 0.1788096
vt 0.8138298 0.3688251
vt 0.8138298 0.2107282
vt 0.6975793 0.2107282
vt 0.6975793 0.3688251
vt 0.01484801 0.8082349
vt 0.4343882 0.8082349
vt 0.4343882 0.6354514
vt 0.01484801 0.6354514
vt 0.5226761 0.9833642
vt 0.9422163 0.9833642
vt 0.9422163 0.8146597
vt 0.5226761 0.8146597
vt 0.9063922 0.7436144
vt 0.5585001 0.7436144
vt 0.9267275 0.6646218
vt 0.5381652 0.6646218
vt 0.985062 0.6218547
vt 0.4798305 0.6218547
vt 0.985062 0.5308079
vt 0.4798305 0.5308079
vt 0.7959714 0.4103049
vt 0.6689211 0.4103049
vt 0.6768423 0.3886612
vt 0.6768423 0.1971685
vt 0.529281 0.1971685
vt 0.529281 0.3886612
vt 0.159251 0.5261931
vt 0.159251 0.6198403
vt 0.2325655 0.6198403
vt 0.2325655 0.5261931
vt 0.30588 0.6198403
vt 0.3058801 0.5261931
vt 0.3791946 0.6198403
vt 0.3791946 0.5261931
vt 0.452509 0.6198404
vt 0.452509 0.5261931
vt 0.0859365 0.5261931
vt 0.0859365 0.6198403
vt 0.01262197 0.5261931
vt 0.01262197 0.6198403
vt 0.4528573 0.7101303
vt 0.4953556 0.7837396
vt 0.5378539 0.759203
vt 0.4953556 0.6855938
vt 0.4528573 0.759203
vt 0.5378539 0.7101303
vt 0.4727094 0.157314
vt 0.4727094 0.01126114
vt 0.1094996 0.01126114
vt 0.1094996 0.157314
vt 0.4416952 0.2188203
vt 0.1405137 0.2188203
vt 0.4593 0.2872068
vt 0.122909 0.2872068
vt 0.5098022 0.3242317
vt 0.07240684 0.3242317
vt 0.5098022 0.4030538
vt 0.07240684 0.4030538
vt 0.3461002 0.5073773
vt 0.2361088 0.5073773
vt 0.1724928 0.9884407
vt 0.1724928 0.8260242
vt 0.01391017 0.8260242
vt 0.01391017 0.9884407
vt 0.2472849 0.9884407
vt 0.2472849 0.8260242
vt 0.3239586 0.8260242
vt 0.3239586 0.9884407
vt 0.3919511 0.9884407
vt 0.3919511 0.8260242
vt 0.3239586 0.8260242
vt 0.3239586 0.9884407
vt 0.4775353 0.9884407
vt 0.4775353 0.8260242
vt 0.3919511 0.8260242
vt 0.3919511 0.9884407
vt 0.8334483 0.3910171
vt 0.9804352 0.3910171
vt 0.9804352 0.2002703
vt 0.8334482 0.2002703
vt 0.9787136 0.1788096
vt 0.9787136 0.0120736
vt 0.8159137 0.0120736
vt 0.8159137 0.1788096
vt 0.7391323 0.1788096
vt 0.7391323 0.0120736
vt 0.6604192 0.0120736
vt 0.6604192 0.1788096
vt 0.6604192 0.1788096
vt 0.6604192 0.0120736
vt 0.5906189 0.0120736
vt 0.5906189 0.1788096
vt 0.5906189 0.1788096
vt 0.5906189 0.0120736
vt 0.5027583 0.0120736
vt 0.5027583 0.1788096
vt 0.8138298 0.3688251
vt 0.8138298 0.2107282
vt 0.6975793 0.2107282
vt 0.6975793 0.3688251
vt 0.01484801 0.8082349
vt 0.4343882 0.8082349
vt 0.4343882 0.6354514
vt 0.01484801 0.6354514
vt 0.5226761 0.9833642
vt 0.9422163 0.9833642
vt 0.9422163 0.8146597
vt 0.5226761 0.8146597
vt 0.9063922 0.7436144
vt 0.5585001 0.7436144
vt 0.9267275 0.6646218
vt 0.5381652 0.6646218
vt 0.985062 0.6218547
vt 0.4798305 0.6218547
vt 0.985062 0.5308079
vt 0.4798305 0.5308079
vt 0.7959714 0.4103049
vt 0.6689211 0.4103049
vt 0.6768423 0.3886612
vt 0.6768423 0.1971685
vt 0.529281 0.1971685
vt 0.529281 0.3886612
vt 0.159251 0.5261931
vt 0.159251 0.6198403
vt 0.2325655 0.6198403
vt 0.2325655 0.5261931
vt 0.30588 0.6198403
vt 0.3058801 0.5261931
vt 0.3791946 0.6198403
vt 0.3791946 0.5261931
vt 0.452509 0.6198404
vt 0.452509 0.5261931
vt 0.0859365 0.5261931
vt 0.0859365 0.6198403
vt 0.01262197 0.5261931
vt 0.01262197 0.6198403
vt 0.4528573 0.7101303
vt 0.4953556 0.7837396
vt 0.5378539 0.759203
vt 0.4953556 0.6855938
vt 0.4528573 0.759203
vt 0.5378539 0.7101303
vn 0 -1 -1.793845E-07
vn 0 -1 -1.665135E-07
vn 0 -1 -1.665135E-07
vn 0 -1 -1.793845E-07
vn 0 -1 -1.883105E-07
vn 0 -1 -1.883105E-07
vn 0 -1 0
vn 0 -1 0
vn 0 -1 0
vn 0 -1 0
vn 0 -1 0
vn 0 -1 0
vn 0 -1 -1.748393E-07
vn 0 -1 -1.748393E-07
vn 0.9728583 0 0.2314017
vn 0.9728583 0 0.2314017
vn 1 0 0
vn 1 0 0
vn 0.9942233 0 0.1073311
vn 0.9942233 0 0.1073312
vn 0.9684257 0 -0.2493024
vn 0.9684257 0 -0.2493024
vn 0.5912591 2.172487E-07 -0.8064817
vn 0.5912591 2.172487E-07 -0.8064817
vn 0.5912591 2.172487E-07 -0.8064817
vn 0.5912591 2.172486E-07 -0.8064817
vn 1 0 0
vn 1 0 0
vn 1 0 0
vn 1 0 0
vn 0.5374234 -1.975648E-07 0.8433126
vn 0.5374233 -1.975648E-07 0.8433126
vn 0.5374234 -1.975648E-07 0.8433126
vn 0.5374234 -1.975648E-07 0.8433126
vn -1 0 0
vn -1 0 0
vn -0.9728583 0 0.2314017
vn -0.9728583 0 0.2314017
vn -0.9942233 0 0.1073311
vn -0.9942233 0 0.1073312
vn -0.9684257 0 -0.2493024
vn -0.9684257 0 -0.2493024
vn -0.5912591 1.903512E-07 -0.8064816
vn -0.5912591 1.903512E-07 -0.8064817
vn -0.5912591 1.903512E-07 -0.8064817
vn -0.5912591 1.903512E-07 -0.8064816
vn -1 0 0
vn -1 0 0
vn -1 0 0
vn -1 0 0
vn 0 -3.251648E-07 1
vn 0 -3.251649E-07 1
vn 0 -3.251648E-07 1
vn 0 -3.251649E-07 1
vn 0 1.625824E-07 -1
vn 0 1.625824E-07 -1
vn 0 1.625824E-07 -1
vn 0 1.625824E-07 -1
vn 0 1 1.665135E-07
vn 0 1 1.665135E-07
vn 0 1 1.793845E-07
vn 0 1 1.793845E-07
vn 0 1 1.883105E-07
vn 0 1 1.883105E-07
vn 0 1 0
vn 0 1 0
vn 0 1 3.299329E-07
vn 0 1 3.299329E-07
vn 0 1 3.709297E-07
vn 0 1 3.709297E-07
vn 0 1 1.165595E-07
vn 0 1 1.165595E-07
vn -0.5374234 -2.456211E-07 0.8433126
vn -0.5374234 -2.456211E-07 0.8433126
vn -0.5374234 -2.456211E-07 0.8433126
vn -0.5374234 -2.456211E-07 0.8433126
vn 0 0.8660255 0.4999999
vn 0 0.8660254 0.5
vn 0 0 1
vn 0 1.314471E-07 1
vn 0 -0.8660254 0.5
vn 0 -0.8660254 0.5
vn 0 -0.8660253 -0.5000001
vn 0 -0.8660253 -0.5000001
vn 0 0 -1
vn 0 0 -1
vn -1.25365E-07 0.8660254 -0.5000001
vn -1.253649E-07 0.8660254 -0.5
vn 0 0 -1
vn 0 0 -1
vn 1 0 0
vn 1 0 0
vn 1 0 0
vn 1 0 0
vn 1 0 0
vn 1 0 0
vn 0 -1 -1.955904E-07
vn 0 -1 -3.330269E-07
vn 0 -1 -3.330269E-07
vn 0 -1 -1.955904E-07
vn 0 -1 0
vn 0 -1 0
vn 0 -1 0
vn 0 -1 0
vn 0 -1 0
vn 0 -1 0
vn 0 -1 -1.237193E-07
vn 0 -1 -1.237193E-07
vn 0 -1 -4.662379E-07
vn 0 -1 -4.66238E-07
vn 0.9728583 0 0.2314017
vn 0.9728583 0 0.2314017
vn 1 0 0
vn 1 0 0
vn 0.9942233 0 0.1073313
vn 0.9942233 0 0.1073312
vn 0.9684257 0 -0.2493024
vn 0.9684257 0 -0.2493023
vn 0.5912588 1.282802E-07 -0.8064818
vn 0.5912588 1.282802E-07 -0.8064818
vn 0.5912588 1.282802E-07 -0.8064818
vn 0.5912588 1.282802E-07 -0.8064818
vn 1 0 0
vn 1 0 0
vn 1 0 0
vn 1 0 0
vn 0.5374233 0 0.8433126
vn 0.5374233 0 0.8433126
vn 0.5374233 0 0.8433126
vn 0.5374233 0 0.8433126
vn -1 0 0
vn -1 0 0
vn -0.9728583 0 0.2314017
vn -0.9728583 0 0.2314017
vn -0.9942233 0 0.1073312
vn -0.9942233 0 0.1073311
vn -0.9684257 0 -0.2493023
vn -0.9684257 0 -0.2493023
vn -0.591259 1.282802E-07 -0.8064818
vn -0.5912591 1.282802E-07 -0.8064817
vn -0.591259 1.282802E-07 -0.8064818
vn -0.5912591 1.282802E-07 -0.8064817
vn -1 0 0
vn -1 0 0
vn -1 0 0
vn -1 0 0
vn 0 0 1
vn 0 0 1
vn 0 0 1
vn 0 0 1
vn 0 1.625824E-07 -1
vn 0 1.625824E-07 -1
vn 0 1.625824E-07 -1
vn 0 1.625824E-07 -1
vn 0 1 3.330269E-07
vn 0 1 3.330269E-07
vn 0 1 1.955904E-07
vn 0 1 1.955904E-07
vn 0 1 0
vn 0 1 0
vn 0 1 0
vn 0 1 0
vn 0 1 0
vn 0 1 0
vn 0 1 1.237193E-07
vn 0 1 1.237193E-07
vn 0 1 4.662381E-07
vn 0 1 4.662381E-07
vn -0.5374233 0 0.8433126
vn -0.5374233 0 0.8433126
vn -0.5374233 0 0.8433126
vn -0.5374233 0 0.8433126
vn 0 0.8660253 0.5000003
vn 0 0.8660253 0.5000003
vn 0 -4.600647E-07 1
vn 0 -4.600647E-07 1
vn 0 -0.8660255 0.4999999
vn 0 -0.8660255 0.4999999
vn 0 -0.8660254 -0.5
vn 0 -0.8660255 -0.4999998
vn 0 0 -1
vn 0 0 -1
vn 0 0.8660254 -0.5
vn 0 0.8660254 -0.5
vn 0 0 -1
vn 0 0 -1
vn 1 0 0
vn 1 0 0
vn 1 0 0
vn 1 0 0
vn 1 0 0
vn 1 0 0
g mount_all_nightforce_x_treme_duty_ultralite_30mm_LOD1_0
f 3/3/3 2/2/2 1/1/1
f 4/4/4 3/3/3 1/1/1
f 4/4/4 1/1/1 5/5/5
f 6/6/6 4/4/4 5/5/5
f 6/6/6 5/5/5 7/7/7
f 8/8/8 6/6/6 7/7/7
f 8/8/8 7/7/7 9/9/9
f 10/10/10 8/8/8 9/9/9
f 10/10/10 9/9/9 11/11/11
f 12/12/12 10/10/10 11/11/11
f 12/12/12 11/11/11 13/13/13
f 14/14/14 12/12/12 13/13/13
f 17/17/17 16/16/16 15/15/15
f 18/18/18 17/17/17 15/15/15
f 15/15/15 16/16/16 19/19/19
f 16/16/16 20/20/20 19/19/19
f 20/20/20 21/21/21 19/19/19
f 21/21/21 22/22/22 19/19/19
f 25/25/25 24/24/24 23/23/23
f 26/26/26 25/25/25 23/23/23
f 29/29/29 28/28/28 27/27/27
f 30/30/30 29/29/29 27/27/27
f 33/33/33 32/32/32 31/31/31
f 34/34/34 33/33/33 31/31/31
f 37/37/37 36/36/36 35/35/35
f 38/38/38 37/37/37 35/35/35
f 37/37/37 38/38/38 39/39/39
f 40/40/40 37/37/37 39/39/39
f 41/41/41 40/40/40 39/39/39
f 42/42/42 41/41/41 39/39/39
f 45/45/45 44/44/44 43/43/43
f 46/46/46 45/45/45 43/43/43
f 49/49/49 48/48/48 47/47/47
f 50/50/50 49/49/49 47/47/47
f 53/53/53 52/52/52 51/51/51
f 54/54/54 53/53/53 51/51/51
f 57/57/57 56/56/56 55/55/55
f 58/58/58 57/57/57 55/55/55
f 61/61/61 60/60/60 59/59/59
f 62/62/62 61/61/61 59/59/59
f 63/63/63 61/61/61 62/62/62
f 64/64/64 63/63/63 62/62/62
f 65/65/65 63/63/63 64/64/64
f 66/66/66 65/65/65 64/64/64
f 67/67/67 65/65/65 66/66/66
f 68/68/68 67/67/67 66/66/66
f 69/69/69 67/67/67 68/68/68
f 70/70/70 69/69/69 68/68/68
f 71/71/71 69/69/69 70/70/70
f 72/72/72 71/71/71 70/70/70
f 75/75/75 74/74/74 73/73/73
f 76/76/76 75/75/75 73/73/73
f 79/79/79 78/78/78 77/77/77
f 80/80/80 79/79/79 77/77/77
f 81/81/81 79/79/79 80/80/80
f 82/82/82 81/81/81 80/80/80
f 83/83/83 81/81/81 82/82/82
f 84/84/84 83/83/83 82/82/82
f 85/85/85 83/83/83 84/84/84
f 86/86/86 85/85/85 84/84/84
f 77/77/77 78/78/78 87/87/87
f 78/78/78 88/88/88 87/87/87
f 87/87/87 88/88/88 89/89/89
f 88/88/88 90/90/90 89/89/89
f 93/93/93 92/92/92 91/91/91
f 94/94/94 93/93/93 91/91/91
f 95/95/95 91/91/91 92/92/92
f 96/96/96 93/93/93 94/94/94
f 99/99/99 98/98/98 97/97/97
f 100/100/100 99/99/99 97/97/97
f 100/100/100 97/97/97 101/101/101
f 102/102/102 100/100/100 101/101/101
f 102/102/102 101/101/101 103/103/103
f 104/104/104 102/102/102 103/103/103
f 104/104/104 103/103/103 105/105/105
f 106/106/106 104/104/104 105/105/105
f 106/106/106 105/105/105 107/107/107
f 108/108/108 106/106/106 107/107/107
f 108/108/108 107/107/107 109/109/109
f 110/110/110 108/108/108 109/109/109
f 113/113/113 112/112/112 111/111/111
f 114/114/114 113/113/113 111/111/111
f 111/111/111 112/112/112 115/115/115
f 112/112/112 116/116/116 115/115/115
f 116/116/116 117/117/117 115/115/115
f 117/117/117 118/118/118 115/115/115
f 121/121/121 120/120/120 119/119/119
f 122/122/122 121/121/121 119/119/119
f 125/125/125 124/124/124 123/123/123
f 126/126/126 125/125/125 123/123/123
f 129/129/129 128/128/128 127/127/127
f 130/130/130 129/129/129 127/127/127
f 133/133/133 132/132/132 131/131/131
f 134/134/134 133/133/133 131/131/131
f 133/133/133 134/134/134 135/135/135
f 136/136/136 133/133/133 135/135/135
f 137/137/137 136/136/136 135/135/135
f 138/138/138 137/137/137 135/135/135
f 141/141/141 140/140/140 139/139/139
f 142/142/142 141/141/141 139/139/139
f 145/145/145 144/144/144 143/143/143
f 146/146/146 145/145/145 143/143/143
f 149/149/149 148/148/148 147/147/147
f 150/150/150 149/149/149 147/147/147
f 153/153/153 152/152/152 151/151/151
f 154/154/154 153/153/153 151/151/151
f 157/157/157 156/156/156 155/155/155
f 158/158/158 157/157/157 155/155/155
f 159/159/159 157/157/157 158/158/158
f 160/160/160 159/159/159 158/158/158
f 161/161/161 159/159/159 160/160/160
f 162/162/162 161/161/161 160/160/160
f 163/163/163 161/161/161 162/162/162
f 164/164/164 163/163/163 162/162/162
f 165/165/165 163/163/163 164/164/164
f 166/166/166 165/165/165 164/164/164
f 167/167/167 165/165/165 166/166/166
f 168/168/168 167/167/167 166/166/166
f 171/171/171 170/170/170 169/169/169
f 172/172/172 171/171/171 169/169/169
f 175/175/175 174/174/174 173/173/173
f 176/176/176 175/175/175 173/173/173
f 177/177/177 175/175/175 176/176/176
f 178/178/178 177/177/177 176/176/176
f 179/179/179 177/177/177 178/178/178
f 180/180/180 179/179/179 178/178/178
f 181/181/181 179/179/179 180/180/180
f 182/182/182 181/181/181 180/180/180
f 173/173/173 174/174/174 183/183/183
f 174/174/174 184/184/184 183/183/183
f 183/183/183 184/184/184 185/185/185
f 184/184/184 186/186/186 185/185/185
f 189/189/189 188/188/188 187/187/187
f 190/190/190 189/189/189 187/187/187
f 191/191/191 187/187/187 188/188/188
f 192/192/192 189/189/189 190/190/190
