g mount_mp9_bt_mp9_side_rail_LOD1
v 0.0078407 -0.047665 -0.006205757
v 0.0078407 0.04766499 -0.006205735
v 0.007043047 -0.047665 -0.006205757
v 0.007043047 0.04766499 -0.006205735
v 0.005648394 -0.04766499 -0.003489445
v 0.005648355 0.047665 -0.003489424
v 0.002939463 -0.047665 -0.002094289
v 0.002939424 0.04766499 -0.002094268
v 0.007043047 0.04766499 -0.006205735
v 0.007043047 -0.047665 -0.006205757
v -0.007829304 -0.047665 -0.002094287
v -0.007829309 0.04766499 -0.002094265
v 0.00784071 0.04524721 0.006205578
v 0.00784071 -0.04589054 0.006205559
v -0.007829309 0.04524721 0.00620558
v -0.007829304 -0.04589054 0.006205561
v -0.01109347 0.04490001 0.003435576
v -0.009029298 0.04646501 0.005183723
v -0.007829309 0.04524721 0.00620558
v -0.01109346 -0.04489998 0.003435557
v -0.007829304 -0.04589054 0.006205561
v -0.00886423 -0.04663006 0.005324247
v 0.00784071 0.04524721 0.006205578
v 0.009040698 0.04646502 0.005183716
v 0.01109346 0.04490001 0.003435571
v 0.01109346 -0.04489998 0.003435552
v 0.00784071 -0.04589054 0.006205559
v 0.008875637 -0.04663006 0.005324237
v -0.007829304 -0.047665 0.0006655526
v -0.007829304 -0.047665 0.004090836
v 0.00784071 -0.047665 0.0006655502
v 0.00784071 -0.047665 0.004090833
v 0.002939463 -0.047665 -0.002094289
v 0.005648394 -0.04766499 -0.003489445
v -0.007829304 -0.047665 -0.002094287
v 0.0078407 -0.047665 -0.006205757
v 0.007043047 -0.047665 -0.006205757
v -0.007829304 -0.04589054 0.006205561
v 0.00784071 -0.04589054 0.006205559
v -0.007829304 -0.047665 0.004090836
v 0.00784071 -0.047665 0.004090833
v 0.008875637 -0.04663006 0.005324237
v -0.00886423 -0.04663006 0.005324247
v 0.008875637 -0.04663006 0.005324237
v 0.01109346 -0.04489998 0.003435552
v 0.00784071 -0.047665 0.004090833
v 0.00784071 -0.047665 0.0006655502
v -0.00886423 -0.04663006 0.005324247
v -0.007829304 -0.047665 0.004090836
v -0.01109346 -0.04489998 0.003435557
v -0.007829304 -0.047665 0.0006655526
v -0.007829309 0.04524721 0.00620558
v -0.009029298 0.04646501 0.005183723
v -0.007829309 0.04766499 0.004176812
v 0.00784071 0.04524721 0.006205578
v 0.00784071 0.04766499 0.00417681
v 0.009040698 0.04646502 0.005183716
v 0.00784071 0.04766501 0.0006655717
v 0.01109346 0.04490001 0.003435571
v 0.00784071 0.04766499 0.00417681
v 0.009040698 0.04646502 0.005183716
v 0.00784071 0.04766499 0.00417681
v -0.007829309 0.04766499 0.004176812
v 0.00784071 0.04766501 0.0006655717
v -0.007829309 0.047665 0.0006655788
v 0.002939424 0.04766499 -0.002094268
v 0.005648355 0.047665 -0.003489424
v 0.0078407 0.04766499 -0.006205735
v 0.007043047 0.04766499 -0.006205735
v -0.007829309 0.04766499 -0.002094265
v -0.007829309 0.047665 0.0006655788
v -0.007829309 0.04766499 0.004176812
v -0.01109347 0.04490001 0.003435576
v -0.009029298 0.04646501 0.005183723
v 0.00784071 -0.047665 0.0006655502
v 0.00784071 0.04766501 0.0006655717
v 0.0078407 -0.047665 -0.006205757
v 0.0078407 0.04766499 -0.006205735
v -0.007829309 0.047665 0.0006655788
v -0.007829304 -0.047665 0.0006655526
v -0.007829309 0.04766499 -0.002094265
v -0.007829304 -0.047665 -0.002094287
v 0.00784071 -0.047665 0.0006655502
v 0.01109346 -0.04489998 0.003435552
v 0.00784071 0.04766501 0.0006655717
v 0.01109346 0.04490001 0.003435571
v -0.01109346 -0.04489998 0.003435557
v -0.007829304 -0.047665 0.0006655526
v -0.01109347 0.04490001 0.003435576
v -0.007829309 0.047665 0.0006655788
vt 0.9916939 0.006959841
vt 0.005145937 0.006959662
vt 0.9916939 0.01521456
vt 0.005145937 0.01521438
vt 0.9919291 0.1172638
vt 0.005380213 0.1171983
vt 0.991927 0.1487975
vt 0.005378217 0.148732
vt 0.005382419 0.08559904
vt 0.9919312 0.08566459
vt 0.9919195 0.2602409
vt 0.005370796 0.2601753
vt 0.9889926 0.5274974
vt 0.01323809 0.5274972
vt 0.9889926 0.6952662
vt 0.01323809 0.695266
vt 0.02882042 0.7234437
vt 0.01246198 0.7517175
vt 0.02519121 0.7681921
vt 0.9674628 0.723444
vt 0.9778166 0.7681925
vt 0.9855464 0.7539839
vt 0.02476443 0.792597
vt 0.01203518 0.8090715
vt 0.0283934 0.8372546
vt 0.967037 0.8372564
vt 0.9773908 0.7925987
vt 0.9851207 0.8068075
vt 0.4179105 0.9057036
vt 0.4179105 0.8699005
vt 0.2541186 0.9057036
vt 0.2541184 0.8699005
vt 0.3053492 0.934551
vt 0.2770338 0.949134
vt 0.4179105 0.934551
vt 0.2541185 0.9775264
vt 0.262456 0.9775264
vt 0.6444724 0.8717378
vt 0.4806805 0.8717656
vt 0.6444771 0.9005929
vt 0.4806853 0.9006207
vt 0.4698646 0.8837929
vt 0.6552922 0.8837614
vt 0.8632463 0.907042
vt 0.8781645 0.8749373
vt 0.8435045 0.9038414
vt 0.8250178 0.873195
vt 0.7419119 0.9067137
vt 0.7617449 0.9041404
vt 0.7279469 0.8740987
vt 0.7811973 0.8740987
vt 0.6396011 0.9702296
vt 0.6521445 0.9536132
vt 0.6396019 0.9372392
vt 0.4758089 0.9702255
vt 0.4758098 0.9372351
vt 0.4632663 0.9536084
vt 0.8132156 0.9681888
vt 0.8663791 0.9681888
vt 0.8331811 0.937418
vt 0.8537819 0.9381559
vt 0.1950332 0.8675417
vt 0.03124113 0.8675418
vt 0.1950332 0.9042434
vt 0.03124125 0.9042434
vt 0.1438025 0.9330908
vt 0.1721178 0.9476737
vt 0.1950332 0.9760662
vt 0.1866957 0.9760662
vt 0.03124125 0.9330908
vt 0.7258292 0.9365594
vt 0.7458892 0.9672679
vt 0.7790676 0.9363455
vt 0.7664874 0.9664702
vt 0.005254477 0.35339
vt 0.9918034 0.3533905
vt 0.005254507 0.2822805
vt 0.9918033 0.2822809
vt 0.005146384 0.06331942
vt 0.9916947 0.06331939
vt 0.005146474 0.03475848
vt 0.9916947 0.03475846
vt 0.9887819 0.4238385
vt 0.9603481 0.3799037
vt 0.008464517 0.4238385
vt 0.03689802 0.3799038
vt 0.03639975 0.4533125
vt 0.007966043 0.4973368
vt 0.9598492 0.4533125
vt 0.9882826 0.4973367
vn 0 2.250883E-07 -1
vn 0 2.250884E-07 -1
vn 0 2.250884E-07 -1
vn 0 2.250883E-07 -1
vn -0.7075495 0 -0.7066638
vn -0.7075456 -1.243028E-07 -0.7066677
vn -0.235561 1.244906E-07 -0.9718596
vn -0.2355614 1.243803E-07 -0.9718595
vn -0.8895899 -2.461393E-07 -0.4567601
vn -0.8895949 1.028092E-07 -0.4567504
vn -2.213983E-07 2.250883E-07 -1
vn -2.213989E-07 2.250883E-07 -1
vn 1.521495E-07 -2.092819E-07 1
vn 1.521496E-07 -2.09282E-07 1
vn 1.521495E-07 -2.092819E-07 1
vn 1.521496E-07 -2.09282E-07 1
vn -0.6470598 0.0004235868 0.7624391
vn -0.6471561 0.00200156 0.7623549
vn -0.6470745 0.0006633652 0.7624265
vn -0.6470907 -0.0003234828 0.762413
vn -0.6471706 -0.0007771503 0.7623448
vn -0.6474229 -0.002215592 0.7621278
vn 0.6483496 -6.594777E-06 0.7613427
vn 0.6483489 -1.956519E-05 0.7613434
vn 0.6483498 -4.277807E-06 0.7613426
vn 0.6483499 9.52087E-07 0.7613425
vn 0.6483496 2.507659E-06 0.7613427
vn 0.6483487 7.440628E-06 0.7613435
vn 0 -1 0
vn 0 -1 0
vn -6.744517E-07 -1 -1.190025E-06
vn 0 -1 0
vn 1.004896E-06 -1 -1.784612E-06
vn -3.026628E-06 -1 -2.361734E-06
vn 0 -1 0
vn -3.761055E-06 -1 3.986325E-06
vn 0 -1 7.021834E-06
vn 1.787716E-06 -0.7660448 0.6427873
vn -2.461936E-07 -0.7660448 0.6427873
vn 1.514617E-06 -0.7660448 0.6427873
vn -1.913453E-07 -0.7660447 0.6427873
vn -9.77939E-07 -0.7660447 0.6427873
vn 5.411262E-06 -0.7660447 0.6427873
vn 0.6549597 -0.7513241 0.08086931
vn 0.6509343 -0.7585202 0.03052285
vn 0.6509277 -0.7585285 0.03045505
vn 0.6476736 -0.7619179 0
vn -0.653751 -0.7521873 0.08260722
vn -0.6496722 -0.759578 0.03110279
vn -0.6496781 -0.7595705 0.03116414
vn -0.6463568 -0.7630352 0
vn 1.000384E-06 0.6427889 0.7660434
vn 3.147522E-06 0.6427889 0.7660434
vn 1.007239E-06 0.6427889 0.7660434
vn -1.437565E-06 0.6427889 0.7660434
vn -1.44963E-06 0.6427889 0.7660434
vn -5.213082E-06 0.6427889 0.7660434
vn 0.6476676 0.761923 4.138861E-06
vn 0.652224 0.7570677 0.03811027
vn 0.6519307 0.7574522 0.03538873
vn 0.6578575 0.7458141 0.104809
vn 0 1 5.432126E-06
vn -5.231914E-07 1 3.097216E-06
vn -6.750772E-07 1 1.082058E-06
vn -3.529009E-07 1 -5.593763E-07
vn -1.41052E-06 1 -4.166427E-06
vn -1.07495E-06 1 -1.7942E-06
vn 3.937348E-07 1 -3.193132E-06
vn 0 1 -3.510917E-06
vn 0 1 -3.455537E-06
vn -0.646352 0.7630394 2.072466E-06
vn -0.6506952 0.7584784 0.03614188
vn -0.6509917 0.758087 0.03890748
vn -0.6566805 0.7465296 0.107071
vn 1 0 -1.387908E-06
vn 1 0 -1.387908E-06
vn 1 0 -1.387908E-06
vn 1 0 -1.387908E-06
vn -1 0 0
vn -1 0 0
vn -1 0 0
vn -1 0 0
vn 0.6483494 1.713694E-07 -0.7613429
vn 0.6483494 1.711617E-07 -0.7613429
vn 0.6483492 1.621562E-07 -0.7613431
vn 0.6483491 1.61709E-07 -0.7613431
vn -0.6470336 1.275891E-07 -0.7624615
vn -0.6470336 1.298971E-07 -0.7624615
vn -0.6470329 1.763216E-07 -0.7624621
vn -0.6470327 1.773951E-07 -0.7624621
g mount_mp9_bt_mp9_side_rail_LOD1_0
f 3/3/3 2/2/2 1/1/1
f 3/3/3 4/4/4 2/2/2
f 7/7/7 6/6/6 5/5/5
f 7/7/7 8/8/8 6/6/6
f 5/5/5 6/6/6 9/9/9
f 5/5/5 9/9/9 10/10/10
f 11/11/11 8/8/8 7/7/7
f 11/11/11 12/12/12 8/8/8
f 15/15/15 14/14/14 13/13/13
f 15/15/15 16/16/16 14/14/14
f 19/19/19 18/18/18 17/17/17
f 20/20/20 19/19/19 17/17/17
f 20/20/20 21/21/21 19/19/19
f 20/20/20 22/22/22 21/21/21
f 25/25/25 24/24/24 23/23/23
f 26/26/26 25/25/25 23/23/23
f 26/26/26 23/23/23 27/27/27
f 27/27/27 28/28/28 26/26/26
f 31/31/31 30/30/30 29/29/29
f 31/31/31 32/32/32 30/30/30
f 29/29/29 33/33/33 31/31/31
f 33/33/33 34/34/34 31/31/31
f 29/29/29 35/35/35 33/33/33
f 34/34/34 36/36/36 31/31/31
f 34/34/34 37/37/37 36/36/36
f 40/40/40 39/39/39 38/38/38
f 40/40/40 41/41/41 39/39/39
f 41/41/41 42/42/42 39/39/39
f 43/43/43 40/40/40 38/38/38
f 46/46/46 45/45/45 44/44/44
f 46/46/46 47/47/47 45/45/45
f 50/50/50 49/49/49 48/48/48
f 50/50/50 51/51/51 49/49/49
f 54/54/54 53/53/53 52/52/52
f 55/55/55 54/54/54 52/52/52
f 55/55/55 56/56/56 54/54/54
f 55/55/55 57/57/57 56/56/56
f 60/60/60 59/59/59 58/58/58
f 60/60/60 61/61/61 59/59/59
f 64/64/64 63/63/63 62/62/62
f 64/64/64 65/65/65 63/63/63
f 66/66/66 65/65/65 64/64/64
f 66/66/66 64/64/64 67/67/67
f 68/68/68 67/67/67 64/64/64
f 68/68/68 69/69/69 67/67/67
f 66/66/66 70/70/70 65/65/65
f 73/73/73 72/72/72 71/71/71
f 73/73/73 74/74/74 72/72/72
f 77/77/77 76/76/76 75/75/75
f 77/77/77 78/78/78 76/76/76
f 81/81/81 80/80/80 79/79/79
f 81/81/81 82/82/82 80/80/80
f 85/85/85 84/84/84 83/83/83
f 85/85/85 86/86/86 84/84/84
f 89/89/89 88/88/88 87/87/87
f 89/89/89 90/90/90 88/88/88
