g mount_rpk16_izhmash_rpk16_side_rail_LOD1
v -0.008038678 0.02614194 0.009153023
v 0.007825465 0.02614194 0.009153023
v 0.007825474 -0.02614195 0.009153019
v -0.008038669 -0.02614195 0.009153019
v 0.007825465 0.02614194 0.009153023
v 0.01078392 0.02614195 0.006023074
v 0.01078392 -0.02614195 0.006023069
v 0.007825474 -0.02614195 0.009153019
v 0.01078392 0.02614195 0.006023074
v 0.00791122 0.02614195 0.003236133
v 0.007911229 -0.02614195 0.003236128
v 0.01078392 -0.02614195 0.006023069
v 0.00791122 0.02614195 0.003236133
v 0.00791122 0.02614195 -0.00062271
v 0.00791123 -0.02614195 -0.0006227148
v 0.007911229 -0.02614195 0.003236128
v 0.00791122 0.02614195 -0.00062271
v -0.008124412 0.02614194 -0.00062271
v -0.008124403 -0.02614195 -0.0006227148
v 0.00791123 -0.02614195 -0.0006227148
v -0.008124412 0.02614194 -0.00062271
v -0.008124413 0.02614194 0.003150378
v -0.008124404 -0.02614195 0.003150374
v -0.008124403 -0.02614195 -0.0006227148
v -0.008124413 0.02614194 0.003150378
v -0.01104001 0.02614194 0.006065952
v -0.01104 -0.02614196 0.006065947
v -0.008124404 -0.02614195 0.003150374
v -0.01104001 0.02614194 0.006065952
v -0.008038678 0.02614194 0.009153023
v -0.008038669 -0.02614195 0.009153019
v -0.01104 -0.02614196 0.006065947
v 0.007825465 0.02614194 0.009153023
v 0.00791122 0.02614195 0.003236133
v 0.01078392 0.02614195 0.006023074
v -0.008124413 0.02614194 0.003150378
v 0.00791122 0.02614195 -0.00062271
v -0.008124412 0.02614194 -0.00062271
v -0.008038678 0.02614194 0.009153023
v -0.01104001 0.02614194 0.006065952
v 0.007825474 -0.02614195 0.009153019
v 0.007911229 -0.02614195 0.003236128
v -0.008124404 -0.02614195 0.003150374
v -0.008038669 -0.02614195 0.009153019
v -0.01104 -0.02614196 0.006065947
v 0.01078392 -0.02614195 0.006023069
v 0.00791123 -0.02614195 -0.0006227148
v -0.008124403 -0.02614195 -0.0006227148
vt 0.2012278 0.01604578
vt 0.4417478 0.01604578
vt 0.4417478 0.8087344
vt 0.2012278 0.8087344
vt 0.4417478 0.01604578
vt 0.5070451 0.01604578
vt 0.5070451 0.8087344
vt 0.4417478 0.8087344
vt 0.5070451 0.01604578
vt 0.567727 0.01604578
vt 0.567727 0.8087344
vt 0.5070451 0.8087344
vt 0.567727 0.01604578
vt 0.6262318 0.01604578
vt 0.6262318 0.8087344
vt 0.567727 0.8087344
vt 0.7374717 0.01756959
vt 0.9805917 0.01756959
vt 0.9805917 0.8102582
vt 0.7374717 0.8102582
vt 0.01623156 0.01604578
vt 0.07343639 0.01604578
vt 0.07343639 0.8087344
vt 0.01623156 0.8087344
vt 0.07343639 0.01604578
vt 0.13595 0.01604578
vt 0.13595 0.8087344
vt 0.07343639 0.8087344
vt 0.13595 0.01604578
vt 0.2012278 0.01604578
vt 0.2012278 0.8087344
vt 0.13595 0.8087344
vt 0.9321655 0.9862477
vt 0.9334657 0.8965403
vt 0.9770193 0.9387937
vt 0.6903456 0.8952402
vt 0.9334657 0.8380354
vt 0.6903456 0.8380355
vt 0.6916455 0.9862477
vt 0.6461416 0.9394439
vt 0.06227174 0.9805732
vt 0.06097152 0.8908659
vt 0.3040916 0.8895658
vt 0.3027919 0.9805732
vt 0.3482956 0.9337694
vt 0.01741805 0.9331194
vt 0.06097152 0.832361
vt 0.3040916 0.832361
vn 0 0 1
vn 0 0 1
vn 0 0 1
vn 0 0 1
vn 0.7267364 0 0.6869165
vn 0.7267364 0 0.6869166
vn 0.7267364 0 0.6869165
vn 0.7267364 0 0.6869166
vn 0.6963129 1.887012E-07 -0.7177384
vn 0.6963128 1.887011E-07 -0.7177384
vn 0.6963129 1.887012E-07 -0.7177384
vn 0.6963128 1.887011E-07 -0.7177384
vn 1 1.710029E-07 1.544625E-07
vn 1 1.710029E-07 1.544625E-07
vn 1 1.710029E-07 1.544625E-07
vn 1 1.710029E-07 1.544625E-07
vn 0 0 -1
vn 0 0 -1
vn 0 0 -1
vn 0 0 -1
vn -1 -1.710029E-07 -1.579731E-07
vn -1 -1.710029E-07 -1.579731E-07
vn -1 -1.710029E-07 -1.579731E-07
vn -1 -1.710029E-07 -1.579731E-07
vn -0.7071044 0 -0.7071091
vn -0.7071044 0 -0.7071091
vn -0.7071044 0 -0.7071091
vn -0.7071044 0 -0.7071091
vn -0.7169942 -1.894813E-07 0.6970791
vn -0.7169942 -1.894814E-07 0.6970791
vn -0.7169942 -1.894813E-07 0.6970791
vn -0.7169942 -1.894814E-07 0.6970791
vn -2.760404E-07 1 2.629818E-07
vn -2.868217E-07 1 1.613919E-07
vn -3.854968E-07 1 3.973586E-07
vn -3.723056E-07 1 0
vn -2.97361E-07 1 0
vn -2.97361E-07 1 0
vn -4.127022E-07 1 1.390922E-07
vn -8.062214E-07 1 0
vn 2.760403E-07 -1 -2.629818E-07
vn 2.868217E-07 -1 -1.61392E-07
vn 3.723056E-07 -1 0
vn 4.127022E-07 -1 -1.390922E-07
vn 8.062215E-07 -1 0
vn 3.854968E-07 -1 -3.973586E-07
vn 2.97361E-07 -1 0
vn 2.97361E-07 -1 0
g mount_rpk16_izhmash_rpk16_side_rail_LOD1_0
f 3/3/3 2/2/2 1/1/1
f 4/4/4 3/3/3 1/1/1
f 7/7/7 6/6/6 5/5/5
f 8/8/8 7/7/7 5/5/5
f 11/11/11 10/10/10 9/9/9
f 12/12/12 11/11/11 9/9/9
f 15/15/15 14/14/14 13/13/13
f 16/16/16 15/15/15 13/13/13
f 19/19/19 18/18/18 17/17/17
f 20/20/20 19/19/19 17/17/17
f 23/23/23 22/22/22 21/21/21
f 24/24/24 23/23/23 21/21/21
f 27/27/27 26/26/26 25/25/25
f 28/28/28 27/27/27 25/25/25
f 31/31/31 30/30/30 29/29/29
f 32/32/32 31/31/31 29/29/29
f 35/35/35 34/34/34 33/33/33
f 34/34/34 36/36/36 33/33/33
f 34/34/34 37/37/37 36/36/36
f 37/37/37 38/38/38 36/36/36
f 36/36/36 39/39/39 33/33/33
f 36/36/36 40/40/40 39/39/39
f 43/43/43 42/42/42 41/41/41
f 44/44/44 43/43/43 41/41/41
f 44/44/44 45/45/45 43/43/43
f 42/42/42 46/46/46 41/41/41
f 47/47/47 42/42/42 43/43/43
f 48/48/48 47/47/47 43/43/43
