g mount_keymod_strike_industries_4_inch_rail_section_LOD1
v 0.01021699 0.03886165 0.005694809
v 0.007804469 0.03886165 0.00279934
v 0.007804459 -0.04597086 0.002799354
v 0.01021698 -0.04600238 0.005694828
v 0.01021698 -0.04600238 0.005694828
v 0.007804459 -0.04597086 0.002799354
v -0.00778021 -0.04597086 0.002799344
v -0.01074293 -0.04600238 0.005694824
v -0.00803382 -0.0460339 0.008698573
v 0.007507866 -0.0460339 0.008698578
v 0.007804459 -0.04597086 -0.0001679368
v -0.00778021 -0.04597086 -0.0001679416
v 0.007507866 -0.0460339 0.008698578
v -0.00803382 -0.0460339 0.008698573
v -0.00803382 0.03886167 0.008698569
v 0.007507876 0.03886165 0.008698569
v 0.007507876 0.03886165 0.008698569
v 0.01021699 0.03886165 0.005694809
v 0.01021698 -0.04600238 0.005694828
v 0.007507866 -0.0460339 0.008698578
v -0.00778021 -0.04597086 0.002799344
v -0.0077802 0.03886167 0.00279934
v -0.01074292 0.03886167 0.005694819
v -0.01074293 -0.04600238 0.005694824
v -0.01074293 -0.04600238 0.005694824
v -0.01074292 0.03886167 0.005694819
v -0.00803382 0.03886167 0.008698569
v -0.00803382 -0.0460339 0.008698573
v -0.01074292 0.03886167 0.005694819
v -0.0077802 0.03886167 0.00279934
v 0.007804469 0.03886165 0.00279934
v 0.01021699 0.03886165 0.005694809
v 0.007507876 0.03886165 0.008698569
v -0.00803382 0.03886167 0.008698569
v -0.0077802 0.03886167 -0.0001679511
v 0.007804473 0.03886165 -0.0001679511
v 0.007804459 -0.04597086 0.002799354
v 0.007804469 0.03886165 0.00279934
v 0.007804473 0.03886165 -0.0001679511
v 0.007804459 -0.04597086 -0.0001679368
v -0.0077802 0.03886167 0.00279934
v -0.00778021 -0.04597086 0.002799344
v -0.00778021 -0.04597086 -0.0001679416
v -0.0077802 0.03886167 -0.0001679511
v 0.007804459 -0.04597086 -0.0001679368
v 0.007804473 0.03886165 -0.0001679511
v -0.0077802 0.03886167 -0.0001679511
v -0.00778021 -0.04597086 -0.0001679416
vt 0.5008482 0.6138953
vt 0.5008482 0.5645767
vt 0.9879446 0.5645763
vt 0.9881256 0.6138953
vt 0.3710518 0.8349447
vt 0.388734 0.8003811
vt 0.4784628 0.8003812
vt 0.4961447 0.8349448
vt 0.4799763 0.8708009
vt 0.3872204 0.8708008
vt 0.388734 0.7649644
vt 0.4784628 0.7649645
vt 0.9883066 0.6620514
vt 0.9883066 0.8470765
vt 0.500848 0.8470761
vt 0.5008482 0.6620509
vt 0.5008482 0.6620509
vt 0.5008482 0.6138953
vt 0.9881256 0.6138953
vt 0.9883066 0.6620514
vt 0.9879446 0.9445499
vt 0.500848 0.9445502
vt 0.500848 0.8952318
vt 0.9881256 0.8952318
vt 0.9881256 0.8952318
vt 0.500848 0.8952318
vt 0.500848 0.8470761
vt 0.9883066 0.8470765
vt 0.1369349 0.8303079
vt 0.1546169 0.7957466
vt 0.2443449 0.7957467
vt 0.2620269 0.8303077
vt 0.2458584 0.8661612
vt 0.1531033 0.8661613
vt 0.1546169 0.7603282
vt 0.2443449 0.7603278
vt 0.9879446 0.5645763
vt 0.5008482 0.5645767
vt 0.5008482 0.529251
vt 0.9879446 0.5292504
vt 0.500848 0.9445502
vt 0.9879446 0.9445499
vt 0.9879446 0.9798757
vt 0.500848 0.9798761
vt 0.4865764 0.7007363
vt 0.01480303 0.7007369
vt 0.01480284 0.5335167
vt 0.4865764 0.5335163
vn 0.7682701 -2.12023E-07 -0.6401259
vn 0.7682701 -2.12023E-07 -0.6401258
vn 0.7682701 -2.12023E-07 -0.6401258
vn 0.7682701 -2.12023E-07 -0.6401258
vn 0 -0.9999429 -0.01069326
vn 0 -0.9999408 -0.01088493
vn 0 -0.9999408 -0.01088493
vn 0 -0.999943 -0.0106811
vn 0 -0.9999449 -0.01049262
vn 0 -0.9999449 -0.01049262
vn 0 -1 0
vn 0 -1 0
vn -1.534058E-07 0 1
vn -1.534058E-07 0 1
vn -1.534058E-07 0 1
vn -1.534058E-07 0 1
vn 0.742589 0 0.6697474
vn 0.742589 0 0.6697474
vn 0.742589 0 0.6697474
vn 0.7425891 0 0.6697474
vn -0.6989442 0 -0.7151762
vn -0.6989442 0 -0.7151762
vn -0.6989442 0 -0.7151762
vn -0.6989442 0 -0.7151762
vn -0.7425891 0 0.6697474
vn -0.7425891 0 0.6697474
vn -0.7425891 0 0.6697474
vn -0.7425891 0 0.6697474
vn 1.043848E-06 1 0
vn 1.043848E-06 1 0
vn 1.043848E-06 1 0
vn 1.043848E-06 1 0
vn 1.045077E-06 1 0
vn 1.045077E-06 1 0
vn 1.223862E-06 1 0
vn 1.223862E-06 1 0
vn 1 -1.40523E-07 8.034891E-07
vn 1 -1.40523E-07 8.034892E-07
vn 1 -1.40523E-07 8.034891E-07
vn 1 -1.40523E-07 8.034892E-07
vn -1 1.124185E-07 0
vn -1 1.124185E-07 0
vn -1 1.124185E-07 0
vn -1 1.124185E-07 0
vn 1.529827E-07 -1.405232E-07 -1
vn 1.529827E-07 -1.405231E-07 -1
vn 1.529827E-07 -1.405231E-07 -1
vn 1.529827E-07 -1.405231E-07 -1
g mount_keymod_strike_industries_4_inch_rail_section_LOD1_0
f 3/3/3 2/2/2 1/1/1
f 4/4/4 3/3/3 1/1/1
f 7/7/7 6/6/6 5/5/5
f 8/8/8 7/7/7 5/5/5
f 9/9/9 8/8/8 5/5/5
f 10/10/10 9/9/9 5/5/5
f 11/11/11 6/6/6 7/7/7
f 12/12/12 11/11/11 7/7/7
f 15/15/15 14/14/14 13/13/13
f 16/16/16 15/15/15 13/13/13
f 19/19/19 18/18/18 17/17/17
f 20/20/20 19/19/19 17/17/17
f 23/23/23 22/22/22 21/21/21
f 24/24/24 23/23/23 21/21/21
f 27/27/27 26/26/26 25/25/25
f 28/28/28 27/27/27 25/25/25
f 31/31/31 30/30/30 29/29/29
f 32/32/32 31/31/31 29/29/29
f 32/32/32 29/29/29 33/33/33
f 29/29/29 34/34/34 33/33/33
f 35/35/35 30/30/30 31/31/31
f 36/36/36 35/35/35 31/31/31
f 39/39/39 38/38/38 37/37/37
f 40/40/40 39/39/39 37/37/37
f 43/43/43 42/42/42 41/41/41
f 44/44/44 43/43/43 41/41/41
f 47/47/47 46/46/46 45/45/45
f 48/48/48 47/47/47 45/45/45
