g stock_ak74m_izhmash_ak74m_std_LOD1
v -0.026135 0.02535008 -0.005682096
v -0.026135 0.03427108 -0.00100602
v -0.0328178 0.03399604 -0.0004946571
v -0.0328178 0.02507445 -0.005161852
v -0.026135 0.02227441 0.0001342922
v -0.026135 0.02535008 -0.005682096
v -0.0328178 0.02507445 -0.005161852
v -0.0328178 0.02255002 -0.0003859538
v -0.026135 0.03120175 0.004710571
v -0.026135 0.02227441 0.0001342922
v -0.0328178 0.02255002 -0.0003859538
v -0.0328178 0.03147681 0.004199209
v -0.026135 0.03427108 -0.00100602
v -0.026135 0.03120175 0.004710571
v -0.0328178 0.03147681 0.004199209
v -0.0328178 0.03399604 -0.0004946571
v -0.0328178 0.03399604 -0.0004946571
v -0.0328178 0.03147681 0.004199209
v -0.0328178 0.02255002 -0.0003859538
v -0.0328178 0.02507445 -0.005161852
v 0.002797904 0.003737421 0.01335225
v 0.003086403 0.003542089 -0.01283081
v 0.004753103 0.0002143097 0.01328908
v 0.004959503 0.0001001167 -0.01292482
v 0.002486503 -0.003265171 0.0132334
v 0.002739503 -0.003414545 -0.01301034
v 0.002797904 0.003737421 0.01335225
v 0.004753103 0.0002143097 0.01328908
v 0.002486503 -0.003265171 0.0132334
v -0.003559696 0.00560852 0.01337872
v -0.02239126 -0.006536913 0.01315685
v -0.0259448 0.005609045 0.01335467
v -0.0258761 -0.003649654 0.01319732
v 0.004959503 0.0001001167 -0.01292482
v 0.003086403 0.003542089 -0.01283081
v 0.002739503 -0.003414545 -0.01301034
v -0.003698196 0.005534038 -0.01317608
v -0.02295237 -0.006616392 -0.01308316
v -0.02592389 0.004759779 -0.01307065
v -0.0259524 -0.003514748 -0.01308906
v -0.02295237 -0.006616392 -0.01308316
v -0.0259524 -0.003514748 -0.01308906
v -0.02239126 -0.006536913 0.01315685
v -0.0258761 -0.003649654 0.01319732
v 0.003086403 0.003542089 -0.01283081
v 0.002797904 0.003737421 0.01335225
v -0.003698196 0.005534038 -0.01317608
v -0.003559696 0.00560852 0.01337872
v -0.0259448 0.005609045 0.01335467
v -0.0258761 -0.003649654 0.01319732
v -0.02592389 0.004759779 -0.01307065
v -0.0259524 -0.003514748 -0.01308906
v 0.002739503 -0.003414545 -0.01301034
v -0.02295237 -0.006616392 -0.01308316
v 0.002486503 -0.003265171 0.0132334
v -0.02239126 -0.006536913 0.01315685
v -0.0280492 0.02195168 -0.02496008
v -0.0279433 0.01626195 -0.02232706
v -0.02826889 0.02223367 -0.0289341
v -0.0280998 0.0137059 -0.02572938
v -0.0281265 0.05280604 -0.009784258
v -0.0277757 0.01128654 -0.01786577
v -0.0279451 0.01553486 -0.01718475
v -0.0283384 0.05572867 -0.01306986
v -0.0280694 0.05321316 -0.00453029
v -0.02849589 0.05705604 -0.00316234
v -0.02832509 0.05182666 0.003022392
v -0.02834859 0.05026864 -0.0005223244
v -0.0283868 0.04203351 -0.001852682
v -0.0281824 0.04323121 0.00188985
v -0.0292809 0.0338701 0.0006341237
v -0.0287896 0.03165 0.004610941
v -0.027789 0.02070733 -0.0105886
v -0.027383 0.01764076 -0.008787738
v -0.0283409 0.02434594 -0.004043167
v -0.02786059 0.022758 -0.0003003699
v -0.009203047 0.2473243 -0.0300212
v -0.009203047 0.2466656 -0.01661828
v -0.009203047 0.2528113 -0.01767896
v -0.009203047 0.2546672 -0.03098385
v -0.02170935 0.2546672 -0.03098385
v -0.02170935 0.2528113 -0.01767896
v -0.02170935 0.2466656 -0.01661828
v -0.02170935 0.2473243 -0.0300212
v -0.02752429 0.02211137 -0.02494992
v -0.02752429 0.01601106 -0.02224232
v -0.02752429 0.02232505 -0.0288426
v -0.02752429 0.01360119 -0.02543824
v -0.02752429 0.04025792 -0.02024129
v -0.02752429 0.03459927 -0.01886784
v -0.02752429 0.0113091 -0.01799991
v -0.02752429 0.01530566 -0.01753522
v -0.02752429 0.02034598 -0.01097222
v -0.02752429 0.01743677 -0.009077682
v -0.02752429 0.02417222 -0.004667163
v -0.02752429 0.02266099 -0.0009486419
v -0.0154562 0.07782218 0.0201825
v -0.005346536 0.03405791 0.02241634
v -0.0255659 0.03405791 0.02241634
v -0.02229131 0.005421839 0.02186929
v -0.006453096 0.005421839 0.02186929
v -0.02704709 0.07441079 0.01467991
v -0.003865297 0.07441079 0.01467991
v -0.003512796 0.005561991 0.01966722
v -0.0259918 0.005561991 0.01966722
v -0.009203047 0.2546672 -0.03098385
v -0.02170935 0.2546672 -0.03098385
v -0.02170935 0.2473243 -0.0300212
v -0.009203047 0.2473243 -0.0300212
v -0.009203047 0.2528113 -0.01767896
v -0.02170935 0.2528113 -0.01767896
v -0.02170935 0.2546672 -0.03098385
v -0.009203047 0.2546672 -0.03098385
v -0.009203047 0.2466656 -0.01661828
v -0.02170935 0.2466656 -0.01661828
v -0.02170935 0.2528113 -0.01767896
v -0.009203047 0.2528113 -0.01767896
v -0.02704709 0.07441079 0.01467991
v -0.0248962 0.1034249 0.02051243
v -0.0154562 0.07782218 0.0201825
v -0.0154562 0.1035079 0.02637197
v -0.006016166 0.1033245 0.02209082
v -0.003865297 0.07441079 0.01467991
v -0.003535997 0.2472035 0.03031603
v 0.0004220033 0.245408 0.00731277
v -0.005002736 0.2421429 0.03299901
v -0.0154562 0.2484141 0.03648563
v -0.01535421 0.2431245 0.03670547
v -0.025671 0.2421429 0.03299901
v -0.0273764 0.2472035 0.03031603
v -0.0294493 0.245408 0.00731277
v -0.01535421 0.2431245 0.03670547
v -0.0248962 0.1034249 0.02051243
v -0.025671 0.2421429 0.03299901
v -0.0154562 0.1035079 0.02637197
v -0.006016166 0.1033245 0.02209082
v -0.005002736 0.2421429 0.03299901
v -0.0154562 0.2429133 -0.06446923
v -0.006018156 0.2532365 -0.06134052
v -0.02489419 0.2532365 -0.06134052
v -0.003743197 0.006464987 -0.02182031
v -0.009088026 0.1158915 -0.03478574
v -0.01732467 0.1158915 -0.03478574
v -0.0257614 0.006464987 -0.02182031
v -0.0154562 0.2429133 -0.06446923
v -0.0259918 0.005561991 0.01966722
v -0.02229131 0.005421839 0.02186929
v -0.006453096 0.005421839 0.02186929
v -0.003512796 0.005561991 0.01966722
v -0.0259448 0.005609045 0.01335467
v -0.003559696 0.00560852 0.01337872
v -0.003698196 0.005534038 -0.01317608
v -0.003743197 0.006464987 -0.02182031
v -0.0257614 0.006464987 -0.02182031
v -0.02592389 0.004759779 -0.01307065
v -0.003865297 0.07441079 0.01467991
v 0.0004220033 0.245408 0.00731277
v -0.003743197 0.006464987 -0.02182031
v -0.005002736 0.2421429 0.03299901
v -0.006016166 0.1033245 0.02209082
v -0.001727697 0.1174702 -0.01930211
v -0.003283496 0.1161162 -0.03258663
v -0.006018156 0.2532365 -0.06134052
v 0.0006969034 0.2476224 -0.03059703
v -0.009088026 0.1158915 -0.03478574
v -0.0154562 0.2429133 -0.06446923
v -0.003698196 0.005534038 -0.01317608
v -0.003559696 0.00560852 0.01337872
v -0.003512796 0.005561991 0.01966722
v -0.025671 0.2421429 0.03299901
v -0.02704709 0.07441079 0.01467991
v -0.0294493 0.245408 0.00731277
v -0.0248962 0.1034249 0.02051243
v -0.0257614 0.006464987 -0.02182031
v -0.02592389 0.004759779 -0.01307065
v -0.0259448 0.005609045 0.01335467
v -0.0259918 0.005561991 0.01966722
v -0.0278095 0.1174702 -0.01930211
v -0.02538159 0.1157873 -0.02741829
v -0.02489419 0.2532365 -0.06134052
v -0.0302733 0.2476224 -0.03059703
v -0.01732467 0.1158915 -0.03478574
v -0.0154562 0.2429133 -0.06446923
v -0.003535997 0.2472035 0.03031603
v -0.0154562 0.2484141 0.03648563
v -0.0273764 0.2472035 0.03031603
v 0.0004220033 0.245408 0.00731277
v -0.0294493 0.245408 0.00731277
v 0.0006969034 0.2476224 -0.03059703
v -0.0302733 0.2476224 -0.03059703
v -0.02489419 0.2532365 -0.06134052
v -0.006018156 0.2532365 -0.06134052
vt 0.954915 0.517871
vt 0.954915 0.56133
vt 0.925973 0.561305
vt 0.92597 0.517862
vt 0.72266 0.489339
vt 0.746209 0.489339
vt 0.746209 0.515709
vt 0.72266 0.515709
vt 0.890689 0.571966
vt 0.890686 0.528672
vt 0.919638 0.528702
vt 0.919638 0.572012
vt 0.777443 0.51431
vt 0.753907 0.51431
vt 0.753907 0.487588
vt 0.777443 0.487588
vt 0.794668 0.420136
vt 0.767489 0.420136
vt 0.767489 0.369212
vt 0.794668 0.369212
vt 0.795455 0.42998
vt 0.718686 0.42998
vt 0.795455 0.45213
vt 0.718686 0.45213
vt 0.795455 0.475425
vt 0.718686 0.475425
vt 0.914958 0.373835
vt 0.939983 0.379519
vt 0.964685 0.37267
vt 0.907702 0.351957
vt 0.985033 0.304922
vt 0.9077 0.295654
vt 0.965753 0.295651
vt 0.933483 0.5775
vt 0.908618 0.582729
vt 0.958867 0.583705
vt 0.901719 0.603611
vt 0.976273 0.648103
vt 0.901719 0.656848
vt 0.955689 0.656822
vt 0.0287886 0.29164
vt 0.0417516 0.29164
vt 0.0287886 0.144994
vt 0.0417516 0.144994
vt 0.761322 0.420594
vt 0.761322 0.351234
vt 0.718686 0.420594
vt 0.718686 0.351234
vt 0.952676 0.174596
vt 0.979865 0.174596
vt 0.952676 0.0255623
vt 0.979865 0.0255623
vt 0.94318 0.172651
vt 0.94318 0.025
vt 0.863721 0.172651
vt 0.863721 0.025
vt 0.881805 0.553983
vt 0.881805 0.575243
vt 0.863721 0.542474
vt 0.863721 0.567704
vt 0.881805 0.405824
vt 0.863721 0.592941
vt 0.881805 0.594873
vt 0.863721 0.41745
vt 0.881805 0.384499
vt 0.863721 0.385649
vt 0.863721 0.35988
vt 0.881805 0.364342
vt 0.881805 0.329284
vt 0.863721 0.331262
vt 0.881805 0.297831
vt 0.863721 0.297831
vt 0.881805 0.63146
vt 0.863721 0.630119
vt 0.881805 0.660263
vt 0.863721 0.660263
vt 0.878146 0.669205
vt 0.878146 0.714295
vt 0.911377 0.714295
vt 0.911377 0.669205
vt 0.762711 0.273114
vt 0.762711 0.228024
vt 0.72948 0.228024
vt 0.72948 0.273114
vt 0.737329 0.155444
vt 0.737329 0.136101
vt 0.718686 0.153441
vt 0.718686 0.133158
vt 0.718686 0.20842
vt 0.737329 0.20842
vt 0.718686 0.11287
vt 0.737329 0.118241
vt 0.737329 0.0849543
vt 0.718686 0.0829818
vt 0.737329 0.0587483
vt 0.718686 0.0587483
vt 0.913671 0.722656
vt 0.868792 0.883141
vt 0.959837 0.882902
vt 0.970508 0.986191
vt 0.854641 0.986191
vt 0.98951 0.722656
vt 0.83832 0.722656
vt 0.83832 0.986191
vt 0.98951 0.986191
vt 0.0248688 0.0849971
vt 0.0248688 0.134492
vt 0.0548024 0.134492
vt 0.0548024 0.0849971
vt 0.775749 0.340732
vt 0.775749 0.291237
vt 0.718686 0.291237
vt 0.718686 0.340732
vt 0.0552879 0.0744948
vt 0.0552879 0.025
vt 0.0287886 0.025
vt 0.0287886 0.0744948
vt 0.981744 0.288467
vt 0.981744 0.181655
vt 0.923479 0.288467
vt 0.923479 0.181655
vt 0.865215 0.181655
vt 0.865215 0.288467
vt 0.985426 0.436263
vt 0.985426 0.34396
vt 0.963449 0.418989
vt 0.985426 0.485481
vt 0.963449 0.485398
vt 0.963449 0.55188
vt 0.985426 0.534738
vt 0.985426 0.626047
vt 0.0248688 0.938453
vt 0.477611 0.887458
vt 0.0248688 0.887458
vt 0.477611 0.93845
vt 0.477611 0.989444
vt 0.0248688 0.989444
vt 0.936597 0.714254
vt 0.988845 0.714254
vt 0.988845 0.650448
vt 0.742205 0.025
vt 0.792349 0.324715
vt 0.852093 0.324715
vt 0.852093 0.025
vt 0.852093 0.681813
vt 0.807763 0.536093
vt 0.792444 0.527376
vt 0.72692 0.527443
vt 0.714766 0.536188
vt 0.807597 0.561076
vt 0.714988 0.561076
vt 0.897706 0.490496
vt 0.938794 0.490496
vt 0.93934 0.390717
vt 0.897235 0.390299
vt 0.0641164 0.280207
vt 0.15644 0.879664
vt 0.22223 0.025
vt 0.0248688 0.879664
vt 0.0248688 0.383762
vt 0.262057 0.412961
vt 0.309996 0.399352
vt 0.444909 0.879664
vt 0.309968 0.879664
vt 0.339008 0.395847
vt 0.478144 0.837695
vt 0.191373 0.025
vt 0.0962855 0.025
vt 0.0641164 0.025
vt 0.709437 0.0287498
vt 0.692396 0.600381
vt 0.58429 0.0287498
vt 0.709437 0.501624
vt 0.521341 0.975966
vt 0.555552 0.975966
vt 0.657501 0.975966
vt 0.692396 0.975966
vt 0.483433 0.473779
vt 0.428402 0.486756
vt 0.309157 0.0287498
vt 0.437831 0.0287498
vt 0.384816 0.490096
vt 0.252221 0.068765
vt 0.826977 0.589354
vt 0.764992 0.567734
vt 0.703006 0.589354
vt 0.826977 0.68905
vt 0.703006 0.68905
vt 0.826977 0.850969
vt 0.703006 0.850969
vt 0.703006 0.988648
vt 0.826977 0.988648
vn -0.08715608 0.4621311 -0.8825184
vn -0.08715607 0.4621311 -0.8825184
vn -0.08715607 0.4621311 -0.8825184
vn -0.08715607 0.4621311 -0.8825184
vn 1.344578E-06 -0.8840492 -0.4673941
vn 1.344578E-06 -0.8840492 -0.467394
vn 1.344578E-06 -0.8840492 -0.4673941
vn 1.344578E-06 -0.8840492 -0.4673941
vn -0.08714756 -0.4547956 0.8863217
vn -0.08714756 -0.4547956 0.8863217
vn -0.08714756 -0.4547956 0.8863217
vn -0.08714757 -0.4547957 0.8863217
vn 1.254948E-06 0.8810738 0.4729788
vn 1.254948E-06 0.8810738 0.4729788
vn 1.254948E-06 0.8810738 0.4729788
vn 1.254948E-06 0.8810738 0.4729788
vn -1 0 0
vn -1 0 0
vn -1 0 0
vn -1 0 0
vn 0.8744068 0.4851563 0.006015328
vn 0.878027 0.4785855 0.004947179
vn 0.999543 -0.02896267 0.008661774
vn 0.9990314 -0.04302308 0.009225874
vn 0.8385531 -0.5447423 0.009195101
vn 0.8452898 -0.534191 0.01118944
vn -0.0002567903 -0.01695747 0.9998562
vn 0.00159718 -0.01703987 0.9998535
vn -0.0003697137 -0.01688322 0.9998574
vn -0.001000197 -0.01681582 0.9998581
vn -0.001057116 -0.01677892 0.9998586
vn -0.001057116 -0.01677892 0.9998586
vn -0.001057115 -0.01677892 0.9998586
vn -0.002536846 0.02592465 -0.9996606
vn 0.04354117 0.023604 -0.9987727
vn 0.01667672 0.009362477 -0.9998172
vn 0.01361499 -6.674515E-05 -0.9999074
vn 0.0001492598 -0.007104903 -0.9999747
vn 0.0001492598 -0.007104902 -0.9999747
vn 0.0001492598 -0.007104902 -0.9999747
vn -0.7186908 -0.6951102 0.01747398
vn -0.7103262 -0.7037052 0.01534932
vn -0.6467583 -0.762695 -6.83686E-05
vn -0.6380073 -0.7700275 -0.002100053
vn 0.2818954 0.9594365 -0.004051534
vn 0.2822475 0.9593326 -0.004144788
vn 0.2819634 0.9594166 -0.004069522
vn 0.2823169 0.9593121 -0.004163174
vn -0.9999725 -0.007410227 -0.0005527252
vn -0.9999858 -0.005321764 0.0001159002
vn -0.999997 0.001126768 0.002180355
vn -0.9999899 0.00343784 0.002920209
vn 0.1236462 -0.9923028 0.006839984
vn 0.126923 -0.9919059 0.00362195
vn 0.1270479 -0.9918904 0.003499234
vn 0.1303893 -0.9914628 0.0002148202
vn -0.998463 -0.01019659 0.0544752
vn -0.9992932 -0.004730367 0.03729209
vn -0.9985519 -0.01276525 0.05226061
vn -0.9989697 0.0007634874 0.0453771
vn -0.998755 -0.0412204 0.02809678
vn -0.9987436 -0.03581553 0.03505008
vn -0.9983247 -0.04553089 0.03570389
vn -0.9984803 -0.046698 0.0292664
vn -0.9967552 -0.07792944 -0.02015065
vn -0.9945443 -0.1007395 -0.02708014
vn -0.9999491 -0.007083801 -0.007192739
vn -0.9993883 0.0339714 -0.00830574
vn -0.9953536 0.05362942 0.07996952
vn -0.9963816 0.0293794 0.07975227
vn -0.9894326 0.1023272 0.1027247
vn -0.9894326 0.1023272 0.1027247
vn -0.9915958 -0.1165556 0.05614848
vn -0.9913735 -0.1158588 0.06128173
vn -0.9870487 -0.1585045 0.02472415
vn -0.9870487 -0.1585045 0.02472415
vn 1 0 0
vn 1 0 0
vn 1 0 0
vn 1 0 0
vn -1 0 0
vn -1 0 0
vn -1 0 0
vn -1 0 0
vn -1 0 0
vn -1 0 0
vn -1 0 0
vn -1 0 0
vn -1 0 0
vn -1 0 0
vn -1 0 0
vn -1 0 0
vn -1 0 0
vn -1 0 0
vn -1 0 0
vn -1 0 0
vn 0 0.1481757 0.988961
vn 0.569037 0.03164527 0.8217027
vn -0.6332958 0.01417962 0.7737799
vn -0.2457854 -0.04660193 0.9682034
vn 0.306604 -0.03002205 0.9513636
vn -0.506085 0.144443 0.8503024
vn 0.5011535 0.1451592 0.8530967
vn 0.6472188 -0.03182935 0.7616395
vn -0.577443 -0.06984521 0.8134379
vn 0 -0.1299854 -0.9915159
vn 0 -0.1299854 -0.9915159
vn 0 -0.1299854 -0.9915159
vn 0 -0.1299854 -0.9915159
vn 0 0.9904115 0.1381488
vn 0 0.9904115 0.1381488
vn 0 0.9904115 0.1381488
vn 0 0.9904115 0.1381488
vn 0 0.1700722 0.9854316
vn 0 0.1700722 0.9854316
vn 0 0.1700722 0.9854316
vn 0 0.1700722 0.9854316
vn -0.3863403 -0.1541664 0.9093812
vn -0.4823715 -0.188878 0.8553612
vn -0.02135202 -0.2021866 0.9791144
vn -0.06193328 -0.2338142 0.9703067
vn 0.3921333 -0.2121343 0.8951148
vn 0.3699467 -0.2047519 0.9062098
vn 0.8766206 0.001031639 0.481181
vn 0.9661389 -0.1842619 0.180619
vn 0.6875075 0.1200844 0.7161796
vn -0.004660886 0.1273036 0.9918528
vn 0.003918117 0.04159834 0.9991267
vn -0.7001032 0.07888371 0.7096711
vn -0.8958207 -0.06914133 0.4390041
vn -0.9579892 -0.2660591 0.107095
vn -0.003366148 -0.08560935 0.9963231
vn -0.5165334 -0.06369666 0.8538947
vn -0.329544 -0.08646943 0.9401721
vn -0.06502631 -0.07360803 0.9951651
vn 0.4069143 -0.06804804 0.9109282
vn 0.3296943 -0.07634923 0.9409955
vn 0 0.2900479 -0.9570121
vn 0 0.2900479 -0.9570121
vn 0 0.2900479 -0.9570121
vn 0 -0.1176623 -0.9930536
vn 0 -0.171175 -0.9852406
vn 0 -0.1713201 -0.9852154
vn 0 -0.1176623 -0.9930536
vn 0 -0.2275572 -0.9737647
vn -5.739118E-06 -0.9997626 -0.02178726
vn 0 -0.9979808 -0.06351692
vn 0 -0.9979808 -0.06351692
vn -5.463345E-06 -0.9997168 -0.02379497
vn -7.710649E-06 -0.9999725 -0.007426483
vn -7.710649E-06 -0.9999725 -0.007426483
vn 0.01694327 -0.9885845 -0.1497119
vn 0.01694327 -0.9885845 -0.1497119
vn 0.01694327 -0.9885845 -0.1497119
vn 0.01694327 -0.9885845 -0.1497119
vn 0.9979064 -0.01905708 0.06180173
vn 0.9949073 -0.01736396 0.0992864
vn 0.9995248 -0.006865576 -0.03004963
vn 0.97774 -0.01621685 0.2091919
vn 0.9079147 -0.03941887 0.4172973
vn 0.9973359 -0.0198809 -0.07018406
vn 0.7995629 -0.08817407 -0.5940745
vn 0.8377295 -0.1022886 -0.5364198
vn 0.9944268 -0.02314175 -0.102858
vn 0.3971958 -0.1388276 -0.9071727
vn 0.4334544 -0.1803981 -0.8829348
vn 0.9999781 0.00441966 -0.004929461
vn 0.9999697 0.004561002 -0.006314541
vn 0.999962 0.00458195 -0.007423951
vn -0.9884693 -0.008402644 0.1511879
vn -0.9997167 -0.01557051 0.01800064
vn -0.9970233 -0.01275072 0.07603854
vn -0.8109387 -0.05694946 0.5823532
vn -0.9978843 -0.01161738 -0.0639683
vn -0.9998617 -0.01124383 -0.0122484
vn -0.9998654 -0.01594514 -0.003847049
vn -0.9998454 -0.01587324 -0.007562948
vn -0.9946476 -0.02348685 -0.1006207
vn -0.8529903 -0.06680029 -0.5176345
vn -0.8663404 -0.1103989 -0.4870999
vn -0.9940508 -0.03082721 -0.1044633
vn -0.6264936 -0.118308 -0.7703953
vn -0.5828254 -0.1851014 -0.7912345
vn 0 0.9946865 -0.1029507
vn 0 0.9812888 -0.1925417
vn 0 0.9945887 -0.1038909
vn 0 0.9999837 -0.00571872
vn 0 0.9999733 -0.007305001
vn 0 0.9933715 0.1149479
vn 0 0.9932336 0.1161338
vn 0 0.9837324 0.17964
vn 0 0.9837324 0.17964
g stock_ak74m_izhmash_ak74m_std_LOD1_0
f 3/3/3 2/2/2 1/1/1
f 4/4/4 3/3/3 1/1/1
f 7/7/7 6/6/6 5/5/5
f 8/8/8 7/7/7 5/5/5
f 11/11/11 10/10/10 9/9/9
f 12/12/12 11/11/11 9/9/9
f 15/15/15 14/14/14 13/13/13
f 16/16/16 15/15/15 13/13/13
f 19/19/19 18/18/18 17/17/17
f 20/20/20 19/19/19 17/17/17
f 23/23/23 22/22/22 21/21/21
f 22/22/22 23/23/23 24/24/24
f 25/25/25 24/24/24 23/23/23
f 24/24/24 25/25/25 26/26/26
f 29/29/29 28/28/28 27/27/27
f 29/29/29 27/27/27 30/30/30
f 31/31/31 29/29/29 30/30/30
f 30/30/30 32/32/32 31/31/31
f 32/32/32 33/33/33 31/31/31
f 36/36/36 35/35/35 34/34/34
f 35/35/35 36/36/36 37/37/37
f 37/37/37 36/36/36 38/38/38
f 38/38/38 39/39/39 37/37/37
f 38/38/38 40/40/40 39/39/39
f 43/43/43 42/42/42 41/41/41
f 42/42/42 43/43/43 44/44/44
f 47/47/47 46/46/46 45/45/45
f 46/46/46 47/47/47 48/48/48
f 51/51/51 50/50/50 49/49/49
f 50/50/50 51/51/51 52/52/52
f 55/55/55 54/54/54 53/53/53
f 54/54/54 55/55/55 56/56/56
f 59/59/59 58/58/58 57/57/57
f 58/58/58 59/59/59 60/60/60
f 61/61/61 59/59/59 57/57/57
f 62/62/62 58/58/58 60/60/60
f 58/58/58 62/62/62 63/63/63
f 59/59/59 61/61/61 64/64/64
f 64/64/64 61/61/61 65/65/65
f 66/66/66 64/64/64 65/65/65
f 65/65/65 67/67/67 66/66/66
f 67/67/67 65/65/65 68/68/68
f 69/69/69 67/67/67 68/68/68
f 67/67/67 69/69/69 70/70/70
f 69/69/69 71/71/71 70/70/70
f 71/71/71 72/72/72 70/70/70
f 62/62/62 73/73/73 63/63/63
f 73/73/73 62/62/62 74/74/74
f 75/75/75 73/73/73 74/74/74
f 76/76/76 75/75/75 74/74/74
f 79/79/79 78/78/78 77/77/77
f 80/80/80 79/79/79 77/77/77
f 83/83/83 82/82/82 81/81/81
f 84/84/84 83/83/83 81/81/81
f 87/87/87 86/86/86 85/85/85
f 86/86/86 87/87/87 88/88/88
f 87/87/87 85/85/85 89/89/89
f 85/85/85 90/90/90 89/89/89
f 91/91/91 86/86/86 88/88/88
f 86/86/86 91/91/91 92/92/92
f 91/91/91 93/93/93 92/92/92
f 93/93/93 91/91/91 94/94/94
f 95/95/95 93/93/93 94/94/94
f 96/96/96 95/95/95 94/94/94
f 99/99/99 98/98/98 97/97/97
f 98/98/98 99/99/99 100/100/100
f 101/101/101 98/98/98 100/100/100
f 102/102/102 99/99/99 97/97/97
f 103/103/103 97/97/97 98/98/98
f 104/104/104 98/98/98 101/101/101
f 103/103/103 98/98/98 104/104/104
f 99/99/99 105/105/105 100/100/100
f 105/105/105 99/99/99 102/102/102
f 108/108/108 107/107/107 106/106/106
f 109/109/109 108/108/108 106/106/106
f 112/112/112 111/111/111 110/110/110
f 113/113/113 112/112/112 110/110/110
f 116/116/116 115/115/115 114/114/114
f 117/117/117 116/116/116 114/114/114
f 120/120/120 119/119/119 118/118/118
f 119/119/119 120/120/120 121/121/121
f 120/120/120 122/122/122 121/121/121
f 122/122/122 120/120/120 123/123/123
f 126/126/126 125/125/125 124/124/124
f 127/127/127 126/126/126 124/124/124
f 126/126/126 127/127/127 128/128/128
f 127/127/127 129/129/129 128/128/128
f 129/129/129 127/127/127 130/130/130
f 131/131/131 129/129/129 130/130/130
f 134/134/134 133/133/133 132/132/132
f 135/135/135 132/132/132 133/133/133
f 135/135/135 136/136/136 132/132/132
f 137/137/137 132/132/132 136/136/136
f 140/140/140 139/139/139 138/138/138
f 143/143/143 142/142/142 141/141/141
f 144/144/144 143/143/143 141/141/141
f 143/143/143 145/145/145 142/142/142
f 148/148/148 147/147/147 146/146/146
f 149/149/149 148/148/148 146/146/146
f 149/149/149 146/146/146 150/150/150
f 151/151/151 149/149/149 150/150/150
f 154/154/154 153/153/153 152/152/152
f 155/155/155 154/154/154 152/152/152
f 158/158/158 157/157/157 156/156/156
f 157/157/157 159/159/159 156/156/156
f 160/160/160 156/156/156 159/159/159
f 158/158/158 161/161/161 157/157/157
f 158/158/158 162/162/162 161/161/161
f 161/161/161 162/162/162 163/163/163
f 164/164/164 161/161/161 163/163/163
f 164/164/164 157/157/157 161/161/161
f 162/162/162 165/165/165 163/163/163
f 162/162/162 158/158/158 165/165/165
f 165/165/165 166/166/166 163/163/163
f 158/158/158 156/156/156 167/167/167
f 156/156/156 168/168/168 167/167/167
f 168/168/168 156/156/156 169/169/169
f 172/172/172 171/171/171 170/170/170
f 173/173/173 170/170/170 171/171/171
f 172/172/172 174/174/174 171/171/171
f 175/175/175 171/171/171 174/174/174
f 171/171/171 175/175/175 176/176/176
f 177/177/177 171/171/171 176/176/176
f 178/178/178 174/174/174 172/172/172
f 179/179/179 174/174/174 178/178/178
f 179/179/179 178/178/178 180/180/180
f 178/178/178 181/181/181 180/180/180
f 181/181/181 178/178/178 172/172/172
f 182/182/182 179/179/179 180/180/180
f 182/182/182 174/174/174 179/179/179
f 183/183/183 182/182/182 180/180/180
f 186/186/186 185/185/185 184/184/184
f 186/186/186 184/184/184 187/187/187
f 188/188/188 186/186/186 187/187/187
f 189/189/189 188/188/188 187/187/187
f 188/188/188 189/189/189 190/190/190
f 189/189/189 191/191/191 190/190/190
f 191/191/191 189/189/189 192/192/192
