g stock_ak_caa_akts_LOD1
v 0.003785083 0.004845981 0.0190304
v 0.003785083 0.1754279 0.01903043
v 0.01144462 0.1754279 0.01417876
v 0.01144462 0.004845991 0.01417873
v 0.0143703 0.1754279 0.004467626
v 0.0143703 0.004845991 0.004467598
v -0.005682628 0.004845981 0.0190304
v -0.005682628 0.1754279 0.01903042
v 0.01144462 0.1754279 -0.00454321
v 0.01144462 0.004845981 -0.004543239
v -0.01334217 0.004845981 0.01417872
v -0.01334217 0.1754279 0.01417875
v 0.005659243 0.1754279 -0.01010819
v 0.005659244 0.004845981 -0.01010822
v -0.01626785 0.004845981 0.004467598
v -0.01626785 0.1754279 0.004467626
v -0.01334216 0.004846048 -0.004543241
v -0.01334216 0.1754279 -0.004543213
v -0.007556784 0.004846048 -0.01010822
v -0.007556784 0.1754279 -0.01010819
v -0.01334217 0.1754279 0.01417875
v 0.01144462 0.1754279 0.01417876
v 0.003785083 0.1754279 0.01903043
v -0.005682628 0.1754279 0.01903042
v 0.0143703 0.1754279 0.004467626
v -0.01626785 0.1754279 0.004467626
v -0.01334216 0.1754279 -0.004543213
v 0.01144462 0.1754279 -0.00454321
v 0.005659243 0.1754279 -0.01010819
v -0.007556784 0.1754279 -0.01010819
v 0.005659243 0.1754279 -0.01762658
v -0.007556784 0.1754279 -0.01762658
v 0.005659243 0.1754279 -0.01010819
v 0.005659243 0.1754279 -0.01762658
v 0.005659244 0.004845991 -0.01762661
v 0.005659244 0.004845981 -0.01010822
v -0.01808604 0.000253582 0.006448898
v -0.01808604 0.004845981 0.0064489
v -0.01808599 0.004845981 0.01417872
v -0.01808599 -0.004189434 0.01417872
v -0.01808587 -0.004189339 -0.01762661
v -0.01808586 0.0002536869 -0.01082877
v -0.01808586 0.004846058 -0.01082877
v -0.01808587 0.004845991 -0.01762661
v 0.01618113 0.004845991 0.01417873
v 0.01618117 0.004845991 0.006448903
v 0.01618117 0.0002536011 0.006448902
v 0.01618113 -0.004189415 0.01417873
v 0.01618101 0.0002536488 -0.01082877
v 0.01618101 -0.004189339 -0.01762661
v 0.01618101 0.004845991 -0.01762661
v 0.016181 0.004845991 -0.01082877
v -0.005682628 0.004845981 0.0190304
v 0.003785083 0.004845981 0.0190304
v 0.01144462 0.004845991 0.01417873
v -0.01334217 0.004845981 0.01417872
v -0.007556784 0.1754279 -0.01762658
v -0.007556784 0.004845991 -0.01762661
v 0.005659244 0.004845991 -0.01762661
v 0.005659243 0.1754279 -0.01762658
v -0.007556784 0.004845991 -0.01762661
v -0.007556784 0.1754279 -0.01762658
v -0.007556784 0.1754279 -0.01010819
v -0.007556784 0.004846048 -0.01010822
v -0.01334217 0.004845981 0.01417872
v -0.01808599 0.004845981 0.01417872
v -0.01808604 0.004845981 0.0064489
v -0.01626785 0.004845981 0.004467598
v -0.01808586 0.004846058 -0.01082877
v -0.01334216 0.004846048 -0.004543241
v -0.007556784 0.004846048 -0.01010822
v -0.01808587 0.004845991 -0.01762661
v -0.007556784 0.004845991 -0.01762661
v 0.01618113 -0.004189415 0.01417873
v 0.01618101 -0.004189339 -0.01762661
v -0.01808587 -0.004189339 -0.01762661
v -0.01808599 -0.004189434 0.01417872
v 0.0143703 0.004845991 0.004467598
v 0.01618117 0.004845991 0.006448903
v 0.01618113 0.004845991 0.01417873
v 0.01144462 0.004845991 0.01417873
v 0.01144462 0.004845981 -0.004543239
v 0.016181 0.004845991 -0.01082877
v 0.005659244 0.004845981 -0.01010822
v 0.005659244 0.004845991 -0.01762661
v 0.01618101 0.004845991 -0.01762661
v 0.01618113 -0.004189415 0.01417873
v 0.01144462 0.004845991 0.01417873
v 0.01618113 0.004845991 0.01417873
v -0.01334217 0.004845981 0.01417872
v -0.01808599 -0.004189434 0.01417872
v -0.01808599 0.004845981 0.01417872
v -0.02424978 0.0002536869 -0.01082877
v -0.02424978 0.004846058 -0.01082877
v -0.02832634 0.004846048 -0.00607689
v -0.02832634 0.0002536774 -0.00607689
v -0.02832638 0.00484601 0.001036783
v -0.02832637 0.0002536202 0.001036779
v -0.02424978 0.000253582 0.006448898
v -0.02424978 0.004845981 0.0064489
v -0.01808587 -0.004189339 -0.01762661
v -0.007556784 0.004845991 -0.01762661
v -0.01808587 0.004845991 -0.01762661
v 0.01618101 -0.004189339 -0.01762661
v 0.005659244 0.004845991 -0.01762661
v 0.01618101 0.004845991 -0.01762661
v 0.02642147 0.0002536392 -0.00607689
v 0.02642147 0.004845981 -0.00607689
v 0.02234489 0.004845991 -0.01082877
v 0.0223449 0.0002536488 -0.01082877
v 0.0264215 0.0002536202 0.001036783
v 0.0264215 0.004845981 0.001036785
v 0.0223449 0.004845991 0.006448903
v 0.0223449 0.0002536011 0.006448902
v -0.02424978 0.000253582 0.006448898
v -0.01808604 0.000253582 0.006448898
v -0.01808586 0.0002536869 -0.01082877
v -0.02424978 0.0002536869 -0.01082877
v -0.02832634 0.0002536774 -0.00607689
v -0.02832637 0.0002536202 0.001036779
v -0.01808586 0.004846058 -0.01082877
v -0.02424978 0.004846058 -0.01082877
v -0.02424978 0.0002536869 -0.01082877
v -0.01808586 0.0002536869 -0.01082877
v -0.01808604 0.000253582 0.006448898
v -0.02424978 0.000253582 0.006448898
v -0.02424978 0.004845981 0.0064489
v -0.01808604 0.004845981 0.0064489
v -0.02832634 0.004846048 -0.00607689
v -0.02424978 0.004846058 -0.01082877
v -0.02424978 0.004845981 0.0064489
v -0.02832638 0.00484601 0.001036783
v -0.01808604 0.004845981 0.0064489
v -0.01808586 0.004846058 -0.01082877
v 0.01618101 0.0002536488 -0.01082877
v 0.0223449 0.0002536488 -0.01082877
v 0.02234489 0.004845991 -0.01082877
v 0.016181 0.004845991 -0.01082877
v 0.0223449 0.004845991 0.006448903
v 0.01618117 0.004845991 0.006448903
v 0.016181 0.004845991 -0.01082877
v 0.02234489 0.004845991 -0.01082877
v 0.02642147 0.004845981 -0.00607689
v 0.0264215 0.004845981 0.001036785
v 0.01618117 0.004845991 0.006448903
v 0.0223449 0.004845991 0.006448903
v 0.0223449 0.0002536011 0.006448902
v 0.01618117 0.0002536011 0.006448902
v 0.02642147 0.0002536392 -0.00607689
v 0.0223449 0.0002536488 -0.01082877
v 0.0223449 0.0002536011 0.006448902
v 0.0264215 0.0002536202 0.001036783
v 0.01618117 0.0002536011 0.006448902
v 0.01618101 0.0002536488 -0.01082877
vt 0.4390249 0.2086863
vt 0.4390249 0.9915523
vt 0.5236208 0.9915523
vt 0.5236208 0.2086863
vt 0.6182527 0.9915523
vt 0.6182527 0.2086863
vt 0.3506905 0.2086863
vt 0.3506905 0.9915523
vt 0.7066498 0.9915523
vt 0.7066498 0.2086863
vt 0.2660946 0.2086863
vt 0.2660946 0.9915523
vt 0.7815513 0.9915523
vt 0.7815513 0.2086863
vt 0.1714627 0.2086863
vt 0.1714627 0.9915523
vt 0.08306554 0.2086863
vt 0.08306554 0.9915523
vt 0.008164101 0.2086863
vt 0.008164101 0.9915523
vt 0.9645563 0.1801061
vt 0.7332771 0.1801046
vt 0.8047486 0.2023726
vt 0.8930889 0.2023712
vt 0.7059782 0.1355352
vt 0.9918536 0.1355388
vt 0.9645491 0.09418505
vt 0.7332714 0.0941808
vt 0.7872483 0.06864115
vt 0.9105635 0.06864399
vt 0.7872496 0.03413619
vt 0.910565 0.03413973
vt 0.8640737 0.2086892
vt 0.7939199 0.2086892
vt 0.7939213 0.9915558
vt 0.864075 0.9915558
vt 0.2347455 0.03258964
vt 0.234757 0.05366895
vt 0.306882 0.05366193
vt 0.3068661 0.01219628
vt 0.01010521 0.01219067
vt 0.07352629 0.03258681
vt 0.07350925 0.05366547
vt 0.01008096 0.05365496
vt 0.3068777 0.05366199
vt 0.2347529 0.05366831
vt 0.234744 0.0325897
vt 0.3068661 0.01219628
vt 0.07352629 0.03258752
vt 0.01010377 0.01219208
vt 0.01008096 0.05365643
vt 0.07351068 0.05366547
vt 0.6587275 0.006027297
vt 0.5703887 0.006027297
vt 0.4989184 0.02829453
vt 0.7301963 0.02829311
vt 0.8759341 0.2088739
vt 0.8759341 0.9917406
vt 0.9992496 0.9917406
vt 0.9992496 0.2088739
vt 0.7939213 0.2086898
vt 0.7939213 0.9915558
vt 0.8640752 0.9915558
vt 0.8640752 0.2086898
vt 0.7165009 0.1786095
vt 0.6722383 0.1785843
vt 0.6723279 0.1431119
vt 0.6893018 0.1340225
vt 0.6722996 0.06382179
vt 0.7165778 0.09266124
vt 0.7705463 0.06710683
vt 0.6722611 0.03262703
vt 0.7705049 0.03259832
vt 0.3279704 0.2050495
vt 0.3279677 0.05908244
vt 0.008232966 0.05908386
vt 0.008234405 0.2050509
vt 0.6892208 0.1340218
vt 0.6723167 0.1431112
vt 0.6722384 0.1785843
vt 0.7164341 0.178606
vt 0.7165053 0.09266042
vt 0.6722912 0.06382108
vt 0.7704666 0.0671047
vt 0.7704324 0.03259974
vt 0.6722569 0.0326236
vt 0.6592193 0.1150445
vt 0.6150264 0.1565124
vt 0.6592222 0.1565124
vt 0.3837443 0.1565137
vt 0.339486 0.1150452
vt 0.3394775 0.1565101
vt 0.3977709 0.08824972
vt 0.3977697 0.1093263
vt 0.4561894 0.1093269
vt 0.4561894 0.08825038
vt 0.5225661 0.1093269
vt 0.5225661 0.08825038
vt 0.5857893 0.08824972
vt 0.5857893 0.1093263
vt 0.3389907 0.2035274
vt 0.437226 0.1620561
vt 0.3389764 0.1620639
vt 0.6587169 0.2035289
vt 0.5605513 0.1620561
vt 0.6587326 0.1620652
vt 0.456188 0.1093256
vt 0.456188 0.08824972
vt 0.397768 0.08824972
vt 0.397768 0.1093256
vt 0.5225661 0.1093256
vt 0.5225661 0.08824972
vt 0.5857893 0.08824972
vt 0.5857893 0.1093263
vt 0.464238 0.0550177
vt 0.464238 0.08330476
vt 0.625452 0.08330546
vt 0.625452 0.05501629
vt 0.5811124 0.03630785
vt 0.5147373 0.03630856
vt 0.3402561 0.1093263
vt 0.3977697 0.1093263
vt 0.3977709 0.08824972
vt 0.3402561 0.08824972
vt 0.6433014 0.08824972
vt 0.5857893 0.08824972
vt 0.5857893 0.1093263
vt 0.6433014 0.1093263
vt 0.4380188 0.05695032
vt 0.4823568 0.03824176
vt 0.3211448 0.03824176
vt 0.3716436 0.05695102
vt 0.3211474 0.009952644
vt 0.4823596 0.009954061
vt 0.3402546 0.1093256
vt 0.397768 0.1093256
vt 0.397768 0.08824972
vt 0.3402546 0.08824901
vt 0.464238 0.0550177
vt 0.464238 0.08330476
vt 0.6254503 0.08330682
vt 0.625452 0.0550177
vt 0.5811124 0.0363085
vt 0.5147371 0.03630921
vt 0.6433014 0.08824972
vt 0.5857893 0.08824972
vt 0.5857893 0.1093263
vt 0.6433014 0.1093263
vt 0.4380203 0.05695102
vt 0.4823596 0.03824176
vt 0.3211474 0.03824035
vt 0.371645 0.05695026
vt 0.3211474 0.009952644
vt 0.4823611 0.009953353
vn 0.2785785 -1.544025E-07 0.9604134
vn 0.2785786 -1.544025E-07 0.9604134
vn 0.7964495 0 0.604705
vn 0.7964495 0 0.604705
vn 0.9999431 0 -0.01066202
vn 0.9999431 0 -0.01066219
vn -0.2785789 -1.559072E-07 0.9604133
vn -0.2785789 -1.559072E-07 0.9604133
vn 0.8475842 0 -0.5306609
vn 0.8475841 0 -0.530661
vn -0.7964495 0 0.604705
vn -0.7964495 0 0.604705
vn 0.6932458 1.240554E-07 -0.7207013
vn 0.6932458 1.240554E-07 -0.7207013
vn -0.9999431 0 -0.01066137
vn -0.9999431 0 -0.010662
vn -0.8475844 0 -0.5306606
vn -0.8475841 0 -0.5306611
vn -0.6932456 1.259598E-07 -0.7207015
vn -0.6932456 1.259597E-07 -0.7207015
vn 0 1 0
vn 0 1 0
vn 0 1 0
vn 0 1 0
vn 0 1 0
vn 0 1 0
vn 0 1 0
vn 0 1 0
vn 0 1 0
vn 0 1 0
vn 0 1 0
vn 0 1 0
vn 1 0 0
vn 1 0 0
vn 1 0 0
vn 1 0 0
vn -1 -2.753771E-06 -6.849282E-07
vn -1 -1.749515E-07 6.272736E-06
vn -1 -1.749515E-07 6.272736E-06
vn -1 -1.71542E-06 2.116547E-06
vn -1 -1.773929E-06 -1.303747E-06
vn -1 -2.617632E-06 -2.67447E-06
vn -1 0 1.578271E-06
vn -1 0 1.578271E-06
vn 1 -1.749514E-07 4.267877E-06
vn 1 -1.749514E-07 4.267877E-06
vn 1 -2.131609E-06 -1.332096E-06
vn 1 -1.34377E-06 9.227053E-07
vn 1 -1.929256E-06 -2.7828E-06
vn 1 -1.251024E-06 -1.621654E-06
vn 1 1.749518E-07 8.196439E-07
vn 1 1.749518E-07 8.196439E-07
vn 2.784087E-07 -1 -9.828309E-07
vn 2.784087E-07 -1 -9.828309E-07
vn 2.784087E-07 -1 -9.828309E-07
vn 2.784087E-07 -1 -9.828309E-07
vn 0 1.677214E-07 -1
vn 0 0 -1
vn 0 0 -1
vn 0 1.677214E-07 -1
vn -1 0 0
vn -1 0 0
vn -1 0 0
vn -1 0 0
vn 0 1 0
vn 0 1 0
vn -3.107169E-07 1 2.294726E-06
vn -1.427434E-06 1 3.779928E-06
vn 1.436359E-07 1 -6.641854E-07
vn -8.462851E-07 1 3.486885E-06
vn 7.836127E-07 1 -5.254178E-06
vn 7.491952E-07 1 -8.659937E-06
vn 7.491951E-07 1 -8.659937E-06
vn 2.78307E-07 -1 -2.698625E-06
vn 2.78307E-07 -1 -2.698625E-06
vn 2.78307E-07 -1 -2.698625E-06
vn 2.78307E-07 -1 -2.698625E-06
vn -1.14416E-06 1 -1.354392E-07
vn -2.48196E-07 1 0
vn 0 1 0
vn 0 1 0
vn -1.286657E-06 1 2.389689E-07
vn -5.199774E-07 1 3.66004E-07
vn -5.788312E-07 1 7.423815E-07
vn -4.303818E-07 1 6.661487E-07
vn -4.303818E-07 1 6.661487E-07
vn 0 -2.181525E-07 1
vn 0 -2.207221E-07 1
vn 0 -2.638714E-07 1
vn 0 -1.750448E-07 1
vn 0 -1.775713E-07 1
vn 0 -1.319356E-07 1
vn -0.7589783 0 -0.6511158
vn -0.7589784 0 -0.6511158
vn -0.9378098 -2.767922E-07 -0.3471495
vn -0.9378105 -2.767936E-07 -0.3471476
vn -0.9483569 -9.617237E-07 0.3172052
vn -0.9483563 -9.617264E-07 0.3172072
vn -0.7987581 -1.304954E-06 0.6016523
vn -0.7987581 -1.304954E-06 0.6016523
vn 0 0 -1
vn 0 0 -1
vn 0 0 -1
vn 0 0 -1
vn 0 0 -1
vn 0 0 -1
vn 0.9378102 2.072359E-07 -0.3471486
vn 0.93781 2.072363E-07 -0.3471492
vn 0.7589773 3.886963E-07 -0.651117
vn 0.7589773 3.886963E-07 -0.651117
vn 0.9483563 -2.96666E-07 0.3172071
vn 0.9483564 -2.966657E-07 0.3172068
vn 0.798758 -5.62689E-07 0.6016525
vn 0.798758 -5.626891E-07 0.6016525
vn -8.653273E-07 -1 -6.239188E-06
vn 0 -1 -6.071661E-06
vn 0 -1 -6.071661E-06
vn -9.239585E-07 -1 -6.25054E-06
vn -2.970843E-06 -1 -6.646815E-06
vn -2.970843E-06 -1 -6.646815E-06
vn 0 0 -1
vn 0 0 -1
vn 0 0 -1
vn 0 0 -1
vn 0 -5.19159E-07 1
vn 0 -5.19159E-07 1
vn 0 -5.19159E-07 1
vn 0 -5.19159E-07 1
vn 1.959454E-06 1 4.691869E-06
vn 6.094077E-07 1 4.501628E-06
vn 5.707374E-07 1 4.496179E-06
vn 1.959454E-06 1 4.691869E-06
vn -3.107169E-07 1 2.294726E-06
vn 1.436359E-07 1 -6.641854E-07
vn 0 0 -1
vn 0 0 -1
vn 0 0 -1
vn 0 0 -1
vn 6.814038E-07 1 0
vn -2.48196E-07 1 0
vn -5.199774E-07 1 3.66004E-07
vn 7.275731E-07 1 0
vn 2.339393E-06 1 0
vn 2.339393E-06 1 0
vn 0 -2.595801E-07 1
vn 0 -2.595801E-07 1
vn 0 -2.595801E-07 1
vn 0 -2.595801E-07 1
vn 9.480626E-07 -1 -2.736923E-06
vn 2.948563E-07 -1 -2.752716E-06
vn 2.761456E-07 -1 -2.753169E-06
vn 9.480625E-07 -1 -2.736923E-06
vn 0 -1 -2.759846E-06
vn 0 -1 -2.759846E-06
g stock_ak_caa_akts_LOD1_0
f 3/3/3 2/2/2 1/1/1
f 4/4/4 3/3/3 1/1/1
f 5/5/5 3/3/3 4/4/4
f 6/6/6 5/5/5 4/4/4
f 1/1/1 2/2/2 7/7/7
f 2/2/2 8/8/8 7/7/7
f 5/5/5 6/6/6 9/9/9
f 6/6/6 10/10/10 9/9/9
f 7/7/7 8/8/8 11/11/11
f 8/8/8 12/12/12 11/11/11
f 9/9/9 10/10/10 13/13/13
f 10/10/10 14/14/14 13/13/13
f 11/11/11 12/12/12 15/15/15
f 12/12/12 16/16/16 15/15/15
f 17/17/17 15/15/15 16/16/16
f 18/18/18 17/17/17 16/16/16
f 19/19/19 17/17/17 18/18/18
f 20/20/20 19/19/19 18/18/18
f 23/23/23 22/22/22 21/21/21
f 24/24/24 23/23/23 21/21/21
f 22/22/22 25/25/25 21/21/21
f 25/25/25 26/26/26 21/21/21
f 26/26/26 25/25/25 27/27/27
f 25/25/25 28/28/28 27/27/27
f 28/28/28 29/29/29 27/27/27
f 29/29/29 30/30/30 27/27/27
f 29/29/29 31/31/31 30/30/30
f 31/31/31 32/32/32 30/30/30
f 35/35/35 34/34/34 33/33/33
f 36/36/36 35/35/35 33/33/33
f 39/39/39 38/38/38 37/37/37
f 40/40/40 39/39/39 37/37/37
f 40/40/40 37/37/37 41/41/41
f 37/37/37 42/42/42 41/41/41
f 41/41/41 42/42/42 43/43/43
f 44/44/44 41/41/41 43/43/43
f 47/47/47 46/46/46 45/45/45
f 48/48/48 47/47/47 45/45/45
f 47/47/47 48/48/48 49/49/49
f 48/48/48 50/50/50 49/49/49
f 49/49/49 50/50/50 51/51/51
f 52/52/52 49/49/49 51/51/51
f 55/55/55 54/54/54 53/53/53
f 56/56/56 55/55/55 53/53/53
f 59/59/59 58/58/58 57/57/57
f 60/60/60 59/59/59 57/57/57
f 63/63/63 62/62/62 61/61/61
f 64/64/64 63/63/63 61/61/61
f 67/67/67 66/66/66 65/65/65
f 68/68/68 67/67/67 65/65/65
f 69/69/69 67/67/67 68/68/68
f 70/70/70 69/69/69 68/68/68
f 71/71/71 69/69/69 70/70/70
f 72/72/72 69/69/69 71/71/71
f 73/73/73 72/72/72 71/71/71
f 76/76/76 75/75/75 74/74/74
f 77/77/77 76/76/76 74/74/74
f 80/80/80 79/79/79 78/78/78
f 81/81/81 80/80/80 78/78/78
f 82/82/82 78/78/78 79/79/79
f 83/83/83 82/82/82 79/79/79
f 83/83/83 84/84/84 82/82/82
f 84/84/84 83/83/83 85/85/85
f 83/83/83 86/86/86 85/85/85
f 89/89/89 88/88/88 87/87/87
f 88/88/88 90/90/90 87/87/87
f 90/90/90 91/91/91 87/87/87
f 90/90/90 92/92/92 91/91/91
f 95/95/95 94/94/94 93/93/93
f 96/96/96 95/95/95 93/93/93
f 97/97/97 95/95/95 96/96/96
f 98/98/98 97/97/97 96/96/96
f 98/98/98 99/99/99 97/97/97
f 99/99/99 100/100/100 97/97/97
f 103/103/103 102/102/102 101/101/101
f 101/101/101 102/102/102 104/104/104
f 102/102/102 105/105/105 104/104/104
f 105/105/105 106/106/106 104/104/104
f 109/109/109 108/108/108 107/107/107
f 110/110/110 109/109/109 107/107/107
f 111/111/111 107/107/107 108/108/108
f 112/112/112 111/111/111 108/108/108
f 112/112/112 113/113/113 111/111/111
f 113/113/113 114/114/114 111/111/111
f 117/117/117 116/116/116 115/115/115
f 118/118/118 117/117/117 115/115/115
f 118/118/118 115/115/115 119/119/119
f 115/115/115 120/120/120 119/119/119
f 123/123/123 122/122/122 121/121/121
f 124/124/124 123/123/123 121/121/121
f 127/127/127 126/126/126 125/125/125
f 128/128/128 127/127/127 125/125/125
f 131/131/131 130/130/130 129/129/129
f 132/132/132 131/131/131 129/129/129
f 131/131/131 133/133/133 130/130/130
f 133/133/133 134/134/134 130/130/130
f 137/137/137 136/136/136 135/135/135
f 138/138/138 137/137/137 135/135/135
f 141/141/141 140/140/140 139/139/139
f 142/142/142 141/141/141 139/139/139
f 142/142/142 139/139/139 143/143/143
f 139/139/139 144/144/144 143/143/143
f 147/147/147 146/146/146 145/145/145
f 148/148/148 147/147/147 145/145/145
f 151/151/151 150/150/150 149/149/149
f 152/152/152 151/151/151 149/149/149
f 151/151/151 153/153/153 150/150/150
f 153/153/153 154/154/154 150/150/150
