g stock_ar15_armacon_baskak_LOD1
v -0.008585516 0.202862 -0.03540139
v -0.0170891 0.202862 0.003838711
v 0.01713266 0.202862 0.003838711
v 0.008373204 0.202862 -0.03540139
v 0.01309986 0.202862 0.01210098
v -0.01331218 0.202862 0.01210098
v -0.0001061565 0.202862 0.016346
v 0.01207146 0.226897 0.01761201
v -0.01228378 0.226897 0.01761201
v -0.01228378 0.2326538 0.01761201
v 0.01207146 0.2326538 0.01761201
v -0.01430922 0.239333 0.01184024
v 0.01418586 0.239333 0.01184024
v -0.0001061565 0.202862 0.016346
v -0.01331218 0.202862 0.01210098
v 0.01309986 0.202862 0.01210098
v -0.01360253 0.2344585 -0.08141798
v -0.006830876 0.2344585 -0.08709016
v 0.006613984 0.2344585 -0.08707996
v 0.01333547 0.2344585 -0.08141798
v -0.01794588 0.2328396 -0.04567629
v 0.01781147 0.2328396 -0.04567629
v -0.02228922 0.2361758 -0.009934606
v 0.02228747 0.2361758 -0.009934606
v -0.01430922 0.239333 0.01184024
v 0.01418586 0.239333 0.01184024
v 0.006613984 0.2154047 -0.08707996
v 0.01333547 0.2154047 -0.08141798
v 0.01333547 0.2344585 -0.08141798
v 0.006613984 0.2344585 -0.08707996
v -0.006830876 0.2344585 -0.08709016
v -0.006830876 0.2154047 -0.08709016
v -0.01360253 0.2344585 -0.08141798
v -0.01360253 0.2154047 -0.08141798
v -0.02228922 0.2361758 -0.009934606
v -0.0219316 0.2184796 -0.009934609
v -0.01794588 0.2328396 -0.04567629
v -0.01360253 0.2154047 -0.08141798
v -0.01360253 0.2344585 -0.08141798
v -0.01228378 0.226897 0.01761201
v -0.01710769 0.2184796 0.003838713
v -0.01228378 0.2326538 0.01761201
v -0.01430922 0.239333 0.01184024
v -0.0170891 0.202862 0.003838711
v -0.01331218 0.202862 0.01210098
v 0.006613984 0.2154047 -0.08707996
v -0.006830876 0.2154047 -0.08709016
v -0.01360253 0.2154047 -0.08141798
v 0.01333547 0.2154047 -0.08141798
v 0.008373204 0.218479 -0.03540138
v -0.008585516 0.218479 -0.03540138
v -0.0219316 0.2184796 -0.009934609
v -0.01710769 0.2184796 0.003838713
v 0.01699913 0.2184796 0.003838713
v 0.02192681 0.2184796 -0.009934609
v 0.008373204 0.218479 -0.03540138
v -0.008585516 0.218479 -0.03540138
v -0.008585516 0.202862 -0.03540139
v 0.008373204 0.202862 -0.03540139
v 0.008373204 0.218479 -0.03540138
v 0.008373204 0.202862 -0.03540139
v 0.01713266 0.202862 0.003838711
v 0.01699913 0.2184796 0.003838713
v 0.01699913 0.2184796 0.003838713
v 0.01713266 0.202862 0.003838711
v 0.01309986 0.202862 0.01210098
v 0.01207146 0.226897 0.01761201
v 0.02228747 0.2361758 -0.009934606
v 0.02192681 0.2184796 -0.009934609
v 0.01781147 0.2328396 -0.04567629
v 0.01333547 0.2154047 -0.08141798
v 0.01333547 0.2344585 -0.08141798
v 0.01207146 0.2326538 0.01761201
v 0.01418586 0.239333 0.01184024
v -0.01710769 0.2184796 0.003838713
v -0.0170891 0.202862 0.003838711
v -0.008585516 0.202862 -0.03540139
v -0.008585516 0.218479 -0.03540138
v 0.01008391 0.2034255 0.01000351
v 0.01017055 -0.01522213 0.01009011
v -0.0001275706 -0.01522213 0.01435574
v -0.0001275706 0.2034255 0.01423325
v -0.01042569 -0.01522213 0.01009011
v -0.01033906 0.2034255 0.01000351
v -0.01469131 -0.01522213 -0.0002080035
v -0.01456879 0.2034255 -0.0002079678
v -0.01042569 -0.01522213 -0.01050612
v -0.01033906 0.2034255 -0.01041945
v -0.0001275706 -0.01522212 -0.01477174
v -0.0001275706 0.2034255 -0.01464919
v 0.01431365 0.2034255 -0.0002079678
v 0.01443617 -0.01522213 -0.0002080035
v 0.01008391 0.2034255 -0.01041945
v 0.01017055 -0.01522213 -0.01050612
v -0.0001275706 0.2034255 -0.01464919
v -0.0001275706 -0.01522212 -0.01477174
v 0.01017055 -0.01522213 0.01009011
v 0.01443617 -0.01522213 -0.0002080035
v 0.01017055 -0.01522213 -0.01050612
v -0.0001275706 -0.01522212 -0.01477174
v -0.0001275706 -0.01522213 0.01435574
v -0.0001275706 -0.01522212 -0.01477174
v -0.01042569 -0.01522213 -0.01050612
v -0.01042569 -0.01522213 0.01009011
v -0.0001275706 -0.01522213 0.01435574
v -0.01469131 -0.01522213 -0.0002080035
vt 0.6722596 0.3155284
vt 0.477307 0.2729094
vt 0.4773075 0.4450189
vt 0.6722596 0.40056
vt 0.4364209 0.4250979
vt 0.4364201 0.2918064
vt 0.4161283 0.3586918
vt 0.4074658 0.4784162
vt 0.2365766 0.4784162
vt 0.2405828 0.5213679
vt 0.4034596 0.5213679
vt 0.2305772 0.5852071
vt 0.4134653 0.5852071
vt 0.3220212 0.2953948
vt 0.2367025 0.2953959
vt 0.40734 0.2953959
vt 0.2073854 0.04225487
vt 0.1677776 0.005160898
vt 0.06728904 0.005214274
vt 0.02785905 0.04224649
vt 0.2153174 0.273601
vt 0.01991952 0.2736009
vt 0.2311288 0.457023
vt 0.00410481 0.4570228
vt 0.1925061 0.5848802
vt 0.04273084 0.5848802
vt 0.2721116 0.1870613
vt 0.2263462 0.187062
vt 0.2263463 0.2863288
vt 0.2721116 0.2863294
vt 0.3421648 0.2863294
vt 0.3421648 0.1870613
vt 0.3882413 0.2863288
vt 0.3882413 0.187062
vt 1.793927 0.0266686
vt 1.793904 0.1562996
vt 1.531949 0.05105393
vt 1.270004 0.1788318
vt 1.27 0.03919257
vt 1.995576 0.09423643
vt 1.894785 0.1561977
vt 1.995599 0.05210515
vt 1.953447 0.003344254
vt 1.89481 0.2707593
vt 1.955403 0.270755
vt 0.9897808 0.3902552
vt 0.9898317 0.3231426
vt 0.9615126 0.2893254
vt 0.9615126 0.4238223
vt 0.7317371 0.399018
vt 0.7317371 0.3144048
vt 0.6045731 0.2477166
vt 0.5358021 0.2718056
vt 0.5358021 0.4421335
vt 0.6045731 0.4667415
vt 0.7799684 0.2625768
vt 0.8894246 0.2625768
vt 0.8894246 0.1617807
vt 0.7799684 0.1617807
vt 0.9963749 0.5838165
vt 0.9964463 0.4736282
vt 0.7130858 0.4736269
vt 0.7131572 0.5838221
vt 0.894785 0.1561977
vt 0.8948105 0.2707593
vt 0.9554029 0.270755
vt 0.9955759 0.09423643
vt 0.7939268 0.0266686
vt 0.7939035 0.1562996
vt 0.531949 0.05105393
vt 0.2700035 0.1788318
vt 0.2699994 0.03919257
vt 0.9955993 0.05210515
vt 0.953447 0.003344254
vt 0.4209424 0.4736233
vt 0.4209702 0.5838152
vt 0.7042684 0.583815
vt 0.7042685 0.4736276
vt 0.9964115 0.7423649
vt 0.00391385 0.7433302
vt 0.00391385 0.7938659
vt 0.9964115 0.7925589
vt 0.00391385 0.8444079
vt 0.9964115 0.8427501
vt 0.00391385 0.8949589
vt 0.9964115 0.8929338
vt 0.00391385 0.94552
vt 0.9964115 0.9431078
vt 0.00391385 0.9960938
vt 0.9964115 0.9960938
vt 0.9964115 0.6921656
vt 0.00391385 0.6928002
vt 0.9964115 0.6419594
vt 0.00391385 0.6422739
vt 0.9964115 0.5917499
vt 0.00391385 0.5917499
vt 0.4424005 0.2367499
vt 0.4896927 0.2563391
vt 0.536985 0.2367499
vt 0.556574 0.1894578
vt 0.4228114 0.1894578
vt 1.556574 0.1894578
vt 1.536985 0.2367501
vt 1.442401 0.2367501
vt 1.422812 0.1894578
vt 1.489693 0.2563391
vn 0 -1 0
vn 0 -1 0
vn 0 -1 0
vn 0 -1 0
vn 0 -1 0
vn 0 -1 0
vn 0 -1 0
vn 0.05058058 -0.0521474 0.9973575
vn -0.05058058 -0.05214741 0.9973575
vn 0 0.372083 0.9281994
vn 0 0.372994 0.9278337
vn 0 0.6538412 0.7566318
vn 0 0.6538412 0.7566318
vn 0 -0.163613 0.9865246
vn -0.2997775 -0.2010088 0.9325925
vn 0.2997775 -0.2010088 0.9325925
vn 0 0.9994863 0.0320477
vn 0 1 0
vn 0 1 0
vn 0 0.9994869 0.03203069
vn 0 0.9995731 -0.02921955
vn 0 0.9995683 -0.02938034
vn 0 0.9932374 -0.1161006
vn 0 0.9932396 -0.116082
vn 0 0.9896514 -0.1434923
vn 0 0.9896514 -0.1434923
vn 0.343277 0 -0.9392342
vn 0.6442553 0 -0.7648106
vn 0.6442553 0 -0.7648106
vn 0.343277 0 -0.9392342
vn -0.34126 0 -0.9399689
vn -0.34126 0 -0.9399689
vn -0.6421292 0 -0.7665964
vn -0.6421292 0 -0.7665964
vn -0.991585 -0.01399531 0.1286989
vn -0.9938536 -0.01329554 0.1099018
vn -0.9931237 -0.01076354 -0.1165745
vn -0.9928662 -0.002985075 -0.1191974
vn -0.9926972 0 -0.120633
vn -0.9376372 -0.01371401 0.3473447
vn -0.9354195 -0.01699156 0.3531312
vn -0.9413727 -0.008030496 0.3372728
vn -0.9413727 -0.008030496 0.3372728
vn -0.9274904 -0.02819031 0.3727826
vn -0.9274904 -0.02819031 0.3727826
vn 0 -0.9982042 0.05990237
vn 0 -0.9982042 0.05990237
vn 0.007037369 -0.9982954 0.05793942
vn -0.00700344 -0.998296 0.0579327
vn -0.04600659 -0.9978393 0.04690529
vn 0.04659945 -0.9978147 0.04684468
vn 0.07436759 -0.9964681 0.03899684
vn 0.07436758 -0.9964681 0.03899684
vn -0.07341641 -0.9965347 0.03909663
vn -0.07341642 -0.9965347 0.03909664
vn 0 1.526654E-07 -1
vn 0 1.526654E-07 -1
vn 0 1.526654E-07 -1
vn 0 1.526654E-07 -1
vn 0.9763223 0.004173858 -0.2162807
vn 0.9763223 0.004173859 -0.2162807
vn 0.9763223 0.004173858 -0.2162807
vn 0.9763223 0.004173859 -0.2162807
vn 0.9319773 -0.01698131 0.3621187
vn 0.9224418 -0.02650949 0.3852251
vn 0.9224418 -0.02650948 0.3852251
vn 0.9346372 -0.01419536 0.3553193
vn 0.9913377 -0.01481564 0.1305
vn 0.9936872 -0.01405621 0.1113016
vn 0.9926937 -0.01085034 -0.120173
vn 0.9924248 -0.003007906 -0.122816
vn 0.9922495 0 -0.1242613
vn 0.9391263 -0.009349115 0.3434448
vn 0.9391263 -0.009349114 0.3434448
vn -0.977267 -0.0005814823 -0.2120116
vn -0.977267 -0.0005814823 -0.2120116
vn -0.977267 -0.0005814823 -0.2120116
vn -0.977267 -0.0005814823 -0.2120116
vn 0.7071066 0.0005602366 0.7071066
vn 0.7071066 0.0005602367 0.7071066
vn 0 0.0005601901 0.9999999
vn 0 0.0005601901 0.9999999
vn -0.7071068 0.0005602353 0.7071066
vn -0.7071066 0.0005602353 0.7071066
vn -0.9999999 0.0005603484 0
vn -0.9999999 0.0005603484 1.231989E-07
vn -0.7071068 0.0005604667 -0.7071066
vn -0.7071066 0.0005604667 -0.7071066
vn 0 0.0005605179 -0.9999999
vn 0 0.0005605179 -0.9999999
vn 0.9999999 0.0005603525 1.437321E-07
vn 0.9999999 0.0005603525 0
vn 0.7071066 0.0005604699 -0.7071066
vn 0.7071068 0.00056047 -0.7071066
vn 0 0.0005605179 -0.9999999
vn 0 0.0005605179 -0.9999999
vn -3.858611E-07 -1 -1.598289E-07
vn 0 -1 0
vn -3.858611E-07 -1 -1.598289E-07
vn 0 -1 -1.917947E-07
vn 0 -1 -1.917947E-07
vn 0 -1 -1.917947E-07
vn 3.858611E-07 -1 -1.598289E-07
vn 3.858611E-07 -1 -1.598289E-07
vn 0 -1 -1.917947E-07
vn 0 -1 0
g stock_ar15_armacon_baskak_LOD1_0
f 3/3/3 2/2/2 1/1/1
f 4/4/4 3/3/3 1/1/1
f 3/3/3 5/5/5 2/2/2
f 5/5/5 6/6/6 2/2/2
f 5/5/5 7/7/7 6/6/6
f 10/10/10 9/9/9 8/8/8
f 11/11/11 10/10/10 8/8/8
f 10/10/10 11/11/11 12/12/12
f 11/11/11 13/13/13 12/12/12
f 9/9/9 14/14/14 8/8/8
f 9/9/9 15/15/15 14/14/14
f 14/14/14 16/16/16 8/8/8
f 19/19/19 18/18/18 17/17/17
f 20/20/20 19/19/19 17/17/17
f 20/20/20 17/17/17 21/21/21
f 22/22/22 20/20/20 21/21/21
f 22/22/22 21/21/21 23/23/23
f 24/24/24 22/22/22 23/23/23
f 24/24/24 23/23/23 25/25/25
f 26/26/26 24/24/24 25/25/25
f 29/29/29 28/28/28 27/27/27
f 30/30/30 29/29/29 27/27/27
f 31/31/31 30/30/30 27/27/27
f 32/32/32 31/31/31 27/27/27
f 31/31/31 32/32/32 33/33/33
f 32/32/32 34/34/34 33/33/33
f 37/37/37 36/36/36 35/35/35
f 37/37/37 38/38/38 36/36/36
f 39/39/39 38/38/38 37/37/37
f 40/40/40 35/35/35 36/36/36
f 36/36/36 41/41/41 40/40/40
f 40/40/40 42/42/42 35/35/35
f 42/42/42 43/43/43 35/35/35
f 41/41/41 44/44/44 40/40/40
f 44/44/44 45/45/45 40/40/40
f 48/48/48 47/47/47 46/46/46
f 46/46/46 49/49/49 48/48/48
f 49/49/49 50/50/50 48/48/48
f 50/50/50 51/51/51 48/48/48
f 48/48/48 51/51/51 52/52/52
f 51/51/51 53/53/53 52/52/52
f 54/54/54 50/50/50 49/49/49
f 55/55/55 54/54/54 49/49/49
f 58/58/58 57/57/57 56/56/56
f 59/59/59 58/58/58 56/56/56
f 62/62/62 61/61/61 60/60/60
f 63/63/63 62/62/62 60/60/60
f 66/66/66 65/65/65 64/64/64
f 67/67/67 66/66/66 64/64/64
f 68/68/68 67/67/67 64/64/64
f 64/64/64 69/69/69 68/68/68
f 69/69/69 70/70/70 68/68/68
f 71/71/71 70/70/70 69/69/69
f 72/72/72 70/70/70 71/71/71
f 68/68/68 73/73/73 67/67/67
f 68/68/68 74/74/74 73/73/73
f 77/77/77 76/76/76 75/75/75
f 78/78/78 77/77/77 75/75/75
f 81/81/81 80/80/80 79/79/79
f 82/82/82 81/81/81 79/79/79
f 83/83/83 81/81/81 82/82/82
f 84/84/84 83/83/83 82/82/82
f 85/85/85 83/83/83 84/84/84
f 86/86/86 85/85/85 84/84/84
f 87/87/87 85/85/85 86/86/86
f 88/88/88 87/87/87 86/86/86
f 89/89/89 87/87/87 88/88/88
f 90/90/90 89/89/89 88/88/88
f 79/79/79 80/80/80 91/91/91
f 80/80/80 92/92/92 91/91/91
f 91/91/91 92/92/92 93/93/93
f 92/92/92 94/94/94 93/93/93
f 93/93/93 94/94/94 95/95/95
f 94/94/94 96/96/96 95/95/95
f 99/99/99 98/98/98 97/97/97
f 100/100/100 99/99/99 97/97/97
f 101/101/101 100/100/100 97/97/97
f 104/104/104 103/103/103 102/102/102
f 105/105/105 104/104/104 102/102/102
f 104/104/104 106/106/106 103/103/103
