g stock_870_fab_defense_agr_870_stock_tube_LOD1
v 0.01425317 0.1571728 0.000323081
v 0.009914534 0.1571583 -0.01016544
v 0.01032875 0.03740265 -0.01017283
v 0.01487554 -0.02276375 0.0003119707
v 0.0105369 -0.02277817 -0.01017655
v 0.01052696 -0.02277946 0.01079637
v 0.009904589 0.157157 0.01080748
v 3.850043E-05 -0.02281609 0.01513503
v -0.0005838723 0.1571204 0.01514614
v 0.006517492 0.04133255 -0.01411589
v 0.006116915 0.1571455 -0.01410874
v 0.005819864 0.04527329 -0.02074708
v 0.005432925 0.1571435 -0.02074018
v -0.0005838723 0.1571204 0.01514614
v 3.850043E-05 -0.02281609 0.01513503
v -0.01044584 -0.02285202 0.01078642
v -0.01106821 0.1570845 0.01079753
v -0.01478448 -0.02286636 0.0002979016
v -0.01540685 0.1570702 0.0003090072
v -0.01064405 0.03733009 -0.01018278
v -0.01105827 0.1570858 -0.0101754
v -0.01043589 -0.02285072 -0.0101865
v -0.0072571 0.1570991 -0.01411509
v -0.006856521 0.04128624 -0.01412224
v -0.006567008 0.157102 -0.02074587
v -0.006180065 0.04523178 -0.02075277
v -0.006180065 0.04523178 -0.02075277
v 0.005819864 0.04527329 -0.02074708
v -0.0005670417 0.1571227 -0.02074302
v -0.006567008 0.157102 -0.02074587
v 0.005432925 0.1571435 -0.02074018
v 0.0105369 -0.02277817 -0.01017655
v 5.256325E-05 -0.02281418 -0.01452516
v 3.850043E-05 -0.02281609 0.01513503
v 0.01052696 -0.02277946 0.01079637
v 0.01487554 -0.02276375 0.0003119707
v -0.0001555927 0.03736664 -0.01452145
v 5.256325E-05 -0.02281418 -0.01452516
v 0.0105369 -0.02277817 -0.01017655
v 0.01032875 0.03740265 -0.01017283
v -0.01064405 0.03733009 -0.01018278
v -0.01043589 -0.02285072 -0.0101865
v -0.0005838723 0.1571204 0.01514614
v -0.01106821 0.1570845 0.01079753
v -0.0005670417 0.1571227 -0.02074302
v -0.0072571 0.1570991 -0.01411509
v -0.01105827 0.1570858 -0.0101754
v -0.01540685 0.1570702 0.0003090072
v -0.006567008 0.157102 -0.02074587
v 0.01032875 0.03740265 -0.01017283
v 0.006517492 0.04133255 -0.01411589
v -0.0001555927 0.03736664 -0.01452145
v 0.005819864 0.04527329 -0.02074708
v -0.006180065 0.04523178 -0.02075277
v -0.006856521 0.04128624 -0.01412224
v -0.01064405 0.03733009 -0.01018278
v 5.256325E-05 -0.02281418 -0.01452516
v -0.01043589 -0.02285072 -0.0101865
v -0.01044584 -0.02285202 0.01078642
v 3.850043E-05 -0.02281609 0.01513503
v -0.01478448 -0.02286636 0.0002979016
v -0.0005838723 0.1571204 0.01514614
v -0.0005670417 0.1571227 -0.02074302
v 0.009904589 0.157157 0.01080748
v 0.006116915 0.1571455 -0.01410874
v 0.009914534 0.1571583 -0.01016544
v 0.01425317 0.1571728 0.000323081
v 0.005432925 0.1571435 -0.02074018
v 0.007814897 0.00996994 -0.01604182
v 0.007869999 -0.005960617 -0.0160428
v 0.0141828 -0.005939102 -0.01100358
v 0.0141277 0.009991455 -0.0110026
v 0.01768401 -0.005927429 -0.003724372
v 0.01762891 0.01000313 -0.00372339
v 0.01768018 -0.005927963 0.004353101
v 0.01762508 0.01000259 0.004354085
v 0.01417207 -0.005940551 0.01162899
v 0.01411697 0.009990005 0.01162997
v 0.007854498 -0.005962677 0.01666222
v 0.007799397 0.00996788 0.0166632
v -2.125978E-05 -0.005990142 0.01845589
v -7.636115E-05 0.009940414 0.01845687
v -0.007895313 -0.006017227 0.01665475
v -0.007950416 0.00991333 0.01665573
v -0.01420811 -0.006038742 0.01161553
v -0.01426321 0.009891815 0.01161652
v -0.01770932 -0.006050415 0.004336319
v -0.01776443 0.009880142 0.004337302
v -0.0177055 -0.006049881 -0.003741152
v -0.0177606 0.009880676 -0.00374017
v -0.01419738 -0.006037293 -0.01101704
v -0.01425248 0.009893265 -0.01101606
v -0.00787981 -0.006015167 -0.01605027
v -0.007934911 0.00991539 -0.01604929
v -4.051029E-06 -0.005987777 -0.01784394
v -5.915239E-05 0.009942779 -0.01784296
v 0.007869999 -0.005960617 -0.0160428
v 0.007814897 0.00996994 -0.01604182
v -0.01426321 0.009891815 0.01161652
v -0.01776443 0.009880142 0.004337302
v -0.0177606 0.009880676 -0.00374017
v -0.01425248 0.009893265 -0.01101606
v -0.007950416 0.00991333 0.01665573
v -0.007934911 0.00991539 -0.01604929
v -7.636115E-05 0.009940414 0.01845687
v -5.915239E-05 0.009942779 -0.01784296
v 0.007814897 0.00996994 -0.01604182
v 0.007799397 0.00996788 0.0166632
v 0.01411697 0.009990005 0.01162997
v 0.0141277 0.009991455 -0.0110026
v 0.01762508 0.01000259 0.004354085
v 0.01762891 0.01000313 -0.00372339
v -2.125978E-05 -0.005990142 0.01845589
v 0.007854498 -0.005962677 0.01666222
v 0.007869999 -0.005960617 -0.0160428
v -4.051029E-06 -0.005987777 -0.01784394
v 0.0141828 -0.005939102 -0.01100358
v 0.01417207 -0.005940551 0.01162899
v 0.01768401 -0.005927429 -0.003724372
v 0.01768018 -0.005927963 0.004353101
v -0.007895313 -0.006017227 0.01665475
v -2.125978E-05 -0.005990142 0.01845589
v -4.051029E-06 -0.005987777 -0.01784394
v -0.00787981 -0.006015167 -0.01605027
v -0.01419738 -0.006037293 -0.01101704
v -0.01420811 -0.006038742 0.01161553
v -0.01770932 -0.006050415 0.004336319
v -0.0177055 -0.006049881 -0.003741152
vt 0.9963098 0.4652466
vt 0.9963098 0.325581
vt 0.3289253 0.325581
vt 0.005704582 0.4652466
vt 0.005704582 0.325581
vt 0.005704582 0.606074
vt 0.9963098 0.606074
vt 0.005704582 0.7462987
vt 0.9963098 0.746299
vt 0.3460836 0.2517897
vt 0.9963098 0.2517897
vt 0.3642626 0.1641287
vt 0.9963098 0.1641287
vt 0.9963098 0.7462987
vt 0.005704582 0.7462987
vt 0.005704582 0.606074
vt 0.9963098 0.606074
vt 0.005704582 0.4652466
vt 0.9963098 0.4652466
vt 0.3289253 0.325581
vt 0.9963098 0.325581
vt 0.005704582 0.325581
vt 0.9963098 0.2517897
vt 0.3460836 0.2517897
vt 0.9963098 0.1641287
vt 0.3642626 0.1641287
vt 0.3642626 0.003978553
vt 0.3642626 0.1499468
vt 0.9963098 0.07696296
vt 0.9963098 0.003978553
vt 0.9963098 0.1499468
vt 0.187427 0.04263366
vt 0.1530278 0.01195704
vt 0.1530278 0.2214339
vt 0.187427 0.1907565
vt 0.2016753 0.1166954
vt 0.3724447 0.876285
vt 0.09087675 0.8762881
vt 0.09087675 0.9906234
vt 0.3724447 0.9906206
vt 0.3724446 0.7619494
vt 0.09087675 0.7619525
vt 0.358614 0.003978553
vt 0.3390191 0.1058298
vt 0.1967111 0.003980685
vt 0.2266254 0.06892794
vt 0.2444061 0.1058298
vt 0.2917128 0.1480182
vt 0.1967111 0.06225609
vt 0.07955952 0.7612225
vt 0.04766892 0.7970252
vt 0.06103428 0.8735256
vt 0.005728111 0.8113661
vt 0.005728111 0.9356886
vt 0.04766892 0.9500282
vt 0.07955953 0.9858287
vt 0.1530278 0.01195704
vt 0.1874267 0.04263366
vt 0.1874267 0.1907565
vt 0.1530278 0.2214339
vt 0.2016753 0.1166954
vt 0.358614 0.003978553
vt 0.1967111 0.003976025
vt 0.3390191 0.1058298
vt 0.2266254 0.06892624
vt 0.2444061 0.1058298
vt 0.2917128 0.1480182
vt 0.1967111 0.06225229
vt 0.3780525 0.7619494
vt 0.3780525 0.9863586
vt 0.4222138 0.9863586
vt 0.4222138 0.7619494
vt 0.4663746 0.9863586
vt 0.4663746 0.7619494
vt 0.5105358 0.9863586
vt 0.5105358 0.7619494
vt 0.554697 0.9863586
vt 0.554697 0.7619494
vt 0.5988584 0.9863586
vt 0.5988584 0.7619494
vt 0.6430203 0.9863586
vt 0.6430203 0.7619494
vt 0.6871812 0.9863586
vt 0.6871812 0.7619494
vt 0.7313423 0.9863586
vt 0.7313423 0.7619494
vt 0.7755032 0.9863586
vt 0.7755032 0.7619494
vt 0.8196649 0.9863586
vt 0.8196649 0.7619494
vt 0.863826 0.9863586
vt 0.863826 0.7619494
vt 0.9079871 0.9863586
vt 0.9079871 0.7619494
vt 0.9521489 0.9863586
vt 0.9521489 0.7619494
vt 0.9963098 0.9863586
vt 0.9963098 0.7619494
vt 0.133777 0.2613994
vt 0.1480168 0.1977371
vt 0.1480168 0.1270768
vt 0.133777 0.06341436
vt 0.1081181 0.3054558
vt 0.1081181 0.01935825
vt 0.07612155 0.3211789
vt 0.07612155 0.003635419
vt 0.04412502 0.01935825
vt 0.04412502 0.3054558
vt 0.01846601 0.2613994
vt 0.01846601 0.06341436
vt 0.004225966 0.1977371
vt 0.004225966 0.1270768
vt 0.2005923 0.1581537
vt 0.2079862 0.2278996
vt 0.3425231 0.2278996
vt 0.3499171 0.1581537
vt 0.3218056 0.2838326
vt 0.2287036 0.2838326
vt 0.2918687 0.3148728
vt 0.2586406 0.3148728
vt 0.2079862 0.2279004
vt 0.2005923 0.1581537
vt 0.3499171 0.1581537
vt 0.3425231 0.2279004
vt 0.3218056 0.2838323
vt 0.2287036 0.2838323
vt 0.2586406 0.3148719
vt 0.2918687 0.3148719
vn 0.9999939 0.003458785 0.0004746691
vn 0.8367842 0.002928092 -0.547525
vn 0.7845871 0.00275203 -0.6200125
vn 0.9999939 0.003458783 0.0004737633
vn 0.7074371 0.002490517 -0.7067719
vn 0.7067664 0.002400918 0.7074429
vn 0.706768 0.002400924 0.7074412
vn -0.0004743413 -6.337956E-05 0.9999999
vn -0.0004740091 -6.337845E-05 0.9999999
vn 0.8485316 0.002967587 -0.5291365
vn 0.9069983 0.003163144 -0.4211223
vn 0.9947167 0.003446881 -0.1025997
vn 0.9947167 0.003446881 -0.1025997
vn -0.0004740091 -6.337845E-05 0.9999999
vn -0.0004743413 -6.337956E-05 0.9999999
vn -0.7074371 -0.00249055 0.7067719
vn -0.7074384 -0.002490554 0.7067706
vn -0.9999939 -0.003458806 -0.0004748111
vn -0.9999939 -0.003458811 -0.000473786
vn -0.7840015 -0.002673435 -0.6207532
vn -0.8362715 -0.002858719 -0.5483082
vn -0.7067668 -0.002400952 -0.7074425
vn -0.9066095 -0.003109798 -0.421959
vn -0.848042 -0.002900562 -0.5299212
vn -0.9946219 -0.003433865 -0.1035159
vn -0.9946219 -0.003433864 -0.1035158
vn 0.0004742366 6.336007E-05 -0.9999999
vn 0.0004742367 6.336006E-05 -0.9999999
vn 0.0004742365 6.336007E-05 -0.9999999
vn 0.0004742364 6.336007E-05 -0.9999999
vn 0.0004742364 6.336006E-05 -0.9999999
vn 0.003464131 -0.999994 -6.140229E-05
vn 0.003459515 -0.999994 -6.1645E-05
vn 0.003459516 -0.999994 -6.164501E-05
vn 0.003464131 -0.999994 -6.140229E-05
vn 0.003469024 -0.999994 -6.019686E-05
vn 0.0004743393 6.334E-05 -0.9999999
vn 0.0004739701 6.333886E-05 -0.9999999
vn 0.7074371 0.002490517 -0.7067719
vn 0.7845871 0.00275203 -0.6200125
vn -0.7840015 -0.002673435 -0.6207532
vn -0.7067668 -0.002400952 -0.7074425
vn -0.003459515 0.999994 6.215187E-05
vn -0.00345368 0.999994 6.138052E-05
vn -0.003460531 0.999994 6.105425E-05
vn -0.003462573 0.999994 5.95281E-05
vn -0.003450238 0.999994 6.020516E-05
vn -0.003451461 0.999994 6.020459E-05
vn -0.003458689 0.999994 6.576071E-05
vn 0.3366934 -0.483923 -0.8077475
vn 0.4102596 -0.6221169 -0.6668264
vn 0.002690772 -0.6747788 -0.7380151
vn 0.2012688 -0.6953449 -0.6899176
vn -0.1957964 -0.6967227 -0.6901023
vn -0.4053047 -0.6249514 -0.6672061
vn -0.3325672 -0.4862542 -0.8080569
vn 0.003459515 -0.999994 -6.1645E-05
vn 0.003455141 -0.999994 -6.140629E-05
vn 0.003455141 -0.999994 -6.140629E-05
vn 0.003459516 -0.999994 -6.164501E-05
vn 0.003451458 -0.999994 -6.020459E-05
vn -0.003459515 0.999994 6.215187E-05
vn -0.003460531 0.999994 6.105425E-05
vn -0.003465557 0.999994 6.160406E-05
vn -0.003460628 0.999994 6.01544E-05
vn -0.0034593 0.999994 6.020068E-05
vn -0.003469026 0.999994 6.019609E-05
vn -0.003458685 0.999994 5.761581E-05
vn 0.4343084 0.001557754 -0.9007629
vn 0.434308 0.001557752 -0.900763
vn 0.7821221 0.002743672 -0.6231191
vn 0.7821222 0.002743672 -0.6231191
vn 0.9750274 0.003386152 -0.2220586
vn 0.9750274 0.003386152 -0.2220588
vn 0.9748164 0.003357944 0.2229834
vn 0.9748165 0.003357945 0.222983
vn 0.7815314 0.002664664 0.6238602
vn 0.781531 0.002664662 0.6238607
vn 0.4334534 0.001443594 0.9011748
vn 0.4334547 0.001443598 0.9011742
vn -0.0004746875 -6.339898E-05 0.9999999
vn -0.0004733487 -6.339434E-05 0.9999999
vn -0.4343078 -0.001557802 0.9007632
vn -0.4343086 -0.001557805 0.9007629
vn -0.7821223 -0.002743717 0.6231191
vn -0.7821222 -0.002743716 0.623119
vn -0.9750274 -0.003386226 0.2220587
vn -0.9750275 -0.003386226 0.2220586
vn -0.9748165 -0.003358025 -0.222983
vn -0.9748164 -0.003358024 -0.2229835
vn -0.781531 -0.002664739 -0.6238607
vn -0.7815313 -0.00266474 -0.6238602
vn -0.433454 -0.001443685 -0.9011746
vn -0.4334539 -0.001443685 -0.9011746
vn 0.0004734488 6.329951E-05 -0.9999999
vn 0.0004747917 6.330415E-05 -0.9999999
vn 0.434308 0.001557752 -0.900763
vn 0.4343084 0.001557754 -0.9007629
vn -0.003456206 0.999994 6.197689E-05
vn -0.003461322 0.999994 6.295156E-05
vn -0.003461322 0.999994 6.295156E-05
vn -0.003456206 0.999994 6.197689E-05
vn -0.003457534 0.999994 6.225172E-05
vn -0.003457533 0.999994 6.225173E-05
vn -0.003463553 0.999994 6.248439E-05
vn -0.003463553 0.999994 6.248438E-05
vn -0.003463994 0.999994 6.224888E-05
vn -0.003463994 0.999994 6.224888E-05
vn -0.003456206 0.999994 6.197717E-05
vn -0.003456207 0.999994 6.197719E-05
vn -0.003461322 0.999994 6.295169E-05
vn -0.003461322 0.999994 6.295169E-05
vn 0.003463553 -0.999994 -6.248441E-05
vn 0.003463994 -0.999994 -6.224887E-05
vn 0.003463994 -0.999994 -6.224887E-05
vn 0.003463553 -0.999994 -6.248442E-05
vn 0.003456207 -0.999994 -6.19771E-05
vn 0.003456206 -0.999994 -6.19771E-05
vn 0.003461322 -0.999994 -6.295156E-05
vn 0.003461322 -0.999994 -6.295156E-05
vn 0.003457533 -0.999994 -6.225174E-05
vn 0.003463553 -0.999994 -6.248441E-05
vn 0.003463553 -0.999994 -6.248442E-05
vn 0.003457533 -0.999994 -6.225174E-05
vn 0.003456206 -0.999994 -6.197689E-05
vn 0.003456206 -0.999994 -6.197691E-05
vn 0.003461322 -0.999994 -6.295169E-05
vn 0.003461322 -0.999994 -6.29517E-05
g stock_870_fab_defense_agr_870_stock_tube_LOD1_0
f 3/3/3 2/2/2 1/1/1
f 1/1/1 4/4/4 3/3/3
f 4/4/4 5/5/5 3/3/3
f 6/6/6 4/4/4 1/1/1
f 7/7/7 6/6/6 1/1/1
f 8/8/8 6/6/6 7/7/7
f 9/9/9 8/8/8 7/7/7
f 3/3/3 10/10/10 2/2/2
f 10/10/10 11/11/11 2/2/2
f 10/10/10 12/12/12 11/11/11
f 12/12/12 13/13/13 11/11/11
f 16/16/16 15/15/15 14/14/14
f 17/17/17 16/16/16 14/14/14
f 18/18/18 16/16/16 17/17/17
f 19/19/19 18/18/18 17/17/17
f 20/20/20 18/18/18 19/19/19
f 19/19/19 21/21/21 20/20/20
f 22/22/22 18/18/18 20/20/20
f 21/21/21 23/23/23 20/20/20
f 23/23/23 24/24/24 20/20/20
f 23/23/23 25/25/25 24/24/24
f 25/25/25 26/26/26 24/24/24
f 29/29/29 28/28/28 27/27/27
f 27/27/27 30/30/30 29/29/29
f 31/31/31 28/28/28 29/29/29
f 34/34/34 33/33/33 32/32/32
f 35/35/35 34/34/34 32/32/32
f 36/36/36 35/35/35 32/32/32
f 39/39/39 38/38/38 37/37/37
f 40/40/40 39/39/39 37/37/37
f 37/37/37 38/38/38 41/41/41
f 38/38/38 42/42/42 41/41/41
f 45/45/45 44/44/44 43/43/43
f 44/44/44 45/45/45 46/46/46
f 46/46/46 47/47/47 44/44/44
f 47/47/47 48/48/48 44/44/44
f 49/49/49 46/46/46 45/45/45
f 52/52/52 51/51/51 50/50/50
f 52/52/52 53/53/53 51/51/51
f 53/53/53 52/52/52 54/54/54
f 55/55/55 54/54/54 52/52/52
f 55/55/55 52/52/52 56/56/56
f 59/59/59 58/58/58 57/57/57
f 60/60/60 59/59/59 57/57/57
f 59/59/59 61/61/61 58/58/58
f 64/64/64 63/63/63 62/62/62
f 65/65/65 63/63/63 64/64/64
f 64/64/64 66/66/66 65/65/65
f 64/64/64 67/67/67 66/66/66
f 68/68/68 63/63/63 65/65/65
f 71/71/71 70/70/70 69/69/69
f 72/72/72 71/71/71 69/69/69
f 73/73/73 71/71/71 72/72/72
f 74/74/74 73/73/73 72/72/72
f 75/75/75 73/73/73 74/74/74
f 76/76/76 75/75/75 74/74/74
f 77/77/77 75/75/75 76/76/76
f 78/78/78 77/77/77 76/76/76
f 79/79/79 77/77/77 78/78/78
f 80/80/80 79/79/79 78/78/78
f 81/81/81 79/79/79 80/80/80
f 82/82/82 81/81/81 80/80/80
f 83/83/83 81/81/81 82/82/82
f 84/84/84 83/83/83 82/82/82
f 85/85/85 83/83/83 84/84/84
f 86/86/86 85/85/85 84/84/84
f 87/87/87 85/85/85 86/86/86
f 88/88/88 87/87/87 86/86/86
f 89/89/89 87/87/87 88/88/88
f 90/90/90 89/89/89 88/88/88
f 91/91/91 89/89/89 90/90/90
f 92/92/92 91/91/91 90/90/90
f 93/93/93 91/91/91 92/92/92
f 94/94/94 93/93/93 92/92/92
f 95/95/95 93/93/93 94/94/94
f 96/96/96 95/95/95 94/94/94
f 97/97/97 95/95/95 96/96/96
f 98/98/98 97/97/97 96/96/96
f 101/101/101 100/100/100 99/99/99
f 102/102/102 101/101/101 99/99/99
f 102/102/102 99/99/99 103/103/103
f 104/104/104 102/102/102 103/103/103
f 104/104/104 103/103/103 105/105/105
f 106/106/106 104/104/104 105/105/105
f 106/106/106 105/105/105 107/107/107
f 105/105/105 108/108/108 107/107/107
f 108/108/108 109/109/109 107/107/107
f 109/109/109 110/110/110 107/107/107
f 109/109/109 111/111/111 110/110/110
f 111/111/111 112/112/112 110/110/110
f 115/115/115 114/114/114 113/113/113
f 116/116/116 115/115/115 113/113/113
f 115/115/115 117/117/117 114/114/114
f 117/117/117 118/118/118 114/114/114
f 117/117/117 119/119/119 118/118/118
f 119/119/119 120/120/120 118/118/118
f 123/123/123 122/122/122 121/121/121
f 124/124/124 123/123/123 121/121/121
f 124/124/124 121/121/121 125/125/125
f 121/121/121 126/126/126 125/125/125
f 126/126/126 127/127/127 125/125/125
f 127/127/127 128/128/128 125/125/125
