g stock_ar15_strike_industries_advanced_receiver_extension_LOD1
v 0.01504092 0.1844959 0.0003144821
v 0.01504082 -0.01400683 0.0003143871
v 0.01059999 -0.01400685 0.01103551
v 0.01060009 0.1844959 0.0110356
v -0.0001211269 -0.01400683 0.01547634
v -0.0001210323 0.1844959 0.01547643
v 0.01060009 0.1844959 -0.01040664
v 0.01059999 -0.01400683 -0.01040673
v 0.005239458 0.04333648 -0.01262712
v 0.005239531 0.1844959 -0.01262705
v -0.0001210996 0.04333648 -0.01484754
v -0.0001211269 -0.01400683 -0.01484756
v 0.005239458 0.04333648 -0.01262712
v 0.005239531 0.1844959 -0.01262705
v 0.005239531 0.1844959 -0.01753428
v 0.00523946 0.04747638 -0.01753434
v 0.005239458 0.04333648 -0.01262712
v 0.00523946 0.04747638 -0.01753434
v -0.0001210996 0.04333648 -0.01484754
v -0.005481655 0.04747638 -0.01753434
v -0.005481657 0.04333648 -0.01262712
v -0.005481653 0.05190553 -0.02290997
v 0.005239463 0.05190552 -0.02290997
v 0.006752057 0.05573814 -0.02290997
v 0.006752057 0.05571985 -0.01753434
v 0.006752124 0.1844959 -0.01753428
v 0.006752124 0.1844959 -0.0229099
v 0.005239463 0.05190552 -0.02290997
v 0.006752057 0.05573814 -0.02290997
v 0.006752124 0.1844959 -0.0229099
v -0.005481653 0.05190553 -0.02290997
v -0.006994188 0.1844959 -0.0229099
v -0.006994243 0.05573815 -0.02290997
v 0.006752124 0.1844959 -0.0229099
v 0.006752124 0.1844959 -0.01753428
v 0.005239531 0.1844959 -0.01753428
v -0.006994188 0.1844959 -0.0229099
v -0.005481595 0.1844959 -0.01753428
v -0.005481595 0.1844959 -0.01262705
v 0.005239531 0.1844959 -0.01262705
v -0.006994188 0.1844959 -0.01753428
v 0.01060009 0.1844959 -0.01040664
v -0.01084215 0.1844959 -0.01040664
v 0.01504092 0.1844959 0.0003144821
v -0.01528299 0.1844959 0.0003144821
v -0.01084215 0.1844959 0.0110356
v 0.01060009 0.1844959 0.0110356
v -0.0001210323 0.1844959 0.01547643
v 0.005239531 0.1844959 -0.01753428
v 0.006752124 0.1844959 -0.01753428
v 0.006752057 0.05571985 -0.01753434
v 0.00523946 0.04747638 -0.01753434
v 0.00523946 0.04747638 -0.01753434
v 0.006752057 0.05571985 -0.01753434
v 0.006752057 0.05573814 -0.02290997
v 0.005239463 0.05190552 -0.02290997
v 0.01059999 -0.01400685 0.01103551
v -0.01084224 -0.01400683 0.01103551
v -0.0001211269 -0.01400683 0.01547634
v 0.01504082 -0.01400683 0.0003143871
v -0.01528307 -0.01400683 0.0003143871
v -0.01084224 -0.01400681 -0.01040673
v 0.01059999 -0.01400683 -0.01040673
v -0.0001211269 -0.01400683 -0.01484756
v -0.01528299 0.1844959 0.0003144821
v -0.01084215 0.1844959 0.0110356
v -0.01084224 -0.01400683 0.01103551
v -0.01528307 -0.01400683 0.0003143871
v -0.0001211269 -0.01400683 0.01547634
v -0.0001210323 0.1844959 0.01547643
v -0.01084215 0.1844959 -0.01040664
v -0.01084224 -0.01400681 -0.01040673
v -0.005481657 0.04333648 -0.01262712
v -0.005481595 0.1844959 -0.01262705
v -0.0001210996 0.04333648 -0.01484754
v -0.0001211269 -0.01400683 -0.01484756
v -0.005481595 0.1844959 -0.01753428
v -0.005481595 0.1844959 -0.01262705
v -0.005481657 0.04333648 -0.01262712
v -0.005481655 0.04747638 -0.01753434
v -0.006994188 0.1844959 -0.01753428
v -0.006994243 0.05571985 -0.01753434
v -0.006994243 0.05573815 -0.02290997
v -0.006994188 0.1844959 -0.0229099
v -0.005481595 0.1844959 -0.01753428
v -0.005481655 0.04747638 -0.01753434
v -0.006994243 0.05571985 -0.01753434
v -0.006994188 0.1844959 -0.01753428
v -0.005481655 0.04747638 -0.01753434
v -0.005481653 0.05190553 -0.02290997
v -0.006994243 0.05573815 -0.02290997
v -0.006994243 0.05571985 -0.01753434
vt 0.7596728 0.01657347
vt 0.7596728 0.9832325
vt 0.8726946 0.9832325
vt 0.8726943 0.01657347
vt 0.9857591 0.9830688
vt 0.9857591 0.01640977
vt 0.6466509 0.01657347
vt 0.6466509 0.9832325
vt 0.59014 0.7039847
vt 0.59014 0.01657347
vt 0.5336727 0.7038212
vt 0.5336727 0.9830688
vt 0.3777619 0.7029219
vt 0.3777619 0.01551063
vt 0.3299679 0.01551063
vt 0.329968 0.6827618
vt 0.1826866 0.979794
vt 0.1795124 0.9484738
vt 0.1277558 0.9728928
vt 0.07486621 0.9491141
vt 0.07316473 0.9804378
vt 0.0740681 0.9151708
vt 0.1787139 0.9145056
vt 0.2628801 0.6425291
vt 0.3152361 0.6426181
vt 0.315236 0.01551063
vt 0.2628801 0.01551063
vt 0.2481482 0.6611931
vt 0.2628801 0.6425291
vt 0.2628801 0.01551063
vt 0.1437298 0.6611931
vt 0.1289978 0.01551063
vt 0.1289978 0.6425291
vt 0.4414642 0.9882541
vt 0.4414642 0.9620762
vt 0.4267324 0.9620762
vt 0.3075821 0.9882541
vt 0.3223138 0.9620762
vt 0.3223138 0.9381791
vt 0.4267324 0.9381791
vt 0.3075821 0.9620762
vt 0.4789417 0.9273664
vt 0.2701046 0.9273664
vt 0.522193 0.8751573
vt 0.2268533 0.8751573
vt 0.2701046 0.822948
vt 0.4789417 0.822948
vt 0.3745232 0.8013223
vt 0.3299679 0.01551063
vt 0.315236 0.01551063
vt 0.3152361 0.6426181
vt 0.329968 0.6827618
vt 0.1795124 0.9484738
vt 0.2427296 0.9225657
vt 0.2100816 0.9021907
vt 0.1787139 0.9145056
vt 0.2648968 0.8071632
vt 0.05606034 0.8071632
vt 0.1604786 0.8287889
vt 0.3081484 0.754954
vt 0.01280894 0.754954
vt 0.05606034 0.7027447
vt 0.2648968 0.7027447
vt 0.1604786 0.6811191
vt 0.7597594 0.01624603
vt 0.8727807 0.01624603
vt 0.872781 0.9829051
vt 0.7597594 0.9829051
vt 0.9857591 0.9830688
vt 0.9857591 0.01640977
vt 0.6467376 0.01624603
vt 0.6467374 0.9829051
vt 0.5902268 0.7036574
vt 0.5902268 0.01624603
vt 0.5336727 0.7038212
vt 0.5336727 0.9830688
vt 0.06191009 0.01551063
vt 0.01411618 0.01551063
vt 0.01411608 0.7029219
vt 0.06190997 0.6827618
vt 0.07664203 0.01551063
vt 0.07664191 0.6426181
vt 0.1289978 0.6425291
vt 0.1289978 0.01551063
vt 0.06191009 0.01551063
vt 0.06190997 0.6827618
vt 0.07664191 0.6426181
vt 0.07664203 0.01551063
vt 0.07486621 0.9491141
vt 0.0740681 0.9151708
vt 0.04213109 0.9032775
vt 0.01045015 0.9240309
vn 1 -5.219888E-07 0
vn 1 -5.219889E-07 0
vn 0.7071068 -6.968602E-07 0.7071068
vn 0.7071068 -6.968602E-07 0.7071068
vn 0 -4.784023E-07 1
vn 0 -4.784023E-07 1
vn 0.7071068 0 -0.7071068
vn 0.7071066 0 -0.7071069
vn 0.3826833 2.426412E-07 -0.9238795
vn 0.3826833 2.383601E-07 -0.9238796
vn -1.026798E-07 4.70016E-07 -1
vn 0 4.700159E-07 -1
vn 1 -5.206695E-07 0
vn 1 -5.206695E-07 0
vn 1 -5.206695E-07 0
vn 1 -5.206695E-07 0
vn 0.2580459 -0.7384492 -0.6229809
vn 0.07128546 -0.7201969 -0.6900977
vn -2.182076E-07 -0.6702343 -0.7421496
vn -0.07128612 -0.720197 -0.6900975
vn -0.2580469 -0.7384496 -0.6229799
vn -3.442171E-07 -0.7717782 -0.6358917
vn -3.442171E-07 -0.7717782 -0.6358917
vn 1 -5.230634E-07 0
vn 1 -5.230634E-07 0
vn 1 -5.230634E-07 0
vn 1 -5.230634E-07 0
vn 1.88566E-06 4.999536E-07 -1
vn 1.88566E-06 4.999536E-07 -1
vn 1.88566E-06 4.999536E-07 -1
vn 0 5.214662E-07 -1
vn 0 5.214661E-07 -1
vn -1.885659E-06 4.999554E-07 -1
vn 0 1 0
vn 0 1 0
vn 0 1 0
vn 0 1 1.774072E-06
vn 4.150606E-07 1 9.259708E-07
vn 5.39108E-07 1 3.53347E-07
vn 5.39108E-07 1 3.533471E-07
vn 0 1 1.774072E-06
vn 5.594049E-07 1 3.706369E-07
vn 5.594048E-07 1 3.706369E-07
vn 5.526821E-07 1 4.447643E-07
vn 5.526821E-07 1 4.447643E-07
vn 5.346958E-07 1 5.495963E-07
vn 5.346958E-07 1 5.495963E-07
vn 4.447642E-07 1 1.073756E-06
vn -3.051999E-07 -4.664398E-07 1
vn -3.051999E-07 -4.664398E-07 1
vn -3.051999E-07 -4.664398E-07 1
vn -3.051999E-07 -4.664399E-07 1
vn 0.9651619 -0.2417831 -0.1000172
vn 0.9651619 -0.2417831 -0.1000172
vn 0.9651619 -0.2417831 -0.1000172
vn 0.9651619 -0.2417831 -0.1000172
vn -4.553007E-07 -1 -3.833548E-07
vn -4.553007E-07 -1 -3.833548E-07
vn -8.895292E-07 -1 2.147513E-06
vn -3.68455E-07 -1 -8.895286E-07
vn -3.68455E-07 -1 -8.895286E-07
vn -4.553007E-07 -1 -3.83355E-07
vn -4.553007E-07 -1 -3.83355E-07
vn -8.895292E-07 -1 2.147513E-06
vn -1 4.265884E-07 0
vn -0.7071068 0 0.7071068
vn -0.7071069 0 0.7071066
vn -1 4.265884E-07 1.026798E-07
vn 0 -4.784023E-07 1
vn 0 -4.784023E-07 1
vn -0.7071066 6.377859E-07 -0.7071068
vn -0.7071068 6.456997E-07 -0.7071068
vn -0.3826833 6.079646E-07 -0.9238795
vn -0.3826833 6.024216E-07 -0.9238796
vn -1.026798E-07 4.70016E-07 -1
vn 0 4.700159E-07 -1
vn -1 4.349626E-07 0
vn -1 4.349626E-07 0
vn -1 4.349626E-07 0
vn -1 4.349626E-07 0
vn -1 4.304858E-07 0
vn -1 4.304858E-07 0
vn -1 4.304858E-07 0
vn -1 4.304858E-07 0
vn 3.051999E-07 -4.664401E-07 1
vn 3.051999E-07 -4.664401E-07 1
vn 3.051999E-07 -4.6644E-07 1
vn 3.051999E-07 -4.664401E-07 1
vn -0.9651621 -0.2417822 -0.1000177
vn -0.9651621 -0.2417822 -0.1000177
vn -0.9651621 -0.2417822 -0.1000177
vn -0.9651621 -0.2417822 -0.1000177
g stock_ar15_strike_industries_advanced_receiver_extension_LOD1_0
f 3/3/3 2/2/2 1/1/1
f 4/4/4 3/3/3 1/1/1
f 5/5/5 3/3/3 4/4/4
f 6/6/6 5/5/5 4/4/4
f 1/1/1 2/2/2 7/7/7
f 2/2/2 8/8/8 7/7/7
f 8/8/8 9/9/9 7/7/7
f 9/9/9 10/10/10 7/7/7
f 11/11/11 9/9/9 8/8/8
f 12/12/12 11/11/11 8/8/8
f 15/15/15 14/14/14 13/13/13
f 16/16/16 15/15/15 13/13/13
f 19/19/19 18/18/18 17/17/17
f 20/20/20 18/18/18 19/19/19
f 20/20/20 19/19/19 21/21/21
f 18/18/18 20/20/20 22/22/22
f 23/23/23 18/18/18 22/22/22
f 26/26/26 25/25/25 24/24/24
f 27/27/27 26/26/26 24/24/24
f 30/30/30 29/29/29 28/28/28
f 28/28/28 31/31/31 30/30/30
f 31/31/31 32/32/32 30/30/30
f 33/33/33 32/32/32 31/31/31
f 36/36/36 35/35/35 34/34/34
f 34/34/34 37/37/37 36/36/36
f 37/37/37 38/38/38 36/36/36
f 38/38/38 39/39/39 36/36/36
f 39/39/39 40/40/40 36/36/36
f 41/41/41 38/38/38 37/37/37
f 40/40/40 39/39/39 42/42/42
f 39/39/39 43/43/43 42/42/42
f 42/42/42 43/43/43 44/44/44
f 43/43/43 45/45/45 44/44/44
f 45/45/45 46/46/46 44/44/44
f 46/46/46 47/47/47 44/44/44
f 47/47/47 46/46/46 48/48/48
f 51/51/51 50/50/50 49/49/49
f 52/52/52 51/51/51 49/49/49
f 55/55/55 54/54/54 53/53/53
f 56/56/56 55/55/55 53/53/53
f 59/59/59 58/58/58 57/57/57
f 57/57/57 58/58/58 60/60/60
f 58/58/58 61/61/61 60/60/60
f 60/60/60 61/61/61 62/62/62
f 63/63/63 60/60/60 62/62/62
f 63/63/63 62/62/62 64/64/64
f 67/67/67 66/66/66 65/65/65
f 68/68/68 67/67/67 65/65/65
f 67/67/67 69/69/69 66/66/66
f 69/69/69 70/70/70 66/66/66
f 68/68/68 65/65/65 71/71/71
f 72/72/72 68/68/68 71/71/71
f 72/72/72 71/71/71 73/73/73
f 71/71/71 74/74/74 73/73/73
f 72/72/72 73/73/73 75/75/75
f 76/76/76 72/72/72 75/75/75
f 79/79/79 78/78/78 77/77/77
f 80/80/80 79/79/79 77/77/77
f 83/83/83 82/82/82 81/81/81
f 84/84/84 83/83/83 81/81/81
f 87/87/87 86/86/86 85/85/85
f 88/88/88 87/87/87 85/85/85
f 91/91/91 90/90/90 89/89/89
f 92/92/92 91/91/91 89/89/89
