g stock_mosin_izhmash_mosin_carabine_sawn_off_wood_LOD1
v -0.02185807 -0.07563831 0.007567336
v -0.02185807 -0.1022593 -0.02567209
v -0.02070725 -0.0104883 -0.03111611
v -0.02185808 -0.1482413 0.007446337
v -0.01816779 -0.2342116 -0.02619057
v -0.02185808 -0.1548613 0.01431614
v -0.01992176 -0.0137813 0.01446654
v -0.02185806 -0.0643593 0.01439564
v -0.0009388566 -0.01878731 -0.03900086
v -0.0009388709 -0.1111393 -0.0335568
v -0.01692691 -0.3732041 0.01402004
v -0.01692691 -0.3734274 -0.004663364
v -0.0009388924 -0.2332411 -0.03381604
v -0.0009389138 -0.3737487 -0.01281766
v 0.01629001 -0.2342116 -0.02619057
v 0.01504919 -0.3734274 -0.004663364
v 0.01998043 -0.1022593 -0.02567209
v 0.01504919 -0.3732041 0.01402004
v 0.01998042 -0.1636383 0.01431614
v 0.01882964 -0.0104883 -0.03111611
v 0.01998044 -0.04614931 0.01439564
v 0.01906644 -0.0137813 0.01446654
v -0.01834485 0.0265637 -0.006170963
v -0.02070725 -0.0104883 -0.03111611
v -0.01560784 0.09094868 -0.03749256
v -0.01992176 -0.0137813 0.01446654
v -0.009640951 0.0205637 -0.001610262
v -0.000938847 0.04242271 -0.006840163
v -0.0009388399 0.0822007 -0.02260478
v -0.0009388375 0.09943169 -0.0229714
v -0.0009388494 0.03020769 -0.004457164
v -0.0009388328 0.1225287 -0.01398926
v -0.01444333 0.1210617 -0.03094022
v -0.01879523 0.1174467 -0.07270196
v -0.0009388351 0.1164817 -0.08384536
v -0.0009388566 -0.01878731 -0.03900086
v 0.01882964 -0.0104883 -0.03111611
v 0.01691767 0.1174467 -0.07270196
v 0.01373026 0.09094868 -0.03749256
v 0.01646725 0.0265637 -0.006170963
v 0.01906644 -0.0137813 0.01446654
v 0.00776335 0.0205637 -0.001610262
v -0.000938847 0.04242271 -0.006840163
v -0.0009388399 0.0822007 -0.02260478
v -0.0009388375 0.09943169 -0.0229714
v -0.0009388494 0.03020769 -0.004457164
v -0.0009388328 0.1225287 -0.01398926
v 0.01256577 0.1210617 -0.03094022
v -0.01992176 -0.0137813 0.01446654
v -0.009640951 0.0205637 -0.001610262
v -0.01003646 -0.007664299 0.002358737
v -0.02185806 -0.0643593 0.01439564
v -0.009902968 -0.0800523 0.001999137
v -0.009902968 -0.0800523 0.001999137
v -0.01003646 -0.007664299 0.002358737
v -0.009640951 0.0148127 -0.006265264
v -0.009640951 0.0205637 -0.001610262
v -0.009902968 -0.0800523 0.001999137
v -0.02185807 -0.07563831 0.007567336
v -0.02185806 -0.0643593 0.01439564
v 0.01906644 -0.0137813 0.01446654
v 0.008158846 -0.007664299 0.002358737
v 0.00776335 0.0205637 -0.001610262
v 0.008025339 -0.0466493 0.001679337
v 0.01998044 -0.04614931 0.01439564
v 0.008025339 -0.0466493 0.001679337
v 0.007763348 0.0148127 -0.006265264
v 0.008158846 -0.007664299 0.002358737
v 0.00776335 0.0205637 -0.001610262
v -0.0009388494 0.02312069 -0.009924963
v -0.0009388542 -0.007664299 -0.003964365
v -0.009640951 0.0148127 -0.006265264
v -0.009902968 -0.0800523 0.001999137
v -0.01503077 -0.1481613 0.007306137
v 0.007763348 0.0148127 -0.006265264
v 0.008025339 -0.0466493 0.001679337
v 0.008333419 -0.1611333 0.002734938
v -0.0009389138 -0.3738166 0.005713336
v -0.008532014 -0.3738166 0.009781837
v 0.006654286 -0.3738166 0.009781837
v -0.01684868 -0.1548613 0.01434374
v -0.01004051 -0.3738166 0.01438254
v 0.01497102 -0.1636383 0.01434374
v 0.008162787 -0.3738166 0.01438254
v -0.0009388494 0.03020769 -0.004457164
v 0.00776335 0.0205637 -0.001610262
v -0.0009388494 0.02312069 -0.009924963
v 0.007763348 0.0148127 -0.006265264
v -0.009640951 0.0205637 -0.001610262
v -0.009640951 0.0148127 -0.006265264
v -0.02185807 -0.07563831 0.007567336
v -0.009902968 -0.0800523 0.001999137
v -0.02185808 -0.1482413 0.007446337
v -0.01503077 -0.1481613 0.007306137
v -0.01503077 -0.1481613 0.007306137
v -0.01684868 -0.1548613 0.01434374
v -0.02185808 -0.1482413 0.007446337
v -0.02185808 -0.1548613 0.01431614
v -0.0009389138 -0.3738166 0.005713336
v 0.006654286 -0.3738166 0.009781837
v -0.0009389138 -0.3737487 -0.01281766
v 0.01504919 -0.3734274 -0.004663364
v 0.01504919 -0.3732041 0.01402004
v -0.008532014 -0.3738166 0.009781837
v -0.01692691 -0.3734274 -0.004663364
v -0.01692691 -0.3732041 0.01402004
v -0.01004051 -0.3738166 0.01438254
v 0.008162787 -0.3738166 0.01438254
v -0.02185808 -0.1548613 0.01431614
v -0.01684868 -0.1548613 0.01434374
v -0.01004051 -0.3738166 0.01438254
v -0.01692691 -0.3732041 0.01402004
v 0.01998042 -0.1636383 0.01431614
v 0.008162787 -0.3738166 0.01438254
v 0.01497102 -0.1636383 0.01434374
v 0.01504919 -0.3732041 0.01402004
v -0.0009388328 0.1315817 -0.02022118
v -0.01201253 0.1307427 -0.03414774
v 0.01013497 0.1307427 -0.03414774
v -0.01060273 0.1286757 -0.06845826
v 0.008725066 0.1286757 -0.06845826
v -0.0009388328 0.1281237 -0.07761336
v -0.01879523 0.1174467 -0.07270196
v -0.0009388351 0.1164817 -0.08384536
v -0.01060273 0.1286757 -0.06845826
v -0.0009388328 0.1281237 -0.07761336
v -0.01444333 0.1210617 -0.03094022
v -0.01201253 0.1307427 -0.03414774
v -0.0009388328 0.1315817 -0.02022118
v -0.0009388328 0.1225287 -0.01398926
v -0.0009388328 0.1225287 -0.01398926
v -0.0009388328 0.1315817 -0.02022118
v 0.01256577 0.1210617 -0.03094022
v 0.01013497 0.1307427 -0.03414774
v 0.008725066 0.1286757 -0.06845826
v 0.01691767 0.1174467 -0.07270196
v -0.0009388328 0.1281237 -0.07761336
v -0.0009388351 0.1164817 -0.08384536
v 0.01497102 -0.1636383 0.01434374
v 0.01998044 -0.04614931 0.01439564
v 0.01998042 -0.1636383 0.01431614
v 0.008025339 -0.0466493 0.001679337
v 0.01998044 -0.04614931 0.01439564
v 0.008333419 -0.1611333 0.002734938
v 0.01497102 -0.1636383 0.01434374
vt 0.0503818 0.192756
vt 0.127821 0.255598
vt 0.125513 0.025
vt 0.0503818 0.379024
vt 0.142748 0.594757
vt 0.0268258 0.395498
vt 0.0268258 0.025
vt 0.0268258 0.166651
vt 0.176033 0.025
vt 0.180583 0.27581
vt 0.0268258 0.975
vt 0.114332 0.975
vt 0.18408 0.590607
vt 0.184313 0.975
vt 0.225474 0.593619
vt 0.254139 0.975
vt 0.232816 0.254592
vt 0.328781 0.975
vt 0.328781 0.413651
vt 0.226293 0.025
vt 0.329716 0.11508
vt 0.329716 0.025
vt 0.676633 0.353137
vt 0.781181 0.274496
vt 0.466258 0.337694
vt 0.781181 0.387892
vt 0.69074 0.387892
vt 0.624675 0.387892
vt 0.502771 0.387892
vt 0.458289 0.394453
vt 0.659111 0.387892
vt 0.354652 0.426609
vt 0.354652 0.37433
vt 0.354652 0.273678
vt 0.354652 0.225945
vt 0.781181 0.22451
vt 0.781181 0.17478
vt 0.354652 0.178229
vt 0.46473 0.113498
vt 0.674632 0.0966343
vt 0.781181 0.0624303
vt 0.687737 0.0624303
vt 0.622088 0.0624303
vt 0.50066 0.0624303
vt 0.45618 0.0567526
vt 0.656114 0.0624303
vt 0.354652 0.025
vt 0.354652 0.0773786
vt 0.550046 0.562911
vt 0.650782 0.51567
vt 0.570094 0.51567
vt 0.406692 0.562911
vt 0.365388 0.51567
vt 0.703874 0.601537
vt 0.689844 0.781873
vt 0.710362 0.839042
vt 0.698352 0.85425
vt 0.95801 0.338855
vt 0.951014 0.305121
vt 0.915552 0.294868
vt 0.465508 0.850986
vt 0.445656 0.810072
vt 0.365388 0.810072
vt 0.555312 0.810072
vt 0.556741 0.850986
vt 0.743089 0.591204
vt 0.750777 0.432481
vt 0.732164 0.491487
vt 0.737938 0.417536
vt 0.849601 0.025
vt 0.848823 0.0958332
vt 0.877375 0.0425813
vt 0.877375 0.268096
vt 0.895096 0.430334
vt 0.821166 0.0430945
vt 0.821166 0.188774
vt 0.821166 0.461418
vt 0.843754 0.89322
vt 0.893286 0.89322
vt 0.800397 0.89322
vt 0.915313 0.447049
vt 0.915313 0.89322
vt 0.77928 0.470807
vt 0.77928 0.89322
vt 0.936691 0.0694077
vt 0.936691 0.0372667
vt 0.915552 0.0694077
vt 0.915552 0.0372667
vt 0.936691 0.101549
vt 0.915552 0.101549
vt 0.605203 0.858924
vt 0.634189 0.858924
vt 0.605203 0.687404
vt 0.634189 0.687404
vt 0.971979 0.0372667
vt 0.971979 0.0610878
vt 0.988673 0.0372667
vt 0.988673 0.0610878
vt 0.622352 0.634954
vt 0.643867 0.645002
vt 0.622404 0.58927
vt 0.66772 0.609405
vt 0.66772 0.65587
vt 0.600814 0.644965
vt 0.576989 0.609327
vt 0.576989 0.65587
vt 0.596536 0.65587
vt 0.648119 0.65587
vt 0.365388 0.920473
vt 0.365388 0.936233
vt 0.941544 0.936233
vt 0.941544 0.920473
vt 0.943765 0.368469
vt 0.960604 0.887275
vt 0.960604 0.368869
vt 0.943765 0.885217
vt 0.528357 0.628831
vt 0.488812 0.601537
vt 0.488812 0.656124
vt 0.391385 0.605012
vt 0.391385 0.65265
vt 0.365388 0.628831
vt 0.413451 0.687404
vt 0.365388 0.687404
vt 0.413451 0.716806
vt 0.365388 0.716806
vt 0.520417 0.687404
vt 0.520417 0.716806
vt 0.575664 0.716806
vt 0.575664 0.687404
vt 0.365388 0.748738
vt 0.365388 0.778136
vt 0.420628 0.748738
vt 0.420628 0.778136
vt 0.52758 0.778136
vt 0.52758 0.748738
vt 0.575637 0.778136
vt 0.575637 0.748738
vt 0.716774 0.41111
vt 0.441252 0.422858
vt 0.716774 0.422858
vt 0.690291 0.48875
vt 0.690291 0.445464
vt 0.366907 0.48875
vt 0.366907 0.445464
vn -0.9998485 0.01518309 -0.008508945
vn -0.8313346 -0.0223841 -0.5553214
vn -0.8632889 -0.01240518 -0.5045575
vn -0.9992551 -0.02438357 -0.02990869
vn -0.8106895 -0.05602372 -0.5827897
vn -0.9990089 -0.02940006 -0.03341987
vn -0.9994622 0.02974644 0.0138051
vn -0.9972664 0.03826753 -0.06320974
vn -1.026197E-06 -0.05462779 -0.9985067
vn -7.588384E-07 -0.02622854 -0.999656
vn -0.9999014 -0.01132896 -0.008303401
vn -0.8695804 -0.08301986 -0.4867622
vn 0 -0.06929094 -0.9975964
vn -1.131178E-06 -0.1564313 -0.9876888
vn 0.8097303 -0.05636321 -0.584089
vn 0.86958 -0.08301967 -0.4867632
vn 0.8311146 -0.02281052 -0.5556331
vn 0.9998945 -0.01149662 -0.008884531
vn 0.9991099 -0.02193947 -0.03602635
vn 0.8573974 -0.01555499 -0.5144198
vn 0.9998578 0.01410822 -0.009243342
vn 0.9995964 0.02823309 -0.003153231
vn -0.7681291 0.2808722 0.5754031
vn -0.8797817 -0.126589 -0.4582134
vn -0.9147949 0.04896644 0.4009396
vn -0.9679871 0.1432601 0.2061007
vn -0.1595987 0.4401409 0.8836313
vn -9.575042E-07 0.3722046 0.9281507
vn -1.687663E-06 0.2632394 0.9647306
vn -1.792454E-06 -0.2436136 0.9698723
vn -6.365643E-07 0.2602635 0.9655376
vn -1.495283E-06 -0.2503525 0.9681548
vn -0.9014343 -0.05847595 0.4289483
vn -0.8651644 -0.1515075 -0.4780544
vn -1.128346E-06 -0.3024518 -0.9531647
vn -9.042115E-07 -0.314679 -0.9491981
vn 0.8774796 -0.121454 -0.4639812
vn 0.8651637 -0.1515081 -0.4780555
vn 0.9147943 0.04896622 0.400941
vn 0.7672213 0.2862346 0.5739697
vn 0.9692166 0.1587204 0.1882203
vn 0.1582399 0.4417045 0.8830953
vn -9.575042E-07 0.3722046 0.9281507
vn -1.687663E-06 0.2632394 0.9647306
vn -1.792454E-06 -0.2436136 0.9698723
vn -6.365643E-07 0.2602635 0.9655376
vn -1.495283E-06 -0.2503525 0.9681548
vn 0.9014335 -0.05847678 0.4289503
vn 0.7749794 -0.001464215 0.6319848
vn 0.7514657 0.08152741 0.6547156
vn 0.7582336 0.04273992 0.6505806
vn 0.7261766 -0.005456655 0.6874866
vn 0.7184552 -0.002130459 0.69557
vn 0.9987501 0.001593621 0.04995747
vn 0.9988807 0.0005702981 0.04729635
vn 0.999768 -0.01034204 0.01889588
vn 0.9998201 -0.01193537 0.0147455
vn 0.2029111 -0.5071142 0.8376528
vn 0.2029111 -0.5071142 0.8376528
vn 0.2029111 -0.5071142 0.8376528
vn -0.7356097 0.01387502 0.6772634
vn -0.7290446 0.05103594 0.682561
vn -0.71788 0.08705814 0.690702
vn -0.7332175 -0.01815108 0.6797519
vn -0.7279667 -0.022057 0.6852576
vn -0.9986265 0.002507849 0.05233349
vn -0.9997726 -0.01046155 0.01858351
vn -0.998774 0.001410872 0.04948118
vn -0.9998201 -0.01193495 0.01474549
vn 4.259927E-07 0.1900899 0.9817666
vn -0.05350842 0.1118755 0.9922806
vn 0.1846475 0.1705672 0.9678906
vn 0.08648188 0.07115479 0.9937092
vn 0.6066002 0.02658685 0.7945625
vn -0.200824 0.1763934 0.9636156
vn -0.4844191 0.01524016 0.8747032
vn -0.4877773 0.02617647 0.8725755
vn 0.003116189 0.03170532 0.9994924
vn 0.7645919 0.02846423 0.6438859
vn -0.7661966 0.03411375 0.6417
vn 0.9602031 0.03068778 0.2776116
vn 0.949809 0.02958842 0.3114277
vn -0.8670457 0.02350694 0.4976738
vn -0.9497734 0.03082316 0.3114165
vn 1.873168E-06 -0.6108514 0.7917453
vn -0.6812335 -0.4558977 0.5727811
vn 3.285319E-06 -0.6166462 0.7872403
vn -0.6800436 -0.461276 0.5698817
vn 0.6812376 -0.4558954 0.572778
vn 0.6800476 -0.4612739 0.5698786
vn 0.4217509 -0.001511175 0.9067105
vn 0.4016712 0.002733762 0.9157799
vn 0.06899074 0.06741568 0.9953368
vn 0.01957863 0.07620364 0.9969001
vn 0.005697723 0.7235179 0.6902821
vn -0.0001946309 0.721395 0.6925239
vn 0.002814469 0.7224831 0.6913829
vn -0.003822986 0.7200718 0.6938891
vn -6.43518E-07 -0.9999933 -0.003664193
vn 0.04950821 -0.9987639 -0.004427925
vn -4.10954E-07 -0.999956 -0.009382268
vn 0.03660321 -0.9993138 -0.005652863
vn 0.07328108 -0.9973108 -0.001023348
vn -0.04950863 -0.9987639 -0.004427834
vn -0.03660363 -0.9993138 -0.005652616
vn -0.07328107 -0.9973108 -0.001023337
vn -0.08706612 -0.9957933 -0.02854764
vn 0.08706615 -0.9957933 -0.0285477
vn -0.006467981 -4.584329E-05 0.9999791
vn -0.005509422 5.894318E-06 0.9999849
vn -0.0520496 -0.002506403 0.9986413
vn -0.05279273 -0.002546524 0.9986022
vn 0.006508586 -5.004269E-05 0.9999789
vn 0.05202734 -0.002609835 0.9986423
vn 0.005509424 6.138654E-06 0.9999849
vn 0.05280219 -0.002653415 0.9986015
vn 0 0.9981902 -0.06013589
vn 0 0.9981902 -0.06013514
vn 0 0.9981902 -0.06013514
vn 0 0.9981893 -0.06015033
vn 0 0.9981893 -0.06015033
vn 0 0.9981874 -0.06018352
vn -0.664175 0.634173 -0.3958488
vn -0.5192702 0.480379 -0.7068199
vn -0.7375056 0.5711597 -0.3603639
vn -0.6286029 0.3670402 -0.6856675
vn -0.8787648 0.3687565 0.3029704
vn -0.9196897 0.3105372 0.2402867
vn -0.7382463 0.3794537 0.5576804
vn -0.7385699 0.382273 0.5553213
vn 0.7385675 0.3822746 0.5553235
vn 0.7382437 0.379455 0.5576828
vn 0.8787639 0.3687581 0.302971
vn 0.9196895 0.3105375 0.240287
vn 0.7377983 0.609041 -0.2910713
vn 0.7062224 0.5974426 -0.3798847
vn 0.4922719 0.4934388 -0.717068
vn 0.4646115 0.4179095 -0.780697
vn 0.005509424 -0.0006766554 0.9999846
vn 0.005509424 -0.0006766553 0.9999846
vn 0.005509424 -0.0006766553 0.9999846
vn -0.7286553 0.004353986 0.6848667
vn -0.7403876 0.006832459 0.6721454
vn -0.8543196 0.03394027 0.5186386
vn -0.8641064 0.03662146 0.5019752
g stock_mosin_izhmash_mosin_carabine_sawn_off_wood_LOD1_0
f 3/3/3 2/2/2 1/1/1
f 4/4/4 1/1/1 2/2/2
f 4/4/4 2/2/2 5/5/5
f 5/5/5 6/6/6 4/4/4
f 1/1/1 7/7/7 3/3/3
f 7/7/7 1/1/1 8/8/8
f 9/9/9 2/2/2 3/3/3
f 2/2/2 9/9/9 10/10/10
f 10/10/10 5/5/5 2/2/2
f 5/5/5 11/11/11 6/6/6
f 11/11/11 5/5/5 12/12/12
f 5/5/5 10/10/10 13/13/13
f 14/14/14 5/5/5 13/13/13
f 5/5/5 14/14/14 12/12/12
f 15/15/15 14/14/14 13/13/13
f 10/10/10 15/15/15 13/13/13
f 14/14/14 15/15/15 16/16/16
f 15/15/15 10/10/10 17/17/17
f 9/9/9 17/17/17 10/10/10
f 15/15/15 18/18/18 16/16/16
f 18/18/18 15/15/15 19/19/19
f 17/17/17 19/19/19 15/15/15
f 17/17/17 9/9/9 20/20/20
f 20/20/20 21/21/21 17/17/17
f 21/21/21 19/19/19 17/17/17
f 22/22/22 21/21/21 20/20/20
f 25/25/25 24/24/24 23/23/23
f 24/24/24 26/26/26 23/23/23
f 27/27/27 23/23/23 26/26/26
f 28/28/28 25/25/25 23/23/23
f 25/25/25 28/28/28 29/29/29
f 25/25/25 29/29/29 30/30/30
f 31/31/31 23/23/23 27/27/27
f 31/31/31 28/28/28 23/23/23
f 32/32/32 25/25/25 30/30/30
f 25/25/25 32/32/32 33/33/33
f 33/33/33 34/34/34 25/25/25
f 25/25/25 34/34/34 24/24/24
f 35/35/35 24/24/24 34/34/34
f 24/24/24 35/35/35 36/36/36
f 35/35/35 37/37/37 36/36/36
f 37/37/37 35/35/35 38/38/38
f 38/38/38 39/39/39 37/37/37
f 37/37/37 39/39/39 40/40/40
f 41/41/41 37/37/37 40/40/40
f 40/40/40 42/42/42 41/41/41
f 39/39/39 43/43/43 40/40/40
f 43/43/43 39/39/39 44/44/44
f 44/44/44 39/39/39 45/45/45
f 40/40/40 46/46/46 42/42/42
f 43/43/43 46/46/46 40/40/40
f 39/39/39 47/47/47 45/45/45
f 47/47/47 39/39/39 48/48/48
f 48/48/48 39/39/39 38/38/38
f 51/51/51 50/50/50 49/49/49
f 52/52/52 51/51/51 49/49/49
f 51/51/51 52/52/52 53/53/53
f 56/56/56 55/55/55 54/54/54
f 55/55/55 56/56/56 57/57/57
f 60/60/60 59/59/59 58/58/58
f 63/63/63 62/62/62 61/61/61
f 64/64/64 61/61/61 62/62/62
f 61/61/61 64/64/64 65/65/65
f 68/68/68 67/67/67 66/66/66
f 67/67/67 68/68/68 69/69/69
f 72/72/72 71/71/71 70/70/70
f 71/71/71 72/72/72 73/73/73
f 74/74/74 71/71/71 73/73/73
f 71/71/71 75/75/75 70/70/70
f 75/75/75 71/71/71 76/76/76
f 71/71/71 77/77/77 76/76/76
f 74/74/74 78/78/78 71/71/71
f 78/78/78 77/77/77 71/71/71
f 78/78/78 74/74/74 79/79/79
f 77/77/77 78/78/78 80/80/80
f 81/81/81 79/79/79 74/74/74
f 79/79/79 81/81/81 82/82/82
f 80/80/80 83/83/83 77/77/77
f 83/83/83 80/80/80 84/84/84
f 87/87/87 86/86/86 85/85/85
f 86/86/86 87/87/87 88/88/88
f 89/89/89 87/87/87 85/85/85
f 87/87/87 89/89/89 90/90/90
f 93/93/93 92/92/92 91/91/91
f 92/92/92 93/93/93 94/94/94
f 97/97/97 96/96/96 95/95/95
f 96/96/96 97/97/97 98/98/98
f 101/101/101 100/100/100 99/99/99
f 100/100/100 101/101/101 102/102/102
f 103/103/103 100/100/100 102/102/102
f 104/104/104 101/101/101 99/99/99
f 101/101/101 104/104/104 105/105/105
f 104/104/104 106/106/106 105/105/105
f 106/106/106 104/104/104 107/107/107
f 100/100/100 103/103/103 108/108/108
f 111/111/111 110/110/110 109/109/109
f 112/112/112 111/111/111 109/109/109
f 115/115/115 114/114/114 113/113/113
f 114/114/114 116/116/116 113/113/113
f 119/119/119 118/118/118 117/117/117
f 118/118/118 119/119/119 120/120/120
f 121/121/121 120/120/120 119/119/119
f 120/120/120 121/121/121 122/122/122
f 125/125/125 124/124/124 123/123/123
f 124/124/124 125/125/125 126/126/126
f 127/127/127 125/125/125 123/123/123
f 125/125/125 127/127/127 128/128/128
f 127/127/127 129/129/129 128/128/128
f 129/129/129 127/127/127 130/130/130
f 133/133/133 132/132/132 131/131/131
f 132/132/132 133/133/133 134/134/134
f 133/133/133 135/135/135 134/134/134
f 135/135/135 133/133/133 136/136/136
f 136/136/136 137/137/137 135/135/135
f 137/137/137 136/136/136 138/138/138
f 141/141/141 140/140/140 139/139/139
f 144/144/144 143/143/143 142/142/142
f 143/143/143 144/144/144 145/145/145
