g stock_vpo215_molot_vpo_215_std_wood_LOD1
v -0.008703065 -0.3152109 0.008466669
v -9.355499E-05 -0.3159056 -0.007342689
v -0.01901569 -0.3111485 -0.000720923
v 0.008515954 -0.3152109 0.008466669
v 0.01882858 -0.3111485 -0.000720923
v 0.01679475 -0.3015441 0.0178619
v -0.01698187 -0.3015441 0.0178619
v -0.009030242 -0.3075964 -0.01360748
v 0.008843131 -0.3075964 -0.01360748
v -0.007964833 0.2031172 -0.05655771
v -0.008729163 0.1841234 -0.03830756
v 0.008542052 0.1841234 -0.03830756
v 0.007777722 0.2031172 -0.05655771
v -0.00771364 0.2148598 -0.08875
v 0.007526529 0.2148598 -0.08875
v 0.008542051 0.1528717 -0.02875814
v -0.008729162 0.1528717 -0.02875814
v 0.02141608 0.09436534 -0.02698095
v -0.02160319 0.09436534 -0.02698095
v 0.02079345 -0.03996922 -0.01962196
v -0.02098056 -0.03996922 -0.01962196
v -0.01600124 -0.2790267 -0.008101546
v 0.01581413 -0.2790267 -0.008101546
v 0.008843131 -0.3075964 -0.01360748
v -0.009030242 -0.3075964 -0.01360748
v -9.355554E-05 0.2543747 -0.008045721
v -0.00723153 0.2538123 -0.01528874
v -0.008330333 0.2987133 -0.01304031
v -9.355554E-05 0.2987133 -0.005332911
v 0.007044419 0.2538123 -0.01528874
v 0.008143223 0.2987133 -0.01304031
v -9.355554E-05 0.4905255 -0.008887245
v -0.0130243 0.4905255 -0.01617045
v 0.01283719 0.4905255 -0.01617045
v -0.0130243 0.4905255 -0.01617045
v -0.02005666 0.4875191 -0.06801559
v 0.01986955 0.4875191 -0.06801559
v 0.01283719 0.4905255 -0.01617045
v 0.008758567 0.482764 -0.1266253
v -0.008945678 0.482764 -0.1266253
v 0.01283719 0.4905255 -0.01617045
v -9.355554E-05 0.4905255 -0.008887245
v -0.0130243 0.4905255 -0.01617045
v -0.008945678 0.482764 -0.1266253
v -0.008163482 0.2600518 -0.0695125
v 0.007976372 0.2600518 -0.0695125
v 0.008758567 0.482764 -0.1266253
v 0.01494077 0.256932 -0.0380462
v 0.007044419 0.2538123 -0.01528874
v 0.008143223 0.2987133 -0.01304031
v 0.01986955 0.4875191 -0.06801559
v 0.007976372 0.2600518 -0.0695125
v 0.008758567 0.482764 -0.1266253
v 0.01283719 0.4905255 -0.01617045
v -0.02005666 0.4875191 -0.06801559
v -0.0130243 0.4905255 -0.01617045
v -0.008330333 0.2987133 -0.01304031
v -0.01512788 0.256932 -0.0380462
v -0.008945678 0.482764 -0.1266253
v -0.008163482 0.2600518 -0.0695125
v -0.00723153 0.2538123 -0.01528874
v 0.013211 0.2349202 -0.04435315
v 0.005916667 0.2370926 -0.01607482
v 0.007044419 0.2538123 -0.01528874
v 0.01108364 0.2240197 -0.01200365
v 0.01767603 0.2087336 -0.03712478
v 0.01925302 0.1596673 -0.006874015
v 0.02128203 0.1442299 0.01786195
v 0.02154158 0.1356873 -0.009998155
v 0.02154158 -0.01911333 0.01786192
v 0.01221063 0.2473084 -0.0815426
v 0.007976372 0.2600518 -0.0695125
v 0.01603813 0.2237902 -0.08875
v 0.008542052 0.1841234 -0.03830756
v 0.007777722 0.2031172 -0.05655771
v 0.007526529 0.2148598 -0.08875
v 0.008542051 0.1528717 -0.02875814
v 0.02141608 0.09436534 -0.02698095
v 0.02079345 -0.03996922 -0.01962196
v 0.01411131 -0.2790265 0.01786188
v 0.01581413 -0.2790267 -0.008101546
v 0.01679475 -0.3015441 0.0178619
v 0.01882858 -0.3111485 -0.000720923
v 0.008843131 -0.3075964 -0.01360748
v 0.01494077 0.256932 -0.0380462
v 0.007044419 0.2538123 -0.01528874
v 0.005916667 0.2370926 -0.01607482
v -9.355554E-05 0.2543747 -0.008045721
v -0.006103778 0.2370926 -0.01705673
v -0.01127075 0.2240197 -0.01200365
v 0.01108364 0.2240197 -0.01200365
v -0.02172869 0.1442299 0.01388311
v 0.02128203 0.1442299 0.01786195
v -0.01462011 0.1362128 0.01519441
v -0.01465883 0.125077 0.01786195
v 0.02154158 -0.01911333 0.01786192
v -0.02172869 -0.01911333 0.01786192
v -0.02149839 0.1252785 0.01786194
v 0.01411131 -0.2790265 0.01786188
v -0.01429842 -0.2790265 0.01786188
v -0.01698187 -0.3015441 0.0178619
v 0.01679475 -0.3015441 0.0178619
v -0.02172869 0.136567 0.01513647
v -0.00723153 0.2538123 -0.01528874
v -0.00723153 0.2538123 -0.01528874
v -0.01339811 0.2349202 -0.04435315
v -0.01512788 0.256932 -0.0380462
v -0.008163482 0.2600518 -0.0695125
v -0.01239774 0.2473084 -0.0815426
v -0.01786314 0.2087336 -0.03712478
v -0.01127075 0.2240197 -0.01200365
v -0.006103778 0.2370926 -0.01705673
v -0.01944013 0.1596673 -0.006874015
v -0.02172869 0.1356873 -0.009998155
v -0.02172869 0.1442299 0.01388311
v -0.02162004 0.136567 -0.001475248
v -0.02172869 0.136567 0.01513647
v -0.02172869 0.1309231 -0.006326158
v -0.02160319 0.09436534 -0.02698095
v -0.008729162 0.1528717 -0.02875814
v -0.01622524 0.2237902 -0.08875
v -0.007964833 0.2031172 -0.05655771
v -0.008729163 0.1841234 -0.03830756
v -0.00771364 0.2148598 -0.08875
v -0.02172869 -0.01911333 0.01786192
v -0.02164016 0.1252785 -0.001475253
v -0.02149839 0.1252785 0.01786194
v -0.02098056 -0.03996922 -0.01962196
v -0.01600124 -0.2790267 -0.008101546
v -0.01429842 -0.2790265 0.01786188
v -0.01698187 -0.3015441 0.0178619
v -0.01901569 -0.3111485 -0.000720923
v -0.009030242 -0.3075964 -0.01360748
v -0.008163482 0.2600518 -0.0695125
v -0.01239774 0.2473084 -0.0815426
v 0.01221063 0.2473084 -0.0815426
v 0.007976372 0.2600518 -0.0695125
v 0.01603813 0.2237902 -0.08875
v -0.01622524 0.2237902 -0.08875
v 0.007526529 0.2148598 -0.08875
v -0.00771364 0.2148598 -0.08875
v -0.02162004 0.136567 -0.001475248
v -0.01624876 0.130839 0.0007853138
v -0.02172869 0.1309231 -0.006326158
v -0.02164016 0.1252785 -0.001475253
v -0.02149839 0.1252785 0.01786194
v -0.01465883 0.125077 0.01786195
v -0.01462011 0.1362128 0.01519441
v -0.02172869 0.136567 0.01513647
vt 0.8332303 0.6744711
vt 0.8562738 0.7007458
vt 0.8457491 0.6381949
vt 0.8332306 0.7255819
vt 0.8457494 0.76226
vt 0.8088472 0.7554463
vt 0.8088469 0.6443211
vt 0.8699545 0.6703538
vt 0.8699545 0.7319868
vt 0.8048218 0.04538512
vt 0.7643465 0.04303439
vt 0.7643459 0.09611271
vt 0.8048219 0.0937651
vt 0.8574775 0.04615688
vt 0.8574774 0.09299376
vt 0.7141325 0.09611204
vt 0.7141324 0.04303471
vt 0.624188 0.1356767
vt 0.6241889 0.003467247
vt 0.4174577 0.1337601
vt 0.4174577 0.00537768
vt 0.04969054 0.02067532
vt 0.04969017 0.1184512
vt 0.004981621 0.09702697
vt 0.004981621 0.04209796
vt 0.6284271 0.9471934
vt 0.6268532 0.9769239
vt 0.6945022 0.9801953
vt 0.6948411 0.947194
vt 0.6268532 0.9174637
vt 0.6945022 0.9141929
vt 0.9823902 0.9471945
vt 0.9824859 0.9934723
vt 0.9824859 0.9009161
vt 0.0344353 0.2693061
vt 0.02362244 0.4512553
vt 0.08497397 0.4512644
vt 0.07417469 0.269312
vt 0.06789355 0.631976
vt 0.0406892 0.6319718
vt 0.07417469 0.269312
vt 0.05430499 0.269309
vt 0.0344353 0.2693061
vt 0.2244772 0.9798254
vt 0.5777761 0.9774149
vt 0.5777761 0.9278139
vt 0.2244771 0.9254158
vt 0.7779771 0.7480077
vt 0.7884829 0.677128
vt 0.7213966 0.6501043
vt 0.4241856 0.7283962
vt 0.7660005 0.8436095
vt 0.4177001 0.9100541
vt 0.4321615 0.5697012
vt 0.3775577 0.7260954
vt 0.3575667 0.5681022
vt 0.0739328 0.6547051
vt 0.02466339 0.7535419
vt 0.3977879 0.9070225
vt 0.04388617 0.8485318
vt 0.008779329 0.6831442
vt 0.955916 0.2508522
vt 0.9550398 0.3414137
vt 0.9800206 0.3709718
vt 0.9333766 0.3450895
vt 0.913193 0.2623074
vt 0.834459 0.3463559
vt 0.8092429 0.4187399
vt 0.797122 0.3327511
vt 0.5591189 0.4187398
vt 0.9824772 0.1422089
vt 1.000231 0.1834012
vt 0.9480459 0.1104238
vt 0.8736306 0.2416042
vt 0.9049105 0.1940787
vt 0.929728 0.101093
vt 0.8243852 0.2635371
vt 0.7332383 0.281026
vt 0.526991 0.303592
vt 0.1595453 0.4195762
vt 0.1595604 0.339607
vt 0.1246982 0.4190101
vt 0.1099021 0.3615932
vt 0.1157568 0.3116665
vt 0.9890572 0.2777596
vt 0.8708076 0.1819442
vt 0.8419217 0.1898545
vt 0.8708075 0.2083267
vt 0.8419216 0.2267961
vt 0.8208815 0.2426757
vt 0.8208821 0.1739744
vt 0.691074 0.2748134
vt 0.6899678 0.142631
vt 0.6783917 0.2529818
vt 0.6605366 0.2530856
vt 0.4389713 0.1418296
vt 0.4389707 0.2748091
vt 0.6608459 0.2741052
vt 0.03958315 0.1646582
vt 0.03958243 0.2519679
vt 0.004981621 0.2602146
vt 0.004981652 0.1564108
vt 0.6789499 0.2748131
vt 0.8708073 0.2347093
vt 0.9804227 0.4743943
vt 0.9563187 0.594514
vt 0.9894593 0.5676075
vt 1.000634 0.6619657
vt 0.9828799 0.7031581
vt 0.9135953 0.5830588
vt 0.9337791 0.5002775
vt 0.9554428 0.5039528
vt 0.8348617 0.4990104
vt 0.7975198 0.5126594
vt 0.8097925 0.4393099
vt 0.798596 0.4866018
vt 0.7980135 0.435376
vt 0.7901717 0.501435
vt 0.7336408 0.5643407
vt 0.8247876 0.5818288
vt 0.9484484 0.7349421
vt 0.9053131 0.6512877
vt 0.874033 0.6037619
vt 0.9301311 0.7442728
vt 0.5595212 0.4266258
vt 0.7814667 0.4864747
vt 0.7806256 0.4266257
vt 0.5273933 0.5417738
vt 0.1599629 0.5057558
vt 0.1599477 0.4257873
vt 0.1251001 0.4263533
vt 0.1103044 0.483771
vt 0.1161591 0.5336962
vt 0.8476774 0.83957
vt 0.8746061 0.8525913
vt 0.8746063 0.7769644
vt 0.8476774 0.7899683
vt 0.9124032 0.7652128
vt 0.9124041 0.8643657
vt 0.9261259 0.7913758
vt 0.9261265 0.8382114
vt 0.4083436 0.6248493
vt 0.3923873 0.6087311
vt 0.392369 0.6452904
vt 0.3763986 0.6242136
vt 0.3763986 0.5592573
vt 0.3761511 0.5474726
vt 0.4076657 0.5560405
vt 0.4083326 0.5689319
vn -0.2436335 -0.8736281 0.4212084
vn 0 -0.907478 -0.4200996
vn -0.4756741 -0.8794075 -0.01940992
vn 0.2436335 -0.8736281 0.4212084
vn 0.4756741 -0.8794075 -0.01940992
vn 0.2691831 -0.6508656 0.7098694
vn -0.2691831 -0.6508656 0.7098694
vn -0.24261 -0.7366942 -0.6312069
vn 0.24261 -0.7366942 -0.6312069
vn 0 -0.8363812 -0.5481482
vn 0 -0.5044965 -0.8634137
vn 0 -0.5044965 -0.8634137
vn 0 -0.8363812 -0.5481482
vn 0 -0.9394504 -0.3426848
vn 0 -0.9394504 -0.3426848
vn 0 -0.1542067 -0.9880386
vn 0 -0.1542067 -0.9880386
vn 0 -0.0433917 -0.9990582
vn 0 -0.0433917 -0.9990582
vn 0 -0.05140255 -0.998678
vn 0 -0.05140255 -0.998678
vn 0 0.06065342 -0.9981589
vn 0 0.06065342 -0.9981589
vn 0 0.1892108 -0.9819365
vn 0 0.1892108 -0.9819365
vn 0 -0.06751905 0.997718
vn -0.6954147 -0.04844675 0.7169738
vn -0.6385722 -0.02059949 0.7692861
vn 0 -0.02670293 0.9996434
vn 0.6954147 -0.04844675 0.7169738
vn 0.6385722 -0.02059949 0.7692861
vn 0 0.008773893 0.9999615
vn -0.5779254 0.007247909 0.8160574
vn 0.5779254 0.007247909 0.8160574
vn 0 0.9984949 -0.05484663
vn 0 0.9977107 -0.06762686
vn 0 0.9977107 -0.06762686
vn 0 0.9984949 -0.05484663
vn 0 0.9967249 -0.08086707
vn 0 0.9967249 -0.08086707
vn 0 0.9984949 -0.05484663
vn 0 0.9984949 -0.05484663
vn 0 0.9984949 -0.05484663
vn 0 -0.2483432 -0.9686722
vn 0 -0.2483432 -0.9686722
vn 0 -0.2483432 -0.9686722
vn 0 -0.2483432 -0.9686722
vn 0.9955016 -0.0339507 0.088453
vn 0.9456694 -0.03929138 0.3227472
vn 0.9685758 -0.0003814698 0.2487183
vn 0.9988868 -0.03547656 -0.03108967
vn 0.9794192 -0.04978249 -0.1956013
vn 0.9794098 -0.04997275 -0.1955995
vn 0.9905116 -0.02212528 0.1356365
vn -0.9988868 -0.03547698 -0.03109004
vn -0.9905116 -0.02212528 0.1356365
vn -0.9685758 -0.0003814698 0.2487183
vn -0.9955016 -0.0339507 0.088453
vn -0.9794098 -0.04997275 -0.1955995
vn -0.9794192 -0.04978249 -0.1956013
vn -0.9456694 -0.03929138 0.3227472
vn 0.9909827 0.1142511 0.07000025
vn 0.9566342 0.1743323 0.233365
vn 0.9546953 -0.112343 0.2755647
vn 0.9576095 0.2422246 0.1559201
vn 0.9960781 -0.04138951 -0.07820137
vn 0.9935802 0.1052863 0.04138974
vn 0.9981716 0.06036809 -0.003027941
vn 0.9776804 0.05912765 -0.2016062
vn 0.999936 -0.01125345 -0.001168261
vn 0.9780474 0.2050364 0.03719265
vn 0.9834325 0.1794778 -0.02546258
vn 0.9605586 -0.2525251 -0.11644
vn 0.7472282 -0.2456628 -0.6174947
vn 0.8034474 -0.5343761 -0.2625156
vn 0.7010498 -0.6681536 -0.2491986
vn 0.7638566 -0.1152991 -0.6350034
vn 0.997021 0.02584463 -0.07267014
vn 0.999805 -0.01764292 0.008869141
vn 0.9979248 0.04692078 0.04409552
vn 0.9978172 0.0225067 -0.06208418
vn 0.9920884 0.1110056 0.05863793
vn 0.9604831 0.02632147 -0.2770907
vn 0.7790801 -0.07018987 -0.6229827
vn 0.9925525 -0.09860913 0.071525
vn 0.7067866 -0.08068094 0.7028109
vn 0.06780057 0.008010898 0.9976667
vn -0.01021854 -0.2355549 0.9718072
vn -0.1538231 0.004768414 0.9880869
vn -0.04465291 0.3295685 0.9430751
vn -0.04468859 0.329568 0.9430736
vn -0.05369247 0.222304 0.9734979
vn -0.04591902 0.1856788 0.981537
vn -0.08831037 0.1525881 0.9843364
vn -0.02853861 0.05350095 0.9981599
vn 0 0 1
vn 0 0 1
vn 0 0 1
vn 0 0 1
vn 0 0 1
vn 0 0 1
vn 0 0 1
vn 0 0.1613632 0.9868951
vn -0.7022377 -0.121498 0.7014987
vn -0.9517236 -0.1224508 0.2814747
vn -0.9908574 0.1146305 0.07114337
vn -0.9925525 -0.09860913 0.071525
vn -0.9834325 0.1794778 -0.02546258
vn -0.9780474 0.2050364 0.03719265
vn -0.9960781 -0.04138951 -0.07820137
vn -0.9567429 0.2445234 0.1576432
vn -0.9547347 0.1739458 0.2412973
vn -0.9938176 0.1056677 0.0340702
vn -0.9773216 0.0576017 -0.2037756
vn -0.9982771 0.05607575 -0.01727333
vn -0.9993522 -0.03318776 0.0139236
vn -0.9999781 -0.001144412 -0.006532688
vn -0.9999876 0.002288792 0.004434534
vn -0.9970464 0.02594004 -0.07228879
vn -0.7638566 -0.1152991 -0.6350034
vn -0.9605586 -0.2525251 -0.11644
vn -0.8034474 -0.5343761 -0.2625156
vn -0.7472282 -0.2456628 -0.6174947
vn -0.7010498 -0.6681536 -0.2491986
vn -0.9999371 -0.0111581 -0.001168262
vn -0.999851 0.002861009 0.017023
vn -0.9999719 0.001621241 0.007331347
vn -0.999805 -0.01764292 0.008869141
vn -0.9978172 0.0225067 -0.06208418
vn -0.9979248 0.04692078 0.04409552
vn -0.9920884 0.1110056 0.05863793
vn -0.9604831 0.02632147 -0.2770907
vn -0.7790801 -0.07018987 -0.6229827
vn 0 0.6865536 -0.7270793
vn 0 0.476833 -0.8789939
vn 0 0.476833 -0.8789939
vn 0 0.6865536 -0.7270793
vn 0 0.1884442 -0.9820839
vn 0 0.1884442 -0.9820839
vn 0 0 -1
vn 0 0 -1
vn -0.6089468 -0.7017158 0.369836
vn -0.9046335 0.02098088 0.4256735
vn -0.792107 9.536851E-05 0.6103823
vn -0.5899121 0.7179465 0.3695355
vn -0.4209297 0.8926428 0.161267
vn -0.7613631 0.6284032 0.1594851
vn -0.8501876 -0.500855 0.162251
vn -0.4573051 -0.8722198 0.173507
g stock_vpo215_molot_vpo_215_std_wood_LOD1_0
f 3/3/3 2/2/2 1/1/1
f 2/2/2 4/4/4 1/1/1
f 2/2/2 5/5/5 4/4/4
f 4/4/4 6/6/6 1/1/1
f 4/4/4 5/5/5 6/6/6
f 6/6/6 7/7/7 1/1/1
f 7/7/7 3/3/3 1/1/1
f 3/3/3 8/8/8 2/2/2
f 8/8/8 9/9/9 2/2/2
f 2/2/2 9/9/9 5/5/5
f 12/12/12 11/11/11 10/10/10
f 13/13/13 12/12/12 10/10/10
f 13/13/13 10/10/10 14/14/14
f 15/15/15 13/13/13 14/14/14
f 12/12/12 16/16/16 11/11/11
f 16/16/16 17/17/17 11/11/11
f 16/16/16 18/18/18 17/17/17
f 18/18/18 19/19/19 17/17/17
f 18/18/18 20/20/20 19/19/19
f 20/20/20 21/21/21 19/19/19
f 22/22/22 21/21/21 20/20/20
f 23/23/23 22/22/22 20/20/20
f 23/23/23 24/24/24 22/22/22
f 24/24/24 25/25/25 22/22/22
f 28/28/28 27/27/27 26/26/26
f 29/29/29 28/28/28 26/26/26
f 29/29/29 26/26/26 30/30/30
f 31/31/31 29/29/29 30/30/30
f 28/28/28 29/29/29 32/32/32
f 33/33/33 28/28/28 32/32/32
f 29/29/29 31/31/31 34/34/34
f 32/32/32 29/29/29 34/34/34
f 37/37/37 36/36/36 35/35/35
f 35/35/35 38/38/38 37/37/37
f 37/37/37 39/39/39 36/36/36
f 39/39/39 40/40/40 36/36/36
f 43/43/43 42/42/42 41/41/41
f 46/46/46 45/45/45 44/44/44
f 47/47/47 46/46/46 44/44/44
f 50/50/50 49/49/49 48/48/48
f 51/51/51 50/50/50 48/48/48
f 51/51/51 48/48/48 52/52/52
f 53/53/53 51/51/51 52/52/52
f 54/54/54 50/50/50 51/51/51
f 57/57/57 56/56/56 55/55/55
f 58/58/58 57/57/57 55/55/55
f 58/58/58 55/55/55 59/59/59
f 60/60/60 58/58/58 59/59/59
f 61/61/61 57/57/57 58/58/58
f 64/64/64 63/63/63 62/62/62
f 62/62/62 63/63/63 65/65/65
f 62/62/62 65/65/65 66/66/66
f 66/66/66 65/65/65 67/67/67
f 67/67/67 65/65/65 68/68/68
f 67/67/67 68/68/68 69/69/69
f 69/69/69 66/66/66 67/67/67
f 68/68/68 70/70/70 69/69/69
f 62/62/62 66/66/66 71/71/71
f 62/62/62 71/71/71 72/72/72
f 66/66/66 73/73/73 71/71/71
f 69/69/69 74/74/74 66/66/66
f 74/74/74 75/75/75 66/66/66
f 66/66/66 75/75/75 73/73/73
f 75/75/75 76/76/76 73/73/73
f 69/69/69 77/77/77 74/74/74
f 69/69/69 78/78/78 77/77/77
f 69/69/69 70/70/70 78/78/78
f 78/78/78 70/70/70 79/79/79
f 70/70/70 80/80/80 79/79/79
f 80/80/80 81/81/81 79/79/79
f 82/82/82 81/81/81 80/80/80
f 82/82/82 83/83/83 81/81/81
f 81/81/81 83/83/83 84/84/84
f 85/85/85 62/62/62 72/72/72
f 64/64/64 62/62/62 85/85/85
f 88/88/88 87/87/87 86/86/86
f 89/89/89 87/87/87 88/88/88
f 89/89/89 90/90/90 87/87/87
f 90/90/90 91/91/91 87/87/87
f 90/90/90 92/92/92 91/91/91
f 92/92/92 93/93/93 91/91/91
f 94/94/94 93/93/93 92/92/92
f 93/93/93 94/94/94 95/95/95
f 95/95/95 96/96/96 93/93/93
f 97/97/97 96/96/96 95/95/95
f 97/97/97 95/95/95 98/98/98
f 99/99/99 96/96/96 97/97/97
f 100/100/100 99/99/99 97/97/97
f 100/100/100 101/101/101 99/99/99
f 101/101/101 102/102/102 99/99/99
f 92/92/92 103/103/103 94/94/94
f 104/104/104 89/89/89 88/88/88
f 107/107/107 106/106/106 105/105/105
f 108/108/108 106/106/106 107/107/107
f 108/108/108 109/109/109 106/106/106
f 109/109/109 110/110/110 106/106/106
f 111/111/111 106/106/106 110/110/110
f 111/111/111 112/112/112 106/106/106
f 106/106/106 112/112/112 105/105/105
f 110/110/110 113/113/113 111/111/111
f 110/110/110 114/114/114 113/113/113
f 113/113/113 114/114/114 115/115/115
f 113/113/113 115/115/115 111/111/111
f 114/114/114 116/116/116 115/115/115
f 115/115/115 116/116/116 117/117/117
f 114/114/114 118/118/118 116/116/116
f 119/119/119 118/118/118 114/114/114
f 120/120/120 119/119/119 114/114/114
f 109/109/109 121/121/121 110/110/110
f 121/121/121 122/122/122 110/110/110
f 122/122/122 123/123/123 110/110/110
f 123/123/123 120/120/120 114/114/114
f 110/110/110 123/123/123 114/114/114
f 121/121/121 124/124/124 122/122/122
f 125/125/125 118/118/118 119/119/119
f 126/126/126 118/118/118 125/125/125
f 126/126/126 125/125/125 127/127/127
f 128/128/128 125/125/125 119/119/119
f 128/128/128 129/129/129 125/125/125
f 129/129/129 130/130/130 125/125/125
f 129/129/129 131/131/131 130/130/130
f 129/129/129 132/132/132 131/131/131
f 133/133/133 132/132/132 129/129/129
f 136/136/136 135/135/135 134/134/134
f 137/137/137 136/136/136 134/134/134
f 136/136/136 138/138/138 135/135/135
f 138/138/138 139/139/139 135/135/135
f 138/138/138 140/140/140 139/139/139
f 140/140/140 141/141/141 139/139/139
f 144/144/144 143/143/143 142/142/142
f 145/145/145 143/143/143 144/144/144
f 145/145/145 146/146/146 143/143/143
f 146/146/146 147/147/147 143/143/143
f 148/148/148 143/143/143 147/147/147
f 149/149/149 142/142/142 143/143/143
f 148/148/148 149/149/149 143/143/143
