g stock_mr133_std_long_LOD1
v -6.937115E-08 0.002622518 0.0248208
v 0.006387565 0.03194603 0.008548479
v 0.008006065 0.002391481 0.02268848
v -6.937115E-08 0.03295846 0.01040744
v 0.01351113 0.0297047 0.004433093
v 0.01351113 0.001880007 0.01796788
v 0.01586694 0.02655912 -0.001342606
v 0.01647469 0.001162195 0.01134282
v 0.005348518 0.0596776 -0.007488084
v -6.937115E-08 0.06084824 -0.005724425
v 0.01170327 0.05708615 -0.01139247
v 0.01351121 0.05344916 -0.01687204
v 0.00373696 0.08227096 -0.01239866
v -6.937115E-08 0.0820892 -0.0102897
v 0.009397285 0.08267341 -0.0170675
v 0.01176377 0.08323819 -0.02361993
v -6.937115E-08 0.09041373 -0.007817168
v 0.002474525 0.0923491 -0.009166837
v 0.004986503 0.09603313 -0.01229005
v 0.01046342 0.1125658 -0.01601822
v 0.005500038 0.1005001 -0.004620194
v 0.008480919 0.1161393 -0.007066951
v 0.004820563 0.09696601 -0.002291946
v -6.937115E-08 0.09379741 -0.0003670549
v -0.003737099 0.08227096 -0.01239866
v -0.005348732 0.0596776 -0.007488084
v -0.009397499 0.08267341 -0.0170675
v -0.01170341 0.05708615 -0.01139247
v -0.006387703 0.03194603 0.008548479
v -0.008006356 0.002391491 0.02268848
v -0.01351142 0.0297047 0.004433093
v -0.01351142 0.001880016 0.01796788
v -0.01586723 0.02655912 -0.001342606
v -0.01647498 0.001162205 0.01134281
v -0.01351142 0.05344916 -0.01687204
v -0.01176391 0.08323819 -0.02361993
v -0.00247474 0.0923491 -0.009166837
v -0.004986718 0.09603313 -0.01229005
v -0.004820626 0.09696601 -0.002291946
v -0.004536202 0.1003028 -0.0006934309
v -0.0055001 0.1005001 -0.004620194
v -0.008481133 0.1161393 -0.007066951
v -0.004876702 0.1208467 -0.002096887
v -6.937115E-08 0.09640557 0.001339326
v -6.937115E-08 0.1223049 -9.579659E-06
v 0.004876563 0.1208467 -0.002096887
v 0.004535987 0.1003028 -0.0006934309
v -0.01046371 0.1125658 -0.01601822
v 0.01647469 0.001162195 0.01134282
v 0.01586694 0.01815356 -0.0200563
v 0.01647469 -0.001915617 -0.0175757
v 0.01586694 0.02655912 -0.001342606
v 0.01450127 0.03865427 -0.02838535
v 0.01351121 0.05344916 -0.01687204
v -6.937115E-08 0.01713158 -0.02596091
v 0.01215424 -0.002568807 -0.02360366
v -6.937115E-08 -0.002783995 -0.02437179
v -6.937115E-08 0.03220678 -0.03317088
v -6.937115E-08 0.04795396 -0.04669231
v 0.01246224 0.05651106 -0.04225464
v 0.01176377 0.08323819 -0.02361993
v 0.0147802 0.0650968 -0.05602115
v 6.922785E-09 0.05604666 -0.06160405
v 0.01666589 0.08547641 -0.05228335
v 0.01295952 0.1105604 -0.04768269
v 0.01227723 0.1092874 -0.02270965
v 0.02185502 0.32564 -0.06633355
v 0.01891038 0.32564 -0.04397151
v 0.01046342 0.1125658 -0.01601822
v 0.008480919 0.1161393 -0.007066951
v 0.01539361 0.32564 -0.03381467
v 0.004876563 0.1208467 -0.002096887
v 0.008006065 0.32564 -0.02640156
v -6.937115E-08 0.1223049 -9.579659E-06
v -6.937115E-08 0.32564 -0.02431425
v 0.0179844 0.32564 -0.1189879
v 0.01370713 0.1141106 -0.06164883
v 0.01310059 0.32564 -0.1376632
v 0.009046333 0.1141106 -0.06574327
v 0.007671897 0.32564 -0.1442994
v 6.922785E-09 0.1141106 -0.06844782
v -6.937115E-08 0.32564 -0.1474682
v 0.01518365 0.1049286 -0.06684635
v 6.922785E-09 0.105998 -0.06965765
v 6.922785E-09 0.08821345 -0.07602438
v 0.01777947 0.08732367 -0.07415657
v 6.922785E-09 0.07491873 -0.08003542
v 0.01777947 0.08732367 -0.07415657
v 0.01363541 0.07035773 -0.07869634
v 6.922785E-09 0.06156962 -0.08072273
v 0.01363541 0.07035773 -0.07869634
v 6.922785E-09 0.06156962 -0.08072273
v 6.922785E-09 0.05604666 -0.06160405
v 0.008006065 0.32564 -0.02640156
v -0.01539367 0.32564 -0.03381467
v 0.01539361 0.32564 -0.03381467
v -0.008006203 0.32564 -0.02640156
v -6.937115E-08 0.32564 -0.02431425
v -0.01891044 0.32564 -0.04397151
v 0.01891038 0.32564 -0.04397151
v -0.02185508 0.32564 -0.06633355
v 0.02185502 0.32564 -0.06633355
v 0.0179844 0.32564 -0.1189879
v -0.01798461 0.32564 -0.1189879
v 0.01310059 0.32564 -0.1376632
v -0.01310065 0.32564 -0.1376632
v 0.007671897 0.32564 -0.1442994
v -0.007672036 0.32564 -0.1442994
v -6.937115E-08 0.32564 -0.1474682
v -0.01647498 0.001162205 0.01134281
v -0.01586723 0.01815356 -0.0200563
v -0.01586723 0.02655912 -0.001342606
v -0.01647498 -0.001915607 -0.0175757
v -0.01450156 0.03865427 -0.02838535
v -0.01351142 0.05344916 -0.01687204
v -6.937115E-08 0.01713158 -0.02596091
v -0.01215446 -0.002568807 -0.02360365
v -6.937115E-08 -0.002783995 -0.02437179
v -6.937115E-08 0.03220678 -0.03317088
v -0.01246246 0.05651106 -0.04225464
v -0.01176391 0.08323819 -0.02361993
v -0.01478042 0.0650968 -0.05602115
v 6.922785E-09 0.05604666 -0.06160405
v -0.01666518 0.08550048 -0.05227892
v -0.01295959 0.1105604 -0.04768269
v -0.01227744 0.1092874 -0.02270965
v -0.02185508 0.32564 -0.06633355
v -0.01891044 0.32564 -0.04397151
v -0.01046371 0.1125658 -0.01601822
v -0.008481133 0.1161393 -0.007066951
v -0.01539367 0.32564 -0.03381467
v -0.004876702 0.1208467 -0.002096887
v -0.008006203 0.32564 -0.02640156
v -6.937115E-08 0.1223049 -9.579659E-06
v -6.937115E-08 0.32564 -0.02431425
v -0.01798461 0.32564 -0.1189879
v -0.01370712 0.1141106 -0.06164883
v -0.01310065 0.32564 -0.1376632
v -0.00904609 0.1141106 -0.06574327
v -0.007672036 0.32564 -0.1442994
v 6.922785E-09 0.1141106 -0.06844782
v -6.937115E-08 0.32564 -0.1474682
v -0.01518363 0.1049286 -0.06684635
v 6.922785E-09 0.105998 -0.06965765
v 6.922785E-09 0.08821345 -0.07602438
v -0.01777938 0.08732367 -0.07415657
v 6.922785E-09 0.07491873 -0.08003542
v -0.01777938 0.08732367 -0.07415657
v -0.01363532 0.07035773 -0.07869634
v 6.922785E-09 0.06156962 -0.08072273
v -0.01363532 0.07035773 -0.07869634
v 6.922785E-09 0.06156962 -0.08072273
v 6.922785E-09 0.05604666 -0.06160405
v -6.937115E-08 0.002622518 0.0248208
v 0.008006065 0.002391481 0.02268848
v -0.008006356 0.002391491 0.02268848
v -0.01351142 0.001880016 0.01796788
v 0.01351113 0.001880007 0.01796788
v -0.01647498 0.001162205 0.01134281
v 0.01647469 0.001162195 0.01134282
v -0.01647498 -0.001915607 -0.0175757
v 0.01647469 -0.001915617 -0.0175757
v -0.01215446 -0.002568807 -0.02360365
v -6.937115E-08 -0.002783995 -0.02437179
v -6.937115E-08 -0.002783995 -0.02437179
v 0.01215424 -0.002568807 -0.02360366
vt 0.1197951 0.1714075
vt 0.2412121 0.1217263
vt 0.1215295 0.1131147
vt 0.2425838 0.1683633
vt 0.2384298 0.06141891
vt 0.1262858 0.06244908
vt 0.2369189 0.01125054
vt 0.1339438 0.01210663
vt 0.3594569 0.1211363
vt 0.3624085 0.1653862
vt 0.3528089 0.06313411
vt 0.3463217 0.01497853
vt 0.4462177 0.122235
vt 0.445772 0.1633221
vt 0.4475944 0.06107136
vt 0.4503442 0.008437845
vt 0.4808704 0.1624557
vt 0.4860977 0.1289356
vt 0.4981479 0.08730126
vt 0.5562855 0.01633973
vt 0.5252488 0.1166712
vt 0.5796494 0.07198671
vt 0.516754 0.1328601
vt 0.507892 0.1617885
vt 0.4467242 0.2043738
vt 0.360005 0.2097688
vt 0.4488558 0.2654516
vt 0.3540772 0.2680811
vt 0.2417902 0.2150535
vt 0.1222516 0.2295984
vt 0.2397566 0.2754817
vt 0.1276347 0.2800142
vt 0.2388686 0.3257096
vt 0.1359148 0.329962
vt 0.3481886 0.3165427
vt 0.4522552 0.3179337
vt 0.4865075 0.1957071
vt 0.4990668 0.2367341
vt 0.5171055 0.1902714
vt 0.5290942 0.1856362
vt 0.5257956 0.2060373
vt 0.5807307 0.2480243
vt 0.6023825 0.2045087
vt 0.515366 0.1616048
vt 0.6091578 0.1592931
vt 0.6018298 0.114424
vt 0.5287958 0.1369047
vt 0.5580618 0.3048047
vt 0.05669331 0.9897984
vt 0.09178106 0.7927175
vt 0.03525395 0.8282019
vt 0.1230771 0.894767
vt 0.1502882 0.730718
vt 0.1951353 0.7908023
vt 0.07677463 0.6988088
vt 0.02932901 0.7898588
vt 0.02162496 0.7235367
vt 0.1184439 0.6593073
vt 0.1634407 0.5878353
vt 0.201823 0.6418914
vt 0.2807536 0.754277
vt 0.2304987 0.5646516
vt 0.1879684 0.502623
vt 0.2901831 0.5908627
vt 0.3635646 0.6216687
vt 0.3570065 0.7599438
vt 0.9902356 0.5637239
vt 0.9868303 0.7086895
vt 0.3642769 0.7932969
vt 0.3722631 0.8339549
vt 0.9844314 0.7837726
vt 0.3842948 0.8683746
vt 0.9822474 0.8472198
vt 0.3878784 0.8992989
vt 0.9816741 0.8950765
vt 0.9943674 0.245305
vt 0.376633 0.5388073
vt 0.9949092 0.1197497
vt 0.3786007 0.4989397
vt 0.996139 0.06129876
vt 0.3792049 0.4428996
vt 0.9939746 0.01306396
vt 0.3471698 0.5109124
vt 0.3616403 0.4258353
vt 0.3093832 0.3775609
vt 0.2973944 0.4722557
vt 0.2626201 0.3629951
vt 0.2973944 0.4722557
vt 0.2535308 0.4420568
vt 0.2176943 0.3906085
vt 0.2535308 0.4420568
vt 0.2176943 0.3906085
vt 0.1879684 0.502623
vt 0.04072015 0.6830993
vt 0.1059172 0.6417934
vt 0.02013977 0.6417854
vt 0.08533238 0.6831036
vt 0.06302571 0.6947337
vt 0.1157172 0.5851877
vt 0.01034363 0.5851819
vt 0.1239228 0.4605691
vt 0.002140707 0.4605687
vt 0.01292284 0.1671624
vt 0.1131372 0.1671573
vt 0.02652719 0.06309564
vt 0.09952717 0.06308901
vt 0.04165063 0.02611417
vt 0.08440074 0.02610992
vt 0.06302494 0.008454492
vt 0.05669331 0.9897984
vt 0.09178106 0.7927175
vt 0.1230771 0.894767
vt 0.03525395 0.8282019
vt 0.1502882 0.730718
vt 0.1951353 0.7908023
vt 0.07677463 0.6988088
vt 0.02932901 0.7898588
vt 0.02162496 0.7235367
vt 0.1184439 0.6593073
vt 0.201823 0.6418914
vt 0.2807536 0.754277
vt 0.2304987 0.5646516
vt 0.1879684 0.502623
vt 0.2901831 0.5908627
vt 0.3635646 0.6216687
vt 0.3570065 0.7599438
vt 0.9902356 0.5637239
vt 0.9868303 0.7086895
vt 0.3642769 0.7932969
vt 0.3722631 0.8339549
vt 0.9844314 0.7837726
vt 0.3842948 0.8683746
vt 0.9822474 0.8472198
vt 0.3878784 0.8992989
vt 0.9816741 0.8950765
vt 0.9943674 0.245305
vt 0.376633 0.5388073
vt 0.9949092 0.1197497
vt 0.3786007 0.4989397
vt 0.996139 0.06129876
vt 0.3792049 0.4428996
vt 0.9939746 0.01306396
vt 0.3471698 0.5109124
vt 0.3616403 0.4258353
vt 0.3093832 0.3775609
vt 0.2973944 0.4722557
vt 0.2626201 0.3629951
vt 0.2973944 0.4722557
vt 0.2535308 0.4420568
vt 0.2176943 0.3906085
vt 0.2535308 0.4420568
vt 0.2176943 0.3906085
vt 0.1879684 0.502623
vt 0.3687736 0.8884617
vt 0.3620511 0.8380698
vt 0.3619995 0.9388267
vt 0.3470419 0.973436
vt 0.3471307 0.8033996
vt 0.3260635 0.9920388
vt 0.3261771 0.784706
vt 0.2345635 0.9918314
vt 0.2346821 0.7844981
vt 0.2155011 0.9645996
vt 0.2130613 0.8881103
vt 0.2130613 0.8881103
vt 0.2155877 0.8116309
vn 2.167221E-06 0.4409848 0.8975145
vn 0.433273 0.4347728 0.7894601
vn 0.4255104 0.4004039 0.8115525
vn 0 0.4695532 0.8829042
vn 0.7882228 0.3160051 0.5280584
vn 0.7643273 0.2894973 0.5761901
vn 0.9827617 0.1204067 0.1402916
vn 0.9618215 0.141521 0.2342461
vn 0.4852671 0.3378682 0.8064495
vn 2.33596E-06 0.3649451 0.931029
vn 0.8353236 0.2476481 0.4908205
vn 0.990058 0.1104827 0.08705567
vn 0.5736511 0.004972082 0.8190846
vn 0 -0.03433629 0.9994103
vn 0.8262138 0.06270508 0.5598559
vn 0.9798231 0.02283512 0.1985581
vn 7.58239E-06 -0.5808616 0.8140024
vn 0.7776799 -0.3869301 0.4954785
vn 0.8606386 -0.1832684 0.4750937
vn 0.9583101 -0.06138097 0.2790591
vn 0.9731882 -0.1674468 0.1576908
vn 0.9181666 -0.02508866 0.3953993
vn 0.8331069 -0.3989047 0.3831553
vn -0.01152953 -0.7718792 0.6356646
vn -0.5736473 0.004970509 0.8190873
vn -0.4852675 0.3378677 0.8064495
vn -0.826216 0.06270273 0.559853
vn -0.8353217 0.2476502 0.4908228
vn -0.4332688 0.4347744 0.7894614
vn -0.4255076 0.4004053 0.8115533
vn -0.7882199 0.3160084 0.5280607
vn -0.7643274 0.2894973 0.5761901
vn -0.9827616 0.1204076 0.1402914
vn -0.9618215 0.1415209 0.2342459
vn -0.9900572 0.1104878 0.08705946
vn -0.9798238 0.02282964 0.1985548
vn -0.7903112 -0.3514036 0.50192
vn -0.8441541 -0.1833075 0.5037879
vn -0.8423739 -0.4015309 0.359415
vn -0.7286801 -0.08876029 0.679078
vn -0.966543 -0.2121441 0.1441858
vn -0.9181639 -0.025089 0.3954056
vn -0.6378598 0.05718437 0.7680265
vn -0.02798467 -0.3312477 0.9431288
vn 0 0.0859837 0.9962965
vn 0.6378634 0.05718322 0.7680237
vn 0.7318795 -0.07675408 0.6770976
vn -0.95831 -0.06138233 0.2790596
vn 0.9618215 0.141521 0.2342461
vn 0.8614227 -0.0437968 -0.5059969
vn 0.9536252 -0.008311041 -0.300882
vn 0.9827617 0.1204067 0.1402916
vn 0.8799302 -0.2008013 -0.4305828
vn 0.990058 0.1104827 0.08705567
vn 1.547814E-06 -0.1753179 -0.984512
vn 0.4776869 -0.02260765 -0.8782392
vn 0 -0.07954001 -0.9968317
vn 2.23607E-06 -0.5335895 -0.8457437
vn 1.66002E-06 -0.7495646 -0.6619312
vn 0.916409 -0.3201771 -0.2401689
vn 0.9798231 0.02283512 0.1985581
vn 0.8911981 -0.441845 -0.102659
vn 4.524969E-06 -0.9278145 -0.3730422
vn 0.9937273 0.004518034 0.1117392
vn 0.9975349 0.03313763 0.06185465
vn 0.9874572 -0.02389459 0.1560686
vn 0.9992234 -0.03433554 0.0193338
vn 0.9751735 -0.004866254 0.2213892
vn 0.9583101 -0.06138097 0.2790591
vn 0.9181666 -0.02508866 0.3953993
vn 0.8577253 0.04000023 0.5125497
vn 0.6378634 0.05718322 0.7680237
vn 0.507402 0.09613825 0.8563297
vn 0 0.0859837 0.9962965
vn 0 0.1186853 0.992932
vn 0.9818817 -0.07056606 -0.1758656
vn 0.9572515 0.08061193 -0.2777972
vn 0.8582693 -0.1738753 -0.482847
vn 0.4487751 0.008929149 -0.8936002
vn 0.5449092 -0.2909442 -0.7864003
vn -3.544642E-06 -0.1077329 -0.9941798
vn 0 -0.349946 -0.9367699
vn 0.7808108 0.3080737 -0.5435302
vn -7.510422E-07 0.2671393 -0.9636579
vn -1.847495E-07 0.3310178 -0.9436246
vn 0.1284823 0.3260539 -0.9365795
vn -3.599661E-07 0.1730958 -0.9849049
vn 0.9990698 -0.04269748 0.006052612
vn 0.1480529 0.1558868 -0.9766164
vn -1.730999E-07 0.05142014 -0.9986771
vn 0.8137115 -0.5558407 -0.1700434
vn 7.07256E-07 -0.9640157 -0.2658455
vn 4.524969E-06 -0.9278145 -0.3730422
vn 0 1 0
vn 0 1 0
vn 0 1 0
vn 0 1 0
vn 0 1 0
vn 0 1 0
vn 0 1 0
vn 0 1 0
vn 0 1 0
vn 0 1 0
vn 0 1 0
vn 0 1 0
vn 0 1 0
vn 0 1 0
vn 0 1 0
vn 0 1 0
vn -0.9618215 0.1415209 0.2342459
vn -0.8614219 -0.04379733 -0.5059981
vn -0.9827616 0.1204076 0.1402914
vn -0.9536239 -0.008311594 -0.3008862
vn -0.87993 -0.2007999 -0.4305841
vn -0.9900572 0.1104878 0.08705946
vn 1.547814E-06 -0.1753179 -0.984512
vn -0.4776829 -0.02260794 -0.8782414
vn 0 -0.07954001 -0.9968317
vn 2.23607E-06 -0.5335895 -0.8457437
vn -0.916409 -0.3201765 -0.2401701
vn -0.9798238 0.02282964 0.1985548
vn -0.8912171 -0.4418071 -0.1026569
vn 4.524969E-06 -0.9278145 -0.3730422
vn -0.9937243 0.004704513 0.1117578
vn -0.9975336 0.03317026 0.06185852
vn -0.9874583 -0.02389629 0.1560607
vn -0.9992234 -0.03433513 0.01933509
vn -0.9751735 -0.004865545 0.2213892
vn -0.95831 -0.06138233 0.2790596
vn -0.9181639 -0.025089 0.3954056
vn -0.8577264 0.04000038 0.5125479
vn -0.6378598 0.05718437 0.7680265
vn -0.5074044 0.09613805 0.8563284
vn 0 0.0859837 0.9962965
vn 0 0.1186853 0.992932
vn -0.981881 -0.07056782 -0.1758691
vn -0.9572477 0.08061232 -0.27781
vn -0.8582695 -0.173876 -0.4828462
vn -0.4487659 0.008928466 -0.8936047
vn -0.5449117 -0.2909443 -0.7863986
vn -3.544642E-06 -0.1077329 -0.9941798
vn 0 -0.349946 -0.9367699
vn -0.7807848 0.3081035 -0.5435507
vn -7.510422E-07 0.2671393 -0.9636579
vn -1.847495E-07 0.3310178 -0.9436246
vn -0.1284828 0.3260538 -0.9365795
vn -3.599661E-07 0.1730958 -0.9849049
vn -0.9990687 -0.04272567 0.00603125
vn -0.1480536 0.1558865 -0.9766163
vn -1.730999E-07 0.05142014 -0.9986771
vn -0.813711 -0.5558382 -0.1700537
vn 7.07256E-07 -0.9640157 -0.2658455
vn 4.524969E-06 -0.9278145 -0.3730422
vn -5.921187E-07 -0.9941816 0.1077174
vn -5.921187E-07 -0.9941816 0.1077175
vn -5.921187E-07 -0.9941816 0.1077175
vn -3.508645E-07 -0.9941816 0.1077175
vn -3.03338E-07 -0.9941816 0.1077173
vn -3.031239E-07 -0.9943839 0.1058328
vn -2.878081E-07 -0.9943839 0.1058328
vn -2.878081E-07 -0.9943839 0.1058328
vn -2.878081E-07 -0.9943839 0.1058328
vn -2.871606E-07 -0.9941801 0.107731
vn -0.008259748 -0.9891885 0.1464175
vn 0.01131412 -0.9949528 0.099704
vn 0.01131412 -0.9949528 0.09970402
g stock_mr133_std_long_LOD1_0
f 3/3/3 2/2/2 1/1/1
f 4/4/4 1/1/1 2/2/2
f 2/2/2 3/3/3 5/5/5
f 6/6/6 5/5/5 3/3/3
f 5/5/5 6/6/6 7/7/7
f 8/8/8 7/7/7 6/6/6
f 2/2/2 9/9/9 4/4/4
f 10/10/10 4/4/4 9/9/9
f 5/5/5 11/11/11 2/2/2
f 9/9/9 2/2/2 11/11/11
f 7/7/7 12/12/12 5/5/5
f 11/11/11 5/5/5 12/12/12
f 9/9/9 13/13/13 10/10/10
f 14/14/14 10/10/10 13/13/13
f 11/11/11 15/15/15 9/9/9
f 13/13/13 9/9/9 15/15/15
f 12/12/12 16/16/16 11/11/11
f 15/15/15 11/11/11 16/16/16
f 14/14/14 13/13/13 17/17/17
f 18/18/18 17/17/17 13/13/13
f 13/13/13 15/15/15 18/18/18
f 19/19/19 18/18/18 15/15/15
f 16/16/16 20/20/20 15/15/15
f 19/19/19 15/15/15 20/20/20
f 21/21/21 19/19/19 20/20/20
f 20/20/20 22/22/22 21/21/21
f 21/21/21 23/23/23 19/19/19
f 18/18/18 19/19/19 23/23/23
f 23/23/23 24/24/24 18/18/18
f 17/17/17 18/18/18 24/24/24
f 14/14/14 25/25/25 10/10/10
f 14/14/14 17/17/17 25/25/25
f 26/26/26 10/10/10 25/25/25
f 25/25/25 27/27/27 26/26/26
f 28/28/28 26/26/26 27/27/27
f 26/26/26 28/28/28 29/29/29
f 29/29/29 4/4/4 26/26/26
f 4/4/4 29/29/29 1/1/1
f 30/30/30 1/1/1 29/29/29
f 29/29/29 31/31/31 30/30/30
f 31/31/31 29/29/29 28/28/28
f 32/32/32 30/30/30 31/31/31
f 31/31/31 33/33/33 32/32/32
f 34/34/34 32/32/32 33/33/33
f 10/10/10 26/26/26 4/4/4
f 28/28/28 35/35/35 31/31/31
f 33/33/33 31/31/31 35/35/35
f 27/27/27 36/36/36 28/28/28
f 35/35/35 28/28/28 36/36/36
f 25/25/25 37/37/37 27/27/27
f 37/37/37 25/25/25 17/17/17
f 38/38/38 27/27/27 37/37/37
f 17/17/17 24/24/24 37/37/37
f 39/39/39 37/37/37 24/24/24
f 39/39/39 24/24/24 40/40/40
f 41/41/41 39/39/39 40/40/40
f 38/38/38 37/37/37 41/41/41
f 39/39/39 41/41/41 37/37/37
f 41/41/41 40/40/40 42/42/42
f 43/43/43 42/42/42 40/40/40
f 40/40/40 44/44/44 43/43/43
f 44/44/44 40/40/40 24/24/24
f 45/45/45 43/43/43 44/44/44
f 45/45/45 44/44/44 46/46/46
f 47/47/47 46/46/46 44/44/44
f 42/42/42 48/48/48 41/41/41
f 38/38/38 41/41/41 48/48/48
f 38/38/38 48/48/48 27/27/27
f 36/36/36 27/27/27 48/48/48
f 47/47/47 44/44/44 23/23/23
f 24/24/24 23/23/23 44/44/44
f 21/21/21 47/47/47 23/23/23
f 46/46/46 47/47/47 22/22/22
f 21/21/21 22/22/22 47/47/47
f 51/51/51 50/50/50 49/49/49
f 52/52/52 49/49/49 50/50/50
f 50/50/50 53/53/53 52/52/52
f 54/54/54 52/52/52 53/53/53
f 50/50/50 55/55/55 53/53/53
f 50/50/50 56/56/56 55/55/55
f 51/51/51 56/56/56 50/50/50
f 57/57/57 55/55/55 56/56/56
f 58/58/58 53/53/53 55/55/55
f 58/58/58 59/59/59 53/53/53
f 60/60/60 53/53/53 59/59/59
f 60/60/60 54/54/54 53/53/53
f 60/60/60 61/61/61 54/54/54
f 60/60/60 59/59/59 62/62/62
f 62/62/62 61/61/61 60/60/60
f 63/63/63 62/62/62 59/59/59
f 62/62/62 64/64/64 61/61/61
f 65/65/65 61/61/61 64/64/64
f 66/66/66 61/61/61 65/65/65
f 66/66/66 65/65/65 67/67/67
f 67/67/67 68/68/68 66/66/66
f 69/69/69 66/66/66 68/68/68
f 69/69/69 61/61/61 66/66/66
f 69/69/69 68/68/68 70/70/70
f 71/71/71 70/70/70 68/68/68
f 70/70/70 71/71/71 72/72/72
f 73/73/73 72/72/72 71/71/71
f 72/72/72 73/73/73 74/74/74
f 75/75/75 74/74/74 73/73/73
f 76/76/76 67/67/67 65/65/65
f 65/65/65 77/77/77 76/76/76
f 78/78/78 76/76/76 77/77/77
f 77/77/77 79/79/79 78/78/78
f 80/80/80 78/78/78 79/79/79
f 79/79/79 81/81/81 80/80/80
f 82/82/82 80/80/80 81/81/81
f 77/77/77 83/83/83 79/79/79
f 83/83/83 84/84/84 79/79/79
f 81/81/81 79/79/79 84/84/84
f 84/84/84 83/83/83 85/85/85
f 86/86/86 85/85/85 83/83/83
f 86/86/86 87/87/87 85/85/85
f 77/77/77 65/65/65 83/83/83
f 65/65/65 64/64/64 83/83/83
f 88/88/88 83/83/83 64/64/64
f 89/89/89 87/87/87 86/86/86
f 90/90/90 87/87/87 89/89/89
f 62/62/62 88/88/88 64/64/64
f 91/91/91 88/88/88 62/62/62
f 91/91/91 62/62/62 92/92/92
f 93/93/93 92/92/92 62/62/62
f 96/96/96 95/95/95 94/94/94
f 97/97/97 94/94/94 95/95/95
f 98/98/98 94/94/94 97/97/97
f 95/95/95 96/96/96 99/99/99
f 100/100/100 99/99/99 96/96/96
f 99/99/99 100/100/100 101/101/101
f 102/102/102 101/101/101 100/100/100
f 102/102/102 103/103/103 101/101/101
f 104/104/104 101/101/101 103/103/103
f 103/103/103 105/105/105 104/104/104
f 106/106/106 104/104/104 105/105/105
f 105/105/105 107/107/107 106/106/106
f 108/108/108 106/106/106 107/107/107
f 109/109/109 108/108/108 107/107/107
f 112/112/112 111/111/111 110/110/110
f 113/113/113 110/110/110 111/111/111
f 111/111/111 112/112/112 114/114/114
f 115/115/115 114/114/114 112/112/112
f 111/111/111 114/114/114 116/116/116
f 111/111/111 116/116/116 117/117/117
f 117/117/117 113/113/113 111/111/111
f 118/118/118 117/117/117 116/116/116
f 119/119/119 116/116/116 114/114/114
f 119/119/119 114/114/114 59/59/59
f 120/120/120 59/59/59 114/114/114
f 115/115/115 120/120/120 114/114/114
f 121/121/121 120/120/120 115/115/115
f 120/120/120 122/122/122 59/59/59
f 121/121/121 122/122/122 120/120/120
f 123/123/123 59/59/59 122/122/122
f 122/122/122 121/121/121 124/124/124
f 125/125/125 124/124/124 121/121/121
f 121/121/121 126/126/126 125/125/125
f 126/126/126 127/127/127 125/125/125
f 127/127/127 126/126/126 128/128/128
f 129/129/129 128/128/128 126/126/126
f 121/121/121 129/129/129 126/126/126
f 129/129/129 130/130/130 128/128/128
f 131/131/131 128/128/128 130/130/130
f 130/130/130 132/132/132 131/131/131
f 133/133/133 131/131/131 132/132/132
f 132/132/132 134/134/134 133/133/133
f 135/135/135 133/133/133 134/134/134
f 136/136/136 125/125/125 127/127/127
f 125/125/125 136/136/136 137/137/137
f 138/138/138 137/137/137 136/136/136
f 137/137/137 138/138/138 139/139/139
f 140/140/140 139/139/139 138/138/138
f 139/139/139 140/140/140 141/141/141
f 142/142/142 141/141/141 140/140/140
f 143/143/143 137/137/137 139/139/139
f 141/141/141 144/144/144 139/139/139
f 143/143/143 139/139/139 144/144/144
f 144/144/144 145/145/145 143/143/143
f 146/146/146 143/143/143 145/145/145
f 147/147/147 146/146/146 145/145/145
f 125/125/125 137/137/137 143/143/143
f 125/125/125 143/143/143 124/124/124
f 148/148/148 124/124/124 143/143/143
f 149/149/149 146/146/146 147/147/147
f 147/147/147 150/150/150 149/149/149
f 122/122/122 124/124/124 148/148/148
f 148/148/148 151/151/151 122/122/122
f 151/151/151 152/152/152 122/122/122
f 153/153/153 122/122/122 152/152/152
f 156/156/156 155/155/155 154/154/154
f 156/156/156 157/157/157 155/155/155
f 158/158/158 155/155/155 157/157/157
f 157/157/157 159/159/159 158/158/158
f 160/160/160 158/158/158 159/159/159
f 159/159/159 161/161/161 160/160/160
f 162/162/162 160/160/160 161/161/161
f 163/163/163 162/162/162 161/161/161
f 164/164/164 162/162/162 163/163/163
f 166/166/166 162/162/162 165/165/165
