g stock_ar15_magpul_ctr_rubber_butt_pad_LOD1
v 0.0158888 0.1187166 0.02668637
v 0.01968885 0.1187166 0.0150989
v 0.02231534 0.1104833 0.0150989
v 0.01703967 0.1104833 0.02952641
v 0.01187428 0.1104833 0.03600359
v 0.0119957 0.1187166 0.0330956
v 0.004410088 0.1104833 0.03959816
v 0.004410088 0.1187166 0.03700843
v -0.003874535 0.1104833 0.03959816
v -0.003874535 0.1187166 0.03700843
v -0.01133873 0.1104833 0.03600359
v -0.01146014 0.1187166 0.0330956
v -0.01650412 0.1104833 0.02952641
v -0.01535324 0.1187166 0.02668637
v -0.02177978 0.1104833 0.0150989
v -0.0191533 0.1187166 0.0150989
v 0.01547206 0.1099709 -0.03321977
v 0.01766389 0.1026843 -0.03321977
v 0.02231534 0.1104833 0.0150989
v 0.01968885 0.1187166 0.0150989
v 0.01488185 0.1055467 -0.08153844
v 0.01727741 0.09809063 -0.08153845
v 0.01545248 0.09787067 -0.08731642
v 0.01354595 0.1052284 -0.08731641
v 0.007763703 0.1020618 -0.09148605
v 0.009715064 0.0977112 -0.09148605
v 0.006593027 0.09766623 -0.09263979
v 0.01727741 0.09809063 -0.08153845
v 0.01488185 0.1055467 -0.08153844
v 0.0119957 0.1187166 0.0330956
v 0.004410088 0.1187166 0.03700843
v -0.003874535 0.1187166 0.03700843
v -0.01146014 0.1187166 0.0330956
v 0.0158888 0.1187166 0.02668637
v -0.01535324 0.1187166 0.02668637
v 0.01968885 0.1187166 0.0150989
v -0.0191533 0.1187166 0.0150989
v -0.01493651 0.1099709 -0.03321977
v 0.01547206 0.1099709 -0.03321977
v 0.01968885 0.1187166 0.0150989
v -0.0191533 0.1187166 0.0150989
v -0.0143463 0.1055467 -0.08153844
v 0.01488185 0.1055467 -0.08153844
v 0.01547206 0.1099709 -0.03321977
v -0.01493651 0.1099709 -0.03321977
v 0.01354595 0.1052284 -0.08731641
v -0.0130104 0.1052284 -0.08731641
v 0.007763703 0.1020618 -0.09148605
v -0.007228151 0.1020618 -0.09148605
v 0.006593027 0.09766623 -0.09263979
v -0.006057474 0.09766624 -0.09263979
v -0.01712834 0.1026843 -0.03321977
v -0.01493651 0.1099709 -0.03321977
v -0.0191533 0.1187166 0.0150989
v -0.02177978 0.1104833 0.0150989
v -0.01674185 0.09809061 -0.08153845
v -0.0143463 0.1055467 -0.08153844
v -0.01491693 0.09787067 -0.08731642
v -0.0130104 0.1052284 -0.08731641
v -0.007228151 0.1020618 -0.09148605
v -0.009179513 0.0977112 -0.09148605
v -0.006057474 0.09766624 -0.09263979
v -0.02177978 0.1104833 0.0150989
v 0.02231534 0.1104833 0.0150989
v 0.01766389 0.1026843 -0.03321977
v -0.01712834 0.1026843 -0.03321977
v 0.01727741 0.09809063 -0.08153845
v -0.01674185 0.09809061 -0.08153845
v 0.01545248 0.09787067 -0.08731642
v -0.01491693 0.09787067 -0.08731642
v -0.009179513 0.0977112 -0.09148605
v 0.009715064 0.0977112 -0.09148605
v 0.006593027 0.09766623 -0.09263979
v -0.006057474 0.09766624 -0.09263979
v 0.02231534 0.1104833 0.0150989
v -0.02177978 0.1104833 0.0150989
v -0.01650412 0.1104833 0.02952641
v 0.01703967 0.1104833 0.02952641
v -0.01133873 0.1104833 0.03600359
v 0.01187428 0.1104833 0.03600359
v 0.004410088 0.1104833 0.03959816
v -0.003874535 0.1104833 0.03959816
vt 0.991842 0.1424072
vt 0.991842 0.01118097
vt 0.9014193 0.01118097
vt 0.9014188 0.1623431
vt 0.9014185 0.2461627
vt 0.991842 0.226126
vt 0.9014187 0.3299825
vt 0.991842 0.3242074
vt 0.9014185 0.4138021
vt 0.991842 0.4195773
vt 0.9014187 0.4976219
vt 0.9918418 0.5176588
vt 0.9014183 0.5814416
vt 0.991842 0.6013775
vt 0.901418 0.7326037
vt 0.991842 0.7326038
vt 0.09184611 0.5064906
vt 0.0119223 0.4978818
vt 0.01205415 0.9908881
vt 0.09197776 0.9908881
vt 0.09171395 0.02359205
vt 0.01179059 0.017847
vt 0.1096023 0.7106097
vt 0.1827328 0.7163783
vt 0.1762408 0.6391585
vt 0.1283922 0.6409714
vt 0.1404691 0.6088966
vt 0.1028091 0.769721
vt 0.1827325 0.7754661
vt 0.2307807 0.7037179
vt 0.3082265 0.7436674
vt 0.3928095 0.7436686
vt 0.4702563 0.7037208
vt 0.1910342 0.6382816
vt 0.5100042 0.6382855
vt 0.1522384 0.519977
vt 0.548803 0.5199819
vt 0.5053844 0.01035243
vt 0.1949236 0.01034403
vt 0.151858 0.5116746
vt 0.5484225 0.5116858
vt 0.8842974 0.1826602
vt 0.5641668 0.1826515
vt 0.5641668 0.703572
vt 0.8842974 0.7035809
vt 0.5816861 0.1205256
vt 0.8667958 0.1205335
vt 0.6437659 0.06431556
vt 0.8047187 0.06432
vt 0.6563355 0.01552666
vt 0.7921519 0.01553068
vt -1.221506 -0.5499749
vt -1.152391 -0.5574187
vt -1.152391 -0.9761964
vt -1.221505 -0.9761964
vt -1.221506 -0.1349687
vt -1.152391 -0.1399365
vt -1.21563 -0.08385226
vt -1.152391 -0.08884111
vt -1.158005 -0.02206442
vt -1.199381 -0.02363238
vt -1.188938 0.004104525
vt 0.8372235 0.9919808
vt 0.8372726 0.7218636
vt 0.5374467 0.7503023
vt 0.5374078 0.9634321
vt 0.2401219 0.7526155
vt 0.2400839 0.9610105
vt 0.2046996 0.7637881
vt 0.2046655 0.9498248
vt 0.1791111 0.9146737
vt 0.1791323 0.7989296
vt 0.1720556 0.8180534
vt 0.1720415 0.8955475
vt 0.8372726 0.7218636
vt 0.8372235 0.9919808
vt 0.9256091 0.9596794
vt 0.9256465 0.7541973
vt 0.9652926 0.9280446
vt 0.9653187 0.7858467
vt 0.9873297 0.8315749
vt 0.9873207 0.8823245
vn 0.8684826 0.257719 0.4234606
vn 0.9107653 0.2637253 0.3177347
vn 0.9107655 0.2637253 0.3177347
vn 0.8512116 0.2548588 0.4587871
vn 0.6015865 0.2742596 0.7502502
vn 0.6548054 0.2685648 0.7064722
vn 0.2098699 0.2993517 0.9307756
vn 0.2286133 0.2986219 0.9265857
vn -0.2098699 0.2993518 0.9307756
vn -0.2286133 0.2986219 0.9265857
vn -0.6015865 0.2742596 0.7502502
vn -0.6548053 0.2685649 0.7064722
vn -0.8512115 0.2548589 0.4587873
vn -0.8684826 0.2577191 0.4234607
vn -0.9107655 0.2637252 0.3177347
vn -0.9107655 0.2637252 0.3177347
vn 0.9509898 0.2955558 -0.09091277
vn 0.9515641 0.2957812 -0.08389978
vn 0.9460153 0.2937 -0.1370965
vn 0.9460153 0.2937001 -0.1370965
vn 0.9466512 0.2850857 -0.1502587
vn 0.9462208 0.2846591 -0.1537379
vn 0.7955809 0.2414814 -0.5556418
vn 0.7946974 0.241276 -0.5569935
vn 0.4836802 0.17181 -0.858216
vn 0.4673829 0.1697861 -0.8675977
vn 0.3406275 0.1527811 -0.9277019
vn 0.9462208 0.2846591 -0.1537379
vn 0.9466512 0.2850857 -0.1502587
vn 0 1 0
vn 0 1 0
vn 0 1 0
vn 0 1 0
vn 0 1 0
vn 0 1 0
vn 0 1 0
vn 0 1 0
vn 0 0.9906955 -0.1360969
vn 0 0.9906955 -0.1360969
vn 0 0.9840115 -0.1781055
vn 0 0.9840115 -0.1781055
vn 0 0.9972149 -0.07458281
vn 0 0.9972149 -0.07458281
vn 0 0.9906955 -0.1360969
vn 0 0.9906955 -0.1360969
vn 0 0.9748847 -0.2227102
vn 0 0.9748847 -0.2227102
vn 0 0.6360471 -0.7716503
vn 0 0.6360471 -0.7716502
vn 1.74967E-07 0.2538784 -0.9672362
vn 1.74967E-07 0.2538784 -0.9672362
vn -0.9515644 0.2957804 -0.08389972
vn -0.95099 0.295555 -0.09091273
vn -0.9460154 0.2936993 -0.1370965
vn -0.9460154 0.2936994 -0.1370965
vn -0.9462211 0.2846586 -0.1537375
vn -0.9466515 0.2850851 -0.1502585
vn -0.7955813 0.2414814 -0.5556414
vn -0.7946975 0.2412759 -0.5569935
vn -0.4836804 0.1718101 -0.858216
vn -0.4673835 0.1697864 -0.8675975
vn -0.3406282 0.1527815 -0.9277016
vn 4.723831E-07 -0.9872229 0.1593456
vn 4.723831E-07 -0.9872229 0.1593456
vn 6.449119E-07 -0.9917623 0.1280919
vn 6.44912E-07 -0.9917623 0.1280919
vn 5.916391E-07 -0.9975826 0.06949054
vn 5.916391E-07 -0.9975826 0.06949054
vn 2.217478E-07 -0.9992746 0.03808384
vn 2.217478E-07 -0.9992746 0.03808384
vn 0 -0.999266 0.03830812
vn 0 -0.999266 0.03830812
vn -6.041736E-07 -0.9992414 0.03894447
vn -6.041735E-07 -0.9992414 0.03894446
vn 0 -1 -2.644045E-06
vn 0 -1 -2.644045E-06
vn 0 -1 -1.802142E-06
vn 0 -1 -1.802142E-06
vn 0 -1 0
vn 0 -1 0
vn 0 -1 0
vn 0 -1 0
g stock_ar15_magpul_ctr_rubber_butt_pad_LOD1_0
f 3/3/3 2/2/2 1/1/1
f 4/4/4 3/3/3 1/1/1
f 5/5/5 4/4/4 1/1/1
f 6/6/6 5/5/5 1/1/1
f 7/7/7 5/5/5 6/6/6
f 8/8/8 7/7/7 6/6/6
f 9/9/9 7/7/7 8/8/8
f 10/10/10 9/9/9 8/8/8
f 11/11/11 9/9/9 10/10/10
f 12/12/12 11/11/11 10/10/10
f 13/13/13 11/11/11 12/12/12
f 14/14/14 13/13/13 12/12/12
f 13/13/13 14/14/14 15/15/15
f 14/14/14 16/16/16 15/15/15
f 19/19/19 18/18/18 17/17/17
f 20/20/20 19/19/19 17/17/17
f 21/21/21 17/17/17 18/18/18
f 22/22/22 21/21/21 18/18/18
f 25/25/25 24/24/24 23/23/23
f 26/26/26 25/25/25 23/23/23
f 27/27/27 25/25/25 26/26/26
f 28/28/28 23/23/23 24/24/24
f 29/29/29 28/28/28 24/24/24
f 32/32/32 31/31/31 30/30/30
f 33/33/33 32/32/32 30/30/30
f 33/33/33 30/30/30 34/34/34
f 35/35/35 33/33/33 34/34/34
f 35/35/35 34/34/34 36/36/36
f 37/37/37 35/35/35 36/36/36
f 40/40/40 39/39/39 38/38/38
f 41/41/41 40/40/40 38/38/38
f 44/44/44 43/43/43 42/42/42
f 45/45/45 44/44/44 42/42/42
f 43/43/43 46/46/46 42/42/42
f 46/46/46 47/47/47 42/42/42
f 46/46/46 48/48/48 47/47/47
f 48/48/48 49/49/49 47/47/47
f 48/48/48 50/50/50 49/49/49
f 50/50/50 51/51/51 49/49/49
f 54/54/54 53/53/53 52/52/52
f 55/55/55 54/54/54 52/52/52
f 52/52/52 53/53/53 56/56/56
f 53/53/53 57/57/57 56/56/56
f 58/58/58 56/56/56 57/57/57
f 59/59/59 58/58/58 57/57/57
f 58/58/58 59/59/59 60/60/60
f 61/61/61 58/58/58 60/60/60
f 61/61/61 60/60/60 62/62/62
f 65/65/65 64/64/64 63/63/63
f 66/66/66 65/65/65 63/63/63
f 67/67/67 65/65/65 66/66/66
f 68/68/68 67/67/67 66/66/66
f 69/69/69 67/67/67 68/68/68
f 70/70/70 69/69/69 68/68/68
f 69/69/69 70/70/70 71/71/71
f 72/72/72 69/69/69 71/71/71
f 73/73/73 72/72/72 71/71/71
f 74/74/74 73/73/73 71/71/71
f 77/77/77 76/76/76 75/75/75
f 78/78/78 77/77/77 75/75/75
f 79/79/79 77/77/77 78/78/78
f 80/80/80 79/79/79 78/78/78
f 80/80/80 81/81/81 79/79/79
f 81/81/81 82/82/82 79/79/79
