g stock_sa58_ds_arms_humpback_stock_LOD1
v 5.827384E-05 0.0001874542 -0.03089071
v 5.827384E-05 0.05253058 -0.03654936
v -0.007699448 0.05253058 -0.03483709
v -0.006711277 0.0001874542 -0.02988788
v -0.01382289 0.05309432 -0.03013011
v -0.01293338 0.0001874542 -0.0255801
v -0.01615492 0.05985428 -0.02342535
v -0.01500505 0.0001874542 -0.01902591
v -0.01617396 0.07723621 -0.009261215
v -0.01500505 0.0001874542 0.004103397
v -0.01788328 0.1894501 -0.01210363
v -0.01381716 0.1844531 -0.004271197
v -0.01496475 0.1978432 -0.001242751
v -0.01596209 0.2596084 -0.002270651
v -0.008345515 0.2608111 0.005172777
v -0.008345515 0.199046 0.006201811
v -0.01892871 0.2549698 -0.01573611
v -0.007557726 0.1850857 -0.0005952796
v -0.01327275 0.07876236 -0.002331064
v -0.006382328 0.0793946 0.002541533
v -0.01892871 0.2464555 -0.05832686
v -0.01391522 0.2436243 -0.09827857
v -0.0124144 0.0001874542 0.01206677
v -0.009185409 0.02541202 0.01194951
v -0.009370246 0.0001874542 0.01596784
v 5.827384E-05 0.1850857 0.0008041942
v 5.827384E-05 0.199046 0.007784301
v 5.827384E-05 0.0793946 0.003349969
v 5.827384E-05 0.02541202 0.01194951
v 5.827384E-05 0.2608111 0.006755267
v -0.008260484 0.2418575 -0.1108723
v 5.827384E-05 0.2415966 -0.1136671
v 5.827384E-05 0.0001874542 -0.03089071
v 0.006827825 0.0001874542 -0.02988788
v 0.007815995 0.05253058 -0.03483709
v 5.827384E-05 0.05253058 -0.03654936
v 0.01393944 0.05309432 -0.03013011
v 0.01304993 0.0001874542 -0.0255801
v 0.01627147 0.05985428 -0.02342535
v 0.0151216 0.0001874542 -0.01902591
v 0.01629051 0.07723621 -0.009261215
v 0.0151216 0.0001874542 0.004103397
v 0.01799983 0.1894501 -0.01210363
v 0.01393371 0.1844531 -0.004271197
v 0.0150813 0.1978432 -0.001242751
v 0.01607864 0.2596084 -0.002270651
v 0.008462062 0.2608111 0.005172777
v 0.008462062 0.199046 0.006201811
v 0.01904526 0.2549698 -0.01573611
v 0.007674274 0.1850857 -0.0005952796
v 0.0133893 0.07876236 -0.002331064
v 0.006498876 0.0793946 0.002541533
v 0.01904526 0.2464555 -0.05832686
v 0.01403177 0.2436243 -0.09827857
v 0.01253095 0.0001874542 0.01206677
v 0.009301957 0.02541202 0.01194951
v 0.009486794 0.0001874542 0.01596784
v 5.827384E-05 0.1850857 0.0008041942
v 5.827384E-05 0.199046 0.007784301
v 5.827384E-05 0.0793946 0.003349969
v 5.827384E-05 0.02541202 0.01194951
v 5.827384E-05 0.2608111 0.006755267
v 0.00837703 0.2418575 -0.1108723
v 5.827384E-05 0.2415966 -0.1136671
v 0.009486794 0.01102607 0.02555306
v 0.009486794 0.0001874447 0.02727968
v 5.827384E-05 0.0001874447 0.02727968
v 5.827384E-05 0.01102607 0.02555306
v 0.009301957 0.02541202 0.01194951
v 0.009486794 0.0001874542 0.01596784
v 0.009486794 0.0001874447 0.02727968
v 0.009486794 0.01102607 0.02555306
v 5.827384E-05 0.0001874447 0.02727968
v 0.009486794 0.0001874542 0.01596784
v 5.827384E-05 0.0001874542 -0.03089071
v 0.009486794 0.0001874447 0.02727968
v 0.0151216 0.0001874542 0.004103397
v 0.01253095 0.0001874542 0.01206677
v 0.0151216 0.0001874542 -0.01902591
v 0.01304993 0.0001874542 -0.0255801
v 0.006827825 0.0001874542 -0.02988788
v 5.827384E-05 0.02541202 0.01194951
v 0.009301957 0.02541202 0.01194951
v 0.009486794 0.01102607 0.02555306
v 5.827384E-05 0.01102607 0.02555306
v -0.01892871 0.2464555 -0.05832686
v 0.01904526 0.2464555 -0.05832686
v 0.01904526 0.2549698 -0.01573611
v -0.01892871 0.2549698 -0.01573611
v 0.01607864 0.2596084 -0.002270651
v -0.01596209 0.2596084 -0.002270651
v 0.008462062 0.2608111 0.005172777
v -0.008345515 0.2608111 0.005172777
v 5.827384E-05 0.2608111 0.006755267
v -0.01391522 0.2436243 -0.09827857
v 0.01403177 0.2436243 -0.09827857
v 0.00837703 0.2418575 -0.1108723
v -0.008260484 0.2418575 -0.1108723
v 5.827384E-05 0.2415966 -0.1136671
v -0.009370246 0.01102607 0.02555306
v 5.827384E-05 0.01102607 0.02555306
v 5.827384E-05 0.0001874447 0.02727968
v -0.009370246 0.0001874447 0.02727968
v -0.009185409 0.02541202 0.01194951
v -0.009370246 0.01102607 0.02555306
v -0.009370246 0.0001874447 0.02727968
v -0.009370246 0.0001874542 0.01596784
v 5.827384E-05 0.0001874447 0.02727968
v 5.827384E-05 0.0001874542 -0.03089071
v -0.009370246 0.0001874542 0.01596784
v -0.009370246 0.0001874447 0.02727968
v -0.01500505 0.0001874542 0.004103397
v -0.0124144 0.0001874542 0.01206677
v -0.01500505 0.0001874542 -0.01902591
v -0.01293338 0.0001874542 -0.0255801
v -0.006711277 0.0001874542 -0.02988788
v 5.827384E-05 0.02541202 0.01194951
v 5.827384E-05 0.01102607 0.02555306
v -0.009370246 0.01102607 0.02555306
v -0.009185409 0.02541202 0.01194951
vt 0.08473811 0.5403894
vt 0.2633026 0.5327839
vt 0.2670676 0.587863
vt 0.08602157 0.5880295
vt 0.2699752 0.6413563
vt 0.08705066 0.6395611
vt 0.2922927 0.6948327
vt 0.0868497 0.6852754
vt 0.3495868 0.8046967
vt 0.0809115 0.8438696
vt 0.7359738 0.7890847
vt 0.7178811 0.857527
vt 0.7656566 0.8635936
vt 0.9784566 0.8536344
vt 0.9833118 0.9249419
vt 0.7714769 0.9283029
vt 0.9620672 0.7612374
vt 0.7190587 0.915248
vt 0.353696 0.8629574
vt 0.3548906 0.9273614
vt 0.9344324 0.4642259
vt 0.9283317 0.1794006
vt 0.07920038 0.8972742
vt 0.1659089 0.9224207
vt 0.07819312 0.9321127
vt 0.7179932 0.9808678
vt 0.7713555 0.9808678
vt 0.3548363 0.9808678
vt 0.1668895 0.9808678
vt 0.9837177 0.9808678
vt 0.9243633 0.08213276
vt 0.9174985 0.021705
vt 0.08473811 0.5403894
vt 0.08602157 0.5880295
vt 0.2670676 0.587863
vt 0.2633026 0.5327839
vt 0.2699752 0.6413563
vt 0.08705066 0.6395611
vt 0.2922927 0.6948327
vt 0.0868497 0.6852754
vt 0.3495868 0.8046967
vt 0.0809115 0.8438696
vt 0.7359738 0.7890847
vt 0.7178811 0.857527
vt 0.7656566 0.8635936
vt 0.9784566 0.8536344
vt 0.9833118 0.9249419
vt 0.7714769 0.9283029
vt 0.9620672 0.7612374
vt 0.7190587 0.915248
vt 0.353696 0.8629574
vt 0.3548906 0.9273614
vt 0.9344324 0.4642259
vt 0.9283317 0.1794006
vt 0.07920038 0.8972742
vt 0.1659089 0.9224207
vt 0.07819312 0.9321127
vt 0.7179932 0.9808678
vt 0.7713555 0.9808678
vt 0.3548363 0.9808678
vt 0.1668895 0.9808678
vt 0.9837177 0.9808678
vt 0.9243633 0.08213276
vt 0.9174985 0.021705
vt 0.6510667 0.04948342
vt 0.6510667 0.127117
vt 0.683528 0.127117
vt 0.683528 0.04948342
vt 0.6270615 0.03354521
vt 0.5391171 0.03359408
vt 0.5329993 0.1126069
vt 0.5707867 0.1126069
vt 0.3071316 0.4503551
vt 0.268186 0.3836702
vt 0.1068502 0.4503571
vt 0.3071316 0.3836702
vt 0.2273394 0.3438072
vt 0.2547562 0.362134
vt 0.1477079 0.3438082
vt 0.1251434 0.3584519
vt 0.1103064 0.4024587
vt 0.0732714 0.2867973
vt 0.041129 0.2867973
vt 0.041129 0.4268552
vt 0.0732714 0.4268552
vt 0.2642069 0.0308285
vt 0.2642069 0.2994443
vt 0.4137459 0.2994373
vt 0.4137455 0.03082152
vt 0.4627816 0.2784576
vt 0.4627816 0.05181117
vt 0.4887378 0.2245833
vt 0.4887441 0.1056905
vt 0.4941905 0.1651389
vt 0.1263094 0.06630725
vt 0.1263104 0.2639955
vt 0.08252457 0.2239949
vt 0.08252505 0.1063029
vt 0.0728617 0.1651479
vt 0.6510667 0.04948342
vt 0.683528 0.04948342
vt 0.683528 0.127117
vt 0.6510667 0.127117
vt 0.6270615 0.03354521
vt 0.5707867 0.1126069
vt 0.5329993 0.1126069
vt 0.5391171 0.03359408
vt 0.3071316 0.4503551
vt 0.1068502 0.4503571
vt 0.268186 0.3836702
vt 0.3071316 0.3836702
vt 0.2273394 0.3438072
vt 0.2547562 0.362134
vt 0.1477079 0.3438082
vt 0.1251434 0.3584519
vt 0.1103064 0.4024587
vt 0.0732714 0.2867973
vt 0.0732714 0.4268552
vt 0.041129 0.4268552
vt 0.041129 0.2867973
vn 0 -0.102536 -0.9947293
vn 0 -0.2447556 -0.9695848
vn -0.5030206 -0.1962842 -0.8416905
vn -0.3985375 -0.09413701 -0.9123082
vn -0.8710947 -0.09992885 -0.4808412
vn -0.8196734 -0.0643023 -0.5692106
vn -0.9919377 -0.04291626 -0.1192387
vn -0.9898052 -0.02819222 -0.1396094
vn -0.9818507 0.004923977 0.1895912
vn -0.9805824 0.02017887 0.1950665
vn -0.9823524 -0.03900637 0.1829269
vn -0.7787161 -0.1007972 0.6192262
vn -0.8379159 -0.1154731 0.5334443
vn -0.8589631 0.0001930986 0.5120373
vn -0.4679049 0.01197203 0.8836977
vn -0.4355234 -0.1819021 0.8816071
vn -0.9905715 -0.01081352 0.1365689
vn -0.3926983 -0.1923243 0.8993328
vn -0.8030186 0.05073627 0.5937903
vn -0.3752761 0.08983935 0.9225491
vn -0.9978015 -0.0266473 -0.06068054
vn -0.9189972 -0.137292 -0.3695878
vn -0.8589968 0.08254828 0.5052823
vn -0.5132549 0.1542353 0.8442635
vn -0.7841653 0.1032117 0.6119085
vn 0 -0.2222506 0.9749895
vn 0 -0.2153073 0.9765463
vn 0 0.09703113 0.9952813
vn 0 0.1658196 0.9861562
vn 0 0.01660644 0.9998621
vn -0.543485 -0.310287 -0.7799655
vn 0 -0.3755819 -0.9267893
vn 0 -0.102536 -0.9947293
vn 0.3985375 -0.09413701 -0.9123082
vn 0.5030206 -0.1962842 -0.8416905
vn 0 -0.2447556 -0.9695848
vn 0.8710947 -0.09992885 -0.4808412
vn 0.8196734 -0.0643023 -0.5692106
vn 0.9919377 -0.04291626 -0.1192387
vn 0.9898052 -0.02819222 -0.1396094
vn 0.9818507 0.004923977 0.1895912
vn 0.9805824 0.02017887 0.1950665
vn 0.9823524 -0.03900637 0.1829269
vn 0.7787161 -0.1007972 0.6192262
vn 0.8379159 -0.1154731 0.5334443
vn 0.8589631 0.0001930986 0.5120373
vn 0.4679049 0.01197203 0.8836977
vn 0.4355234 -0.1819021 0.8816071
vn 0.9905715 -0.01081352 0.1365689
vn 0.3926983 -0.1923243 0.8993328
vn 0.8030186 0.05073627 0.5937903
vn 0.3752761 0.08983935 0.9225491
vn 0.9978015 -0.0266473 -0.06068054
vn 0.9189972 -0.137292 -0.3695878
vn 0.8589968 0.08254828 0.5052823
vn 0.5132549 0.1542353 0.8442635
vn 0.7841653 0.1032117 0.6119085
vn 0 -0.2222506 0.9749895
vn 0 -0.2153073 0.9765463
vn 0 0.09703113 0.9952813
vn 0 0.1658196 0.9861562
vn 0 0.01660644 0.9998621
vn 0.543485 -0.310287 -0.7799655
vn 0 -0.3755819 -0.9267893
vn 0 0.1573258 0.9875467
vn 0 0.1573729 0.9875393
vn 0 0.1573729 0.9875393
vn 0 0.1573258 0.9875467
vn 0.9999785 0.004344689 -0.004899844
vn 0.9999781 0.004441236 -0.004923979
vn 0.9999782 0.004441237 -0.004899842
vn 0.9999784 0.004344689 -0.004923981
vn 0 -1 0
vn 0 -1 0
vn 0 -1 0
vn 0 -1 0
vn 0 -1 0
vn 0 -1 0
vn 0 -1 0
vn 0 -1 0
vn 0 -1 0
vn 0 0.6870748 0.7265866
vn 0 0.6870748 0.7265866
vn 0 0.6870869 0.7265752
vn 0 0.6870869 0.7265752
vn 0 0.9906792 -0.136216
vn 0 0.9906792 -0.136216
vn 0 0.966435 -0.2569115
vn 0 0.966435 -0.2569115
vn 0 0.9611941 -0.2758732
vn 0 0.9611941 -0.2758732
vn 0 0.9889908 -0.1479769
vn 0 0.9889908 -0.1479769
vn 0 1 0
vn 0 0.9951493 -0.09837574
vn 0 0.9951493 -0.09837574
vn 0 0.991184 -0.1324926
vn 0 0.991184 -0.1324926
vn 0 0.9956678 -0.09298178
vn 0 0.1573258 0.9875467
vn 0 0.1573258 0.9875467
vn 0 0.1573729 0.9875393
vn 0 0.1573729 0.9875393
vn -0.9999785 0.004344689 -0.004899844
vn -0.9999784 0.004344689 -0.004923981
vn -0.9999782 0.004441237 -0.004899842
vn -0.9999781 0.004441236 -0.004923979
vn 0 -1 0
vn 0 -1 0
vn 0 -1 0
vn 0 -1 0
vn 0 -1 0
vn 0 -1 0
vn 0 -1 0
vn 0 -1 0
vn 0 -1 0
vn 0 0.6870748 0.7265866
vn 0 0.6870869 0.7265752
vn 0 0.6870869 0.7265752
vn 0 0.6870748 0.7265866
g stock_sa58_ds_arms_humpback_stock_LOD1_0
f 3/3/3 2/2/2 1/1/1
f 4/4/4 3/3/3 1/1/1
f 5/5/5 3/3/3 4/4/4
f 6/6/6 5/5/5 4/4/4
f 7/7/7 5/5/5 6/6/6
f 8/8/8 7/7/7 6/6/6
f 9/9/9 7/7/7 8/8/8
f 10/10/10 9/9/9 8/8/8
f 9/9/9 11/11/11 7/7/7
f 12/12/12 11/11/11 9/9/9
f 12/12/12 13/13/13 11/11/11
f 13/13/13 14/14/14 11/11/11
f 15/15/15 14/14/14 13/13/13
f 16/16/16 15/15/15 13/13/13
f 16/16/16 13/13/13 12/12/12
f 14/14/14 17/17/17 11/11/11
f 18/18/18 16/16/16 12/12/12
f 18/18/18 12/12/12 19/19/19
f 19/19/19 12/12/12 9/9/9
f 19/19/19 9/9/9 10/10/10
f 20/20/20 18/18/18 19/19/19
f 11/11/11 21/21/21 7/7/7
f 11/11/11 17/17/17 21/21/21
f 7/7/7 21/21/21 22/22/22
f 20/20/20 19/19/19 23/23/23
f 23/23/23 19/19/19 10/10/10
f 24/24/24 20/20/20 23/23/23
f 25/25/25 24/24/24 23/23/23
f 18/18/18 26/26/26 16/16/16
f 26/26/26 27/27/27 16/16/16
f 16/16/16 27/27/27 15/15/15
f 28/28/28 26/26/26 18/18/18
f 20/20/20 28/28/28 18/18/18
f 29/29/29 28/28/28 20/20/20
f 24/24/24 29/29/29 20/20/20
f 27/27/27 30/30/30 15/15/15
f 5/5/5 22/22/22 31/31/31
f 3/3/3 5/5/5 31/31/31
f 3/3/3 31/31/31 32/32/32
f 2/2/2 3/3/3 32/32/32
f 5/5/5 7/7/7 22/22/22
f 35/35/35 34/34/34 33/33/33
f 36/36/36 35/35/35 33/33/33
f 35/35/35 37/37/37 34/34/34
f 37/37/37 38/38/38 34/34/34
f 37/37/37 39/39/39 38/38/38
f 39/39/39 40/40/40 38/38/38
f 39/39/39 41/41/41 40/40/40
f 41/41/41 42/42/42 40/40/40
f 43/43/43 41/41/41 39/39/39
f 43/43/43 44/44/44 41/41/41
f 45/45/45 44/44/44 43/43/43
f 46/46/46 45/45/45 43/43/43
f 46/46/46 47/47/47 45/45/45
f 47/47/47 48/48/48 45/45/45
f 45/45/45 48/48/48 44/44/44
f 49/49/49 46/46/46 43/43/43
f 48/48/48 50/50/50 44/44/44
f 44/44/44 50/50/50 51/51/51
f 44/44/44 51/51/51 41/41/41
f 41/41/41 51/51/51 42/42/42
f 50/50/50 52/52/52 51/51/51
f 53/53/53 43/43/43 39/39/39
f 49/49/49 43/43/43 53/53/53
f 53/53/53 39/39/39 54/54/54
f 51/51/51 52/52/52 55/55/55
f 51/51/51 55/55/55 42/42/42
f 52/52/52 56/56/56 55/55/55
f 56/56/56 57/57/57 55/55/55
f 58/58/58 50/50/50 48/48/48
f 59/59/59 58/58/58 48/48/48
f 59/59/59 48/48/48 47/47/47
f 60/60/60 52/52/52 50/50/50
f 58/58/58 60/60/60 50/50/50
f 61/61/61 56/56/56 52/52/52
f 60/60/60 61/61/61 52/52/52
f 62/62/62 59/59/59 47/47/47
f 54/54/54 37/37/37 63/63/63
f 37/37/37 35/35/35 63/63/63
f 63/63/63 35/35/35 64/64/64
f 35/35/35 36/36/36 64/64/64
f 39/39/39 37/37/37 54/54/54
f 67/67/67 66/66/66 65/65/65
f 68/68/68 67/67/67 65/65/65
f 71/71/71 70/70/70 69/69/69
f 72/72/72 71/71/71 69/69/69
f 75/75/75 74/74/74 73/73/73
f 74/74/74 76/76/76 73/73/73
f 77/77/77 74/74/74 75/75/75
f 78/78/78 74/74/74 77/77/77
f 79/79/79 77/77/77 75/75/75
f 80/80/80 79/79/79 75/75/75
f 81/81/81 80/80/80 75/75/75
f 84/84/84 83/83/83 82/82/82
f 85/85/85 84/84/84 82/82/82
f 88/88/88 87/87/87 86/86/86
f 89/89/89 88/88/88 86/86/86
f 90/90/90 88/88/88 89/89/89
f 91/91/91 90/90/90 89/89/89
f 92/92/92 90/90/90 91/91/91
f 93/93/93 92/92/92 91/91/91
f 92/92/92 93/93/93 94/94/94
f 86/86/86 87/87/87 95/95/95
f 87/87/87 96/96/96 95/95/95
f 96/96/96 97/97/97 95/95/95
f 97/97/97 98/98/98 95/95/95
f 97/97/97 99/99/99 98/98/98
f 102/102/102 101/101/101 100/100/100
f 103/103/103 102/102/102 100/100/100
f 106/106/106 105/105/105 104/104/104
f 107/107/107 106/106/106 104/104/104
f 110/110/110 109/109/109 108/108/108
f 111/111/111 110/110/110 108/108/108
f 110/110/110 112/112/112 109/109/109
f 110/110/110 113/113/113 112/112/112
f 112/112/112 114/114/114 109/109/109
f 114/114/114 115/115/115 109/109/109
f 115/115/115 116/116/116 109/109/109
f 119/119/119 118/118/118 117/117/117
f 120/120/120 119/119/119 117/117/117
