g stock_ak74_izhmash_ak74_std_plastic_LOD1
v 0.02258386 0.2003257 -0.06389476
v 0.02360096 0.2031677 -0.06527256
v 0.02120176 0.1965246 -0.06554436
v 0.02175206 0.1978877 -0.06876526
v 0.02219236 0.2026857 -0.03354485
v 0.01951126 0.1917766 -0.06769215
v 0.01970706 0.1929817 -0.06432686
v 0.02334126 0.2060627 -0.03272235
v 0.02076436 0.1992977 -0.03116105
v 0.02051326 0.1999687 -0.02782696
v 0.01820856 0.1937867 -0.02918446
v 0.01902546 0.1955817 -0.03172946
v 0.01831006 0.1932057 -0.03849246
v 0.01753046 0.1910847 -0.03612686
v 0.01871076 0.1909326 -0.05716256
v 0.01812366 0.1884367 -0.05867276
v 0.01668076 0.1876267 -0.05269305
v 0.01577036 0.1843637 -0.05235146
v 0.01599286 0.1890327 -0.04284995
v 0.01499376 0.1855417 -0.04238725
v -0.01348094 0.06200767 0.008510364
v -0.01113024 0.08896668 0.01825928
v -0.0008132424 0.06576267 0.01288869
v -0.0008132424 0.08942167 0.02252014
v 0.009503728 0.08896668 0.01825928
v 0.01185446 0.06200767 0.008510364
v 0.02222956 0.2004177 -0.06399445
v 0.02084746 0.1966167 -0.06564396
v 0.02324666 0.2032596 -0.06537215
v 0.02207566 0.2013457 -0.05206696
v 0.02139776 0.1979797 -0.06886496
v 0.02324666 0.2032596 -0.06537215
v 0.01915686 0.1918687 -0.06779185
v 0.01935266 0.1930736 -0.06442656
v 0.01835646 0.1910247 -0.05726225
v 0.01776936 0.1885287 -0.05877245
v 0.01632646 0.1877187 -0.05279275
v 0.01541606 0.1844557 -0.05245116
v 0.02310466 0.2048427 -0.04756726
v 0.02324666 0.2032596 -0.06537215
v 0.007721308 -6.933212E-05 0.01212796
v 0.01442126 -6.933212E-05 0.01212796
v 0.01442126 -0.01451033 0.01212796
v -0.009347792 -6.933212E-05 0.01212796
v 0.006361308 0.03476067 0.01212796
v -0.007987793 0.03476067 0.01212796
v -0.01604774 -0.01451033 0.01212796
v -0.01604774 -6.933212E-05 0.01212796
v 0.009374937 0.2349607 0.01486863
v 0.01621986 0.2314057 -0.007431855
v 0.01298826 0.2304056 0.01501291
v -0.0008132424 0.2355957 0.01972427
v -0.0008132424 0.2306557 0.02168357
v -0.01461474 0.2304056 0.01501291
v -0.01100144 0.2349607 0.01486863
v -0.01724634 0.2314057 -0.007431855
v -0.01348094 0.06200767 0.008510364
v -0.01824884 -6.933212E-05 0.02265359
v -0.01791254 5.666733E-05 -0.01900646
v -0.01724634 0.2314057 -0.007431855
v -0.01846694 0.2308567 -0.04410385
v -0.01025124 0.2338846 -0.07514185
v -0.01461474 0.2304056 0.01501291
v -0.01113024 0.08896668 0.01825928
v -0.0008132424 0.2230897 -0.07760856
v 0.009374937 0.2349607 0.01486863
v -0.0008132424 0.2355957 0.01972427
v -0.01100144 0.2349607 0.01486863
v -0.01724634 0.2314057 -0.007431855
v 0.01621986 0.2314057 -0.007431855
v 0.01684046 0.2308567 -0.04410385
v -0.01846694 0.2308567 -0.04410385
v -0.01025124 0.2338846 -0.07514185
v 0.008624798 0.2338846 -0.07514185
v -0.0008132424 0.06576267 0.01288869
v -0.007987793 0.03476067 0.01745576
v -0.01348094 0.06200767 0.008510364
v 0.006361308 0.03476067 0.01745576
v 0.01185446 0.06200767 0.008510364
v 0.01662236 -6.933212E-05 0.02265359
v 0.007721308 -6.933212E-05 0.02486012
v -0.01824884 -6.933212E-05 0.02265359
v -0.009347792 -6.933212E-05 0.02486012
v -0.01604774 5.666733E-05 -0.01789686
v -0.01791254 5.666733E-05 -0.01900646
v -0.01604774 -6.933212E-05 0.01212796
v -0.01824884 -6.933212E-05 0.02265359
v -0.009347792 -6.933212E-05 0.01212796
v -0.009347792 -6.933212E-05 0.02486012
v 0.01442126 5.666733E-05 -0.01789686
v 0.01628606 5.666733E-05 -0.01900646
v 0.01442126 -6.933212E-05 0.01212796
v 0.01662236 -6.933212E-05 0.02265359
v 0.007721308 -6.933212E-05 0.01212796
v 0.007721308 -6.933212E-05 0.02486012
v -0.0008132424 0.2306557 0.02168357
v -0.01113024 0.08896668 0.01825928
v -0.01461474 0.2304056 0.01501291
v -0.0008132424 0.08942167 0.02252014
v 0.009503728 0.08896668 0.01825928
v 0.01298826 0.2304056 0.01501291
v -0.01604774 5.666733E-05 -0.01789686
v -0.01604774 -0.01451033 0.004403344
v -0.01604774 -0.03592633 -0.01594676
v -0.01604774 -0.03592633 0.004403344
v -0.01604774 -6.933212E-05 0.01212796
v -0.01604774 -0.01451033 0.01212796
v -0.007987793 0.03476067 0.01745576
v 0.006361308 0.03476067 0.01745576
v -0.007987793 0.03476067 0.01212796
v 0.006361308 0.03476067 0.01212796
v -0.009347792 -6.933212E-05 0.02486012
v -0.007987793 0.03476067 0.01745576
v -0.009347792 -6.933212E-05 0.01212796
v -0.007987793 0.03476067 0.01212796
v -0.01604774 -0.01451033 0.004403344
v 0.01442126 -0.01451033 0.004403344
v -0.01604774 -0.03592633 0.004403344
v 0.01442126 -0.03592633 0.004403344
v -0.01604774 -0.01451033 0.01212796
v 0.01442126 -0.01451033 0.01212796
v -0.01604774 -0.01451033 0.004403344
v 0.01442126 -0.01451033 0.004403344
v 0.01442126 5.666733E-05 -0.01789686
v 0.01442126 -0.03592633 -0.01594676
v 0.01442126 -0.01451033 0.004403344
v 0.01442126 -0.03592633 0.004403344
v 0.01442126 -6.933212E-05 0.01212796
v 0.01442126 -0.01451033 0.01212796
v -0.01604774 -0.03592633 -0.01594676
v 0.01442126 -0.03592633 -0.01594676
v -0.01604774 5.666733E-05 -0.01789686
v 0.01442126 5.666733E-05 -0.01789686
v 0.007721308 -6.933212E-05 0.02486012
v 0.007721308 -6.933212E-05 0.01212796
v 0.006361308 0.03476067 0.01745576
v 0.006361308 0.03476067 0.01212796
v -0.01604774 -0.03592633 0.004403344
v 0.01442126 -0.03592633 0.004403344
v -0.01604774 -0.03592633 -0.01594676
v 0.01442126 -0.03592633 -0.01594676
v -0.0008132424 0.2230897 -0.07760856
v 0.008624798 0.2338846 -0.07514185
v -0.01025124 0.2338846 -0.07514185
v -0.0008132424 0.2230897 -0.07760856
v -0.01791254 5.666733E-05 -0.01900646
v 0.01628606 5.666733E-05 -0.01900646
v 0.01185446 0.06200767 0.008510364
v 0.01628606 5.666733E-05 -0.01900646
v 0.01662236 -6.933212E-05 0.02265359
v 0.01621986 0.2314057 -0.007431855
v 0.01684046 0.2308567 -0.04410385
v 0.008624798 0.2338846 -0.07514185
v 0.01298826 0.2304056 0.01501291
v 0.009503728 0.08896668 0.01825928
v -0.0008132424 0.2230897 -0.07760856
v -0.0008674654 -0.01127933 0.01997326
v -0.0008845884 -0.01016232 0.01199011
v -0.0008674654 -0.004487333 0.01997326
v -0.0008845884 -0.006243324 0.01199011
v -0.0007590204 -0.004487333 0.01997326
v -0.0007418984 -0.006243324 0.01199011
v -0.0007590204 -0.01127933 0.01997326
v -0.0007418984 -0.01016232 0.01199011
vt 0.420925 0.843331
vt 0.411049 0.855482
vt 0.439167 0.843331
vt 0.432698 0.855482
vt 0.293797 0.843331
vt 0.454353 0.855482
vt 0.45601 0.843331
vt 0.303773 0.855482
vt 0.275499 0.843331
vt 0.276486 0.855482
vt 0.254374 0.855482
vt 0.258204 0.843331
vt 0.228122 0.843331
vt 0.229819 0.855482
vt 0.487403 0.843331
vt 0.486253 0.855482
vt 0.512118 0.843331
vt 0.512118 0.855482
vt 0.201134 0.843331
vt 0.201134 0.855482
vt 0.961343 0.404352
vt 0.961343 0.302394
vt 0.910292 0.404352
vt 0.910292 0.302394
vt 0.859241 0.302394
vt 0.859241 0.404352
vt 0.0254387 0.206173
vt 0.0254387 0.22203
vt 0.0400594 0.207814
vt 0.0254387 0.162742
vt 0.0400594 0.224443
vt 0.0400594 0.207814
vt 0.0400594 0.241076
vt 0.0254387 0.236672
vt 0.0254387 0.263961
vt 0.0400594 0.265578
vt 0.0254387 0.285445
vt 0.0400594 0.285445
vt 0.0400594 0.162742
vt 0.0400594 0.207814
vt 0.724419 0.964614
vt 0.724419 0.991638
vt 0.781484 0.991638
vt 0.724419 0.907091
vt 0.586777 0.964614
vt 0.586777 0.907091
vt 0.781484 0.880068
vt 0.724419 0.880068
vt 0.639049 0.638103
vt 0.639049 0.556566
vt 0.617899 0.622843
vt 0.639049 0.68158
vt 0.617899 0.681507
vt 0.617899 0.740234
vt 0.639049 0.725091
vt 0.639049 0.805751
vt 0.609055 0.593336
vt 0.609055 0.835235
vt 0.465739 0.835235
vt 0.5256 0.0250952
vt 0.386326 0.0250952
vt 0.263965 0.0250952
vt 0.644608 0.0250952
vt 0.644608 0.495165
vt 0.233821 0.0648731
vt 0.725018 0.368634
vt 0.786446 0.38724
vt 0.847874 0.368634
vt 0.847874 0.282835
vt 0.725018 0.282835
vt 0.725018 0.143487
vt 0.847874 0.143487
vt 0.847874 0.025
vt 0.725018 0.025
vt 0.829902 0.41485
vt 0.8486 0.531872
vt 0.890706 0.41485
vt 0.811169 0.53187
vt 0.769078 0.41485
vt 0.769078 0.653055
vt 0.811169 0.653055
vt 0.890706 0.653055
vt 0.8486 0.653055
vt 0.9683 0.824013
vt 0.978162 0.828039
vt 0.968324 0.715095
vt 0.978162 0.672913
vt 0.935883 0.715095
vt 0.935883 0.672913
vt 0.820723 0.824013
vt 0.810834 0.828039
vt 0.820661 0.715095
vt 0.810834 0.672913
vt 0.8531 0.715095
vt 0.8531 0.672913
vt 0.571081 0.937136
vt 0.0254386 0.985061
vt 0.571081 0.985061
vt 0.0254386 0.937139
vt 0.0254386 0.889214
vt 0.571081 0.889214
vt 0.859241 0.293919
vt 0.951516 0.241339
vt 0.859241 0.163697
vt 0.951516 0.163697
vt 0.984941 0.293919
vt 0.984941 0.241339
vt 0.0464931 0.154629
vt 0.0464931 0.101566
vt 0.0254387 0.154629
vt 0.0254388 0.101566
vt 0.862579 0.664337
vt 0.862579 0.79071
vt 0.906292 0.664338
vt 0.906292 0.79071
vt 0.985607 0.651233
vt 0.985607 0.540768
vt 0.900975 0.651233
vt 0.900974 0.540768
vt 0.64433 0.843331
vt 0.523922 0.843331
vt 0.64433 0.871897
vt 0.523922 0.871897
vt 0.859241 0.025
vt 0.859241 0.155222
vt 0.951516 0.0775799
vt 0.951516 0.155222
vt 0.984941 0.025
vt 0.984941 0.0775798
vt 0.822097 0.972396
vt 0.969596 0.972395
vt 0.822097 0.84175
vt 0.969596 0.84175
vt 0.191787 0.876724
vt 0.191787 0.843331
vt 0.0540403 0.876724
vt 0.0540402 0.843331
vt 0.899828 0.41485
vt 0.899828 0.525316
vt 0.980247 0.41485
vt 0.980248 0.525316
vt 0.902026 0.811401
vt 0.955633 0.811401
vt 0.955633 0.742966
vt 0.654672 0.0250154
vt 0.654672 0.869428
vt 0.789818 0.869428
vt 0.0610284 0.267012
vt 0.204406 0.0250952
vt 0.0610284 0.0250952
vt 0.144748 0.83525
vt 0.283967 0.83525
vt 0.406331 0.83525
vt 0.0254387 0.83525
vt 0.0254387 0.365174
vt 0.436468 0.795467
vt 0.0254387 0.0250952
vt 0.0254387 0.0548642
vt 0.046426 0.0250952
vt 0.046426 0.0548642
vt 0.046426 0.0930996
vt 0.046426 0.0633306
vt 0.0254387 0.0930996
vt 0.0254387 0.0633306
vn 0.9435142 -0.3310514 0.01363943
vn 0.9437706 -0.3297837 0.02323397
vn 0.9380615 -0.3455329 0.02544954
vn 0.9399736 -0.3408553 0.01635272
vn 0.9403847 -0.3345763 0.0611167
vn 0.9426131 -0.3298835 0.05155145
vn 0.9451304 -0.3211359 0.06000068
vn 0.9413469 -0.3309987 0.06561895
vn 0.927069 -0.3561537 0.1170365
vn 0.925988 -0.3505238 0.1402835
vn 0.9239271 -0.3794707 0.04858536
vn 0.9170374 -0.3985817 0.01323065
vn 0.9228077 -0.383849 -0.03295284
vn 0.9378445 -0.3462743 -0.02327605
vn 0.9475386 -0.2970863 0.1179427
vn 0.9520702 -0.2825223 0.1172323
vn 0.9456567 -0.2619091 0.19271
vn 0.9496428 -0.2444327 0.1960391
vn 0.9411002 -0.3166507 -0.1185865
vn 0.9487327 -0.2886056 -0.1288919
vn -0.2257347 -0.3138238 0.9222573
vn -0.3115288 -0.3435668 0.8859524
vn 1.027101E-07 -0.3341816 0.9425086
vn 4.000381E-07 -0.3770484 0.9261937
vn 0.3115295 -0.3435667 0.8859522
vn 0.2257348 -0.3138235 0.9222573
vn -0.9435139 0.3310517 -0.01364874
vn -0.9380574 0.345544 -0.02545004
vn -0.9437684 0.329794 -0.02317772
vn -0.9451609 0.3245598 -0.03649554
vn -0.9399707 0.340863 -0.01635319
vn -0.9437684 0.329794 -0.02317772
vn -0.94261 0.3298926 -0.05154877
vn -0.9451305 0.3211366 -0.05999727
vn -0.9475402 0.2970831 -0.1179378
vn -0.9520715 0.2825201 -0.117227
vn -0.9456564 0.2619114 -0.1927082
vn -0.9496422 0.2444359 -0.1960372
vn -0.9450296 0.3249492 -0.03642796
vn -0.9437684 0.329794 -0.02317772
vn 0 0 1
vn 0 0 1
vn 0 0 1
vn 0 0 1
vn 0 0 1
vn 0 0 1
vn 0 0 1
vn 0 0 1
vn 0.5995934 0.4955401 0.6284327
vn 0.7736915 0.6181408 0.1389374
vn 0.6978744 0.5645541 0.4407381
vn 1.80729E-07 0.3736704 0.9275616
vn 0 0.3686804 0.9295562
vn -0.7018037 0.5673212 0.4308344
vn -0.6043304 0.4990619 0.6210651
vn -0.7760781 0.6193862 0.1185901
vn -0.988888 0.006970762 0.1484994
vn -0.9971674 0.07480624 -0.007823373
vn -0.9992041 0.03903598 -0.008211483
vn -0.9969203 -0.00486616 0.07827039
vn -0.9917539 -0.01620628 -0.1271279
vn -0.8256599 -0.1059771 -0.5541251
vn -0.9924167 -0.01140774 0.1223885
vn -0.9600821 -0.01724465 0.2791863
vn -0.450202 -0.1944697 -0.8714928
vn 0 0.9883714 -0.1520588
vn 0 0.9915571 -0.1296705
vn 0 0.9883803 -0.1520013
vn 0 0.9968773 -0.07896641
vn 0 0.9969019 -0.07865645
vn 0 0.9993367 0.036417
vn 0 0.9993259 0.03671186
vn 0 0.995275 0.09709661
vn 0 0.995275 0.09709661
vn 0 0.221166 0.9752362
vn -0.2376253 0.208564 0.9487019
vn -0.3692394 0.221846 0.902467
vn 0.2376252 0.208564 0.9487019
vn 0.3692394 0.221846 0.902467
vn 0.2489056 0.2142841 0.9445254
vn 0.2352015 0.2108837 0.9487931
vn -0.2489056 0.2142841 0.9445254
vn -0.2352015 0.2108837 0.9487931
vn 0.001116746 -0.9999976 -0.00187681
vn 0.0008938455 -0.9999959 -0.002724666
vn -0.009147485 -0.9999563 -0.001972809
vn -0.001650179 -0.9999986 -0.0003450823
vn 0 -1 0
vn 0 -1 0
vn -0.001116747 -0.9999976 -0.00187681
vn -0.0008938464 -0.9999959 -0.002724667
vn 0.009147489 -0.9999563 -0.001972809
vn 0.001650179 -0.9999986 -0.0003450823
vn 0 -1 0
vn 0 -1 0
vn 0 0.01077458 0.9999419
vn -0.3856581 0.00578379 0.9226237
vn -0.4352896 0.009938752 0.9002357
vn 5.410289E-07 0.005923186 0.9999825
vn 0.3856589 0.00578378 0.9226233
vn 0.4352897 0.009938662 0.9002357
vn -1 0 0
vn -1 0 0
vn -1 0 0
vn -1 0 0
vn -1 0 0
vn -1 0 0
vn 0 -1 0
vn 0 -1 0
vn 0 -1 0
vn 0 -1 0
vn 0.9992385 -0.03901706 0
vn 0.9992385 -0.03901706 0
vn 0.9992385 -0.03901706 0
vn 0.9992385 -0.03901706 0
vn 0 0 1
vn 0 0 1
vn 0 0 1
vn 0 0 1
vn 0 -1 0
vn 0 -1 0
vn 0 -1 0
vn 0 -1 0
vn 1 0 0
vn 1 0 0
vn 1 0 0
vn 1 0 0
vn 1 0 0
vn 1 0 0
vn 0 -0.0541156 -0.9985347
vn 0 -0.05411561 -0.9985347
vn 0 -0.05411561 -0.9985347
vn 0 -0.0541156 -0.9985347
vn -0.9992385 -0.03901707 0
vn -0.9992385 -0.03901707 0
vn -0.9992385 -0.03901707 0
vn -0.9992385 -0.03901707 0
vn 0 -1 0
vn 0 -1 0
vn 0 -1 0
vn 0 -1 0
vn 0 0.2227624 -0.9748727
vn 0 0.2227624 -0.9748727
vn 0 0.2227624 -0.9748727
vn 0 -0.2541251 -0.9671714
vn 0 -0.254125 -0.9671714
vn 0 -0.2541251 -0.9671714
vn 0.9880753 0.004904269 0.1538933
vn 0.9992319 0.03829569 -0.008301685
vn 0.9971674 0.07480622 -0.007823373
vn 0.9965496 -0.006332173 0.08275732
vn 0.9907708 -0.01700304 -0.1344767
vn 0.8256598 -0.1059773 -0.5541254
vn 0.9890027 -0.0123498 0.1473808
vn 0.9600812 -0.01724476 0.2791894
vn 0.4502006 -0.19447 -0.8714935
vn -0.9999977 0 0.002144888
vn -0.9999977 0 0.002144888
vn -0.9999977 0 0.002144888
vn -0.9999977 0 0.002144888
vn 0.9999977 0 0.002144762
vn 0.9999977 0 0.002144761
vn 0.9999977 0 0.002144762
vn 0.9999977 0 0.002144761
g stock_ak74_izhmash_ak74_std_plastic_LOD1_0
f 3/3/3 2/2/2 1/1/1
f 2/2/2 3/3/3 4/4/4
f 2/2/2 5/5/5 1/1/1
f 3/3/3 6/6/6 4/4/4
f 6/6/6 3/3/3 7/7/7
f 5/5/5 2/2/2 8/8/8
f 5/5/5 8/8/8 9/9/9
f 8/8/8 10/10/10 9/9/9
f 11/11/11 9/9/9 10/10/10
f 9/9/9 11/11/11 12/12/12
f 11/11/11 13/13/13 12/12/12
f 13/13/13 11/11/11 14/14/14
f 15/15/15 6/6/6 7/7/7
f 6/6/6 15/15/15 16/16/16
f 17/17/17 16/16/16 15/15/15
f 16/16/16 17/17/17 18/18/18
f 14/14/14 19/19/19 13/13/13
f 19/19/19 14/14/14 20/20/20
f 23/23/23 22/22/22 21/21/21
f 22/22/22 23/23/23 24/24/24
f 23/23/23 25/25/25 24/24/24
f 25/25/25 23/23/23 26/26/26
f 29/29/29 28/28/28 27/27/27
f 30/30/30 29/29/29 27/27/27
f 28/28/28 32/32/32 31/31/31
f 33/33/33 28/28/28 31/31/31
f 28/28/28 33/33/33 34/34/34
f 33/33/33 35/35/35 34/34/34
f 35/35/35 33/33/33 36/36/36
f 36/36/36 37/37/37 35/35/35
f 37/37/37 36/36/36 38/38/38
f 40/40/40 30/30/30 39/39/39
f 43/43/43 42/42/42 41/41/41
f 44/44/44 43/43/43 41/41/41
f 45/45/45 44/44/44 41/41/41
f 44/44/44 45/45/45 46/46/46
f 43/43/43 44/44/44 47/47/47
f 48/48/48 47/47/47 44/44/44
f 51/51/51 50/50/50 49/49/49
f 52/52/52 51/51/51 49/49/49
f 51/51/51 52/52/52 53/53/53
f 52/52/52 54/54/54 53/53/53
f 54/54/54 52/52/52 55/55/55
f 56/56/56 54/54/54 55/55/55
f 59/59/59 58/58/58 57/57/57
f 57/57/57 60/60/60 59/59/59
f 61/61/61 59/59/59 60/60/60
f 59/59/59 61/61/61 62/62/62
f 60/60/60 57/57/57 63/63/63
f 64/64/64 63/63/63 57/57/57
f 62/62/62 65/65/65 59/59/59
f 68/68/68 67/67/67 66/66/66
f 66/66/66 69/69/69 68/68/68
f 69/69/69 66/66/66 70/70/70
f 71/71/71 69/69/69 70/70/70
f 69/69/69 71/71/71 72/72/72
f 71/71/71 73/73/73 72/72/72
f 73/73/73 71/71/71 74/74/74
f 77/77/77 76/76/76 75/75/75
f 76/76/76 78/78/78 75/75/75
f 79/79/79 75/75/75 78/78/78
f 78/78/78 80/80/80 79/79/79
f 80/80/80 78/78/78 81/81/81
f 82/82/82 76/76/76 77/77/77
f 76/76/76 82/82/82 83/83/83
f 86/86/86 85/85/85 84/84/84
f 85/85/85 86/86/86 87/87/87
f 88/88/88 87/87/87 86/86/86
f 87/87/87 88/88/88 89/89/89
f 85/85/85 90/90/90 84/84/84
f 90/90/90 85/85/85 91/91/91
f 91/91/91 92/92/92 90/90/90
f 92/92/92 91/91/91 93/93/93
f 93/93/93 94/94/94 92/92/92
f 94/94/94 93/93/93 95/95/95
f 98/98/98 97/97/97 96/96/96
f 99/99/99 96/96/96 97/97/97
f 99/99/99 100/100/100 96/96/96
f 101/101/101 96/96/96 100/100/100
f 104/104/104 103/103/103 102/102/102
f 103/103/103 104/104/104 105/105/105
f 103/103/103 106/106/106 102/102/102
f 106/106/106 103/103/103 107/107/107
f 110/110/110 109/109/109 108/108/108
f 109/109/109 110/110/110 111/111/111
f 114/114/114 113/113/113 112/112/112
f 113/113/113 114/114/114 115/115/115
f 118/118/118 117/117/117 116/116/116
f 117/117/117 118/118/118 119/119/119
f 122/122/122 121/121/121 120/120/120
f 121/121/121 122/122/122 123/123/123
f 126/126/126 125/125/125 124/124/124
f 125/125/125 126/126/126 127/127/127
f 128/128/128 126/126/126 124/124/124
f 126/126/126 128/128/128 129/129/129
f 132/132/132 131/131/131 130/130/130
f 131/131/131 132/132/132 133/133/133
f 136/136/136 135/135/135 134/134/134
f 135/135/135 136/136/136 137/137/137
f 140/140/140 139/139/139 138/138/138
f 139/139/139 140/140/140 141/141/141
f 144/144/144 143/143/143 142/142/142
f 147/147/147 146/146/146 145/145/145
f 150/150/150 149/149/149 148/148/148
f 149/149/149 151/151/151 148/148/148
f 152/152/152 151/151/151 149/149/149
f 152/152/152 149/149/149 153/153/153
f 151/151/151 154/154/154 148/148/148
f 155/155/155 148/148/148 154/154/154
f 156/156/156 153/153/153 149/149/149
f 159/159/159 158/158/158 157/157/157
f 158/158/158 159/159/159 160/160/160
f 163/163/163 162/162/162 161/161/161
f 162/162/162 163/163/163 164/164/164
