g stock_all_sig_mpx_mcx_early_type_screw_LOD0
v 0.005112953 0.001874626 -0.002196195
v 0.005391121 -3.099441E-08 0.0007576489
v 0.005112953 0.001874626 0.0007703424
v 0.005421457 -3.099441E-08 -0.002196195
v 0.004219856 0.003458354 0.0007703328
v 0.004219856 0.003458354 -0.002196195
v 0.002850199 0.004634979 -0.002196195
v 0.002850199 0.004634979 0.0007703424
v 0.001168609 0.005262191 0.0007703328
v 0.001168609 0.005262191 -0.002196195
v -0.0006216049 0.005264747 -0.002196195
v -0.0006216049 0.005264747 0.0007703328
v -0.002304664 0.004641959 0.0007703328
v -0.002304664 0.004641959 -0.002196195
v -0.003677516 0.003469226 -0.002196195
v -0.003677516 0.003469245 0.0007703424
v -0.004574847 0.001887958 -0.002196195
v -0.004574847 0.001887958 0.0007703328
v -0.004857917 -3.099441E-08 0.0007576489
v -0.004888043 -3.099441E-08 -0.002196195
v -0.004574861 -0.001888058 -0.002196224
v -0.004574861 -0.001888058 0.0007703137
v -0.003677535 -0.00346925 0.0007703137
v -0.003677535 -0.00346925 -0.002196195
v -0.002304678 -0.004642021 0.0007703137
v -0.002304678 -0.004642021 -0.002196252
v -0.0006216192 -0.005264752 -0.002196252
v -0.0006216192 -0.005264752 0.0007703137
v 0.005391121 -3.099441E-08 0.0007576489
v 0.004860868 -3.099441E-08 0.001431143
v 0.004543228 0.001663902 0.001484568
v 0.005112953 0.001874626 0.0007703424
v 0.003755169 0.003061359 0.001484578
v 0.004219856 0.003458354 0.0007703328
v 0.002546344 0.004099586 0.001484568
v 0.002850199 0.004634979 0.0007703424
v 0.001168609 0.005262191 0.0007703328
v 0.001062732 0.004653213 0.001484568
v -0.0006216049 0.005264747 0.0007703328
v -0.0005172109 0.00465533 0.001484568
v -0.002002516 0.004105975 0.001484568
v -0.002304664 0.004641959 0.0007703328
v -0.003677516 0.003469245 0.0007703424
v -0.003213882 0.003071144 0.001484578
v -0.004574847 0.001887958 0.0007703328
v -0.004005766 0.001675537 0.001484568
v -0.004857917 -3.099441E-08 0.0007576489
v -0.004327645 -3.099441E-08 0.001431143
v -0.004048414 -0.001691391 0.001431153
v -0.004574861 -0.001888058 0.0007703137
v -0.003248677 -0.003100674 0.001431143
v -0.003677535 -0.00346925 0.0007703137
v -0.002024999 -0.004145939 0.001431143
v -0.002304678 -0.004642021 0.0007703137
v -0.0006216192 -0.005264752 0.0007703137
v -0.0005250549 -0.004701035 0.001431153
v 0.001070585 -0.00469867 0.001431153
v 0.001168599 -0.005262196 0.0007703137
v 0.002569251 -0.004139607 0.001431153
v 0.00285018 -0.004635002 0.0007703137
v 0.004219837 -0.003458416 0.0007703137
v 0.003789968 -0.003091176 0.001431153
v 0.005112934 -0.001874726 0.0007703137
v 0.004585876 -0.001679509 0.001431153
v -0.001953745 -0.004024536 0.001490347
v -0.003140149 -0.003011143 0.001490347
v 0.002497673 -0.004018376 0.001490347
v 0.003681173 -0.003001892 0.001490347
v 0.004453058 -0.001632817 0.001490347
v -0.003915677 -0.001644433 0.001490347
v -0.004186859 -1.900196E-06 0.001489947
v 0.004720116 -1.91927E-06 0.001489947
v 0.004411325 0.001615646 0.001543343
v -0.00387393 0.001627033 0.001543343
v 0.003646393 0.002972057 0.001543791
v -0.003105345 0.002981575 0.001543791
v 0.002474751 0.003978374 0.001543791
v -0.001931262 0.003984516 0.001543791
v -0.0004924822 0.004516685 0.001543791
v 0.001037622 0.004514644 0.001543791
v 0.00104548 -0.004560063 0.001490347
v -0.0005003309 -0.00456237 0.001490347
v 0.01370544 0.002391689 0.002194998
v 0.01064496 0.002384899 0.002196181
v 0.01089514 0.002384899 0.001012375
v 0.013815 0.002391879 0.001011202
v 0.01513093 0.002084873 0.002194426
v 0.0152316 0.002083423 0.00101063
v 0.008454733 0.002371089 -0.0004175734
v 0.009332133 0.002371089 -0.0007799506
v 0.008188486 0.00237004 -0.001074159
v 0.009043579 0.00237004 -0.001867568
v 0.003796511 0.00237004 -0.001865632
v 0.003796139 0.00237004 -0.001072462
v 0.01567264 0.001149337 0.002194226
v 0.01578598 0.001150005 0.00101042
v 0.01590857 -0.0001301694 0.001010373
v 0.01579921 -0.0001301503 0.002194149
v 0.01567264 -0.001409638 0.002194226
v 0.01578597 -0.001410248 0.001010401
v 0.01523158 -0.002343724 0.00101063
v 0.01513091 -0.002345173 0.002194416
v 0.01381498 -0.002652199 0.001011193
v 0.01370543 -0.002652009 0.002194998
v 0.01089514 -0.002645199 0.001012356
v 0.01064495 -0.002645199 0.002196181
v 0.008454666 -0.00263139 -0.0004175734
v 0.009332133 -0.002631409 -0.0007799601
v 0.008188486 -0.002630417 -0.001074159
v 0.00904355 -0.002630341 -0.001867616
v 0.003796511 -0.002630341 -0.001865652
v 0.003796129 -0.002630417 -0.001072481
v 0.008454733 0.002371089 -0.0004175734
v 0.01064496 0.002384899 0.002196181
v 0.008454666 -0.00263139 -0.0004175734
v 0.01064495 -0.002645199 0.002196181
v 0.008188486 0.00237004 -0.001074159
v 0.008188486 -0.002630417 -0.001074159
v 0.01513093 0.002084873 0.002194426
v 0.01567264 0.001149337 0.002194226
v 0.01567264 -0.001409638 0.002194226
v 0.01513091 -0.002345173 0.002194416
v 0.01579921 -0.0001301503 0.002194149
v 0.01370544 0.002391689 0.002194998
v 0.01370543 -0.002652009 0.002194998
v 0.01064496 0.002384899 0.002196181
v 0.01064495 -0.002645199 0.002196181
v 0.003796139 0.00237004 -0.001072462
v 0.008188486 0.00237004 -0.001074159
v 0.008188486 -0.002630417 -0.001074159
v 0.003796129 -0.002630417 -0.001072481
v 0.005112934 -0.001874726 0.0007703137
v 0.005112934 -0.001874726 -0.002196252
v 0.004219837 -0.003458416 0.0007703137
v 0.004219837 -0.003458416 -0.002196224
v 0.00285018 -0.004635002 -0.002196224
v 0.00285018 -0.004635002 0.0007703137
v 0.001168599 -0.005262196 0.0007703137
v 0.001168599 -0.005262196 -0.002196195
v -0.0006216192 -0.005264752 -0.002196252
v -0.0006216192 -0.005264752 0.0007703137
v -0.01370548 0.002391765 0.002194998
v -0.01089515 0.002384918 0.001012375
v -0.010645 0.002384918 0.002196181
v -0.01381504 0.002391899 0.001011202
v -0.01513093 0.002084892 0.002194426
v -0.01523163 0.002083461 0.00101063
v -0.008454714 0.002371147 -0.0004175734
v -0.009322171 0.002371147 -0.0007799506
v -0.008188491 0.002370098 -0.001074159
v -0.009033642 0.002370098 -0.001867568
v -0.003796539 0.002370098 -0.001865632
v -0.003796167 0.002370098 -0.001072462
v -0.01567269 0.001149394 0.002194216
v -0.01578597 0.001150024 0.00101042
v -0.01590857 -0.0001300931 0.001010373
v -0.01579924 -0.0001300931 0.002194149
v -0.01567269 -0.0014096 0.002194216
v -0.01578596 -0.001410229 0.001010401
v -0.01523161 -0.002343686 0.00101063
v -0.01513093 -0.002345116 0.002194416
v -0.01381502 -0.00265218 0.001011193
v -0.01370547 -0.00265197 0.002194989
v -0.01089514 -0.00264518 0.001012356
v -0.01064499 -0.00264518 0.002196181
v -0.008454694 -0.002631371 -0.0004175734
v -0.009322147 -0.00263139 -0.0007799601
v -0.008188477 -0.002630379 -0.001074159
v -0.009033622 -0.002630322 -0.001867616
v -0.00379653 -0.002630322 -0.001865652
v -0.003796158 -0.002630379 -0.001072481
v -0.008454714 0.002371147 -0.0004175734
v -0.008454694 -0.002631371 -0.0004175734
v -0.010645 0.002384918 0.002196181
v -0.01064499 -0.00264518 0.002196181
v -0.008188491 0.002370098 -0.001074159
v -0.008188477 -0.002630379 -0.001074159
v -0.01513093 0.002084892 0.002194426
v -0.01567269 -0.0014096 0.002194216
v -0.01567269 0.001149394 0.002194216
v -0.01513093 -0.002345116 0.002194416
v -0.01579924 -0.0001300931 0.002194149
v -0.01370548 0.002391765 0.002194998
v -0.01370547 -0.00265197 0.002194989
v -0.010645 0.002384918 0.002196181
v -0.01064499 -0.00264518 0.002196181
v -0.003796167 0.002370098 -0.001072462
v -0.008188477 -0.002630379 -0.001074159
v -0.008188491 0.002370098 -0.001074159
v -0.003796158 -0.002630379 -0.001072481
vt 0.8633136 0.8937938
vt 0.8882501 0.9097344
vt 0.8882501 0.8937967
vt 0.8633136 0.9097711
vt 0.8882501 0.8785064
vt 0.8633136 0.8785036
vt 0.8633136 0.8633182
vt 0.8882501 0.863322
vt 0.8882501 0.8482292
vt 0.8633136 0.8482254
vt 0.8633136 0.8331702
vt 0.8882501 0.8331749
vt 0.8882501 0.8180835
vt 0.8633136 0.8180783
vt 0.8633136 0.8028939
vt 0.8882501 0.8028996
vt 0.8633136 0.7876041
vt 0.8882501 0.7876098
vt 0.8882501 0.7715542
vt 0.8633136 0.7715099
vt 0.8633136 0.7554147
vt 0.8882501 0.7555001
vt 0.8882501 0.7402108
vt 0.8633136 0.7401254
vt 0.8882501 0.7250264
vt 0.8633136 0.7249405
vt 0.8633136 0.7098913
vt 0.8882501 0.7098913
vt 0.4217726 0.04805166
vt 0.4143788 0.0480633
vt 0.4115913 0.06193874
vt 0.4191743 0.06464539
vt 0.4050493 0.07358541
vt 0.411266 0.07876578
vt 0.394982 0.08224359
vt 0.3990599 0.08927505
vt 0.3840621 0.0949674
vt 0.3826298 0.08692397
vt 0.3679994 0.0950968
vt 0.3694153 0.08700408
vt 0.3570333 0.08233161
vt 0.3529532 0.08938132
vt 0.3407345 0.07886507
vt 0.3469523 0.07367861
vt 0.3328164 0.06474915
vt 0.3403969 0.06203575
vt 0.3302016 0.04803894
vt 0.3375929 0.04806076
vt 0.3399645 0.03390911
vt 0.3329533 0.03135164
vt 0.3466391 0.02213245
vt 0.3409097 0.0173182
vt 0.3568474 0.01339222
vt 0.3530926 0.006886687
vt 0.3680308 0.001237982
vt 0.36936 0.00867308
vt 0.3827301 0.008662581
vt 0.3840326 0.00118319
vt 0.3952446 0.01341057
vt 0.3990257 0.00689757
vt 0.4111824 0.01739939
vt 0.4054275 0.02219497
vt 0.4190834 0.03147269
vt 0.4120584 0.03400482
vt 0.3574928 0.01447904
vt 0.3476178 0.0229406
vt 0.3945933 0.01450379
vt 0.4044428 0.02300128
vt 0.4108602 0.03442927
vt 0.3411599 0.03433739
vt 0.3388939 0.04803954
vt 0.4130765 0.04803952
vt 0.4104343 0.06150745
vt 0.3415546 0.06160463
vt 0.4040711 0.07278426
vt 0.3479326 0.0728759
vt 0.3943354 0.08116166
vt 0.3576818 0.08124237
vt 0.3696463 0.0857203
vt 0.382394 0.08566879
vt 0.3824951 0.0099415
vt 0.3695927 0.009939143
vt 0.969063 0.1648079
vt 0.969063 0.1896354
vt 0.9791331 0.1882983
vt 0.9791331 0.1642548
vt 0.969063 0.1522809
vt 0.9791331 0.1518275
vt 0.9863346 0.2082373
vt 0.989456 0.2044846
vt 0.9911174 0.21093
vt 0.9980137 0.206935
vt 0.9980137 0.2499281
vt 0.9911174 0.2499009
vt 0.969063 0.1426021
vt 0.9791331 0.1423384
vt 0.9791331 0.1309806
vt 0.969063 0.1308361
vt 0.969063 0.1191832
vt 0.9791331 0.1196839
vt 0.9791331 0.1102887
vt 0.969063 0.1097007
vt 0.9791331 0.09802204
vt 0.969063 0.0974875
vt 0.9791331 0.07428413
vt 0.969063 0.07321029
vt 0.9860386 0.05383068
vt 0.9892727 0.05745225
vt 0.9909479 0.05101686
vt 0.997683 0.05486255
vt 0.997683 0.01300913
vt 0.9909479 0.01297765
vt 0.2583828 0.008187936
vt 0.2583828 0.03687386
vt 0.3005361 0.008187697
vt 0.3005361 0.03687386
vt 0.2583828 0.002227471
vt 0.3005361 0.002227471
vt 0.8606151 0.4380079
vt 0.8560587 0.4458761
vt 0.8560587 0.4673985
vt 0.8606151 0.475267
vt 0.8549941 0.4566374
vt 0.8726038 0.4354557
vt 0.8726038 0.4778191
vt 0.8983448 0.4354557
vt 0.8983448 0.4778191
vt 0.04651878 0.03976928
vt 0.04651878 0.002830687
vt 0.004466037 0.002830687
vt 0.004466037 0.03976928
vt 0.8882501 0.9256722
vt 0.8633136 0.9257485
vt 0.8882501 0.9409615
vt 0.8633136 0.9410383
vt 0.8633136 0.9562231
vt 0.8882501 0.9561464
vt 0.8882501 0.9712392
vt 0.8633136 0.971316
vt 0.8633136 0.9863707
vt 0.8882501 0.9862934
vt 0.969063 1.164808
vt 0.9791331 1.188298
vt 0.969063 1.189635
vt 0.9791331 1.164255
vt 0.969063 1.152281
vt 0.9791331 1.151827
vt 0.9863346 1.208237
vt 0.989456 1.204485
vt 0.9911174 1.21093
vt 0.9980137 1.206935
vt 0.9980137 1.249928
vt 0.9911174 1.249901
vt 0.969063 1.142602
vt 0.9791331 1.142338
vt 0.9791331 1.130981
vt 0.969063 1.130836
vt 0.969063 1.119183
vt 0.9791331 1.119684
vt 0.9791331 1.110289
vt 0.969063 1.109701
vt 0.9791331 1.098022
vt 0.969063 1.097487
vt 0.9791331 1.074284
vt 0.969063 1.07321
vt 0.9860386 1.053831
vt 0.9892727 1.057452
vt 0.9909479 1.051017
vt 0.997683 1.054862
vt 0.997683 1.013009
vt 0.9909479 1.012978
vt 0.2583828 1.008188
vt 0.3005361 1.008188
vt 0.2583828 1.036874
vt 0.3005361 1.036874
vt 0.2583828 1.002227
vt 0.3005361 1.002227
vt 0.8606151 1.438008
vt 0.8560587 1.467399
vt 0.8560587 1.445876
vt 0.8606151 1.475267
vt 0.8549941 1.456637
vt 0.8726038 1.435456
vt 0.8726038 1.477819
vt 0.8983448 1.435456
vt 0.8983448 1.477819
vt 0.04651878 1.039769
vt 0.004466037 1.002831
vt 0.04651878 1.002831
vt 0.004466037 1.039769
vn 0.9442545 0.3292031 0.002939314
vn 0.9999933 0 0.003673745
vn 0.9457783 0.3248128 0
vn 0.9999545 0 0.009551365
vn 0.7727777 0.6346768 0
vn 0.7727777 0.6346768 0
vn 0.5084323 0.861102 0
vn 0.5084323 0.861102 0
vn 0.1780776 0.9840164 0
vn 0.1780776 0.9840164 0
vn -0.1752312 0.9845273 0
vn -0.1752312 0.9845273 0
vn -0.506153 0.8624436 0
vn -0.506153 0.8624436 0
vn -0.7713146 0.636454 0
vn -0.7713146 0.636454 0
vn -0.9432977 0.331935 0.002937478
vn -0.9448726 0.3274383 0
vn -0.9999933 0 0.003675095
vn -0.9999543 0 0.009554874
vn -0.9437947 -0.3305118 0.003672353
vn -0.9453261 -0.3261265 0
vn -0.7713146 -0.636454 0
vn -0.7713146 -0.636454 0
vn -0.506153 -0.8624436 0
vn -0.506153 -0.8624436 0
vn -0.1752312 -0.9845273 0
vn -0.1752312 -0.9845273 0
vn 0.7797204 0 0.626128
vn 0.6232572 -0.002939892 0.7820114
vn 0.574636 0.1939948 0.7950847
vn 0.7208869 0.2454396 0.6481369
vn 0.4687608 0.3835316 0.7957178
vn 0.5871252 0.4820453 0.6503202
vn 0.3078985 0.5202675 0.7965679
vn 0.384526 0.6531072 0.6523734
vn 0.1347027 0.7443519 0.6540607
vn 0.108027 0.5937809 0.797342
vn -0.1321788 0.7446072 0.654285
vn -0.1058473 0.593921 0.7975301
vn -0.3059996 0.521632 0.7964071
vn -0.3828311 0.6539726 0.652503
vn -0.5857447 0.4835885 0.6504192
vn -0.4679002 0.3837296 0.7961287
vn -0.7207069 0.248317 0.6472403
vn -0.5739791 0.195491 0.7951925
vn -0.7795762 0 0.6263073
vn -0.6237064 -0.002938546 0.7816532
vn -0.5756373 -0.1984956 0.7932473
vn -0.7207069 -0.248317 0.6472403
vn -0.4676359 -0.3849823 0.795679
vn -0.5853283 -0.4847135 0.6499566
vn -0.3063325 -0.5215733 0.7963176
vn -0.3826476 -0.6536591 0.6529246
vn -0.1321788 -0.7446072 0.654285
vn -0.106118 -0.5948482 0.7968028
vn 0.108027 -0.5937809 0.797342
vn 0.1343423 -0.7443887 0.654093
vn 0.3078985 -0.5202675 0.7965679
vn 0.3839003 -0.6532913 0.6525572
vn 0.5867091 -0.4831722 0.6498592
vn 0.4684963 -0.3847838 0.7952688
vn 0.7209693 -0.2469375 0.647476
vn 0.5761285 -0.1984116 0.7929116
vn -0.1105662 -0.1895421 0.9756275
vn -0.1686245 -0.139602 0.9757444
vn 0.1113227 -0.1881096 0.9758187
vn 0.1689814 -0.1395933 0.9756839
vn 0.2064534 -0.07347094 0.9756941
vn -0.2061016 -0.07347652 0.9757681
vn -0.2182379 -0.01175692 0.9758247
vn 0.2182379 -0.01175692 0.9758247
vn 0.2056721 0.05729436 0.9769423
vn -0.2054502 0.05880507 0.9768992
vn 0.1689814 0.1395933 0.9756839
vn -0.1686589 0.1381607 0.9759435
vn 0.1113227 0.1881096 0.9758187
vn -0.1105662 0.1895421 0.9756275
vn -0.03858204 0.2145897 0.975942
vn 0.03894893 0.2145866 0.9759281
vn 0.03893661 -0.215988 0.9756193
vn -0.03820305 -0.2159941 0.975647
vn 0.09848041 0.9950931 0.009554069
vn -0.002936844 0.9999955 -0.0007342111
vn -0.003671046 0.999993 -0.0007342092
vn 0.1117163 0.9936869 0.01028966
vn 0.5728867 0.8181998 0.04847503
vn 0.6003112 0.7979657 0.05363858
vn -0.00147058 0.9999946 -0.002941161
vn -0.001470577 0.9999921 -0.003676442
vn 0 0.9999998 -0.000735294
vn -0.0007352931 0.9999987 -0.001470586
vn 0 1 0
vn 0 1 0
vn 0.9466523 0.3101609 0.08746244
vn 0.9477785 0.3056402 0.09110428
vn 0.9955679 0 0.09404626
vn 0.9957044 0 0.09258948
vn 0.94622 -0.3114886 0.08742249
vn 0.9477785 -0.3056402 0.09110428
vn 0.6003112 -0.7979657 0.05363858
vn 0.5730823 -0.8180583 0.04855382
vn 0.1117163 -0.9936869 0.01028966
vn 0.09848041 -0.9950931 0.009554069
vn -0.003676445 -0.999993 -0.0007352889
vn -0.002941163 -0.9999955 -0.0007352908
vn -0.001468424 -0.9999965 -0.002202635
vn -0.001468417 -0.9999923 -0.003671043
vn 0 -0.9999998 -0.0007342142
vn 0 -0.9999998 -0.0007342142
vn 0 -1 0
vn 0 -1 0
vn -0.856714 0 0.5157918
vn -0.7664716 0 0.6422783
vn -0.856714 0 0.5157918
vn -0.7664716 0 0.6422783
vn -0.9268981 0 0.375313
vn -0.9268981 0 0.375313
vn 0.0007347537 0 0.9999998
vn 0.0007342142 0 0.9999998
vn 0.0007342142 0 0.9999998
vn 0.0007347537 0 0.9999998
vn 0.0007347537 0 0.9999998
vn 0.0007342142 0 0.9999998
vn 0.0007342142 0 0.9999998
vn 0.0007347537 0 0.9999998
vn 0.0007347537 0 0.9999998
vn 0.0007342142 0 0.9999998
vn 0.0007347537 0 0.9999998
vn 0.0007347537 0 0.9999998
vn 0.0007342142 0 0.9999998
vn 0.9457783 -0.3248128 0
vn 0.9442523 -0.3292024 0.003674133
vn 0.7727777 -0.6346768 0
vn 0.7727777 -0.6346768 0
vn 0.5084323 -0.861102 0
vn 0.5084323 -0.861102 0
vn 0.1780776 -0.9840164 0
vn 0.1780776 -0.9840164 0
vn -0.1752312 -0.9845273 0
vn -0.1752312 -0.9845273 0
vn -0.09848041 0.9950931 0.009554069
vn 0.003303946 0.9999943 -0.0007342102
vn 0.003303946 0.9999943 -0.0007342102
vn -0.1117163 0.9936869 0.01028966
vn -0.5731333 0.8180277 0.04846483
vn -0.6003112 0.7979657 0.05363858
vn 0.00147058 0.9999946 -0.002941161
vn 0.00183822 0.9999915 -0.003676439
vn 0.0003676469 0.9999996 -0.0007352938
vn 0.0003676467 0.9999989 -0.001470587
vn 0 1 0
vn 0 1 0
vn -0.94622 0.3114886 0.08742249
vn -0.9477785 0.3056402 0.09110428
vn -0.9955679 0 0.09404626
vn -0.9957044 0 0.09258948
vn -0.94622 -0.3114886 0.08742249
vn -0.9482034 -0.3043072 0.09114514
vn -0.6003112 -0.7979657 0.05363858
vn -0.5738226 -0.8175409 0.04852311
vn -0.1117163 -0.9936869 0.01028966
vn -0.09848041 -0.9950931 0.009554069
vn 0.003676445 -0.999993 -0.0007352889
vn 0.003676445 -0.999993 -0.0007352889
vn 0.001835529 -0.9999959 -0.002202634
vn 0.001468421 -0.9999946 -0.002936842
vn 0.000367107 -0.9999996 -0.0007342141
vn 0.000367107 -0.9999996 -0.0007342141
vn 0 -1 0
vn 0 -1 0
vn 0.8568117 0 0.5156295
vn 0.8568117 0 0.5156295
vn 0.7664716 0 0.6422783
vn 0.7664716 0 0.6422783
vn 0.9267946 0 0.3755686
vn 0.9267946 0 0.3755686
vn -0.0003673769 0 1
vn -0.0003671072 0 1
vn -0.0003671072 0 1
vn -0.0003673769 0 1
vn -0.0003673769 0 1
vn -0.0003671072 0 1
vn -0.0003671072 0 1
vn -0.0003673769 0 1
vn -0.0003673769 0 1
vn -0.0003671072 0 1
vn -0.0003673769 0 1
vn -0.0003673769 0 1
vn -0.0003671072 0 1
g stock_all_sig_mpx_mcx_early_type_screw_LOD0_0
f 3/3/3 2/2/2 1/1/1
f 4/4/4 1/1/1 2/2/2
f 1/1/1 5/5/5 3/3/3
f 1/1/1 6/6/6 5/5/5
f 5/5/5 6/6/6 7/7/7
f 7/7/7 8/8/8 5/5/5
f 7/7/7 9/9/9 8/8/8
f 7/7/7 10/10/10 9/9/9
f 9/9/9 10/10/10 11/11/11
f 11/11/11 12/12/12 9/9/9
f 11/11/11 13/13/13 12/12/12
f 11/11/11 14/14/14 13/13/13
f 13/13/13 14/14/14 15/15/15
f 15/15/15 16/16/16 13/13/13
f 16/16/16 15/15/15 17/17/17
f 17/17/17 18/18/18 16/16/16
f 19/19/19 18/18/18 17/17/17
f 17/17/17 20/20/20 19/19/19
f 19/19/19 20/20/20 21/21/21
f 21/21/21 22/22/22 19/19/19
f 21/21/21 23/23/23 22/22/22
f 21/21/21 24/24/24 23/23/23
f 24/24/24 25/25/25 23/23/23
f 24/24/24 26/26/26 25/25/25
f 26/26/26 27/27/27 25/25/25
f 28/28/28 25/25/25 27/27/27
f 31/31/31 30/30/30 29/29/29
f 29/29/29 32/32/32 31/31/31
f 32/32/32 33/33/33 31/31/31
f 32/32/32 34/34/34 33/33/33
f 35/35/35 33/33/33 34/34/34
f 34/34/34 36/36/36 35/35/35
f 35/35/35 36/36/36 37/37/37
f 37/37/37 38/38/38 35/35/35
f 39/39/39 38/38/38 37/37/37
f 38/38/38 39/39/39 40/40/40
f 40/40/40 39/39/39 41/41/41
f 42/42/42 41/41/41 39/39/39
f 41/41/41 42/42/42 43/43/43
f 43/43/43 44/44/44 41/41/41
f 44/44/44 43/43/43 45/45/45
f 45/45/45 46/46/46 44/44/44
f 47/47/47 46/46/46 45/45/45
f 46/46/46 47/47/47 48/48/48
f 48/48/48 47/47/47 49/49/49
f 47/47/47 50/50/50 49/49/49
f 50/50/50 51/51/51 49/49/49
f 50/50/50 52/52/52 51/51/51
f 53/53/53 51/51/51 52/52/52
f 54/54/54 53/53/53 52/52/52
f 55/55/55 53/53/53 54/54/54
f 53/53/53 55/55/55 56/56/56
f 57/57/57 56/56/56 55/55/55
f 55/55/55 58/58/58 57/57/57
f 57/57/57 58/58/58 59/59/59
f 60/60/60 59/59/59 58/58/58
f 61/61/61 59/59/59 60/60/60
f 62/62/62 59/59/59 61/61/61
f 61/61/61 63/63/63 62/62/62
f 62/62/62 63/63/63 64/64/64
f 29/29/29 64/64/64 63/63/63
f 64/64/64 29/29/29 30/30/30
f 51/51/51 53/53/53 65/65/65
f 65/65/65 66/66/66 51/51/51
f 66/66/66 65/65/65 67/67/67
f 67/67/67 59/59/59 62/62/62
f 66/66/66 67/67/67 68/68/68
f 62/62/62 68/68/68 67/67/67
f 66/66/66 68/68/68 69/69/69
f 62/62/62 64/64/64 69/69/69
f 69/69/69 68/68/68 62/62/62
f 69/69/69 64/64/64 30/30/30
f 69/69/69 70/70/70 66/66/66
f 51/51/51 66/66/66 70/70/70
f 71/71/71 70/70/70 69/69/69
f 69/69/69 72/72/72 71/71/71
f 30/30/30 72/72/72 69/69/69
f 71/71/71 72/72/72 73/73/73
f 73/73/73 74/74/74 71/71/71
f 74/74/74 73/73/73 75/75/75
f 75/75/75 76/76/76 74/74/74
f 76/76/76 75/75/75 77/77/77
f 77/77/77 78/78/78 76/76/76
f 77/77/77 79/79/79 78/78/78
f 77/77/77 80/80/80 79/79/79
f 31/31/31 73/73/73 72/72/72
f 73/73/73 31/31/31 75/75/75
f 72/72/72 30/30/30 31/31/31
f 31/31/31 33/33/33 75/75/75
f 75/75/75 33/33/33 77/77/77
f 35/35/35 77/77/77 33/33/33
f 77/77/77 35/35/35 80/80/80
f 38/38/38 80/80/80 35/35/35
f 80/80/80 38/38/38 40/40/40
f 40/40/40 79/79/79 80/80/80
f 79/79/79 40/40/40 41/41/41
f 41/41/41 78/78/78 79/79/79
f 44/44/44 76/76/76 78/78/78
f 78/78/78 41/41/41 44/44/44
f 46/46/46 74/74/74 76/76/76
f 76/76/76 44/44/44 46/46/46
f 74/74/74 46/46/46 71/71/71
f 48/48/48 71/71/71 46/46/46
f 71/71/71 48/48/48 49/49/49
f 49/49/49 70/70/70 71/71/71
f 70/70/70 49/49/49 51/51/51
f 81/81/81 67/67/67 65/65/65
f 65/65/65 82/82/82 81/81/81
f 82/82/82 65/65/65 53/53/53
f 53/53/53 56/56/56 82/82/82
f 57/57/57 81/81/81 82/82/82
f 82/82/82 56/56/56 57/57/57
f 59/59/59 67/67/67 81/81/81
f 81/81/81 57/57/57 59/59/59
f 85/85/85 84/84/84 83/83/83
f 83/83/83 86/86/86 85/85/85
f 87/87/87 86/86/86 83/83/83
f 88/88/88 86/86/86 87/87/87
f 89/89/89 84/84/84 85/85/85
f 85/85/85 90/90/90 89/89/89
f 91/91/91 89/89/89 90/90/90
f 92/92/92 91/91/91 90/90/90
f 93/93/93 91/91/91 92/92/92
f 91/91/91 93/93/93 94/94/94
f 88/88/88 87/87/87 95/95/95
f 95/95/95 96/96/96 88/88/88
f 97/97/97 96/96/96 95/95/95
f 98/98/98 97/97/97 95/95/95
f 97/97/97 98/98/98 99/99/99
f 99/99/99 100/100/100 97/97/97
f 101/101/101 100/100/100 99/99/99
f 102/102/102 101/101/101 99/99/99
f 103/103/103 101/101/101 102/102/102
f 103/103/103 102/102/102 104/104/104
f 105/105/105 103/103/103 104/104/104
f 104/104/104 106/106/106 105/105/105
f 107/107/107 105/105/105 106/106/106
f 105/105/105 107/107/107 108/108/108
f 108/108/108 107/107/107 109/109/109
f 108/108/108 109/109/109 110/110/110
f 111/111/111 110/110/110 109/109/109
f 112/112/112 111/111/111 109/109/109
f 115/115/115 114/114/114 113/113/113
f 114/114/114 115/115/115 116/116/116
f 113/113/113 117/117/117 115/115/115
f 117/117/117 118/118/118 115/115/115
f 121/121/121 120/120/120 119/119/119
f 119/119/119 122/122/122 121/121/121
f 120/120/120 121/121/121 123/123/123
f 122/122/122 119/119/119 124/124/124
f 124/124/124 125/125/125 122/122/122
f 125/125/125 124/124/124 126/126/126
f 126/126/126 127/127/127 125/125/125
f 130/130/130 129/129/129 128/128/128
f 128/128/128 131/131/131 130/130/130
f 133/133/133 2/2/2 132/132/132
f 133/133/133 4/4/4 2/2/2
f 132/132/132 134/134/134 133/133/133
f 135/135/135 133/133/133 134/134/134
f 136/136/136 135/135/135 134/134/134
f 136/136/136 134/134/134 137/137/137
f 136/136/136 137/137/137 138/138/138
f 138/138/138 139/139/139 136/136/136
f 140/140/140 139/139/139 138/138/138
f 140/140/140 138/138/138 141/141/141
f 144/144/144 143/143/143 142/142/142
f 145/145/145 142/142/142 143/143/143
f 145/145/145 146/146/146 142/142/142
f 145/145/145 147/147/147 146/146/146
f 144/144/144 148/148/148 143/143/143
f 149/149/149 143/143/143 148/148/148
f 148/148/148 150/150/150 149/149/149
f 150/150/150 151/151/151 149/149/149
f 150/150/150 152/152/152 151/151/151
f 152/152/152 150/150/150 153/153/153
f 146/146/146 147/147/147 154/154/154
f 155/155/155 154/154/154 147/147/147
f 155/155/155 156/156/156 154/154/154
f 156/156/156 157/157/157 154/154/154
f 157/157/157 156/156/156 158/158/158
f 159/159/159 158/158/158 156/156/156
f 159/159/159 160/160/160 158/158/158
f 160/160/160 161/161/161 158/158/158
f 160/160/160 162/162/162 161/161/161
f 161/161/161 162/162/162 163/163/163
f 162/162/162 164/164/164 163/163/163
f 165/165/165 163/163/163 164/164/164
f 164/164/164 166/166/166 165/165/165
f 166/166/166 164/164/164 167/167/167
f 166/166/166 167/167/167 168/168/168
f 168/168/168 167/167/167 169/169/169
f 169/169/169 170/170/170 168/168/168
f 170/170/170 171/171/171 168/168/168
f 174/174/174 173/173/173 172/172/172
f 173/173/173 174/174/174 175/175/175
f 176/176/176 172/172/172 173/173/173
f 177/177/177 176/176/176 173/173/173
f 180/180/180 179/179/179 178/178/178
f 181/181/181 178/178/178 179/179/179
f 179/179/179 180/180/180 182/182/182
f 178/178/178 181/181/181 183/183/183
f 184/184/184 183/183/183 181/181/181
f 183/183/183 184/184/184 185/185/185
f 186/186/186 185/185/185 184/184/184
f 189/189/189 188/188/188 187/187/187
f 190/190/190 187/187/187 188/188/188
