g stock_ppsh_zis_ppsh41_std_wood_LOD1
v 0.01870184 0.2288868 -0.1068339
v 0.01880334 0.2663818 -0.07433322
v 0.01880334 0.2661748 -0.1121149
v 5.684474E-08 0.2661748 -0.1121149
v 0.01061254 0.2661507 -0.1315549
v 5.683543E-08 0.2661198 -0.1356849
v 5.687269E-08 0.2663818 -0.07433322
v 0.01880334 0.2708438 -0.03067913
v 5.759912E-08 0.2708438 -0.03067913
v 0.01056444 0.2716668 -0.01788183
v 5.785989E-08 0.2724118 -0.01534113
v 2.697723E-08 0.08285078 -0.00170743
v 0.008669342 0.08228879 -0.004106726
v 0.01745061 0.08158678 -0.02293693
v 0.01842953 0.1539028 -0.08533493
v 0.01813501 0.07382078 -0.05488953
v 0.008864537 0.0528938 -0.01120593
v 0.01692511 0.05250577 -0.02188543
v 0.01064864 0.2271258 -0.1262259
v 5.008334E-08 0.2246938 -0.1304409
v 0.01058372 0.1533588 -0.1045529
v 3.833937E-08 0.1525928 -0.1086799
v 2.522635E-08 0.0721008 -0.07774192
v 0.00958739 0.0730298 -0.07445072
v 0.01437881 0.05961378 -0.07785793
v 0.01452031 0.0447598 -0.07562792
v 0.0188033 0.0219248 -0.04095143
v 0.0184742 0.01996679 -0.01765953
v 0.0221918 -0.01139521 -0.02019402
v 0.0225633 -0.01250822 0.004079876
v 0.0128385 0.01973977 -0.05186373
v 2.248826E-08 0.0553058 -0.08567593
v 0.0101482 0.02253179 -0.007791729
v 0.0148918 -0.00871119 0.01047017
v 0.0112153 -0.01468222 -0.03341993
v 1.642535E-08 0.0180908 -0.05204733
v 1.107956E-08 -0.01468222 -0.03133453
v 1.408773E-08 0.003727775 -0.0002985287
v 1.758019E-08 0.0252028 -0.004956427
v 2.014132E-08 0.04088579 -0.08210894
v 0.02324059 -0.0486722 -0.01528613
v 0.007410421 -0.04947321 -0.02268243
v 2.216229E-08 0.0532958 -0.007552729
v 0.02324059 -0.0362472 0.02497662
v 5.417115E-09 -0.04947321 -0.02268243
v 0.0225633 -0.01250822 0.004079876
v 0.02324059 -0.0362472 0.02497662
v 0.0183392 -0.02308119 0.02461474
v 0.0148918 -0.00871119 0.01047017
v 9.589439E-09 -0.0238592 0.01836732
v 1.408773E-08 0.003727775 -0.0002985287
v 0.01165549 -0.0400722 0.001092072
v 0.01659309 -0.04947321 0.001257172
v 0.007410421 -0.04947321 0.0009202719
v 7.344952E-09 -0.0376182 0.0009202719
v 5.417115E-09 -0.04947321 0.0009202719
v 0.007410398 -0.1885122 0.0009202719
v 0.01659307 -0.1885122 0.001257172
v 0.01165549 -0.0400722 0.02607795
v 0.0183392 -0.02308119 0.02461474
v 0.02324059 -0.0362472 0.02497662
v 0.01726469 -0.04947321 0.02518036
v 9.589439E-09 -0.0238592 0.01836732
v 7.344952E-09 -0.0376182 0.0176279
v 0.02324057 -0.1890372 0.02424905
v 0.01728087 -0.1885122 0.02452292
v -0.01870176 0.2288868 -0.1068339
v -0.01880326 0.2661748 -0.1121149
v -0.01880326 0.2663818 -0.07433322
v 5.684474E-08 0.2661748 -0.1121149
v 5.687269E-08 0.2663818 -0.07433322
v -0.01880326 0.2708438 -0.03067913
v -0.01842947 0.1539028 -0.08533493
v -0.01745059 0.08158678 -0.02293693
v -0.01813499 0.07382078 -0.05488953
v -0.009587338 0.0730298 -0.07445072
v -0.01437869 0.05961378 -0.07785793
v -0.01452019 0.0447598 -0.07562792
v -0.01880329 0.0219248 -0.04095143
v -0.0128384 0.01973977 -0.05186373
v -0.01058367 0.1533588 -0.1045529
v 2.522635E-08 0.0721008 -0.07774192
v 3.833937E-08 0.1525928 -0.1086799
v -0.01692509 0.05250577 -0.02188543
v -0.0184742 0.01996679 -0.01765953
v -0.0221918 -0.01139521 -0.02019402
v -0.0225633 -0.01250822 0.004079876
v -0.0101482 0.02253179 -0.007791729
v -0.008864492 0.0528938 -0.01120593
v -0.02324051 -0.0486722 -0.01528613
v -0.02324051 -0.0362472 0.02497662
v 2.248826E-08 0.0553058 -0.08567593
v -0.0112153 -0.01468222 -0.03341993
v 1.642535E-08 0.0180908 -0.05204733
v 1.107956E-08 -0.01468222 -0.03133453
v -0.007410419 -0.04947321 -0.02268243
v 5.417115E-09 -0.04947321 -0.02268243
v -0.0148918 -0.00871119 0.01047017
v 1.408773E-08 0.003727775 -0.0002985287
v 1.758019E-08 0.0252028 -0.004956427
v 2.216229E-08 0.0532958 -0.007552729
v -0.008669297 0.08228879 -0.004106726
v 2.697723E-08 0.08285078 -0.00170743
v -0.01056436 0.2716668 -0.01788183
v 5.759912E-08 0.2708438 -0.03067913
v 5.785989E-08 0.2724118 -0.01534113
v -0.0225633 -0.01250822 0.004079876
v -0.0183392 -0.02308119 0.02461474
v -0.02324051 -0.0362472 0.02497662
v -0.0148918 -0.00871119 0.01047017
v 9.589439E-09 -0.0238592 0.01836732
v 1.408773E-08 0.003727775 -0.0002985287
v -0.01165551 -0.0400722 0.001092072
v -0.007410419 -0.04947321 0.0009202719
v -0.01659311 -0.04947321 0.001257172
v 7.344952E-09 -0.0376182 0.0009202719
v 5.417115E-09 -0.04947321 0.0009202719
v -0.007410442 -0.1885122 0.0009202719
v -0.01659313 -0.1885122 0.001257172
v -0.01165551 -0.0400722 0.02607795
v -0.02324051 -0.0362472 0.02497662
v -0.0183392 -0.02308119 0.02461474
v -0.01726461 -0.04947321 0.02518036
v 9.589439E-09 -0.0238592 0.01836732
v 7.344952E-09 -0.0376182 0.0176279
v -0.02324053 -0.1890372 0.02424905
v -0.01728093 -0.1885122 0.02452292
v 0.02324059 -0.0362472 0.02497662
v 0.02324059 -0.0486722 -0.01528613
v 0.02324057 -0.1890372 0.02424905
v 0.02324057 -0.1886092 -0.01400013
v 0.007410421 -0.04947321 -0.02268243
v 0.007410398 -0.1885122 -0.02268243
v 0.01165549 -0.0400722 0.02607795
v 0.01726469 -0.04947321 0.02518036
v 0.01165549 -0.0400722 0.001092072
v 0.01659309 -0.04947321 0.001257172
v -0.01728093 -0.1885122 0.02452292
v -0.01659313 -0.1885122 0.001257172
v -0.02324053 -0.1890372 0.02424905
v -0.02324053 -0.1886092 -0.01400013
v -0.007410442 -0.1885122 0.0009202719
v -0.007410442 -0.1885122 -0.02268243
v -0.02324051 -0.0362472 0.02497662
v -0.02324053 -0.1890372 0.02424905
v -0.02324051 -0.0486722 -0.01528613
v -0.02324053 -0.1886092 -0.01400013
v -0.007410419 -0.04947321 -0.02268243
v -0.007410442 -0.1885122 -0.02268243
v 0.01726469 -0.04947321 0.02518036
v 0.01728087 -0.1885122 0.02452292
v 0.01659309 -0.04947321 0.001257172
v 0.01659307 -0.1885122 0.001257172
v -0.007410442 -0.1885122 -0.02268243
v -0.007410442 -0.1885122 0.0009202719
v -0.007410419 -0.04947321 -0.02268243
v -0.007410419 -0.04947321 0.0009202719
v -0.01064856 0.2271258 -0.1262259
v -0.01061246 0.2661507 -0.1315549
v 5.683543E-08 0.2661198 -0.1356849
v 5.008334E-08 0.2246938 -0.1304409
v 0.007410421 -0.04947321 0.0009202719
v 0.007410421 -0.04947321 -0.02268243
v 5.417115E-09 -0.04947321 0.0009202719
v 5.417115E-09 -0.04947321 -0.02268243
v 7.344952E-09 -0.0376182 0.0009202719
v -0.01165551 -0.0400722 0.001092072
v 7.344952E-09 -0.0376182 0.0176279
v -0.01165551 -0.0400722 0.02607795
v 7.344952E-09 -0.0376182 0.0009202719
v 7.344952E-09 -0.0376182 0.0176279
v 0.01165549 -0.0400722 0.001092072
v 0.01165549 -0.0400722 0.02607795
v 2.014132E-08 0.04088579 -0.08210894
v 0.007410398 -0.1885122 -0.02268243
v 0.007410421 -0.04947321 -0.02268243
v 0.007410398 -0.1885122 0.0009202719
v 0.007410421 -0.04947321 0.0009202719
v 0.007410398 -0.1885122 -0.02268243
v 0.007410398 -0.1885122 0.0009202719
v 0.02324057 -0.1886092 -0.01400013
v 0.01659307 -0.1885122 0.001257172
v 0.02324057 -0.1890372 0.02424905
v 0.01728087 -0.1885122 0.02452292
v -0.01726461 -0.04947321 0.02518036
v -0.01659311 -0.04947321 0.001257172
v -0.01728093 -0.1885122 0.02452292
v -0.01659313 -0.1885122 0.001257172
v -0.01165551 -0.0400722 0.02607795
v -0.01165551 -0.0400722 0.001092072
v -0.01726461 -0.04947321 0.02518036
v -0.01659311 -0.04947321 0.001257172
v -0.007410419 -0.04947321 0.0009202719
v 5.417115E-09 -0.04947321 0.0009202719
v -0.007410419 -0.04947321 -0.02268243
v 5.417115E-09 -0.04947321 -0.02268243
vt 0.282689 0.706991
vt 0.208542 0.774728
vt 0.283343 0.778396
vt 0.28835 0.815349
vt 0.319021 0.783786
vt 0.338432 0.791848
vt 0.206043 0.815349
vt 0.12068 0.770666
vt 0.107775 0.805645
vt 0.0913415 0.770082
vt 0.0695396 0.771988
vt 0.0886884 0.381279
vt 0.107203 0.381521
vt 0.150187 0.384144
vt 0.260338 0.549012
vt 0.220379 0.374688
vt 0.120416 0.318984
vt 0.151666 0.318339
vt 0.32454 0.709528
vt 0.348332 0.705479
vt 0.302987 0.553283
vt 0.326673 0.550333
vt 0.288945 0.375928
vt 0.26731 0.37821
vt 0.271175 0.348118
vt 0.271764 0.318538
vt 0.206503 0.250737
vt 0.146671 0.236674
vt 0.166269 0.150621
vt 0.0967168 0.140655
vt 0.238232 0.249858
vt 0.304134 0.343385
vt 0.112672 0.245015
vt 0.0779892 0.152256
vt 0.216941 0.146967
vt 0.267355 0.236721
vt 0.248422 0.139973
vt 0.0429839 0.174249
vt 0.0886793 0.25807
vt 0.304682 0.310296
vt 0.164587 0.0351935
vt 0.218796 0.0372512
vt 0.0992184 0.320031
vt 0.035 0.0645542
vt 0.241691 0.035
vt 0.128502 0.898953
vt 0.197812 0.910402
vt 0.1789 0.885577
vt 0.130562 0.880633
vt 0.165629 0.845293
vt 0.112524 0.845695
vt 0.621307 0.102067
vt 0.641987 0.112939
vt 0.641987 0.0927248
vt 0.616749 0.0767174
vt 0.64104 0.0765535
vt 0.947852 0.0927248
vt 0.947852 0.112939
vt 0.93329 0.238709
vt 0.918291 0.201214
vt 0.907623 0.230305
vt 0.920811 0.259462
vt 0.960328 0.20135
vt 0.963902 0.230074
vt 0.907623 0.567174
vt 0.920776 0.566015
vt 0.37074 0.143358
vt 0.370086 0.071953
vt 0.444887 0.0756208
vt 0.365079 0.035
vt 0.447386 0.035
vt 0.532749 0.0796824
vt 0.393091 0.301337
vt 0.503242 0.466205
vt 0.43305 0.475661
vt 0.386119 0.472139
vt 0.382254 0.502231
vt 0.381665 0.531811
vt 0.446927 0.599612
vt 0.415197 0.60049
vt 0.350442 0.297066
vt 0.364484 0.474421
vt 0.326756 0.300016
vt 0.501764 0.532009
vt 0.506758 0.613675
vt 0.48716 0.699727
vt 0.556712 0.709694
vt 0.540757 0.605334
vt 0.533014 0.531364
vt 0.488842 0.815155
vt 0.618429 0.785795
vt 0.349295 0.506964
vt 0.436488 0.703381
vt 0.386074 0.613627
vt 0.405007 0.710376
vt 0.434633 0.813098
vt 0.411738 0.815349
vt 0.57544 0.698093
vt 0.610445 0.6761
vt 0.56475 0.592279
vt 0.554211 0.530317
vt 0.546226 0.468828
vt 0.564741 0.46907
vt 0.562088 0.0802672
vt 0.545654 0.0447037
vt 0.58389 0.0783612
vt 0.270531 0.856741
vt 0.220133 0.870118
vt 0.201221 0.845293
vt 0.268471 0.875061
vt 0.233404 0.910402
vt 0.286509 0.91
vt 0.621307 0.164397
vt 0.641987 0.155055
vt 0.641987 0.175269
vt 0.616749 0.139048
vt 0.64104 0.138884
vt 0.947852 0.155055
vt 0.947852 0.175269
vt 0.875904 0.924436
vt 0.901571 0.93284
vt 0.890903 0.961932
vt 0.888383 0.903684
vt 0.848867 0.961796
vt 0.845293 0.933072
vt 0.901571 0.595972
vt 0.888418 0.597131
vt 0.647914 0.911981
vt 0.734962 0.911981
vt 0.647914 0.595972
vt 0.734962 0.595972
vt 0.773453 0.911981
vt 0.773453 0.595972
vt 0.035 0.339194
vt 0.0590421 0.337223
vt 0.035 0.284321
vt 0.0583208 0.284668
vt 0.941539 0.595972
vt 0.94301 0.647068
vt 0.9284 0.596565
vt 0.9284 0.680571
vt 0.963177 0.647815
vt 0.96316 0.69965
vt 0.60636 0.569164
vt 0.60636 0.253156
vt 0.693408 0.569164
vt 0.693408 0.253156
vt 0.731899 0.569164
vt 0.731899 0.253156
vt 0.620839 0.845293
vt 0.315486 0.845293
vt 0.620839 0.897131
vt 0.315486 0.897131
vt 0.855574 0.901325
vt 0.803739 0.901325
vt 0.855574 0.595972
vt 0.803739 0.595972
vt 0.328889 0.140821
vt 0.334408 0.0665626
vt 0.314997 0.0585004
vt 0.305098 0.14487
vt 0.0517111 0.502546
vt 0.0517111 0.452065
vt 0.035 0.501015
vt 0.035 0.450535
vt 0.679475 0.965
vt 0.679079 0.938788
vt 0.715494 0.964798
vt 0.734867 0.938788
vt 0.596368 0.965
vt 0.632387 0.964798
vt 0.595972 0.938788
vt 0.65176 0.938788
vt 0.348747 0.540053
vt 0.834904 0.253156
vt 0.834904 0.558509
vt 0.88674 0.253156
vt 0.88674 0.558509
vt 0.0801484 0.917806
vt 0.0801652 0.865971
vt 0.0453884 0.898727
vt 0.059999 0.865224
vt 0.0453884 0.814721
vt 0.0585277 0.814128
vt 0.762186 0.253156
vt 0.814024 0.253156
vt 0.762186 0.558509
vt 0.814024 0.558509
vt 0.762186 0.938788
vt 0.817059 0.938788
vt 0.764157 0.96283
vt 0.816712 0.962109
vt 0.0517111 0.419439
vt 0.035 0.417908
vt 0.0517111 0.368958
vt 0.035 0.367428
vn 0.9788017 -0.04675788 -0.1994011
vn 0.7191563 0.6938506 -0.03722269
vn 0.7396133 0.6528445 -0.1636038
vn -0.0003197911 0.9999937 -0.003531893
vn 0.5482555 0.5914533 -0.591269
vn 0.30484 0.5540282 -0.7746776
vn 0 0.9985601 -0.05364346
vn 0.7307776 0.6626509 0.1638839
vn 0.01002595 0.9957849 -0.09116966
vn 0.468945 0.6630008 0.5835413
vn 0.2110227 0.7133666 0.6682644
vn 0.2624622 -0.05424807 0.9634162
vn 0.6267987 -0.0579396 0.777024
vn 0.9701139 -0.01586183 0.2421312
vn 0.9787872 -0.07241505 -0.1916552
vn 0.9915883 0.002374837 -0.1294102
vn 0.6368572 -0.009187252 0.7709271
vn 0.9429921 0.03863234 0.3305653
vn 0.7018575 -0.1435466 -0.6977037
vn 0.3970689 -0.1938385 -0.8970858
vn 0.6930464 -0.2336182 -0.6819892
vn 0.3653019 -0.300579 -0.881026
vn 0.3455521 0.03866277 -0.9376029
vn 0.6891907 0.07255767 -0.720938
vn 0.7604043 0.1493995 -0.6320325
vn 0.7647052 -0.3155817 -0.5618131
vn 0.973166 -0.1147543 -0.199448
vn 0.9443328 0.1817211 0.2742501
vn 0.9583725 -0.02565933 -0.2843653
vn 0.9652991 0.1865942 0.1827024
vn 0.5406255 -0.5258472 -0.656665
vn 0.4392654 0.05841042 -0.8964564
vn 0.5302116 0.268676 0.8041697
vn 0.4888268 0.4943589 0.718789
vn 0.3643898 -0.3484828 -0.8635855
vn 0.1124824 -0.5991113 -0.7927252
vn -0.1561802 -0.3965295 -0.9046392
vn -0.1224084 0.4237027 0.8974922
vn 0.3126058 0.1516105 0.9377057
vn 0.4610677 -0.4852085 -0.7429599
vn 0.8607522 -0.1337075 -0.4911497
vn 0.1882153 -0.2853317 -0.9397664
vn 0.3668683 -0.06965277 0.9276617
vn 0.9997244 0.02243 -0.006921912
vn 0 -0.2413371 -0.9704414
vn 0.7350491 0.5292994 0.4237275
vn 0.873891 0.3350112 0.3522529
vn 0.5681823 0.5727789 0.5908411
vn 0.161128 0.6612865 0.732624
vn -0.2132092 0.608215 0.7646021
vn -0.1297192 0.5556584 0.8212287
vn -0.02487865 -0.007034409 0.9996657
vn -0.03666397 -0.0006979147 0.9993274
vn -0.02468402 -0.002628141 0.9996918
vn -0.01001701 -0.0062615 0.9999303
vn 0 0 1
vn -0.03666398 0 0.9993277
vn -0.03666398 0 0.9993277
vn -0.1412072 0.04924916 0.9887543
vn -0.1763646 0.1531108 0.9723439
vn 0.08008338 0.02040981 0.9965792
vn 0.06050244 -0.01195621 0.9980964
vn -0.4513784 0.09735035 0.8870065
vn -0.5923613 -0.04323512 0.8045115
vn 0.04546411 -0.004719335 0.9989548
vn 0.04549017 -0.004718211 0.9989536
vn -0.9788017 -0.04675756 -0.1994011
vn -0.7396132 0.6528447 -0.1636038
vn -0.7191561 0.6938507 -0.03722266
vn 0.000319791 0.9999937 -0.003531893
vn 0 0.9985601 -0.05364348
vn -0.7307775 0.662651 0.1638839
vn -0.9787872 -0.07241484 -0.1916553
vn -0.9701138 -0.01586161 0.2421317
vn -0.9915882 0.00237448 -0.1294113
vn -0.6891907 0.07255618 -0.7209381
vn -0.7604037 0.1493988 -0.6320333
vn -0.7647049 -0.3155815 -0.5618138
vn -0.9731653 -0.114755 -0.1994506
vn -0.5406224 -0.5258477 -0.6566671
vn -0.6930461 -0.2336181 -0.6819895
vn -0.3455525 0.03866232 -0.9376026
vn -0.3653011 -0.300579 -0.8810263
vn -0.9429918 0.03863283 0.330566
vn -0.9443328 0.1817213 0.2742501
vn -0.9583727 -0.02566012 -0.2843651
vn -0.9652994 0.186593 0.1827026
vn -0.5302112 0.2686762 0.8041699
vn -0.6368564 -0.009186861 0.7709277
vn -0.8607523 -0.1337093 -0.491149
vn -0.9997244 0.02242708 -0.006920891
vn -0.4392672 0.05841046 -0.8964556
vn -0.3643904 -0.3484828 -0.8635852
vn -0.1124829 -0.5991113 -0.7927253
vn 0.1561797 -0.3965296 -0.9046393
vn -0.1882161 -0.2853318 -0.9397662
vn 0 -0.2413371 -0.9704414
vn -0.4888267 0.4943591 0.7187889
vn 0.122408 0.4237027 0.8974923
vn -0.3126051 0.1516108 0.9377059
vn -0.3668683 -0.06965274 0.9276617
vn -0.6267983 -0.05793953 0.7770243
vn -0.262462 -0.05424798 0.9634163
vn -0.4689448 0.6630008 0.5835417
vn -0.01002595 0.9957849 -0.09116968
vn -0.2110221 0.7133669 0.6682644
vn -0.7350501 0.5292984 0.423727
vn -0.5681857 0.5727763 0.5908404
vn -0.8738939 0.3350059 0.3522506
vn -0.1611282 0.6612866 0.7326239
vn 0.2132088 0.6082149 0.7646022
vn 0.1297189 0.5556584 0.8212287
vn 0.0248786 -0.007034383 0.9996657
vn 0.02468396 -0.00262814 0.9996918
vn 0.03666389 -0.0006979086 0.9993274
vn 0.01001697 -0.006261492 0.9999303
vn 0 0 1
vn 0.0366639 0 0.9993277
vn 0.0366639 0 0.9993277
vn 0.1412057 0.04924865 0.9887545
vn -0.08008409 0.02040969 0.9965791
vn 0.1763649 0.1531108 0.9723439
vn -0.06050264 -0.01195627 0.9980964
vn 0.4513778 0.09734993 0.8870068
vn 0.5923603 -0.04323534 0.8045122
vn -0.04546487 -0.004719288 0.9989548
vn -0.04549095 -0.004718163 0.9989536
vn 1 -1.559906E-07 0
vn 0.8754532 -0.004441415 -0.4832823
vn 1 -1.538246E-07 0
vn 0.8620803 -0.0003839621 -0.5067716
vn 0.4282693 -0.007660996 -0.9036188
vn 0.4808853 0 -0.8767835
vn -0.8587562 -0.5123844 0
vn -0.8657181 -0.5004927 0.006262182
vn -0.8782834 -0.4777997 0.01804458
vn -0.885224 -0.4645007 0.02485105
vn 0.08763452 -0.9961493 0.002590721
vn 0.02607898 -0.9996549 -0.003133083
vn 0.0793886 -0.9968438 0.000190808
vn 0.01174624 -0.9999305 -0.0009985116
vn 0.003219403 -0.9999901 0.003084654
vn 0.006126741 -0.9999813 0
vn -1 1.559906E-07 0
vn -1 1.538246E-07 0
vn -0.8754537 -0.004441137 -0.4832816
vn -0.8620809 -0.0003836908 -0.5067705
vn -0.4282711 -0.007660859 -0.9036179
vn -0.4808871 0 -0.8767824
vn -0.9996062 -0.0002489997 0.02806213
vn -0.999568 -2.68154E-05 0.0293888
vn -0.9996018 -0.0002226895 0.02821923
vn -0.9995633 1.628311E-07 0.02954989
vn 1 -1.629022E-07 0
vn 1 -1.629022E-07 0
vn 1 -1.629022E-07 0
vn 1 -1.629022E-07 0
vn -0.7018571 -0.1435464 -0.697704
vn -0.5482552 0.5914533 -0.5912693
vn -0.3048392 0.5540286 -0.7746775
vn -0.3970681 -0.1938385 -0.8970862
vn 0 -1 0
vn 0 -1 0
vn 0 -1 0
vn 0 -1 0
vn 0.2060267 -0.9785463 0
vn 0.2060267 -0.9785463 0
vn 0.2060267 -0.9785464 0
vn 0.2060267 -0.9785464 0
vn -0.2060273 -0.9785463 0
vn -0.2060273 -0.9785463 0
vn -0.2060273 -0.9785462 0
vn -0.2060273 -0.9785463 0
vn -0.4610695 -0.4852076 -0.7429593
vn -1 1.629022E-07 0
vn -1 1.629022E-07 0
vn -1 1.629022E-07 0
vn -1 1.629022E-07 0
vn -0.006126709 -0.9999813 0
vn -0.003219396 -0.9999901 0.003084643
vn -0.0117462 -0.9999305 -0.000998553
vn -0.02607858 -0.999655 -0.003133054
vn -0.07938713 -0.9968439 0.000190734
vn -0.08763303 -0.9961495 0.002590677
vn 0.9996063 -0.0002500255 0.02805795
vn 0.9996019 -0.0002236414 0.02821549
vn 0.999568 -2.721688E-05 0.02938835
vn 0.9995633 -1.628311E-07 0.02954989
vn 0.8587602 -0.5123779 0
vn 0.8782845 -0.477798 0.01804191
vn 0.865721 -0.5004877 0.006261247
vn 0.885224 -0.4645009 0.02484735
vn 0 -1 0
vn 0 -1 0
vn 0 -1 0
vn 0 -1 0
g stock_ppsh_zis_ppsh41_std_wood_LOD1_0
f 3/3/3 2/2/2 1/1/1
f 4/4/4 2/2/2 3/3/3
f 5/5/5 4/4/4 3/3/3
f 4/4/4 5/5/5 6/6/6
f 2/2/2 4/4/4 7/7/7
f 7/7/7 8/8/8 2/2/2
f 8/8/8 1/1/1 2/2/2
f 8/8/8 7/7/7 9/9/9
f 9/9/9 10/10/10 8/8/8
f 9/9/9 11/11/11 10/10/10
f 12/12/12 10/10/10 11/11/11
f 10/10/10 12/12/12 13/13/13
f 14/14/14 10/10/10 13/13/13
f 10/10/10 14/14/14 8/8/8
f 14/14/14 15/15/15 8/8/8
f 1/1/1 8/8/8 15/15/15
f 15/15/15 14/14/14 16/16/16
f 17/17/17 14/14/14 13/13/13
f 14/14/14 17/17/17 18/18/18
f 18/18/18 16/16/16 14/14/14
f 3/3/3 19/19/19 5/5/5
f 19/19/19 6/6/6 5/5/5
f 19/19/19 3/3/3 1/1/1
f 6/6/6 19/19/19 20/20/20
f 21/21/21 20/20/20 19/19/19
f 1/1/1 21/21/21 19/19/19
f 21/21/21 1/1/1 15/15/15
f 20/20/20 21/21/21 22/22/22
f 21/21/21 23/23/23 22/22/22
f 23/23/23 21/21/21 24/24/24
f 24/24/24 15/15/15 16/16/16
f 15/15/15 24/24/24 21/21/21
f 16/16/16 25/25/25 24/24/24
f 25/25/25 23/23/23 24/24/24
f 25/25/25 16/16/16 26/26/26
f 26/26/26 16/16/16 27/27/27
f 16/16/16 18/18/18 27/27/27
f 28/28/28 27/27/27 18/18/18
f 27/27/27 28/28/28 29/29/29
f 29/29/29 28/28/28 30/30/30
f 26/26/26 27/27/27 31/31/31
f 23/23/23 25/25/25 32/32/32
f 26/26/26 32/32/32 25/25/25
f 33/33/33 30/30/30 28/28/28
f 30/30/30 33/33/33 34/34/34
f 35/35/35 27/27/27 29/29/29
f 27/27/27 35/35/35 31/31/31
f 35/35/35 36/36/36 31/31/31
f 36/36/36 26/26/26 31/31/31
f 36/36/36 35/35/35 37/37/37
f 33/33/33 38/38/38 34/34/34
f 38/38/38 33/33/33 39/39/39
f 26/26/26 36/36/36 40/40/40
f 32/32/32 26/26/26 40/40/40
f 41/41/41 35/35/35 29/29/29
f 30/30/30 41/41/41 29/29/29
f 35/35/35 41/41/41 42/42/42
f 42/42/42 37/37/37 35/35/35
f 17/17/17 39/39/39 33/33/33
f 39/39/39 17/17/17 43/43/43
f 41/41/41 30/30/30 44/44/44
f 37/37/37 42/42/42 45/45/45
f 33/33/33 18/18/18 17/17/17
f 18/18/18 33/33/33 28/28/28
f 13/13/13 43/43/43 17/17/17
f 43/43/43 13/13/13 12/12/12
f 48/48/48 47/47/47 46/46/46
f 48/48/48 46/46/46 49/49/49
f 49/49/49 50/50/50 48/48/48
f 50/50/50 49/49/49 51/51/51
f 54/54/54 53/53/53 52/52/52
f 55/55/55 54/54/54 52/52/52
f 55/55/55 56/56/56 54/54/54
f 57/57/57 53/53/53 54/54/54
f 53/53/53 57/57/57 58/58/58
f 61/61/61 60/60/60 59/59/59
f 59/59/59 62/62/62 61/61/61
f 63/63/63 59/59/59 60/60/60
f 64/64/64 59/59/59 63/63/63
f 62/62/62 65/65/65 61/61/61
f 65/65/65 62/62/62 66/66/66
f 69/69/69 68/68/68 67/67/67
f 69/69/69 70/70/70 68/68/68
f 70/70/70 69/69/69 71/71/71
f 67/67/67 72/72/72 69/69/69
f 72/72/72 71/71/71 69/69/69
f 72/72/72 67/67/67 73/73/73
f 73/73/73 74/74/74 72/72/72
f 74/74/74 73/73/73 75/75/75
f 73/73/73 76/76/76 75/75/75
f 77/77/77 75/75/75 76/76/76
f 75/75/75 77/77/77 78/78/78
f 75/75/75 78/78/78 79/79/79
f 79/79/79 78/78/78 80/80/80
f 76/76/76 73/73/73 81/81/81
f 67/67/67 81/81/81 73/73/73
f 81/81/81 82/82/82 76/76/76
f 82/82/82 77/77/77 76/76/76
f 82/82/82 81/81/81 83/83/83
f 75/75/75 84/84/84 74/74/74
f 84/84/84 75/75/75 79/79/79
f 79/79/79 85/85/85 84/84/84
f 85/85/85 79/79/79 86/86/86
f 85/85/85 86/86/86 87/87/87
f 88/88/88 84/84/84 85/85/85
f 87/87/87 88/88/88 85/85/85
f 84/84/84 88/88/88 89/89/89
f 89/89/89 74/74/74 84/84/84
f 90/90/90 87/87/87 86/86/86
f 87/87/87 90/90/90 91/91/91
f 77/77/77 82/82/82 92/92/92
f 92/92/92 78/78/78 77/77/77
f 93/93/93 90/90/90 86/86/86
f 79/79/79 93/93/93 86/86/86
f 93/93/93 79/79/79 80/80/80
f 94/94/94 93/93/93 80/80/80
f 93/93/93 94/94/94 95/95/95
f 95/95/95 96/96/96 93/93/93
f 90/90/90 93/93/93 96/96/96
f 96/96/96 95/95/95 97/97/97
f 88/88/88 87/87/87 98/98/98
f 99/99/99 88/88/88 98/98/98
f 88/88/88 99/99/99 100/100/100
f 100/100/100 89/89/89 88/88/88
f 89/89/89 100/100/100 101/101/101
f 101/101/101 102/102/102 89/89/89
f 102/102/102 101/101/101 103/103/103
f 103/103/103 104/104/104 102/102/102
f 104/104/104 74/74/74 102/102/102
f 74/74/74 104/104/104 72/72/72
f 104/104/104 105/105/105 72/72/72
f 106/106/106 105/105/105 104/104/104
f 104/104/104 103/103/103 106/106/106
f 74/74/74 89/89/89 102/102/102
f 71/71/71 72/72/72 105/105/105
f 109/109/109 108/108/108 107/107/107
f 107/107/107 108/108/108 110/110/110
f 111/111/111 110/110/110 108/108/108
f 110/110/110 111/111/111 112/112/112
f 115/115/115 114/114/114 113/113/113
f 114/114/114 116/116/116 113/113/113
f 117/117/117 116/116/116 114/114/114
f 115/115/115 118/118/118 114/114/114
f 118/118/118 115/115/115 119/119/119
f 122/122/122 121/121/121 120/120/120
f 123/123/123 120/120/120 121/121/121
f 120/120/120 124/124/124 122/122/122
f 120/120/120 125/125/125 124/124/124
f 126/126/126 123/123/123 121/121/121
f 123/123/123 126/126/126 127/127/127
f 130/130/130 129/129/129 128/128/128
f 129/129/129 130/130/130 131/131/131
f 131/131/131 132/132/132 129/129/129
f 132/132/132 131/131/131 133/133/133
f 136/136/136 135/135/135 134/134/134
f 135/135/135 136/136/136 137/137/137
f 140/140/140 139/139/139 138/138/138
f 139/139/139 140/140/140 141/141/141
f 141/141/141 142/142/142 139/139/139
f 142/142/142 141/141/141 143/143/143
f 146/146/146 145/145/145 144/144/144
f 145/145/145 146/146/146 147/147/147
f 148/148/148 147/147/147 146/146/146
f 147/147/147 148/148/148 149/149/149
f 152/152/152 151/151/151 150/150/150
f 151/151/151 152/152/152 153/153/153
f 156/156/156 155/155/155 154/154/154
f 155/155/155 156/156/156 157/157/157
f 81/81/81 67/67/67 158/158/158
f 68/68/68 158/158/158 67/67/67
f 158/158/158 68/68/68 159/159/159
f 160/160/160 158/158/158 159/159/159
f 158/158/158 160/160/160 161/161/161
f 161/161/161 81/81/81 158/158/158
f 70/70/70 159/159/159 68/68/68
f 159/159/159 70/70/70 160/160/160
f 81/81/81 161/161/161 83/83/83
f 164/164/164 163/163/163 162/162/162
f 163/163/163 164/164/164 165/165/165
f 168/168/168 167/167/167 166/166/166
f 167/167/167 168/168/168 169/169/169
f 172/172/172 171/171/171 170/170/170
f 171/171/171 172/172/172 173/173/173
f 94/94/94 78/78/78 174/174/174
f 78/78/78 94/94/94 80/80/80
f 78/78/78 92/92/92 174/174/174
f 177/177/177 176/176/176 175/175/175
f 176/176/176 177/177/177 178/178/178
f 181/181/181 180/180/180 179/179/179
f 180/180/180 181/181/181 182/182/182
f 183/183/183 182/182/182 181/181/181
f 182/182/182 183/183/183 184/184/184
f 187/187/187 186/186/186 185/185/185
f 186/186/186 187/187/187 188/188/188
f 191/191/191 190/190/190 189/189/189
f 190/190/190 191/191/191 192/192/192
f 195/195/195 194/194/194 193/193/193
f 194/194/194 195/195/195 196/196/196
