g pistolgrip_ar15_hk_ergo_psg1_style_grip_LOD1
v 0.0127475 0.04253061 -0.02172286
v 0.0138841 0.05764721 -0.03867591
v 0.01795365 0.0454989 -0.0466898
v 0.01618247 0.02520939 -0.02601664
v 0.01090215 0.08051737 -0.08628802
v 0.0158926 0.06193846 -0.0903236
v -3.880672E-06 0.06198588 -0.03314079
v -3.880672E-06 0.04608235 -0.01753626
v -3.880672E-06 0.08909521 -0.08522851
v 0.01151168 0.03824833 -0.007977142
v -3.880672E-06 0.04399658 -0.009627642
v -3.880672E-06 0.04627977 -0.003210416
v 0.01470356 0.006439399 -0.03348698
v 0.01523164 -0.0008238602 -0.02541106
v 0.01491636 -0.0008238411 -0.0006438827
v 0.01451726 0.02858829 0.0004035473
v 0.01478803 0.03469643 0.01147454
v 0.01473831 -0.005357084 -0.02767897
v 0.01487607 -0.003853845 -0.03196425
v 0.01477488 0.04614783 0.01859001
v 0.01099022 0.05482714 0.01408113
v -3.880672E-06 0.05905673 0.01111033
v 0.01221964 0.02358934 -0.05588897
v -3.880672E-06 0.01748764 -0.05627937
v -3.880672E-06 0.002769012 -0.03326882
v -3.880672E-06 0.03444013 -0.09569595
v 0.01157899 0.03977172 -0.09368335
v -3.880672E-06 -0.003853845 -0.03196425
v -3.880672E-06 -0.005357084 -0.02767897
v 0.01473831 -0.005357084 -0.02767897
v 0.01487607 -0.003853845 -0.03196425
v -3.880672E-06 -0.005357084 -0.02767897
v -3.880672E-06 -0.0008238602 -0.02541106
v 0.01523164 -0.0008238602 -0.02541106
v 0.01473831 -0.005357084 -0.02767897
v 0.01451726 0.02858829 0.0004035473
v 0.01491636 -0.0008238411 -0.0006438827
v -3.880672E-06 -0.0008238411 -0.0006438827
v -3.880672E-06 0.02861377 0.0004046106
v 0.01478803 0.03469643 0.01147454
v -3.880672E-06 0.03472714 0.01144943
v 0.01477488 0.04614783 0.01859001
v -3.880672E-06 0.04614783 0.01859001
v -3.880672E-06 0.05905673 0.01111033
v 0.01099022 0.05482714 0.01408113
v 0.01491636 -0.0008238411 -0.0006438827
v 0.01523164 -0.0008238602 -0.02541106
v -3.880672E-06 -0.0008238602 -0.02541106
v -3.880672E-06 -0.0008238411 -0.0006438827
v -3.880672E-06 0.002769012 -0.03326882
v -3.880672E-06 -0.003853845 -0.03196425
v 0.01487607 -0.003853845 -0.03196425
v 0.01470356 0.006439399 -0.03348698
v -0.01275536 0.04253061 -0.02172286
v -0.01619023 0.02520939 -0.02601664
v -0.01796141 0.0454989 -0.0466898
v -0.01389186 0.05764721 -0.03867591
v -0.01090991 0.08051737 -0.08628802
v -0.01590036 0.06193846 -0.0903236
v -3.880672E-06 0.08909521 -0.08522851
v -3.880672E-06 0.06198588 -0.03314079
v -0.01151944 0.03824833 -0.007977142
v -3.880672E-06 0.04608235 -0.01753626
v -3.880672E-06 0.04399658 -0.009627642
v -3.880672E-06 0.04627977 -0.003210416
v -0.01471133 0.006439399 -0.03348698
v -0.0152394 -0.0008238602 -0.02541106
v -0.01492412 -0.0008238411 -0.0006438827
v -0.01452513 0.02858829 0.0004035473
v -0.01479579 0.03469643 0.01147454
v -0.01474607 -0.005357084 -0.02767897
v -0.01488383 -0.003853845 -0.03196425
v -0.01478264 0.04614783 0.01859001
v -0.01099799 0.05482714 0.01408113
v -3.880672E-06 0.05905673 0.01111033
v -3.880672E-06 0.002769012 -0.03326882
v -3.880672E-06 0.01748764 -0.05627937
v -0.0122274 0.02358934 -0.05588897
v -3.880672E-06 0.03444013 -0.09569595
v -0.01158675 0.03977172 -0.09368335
v -3.880672E-06 -0.003853845 -0.03196425
v -0.01488383 -0.003853845 -0.03196425
v -0.01474607 -0.005357084 -0.02767897
v -3.880672E-06 -0.005357084 -0.02767897
v -3.880672E-06 -0.005357084 -0.02767897
v -0.01474607 -0.005357084 -0.02767897
v -0.0152394 -0.0008238602 -0.02541106
v -3.880672E-06 -0.0008238602 -0.02541106
v -0.01452513 0.02858829 0.0004035473
v -3.880672E-06 0.02861377 0.0004046106
v -3.880672E-06 -0.0008238411 -0.0006438827
v -0.01492412 -0.0008238411 -0.0006438827
v -0.01479579 0.03469643 0.01147454
v -3.880672E-06 0.03472714 0.01144943
v -0.01478264 0.04614783 0.01859001
v -3.880672E-06 0.04614783 0.01859001
v -3.880672E-06 0.05905673 0.01111033
v -0.01099799 0.05482714 0.01408113
v -0.01492412 -0.0008238411 -0.0006438827
v -3.880672E-06 -0.0008238411 -0.0006438827
v -3.880672E-06 -0.0008238602 -0.02541106
v -0.0152394 -0.0008238602 -0.02541106
v -3.880672E-06 0.002769012 -0.03326882
v -0.01471133 0.006439399 -0.03348698
v -0.01488383 -0.003853845 -0.03196425
v -3.880672E-06 -0.003853845 -0.03196425
v -0.02952962 0.04490539 -0.09051059
v -0.03039642 0.05680393 -0.1124175
v -0.02912683 0.09646801 -0.1074322
v -0.02879451 0.08463346 -0.08377665
v -0.02319144 0.1098913 -0.1057451
v -0.02310708 0.09771661 -0.08155904
v -0.01292126 0.1182538 -0.104694
v -0.0128901 0.1058204 -0.08018543
v -3.880672E-06 0.1216406 -0.1042683
v -3.880672E-06 0.1090602 -0.07963631
v -0.02416497 0.03133109 -0.09281143
v -0.02462453 0.04286247 -0.1141698
v -0.01355193 0.02325537 -0.09418026
v -0.01376819 0.034495 -0.1152215
v -3.880672E-06 0.02009472 -0.09471599
v -3.880672E-06 0.03120635 -0.1156348
v 0.02878674 0.08463346 -0.08377665
v 0.02911907 0.09646801 -0.1074322
v 0.03038866 0.05680393 -0.1124175
v 0.02952186 0.04490539 -0.09051059
v 0.02309932 0.09771661 -0.08155904
v 0.02318368 0.1098913 -0.1057451
v 0.01288234 0.1058204 -0.08018543
v 0.0129135 0.1182538 -0.104694
v -3.880672E-06 0.1090602 -0.07963631
v -3.880672E-06 0.1216406 -0.1042683
v 0.02461677 0.04286247 -0.1141698
v 0.0241572 0.03133109 -0.09281143
v 0.01376043 0.034495 -0.1152215
v 0.01354417 0.02325537 -0.09418026
v -3.880672E-06 0.03120635 -0.1156348
v -3.880672E-06 0.02009472 -0.09471599
v -3.880672E-06 0.02009472 -0.09471599
v -3.880672E-06 0.1090602 -0.07963631
v 0.01288234 0.1058204 -0.08018543
v 0.02309932 0.09771661 -0.08155904
v 0.01354417 0.02325537 -0.09418026
v 0.0241572 0.03133109 -0.09281143
v 0.02952186 0.04490539 -0.09051059
v 0.02878674 0.08463346 -0.08377665
v 0.02318368 0.1098913 -0.1057451
v 0.0129135 0.1182538 -0.104694
v -3.880672E-06 0.03120635 -0.1156348
v 0.02911907 0.09646801 -0.1074322
v 0.01376043 0.034495 -0.1152215
v -3.880672E-06 0.1216406 -0.1042683
v 0.02461677 0.04286247 -0.1141698
v 0.03038866 0.05680393 -0.1124175
v -3.880672E-06 0.02009472 -0.09471599
v -0.01355193 0.02325537 -0.09418026
v -0.02310708 0.09771661 -0.08155904
v -0.0128901 0.1058204 -0.08018543
v -3.880672E-06 0.1090602 -0.07963631
v -0.02416497 0.03133109 -0.09281143
v -0.02952962 0.04490539 -0.09051059
v -0.02879451 0.08463346 -0.08377665
v -3.880672E-06 0.1216406 -0.1042683
v -0.01292126 0.1182538 -0.104694
v -3.880672E-06 0.03120635 -0.1156348
v -0.02319144 0.1098913 -0.1057451
v -0.02912683 0.09646801 -0.1074322
v -0.01376819 0.034495 -0.1152215
v -0.02462453 0.04286247 -0.1141698
v -0.03039642 0.05680393 -0.1124175
vt 0.3916653 0.7268984
vt 0.4156608 0.5736963
vt 0.3130769 0.5658968
vt 0.265306 0.7577663
vt 0.4113085 0.2173121
vt 0.2765675 0.2520955
vt 0.5205169 0.5934758
vt 0.4879014 0.7396699
vt 0.5062745 0.1939782
vt 0.4132184 0.8285005
vt 0.4944591 0.7859175
vt 0.5182866 0.8153392
vt 0.1218374 0.773762
vt 0.103102 0.8437224
vt 0.1918074 0.9949873
vt 0.3675071 0.9071785
vt 0.4228888 0.9657094
vt 0.06719197 0.8449627
vt 0.0626298 0.8145801
vt 0.5060828 0.997178
vt 0.5590177 0.9567829
vt 0.61921 0.8997046
vt 0.140956 0.5804256
vt 0.04487271 0.5927371
vt 0.01671649 0.773018
vt 0.03413278 0.3048491
vt 0.1240723 0.300067
vt 0.2940071 0.953959
vt 0.2940071 0.9847117
vt 0.3978723 0.9847105
vt 0.3988428 0.9539578
vt 0.1490407 0.2113478
vt 0.1490407 0.2456726
vt 0.2563804 0.2456751
vt 0.2529047 0.2113503
vt 0.7609535 0.8560122
vt 0.9650623 0.9199277
vt 0.996312 0.8234732
vt 0.791209 0.7620841
vt 0.6753243 0.832338
vt 0.7062849 0.7366654
vt 0.5846949 0.8050842
vt 0.6156539 0.7095388
vt 0.5153024 0.6795027
vt 0.5268398 0.7609822
vt 0.6325756 0.9846995
vt 0.8072225 0.9868343
vt 0.8072212 0.8836616
vt 0.6325742 0.8836616
vt 0.09640038 0.8617691
vt 0.0488646 0.861375
vt 0.04792091 0.9621268
vt 0.1212253 0.9616099
vt 0.3916653 0.7268984
vt 0.265306 0.7577663
vt 0.3130769 0.5658968
vt 0.4156608 0.5736963
vt 0.4113085 0.2173121
vt 0.2765675 0.2520955
vt 0.5062745 0.1939782
vt 0.5205169 0.5934758
vt 0.4132184 0.8285005
vt 0.4879014 0.7396699
vt 0.4944591 0.7859175
vt 0.5182866 0.8153392
vt 0.1218374 0.773762
vt 0.103102 0.8437224
vt 0.1918074 0.9949873
vt 0.3675071 0.9071785
vt 0.4228888 0.9657094
vt 0.06719197 0.8449627
vt 0.0626298 0.8145801
vt 0.5060828 0.997178
vt 0.5590177 0.9567829
vt 0.61921 0.8997046
vt 0.01671649 0.773018
vt 0.04487271 0.5927371
vt 0.140956 0.5804256
vt 0.03413278 0.3048491
vt 0.1240723 0.300067
vt 0.2940071 0.953959
vt 0.3988428 0.9539578
vt 0.3978723 0.9847105
vt 0.2940071 0.9847117
vt 0.1490407 0.2113492
vt 0.252906 0.2113492
vt 0.2563816 0.2456738
vt 0.1490407 0.2456738
vt 0.7609535 0.8560122
vt 0.791209 0.7620841
vt 0.996312 0.8234732
vt 0.9650623 0.9199277
vt 0.6753243 0.832338
vt 0.7062849 0.7366654
vt 0.5846949 0.8050842
vt 0.6156539 0.7095388
vt 0.5153024 0.6795027
vt 0.5268398 0.7609822
vt 0.6325756 0.9847031
vt 0.6325728 0.8836654
vt 0.80722 0.8836616
vt 0.8072225 0.9868343
vt 0.09640281 0.861769
vt 0.1212253 0.9616099
vt 0.04792083 0.9621256
vt 0.04886723 0.8613738
vt 0.7005109 0.01296282
vt 0.6523021 0.1719606
vt 0.371731 0.1965611
vt 0.4169507 0.0264623
vt 0.267848 0.2023596
vt 0.3152432 0.02850083
vt 0.1743271 0.198888
vt 0.2230654 0.0225867
vt 0.08154377 0.183983
vt 0.1309144 0.006626635
vt 0.8044814 0.008834474
vt 0.7590133 0.1639638
vt 0.8987674 0.01379851
vt 0.8558413 0.1666854
vt 0.9953293 0.02997915
vt 0.9542276 0.182152
vt 0.4169329 0.02628588
vt 0.3717018 0.1963835
vt 0.6522794 0.1717829
vt 0.7004919 0.01278759
vt 0.3152268 0.02831842
vt 0.2678151 0.2021724
vt 0.2230478 0.0223984
vt 0.1742941 0.1986974
vt 0.1309004 0.006432297
vt 0.08150952 0.1837839
vt 0.7589943 0.1637886
vt 0.8044611 0.008658048
vt 0.855826 0.1665054
vt 0.8987447 0.01361846
vt 0.9542161 0.181966
vt 0.9953064 0.02978957
vt 0.9918695 0.1833041
vt 0.9946318 0.8065652
vt 0.9018704 0.7842394
vt 0.8281646 0.7277505
vt 0.894699 0.2058327
vt 0.8187388 0.2626986
vt 0.7805973 0.3579326
vt 0.7869475 0.6362388
vt 0.6185561 0.2462445
vt 0.6837112 0.1948631
vt 0.7656495 0.7295543
vt 0.5809056 0.3287135
vt 0.678412 0.70936
vt 0.7656497 0.174057
vt 0.6095825 0.6579807
vt 0.5729548 0.5723572
vt 0.9918695 0.1833017
vt 0.8946927 0.2058302
vt 0.8281786 0.7277492
vt 0.9018779 0.7842392
vt 0.9946318 0.8065652
vt 0.818721 0.2626974
vt 0.7805701 0.3579352
vt 0.7869475 0.6362413
vt 0.7656497 0.174057
vt 0.6837112 0.1948631
vt 0.7656495 0.7295543
vt 0.6185561 0.2462445
vt 0.5809056 0.3287135
vt 0.678412 0.70936
vt 0.6095825 0.6579807
vt 0.5729548 0.5723572
vn 0.7977387 0.4801434 0.3647947
vn 0.7752375 0.5218794 0.3558773
vn 0.9985405 0.0473285 0.02601364
vn 0.9974349 0.03879177 0.0601569
vn 0.7539112 0.6032094 0.2603001
vn 0.9979386 0.06217768 -0.01588661
vn 3.628791E-07 0.8092592 0.5874518
vn 6.950118E-07 0.8704916 0.4921832
vn 0 0.9008596 0.4341106
vn 0.8295732 0.5551986 -0.0596901
vn 0 0.9998264 -0.01863343
vn 0 0.8461115 -0.5330058
vn 0.9100662 -0.3168767 -0.267149
vn 0.9995172 -0.01967949 -0.02404182
vn 0.9991733 -0.01025632 0.03933604
vn 0.9872497 0.1548031 -0.03706985
vn 0.982403 0.1193312 -0.1436816
vn 0.9987884 -0.01933819 -0.04525179
vn 0.9987884 -0.01933819 -0.04525179
vn 0.9556153 0.2289296 -0.1854471
vn 0.6945997 0.5637872 -0.4468504
vn 0 0.7461816 -0.6657425
vn 0.7685612 -0.5385869 -0.345308
vn 0 -0.8613387 -0.5080312
vn 0 -0.8108199 -0.5852957
vn 0 -0.9175014 -0.3977324
vn 0.8045482 -0.539059 -0.249234
vn 0 -0.9436255 -0.331015
vn 0 -0.9436255 -0.331015
vn 0 -0.9436255 -0.331015
vn 0 -0.9436255 -0.331015
vn 0 -0.4474183 0.8943248
vn 0 -0.4474183 0.8943248
vn 0 -0.4474183 0.8943248
vn 0 -0.4474183 0.8943248
vn -0.001191047 -0.5241233 0.8516417
vn 5.289348E-06 -0.03559224 0.9993665
vn 0 -0.03559224 0.9993665
vn 0 -0.523747 0.8518739
vn -0.00172536 -0.7242706 0.6895137
vn 0 -0.7254014 0.6883261
vn -0.01172811 -0.1048929 0.9944143
vn 0 -0.02695717 0.9996367
vn 0 0.4825728 0.8758559
vn -0.02175846 0.4824585 0.8756486
vn 0 -1 7.701115E-07
vn 0 -1 7.701115E-07
vn 0 -1 7.701115E-07
vn 0 -1 7.701115E-07
vn 0 -0.1647189 -0.9863405
vn 0 -0.1647189 -0.9863405
vn 0.01316017 -0.1647046 -0.9862552
vn 0.01316017 -0.1647046 -0.9862552
vn -0.7977399 0.4801413 0.3647952
vn -0.997435 0.03879081 0.06015586
vn -0.9985406 0.0473281 0.02601256
vn -0.7752376 0.5218798 0.3558767
vn -0.7539113 0.6032094 0.2603002
vn -0.9979386 0.06217768 -0.01588661
vn 0 0.9008596 0.4341106
vn 3.628791E-07 0.8092592 0.5874518
vn -0.8295715 0.5552011 -0.05968965
vn 6.950118E-07 0.8704916 0.4921832
vn 0 0.9998264 -0.01863343
vn 0 0.8461115 -0.5330058
vn -0.9100663 -0.3168766 -0.267149
vn -0.9995172 -0.01968022 -0.02404257
vn -0.9991735 -0.01025826 0.03933407
vn -0.9872486 0.1548093 -0.03707051
vn -0.9824027 0.1193346 -0.1436809
vn -0.9987884 -0.01933819 -0.04525179
vn -0.9987884 -0.01933818 -0.04525179
vn -0.9556153 0.2289296 -0.1854471
vn -0.6945997 0.5637872 -0.4468504
vn 0 0.7461816 -0.6657425
vn 0 -0.8108199 -0.5852957
vn 0 -0.8613387 -0.5080312
vn -0.7685614 -0.5385869 -0.3453079
vn 0 -0.9175014 -0.3977324
vn -0.8045481 -0.539059 -0.249234
vn 0 -0.9436255 -0.331015
vn 0 -0.9436255 -0.331015
vn 0 -0.9436255 -0.331015
vn 0 -0.9436255 -0.331015
vn 0 -0.4474183 0.8943248
vn 0 -0.4474183 0.8943248
vn 0 -0.4474183 0.8943248
vn 0 -0.4474183 0.8943248
vn 0.001191041 -0.5241225 0.851642
vn 0 -0.523747 0.8518739
vn 0 -0.03559224 0.9993665
vn -5.28933E-06 -0.03559224 0.9993665
vn 0.001725353 -0.7242711 0.6895132
vn 0 -0.7254014 0.6883261
vn 0.0117281 -0.1048929 0.9944143
vn 0 -0.02695717 0.9996367
vn 0 0.4825728 0.8758559
vn 0.02175846 0.4824585 0.8756486
vn 0 -1 7.701115E-07
vn 0 -1 7.701115E-07
vn 0 -1 7.701115E-07
vn 0 -1 7.701113E-07
vn 0 -0.1647189 -0.9863405
vn -0.01316017 -0.1647046 -0.9862552
vn -0.01316017 -0.1647046 -0.9862552
vn 0 -0.1647189 -0.9863405
vn -0.9745117 -0.2077847 -0.084572
vn -0.9913312 -0.125049 -0.04031236
vn -0.9626231 0.2354749 0.1338215
vn -0.9805417 0.1670294 0.1031461
vn -0.7552038 0.5835354 0.2985859
vn -0.8034009 0.5295992 0.2721611
vn -0.4148619 0.8110551 0.4124066
vn -0.4488889 0.7965795 0.4049193
vn 0 0.8911231 0.4537616
vn 0 0.8911231 0.4537616
vn -0.7548003 -0.584898 -0.2969356
vn -0.8156357 -0.517949 -0.2578122
vn -0.395445 -0.8121135 -0.4290631
vn -0.4317837 -0.7977473 -0.4209063
vn 0 -0.8830726 -0.4692363
vn 0 -0.8830726 -0.4692363
vn 0.9805417 0.1670294 0.1031461
vn 0.9626231 0.2354749 0.1338215
vn 0.9913312 -0.125049 -0.04031237
vn 0.9745117 -0.2077847 -0.08457201
vn 0.8034009 0.5295991 0.2721611
vn 0.7552039 0.5835354 0.2985859
vn 0.4488889 0.7965795 0.4049193
vn 0.4148618 0.8110551 0.4124067
vn 0 0.8911231 0.4537616
vn 0 0.8911231 0.4537616
vn 0.8156358 -0.5179489 -0.2578122
vn 0.7548004 -0.5848979 -0.2969356
vn 0.4317839 -0.7977472 -0.4209061
vn 0.3954451 -0.8121133 -0.429063
vn 0 -0.8830726 -0.4692363
vn 0 -0.8830726 -0.4692363
vn 0 -0.1671169 0.9859371
vn 0 -0.1671167 0.9859371
vn -8.459783E-07 -0.1671169 0.9859371
vn 8.635111E-07 -0.1671172 0.9859371
vn 1.417853E-07 -0.1671169 0.9859371
vn 1.527318E-06 -0.167117 0.9859371
vn 3.291256E-06 -0.167117 0.9859371
vn -2.444833E-07 -0.1671174 0.9859369
vn -7.270875E-07 0.1247062 -0.9921937
vn -3.179639E-06 0.1247064 -0.9921937
vn 0 0.1247064 -0.9921937
vn 8.729585E-07 0.1247065 -0.9921937
vn 3.689887E-07 0.1247068 -0.9921936
vn 0 0.1247066 -0.9921937
vn 2.705939E-07 0.1247077 -0.9921935
vn 6.905756E-06 0.1247072 -0.9921936
vn 0 -0.1671169 0.9859371
vn -1.031516E-07 -0.1671169 0.9859371
vn -8.64164E-07 -0.1671172 0.9859371
vn 8.459783E-07 -0.1671169 0.9859371
vn 0 -0.1671167 0.9859371
vn -1.525031E-06 -0.167117 0.9859371
vn -3.322812E-06 -0.167117 0.9859371
vn 2.173185E-07 -0.1671174 0.9859369
vn 0 0.1247066 -0.9921937
vn 3.193773E-06 0.1247064 -0.9921937
vn 0 0.1247064 -0.9921937
vn 7.270874E-07 0.1247062 -0.9921937
vn -8.76068E-07 0.1247066 -0.9921937
vn -3.823681E-07 0.1247068 -0.9921936
vn -3.185659E-07 0.1247077 -0.9921935
vn -6.905756E-06 0.1247072 -0.9921936
g pistolgrip_ar15_hk_ergo_psg1_style_grip_LOD1_0
f 3/3/3 2/2/2 1/1/1
f 4/4/4 3/3/3 1/1/1
f 5/5/5 2/2/2 3/3/3
f 6/6/6 5/5/5 3/3/3
f 2/2/2 7/7/7 1/1/1
f 7/7/7 8/8/8 1/1/1
f 9/9/9 7/7/7 2/2/2
f 5/5/5 9/9/9 2/2/2
f 4/4/4 1/1/1 10/10/10
f 8/8/8 10/10/10 1/1/1
f 8/8/8 11/11/11 10/10/10
f 10/10/10 11/11/11 12/12/12
f 13/13/13 3/3/3 4/4/4
f 14/14/14 13/13/13 4/4/4
f 14/14/14 4/4/4 15/15/15
f 4/4/4 16/16/16 15/15/15
f 16/16/16 4/4/4 10/10/10
f 10/10/10 17/17/17 16/16/16
f 14/14/14 18/18/18 13/13/13
f 18/18/18 19/19/19 13/13/13
f 20/20/20 17/17/17 10/10/10
f 21/21/21 20/20/20 10/10/10
f 10/10/10 12/12/12 21/21/21
f 21/21/21 12/12/12 22/22/22
f 24/24/24 23/23/23 13/13/13
f 25/25/25 24/24/24 13/13/13
f 24/24/24 26/26/26 23/23/23
f 26/26/26 27/27/27 23/23/23
f 23/23/23 27/27/27 3/3/3
f 13/13/13 23/23/23 3/3/3
f 27/27/27 6/6/6 3/3/3
f 30/30/30 29/29/29 28/28/28
f 31/31/31 30/30/30 28/28/28
f 34/34/34 33/33/33 32/32/32
f 35/35/35 34/34/34 32/32/32
f 38/38/38 37/37/37 36/36/36
f 39/39/39 38/38/38 36/36/36
f 39/39/39 36/36/36 40/40/40
f 41/41/41 39/39/39 40/40/40
f 41/41/41 40/40/40 42/42/42
f 43/43/43 41/41/41 42/42/42
f 43/43/43 42/42/42 44/44/44
f 42/42/42 45/45/45 44/44/44
f 48/48/48 47/47/47 46/46/46
f 49/49/49 48/48/48 46/46/46
f 52/52/52 51/51/51 50/50/50
f 53/53/53 52/52/52 50/50/50
f 56/56/56 55/55/55 54/54/54
f 57/57/57 56/56/56 54/54/54
f 57/57/57 58/58/58 56/56/56
f 58/58/58 59/59/59 56/56/56
f 60/60/60 58/58/58 57/57/57
f 61/61/61 60/60/60 57/57/57
f 61/61/61 57/57/57 54/54/54
f 54/54/54 55/55/55 62/62/62
f 63/63/63 61/61/61 54/54/54
f 62/62/62 63/63/63 54/54/54
f 64/64/64 63/63/63 62/62/62
f 64/64/64 62/62/62 65/65/65
f 56/56/56 66/66/66 55/55/55
f 66/66/66 67/67/67 55/55/55
f 55/55/55 67/67/67 68/68/68
f 69/69/69 55/55/55 68/68/68
f 55/55/55 69/69/69 62/62/62
f 70/70/70 62/62/62 69/69/69
f 71/71/71 67/67/67 66/66/66
f 72/72/72 71/71/71 66/66/66
f 70/70/70 73/73/73 62/62/62
f 73/73/73 74/74/74 62/62/62
f 62/62/62 74/74/74 65/65/65
f 65/65/65 74/74/74 75/75/75
f 77/77/77 76/76/76 66/66/66
f 78/78/78 77/77/77 66/66/66
f 79/79/79 77/77/77 78/78/78
f 80/80/80 79/79/79 78/78/78
f 80/80/80 78/78/78 56/56/56
f 78/78/78 66/66/66 56/56/56
f 59/59/59 80/80/80 56/56/56
f 83/83/83 82/82/82 81/81/81
f 84/84/84 83/83/83 81/81/81
f 87/87/87 86/86/86 85/85/85
f 88/88/88 87/87/87 85/85/85
f 91/91/91 90/90/90 89/89/89
f 92/92/92 91/91/91 89/89/89
f 89/89/89 90/90/90 93/93/93
f 90/90/90 94/94/94 93/93/93
f 93/93/93 94/94/94 95/95/95
f 94/94/94 96/96/96 95/95/95
f 95/95/95 96/96/96 97/97/97
f 98/98/98 95/95/95 97/97/97
f 101/101/101 100/100/100 99/99/99
f 102/102/102 101/101/101 99/99/99
f 105/105/105 104/104/104 103/103/103
f 106/106/106 105/105/105 103/103/103
f 109/109/109 108/108/108 107/107/107
f 110/110/110 109/109/109 107/107/107
f 111/111/111 109/109/109 110/110/110
f 112/112/112 111/111/111 110/110/110
f 113/113/113 111/111/111 112/112/112
f 114/114/114 113/113/113 112/112/112
f 115/115/115 113/113/113 114/114/114
f 116/116/116 115/115/115 114/114/114
f 117/117/117 107/107/107 108/108/108
f 118/118/118 117/117/117 108/108/108
f 117/117/117 118/118/118 119/119/119
f 118/118/118 120/120/120 119/119/119
f 121/121/121 119/119/119 120/120/120
f 122/122/122 121/121/121 120/120/120
f 125/125/125 124/124/124 123/123/123
f 126/126/126 125/125/125 123/123/123
f 123/123/123 124/124/124 127/127/127
f 124/124/124 128/128/128 127/127/127
f 127/127/127 128/128/128 129/129/129
f 128/128/128 130/130/130 129/129/129
f 129/129/129 130/130/130 131/131/131
f 130/130/130 132/132/132 131/131/131
f 125/125/125 126/126/126 133/133/133
f 126/126/126 134/134/134 133/133/133
f 135/135/135 133/133/133 134/134/134
f 136/136/136 135/135/135 134/134/134
f 135/135/135 136/136/136 137/137/137
f 136/136/136 138/138/138 137/137/137
f 141/141/141 140/140/140 139/139/139
f 142/142/142 141/141/141 139/139/139
f 139/139/139 143/143/143 142/142/142
f 142/142/142 143/143/143 144/144/144
f 144/144/144 145/145/145 142/142/142
f 142/142/142 145/145/145 146/146/146
f 149/149/149 148/148/148 147/147/147
f 149/149/149 147/147/147 150/150/150
f 151/151/151 149/149/149 150/150/150
f 152/152/152 148/148/148 149/149/149
f 153/153/153 151/151/151 150/150/150
f 154/154/154 153/153/153 150/150/150
f 157/157/157 156/156/156 155/155/155
f 158/158/158 157/157/157 155/155/155
f 159/159/159 158/158/158 155/155/155
f 160/160/160 156/156/156 157/157/157
f 157/157/157 161/161/161 160/160/160
f 162/162/162 161/161/161 157/157/157
f 165/165/165 164/164/164 163/163/163
f 166/166/166 164/164/164 165/165/165
f 167/167/167 166/166/166 165/165/165
f 168/168/168 167/167/167 165/165/165
f 169/169/169 167/167/167 168/168/168
f 170/170/170 167/167/167 169/169/169
