g pistolgrip_ak_tapco_saw_LOD1
v 0.01566657 0.0301728 -0.09723655
v 0.01566657 0.02804866 -0.09221695
v 0.01566656 0.07194645 -0.08834837
v 0.01566657 0.03093532 -0.08233406
v 0.01566659 0.03558289 -0.01831541
v 0.01566659 0.007144603 -0.01858345
v 0.01566659 0.0442824 -0.008764762
v 0.01566659 0.007878833 -0.0003488779
v 0.01566659 0.04456829 -0.001664576
v 0.01566659 0.007144603 -0.01858345
v 2.788901E-05 -0.0003077173 -0.01828337
v 2.789259E-05 0.0004265117 -4.879951E-05
v 0.01566659 0.007878833 -0.0003488779
v 2.786875E-05 0.02276091 -0.08369388
v 0.01566657 0.03093532 -0.08233406
v 0.01566657 0.02804866 -0.09221695
v 2.786755E-05 0.01994368 -0.09344055
v 2.786517E-05 0.02344027 -0.09875229
v 0.01566657 0.0301728 -0.09723655
v 0.01566656 0.07194645 -0.08834837
v 2.78604E-05 0.08106903 -0.08654612
v 2.786517E-05 0.02344027 -0.09875229
v 0.01566657 0.0301728 -0.09723655
v -0.01561084 0.07194644 -0.08834836
v -0.01561084 0.03017279 -0.09723654
v 2.788186E-05 0.04466242 -0.01964756
v 2.78604E-05 0.08106903 -0.08654612
v 0.01566656 0.07194645 -0.08834837
v 0.01566659 0.03558289 -0.01831541
v 0.01566659 0.0442824 -0.008764762
v 2.788305E-05 0.05459951 -0.009180184
v 2.788186E-05 0.04466242 -0.01964756
v 0.01566659 0.03558289 -0.01831541
v 0.01566659 0.04456829 -0.001664576
v 2.788424E-05 0.05488541 -0.002080002
v 2.788305E-05 0.05459951 -0.009180184
v 0.01566659 0.0442824 -0.008764762
v 2.789259E-05 0.0004265117 -4.879951E-05
v 2.788424E-05 0.05488541 -0.002080002
v 0.01566659 0.04456829 -0.001664576
v 0.01566659 0.007878833 -0.0003488779
v -0.01561084 0.03017279 -0.09723654
v -0.01561084 0.07194644 -0.08834836
v -0.01561083 0.02804865 -0.09221695
v -0.01561084 0.03093532 -0.08233404
v -0.01561082 0.03558288 -0.0183154
v -0.01561081 0.007144596 -0.01858344
v -0.01561082 0.04428239 -0.008764753
v -0.01561081 0.007878825 -0.0003488684
v -0.01561082 0.04456829 -0.001664567
v 2.789259E-05 0.0004265117 -4.879951E-05
v 2.788901E-05 -0.0003077173 -0.01828337
v -0.01561081 0.007144596 -0.01858344
v -0.01561081 0.007878825 -0.0003488684
v 2.786875E-05 0.02276091 -0.08369388
v -0.01561084 0.03093532 -0.08233404
v -0.01561083 0.02804865 -0.09221695
v 2.786755E-05 0.01994368 -0.09344055
v 2.786517E-05 0.02344027 -0.09875229
v -0.01561084 0.03017279 -0.09723654
v 2.788186E-05 0.04466242 -0.01964756
v -0.01561082 0.03558288 -0.0183154
v -0.01561084 0.07194644 -0.08834836
v 2.78604E-05 0.08106903 -0.08654612
v 2.788186E-05 0.04466242 -0.01964756
v 2.788305E-05 0.05459951 -0.009180184
v -0.01561082 0.04428239 -0.008764753
v -0.01561082 0.03558288 -0.0183154
v 2.788305E-05 0.05459951 -0.009180184
v 2.788424E-05 0.05488541 -0.002080002
v -0.01561082 0.04456829 -0.001664567
v -0.01561082 0.04428239 -0.008764753
v 2.789259E-05 0.0004265117 -4.879951E-05
v -0.01561081 0.007878825 -0.0003488684
v -0.01561082 0.04456829 -0.001664567
v 2.788424E-05 0.05488541 -0.002080002
vt 0.6035888 0.01490788
vt 0.5944389 0.06231309
vt 0.9818974 0.01490788
vt 0.6376669 0.1426166
vt 0.795947 0.6887023
vt 0.5490654 0.7388039
vt 0.8889248 0.7554115
vt 0.589041 0.8954335
vt 0.9044905 0.8164001
vt 0.04016505 0.184042
vt 0.185527 0.16559
vt 0.1660869 0.01244258
vt 0.02068691 0.0308993
vt 0.1657973 0.7519674
vt 0.01628987 0.7591362
vt 0.03804617 0.8434681
vt 0.1871455 0.8350947
vt 0.1797575 0.8882222
vt 0.03521977 0.8893029
vt 0.49937 0.9773778
vt 0.5554094 0.8831193
vt 0.2003727 0.8831204
vt 0.2419623 0.9773769
vt 0.49937 0.7888719
vt 0.2419623 0.7888709
vt 0.3604371 0.6880601
vt 0.3635253 0.01327228
vt 0.2042008 0.03710248
vt 0.2072388 0.7362506
vt 0.8062049 0.9818211
vt 0.9722003 0.9843348
vt 0.9276062 0.8645073
vt 0.7673222 0.8742031
vt 0.5560555 0.0708559
vt 0.3900781 0.06834273
vt 0.3891253 0.1312792
vt 0.5551004 0.1337924
vt 0.4014788 0.1599617
vt 0.4014788 0.6426879
vt 0.5400049 0.5512266
vt 0.5400047 0.2260266
vt 0.6035888 0.01490788
vt 0.9818974 0.01490788
vt 0.5944389 0.06231309
vt 0.6376669 0.1426166
vt 0.795947 0.6887023
vt 0.5490654 0.7388039
vt 0.8889248 0.7554115
vt 0.589041 0.8954335
vt 0.9044905 0.8164001
vt 0.1660869 0.01244258
vt 0.185527 0.16559
vt 0.04016505 0.184042
vt 0.02068691 0.0308993
vt 0.1657973 0.7519674
vt 0.01628987 0.7591362
vt 0.03804617 0.8434681
vt 0.1871455 0.8350947
vt 0.1797575 0.8882222
vt 0.03521977 0.8893029
vt 0.3604371 0.6880601
vt 0.2072388 0.7362506
vt 0.2042008 0.03710248
vt 0.3635253 0.01327228
vt 0.9276062 0.8645073
vt 0.9722003 0.9843348
vt 0.8062049 0.9818211
vt 0.7673222 0.8742031
vt 0.3891253 0.1312792
vt 0.3900781 0.06834273
vt 0.5560555 0.0708559
vt 0.5551004 0.1337924
vt 0.4014788 0.1599617
vt 0.5400047 0.2260266
vt 0.5400049 0.5512266
vt 0.4014788 0.6426879
vn 1 1.047192E-07 0
vn 1 1.293164E-07 -2.347977E-07
vn 1 1.483192E-07 -2.61046E-07
vn 1 1.535528E-07 -3.670339E-07
vn 1 1.162408E-07 -1.507315E-07
vn 1 1.458874E-07 -3.324603E-07
vn 1 1.36E-07 -3.828327E-07
vn 1 1.517799E-07 -4.76648E-07
vn 1 1.517799E-07 -4.76648E-07
vn 0.4388013 -0.8865746 -0.1464195
vn 1.355348E-07 -0.9897682 -0.1426847
vn 1.891797E-07 -0.9991903 0.04023312
vn 0.4304679 -0.9018751 0.03631457
vn 1.115825E-07 -0.9997858 -0.02069759
vn 0.4499955 -0.8921057 -0.04063856
vn 0.4514343 -0.8878911 -0.0886364
vn 1.940313E-07 -0.9940544 -0.1088851
vn 1.530483E-07 -0.8784151 -0.4778984
vn 0.4168261 -0.7984674 -0.4344029
vn 0.006901585 0.207584 -0.9781928
vn -4.839471E-07 0.2075889 -0.9782161
vn -4.837092E-07 0.2075889 -0.9782161
vn 0.006901585 0.207584 -0.9781928
vn -0.006902553 0.2075839 -0.9781929
vn -0.006902554 0.2075839 -0.9781929
vn 0 0.8830481 0.4692825
vn 0 0.8830481 0.4692825
vn 0.4620156 0.7831506 0.4161933
vn 0.4620156 0.7831506 0.4161934
vn 0.4414366 0.6567372 -0.6114164
vn -3.600113E-07 0.7319098 -0.6814016
vn -3.380858E-07 0.7319098 -0.6814016
vn 0.4414366 0.6567372 -0.6114164
vn 0.5509884 0.8338373 -0.03357568
vn -1.818809E-07 0.9991903 -0.04023369
vn -1.136756E-07 0.9991903 -0.04023369
vn 0.5509883 0.8338373 -0.03357568
vn 2.982672E-07 0.03669453 0.9993266
vn 2.982605E-07 0.03669453 0.9993266
vn -0.0003244166 0.03669454 0.9993265
vn -0.0003244166 0.03669453 0.9993265
vn -1 -2.176089E-07 6.20379E-07
vn -1 -1.300981E-07 2.179773E-07
vn -1 -1.823907E-07 2.207505E-07
vn -1 -1.287774E-07 0
vn -1 -1.444521E-07 2.748488E-07
vn -1 -1.219004E-07 1.693514E-07
vn -1 -1.310468E-07 1.05396E-07
vn -1 -1.190006E-07 0
vn -1 -1.190006E-07 0
vn 1.891797E-07 -0.9991903 0.04023312
vn 1.355348E-07 -0.9897682 -0.1426847
vn -0.4388012 -0.8865749 -0.1464193
vn -0.4304675 -0.9018753 0.03631476
vn 1.115825E-07 -0.9997858 -0.02069759
vn -0.4499952 -0.8921059 -0.04063855
vn -0.451434 -0.8878912 -0.08863671
vn 1.940313E-07 -0.9940544 -0.1088851
vn 1.530483E-07 -0.8784151 -0.4778984
vn -0.4168259 -0.7984673 -0.4344033
vn 0 0.8830481 0.4692825
vn -0.4620156 0.7831504 0.4161936
vn -0.4620156 0.7831504 0.4161936
vn 0 0.8830481 0.4692825
vn -3.380858E-07 0.7319098 -0.6814016
vn -3.600113E-07 0.7319098 -0.6814016
vn -0.4414372 0.6567369 -0.6114163
vn -0.4414372 0.6567369 -0.6114163
vn -1.136756E-07 0.9991903 -0.04023369
vn -1.818809E-07 0.9991903 -0.04023369
vn -0.5509886 0.8338371 -0.03357537
vn -0.5509885 0.8338371 -0.03357537
vn 2.982672E-07 0.03669453 0.9993266
vn 0.0003250131 0.03669453 0.9993265
vn 0.0003250131 0.03669453 0.9993265
vn 2.982605E-07 0.03669453 0.9993266
g pistolgrip_ak_tapco_saw_LOD1_0
f 3/3/3 2/2/2 1/1/1
f 4/4/4 2/2/2 3/3/3
f 4/4/4 3/3/3 5/5/5
f 6/6/6 4/4/4 5/5/5
f 7/7/7 6/6/6 5/5/5
f 8/8/8 6/6/6 7/7/7
f 9/9/9 8/8/8 7/7/7
f 12/12/12 11/11/11 10/10/10
f 13/13/13 12/12/12 10/10/10
f 10/10/10 11/11/11 14/14/14
f 15/15/15 10/10/10 14/14/14
f 15/15/15 14/14/14 16/16/16
f 14/14/14 17/17/17 16/16/16
f 16/16/16 17/17/17 18/18/18
f 19/19/19 16/16/16 18/18/18
f 22/22/22 21/21/21 20/20/20
f 23/23/23 22/22/22 20/20/20
f 24/24/24 21/21/21 22/22/22
f 25/25/25 24/24/24 22/22/22
f 28/28/28 27/27/27 26/26/26
f 29/29/29 28/28/28 26/26/26
f 32/32/32 31/31/31 30/30/30
f 33/33/33 32/32/32 30/30/30
f 36/36/36 35/35/35 34/34/34
f 37/37/37 36/36/36 34/34/34
f 40/40/40 39/39/39 38/38/38
f 41/41/41 40/40/40 38/38/38
f 44/44/44 43/43/43 42/42/42
f 44/44/44 45/45/45 43/43/43
f 46/46/46 43/43/43 45/45/45
f 47/47/47 46/46/46 45/45/45
f 47/47/47 48/48/48 46/46/46
f 47/47/47 49/49/49 48/48/48
f 49/49/49 50/50/50 48/48/48
f 53/53/53 52/52/52 51/51/51
f 54/54/54 53/53/53 51/51/51
f 52/52/52 53/53/53 55/55/55
f 53/53/53 56/56/56 55/55/55
f 56/56/56 57/57/57 55/55/55
f 57/57/57 58/58/58 55/55/55
f 58/58/58 57/57/57 59/59/59
f 57/57/57 60/60/60 59/59/59
f 63/63/63 62/62/62 61/61/61
f 64/64/64 63/63/63 61/61/61
f 67/67/67 66/66/66 65/65/65
f 68/68/68 67/67/67 65/65/65
f 71/71/71 70/70/70 69/69/69
f 72/72/72 71/71/71 69/69/69
f 75/75/75 74/74/74 73/73/73
f 76/76/76 75/75/75 73/73/73
