g pistolgrip_ar15_tactical_dynamics_skeletonized_anodized_LOD1
v 0.01169735 0.04267321 -0.08974852
v 0.01169735 0.03874353 -0.08174881
v 0.01169735 0.07437214 -0.06531113
v 0.01169736 0.02996069 -0.07617769
v 0.01169736 0.02978938 -0.07081026
v 0.01169735 0.05501013 -0.04212313
v 0.01169736 0.02610868 -0.05819965
v 0.01169736 0.0155474 -0.05278934
v 0.01169736 0.01950575 -0.04370007
v 0.01169735 0.04179268 -0.09935759
v 0.01169735 0.0524535 -0.09930427
v 0.01169735 0.08798566 -0.09001194
v 0.01169736 0.03466003 -0.01447506
v 0.01169736 0.01529538 -0.03513899
v 0.01169736 -0.0001638389 -0.02702541
v 0.01169736 -0.0001638389 -0.005865736
v 0.01169736 0.03237848 0.0001691914
v 0.01169736 0.006151986 0.0001691914
v -1.969576E-05 -0.0001638413 -0.03421553
v -0.01173675 -0.0001638413 -0.02702541
v 0.01169736 -0.0001638389 -0.02702541
v 0.01169736 -0.0001638389 -0.005865736
v -0.01173675 -0.0001638413 -0.005865736
v -0.01173675 0.006151986 0.0001691914
v 0.01169736 0.006151986 0.0001691914
v 0.01169736 0.03237848 0.0001691914
v -0.01173675 0.03237848 0.0001691914
v -1.969576E-05 0.03815077 0.0001691866
v 0.01169736 0.01529538 -0.03513899
v -1.969576E-05 0.009800691 -0.03730313
v -1.969576E-05 -0.0001638413 -0.03421553
v 0.01169736 -0.0001638389 -0.02702541
v 0.01169736 0.01950575 -0.04370007
v -1.969695E-05 0.01401106 -0.04586421
v 0.01169736 0.0155474 -0.05278934
v -1.969695E-05 0.01218674 -0.05610938
v 0.01169736 0.02610868 -0.05819965
v -1.969814E-05 0.02425645 -0.06382839
v -1.969695E-05 0.01218674 -0.05610938
v 0.01169736 0.0155474 -0.05278934
v 0.01169736 0.02978938 -0.07081026
v -1.969814E-05 0.02678267 -0.07042462
v 0.01169736 0.02996069 -0.07617769
v -1.969934E-05 0.02495818 -0.07996812
v -0.01173675 0.02610868 -0.05819965
v -0.01173675 0.0155474 -0.05278934
v -0.01173675 0.02978938 -0.07081026
v -0.01173675 0.02996069 -0.07617769
v 0.01169735 0.03874353 -0.08174881
v -1.969934E-05 0.03379995 -0.08333641
v -1.969934E-05 0.02495818 -0.07996812
v 0.01169736 0.02996069 -0.07617769
v 0.01169735 0.04267321 -0.08974852
v -1.969934E-05 0.03772962 -0.09133611
v 0.01169735 0.04179268 -0.09935759
v -1.970053E-05 0.03408064 -0.1005989
v -1.969934E-05 0.03772962 -0.09133611
v 0.01169735 0.04267321 -0.08974852
v 0.01169735 0.0524535 -0.09930427
v -1.970053E-05 0.04067688 -0.1028444
v -1.970053E-05 0.03408064 -0.1005989
v 0.01169735 0.04179268 -0.09935759
v -0.01173676 0.0524535 -0.09930427
v -0.01173676 0.04179268 -0.09935759
v -1.970172E-05 0.09316621 -0.08852918
v -1.970053E-05 0.04067688 -0.1028444
v 0.01169735 0.0524535 -0.09930427
v 0.01169735 0.08798566 -0.09001194
v -0.01173676 0.0524535 -0.09930427
v -0.01173675 0.08798566 -0.09001194
v 0.01169735 0.07437214 -0.06531113
v -1.970053E-05 0.0795527 -0.06382836
v -1.970172E-05 0.09316621 -0.08852918
v 0.01169735 0.08798566 -0.09001194
v 0.01169735 0.05501013 -0.04212313
v -1.969814E-05 0.05990432 -0.03814514
v 0.01169736 0.03466003 -0.01447506
v -1.969695E-05 0.03955422 -0.01049707
v 0.01169736 0.03237848 0.0001691914
v -1.969576E-05 0.03815077 0.0001691866
v -0.01173676 0.07437214 -0.06531113
v -0.01173675 0.08798566 -0.09001194
v -0.01173675 0.05501013 -0.04212313
v -0.01173675 0.03466003 -0.01447506
v -0.01173675 0.03237848 0.0001691914
v -0.01173676 0.0426732 -0.08974852
v -0.01173676 0.07437214 -0.06531113
v -0.01173675 0.03874353 -0.08174881
v -0.01173675 0.02996069 -0.07617769
v -0.01173675 0.02978938 -0.07081026
v -0.01173675 0.05501013 -0.04212313
v -0.01173675 0.02610868 -0.05819965
v -0.01173675 0.0155474 -0.05278934
v -0.01173675 0.01950575 -0.04370007
v -0.01173676 0.04179268 -0.09935759
v -0.01173676 0.0524535 -0.09930427
v -0.01173675 0.08798566 -0.09001194
v -0.01173675 0.03466003 -0.01447506
v -0.01173675 0.01529538 -0.03513899
v -0.01173675 -0.0001638413 -0.02702541
v -0.01173675 -0.0001638413 -0.005865736
v -0.01173675 0.03237848 0.0001691914
v -0.01173675 0.006151986 0.0001691914
v -1.969576E-05 -0.0001638413 -0.03421553
v -1.969576E-05 0.009800691 -0.03730313
v -0.01173675 0.01529538 -0.03513899
v -0.01173675 -0.0001638413 -0.02702541
v -0.01173675 0.01950575 -0.04370007
v -1.969695E-05 0.01401106 -0.04586421
v -0.01173675 0.0155474 -0.05278934
v -1.969695E-05 0.01218674 -0.05610938
v -1.969934E-05 0.02495818 -0.07996812
v -1.969934E-05 0.03379995 -0.08333641
v -0.01173675 0.03874353 -0.08174881
v -0.01173675 0.02996069 -0.07617769
v -0.01173676 0.0426732 -0.08974852
v -1.969934E-05 0.03772962 -0.09133611
v -0.01173676 0.04179268 -0.09935759
v -1.970053E-05 0.03408064 -0.1005989
vt 0.366768 0.1027279
vt 0.3349085 0.1680172
vt 0.6256676 0.3012378
vt 0.2634391 0.2136152
vt 0.2621576 0.2573684
vt 0.4683445 0.4906566
vt 0.2324262 0.3602358
vt 0.1464573 0.404561
vt 0.1789161 0.4785625
vt 0.3593854 0.02442343
vt 0.4462824 0.02463003
vt 0.7361024 0.09961133
vt 0.3030632 0.7164502
vt 0.1447806 0.5484336
vt 0.01894667 0.6148978
vt 0.01939938 0.7873695
vt 0.2847797 0.8358637
vt 0.0710085 0.8364248
vt 0.620158 0.4125578
vt 0.524652 0.4711649
vt 0.7156637 0.4711649
vt 0.7156637 0.6436374
vt 0.524652 0.6436374
vt 0.524652 0.7148412
vt 0.7156637 0.7148412
vt 0.7156636 0.928614
vt 0.5246519 0.928614
vt 0.6201579 0.975664
vt 0.01516308 0.4117571
vt 0.09994079 0.4037509
vt 0.1044163 0.3322007
vt 0.02663536 0.3047608
vt 0.01591496 0.4671409
vt 0.1003102 0.4743967
vt 0.02521332 0.5251019
vt 0.09850998 0.5459602
vt 0.008210476 0.08783337
vt 0.09705813 0.1116581
vt 0.1001154 0.009384498
vt 0.01721042 0.009807035
vt 0.01292222 0.1747243
vt 0.09756111 0.1669941
vt 0.01330848 0.2097571
vt 0.09776135 0.2382429
vt 0.1897533 0.09262446
vt 0.1839975 0.01435362
vt 0.1793218 0.1768827
vt 0.18126 0.2101905
vt 0.3180009 0.0866289
vt 0.215805 0.1010594
vt 0.2167696 0.1844045
vt 0.3174604 0.1660993
vt 0.3171658 0.02298833
vt 0.2114176 0.01683821
vt 0.1803751 0.2282617
vt 0.1002462 0.3025224
vt 0.1727255 0.352641
vt 0.2384181 0.2695448
vt 0.7376323 0.4248497
vt 0.6695561 0.3608687
vt 0.6322705 0.3611311
vt 0.6793407 0.4277829
vt 0.7367132 0.2959478
vt 0.6783981 0.2938234
vt 0.4206041 0.9913428
vt 0.4180811 0.6395634
vt 0.3429846 0.7194664
vt 0.3446043 0.9570531
vt 0.494281 0.7183881
vt 0.4961145 0.9559589
vt 0.7753417 0.2629733
vt 0.8679349 0.24861
vt 0.8540241 0.02437419
vt 0.7545813 0.04067639
vt 0.7720999 0.498427
vt 0.8739685 0.5068455
vt 0.7471896 0.7623404
vt 0.8634112 0.7837405
vt 0.7476536 0.8745356
vt 0.8536387 0.8728555
vt 0.9636732 0.2573513
vt 0.9556492 0.03050972
vt 0.979591 0.5012051
vt 0.9778792 0.7777309
vt 0.9546334 0.8953821
vt 0.366768 0.1027279
vt 0.6256676 0.3012378
vt 0.3349085 0.1680172
vt 0.2634391 0.2136152
vt 0.2621576 0.2573684
vt 0.4683445 0.4906566
vt 0.2324262 0.3602358
vt 0.1464573 0.404561
vt 0.1789161 0.4785625
vt 0.3593854 0.02442343
vt 0.4462824 0.02463003
vt 0.7361024 0.09961133
vt 0.3030632 0.7164502
vt 0.1447806 0.5484336
vt 0.01894667 0.6148978
vt 0.01939938 0.7873695
vt 0.2847797 0.8358637
vt 0.0710085 0.8364248
vt 0.7456779 0.9873915
vt 0.8172281 0.991867
vt 0.835445 0.9075525
vt 0.7313586 0.9034034
vt 0.8875737 0.9088016
vt 0.8878739 0.9914976
vt 0.9447063 0.9190748
vt 0.9594375 0.9932978
vt 0.3272311 0.8736327
vt 0.2438861 0.8745973
vt 0.2311553 0.97885
vt 0.3091916 0.975037
vt 0.1671104 0.9829146
vt 0.1596648 0.8789846
vt 0.09349149 0.9860567
vt 0.07154638 0.8795022
vn 1 0 0
vn 1 0 -1.439365E-07
vn 1 0 0
vn 1 0 0
vn 1 0 0
vn 1 0 0
vn 1 0 0
vn 1 0 -1.446004E-07
vn 1 1.290076E-07 -1.528337E-07
vn 1 0 0
vn 1 0 0
vn 1 1.614181E-07 -1.040818E-07
vn 1 1.336793E-07 0
vn 1 1.115937E-07 0
vn 1 1.410777E-07 0
vn 1 1.497193E-07 0
vn 1 1.436575E-07 0
vn 1 1.818151E-07 -1.902777E-07
vn 1.0174E-07 -1 1.65796E-07
vn 1.0174E-07 -1 0
vn 1.0174E-07 -1 0
vn 0 -0.9194689 0.3931628
vn 0 -0.9194689 0.3931628
vn 0 -0.3721547 0.9281708
vn 0 -0.3721547 0.9281707
vn 0 1.86406E-07 1
vn 0 1.86406E-07 1
vn 0 8.260803E-07 1
vn 0.4571849 -0.6403347 -0.6172143
vn 0 -0.6592289 -0.7519423
vn 0 -0.4031827 -0.9151195
vn 0.4177758 -0.3663117 -0.831432
vn 0.3994057 -0.9112372 -0.1006074
vn 0 -0.9989267 -0.0463185
vn 0.2829265 -0.9189218 0.274837
vn 0 -0.9580668 0.2865447
vn 0.3642637 -0.6942238 -0.620778
vn 0 -0.816538 -0.5772917
vn 0 -0.5018137 -0.8649757
vn 0.4042217 -0.4589894 -0.7911596
vn 0.2897281 -0.9529747 -0.0888653
vn 0 -0.9940071 -0.1093149
vn 0.3079534 -0.9456074 0.1048398
vn 0 -0.99391 0.1101952
vn -0.3642638 -0.6942238 -0.6207779
vn -0.4042217 -0.4589895 -0.7911596
vn -0.2897281 -0.9529747 -0.08886526
vn -0.3079534 -0.9456074 0.1048399
vn 0.4044372 -0.672326 -0.6200066
vn 0 -0.6831046 -0.7303206
vn 0 -0.4523516 -0.8918396
vn 0.3687162 -0.4204799 -0.8290024
vn 0.4441234 -0.8887571 -0.1134253
vn 1.314929E-07 -0.9956177 -0.09351707
vn 0.4450373 -0.8707817 0.2089996
vn 0 -0.9723842 0.2333855
vn 1.314929E-07 -0.9956177 -0.09351707
vn 0.4441234 -0.8887571 -0.1134253
vn 0.2936693 -0.1204629 -0.9482864
vn 0 -0.1260194 -0.9920278
vn 0 -0.1260195 -0.9920278
vn 0.2936693 -0.1204629 -0.9482864
vn -0.2936693 -0.1204629 -0.9482864
vn -0.2936693 -0.1204629 -0.9482864
vn 0 0.2590474 -0.9658645
vn 0 0.2590474 -0.9658647
vn 0.01188288 0.2590291 -0.9657965
vn 0.01188288 0.2590291 -0.9657965
vn -0.01188288 0.2590291 -0.9657965
vn -0.01188288 0.2590291 -0.9657965
vn 0.423703 0.7500756 0.5078015
vn 0 0.8357307 0.5491395
vn 0 0.8757953 0.4826828
vn 0.4090776 0.7991629 0.4404478
vn 0.4537179 0.7070414 0.542432
vn 0 0.7936093 0.6084278
vn 0.4643185 0.8126303 0.3521934
vn 0 0.9337303 0.3579772
vn 0.4289659 0.8938963 0.1301441
vn 0 0.989567 0.144073
vn -0.4237029 0.7500756 0.5078017
vn -0.4090776 0.7991629 0.4404478
vn -0.453718 0.7070413 0.5424321
vn -0.4643185 0.8126303 0.3521935
vn -0.428966 0.8938963 0.1301442
vn -1 0 0
vn -1 0 0
vn -1 0 0
vn -1 0 1.26647E-07
vn -1 0 1.44882E-07
vn -1 0 0
vn -1 0 1.092795E-07
vn -1 0 0
vn -1 0 0
vn -1 0 0
vn -1 0 0
vn -1 0 0
vn -1 0 1.213553E-07
vn -1 0 1.279637E-07
vn -1 0 0
vn -1 0 0
vn -1 0 1.158757E-07
vn -1 0 0
vn 0 -0.4031827 -0.9151195
vn 0 -0.6592289 -0.7519423
vn -0.4571849 -0.6403347 -0.6172143
vn -0.4177757 -0.3663118 -0.831432
vn -0.3994057 -0.9112372 -0.1006076
vn 0 -0.9989267 -0.0463185
vn -0.2829264 -0.9189219 0.2748368
vn 0 -0.9580668 0.2865447
vn 0 -0.4523516 -0.8918396
vn 0 -0.6831046 -0.7303206
vn -0.4044371 -0.6723263 -0.6200066
vn -0.3687161 -0.4204799 -0.8290024
vn -0.4441232 -0.8887571 -0.1134252
vn 1.314929E-07 -0.9956177 -0.09351707
vn -0.4450372 -0.8707818 0.2089995
vn 0 -0.9723842 0.2333855
g pistolgrip_ar15_tactical_dynamics_skeletonized_anodized_LOD1_0
f 3/3/3 2/2/2 1/1/1
f 4/4/4 2/2/2 3/3/3
f 5/5/5 4/4/4 3/3/3
f 6/6/6 5/5/5 3/3/3
f 7/7/7 5/5/5 6/6/6
f 8/8/8 7/7/7 6/6/6
f 9/9/9 8/8/8 6/6/6
f 10/10/10 3/3/3 1/1/1
f 11/11/11 3/3/3 10/10/10
f 3/3/3 11/11/11 12/12/12
f 13/13/13 9/9/9 6/6/6
f 14/14/14 9/9/9 13/13/13
f 15/15/15 14/14/14 13/13/13
f 16/16/16 15/15/15 13/13/13
f 17/17/17 16/16/16 13/13/13
f 18/18/18 16/16/16 17/17/17
f 21/21/21 20/20/20 19/19/19
f 20/20/20 21/21/21 22/22/22
f 23/23/23 20/20/20 22/22/22
f 24/24/24 23/23/23 22/22/22
f 25/25/25 24/24/24 22/22/22
f 24/24/24 25/25/25 26/26/26
f 27/27/27 24/24/24 26/26/26
f 28/28/28 27/27/27 26/26/26
f 31/31/31 30/30/30 29/29/29
f 32/32/32 31/31/31 29/29/29
f 29/29/29 30/30/30 33/33/33
f 30/30/30 34/34/34 33/33/33
f 33/33/33 34/34/34 35/35/35
f 34/34/34 36/36/36 35/35/35
f 39/39/39 38/38/38 37/37/37
f 40/40/40 39/39/39 37/37/37
f 37/37/37 38/38/38 41/41/41
f 38/38/38 42/42/42 41/41/41
f 41/41/41 42/42/42 43/43/43
f 42/42/42 44/44/44 43/43/43
f 45/45/45 38/38/38 39/39/39
f 46/46/46 45/45/45 39/39/39
f 47/47/47 42/42/42 38/38/38
f 45/45/45 47/47/47 38/38/38
f 48/48/48 44/44/44 42/42/42
f 47/47/47 48/48/48 42/42/42
f 51/51/51 50/50/50 49/49/49
f 52/52/52 51/51/51 49/49/49
f 49/49/49 50/50/50 53/53/53
f 50/50/50 54/54/54 53/53/53
f 57/57/57 56/56/56 55/55/55
f 58/58/58 57/57/57 55/55/55
f 61/61/61 60/60/60 59/59/59
f 62/62/62 61/61/61 59/59/59
f 63/63/63 60/60/60 61/61/61
f 64/64/64 63/63/63 61/61/61
f 67/67/67 66/66/66 65/65/65
f 68/68/68 67/67/67 65/65/65
f 66/66/66 69/69/69 65/65/65
f 69/69/69 70/70/70 65/65/65
f 73/73/73 72/72/72 71/71/71
f 74/74/74 73/73/73 71/71/71
f 71/71/71 72/72/72 75/75/75
f 72/72/72 76/76/76 75/75/75
f 75/75/75 76/76/76 77/77/77
f 76/76/76 78/78/78 77/77/77
f 77/77/77 78/78/78 79/79/79
f 78/78/78 80/80/80 79/79/79
f 81/81/81 72/72/72 73/73/73
f 82/82/82 81/81/81 73/73/73
f 83/83/83 76/76/76 72/72/72
f 81/81/81 83/83/83 72/72/72
f 84/84/84 78/78/78 76/76/76
f 83/83/83 84/84/84 76/76/76
f 85/85/85 80/80/80 78/78/78
f 84/84/84 85/85/85 78/78/78
f 88/88/88 87/87/87 86/86/86
f 88/88/88 89/89/89 87/87/87
f 89/89/89 90/90/90 87/87/87
f 90/90/90 91/91/91 87/87/87
f 90/90/90 92/92/92 91/91/91
f 92/92/92 93/93/93 91/91/91
f 93/93/93 94/94/94 91/91/91
f 87/87/87 95/95/95 86/86/86
f 87/87/87 96/96/96 95/95/95
f 96/96/96 87/87/87 97/97/97
f 94/94/94 98/98/98 91/91/91
f 94/94/94 99/99/99 98/98/98
f 99/99/99 100/100/100 98/98/98
f 100/100/100 101/101/101 98/98/98
f 101/101/101 102/102/102 98/98/98
f 103/103/103 102/102/102 101/101/101
f 106/106/106 105/105/105 104/104/104
f 107/107/107 106/106/106 104/104/104
f 106/106/106 108/108/108 105/105/105
f 108/108/108 109/109/109 105/105/105
f 108/108/108 110/110/110 109/109/109
f 110/110/110 111/111/111 109/109/109
f 114/114/114 113/113/113 112/112/112
f 115/115/115 114/114/114 112/112/112
f 114/114/114 116/116/116 113/113/113
f 116/116/116 117/117/117 113/113/113
f 116/116/116 118/118/118 117/117/117
f 118/118/118 119/119/119 117/117/117
