g pistolgrip_p226_hogue_p226_rubber_w_grooves_LOD1
v 0.01611957 0.01095065 0.05557815
v 0.01611957 0.01064162 0.03675484
v 0.01611958 -0.03564781 0.05557815
v 0.01611957 -0.02481005 0.009749925
v 0.01611957 0.00904104 0.02476796
v 0.01611957 0.01702595 -0.002171608
v 0.01611957 -0.02297746 0.002008671
v 0.01611957 -0.02390641 -0.01146111
v 0.01611957 -0.01149867 -0.02214404
v 0.01611956 0.0253865 -0.02787256
v 0.01611958 -0.02100076 -0.03375592
v 0.01611957 0.02699661 -0.04407081
v 0.01611958 -0.01177562 -0.04799982
v 0.01611957 -0.007915976 -0.05388318
v 0.01611957 0.0221408 -0.05388318
v 0.01316231 0.02227491 0.04071494
v 0.009068268 0.02537141 0.05557815
v 0.009068266 0.03063546 0.04303731
v 0.01611957 -0.02297746 0.002008671
v -0.0008369507 -0.02974631 0.002008672
v -0.0008369507 -0.02699747 0.009749925
v 0.01611957 -0.02481005 0.009749925
v -0.0008369472 -0.03810784 0.05557815
v 0.01611958 -0.03564781 0.05557815
v -0.01779347 -0.02297746 0.002008672
v -0.01779347 -0.02481005 0.009749926
v -0.01779347 -0.03564781 0.05557815
v 0.01611957 -0.02390641 -0.01146111
v -0.0008369507 -0.03067527 -0.01146111
v -0.0008369507 -0.02974631 0.002008672
v 0.01611957 -0.02297746 0.002008671
v 0.01611957 -0.01149867 -0.02214404
v -0.0008369519 -0.02370813 -0.02214404
v -0.01779347 -0.02390641 -0.01146111
v -0.01779347 -0.02297746 0.002008672
v -0.01779348 -0.01149867 -0.02214404
v 0.01611958 -0.02100076 -0.03375592
v -0.0008369519 -0.02525639 -0.03375592
v -0.0008369519 -0.02370813 -0.02214404
v 0.01611957 -0.01149867 -0.02214404
v 0.01611958 -0.01177562 -0.04799982
v -0.0008369531 -0.01890856 -0.04799982
v 0.01611957 -0.007915976 -0.05388318
v -0.0008369543 -0.007915977 -0.05388318
v -0.01779348 -0.02100076 -0.03375592
v -0.01779348 -0.01149867 -0.02214404
v -0.01779348 -0.01177562 -0.04799982
v -0.01779348 -0.007915977 -0.05388318
v 0.01611957 0.0221408 -0.05388318
v -0.0008369555 0.02877756 -0.05388318
v -0.0008369543 -0.007915977 -0.05388318
v 0.01611957 -0.007915976 -0.05388318
v -0.01779348 0.0221408 -0.05388318
v -0.01779348 -0.007915977 -0.05388318
v 0.01611957 0.02699661 -0.04407081
v -0.0008369555 0.03388679 -0.04567746
v -0.0008369555 0.02877756 -0.05388318
v 0.01611957 0.0221408 -0.05388318
v 0.01611956 0.0253865 -0.02787256
v -0.0008369543 0.03342231 -0.02787256
v 0.01611957 0.01702595 -0.002171608
v -0.0008369531 0.02506175 -0.002171606
v 0.009161226 0.01475454 0.02476796
v -0.01083513 0.01475454 0.02476796
v 0.006443802 0.01687902 0.03684432
v -0.008117703 0.01687902 0.03684432
v 0.01611957 0.01064162 0.03675484
v 0.01611957 0.00904104 0.02476796
v -0.01779348 0.02699661 -0.04407081
v -0.01779348 0.0221408 -0.05388318
v -0.01779347 0.0253865 -0.02787256
v -0.01779348 0.01702595 -0.002171606
v -0.01779347 0.01064162 0.03675484
v -0.01779347 0.009041038 0.02476796
v 0.01316231 0.02227491 0.04071494
v -0.01483621 0.02227491 0.04071494
v -0.008117703 0.01687902 0.03684432
v 0.006443802 0.01687902 0.03684432
v 0.009068266 0.03063546 0.04303731
v -0.01074217 0.03063546 0.04303731
v 0.01611957 0.01064162 0.03675484
v -0.01779347 0.01064162 0.03675484
v 0.009068268 0.02537141 0.05557815
v -0.01074217 0.02537141 0.05557815
v -0.01074217 0.03063546 0.04303731
v 0.009068266 0.03063546 0.04303731
v -0.0008369472 -0.03810784 0.05557815
v -0.01779347 -0.03564781 0.05557815
v -0.01779347 0.01095064 0.05557815
v 0.01611957 0.01095065 0.05557815
v -0.01074217 0.02537141 0.05557815
v 0.009068268 0.02537141 0.05557815
v 0.01611958 -0.03564781 0.05557815
v -0.01779347 0.01095064 0.05557815
v -0.01779347 -0.03564781 0.05557815
v -0.01779347 0.01064162 0.03675484
v -0.01779347 -0.02481005 0.009749926
v -0.01779347 0.009041038 0.02476796
v -0.01779348 0.01702595 -0.002171606
v -0.01779347 -0.02297746 0.002008672
v -0.01779347 -0.02390641 -0.01146111
v -0.01779348 -0.01149867 -0.02214404
v -0.01779347 0.0253865 -0.02787256
v -0.01779348 -0.02100076 -0.03375592
v -0.01779348 0.02699661 -0.04407081
v -0.01779348 -0.01177562 -0.04799982
v -0.01779348 -0.007915977 -0.05388318
v -0.01779348 0.0221408 -0.05388318
v -0.01483621 0.02227491 0.04071494
v -0.01074217 0.02537141 0.05557815
v -0.01074217 0.03063546 0.04303731
vt 0.8594041 0.9901668
vt 0.8576976 0.887027
vt 0.6040211 0.990183
vt 0.6634145 0.7390339
vt 0.8489259 0.8213362
vt 0.8926851 0.6737013
vt 0.6734575 0.6966101
vt 0.6683666 0.6227927
vt 0.7363638 0.5642478
vt 0.938503 0.5328542
vt 0.6842902 0.5006121
vt 0.9473265 0.4440841
vt 0.7348462 0.4225523
vt 0.7559978 0.3903101
vt 0.9207159 0.3903101
vt 0.9234895 0.9086957
vt 0.9473161 0.9915111
vt 0.9743454 0.9220488
vt 0.5670912 0.676233
vt 0.4662949 0.683564
vt 0.4674156 0.7292804
vt 0.5652652 0.7256755
vt 0.4697151 0.9876594
vt 0.5602285 0.985858
vt 0.3666004 0.6918909
vt 0.371146 0.7327266
vt 0.3774513 0.9901487
vt 0.5527277 0.596156
vt 0.4597368 0.6162573
vt 0.4662949 0.683564
vt 0.5670912 0.676233
vt 0.5526757 0.5022121
vt 0.4494792 0.5506647
vt 0.363077 0.6193156
vt 0.3666004 0.6918909
vt 0.3343918 0.5348793
vt 0.890151 0.05484337
vt 0.8970699 0.1402671
vt 0.952662 0.1416369
vt 0.9638149 0.03790477
vt 0.8036119 0.05459887
vt 0.8244847 0.1399532
vt 0.7679182 0.05562043
vt 0.7659889 0.1400452
vt 0.8874491 0.2250225
vt 0.9576861 0.2460214
vt 0.8026386 0.2261707
vt 0.7661403 0.2246098
vt -0.7065969 0.9926726
vt -0.7065879 0.9926726
vt -0.7066373 0.9926726
vt -0.7066373 0.9926726
vt -0.7065969 0.9926726
vt -0.7066373 0.9926726
vt 0.1199842 0.3588685
vt 0.1085351 0.2762981
vt 0.06640996 0.2839324
vt 0.07104174 0.3722114
vt 0.1934828 0.3527617
vt 0.1880558 0.2694946
vt 0.3149524 0.363201
vt 0.3146914 0.2739237
vt 0.4464694 0.3419698
vt 0.4567952 0.2377279
vt 0.5049824 0.3356875
vt 0.5138575 0.2654022
vt 0.498998 0.3917954
vt 0.4432001 0.3910173
vt 0.09838293 0.1946744
vt 0.04026777 0.2013561
vt 0.1858283 0.1843951
vt 0.3261138 0.1836672
vt 0.5231206 0.2111512
vt 0.4653734 0.1920723
vt 0.685806 0.2918119
vt 0.5826623 0.4054076
vt 0.6343549 0.4026126
vt 0.6879981 0.3435337
vt 0.6355193 0.2764568
vt 0.5625396 0.3568319
vt 0.7476534 0.3230031
vt 0.61966 0.4639667
vt 0.4209954 0.1414999
vt 0.4209954 0.05519134
vt 0.3617403 0.05519134
vt 0.3617403 0.1414999
vt 0.6894581 0.09834561
vt 0.686839 0.02447079
vt 0.4838226 0.02447079
vt 0.4838226 0.1722205
vt 0.4209954 0.05519134
vt 0.4209954 0.1414999
vt 0.686839 0.1722205
vt 0.2653749 0.3892554
vt 0.0100596 0.3896097
vt 0.264134 0.4923101
vt 0.06945219 0.6407552
vt 0.2549612 0.5584542
vt 0.2987197 0.7060871
vt 0.07949508 0.6831786
vt 0.07440425 0.756995
vt 0.1424005 0.8155388
vt 0.3445368 0.8469322
vt 0.0903277 0.8791738
vt 0.3533604 0.935701
vt 0.1408828 0.9572325
vt 0.1620342 0.9894744
vt 0.3267499 0.9894744
vt 0.3294367 0.4705521
vt 0.3523809 0.3880781
vt 0.3794178 0.4575599
vn 0.9819001 0.1839838 0.04496812
vn 0.9973813 0.07231216 -0.001187242
vn 1 0 0
vn 1 0 0
vn 1 0 0
vn 1 0 0
vn 1 0 -1.153291E-07
vn 1 0 -2.426396E-07
vn 1 1.492885E-07 1.469888E-07
vn 1 1.819116E-07 2.407436E-07
vn 1 1.777478E-07 2.082477E-07
vn 1 1.829558E-07 0
vn 1 0 -2.395045E-07
vn 1 1.304032E-07 -4.639771E-07
vn 1 1.304032E-07 -4.63977E-07
vn 0.9303561 0.3532158 0.09836727
vn 0.8930283 0.4212686 0.1582183
vn 0.9030607 0.3960384 0.166238
vn 0.2549239 -0.9652723 0.0571245
vn 0 -0.9982534 0.05907631
vn 0 -0.9960229 -0.08909617
vn 0.1970947 -0.9766749 -0.08520517
vn 0 -0.9725062 -0.2328771
vn 0.1321044 -0.963983 -0.2308361
vn -0.2549238 -0.9652723 0.05712451
vn -0.1970946 -0.9766749 -0.08520517
vn -0.1321043 -0.963983 -0.2308361
vn 0.4043985 -0.8544519 -0.3261501
vn 0 -0.9533789 -0.3017761
vn 0 -0.9976304 0.06880212
vn 0.3699831 -0.926837 0.0639198
vn 0.3829506 -0.6843084 -0.6205407
vn 0 -0.7407789 -0.6717489
vn -0.4043984 -0.8544519 -0.3261501
vn -0.369983 -0.926837 0.06391984
vn -0.3829506 -0.6843085 -0.6205407
vn 0.3795205 -0.9245635 -0.03385947
vn 0 -0.9995937 -0.02850651
vn 0 -0.9029902 0.4296612
vn 0.401518 -0.8270046 0.3935057
vn 0.2000301 -0.7292159 -0.6543945
vn 0 -0.7844909 -0.6201403
vn 0.129512 -0.6157557 -0.7772204
vn 0 -0.6209857 -0.7838218
vn -0.3795205 -0.9245636 -0.03385945
vn -0.401518 -0.8270046 0.3935057
vn -0.20003 -0.7292159 -0.6543945
vn -0.129512 -0.6157556 -0.7772204
vn 0 0 -1
vn 0 0 -1
vn 0 0 -1
vn 0 0 -1
vn 0 0 -1
vn 0 0 -1
vn 0.3879677 0.8990082 -0.2031384
vn 0 0.9753059 -0.2208584
vn 0 0.8750839 -0.4839712
vn 0.3486356 0.8201797 -0.453606
vn 0.4084598 0.8956015 0.176235
vn 0 0.9836092 0.1803135
vn 0.4383067 0.8679261 0.2336485
vn 0 0.9605631 0.2780619
vn 0.3667932 0.9261391 0.08791695
vn -0.3667932 0.9261389 0.087917
vn 0.2556771 0.9576965 -0.1320861
vn -0.2556772 0.9576965 -0.1320861
vn 0.5822238 0.8108287 -0.05976913
vn 0.6062295 0.7914748 0.07780315
vn -0.3879679 0.8990082 -0.2031384
vn -0.3486357 0.8201796 -0.4536059
vn -0.4084598 0.8956013 0.176235
vn -0.4383067 0.8679261 0.2336485
vn -0.582224 0.8108286 -0.05976898
vn -0.6062296 0.7914748 0.07780322
vn 0.08237663 0.3912788 -0.9165779
vn -0.0823767 0.3912787 -0.9165779
vn -0.08083437 0.5125538 -0.8548417
vn 0.08083428 0.5125539 -0.8548417
vn 0 0.2676432 -0.9635181
vn 0 0.2676432 -0.9635181
vn 0.2269795 0.3650547 -0.9028928
vn -0.2269796 0.3650545 -0.9028929
vn 0 0.9220634 0.3870387
vn 0 0.9220635 0.3870388
vn 0 0.9220635 0.3870387
vn 0 0.9220634 0.3870387
vn 0 0 1
vn 0 0 1
vn 0 0 1
vn 0 0 1
vn 0 0 1
vn 0 0 1
vn 0 0 1
vn -0.9819001 0.1839837 0.04496821
vn -1 0 0
vn -0.9973813 0.07231203 -0.00118715
vn -1 0 1.087398E-07
vn -1 0 1.067374E-07
vn -1 0 0
vn -1 -1.060468E-07 0
vn -1 0 -1.040357E-07
vn -1 0 2.02798E-07
vn -1 0 2.884556E-07
vn -1 0 3.163452E-07
vn -1 1.075538E-07 1.215601E-07
vn -1 0 0
vn -1 0 -3.093181E-07
vn -1 0 -3.093181E-07
vn -0.9303561 0.3532156 0.09836737
vn -0.8930283 0.4212686 0.1582185
vn -0.9030607 0.3960382 0.1662382
g pistolgrip_p226_hogue_p226_rubber_w_grooves_LOD1_0
f 3/3/3 2/2/2 1/1/1
f 2/2/2 3/3/3 4/4/4
f 5/5/5 2/2/2 4/4/4
f 6/6/6 5/5/5 4/4/4
f 7/7/7 6/6/6 4/4/4
f 8/8/8 6/6/6 7/7/7
f 6/6/6 8/8/8 9/9/9
f 10/10/10 6/6/6 9/9/9
f 10/10/10 9/9/9 11/11/11
f 12/12/12 10/10/10 11/11/11
f 13/13/13 12/12/12 11/11/11
f 12/12/12 13/13/13 14/14/14
f 15/15/15 12/12/12 14/14/14
f 16/16/16 1/1/1 2/2/2
f 17/17/17 1/1/1 16/16/16
f 18/18/18 17/17/17 16/16/16
f 21/21/21 20/20/20 19/19/19
f 22/22/22 21/21/21 19/19/19
f 23/23/23 21/21/21 22/22/22
f 24/24/24 23/23/23 22/22/22
f 25/25/25 20/20/20 21/21/21
f 26/26/26 25/25/25 21/21/21
f 26/26/26 21/21/21 23/23/23
f 27/27/27 26/26/26 23/23/23
f 30/30/30 29/29/29 28/28/28
f 31/31/31 30/30/30 28/28/28
f 28/28/28 29/29/29 32/32/32
f 29/29/29 33/33/33 32/32/32
f 34/34/34 29/29/29 30/30/30
f 35/35/35 34/34/34 30/30/30
f 36/36/36 33/33/33 29/29/29
f 34/34/34 36/36/36 29/29/29
f 39/39/39 38/38/38 37/37/37
f 40/40/40 39/39/39 37/37/37
f 37/37/37 38/38/38 41/41/41
f 38/38/38 42/42/42 41/41/41
f 41/41/41 42/42/42 43/43/43
f 42/42/42 44/44/44 43/43/43
f 45/45/45 38/38/38 39/39/39
f 46/46/46 45/45/45 39/39/39
f 47/47/47 42/42/42 38/38/38
f 45/45/45 47/47/47 38/38/38
f 48/48/48 44/44/44 42/42/42
f 47/47/47 48/48/48 42/42/42
f 51/51/51 50/50/50 49/49/49
f 52/52/52 51/51/51 49/49/49
f 53/53/53 50/50/50 51/51/51
f 54/54/54 53/53/53 51/51/51
f 57/57/57 56/56/56 55/55/55
f 58/58/58 57/57/57 55/55/55
f 55/55/55 56/56/56 59/59/59
f 56/56/56 60/60/60 59/59/59
f 59/59/59 60/60/60 61/61/61
f 60/60/60 62/62/62 61/61/61
f 61/61/61 62/62/62 63/63/63
f 62/62/62 64/64/64 63/63/63
f 63/63/63 64/64/64 65/65/65
f 64/64/64 66/66/66 65/65/65
f 63/63/63 65/65/65 67/67/67
f 68/68/68 63/63/63 67/67/67
f 68/68/68 61/61/61 63/63/63
f 69/69/69 56/56/56 57/57/57
f 70/70/70 69/69/69 57/57/57
f 71/71/71 60/60/60 56/56/56
f 69/69/69 71/71/71 56/56/56
f 72/72/72 62/62/62 60/60/60
f 71/71/71 72/72/72 60/60/60
f 62/62/62 72/72/72 64/64/64
f 73/73/73 66/66/66 64/64/64
f 74/74/74 73/73/73 64/64/64
f 72/72/72 74/74/74 64/64/64
f 77/77/77 76/76/76 75/75/75
f 78/78/78 77/77/77 75/75/75
f 75/75/75 76/76/76 79/79/79
f 76/76/76 80/80/80 79/79/79
f 81/81/81 78/78/78 75/75/75
f 77/77/77 82/82/82 76/76/76
f 85/85/85 84/84/84 83/83/83
f 86/86/86 85/85/85 83/83/83
f 89/89/89 88/88/88 87/87/87
f 90/90/90 89/89/89 87/87/87
f 91/91/91 89/89/89 90/90/90
f 92/92/92 91/91/91 90/90/90
f 93/93/93 90/90/90 87/87/87
f 96/96/96 95/95/95 94/94/94
f 97/97/97 95/95/95 96/96/96
f 98/98/98 97/97/97 96/96/96
f 98/98/98 99/99/99 97/97/97
f 99/99/99 100/100/100 97/97/97
f 99/99/99 101/101/101 100/100/100
f 102/102/102 101/101/101 99/99/99
f 103/103/103 102/102/102 99/99/99
f 104/104/104 102/102/102 103/103/103
f 105/105/105 104/104/104 103/103/103
f 105/105/105 106/106/106 104/104/104
f 107/107/107 106/106/106 105/105/105
f 108/108/108 107/107/107 105/105/105
f 94/94/94 109/109/109 96/96/96
f 94/94/94 110/110/110 109/109/109
f 110/110/110 111/111/111 109/109/109
