g pistolgrip_m9_beretta_m9a3_std_LOD1
v -0.0141066 0.0297922 -0.05099646
v -0.01227924 0.03372477 -0.05099645
v -0.01227924 0.01548712 0.02051827
v -0.0141066 0.01173123 0.02304712
v -0.01579407 0.02321633 -0.04949357
v -0.01577133 0.005558987 0.01977737
v -0.01227924 0.01554858 0.0255366
v -0.01431351 0.01286053 0.03452338
v -0.01227924 0.01741754 0.03203414
v -0.01431351 0.01990684 0.04227505
v -0.01227924 0.02312718 0.04002789
v -0.01227924 0.02321119 0.04223739
v -0.01227924 0.02103972 0.05099657
v -0.01431351 0.01849999 0.05016179
v -0.0137439 0.01906214 0.05099657
v -0.01618483 0.00724648 0.03314837
v -0.01431351 -0.004509368 0.05016179
v -0.01374493 -0.03196093 0.05099656
v -0.01618663 -0.01487619 0.02995239
v -0.01618483 -0.007455525 0.04765737
v -0.01618483 -0.02080507 0.034242
v -0.01556515 -0.02235083 0.02929371
v -0.01577132 -0.02650843 0.03440737
v -0.01372213 -0.02712492 0.03050186
v -0.01355585 -0.02497492 0.02636136
v -0.0141066 -0.03023493 0.03440737
v -0.0141066 -0.0337247 0.04806844
v -0.01577132 -0.03004893 0.04826488
v -0.0156335 0.0005559874 -0.04932938
v -0.01610066 0.007344861 -0.0490269
v -0.01618483 -0.02427955 0.04765737
v -0.01403656 -0.03348243 0.05018006
v -0.01355585 -0.005244212 -0.05099646
v -0.01227924 0.03372477 -0.05099645
v -0.01098805 0.03372477 -0.05099645
v -0.01098805 0.01548712 0.02051827
v -0.01227924 0.01548712 0.02051827
v -0.01227924 0.02321119 0.04223739
v -0.01098805 0.02321119 0.04223739
v -0.01098805 0.02101702 0.05099657
v -0.01227924 0.02103972 0.05099657
v -0.01227924 0.02312718 0.04002789
v -0.01098805 0.02312718 0.04002789
v -0.01227924 0.01741754 0.03203414
v -0.01098805 0.01741754 0.03203414
v -0.01227924 0.01554858 0.0255366
v -0.01098805 0.01554858 0.0255366
v -0.01227924 0.01548712 0.02051827
v -0.01098805 0.01548712 0.02051827
v -0.01372213 -0.02712492 0.03050186
v -0.01303897 -0.02712492 0.03050186
v -0.01303897 -0.02497492 0.02636136
v -0.01355585 -0.02497492 0.02636136
v -0.0141066 -0.03023493 0.03440737
v -0.01303897 -0.03023493 0.03440737
v -0.01355585 -0.005244212 -0.05099646
v -0.01303897 -0.005244212 -0.05099646
v -0.0141066 -0.0337247 0.04806844
v -0.01303897 -0.0337247 0.04806844
v -0.01403656 -0.03348243 0.05018006
v -0.01303897 -0.03348393 0.05017906
v -0.01374493 -0.03196093 0.05099656
v -0.01303897 -0.03196093 0.05099656
v -0.0137439 0.01906214 0.05099657
v -0.01303897 0.01871883 0.05099658
v -0.01227924 0.02103972 0.05099657
v -0.01098805 0.01910584 0.05099657
v -0.01098805 0.02101702 0.05099657
v -0.01303897 0.0265322 -0.05099646
v -0.0141066 0.0297922 -0.05099646
v -0.01355585 -0.005244212 -0.05099646
v -0.01303897 -0.005244212 -0.05099646
v -0.01610066 0.007344861 -0.0490269
v -0.01579407 0.02321633 -0.04949357
v -0.01098805 0.02876719 -0.05099646
v -0.01227924 0.03372477 -0.05099645
v -0.01098805 0.03372477 -0.05099645
v -0.0156335 0.0005559874 -0.04932938
v -0.01098805 0.007855481 0.02929437
v -0.01098805 0.01548712 0.02051827
v -0.01098805 0.03372477 -0.05099645
v -0.01098805 0.02876719 -0.05099646
v -0.01098805 0.01554858 0.0255366
v -0.01098805 0.01741754 0.03203414
v -0.01098805 0.01203284 0.03215637
v -0.01098805 0.01459685 0.03413238
v -0.01098805 0.01910584 0.05099657
v -0.01098805 0.02312718 0.04002789
v -0.01098805 0.02321119 0.04223739
v -0.01098805 0.02101702 0.05099657
v -0.01098805 0.008397755 0.03179837
v -0.01303897 0.006815987 0.03179837
v -0.01303897 0.01164485 0.03215637
v -0.01098805 0.01203284 0.03215637
v -0.01098805 0.008397755 0.03179837
v -0.01098805 0.007855481 0.02929437
v -0.01303897 0.00562048 0.02929437
v -0.01098805 0.01459685 0.03413238
v -0.01303897 0.01420885 0.03413238
v -0.01098805 0.01910584 0.05099657
v -0.01303897 0.01871883 0.05099658
v -0.01303897 0.0265322 -0.05099646
v -0.01098805 0.02876719 -0.05099646
v -0.01303897 0.01164485 0.03215637
v -0.01303897 0.01871883 0.05099658
v -0.01303897 0.01420885 0.03413238
v -0.01303897 0.006815987 0.03179837
v -0.01303897 -0.03023493 0.03440737
v -0.01303897 -0.03196093 0.05099656
v -0.01303897 -0.0337247 0.04806844
v -0.01303897 -0.03348393 0.05017906
v -0.01303897 -0.02712492 0.03050186
v -0.01303897 -0.02497492 0.02636136
v -0.01303897 0.00562048 0.02929437
v -0.01303897 -0.005244212 -0.05099646
v -0.01303897 0.0265322 -0.05099646
v 0.01408237 0.02979219 -0.05099646
v 0.01470766 0.009957743 0.02668362
v 0.01225595 0.01548712 0.02051827
v 0.01225595 0.03372477 -0.05099645
v 0.01618663 0.02066775 -0.04911888
v 0.01615955 0.004455981 0.02765637
v 0.01225595 0.01554858 0.0255366
v 0.01408237 0.01286053 0.03452338
v 0.01225595 0.01741754 0.03203414
v 0.01225595 0.0229202 0.03934639
v 0.01408237 0.02011085 0.04221338
v 0.01225595 0.0232112 0.04223739
v 0.01225595 0.02101702 0.05099657
v 0.01408237 0.01826684 0.05099657
v 0.0161548 0.007246489 0.03314837
v 0.01408238 -0.003209586 0.05099657
v 0.0161548 -0.007463522 0.04766538
v 0.01615955 -0.01735312 0.03033604
v 0.01615955 -0.01944452 0.03852222
v 0.01353181 -0.02546095 0.0282679
v 0.01448856 -0.02876008 0.04118435
v 0.01607191 0.002905169 -0.04898155
v 0.01353182 -0.005244212 -0.05099647
v 0.01507016 -0.02765392 0.04536837
v 0.0157663 -0.02442192 0.04670837
v 0.01615955 -0.01577202 0.04670837
v 0.01408238 -0.01577201 0.05099656
v 0.01225595 0.03372477 -0.05099645
v 0.01225595 0.01548712 0.02051827
v 0.01096482 0.01548712 0.02051827
v 0.01096482 0.03372477 -0.05099645
v 0.01225595 0.0232112 0.04223739
v 0.01225595 0.02101702 0.05099657
v 0.01096482 0.02101702 0.05099657
v 0.01096482 0.0232112 0.04223739
v 0.01096482 0.0229202 0.03934639
v 0.01225595 0.0229202 0.03934639
v 0.01096482 0.01741754 0.03203414
v 0.01225595 0.01741754 0.03203414
v 0.01225595 0.01554858 0.0255366
v 0.01096482 0.01554858 0.0255366
v 0.01225595 0.01548712 0.02051827
v 0.01096482 0.01548712 0.02051827
v 0.01408237 0.02979219 -0.05099646
v 0.01225595 0.03372477 -0.05099645
v 0.01096482 0.03372477 -0.05099645
v 0.01096482 0.02876719 -0.05099646
v 0.01300549 0.0265322 -0.05099646
v 0.01353182 -0.005244212 -0.05099647
v 0.01618663 0.02066775 -0.04911888
v 0.01607191 0.002905169 -0.04898155
v 0.0130055 -0.005244212 -0.05099646
v 0.01096482 0.02876719 -0.05099646
v 0.01096482 0.002138486 0.05099657
v 0.0130055 -9.652138E-05 0.05099657
v 0.01300549 0.0265322 -0.05099646
v 0.01300549 0.0265322 -0.05099646
v 0.0130055 -0.02876008 0.04118435
v 0.0130055 -0.005244212 -0.05099646
v 0.0130055 -0.02442192 0.04670837
v 0.0130055 -0.01577201 0.04670837
v 0.0130055 -9.652138E-05 0.05099657
v 0.0130055 -0.01577202 0.05099656
v 0.0130055 -0.02765393 0.04536938
v 0.01096482 0.01741754 0.03203414
v 0.01096482 0.002138486 0.05099657
v 0.01096482 0.01554858 0.0255366
v 0.01096482 0.01548712 0.02051827
v 0.01096482 0.02876719 -0.05099646
v 0.01096482 0.03372477 -0.05099645
v 0.01096482 0.0229202 0.03934639
v 0.01096482 0.0232112 0.04223739
v 0.01096482 0.02101702 0.05099657
v 0.0130055 -0.02876008 0.04118435
v 0.01448856 -0.02876008 0.04118435
v 0.01353181 -0.02546095 0.0282679
v 0.01353182 -0.005244212 -0.05099647
v 0.0130055 -0.005244212 -0.05099646
v 0.01507016 -0.02765392 0.04536837
v 0.0130055 -0.02765393 0.04536938
v 0.0157663 -0.02442192 0.04670837
v 0.0130055 -0.02442192 0.04670837
v 0.0130055 -0.01577201 0.04670837
v 0.01615955 -0.01577202 0.04670837
v 0.01408238 -0.003209586 0.05099657
v 0.01408238 -0.01577201 0.05099656
v 0.0130055 -0.01577202 0.05099656
v 0.0130055 -9.652138E-05 0.05099657
v 0.01408237 0.01826684 0.05099657
v 0.01225595 0.02101702 0.05099657
v 0.01096482 0.02101702 0.05099657
v 0.01096482 0.002138486 0.05099657
v 0.01615955 -0.01577202 0.04670837
v 0.0130055 -0.01577201 0.04670837
v 0.0130055 -0.01577202 0.05099656
v 0.01408238 -0.01577201 0.05099656
vt 0.03255141 0.008323141
vt 0.005161881 0.005740172
vt 0.06724453 0.4699306
vt 0.09226263 0.4883331
vt 0.07433593 0.02245177
vt 0.1350369 0.4719989
vt 0.06348538 0.5014552
vt 0.07732987 0.5610215
vt 0.0474354 0.541604
vt 0.02882779 0.6060566
vt 0.006728292 0.5895192
vt 0.004546046 0.6038084
vt 0.01231158 0.66181
vt 0.03293204 0.6562768
vt 0.0283643 0.6620022
vt 0.1155668 0.5553831
vt 0.1760337 0.673347
vt 0.3462336 0.7004838
vt 0.2571834 0.550373
vt 0.1974193 0.6563075
vt 0.2910937 0.5820181
vt 0.3051916 0.5520391
vt 0.3269032 0.5884665
vt 0.3377088 0.5627742
vt 0.3273361 0.534808
vt 0.3528656 0.5917184
vt 0.3613981 0.6819494
vt 0.3363483 0.6779798
vt 0.2171209 0.04008044
vt 0.1739655 0.0370583
vt 0.301308 0.6690372
vt 0.3567076 0.6954371
vt 0.2570591 0.03341383
vt 0.3316298 0.4977483
vt 0.339819 0.4977481
vt 0.3398186 0.02966565
vt 0.3316293 0.02966589
vt 0.7778912 0.1636039
vt 0.7860804 0.1636039
vt 0.7860814 0.1063342
vt 0.7778908 0.1063688
vt 0.7778909 0.1776275
vt 0.7860801 0.1776272
vt 0.7778912 0.2399303
vt 0.78608 0.2399302
vt 0.7778913 0.2828104
vt 0.7860801 0.2828101
vt 0.7778909 0.3146404
vt 0.7860802 0.3146402
vt 0.9961559 0.4759877
vt 0.9918234 0.4759891
vt 0.9918327 0.5049064
vt 0.9951109 0.5049055
vt 0.9985847 0.4450424
vt 0.9918129 0.4450445
vt 0.9952723 0.9997379
vt 0.9919941 0.9997389
vt 0.9985561 0.3576488
vt 0.9917843 0.3576508
vt 0.9981076 0.3444775
vt 0.9917802 0.3444811
vt 0.9962813 0.3337737
vt 0.9918038 0.3337642
vt 0.9969665 0.01751441
vt 0.9924924 0.01964122
vt 0.987662 0.005263865
vt 0.9794845 0.01725101
vt 0.9794781 0.005408466
vt 0.6196443 0.2725191
vt 0.626454 0.2935487
vt 0.622928 0.07276779
vt 0.6196443 0.07286838
vt 0.6437782 0.1516338
vt 0.6405865 0.2525545
vt 0.6064819 0.2887691
vt 0.6183294 0.3194631
vt 0.610176 0.3205385
vt 0.6397554 0.1081736
vt 0.565599 0.5678711
vt 0.59841 0.5018078
vt 0.5960261 0.03373037
vt 0.5655987 0.04165511
vt 0.6068088 0.53251
vt 0.628666 0.5694013
vt 0.5958126 0.5787589
vt 0.6147086 0.5867882
vt 0.6693402 0.6830849
vt 0.6764875 0.6093361
vt 0.6805345 0.6227626
vt 0.6810696 0.6800299
vt 0.5729299 0.5823725
vt 0.7610205 0.01124477
vt 0.7807842 0.03474891
vt 0.7724135 0.04500473
vt 0.7574874 0.02728707
vt 0.7422034 0.02177042
vt 0.7455657 0.00282824
vt 0.7862369 0.06018555
vt 0.7946057 0.04992867
vt 0.8685594 0.134216
vt 0.8769289 0.1239608
vt 0.219378 0.002827406
vt 0.2160155 0.02177
vt 0.8920789 0.4690544
vt 0.9369441 0.3495645
vt 0.9083405 0.4565222
vt 0.8614528 0.471325
vt 0.6264651 0.4547782
vt 0.6155185 0.3495649
vt 0.6043321 0.3681359
vt 0.6058592 0.3547495
vt 0.6461898 0.4795481
vt 0.6598256 0.5058083
vt 0.8538705 0.4872062
vt 0.7849634 0.9964336
vt 0.9864989 0.9964339
vt 0.006278634 0.6941295
vt 0.5095 0.7627093
vt 0.4669614 0.728054
vt 0.003623247 0.6667985
vt 0.0246824 0.7517263
vt 0.5195432 0.7979336
vt 0.4983186 0.7247642
vt 0.5574942 0.7385089
vt 0.5379526 0.7094386
vt 0.5801044 0.6699099
vt 0.6010224 0.6878915
vt 0.5981132 0.6654398
vt 0.6550745 0.6708032
vt 0.6573586 0.6917147
vt 0.5522879 0.7771546
vt 0.6743283 0.8266017
vt 0.6553214 0.8579005
vt 0.5529401 0.9336706
vt 0.607576 0.9406528
vt 0.5457959 0.9887323
vt 0.6319071 0.9980304
vt 0.03863049 0.8632116
vt 0.03151405 0.9182068
vt 0.6573563 0.9871418
vt 0.6631464 0.9652823
vt 0.6584005 0.9107294
vt 0.6902963 0.9044679
vt 0.01401532 0.5693902
vt 0.01401532 0.1013069
vt 0.005826712 0.1013069
vt 0.005827188 0.5693902
vt 0.7499492 0.2485231
vt 0.7499492 0.3057926
vt 0.7581379 0.3057926
vt 0.758138 0.2485231
vt 0.758138 0.2300949
vt 0.7499492 0.2300949
vt 0.758138 0.1720539
vt 0.7499492 0.1720539
vt 0.7499492 0.129174
vt 0.758138 0.129174
vt 0.7499493 0.0973438
vt 0.758138 0.0973438
vt 0.6744984 0.2906163
vt 0.6864998 0.3168229
vt 0.6949837 0.3168191
vt 0.6949837 0.2837752
vt 0.6815747 0.2688843
vt 0.6781163 0.05708433
vt 0.6585722 0.2297724
vt 0.6591727 0.1113757
vt 0.6815748 0.05708266
vt 0.3477673 0.02675563
vt 0.3477673 0.5660707
vt 0.3629798 0.5689591
vt 0.3629798 0.02964413
vt 0.3674631 0.02397643
vt 0.5590798 0.6691161
vt 0.5624615 0.06576391
vt 0.5236082 0.6960643
vt 0.4705268 0.6822056
vt 0.3674625 0.6834056
vt 0.4636567 0.7085205
vt 0.5455867 0.6930256
vt 0.9127325 0.1447999
vt 0.9761633 0.003978223
vt 0.9345987 0.1816862
vt 0.943005 0.2123861
vt 0.975924 0.6725312
vt 0.9454981 0.6804636
vt 0.8672627 0.1087275
vt 0.8608509 0.09145021
vt 0.8603027 0.03418323
vt 0.986519 0.7681843
vt 0.9771129 0.7682015
vt 0.9829099 0.6836394
vt 0.9812448 0.1648308
vt 0.9845829 0.1648196
vt 0.9734394 0.7956455
vt 0.9865345 0.795646
vt 0.9690241 0.8178349
vt 0.9865345 0.8178351
vt 0.9865345 0.8726959
vt 0.9665303 0.8726962
vt 0.7030889 0.2188461
vt 0.7031022 0.2985207
vt 0.7099322 0.2985196
vt 0.7099153 0.199101
vt 0.7030662 0.08263622
vt 0.7146471 0.06519194
vt 0.722836 0.06519045
vt 0.7228558 0.1849238
vt 0.7593068 0.07270234
vt 0.7593068 0.05269843
vt 0.7321098 0.05269843
vt 0.7321098 0.05952831
vn -0.9210286 0.3778909 0.09436545
vn -0.8822091 0.4568581 0.1139642
vn -0.8893719 0.4505868 0.07739059
vn -0.9359052 0.3521938 -0.006413494
vn -0.9863694 0.1596206 0.03995879
vn -0.9920465 0.1258372 0.002968307
vn -0.9043485 0.4229321 -0.05729217
vn -0.9662564 0.2548232 -0.03759883
vn -0.9131849 0.3713871 -0.167824
vn -0.9528973 0.3005855 -0.04043569
vn -0.8983451 0.40767 -0.1636497
vn -0.8401592 0.5404447 0.04529931
vn -0.8185679 0.5610183 0.1233091
vn -0.9395427 0.2250301 0.2581105
vn -0.8542112 0.4287746 0.2940673
vn -0.9799714 0.1861512 0.07073876
vn -0.8904942 0.0813932 0.4476551
vn -0.8256267 -0.07412388 0.5593266
vn -0.9994603 -0.02616638 -0.01986022
vn -0.946404 0.07799876 0.3134256
vn -0.997976 -0.04518048 -0.04475132
vn -0.964869 -0.2211573 -0.1418353
vn -0.9474588 -0.2658387 -0.1779093
vn -0.8509248 -0.4004226 -0.3399836
vn -0.9057054 -0.3936295 -0.1573326
vn -0.8905795 -0.4069341 -0.2031571
vn -0.9110936 -0.4120354 -0.01163484
vn -0.9518233 -0.185799 0.2439491
vn -0.9729785 -0.2226172 -0.06127384
vn -0.9998092 -0.01865031 -0.005817418
vn -0.9548716 -0.02312673 0.2961175
vn -0.9067324 -0.2845534 0.3112325
vn -0.9161401 -0.3867587 -0.1053816
vn 0 0.9689901 0.2470994
vn 0 0.9689901 0.2470994
vn 0 0.9689788 0.2471442
vn 0 0.9689788 0.2471442
vn 0.004327276 0.9946773 0.1029486
vn 0.004327276 0.9946773 0.1029486
vn 0.008535348 0.9702879 0.2418031
vn 0.008535348 0.9702879 0.2418031
vn 0 0.9463307 -0.3232001
vn 0 0.9463307 -0.3232001
vn 0 0.9003755 -0.4351137
vn 0 0.9003755 -0.4351137
vn 0 0.9893503 -0.145554
vn 0 0.9893503 -0.145554
vn 0 0.9999253 -0.01223085
vn 0 0.9999253 -0.01223085
vn 0 -0.8369147 -0.5473335
vn 0 -0.8387883 -0.5444578
vn 0 -0.9343569 -0.3563383
vn 0 -0.9339018 -0.3575296
vn 0 -0.8978435 -0.4403148
vn 0 -0.895469 -0.4451239
vn 0 -0.9689662 -0.2471932
vn 0 -0.9689662 -0.2471932
vn -0.0003337872 -0.997547 -0.06999995
vn -0.0003337868 -0.9976888 -0.06794946
vn -0.0003576277 -0.8462901 0.5327222
vn -0.0002980241 -0.8278154 0.5610005
vn 5.960449E-05 -0.2561324 0.9666417
vn 5.960583E-05 -0.2438593 0.9698107
vn 0 0 1
vn 0 0 1
vn 0 0 1
vn 0 0 1
vn 0 0 1
vn 0 0 -1
vn -0.07442358 -0.001215955 -0.9972259
vn -0.1396066 -0.002300749 -0.9902043
vn 0 0 -1
vn -0.6427671 -0.01017455 -0.7659941
vn -0.6428254 -0.01018049 -0.7659451
vn 0 0 -1
vn 0 0 -1
vn 0 0 -1
vn -0.6427609 -0.01005208 -0.7660009
vn 1 0 0
vn 1 0 0
vn 1 0 0
vn 1 0 0
vn 1 0 0
vn 1 0 0
vn 1 0 0
vn 1 0 0
vn 1 0 0
vn 1 0 0
vn 1 0 0
vn 1 0 0
vn 1 0 0
vn 0.5414399 -0.5979693 0.5909955
vn 0.07678287 -0.3313667 0.9403725
vn 0.08502029 -0.3890286 0.917294
vn 0.3443327 -0.3999313 0.8494056
vn 0.7095478 -0.703766 0.03542911
vn 0.7110486 -0.7026563 0.02615456
vn 0.1574401 -0.8326432 0.5309595
vn 0.1531596 -0.8100839 0.5659561
vn 0.1795286 -0.950381 0.254058
vn 0.1795286 -0.950381 0.254058
vn 0.7256191 -0.665883 -0.1734267
vn 0.7256191 -0.665883 -0.1734267
vn 1 0 0
vn 1 0 0
vn 1 0 0
vn 1 0 0
vn 1 0 0
vn 1 0 0
vn 1 0 0
vn 1 0 0
vn 1 0 0
vn 1 0 0
vn 1 0 0
vn 1 0 0
vn 1 0 0
vn 0.9172332 0.3873353 0.09303103
vn 0.9457369 0.3245837 -0.01506809
vn 0.8857565 0.4556395 0.08847671
vn 0.8742008 0.4713489 0.1166332
vn 0.9888415 0.1455784 0.03161432
vn 0.9940012 0.109127 -0.007271755
vn 0.9229404 0.3827088 -0.04141323
vn 0.9702318 0.239086 -0.0385761
vn 0.9318846 0.3255612 -0.160003
vn 0.9132285 0.3677137 -0.1755003
vn 0.9569062 0.2885107 -0.03304486
vn 0.8549746 0.5177054 0.0316145
vn 0.8423395 0.5252165 0.1208792
vn 0.968935 0.2410178 0.05545627
vn 0.9774393 0.2027441 0.05922285
vn 0.9534933 0.1413461 0.2662176
vn 0.9593719 0.05970594 0.2757547
vn 0.9900013 -0.1335865 -0.04529971
vn 0.9929432 -0.1111867 -0.04124647
vn 0.9604682 -0.2636907 -0.08926382
vn 0.9719532 -0.2163181 -0.09226838
vn 0.9902762 -0.1346773 -0.03485696
vn 0.9556134 -0.285362 -0.07328957
vn 0.9786001 -0.1918553 -0.07438653
vn 0.9905375 -0.1331096 -0.03342641
vn 0.9893396 -0.02676243 0.1431462
vn 0.886131 -0.03572705 0.4620556
vn 0 0.9689901 0.2470994
vn 0 0.9689788 0.2471442
vn 0 0.9689788 0.2471442
vn 0 0.9689901 0.2470994
vn 0 0.9973735 0.07243135
vn 0 0.97004 0.2429451
vn 0 0.97004 0.2429451
vn 0 0.9973735 0.07243135
vn 0 0.9313279 -0.3641818
vn 0 0.9313279 -0.3641818
vn 0 0.8948869 -0.4462931
vn 0 0.8948869 -0.4462931
vn 0 0.9893503 -0.145554
vn 0 0.9893503 -0.145554
vn 0 0.9999253 -0.01223085
vn 0 0.9999253 -0.01223085
vn 0.06804433 -0.001215929 -0.9976815
vn 0 0 -1
vn 0 0 -1
vn 0 0 -1
vn 0 0 -1
vn 0.1247739 -0.001817906 -0.9921835
vn 0.6410762 -0.009941939 -0.7674128
vn 0.6410748 -0.01017437 -0.767411
vn 0 0 -1
vn -0.727322 -0.6640109 -0.1734711
vn -0.7272719 -0.6640776 -0.1734256
vn -0.7272848 -0.6640635 -0.1734259
vn -0.7273514 -0.6640158 -0.1733293
vn -1 0 0
vn -1 0 0
vn -1 0 0
vn -1 0 0
vn -1 0 0
vn -1 0 0
vn -1 0 0
vn -1 0 0
vn -1 0 0
vn -1 0 0
vn -1 0 0
vn -1 0 0
vn -1 0 0
vn -1 0 0
vn -1 0 0
vn -1 0 0
vn -1 0 0
vn 9.536673E-05 -0.9999917 0.004100769
vn 5.960455E-05 -0.9997829 0.02083775
vn 0.003874286 -0.9689529 -0.2472152
vn 0.004029278 -0.968958 -0.2471927
vn 0.004029278 -0.968958 -0.2471927
vn 0.0001549708 -0.7185637 0.6954612
vn 0.0001549709 -0.7529916 0.6580302
vn 9.536894E-05 -0.179389 0.9837782
vn 9.536667E-05 -0.1952633 0.9807508
vn 0 0 1
vn 0 0 1
vn 0 0 1
vn 0 0 1
vn 0 0 1
vn 0 0 1
vn 0 0 1
vn 0 0 1
vn 0 0 1
vn 0 0 1
vn 0 -1 0
vn 0 -1 0
vn 0 -1 0
vn 0 -1 0
g pistolgrip_m9_beretta_m9a3_std_LOD1_0
f 3/3/3 2/2/2 1/1/1
f 4/4/4 3/3/3 1/1/1
f 1/1/1 5/5/5 4/4/4
f 5/5/5 6/6/6 4/4/4
f 3/3/3 4/4/4 7/7/7
f 7/7/7 4/4/4 8/8/8
f 9/9/9 7/7/7 8/8/8
f 8/8/8 10/10/10 9/9/9
f 10/10/10 11/11/11 9/9/9
f 11/11/11 10/10/10 12/12/12
f 13/13/13 12/12/12 10/10/10
f 14/14/14 13/13/13 10/10/10
f 14/14/14 15/15/15 13/13/13
f 4/4/4 16/16/16 8/8/8
f 6/6/6 16/16/16 4/4/4
f 16/16/16 17/17/17 8/8/8
f 8/8/8 17/17/17 10/10/10
f 10/10/10 17/17/17 14/14/14
f 14/14/14 17/17/17 15/15/15
f 17/17/17 18/18/18 15/15/15
f 19/19/19 16/16/16 6/6/6
f 16/16/16 19/19/19 20/20/20
f 20/20/20 17/17/17 16/16/16
f 19/19/19 21/21/21 20/20/20
f 19/19/19 22/22/22 21/21/21
f 22/22/22 23/23/23 21/21/21
f 22/22/22 24/24/24 23/23/23
f 25/25/25 24/24/24 22/22/22
f 24/24/24 26/26/26 23/23/23
f 23/23/23 26/26/26 27/27/27
f 28/28/28 23/23/23 27/27/27
f 21/21/21 23/23/23 28/28/28
f 29/29/29 22/22/22 19/19/19
f 30/30/30 29/29/29 19/19/19
f 31/31/31 28/28/28 18/18/18
f 20/20/20 21/21/21 31/31/31
f 31/31/31 21/21/21 28/28/28
f 17/17/17 20/20/20 31/31/31
f 18/18/18 17/17/17 31/31/31
f 28/28/28 27/27/27 32/32/32
f 18/18/18 28/28/28 32/32/32
f 22/22/22 29/29/29 33/33/33
f 25/25/25 22/22/22 33/33/33
f 30/30/30 19/19/19 6/6/6
f 5/5/5 30/30/30 6/6/6
f 36/36/36 35/35/35 34/34/34
f 37/37/37 36/36/36 34/34/34
f 40/40/40 39/39/39 38/38/38
f 41/41/41 40/40/40 38/38/38
f 38/38/38 39/39/39 42/42/42
f 39/39/39 43/43/43 42/42/42
f 42/42/42 43/43/43 44/44/44
f 43/43/43 45/45/45 44/44/44
f 44/44/44 45/45/45 46/46/46
f 45/45/45 47/47/47 46/46/46
f 46/46/46 47/47/47 48/48/48
f 47/47/47 49/49/49 48/48/48
f 52/52/52 51/51/51 50/50/50
f 53/53/53 52/52/52 50/50/50
f 50/50/50 51/51/51 54/54/54
f 51/51/51 55/55/55 54/54/54
f 53/53/53 56/56/56 52/52/52
f 56/56/56 57/57/57 52/52/52
f 54/54/54 55/55/55 58/58/58
f 55/55/55 59/59/59 58/58/58
f 58/58/58 59/59/59 60/60/60
f 59/59/59 61/61/61 60/60/60
f 62/62/62 60/60/60 61/61/61
f 63/63/63 62/62/62 61/61/61
f 64/64/64 62/62/62 63/63/63
f 65/65/65 64/64/64 63/63/63
f 65/65/65 66/66/66 64/64/64
f 65/65/65 67/67/67 66/66/66
f 67/67/67 68/68/68 66/66/66
f 71/71/71 70/70/70 69/69/69
f 72/72/72 71/71/71 69/69/69
f 70/70/70 71/71/71 73/73/73
f 74/74/74 70/70/70 73/73/73
f 70/70/70 75/75/75 69/69/69
f 70/70/70 76/76/76 75/75/75
f 76/76/76 77/77/77 75/75/75
f 78/78/78 73/73/73 71/71/71
f 81/81/81 80/80/80 79/79/79
f 82/82/82 81/81/81 79/79/79
f 83/83/83 79/79/79 80/80/80
f 84/84/84 79/79/79 83/83/83
f 85/85/85 79/79/79 84/84/84
f 86/86/86 85/85/85 84/84/84
f 86/86/86 84/84/84 87/87/87
f 84/84/84 88/88/88 87/87/87
f 89/89/89 87/87/87 88/88/88
f 90/90/90 87/87/87 89/89/89
f 85/85/85 91/91/91 79/79/79
f 94/94/94 93/93/93 92/92/92
f 95/95/95 94/94/94 92/92/92
f 96/96/96 95/95/95 92/92/92
f 97/97/97 96/96/96 92/92/92
f 94/94/94 98/98/98 93/93/93
f 98/98/98 99/99/99 93/93/93
f 98/98/98 100/100/100 99/99/99
f 100/100/100 101/101/101 99/99/99
f 97/97/97 102/102/102 96/96/96
f 102/102/102 103/103/103 96/96/96
f 106/106/106 105/105/105 104/104/104
f 107/107/107 104/104/104 105/105/105
f 105/105/105 108/108/108 107/107/107
f 109/109/109 108/108/108 105/105/105
f 109/109/109 110/110/110 108/108/108
f 109/109/109 111/111/111 110/110/110
f 112/112/112 107/107/107 108/108/108
f 113/113/113 107/107/107 112/112/112
f 114/114/114 107/107/107 113/113/113
f 113/113/113 115/115/115 114/114/114
f 115/115/115 116/116/116 114/114/114
f 119/119/119 118/118/118 117/117/117
f 120/120/120 119/119/119 117/117/117
f 121/121/121 117/117/117 118/118/118
f 122/122/122 121/121/121 118/118/118
f 118/118/118 119/119/119 123/123/123
f 118/118/118 123/123/123 124/124/124
f 123/123/123 125/125/125 124/124/124
f 124/124/124 125/125/125 126/126/126
f 127/127/127 124/124/124 126/126/126
f 127/127/127 126/126/126 128/128/128
f 128/128/128 129/129/129 127/127/127
f 129/129/129 130/130/130 127/127/127
f 131/131/131 122/122/122 118/118/118
f 124/124/124 131/131/131 118/118/118
f 124/124/124 132/132/132 131/131/131
f 124/124/124 127/127/127 132/132/132
f 130/130/130 132/132/132 127/127/127
f 132/132/132 133/133/133 131/131/131
f 131/131/131 134/134/134 122/122/122
f 134/134/134 131/131/131 135/135/135
f 131/131/131 133/133/133 135/135/135
f 134/134/134 135/135/135 136/136/136
f 135/135/135 137/137/137 136/136/136
f 134/134/134 136/136/136 138/138/138
f 136/136/136 139/139/139 138/138/138
f 135/135/135 140/140/140 137/137/137
f 141/141/141 140/140/140 135/135/135
f 142/142/142 141/141/141 135/135/135
f 133/133/133 142/142/142 135/135/135
f 143/143/143 142/142/142 133/133/133
f 132/132/132 143/143/143 133/133/133
f 134/134/134 138/138/138 122/122/122
f 138/138/138 121/121/121 122/122/122
f 146/146/146 145/145/145 144/144/144
f 147/147/147 146/146/146 144/144/144
f 150/150/150 149/149/149 148/148/148
f 151/151/151 150/150/150 148/148/148
f 152/152/152 151/151/151 148/148/148
f 153/153/153 152/152/152 148/148/148
f 154/154/154 152/152/152 153/153/153
f 155/155/155 154/154/154 153/153/153
f 154/154/154 155/155/155 156/156/156
f 157/157/157 154/154/154 156/156/156
f 157/157/157 156/156/156 158/158/158
f 159/159/159 157/157/157 158/158/158
f 162/162/162 161/161/161 160/160/160
f 163/163/163 162/162/162 160/160/160
f 163/163/163 160/160/160 164/164/164
f 160/160/160 165/165/165 164/164/164
f 165/165/165 160/160/160 166/166/166
f 167/167/167 165/165/165 166/166/166
f 165/165/165 168/168/168 164/164/164
f 171/171/171 170/170/170 169/169/169
f 172/172/172 171/171/171 169/169/169
f 175/175/175 174/174/174 173/173/173
f 173/173/173 174/174/174 176/176/176
f 177/177/177 173/173/173 176/176/176
f 178/178/178 173/173/173 177/177/177
f 178/178/178 177/177/177 179/179/179
f 174/174/174 180/180/180 176/176/176
f 183/183/183 182/182/182 181/181/181
f 182/182/182 183/183/183 184/184/184
f 185/185/185 182/182/182 184/184/184
f 186/186/186 185/185/185 184/184/184
f 182/182/182 187/187/187 181/181/181
f 182/182/182 188/188/188 187/187/187
f 182/182/182 189/189/189 188/188/188
f 192/192/192 191/191/191 190/190/190
f 192/192/192 190/190/190 193/193/193
f 190/190/190 194/194/194 193/193/193
f 191/191/191 195/195/195 190/190/190
f 195/195/195 196/196/196 190/190/190
f 195/195/195 197/197/197 196/196/196
f 197/197/197 198/198/198 196/196/196
f 199/199/199 198/198/198 197/197/197
f 197/197/197 200/200/200 199/199/199
f 203/203/203 202/202/202 201/201/201
f 204/204/204 203/203/203 201/201/201
f 201/201/201 205/205/205 204/204/204
f 205/205/205 206/206/206 204/204/204
f 204/204/204 206/206/206 207/207/207
f 208/208/208 204/204/204 207/207/207
f 211/211/211 210/210/210 209/209/209
f 212/212/212 211/211/211 209/209/209
