g pistolgrip_ak_molot_bakelit_LOD1
v 0.01168521 3.919602E-06 1.844168E-05
v 0.01374871 0.05244182 -0.002274258
v 0.01095851 0.05189982 -0.01022376
v 0.01095851 0.06719082 -0.08775825
v 3.249667E-05 0.07195082 -0.08768526
v 0.01095851 0.06773682 -0.09383026
v -0.01089039 0.06773682 -0.09383026
v -0.01089039 0.06719082 -0.08775825
v -0.01089039 0.06351181 -0.09701926
v 0.01095851 0.06351181 -0.09701926
v -0.01089039 0.06351181 -0.09701926
v 3.249772E-05 0.03539782 -0.1054063
v 0.01095851 0.06351181 -0.09701926
v -0.01055529 0.03644382 -0.1050783
v 0.01062342 0.03644382 -0.1050783
v 0.01062342 0.03644382 -0.1050783
v 3.249772E-05 0.03539782 -0.1054063
v 3.249667E-05 0.02856282 -0.1028443
v 0.01095851 0.03148282 -0.09496526
v 3.249772E-05 0.02708581 -0.09515225
v 3.249772E-05 0.02927882 -0.08765225
v 0.01095851 0.03650782 -0.08767826
v -0.01162019 3.919602E-06 1.844168E-05
v -0.01089349 0.05189982 -0.01022376
v -0.01368369 0.05244182 -0.002274258
v -0.01055529 0.03644382 -0.1050783
v 3.249667E-05 0.02856282 -0.1028443
v 3.249772E-05 0.03539782 -0.1054063
v -0.01089349 0.03148282 -0.09496526
v 3.249772E-05 0.02708581 -0.09515225
v 3.249772E-05 0.02927882 -0.08765225
v -0.01089349 0.03650782 -0.08767826
v 0.01095851 0.01494202 -0.02445906
v 3.249667E-05 0.009777121 -0.02948896
v 0.01095851 -4.081726E-06 -0.02293566
v 3.249667E-05 -4.081726E-06 -0.02788426
v -0.01089349 0.03650782 -0.08767826
v -0.01089349 0.01494202 -0.02445906
v 3.249772E-05 0.02927882 -0.08765225
v 3.249667E-05 0.009777121 -0.02948896
v -0.01368369 0.05244182 -0.002274258
v -0.01089349 0.05189982 -0.01022376
v 3.249667E-05 0.05833982 -0.002578058
v 3.249667E-05 0.05800382 -0.01022376
v 3.249667E-05 0.05055282 -0.02016946
v -0.01089349 0.04498282 -0.02016946
v -0.01089349 0.01494202 -0.02445906
v -0.01089029 -4.081726E-06 -0.02293566
v 3.249667E-05 0.009777121 -0.02948896
v 3.249667E-05 -4.081726E-06 -0.02788426
v 3.249667E-05 0.07195082 -0.08768526
v 3.249667E-05 0.05055282 -0.02016946
v -0.01089039 0.06719082 -0.08775825
v -0.01089349 0.04498282 -0.02016946
v 0.01374871 0.05244182 -0.002274258
v 3.249667E-05 0.05833982 -0.002578058
v 0.01095851 0.05189982 -0.01022376
v 3.249667E-05 0.05800382 -0.01022376
v 3.249667E-05 0.05055282 -0.02016946
v 0.01095851 0.04498282 -0.02016946
v 3.249667E-05 0.07195082 -0.08768526
v 0.01095851 0.06719082 -0.08775825
v 3.249667E-05 0.05055282 -0.02016946
v 0.01095851 0.04498282 -0.02016946
v 0.01095851 0.03650782 -0.08767826
v 3.249772E-05 0.02927882 -0.08765225
v 0.01095851 0.01494202 -0.02445906
v 3.249667E-05 0.009777121 -0.02948896
v 0.01095851 0.01494202 -0.02445906
v 0.01095851 -4.081726E-06 -0.02293566
v 0.01168521 3.919602E-06 1.844168E-05
v 0.01095851 0.04498282 -0.02016946
v 0.01095851 0.05189982 -0.01022376
v 0.01095851 0.03650782 -0.08767826
v 0.01095851 0.06719082 -0.08775825
v 0.01095851 0.06773682 -0.09383026
v 0.01095851 0.03148282 -0.09496526
v 0.01095851 0.06351181 -0.09701926
v 0.01062342 0.03644382 -0.1050783
v -0.01089349 0.01494202 -0.02445906
v -0.01162019 3.919602E-06 1.844168E-05
v -0.01089029 -4.081726E-06 -0.02293566
v -0.01089349 0.04498282 -0.02016946
v -0.01089349 0.05189982 -0.01022376
v -0.01089349 0.03650782 -0.08767826
v -0.01089039 0.06719082 -0.08775825
v -0.01089039 0.06773682 -0.09383026
v -0.01089349 0.03148282 -0.09496526
v -0.01089039 0.06351181 -0.09701926
v -0.01055529 0.03644382 -0.1050783
v 0.01168521 3.919602E-06 1.844168E-05
v 3.249667E-05 -4.081726E-06 -0.02788426
v -0.01162019 3.919602E-06 1.844168E-05
v 0.01095851 -4.081726E-06 -0.02293566
v -0.01089029 -4.081726E-06 -0.02293566
v 0.01168521 3.919602E-06 1.844168E-05
v 3.249667E-05 0.05833982 -0.002578058
v 0.01374871 0.05244182 -0.002274258
v -0.01162019 3.919602E-06 1.844168E-05
v -0.01368369 0.05244182 -0.002274258
vt 0.448741 0.0278736
vt 0.0244766 0.0278736
vt 0.0244766 0.110555
vt 0.753989 0.0285
vt 0.615425 0.0285
vt 0.753989 0.0839839
vt 0.476935 0.0839839
vt 0.476935 0.0285
vt 0.476935 0.127551
vt 0.753989 0.127551
vt 0.576022 0.777202
vt 0.311898 0.877766
vt 0.576022 0.972323
vt 0.311898 0.777202
vt 0.311898 0.972323
vt 0.846241 0.973187
vt 0.980481 0.973187
vt 0.980481 0.912283
vt 0.846241 0.844313
vt 0.980481 0.844313
vt 0.980481 0.770239
vt 0.846241 0.770239
vt 1.44874 0.0278736
vt 1.02448 0.110555
vt 1.02448 0.0278736
vt 1.84624 0.973187
vt 1.98048 0.912283
vt 1.98048 0.973187
vt 1.84624 0.844313
vt 1.98048 0.844313
vt 1.98048 0.770239
vt 1.84624 0.770239
vt 0.47882 0.251257
vt 0.626509 0.251257
vt 0.47882 0.139596
vt 0.626509 0.139596
vt 1.98139 0.138541
vt 1.98139 0.752967
vt 1.82562 0.138541
vt 1.82562 0.752967
vt 1.7707 0.0285
vt 1.85821 0.0285
vt 1.7707 0.127418
vt 1.85821 0.127418
vt 1.98377 0.127418
vt 1.98377 0.0285
vt 1.47882 0.251257
vt 1.47882 0.139596
vt 1.62651 0.251257
vt 1.62651 0.139596
vt 1.81052 0.138541
vt 1.81052 0.755485
vt 1.64862 0.138541
vt 1.64862 0.755485
vt 0.7707 0.0285
vt 0.7707 0.127418
vt 0.85821 0.0285
vt 0.85821 0.127418
vt 0.983767 0.127418
vt 0.983767 0.0285
vt 0.810515 0.138541
vt 0.648624 0.138541
vt 0.810515 0.755485
vt 0.648624 0.755485
vt 0.981385 0.138541
vt 0.825624 0.138541
vt 0.981385 0.752967
vt 0.825624 0.752967
vt 0.290452 0.248616
vt 0.457498 0.248616
vt 0.457498 0.0453883
vt 0.0332339 0.210945
vt 0.0332339 0.12807
vt 0.290452 0.815537
vt 0.0332339 0.884406
vt 0.0332339 0.937561
vt 0.290452 0.88081
vt 0.0332339 0.9715
vt 0.290452 0.9715
vt 1.29045 0.248616
vt 1.4575 0.0453883
vt 1.4575 0.248616
vt 1.03323 0.210945
vt 1.03323 0.12807
vt 1.29045 0.815537
vt 1.03323 0.884406
vt 1.03323 0.937561
vt 1.29045 0.88081
vt 1.03323 0.9715
vt 1.29045 0.9715
vt 0.827715 0.774686
vt 0.597927 0.873107
vt 0.827715 0.9715
vt 0.597927 0.774686
vt 0.597927 0.9715
vt 0.631803 0.268137
vt 0.471991 0.761482
vt 0.631803 0.761482
vt 0.312179 0.268137
vt 0.312179 0.761482
vn 0.9434078 -0.05144858 -0.3276196
vn 0.9434078 -0.05144858 -0.3276196
vn 0.9434078 -0.05144858 -0.3276196
vn 0.398512 0.9134775 0.08214033
vn -3.21858E-05 0.9246228 -0.380884
vn 0.1530949 0.8441285 -0.513818
vn -0.153117 0.8441103 -0.5138415
vn -0.3986079 0.913436 0.0821366
vn 0 0.6024451 -0.7981604
vn 0 0.6024451 -0.7981603
vn -0.0003319164 0.2857529 -0.9583032
vn -2.006023E-07 0.2854657 -0.958389
vn 0.0003319086 0.2857529 -0.9583032
vn -0.001501797 0.2853352 -0.9584267
vn 0.001501353 0.2853352 -0.9584267
vn 0.3803761 -0.6867552 -0.6194202
vn 0.06353565 -0.3502788 -0.9344881
vn 0.3420438 -0.763726 -0.5474748
vn 0.4828379 -0.8731628 0.06673907
vn 0.3724588 -0.9272011 0.03965523
vn 0.4092076 -0.839063 0.3585002
vn 0.4792436 -0.7225426 0.4982547
vn -0.9434078 -0.05144858 -0.3276196
vn -0.9434078 -0.05144858 -0.3276196
vn -0.9434078 -0.05144858 -0.3276196
vn -0.380408 -0.6866686 -0.6194966
vn -0.3420853 -0.7637066 -0.5474758
vn -0.06355435 -0.3502784 -0.9344869
vn -0.4828623 -0.8731496 0.06673676
vn -0.3724594 -0.9272009 0.03965528
vn -0.4092083 -0.8390627 0.3585002
vn -0.4792443 -0.7225423 0.4982545
vn 0.4514355 -0.09048034 -0.8877046
vn 0.4325814 -0.1158408 -0.8941221
vn 0.4329104 -0.1154043 -0.8940192
vn 0.4080434 -0.1478043 -0.9009186
vn -0.5302629 -0.8024294 -0.2737306
vn -0.5139071 -0.8131354 -0.2733316
vn -0.5281375 -0.8038455 -0.2736844
vn -0.5110425 -0.8149658 -0.2732516
vn -0.3908779 0.8987894 -0.1984745
vn -0.4180748 0.8369483 -0.353173
vn -0.4541356 0.8856367 -0.09699845
vn -0.4689914 0.8394812 -0.2744419
vn -0.3973846 0.7439024 -0.537303
vn -0.386077 0.75732 -0.5266982
vn -0.4514686 -0.09057433 -0.887678
vn -0.432971 -0.1154553 -0.8939832
vn -0.432646 -0.1158863 -0.8940849
vn -0.4081438 -0.1477971 -0.9008744
vn -0.3852206 0.8797001 0.2788062
vn -0.4309464 0.8575913 0.2807534
vn -0.3904687 0.8773013 0.2790638
vn -0.4358906 0.8550332 0.2809227
vn 0.3908774 0.8987896 -0.1984743
vn 0.4541349 0.885637 -0.0969983
vn 0.418074 0.8369485 -0.3531729
vn 0.4689907 0.8394815 -0.2744421
vn 0.397384 0.7439027 -0.5373032
vn 0.3860764 0.7573203 -0.5266982
vn 0.3851269 0.8797374 0.278818
vn 0.3903846 0.8773347 0.2790765
vn 0.4309333 0.857592 0.2807714
vn 0.4358875 0.8550287 0.2809412
vn 0.5302621 -0.8024298 -0.2737308
vn 0.5281367 -0.8038459 -0.2736846
vn 0.5139064 -0.8131359 -0.2733318
vn 0.5110418 -0.8149661 -0.2732517
vn 0.999811 0.001105484 -0.01941279
vn 0.9994941 -0.003225117 -0.03164169
vn 0.9996605 0.002448841 -0.02593872
vn 0.9999548 0.005858435 -0.007483706
vn 0.9998876 0.01231157 -0.008562407
vn 1 0 0
vn 1 0 0
vn 1 0 0
vn 0.9998504 -0.00110691 -0.01726053
vn 0.9999906 -0.000278454 -0.004342056
vn 0.9994129 -0.002192637 -0.03419075
vn -0.9998104 0.001056358 -0.01944276
vn -0.9996593 0.00235793 -0.02599416
vn -0.9994889 -0.003453342 -0.03178081
vn -0.9999548 0.005869423 -0.007485086
vn -0.9998876 0.01231157 -0.008562407
vn -1 8.316131E-05 -3.337632E-05
vn -1 0.0001010531 -2.560713E-07
vn -1 9.620017E-05 -3.508483E-05
vn -0.9998475 -0.001023368 -0.01742839
vn -0.99999 -0.0001904519 -0.00447934
vn -0.9994038 -0.002113076 -0.03445878
vn -3.78758E-05 -1 0.0003025759
vn 0 -1 0.0003305561
vn 3.78784E-05 -1 0.0003025769
vn -0.0001601751 -1 0.0003536504
vn 0.0001602333 -1 0.0003536746
vn -0.0004826892 0.04436921 0.9990151
vn 0 0.04392061 0.999035
vn -0.00328946 0.04380942 0.9990345
vn 0.0004826895 0.04436921 0.9990151
vn 0.003289465 0.04380942 0.9990345
g pistolgrip_ak_molot_bakelit_LOD1_0
f 3/3/3 2/2/2 1/1/1
f 6/6/6 5/5/5 4/4/4
f 5/5/5 6/6/6 7/7/7
f 5/5/5 7/7/7 8/8/8
f 6/6/6 9/9/9 7/7/7
f 9/9/9 6/6/6 10/10/10
f 13/13/13 12/12/12 11/11/11
f 11/11/11 12/12/12 14/14/14
f 12/12/12 13/13/13 15/15/15
f 18/18/18 17/17/17 16/16/16
f 19/19/19 18/18/18 16/16/16
f 18/18/18 19/19/19 20/20/20
f 19/19/19 21/21/21 20/20/20
f 21/21/21 19/19/19 22/22/22
f 25/25/25 24/24/24 23/23/23
f 28/28/28 27/27/27 26/26/26
f 27/27/27 29/29/29 26/26/26
f 29/29/29 27/27/27 30/30/30
f 31/31/31 29/29/29 30/30/30
f 29/29/29 31/31/31 32/32/32
f 35/35/35 34/34/34 33/33/33
f 34/34/34 35/35/35 36/36/36
f 39/39/39 38/38/38 37/37/37
f 38/38/38 39/39/39 40/40/40
f 43/43/43 42/42/42 41/41/41
f 42/42/42 43/43/43 44/44/44
f 45/45/45 42/42/42 44/44/44
f 42/42/42 45/45/45 46/46/46
f 49/49/49 48/48/48 47/47/47
f 48/48/48 49/49/49 50/50/50
f 53/53/53 52/52/52 51/51/51
f 52/52/52 53/53/53 54/54/54
f 57/57/57 56/56/56 55/55/55
f 56/56/56 57/57/57 58/58/58
f 57/57/57 59/59/59 58/58/58
f 59/59/59 57/57/57 60/60/60
f 63/63/63 62/62/62 61/61/61
f 62/62/62 63/63/63 64/64/64
f 67/67/67 66/66/66 65/65/65
f 66/66/66 67/67/67 68/68/68
f 71/71/71 70/70/70 69/69/69
f 72/72/72 71/71/71 69/69/69
f 73/73/73 71/71/71 72/72/72
f 74/74/74 72/72/72 69/69/69
f 72/72/72 74/74/74 75/75/75
f 74/74/74 76/76/76 75/75/75
f 76/76/76 74/74/74 77/77/77
f 76/76/76 77/77/77 78/78/78
f 79/79/79 78/78/78 77/77/77
f 82/82/82 81/81/81 80/80/80
f 81/81/81 83/83/83 80/80/80
f 81/81/81 84/84/84 83/83/83
f 83/83/83 85/85/85 80/80/80
f 85/85/85 83/83/83 86/86/86
f 87/87/87 85/85/85 86/86/86
f 85/85/85 87/87/87 88/88/88
f 88/88/88 87/87/87 89/89/89
f 89/89/89 90/90/90 88/88/88
f 93/93/93 92/92/92 91/91/91
f 94/94/94 91/91/91 92/92/92
f 95/95/95 92/92/92 93/93/93
f 98/98/98 97/97/97 96/96/96
f 99/99/99 96/96/96 97/97/97
f 97/97/97 100/100/100 99/99/99
