g pistolgrip_ar15_hk_grip_v2_LOD1
v -0.01169368 -4.058838E-05 -0.006825447
v -0.01169368 0.001734142 -0.002411346
v 0.01169581 0.001734142 -0.002411346
v 0.01169581 -4.058838E-05 -0.006825447
v 0.01169581 0.006638613 -0.0001059818
v -0.01169369 0.006638613 -0.0001059818
v -0.01169368 -4.058838E-05 -0.02752244
v 0.01169581 -4.058838E-05 -0.02752244
v 0.01169581 0.03178879 -0.0001059818
v -0.01169368 0.03178879 -0.0001059818
v 0.00935589 -4.057884E-05 -0.03318152
v -0.009353762 -4.057884E-05 -0.03318152
v 0.00935589 -4.057884E-05 -0.03318152
v 1.062979E-06 0.007262983 -0.03391341
v -0.009353762 -4.057884E-05 -0.03318152
v -0.01048518 0.01291586 -0.03043791
v 0.01048731 0.01291586 -0.03043791
v -0.01048518 0.01291586 -0.03043791
v -0.01169368 -4.058838E-05 -0.02752244
v -0.009353762 -4.057884E-05 -0.03318152
v -0.01169368 -4.058838E-05 -0.006825447
v -0.01169369 0.006638613 -0.0001059818
v -0.01169368 0.001734142 -0.002411346
v -0.01147279 0.02393018 -0.01931194
v -0.01785516 0.03772697 -0.0603798
v -0.01326489 0.01905141 -0.06702849
v 3.634025E-06 0.01348935 -0.0691743
v 1.062979E-06 0.007262983 -0.03391341
v -0.01411251 0.03220361 -0.1008132
v 1.055528E-06 0.02395732 -0.1028619
v -0.01836061 0.04908289 -0.09559199
v -0.01157525 0.05476099 -0.05453299
v -0.01142917 0.06672899 -0.08902226
v 1.070131E-06 0.07021431 -0.0876717
v 3.652205E-06 0.05989341 -0.05260102
v -0.007783535 0.04172426 -0.0178587
v 1.062979E-06 0.04569911 -0.01848766
v -0.01169368 0.03178879 -0.0001059818
v -0.007712047 0.04153993 -0.002634353
v -0.007652351 0.04599977 0.005781364
v 1.062979E-06 0.04496868 -0.004009209
v 1.062979E-06 0.04811717 0.003299408
v 1.063277E-06 0.05487048 0.00867031
v -0.007445922 0.05444814 0.01190144
v -0.01079601 0.05371543 0.01750713
v -0.01115756 0.03961569 0.007720985
v -0.01169368 0.03949818 0.01399887
v -0.01169368 0.0507256 0.01966428
v -0.01169368 0.03355283 0.006343384
v 1.068343E-06 0.06531326 -0.0955729
v -0.006507391 0.06369989 -0.0962668
v -0.01175833 0.05143435 -0.1006838
v -0.009902637 0.03726519 -0.104305
v 1.057018E-06 0.02890031 -0.105339
v 0.01079814 0.05371549 0.01750714
v 0.01115969 0.03961569 0.007720985
v 0.01169581 0.03949818 0.01399887
v 0.01169581 0.0507256 0.01966428
v 0.007654476 0.04599978 0.005781364
v 0.00744805 0.05444816 0.01190144
v 0.01169581 0.03178879 -0.0001059818
v 0.01169581 0.03355283 0.006343384
v 0.007714174 0.04153993 -0.002634353
v 0.007785662 0.04172426 -0.0178587
v 0.01147491 0.02393018 -0.01931194
v 0.01169581 0.006638613 -0.0001059818
v 0.01048731 0.01291586 -0.03043791
v 0.01327216 0.01905143 -0.06702849
v 1.062979E-06 0.007262983 -0.03391341
v 3.634025E-06 0.01348935 -0.0691743
v 0.01782157 0.03785124 -0.06033526
v 0.01836274 0.04908291 -0.09559199
v 0.01158255 0.05476099 -0.05453299
v 3.652205E-06 0.05989341 -0.05260102
v 1.062979E-06 0.04569911 -0.01848766
v 0.01143131 0.06672899 -0.08902226
v 0.01176046 0.05143435 -0.1006838
v 0.01411463 0.03220361 -0.1008132
v 0.009904757 0.03726519 -0.104305
v 0.006509528 0.06369989 -0.0962668
v 1.070131E-06 0.07021431 -0.0876717
v 1.068343E-06 0.06531326 -0.0955729
v 1.055528E-06 0.02395732 -0.1028619
v 1.057018E-06 0.02890031 -0.105339
v 1.062979E-06 0.04496868 -0.004009209
v 1.062979E-06 0.04811717 0.003299408
v 1.063277E-06 0.05487048 0.00867031
v 0.00935589 -4.057884E-05 -0.03318152
v 0.01169581 -4.058838E-05 -0.02752244
v 0.01169581 -4.058838E-05 -0.006825447
v 0.01169581 0.001734142 -0.002411346
v -0.007445922 0.05444814 0.01190144
v 1.063277E-06 0.05487048 0.00867031
v 0.00744805 0.05444816 0.01190144
v 0.01079814 0.05371549 0.01750714
v -0.01079601 0.05371543 0.01750713
v 0.01169581 0.0507256 0.01966428
v -0.01169368 0.0507256 0.01966428
v -0.01169368 0.03355283 0.006343384
v 0.01169581 0.03355283 0.006343384
v 0.01169581 0.03178879 -0.0001059818
v -0.01169368 0.03178879 -0.0001059818
v -0.01169368 0.03949818 0.01399887
v 0.01169581 0.03949818 0.01399887
v -0.01169368 0.0507256 0.01966428
v 0.01169581 0.0507256 0.01966428
v 1.068343E-06 0.06531326 -0.0955729
v -0.006507391 0.06369989 -0.0962668
v -0.009902637 0.03726519 -0.104305
v 1.057018E-06 0.02890031 -0.105339
v -0.01175833 0.05143435 -0.1006838
v 1.068343E-06 0.06531326 -0.0955729
v 1.057018E-06 0.02890031 -0.105339
v 0.009904757 0.03726519 -0.104305
v 0.006509528 0.06369989 -0.0962668
v 0.01176046 0.05143435 -0.1006838
vt 0.8492122 0.5304946
vt 0.8492122 0.5931289
vt 0.9959335 0.593129
vt 0.9959334 0.5304947
vt 0.9959336 0.6644775
vt 0.8492122 0.6644776
vt 0.8492122 0.2580081
vt 0.9959334 0.2580082
vt 0.9959335 0.9955919
vt 0.8492122 0.9955919
vt 0.9812554 0.1835034
vt 0.8638904 0.1835034
vt 0.8553339 0.001412012
vt 0.9140164 0.09804855
vt 0.9726989 0.001412012
vt 0.9826447 0.1751585
vt 0.8453878 0.1751585
vt 0.5039403 0.7772071
vt 0.5363803 0.9381791
vt 0.5067903 0.9459229
vt 0.6629995 0.8854973
vt 0.6968138 0.7835482
vt 0.6881678 0.8524792
vt 0.5587155 0.5982474
vt 0.2892482 0.5375703
vt 0.2716143 0.8039719
vt 0.2627155 0.9920116
vt 0.4942423 0.9451768
vt 0.05191904 0.7231017
vt 0.02918965 0.9313692
vt 0.06089836 0.4998912
vt 0.2999427 0.2881533
vt 0.07449216 0.2553929
vt 0.06563124 0.102114
vt 0.3077426 0.1218118
vt 0.5486608 0.3486723
vt 0.5420554 0.230513
vt 0.6697019 0.4577887
vt 0.6477933 0.3231314
vt 0.7041594 0.2631885
vt 0.6292537 0.2164044
vt 0.6724679 0.1756324
vt 0.7114107 0.1018637
vt 0.750901 0.1626393
vt 0.7888576 0.1906409
vt 0.7174069 0.3588513
vt 0.757132 0.3685844
vt 0.8007864 0.2334207
vt 0.7084962 0.4379244
vt 0.009082109 0.1752445
vt 0.0182443 0.2680578
vt 0.01209107 0.4731192
vt 0.008643299 0.6923003
vt -0.0001890361 0.8788723
vt 0.7888435 0.1906787
vt 0.7174002 0.3589021
vt 0.7571256 0.3686278
vt 0.8007742 0.233457
vt 0.7041484 0.2632431
vt 0.7508858 0.1626851
vt 0.6697 0.4578442
vt 0.7084932 0.4379752
vt 0.6477848 0.3231978
vt 0.5486509 0.348763
vt 0.5587222 0.5983155
vt 0.6968244 0.7835916
vt 0.5039477 0.7772609
vt 0.271611 0.8039178
vt 0.4942406 0.9452279
vt 0.2627067 0.9919577
vt 0.289363 0.5359411
vt 0.06089753 0.4998904
vt 0.2999519 0.2883
vt 0.3077596 0.1219597
vt 0.5420475 0.2306055
vt 0.07449296 0.2554166
vt 0.01209125 0.4731286
vt 0.05193558 0.7230992
vt 0.008657038 0.6923072
vt 0.01824525 0.2680717
vt 0.06564355 0.1021328
vt 0.009088963 0.1752545
vt 0.02920008 0.9313656
vt -0.0001766384 0.8788717
vt 0.6292415 0.2164765
vt 0.6724535 0.1756942
vt 0.7113929 0.101918
vt 0.5068036 0.945981
vt 0.5363932 0.9382327
vt 0.6630127 0.8855441
vt 0.6881802 0.8525229
vt 0.7314036 0.1237215
vt 0.7781184 0.1666232
vt 0.8248331 0.1237216
vt 0.8458477 0.04929198
vt 0.7103885 0.04929204
vt 0.8514789 0.0007531419
vt 0.7047573 0.0007537082
vt 0.7000854 0.5373949
vt 0.8468069 0.5373949
vt 0.8468071 0.449366
vt 0.7000856 0.449366
vt 0.7000856 0.6650076
vt 0.8468072 0.6650075
vt 0.7000855 0.8305748
vt 0.846807 0.8305748
vt 0.4607919 0.003557034
vt 0.4716477 0.08933518
vt 0.6449205 0.1348471
vt 0.6972822 0.003555514
vt 0.5532019 0.1596218
vt 0.4607919 0.003557034
vt 0.6972822 0.003555514
vt 0.6449207 0.1348471
vt 0.4716477 0.08933518
vt 0.5532019 0.1596221
vn 0 -0.9817883 0.1899785
vn 0 -0.7270122 0.6866246
vn 0 -0.7270121 0.6866246
vn 0 -0.9817883 0.1899785
vn 0 -0.2179392 0.9759623
vn 0 -0.2179392 0.9759623
vn 0 -1 -7.224519E-07
vn 0 -1 -7.224519E-07
vn 0 0 1
vn 0 0 1
vn 0 -1 -1.68521E-06
vn 0 -1 -1.68521E-06
vn 0.1346105 0.07339197 -0.9881769
vn 0 0.06079555 -0.9981502
vn -0.1346105 0.07339197 -0.9881769
vn -0.2185198 0.1838563 -0.9583559
vn 0.2185198 0.1838563 -0.9583559
vn -0.9522534 -0.300685 -0.05293208
vn -0.9845834 0.05443057 -0.1662316
vn -0.9241188 0.0002147641 -0.3821053
vn -0.9995567 0.008260764 -0.02860061
vn -0.9995986 -0.007246914 -0.02739149
vn -1 -2.997033E-07 1.204985E-07
vn -0.9979984 0.0552181 0.03082217
vn -0.9962727 0.02902384 0.08123046
vn -0.781996 -0.6110952 -0.122658
vn 1.983413E-05 -0.9704983 -0.2411078
vn -2.187398E-05 -0.9885898 -0.1506321
vn -0.7363824 -0.4125053 -0.5362651
vn -1.30684E-05 -0.7690625 -0.6391736
vn -0.9202648 0.1701731 -0.3523544
vn -0.742276 0.6187674 0.2572028
vn -0.6481643 0.7451323 -0.1570385
vn -1.010399E-05 0.9965186 -0.08337126
vn 1.59393E-05 0.9395254 0.3424792
vn -0.7846528 0.6044091 0.1378752
vn -1.084694E-05 0.9736381 0.2280982
vn -0.9761045 0.1989962 -0.08729587
vn -0.768584 0.6124447 -0.1849058
vn -0.6894343 0.5346364 -0.488717
vn -1.415405E-07 0.9804888 -0.1965751
vn -3.992316E-07 0.7813672 -0.6240716
vn 0 0.6064841 -0.7950956
vn -0.6721151 0.4473636 -0.5900229
vn -0.9323038 0.2159026 -0.2901647
vn -0.9556382 0.22215 -0.1934038
vn -0.9879249 0.09793539 -0.1200539
vn -0.9865906 0.09503633 -0.1326919
vn -0.9944776 0.0970278 -0.04000018
vn 0 0.8597771 -0.5106696
vn -0.4224493 0.6944251 -0.5825036
vn -0.6540816 0.3105127 -0.689753
vn -0.5462329 -0.1146255 -0.8297533
vn 0 -0.3874561 -0.9218882
vn 0.9323035 0.2159027 -0.2901656
vn 0.9556383 0.2221498 -0.1934038
vn 0.9879251 0.09793491 -0.1200533
vn 0.9865907 0.09503575 -0.1326913
vn 0.6894338 0.5346364 -0.4887178
vn 0.672115 0.4473632 -0.5900234
vn 0.9761045 0.1989962 -0.08729593
vn 0.9944776 0.09702758 -0.04000009
vn 0.768584 0.6124445 -0.184906
vn 0.784651 0.6044009 0.1379215
vn 0.9979924 0.05536975 0.03074783
vn 0.9995986 -0.007246891 -0.02739156
vn 0.9525015 -0.2998938 -0.05295936
vn 0.7825654 -0.6104255 -0.1223601
vn -2.187398E-05 -0.9885898 -0.1506321
vn 1.983413E-05 -0.9704983 -0.2411078
vn 0.9961915 0.03048382 0.08168964
vn 0.9203354 0.1702988 -0.3521096
vn 0.7422693 0.6187866 0.2571759
vn 1.59393E-05 0.9395254 0.3424792
vn -1.084694E-05 0.9736381 0.2280982
vn 0.6481003 0.7451771 -0.1570897
vn 0.6540813 0.3105122 -0.6897534
vn 0.7367616 -0.4121749 -0.5359984
vn 0.5462327 -0.1146258 -0.8297534
vn 0.4224491 0.6944249 -0.5825039
vn -1.010399E-05 0.9965186 -0.08337126
vn 0 0.8597771 -0.5106696
vn -1.30684E-05 -0.7690625 -0.6391736
vn 0 -0.3874561 -0.9218882
vn -1.415405E-07 0.9804888 -0.1965751
vn -3.992316E-07 0.7813672 -0.6240716
vn 0 0.6064841 -0.7950956
vn 0.9241188 0.0002147641 -0.3821053
vn 0.9845834 0.05443057 -0.1662316
vn 0.9995567 0.008260773 -0.02860068
vn 1 -1.431764E-07 -2.124993E-07
vn -2.549239E-06 0.9915661 0.1296024
vn -1.987712E-06 0.9915658 0.1296042
vn -2.549239E-06 0.9915661 0.1296024
vn -1.762974E-06 0.7931321 0.6090497
vn -1.762972E-06 0.7931315 0.6090503
vn -1.040008E-06 0.5850977 0.8109628
vn -1.040008E-06 0.5850977 0.8109628
vn 0 -0.8944243 0.4472193
vn 0 -0.8944243 0.4472193
vn 0 -0.9645692 0.2638304
vn 0 -0.9645692 0.2638304
vn 0 -0.6356898 0.7719446
vn 0 -0.6356898 0.7719446
vn 0 -0.450499 0.892777
vn 0 -0.450499 0.892777
vn 0 0.2680475 -0.9634057
vn 0.100404 0.2668851 -0.9584839
vn 0.09917793 0.2668955 -0.9586087
vn 0 0.2680475 -0.9634057
vn 0.1772296 0.2654127 -0.9477056
vn 0 0.2680475 -0.9634057
vn 0 0.2680475 -0.9634057
vn -0.09917793 0.2668956 -0.9586086
vn -0.100404 0.2668852 -0.9584839
vn -0.1772295 0.2654129 -0.9477056
g pistolgrip_ar15_hk_grip_v2_LOD1_0
f 3/3/3 2/2/2 1/1/1
f 4/4/4 3/3/3 1/1/1
f 3/3/3 5/5/5 2/2/2
f 5/5/5 6/6/6 2/2/2
f 4/4/4 1/1/1 7/7/7
f 8/8/8 4/4/4 7/7/7
f 5/5/5 9/9/9 6/6/6
f 9/9/9 10/10/10 6/6/6
f 8/8/8 7/7/7 11/11/11
f 7/7/7 12/12/12 11/11/11
f 15/15/15 14/14/14 13/13/13
f 15/15/15 16/16/16 14/14/14
f 14/14/14 17/17/17 13/13/13
f 20/20/20 19/19/19 18/18/18
f 18/18/18 19/19/19 21/21/21
f 18/18/18 21/21/21 22/22/22
f 22/22/22 21/21/21 23/23/23
f 24/24/24 18/18/18 22/22/22
f 24/24/24 25/25/25 18/18/18
f 25/25/25 26/26/26 18/18/18
f 26/26/26 27/27/27 18/18/18
f 27/27/27 28/28/28 18/18/18
f 26/26/26 29/29/29 27/27/27
f 29/29/29 30/30/30 27/27/27
f 31/31/31 29/29/29 26/26/26
f 25/25/25 31/31/31 26/26/26
f 25/25/25 32/32/32 31/31/31
f 32/32/32 25/25/25 24/24/24
f 32/32/32 33/33/33 31/31/31
f 34/34/34 33/33/33 32/32/32
f 35/35/35 34/34/34 32/32/32
f 35/35/35 32/32/32 36/36/36
f 36/36/36 32/32/32 24/24/24
f 37/37/37 35/35/35 36/36/36
f 36/36/36 24/24/24 38/38/38
f 39/39/39 36/36/36 38/38/38
f 40/40/40 39/39/39 38/38/38
f 39/39/39 40/40/40 41/41/41
f 36/36/36 39/39/39 41/41/41
f 37/37/37 36/36/36 41/41/41
f 40/40/40 42/42/42 41/41/41
f 43/43/43 42/42/42 40/40/40
f 44/44/44 43/43/43 40/40/40
f 45/45/45 44/44/44 40/40/40
f 46/46/46 45/45/45 40/40/40
f 46/46/46 40/40/40 38/38/38
f 46/46/46 47/47/47 45/45/45
f 47/47/47 48/48/48 45/45/45
f 47/47/47 46/46/46 49/49/49
f 49/49/49 46/46/46 38/38/38
f 34/34/34 50/50/50 33/33/33
f 50/50/50 51/51/51 33/33/33
f 33/33/33 51/51/51 52/52/52
f 31/31/31 33/33/33 52/52/52
f 31/31/31 52/52/52 29/29/29
f 52/52/52 53/53/53 29/29/29
f 29/29/29 53/53/53 30/30/30
f 53/53/53 54/54/54 30/30/30
f 24/24/24 22/22/22 38/38/38
f 57/57/57 56/56/56 55/55/55
f 58/58/58 57/57/57 55/55/55
f 55/55/55 56/56/56 59/59/59
f 60/60/60 55/55/55 59/59/59
f 59/59/59 56/56/56 61/61/61
f 61/61/61 56/56/56 62/62/62
f 62/62/62 56/56/56 57/57/57
f 63/63/63 59/59/59 61/61/61
f 64/64/64 63/63/63 61/61/61
f 65/65/65 64/64/64 61/61/61
f 66/66/66 65/65/65 61/61/61
f 67/67/67 65/65/65 66/66/66
f 65/65/65 67/67/67 68/68/68
f 68/68/68 67/67/67 69/69/69
f 70/70/70 68/68/68 69/69/69
f 71/71/71 65/65/65 68/68/68
f 72/72/72 71/71/71 68/68/68
f 73/73/73 71/71/71 72/72/72
f 73/73/73 64/64/64 65/65/65
f 71/71/71 73/73/73 65/65/65
f 73/73/73 74/74/74 64/64/64
f 74/74/74 75/75/75 64/64/64
f 74/74/74 73/73/73 76/76/76
f 76/76/76 73/73/73 72/72/72
f 76/76/76 72/72/72 77/77/77
f 77/77/77 72/72/72 78/78/78
f 78/78/78 72/72/72 68/68/68
f 78/78/78 68/68/68 70/70/70
f 79/79/79 77/77/77 78/78/78
f 80/80/80 76/76/76 77/77/77
f 76/76/76 80/80/80 81/81/81
f 81/81/81 74/74/74 76/76/76
f 80/80/80 82/82/82 81/81/81
f 83/83/83 78/78/78 70/70/70
f 79/79/79 78/78/78 83/83/83
f 84/84/84 79/79/79 83/83/83
f 64/64/64 75/75/75 85/85/85
f 63/63/63 64/64/64 85/85/85
f 85/85/85 86/86/86 63/63/63
f 86/86/86 59/59/59 63/63/63
f 86/86/86 87/87/87 59/59/59
f 87/87/87 60/60/60 59/59/59
f 89/89/89 88/88/88 67/67/67
f 89/89/89 67/67/67 90/90/90
f 90/90/90 67/67/67 66/66/66
f 91/91/91 90/90/90 66/66/66
f 94/94/94 93/93/93 92/92/92
f 94/94/94 92/92/92 95/95/95
f 92/92/92 96/96/96 95/95/95
f 97/97/97 95/95/95 96/96/96
f 98/98/98 97/97/97 96/96/96
f 101/101/101 100/100/100 99/99/99
f 102/102/102 101/101/101 99/99/99
f 99/99/99 100/100/100 103/103/103
f 100/100/100 104/104/104 103/103/103
f 103/103/103 104/104/104 105/105/105
f 104/104/104 106/106/106 105/105/105
f 109/109/109 108/108/108 107/107/107
f 110/110/110 109/109/109 107/107/107
f 109/109/109 111/111/111 108/108/108
f 114/114/114 113/113/113 112/112/112
f 115/115/115 114/114/114 112/112/112
f 115/115/115 116/116/116 114/114/114
