g pistolgrip_ar15_hk_battle_grip_beavertail_LOD1
v -0.01270236 0.03822863 -0.03096671
v -0.009041276 0.06255978 -0.05883904
v -0.007540556 0.04394411 -0.0283399
v -1.759101E-05 0.06661951 -0.05883905
v -1.759101E-05 0.04574381 -0.02770267
v -1.759101E-05 0.07996535 -0.1049127
v -0.009412859 0.07614724 -0.1049127
v -0.01657323 0.06446281 -0.1049127
v -0.01270236 0.007190745 -0.03260157
v -0.01663737 0.04453074 -0.1049128
v -0.00895554 0.02624727 -0.1049128
v -1.759101E-05 0.002037871 -0.03316612
v -1.759101E-05 0.02273579 -0.1049128
v -0.01270236 0.007190745 -0.03260157
v -0.01270236 0.02893401 0.0003602171
v -0.01270236 0.007572324 0.0006056738
v -0.01270236 0.03822863 -0.03096671
v -0.007540556 0.04394411 -0.0283399
v -0.008521378 0.03896717 -0.0108117
v -0.008781076 0.0402806 0.002776914
v -0.01270236 0.0326241 0.009278293
v -0.009225355 0.0506388 0.009855142
v -0.01270236 0.03996333 0.01632664
v -0.01270236 0.04825479 0.01943262
v -1.759101E-05 0.05226454 0.006401944
v -1.759101E-05 0.04474167 0.001391616
v -1.759101E-05 0.0421084 -0.01092383
v -1.759101E-05 0.04574381 -0.02770267
v -0.01270236 -0.002263002 0.0007186842
v -0.01270236 -0.002262993 -0.03260157
v -0.01270236 -0.002262993 -0.03260157
v -1.759101E-05 -0.002262993 -0.03260157
v -1.759101E-05 0.002037871 -0.03316612
v -0.01270236 0.007190745 -0.03260157
v -0.01270236 -0.002263002 0.0007186842
v -1.759101E-05 -0.002263002 0.0007186842
v -1.759101E-05 -0.002262993 -0.03260157
v -0.01270236 -0.002262993 -0.03260157
v -0.01270236 0.02893401 0.0003602171
v -1.759101E-05 0.02893401 0.0003602171
v -1.759101E-05 -0.002263002 0.0007186842
v -0.01270236 0.007572324 0.0006056738
v -0.01270236 -0.002263002 0.0007186842
v -0.01270236 0.02893401 0.0003602171
v -0.01270236 0.0326241 0.009278293
v -1.759101E-05 0.0326241 0.009278293
v -1.759101E-05 0.02893401 0.0003602171
v -1.759101E-05 0.03996333 0.01632664
v -0.01270236 0.03996333 0.01632664
v -1.759101E-05 0.04825479 0.01943262
v -0.01270236 0.04825479 0.01943262
v -0.009225355 0.0506388 0.009855142
v -1.759101E-05 0.05226454 0.006401944
v -1.759101E-05 0.04825479 0.01943262
v -0.01270236 0.04825479 0.01943262
v -0.01657323 0.06446281 -0.1049127
v -1.759101E-05 0.07996535 -0.1049127
v -0.009412859 0.07614724 -0.1049127
v -0.01663737 0.04453074 -0.1049128
v -1.759101E-05 0.02273579 -0.1049128
v -0.00895554 0.02624727 -0.1049128
v 0.01660219 0.04453074 -0.1049128
v 0.01653805 0.06446281 -0.1049127
v 0.009377677 0.07614724 -0.1049127
v 0.008920358 0.02624727 -0.1049128
v 0.01266718 0.03822863 -0.03096671
v 0.007505374 0.04394411 -0.0283399
v 0.009006093 0.06255978 -0.05883904
v -1.759101E-05 0.06661951 -0.05883905
v -1.759101E-05 0.04574381 -0.02770267
v -1.759101E-05 0.07996535 -0.1049127
v 0.009377677 0.07614724 -0.1049127
v 0.01653805 0.06446281 -0.1049127
v 0.01266718 0.007190745 -0.03260157
v 0.01660219 0.04453074 -0.1049128
v 0.008920358 0.02624727 -0.1049128
v -1.759101E-05 0.002037871 -0.03316612
v -1.759101E-05 0.02273579 -0.1049128
v 0.01266718 0.007572324 0.0006056738
v 0.01266718 0.02893401 0.0003602171
v 0.01266718 0.007190745 -0.03260157
v 0.01266718 0.03822863 -0.03096671
v 0.007505374 0.04394411 -0.0283399
v 0.008486196 0.03896717 -0.0108117
v 0.008745894 0.0402806 0.002776914
v 0.01266718 0.0326241 0.009278293
v 0.009190173 0.0506388 0.009855142
v 0.01266718 0.03996333 0.01632664
v 0.01266718 0.04825479 0.01943262
v -1.759101E-05 0.05226454 0.006401944
v -1.759101E-05 0.04474167 0.001391616
v -1.759101E-05 0.0421084 -0.01092383
v -1.759101E-05 0.04574381 -0.02770267
v 0.01266718 -0.002263002 0.0007186842
v 0.01266718 -0.002262993 -0.03260157
v 0.01266718 -0.002262993 -0.03260157
v -1.759101E-05 0.002037871 -0.03316612
v -1.759101E-05 -0.002262993 -0.03260157
v 0.01266718 0.007190745 -0.03260157
v 0.01266718 -0.002263002 0.0007186842
v 0.01266718 -0.002262993 -0.03260157
v -1.759101E-05 -0.002262993 -0.03260157
v -1.759101E-05 -0.002263002 0.0007186842
v 0.01266718 0.02893401 0.0003602171
v 0.01266718 0.007572324 0.0006056738
v -1.759101E-05 -0.002263002 0.0007186842
v -1.759101E-05 0.02893401 0.0003602171
v 0.01266718 -0.002263002 0.0007186842
v 0.01266718 0.02893401 0.0003602171
v -1.759101E-05 0.02893401 0.0003602171
v -1.759101E-05 0.0326241 0.009278293
v 0.01266718 0.0326241 0.009278293
v -1.759101E-05 0.03996333 0.01632664
v 0.01266718 0.03996333 0.01632664
v -1.759101E-05 0.04825479 0.01943262
v 0.01266718 0.04825479 0.01943262
v 0.009190173 0.0506388 0.009855142
v 0.01266718 0.04825479 0.01943262
v -1.759101E-05 0.04825479 0.01943262
v -1.759101E-05 0.05226454 0.006401944
vt 1.760861 0.589316
vt 1.453469 0.440806
vt 1.772751 0.513819
vt 1.45179 0.350744
vt 1.787025 0.443232
vt 1.007807 0.333658
vt 1.013249 0.427334
vt 1.038878 0.551885
vt 1.82775 0.866992
vt 1.09112 0.727957
vt 1.139872 0.904048
vt 1.835792 0.992295
vt 1.14877 0.992294
vt 1.554261 0.007256
vt 1.751904 0.312765
vt 1.556312 0.312765
vt 1.839577 0.024918
vt 1.908037 0.054661
vt 1.859742 0.217663
vt 1.860535 0.348889
vt 1.770415 0.393558
vt 1.9255 0.448474
vt 1.810553 0.473765
vt 1.871245 0.527326
vt 1.996681 0.395807
vt 1.951426 0.330201
vt 1.942945 0.222086
vt 1.975911 0.070769
vt 1.466258 0.312765
vt 1.466258 0.006656
vt 1.45755 0.334351
vt 1.33595 0.334351
vt 1.33595 0.292765
vt 1.457818 0.24373
vt 1.994806 0.748583
vt 1.898875 0.748583
vt 1.898875 0.496593
vt 1.994806 0.496593
vt 1.846749 0.756778
vt 1.942676 0.756778
vt 1.942676 0.992727
vt 1.846749 0.9183406
vt 1.846749 0.992727
vt 1.099323 0.780505
vt 1.099323 0.852916
vt 1.004159 0.852916
vt 1.004159 0.780505
vt 1.004159 0.929256
vt 1.099323 0.929256
vt 1.004159 0.995687
vt 1.099323 0.995687
vt 1.8875 0.554038
vt 1.887846 0.645681
vt 1.771608 0.598662
vt 1.81526 0.490482
vt 0.338153 0.006263
vt 0.460505 0.139466
vt 0.430739 0.064289
vt 0.179392 0.004877
vt 0.004677 0.135486
vt 0.03325 0.064602
vt 0.177085 0.269129
vt 0.335846 0.270515
vt 0.429431 0.214112
vt 0.032008 0.206861
vt 0.760861 0.589316
vt 0.772751 0.513819
vt 0.453469 0.440806
vt 0.45179 0.350744
vt 0.787025 0.443232
vt 0.007807 0.333658
vt 0.013249 0.427334
vt 0.038878 0.551885
vt 0.82775 0.866992
vt 0.09112 0.727957
vt 0.139872 0.904048
vt 0.835792 0.992295
vt 0.14877 0.992294
vt 0.5563122 0.312765
vt 0.751904 0.312765
vt 0.554261 0.007256
vt 0.839577 0.024918
vt 0.908037 0.054661
vt 0.859742 0.217663
vt 0.860535 0.348889
vt 0.770415 0.393558
vt 0.9255 0.448474
vt 0.810553 0.473765
vt 0.871245 0.527326
vt 0.996681 0.395807
vt 0.951426 0.330201
vt 0.942945 0.222086
vt 0.975911 0.070769
vt 0.466258 0.312765
vt 0.466258 0.006656
vt 0.45755 0.334351
vt 0.33595 0.292765
vt 0.33595 0.334351
vt 0.457818 0.24373
vt 0.994806 0.748583
vt 0.994806 0.496593
vt 0.898875 0.496593
vt 0.898875 0.748583
vt 0.846749 0.756778
vt 0.8467491 0.9183406
vt 0.942676 0.992727
vt 0.942676 0.756778
vt 0.846749 0.992727
vt 0.099323 0.780505
vt 0.004159 0.780505
vt 0.004159 0.852916
vt 0.099323 0.852916
vt 0.004159 0.929256
vt 0.099323 0.929256
vt 0.004159 0.995687
vt 0.099323 0.995687
vt 0.8875 0.554038
vt 0.81526 0.490482
vt 0.771608 0.598662
vt 0.887846 0.645681
vn -0.9472834 0.2838374 0.1486284
vn -0.6680794 0.6699961 0.3236901
vn -0.5727338 0.7489959 0.3331384
vn 0 0.9144607 0.4046749
vn 0 0.9178331 0.3969666
vn 0 0.9593936 0.282071
vn -0.6126423 0.7573479 0.2260384
vn -0.9458902 0.3006753 0.1220092
vn -0.9558684 -0.2849343 -0.07161103
vn -0.9905686 -0.1360401 -0.01634389
vn -0.7095459 -0.6709328 -0.2153924
vn 0 -0.9615747 -0.2745431
vn 0 -0.9608172 -0.2771826
vn -0.9558684 -0.2849343 -0.07161103
vn -0.974252 0.2240822 -0.02490438
vn -1 0 0
vn -0.9472834 0.2838374 0.1486284
vn -0.5727338 0.7489959 0.3331384
vn -0.7036068 0.7094941 0.03944149
vn -0.8006594 0.5101067 -0.3142226
vn -0.9468363 0.2628435 -0.1855105
vn -0.7652367 0.344055 -0.5440946
vn -0.9443467 0.1660609 -0.2839596
vn -0.9424954 0.1172421 -0.3129801
vn 0 0.5530331 -0.8331593
vn 0 0.8220617 -0.5693984
vn 0 0.9988937 0.04702755
vn 0 0.9178331 0.3969666
vn -1 0 0
vn -1 0 0
vn -0.03520811 -0.02729311 -0.9990073
vn 0 -0.1301482 -0.9914945
vn 0 -0.08289628 -0.9965581
vn -0.0444622 0 -0.999011
vn 0 -1 -2.862146E-07
vn 0 -1 -2.862146E-07
vn 0 -1 -2.862146E-07
vn 0 -1 -2.862146E-07
vn 0 0.0114897 0.999934
vn 0 0.0114897 0.999934
vn 0 0.01148962 0.999934
vn 0 0.01148964 0.999934
vn 0 0.01148949 0.999934
vn 0 -0.9240222 0.3823386
vn 0 -0.8259172 0.5637915
vn 0 -0.8259172 0.5637915
vn 0 -0.9240222 0.3823386
vn 0 -0.5327116 0.8462968
vn 0 -0.5327116 0.8462968
vn 0 -0.3507943 0.9364526
vn 0 -0.3507943 0.9364526
vn -0.02926492 0.9630167 0.2678477
vn 0 0.9634293 0.2679624
vn 0 0.9634293 0.2679625
vn -0.02926492 0.9630167 0.2678477
vn 2.302776E-07 1.232359E-07 -1
vn 0 0 -1
vn 6.758401E-07 -4.141643E-07 -1
vn 1.623075E-07 1.680929E-07 -1
vn 0 1.008678E-07 -1
vn 0 0 -1
vn -1.623076E-07 1.680929E-07 -1
vn -2.302777E-07 1.232359E-07 -1
vn -6.758401E-07 -4.141643E-07 -1
vn 0 0 -1
vn 0.9472834 0.2838374 0.1486284
vn 0.5727338 0.7489959 0.3331384
vn 0.6680794 0.6699961 0.3236901
vn 0 0.9144607 0.4046749
vn 0 0.9178331 0.3969666
vn 0 0.9593936 0.282071
vn 0.6126423 0.7573479 0.2260384
vn 0.9458902 0.3006753 0.1220092
vn 0.9558684 -0.2849343 -0.07161103
vn 0.9905686 -0.1360401 -0.01634389
vn 0.7095459 -0.6709328 -0.2153924
vn 0 -0.9615747 -0.2745431
vn 0 -0.9608172 -0.2771826
vn 1 0 0
vn 0.974252 0.2240823 -0.02490438
vn 0.9558684 -0.2849343 -0.07161103
vn 0.9472834 0.2838374 0.1486284
vn 0.5727338 0.7489959 0.3331384
vn 0.7036068 0.7094941 0.0394415
vn 0.8006594 0.5101067 -0.3142226
vn 0.9468363 0.2628436 -0.1855105
vn 0.7652366 0.3440551 -0.5440947
vn 0.9443467 0.1660609 -0.2839596
vn 0.9424954 0.1172421 -0.3129801
vn 0 0.5530331 -0.8331593
vn 0 0.8220617 -0.5693984
vn 0 0.9988937 0.04702755
vn 0 0.9178331 0.3969666
vn 1 0 0
vn 1 0 0
vn 0.03520811 -0.02729311 -0.9990073
vn 0 -0.08289628 -0.9965581
vn 0 -0.1301482 -0.9914945
vn 0.0444622 0 -0.999011
vn 0 -1 -2.862146E-07
vn 0 -1 -2.862146E-07
vn 0 -1 -2.862146E-07
vn 0 -1 -2.862146E-07
vn 0 0.0114897 0.999934
vn 0 0.01148964 0.999934
vn 0 0.01148962 0.999934
vn 0 0.0114897 0.999934
vn 0 0.01148949 0.999934
vn 0 -0.9240222 0.3823386
vn 0 -0.9240222 0.3823386
vn 0 -0.8259172 0.5637915
vn 0 -0.8259172 0.5637915
vn 0 -0.5327116 0.8462968
vn 0 -0.5327116 0.8462968
vn 0 -0.3507943 0.9364526
vn 0 -0.3507943 0.9364526
vn 0.02926492 0.9630167 0.2678477
vn 0.02926492 0.9630167 0.2678477
vn 0 0.9634293 0.2679625
vn 0 0.9634293 0.2679624
g pistolgrip_ar15_hk_battle_grip_beavertail_LOD1_0
f 3/3/3 2/2/2 1/1/1
f 2/2/2 3/3/3 4/4/4
f 3/3/3 5/5/5 4/4/4
f 4/4/4 6/6/6 2/2/2
f 6/6/6 7/7/7 2/2/2
f 2/2/2 7/7/7 8/8/8
f 2/2/2 8/8/8 1/1/1
f 1/1/1 8/8/8 9/9/9
f 9/9/9 8/8/8 10/10/10
f 9/9/9 10/10/10 11/11/11
f 12/12/12 9/9/9 11/11/11
f 13/13/13 12/12/12 11/11/11
f 16/16/16 15/15/15 14/14/14
f 15/15/15 17/17/17 14/14/14
f 15/15/15 18/18/18 17/17/17
f 19/19/19 18/18/18 15/15/15
f 19/19/19 15/15/15 20/20/20
f 15/15/15 21/21/21 20/20/20
f 22/22/22 20/20/20 21/21/21
f 23/23/23 22/22/22 21/21/21
f 23/23/23 24/24/24 22/22/22
f 22/22/22 25/25/25 20/20/20
f 25/25/25 26/26/26 20/20/20
f 27/27/27 19/19/19 20/20/20
f 26/26/26 27/27/27 20/20/20
f 19/19/19 27/27/27 18/18/18
f 27/27/27 28/28/28 18/18/18
f 16/16/16 14/14/14 29/29/29
f 14/14/14 30/30/30 29/29/29
f 33/33/33 32/32/32 31/31/31
f 34/34/34 33/33/33 31/31/31
f 37/37/37 36/36/36 35/35/35
f 38/38/38 37/37/37 35/35/35
f 41/41/41 40/40/40 39/39/39
f 42/42/42 41/41/41 39/39/39
f 42/42/42 43/43/43 41/41/41
f 46/46/46 45/45/45 44/44/44
f 47/47/47 46/46/46 44/44/44
f 46/46/46 48/48/48 45/45/45
f 48/48/48 49/49/49 45/45/45
f 49/49/49 48/48/48 50/50/50
f 51/51/51 49/49/49 50/50/50
f 54/54/54 53/53/53 52/52/52
f 55/55/55 54/54/54 52/52/52
f 58/58/58 57/57/57 56/56/56
f 56/56/56 57/57/57 59/59/59
f 57/57/57 60/60/60 59/59/59
f 61/61/61 59/59/59 60/60/60
f 60/60/60 57/57/57 62/62/62
f 57/57/57 63/63/63 62/62/62
f 57/57/57 64/64/64 63/63/63
f 62/62/62 65/65/65 60/60/60
f 68/68/68 67/67/67 66/66/66
f 67/67/67 68/68/68 69/69/69
f 70/70/70 67/67/67 69/69/69
f 71/71/71 69/69/69 68/68/68
f 72/72/72 71/71/71 68/68/68
f 72/72/72 68/68/68 73/73/73
f 73/73/73 68/68/68 66/66/66
f 73/73/73 66/66/66 74/74/74
f 73/73/73 74/74/74 75/75/75
f 75/75/75 74/74/74 76/76/76
f 74/74/74 77/77/77 76/76/76
f 77/77/77 78/78/78 76/76/76
f 81/81/81 80/80/80 79/79/79
f 82/82/82 80/80/80 81/81/81
f 83/83/83 80/80/80 82/82/82
f 83/83/83 84/84/84 80/80/80
f 80/80/80 84/84/84 85/85/85
f 86/86/86 80/80/80 85/85/85
f 85/85/85 87/87/87 86/86/86
f 87/87/87 88/88/88 86/86/86
f 89/89/89 88/88/88 87/87/87
f 90/90/90 87/87/87 85/85/85
f 91/91/91 90/90/90 85/85/85
f 92/92/92 91/91/91 85/85/85
f 84/84/84 92/92/92 85/85/85
f 92/92/92 84/84/84 83/83/83
f 93/93/93 92/92/92 83/83/83
f 81/81/81 79/79/79 94/94/94
f 95/95/95 81/81/81 94/94/94
f 98/98/98 97/97/97 96/96/96
f 97/97/97 99/99/99 96/96/96
f 102/102/102 101/101/101 100/100/100
f 103/103/103 102/102/102 100/100/100
f 106/106/106 105/105/105 104/104/104
f 107/107/107 106/106/106 104/104/104
f 106/106/106 108/108/108 105/105/105
f 111/111/111 110/110/110 109/109/109
f 112/112/112 111/111/111 109/109/109
f 113/113/113 111/111/111 112/112/112
f 114/114/114 113/113/113 112/112/112
f 113/113/113 114/114/114 115/115/115
f 114/114/114 116/116/116 115/115/115
f 119/119/119 118/118/118 117/117/117
f 120/120/120 119/119/119 117/117/117
