g pistolgrip_ak_kgb_mg47_LOD1
v 0.01382928 0.05240283 -0.08332275
v 0.01382928 0.04096385 -0.1064537
v 0.01382928 0.03425988 -0.1008487
v 0.01382928 0.04708384 -0.08120476
v 0.01382928 0.06756785 -0.07361676
v 0.01382928 0.07938085 -0.08186276
v 0.01382928 0.08212785 -0.06902875
v 0.01382928 0.06795685 -0.06789576
v 0.01382928 0.04498085 -0.03204875
v 0.01382928 0.05258783 -0.02315576
v 0.01382928 0.04014285 -0.02911475
v 0.01382928 0.05292384 -0.01524177
v 0.01382928 0.02918986 -0.03309575
v 0.01382928 0.007610858 -0.02999377
v 0.01382928 0.06228385 -0.002109756
v 0.01382928 -0.0004531502 -0.0002437544
v 0.01382928 -0.001429131 -0.02981476
v 0.01382928 0.01487886 -0.03752777
v 0.01382928 0.02834285 -0.03854476
v 0.01382928 0.03544385 -0.08699375
v 0.01382928 0.06228385 -0.002109756
v 0.01382928 -0.0004531502 -0.0002437544
v -0.01383368 -0.0004531502 -0.0002437544
v -0.01383368 0.06228385 -0.002109756
v 0.01382928 -0.001429131 -0.02981476
v -0.01383368 -0.001429131 -0.02981476
v -0.01383368 -0.0004531502 -0.0002437544
v 0.01382928 -0.0004531502 -0.0002437544
v 0.01382928 0.07938085 -0.08186276
v -0.01383368 0.07938085 -0.08186276
v -0.01383368 0.04096385 -0.1064537
v 0.01382928 0.04096385 -0.1064537
v 0.01382928 0.03425988 -0.1008487
v -0.01383368 0.03425988 -0.1008487
v -0.01383368 0.03544385 -0.08699375
v 0.01382928 0.03544385 -0.08699375
v 0.01382928 0.01487886 -0.03752777
v -0.01383368 0.01487886 -0.03752777
v 0.01382928 0.007610858 -0.02999377
v -0.01383368 0.007610858 -0.02999377
v 0.01382928 -0.001429131 -0.02981476
v -0.01383368 -0.001429131 -0.02981476
v -0.01383368 0.05292384 -0.01524177
v -0.01383368 0.05258783 -0.02315576
v 0.01382928 0.05258783 -0.02315576
v 0.01382928 0.05292384 -0.01524177
v -0.01383368 0.06228385 -0.002109756
v 0.01382928 0.06228385 -0.002109756
v -0.01383368 0.08212785 -0.06902875
v 0.01382928 0.08212785 -0.06902875
v -0.01383368 0.04096385 -0.1064537
v -0.01383368 0.07938085 -0.08186276
v -0.01383368 0.06756785 -0.07361676
v -0.01383368 0.05240283 -0.08332275
v -0.01383368 0.08212785 -0.06902875
v -0.01383368 0.06795685 -0.06789675
v -0.01383368 0.03425988 -0.1008487
v -0.01383368 0.04708384 -0.08120476
v -0.01383368 0.03544385 -0.08699375
v -0.01383368 0.05258783 -0.02315576
v -0.01383368 0.04498085 -0.03204875
v -0.01383368 0.04014285 -0.02911475
v -0.01383368 0.05292384 -0.01524177
v -0.01383368 0.02918986 -0.03309575
v -0.01383368 0.007610858 -0.02999377
v -0.01383368 0.06228385 -0.002109756
v -0.01383368 -0.0004531502 -0.0002437544
v -0.01383368 -0.001429131 -0.02981476
v -0.01383368 0.01487886 -0.03752777
v -0.01383368 0.02834285 -0.03854476
v 0.01382928 0.08212785 -0.06902875
v -0.01383368 0.08212785 -0.06902875
v -0.01383368 0.07938085 -0.08186276
v 0.01382928 0.07938085 -0.08186276
v 0.01382928 0.03425988 -0.1008487
v 0.01382928 0.04096385 -0.1064537
v -0.01383368 0.04096385 -0.1064537
v -0.01383368 0.03425988 -0.1008487
v 0.01382928 0.05240283 -0.08332275
v 0.01382928 0.04708384 -0.08120476
v -0.01383368 0.04708384 -0.08120476
v -0.01383368 0.05240283 -0.08332275
v -0.01383368 0.02834285 -0.03854476
v 0.01382928 0.02834285 -0.03854476
v 0.01382928 0.02918986 -0.03309575
v -0.01383368 0.02918986 -0.03309575
v 0.01382928 0.06756785 -0.07361676
v -0.01383368 0.06756785 -0.07361676
v 0.01382928 0.06795685 -0.06789576
v -0.01383368 0.06795685 -0.06789675
v 0.01382928 0.04498085 -0.03204875
v -0.01383368 0.04498085 -0.03204875
v -0.01383368 0.04014285 -0.02911475
v 0.01382928 0.04014285 -0.02911475
v 0.01382928 0.02918986 -0.03309575
v -0.01383368 0.02918986 -0.03309575
vt 0.4315554 0.686123
vt 0.3703592 0.8229981
vt 0.3305111 0.7917733
vt 0.4004848 0.6749327
vt 0.5169908 0.6264711
vt 0.5868183 0.671976
vt 0.6000594 0.5968382
vt 0.518092 0.5930759
vt 0.378629 0.3891162
vt 0.4207295 0.3358746
vt 0.3501653 0.3730971
vt 0.4209867 0.2897408
vt 0.2878496 0.3986344
vt 0.1627416 0.385146
vt 0.4721898 0.2113785
vt 0.1099404 0.2139012
vt 0.1105683 0.3860367
vt 0.2062073 0.4273695
vt 0.2840732 0.4305598
vt 0.3345067 0.7109364
vt 0.008263428 0.6255508
vt 0.008263428 0.9907194
vt 0.1679232 0.9907194
vt 0.1679232 0.6255508
vt 0.1679243 0.4382419
vt 0.008263428 0.4382419
vt 0.008263428 0.6103813
vt 0.1679243 0.6103813
vt 0.9903337 0.180056
vt 0.8306742 0.180056
vt 0.8306742 0.4454381
vt 0.9903337 0.4454381
vt 0.524786 0.1730849
vt 0.5247862 0.01214025
vt 0.4445284 0.01214025
vt 0.4445284 0.1730849
vt 0.1353399 0.1730849
vt 0.1353399 0.01214025
vt 0.07492143 0.1730849
vt 0.07492143 0.01214025
vt 0.02273621 0.1730839
vt 0.02273621 0.01214025
vt 0.6297343 0.1730861
vt 0.6754515 0.1730861
vt 0.6754515 0.01214138
vt 0.6297343 0.01214138
vt 0.5366589 0.1730871
vt 0.5366589 0.01214025
vt 0.9903588 0.1730861
vt 0.9903588 0.01214138
vt 0.7330667 0.2102722
vt 0.5166107 0.3612985
vt 0.5864384 0.4068013
vt 0.6718714 0.3471485
vt 0.5033748 0.436434
vt 0.5853401 0.4401911
vt 0.7729136 0.2414961
vt 0.7029421 0.3583386
vt 0.7689213 0.3223339
vt 0.6826963 0.697399
vt 0.724799 0.6441583
vt 0.7532616 0.6601742
vt 0.6824391 0.7435287
vt 0.8155783 0.6346381
vt 0.9406855 0.6481316
vt 0.6312317 0.8218846
vt 0.9934794 0.8193798
vt 0.992861 0.647243
vt 0.8972198 0.6059051
vt 0.8193538 0.6027127
vt 0.1806613 0.6552106
vt 0.1806613 0.8161563
vt 0.2564124 0.8161563
vt 0.2564124 0.6552106
vt 0.0188362 0.4088145
vt 0.06927124 0.4088145
vt 0.06927124 0.2478697
vt 0.0188362 0.2478697
vt 0.5116888 0.8297737
vt 0.4786465 0.8297737
vt 0.4786465 0.9907184
vt 0.5116888 0.9907184
vt 0.209717 0.9907194
vt 0.209717 0.8297737
vt 0.1778889 0.8297737
vt 0.1778889 0.9907184
vt 0.6156073 0.8297737
vt 0.6156073 0.9907184
vt 0.6486999 0.8297737
vt 0.6486999 0.9907184
vt 0.8944479 0.8297747
vt 0.8944479 0.9907184
vt 0.9271051 0.9907184
vt 0.9271051 0.8297737
vt 0.9943674 0.8297737
vt 0.9943674 0.9907184
vn 1 0 0
vn 1 0 0
vn 1 0 0
vn 1 0 0
vn 1 0 0
vn 1 0 0
vn 1 0 0
vn 1 0 0
vn 1 0 0
vn 1 0 0
vn 1 0 0
vn 1 0 0
vn 1 0 0
vn 1 0 0
vn 1 0 0
vn 1 0 0
vn 1 0 0
vn 1 0 0
vn 1 0 0
vn 1 0 0
vn 0 0.02973011 0.9995579
vn 0 0.02973011 0.9995579
vn 0 0.02973011 0.9995579
vn 0 0.02973011 0.9995579
vn 0 -0.9994557 0.03298669
vn 0 -0.9994557 0.03298669
vn 0 -0.9994557 0.03298669
vn 0 -0.9994557 0.03298669
vn 0 0.5391177 -0.8422305
vn 0 0.5391177 -0.8422305
vn 0 0.5391177 -0.8422305
vn 0 0.5391177 -0.8422305
vn 0 -0.9963686 0.08514403
vn 0 -0.9963686 0.08514403
vn 0 -0.9881075 -0.1537646
vn 0 -0.9881075 -0.1537646
vn 0 -0.8360704 -0.5486223
vn 0 -0.8360704 -0.5486223
vn 0 -0.4000607 -0.9164886
vn 0 -0.4000607 -0.9164886
vn 0 -0.01979807 -0.9998041
vn 0 -0.01979807 -0.9998041
vn 0 0.945771 -0.324834
vn 0 0.9651344 0.2617546
vn 0 0.9651344 0.2617546
vn 0 0.945771 -0.324834
vn 0 0.8143197 -0.5804166
vn 0 0.8143197 -0.5804166
vn 0 0.8407595 0.5414089
vn 0 0.8407595 0.5414089
vn -1 0 0
vn -1 0 0
vn -1 0 0
vn -1 0 0
vn -1 0 0
vn -1 0 0
vn -1 0 0
vn -1 0 0
vn -1 0 0
vn -1 0 0
vn -1 0 0
vn -1 0 0
vn -1 0 0
vn -1 0 0
vn -1 0 0
vn -1 0 0
vn -1 0 0
vn -1 0 0
vn -1 0 0
vn -1 0 0
vn 0 0.9778516 -0.2092999
vn 0 0.9778516 -0.2092999
vn 0 0.9778516 -0.2092999
vn 0 0.9778516 -0.2092999
vn 0 -0.6414229 -0.7671875
vn 0 -0.6414229 -0.7671875
vn 0 -0.6414229 -0.7671875
vn 0 -0.6414229 -0.7671875
vn 0 -0.09504733 0.9954727
vn 0 0.694632 0.7193653
vn 0 0.694632 0.7193653
vn 0 -0.09504733 0.9954727
vn 0 0.99158 0.1294954
vn 0 0.99158 0.1294954
vn 0 0.7723944 -0.6351433
vn 0 0.7723944 -0.6351433
vn -6.865258E-07 -0.8604314 0.5095664
vn -6.865258E-07 -0.8604314 0.5095664
vn 4.486512E-06 -0.9686527 -0.248419
vn 4.486267E-06 -0.9686562 -0.2484054
vn 5.002495E-06 -0.6982739 -0.7158307
vn 5.002495E-06 -0.6982739 -0.7158307
vn 0 -0.09810724 -0.9951758
vn 0 -0.09810724 -0.9951758
vn 0 0.7723944 -0.6351433
vn 0 0.7723944 -0.6351433
g pistolgrip_ak_kgb_mg47_LOD1_0
f 3/3/3 2/2/2 1/1/1
f 4/4/4 3/3/3 1/1/1
f 5/5/5 1/1/1 2/2/2
f 6/6/6 5/5/5 2/2/2
f 6/6/6 7/7/7 5/5/5
f 7/7/7 8/8/8 5/5/5
f 9/9/9 8/8/8 7/7/7
f 10/10/10 9/9/9 7/7/7
f 11/11/11 9/9/9 10/10/10
f 12/12/12 11/11/11 10/10/10
f 13/13/13 11/11/11 12/12/12
f 14/14/14 13/13/13 12/12/12
f 12/12/12 15/15/15 14/14/14
f 15/15/15 16/16/16 14/14/14
f 17/17/17 14/14/14 16/16/16
f 14/14/14 18/18/18 13/13/13
f 18/18/18 19/19/19 13/13/13
f 4/4/4 19/19/19 18/18/18
f 20/20/20 4/4/4 18/18/18
f 20/20/20 3/3/3 4/4/4
f 23/23/23 22/22/22 21/21/21
f 24/24/24 23/23/23 21/21/21
f 27/27/27 26/26/26 25/25/25
f 28/28/28 27/27/27 25/25/25
f 31/31/31 30/30/30 29/29/29
f 32/32/32 31/31/31 29/29/29
f 35/35/35 34/34/34 33/33/33
f 36/36/36 35/35/35 33/33/33
f 35/35/35 36/36/36 37/37/37
f 38/38/38 35/35/35 37/37/37
f 38/38/38 37/37/37 39/39/39
f 40/40/40 38/38/38 39/39/39
f 40/40/40 39/39/39 41/41/41
f 42/42/42 40/40/40 41/41/41
f 45/45/45 44/44/44 43/43/43
f 46/46/46 45/45/45 43/43/43
f 46/46/46 43/43/43 47/47/47
f 48/48/48 46/46/46 47/47/47
f 49/49/49 44/44/44 45/45/45
f 50/50/50 49/49/49 45/45/45
f 53/53/53 52/52/52 51/51/51
f 54/54/54 53/53/53 51/51/51
f 52/52/52 53/53/53 55/55/55
f 53/53/53 56/56/56 55/55/55
f 54/54/54 51/51/51 57/57/57
f 58/58/58 54/54/54 57/57/57
f 59/59/59 58/58/58 57/57/57
f 55/55/55 56/56/56 60/60/60
f 56/56/56 61/61/61 60/60/60
f 60/60/60 61/61/61 62/62/62
f 63/63/63 60/60/60 62/62/62
f 63/63/63 62/62/62 64/64/64
f 65/65/65 63/63/63 64/64/64
f 66/66/66 63/63/63 65/65/65
f 67/67/67 66/66/66 65/65/65
f 65/65/65 68/68/68 67/67/67
f 65/65/65 64/64/64 69/69/69
f 64/64/64 70/70/70 69/69/69
f 70/70/70 58/58/58 59/59/59
f 69/69/69 70/70/70 59/59/59
f 73/73/73 72/72/72 71/71/71
f 74/74/74 73/73/73 71/71/71
f 77/77/77 76/76/76 75/75/75
f 78/78/78 77/77/77 75/75/75
f 81/81/81 80/80/80 79/79/79
f 82/82/82 81/81/81 79/79/79
f 80/80/80 81/81/81 83/83/83
f 84/84/84 80/80/80 83/83/83
f 84/84/84 83/83/83 85/85/85
f 83/83/83 86/86/86 85/85/85
f 79/79/79 87/87/87 82/82/82
f 87/87/87 88/88/88 82/82/82
f 88/88/88 87/87/87 89/89/89
f 90/90/90 88/88/88 89/89/89
f 89/89/89 91/91/91 90/90/90
f 91/91/91 92/92/92 90/90/90
f 93/93/93 92/92/92 91/91/91
f 94/94/94 93/93/93 91/91/91
f 94/94/94 95/95/95 93/93/93
f 95/95/95 96/96/96 93/93/93
