g pistolgrip_ar15_magpul_moe_LOD1
v -0.0110615 -0.0003356552 0.0002913093
v -0.01102402 -0.0002683258 -0.03287274
v -0.01047571 0.0329409 -0.01235779
v -0.0110615 0.03168734 0.0002913093
v -0.01450902 0.01741347 -0.03398262
v -0.01529972 0.03291411 -0.02361995
v -0.007093355 0.04407973 -0.01482092
v -0.007093355 0.08289108 -0.07884623
v -0.01471314 0.07022914 -0.08505894
v -0.0149202 0.05242494 -0.09379473
v -0.006056656 0.04351851 -0.00530092
v -0.01100137 0.0356633 0.009144716
v -0.006120595 0.04868298 0.003125901
v -0.01101394 0.04313836 0.01525691
v -0.009866444 0.05446394 0.01675435
v -0.005190215 0.05698942 0.009838896
v -0.01013868 0.03328615 -0.09041495
v -0.008363186 0.03450856 -0.1025856
v -0.008363186 0.03131394 -0.09847046
v -0.007061495 0.008721175 -0.03784684
v 0.007177873 0.04407973 -0.01482092
v 0.007177873 0.08289108 -0.07884623
v 0.01530002 0.03291411 -0.02361995
v 0.01056022 0.0329409 -0.01235779
v 0.01479766 0.07022914 -0.08505894
v 0.01500471 0.05242494 -0.09379473
v 0.01451321 0.01741347 -0.03398262
v 0.01110852 -0.0002683258 -0.03287274
v 0.01114601 -0.0003356552 0.0002913093
v 0.01114601 0.03168734 0.0002913093
v 0.006141174 0.04351851 -0.00530092
v 0.01108587 0.0356633 0.009144716
v 0.006205114 0.04868298 0.003125901
v 0.01109845 0.04313836 0.01525691
v 0.009950965 0.05446394 0.01675435
v 0.005274735 0.05698942 0.009838896
v 0.01022319 0.03328615 -0.09041495
v 0.008447705 0.03450856 -0.1025856
v 0.008447705 0.03131394 -0.09847046
v 0.007146013 0.008721175 -0.03784684
v -0.007061495 0.008721175 -0.03784684
v -0.01013868 0.03328615 -0.09041495
v -0.008363186 0.03131394 -0.09847046
v -0.008363186 0.03450856 -0.1025856
v -0.007061495 0.008721175 -0.03784684
v -0.01450902 0.01741347 -0.03398262
v -0.01102402 -0.0002683258 -0.03287274
v 0.007146013 0.008721175 -0.03784684
v 0.01110852 -0.0002683258 -0.03287274
v 0.01451321 0.01741347 -0.03398262
v 0.01500471 0.05242494 -0.09379473
v -0.0149202 0.05242494 -0.09379473
v -0.008363186 0.03450856 -0.1025856
v 0.008447705 0.03450856 -0.1025856
v 0.01479766 0.07022914 -0.08505894
v -0.01471314 0.07022914 -0.08505894
v 0.007177873 0.08289108 -0.07884623
v -0.007093355 0.08289108 -0.07884623
v 0.009950965 0.05446394 0.01675435
v -0.009866444 0.05446394 0.01675435
v -0.005190215 0.05698942 0.009838896
v 0.005274735 0.05698942 0.009838896
v 0.01109845 0.04313836 0.01525691
v -0.01101394 0.04313836 0.01525691
v -0.009866444 0.05446394 0.01675435
v 0.009950965 0.05446394 0.01675435
v 0.01108587 0.0356633 0.009144716
v -0.01100137 0.0356633 0.009144716
v 0.01114601 0.03168734 0.0002913093
v -0.0110615 0.03168734 0.0002913093
v 0.01114601 -0.0003356552 0.0002913093
v -0.0110615 -0.0003356552 0.0002913093
v -0.0110615 0.03168734 0.0002913093
v 0.01114601 0.03168734 0.0002913093
v 0.01110852 -0.0002683258 -0.03287274
v -0.01102402 -0.0002683258 -0.03287274
v -0.0110615 -0.0003356552 0.0002913093
v 0.01114601 -0.0003356552 0.0002913093
vt 0.8600785 0.73744
vt 0.9492151 0.5348696
vt 0.6812922 0.5658401
vt 0.6736277 0.6409031
vt 0.8402758 0.4807848
vt 0.7127534 0.4957674
vt 0.5986969 0.5292781
vt 0.588075 0.01011069
vt 0.6919233 0.007766631
vt 0.8256134 0.008266366
vt 0.5887406 0.6066596
vt 0.681796 0.686593
vt 0.5835612 0.6837597
vt 0.6672865 0.7370658
vt 0.6166295 0.7879024
vt 0.5730025 0.7576156
vt 0.9332815 0.0906276
vt 0.9679769 0.01383632
vt 0.973349 0.04910326
vt 0.9200261 0.4877238
vt 0.4906542 0.5292782
vt 0.4987754 0.01009822
vt 0.37692 0.4959884
vt 0.408159 0.5658287
vt 0.3946912 0.007867787
vt 0.2605541 0.009516097
vt 0.2496673 0.4809319
vt 0.140353 0.5344182
vt 0.2290889 0.7370917
vt 0.4156471 0.6408139
vt 0.5005297 0.6066213
vt 0.4073143 0.686371
vt 0.5055353 0.6836981
vt 0.421678 0.7368175
vt 0.4722015 0.7877583
vt 0.5159054 0.7575654
vt 0.1474881 0.0893768
vt 0.1194851 0.004544686
vt 0.1192695 0.03826691
vt 0.171328 0.4885519
vt 0.07608597 0.5000176
vt 0.007881673 0.109546
vt 0.009352311 0.05296663
vt 0.004378603 0.0171252
vt 0.8032964 0.7489979
vt 0.7220936 0.6959662
vt 0.7669833 0.8171164
vt 0.9025082 0.7489979
vt 0.9388103 0.8171166
vt 0.9832726 0.6959663
vt 0.2894199 0.7724503
vt 0.2894188 0.9933063
vt 0.1544006 0.944913
vt 0.1544006 0.8208435
vt 0.4235927 0.7739788
vt 0.4235927 0.991779
vt 0.5190141 0.8302149
vt 0.5190141 0.9355418
vt 0.1204866 0.9745524
vt 0.1204866 0.8254197
vt 0.069699 0.8606096
vt 0.06969894 0.9393625
vt 0.005265449 0.6582394
vt 0.1578035 0.6592664
vt 0.1503742 0.5732434
vt 0.01366701 0.5723243
vt 0.004941362 0.730903
vt 0.1573063 0.7319275
vt 0.004113984 0.8039331
vt 0.1573082 0.8049632
vt 0.7747185 0.8282313
vt 0.7747185 0.9953489
vt 0.9956272 0.9953489
vt 0.9956272 0.8282313
vt 0.5349392 0.8292504
vt 0.5349392 0.9960914
vt 0.7637131 0.9960914
vt 0.7637131 0.8292504
vn -0.9998333 0.01256796 -0.01323996
vn -0.9900271 -0.07486326 0.119339
vn -0.9750134 0.1599721 0.1541353
vn -0.9771562 0.2058801 -0.05271804
vn -0.9758669 -0.2183539 -0.002344773
vn -0.9671577 0.09064929 0.2374632
vn -0.5857898 0.7544725 0.2960091
vn -0.4920397 0.745428 0.4497042
vn -0.9655378 0.2237713 0.132903
vn -0.9811819 -0.1711763 -0.08933406
vn -0.6208311 0.7670021 -0.1621001
vn -0.9405252 0.2682083 -0.2085107
vn -0.6024511 0.5932146 -0.5339935
vn -0.9209049 0.2329717 -0.3125031
vn -0.9041964 0.2426908 -0.3514684
vn -0.5570385 0.5064512 -0.6581908
vn -0.6553299 -0.7331174 -0.1818832
vn -0.622547 -0.6294862 -0.4649542
vn -0.5004461 -0.8388339 -0.2142698
vn -0.4238919 -0.5721609 -0.7021022
vn 0.5866191 0.7541749 0.295124
vn 0.4929998 0.7448195 0.4496612
vn 0.9677864 0.09113395 0.2346999
vn 0.9753374 0.1603574 0.1516654
vn 0.9658494 0.2223495 0.1330248
vn 0.9813483 -0.1707941 -0.08823195
vn 0.9763946 -0.2159636 -0.003646544
vn 0.9904298 -0.07331288 0.1169362
vn 0.9998333 0.01256787 -0.0132402
vn 0.9771562 0.20588 -0.05271788
vn 0.6208311 0.767002 -0.1621
vn 0.9405253 0.2682078 -0.2085106
vn 0.6024512 0.5932145 -0.5339935
vn 0.9209051 0.2329711 -0.3125034
vn 0.9041964 0.2426906 -0.3514685
vn 0.5570386 0.5064511 -0.6581909
vn 0.6560864 -0.7325973 -0.1812508
vn 0.622547 -0.6294862 -0.4649542
vn 0.5004461 -0.8388339 -0.2142697
vn 0.4256555 -0.5712274 -0.7017953
vn -0.4238919 -0.5721609 -0.7021022
vn -0.6553299 -0.7331174 -0.1818832
vn -0.5004461 -0.8388339 -0.2142698
vn -0.622547 -0.6294862 -0.4649542
vn -0.4238919 -0.5721609 -0.7021022
vn -0.9758669 -0.2183539 -0.002344773
vn -0.2366434 -0.3884576 -0.890562
vn 0.4256555 -0.5712274 -0.7017953
vn 0.2372188 -0.3881853 -0.8905276
vn 0.9763946 -0.2159636 -0.003646544
vn 0 0.4404924 -0.8977564
vn 0 0.4404923 -0.8977564
vn 0 0.4404927 -0.8977562
vn 0 0.4404927 -0.8977562
vn 0 0.4404923 -0.8977564
vn 0 0.4404922 -0.8977564
vn 0 0.4404927 -0.8977562
vn 0 0.4404927 -0.8977562
vn 0 0.9393227 0.3430349
vn 0 0.9393227 0.3430349
vn 0 0.9393227 0.3430349
vn 0 0.9393227 0.3430349
vn 0 -0.4056416 0.9140322
vn 0 -0.4056416 0.9140322
vn 0 -0.1310767 0.9913722
vn 0 -0.1310767 0.9913722
vn 0 -0.7940427 0.6078619
vn 0 -0.7940428 0.6078619
vn 0 -0.9122328 0.4096723
vn 0 -0.9122328 0.4096723
vn 0 0 1
vn 0 0 1
vn 0 0 1
vn 0 0 1
vn 0 -0.999998 -0.002030188
vn 0 -0.999998 -0.002030188
vn 0 -0.999998 -0.002030188
vn 0 -0.999998 -0.002030188
g pistolgrip_ar15_magpul_moe_LOD1_0
f 3/3/3 2/2/2 1/1/1
f 4/4/4 3/3/3 1/1/1
f 5/5/5 2/2/2 3/3/3
f 6/6/6 5/5/5 3/3/3
f 6/6/6 3/3/3 7/7/7
f 6/6/6 7/7/7 8/8/8
f 9/9/9 6/6/6 8/8/8
f 6/6/6 9/9/9 10/10/10
f 5/5/5 6/6/6 10/10/10
f 3/3/3 4/4/4 11/11/11
f 7/7/7 3/3/3 11/11/11
f 11/11/11 4/4/4 12/12/12
f 13/13/13 11/11/11 12/12/12
f 14/14/14 13/13/13 12/12/12
f 13/13/13 14/14/14 15/15/15
f 16/16/16 13/13/13 15/15/15
f 10/10/10 17/17/17 5/5/5
f 17/17/17 10/10/10 18/18/18
f 19/19/19 17/17/17 18/18/18
f 17/17/17 20/20/20 5/5/5
f 8/8/8 7/7/7 21/21/21
f 22/22/22 8/8/8 21/21/21
f 22/22/22 21/21/21 23/23/23
f 24/24/24 23/23/23 21/21/21
f 25/25/25 22/22/22 23/23/23
f 26/26/26 25/25/25 23/23/23
f 27/27/27 26/26/26 23/23/23
f 23/23/23 24/24/24 27/27/27
f 24/24/24 28/28/28 27/27/27
f 29/29/29 28/28/28 24/24/24
f 30/30/30 29/29/29 24/24/24
f 31/31/31 30/30/30 24/24/24
f 21/21/21 31/31/31 24/24/24
f 32/32/32 30/30/30 31/31/31
f 33/33/33 32/32/32 31/31/31
f 33/33/33 34/34/34 32/32/32
f 35/35/35 34/34/34 33/33/33
f 36/36/36 35/35/35 33/33/33
f 37/37/37 26/26/26 27/27/27
f 38/38/38 26/26/26 37/37/37
f 39/39/39 38/38/38 37/37/37
f 40/40/40 37/37/37 27/27/27
f 31/31/31 11/11/11 33/33/33
f 7/7/7 11/11/11 31/31/31
f 21/21/21 7/7/7 31/31/31
f 11/11/11 13/13/13 33/33/33
f 33/33/33 13/13/13 36/36/36
f 40/40/40 41/41/41 37/37/37
f 41/41/41 42/42/42 37/37/37
f 37/37/37 42/42/42 39/39/39
f 42/42/42 43/43/43 39/39/39
f 39/39/39 43/43/43 38/38/38
f 43/43/43 44/44/44 38/38/38
f 13/13/13 16/16/16 36/36/36
f 47/47/47 46/46/46 45/45/45
f 47/47/47 45/45/45 48/48/48
f 49/49/49 47/47/47 48/48/48
f 50/50/50 49/49/49 48/48/48
f 53/53/53 52/52/52 51/51/51
f 54/54/54 53/53/53 51/51/51
f 51/51/51 52/52/52 55/55/55
f 52/52/52 56/56/56 55/55/55
f 55/55/55 56/56/56 57/57/57
f 56/56/56 58/58/58 57/57/57
f 61/61/61 60/60/60 59/59/59
f 62/62/62 61/61/61 59/59/59
f 65/65/65 64/64/64 63/63/63
f 66/66/66 65/65/65 63/63/63
f 63/63/63 64/64/64 67/67/67
f 64/64/64 68/68/68 67/67/67
f 67/67/67 68/68/68 69/69/69
f 68/68/68 70/70/70 69/69/69
f 73/73/73 72/72/72 71/71/71
f 74/74/74 73/73/73 71/71/71
f 77/77/77 76/76/76 75/75/75
f 78/78/78 77/77/77 75/75/75
