g pistolgrip_ak_izhmash_akm_wood_LOD1
v 0.01204451 0.0158379 -0.02402665
v 0.01202011 0.0008917951 -0.01960005
v 0.01181651 0.0540677 -0.00979135
v 0.01197581 0.0450937 -0.01973705
v 0.01092781 9.689807E-05 0.0001386475
v 0.01092781 0.0533377 -0.002154152
v 0.01302791 0.0374037 -0.08542285
v 0.01302911 0.06595569 -0.08549685
v 0.01316331 0.0662147 -0.09387185
v 0.01315031 0.03132569 -0.09306485
v 0.01321431 0.06277569 -0.09705985
v 0.01333621 0.04129769 -0.1046678
v -0.01203889 0.0158379 -0.02402665
v -0.01181089 0.0540677 -0.00979135
v -0.01201448 0.0008917951 -0.01960005
v -0.01197019 0.0450937 -0.01973705
v -0.01092219 9.689807E-05 0.0001386475
v -0.01092219 0.0533377 -0.002154152
v -0.01302239 0.0374037 -0.08542285
v -0.01302349 0.06595569 -0.08549685
v -0.01315769 0.0662147 -0.09387185
v -0.01314479 0.03132569 -0.09306485
v -0.01320879 0.06277569 -0.09705985
v -0.01333059 0.04129769 -0.1046678
v 2.802983E-06 0.0281477 -0.09338685
v 0.01315031 0.03132569 -0.09306485
v 2.802983E-06 0.0313847 -0.1016888
v 0.01333621 0.04129769 -0.1046678
v 2.802983E-06 0.04025169 -0.1049958
v 2.802983E-06 0.03017469 -0.08539685
v 0.01302791 0.0374037 -0.08542285
v 2.802983E-06 -0.002316303 -0.01529025
v 0.01202011 0.0008917951 -0.01960005
v 2.802983E-06 8.889675E-05 -0.02028245
v 0.01092781 9.689807E-05 0.0001386475
v 2.802983E-06 9.689807E-05 0.0001386475
v 0.01302911 0.06595569 -0.08549685
v 2.802983E-06 0.07150069 -0.08542285
v 0.01316331 0.0662147 -0.09387185
v -0.01315769 0.0662147 -0.09387185
v 0.01316331 0.0662147 -0.09387185
v 2.802983E-06 0.07150069 -0.08542285
v 0.01321431 0.06277569 -0.09705985
v -0.01320879 0.06277569 -0.09705985
v 2.802983E-06 0.0281477 -0.09338685
v 2.802983E-06 0.0313847 -0.1016888
v -0.01314479 0.03132569 -0.09306485
v -0.01333059 0.04129769 -0.1046678
v 2.802983E-06 0.04025169 -0.1049958
v 2.802983E-06 0.03017469 -0.08539685
v -0.01302239 0.0374037 -0.08542285
v 2.802983E-06 -0.002316303 -0.01529025
v 2.802983E-06 8.889675E-05 -0.02028245
v -0.01201448 0.0008917951 -0.01960005
v -0.01092219 9.689807E-05 0.0001386475
v 2.802983E-06 9.689807E-05 0.0001386475
v -0.01302349 0.06595569 -0.08549685
v -0.01315769 0.0662147 -0.09387185
v 2.802983E-06 0.07150069 -0.08542285
v -0.01333059 0.04129769 -0.1046678
v 2.802983E-06 0.04025169 -0.1049958
v -0.01320879 0.06277569 -0.09705985
v 0.01321431 0.06277569 -0.09705985
v 0.01333621 0.04129769 -0.1046678
v -0.01197019 0.0450937 -0.01973705
v 2.802983E-06 0.05152369 -0.02245665
v -0.01181089 0.0540677 -0.00979135
v 2.802983E-06 0.06023769 -0.008417253
v 2.802983E-06 0.06057469 -0.002457952
v -0.01092219 0.0533377 -0.002154152
v 2.802983E-06 0.06023769 -0.008417253
v 2.802983E-06 0.05152369 -0.02245665
v 0.01181651 0.0540677 -0.00979135
v 0.01197581 0.0450937 -0.01973705
v 2.802983E-06 0.06057469 -0.002457952
v 0.01092781 0.0533377 -0.002154152
v 2.802983E-06 0.07150069 -0.08542285
v -0.01197019 0.0450937 -0.01973705
v -0.01302349 0.06595569 -0.08549685
v 2.802983E-06 0.05152369 -0.02245665
v 2.802983E-06 0.07150069 -0.08542285
v 0.01197581 0.0450937 -0.01973705
v 2.802983E-06 0.05152369 -0.02245665
v 0.01302911 0.06595569 -0.08549685
v -0.01302239 0.0374037 -0.08542285
v -0.01203889 0.0158379 -0.02402665
v 2.802983E-06 0.03017469 -0.08539685
v 2.802983E-06 0.010673 -0.02615325
v 0.01302791 0.0374037 -0.08542285
v 2.802983E-06 0.03017469 -0.08539685
v 0.01204451 0.0158379 -0.02402665
v 2.802983E-06 0.010673 -0.02615325
v -0.01203889 0.0158379 -0.02402665
v -0.01201448 0.0008917951 -0.01960005
v 2.802983E-06 0.010673 -0.02615325
v 2.802983E-06 8.889675E-05 -0.02028245
v 0.01204451 0.0158379 -0.02402665
v 2.802983E-06 0.010673 -0.02615325
v 0.01202011 0.0008917951 -0.01960005
v 2.802983E-06 8.889675E-05 -0.02028245
v -0.01092219 9.689807E-05 0.0001386475
v -0.01092219 0.0533377 -0.002154152
v 2.802983E-06 9.689807E-05 0.0001386475
v 2.802983E-06 0.06057469 -0.002457952
v 0.01092781 9.689807E-05 0.0001386475
v 2.802983E-06 9.689807E-05 0.0001386475
v 0.01092781 0.0533377 -0.002154152
v 2.802983E-06 0.06057469 -0.002457952
vt 0.267748 0.261961
vt 0.493386 0.237596
vt 0.035 0.120554
vt 0.035 0.259564
vt 0.493386 0.035
vt 0.035 0.035
vt 0.267748 0.822836
vt 0.035 0.902238
vt 0.035 0.9836
vt 0.341457 0.865612
vt 0.116395 0.9836
vt 0.341457 0.9836
vt 1.26775 0.261961
vt 1.035 0.120554
vt 1.49339 0.237596
vt 1.035 0.259564
vt 1.49339 0.035
vt 1.035 0.035
vt 1.26775 0.822836
vt 1.035 0.902238
vt 1.035 0.9836
vt 1.34146 0.865612
vt 1.11639 0.9836
vt 1.34146 0.9836
vt 0.718096 0.190855
vt 0.836556 0.172814
vt 0.718096 0.115271
vt 0.836556 0.035
vt 0.718096 0.035
vt 0.718096 0.260768
vt 0.836556 0.260768
vt 0.860088 0.0930978
vt 0.958202 0.035
vt 0.860088 0.035
vt 0.958202 0.258435
vt 0.860088 0.258435
vt 0.985372 0.513085
vt 0.985372 0.281749
vt 0.875393 0.513085
vt 0.856623 0.277153
vt 0.856623 0.508488
vt 0.966602 0.277153
vt 0.804465 0.508488
vt 0.804465 0.277153
vt 1.7181 0.190855
vt 1.7181 0.115271
vt 1.83656 0.172814
vt 1.83656 0.035
vt 1.7181 0.035
vt 1.7181 0.260768
vt 1.83656 0.260768
vt 1.86009 0.0930978
vt 1.86009 0.035
vt 1.9582 0.035
vt 1.9582 0.258435
vt 1.86009 0.258435
vt 1.98537 0.513085
vt 1.87539 0.513085
vt 1.98537 0.281749
vt 0.516385 0.0302291
vt 0.516385 0.144311
vt 0.700379 0.0302291
vt 0.700379 0.258392
vt 0.516385 0.258392
vt 1.96868 0.797686
vt 1.80298 0.797686
vt 1.96868 0.610957
vt 1.80298 0.610957
vt 1.80298 0.525508
vt 1.96868 0.525508
vt 0.802976 0.610957
vt 0.802976 0.797686
vt 0.968676 0.610957
vt 0.968676 0.797686
vt 0.802976 0.525508
vt 0.968676 0.525508
vt 1.4977 0.277153
vt 1.36936 0.981555
vt 1.36936 0.277153
vt 1.4977 0.981555
vt 0.497699 0.277153
vt 0.369359 0.981555
vt 0.497699 0.981555
vt 0.369359 0.277153
vt 1.65587 0.277153
vt 1.65587 0.981555
vt 1.52539 0.277153
vt 1.52539 0.981555
vt 0.655866 0.277153
vt 0.525394 0.277153
vt 0.655866 0.981555
vt 0.525394 0.981555
vt 1.80298 0.980589
vt 1.80298 0.812811
vt 1.96868 0.980589
vt 1.96868 0.812811
vt 0.802976 0.980589
vt 0.968676 0.980589
vt 0.802976 0.812811
vt 0.968676 0.812811
vt 1.78795 0.277153
vt 1.78795 0.981555
vt 1.68143 0.277153
vt 1.68143 0.981555
vt 0.787954 0.277153
vt 0.681428 0.277153
vt 0.787954 0.981555
vt 0.681428 0.981555
vn 0.9999127 0.001058661 0.01317207
vn 0.9990134 -0.004327671 0.04419819
vn 0.9969633 0.001930208 0.0778478
vn 0.9998717 -2.731751E-07 0.01601517
vn 0.9981394 -0.005258868 0.06074727
vn 0.9932302 0.004997855 0.1160545
vn 0.9998717 -1.230987E-06 0.01601621
vn 0.9998717 -5.185098E-07 0.01601888
vn 0.9998717 -1.365412E-06 0.01601322
vn 0.9998717 -1.140959E-06 0.01601678
vn 0.999872 -2.040609E-06 0.01600189
vn 0.9998717 2.410533E-07 0.01601984
vn -0.9999127 0.001058585 0.01317259
vn -0.9969633 0.001930208 0.0778478
vn -0.9990134 -0.004327671 0.04419819
vn -0.9998717 0 0.01601577
vn -0.9981394 -0.005258868 0.06074727
vn -0.9932302 0.004997855 0.1160545
vn -0.9998717 1.543344E-06 0.01601571
vn -0.9998717 2.989606E-06 0.01601943
vn -0.9998716 2.063177E-06 0.01602233
vn -0.9998717 0 0.01601318
vn -0.9998716 6.590109E-07 0.01602313
vn -0.9998719 -9.894218E-07 0.01601016
vn 0.2359302 -0.9698206 -0.06152187
vn 0.3968504 -0.9175877 -0.02329319
vn 0.2419646 -0.7110223 -0.6602276
vn 0.2753939 -0.5968804 -0.753586
vn 0.05039838 -0.3489997 -0.9357666
vn 0.2957793 -0.8784518 0.3752823
vn 0.3979197 -0.7148979 0.5749617
vn 0.1415531 -0.9786314 -0.1491423
vn 0.2089839 -0.9681425 -0.1379348
vn 0.08453365 -0.8976679 -0.4324886
vn 0.1055427 -0.9911679 0.08029298
vn 0 -0.9879882 0.1545291
vn 0.3915989 0.9194811 0.03471011
vn 0.3915988 0.9194812 0.03471011
vn 0.3915988 0.9194812 0.03471011
vn 0 0.733916 -0.6792402
vn 0 0.7339165 -0.6792397
vn 0 0.847756 -0.5303864
vn 0 0.6798376 -0.7333626
vn 0 0.6798376 -0.7333626
vn -0.235929 -0.969821 -0.06152192
vn -0.2419638 -0.7110221 -0.660228
vn -0.3968493 -0.9175882 -0.02329265
vn -0.2753936 -0.5968797 -0.7535867
vn -0.05039847 -0.3489998 -0.9357666
vn -0.2957775 -0.8784527 0.3752821
vn -0.3979176 -0.7148986 0.5749622
vn -0.1415535 -0.9786313 -0.1491423
vn -0.0845338 -0.8976679 -0.4324886
vn -0.2089842 -0.9681424 -0.137935
vn -0.1055428 -0.9911679 0.0802931
vn 0 -0.9879882 0.1545292
vn -0.3915994 0.9194809 0.03471012
vn -0.3915994 0.9194809 0.03471012
vn -0.3915994 0.9194809 0.03471012
vn 0.003004634 0.3338777 -0.9426116
vn 0 0.3333474 -0.9428041
vn 0.0009734843 0.3328196 -0.94299
vn -0.0009734833 0.3328196 -0.94299
vn -0.003004627 0.3338777 -0.9426116
vn -0.4833515 0.6537922 -0.5821744
vn -0.4243194 0.7257182 -0.5415589
vn -0.4853207 0.8245465 -0.2908381
vn -0.4267563 0.8711748 -0.2427624
vn -0.4892411 0.87203 0.01437882
vn -0.5438734 0.8270079 0.1423369
vn 0.4267556 0.8711751 -0.2427625
vn 0.4243187 0.7257185 -0.541559
vn 0.4853201 0.8245469 -0.2908382
vn 0.4833508 0.6537926 -0.5821746
vn 0.4892403 0.8720305 0.01437871
vn 0.5438725 0.8270084 0.1423369
vn -0.3803328 0.8800172 0.2844586
vn -0.4007269 0.8730251 0.2779303
vn -0.3767293 0.8811997 0.2855908
vn -0.4051924 0.8714251 0.2764731
vn 0.3803322 0.8800175 0.2844586
vn 0.4007262 0.8730254 0.2779303
vn 0.4051917 0.8714254 0.2764732
vn 0.3767287 0.8811999 0.2855909
vn -0.4644399 -0.8378575 -0.2868629
vn -0.4265218 -0.8586414 -0.2842782
vn -0.4591221 -0.840897 -0.2865295
vn -0.419876 -0.862076 -0.2837766
vn 0.464442 -0.8378563 -0.2868632
vn 0.4591238 -0.840896 -0.2865297
vn 0.4265215 -0.8586415 -0.2842783
vn 0.4198754 -0.8620763 -0.2837766
vn -0.2796761 -0.2730651 -0.9204438
vn -0.1850268 -0.3798991 -0.9063342
vn -0.1969449 -0.3671038 -0.9090916
vn -0.08179019 -0.4834332 -0.8715518
vn 0.2796756 -0.2730651 -0.9204439
vn 0.1969444 -0.367104 -0.9090916
vn 0.1850266 -0.379899 -0.9063343
vn 0.08179003 -0.4834332 -0.8715518
vn 0 0.04302483 0.999074
vn -0.0005733685 0.04290739 0.9990789
vn -8.144729E-05 0.04300815 0.9990747
vn -0.0006327013 0.04289524 0.9990793
vn 0 0.04302484 0.999074
vn 8.144733E-05 0.04300815 0.9990747
vn 0.0005733671 0.04290739 0.9990789
vn 0.0006326999 0.04289523 0.9990793
g pistolgrip_ak_izhmash_akm_wood_LOD1_0
f 3/3/3 2/2/2 1/1/1
f 4/4/4 3/3/3 1/1/1
f 3/3/3 5/5/5 2/2/2
f 3/3/3 6/6/6 5/5/5
f 7/7/7 4/4/4 1/1/1
f 4/4/4 7/7/7 8/8/8
f 7/7/7 9/9/9 8/8/8
f 9/9/9 7/7/7 10/10/10
f 9/9/9 10/10/10 11/11/11
f 12/12/12 11/11/11 10/10/10
f 15/15/15 14/14/14 13/13/13
f 14/14/14 16/16/16 13/13/13
f 17/17/17 14/14/14 15/15/15
f 18/18/18 14/14/14 17/17/17
f 16/16/16 19/19/19 13/13/13
f 19/19/19 16/16/16 20/20/20
f 21/21/21 19/19/19 20/20/20
f 19/19/19 21/21/21 22/22/22
f 22/22/22 21/21/21 23/23/23
f 23/23/23 24/24/24 22/22/22
f 27/27/27 26/26/26 25/25/25
f 27/27/27 28/28/28 26/26/26
f 28/28/28 27/27/27 29/29/29
f 26/26/26 30/30/30 25/25/25
f 30/30/30 26/26/26 31/31/31
f 34/34/34 33/33/33 32/32/32
f 35/35/35 32/32/32 33/33/33
f 32/32/32 35/35/35 36/36/36
f 39/39/39 38/38/38 37/37/37
f 42/42/42 41/41/41 40/40/40
f 43/43/43 40/40/40 41/41/41
f 40/40/40 43/43/43 44/44/44
f 47/47/47 46/46/46 45/45/45
f 48/48/48 46/46/46 47/47/47
f 46/46/46 48/48/48 49/49/49
f 50/50/50 47/47/47 45/45/45
f 47/47/47 50/50/50 51/51/51
f 54/54/54 53/53/53 52/52/52
f 52/52/52 55/55/55 54/54/54
f 55/55/55 52/52/52 56/56/56
f 59/59/59 58/58/58 57/57/57
f 62/62/62 61/61/61 60/60/60
f 63/63/63 61/61/61 62/62/62
f 61/61/61 63/63/63 64/64/64
f 67/67/67 66/66/66 65/65/65
f 66/66/66 67/67/67 68/68/68
f 68/68/68 67/67/67 69/69/69
f 70/70/70 69/69/69 67/67/67
f 73/73/73 72/72/72 71/71/71
f 72/72/72 73/73/73 74/74/74
f 71/71/71 75/75/75 73/73/73
f 76/76/76 73/73/73 75/75/75
f 79/79/79 78/78/78 77/77/77
f 80/80/80 77/77/77 78/78/78
f 83/83/83 82/82/82 81/81/81
f 84/84/84 81/81/81 82/82/82
f 87/87/87 86/86/86 85/85/85
f 86/86/86 87/87/87 88/88/88
f 91/91/91 90/90/90 89/89/89
f 90/90/90 91/91/91 92/92/92
f 95/95/95 94/94/94 93/93/93
f 94/94/94 95/95/95 96/96/96
f 99/99/99 98/98/98 97/97/97
f 98/98/98 99/99/99 100/100/100
f 103/103/103 102/102/102 101/101/101
f 102/102/102 103/103/103 104/104/104
f 107/107/107 106/106/106 105/105/105
f 106/106/106 107/107/107 108/108/108
