g pistolgrip_ak_zenit_rk3_LOD1
v 0.006556422 0.02039892 -0.09719855
v 0.01273501 0.0247042 -0.07592826
v 0.01273501 0.02418964 -0.09894112
v 0.006556422 0.01995664 -0.07660559
v 0.006556422 0.01711254 -0.0685109
v 0.01273501 0.02122 -0.06084768
v 0.006556422 0.01789924 -0.06156716
v 0.006556422 0.01536548 -0.05446015
v 0.01273501 0.01700391 -0.04695072
v 0.006556422 0.01117248 -0.04854399
v 0.006556422 0.01175158 -0.04117236
v 0.01273501 0.01310366 -0.03436837
v 0.006556422 0.005493269 -0.03156776
v 0.01273501 0.008083682 -0.02576806
v 0.006464869 0.001486154 -0.02405312
v 0.01273501 0.06134008 -0.05463959
v 0.01273501 0.065715 -0.06945263
v 0.01273501 0.0547878 -0.04197273
v 0.01273501 0.04372947 -0.0273987
v 0.01273501 0.003476791 -0.01927407
v 0.01273501 0.003476791 -0.01927407
v 0.006464869 -0.0008172893 -0.0212281
v 0.01273501 0.004038124 -0.0002285808
v 0.006464869 -0.0008172893 0.0001995522
v -4.198704E-05 0.01104947 -0.04117236
v -4.198704E-05 0.01047037 -0.04854399
v -4.198704E-05 0.004791155 -0.03156776
v -4.198704E-05 0.0007825518 -0.02405312
v 0.01273501 0.04365543 -0.01093054
v 0.01273501 0.004038124 -0.0002285808
v 0.01273501 0.04750298 -0.002138519
v -4.198704E-05 0.01466337 -0.05446015
v -4.198704E-05 0.01719713 -0.06156716
v -4.198704E-05 0.01641042 -0.0685109
v -4.198704E-05 0.01925452 -0.07660559
v -4.198704E-05 0.0196968 -0.09719855
v 0.01273501 0.065715 -0.06945263
v 0.0061011 0.07163228 -0.08827823
v 0.01273501 0.06911147 -0.09031917
v 0.0061011 0.06873933 -0.06879634
v 0.0061011 0.0639908 -0.05387449
v 0.01273501 0.06134008 -0.05463959
v 0.0061011 0.05762466 -0.0413154
v 0.01273501 0.0547878 -0.04197273
v 0.0061011 0.0468043 -0.02705143
v 0.01273501 0.04372947 -0.0273987
v -4.198704E-05 0.07225281 -0.08795667
v -4.198704E-05 0.06888208 -0.06876093
v -4.198704E-05 0.0641667 -0.05380054
v -4.198704E-05 0.05772064 -0.04099383
v -4.198704E-05 0.04690028 -0.02672987
v 0.01273501 0.04365543 -0.01093054
v 0.006936366 0.05113702 -0.002294461
v 0.0061011 0.04687819 -0.01083488
v 0.01273501 0.04750298 -0.002138519
v 0.0061011 0.0468043 -0.02705143
v 0.01273501 0.04372947 -0.0273987
v -4.198704E-05 0.05156128 -0.002440158
v -4.198704E-05 0.04711115 -0.0107463
v -4.198704E-05 0.04690028 -0.02672987
v 0.006464869 -0.0008172893 -0.0212281
v 0.006464869 0.04016474 -0.00180949
v 0.006464869 -0.0008172893 0.0001995522
v 0.006464869 0.03977058 -0.02405312
v 0.006464869 0.001486154 -0.02405312
v 0.003786037 0.04415156 -0.002011264
v 0.003786037 0.04404426 -0.02405312
v -4.198704E-05 0.04405554 -0.02405312
v -4.198704E-05 0.04415156 -0.002011265
v 0.006464869 0.03977058 -0.02405312
v -4.198704E-05 0.04405554 -0.02405312
v 0.003786037 0.04404426 -0.02405312
v -4.198704E-05 0.0007825518 -0.02405312
v 0.006464869 0.001486154 -0.02405312
v 0.006464869 0.04016474 -0.00180949
v 0.01273501 0.004038124 -0.0002285808
v 0.006464869 -0.0008172893 0.0001995522
v 0.01273501 0.04750298 -0.002138519
v 0.006936366 0.05113702 -0.002294461
v 0.003786037 0.04415156 -0.002011264
v -4.198704E-05 0.05156128 -0.002440158
v -4.198704E-05 0.04415156 -0.002011265
v 0.01273501 0.04939301 -0.09716655
v 0.01273501 0.02418964 -0.09894112
v 0.01273501 0.06911147 -0.09031917
v 0.01273501 0.02418964 -0.09894112
v -4.198704E-05 0.04939301 -0.09716655
v -4.198704E-05 0.02418964 -0.0989411
v 0.01273501 0.04939301 -0.09716655
v -4.198704E-05 0.06911147 -0.09031917
v 0.01273501 0.06911147 -0.09031917
v 0.0061011 0.07163228 -0.08827823
v -4.198704E-05 0.07225281 -0.08795667
v 0.006556422 0.02039892 -0.09719855
v -4.198704E-05 0.0196968 -0.09719855
v -0.006640397 0.02039892 -0.09719856
v -0.01281898 0.0247042 -0.07592826
v -0.006640397 0.01995664 -0.07660559
v -0.01281898 0.02418964 -0.0989411
v -0.006640397 0.01711254 -0.0685109
v -0.01281898 0.02122 -0.06084768
v -0.006640397 0.01789924 -0.06156716
v -0.006640397 0.01536548 -0.05446015
v -0.01281898 0.01700391 -0.04695072
v -0.006640397 0.01117248 -0.04854399
v -0.006640397 0.01175158 -0.04117236
v -0.01281898 0.01310366 -0.03436837
v -0.006640397 0.005493269 -0.03156776
v -0.01281898 0.008083682 -0.02576806
v -0.006548844 0.001486154 -0.02405312
v -0.01281898 0.06134008 -0.05463959
v -0.01281898 0.065715 -0.06945263
v -0.01281898 0.0547878 -0.04197273
v -0.01281898 0.04372947 -0.0273987
v -0.01281898 0.003476791 -0.01927407
v -0.01281898 0.003476791 -0.01927407
v -0.006548844 -0.0008172893 -0.0212281
v -0.01281898 0.004038124 -0.0002285808
v -0.006548844 -0.0008172893 0.0001995522
v -4.198704E-05 0.01104947 -0.04117236
v -4.198704E-05 0.01047037 -0.04854399
v -4.198704E-05 0.004791155 -0.03156776
v -4.198704E-05 0.0007825518 -0.02405312
v -0.01281898 0.04365543 -0.01093054
v -0.01281898 0.004038124 -0.0002285808
v -0.01281898 0.04750298 -0.002138519
v -4.198704E-05 0.01466337 -0.05446015
v -4.198704E-05 0.01719713 -0.06156716
v -4.198704E-05 0.01641042 -0.0685109
v -4.198704E-05 0.01925452 -0.07660559
v -4.198704E-05 0.0196968 -0.09719855
v -0.01281898 0.065715 -0.06945263
v -0.006185075 0.07163228 -0.08827823
v -0.006185075 0.06873933 -0.06879634
v -0.01281898 0.06911147 -0.09031917
v -0.006185075 0.0639908 -0.05387449
v -0.01281898 0.06134008 -0.05463959
v -0.006185074 0.05762466 -0.0413154
v -0.01281898 0.0547878 -0.04197273
v -0.006185074 0.0468043 -0.02705143
v -0.01281898 0.04372947 -0.0273987
v -4.198704E-05 0.07225281 -0.08795667
v -4.198704E-05 0.06888208 -0.06876093
v -4.198704E-05 0.0641667 -0.05380054
v -4.198704E-05 0.05772064 -0.04099383
v -4.198704E-05 0.04690028 -0.02672987
v -0.01281898 0.04365543 -0.01093054
v -0.00702034 0.05113702 -0.002294461
v -0.01281898 0.04750298 -0.002138519
v -0.006185074 0.04687819 -0.01083488
v -0.006185074 0.0468043 -0.02705143
v -0.01281898 0.04372947 -0.0273987
v -4.198704E-05 0.05156128 -0.002440158
v -4.198704E-05 0.04711115 -0.0107463
v -4.198704E-05 0.04690028 -0.02672987
v -0.006548844 -0.0008172893 -0.0212281
v -0.006548844 0.04016474 -0.00180949
v -0.006548844 0.03977058 -0.02405312
v -0.006548844 -0.0008172893 0.0001995522
v -0.006548844 0.001486154 -0.02405312
v -0.003870011 0.04415156 -0.002011264
v -0.003870011 0.04404426 -0.02405312
v -4.198704E-05 0.04405554 -0.02405312
v -4.198704E-05 0.04415156 -0.002011265
v -0.006548844 0.03977058 -0.02405312
v -0.003870011 0.04404426 -0.02405312
v -4.198704E-05 0.04405554 -0.02405312
v -4.198704E-05 0.0007825518 -0.02405312
v -0.006548844 0.001486154 -0.02405312
v -0.006548844 0.04016474 -0.00180949
v -0.01281898 0.004038124 -0.0002285808
v -0.01281898 0.04750298 -0.002138519
v -0.006548844 -0.0008172893 0.0001995522
v -0.00702034 0.05113702 -0.002294461
v -0.003870011 0.04415156 -0.002011264
v -4.198704E-05 0.05156128 -0.002440158
v -4.198704E-05 0.04415156 -0.002011265
v -0.01281898 0.02418964 -0.0989411
v -0.01281898 0.04939301 -0.09716655
v -0.01281898 0.06911147 -0.09031917
v -0.01281898 0.02418964 -0.0989411
v -4.198704E-05 0.04939301 -0.09716655
v -0.01281898 0.04939301 -0.09716655
v -4.198704E-05 0.02418964 -0.0989411
v -4.198704E-05 0.06911147 -0.09031917
v -0.01281898 0.06911147 -0.09031917
v -0.006185075 0.07163228 -0.08827823
v -4.198704E-05 0.07225281 -0.08795667
v -0.006640397 0.02039892 -0.09719856
v -4.198704E-05 0.0196968 -0.09719855
vt 0.2565031 0.01489508
vt 0.3419746 0.2295773
vt 0.3384248 -6.114584E-06
vt 0.2547135 0.2193376
vt 0.2332799 0.3014601
vt 0.304502 0.3840469
vt 0.2265002 0.3693177
vt 0.2049173 0.4415842
vt 0.262756 0.526781
vt 0.1739028 0.5049374
vt 0.1638214 0.5757946
vt 0.2223341 0.6550696
vt 0.1096486 0.6781882
vt 0.1714221 0.7444886
vt 0.06644733 0.7525788
vt 0.7496518 0.4390342
vt 0.7971938 0.2951871
vt 0.6822653 0.5658835
vt 0.5698878 0.7232975
vt 0.1241975 0.8099502
vt 0.1241975 0.8099502
vt 0.04204686 0.7859171
vt 0.1254655 0.9959121
vt 0.03844701 0.9999381
vt 0.09084838 0.5566483
vt 0.1054134 0.4889164
vt 0.04084078 0.6548534
vt 1.407602E-05 0.7291964
vt 0.5699133 0.8958437
vt 0.1254655 0.9959121
vt 0.6007176 0.9892076
vt 0.1327728 0.4243426
vt 0.1532188 0.3572125
vt 0.1622585 0.2921134
vt 0.1810609 0.2135524
vt 0.1815655 0.01335969
vt 0.7971938 0.2951871
vt 0.9174464 0.12169
vt 0.840337 0.09066943
vt 0.8750839 0.3127223
vt 0.8234689 0.4600767
vt 0.7496518 0.4390342
vt 0.7569953 0.5852312
vt 0.6822653 0.5658835
vt 0.6542091 0.7372524
vt 0.5698878 0.7232975
vt 0.9847586 0.1371863
vt 0.940571 0.3284349
vt 0.8865803 0.4812216
vt 0.8168703 0.6119661
vt 0.7187898 0.7543306
vt 0.5699133 0.8958437
vt 0.6675755 0.9926513
vt 0.6542951 0.8982884
vt 0.6007176 0.9892076
vt 0.6542091 0.7372524
vt 0.5698878 0.7232975
vt 0.7412079 0.9845077
vt 0.7228974 0.8971958
vt 0.7187898 0.7543306
vt 0.8962182 0.9118461
vt 0.7873925 0.7074021
vt 0.7761348 0.9118672
vt 0.9120507 0.7092217
vt 0.9120502 0.9003282
vt 0.7885246 0.6835154
vt 0.9120495 0.6839647
vt 0.9121372 0.6648582
vt 0.788612 0.6644091
vt 0.04968709 0.5742928
vt 7.429918E-05 0.6048467
vt 0.02912689 0.6049608
vt 0.002398225 0.2929352
vt 0.05174312 0.2983388
vt 0.930061 0.8806396
vt 0.9999612 0.52158
vt 0.9300292 0.4732251
vt 0.9999611 0.953576
vt 0.9353161 0.9896934
vt 0.900193 0.9202762
vt 0.8575057 0.9939697
vt 0.8575181 0.9202737
vt 0.6194237 0.01979645
vt 0.3384248 -6.114584E-06
vt 0.840337 0.09066943
vt 0.1495999 0.3313353
vt 0.05474437 0.1642681
vt 0.05474437 0.3313346
vt 0.1496048 0.1642691
vt 0.05474705 0.02624458
vt 0.1496065 0.02624546
vt 0.1003572 0.004799836
vt 0.0547433 0.0002606255
vt 0.1037403 0.3589154
vt 0.05472695 0.3631764
vt 0.2565031 0.01489508
vt 0.3419746 0.2295773
vt 0.2547135 0.2193376
vt 0.3384248 -6.114584E-06
vt 0.2332799 0.3014601
vt 0.304502 0.3840469
vt 0.2265002 0.3693177
vt 0.2049173 0.4415842
vt 0.262756 0.526781
vt 0.1739028 0.5049374
vt 0.1638214 0.5757946
vt 0.2223341 0.6550696
vt 0.1096486 0.6781882
vt 0.1714221 0.7444886
vt 0.06644733 0.7525788
vt 0.7496518 0.4390342
vt 0.7971938 0.2951871
vt 0.6822653 0.5658835
vt 0.5698878 0.7232975
vt 0.1241975 0.8099502
vt 0.1241975 0.8099502
vt 0.04204686 0.7859171
vt 0.1254655 0.9959121
vt 0.03844701 0.9999381
vt 0.09084838 0.5566483
vt 0.1054134 0.4889164
vt 0.04084078 0.6548534
vt 1.407602E-05 0.7291964
vt 0.5699133 0.8958437
vt 0.1254655 0.9959121
vt 0.6007176 0.9892076
vt 0.1327728 0.4243426
vt 0.1532188 0.3572125
vt 0.1622585 0.2921134
vt 0.1810609 0.2135524
vt 0.1815655 0.01335969
vt 0.7971938 0.2951871
vt 0.9174464 0.12169
vt 0.8750839 0.3127223
vt 0.840337 0.09066943
vt 0.8234689 0.4600767
vt 0.7496518 0.4390342
vt 0.7569953 0.5852312
vt 0.6822653 0.5658835
vt 0.6542091 0.7372524
vt 0.5698878 0.7232975
vt 0.9847586 0.1371863
vt 0.940571 0.3284349
vt 0.8865803 0.4812216
vt 0.8168703 0.6119661
vt 0.7187898 0.7543306
vt 0.5699133 0.8958437
vt 0.6675755 0.9926513
vt 0.6007176 0.9892076
vt 0.6542951 0.8982884
vt 0.6542091 0.7372524
vt 0.5698878 0.7232975
vt 0.7412079 0.9845077
vt 0.7228974 0.8971958
vt 0.7187898 0.7543306
vt 0.8962182 0.9118461
vt 0.7873925 0.7074021
vt 0.9120507 0.7092217
vt 0.7761348 0.9118672
vt 0.9120502 0.9003282
vt 0.7885246 0.6835154
vt 0.9120495 0.6839647
vt 0.9121372 0.6648582
vt 0.788612 0.6644091
vt 0.04968709 0.5742928
vt 0.02912689 0.6049608
vt 7.429918E-05 0.6048467
vt 0.002398225 0.2929352
vt 0.05174312 0.2983388
vt 0.930061 0.8806396
vt 0.9999612 0.52158
vt 0.9999611 0.953576
vt 0.9300292 0.4732251
vt 0.9353161 0.9896934
vt 0.900193 0.9202762
vt 0.8575057 0.9939697
vt 0.8575181 0.9202737
vt 0.3384248 -6.114584E-06
vt 0.6194237 0.01979645
vt 0.840337 0.09066943
vt 0.1495999 0.3313353
vt 0.05474437 0.1642681
vt 0.1496048 0.1642691
vt 0.05474437 0.3313346
vt 0.05474705 0.02624458
vt 0.1496065 0.02624546
vt 0.1003572 0.004799836
vt 0.0547433 0.0002606255
vt 0.1037403 0.3589154
vt 0.05472695 0.3631764
vn 0.350326 -0.9366212 -0.003526901
vn 0.9140439 -0.4012514 -0.05933875
vn 0.5267413 -0.8498133 0.01900172
vn 0.3826376 -0.9089957 -0.1652733
vn 0.3634594 -0.9233623 -0.1236909
vn 0.8854808 -0.4559712 -0.08952105
vn 0.30662 -0.9460545 -0.1047148
vn 0.3478612 -0.849385 -0.3969104
vn 0.895435 -0.4273725 -0.1246949
vn 0.3990428 -0.8830045 -0.2471195
vn 0.3772727 -0.8945201 -0.2397896
vn 0.9043082 -0.3790136 -0.1964059
vn 0.374918 -0.7994466 -0.4693843
vn 0.9038872 -0.3663222 -0.2208984
vn 0.4448258 -0.7597911 -0.4741809
vn 1 0 0
vn 1 0 0
vn 1 0 0
vn 1 0 0
vn 1 0 0
vn 0.6597541 -0.7211483 -0.2113522
vn 0.6060624 -0.7493185 -0.2668524
vn 0.6012569 -0.7990387 0.005223787
vn 0.6122607 -0.7906559 0
vn 0 -0.9676434 -0.2523218
vn 0 -0.9655684 -0.2601492
vn 0 -0.8616549 -0.5074946
vn 0 -0.8826345 -0.4700599
vn 1 0 0
vn 1 0 0
vn 1 0 0
vn 0 -0.8852267 -0.46516
vn 0 -0.9932092 -0.1163429
vn 0 -0.9938594 -0.1106514
vn 0 -0.9835554 -0.1806067
vn 0 -0.9997695 -0.02147233
vn 0.4141243 0.8869255 0.2046074
vn 0.2664122 0.9525664 0.1471118
vn 0.3907354 0.908546 0.1478848
vn 0.2298152 0.9468779 0.2249609
vn 0.2106922 0.9065407 0.365777
vn 0.3844341 0.8567345 0.3438261
vn 0.2120584 0.830362 0.5152962
vn 0.3820705 0.7777015 0.499202
vn 0.2201259 0.7771369 0.5895786
vn 0.3720976 0.7394307 0.5610577
vn 0 0.9883997 0.1518747
vn 0 0.9711872 0.2383178
vn 0 0.9260881 0.3773072
vn 0 0.8473987 0.5309573
vn 0 0.7967068 0.6043659
vn 0.4433091 0.8751225 -0.1940047
vn 0.2611224 0.8649141 -0.4286476
vn 0.2358995 0.9396915 -0.2476517
vn 0.5048908 0.7907775 -0.3460582
vn 0.2320181 0.9727107 -0.001245204
vn 0.4206992 0.907191 0.004078472
vn 0 0.8884691 -0.4589363
vn 0 0.9673902 -0.2532906
vn 0 0.9999788 -0.006518796
vn -1 0 0
vn -0.9582503 -0.2858855 0.005065967
vn -1 0 0
vn -0.961305 -0.2754799 0.001848521
vn -1 0 0
vn -0.4781167 -0.8782638 0.00755735
vn -0.4861167 -0.8738835 0.004253992
vn 0 -0.9999884 0.004811841
vn 0 -0.9999906 0.00435614
vn 0 0 1
vn 0 0 1
vn 0 0 1
vn 0 0 1
vn 0 0 1
vn 0.0006459208 0.04428123 0.9990189
vn 0.02802136 0.04855481 0.9984274
vn 0.03026939 0.04894128 0.9983429
vn 0.0008720584 0.04404888 0.999029
vn -0.009164364 0.04621363 0.9988896
vn -0.008530731 0.04893628 0.9987655
vn 0 0.05147611 0.9986743
vn 0 0.05778564 0.998329
vn 1 0 0
vn 1 0 0
vn 1 0 0
vn -5.79677E-07 -0.06524605 -0.9978693
vn 2.536553E-07 0.2008851 -0.9796148
vn 0 -0.1600624 -0.9871069
vn 0 0.2008853 -0.9796148
vn 0 0.4750776 -0.8799439
vn 0 0.3998193 -0.916594
vn 0.004028599 0.6232961 -0.7819755
vn 0 0.6010578 -0.7992056
vn 0.009618246 -0.4037834 -0.9148041
vn 6.800204E-07 -0.3616061 -0.932331
vn -0.3503259 -0.9366212 -0.003526904
vn -0.9140439 -0.4012513 -0.05933874
vn -0.3826375 -0.9089957 -0.1652732
vn -0.5267412 -0.8498133 0.01900173
vn -0.3634594 -0.9233623 -0.1236909
vn -0.8854808 -0.4559712 -0.08952105
vn -0.30662 -0.9460545 -0.1047148
vn -0.3478612 -0.849385 -0.3969104
vn -0.895435 -0.4273725 -0.1246949
vn -0.3990428 -0.8830045 -0.2471195
vn -0.3772727 -0.8945201 -0.2397896
vn -0.9043082 -0.3790136 -0.1964059
vn -0.374918 -0.7994466 -0.4693843
vn -0.9038872 -0.3663222 -0.2208984
vn -0.4448258 -0.7597911 -0.4741809
vn -1 0 0
vn -1 0 0
vn -1 0 0
vn -1 0 0
vn -1 0 0
vn -0.6597541 -0.7211483 -0.2113522
vn -0.6060624 -0.7493185 -0.2668524
vn -0.6012569 -0.7990387 0.005223787
vn -0.6122607 -0.7906559 0
vn 0 -0.9676434 -0.2523218
vn 0 -0.9655684 -0.2601492
vn 0 -0.8616549 -0.5074946
vn 0 -0.8826345 -0.4700599
vn -1 0 0
vn -1 0 0
vn -1 0 0
vn 0 -0.8852267 -0.46516
vn 0 -0.9932092 -0.1163429
vn 0 -0.9938594 -0.1106514
vn 0 -0.9835554 -0.1806067
vn 0 -0.9997695 -0.02147233
vn -0.4141243 0.8869255 0.2046075
vn -0.2664122 0.9525664 0.1471118
vn -0.2298152 0.9468779 0.2249609
vn -0.3907354 0.908546 0.1478848
vn -0.2106923 0.9065407 0.365777
vn -0.3844341 0.8567345 0.3438261
vn -0.2120584 0.830362 0.5152962
vn -0.3820705 0.7777015 0.499202
vn -0.2201259 0.7771369 0.5895786
vn -0.3720976 0.7394307 0.5610577
vn 0 0.9883997 0.1518747
vn 0 0.9711872 0.2383178
vn 0 0.9260881 0.3773072
vn 0 0.8473987 0.5309573
vn 0 0.7967068 0.6043659
vn -0.4433089 0.8751225 -0.1940046
vn -0.2611224 0.8649141 -0.4286476
vn -0.5048908 0.7907775 -0.3460582
vn -0.2358995 0.9396915 -0.2476517
vn -0.2320181 0.9727107 -0.001245204
vn -0.4206992 0.907191 0.004078472
vn 0 0.8884691 -0.4589363
vn 0 0.9673902 -0.2532906
vn 0 0.9999788 -0.006518796
vn 1 0 0
vn 0.9582503 -0.2858855 0.005065967
vn 0.961305 -0.2754799 0.001848521
vn 1 0 0
vn 1 0 0
vn 0.4781167 -0.8782638 0.007557351
vn 0.4861167 -0.8738835 0.004253992
vn 0 -0.9999884 0.004811841
vn 0 -0.9999906 0.00435614
vn 0 0 1
vn 0 0 1
vn 0 0 1
vn 0 0 1
vn 0 0 1
vn -0.0006459209 0.04428123 0.9990189
vn -0.02802136 0.04855481 0.9984274
vn -0.0008720584 0.04404888 0.999029
vn -0.03026939 0.04894128 0.9983429
vn 0.009164364 0.04621363 0.9988896
vn 0.008530731 0.04893628 0.9987655
vn 0 0.05147611 0.9986743
vn 0 0.05778564 0.998329
vn -1 0 0
vn -1 0 0
vn -1 0 0
vn 1.65132E-07 -0.06524529 -0.9978693
vn 2.536553E-07 0.2008851 -0.9796148
vn 6.068227E-07 0.2008849 -0.9796148
vn 0 -0.1600624 -0.9871069
vn 0 0.4750776 -0.8799439
vn 0 0.3998196 -0.9165938
vn -0.004028599 0.6232961 -0.7819755
vn 0 0.6010578 -0.7992056
vn -0.009618414 -0.4037811 -0.9148051
vn 6.800204E-07 -0.3616061 -0.932331
g pistolgrip_ak_zenit_rk3_LOD1_0
f 3/3/3 2/2/2 1/1/1
f 4/4/4 1/1/1 2/2/2
f 2/2/2 5/5/5 4/4/4
f 6/6/6 5/5/5 2/2/2
f 6/6/6 7/7/7 5/5/5
f 7/7/7 6/6/6 8/8/8
f 8/8/8 6/6/6 9/9/9
f 10/10/10 8/8/8 9/9/9
f 10/10/10 9/9/9 11/11/11
f 11/11/11 9/9/9 12/12/12
f 13/13/13 11/11/11 12/12/12
f 13/13/13 12/12/12 14/14/14
f 15/15/15 13/13/13 14/14/14
f 6/6/6 2/2/2 16/16/16
f 6/6/6 16/16/16 9/9/9
f 17/17/17 16/16/16 2/2/2
f 18/18/18 9/9/9 16/16/16
f 9/9/9 18/18/18 12/12/12
f 19/19/19 12/12/12 18/18/18
f 12/12/12 19/19/19 14/14/14
f 14/14/14 19/19/19 20/20/20
f 21/21/21 15/15/15 14/14/14
f 22/22/22 15/15/15 21/21/21
f 21/21/21 23/23/23 22/22/22
f 24/24/24 22/22/22 23/23/23
f 11/11/11 25/25/25 10/10/10
f 26/26/26 10/10/10 25/25/25
f 13/13/13 27/27/27 11/11/11
f 25/25/25 11/11/11 27/27/27
f 15/15/15 28/28/28 13/13/13
f 27/27/27 13/13/13 28/28/28
f 19/19/19 29/29/29 21/21/21
f 20/20/20 29/29/29 30/30/30
f 29/29/29 31/31/31 30/30/30
f 10/10/10 26/26/26 8/8/8
f 32/32/32 8/8/8 26/26/26
f 8/8/8 32/32/32 7/7/7
f 33/33/33 7/7/7 32/32/32
f 33/33/33 34/34/34 7/7/7
f 5/5/5 7/7/7 34/34/34
f 5/5/5 34/34/34 4/4/4
f 35/35/35 4/4/4 34/34/34
f 4/4/4 35/35/35 1/1/1
f 36/36/36 1/1/1 35/35/35
f 39/39/39 38/38/38 37/37/37
f 40/40/40 37/37/37 38/38/38
f 40/40/40 41/41/41 37/37/37
f 42/42/42 37/37/37 41/41/41
f 41/41/41 43/43/43 42/42/42
f 44/44/44 42/42/42 43/43/43
f 43/43/43 45/45/45 44/44/44
f 46/46/46 44/44/44 45/45/45
f 38/38/38 47/47/47 40/40/40
f 48/48/48 40/40/40 47/47/47
f 40/40/40 48/48/48 41/41/41
f 49/49/49 41/41/41 48/48/48
f 41/41/41 49/49/49 43/43/43
f 50/50/50 43/43/43 49/49/49
f 43/43/43 50/50/50 45/45/45
f 51/51/51 45/45/45 50/50/50
f 54/54/54 53/53/53 52/52/52
f 55/55/55 52/52/52 53/53/53
f 54/54/54 52/52/52 56/56/56
f 57/57/57 56/56/56 52/52/52
f 53/53/53 54/54/54 58/58/58
f 59/59/59 58/58/58 54/54/54
f 59/59/59 54/54/54 60/60/60
f 56/56/56 60/60/60 54/54/54
f 63/63/63 62/62/62 61/61/61
f 64/64/64 61/61/61 62/62/62
f 61/61/61 64/64/64 65/65/65
f 62/62/62 66/66/66 64/64/64
f 67/67/67 64/64/64 66/66/66
f 67/67/67 66/66/66 68/68/68
f 69/69/69 68/68/68 66/66/66
f 72/72/72 71/71/71 70/70/70
f 71/71/71 73/73/73 70/70/70
f 74/74/74 70/70/70 73/73/73
f 77/77/77 76/76/76 75/75/75
f 78/78/78 75/75/75 76/76/76
f 78/78/78 79/79/79 75/75/75
f 80/80/80 75/75/75 79/79/79
f 79/79/79 81/81/81 80/80/80
f 82/82/82 80/80/80 81/81/81
f 84/84/84 83/83/83 2/2/2
f 83/83/83 17/17/17 2/2/2
f 85/85/85 17/17/17 83/83/83
f 88/88/88 87/87/87 86/86/86
f 89/89/89 86/86/86 87/87/87
f 87/87/87 90/90/90 89/89/89
f 91/91/91 89/89/89 90/90/90
f 91/91/91 90/90/90 92/92/92
f 93/93/93 92/92/92 90/90/90
f 86/86/86 94/94/94 88/88/88
f 95/95/95 88/88/88 94/94/94
f 98/98/98 97/97/97 96/96/96
f 99/99/99 96/96/96 97/97/97
f 100/100/100 97/97/97 98/98/98
f 100/100/100 101/101/101 97/97/97
f 102/102/102 101/101/101 100/100/100
f 101/101/101 102/102/102 103/103/103
f 101/101/101 103/103/103 104/104/104
f 103/103/103 105/105/105 104/104/104
f 104/104/104 105/105/105 106/106/106
f 104/104/104 106/106/106 107/107/107
f 106/106/106 108/108/108 107/107/107
f 107/107/107 108/108/108 109/109/109
f 108/108/108 110/110/110 109/109/109
f 101/101/101 111/111/111 97/97/97
f 101/101/101 104/104/104 111/111/111
f 112/112/112 97/97/97 111/111/111
f 113/113/113 111/111/111 104/104/104
f 104/104/104 107/107/107 113/113/113
f 114/114/114 113/113/113 107/107/107
f 114/114/114 107/107/107 109/109/109
f 114/114/114 109/109/109 115/115/115
f 110/110/110 116/116/116 109/109/109
f 110/110/110 117/117/117 116/116/116
f 116/116/116 117/117/117 118/118/118
f 119/119/119 118/118/118 117/117/117
f 106/106/106 105/105/105 120/120/120
f 121/121/121 120/120/120 105/105/105
f 120/120/120 122/122/122 106/106/106
f 108/108/108 106/106/106 122/122/122
f 122/122/122 123/123/123 108/108/108
f 110/110/110 108/108/108 123/123/123
f 124/124/124 114/114/114 116/116/116
f 124/124/124 115/115/115 125/125/125
f 126/126/126 124/124/124 125/125/125
f 127/127/127 121/121/121 103/103/103
f 103/103/103 102/102/102 127/127/127
f 128/128/128 127/127/127 102/102/102
f 128/128/128 102/102/102 129/129/129
f 100/100/100 129/129/129 102/102/102
f 100/100/100 98/98/98 129/129/129
f 130/130/130 129/129/129 98/98/98
f 98/98/98 96/96/96 130/130/130
f 131/131/131 130/130/130 96/96/96
f 105/105/105 103/103/103 121/121/121
f 134/134/134 133/133/133 132/132/132
f 135/135/135 132/132/132 133/133/133
f 134/134/134 132/132/132 136/136/136
f 137/137/137 136/136/136 132/132/132
f 136/136/136 137/137/137 138/138/138
f 139/139/139 138/138/138 137/137/137
f 138/138/138 139/139/139 140/140/140
f 141/141/141 140/140/140 139/139/139
f 133/133/133 134/134/134 142/142/142
f 143/143/143 142/142/142 134/134/134
f 134/134/134 136/136/136 143/143/143
f 144/144/144 143/143/143 136/136/136
f 136/136/136 138/138/138 144/144/144
f 145/145/145 144/144/144 138/138/138
f 138/138/138 140/140/140 145/145/145
f 146/146/146 145/145/145 140/140/140
f 149/149/149 148/148/148 147/147/147
f 150/150/150 147/147/147 148/148/148
f 150/150/150 151/151/151 147/147/147
f 152/152/152 147/147/147 151/151/151
f 148/148/148 153/153/153 150/150/150
f 154/154/154 150/150/150 153/153/153
f 151/151/151 150/150/150 155/155/155
f 154/154/154 155/155/155 150/150/150
f 158/158/158 157/157/157 156/156/156
f 159/159/159 156/156/156 157/157/157
f 158/158/158 156/156/156 160/160/160
f 157/157/157 158/158/158 161/161/161
f 162/162/162 161/161/161 158/158/158
f 162/162/162 163/163/163 161/161/161
f 164/164/164 161/161/161 163/163/163
f 167/167/167 166/166/166 165/165/165
f 167/167/167 165/165/165 168/168/168
f 169/169/169 168/168/168 165/165/165
f 172/172/172 171/171/171 170/170/170
f 173/173/173 170/170/170 171/171/171
f 172/172/172 170/170/170 174/174/174
f 175/175/175 174/174/174 170/170/170
f 174/174/174 175/175/175 176/176/176
f 177/177/177 176/176/176 175/175/175
f 179/179/179 178/178/178 97/97/97
f 112/112/112 179/179/179 97/97/97
f 112/112/112 180/180/180 179/179/179
f 183/183/183 182/182/182 181/181/181
f 184/184/184 181/181/181 182/182/182
f 182/182/182 183/183/183 185/185/185
f 186/186/186 185/185/185 183/183/183
f 186/186/186 187/187/187 185/185/185
f 188/188/188 185/185/185 187/187/187
f 181/181/181 184/184/184 189/189/189
f 190/190/190 189/189/189 184/184/184
