g pistolgrip_ak_magpul_moe_ak_LOD1
v -0.006370734 -0.003211429 -0.03122604
v -0.01209057 0.002477391 -0.0247367
v 0.0007653725 0.0004077292 -0.02473671
v 0.0007653724 -0.003211429 -0.03122604
v 0.0007653764 0.001962614 0.001731501
v -0.01209056 0.004032276 0.001731505
v 0.007901479 -0.003211429 -0.03122605
v 0.01362131 0.002477398 -0.02473671
v 0.01362132 0.004032283 0.001731505
v -0.01209057 0.0127042 -0.02951212
v -0.006370734 -0.003211429 -0.03122604
v 0.0007653724 -0.003211429 -0.03122604
v 0.0007653691 0.007984078 -0.03245853
v -0.01209058 0.02004867 -0.03941169
v 0.0007653663 0.01369577 -0.03941169
v -0.01209059 0.0407788 -0.09750488
v 0.0007653501 0.03655648 -0.09919696
v -0.006476954 0.0341636 -0.1091342
v 0.0007653492 0.03416361 -0.1091342
v -0.0120906 0.04208342 -0.1109667
v 0.0007653466 0.04208343 -0.1109667
v 0.01362131 0.01270421 -0.02951212
v 0.007901479 -0.003211429 -0.03122605
v 0.01362129 0.04077881 -0.09750488
v 0.01362131 0.02004867 -0.03941169
v 0.008007652 0.03416361 -0.1091342
v 0.01362129 0.04208343 -0.1109667
v -0.0120906 0.08371042 -0.09491917
v -0.0120906 0.04208342 -0.1109667
v 0.0007653466 0.04208343 -0.1109667
v 0.0007653364 0.08904969 -0.09297688
v 0.01362128 0.08371043 -0.09491917
v 0.01362129 0.04208343 -0.1109667
v -0.01209058 0.05351296 -0.02662527
v -0.0120906 0.08371042 -0.09491917
v 0.0007653364 0.08904969 -0.09297688
v 0.0007653561 0.05725649 -0.02662528
v -0.01209058 0.05449264 -0.01352447
v 0.0007653581 0.05752258 -0.01400966
v -0.01209058 0.06138546 -0.004811745
v 0.0007653569 0.06705927 -0.004811749
v 0.0136213 0.05351297 -0.02662528
v 0.01362128 0.08371043 -0.09491917
v 0.0136213 0.05449265 -0.01352447
v 0.0136213 0.06138546 -0.004811745
v -0.01209058 0.06157826 -0.001301432
v -0.01209058 0.06138546 -0.004811745
v 0.0007653569 0.06705927 -0.004811749
v 0.0007653575 0.06725208 -0.001301436
v -0.01209056 0.004032276 0.001731505
v -0.01209058 0.06157826 -0.001301432
v 0.0007653575 0.06725208 -0.001301436
v 0.0007653764 0.001962614 0.001731501
v 0.01362132 0.004032283 0.001731505
v 0.0136213 0.06157827 -0.001301432
v -0.01209058 0.06138546 -0.004811745
v -0.01209058 0.06157826 -0.001301432
v -0.01209056 0.004032276 0.001731505
v -0.01209058 0.05449264 -0.01352447
v -0.01209057 0.002477391 -0.0247367
v -0.01209058 0.05351296 -0.02662527
v -0.01209057 0.0127042 -0.02951212
v -0.01209058 0.02004867 -0.03941169
v -0.01209059 0.0407788 -0.09750488
v -0.0120906 0.04208342 -0.1109667
v -0.0120906 0.08371042 -0.09491917
v -0.01209057 0.0127042 -0.02951212
v -0.01209057 0.002477391 -0.0247367
v -0.006370734 -0.003211429 -0.03122604
v -0.0120906 0.04208342 -0.1109667
v -0.01209059 0.0407788 -0.09750488
v -0.006476954 0.0341636 -0.1091342
v 0.0007653569 0.06705927 -0.004811749
v 0.0136213 0.06138546 -0.004811745
v 0.0136213 0.06157827 -0.001301432
v 0.0007653575 0.06725208 -0.001301436
v 0.0136213 0.06138546 -0.004811745
v 0.01362132 0.004032283 0.001731505
v 0.0136213 0.06157827 -0.001301432
v 0.0136213 0.05449265 -0.01352447
v 0.01362131 0.002477398 -0.02473671
v 0.0136213 0.05351297 -0.02662528
v 0.01362131 0.01270421 -0.02951212
v 0.01362131 0.02004867 -0.03941169
v 0.01362129 0.04077881 -0.09750488
v 0.01362129 0.04208343 -0.1109667
v 0.01362128 0.08371043 -0.09491917
v 0.01362131 0.01270421 -0.02951212
v 0.007901479 -0.003211429 -0.03122605
v 0.01362131 0.002477398 -0.02473671
v 0.01362129 0.04208343 -0.1109667
v 0.008007652 0.03416361 -0.1091342
v 0.01362129 0.04077881 -0.09750488
vt 0.5364764 0.495744
vt 0.5814484 0.4403939
vt 0.4916618 0.4405339
vt 0.4876021 0.491468
vt 0.4930159 0.257584
vt 0.5828687 0.2574439
vt 0.4386724 0.4878858
vt 0.4024353 0.4325323
vt 0.403176 0.2560492
vt 0.8053788 0.5589302
vt 0.8507347 0.6457316
vt 0.8892694 0.6428028
vt 0.8902708 0.572818
vt 0.8037782 0.4907061
vt 0.8872932 0.5110368
vt 0.8171166 0.1324826
vt 0.8971218 0.1305141
vt 0.8559643 0.06421901
vt 0.8959337 0.06690767
vt 0.821485 0.01677134
vt 0.8947177 0.0173178
vt 0.9725093 0.5612745
vt 0.9290212 0.6489679
vt 0.9820235 0.1379716
vt 0.9666293 0.4954026
vt 0.9386487 0.06449748
vt 0.9692191 0.01633882
vt 0.9481508 0.8377641
vt 0.684612 0.8377653
vt 0.684612 0.9137073
vt 0.9817078 0.9137085
vt 0.9481508 0.9896483
vt 0.684612 0.9896495
vt 0.7690624 0.6421596
vt 0.7765497 0.206611
vt 0.6991867 0.2048852
vt 0.6833326 0.6378589
vt 0.762395 0.7123235
vt 0.681577 0.7144729
vt 0.7597332 0.7664412
vt 0.6894035 0.7904688
vt 0.5967418 0.642489
vt 0.624159 0.2044654
vt 0.5997027 0.7232909
vt 0.6134284 0.7965189
vt 0.7662849 0.7738132
vt 0.7597332 0.7664412
vt 0.6894035 0.7904688
vt 0.6973268 0.8105242
vt 0.776848 0.02750092
vt 0.4364195 0.02749299
vt 0.4029416 0.1034504
vt 0.7890595 0.1034426
vt 0.776848 0.1793926
vt 0.4364195 0.1793849
vt 0.1762494 0.9260668
vt 0.1747073 0.9504601
vt 0.5746026 0.9748532
vt 0.2246702 0.8658906
vt 0.5869335 0.7909311
vt 0.2322342 0.7748679
vt 0.5161096 0.7571438
vt 0.4656186 0.6878979
vt 0.3248384 0.2828326
vt 0.3165422 0.1891684
vt 0.02622162 0.2983413
vt 0.8053788 0.5589302
vt 0.7959228 0.6234092
vt 0.8507347 0.6457316
vt 0.8588722 0.667249
vt 0.7789785 0.667249
vt 0.8435848 0.7235676
vt 0.6894035 0.7904688
vt 0.6134284 0.7965189
vt 0.6185231 0.826534
vt 0.6973268 0.8105242
vt 0.1762494 0.9260668
vt 0.5746026 0.9748531
vt 0.1747073 0.9504599
vt 0.2246702 0.8658906
vt 0.5869339 0.7909308
vt 0.2322342 0.7748678
vt 0.5161096 0.7571436
vt 0.4656188 0.6878979
vt 0.3248383 0.2828324
vt 0.3165421 0.1891683
vt 0.02622149 0.2983412
vt 0.9725093 0.5612745
vt 0.9290212 0.6489679
vt 0.9841435 0.6254839
vt 0.8403487 0.8149125
vt 0.8250616 0.7585937
vt 0.7604553 0.8149124
vn -0.08562738 -0.8271253 0.5554564
vn -0.1368904 -0.9599204 0.2445686
vn 2.934854E-07 -0.9448557 0.3274869
vn 2.951617E-07 -0.8301742 0.5575041
vn 3.056455E-07 -0.998279 0.05864428
vn -0.1586756 -0.9856315 0.05790132
vn 0.08562794 -0.8271251 0.5554565
vn 0.1368909 -0.9599204 0.2445686
vn 0.1586761 -0.9856315 0.05790127
vn -0.3278633 -0.52583 -0.7848621
vn -0.1489963 -0.01387702 -0.9887404
vn -1.678855E-07 -0.01403354 -0.9999015
vn 0 -0.3848557 -0.9229767
vn -0.3826573 -0.8171495 -0.4310919
vn 1.694827E-07 -0.8640748 -0.5033634
vn -0.3186644 -0.9443416 -0.08168188
vn 3.1365E-07 -0.9994067 0.03444054
vn -0.118619 -0.8420042 -0.5262684
vn 3.01387E-07 -0.8766714 -0.4810897
vn -8.162894E-07 -0.2254287 -0.9742596
vn 0 -0.2254288 -0.9742596
vn 0.3278633 -0.5258298 -0.7848621
vn 0.1489959 -0.01387676 -0.9887404
vn 0.3186649 -0.9443414 -0.081682
vn 0.3826577 -0.8171492 -0.4310919
vn 0.1186197 -0.8420042 -0.5262683
vn 9.804593E-07 -0.2254287 -0.9742596
vn -0.003959506 0.3586377 -0.9334685
vn -0.003959506 0.3586377 -0.9334685
vn -0.003959506 0.3586377 -0.9334685
vn -0.003959506 0.3586377 -0.9334685
vn 0.003959223 0.3586377 -0.9334685
vn 0.003959223 0.3586377 -0.9334685
vn -0.3007631 0.9381236 0.1716552
vn -0.3324246 0.8566946 0.3944215
vn -3.095435E-07 0.9083528 0.4182048
vn -3.392443E-07 0.9806353 0.1958433
vn -0.269461 0.8928379 -0.3608755
vn -3.263379E-07 0.9182228 -0.3960643
vn -0.2536373 0.7128221 -0.6538751
vn -2.293974E-07 0.73692 -0.67598
vn 0.3007625 0.9381239 0.1716551
vn 0.332424 0.8566948 0.3944214
vn 0.2694603 0.8928381 -0.3608755
vn 0.2536367 0.7128225 -0.6538749
vn -0.4032551 0.9137105 -0.05018548
vn -0.4032551 0.9137104 -0.05018548
vn -0.4032551 0.9137105 -0.05018548
vn -0.4032551 0.9137105 -0.05018548
vn -0.006913157 0.04932083 0.998759
vn -0.006913156 0.04932082 0.998759
vn -0.006913157 0.04932083 0.998759
vn -0.006913157 0.04932083 0.998759
vn 0.006913137 0.04932084 0.998759
vn 0.006913137 0.04932084 0.998759
vn -1 -2.74142E-07 6.94252E-07
vn -1 -2.74142E-07 6.94252E-07
vn -1 -2.74142E-07 6.94252E-07
vn -1 -2.95139E-07 1.996664E-07
vn -1 -2.95139E-07 1.996665E-07
vn -1 -2.95139E-07 1.996664E-07
vn -1 -3.457741E-07 3.455644E-07
vn -1 -3.457741E-07 3.455644E-07
vn -1 -2.777897E-07 1.676373E-07
vn -1 -2.893986E-07 1.946932E-07
vn -1 -2.893986E-07 1.946932E-07
vn -0.8229904 -0.2403426 -0.5147062
vn -0.8229902 -0.2403426 -0.5147062
vn -0.8229904 -0.2403426 -0.5147061
vn -0.8082774 -0.5860562 -0.05679586
vn -0.8082774 -0.5860562 -0.05679586
vn -0.8082774 -0.5860562 -0.05679586
vn 0.4032547 0.9137106 -0.05018571
vn 0.4032547 0.9137106 -0.05018572
vn 0.4032547 0.9137106 -0.05018571
vn 0.4032547 0.9137106 -0.05018572
vn 1 2.68524E-07 0
vn 1 2.685239E-07 0
vn 1 2.68524E-07 0
vn 1 2.48661E-07 -1.966893E-07
vn 1 2.48661E-07 -1.966894E-07
vn 1 2.48661E-07 -1.966894E-07
vn 1 2.02379E-07 0
vn 1 2.02379E-07 0
vn 1 2.777897E-07 -1.676374E-07
vn 1 2.859655E-07 -1.376915E-07
vn 1 2.859655E-07 -1.376915E-07
vn 0.8229904 -0.2403419 -0.5147063
vn 0.8229904 -0.2403419 -0.5147063
vn 0.8229904 -0.2403419 -0.5147063
vn 0.8082777 -0.5860556 -0.05679609
vn 0.8082777 -0.5860556 -0.05679609
vn 0.8082777 -0.5860556 -0.05679609
g pistolgrip_ak_magpul_moe_ak_LOD1_0
f 3/3/3 2/2/2 1/1/1
f 4/4/4 3/3/3 1/1/1
f 3/3/3 5/5/5 2/2/2
f 5/5/5 6/6/6 2/2/2
f 4/4/4 7/7/7 3/3/3
f 7/7/7 8/8/8 3/3/3
f 3/3/3 8/8/8 5/5/5
f 8/8/8 9/9/9 5/5/5
f 12/12/12 11/11/11 10/10/10
f 13/13/13 12/12/12 10/10/10
f 13/13/13 10/10/10 14/14/14
f 15/15/15 13/13/13 14/14/14
f 15/15/15 14/14/14 16/16/16
f 17/17/17 15/15/15 16/16/16
f 17/17/17 16/16/16 18/18/18
f 19/19/19 17/17/17 18/18/18
f 19/19/19 18/18/18 20/20/20
f 21/21/21 19/19/19 20/20/20
f 13/13/13 22/22/22 12/12/12
f 22/22/22 23/23/23 12/12/12
f 17/17/17 24/24/24 15/15/15
f 24/24/24 25/25/25 15/15/15
f 25/25/25 22/22/22 13/13/13
f 15/15/15 25/25/25 13/13/13
f 26/26/26 24/24/24 17/17/17
f 19/19/19 26/26/26 17/17/17
f 27/27/27 26/26/26 19/19/19
f 21/21/21 27/27/27 19/19/19
f 30/30/30 29/29/29 28/28/28
f 31/31/31 30/30/30 28/28/28
f 31/31/31 32/32/32 30/30/30
f 32/32/32 33/33/33 30/30/30
f 36/36/36 35/35/35 34/34/34
f 37/37/37 36/36/36 34/34/34
f 37/37/37 34/34/34 38/38/38
f 39/39/39 37/37/37 38/38/38
f 39/39/39 38/38/38 40/40/40
f 41/41/41 39/39/39 40/40/40
f 37/37/37 42/42/42 36/36/36
f 42/42/42 43/43/43 36/36/36
f 44/44/44 42/42/42 37/37/37
f 39/39/39 44/44/44 37/37/37
f 45/45/45 44/44/44 39/39/39
f 41/41/41 45/45/45 39/39/39
f 48/48/48 47/47/47 46/46/46
f 49/49/49 48/48/48 46/46/46
f 52/52/52 51/51/51 50/50/50
f 53/53/53 52/52/52 50/50/50
f 53/53/53 54/54/54 52/52/52
f 54/54/54 55/55/55 52/52/52
f 58/58/58 57/57/57 56/56/56
f 59/59/59 58/58/58 56/56/56
f 60/60/60 58/58/58 59/59/59
f 61/61/61 60/60/60 59/59/59
f 62/62/62 60/60/60 61/61/61
f 63/63/63 62/62/62 61/61/61
f 64/64/64 63/63/63 61/61/61
f 65/65/65 64/64/64 61/61/61
f 66/66/66 65/65/65 61/61/61
f 69/69/69 68/68/68 67/67/67
f 72/72/72 71/71/71 70/70/70
f 75/75/75 74/74/74 73/73/73
f 76/76/76 75/75/75 73/73/73
f 79/79/79 78/78/78 77/77/77
f 78/78/78 80/80/80 77/77/77
f 78/78/78 81/81/81 80/80/80
f 81/81/81 82/82/82 80/80/80
f 81/81/81 83/83/83 82/82/82
f 83/83/83 84/84/84 82/82/82
f 84/84/84 85/85/85 82/82/82
f 85/85/85 86/86/86 82/82/82
f 86/86/86 87/87/87 82/82/82
f 90/90/90 89/89/89 88/88/88
f 93/93/93 92/92/92 91/91/91
