g pistolgrip_vz58_fab_defence_ag_58_LOD1
v 0 0.01806419 -0.0650157
v 0.006852 0.0201692 -0.0638177
v 0.006498 0.0287252 -0.1036027
v 0 0.0276992 -0.1037167
v 0.013539 0.03728119 -0.1033387
v 0.012305 0.0244232 -0.0610657
v 0.015507 0.0325692 -0.0512747
v 0.016506 0.04605419 -0.1009667
v 0.007678 0.01355021 -0.05326571
v 0 0.0107332 -0.0535237
v 0.01313 0.0197122 -0.05253671
v 0.015055 0.0395632 -0.03725869
v 0 0.01115419 -0.0442067
v 0.006972 0.01341919 -0.0442667
v 0.012972 0.02096621 -0.0398857
v 0.014668 0.02910521 -0.0405117
v 0.007008 0.0101012 -0.03420071
v 0 0.006832199 -0.0335037
v 0.011645 0.004265194 -0.0274577
v 0.015084 0.0159552 -0.0291287
v 0.015357 0.0285512 -0.0319567
v 0.014998 0.06008419 -0.06166069
v 0.015029 0.0656892 -0.0809627
v 0.007307 -0.00109581 -0.0263187
v 0.013893 0.03729118 -0.003573699
v 0.012878 0.02487019 0.0006043005
v 0.01378 0.04867018 -0.0003646993
v 0.013711 0.0482132 -0.004492698
v 0.010328 0.05795818 -0.0008686924
v 0.010311 0.0577042 -0.005137691
v 0 0.06285521 -0.005480695
v 0 0.06309418 -0.001094694
v 0.010502 0.01020119 -0.002098703
v 0.009244 0.007346172 0.001318297
v 0.007873 0.003197174 -0.002953701
v -0.010328 0.05795818 -0.0008686924
v -0.010311 0.0577042 -0.005137691
v -0.013711 0.0482132 -0.004492698
v -0.01378 0.04867018 -0.0003646993
v -0.013893 0.03729118 -0.003573699
v -0.012878 0.02487019 0.0006043005
v -0.010502 0.01020119 -0.002098703
v -0.009244 0.007346172 0.001318297
v -0.007873 0.003197174 -0.002953701
v 0 0.05949119 -0.03673269
v 0.008508 0.05728019 -0.03698369
v 0.007623 0.05168619 -0.02637169
v 0 0.0539632 -0.0261397
v 0.009243 0.07284319 -0.06238369
v 0 0.07528619 -0.0608937
v 0 0.0833322 -0.08599469
v 0.010276 0.0805172 -0.08677269
v 0.009612 0.0827832 -0.0963347
v 0 0.0859202 -0.09408069
v 0.012275 0.0772032 -0.09909769
v 0.014998 0.06008419 -0.06166069
v 0.015055 0.0395632 -0.03725869
v 0 0.0523732 -0.0169837
v 0.006703 0.05052919 -0.01742369
v 0.008115 0.05233919 -0.009633694
v 0 0.05585619 -0.009531694
v 0.010311 0.0577042 -0.005137691
v 0.013711 0.0482132 -0.004492698
v 0.013291 0.04413019 -0.0076297
v 0.013893 0.03729118 -0.003573699
v 0 0.06285521 -0.005480695
v 0.015029 0.0656892 -0.0809627
v 0.015498 0.0633532 -0.09536669
v 0.016506 0.04605419 -0.1009667
v 0.015539 0.06247021 -0.1051787
v 0.015206 0.0493362 -0.1091557
v 0.013539 0.03728119 -0.1033387
v 0.013492 0.03795019 -0.1114047
v 0.006498 0.0287252 -0.1036027
v 0.007861 0.0299452 -0.1115337
v 0 0.0276992 -0.1037167
v 0 0.0286672 -0.1114387
v 0.013647 0.0385322 -0.0119017
v 0.015084 0.0159552 -0.0291287
v 0.010502 0.01020119 -0.002098703
v 0.010154 0.003269196 -0.0232287
v 0.007873 0.003197174 -0.002953701
v 0.007714 0.0009531975 -0.0209567
v 0.007722 -0.0005077934 -0.0231007
v 0.015357 0.0285512 -0.0319567
v 0.009106 0.04442619 -0.0214597
v 0.007307 -0.00109581 -0.0263187
v 0.011645 0.004265194 -0.0274577
v 0.010328 0.05795818 -0.0008686924
v 0.01378 0.04867018 -0.0003646993
v 0 0.06309418 -0.001094694
v 0.012878 0.02487019 0.0006043005
v -0.009244 0.007346172 0.001318297
v 0.009244 0.007346172 0.001318297
v -0.012878 0.02487019 0.0006043005
v -0.01378 0.04867018 -0.0003646993
v -0.010328 0.05795818 -0.0008686924
v 0 0.0433032 -0.1103477
v 0.015206 0.0493362 -0.1091557
v 0.015539 0.06247021 -0.1051787
v 0 0.0707012 -0.1017807
v 0.012275 0.0772032 -0.09909769
v 0 0.0859202 -0.09408069
v 0.013492 0.03795019 -0.1114047
v 0.009612 0.0827832 -0.0963347
v 0.007861 0.0299452 -0.1115337
v 0 0.0286672 -0.1114387
v -0.015539 0.06247021 -0.1051787
v -0.015206 0.0493362 -0.1091557
v -0.012275 0.0772032 -0.09909769
v -0.013492 0.03795019 -0.1114047
v -0.009612 0.0827832 -0.0963347
v -0.007861 0.0299452 -0.1115337
v -0.007307 -0.00109581 -0.0263187
v -0.007722 -0.0005077934 -0.0231007
v 0.007722 -0.0005077934 -0.0231007
v 0.007307 -0.00109581 -0.0263187
v -0.007714 0.0009531975 -0.0209567
v 0.007714 0.0009531975 -0.0209567
v -0.007873 0.003197174 -0.002953701
v 0.007873 0.003197174 -0.002953701
v 0 0.006832199 -0.0335037
v -0.007307 -0.00109581 -0.0263187
v 0.007307 -0.00109581 -0.0263187
v -0.011645 0.004265194 -0.0274577
v -0.007008 0.0101012 -0.03420071
v 0 0.01115419 -0.0442067
v -0.006972 0.01341919 -0.0442667
v -0.007678 0.01355021 -0.05326571
v 0 0.0107332 -0.0535237
v 0 0.01806419 -0.0650157
v -0.006852 0.0201692 -0.0638177
v -0.006498 0.0287252 -0.1036027
v 0 0.0276992 -0.1037167
v -0.013539 0.03728119 -0.1033387
v -0.012305 0.0244232 -0.0610657
v -0.015507 0.0325692 -0.0512747
v -0.016506 0.04605419 -0.1009667
v -0.01313 0.0197122 -0.05253671
v -0.015055 0.0395632 -0.03725869
v -0.012972 0.02096621 -0.0398857
v -0.014668 0.02910521 -0.0405117
v -0.015084 0.0159552 -0.0291287
v -0.015357 0.0285512 -0.0319567
v -0.014998 0.06008419 -0.06166069
v -0.015029 0.0656892 -0.0809627
v -0.015498 0.0633532 -0.09536669
v 0.007873 0.003197174 -0.002953701
v -0.007873 0.003197174 -0.002953701
v -0.009244 0.007346172 0.001318297
v 0.009244 0.007346172 0.001318297
v -0.007623 0.05168619 -0.02637169
v -0.008508 0.05728019 -0.03698369
v -0.009243 0.07284319 -0.06238369
v -0.010276 0.0805172 -0.08677269
v -0.009612 0.0827832 -0.0963347
v -0.012275 0.0772032 -0.09909769
v -0.014998 0.06008419 -0.06166069
v -0.015055 0.0395632 -0.03725869
v -0.006703 0.05052919 -0.01742369
v -0.008115 0.05233919 -0.009633694
v -0.010311 0.0577042 -0.005137691
v -0.013711 0.0482132 -0.004492698
v -0.013291 0.04413019 -0.0076297
v -0.013893 0.03729118 -0.003573699
v -0.015029 0.0656892 -0.0809627
v -0.015498 0.0633532 -0.09536669
v -0.015539 0.06247021 -0.1051787
v -0.016506 0.04605419 -0.1009667
v -0.015206 0.0493362 -0.1091557
v -0.013539 0.03728119 -0.1033387
v -0.013492 0.03795019 -0.1114047
v -0.006498 0.0287252 -0.1036027
v -0.007861 0.0299452 -0.1115337
v 0 0.0276992 -0.1037167
v 0 0.0286672 -0.1114387
v -0.013647 0.0385322 -0.0119017
v -0.015084 0.0159552 -0.0291287
v -0.010502 0.01020119 -0.002098703
v -0.010154 0.003269196 -0.0232287
v -0.007873 0.003197174 -0.002953701
v -0.007714 0.0009531975 -0.0209567
v -0.007722 -0.0005077934 -0.0231007
v -0.015357 0.0285512 -0.0319567
v -0.009106 0.04442619 -0.0214597
v -0.007307 -0.00109581 -0.0263187
v -0.011645 0.004265194 -0.0274577
vt 0.267422 0.706307
vt 0.262962 0.748691
vt 0.49861 0.73892
vt 0.497252 0.701172
vt 0.50967 0.801572
vt 0.253702 0.792101
vt 0.211665 0.856731
vt 0.51006 0.856539
vt 0.191734 0.739373
vt 0.1894929 0.6989491
vt 0.197685 0.783835
vt 0.144523 0.917338
vt 0.136362 0.702283
vt 0.140119 0.745133
vt 0.1274281 0.806615
vt 0.14561 0.853448
vt 0.07756805 0.743305
vt 0.07306099 0.697176
vt 0.01929295 0.750139
vt 0.05777001 0.805799
vt 0.09774101 0.866122
vt 0.3118989 0.994916
vt 0.4282351 0.996866
vt 0.0008929968 0.714518
vt 0.3282778 0.6725504
vt 0.2540476 0.6934866
vt 0.3931534 0.6934866
vt 0.3922748 0.6725506
vt 0.4510755 0.6934866
vt 0.4512548 0.6725504
vt 0.5185775 0.6725504
vt 0.5184271 0.6934866
vt 0.1686722 0.6725506
vt 0.1495204 0.6934866
vt 0.125294 0.6629919
vt 0.5857825 0.6934866
vt 0.5858957 0.6725504
vt 0.6448703 0.6725503
vt 0.6437078 0.6934866
vt 0.7088553 0.6725506
vt 0.7828524 0.6934866
vt 0.8684805 0.6725506
vt 0.8874077 0.6934866
vt 0.9119394 0.6676015
vt 0.508998 0.412939
vt 0.455852 0.41319
vt 0.4517699 0.493404
vt 0.507619 0.493478
vt 0.45933 0.228599
vt 0.512066 0.233279
vt 0.514731 0.072247
vt 0.450302 0.073838
vt 0.450101 0.014132
vt 0.515559 0.020429
vt 0.407057 0.008904
vt 0.384991 0.26311
vt 0.350998 0.445807
vt 0.506511 0.557962
vt 0.452319 0.555562
vt 0.447729 0.608741
vt 0.505548 0.614018
vt 0.4491839 0.652787
vt 0.398098 0.638114
vt 0.383876 0.613214
vt 0.335452 0.634402
vt 0.5046231 0.667855
vt 0.3711849 0.138112
vt 0.330992 0.057708
vt 0.219672 0.056535
vt 0.307891 0.002097
vt 0.224255 0.002317
vt 0.161182 0.055401
vt 0.153108 0.0068
vt 0.09471297 0.068824
vt 0.09472704 0.019136
vt 0.05508399 0.075694
vt 0.04705501 0.028842
vt 0.354616 0.585503
vt 0.2208591 0.473912
vt 0.1683969 0.634206
vt 0.135215 0.502868
vt 0.123162 0.626748
vt 0.1149369 0.516661
vt 0.107765 0.502751
vt 0.295781 0.471475
vt 0.405651 0.531458
vt 0.103856 0.483116
vt 0.145987 0.476976
vt 0.8187701 0.14941
vt 0.799569 0.20241
vt 0.877225 0.119749
vt 0.805733 0.337707
vt 0.932199 0.436375
vt 0.82716 0.437197
vt 0.95208 0.336567
vt 0.9561599 0.201191
vt 0.9361351 0.148494
vt 0.126255 0.371127
vt 0.21296 0.335268
vt 0.214175 0.256875
vt 0.124819 0.206862
vt 0.1947711 0.166018
vt 0.123969 0.109337
vt 0.203748 0.40161
vt 0.179248 0.130564
vt 0.171837 0.447522
vt 0.1269881 0.455107
vt 0.03635395 0.258431
vt 0.03893805 0.336787
vt 0.05416501 0.167248
vt 0.04930902 0.40296
vt 0.069067 0.131527
vt 0.08201396 0.448305
vt 0.762455 0.362714
vt 0.762454 0.341661
vt 0.664866 0.34166
vt 0.664866 0.362714
vt 0.762455 0.325099
vt 0.664866 0.325098
vt 0.762455 0.20954
vt 0.664865 0.20954
vt 0.931049 0.709141
vt 0.999229 0.727183
vt 0.972697 0.651846
vt 0.980836 0.760341
vt 0.925884 0.752675
vt 0.871107 0.712739
vt 0.8667181 0.753167
vt 0.818043 0.746711
vt 0.8210551 0.703522
vt 0.747151 0.713984
vt 0.750535 0.754128
vt 0.5280041 0.740278
vt 0.530028 0.704628
vt 0.516325 0.79927
vt 0.758435 0.795335
vt 0.796899 0.85724
vt 0.514873 0.8512
vt 0.811547 0.78862
vt 0.859171 0.915837
vt 0.877502 0.811527
vt 0.8593971 0.855435
vt 0.943352 0.812145
vt 0.904386 0.868358
vt 0.699458 0.985863
vt 0.589471 0.985449
vt 0.51747 0.9508
vt 0.2485501 0.3176315
vt 0.342904 0.3176315
vt 0.350808 0.2819475
vt 0.240023 0.2819475
vt 0.5634381 0.495312
vt 0.562106 0.414994
vt 0.564934 0.230375
vt 0.579098 0.075981
vt 0.581127 0.016289
vt 0.624168 0.012378
vt 0.63806 0.267394
vt 0.665782 0.451185
vt 0.5607539 0.557419
vt 0.563512 0.610727
vt 0.560545 0.654697
vt 0.612103 0.641785
vt 0.6271729 0.617387
vt 0.6748379 0.640234
vt 0.656086 0.142889
vt 0.699227 0.062821
vt 0.723189 0.007401
vt 0.8110729 0.062284
vt 0.8068171 0.00805
vt 0.869567 0.061526
vt 0.877952 0.012977
vt 0.9359469 0.075379
vt 0.936257 0.025694
vt 0.975533 0.08251
vt 0.983862 0.03571
vt 0.657369 0.590698
vt 0.794888 0.483779
vt 0.841799 0.645784
vt 0.879487 0.515665
vt 0.887264 0.63989
vt 0.899277 0.530151
vt 0.906927 0.516498
vt 0.720094 0.478751
vt 0.608223 0.534922
vt 0.911509 0.49701
vt 0.869612 0.489418
vn 0 -0.9226644 -0.3856039
vn 0.5288212 -0.7781673 -0.338827
vn 0.5150238 -0.8334983 -0.2000777
vn 0 -0.9739213 -0.2268859
vn 0.8696737 -0.4804711 -0.1132035
vn 0.8697262 -0.448048 -0.2069528
vn 0.9939134 -0.1096732 -0.01039511
vn 0.9854723 -0.1672773 -0.02937367
vn 0.5497242 -0.8054856 -0.2213512
vn 0 -0.9660527 -0.2583452
vn 0.8773063 -0.4587347 -0.1410538
vn 0.9999406 -0.00896455 0.006198891
vn 0 -0.9857945 -0.1679551
vn 0.5937983 -0.7993123 -0.09221367
vn 0.9250289 -0.3499987 -0.1477243
vn 0.9938758 -0.1045231 -0.0358583
vn 0.5197895 -0.6809095 -0.5159273
vn 0 -0.7744075 -0.6326872
vn 0.451075 -0.5123127 -0.730799
vn 0.8083033 -0.3742295 -0.4545305
vn 0.9863918 -0.08220726 -0.1423845
vn 0.9989393 0.0391007 0.02431872
vn 0.9982315 0.05664874 0.0180246
vn 0.1983687 -0.5514433 -0.810284
vn 0.9928011 -0.03700265 0.1139167
vn 0.9894018 -0.145151 -0.003910113
vn 0.9832662 0.1817711 -0.01211172
vn 0.9837939 0.1770054 -0.02861079
vn 0.745526 0.664703 -0.04858913
vn 0.7448032 0.6655126 -0.04859253
vn 0 0.9983258 -0.05784148
vn 0 0.9983258 -0.05784148
vn 0.9765809 -0.2151504 -0.0002384202
vn 0.957216 -0.2883986 0.02374711
vn 0.9333732 -0.3559205 0.04620671
vn -0.745526 0.664703 -0.04858913
vn -0.7448032 0.6655126 -0.04859253
vn -0.9837939 0.1770054 -0.02861079
vn -0.9832662 0.1817711 -0.01211172
vn -0.9928011 -0.03700265 0.1139167
vn -0.9894018 -0.145151 -0.003910113
vn -0.9765809 -0.2151504 -0.0002384202
vn -0.957216 -0.2883986 0.02374711
vn -0.9333732 -0.3559205 0.04620671
vn 0 0.8615638 0.5076493
vn 0.6426238 0.6461821 0.4116836
vn 0.6899543 0.6627643 0.2910441
vn 0 0.9440663 0.3297557
vn 0.6314492 0.7018884 0.3295824
vn 0 0.9033588 0.4288856
vn 0 0.9597004 0.2810252
vn 0.696358 0.6927698 0.187498
vn 0.6927118 0.7070951 0.1420103
vn 0 0.9672842 0.2536951
vn 0.9521589 0.3048015 0.02212576
vn 0.8971596 0.3826253 0.2206867
vn 0.9199068 0.277902 0.2766623
vn 0 0.9936436 -0.1125716
vn 0.6736057 0.7291555 -0.1207789
vn 0.6050103 0.5805848 -0.5448704
vn 0 0.7358939 -0.6770968
vn 0.4619197 0.4520607 -0.763067
vn 0.8371346 0.2161055 -0.5024977
vn 0.9466516 0.2113366 -0.243285
vn 0.9999056 -0.01106264 0.008153931
vn 0 0.5008972 -0.8655068
vn 0.950786 0.2969694 0.08840418
vn 0.9884199 0.1512522 0.01220698
vn 0.9931756 -0.06847349 -0.0944133
vn 0.993265 0.1110092 -0.03318831
vn 0.9868785 -0.08010901 -0.1401908
vn 0.911694 -0.4045457 -0.07181115
vn 0.9061246 -0.4175255 -0.06790272
vn 0.4712884 -0.878581 -0.07734793
vn 0.5568417 -0.8283309 -0.06160508
vn 0 -0.9921778 -0.1248328
vn 0 -0.9921896 -0.124739
vn 0.9774029 0.19436 -0.08311322
vn 0.9939892 -0.06103505 0.09088501
vn 0.9488484 -0.2933435 0.1167747
vn 0.89929 -0.4091367 0.1545469
vn 0.8804332 -0.4640553 0.09741729
vn 0.852697 -0.4827663 0.1996108
vn 0.8357261 -0.5338424 0.1287401
vn 0.9762957 0.2006497 0.08115631
vn 0.9519401 0.3044129 0.03380776
vn 0.8171961 -0.573522 0.05712333
vn 0.9006069 -0.3683012 0.2307843
vn 0.006246466 0.05645661 0.9983855
vn -0.002622628 0.04501383 0.9989828
vn 0.0005071258 0.04692171 0.9988984
vn -0.003182954 0.04253475 0.9990898
vn 5.960526E-06 0.04177136 0.9991272
vn 0 0.04062692 0.9991743
vn 0.008320672 0.04157952 0.9991006
vn 0.0061631 0.04386887 0.9990183
vn -0.006246466 0.05645661 0.9983855
vn 0 0.1844382 -0.9828441
vn -0.03105197 0.2609081 -0.964864
vn -0.0398983 0.3312977 -0.9426823
vn 0 0.3765152 -0.9264105
vn -0.03095766 0.4154073 -0.9091086
vn 0 0.4153901 -0.9096434
vn -0.02084906 0.1291235 -0.9914092
vn -0.07837462 0.4121492 -0.9077392
vn -0.04156481 0.06408158 -0.9970788
vn 0 0.06408815 -0.9979442
vn 0.0398983 0.3312977 -0.9426823
vn 0.03105197 0.2609081 -0.964864
vn 0.03095766 0.4154073 -0.9091086
vn 0.02084906 0.1291235 -0.9914092
vn 0.07837462 0.4121492 -0.9077392
vn 0.04156481 0.06408158 -0.9970788
vn 0 -0.9837062 0.1797834
vn 0 -0.9218023 0.3876605
vn 0 -0.9218023 0.3876605
vn 0 -0.9837062 0.1797834
vn 0 -0.9356849 0.3528367
vn 0 -0.9356849 0.3528367
vn 0 -0.9923219 0.1236826
vn 0 -0.9923219 0.1236826
vn 0 -0.7744075 -0.6326872
vn -0.1983687 -0.5514433 -0.810284
vn 0.1983687 -0.5514433 -0.810284
vn -0.451075 -0.5123127 -0.730799
vn -0.5197895 -0.6809095 -0.5159273
vn 0 -0.9857945 -0.1679551
vn -0.5937983 -0.7993123 -0.09221367
vn -0.5497242 -0.8054856 -0.2213512
vn 0 -0.9660527 -0.2583452
vn 0 -0.9226644 -0.3856039
vn -0.5288212 -0.7781673 -0.338827
vn -0.5150238 -0.8334983 -0.2000777
vn 0 -0.9739213 -0.2268859
vn -0.8696737 -0.4804711 -0.1132035
vn -0.8697262 -0.448048 -0.2069528
vn -0.9939134 -0.1096732 -0.01039511
vn -0.9908249 -0.1335135 -0.02098069
vn -0.8773063 -0.4587347 -0.1410538
vn -0.9999406 -0.00896455 0.006198891
vn -0.9250289 -0.3499987 -0.1477243
vn -0.9938758 -0.1045231 -0.0358583
vn -0.8083033 -0.3742295 -0.4545305
vn -0.9863918 -0.08220726 -0.1423845
vn -0.9989393 0.0391007 0.02431872
vn -0.9982795 0.05531295 0.0194549
vn -0.9984353 0.0503539 0.02431864
vn 0 -0.717355 0.6967079
vn 0 -0.717355 0.6967079
vn 0 -0.717355 0.6967079
vn 0 -0.717355 0.6967079
vn -0.6899543 0.6627643 0.2910441
vn -0.6426238 0.6461821 0.4116836
vn -0.6314492 0.7018884 0.3295824
vn -0.696358 0.6927698 0.187498
vn -0.6927118 0.7070951 0.1420103
vn -0.9521589 0.3048015 0.02212576
vn -0.8971596 0.3826253 0.2206867
vn -0.9199068 0.277902 0.2766623
vn -0.6736057 0.7291555 -0.1207789
vn -0.6050103 0.5805848 -0.5448704
vn -0.4619197 0.4520607 -0.763067
vn -0.8371346 0.2161055 -0.5024977
vn -0.9466516 0.2113366 -0.243285
vn -0.9999056 -0.01106264 0.008153931
vn -0.9361444 0.3374206 0.09889915
vn -0.9798754 0.1995109 0.00629432
vn -0.993265 0.1110092 -0.03318831
vn -0.9898674 -0.08659373 -0.1125337
vn -0.9868785 -0.08010901 -0.1401908
vn -0.911694 -0.4045457 -0.07181115
vn -0.9061246 -0.4175255 -0.06790272
vn -0.4712884 -0.878581 -0.07734793
vn -0.5568417 -0.8283309 -0.06160508
vn 0 -0.9921778 -0.1248328
vn 0 -0.9921896 -0.124739
vn -0.9774029 0.19436 -0.08311322
vn -0.9939892 -0.06103505 0.09088501
vn -0.9488484 -0.2933435 0.1167747
vn -0.89929 -0.4091367 0.1545469
vn -0.8804332 -0.4640553 0.09741729
vn -0.852697 -0.4827663 0.1996108
vn -0.8357261 -0.5338424 0.1287401
vn -0.9762957 0.2006497 0.08115631
vn -0.9519401 0.3044129 0.03380776
vn -0.8171961 -0.573522 0.05712333
vn -0.9006069 -0.3683012 0.2307843
g pistolgrip_vz58_fab_defence_ag_58_LOD1_0
f 3/3/3 2/2/2 1/1/1
f 4/4/4 3/3/3 1/1/1
f 3/3/3 5/5/5 2/2/2
f 5/5/5 6/6/6 2/2/2
f 7/7/7 6/6/6 5/5/5
f 8/8/8 7/7/7 5/5/5
f 1/1/1 2/2/2 9/9/9
f 9/9/9 2/2/2 6/6/6
f 10/10/10 1/1/1 9/9/9
f 11/11/11 9/9/9 6/6/6
f 6/6/6 7/7/7 11/11/11
f 8/8/8 12/12/12 7/7/7
f 10/10/10 9/9/9 13/13/13
f 9/9/9 14/14/14 13/13/13
f 9/9/9 11/11/11 14/14/14
f 11/11/11 15/15/15 14/14/14
f 11/11/11 7/7/7 15/15/15
f 7/7/7 16/16/16 15/15/15
f 7/7/7 12/12/12 16/16/16
f 13/13/13 14/14/14 17/17/17
f 15/15/15 17/17/17 14/14/14
f 18/18/18 13/13/13 17/17/17
f 17/17/17 15/15/15 19/19/19
f 19/19/19 18/18/18 17/17/17
f 15/15/15 20/20/20 19/19/19
f 15/15/15 16/16/16 20/20/20
f 16/16/16 21/21/21 20/20/20
f 21/21/21 16/16/16 12/12/12
f 12/12/12 8/8/8 22/22/22
f 8/8/8 23/23/23 22/22/22
f 24/24/24 18/18/18 19/19/19
f 27/27/27 26/26/26 25/25/25
f 28/28/28 27/27/27 25/25/25
f 27/27/27 28/28/28 29/29/29
f 28/28/28 30/30/30 29/29/29
f 29/29/29 30/30/30 31/31/31
f 32/32/32 29/29/29 31/31/31
f 33/33/33 25/25/25 26/26/26
f 34/34/34 33/33/33 26/26/26
f 35/35/35 33/33/33 34/34/34
f 36/36/36 32/32/32 31/31/31
f 37/37/37 36/36/36 31/31/31
f 37/37/37 38/38/38 36/36/36
f 38/38/38 39/39/39 36/36/36
f 39/39/39 38/38/38 40/40/40
f 41/41/41 39/39/39 40/40/40
f 40/40/40 42/42/42 41/41/41
f 42/42/42 43/43/43 41/41/41
f 42/42/42 44/44/44 43/43/43
f 47/47/47 46/46/46 45/45/45
f 48/48/48 47/47/47 45/45/45
f 45/45/45 46/46/46 49/49/49
f 50/50/50 45/45/45 49/49/49
f 51/51/51 50/50/50 49/49/49
f 52/52/52 51/51/51 49/49/49
f 51/51/51 52/52/52 53/53/53
f 54/54/54 51/51/51 53/53/53
f 53/53/53 52/52/52 55/55/55
f 56/56/56 49/49/49 46/46/46
f 57/57/57 56/56/56 46/46/46
f 46/46/46 47/47/47 57/57/57
f 48/48/48 58/58/58 47/47/47
f 58/58/58 59/59/59 47/47/47
f 59/59/59 58/58/58 60/60/60
f 58/58/58 61/61/61 60/60/60
f 62/62/62 60/60/60 61/61/61
f 62/62/62 63/63/63 60/60/60
f 63/63/63 64/64/64 60/60/60
f 64/64/64 59/59/59 60/60/60
f 64/64/64 63/63/63 65/65/65
f 61/61/61 66/66/66 62/62/62
f 52/52/52 67/67/67 55/55/55
f 67/67/67 68/68/68 55/55/55
f 67/67/67 69/69/69 68/68/68
f 70/70/70 55/55/55 68/68/68
f 69/69/69 70/70/70 68/68/68
f 71/71/71 70/70/70 69/69/69
f 71/71/71 69/69/69 72/72/72
f 73/73/73 71/71/71 72/72/72
f 73/73/73 72/72/72 74/74/74
f 75/75/75 73/73/73 74/74/74
f 74/74/74 76/76/76 75/75/75
f 76/76/76 77/77/77 75/75/75
f 64/64/64 65/65/65 78/78/78
f 79/79/79 78/78/78 65/65/65
f 79/79/79 65/65/65 80/80/80
f 81/81/81 79/79/79 80/80/80
f 81/81/81 80/80/80 82/82/82
f 83/83/83 81/81/81 82/82/82
f 81/81/81 83/83/83 84/84/84
f 78/78/78 79/79/79 85/85/85
f 86/86/86 78/78/78 85/85/85
f 57/57/57 86/86/86 85/85/85
f 84/84/84 87/87/87 81/81/81
f 81/81/81 87/87/87 88/88/88
f 88/88/88 79/79/79 81/81/81
f 64/64/64 78/78/78 86/86/86
f 59/59/59 64/64/64 86/86/86
f 59/59/59 86/86/86 47/47/47
f 47/47/47 86/86/86 57/57/57
f 91/91/91 90/90/90 89/89/89
f 90/90/90 91/91/91 92/92/92
f 91/91/91 93/93/93 92/92/92
f 94/94/94 92/92/92 93/93/93
f 93/93/93 91/91/91 95/95/95
f 91/91/91 96/96/96 95/95/95
f 96/96/96 91/91/91 97/97/97
f 100/100/100 99/99/99 98/98/98
f 101/101/101 100/100/100 98/98/98
f 102/102/102 100/100/100 101/101/101
f 103/103/103 102/102/102 101/101/101
f 104/104/104 98/98/98 99/99/99
f 105/105/105 102/102/102 103/103/103
f 104/104/104 106/106/106 98/98/98
f 106/106/106 107/107/107 98/98/98
f 108/108/108 101/101/101 98/98/98
f 109/109/109 108/108/108 98/98/98
f 110/110/110 103/103/103 101/101/101
f 108/108/108 110/110/110 101/101/101
f 111/111/111 109/109/109 98/98/98
f 110/110/110 112/112/112 103/103/103
f 113/113/113 111/111/111 98/98/98
f 107/107/107 113/113/113 98/98/98
f 116/116/116 115/115/115 114/114/114
f 117/117/117 116/116/116 114/114/114
f 118/118/118 115/115/115 116/116/116
f 119/119/119 118/118/118 116/116/116
f 120/120/120 118/118/118 119/119/119
f 121/121/121 120/120/120 119/119/119
f 49/49/49 67/67/67 52/52/52
f 56/56/56 67/67/67 49/49/49
f 124/124/124 123/123/123 122/122/122
f 122/122/122 123/123/123 125/125/125
f 122/122/122 125/125/125 126/126/126
f 127/127/127 122/122/122 126/126/126
f 128/128/128 127/127/127 126/126/126
f 128/128/128 129/129/129 127/127/127
f 129/129/129 130/130/130 127/127/127
f 131/131/131 130/130/130 129/129/129
f 132/132/132 131/131/131 129/129/129
f 132/132/132 133/133/133 131/131/131
f 133/133/133 134/134/134 131/131/131
f 135/135/135 133/133/133 132/132/132
f 136/136/136 135/135/135 132/132/132
f 132/132/132 129/129/129 136/136/136
f 136/136/136 137/137/137 135/135/135
f 137/137/137 138/138/138 135/135/135
f 129/129/129 139/139/139 136/136/136
f 137/137/137 136/136/136 139/139/139
f 139/139/139 129/129/129 128/128/128
f 140/140/140 138/138/138 137/137/137
f 141/141/141 139/139/139 128/128/128
f 137/137/137 139/139/139 141/141/141
f 126/126/126 141/141/141 128/128/128
f 142/142/142 137/137/137 141/141/141
f 140/140/140 137/137/137 142/142/142
f 142/142/142 141/141/141 143/143/143
f 143/143/143 141/141/141 125/125/125
f 141/141/141 126/126/126 125/125/125
f 144/144/144 142/142/142 143/143/143
f 142/142/142 144/144/144 140/140/140
f 138/138/138 140/140/140 145/145/145
f 146/146/146 138/138/138 145/145/145
f 138/138/138 146/146/146 147/147/147
f 150/150/150 149/149/149 148/148/148
f 151/151/151 150/150/150 148/148/148
f 152/152/152 48/48/48 45/45/45
f 153/153/153 152/152/152 45/45/45
f 153/153/153 45/45/45 154/154/154
f 45/45/45 50/50/50 154/154/154
f 50/50/50 51/51/51 154/154/154
f 51/51/51 155/155/155 154/154/154
f 155/155/155 51/51/51 156/156/156
f 51/51/51 54/54/54 156/156/156
f 155/155/155 156/156/156 157/157/157
f 154/154/154 158/158/158 153/153/153
f 158/158/158 159/159/159 153/153/153
f 152/152/152 153/153/153 159/159/159
f 58/58/58 48/48/48 152/152/152
f 160/160/160 58/58/58 152/152/152
f 58/58/58 160/160/160 161/161/161
f 61/61/61 58/58/58 161/161/161
f 161/161/161 162/162/162 61/61/61
f 163/163/163 162/162/162 161/161/161
f 164/164/164 163/163/163 161/161/161
f 160/160/160 164/164/164 161/161/161
f 163/163/163 164/164/164 165/165/165
f 66/66/66 61/61/61 162/162/162
f 166/166/166 155/155/155 157/157/157
f 167/167/167 166/166/166 157/157/157
f 157/157/157 168/168/168 167/167/167
f 168/168/168 169/169/169 167/167/167
f 168/168/168 170/170/170 169/169/169
f 169/169/169 170/170/170 171/171/171
f 170/170/170 172/172/172 171/171/171
f 171/171/171 172/172/172 173/173/173
f 172/172/172 174/174/174 173/173/173
f 175/175/175 173/173/173 174/174/174
f 176/176/176 175/175/175 174/174/174
f 165/165/165 164/164/164 177/177/177
f 177/177/177 178/178/178 165/165/165
f 165/165/165 178/178/178 179/179/179
f 178/178/178 180/180/180 179/179/179
f 179/179/179 180/180/180 181/181/181
f 180/180/180 182/182/182 181/181/181
f 182/182/182 180/180/180 183/183/183
f 178/178/178 177/177/177 184/184/184
f 177/177/177 185/185/185 184/184/184
f 185/185/185 159/159/159 184/184/184
f 186/186/186 183/183/183 180/180/180
f 186/186/186 180/180/180 187/187/187
f 178/178/178 187/187/187 180/180/180
f 177/177/177 164/164/164 185/185/185
f 164/164/164 160/160/160 185/185/185
f 185/185/185 160/160/160 152/152/152
f 185/185/185 152/152/152 159/159/159
f 166/166/166 154/154/154 155/155/155
f 166/166/166 158/158/158 154/154/154
