g pistolgrip_sks_tapco_saw_style_LOD1
v -0.01773792 -0.02333896 -0.01928263
v -0.01773792 0.02756487 -0.01928263
v -0.01773792 0.02249735 -0.006047803
v -0.01773791 0.05834698 -0.07351857
v -0.01773791 0.001494733 -0.08198272
v -0.01773791 0.06315564 -0.08320665
v -0.01773791 -0.0004629391 -0.0997631
v -0.01773793 -0.02551066 0.009155139
v -0.01773792 0.03803957 0.009155135
v 0.01676501 -0.02333896 -0.01928262
v 0.01676501 -0.02551066 0.009155142
v 0.01676501 0.02249734 -0.006047799
v 0.01676502 0.02537416 -0.01928263
v 0.01676502 0.001494731 -0.08198271
v 0.01676503 0.05834698 -0.07351857
v 0.01676502 -0.0004629415 -0.09976309
v 0.01676503 0.06315564 -0.08320664
v 0.01676501 0.03417587 0.009155139
v -0.01773792 0.02249735 -0.006047803
v -0.01773792 0.02756487 -0.01928263
v 0.01676502 0.02537416 -0.01928263
v 0.01676501 0.02249734 -0.006047799
v -0.01773792 0.03803957 0.009155135
v 0.01676501 0.03417587 0.009155139
v 0.01676503 0.05834698 -0.07351857
v -0.01773791 0.05834698 -0.07351857
v -0.01773792 0.03803957 0.009155135
v 0.01676501 0.03417587 0.009155139
v 0.01676501 -0.02551066 0.009155142
v -0.01773793 -0.02551066 0.009155139
v -0.01773793 -0.02551066 0.009155139
v 0.01676501 -0.02551066 0.009155142
v 0.01676501 -0.02333896 -0.01928262
v -0.01773792 -0.02333896 -0.01928263
v -0.01773791 0.001494733 -0.08198272
v 0.01676502 0.001494731 -0.08198271
v -0.01773791 0.05834698 -0.07351857
v -0.01773791 0.06315564 -0.08320665
v 0.01676503 0.06315564 -0.08320664
v 0.01676503 0.05834698 -0.07351857
v 0.01676502 0.001494731 -0.08198271
v 0.01676502 -0.0004629415 -0.09976309
v -0.01773791 -0.0004629391 -0.0997631
v -0.01773791 0.001494733 -0.08198272
v 0.01676503 0.06315564 -0.08320664
v -0.01773791 0.06315564 -0.08320665
v -0.01773791 -0.0004629391 -0.0997631
v 0.01676502 -0.0004629415 -0.09976309
vt 0.02903119 0.4726862
vt 0.3020244 0.4720163
vt 0.2804354 0.5445945
vt 0.4759949 0.1743039
vt 0.1642794 0.1286945
vt 0.5022174 0.121139
vt 0.1533054 0.03126965
vt 0.01751915 0.6285794
vt 0.3552409 0.6277585
vt 0.03116992 0.4713635
vt 0.01976466 0.6258123
vt 0.2802448 0.5426054
vt 0.3016338 0.4706997
vt 0.1651651 0.1305591
vt 0.4739924 0.1757459
vt 0.1542927 0.03403684
vt 0.499972 0.1230735
vt 0.3543572 0.6249989
vt 0.7653763 0.5210506
vt 0.7651827 0.606851
vt 0.974948 0.6030284
vt 0.9747028 0.5210507
vt 0.7650121 0.3893492
vt 0.9750242 0.4049944
vt 0.969443 0.9882844
vt 0.7600757 0.9853731
vt 0.5583271 0.128397
vt 0.5830104 0.3488184
vt 0.9643166 0.3488184
vt 0.9643166 0.1283969
vt 0.7469838 0.4618362
vt 0.5575072 0.4592012
vt 0.5553294 0.6158248
vt 0.7448057 0.6184598
vt 0.7396556 0.988808
vt 0.5501791 0.986173
vt 0.5323272 0.7978472
vt 0.4730735 0.797892
vt 0.4729631 0.9873514
vt 0.532217 0.9872714
vt 0.0136807 0.987084
vt 0.1119232 0.9871412
vt 0.1120334 0.7976464
vt 0.01379108 0.7975892
vt 0.4729631 0.9873514
vt 0.4730735 0.797892
vt 0.1120334 0.7976464
vt 0.1119232 0.9871412
vn -1 0 0
vn -1 0 0
vn -1 0 0
vn -1 0 0
vn -1 0 0
vn -1 0 0
vn -1 2.980235E-06 0
vn -1 0 0
vn -1 0 0
vn 1 0 0
vn 1 0 0
vn 1 0 0
vn 1 0 0
vn 1 -1.490118E-06 0
vn 1 0 0
vn 1 0 0
vn 1 0 0
vn 1 0 0
vn 0.04130662 0.9752416 -0.2172502
vn 0.0290633 0.915315 0.4016887
vn 0.02911069 0.9168557 0.3981561
vn 0.04130657 0.9752403 -0.2172559
vn 0.04167525 0.7444086 -0.6664225
vn 0.04167525 0.7444086 -0.6664225
vn 0.01368545 0.8793976 0.4758913
vn 0.01368545 0.8793976 0.4758913
vn 0 0 1
vn 0 0 1
vn 0 0 1
vn 0 0 1
vn 0 -0.9970963 -0.07615134
vn 0 -0.9970963 -0.07615134
vn 0 -0.9744201 -0.2247341
vn 0 -0.9744201 -0.2247341
vn 0 -0.9910725 -0.1333238
vn 0 -0.9910725 -0.1333238
vn 0.01368545 0.8793976 0.4758913
vn 0 0.8957299 0.4445986
vn 0 0.8957299 0.4445986
vn 0.01368545 0.8793976 0.4758913
vn 0 -0.9910725 -0.1333238
vn 0 -0.9939889 0.1094813
vn 0 -0.9939889 0.1094813
vn 0 -0.9910725 -0.1333238
vn 0 0.2518822 -0.9677579
vn 0 0.2518822 -0.9677579
vn 0 0.2518506 -0.9677662
vn 0 0.2518506 -0.9677662
g pistolgrip_sks_tapco_saw_style_LOD1_0
f 3/3/3 2/2/2 1/1/1
f 2/2/2 4/4/4 1/1/1
f 4/4/4 5/5/5 1/1/1
f 4/4/4 6/6/6 5/5/5
f 6/6/6 7/7/7 5/5/5
f 8/8/8 3/3/3 1/1/1
f 9/9/9 3/3/3 8/8/8
f 12/12/12 11/11/11 10/10/10
f 13/13/13 12/12/12 10/10/10
f 10/10/10 14/14/14 13/13/13
f 14/14/14 15/15/15 13/13/13
f 14/14/14 16/16/16 15/15/15
f 16/16/16 17/17/17 15/15/15
f 18/18/18 11/11/11 12/12/12
f 21/21/21 20/20/20 19/19/19
f 22/22/22 21/21/21 19/19/19
f 22/22/22 19/19/19 23/23/23
f 24/24/24 22/22/22 23/23/23
f 21/21/21 25/25/25 20/20/20
f 25/25/25 26/26/26 20/20/20
f 29/29/29 28/28/28 27/27/27
f 30/30/30 29/29/29 27/27/27
f 33/33/33 32/32/32 31/31/31
f 34/34/34 33/33/33 31/31/31
f 34/34/34 35/35/35 33/33/33
f 35/35/35 36/36/36 33/33/33
f 39/39/39 38/38/38 37/37/37
f 40/40/40 39/39/39 37/37/37
f 43/43/43 42/42/42 41/41/41
f 44/44/44 43/43/43 41/41/41
f 47/47/47 46/46/46 45/45/45
f 48/48/48 47/47/47 45/45/45
