g pistolgrip_sa58_ds_arms_metric_std_LOD1
v 4.776116E-06 0.01682212 0.05226556
v 5.257853E-07 -0.05312866 0.04617939
v -0.01035228 -0.05071641 0.04697962
v -0.006345141 0.01574462 0.05175762
v 0.01012407 -0.0508644 0.04841283
v 0.01089778 0.0136849 0.05406016
v -0.01087357 0.0137869 0.05289419
v 0.01089778 0.0136849 0.05406016
v 0.01535279 0.003206694 0.05310325
v 0.0124974 -0.04862811 0.04814129
v 0.01012407 -0.0508644 0.04841283
v -0.01035228 -0.05071641 0.04697962
v -0.01154765 -0.05017976 0.0522332
v -0.01154768 0.01336535 0.05771253
v -0.01087357 0.0137869 0.05289419
v -0.01154765 -0.05017976 0.0522332
v -0.01650387 -0.04569266 0.04885859
v -0.01661726 0.003224292 0.05290197
v -0.01154768 0.01336535 0.05771253
v -0.01424979 0.001360633 0.04687576
v -0.01623686 -0.04517864 0.04320695
v -0.01419548 -0.04535395 0.03220966
v -0.01215749 -0.001199522 0.03707028
v -0.01035228 -0.05071641 0.04697962
v -0.008926415 -0.04927917 0.03113792
v -0.01087357 0.0137869 0.05289419
v -0.01154768 0.01336535 0.05771253
v -0.01661726 0.003224292 0.05290197
v -0.006522003 0.002744336 0.03714492
v -0.006345141 0.01574462 0.05175762
v -0.01650387 -0.04569266 0.04885859
v -0.01154765 -0.05017976 0.0522332
v -0.006315725 0.003231792 0.02648754
v -0.01177597 -0.0009840607 0.02604485
v -0.01329506 -0.039462 0.02297586
v -0.008903658 -0.04333161 0.02189005
v -0.0001714366 -0.04635862 0.02112742
v 5.247415E-07 -0.05067185 0.03089625
v 0.0006921778 0.002868841 -0.05602036
v -0.009130953 0.005175414 -0.0549774
v -0.01746401 0.01446583 -0.05093565
v -0.01661222 0.05283101 -0.03416642
v -0.009782764 0.05984956 -0.03103057
v -2.98503E-05 0.00439188 0.03750287
v 4.776116E-06 0.01682212 0.05226556
v 4.536378E-05 0.00657119 0.02660311
v 0.0001322305 0.06237987 -0.03019675
v 5.257853E-07 -0.05312866 0.04617939
v 0.01012407 -0.0508644 0.04841283
v 0.009998132 -0.0489032 0.03106662
v 5.247415E-07 -0.05067185 0.03089625
v 5.257853E-07 -0.05312866 0.04617939
v 0.0124974 -0.04862811 0.04814129
v 0.01289639 -0.0466928 0.03155317
v 0.0134027 -0.005583808 0.03670897
v 0.01338442 -0.04013496 0.02328505
v 0.01298082 -0.00447381 0.02492309
v 0.009524342 -0.04361776 0.02241892
v -0.0001714366 -0.04635862 0.02112742
v 0.01673826 0.01188885 -0.05172101
v 0.01838704 0.05000376 -0.03491753
v 0.007367031 0.003227856 0.0260237
v 0.007433964 0.002118292 0.03728658
v 0.01535279 0.003206694 0.05310325
v 0.01089778 0.0136849 0.05406016
v -2.98503E-05 0.00439188 0.03750287
v 4.776116E-06 0.01682212 0.05226556
v 4.536378E-05 0.00657119 0.02660311
v 0.01052899 0.05915958 -0.03151236
v 0.0001322305 0.06237987 -0.03019675
v 0.009761707 0.005473473 -0.05484689
v 0.0006921778 0.002868841 -0.05602036
v 0.01052899 0.05915958 -0.03151236
v 0.0001322305 0.06237987 -0.03019675
v 0.0006921778 0.002868841 -0.05602036
v 0.009761707 0.005473473 -0.05484689
v 0.0006921778 0.002868841 -0.05602036
v 0.0001322305 0.06237987 -0.03019675
v -0.009782764 0.05984956 -0.03103057
v -0.009130953 0.005175414 -0.0549774
v -0.01746401 0.01446583 -0.05093565
v -0.01661222 0.05283101 -0.03416642
v 0.01838704 0.05000376 -0.03491753
v 0.01052899 0.05915958 -0.03151236
v 0.009761707 0.005473473 -0.05484689
v 0.01673826 0.01188885 -0.05172101
vt 0.693583 0.9319229
vt 0.3018081 0.9319671
vt 0.3155958 0.9933254
vt 0.6873523 0.9691708
vt 0.3154619 0.8710712
vt 0.6770009 0.8664274
vt 0.677026 0.9967605
vt 0.6770009 0.8664274
vt 0.6182904 0.8401651
vt 0.3277459 0.8569334
vt 0.3154619 0.8710712
vt 0.01420013 0.5287628
vt 0.04387981 0.5229377
vt 0.04387981 0.1464221
vt 0.01665958 0.1463818
vt 0.9896201 0.1696137
vt 0.9549616 0.1943101
vt 0.953998 0.4840644
vt 0.9897872 0.5461304
vt 0.1274606 0.5972157
vt 0.3606312 0.7198473
vt 0.3904495 0.6628243
vt 0.1664476 0.5499806
vt 0.395658 0.7575439
vt 0.4250328 0.6692756
vt 0.0487489 0.5932376
vt 0.03747824 0.6182405
vt 0.1033924 0.627337
vt 0.1355046 0.5267398
vt 0.03419946 0.5718616
vt 0.3494031 0.7505641
vt 0.3778 0.7838581
vt 0.1675512 0.4725172
vt 0.2013356 0.4881921
vt 0.391167 0.5981095
vt 0.425038 0.605514
vt 0.4767734 0.6134614
vt 0.4735382 0.6776324
vt 0.5012885 0.07393922
vt 0.4448875 0.06963474
vt 0.3727627 0.05770889
vt 0.1431573 0.01139413
vt 0.085605 0.003325892
vt 0.1081031 0.5022936
vt 0.01301741 0.5424463
vt 0.1326934 0.4576147
vt 0.02816447 0.007289341
vt 0.455071 0.7684153
vt 0.6139269 0.7612064
vt 0.5823787 0.6647109
vt 0.5286756 0.677936
vt 0.5536079 0.7678769
vt 0.6325777 0.7513024
vt 0.5997833 0.6599384
vt 0.8113815 0.562704
vt 0.6068735 0.5988988
vt 0.7804886 0.4945727
vt 0.577404 0.6065375
vt 0.5205954 0.612094
vt 0.6228042 0.06034303
vt 0.8525362 0.01928553
vt 0.82897 0.4734246
vt 0.8597774 0.5346249
vt 0.8979893 0.6276919
vt 0.9548974 0.6061056
vt 0.8929832 0.5064941
vt 0.9863648 0.5502322
vt 0.8698946 0.4616628
vt 0.9233457 0.008787864
vt 0.9848453 0.01487293
vt 0.56717 0.06669442
vt 0.5141111 0.07071491
vt 0.6535174 0.7740381
vt 0.6341121 0.8354087
vt 0.996081 0.8321026
vt 0.9801424 0.7785563
vt 0.004682213 0.8483475
vt 0.366651 0.8450506
vt 0.3518498 0.7865072
vt 0.01880584 0.7903592
vt 0.07533665 0.7411645
vt 0.3089588 0.7461922
vt 0.7079412 0.7275516
vt 0.6535174 0.7740381
vt 0.9801424 0.7785563
vt 0.9403594 0.7373305
vn -0.08710665 -0.08232166 0.9927918
vn -0.09043647 -0.08237084 0.9924899
vn 0.02149834 -0.08006462 0.9965578
vn 0.1148098 -0.08271345 0.989938
vn -0.1909393 -0.08426146 0.9779786
vn -0.1909402 -0.08420936 0.977983
vn 0.2771465 -0.08551798 0.9570144
vn 0.06689447 -0.09265541 0.9934486
vn 0.06690786 -0.09260332 0.9934525
vn 0.06689447 -0.09265541 0.9934486
vn 0.06689447 -0.09265541 0.9934486
vn 0.9831045 -0.0122247 0.1826359
vn 0.9831133 -0.01227728 0.1825851
vn 0.9831043 -0.01225093 0.1826359
vn 0.9831039 -0.01225109 0.1826383
vn -0.6078016 -0.06768217 0.7911993
vn -0.607812 -0.0676294 0.7911958
vn -0.6078131 -0.06760329 0.7911972
vn -0.6078048 -0.06760383 0.7912034
vn -0.9386007 0.2297249 -0.257401
vn -0.9071424 -0.3802288 -0.1803293
vn -0.8665625 -0.4373539 -0.2403978
vn -0.8898992 0.4031737 -0.2133785
vn -0.5069823 -0.8547292 -0.111386
vn -0.4214784 -0.8558239 -0.2998689
vn -0.7020568 0.5605541 -0.4391987
vn -0.8392296 0.4561447 -0.2960166
vn -0.9112668 0.3060904 -0.2755023
vn -0.4281116 0.8489696 -0.3097918
vn -0.2725423 0.7243308 -0.6332975
vn -0.8728213 -0.4608211 -0.1607076
vn -0.6456733 -0.7588688 -0.08499498
vn -0.5222468 0.7765331 0.3524974
vn -0.9318766 0.337834 0.1321902
vn -0.91828 -0.3220958 -0.2302521
vn -0.4814747 -0.7439166 -0.4634329
vn -0.0002502446 -0.8644518 -0.5027158
vn 0.001558587 -0.9526749 -0.3039871
vn 0.009826448 -0.8441464 -0.5360227
vn -0.5400667 -0.709377 -0.4528932
vn -0.9571612 -0.2609951 -0.1253952
vn -0.8594209 0.3425248 0.3795687
vn -0.4562834 0.6271061 0.6313029
vn 0.0476241 0.9493473 -0.3105991
vn 0.08807303 0.7658592 -0.636948
vn 0.01039736 0.880661 0.473633
vn 0.01857627 0.7094464 0.7045146
vn 0.01421535 -0.9908586 -0.1341536
vn 0.443462 -0.8895212 -0.1099703
vn 0.4387442 -0.8502986 -0.2906817
vn 0.001558587 -0.9526749 -0.3039871
vn 0.01421535 -0.9908586 -0.1341536
vn 0.8897574 -0.4536867 -0.05000155
vn 0.8776369 -0.4479016 -0.1706979
vn 0.9679222 0.2312347 -0.09827047
vn 0.9167381 -0.3384677 -0.2122047
vn 0.9673722 0.2257259 0.11506
vn 0.4700131 -0.7502686 -0.4649567
vn -0.0002502446 -0.8644518 -0.5027158
vn 0.9362357 -0.3116807 -0.1622282
vn 0.9020698 0.280486 0.3280206
vn 0.6216983 0.6965602 0.358183
vn 0.6213706 0.745886 -0.2399018
vn 0.8865779 0.3242474 -0.3299139
vn 0.5034252 0.6664852 -0.5498732
vn 0.0476241 0.9493473 -0.3105991
vn 0.08807303 0.7658592 -0.636948
vn 0.01039736 0.880661 0.473633
vn 0.5201786 0.5997511 0.6080402
vn 0.01857627 0.7094464 0.7045146
vn 0.5183676 -0.7218071 -0.4585733
vn 0.009826448 -0.8441464 -0.5360227
vn 0.005902512 0.3983277 -0.9172241
vn 0.005900872 0.3983277 -0.9172241
vn 0.005900872 0.3983277 -0.9172241
vn 0.00590308 0.3983661 -0.9172075
vn -0.014241 0.3993906 -0.9166703
vn -0.01424114 0.3993685 -0.9166799
vn -0.01424579 0.3994069 -0.9166631
vn -0.0142522 0.399429 -0.9166534
vn 0.005351333 0.4008516 -0.9161273
vn 0.00535139 0.4008296 -0.916137
vn 0.05644045 0.3987427 -0.9153243
vn 0.05642502 0.3988312 -0.9152868
vn 0.05642686 0.3987594 -0.915318
vn 0.05642032 0.3987595 -0.9153184
g pistolgrip_sa58_ds_arms_metric_std_LOD1_0
f 3/3/3 2/2/2 1/1/1
f 4/4/4 3/3/3 1/1/1
f 1/1/1 2/2/2 5/5/5
f 6/6/6 1/1/1 5/5/5
f 7/7/7 3/3/3 4/4/4
f 10/10/10 9/9/9 8/8/8
f 11/11/11 10/10/10 8/8/8
f 14/14/14 13/13/13 12/12/12
f 15/15/15 14/14/14 12/12/12
f 18/18/18 17/17/17 16/16/16
f 19/19/19 18/18/18 16/16/16
f 22/22/22 21/21/21 20/20/20
f 23/23/23 22/22/22 20/20/20
f 21/21/21 22/22/22 24/24/24
f 22/22/22 25/25/25 24/24/24
f 26/26/26 23/23/23 20/20/20
f 27/27/27 26/26/26 20/20/20
f 28/28/28 27/27/27 20/20/20
f 29/29/29 23/23/23 26/26/26
f 30/30/30 29/29/29 26/26/26
f 31/31/31 21/21/21 24/24/24
f 20/20/20 21/21/21 31/31/31
f 28/28/28 20/20/20 31/31/31
f 32/32/32 31/31/31 24/24/24
f 29/29/29 33/33/33 23/23/23
f 33/33/33 34/34/34 23/23/23
f 23/23/23 34/34/34 22/22/22
f 22/22/22 35/35/35 25/25/25
f 34/34/34 35/35/35 22/22/22
f 35/35/35 36/36/36 25/25/25
f 36/36/36 37/37/37 25/25/25
f 37/37/37 38/38/38 25/25/25
f 39/39/39 37/37/37 36/36/36
f 40/40/40 39/39/39 36/36/36
f 41/41/41 40/40/40 36/36/36
f 35/35/35 41/41/41 36/36/36
f 42/42/42 41/41/41 35/35/35
f 34/34/34 42/42/42 35/35/35
f 42/42/42 34/34/34 33/33/33
f 43/43/43 42/42/42 33/33/33
f 44/44/44 29/29/29 30/30/30
f 33/33/33 29/29/29 44/44/44
f 45/45/45 44/44/44 30/30/30
f 46/46/46 33/33/33 44/44/44
f 43/43/43 33/33/33 46/46/46
f 47/47/47 43/43/43 46/46/46
f 38/38/38 48/48/48 25/25/25
f 48/48/48 24/24/24 25/25/25
f 51/51/51 50/50/50 49/49/49
f 52/52/52 51/51/51 49/49/49
f 53/53/53 49/49/49 50/50/50
f 54/54/54 53/53/53 50/50/50
f 55/55/55 53/53/53 54/54/54
f 54/54/54 56/56/56 55/55/55
f 56/56/56 57/57/57 55/55/55
f 58/58/58 56/56/56 54/54/54
f 50/50/50 58/58/58 54/54/54
f 59/59/59 58/58/58 50/50/50
f 51/51/51 59/59/59 50/50/50
f 56/56/56 60/60/60 57/57/57
f 60/60/60 61/61/61 57/57/57
f 57/57/57 61/61/61 62/62/62
f 57/57/57 62/62/62 55/55/55
f 55/55/55 62/62/62 63/63/63
f 64/64/64 55/55/55 63/63/63
f 64/64/64 53/53/53 55/55/55
f 65/65/65 64/64/64 63/63/63
f 65/65/65 63/63/63 66/66/66
f 63/63/63 62/62/62 66/66/66
f 67/67/67 65/65/65 66/66/66
f 62/62/62 68/68/68 66/66/66
f 62/62/62 69/69/69 68/68/68
f 61/61/61 69/69/69 62/62/62
f 69/69/69 70/70/70 68/68/68
f 71/71/71 60/60/60 56/56/56
f 58/58/58 71/71/71 56/56/56
f 72/72/72 71/71/71 58/58/58
f 59/59/59 72/72/72 58/58/58
f 75/75/75 74/74/74 73/73/73
f 76/76/76 75/75/75 73/73/73
f 79/79/79 78/78/78 77/77/77
f 80/80/80 79/79/79 77/77/77
f 79/79/79 80/80/80 81/81/81
f 82/82/82 79/79/79 81/81/81
f 85/85/85 84/84/84 83/83/83
f 86/86/86 85/85/85 83/83/83
