g bipod_l_LOD1
v 0.0006634179 0.03122704 -0.004550203
v -0.002646066 0.03182618 0.00115056
v -0.002646019 0.1800397 -0.01442741
v 0.000663568 0.1794405 -0.02012824
v -0.009265001 0.1800397 -0.01442742
v -0.009265102 0.03182615 0.001150587
v -0.01257446 0.1794405 -0.02012824
v -0.01257458 0.03122702 -0.004550211
v -0.01257458 0.03122702 -0.004550211
v -0.009265107 0.0306278 -0.01025103
v -0.009265007 0.1788414 -0.02582904
v -0.01257446 0.1794405 -0.02012824
v -0.002646048 0.1788414 -0.02582903
v -0.002646073 0.03062783 -0.010251
v 0.000663568 0.1794405 -0.02012824
v 0.0006634179 0.03122704 -0.004550203
v -0.002646066 0.03182618 0.00115056
v 0.0006634179 0.03122704 -0.004550203
v 0.003750812 0.02726441 0.002633814
v 0.003750866 0.02585741 -0.0107534
v -0.002646073 0.03062783 -0.010251
v -0.009265102 0.03182615 0.001150587
v -0.002646066 0.03182618 0.00115056
v 0.003750812 0.02726441 0.002633814
v -0.009841408 0.03042549 0.002301556
v -0.01257458 0.03122702 -0.004550211
v -0.0137273 0.0297219 -0.004392036
v -0.009265107 0.0306278 -0.01025103
v -0.01257458 0.03122702 -0.004550211
v -0.0137273 0.0297219 -0.004392036
v -0.009841472 0.02901838 -0.01108563
v -0.002646073 0.03062783 -0.010251
v 0.003750866 0.02585741 -0.0107534
v -0.009841408 0.03042549 0.002301556
v 0.003750812 0.02726441 0.002633814
v 0.00375076 -0.002428177 0.005754665
v -0.009841735 -0.002428233 0.005754655
v -0.0137273 0.0297219 -0.004392036
v -0.01372753 -0.003131886 -0.0009389683
v -0.009841472 0.02901838 -0.01108563
v -0.0137273 0.0297219 -0.004392036
v -0.01372753 -0.003131886 -0.0009389683
v -0.009841704 -0.003835407 -0.007632558
v 0.003750866 0.02585741 -0.0107534
v 0.003750716 -0.003835393 -0.007632518
v 0.003750812 0.02726441 0.002633814
v 0.003750866 0.02585741 -0.0107534
v 0.003750716 -0.003835393 -0.007632518
v 0.00375076 -0.002428177 0.005754665
v 0.00375076 -0.002428177 0.005754665
v 0.003750716 -0.003835393 -0.007632518
v -0.01372753 -0.003131886 -0.0009389683
v -0.009841735 -0.002428233 0.005754655
v -0.009841704 -0.003835407 -0.007632558
v -0.009524624 0.1826574 -0.006754952
v -0.01028074 0.1793911 -0.005805213
v -0.01273706 0.1800496 -0.01029462
v -0.01180395 0.1831647 -0.01062204
v -0.005951624 0.1827074 -0.005434488
v -0.005951635 0.1784663 -0.003838018
v -0.011804 0.1810125 -0.03109893
v -0.01273699 0.1778974 -0.03077154
v -0.01042583 0.1764512 -0.03420964
v -0.009630673 0.1798314 -0.03404582
v -0.005951571 0.1795309 -0.03565632
v -0.005951561 0.1750544 -0.03629252
v -0.00595159 0.18542 -0.01076938
v -0.005951543 0.1832491 -0.0314237
v -0.001622436 0.1793911 -0.00580521
v -0.002378578 0.1826574 -0.006754976
v 0.0008337948 0.1800496 -0.01029461
v -9.920346E-05 0.1831647 -0.01062201
v -0.001477273 0.1764512 -0.03420964
v -0.002272415 0.1798315 -0.03404582
v -9.916628E-05 0.1810125 -0.0310989
v 0.0008338216 0.1778974 -0.0307715
v -0.01042583 0.1764512 -0.03420964
v -0.001477273 0.1764512 -0.03420964
v -0.005951561 0.1750544 -0.03629252
v -0.01273699 0.1778974 -0.03077154
v 0.0008338216 0.1778974 -0.0307715
v 0.0008337948 0.1800496 -0.01029461
v -0.01273706 0.1800496 -0.01029462
v -0.01028074 0.1793911 -0.005805213
v -0.001622436 0.1793911 -0.00580521
v -0.005951635 0.1784663 -0.003838018
vt 0.6198699 0.2753211
vt 0.6320852 0.2753211
vt 0.6320852 0.001227832
vt 0.6198699 0.001227832
vt 0.644457 0.001227832
vt 0.644457 0.2753211
vt 0.6568351 0.001227832
vt 0.6568351 0.2753211
vt 0.6598732 0.2753036
vt 0.672267 0.2753036
vt 0.672267 0.000944217
vt 0.6598732 0.000944217
vt 0.6846544 0.000944217
vt 0.6846544 0.2753036
vt 0.6968844 0.000944217
vt 0.6968844 0.2753036
vt 0.8629068 0.2572294
vt 0.8514639 0.253094
vt 0.8637459 0.2428904
vt 0.8389083 0.2431074
vt 0.840086 0.2574447
vt 0.644457 0.2753211
vt 0.6320852 0.2753211
vt 0.6171029 0.2833496
vt 0.6421503 0.2788506
vt 0.6568351 0.2753211
vt 0.6568351 0.2788506
vt 0.672267 0.2753036
vt 0.6598732 0.2753036
vt 0.6598732 0.2788364
vt 0.6740933 0.2788364
vt 0.6846544 0.2753036
vt 0.6991666 0.2832858
vt 0.6421503 0.2788506
vt 0.6171029 0.2833496
vt 0.6171029 0.3390643
vt 0.6421503 0.3390643
vt 0.6568351 0.2788506
vt 0.6568351 0.3390643
vt 0.6740933 0.2788364
vt 0.6598732 0.2788364
vt 0.6598732 0.3391088
vt 0.6740933 0.3391088
vt 0.6991666 0.2832858
vt 0.6991664 0.3391088
vt 0.8637459 0.2428904
vt 0.8389083 0.2431074
vt 0.8389075 0.1893294
vt 0.8637468 0.1893304
vt 0.8637468 0.1893304
vt 0.8389075 0.1893294
vt 0.851329 0.1579121
vt 0.8637482 0.1648977
vt 0.8389089 0.1648961
vt 0.4191127 0.4113795
vt 0.4141466 0.4083042
vt 0.4245053 0.4032496
vt 0.4259907 0.4077169
vt 0.4167289 0.4168717
vt 0.4089531 0.4168803
vt 0.4636888 0.40774
vt 0.4652342 0.4033323
vt 0.4743245 0.407875
vt 0.4693983 0.411055
vt 0.4722915 0.4168098
vt 0.4799604 0.4168009
vt 0.426468 0.4168611
vt 0.4632516 0.41682
vt 0.4141727 0.4254452
vt 0.4191292 0.4223588
vt 0.424547 0.4304768
vt 0.4260186 0.4260062
vt 0.474352 0.4257397
vt 0.4694162 0.4225711
vt 0.4637165 0.4258988
vt 0.4652755 0.4303029
vt 0.3103983 0.6226518
vt 0.310395 0.6091839
vt 0.3142892 0.615917
vt 0.30461 0.6261316
vt 0.3046047 0.6057067
vt 0.2726457 0.6057149
vt 0.272652 0.62614
vt 0.2656077 0.6224453
vt 0.2656042 0.6094143
vt 0.2622321 0.6159308
vn 1 -1.30357E-06 6.247395E-07
vn 0.4999933 0.09051696 0.8612859
vn 0.499984 0.0905237 0.8612906
vn 1 -3.441613E-05 6.247803E-07
vn -0.500015 0.09055595 0.8612692
vn -0.4999999 0.09051161 0.8612826
vn -1 3.441613E-05 -6.247803E-07
vn -1 1.303574E-06 2.355491E-06
vn -1 1.303574E-06 2.355491E-06
vn -0.5000045 -0.09051055 -0.86128
vn -0.499984 -0.0905237 -0.8612906
vn -1 3.441613E-05 -6.247803E-07
vn 0.500015 -0.09055595 -0.8612692
vn 0.4999936 -0.09053753 -0.8612835
vn 1 -3.441613E-05 6.247803E-07
vn 1 -1.30357E-06 6.247395E-07
vn 0.238983 0.6333374 0.736051
vn 0.7006345 0.7096118 -0.0745813
vn 0.612769 0.7287557 0.305662
vn 0.6127707 0.649283 -0.4504927
vn 0.23898 0.4664513 -0.8516524
vn -0.3798517 0.5915688 0.7111673
vn 0.238983 0.6333374 0.736051
vn 0.612769 0.7287557 0.305662
vn -0.34803 0.585335 0.7322964
vn -0.7955188 0.6026099 -0.06333443
vn -0.7955186 0.6026096 -0.06334035
vn -0.3798308 0.4307823 -0.8186301
vn -0.7955188 0.6026099 -0.06333443
vn -0.7955186 0.6026096 -0.06334035
vn -0.3480378 0.4202991 -0.8379847
vn 0.23898 0.4664513 -0.8516524
vn 0.6127707 0.649283 -0.4504927
vn -0.538887 0.08806845 0.8377618
vn 3.130591E-06 0.1045394 0.9945207
vn -2.915866E-07 0.1045291 0.9945219
vn -0.5000104 0.09052636 0.861275
vn -1 1.122249E-05 -6.247517E-07
vn -1 1.303566E-06 -3.60497E-06
vn -0.538877 -0.08805301 -0.8377697
vn -1 1.122249E-05 -6.247517E-07
vn -1 1.303566E-06 -3.60497E-06
vn -0.5000004 -0.09051838 -0.8612816
vn -3.127417E-06 -0.1045388 -0.9945208
vn 2.686787E-06 -0.1045309 -0.9945216
vn 1 -1.30357E-06 6.247395E-07
vn 1 -1.30357E-06 6.247395E-07
vn 1 -3.221478E-06 6.24742E-07
vn 1 -2.378102E-06 6.247408E-07
vn 3.137084E-06 -0.9945205 0.1045418
vn 2.872698E-06 -0.9945205 0.1045418
vn 4.112655E-06 -0.9945205 0.104542
vn 4.112655E-06 -0.9945205 0.104542
vn -2.537595E-06 -0.9945219 0.1045292
vn -0.4939293 0.6134052 0.6162531
vn -0.5671937 0.3405009 0.7499002
vn -0.9164661 0.3113234 0.2513314
vn -0.7121802 0.6740713 0.196029
vn -2.177742E-05 0.651143 0.7589551
vn -1.109263E-05 0.3526853 0.935742
vn -0.7091708 0.6070246 -0.3586055
vn -0.9045082 0.2471005 -0.347572
vn -0.5721384 0.1618335 -0.8040321
vn -0.4879327 0.4484436 -0.7488792
vn -3.040147E-05 0.44725 -0.8944089
vn -1.236094E-05 0.1431482 -0.9897013
vn 2.860919E-05 0.9905933 0.1368394
vn -1.620304E-05 0.9309995 -0.3650205
vn 0.5672152 0.3404795 0.7498938
vn 0.4939629 0.613355 0.6162761
vn 0.9164757 0.3112955 0.2513316
vn 0.7122102 0.6740361 0.1960407
vn 0.5722255 0.1618226 -0.8039722
vn 0.4878879 0.4484728 -0.7488909
vn 0.7092131 0.6069787 -0.3585994
vn 0.9045199 0.2470995 -0.3475423
vn 7.251617E-05 -0.9067219 0.4217291
vn -6.686953E-06 -0.9067125 0.4217494
vn 1.560965E-05 -0.8305508 0.5569428
vn 4.774596E-05 -0.9759459 0.218013
vn 4.774596E-05 -0.9759459 0.218013
vn -3.443442E-05 -0.9999951 0.003136398
vn -3.443442E-05 -0.9999951 0.003136398
vn 6.733336E-06 -0.9802223 -0.1978993
vn 6.733336E-06 -0.9802223 -0.1978993
vn -2.563889E-07 -0.9049928 -0.4254269
g bipod_l_LOD1_0
f 3/3/3 2/2/2 1/1/1
f 4/4/4 3/3/3 1/1/1
f 3/3/3 5/5/5 2/2/2
f 5/5/5 6/6/6 2/2/2
f 5/5/5 7/7/7 6/6/6
f 7/7/7 8/8/8 6/6/6
f 11/11/11 10/10/10 9/9/9
f 12/12/12 11/11/11 9/9/9
f 11/11/11 13/13/13 10/10/10
f 13/13/13 14/14/14 10/10/10
f 13/13/13 15/15/15 14/14/14
f 15/15/15 16/16/16 14/14/14
f 19/19/19 18/18/18 17/17/17
f 19/19/19 20/20/20 18/18/18
f 20/20/20 21/21/21 18/18/18
f 24/24/24 23/23/23 22/22/22
f 25/25/25 24/24/24 22/22/22
f 25/25/25 22/22/22 26/26/26
f 27/27/27 25/25/25 26/26/26
f 30/30/30 29/29/29 28/28/28
f 31/31/31 30/30/30 28/28/28
f 31/31/31 28/28/28 32/32/32
f 33/33/33 31/31/31 32/32/32
f 36/36/36 35/35/35 34/34/34
f 37/37/37 36/36/36 34/34/34
f 37/37/37 34/34/34 38/38/38
f 39/39/39 37/37/37 38/38/38
f 42/42/42 41/41/41 40/40/40
f 43/43/43 42/42/42 40/40/40
f 43/43/43 40/40/40 44/44/44
f 45/45/45 43/43/43 44/44/44
f 48/48/48 47/47/47 46/46/46
f 49/49/49 48/48/48 46/46/46
f 52/52/52 51/51/51 50/50/50
f 53/53/53 52/52/52 50/50/50
f 54/54/54 51/51/51 52/52/52
f 57/57/57 56/56/56 55/55/55
f 58/58/58 57/57/57 55/55/55
f 59/59/59 55/55/55 56/56/56
f 60/60/60 59/59/59 56/56/56
f 58/58/58 61/61/61 57/57/57
f 61/61/61 62/62/62 57/57/57
f 63/63/63 62/62/62 61/61/61
f 64/64/64 63/63/63 61/61/61
f 63/63/63 64/64/64 65/65/65
f 65/65/65 64/64/64 61/61/61
f 66/66/66 63/63/63 65/65/65
f 61/61/61 58/58/58 67/67/67
f 67/67/67 58/58/58 55/55/55
f 59/59/59 67/67/67 55/55/55
f 68/68/68 61/61/61 67/67/67
f 68/68/68 65/65/65 61/61/61
f 59/59/59 60/60/60 69/69/69
f 70/70/70 59/59/59 69/69/69
f 67/67/67 59/59/59 70/70/70
f 70/70/70 69/69/69 71/71/71
f 72/72/72 70/70/70 71/71/71
f 72/72/72 67/67/67 70/70/70
f 66/66/66 65/65/65 73/73/73
f 65/65/65 74/74/74 73/73/73
f 74/74/74 75/75/75 73/73/73
f 75/75/75 72/72/72 71/71/71
f 75/75/75 68/68/68 67/67/67
f 72/72/72 75/75/75 67/67/67
f 75/75/75 74/74/74 65/65/65
f 68/68/68 75/75/75 65/65/65
f 75/75/75 76/76/76 73/73/73
f 76/76/76 75/75/75 71/71/71
f 79/79/79 78/78/78 77/77/77
f 80/80/80 77/77/77 78/78/78
f 81/81/81 80/80/80 78/78/78
f 81/81/81 82/82/82 80/80/80
f 82/82/82 83/83/83 80/80/80
f 84/84/84 83/83/83 82/82/82
f 85/85/85 84/84/84 82/82/82
f 85/85/85 86/86/86 84/84/84
