g barrel_57_fn_120mm_threaded_57x28_LOD1
v 0.005209251 -0.03707486 0.02256958
v 0.005209251 0.03149185 0.02256959
v 0.00844172 -0.03707486 0.01812047
v 0.00844172 0.03149185 0.01812048
v -2.099367E-05 0.03149184 0.024269
v -2.099367E-05 -0.03707486 0.02426899
v -0.005251235 0.03149185 0.02256959
v -0.005251235 -0.03707486 0.02256958
v -0.008483705 0.03149185 0.01812048
v -0.008483705 -0.03707486 0.01812047
v -0.008483706 0.03149185 0.01262109
v -0.008483706 -0.03707486 0.01262108
v 0.008441715 0.03149185 0.01262109
v 0.008441715 -0.03707486 0.01262107
v 0.005209244 -0.008156544 0.008171968
v 0.005209244 -0.03707486 0.008171961
v -2.099691E-05 -0.03707486 0.006472552
v -2.099691E-05 -0.008156544 0.006472556
v 0.005209244 0.01196913 0.008171968
v 0.005209244 0.03149185 0.008171968
v -2.099691E-05 0.01196913 0.006472559
v -2.099691E-05 0.03149185 0.006472559
v -0.005251237 -0.008156544 0.008171966
v -0.005251232 -0.03707485 0.008171959
v -2.099691E-05 -0.008156544 0.006472556
v -2.099691E-05 -0.03707486 0.006472552
v -0.005251237 0.01196913 0.008171968
v -0.005251237 0.03149185 0.008171968
v -2.099691E-05 0.03149185 0.006472559
v -2.099691E-05 0.01196913 0.006472559
v -0.005251237 0.03149185 0.008171968
v -0.005251235 0.03149185 0.02256959
v -0.008483706 0.03149185 0.01262109
v -0.008483705 0.03149185 0.01812048
v -2.099691E-05 0.03149185 0.006472559
v -2.099367E-05 0.03149184 0.024269
v 0.005209251 0.03149185 0.02256959
v 0.005209244 0.03149185 0.008171968
v 0.008441715 0.03149185 0.01262109
v 0.00844172 0.03149185 0.01812048
v 0.00844172 -0.03707486 0.01812047
v 0.005331016 -0.03707486 0.01710974
v 0.005209251 -0.03707486 0.02256958
v 0.003286729 -0.03707486 0.01992346
v -2.099367E-05 -0.03707486 0.02426899
v -2.099426E-05 -0.03707486 0.02099821
v -0.005251235 -0.03707486 0.02256958
v -0.003328718 -0.03707486 0.01992346
v -0.008483705 -0.03707486 0.01812047
v -0.005373005 -0.03707486 0.01710974
v -0.008483706 -0.03707486 0.01262108
v -0.005373006 -0.03707486 0.0136318
v -0.005251232 -0.03707485 0.008171959
v -0.00332872 -0.03707486 0.01081808
v -2.099691E-05 -0.03707486 0.006472552
v -2.099631E-05 -0.03707486 0.009743333
v 0.005209244 -0.03707486 0.008171961
v 0.003286728 -0.03707486 0.01081808
v 0.008441715 -0.03707486 0.01262107
v 0.005331016 -0.03707486 0.0136318
v -0.00525124 -0.008156542 -0.004983909
v 0.005209242 -0.008156542 -0.004983911
v -0.00525124 0.01196913 -0.004983905
v 0.005209242 0.01196913 -0.004983908
v -0.005251237 -0.008156544 0.008171966
v -0.00525124 -0.008156542 -0.004983909
v -0.005251237 0.01196913 0.008171968
v -0.00525124 0.01196913 -0.004983905
v -0.00525124 0.01196913 -0.004983905
v -2.099691E-05 0.01196913 0.006472559
v -0.005251237 0.01196913 0.008171968
v 0.005209242 0.01196913 -0.004983908
v 0.005209244 0.01196913 0.008171968
v 0.005209244 0.01196913 0.008171968
v 0.005209242 0.01196913 -0.004983908
v 0.005209244 -0.008156544 0.008171968
v 0.005209242 -0.008156542 -0.004983911
v -2.099691E-05 -0.008156544 0.006472556
v 0.005209244 -0.008156544 0.008171968
v 0.005209242 -0.008156542 -0.004983911
v -0.00525124 -0.008156542 -0.004983909
v -0.005251237 -0.008156544 0.008171966
v 0.005331016 -0.1102003 0.01363179
v -0.005373006 -0.1102003 0.01363179
v 0.005331016 -0.1102003 0.01710973
v -0.005373005 -0.1102003 0.01710973
v -0.003328718 -0.1102003 0.01992345
v 0.003286729 -0.1102003 0.01992345
v 0.003286728 -0.1102003 0.01081807
v -0.00332872 -0.1102003 0.01081807
v -2.099426E-05 -0.1102003 0.0209982
v -2.099631E-05 -0.1102003 0.009743321
v 0.005331016 -0.03707486 0.01710974
v 0.005331016 -0.1102003 0.01710973
v 0.003286729 -0.03707486 0.01992346
v 0.003286729 -0.1102003 0.01992345
v -2.099426E-05 -0.03707486 0.02099821
v -2.099426E-05 -0.1102003 0.0209982
v -0.003328718 -0.03707486 0.01992346
v -0.003328718 -0.1102003 0.01992345
v -0.005373005 -0.03707486 0.01710974
v -0.005373005 -0.1102003 0.01710973
v -0.005373006 -0.03707486 0.0136318
v -0.005373006 -0.1102003 0.01363179
v -0.00332872 -0.03707486 0.01081808
v -0.00332872 -0.1102003 0.01081807
v -2.099631E-05 -0.03707486 0.009743333
v -2.099631E-05 -0.1102003 0.009743321
v 0.005331016 -0.1102003 0.01363179
v 0.005331016 -0.03707486 0.0136318
v 0.003286728 -0.1102003 0.01081807
v 0.003286728 -0.03707486 0.01081808
v -2.099631E-05 -0.1102003 0.009743321
v -2.099631E-05 -0.03707486 0.009743333
vt 0.0139026 0.2171238
vt 0.6468155 0.2171247
vt 0.0139026 0.166361
vt 0.6468156 0.1663619
vt 0.6468154 0.2678876
vt 0.0139026 0.2678867
vt 0.6468155 0.3186505
vt 0.01390237 0.3186496
vt 0.6468154 0.3694134
vt 0.01390237 0.3694125
vt 0.6468153 0.4201763
vt 0.01390219 0.4201754
vt 0.6468157 0.115599
vt 0.01390278 0.1155984
vt 0.2808366 0.06483555
vt 0.01390278 0.06483537
vt 0.01390278 0.01407248
vt 0.2808369 0.01407272
vt 0.4666092 0.06483591
vt 0.6468157 0.06483603
vt 0.466609 0.01407295
vt 0.6468158 0.01407307
vt 0.2808361 0.4709386
vt 0.01390219 0.4709383
vt 0.2808361 0.5217015
vt 0.01390201 0.521701
vt 0.4666087 0.4709388
vt 0.6468153 0.4709391
vt 0.6468153 0.521702
vt 0.4666085 0.5217017
vt 0.9472219 0.6634576
vt 0.8189024 0.6634576
vt 0.9075689 0.6922671
vt 0.8585553 0.6922671
vt 0.962368 0.6168429
vt 0.8037563 0.6168429
vt 0.8189024 0.570228
vt 0.9472219 0.570228
vt 0.9075689 0.5414186
vt 0.8585553 0.5414184
vt 0.5901297 0.569339
vt 0.6143272 0.5865107
vt 0.6301607 0.5395674
vt 0.6396437 0.5676823
vt 0.680046 0.5390114
vt 0.6711922 0.5673308
vt 0.7207308 0.567883
vt 0.6969223 0.5855898
vt 0.7366752 0.6151546
vt 0.7070059 0.6154854
vt 0.7217889 0.66277
vt 0.6975914 0.6455986
vt 0.6817578 0.6925419
vt 0.6722749 0.6644269
vt 0.6318727 0.693098
vt 0.6407263 0.6647787
vt 0.5911878 0.6642264
vt 0.6149962 0.6465195
vt 0.5752434 0.6169546
vt 0.6049128 0.6166238
vt 0.5470103 0.8755296
vt 0.5470103 0.9665411
vt 0.7221143 0.8755293
vt 0.7221143 0.9665411
vt 0.5565512 0.7166775
vt 0.5565512 0.8363714
vt 0.7396573 0.7166775
vt 0.7396573 0.8363714
vt 0.8761237 0.9716974
vt 0.9238474 0.8671617
vt 0.8761237 0.8516553
vt 0.9715712 0.9716974
vt 0.9715714 0.8516553
vt 0.9655654 0.8276613
vt 0.9655654 0.711455
vt 0.7877954 0.8276618
vt 0.7877952 0.7114555
vt 0.8065278 0.8661107
vt 0.759774 0.8509195
vt 0.7597737 0.9685205
vt 0.8532811 0.9685205
vt 0.8532814 0.8509195
vt 0.3234133 0.8904929
vt 0.3234133 0.9873115
vt 0.3548716 0.8904929
vt 0.3548716 0.9873115
vt 0.3803218 0.9688208
vt 0.3803218 0.9089836
vt 0.297963 0.9089836
vt 0.297963 0.9688208
vt 0.390043 0.9389022
vt 0.2882418 0.9389022
vt 0.02035844 0.7714084
vt 0.5138067 0.7714089
vt 0.0203585 0.7395815
vt 0.5138067 0.7395821
vt 0.0203585 0.7077543
vt 0.5138069 0.7077551
vt 0.02035856 0.675927
vt 0.5138069 0.6759276
vt 0.02035856 0.6441001
vt 0.5138069 0.6441005
vt 0.02035862 0.612273
vt 0.5138069 0.6122736
vt 0.02035868 0.580446
vt 0.5138071 0.5804465
vt 0.02035874 0.5486189
vt 0.5138071 0.5486195
vt 0.5138067 0.8032358
vt 0.02035838 0.8032352
vt 0.5138067 0.835063
vt 0.02035838 0.8350624
vt 0.5138067 0.8668901
vt 0.02035832 0.8668895
vn 0.5877851 -1.688164E-07 0.8090171
vn 0.5877852 -1.69325E-07 0.8090171
vn 0.9510565 0 0.3090166
vn 0.9510567 0 0.3090166
vn -1.296693E-07 -2.087648E-07 1
vn -2.25051E-07 -2.086084E-07 1
vn -0.5877851 -1.683052E-07 0.8090171
vn -0.5877851 -1.687824E-07 0.8090171
vn -0.9510565 0 0.3090173
vn -0.9510565 0 0.3090173
vn -0.9510567 0 -0.3090164
vn -0.9510565 0 -0.3090167
vn 0.9510565 0 -0.3090174
vn 0.9510564 0 -0.3090176
vn 0.6714803 1.287519E-07 -0.7410224
vn 0.5877853 2.024844E-07 -0.809017
vn 1.421376E-07 2.001709E-07 -1
vn 1.695676E-07 1.787559E-07 -1
vn 0.6714804 0 -0.7410223
vn 0.5877855 0 -0.8090168
vn 0 0 -1
vn 0 0 -1
vn -0.6714807 1.306723E-07 -0.7410222
vn -0.5877854 0 -0.809017
vn 1.695676E-07 1.787559E-07 -1
vn 1.421376E-07 2.001709E-07 -1
vn -0.6714808 0 -0.741022
vn -0.5877858 0 -0.8090166
vn 0 0 -1
vn 0 0 -1
vn 0 1 0
vn 2.57698E-07 1 0
vn 0 1 0
vn 0 1 0
vn 0 1 0
vn 0 1 1.339698E-07
vn -2.576976E-07 1 0
vn 0 1 0
vn 0 1 0
vn 0 1 0
vn 1.408641E-07 -1 -4.335355E-07
vn 2.830551E-07 -1 -4.303644E-07
vn 3.698468E-07 -1 -4.284293E-07
vn 5.831327E-07 -1 -4.236719E-07
vn 0 -1 0
vn 0 -1 0
vn -3.687871E-07 -1 -2.679395E-07
vn -3.218318E-07 -1 -4.021915E-07
vn -2.931705E-07 -1 -4.84137E-07
vn -2.227373E-07 -1 -6.855146E-07
vn 1.408629E-07 -1 -4.335344E-07
vn -1.037787E-07 -1 -4.389918E-07
vn -8.587398E-07 -1 -9.033172E-07
vn -1.03099E-06 -1 -7.632904E-07
vn -2.920698E-07 -1 -2.223174E-07
vn 0 -1 0
vn 0 -1 0
vn 0 -1 0
vn 0 -1 0
vn 0 -1 0
vn -2.279232E-07 1.776973E-07 -1
vn -2.279232E-07 1.776973E-07 -1
vn -2.279232E-07 1.776973E-07 -1
vn -2.279232E-07 1.776973E-07 -1
vn -1 0 1.81226E-07
vn -1 0 1.81226E-07
vn -1 0 1.81226E-07
vn -1 0 1.81226E-07
vn 0 1 1.250948E-07
vn 0 1 1.636921E-07
vn -1.690392E-07 1 1.81226E-07
vn 0 1 1.250948E-07
vn 1.690392E-07 1 1.812259E-07
vn 1 0 -1.812259E-07
vn 1 0 -1.812259E-07
vn 1 0 -1.812259E-07
vn 1 0 -1.812259E-07
vn 0 -1 -1.873338E-07
vn 0 -1 -1.812259E-07
vn 0 -1 -2.007789E-07
vn 0 -1 -2.007789E-07
vn 0 -1 -1.81226E-07
vn 0 -1 0
vn 0 -1 0
vn 0 -1 0
vn 0 -1 0
vn 0 -1 0
vn 0 -1 0
vn 0 -1 0
vn 0 -1 0
vn 0 -1 0
vn 0 -1 0
vn 0.9510565 0 0.3090168
vn 0.9510565 0 0.3090166
vn 0.5877858 -1.055011E-07 0.8090166
vn 0.5877859 -1.047458E-07 0.8090166
vn 0 -1.304004E-07 1
vn 0 -1.293882E-07 1
vn -0.5877859 -1.054931E-07 0.8090165
vn -0.5877856 -1.054845E-07 0.8090166
vn -0.9510565 0 0.3090168
vn -0.9510565 0 0.309017
vn -0.9510565 0 -0.3090167
vn -0.9510565 0 -0.3090166
vn -0.5877855 1.318764E-07 -0.8090168
vn -0.5877856 1.316791E-07 -0.8090168
vn 0 1.630238E-07 -1
vn -1.097202E-07 1.632521E-07 -1
vn 0.9510565 0 -0.3090172
vn 0.9510565 0 -0.309017
vn 0.5877853 1.324391E-07 -0.809017
vn 0.5877854 1.318897E-07 -0.8090168
vn -1.097202E-07 1.632521E-07 -1
vn 0 1.630238E-07 -1
g barrel_57_fn_120mm_threaded_57x28_LOD1_0
f 3/3/3 2/2/2 1/1/1
f 3/3/3 4/4/4 2/2/2
f 1/1/1 2/2/2 5/5/5
f 1/1/1 5/5/5 6/6/6
f 6/6/6 5/5/5 7/7/7
f 6/6/6 7/7/7 8/8/8
f 8/8/8 7/7/7 9/9/9
f 8/8/8 9/9/9 10/10/10
f 10/10/10 9/9/9 11/11/11
f 10/10/10 11/11/11 12/12/12
f 3/3/3 13/13/13 4/4/4
f 3/3/3 14/14/14 13/13/13
f 15/15/15 13/13/13 14/14/14
f 16/16/16 15/15/15 14/14/14
f 17/17/17 15/15/15 16/16/16
f 17/17/17 18/18/18 15/15/15
f 15/15/15 19/19/19 13/13/13
f 19/19/19 20/20/20 13/13/13
f 21/21/21 20/20/20 19/19/19
f 21/21/21 22/22/22 20/20/20
f 11/11/11 23/23/23 12/12/12
f 24/24/24 12/12/12 23/23/23
f 25/25/25 24/24/24 23/23/23
f 25/25/25 26/26/26 24/24/24
f 11/11/11 27/27/27 23/23/23
f 11/11/11 28/28/28 27/27/27
f 27/27/27 28/28/28 29/29/29
f 27/27/27 29/29/29 30/30/30
f 33/33/33 32/32/32 31/31/31
f 33/33/33 34/34/34 32/32/32
f 32/32/32 35/35/35 31/31/31
f 32/32/32 36/36/36 35/35/35
f 35/35/35 36/36/36 37/37/37
f 35/35/35 37/37/37 38/38/38
f 37/37/37 39/39/39 38/38/38
f 37/37/37 40/40/40 39/39/39
f 43/43/43 42/42/42 41/41/41
f 43/43/43 44/44/44 42/42/42
f 45/45/45 44/44/44 43/43/43
f 45/45/45 46/46/46 44/44/44
f 47/47/47 46/46/46 45/45/45
f 47/47/47 48/48/48 46/46/46
f 49/49/49 48/48/48 47/47/47
f 49/49/49 50/50/50 48/48/48
f 51/51/51 50/50/50 49/49/49
f 51/51/51 52/52/52 50/50/50
f 53/53/53 52/52/52 51/51/51
f 53/53/53 54/54/54 52/52/52
f 55/55/55 54/54/54 53/53/53
f 55/55/55 56/56/56 54/54/54
f 57/57/57 56/56/56 55/55/55
f 57/57/57 58/58/58 56/56/56
f 59/59/59 58/58/58 57/57/57
f 59/59/59 60/60/60 58/58/58
f 41/41/41 60/60/60 59/59/59
f 41/41/41 42/42/42 60/60/60
f 63/63/63 62/62/62 61/61/61
f 63/63/63 64/64/64 62/62/62
f 67/67/67 66/66/66 65/65/65
f 67/67/67 68/68/68 66/66/66
f 71/71/71 70/70/70 69/69/69
f 70/70/70 72/72/72 69/69/69
f 70/70/70 73/73/73 72/72/72
f 76/76/76 75/75/75 74/74/74
f 76/76/76 77/77/77 75/75/75
f 80/80/80 79/79/79 78/78/78
f 80/80/80 78/78/78 81/81/81
f 78/78/78 82/82/82 81/81/81
f 85/85/85 84/84/84 83/83/83
f 85/85/85 86/86/86 84/84/84
f 85/85/85 87/87/87 86/86/86
f 85/85/85 88/88/88 87/87/87
f 84/84/84 89/89/89 83/83/83
f 84/84/84 90/90/90 89/89/89
f 88/88/88 91/91/91 87/87/87
f 90/90/90 92/92/92 89/89/89
f 95/95/95 94/94/94 93/93/93
f 95/95/95 96/96/96 94/94/94
f 97/97/97 96/96/96 95/95/95
f 97/97/97 98/98/98 96/96/96
f 99/99/99 98/98/98 97/97/97
f 99/99/99 100/100/100 98/98/98
f 101/101/101 100/100/100 99/99/99
f 101/101/101 102/102/102 100/100/100
f 103/103/103 102/102/102 101/101/101
f 103/103/103 104/104/104 102/102/102
f 105/105/105 104/104/104 103/103/103
f 105/105/105 106/106/106 104/104/104
f 107/107/107 106/106/106 105/105/105
f 107/107/107 108/108/108 106/106/106
f 93/93/93 94/94/94 109/109/109
f 93/93/93 109/109/109 110/110/110
f 110/110/110 109/109/109 111/111/111
f 110/110/110 111/111/111 112/112/112
f 112/112/112 111/111/111 113/113/113
f 112/112/112 113/113/113 114/114/114
