g barrel_870_express_rifle_sights_fixed_improved_cylinder_508mm_LOD1
v 0.01676055 0.001145878 0
v 0.01324775 -0.1157653 0
v 0.009343769 -0.1157653 0.009423399
v 0.01182786 0.001145878 0.01190752
v -7.965446E-05 -0.1157653 0.01332735
v -7.965446E-05 0.001145878 0.0168402
v -0.009503054 -0.1157653 0.009423399
v -0.01198717 0.001145878 0.01190752
v -0.01340703 -0.1157653 0
v -0.01691986 0.001145878 0
v -0.009503054 -0.1157653 -0.009423399
v -0.01198717 0.001145878 -0.01190752
v -7.965446E-05 -0.1157653 -0.01332735
v -7.965446E-05 0.001145878 -0.0168402
v 0.009343769 -0.1157653 -0.009423399
v 0.01182786 0.001145878 -0.01190752
v 0.01182786 0.001145878 -0.01190752
v 0.01676055 0.03483639 0
v 0.01182786 0.03483639 0.01190752
v -7.965446E-05 0.03483639 0.0168402
v -0.01198717 0.03483639 0.01190752
v 0.01182786 0.03483639 -0.01190752
v 0.009343769 -0.1157653 -0.009423399
v 0.01676055 0.03483639 0
v -7.965446E-05 0.03483639 0.0168402
v -0.01198717 0.03483639 0.01190752
v 0.01182786 0.03483639 -0.01190752
v 0.01182786 0.03483639 0.01190752
v 0.00836333 -0.4876517 -0.008442935
v -7.965446E-05 -0.4876517 -0.01194049
v -0.008522615 -0.4876517 -0.008442935
v 0.01186089 -0.4876517 0
v 0.00836333 -0.4876517 0.008442935
v -0.01202019 -0.4876517 0
v -7.965446E-05 -0.4876517 0.01194049
v -0.008522615 -0.4876517 0.008442935
v 0.01186089 -0.4876517 0
v 0.00836333 -0.4876517 0.008442935
v 0.008853526 -0.3017085 0.00893318
v 0.01255436 -0.3017085 0
v -7.965446E-05 -0.3017085 0.01263396
v -7.965446E-05 -0.4876517 0.01194049
v -0.009012809 -0.3017085 0.00893318
v -0.008522615 -0.4876517 0.008442935
v -0.01271361 -0.3017085 0
v -0.01202019 -0.4876517 0
v 0.00836333 -0.3137532 -0.008442935
v 0.00836333 -0.2948734 -0.008442935
v 0.00836333 -0.4876517 -0.008442935
v -7.965446E-05 -0.3137532 -0.01194049
v -7.965446E-05 -0.4876517 -0.01194049
v -0.008522615 -0.2948734 -0.008442935
v -0.008522615 -0.3137532 -0.008442935
v -0.008522615 -0.4876517 -0.008442935
v -7.965446E-05 -0.4876517 -0.01194049
v -7.965446E-05 -0.3137532 -0.01194049
v -0.008522615 -0.2948734 -0.008442935
v -0.009503054 -0.1157653 -0.009423399
v -0.01340703 -0.1157653 0
v -7.965446E-05 -0.2948734 -0.01194049
v -7.965446E-05 -0.1157653 -0.01332735
v -0.01271361 -0.3017085 0
v -0.009503054 -0.1157653 0.009423399
v -0.009012809 -0.3017085 0.00893318
v -7.965446E-05 -0.1157653 0.01332735
v -7.965446E-05 -0.3017085 0.01263396
v 0.009343769 -0.1157653 0.009423399
v 0.008853526 -0.3017085 0.00893318
v 0.01324775 -0.1157653 0
v 0.01255436 -0.3017085 0
v 0.00836333 -0.2948734 -0.008442935
v 0.009343769 -0.1157653 -0.009423399
v -7.965446E-05 -0.1157653 -0.01332735
v -7.965446E-05 -0.2948734 -0.01194049
v -0.01198717 0.03483639 0.01190752
v -0.01198717 0.001145878 0.01190752
v 0.01182786 0.001145878 -0.01190752
v 0.01182786 0.03483639 -0.01190752
v 0.0152721 -0.3136415 -0.0268859
v 0.0152721 -0.2942841 -0.0268859
v 0.0152721 -0.2942841 -0.03960871
v 0.0152721 -0.3136415 -0.03960871
v 0.006275425 -0.3136415 -0.01788922
v 0.006275425 -0.2942841 -0.01788922
v 0.006275425 -0.2942841 -0.04860287
v 0.006275425 -0.3136415 -0.04860287
v -0.006444895 -0.2942841 -0.04860287
v -0.006444895 -0.3136415 -0.04860287
v -0.01544158 -0.2942841 -0.03960871
v -0.01544158 -0.3136415 -0.03960871
v -0.01544158 -0.2942841 -0.0268859
v -0.01544158 -0.3136415 -0.0268859
v -0.006444895 -0.2942841 -0.01788922
v -0.006444895 -0.3136415 -0.01788922
v 0.0152721 -0.2942841 -0.03960871
v -0.01544158 -0.2942841 -0.03960871
v -0.006444895 -0.2942841 -0.04860287
v 0.006275425 -0.2942841 -0.04860287
v -0.01544158 -0.2942841 -0.0268859
v 0.0152721 -0.2942841 -0.0268859
v -0.006444895 -0.2942841 -0.01788922
v 0.006275425 -0.2942841 -0.01788922
v -7.965446E-05 -0.2948734 -0.01194049
v -0.008522615 -0.2948734 -0.008442935
v 0.00836333 -0.2948734 -0.008442935
v 0.006275425 -0.3136415 -0.04860287
v -0.006444895 -0.3136415 -0.04860287
v -0.01544158 -0.3136415 -0.03960871
v 0.0152721 -0.3136415 -0.03960871
v 0.0152721 -0.3136415 -0.0268859
v -0.01544158 -0.3136415 -0.0268859
v 0.006275425 -0.3136415 -0.01788922
v -0.006444895 -0.3136415 -0.01788922
v -7.965446E-05 -0.3137532 -0.01194049
v -0.008522615 -0.3137532 -0.008442935
v 0.00836333 -0.3137532 -0.008442935
v 0.00836333 -0.2948734 -0.008442935
v 0.006275425 -0.2942841 -0.01788922
v 0.006275425 -0.3136415 -0.01788922
v 0.00836333 -0.3137532 -0.008442935
v -0.008522615 -0.2948734 -0.008442935
v -0.008522615 -0.3137532 -0.008442935
v -0.006444895 -0.3136415 -0.01788922
v -0.006444895 -0.2942841 -0.01788922
v -0.01691986 0.001145878 0
v -7.965446E-05 0.001145878 -0.0168402
v 0.01182786 0.001145878 -0.01190752
v -0.01198717 0.001145878 0.01190752
v -0.01198717 0.001145878 -0.01190752
v 0.002005686 -0.4542685 0.02746756
v 0.002005686 -0.4694221 0.02681732
v -0.00219291 -0.4694221 0.02681732
v -0.00219291 -0.4542685 0.02746756
v -0.004229989 -0.4741795 0.0185547
v 0.004058056 -0.4741795 0.0185547
v 0.004058056 -0.4788099 0.00938276
v -0.004229989 -0.4788099 0.00938276
v 0.002005686 -0.4694221 0.02681732
v -0.00219291 -0.4694221 0.02681732
v 0.004058056 -0.4513958 0.01896615
v 0.004058056 -0.408838 0.01213866
v 0.004058056 -0.4788099 0.00938276
v 0.004058056 -0.4741795 0.0185547
v 0.002005686 -0.4542685 0.02746756
v 0.002005686 -0.4694221 0.02681732
v 0.004058056 -0.4087112 0.009583419
v 0.004058056 -0.4513958 0.01896615
v -0.004229989 -0.4513958 0.01896615
v -0.004229989 -0.408838 0.01213866
v 0.004058056 -0.408838 0.01213866
v -0.004229989 -0.4513958 0.01896615
v -0.004229989 -0.4741795 0.0185547
v -0.004229989 -0.4788099 0.00938276
v -0.004229989 -0.408838 0.01213866
v -0.00219291 -0.4542685 0.02746756
v -0.00219291 -0.4694221 0.02681732
v -0.004229989 -0.4087112 0.009583419
v 0.004058056 -0.4513958 0.01896615
v 0.002005686 -0.4542685 0.02746756
v -0.00219291 -0.4542685 0.02746756
v -0.004229989 -0.4513958 0.01896615
v 0.004058056 -0.4087112 0.009583419
v 0.004058056 -0.408838 0.01213866
v -0.004229989 -0.408838 0.01213866
v -0.004229989 -0.4087112 0.009583419
v -0.005809895 -0.1772688 0.01386583
v 0.005678525 -0.1772688 0.01386583
v 0.005678525 -0.1772688 0.00813054
v -0.005809895 -0.1772688 0.00813054
v 0.006265316 -0.1241041 0.01736344
v 0.006265316 -0.1241041 0.00813054
v 0.005678525 -0.1772688 0.00813054
v 0.005678525 -0.1772688 0.01386583
v 0.005678525 -0.1139212 0.01679953
v 0.005678525 -0.1072207 0.00813054
v 0.007436204 -0.136291 0.02852928
v 0.005678525 -0.1139212 0.01679953
v -0.005809895 -0.1139212 0.01679953
v -0.005809895 -0.1072207 0.00813054
v 0.005678525 -0.1072207 0.00813054
v -0.005809895 -0.1139212 0.01679953
v -0.006404204 -0.1241041 0.01736344
v -0.006404204 -0.1241041 0.00813054
v -0.005809895 -0.1072207 0.00813054
v -0.005809895 -0.1772688 0.00813054
v -0.005809895 -0.1772688 0.01386583
v -0.007592975 -0.136291 0.02852928
v -0.005809895 -0.1772688 0.01386583
v -0.007592975 -0.136291 0.02852928
v 0.007436204 -0.136291 0.02852928
v 0.005678525 -0.1772688 0.01386583
v 0.006265316 -0.1241041 0.01736344
v 0.007436204 -0.136291 0.02852928
v -0.007592975 -0.136291 0.02852928
v -0.006404204 -0.1241041 0.01736344
v -0.006404204 -0.1241041 0.01736344
v -0.005809895 -0.1139212 0.01679953
v 0.005678525 -0.1139212 0.01679953
v 0.006265316 -0.1241041 0.01736344
vt 0.9575784 0.6993877
vt 0.9632047 0.04143798
vt 0.9327489 0.03964181
vt 0.9194138 0.6971048
vt 0.9023069 0.03699597
vt 0.8812726 0.6938081
vt 0.8719402 0.03322864
vt 0.8430584 0.6894634
vt 0.8416598 0.02795099
vt 0.8048913 0.6824688
vt 0.8114582 0.02122384
vt 0.7668099 0.6739896
vt 0.781349 0.01320012
vt 0.7288383 0.6638743
vt 0.7513631 0.003892001
vt 0.6909828 0.6521232
vt 0.9958652 0.7007182
vt 0.9541686 0.8887044
vt 0.9155194 0.8862966
vt 0.8768837 0.8830315
vt 0.8384287 0.8794617
vt 0.9926506 0.8908041
vt 0.993615 0.04193993
vt 0.7414487 0.8150322
vt 0.8048412 0.8750983
vt 0.8338605 0.8276345
vt 0.7442114 0.7426919
vt 0.7665633 0.8698756
vt 0.6383728 0.09645844
vt 0.6111602 0.09646504
vt 0.5919225 0.1328334
vt 0.6576171 0.132818
vt 0.6576173 0.184249
vt 0.5919225 0.184259
vt 0.6383773 0.2206177
vt 0.6111655 0.2206196
vt 0.006143562 0.4228876
vt 0.006512817 0.3713958
vt 0.560142 0.3843191
vt 0.5597516 0.438658
vt 0.5604544 0.3299964
vt 0.006808455 0.3198837
vt 0.5606897 0.2756868
vt 0.007031733 0.2683548
vt 0.5608506 0.2213782
vt 0.007183346 0.2168285
vt 0.5234273 0.4905215
vt 0.5796349 0.4923047
vt 0.005694423 0.4743637
vt 0.5229813 0.5419004
vt 0.005247457 0.525827
vt 0.5812792 0.1684937
vt 0.5250626 0.1682371
vt 0.007261089 0.1653241
vt 0.007344122 0.1138529
vt 0.5251451 0.1168567
vt 0.5379223 0.9269127
vt 0.004615752 0.9365258
vt 0.004415492 0.8790878
vt 0.5382641 0.978313
vt 0.00499669 0.9939443
vt 0.55808 0.8736393
vt 0.004299176 0.8216424
vt 0.5579698 0.8192731
vt 0.004272727 0.7641827
vt 0.5579448 0.764922
vt 0.004337024 0.7067068
vt 0.5580049 0.7105898
vt 0.004492636 0.649223
vt 0.5581524 0.6562695
vt 0.5380353 0.6029449
vt 0.004735594 0.5918146
vt 0.005161811 0.5344049
vt 0.5384163 0.5515387
vt 0.5687224 0.4267627
vt 0.6690402 0.4267627
vt 0.6690402 0.237235
vt 0.5687224 0.237235
vt 0.5995175 0.8845152
vt 0.5995175 0.9934461
vt 0.6373998 0.9934461
vt 0.6373998 0.8845152
vt 0.5616327 0.8845152
vt 0.5616327 0.9934461
vt 0.6752778 0.9934461
vt 0.6752778 0.8845152
vt 0.7131514 0.9934461
vt 0.7131514 0.8845152
vt 0.7510292 0.9934461
vt 0.7510292 0.8845152
vt 0.7889118 0.9934461
vt 0.7889118 0.8845152
vt 0.8267963 0.9934461
vt 0.8267963 0.8845152
vt 0.5584137 0.6321042
vt 0.6192898 0.5031208
vt 0.5814717 0.507212
vt 0.5562595 0.5606315
vt 0.6475601 0.550778
vt 0.5866859 0.6797631
vt 0.6497203 0.6222613
vt 0.6245108 0.6756814
vt 0.6503904 0.6713853
vt 0.6748788 0.6489531
vt 0.6413907 0.7199201
vt 0.5623983 0.7576519
vt 0.5631046 0.8292213
vt 0.5903789 0.8788965
vt 0.5886774 0.7060887
vt 0.6265554 0.7047613
vt 0.6282567 0.8775672
vt 0.6538391 0.7544361
vt 0.6545435 0.826004
vt 0.6719053 0.7895705
vt 0.682782 0.8367119
vt 0.6818469 0.7416974
vt 0.685807 0.6171803
vt 0.6570007 0.6171803
vt 0.6570001 0.5095937
vt 0.6858065 0.5095937
vt 0.6437237 0.4919583
vt 0.5867961 0.4919583
vt 0.5867961 0.4375293
vt 0.6437237 0.4375293
vt 0.8353521 0.7443457
vt 0.7718403 0.6847301
vt 0.7429157 0.7323986
vt 0.8327316 0.8167064
vt 0.8101293 0.6896822
vt 0.952235 0.9314745
vt 0.9070727 0.9314745
vt 0.9070727 0.9078477
vt 0.952235 0.9078477
vt 0.8634248 0.9369634
vt 0.8634248 0.8903236
vt 0.832831 0.8903247
vt 0.8328319 0.9369646
vt 0.8918144 0.9018738
vt 0.8918144 0.9255016
vt 0.09084897 0.05884285
vt 0.2175118 0.01974155
vt 0.009139577 0.005354495
vt 0.02300407 0.05689462
vt 0.08235816 0.1080937
vt 0.03723045 0.1047429
vt 0.2178679 0.005354852
vt 0.9909639 0.9921395
vt 0.9909639 0.9455065
vt 0.8626414 0.9455065
vt 0.8626414 0.9921395
vt 0.2233933 0.05347203
vt 0.2912382 0.05541043
vt 0.3051051 0.1069575
vt 0.0967325 0.0925874
vt 0.2318816 0.004238493
vt 0.2770097 0.007582741
vt 0.09637675 0.1069693
vt 0.8324071 0.9452042
vt 0.8385185 0.9957026
vt 0.8510201 0.9957026
vt 0.8570856 0.9452042
vt 0.6956696 0.006390353
vt 0.6956696 0.02078783
vt 0.7203481 0.02078783
vt 0.7203481 0.006390353
vt 0.9912034 0.9343351
vt 0.9569954 0.9343351
vt 0.9569954 0.902061
vt 0.9912034 0.902061
vt 0.7101306 0.08909017
vt 0.7371985 0.09817691
vt 0.7096083 0.3927748
vt 0.6927935 0.3871444
vt 0.7171138 0.03312914
vt 0.7460352 0.004610318
vt 0.6708609 0.1455531
vt 0.6501863 0.4978068
vt 0.6843944 0.4978068
vt 0.6843944 0.4361507
vt 0.6501863 0.4361507
vt 0.4745713 0.06360638
vt 0.5049233 0.06759579
vt 0.5052955 0.01564452
vt 0.4550101 0.01426834
vt 0.6635857 0.01949754
vt 0.6633626 0.05177036
vt 0.5407515 0.1317225
vt 0.4411554 0.02608871
vt 0.3115625 0.01605647
vt 0.3115625 0.1006308
vt 0.4411554 0.09073864
vt 0.732232 0.7716599
vt 0.7357184 0.8646734
vt 0.6909674 0.8646734
vt 0.6945072 0.7716599
vt 0.7303154 0.7425613
vt 0.7303154 0.6851709
vt 0.6943489 0.6851709
vt 0.6943489 0.7425613
vn 0.9998881 -0.0149644 0
vn 0.9998394 -0.01790664 -0.0005865025
vn 0.7070044 -0.01693704 0.7070063
vn 0.7070273 -0.01496401 0.707028
vn -3.173137E-07 -0.01693782 0.9998566
vn 0 -0.01496454 0.9998881
vn -0.7070048 -0.01693712 0.7070059
vn -0.6030821 -0.01978652 0.7974337
vn -0.9998394 -0.01790676 -0.0005867775
vn -0.9995489 -0.03003501 0
vn -0.7069775 -0.01894043 -0.7069824
vn -0.7067875 -0.03003398 -0.7067881
vn -3.379409E-07 -0.01894138 -0.9998206
vn -1.86177E-07 -0.03003508 -0.9995489
vn 0.7069772 -0.01894037 -0.7069827
vn 0.7974332 -0.01978644 -0.6030828
vn 0.7974332 -0.01978644 -0.6030828
vn 1 0 0
vn 0.7071066 0 0.7071068
vn 0 0 1
vn -0.3827114 0 0.9238679
vn 0.9238678 0 -0.3827116
vn 0.7069772 -0.01894037 -0.7069827
vn 0 1 0
vn 0 1 0
vn 0 1 0
vn 0 1 0
vn 0 1 0
vn 0 -1 0
vn 0 -1 0
vn 0 -1 0
vn 0 -1 0
vn 0 -1 0
vn 0 -1 0
vn 0 -1 0
vn 0 -1 0
vn 0.9999976 -0.001921883 -0.001098608
vn 0.7071005 -0.003728858 0.7071031
vn 0.7071005 -0.003728768 0.7071032
vn 0.9994487 -0.003608668 -0.033003
vn -4.928726E-07 -0.003728933 0.9999931
vn -5.129417E-07 -0.003729034 0.9999931
vn -0.707101 -0.003728751 0.7071027
vn -0.707101 -0.003728786 0.7071028
vn -0.9994487 -0.003608583 -0.03300221
vn -0.9999976 -0.001921809 -0.001099773
vn 0.7701601 -0.00211248 -0.6378471
vn 0.7681968 -0.004871026 -0.6401953
vn 0.7071059 0 -0.7071075
vn -4.928703E-07 0 -1
vn -4.928703E-07 0 -1
vn -0.768198 -0.004871042 -0.6401939
vn -0.7701613 -0.002112326 -0.6378457
vn -0.7071055 0 -0.707108
vn -4.928703E-07 0 -1
vn -4.928703E-07 0 -1
vn -0.768198 -0.004871042 -0.6401939
vn -0.7069775 -0.01894043 -0.7069824
vn -0.9998394 -0.01790676 -0.0005867775
vn -4.919426E-07 -0.007742291 -0.9999701
vn -3.379409E-07 -0.01894138 -0.9998206
vn -0.9994487 -0.003608583 -0.03300221
vn -0.7070048 -0.01693712 0.7070059
vn -0.707101 -0.003728751 0.7071027
vn -3.173137E-07 -0.01693782 0.9998566
vn -4.928726E-07 -0.003728933 0.9999931
vn 0.7070044 -0.01693704 0.7070063
vn 0.7071005 -0.003728768 0.7071032
vn 0.9998394 -0.01790664 -0.0005865025
vn 0.9994487 -0.003608668 -0.033003
vn 0.7681968 -0.004871026 -0.6401953
vn 0.7069772 -0.01894037 -0.7069827
vn -3.379409E-07 -0.01894138 -0.9998206
vn -4.919426E-07 -0.007742291 -0.9999701
vn -0.7071068 0 -0.7071068
vn -0.7071068 0 -0.7071068
vn -0.7071068 0 -0.7071068
vn -0.7071068 0 -0.7071068
vn 0.9238795 0 0.3826834
vn 0.9238795 0 0.3826834
vn 0.9238527 0 -0.3827481
vn 0.9238527 0 -0.3827481
vn 0.7071068 0 0.7071068
vn 0.7071068 0 0.7071068
vn 0.3826188 0 -0.9239063
vn 0.3826188 0 -0.9239063
vn -0.3826188 0 -0.9239063
vn -0.3826188 0 -0.9239063
vn -0.9238527 0 -0.3827481
vn -0.9238527 0 -0.3827481
vn -0.9238795 0 0.3826833
vn -0.9238795 0 0.3826833
vn -0.7071069 0 0.7071066
vn -0.7071069 0 0.7071066
vn 0 1 0
vn 0 1 0
vn 0 1 0
vn 0 1 0
vn 0 1 0
vn 0 1 0
vn 0.00707782 0.9993609 0.03504
vn -0.007081079 0.99936 0.03506246
vn -9.774491E-06 0.9967127 0.08101796
vn 0.02835368 0.9972519 0.06844468
vn -0.02836745 0.9972492 0.06847814
vn 0 -1 0
vn 0 -1 0
vn 0 -1 0
vn 0 -1 0
vn 0 -1 0
vn 0 -1 0
vn 0.001347769 -0.9999769 -0.006662531
vn -0.001347145 -0.999977 -0.006658248
vn 1.860077E-06 -0.9998811 -0.01541663
vn -0.005389674 -0.9999008 -0.01301046
vn 0.005392306 -0.9999007 -0.01301686
vn 0.9764331 0 -0.2158203
vn 0.9764331 0 -0.2158203
vn 0.9764331 0 -0.2158203
vn 0.9764331 0 -0.2158203
vn -0.9766545 0 -0.2148161
vn -0.9766545 0 -0.2148161
vn -0.9766545 0 -0.2148161
vn -0.9766545 0 -0.2148161
vn 0 1 0
vn 0 1 0
vn 0 1 0
vn 0 1 0
vn 0 1 0
vn 0 -0.04287063 0.9990807
vn 0 -0.04287063 0.9990807
vn 0 -0.04287063 0.9990807
vn 0 -0.04287063 0.9990807
vn 0 -0.8809204 0.4732645
vn 0 -0.8809276 0.4732509
vn 0 -0.8926911 0.4506692
vn 0 -0.8926911 0.4506692
vn 0 -0.8666171 0.4989738
vn 0 -0.8666171 0.4989738
vn 0.9974014 -0.002015437 0.0720171
vn 1 0 0
vn 1 0 0
vn 0.9967253 -0.002262069 0.08082991
vn 0.9711118 -0.006675424 0.2385312
vn 0.9711118 -0.006675423 0.2385312
vn 1 0 0
vn 0 0.1584032 0.9873745
vn 0 0.1584032 0.9873745
vn 0 0.1584032 0.9873745
vn 0 0.1584032 0.9873745
vn -0.9974385 -0.002000967 0.07150003
vn -0.9967726 -0.002245682 0.08024438
vn -1 0 0
vn -1 0 0
vn -0.9715226 -0.006628491 0.2368542
vn -0.9715226 -0.006628491 0.2368542
vn -1 0 0
vn 0 0.947373 0.3201316
vn 0 0.947373 0.3201316
vn 0 0.9473731 0.3201316
vn 0 0.9473731 0.3201316
vn 0 0.9987703 0.04957761
vn 0 0.9987703 0.04957761
vn 0 0.9987703 0.04957761
vn 0 0.9987703 0.04957761
vn 0 -1 0
vn 0 -1 0
vn 0 -1 0
vn 0 -1 0
vn 0.99979 0.0121371 -0.01651083
vn 0.9998335 0.01631478 0.008172701
vn 0.9999391 -0.01103656 0
vn 0.9998248 -0.009994235 -0.01582449
vn 0.9989132 0.04365283 0.01633874
vn 0.9989132 0.04365283 0.01633874
vn 0.9940963 -0.003838418 -0.1084337
vn 0 0.7912099 0.6115447
vn 0 0.7912099 0.6115447
vn 0 0.7912099 0.6115447
vn 0 0.7912099 0.6115447
vn -0.9988852 0.04421086 0.01654761
vn -0.9997837 0.0122957 -0.0167724
vn -0.9998292 0.01652336 0.008277263
vn -0.9988852 0.04421086 0.01654761
vn -0.9999375 -0.01117794 0
vn -0.9998198 -0.01011995 -0.01606184
vn -0.9939193 -0.003871158 -0.1100428
vn 0 -0.3369178 0.9415342
vn 0 -0.3369177 0.9415342
vn 0 -0.3369178 0.9415342
vn 0 -0.3369177 0.9415342
vn 0 0.6755437 0.7373199
vn 0 0.6755438 0.7373199
vn 0 0.6755437 0.7373199
vn 0 0.6755438 0.7373199
vn 0 0.05529288 0.9984701
vn 0 0.05529289 0.9984701
vn 0 0.05529289 0.9984701
vn 0 0.05529289 0.9984701
g barrel_870_express_rifle_sights_fixed_improved_cylinder_508mm_LOD1_0
f 3/3/3 2/2/2 1/1/1
f 4/4/4 3/3/3 1/1/1
f 5/5/5 3/3/3 4/4/4
f 6/6/6 5/5/5 4/4/4
f 7/7/7 5/5/5 6/6/6
f 8/8/8 7/7/7 6/6/6
f 9/9/9 7/7/7 8/8/8
f 10/10/10 9/9/9 8/8/8
f 11/11/11 9/9/9 10/10/10
f 12/12/12 11/11/11 10/10/10
f 13/13/13 11/11/11 12/12/12
f 14/14/14 13/13/13 12/12/12
f 15/15/15 13/13/13 14/14/14
f 16/16/16 15/15/15 14/14/14
f 1/1/1 2/2/2 17/17/17
f 1/1/1 18/18/18 4/4/4
f 18/18/18 19/19/19 4/4/4
f 19/19/19 20/20/20 6/6/6
f 6/6/6 20/20/20 8/8/8
f 4/4/4 19/19/19 6/6/6
f 20/20/20 21/21/21 8/8/8
f 22/22/22 18/18/18 1/1/1
f 17/17/17 22/22/22 1/1/1
f 2/2/2 23/23/23 17/17/17
f 26/26/26 25/25/25 24/24/24
f 27/27/27 26/26/26 24/24/24
f 28/28/28 24/24/24 25/25/25
f 31/31/31 30/30/30 29/29/29
f 32/32/32 31/31/31 29/29/29
f 32/32/32 33/33/33 31/31/31
f 33/33/33 34/34/34 31/31/31
f 33/33/33 35/35/35 34/34/34
f 35/35/35 36/36/36 34/34/34
f 39/39/39 38/38/38 37/37/37
f 40/40/40 39/39/39 37/37/37
f 39/39/39 41/41/41 38/38/38
f 41/41/41 42/42/42 38/38/38
f 41/41/41 43/43/43 42/42/42
f 43/43/43 44/44/44 42/42/42
f 43/43/43 45/45/45 44/44/44
f 45/45/45 46/46/46 44/44/44
f 40/40/40 37/37/37 47/47/47
f 48/48/48 40/40/40 47/47/47
f 49/49/49 47/47/47 37/37/37
f 47/47/47 49/49/49 50/50/50
f 49/49/49 51/51/51 50/50/50
f 46/46/46 45/45/45 52/52/52
f 53/53/53 46/46/46 52/52/52
f 54/54/54 46/46/46 53/53/53
f 55/55/55 54/54/54 53/53/53
f 56/56/56 55/55/55 53/53/53
f 59/59/59 58/58/58 57/57/57
f 57/57/57 58/58/58 60/60/60
f 58/58/58 61/61/61 60/60/60
f 62/62/62 59/59/59 57/57/57
f 59/59/59 62/62/62 63/63/63
f 62/62/62 64/64/64 63/63/63
f 63/63/63 64/64/64 65/65/65
f 64/64/64 66/66/66 65/65/65
f 65/65/65 66/66/66 67/67/67
f 66/66/66 68/68/68 67/67/67
f 67/67/67 68/68/68 69/69/69
f 68/68/68 70/70/70 69/69/69
f 69/69/69 70/70/70 71/71/71
f 72/72/72 69/69/69 71/71/71
f 73/73/73 72/72/72 71/71/71
f 74/74/74 73/73/73 71/71/71
f 77/77/77 76/76/76 75/75/75
f 78/78/78 77/77/77 75/75/75
f 81/81/81 80/80/80 79/79/79
f 82/82/82 81/81/81 79/79/79
f 79/79/79 80/80/80 83/83/83
f 80/80/80 84/84/84 83/83/83
f 85/85/85 81/81/81 82/82/82
f 86/86/86 85/85/85 82/82/82
f 87/87/87 85/85/85 86/86/86
f 88/88/88 87/87/87 86/86/86
f 89/89/89 87/87/87 88/88/88
f 90/90/90 89/89/89 88/88/88
f 91/91/91 89/89/89 90/90/90
f 92/92/92 91/91/91 90/90/90
f 93/93/93 91/91/91 92/92/92
f 94/94/94 93/93/93 92/92/92
f 97/97/97 96/96/96 95/95/95
f 98/98/98 97/97/97 95/95/95
f 96/96/96 99/99/99 95/95/95
f 99/99/99 100/100/100 95/95/95
f 99/99/99 101/101/101 100/100/100
f 101/101/101 102/102/102 100/100/100
f 102/102/102 101/101/101 103/103/103
f 101/101/101 104/104/104 103/103/103
f 105/105/105 102/102/102 103/103/103
f 108/108/108 107/107/107 106/106/106
f 109/109/109 108/108/108 106/106/106
f 109/109/109 110/110/110 108/108/108
f 110/110/110 111/111/111 108/108/108
f 110/110/110 112/112/112 111/111/111
f 112/112/112 113/113/113 111/111/111
f 112/112/112 114/114/114 113/113/113
f 113/113/113 114/114/114 115/115/115
f 116/116/116 114/114/114 112/112/112
f 119/119/119 118/118/118 117/117/117
f 120/120/120 119/119/119 117/117/117
f 123/123/123 122/122/122 121/121/121
f 124/124/124 123/123/123 121/121/121
f 127/127/127 126/126/126 125/125/125
f 128/128/128 127/127/127 125/125/125
f 129/129/129 125/125/125 126/126/126
f 132/132/132 131/131/131 130/130/130
f 133/133/133 132/132/132 130/130/130
f 136/136/136 135/135/135 134/134/134
f 137/137/137 136/136/136 134/134/134
f 135/135/135 138/138/138 134/134/134
f 138/138/138 139/139/139 134/134/134
f 142/142/142 141/141/141 140/140/140
f 143/143/143 142/142/142 140/140/140
f 140/140/140 144/144/144 143/143/143
f 144/144/144 145/145/145 143/143/143
f 142/142/142 146/146/146 141/141/141
f 149/149/149 148/148/148 147/147/147
f 150/150/150 149/149/149 147/147/147
f 153/153/153 152/152/152 151/151/151
f 154/154/154 153/153/153 151/151/151
f 151/151/151 152/152/152 155/155/155
f 152/152/152 156/156/156 155/155/155
f 154/154/154 157/157/157 153/153/153
f 160/160/160 159/159/159 158/158/158
f 161/161/161 160/160/160 158/158/158
f 164/164/164 163/163/163 162/162/162
f 165/165/165 164/164/164 162/162/162
f 168/168/168 167/167/167 166/166/166
f 169/169/169 168/168/168 166/166/166
f 172/172/172 171/171/171 170/170/170
f 173/173/173 172/172/172 170/170/170
f 170/170/170 171/171/171 174/174/174
f 171/171/171 175/175/175 174/174/174
f 176/176/176 173/173/173 170/170/170
f 179/179/179 178/178/178 177/177/177
f 180/180/180 179/179/179 177/177/177
f 183/183/183 182/182/182 181/181/181
f 184/184/184 183/183/183 181/181/181
f 183/183/183 185/185/185 182/182/182
f 185/185/185 186/186/186 182/182/182
f 182/182/182 186/186/186 187/187/187
f 190/190/190 189/189/189 188/188/188
f 191/191/191 190/190/190 188/188/188
f 194/194/194 193/193/193 192/192/192
f 195/195/195 194/194/194 192/192/192
f 198/198/198 197/197/197 196/196/196
f 199/199/199 198/198/198 196/196/196
