g barrel_mr133_510mm_plank_LOD1
v 0.009627609 -0.1103477 0.00555079
v 0.01111694 -0.3919984 -7.755756E-06
v 0.009627609 -0.3919984 0.005550773
v 0.01111694 -0.1103477 -7.739067E-06
v 0.005558472 -0.1103478 0.009619919
v 0.005558472 -0.3919984 0.009619895
v 0 -0.1103478 0.01110932
v 0 -0.3919984 0.0111093
v 0.009627533 -0.3919984 -0.005566291
v 0.009627533 -0.1103477 -0.005566272
v 0.01240761 -0.004875049 -7.743835E-06
v 0.01074539 -0.004875049 0.006196131
v 0.006203766 -0.004875097 0.01073768
v 0 -0.004875097 0.01240001
v 0.01074531 -0.004875049 -0.006211613
v 0.006203766 -0.004875049 -0.01075316
v 0.005558472 -0.1103477 -0.009635394
v 0.005558472 -0.3919984 -0.00963541
v -3.890991E-05 -0.3919984 -0.01105964
v -1.525879E-07 -0.1103477 -0.0111248
v -0.005558624 -0.1103478 0.009619919
v 0 -0.3919984 0.0111093
v -0.005558624 -0.3919984 0.0096199
v 0 -0.1103478 0.01110932
v -0.009627685 -0.1103477 0.00555079
v -0.009627685 -0.3919984 0.005550773
v -0.01111717 -0.1103477 -7.735491E-06
v -0.01111717 -0.3919984 -7.753372E-06
v -0.009627685 -0.1103477 -0.005566259
v -0.009627685 -0.3919984 -0.005566278
v -0.005558624 -0.1103477 -0.009635387
v -0.005558624 -0.3919984 -0.009635407
v -1.525879E-07 -0.1103477 -0.0111248
v -3.890991E-05 -0.3919984 -0.01105964
v 0 -0.004875097 0.01240001
v -0.006203995 -0.004875097 0.01073768
v -0.01074547 -0.004875049 0.006196131
v -0.01240776 -0.004875049 -7.740259E-06
v -0.01074547 -0.004875049 -0.0062116
v -0.006203995 -0.004875049 -0.01075315
v -1.525879E-07 -0.004875049 -0.01241548
v 0.005558472 -0.1103477 -0.009635394
v -1.525879E-07 -0.004875049 -0.01241548
v -1.525879E-07 -0.1103477 -0.0111248
v 0.006203766 -0.004875049 -0.01075316
v 0.01074539 -0.004875049 0.006196131
v 0.01454384 -0.000101614 -7.740259E-06
v 0.01240761 -0.004875049 -7.743835E-06
v 0.01259529 -0.000101614 0.007264224
v 0.006203766 -0.004875097 0.01073768
v 0.007271881 -0.0001016617 0.01258768
v 0 -0.004875097 0.01240001
v 0 -0.0001016331 0.0145362
v 0.01259529 -0.000101614 -0.007279703
v 0.01074531 -0.004875049 -0.006211613
v 0.007271881 -0.000101614 -0.01260315
v 0.006203766 -0.004875049 -0.01075316
v -1.525879E-07 -0.000101614 -0.01455166
v -1.525879E-07 -0.004875049 -0.01241548
v -0.006203995 -0.004875097 0.01073768
v 0 -0.0001016331 0.0145362
v 0 -0.004875097 0.01240001
v -0.007272033 -0.0001016617 0.01258768
v -0.01074547 -0.004875049 0.006196131
v -0.01259552 -0.000101614 0.007264224
v -0.01240776 -0.004875049 -7.740259E-06
v -0.01454399 -0.000101614 -7.734298E-06
v -0.01074547 -0.004875049 -0.0062116
v -0.01259552 -0.000101614 -0.00727969
v -0.006203995 -0.004875049 -0.01075315
v -0.007272033 -0.0001015854 -0.01260314
v -1.525879E-07 -0.004875049 -0.01241548
v -1.525879E-07 -0.000101614 -0.01455166
v 0.002524261 0.0001656341 0.008638033
v 0.002524261 -0.006899958 0.01763779
v 0.002524261 -0.0002006912 0.01624896
v 0.002524261 -0.3919984 0.008120633
v 0.002524185 -0.3919984 0.01554117
v -0.002509003 -0.0002006912 0.01624896
v 0.002524261 -0.006899958 0.01763779
v -0.002509003 -0.006899958 0.01763779
v 0.002524261 -0.0002006912 0.01624896
v -0.002509003 -0.4957159 0.01457612
v 0.002524261 -0.4957635 0.007886511
v -0.002509003 -0.4957635 0.007886511
v 0.002524261 -0.4957159 0.01457612
v -0.002509003 -0.006899958 0.01763779
v -0.002520065 -0.3919984 0.008120633
v -0.002544479 0.0001656341 0.008638033
v -0.002509003 -0.3919984 0.01554117
v -0.002509003 -0.0002006912 0.01624896
v -0.002509003 -0.006899958 0.01763779
v 0.002524185 -0.3919984 0.01554117
v -0.002509003 -0.3919984 0.01554117
v 0.002524261 -0.006899958 0.01763779
v 0.002243805 -0.4871645 0.01417074
v 2.487183E-05 -0.4860214 0.01831469
v 2.487183E-05 -0.4855524 0.01417074
v 0.001797943 -0.4873095 0.01831469
v 0.001396255 -0.4897731 0.01417074
v 0.001120605 -0.4893937 0.01831469
v -0.001346436 -0.4897731 0.01417074
v -0.001070862 -0.4893937 0.01831469
v -0.002193985 -0.4871645 0.01417074
v -0.001747971 -0.4873095 0.01831469
v 2.487183E-05 -0.4855524 0.01417074
v 2.487183E-05 -0.4860214 0.01831469
v 2.487183E-05 -0.4860214 0.01831469
v 0.001797943 -0.4873095 0.01831469
v -0.001747971 -0.4873095 0.01831469
v -0.001070862 -0.4893937 0.01831469
v 0.001120605 -0.4893937 0.01831469
v 0.005558472 -0.4980606 0.009619883
v -0.005558624 -0.4980606 0.00961989
v 0 -0.4980606 0.01110929
v 0.01111694 -0.4980607 -7.764101E-06
v -0.005558624 -0.4980607 -0.009635417
v -0.01111717 -0.4980607 -7.764101E-06
v -0.009627685 -0.4980607 0.005550761
v -0.009627685 -0.4980607 -0.005566291
v 0.005558472 -0.4980607 -0.009635421
v -6.317138E-05 -0.4980607 -0.01101883
v 0.009627533 -0.4980607 -0.005566302
v 0.009627609 -0.4980607 0.005550761
v 0.009627609 -0.4980607 0.005550761
v 0.01111694 -0.3919984 -7.755756E-06
v 0.01111694 -0.4980607 -7.764101E-06
v 0.009627609 -0.3919984 0.005550773
v 0.005558472 -0.4980606 0.009619883
v 0.005558472 -0.3919984 0.009619895
v 0 -0.4980606 0.01110929
v 0 -0.3919984 0.0111093
v 0.009627533 -0.3919984 -0.005566291
v 0.009627533 -0.4980607 -0.005566302
v 0.005558472 -0.3919984 -0.00963541
v 0.005558472 -0.4980607 -0.009635421
v -3.890991E-05 -0.3919984 -0.01105964
v -6.317138E-05 -0.4980607 -0.01101883
v -0.005558624 -0.4980606 0.00961989
v 0 -0.3919984 0.0111093
v 0 -0.4980606 0.01110929
v -0.005558624 -0.3919984 0.0096199
v -0.009627685 -0.4980607 0.005550761
v -0.009627685 -0.3919984 0.005550773
v -0.01111717 -0.4980607 -7.764101E-06
v -0.01111717 -0.3919984 -7.753372E-06
v -0.009627685 -0.4980607 -0.005566291
v -0.009627685 -0.3919984 -0.005566278
v -0.005558624 -0.4980607 -0.009635417
v -0.005558624 -0.3919984 -0.009635407
v -6.317138E-05 -0.4980607 -0.01101883
v -3.890991E-05 -0.3919984 -0.01105964
v -0.002509003 -0.4957635 0.007886511
v -0.002509003 -0.3919984 0.01554117
v -0.002509003 -0.4957159 0.01457612
v -0.002520065 -0.3919984 0.008120633
v 0.002524261 -0.4957159 0.01457612
v 0.002524261 -0.3919984 0.008120633
v 0.002524261 -0.4957635 0.007886511
v 0.002524185 -0.3919984 0.01554117
v -0.002509003 -0.4957159 0.01457612
v 0.002524185 -0.3919984 0.01554117
v 0.002524261 -0.4957159 0.01457612
v -0.002509003 -0.3919984 0.01554117
vt 0.8359576 0.4708914
vt 0.4310123 0.3583203
vt 0.4310123 0.4708914
vt 0.8359576 0.3583203
vt 0.8359576 0.5780072
vt 0.4310123 0.5780078
vt 0.8359576 0.6839082
vt 0.4310123 0.6839082
vt 0.4310123 0.2535675
vt 0.8359576 0.2535675
vt 0.9905595 0.3583203
vt 0.9905595 0.4708914
vt 0.9905595 0.5780072
vt 0.9905595 0.6839082
vt 0.9905595 0.2535675
vt 0.9905595 0.1452634
vt 0.8359576 0.1452634
vt 0.4310123 0.1452633
vt 0.4310123 0.03924946
vt 0.8359576 0.03923762
vt 0.8359576 0.5780072
vt 0.4310123 0.6839082
vt 0.4310123 0.5780072
vt 0.8359576 0.6839082
vt 0.8359576 0.4708914
vt 0.4310123 0.4708921
vt 0.8359576 0.3583203
vt 0.4310123 0.3583203
vt 0.8359576 0.2535675
vt 0.4310123 0.2535675
vt 0.8359576 0.1452634
vt 0.4310123 0.1452634
vt 0.8359576 0.03923762
vt 0.4310123 0.03923756
vt 0.9905595 0.6839082
vt 0.9905595 0.5780072
vt 0.9905595 0.4708914
vt 0.9905595 0.3583203
vt 0.9905595 0.2535675
vt 0.9905595 0.1452634
vt 0.9905595 0.03923762
vt 0.8359576 0.1452634
vt 0.9905595 0.03923762
vt 0.8359576 0.03923762
vt 0.9905595 0.1452634
vt 0.9905595 0.4708914
vt 0.998402 0.3583203
vt 0.9905595 0.3583203
vt 0.998402 0.4773947
vt 0.9905595 0.5780072
vt 0.998402 0.5939298
vt 0.9905595 0.6839082
vt 0.998402 0.7180453
vt 0.998402 0.2517259
vt 0.9905595 0.2535675
vt 0.998402 0.1346035
vt 0.9905595 0.1452634
vt 0.998402 0.009805649
vt 0.9905595 0.03923762
vt 0.9905595 0.5780072
vt 0.998402 0.7180453
vt 0.9905595 0.6839082
vt 0.998402 0.5939298
vt 0.9905595 0.4708914
vt 0.998402 0.4773947
vt 0.9905595 0.3583203
vt 0.998402 0.3583203
vt 0.9905595 0.2535675
vt 0.998402 0.2517259
vt 0.9905595 0.1452634
vt 0.998402 0.1346035
vt 0.9905595 0.03923762
vt 0.998402 0.009805649
vt 0.9984428 0.7342231
vt 0.9886855 0.8962817
vt 0.9984428 0.8720388
vt 0.4326235 0.7344202
vt 0.4329157 0.8634495
vt 0.9984428 0.9831458
vt 0.9886855 0.8962817
vt 0.9886855 0.9831458
vt 0.9984428 0.896304
vt 0.09975742 0.9300268
vt 0.09002636 0.8425984
vt 0.09002636 0.9294463
vt 0.09975742 0.8431686
vt 0.9886855 0.8962817
vt 0.4326236 0.7342495
vt 0.9984428 0.7342231
vt 0.4328665 0.8638947
vt 0.9984428 0.8720362
vt 0.9886855 0.9831458
vt 0.4329157 0.8634495
vt 0.432915 0.9506574
vt 0.9886855 0.8962817
vt 0.03815285 0.9842926
vt 0.03200273 0.8358863
vt 0.02555742 0.9842926
vt 0.04206582 0.8358863
vt 0.05108957 0.9842926
vt 0.05240084 0.8358863
vt 0.0641382 0.9842926
vt 0.06282776 0.8358863
vt 0.07707302 0.9842926
vt 0.07316392 0.8358863
vt 0.08966955 0.9842926
vt 0.08322758 0.8358863
vt 0.0158685 0.6859629
vt 0.000414989 0.7793183
vt 0.03132121 0.7793183
vt 0.02541937 0.9303876
vt 0.006316987 0.9303876
vt 0.06464012 0.6611831
vt 0.02291777 0.6611831
vt 0.04377913 0.7076612
vt 0.08550112 0.360734
vt 0.02291777 0.06028676
vt 0.002056758 0.360734
vt 0.007646689 0.5341984
vt 0.007646689 0.1872704
vt 0.06464012 0.06028676
vt 0.04354233 0.0171138
vt 0.0799112 0.1872704
vt 0.07991157 0.5341984
vt 0.08979104 0.4708914
vt 0.2984962 0.3583203
vt 0.08979104 0.3583203
vt 0.2984962 0.4708921
vt 0.08979104 0.5780072
vt 0.2984961 0.5780072
vt 0.08979104 0.6839082
vt 0.2984962 0.6839082
vt 0.2984962 0.2535675
vt 0.08979104 0.2535675
vt 0.2984962 0.1452634
vt 0.08979104 0.1452634
vt 0.2984963 0.03923772
vt 0.08979104 0.03923762
vt 0.08979104 0.5780072
vt 0.2984962 0.6839082
vt 0.08979104 0.6839082
vt 0.2984961 0.5780078
vt 0.08979104 0.4708914
vt 0.2984962 0.4708914
vt 0.08979104 0.3583203
vt 0.2984962 0.3583204
vt 0.08979104 0.2535675
vt 0.2984962 0.2535675
vt 0.08979104 0.1452634
vt 0.2984962 0.1452634
vt 0.08979104 0.03923762
vt 0.2984963 0.0392016
vt 0.09975742 0.7342231
vt 0.3022814 0.8560494
vt 0.09975742 0.843183
vt 0.3021375 0.7344484
vt 0.09975742 0.8431686
vt 0.3021375 0.7342392
vt 0.09975742 0.7342231
vt 0.3022534 0.8561091
vt 0.09975742 0.9300268
vt 0.3022534 0.8561091
vt 0.09975742 0.8431686
vt 0.302281 0.9421289
vn 0.8660117 -0.006124431 0.4999862
vn 1 0 -6.516241E-06
vn 0.8660278 0 0.4999958
vn 0.9999813 -0.006124397 -6.041908E-06
vn 0.4999913 -0.006124421 0.8660088
vn 0.5000004 0 0.8660251
vn 3.453572E-06 -0.00612443 0.9999813
vn 3.810554E-06 0 1
vn 0.8660269 0 -0.4999974
vn 0.8660108 -0.006124342 -0.499988
vn 0.9999251 -0.01223616 -5.668287E-06
vn 0.865963 -0.01223618 0.4999584
vn 0.4999619 -0.01223607 0.865961
vn 4.802318E-06 -0.01223627 0.9999251
vn 0.8659617 -0.01223621 -0.4999608
vn 0.7070575 -0.01181944 -0.7070572
vn 0.5751096 -0.004155854 -0.8180657
vn 0.4945196 0 -0.8691664
vn -0.001700189 -0.0001350014 -0.9999986
vn -0.08902637 -0.004157993 -0.9960206
vn -0.4999925 -0.006124496 0.8660082
vn 3.810554E-06 0 1
vn -0.5000016 0 0.8660246
vn 3.453572E-06 -0.00612443 0.9999813
vn -0.8660077 -0.006124502 0.4999931
vn -0.8660238 0 0.5000027
vn -0.9999813 -0.006124238 -4.022646E-07
vn -1 0 1.424054E-07
vn -0.8660076 -0.006124183 -0.4999932
vn -0.8660239 0 -0.5000026
vn -0.4999957 -0.006124436 -0.8660062
vn -0.4959625 -0.0001274333 -0.8683439
vn -0.08902637 -0.004157993 -0.9960206
vn -0.001700189 -0.0001350014 -0.9999986
vn 4.802318E-06 -0.01223627 0.9999251
vn -0.4999649 -0.01223635 0.8659593
vn -0.8659641 -0.01223585 0.4999565
vn -0.9999251 -0.01223581 -5.018806E-07
vn -0.8659638 -0.01223638 -0.4999571
vn -0.4999674 -0.01223633 -0.8659577
vn -0.2588033 -0.01181936 -0.9658577
vn 0.2587968 -0.01181939 -0.9658594
vn 0.2587968 -0.01181939 -0.9658594
vn 0.2587968 -0.01181939 -0.9658594
vn 0.2587991 -0.01181925 -0.9658589
vn 0.7904837 -0.4084699 0.4563857
vn 0.9127671 -0.4084803 -4.597268E-06
vn 0.912766 -0.4084829 -8.458293E-06
vn 0.7904833 -0.4084679 0.4563881
vn 0.4563864 -0.4084771 0.7904796
vn 0.4563883 -0.4084789 0.7904776
vn 3.47664E-06 -0.4084764 0.9127689
vn 2.403356E-06 -0.4084756 0.9127693
vn 0.7904814 -0.4084774 -0.4563829
vn 0.7904828 -0.4084762 -0.4563816
vn 0.4563842 -0.4084781 -0.7904803
vn 0.4563823 -0.4084786 -0.7904811
vn -3.722836E-06 -0.408477 -0.9127687
vn -3.183871E-06 -0.4084761 -0.912769
vn -0.4563893 -0.4084738 0.7904796
vn 2.403356E-06 -0.4084756 0.9127693
vn 3.47664E-06 -0.4084764 0.9127689
vn -0.4563845 -0.4084766 0.7904809
vn -0.7904797 -0.4084833 0.4563806
vn -0.790479 -0.4084859 0.4563794
vn -0.9127649 -0.4084852 -7.959664E-07
vn -0.9127649 -0.4084853 -2.513305E-07
vn -0.7904803 -0.4084855 -0.4563774
vn -0.7904806 -0.4084827 -0.4563796
vn -0.4563872 -0.4084738 -0.7904809
vn -0.4563842 -0.4084712 -0.7904839
vn -3.183871E-06 -0.4084761 -0.912769
vn -3.722836E-06 -0.408477 -0.9127687
vn 1 0 0
vn 1 0 0
vn 1 0 0
vn 1 -2.540915E-07 1.028146E-05
vn 1 -2.540915E-07 1.028146E-05
vn 0 0.202994 0.9791799
vn 0 0.202994 0.9791799
vn 0 0.202994 0.9791799
vn 0 0.202994 0.9791799
vn 0 -0.9999746 0.007127844
vn 0 -0.9999746 0.007127842
vn 0 -0.9999746 0.007127842
vn 0 -0.9999746 0.007127844
vn -0.9999918 0.0001824309 0.004069092
vn -0.9999989 -5.954532E-05 0.001508656
vn -0.9999911 0.0003553849 0.004220935
vn -0.9999989 -5.655176E-05 0.001460245
vn -0.9999884 0.0009760598 0.004708209
vn 9.47372E-07 -0.005444275 0.9999852
vn 9.47372E-07 -0.005444275 0.9999852
vn 9.47372E-07 -0.005444275 0.9999852
vn 0 -0.005444287 0.9999852
vn 0.9450219 0.3070727 0.1124272
vn -1.76684E-05 0.7703065 0.6376738
vn -7.621873E-06 0.9936569 0.1124538
vn 0.7326158 0.2380443 0.637659
vn 0.5840516 -0.8038914 0.1124379
vn 0.4527532 -0.6232023 0.6376781
vn -0.5840548 -0.8038885 0.1124418
vn -0.4527887 -0.6231844 0.6376705
vn -0.9450244 0.3070592 0.1124439
vn -0.732599 0.2380478 0.6376771
vn -7.621873E-06 0.9936569 0.1124538
vn -1.76684E-05 0.7703065 0.6376738
vn -1.76684E-05 0.7703065 0.6376738
vn 0.7326158 0.2380443 0.637659
vn -0.732599 0.2380478 0.6376771
vn -0.4527887 -0.6231844 0.6376705
vn 0.4527532 -0.6232023 0.6376781
vn 0 -1 0
vn 0 -1 0
vn 0 -1 0
vn 0 -1 0
vn 0 -1 0
vn 2.561334E-05 -1 -6.863463E-06
vn 2.561334E-05 -1 -6.863462E-06
vn 0 -1 0
vn 0 -1 0
vn 0 -1 0
vn 0 -1 0
vn -2.561171E-05 -1 -6.862322E-06
vn 0.8660283 0 0.499995
vn 1 0 -6.516241E-06
vn 1 0 -6.239097E-06
vn 0.8660278 0 0.4999958
vn 0.5000013 0 0.8660247
vn 0.5000004 0 0.8660251
vn 3.96769E-06 -1.24023E-07 1
vn 3.810554E-06 0 1
vn 0.8660269 0 -0.4999974
vn 0.8660269 0 -0.4999972
vn 0.4945196 0 -0.8691664
vn 0.4912154 -0.0002145822 -0.8710381
vn -0.001700189 -0.0001350014 -0.9999986
vn -0.002797111 -0.0002261652 -0.9999961
vn -0.5000021 0 0.8660241
vn 3.810554E-06 0 1
vn 3.96769E-06 -1.24023E-07 1
vn -0.5000016 0 0.8660246
vn -0.8660244 0 0.5000016
vn -0.8660238 0 0.5000027
vn -1 0 0
vn -1 0 1.424054E-07
vn -0.8660239 0 -0.5000025
vn -0.8660239 0 -0.5000026
vn -0.4934136 0 -0.8697949
vn -0.4959625 -0.0001274333 -0.8683439
vn -0.002797111 -0.0002261652 -0.9999961
vn -0.001700189 -0.0001350014 -0.9999986
vn -1 -5.0275E-06 6.815187E-05
vn -0.9999989 -5.655176E-05 0.001460245
vn -1 0 0
vn -0.9999989 -5.954532E-05 0.001508656
vn 1 0 0
vn 1 0 0
vn 1 0 0
vn 1 6.399292E-07 1.028146E-05
vn 4.736653E-07 -0.00930417 0.9999567
vn 4.736654E-07 -0.00930417 0.9999567
vn 4.736653E-07 -0.00930417 0.9999567
vn 9.47345E-07 -0.009304193 0.9999567
g barrel_mr133_510mm_plank_LOD1_0
f 3/3/3 2/2/2 1/1/1
f 4/4/4 1/1/1 2/2/2
f 1/1/1 5/5/5 3/3/3
f 6/6/6 3/3/3 5/5/5
f 5/5/5 7/7/7 6/6/6
f 8/8/8 6/6/6 7/7/7
f 2/2/2 9/9/9 4/4/4
f 10/10/10 4/4/4 9/9/9
f 4/4/4 11/11/11 1/1/1
f 12/12/12 1/1/1 11/11/11
f 1/1/1 12/12/12 5/5/5
f 13/13/13 5/5/5 12/12/12
f 5/5/5 13/13/13 7/7/7
f 14/14/14 7/7/7 13/13/13
f 10/10/10 15/15/15 4/4/4
f 11/11/11 4/4/4 15/15/15
f 15/15/15 10/10/10 16/16/16
f 17/17/17 16/16/16 10/10/10
f 9/9/9 18/18/18 10/10/10
f 17/17/17 10/10/10 18/18/18
f 18/18/18 19/19/19 17/17/17
f 20/20/20 17/17/17 19/19/19
f 23/23/23 22/22/22 21/21/21
f 24/24/24 21/21/21 22/22/22
f 21/21/21 25/25/25 23/23/23
f 26/26/26 23/23/23 25/25/25
f 25/25/25 27/27/27 26/26/26
f 28/28/28 26/26/26 27/27/27
f 27/27/27 29/29/29 28/28/28
f 30/30/30 28/28/28 29/29/29
f 29/29/29 31/31/31 30/30/30
f 32/32/32 30/30/30 31/31/31
f 31/31/31 33/33/33 32/32/32
f 34/34/34 32/32/32 33/33/33
f 24/24/24 35/35/35 21/21/21
f 36/36/36 21/21/21 35/35/35
f 21/21/21 36/36/36 25/25/25
f 37/37/37 25/25/25 36/36/36
f 25/25/25 37/37/37 27/27/27
f 38/38/38 27/27/27 37/37/37
f 27/27/27 38/38/38 29/29/29
f 39/39/39 29/29/29 38/38/38
f 29/29/29 39/39/39 31/31/31
f 40/40/40 31/31/31 39/39/39
f 31/31/31 40/40/40 33/33/33
f 41/41/41 33/33/33 40/40/40
f 44/44/44 43/43/43 42/42/42
f 45/45/45 42/42/42 43/43/43
f 48/48/48 47/47/47 46/46/46
f 49/49/49 46/46/46 47/47/47
f 46/46/46 49/49/49 50/50/50
f 51/51/51 50/50/50 49/49/49
f 50/50/50 51/51/51 52/52/52
f 53/53/53 52/52/52 51/51/51
f 47/47/47 48/48/48 54/54/54
f 55/55/55 54/54/54 48/48/48
f 54/54/54 55/55/55 56/56/56
f 57/57/57 56/56/56 55/55/55
f 56/56/56 57/57/57 58/58/58
f 59/59/59 58/58/58 57/57/57
f 62/62/62 61/61/61 60/60/60
f 63/63/63 60/60/60 61/61/61
f 60/60/60 63/63/63 64/64/64
f 65/65/65 64/64/64 63/63/63
f 64/64/64 65/65/65 66/66/66
f 67/67/67 66/66/66 65/65/65
f 66/66/66 67/67/67 68/68/68
f 69/69/69 68/68/68 67/67/67
f 68/68/68 69/69/69 70/70/70
f 71/71/71 70/70/70 69/69/69
f 70/70/70 71/71/71 72/72/72
f 73/73/73 72/72/72 71/71/71
f 76/76/76 75/75/75 74/74/74
f 74/74/74 75/75/75 77/77/77
f 78/78/78 77/77/77 75/75/75
f 81/81/81 80/80/80 79/79/79
f 82/82/82 79/79/79 80/80/80
f 85/85/85 84/84/84 83/83/83
f 86/86/86 83/83/83 84/84/84
f 89/89/89 88/88/88 87/87/87
f 90/90/90 87/87/87 88/88/88
f 91/91/91 89/89/89 87/87/87
f 94/94/94 93/93/93 92/92/92
f 95/95/95 92/92/92 93/93/93
f 98/98/98 97/97/97 96/96/96
f 99/99/99 96/96/96 97/97/97
f 96/96/96 99/99/99 100/100/100
f 101/101/101 100/100/100 99/99/99
f 100/100/100 101/101/101 102/102/102
f 103/103/103 102/102/102 101/101/101
f 102/102/102 103/103/103 104/104/104
f 105/105/105 104/104/104 103/103/103
f 104/104/104 105/105/105 106/106/106
f 107/107/107 106/106/106 105/105/105
f 110/110/110 109/109/109 108/108/108
f 110/110/110 111/111/111 109/109/109
f 112/112/112 109/109/109 111/111/111
f 115/115/115 114/114/114 113/113/113
f 114/114/114 116/116/116 113/113/113
f 117/117/117 116/116/116 114/114/114
f 118/118/118 117/117/117 114/114/114
f 119/119/119 118/118/118 114/114/114
f 120/120/120 117/117/117 118/118/118
f 121/121/121 116/116/116 117/117/117
f 122/122/122 121/121/121 117/117/117
f 123/123/123 116/116/116 121/121/121
f 113/113/113 116/116/116 124/124/124
f 127/127/127 126/126/126 125/125/125
f 128/128/128 125/125/125 126/126/126
f 125/125/125 128/128/128 129/129/129
f 130/130/130 129/129/129 128/128/128
f 129/129/129 130/130/130 131/131/131
f 132/132/132 131/131/131 130/130/130
f 126/126/126 127/127/127 133/133/133
f 134/134/134 133/133/133 127/127/127
f 133/133/133 134/134/134 135/135/135
f 136/136/136 135/135/135 134/134/134
f 135/135/135 136/136/136 137/137/137
f 138/138/138 137/137/137 136/136/136
f 141/141/141 140/140/140 139/139/139
f 142/142/142 139/139/139 140/140/140
f 139/139/139 142/142/142 143/143/143
f 144/144/144 143/143/143 142/142/142
f 143/143/143 144/144/144 145/145/145
f 146/146/146 145/145/145 144/144/144
f 145/145/145 146/146/146 147/147/147
f 148/148/148 147/147/147 146/146/146
f 147/147/147 148/148/148 149/149/149
f 150/150/150 149/149/149 148/148/148
f 149/149/149 150/150/150 151/151/151
f 152/152/152 151/151/151 150/150/150
f 155/155/155 154/154/154 153/153/153
f 156/156/156 153/153/153 154/154/154
f 159/159/159 158/158/158 157/157/157
f 160/160/160 157/157/157 158/158/158
f 163/163/163 162/162/162 161/161/161
f 164/164/164 161/161/161 162/162/162
