g barrel_ar15_adar_406mm_LOD1
v -0.001615438 -0.07912729 0.0164034
v -0.001670904 -0.2506737 0.01641875
v -0.001053503 -0.2506737 0.01451857
v -0.001020819 -0.07914367 0.01456617
v -5.456374E-05 -0.07911666 0.01753606
v -5.452623E-05 -0.2506737 0.01759314
v 0.0009444502 -0.2506737 0.01451857
v 0.0009116789 -0.07914367 0.01456617
v 0.001561854 -0.2506737 0.01641875
v 0.001506302 -0.07912729 0.0164034
v -5.452623E-05 -0.2506737 0.01759314
v -5.456374E-05 -0.07911666 0.01753606
v -0.001020819 -0.07914367 0.01456617
v 0.0009116789 -0.07914367 0.01456617
v 0.0009105697 -0.03776961 0.01838682
v -0.001019734 -0.03776961 0.01838682
v -0.001616134 -0.037753 0.02022268
v -0.001615438 -0.07912729 0.0164034
v -5.457969E-05 -0.03774276 0.0213574
v -5.456374E-05 -0.07911666 0.01753606
v 0.001506302 -0.07912729 0.0164034
v 0.001506971 -0.037753 0.02022268
v -5.456374E-05 -0.07911666 0.01753606
v -5.457969E-05 -0.03774276 0.0213574
v -0.001019734 -0.03776961 0.01838682
v 0.0009105697 -0.03776961 0.01838682
v 0.0009094497 0.03705873 0.01838584
v -0.00101866 0.03705873 0.01838584
v -0.00161684 0.03707558 0.02022041
v -0.001616134 -0.037753 0.02022268
v -5.460532E-05 0.03708544 0.02135719
v -5.457969E-05 -0.03774276 0.0213574
v 0.001506971 -0.037753 0.02022268
v 0.00150763 0.03707558 0.02022041
v -5.457969E-05 -0.03774276 0.0213574
v -5.460532E-05 0.03708544 0.02135719
v 0.007777567 -0.2298192 0.007842973
v 0.006771746 -0.3788039 0.006837124
v 5.310974E-05 -0.3788039 0.009620079
v 5.310962E-05 -0.2298192 0.01104255
v -0.006665525 -0.3788039 0.006837124
v -0.007671348 -0.2298192 0.007842973
v -0.009448474 -0.3788039 0.0001184878
v -0.01087092 -0.2298192 0.0001185146
v -0.006665525 -0.3788039 -0.006600148
v -0.007671348 -0.2298192 -0.007605941
v 5.310974E-05 -0.3788039 -0.009383084
v 5.310962E-05 -0.2298192 -0.01080551
v 0.01097714 -0.2298192 0.0001185146
v 0.009554693 -0.3788039 0.0001184878
v 0.007777567 -0.2298192 -0.007605941
v 0.006771746 -0.3788039 -0.006600148
v 5.310962E-05 -0.2298192 -0.01080551
v 5.310974E-05 -0.3788039 -0.009383084
v -0.00867717 0.01219099 -0.008611719
v 5.310955E-05 0.01219099 -0.01222792
v 0.008783389 0.01219099 -0.008611719
v -0.01229337 0.01219099 0.0001185587
v 0.01239959 0.01219099 0.0001185587
v -0.00867717 0.01219099 0.008848838
v 0.008783389 0.01219099 0.008848838
v 5.310955E-05 0.01219099 0.01246504
v 0.005181991 -0.3948709 -0.005010394
v 5.310981E-05 -0.3948709 -0.007134838
v -0.00507577 -0.3948709 -0.005010394
v 0.007306444 -0.3948709 0.0001184854
v -0.007200222 -0.3948709 0.0001184854
v 0.005181991 -0.3948709 0.005247365
v -0.00507577 -0.3948709 0.005247365
v 5.310981E-05 -0.3948709 0.007371827
v 0.008783389 -0.01727304 0.008848831
v 0.008783389 -0.0808345 0.008848824
v 5.310955E-05 -0.0808345 0.01246502
v 5.310955E-05 -0.01727304 0.01246503
v -0.00867717 -0.0808345 0.008848824
v -0.00867717 -0.01727304 0.008848831
v -0.01229337 -0.0808345 0.0001185411
v -0.01229337 -0.01727304 0.0001185539
v -0.00867717 -0.0808345 -0.008611736
v -0.00867717 -0.01727304 -0.008611727
v 5.310955E-05 -0.0808345 -0.01222794
v 5.310955E-05 -0.01727304 -0.01222793
v 0.01239959 -0.01727304 0.0001185539
v 0.01239959 -0.0808345 0.0001185411
v 0.008783389 -0.01727304 -0.008611727
v 0.008783389 -0.0808345 -0.008611736
v 5.310955E-05 -0.01727304 -0.01222793
v 5.310955E-05 -0.0808345 -0.01222794
v -0.007671348 -0.2298192 0.007842973
v -0.01087092 -0.2298192 0.0001185146
v -0.007671348 -0.2298192 -0.007605941
v 5.310962E-05 -0.2298192 -0.01080551
v 0.007777567 -0.2298192 -0.007605941
v 5.310962E-05 -0.2298192 -0.01080551
v 0.01097714 -0.2298192 0.0001185146
v 0.007777567 -0.2298192 0.007842973
v 5.310962E-05 -0.2298192 0.01104255
v 0.005181991 -0.3788039 0.005247368
v 0.005181991 -0.3948709 0.005247365
v 5.310981E-05 -0.3948709 0.007371827
v 5.310981E-05 -0.3788039 0.007371829
v -0.00507577 -0.3948709 0.005247365
v -0.00507577 -0.3788039 0.005247368
v -0.007200222 -0.3948709 0.0001184854
v -0.007200222 -0.3788039 0.0001184878
v -0.00507577 -0.3948709 -0.005010394
v -0.00507577 -0.3788039 -0.005010392
v 5.310981E-05 -0.3948709 -0.007134838
v 5.310981E-05 -0.3788039 -0.007134835
v 0.007306444 -0.3788039 0.0001184878
v 0.007306444 -0.3948709 0.0001184854
v 0.005181991 -0.3788039 -0.005010392
v 0.005181991 -0.3948709 -0.005010394
v 5.310981E-05 -0.3788039 -0.007134835
v 5.310981E-05 -0.3948709 -0.007134838
v 0.006771746 -0.3788039 0.006837124
v 0.005181991 -0.3788039 0.005247368
v 5.310981E-05 -0.3788039 0.007371829
v 5.310974E-05 -0.3788039 0.009620079
v -0.00507577 -0.3788039 0.005247368
v -0.006665525 -0.3788039 0.006837124
v -0.007200222 -0.3788039 0.0001184878
v -0.009448474 -0.3788039 0.0001184878
v -0.00507577 -0.3788039 -0.005010392
v -0.006665525 -0.3788039 -0.006600148
v 5.310981E-05 -0.3788039 -0.007134835
v 5.310974E-05 -0.3788039 -0.009383084
v 0.005181991 -0.3788039 -0.005010392
v 0.006771746 -0.3788039 -0.006600148
v 0.007306444 -0.3788039 0.0001184878
v 0.009554693 -0.3788039 0.0001184878
v 0.01126158 -0.01351839 0.01132703
v 0.01126158 -0.01727304 0.01132703
v 5.310959E-05 -0.01727304 0.01596972
v 5.310959E-05 -0.01351839 0.01596972
v -0.01115536 -0.01727304 0.01132703
v -0.01115536 -0.01351839 0.01132703
v -0.01579806 -0.01727304 0.0001185539
v -0.01579806 -0.01351839 0.0001185545
v -0.01115536 -0.01727303 -0.01108992
v -0.01115536 -0.01351839 -0.01108992
v 5.310959E-05 -0.01727304 -0.01573262
v 5.310959E-05 -0.01351839 -0.01573261
v 0.01590428 -0.01351839 0.0001185545
v 0.01590428 -0.01727304 0.0001185539
v 0.01126158 -0.01351839 -0.01108992
v 0.01126158 -0.01727303 -0.01108992
v 5.310959E-05 -0.01351839 -0.01573261
v 5.310959E-05 -0.01727304 -0.01573262
v 0.008783389 0.01219099 0.008848838
v 0.008783389 -0.01351839 0.008848833
v 5.310955E-05 -0.01351839 0.01246503
v 5.310955E-05 0.01219099 0.01246504
v -0.00867717 -0.01351839 0.008848833
v -0.00867717 0.01219099 0.008848838
v -0.01229337 -0.01351839 0.0001185545
v -0.01229337 0.01219099 0.0001185587
v -0.00867717 -0.01351839 -0.008611724
v -0.00867717 0.01219099 -0.008611719
v 5.310955E-05 -0.01351839 -0.01222792
v 5.310955E-05 0.01219099 -0.01222792
v 0.01239959 0.01219099 0.0001185587
v 0.01239959 -0.01351839 0.0001185545
v 0.008783389 0.01219099 -0.008611719
v 0.008783389 -0.01351839 -0.008611724
v 5.310955E-05 0.01219099 -0.01222792
v 5.310955E-05 -0.01351839 -0.01222792
v 0.008783389 -0.01351839 0.008848833
v 0.01126158 -0.01351839 0.01132703
v 5.310959E-05 -0.01351839 0.01596972
v 5.310955E-05 -0.01351839 0.01246503
v -0.01115536 -0.01351839 0.01132703
v -0.00867717 -0.01351839 0.008848833
v -0.01579806 -0.01351839 0.0001185545
v -0.01229337 -0.01351839 0.0001185545
v -0.01115536 -0.01351839 -0.01108992
v -0.00867717 -0.01351839 -0.008611724
v 5.310959E-05 -0.01351839 -0.01573261
v 5.310955E-05 -0.01351839 -0.01222792
v 0.01126158 -0.01351839 -0.01108992
v 0.008783389 -0.01351839 -0.008611724
v 0.01590428 -0.01351839 0.0001185545
v 0.01239959 -0.01351839 0.0001185545
v 5.310955E-05 -0.01727304 0.01246503
v 5.310959E-05 -0.01727304 0.01596972
v 0.01126158 -0.01727304 0.01132703
v 0.008783389 -0.01727304 0.008848831
v -0.00867717 -0.01727304 0.008848831
v -0.01115536 -0.01727304 0.01132703
v -0.01229337 -0.01727304 0.0001185539
v -0.01579806 -0.01727304 0.0001185539
v -0.00867717 -0.01727304 -0.008611727
v -0.01115536 -0.01727303 -0.01108992
v 5.310955E-05 -0.01727304 -0.01222793
v 5.310959E-05 -0.01727304 -0.01573262
v 0.008783389 -0.01727304 -0.008611727
v 0.01126158 -0.01727303 -0.01108992
v 0.01239959 -0.01727304 0.0001185539
v 0.01590428 -0.01727304 0.0001185539
v 0.001561854 -0.2506737 0.01641875
v 0.0009444502 -0.2506737 0.01451857
v -0.001053503 -0.2506737 0.01451857
v -0.001670904 -0.2506737 0.01641875
v -5.452623E-05 -0.2506737 0.01759314
v -0.00161684 0.03707558 0.02022041
v -0.00101866 0.03705873 0.01838584
v 0.0009094497 0.03705873 0.01838584
v 0.00150763 0.03707558 0.02022041
v -5.460532E-05 0.03708544 0.02135719
vt 0.06603909 0.60515
vt 0.06603932 0.03323868
vt 0.05295175 0.0332388
vt 0.05295175 0.60515
vt 0.07913566 0.60515
vt 0.07913566 0.03323868
vt 0.03987026 0.0332388
vt 0.03987026 0.6051504
vt 0.02678198 0.0332388
vt 0.0267818 0.60515
vt 0.0136838 0.0332388
vt 0.0136838 0.60515
vt 0.05295175 0.60515
vt 0.03987026 0.6051504
vt 0.03987026 0.7434164
vt 0.05295157 0.7434163
vt 0.06603909 0.7434163
vt 0.06603909 0.60515
vt 0.07913536 0.7434163
vt 0.07913566 0.60515
vt 0.0267818 0.60515
vt 0.02678221 0.7434161
vt 0.0136838 0.60515
vt 0.01368374 0.7434163
vt 0.05295157 0.7434163
vt 0.03987026 0.7434164
vt 0.03987026 0.9925827
vt 0.05295157 0.9925832
vt 0.06603909 0.9925832
vt 0.06603909 0.7434163
vt 0.07913566 0.9925829
vt 0.07913536 0.7434163
vt 0.02678221 0.7434161
vt 0.0267818 0.9925832
vt 0.01368374 0.7434163
vt 0.01368374 0.9925832
vt 0.3691286 0.9952505
vt 0.3691286 0.4728532
vt 0.3139263 0.4728532
vt 0.3139263 0.9952505
vt 0.258724 0.4728532
vt 0.258724 0.9952505
vt 0.2035256 0.4728532
vt 0.2035256 0.9952505
vt 0.1483269 0.4728532
vt 0.1483269 0.9952505
vt 0.09314108 0.4728532
vt 0.09314108 0.9952505
vt 0.4243276 0.9952505
vt 0.4243276 0.4728532
vt 0.479526 0.9952505
vt 0.479526 0.4728532
vt 0.5347123 0.9952505
vt 0.5347123 0.4728532
vt 0.7589173 0.03052324
vt 0.7013955 0.01860994
vt 0.6438732 0.03052336
vt 0.7827439 0.05928427
vt 0.6200471 0.05928427
vt 0.7589173 0.08804554
vt 0.6438732 0.08804554
vt 0.7013955 0.0999586
vt 0.4912557 0.1387283
vt 0.4772575 0.1556247
vt 0.4912557 0.1725215
vt 0.5250494 0.1317296
vt 0.5250494 0.1795204
vt 0.5588415 0.1387283
vt 0.5588415 0.1725215
vt 0.572839 0.1556247
vt 0.8243489 0.9916061
vt 0.8243489 0.7687372
vt 0.7691464 0.7687372
vt 0.7691464 0.9916061
vt 0.7139442 0.7687372
vt 0.7139442 0.9916061
vt 0.6587455 0.7687372
vt 0.6587455 0.9916061
vt 0.6035469 0.7687372
vt 0.6035469 0.9916061
vt 0.5483611 0.7687372
vt 0.5483611 0.9916061
vt 0.8795478 0.9916061
vt 0.8795478 0.7687372
vt 0.9347463 0.9916061
vt 0.9347463 0.7687372
vt 0.9899326 0.9916061
vt 0.9899326 0.7687372
vt 0.7139442 0.2463399
vt 0.6587455 0.2463399
vt 0.6035469 0.2463399
vt 0.5483611 0.2463399
vt 0.9347463 0.2463399
vt 0.9899326 0.2463399
vt 0.8795478 0.2463399
vt 0.8243489 0.2463399
vt 0.7691464 0.2463399
vt 0.124336 0.3982251
vt 0.2370864 0.3982252
vt 0.2370864 0.3787464
vt 0.124336 0.3787464
vt 0.2370862 0.3592679
vt 0.1243359 0.3592679
vt 0.2370868 0.3397892
vt 0.124336 0.3397892
vt 0.2370868 0.3203103
vt 0.1243359 0.3203103
vt 0.2370864 0.3008315
vt 0.1243359 0.3008315
vt 0.124336 0.4177039
vt 0.2370868 0.4177039
vt 0.1243359 0.4371826
vt 0.2370868 0.4371825
vt 0.124336 0.4566612
vt 0.2370868 0.4566612
vt 0.8380711 0.1930718
vt 0.8275969 0.1878346
vt 0.7938037 0.1948334
vt 0.7938037 0.2022399
vt 0.7600098 0.1878346
vt 0.7495356 0.1930718
vt 0.7460129 0.1709381
vt 0.7311988 0.1709381
vt 0.7600098 0.1540413
vt 0.7495356 0.148804
vt 0.7938037 0.1470426
vt 0.7938037 0.1396359
vt 0.8275969 0.1540413
vt 0.8380711 0.148804
vt 0.841594 0.1709381
vt 0.8564079 0.1709381
vt 0.3774221 0.1734794
vt 0.3510742 0.1734794
vt 0.3510742 0.2160472
vt 0.3774221 0.2160472
vt 0.3510742 0.2586151
vt 0.3774221 0.2586151
vt 0.3510742 0.3011834
vt 0.3774221 0.3011834
vt 0.3510742 0.3437508
vt 0.3774221 0.3437508
vt 0.3510742 0.3863194
vt 0.3774221 0.3863194
vt 0.3774221 0.130911
vt 0.3510742 0.130911
vt 0.3774221 0.08834334
vt 0.3510742 0.08834334
vt 0.3774221 0.04577501
vt 0.3510742 0.04577501
vt 0.2966883 0.1204934
vt 0.1162722 0.1204934
vt 0.1162722 0.1536497
vt 0.2966883 0.1536497
vt 0.1162722 0.1868061
vt 0.2966883 0.1868061
vt 0.1162722 0.2199624
vt 0.2966883 0.2199624
vt 0.1162722 0.2531188
vt 0.2966883 0.2531188
vt 0.1162722 0.2862751
vt 0.2966883 0.2862751
vt 0.2966881 0.08733704
vt 0.1162724 0.08733704
vt 0.2966883 0.05418075
vt 0.1162722 0.05418064
vt 0.2966883 0.02102446
vt 0.1162722 0.02102446
vt 0.7363906 0.198732
vt 0.720062 0.2068962
vt 0.7939131 0.2221913
vt 0.7939131 0.2106454
vt 0.8677628 0.2068962
vt 0.8514349 0.198732
vt 0.8983529 0.1699709
vt 0.8752611 0.1699709
vt 0.8677628 0.1330457
vt 0.8514349 0.1412099
vt 0.7939131 0.1177509
vt 0.7939131 0.1292968
vt 0.720062 0.1330457
vt 0.7363906 0.1412099
vt 0.6894724 0.1699709
vt 0.7125633 0.1699709
vt 0.5252774 0.1982102
vt 0.5252774 0.209756
vt 0.5991266 0.1944611
vt 0.5827992 0.1862972
vt 0.4677546 0.1862972
vt 0.4514267 0.1944611
vt 0.443928 0.1575361
vt 0.4208367 0.1575361
vt 0.4677546 0.1287752
vt 0.4514267 0.120611
vt 0.5252774 0.1168619
vt 0.5252774 0.1053162
vt 0.5827992 0.1287752
vt 0.5991266 0.120611
vt 0.6066253 0.1575361
vt 0.6297166 0.1575361
vt 0.504019 0.05162317
vt 0.4698095 0.0571807
vt 0.4698095 0.07516563
vt 0.504019 0.08072293
vt 0.525162 0.06617337
vt 0.8732854 0.08964634
vt 0.9063148 0.0842616
vt 0.9063148 0.06690556
vt 0.8732854 0.06152028
vt 0.852818 0.07558316
vn -0.9558718 -0.01258942 0.2935146
vn -0.9509285 0.0003331696 0.3094107
vn -0.588011 0.0003405463 -0.8088529
vn -0.5797989 0.03739233 -0.8139011
vn 7.607579E-07 -0.04683736 0.9989026
vn 5.862447E-07 0.0003285546 1
vn 0.5880086 0.0003408406 -0.8088545
vn 0.5797983 0.03739266 -0.8139014
vn 0.9509282 0.000333633 0.3094116
vn 0.9558721 -0.0125888 0.2935131
vn 5.862447E-07 0.0003285546 1
vn 7.607579E-07 -0.04683736 0.9989026
vn -0.5797989 0.03739233 -0.8139011
vn 0.5797983 0.03739266 -0.8139014
vn 0.5959557 0.03724926 -0.8021529
vn -0.595956 0.03724886 -0.8021527
vn -0.9458578 -0.01572876 0.3241999
vn -0.9558718 -0.01258942 0.2935146
vn 5.251098E-07 -0.04510431 0.9989823
vn 7.607579E-07 -0.04683736 0.9989026
vn 0.9558721 -0.0125888 0.2935131
vn 0.9458582 -0.0157281 0.324199
vn 7.607579E-07 -0.04683736 0.9989026
vn 5.251098E-07 -0.04510431 0.9989823
vn -0.595956 0.03724886 -0.8021527
vn 0.5959557 0.03724926 -0.8021529
vn 0.5892079 -1.042874E-05 -0.8079816
vn -0.5892082 -1.079242E-05 -0.8079813
vn -0.9502051 3.878189E-06 0.3116252
vn -0.9458578 -0.01572876 0.3241999
vn 0 1.334781E-05 1
vn 5.251098E-07 -0.04510431 0.9989823
vn 0.9458582 -0.0157281 0.324199
vn 0.9502052 4.477795E-06 0.3116248
vn 5.251098E-07 -0.04510431 0.9989823
vn 0 1.334781E-05 1
vn 0.7070748 -0.009547297 0.7070743
vn 0.7070743 -0.00954729 0.7070747
vn 0 -0.009547345 0.9999545
vn 0 -0.00954735 0.9999545
vn -0.7070742 -0.009547299 0.7070749
vn -0.7070746 -0.009547301 0.7070744
vn -0.9999545 -0.009547179 5.736676E-07
vn -0.9999545 -0.00954718 0
vn -0.7070742 -0.009547052 -0.707075
vn -0.7070742 -0.009547056 -0.7070749
vn 0 -0.009546991 -0.9999545
vn 0 -0.009547001 -0.9999545
vn 0.9999545 -0.009547169 0
vn 0.9999545 -0.009547163 5.736675E-07
vn 0.7070743 -0.009547051 -0.7070748
vn 0.7070741 -0.009547044 -0.7070749
vn 0 -0.009547001 -0.9999545
vn 0 -0.009546991 -0.9999545
vn 0 1 0
vn 0 1 0
vn 0 1 0
vn 0 1 0
vn 0 1 0
vn 0 1 0
vn 0 1 0
vn 0 1 0
vn 0 -1 1.85942E-06
vn 0 -1 1.85942E-06
vn 0 -1 1.85942E-06
vn 0 -1 1.85942E-06
vn 0 -1 1.85942E-06
vn 0 -1 1.85942E-06
vn 0 -1 1.85942E-06
vn 0 -1 1.85942E-06
vn 0.7071068 0 0.7071068
vn 0.7070988 -0.00476821 0.7070987
vn 0 -0.004768248 0.9999887
vn 0 -1.16812E-07 1
vn -0.7070987 -0.004768205 0.7070987
vn -0.7071068 0 0.7071068
vn -0.9999887 -0.004768091 0
vn -1 0 0
vn -0.7070986 -0.00476798 -0.7070989
vn -0.7071068 1.211756E-07 -0.7071068
vn 0 -0.004767943 -0.9999887
vn 0 1.503786E-07 -1
vn 1 0 0
vn 0.9999887 -0.004768099 0
vn 0.7071068 1.11777E-07 -0.7071068
vn 0.7070987 -0.004767985 -0.7070987
vn 0 1.503786E-07 -1
vn 0 -0.004767943 -0.9999887
vn -0.7070746 -0.009547301 0.7070744
vn -0.9999545 -0.00954718 0
vn -0.7070742 -0.009547056 -0.7070749
vn 0 -0.009547001 -0.9999545
vn 0.7070743 -0.009547051 -0.7070748
vn 0 -0.009547001 -0.9999545
vn 0.9999545 -0.009547169 0
vn 0.7070748 -0.009547297 0.7070743
vn 0 -0.00954735 0.9999545
vn 0.7071072 -1.073659E-07 0.7071063
vn 0.7071073 -1.073659E-07 0.7071062
vn 0 -1.537029E-07 1
vn 0 -1.537029E-07 1
vn -0.7071074 -1.08496E-07 0.7071061
vn -0.7071074 -1.08496E-07 0.7071061
vn -1 0 -9.44656E-07
vn -1 0 9.241201E-07
vn -0.7071062 1.181026E-07 -0.7071073
vn -0.7071063 1.181026E-07 -0.7071072
vn 0 1.672649E-07 -1
vn 0 1.672649E-07 -1
vn 1 0 9.44656E-07
vn 1 0 -9.44656E-07
vn 0.7071062 1.175375E-07 -0.7071073
vn 0.7071061 1.175376E-07 -0.7071074
vn 0 1.672649E-07 -1
vn 0 1.672649E-07 -1
vn -7.186728E-06 -1 -1.161488E-05
vn -7.186729E-06 -1 -1.161487E-05
vn 0 -1 -1.696739E-05
vn 0 -1 -1.696739E-05
vn 7.186728E-06 -1 -1.161487E-05
vn 7.186728E-06 -1 -1.161488E-05
vn -1.138383E-06 -1 -3.514062E-06
vn -1.138383E-06 -1 -3.514061E-06
vn -5.193916E-06 -1 -5.193925E-06
vn -5.193915E-06 -1 -5.193924E-06
vn 0 -1 -9.622082E-06
vn 0 -1 -9.622083E-06
vn 5.193916E-06 -1 -5.193926E-06
vn 5.193917E-06 -1 -5.193925E-06
vn 1.138383E-06 -1 -3.514063E-06
vn 1.138383E-06 -1 -3.514062E-06
vn 0.7071066 0 0.7071069
vn 0.7071068 0 0.7071068
vn 0 2.301533E-07 1
vn 0 2.301533E-07 1
vn -0.7071066 1.062246E-07 0.7071069
vn -0.7071066 1.062246E-07 0.7071069
vn -1 0 1.026798E-07
vn -1 0 0
vn -0.7071068 0 -0.7071068
vn -0.7071066 0 -0.7071069
vn 0 0 -1
vn 0 0 -1
vn 1 0 0
vn 1 0 1.232158E-07
vn 0.7071066 0 -0.7071069
vn 0.7071068 0 -0.7071068
vn 0 0 -1
vn 0 0 -1
vn 0.7071066 -1.402481E-07 0.7071068
vn 0.7071068 -1.402481E-07 0.7071068
vn 0 -2.091274E-07 1
vn 0 -2.091274E-07 1
vn -0.7071068 -1.402481E-07 0.7071068
vn -0.7071066 -1.402481E-07 0.7071069
vn -1 0 0
vn -1 0 0
vn -0.7071068 1.286299E-07 -0.7071068
vn -0.7071068 1.286299E-07 -0.7071068
vn 0 1.85891E-07 -1
vn 0 1.85891E-07 -1
vn 1 0 0
vn 1 0 0
vn 0.7071068 1.286299E-07 -0.7071068
vn 0.7071068 1.286299E-07 -0.7071068
vn 0 1.85891E-07 -1
vn 0 1.85891E-07 -1
vn 0 1 0
vn 0 1 0
vn 0 1 0
vn 0 1 0
vn 0 1 0
vn 0 1 0
vn 0 1 0
vn 0 1 0
vn 0 1 0
vn 0 1 0
vn 0 1 0
vn 0 1 0
vn 0 1 0
vn 0 1 0
vn 0 1 0
vn 0 1 0
vn 0 -1 0
vn 0 -1 0
vn 0 -1 0
vn 0 -1 0
vn 0 -1 0
vn 0 -1 0
vn -1.191462E-06 -1 -9.718217E-07
vn -1.191462E-06 -1 -9.718217E-07
vn -2.163284E-06 -1 -2.163285E-06
vn -2.163285E-06 -1 -2.163285E-06
vn 0 -1 -2.382926E-06
vn 0 -1 -2.382926E-06
vn 2.163284E-06 -1 -2.163285E-06
vn 2.163284E-06 -1 -2.163285E-06
vn 1.191462E-06 -1 -9.718217E-07
vn 1.191462E-06 -1 -9.718217E-07
vn 2.638579E-06 -1 3.631672E-06
vn 2.638579E-06 -1 3.631671E-06
vn 2.638579E-06 -1 3.631671E-06
vn 2.638579E-06 -1 3.631672E-06
vn 2.638579E-06 -1 3.631671E-06
vn 0 0.9999591 -0.009039823
vn 0 0.9999591 -0.009039824
vn 0 0.9999591 -0.009039824
vn 0 0.9999591 -0.009039823
vn 0 0.9999591 -0.009039824
g barrel_ar15_adar_406mm_LOD1_0
f 3/3/3 2/2/2 1/1/1
f 4/4/4 3/3/3 1/1/1
f 1/1/1 2/2/2 5/5/5
f 2/2/2 6/6/6 5/5/5
f 7/7/7 3/3/3 4/4/4
f 8/8/8 7/7/7 4/4/4
f 9/9/9 7/7/7 8/8/8
f 10/10/10 9/9/9 8/8/8
f 11/11/11 9/9/9 10/10/10
f 12/12/12 11/11/11 10/10/10
f 15/15/15 14/14/14 13/13/13
f 16/16/16 15/15/15 13/13/13
f 16/16/16 13/13/13 17/17/17
f 13/13/13 18/18/18 17/17/17
f 17/17/17 18/18/18 19/19/19
f 18/18/18 20/20/20 19/19/19
f 21/21/21 14/14/14 15/15/15
f 22/22/22 21/21/21 15/15/15
f 23/23/23 21/21/21 22/22/22
f 24/24/24 23/23/23 22/22/22
f 27/27/27 26/26/26 25/25/25
f 28/28/28 27/27/27 25/25/25
f 28/28/28 25/25/25 29/29/29
f 25/25/25 30/30/30 29/29/29
f 29/29/29 30/30/30 31/31/31
f 30/30/30 32/32/32 31/31/31
f 33/33/33 26/26/26 27/27/27
f 34/34/34 33/33/33 27/27/27
f 35/35/35 33/33/33 34/34/34
f 36/36/36 35/35/35 34/34/34
f 39/39/39 38/38/38 37/37/37
f 40/40/40 39/39/39 37/37/37
f 41/41/41 39/39/39 40/40/40
f 42/42/42 41/41/41 40/40/40
f 43/43/43 41/41/41 42/42/42
f 44/44/44 43/43/43 42/42/42
f 45/45/45 43/43/43 44/44/44
f 46/46/46 45/45/45 44/44/44
f 47/47/47 45/45/45 46/46/46
f 48/48/48 47/47/47 46/46/46
f 37/37/37 38/38/38 49/49/49
f 38/38/38 50/50/50 49/49/49
f 49/49/49 50/50/50 51/51/51
f 50/50/50 52/52/52 51/51/51
f 51/51/51 52/52/52 53/53/53
f 52/52/52 54/54/54 53/53/53
f 57/57/57 56/56/56 55/55/55
f 55/55/55 58/58/58 57/57/57
f 58/58/58 59/59/59 57/57/57
f 58/58/58 60/60/60 59/59/59
f 60/60/60 61/61/61 59/59/59
f 60/60/60 62/62/62 61/61/61
f 65/65/65 64/64/64 63/63/63
f 63/63/63 66/66/66 65/65/65
f 66/66/66 67/67/67 65/65/65
f 66/66/66 68/68/68 67/67/67
f 68/68/68 69/69/69 67/67/67
f 68/68/68 70/70/70 69/69/69
f 73/73/73 72/72/72 71/71/71
f 74/74/74 73/73/73 71/71/71
f 75/75/75 73/73/73 74/74/74
f 76/76/76 75/75/75 74/74/74
f 77/77/77 75/75/75 76/76/76
f 78/78/78 77/77/77 76/76/76
f 79/79/79 77/77/77 78/78/78
f 80/80/80 79/79/79 78/78/78
f 81/81/81 79/79/79 80/80/80
f 82/82/82 81/81/81 80/80/80
f 71/71/71 72/72/72 83/83/83
f 72/72/72 84/84/84 83/83/83
f 83/83/83 84/84/84 85/85/85
f 84/84/84 86/86/86 85/85/85
f 85/85/85 86/86/86 87/87/87
f 86/86/86 88/88/88 87/87/87
f 75/75/75 89/89/89 73/73/73
f 90/90/90 89/89/89 75/75/75
f 77/77/77 90/90/90 75/75/75
f 91/91/91 90/90/90 77/77/77
f 79/79/79 91/91/91 77/77/77
f 92/92/92 91/91/91 79/79/79
f 81/81/81 92/92/92 79/79/79
f 86/86/86 93/93/93 88/88/88
f 93/93/93 94/94/94 88/88/88
f 95/95/95 93/93/93 86/86/86
f 84/84/84 95/95/95 86/86/86
f 96/96/96 95/95/95 84/84/84
f 72/72/72 96/96/96 84/84/84
f 97/97/97 96/96/96 72/72/72
f 73/73/73 97/97/97 72/72/72
f 89/89/89 97/97/97 73/73/73
f 100/100/100 99/99/99 98/98/98
f 101/101/101 100/100/100 98/98/98
f 102/102/102 100/100/100 101/101/101
f 103/103/103 102/102/102 101/101/101
f 104/104/104 102/102/102 103/103/103
f 105/105/105 104/104/104 103/103/103
f 106/106/106 104/104/104 105/105/105
f 107/107/107 106/106/106 105/105/105
f 108/108/108 106/106/106 107/107/107
f 109/109/109 108/108/108 107/107/107
f 98/98/98 99/99/99 110/110/110
f 99/99/99 111/111/111 110/110/110
f 110/110/110 111/111/111 112/112/112
f 111/111/111 113/113/113 112/112/112
f 112/112/112 113/113/113 114/114/114
f 113/113/113 115/115/115 114/114/114
f 118/118/118 117/117/117 116/116/116
f 119/119/119 118/118/118 116/116/116
f 120/120/120 118/118/118 119/119/119
f 121/121/121 120/120/120 119/119/119
f 122/122/122 120/120/120 121/121/121
f 123/123/123 122/122/122 121/121/121
f 124/124/124 122/122/122 123/123/123
f 125/125/125 124/124/124 123/123/123
f 126/126/126 124/124/124 125/125/125
f 127/127/127 126/126/126 125/125/125
f 128/128/128 126/126/126 127/127/127
f 129/129/129 128/128/128 127/127/127
f 130/130/130 128/128/128 129/129/129
f 131/131/131 130/130/130 129/129/129
f 117/117/117 130/130/130 131/131/131
f 116/116/116 117/117/117 131/131/131
f 134/134/134 133/133/133 132/132/132
f 135/135/135 134/134/134 132/132/132
f 136/136/136 134/134/134 135/135/135
f 137/137/137 136/136/136 135/135/135
f 138/138/138 136/136/136 137/137/137
f 139/139/139 138/138/138 137/137/137
f 140/140/140 138/138/138 139/139/139
f 141/141/141 140/140/140 139/139/139
f 142/142/142 140/140/140 141/141/141
f 143/143/143 142/142/142 141/141/141
f 132/132/132 133/133/133 144/144/144
f 133/133/133 145/145/145 144/144/144
f 144/144/144 145/145/145 146/146/146
f 145/145/145 147/147/147 146/146/146
f 146/146/146 147/147/147 148/148/148
f 147/147/147 149/149/149 148/148/148
f 152/152/152 151/151/151 150/150/150
f 153/153/153 152/152/152 150/150/150
f 154/154/154 152/152/152 153/153/153
f 155/155/155 154/154/154 153/153/153
f 156/156/156 154/154/154 155/155/155
f 157/157/157 156/156/156 155/155/155
f 158/158/158 156/156/156 157/157/157
f 159/159/159 158/158/158 157/157/157
f 160/160/160 158/158/158 159/159/159
f 161/161/161 160/160/160 159/159/159
f 150/150/150 151/151/151 162/162/162
f 151/151/151 163/163/163 162/162/162
f 162/162/162 163/163/163 164/164/164
f 163/163/163 165/165/165 164/164/164
f 164/164/164 165/165/165 166/166/166
f 165/165/165 167/167/167 166/166/166
f 170/170/170 169/169/169 168/168/168
f 171/171/171 170/170/170 168/168/168
f 172/172/172 170/170/170 171/171/171
f 173/173/173 172/172/172 171/171/171
f 174/174/174 172/172/172 173/173/173
f 175/175/175 174/174/174 173/173/173
f 176/176/176 174/174/174 175/175/175
f 177/177/177 176/176/176 175/175/175
f 178/178/178 176/176/176 177/177/177
f 179/179/179 178/178/178 177/177/177
f 180/180/180 178/178/178 179/179/179
f 181/181/181 180/180/180 179/179/179
f 182/182/182 180/180/180 181/181/181
f 183/183/183 182/182/182 181/181/181
f 169/169/169 182/182/182 183/183/183
f 168/168/168 169/169/169 183/183/183
f 186/186/186 185/185/185 184/184/184
f 187/187/187 186/186/186 184/184/184
f 184/184/184 185/185/185 188/188/188
f 185/185/185 189/189/189 188/188/188
f 188/188/188 189/189/189 190/190/190
f 189/189/189 191/191/191 190/190/190
f 190/190/190 191/191/191 192/192/192
f 191/191/191 193/193/193 192/192/192
f 192/192/192 193/193/193 194/194/194
f 193/193/193 195/195/195 194/194/194
f 194/194/194 195/195/195 196/196/196
f 195/195/195 197/197/197 196/196/196
f 196/196/196 197/197/197 198/198/198
f 197/197/197 199/199/199 198/198/198
f 199/199/199 186/186/186 187/187/187
f 198/198/198 199/199/199 187/187/187
f 202/202/202 201/201/201 200/200/200
f 200/200/200 203/203/203 202/202/202
f 200/200/200 204/204/204 203/203/203
f 207/207/207 206/206/206 205/205/205
f 205/205/205 208/208/208 207/207/207
f 205/205/205 209/209/209 208/208/208
