g barrel_mr133_710mm_plank_LOD1
v 0.009627609 -0.1100779 0.005670044
v 0.01111694 -0.3676896 0.0001115012
v 0.009627609 -0.3676896 0.005670029
v 0.01111694 -0.1100779 0.0001115155
v 0.005558472 -0.1100779 0.009739174
v 0.005558472 -0.3676896 0.009739154
v 0 -0.1100779 0.01122858
v 0 -0.3676896 0.01122856
v 0.009627533 -0.3676896 -0.005447033
v 0.009627533 -0.1100779 -0.005447017
v 0.01240761 -0.004605169 0.0001115108
v 0.01074539 -0.004605169 0.006315385
v 0.006203766 -0.004605217 0.01085694
v 0 -0.004605217 0.01251927
v 0.01074531 -0.004605169 -0.006092358
v 0.006203766 -0.004605169 -0.01063391
v 0.005558472 -0.1100779 -0.009516139
v 0.005558472 -0.3676896 -0.009516153
v -3.326416E-05 -0.3676896 -0.01094974
v -1.525879E-07 -0.1100779 -0.01100554
v 0 -0.4540157 0.01122855
v 0.005558472 -0.4540157 0.009739147
v 0.005558472 -0.4540157 -0.009516158
v -4.440307E-05 -0.4540157 -0.01093103
v 0.009627533 -0.4540157 -0.005447038
v 0.01111694 -0.4540157 0.0001114976
v 0.009627609 -0.4540157 0.005670024
v -0.005558624 -0.1100779 0.009739174
v 0 -0.3676896 0.01122856
v -0.005558624 -0.3676896 0.009739157
v 0 -0.1100779 0.01122858
v -0.009627685 -0.1100779 0.005670044
v -0.009627685 -0.3676896 0.005670029
v -0.01111717 -0.1100779 0.0001115191
v -0.01111717 -0.3676896 0.0001115036
v -0.009627685 -0.1100779 -0.005447005
v -0.009627685 -0.3676896 -0.005447021
v -0.005558624 -0.1100779 -0.009516133
v -0.005558624 -0.3676896 -0.009516148
v -1.525879E-07 -0.1100779 -0.01100554
v -3.326416E-05 -0.3676896 -0.01094974
v 0 -0.004605217 0.01251927
v -0.006203995 -0.004605217 0.01085694
v -0.01074547 -0.004605169 0.006315385
v -0.01240776 -0.004605169 0.0001115143
v -0.01074547 -0.004605169 -0.006092346
v -0.006203995 -0.004605169 -0.0106339
v -1.525879E-07 -0.004605169 -0.01229623
v -0.01111717 -0.4540157 0.0001114988
v -0.009627685 -0.4540157 -0.005447026
v -0.005558624 -0.4540157 -0.009516154
v -4.440307E-05 -0.4540157 -0.01093103
v -0.009627685 -0.4540157 0.005670024
v -0.005558624 -0.4540157 0.009739152
v 0 -0.4540157 0.01122855
v 0.005558472 -0.1100779 -0.009516139
v -1.525879E-07 -0.004605169 -0.01229623
v -1.525879E-07 -0.1100779 -0.01100554
v 0.006203766 -0.004605169 -0.01063391
v 0.01074539 -0.004605169 0.006315385
v 0.01454384 0.0001682663 0.0001115143
v 0.01240761 -0.004605169 0.0001115108
v 0.01259529 0.0001682663 0.007383479
v 0.006203766 -0.004605217 0.01085694
v 0.007271881 0.0001682186 0.01270693
v 0 -0.004605217 0.01251927
v 0 0.0001682472 0.01465545
v 0.01259529 0.0001682663 -0.007160449
v 0.01074531 -0.004605169 -0.006092358
v 0.007271881 0.0001682663 -0.01248389
v 0.006203766 -0.004605169 -0.01063391
v -1.525879E-07 0.0001682663 -0.01443241
v -1.525879E-07 -0.004605169 -0.01229623
v -0.006203995 -0.004605217 0.01085694
v 0 0.0001682472 0.01465545
v 0 -0.004605217 0.01251927
v -0.007272033 0.0001682186 0.01270693
v -0.01074547 -0.004605169 0.006315385
v -0.01259552 0.0001682663 0.007383479
v -0.01240776 -0.004605169 0.0001115143
v -0.01454399 0.0001682663 0.0001115203
v -0.01074547 -0.004605169 -0.006092346
v -0.01259552 0.0001682663 -0.007160435
v -0.006203995 -0.004605169 -0.0106339
v -0.007272033 0.0001682949 -0.01248388
v -1.525879E-07 -0.004605169 -0.01229623
v -1.525879E-07 0.0001682663 -0.01443241
v 0.002524261 0.0004355144 0.008757287
v 0.002524261 -0.006630077 0.01775704
v 0.002524261 6.918907E-05 0.01636821
v 0.002524261 -0.3676896 0.00829423
v 0.002524185 -0.3676896 0.01588448
v 0.002524261 -0.4540157 0.01543637
v 0.002524261 -0.4540157 0.008185545
v -0.002509003 6.918907E-05 0.01636821
v 0.002524261 -0.006630077 0.01775704
v -0.002509003 -0.006630077 0.01775704
v 0.002524261 6.918907E-05 0.01636821
v -0.002509003 -0.696181 0.01469538
v 0.002524261 -0.6962287 0.008005765
v -0.002509003 -0.6962287 0.008005765
v 0.002524261 -0.696181 0.01469538
v -0.002509003 -0.006630077 0.01775704
v -0.002522659 -0.3676897 0.00829423
v -0.002544479 0.0004355144 0.008757287
v -0.002509003 -0.3676896 0.01588448
v -0.002509003 6.918907E-05 0.01636821
v -0.002517547 -0.4540157 0.008185545
v -0.002509003 -0.4540157 0.01543637
v -0.002509003 -0.006630077 0.01775704
v 0.002524185 -0.3676896 0.01588448
v -0.002509003 -0.3676896 0.01588448
v 0.002524261 -0.006630077 0.01775704
v -0.002509003 -0.4540157 0.01543637
v 0.002524261 -0.4540157 0.01543637
v 0.002243805 -0.6876296 0.01428999
v 2.487183E-05 -0.6864865 0.01843394
v 2.487183E-05 -0.6860175 0.01428999
v 0.001797943 -0.6877745 0.01843394
v 0.001396255 -0.6902382 0.01428999
v 0.001120605 -0.6898588 0.01843394
v -0.001346436 -0.6902382 0.01428999
v -0.001070862 -0.6898588 0.01843394
v -0.002193985 -0.6876296 0.01428999
v -0.001747971 -0.6877745 0.01843394
v 2.487183E-05 -0.6860175 0.01428999
v 2.487183E-05 -0.6864865 0.01843394
v 2.487183E-05 -0.6864865 0.01843394
v 0.001797943 -0.6877745 0.01843394
v -0.001747971 -0.6877745 0.01843394
v -0.001070862 -0.6898588 0.01843394
v 0.001120605 -0.6898588 0.01843394
v 0.005558472 -0.6985257 0.009739137
v -0.005558624 -0.6985257 0.009739145
v 0 -0.6985257 0.01122854
v 0.01111694 -0.6985258 0.0001114905
v -0.005558624 -0.6985258 -0.009516163
v -0.01111717 -0.6985258 0.0001114905
v -0.009627685 -0.6985258 0.005670016
v -0.009627685 -0.6985258 -0.005447036
v 0.005558472 -0.6985258 -0.009516166
v -6.317138E-05 -0.6985258 -0.01089957
v 0.009627533 -0.6985258 -0.005447047
v 0.009627609 -0.6985258 0.005670016
v 0.009627609 -0.6985258 0.005670016
v 0.01111694 -0.4540157 0.0001114976
v 0.01111694 -0.6985258 0.0001114905
v 0.009627609 -0.4540157 0.005670024
v 0.005558472 -0.6985257 0.009739137
v 0.005558472 -0.4540157 0.009739147
v 0 -0.6985257 0.01122854
v 0 -0.4540157 0.01122855
v 0.009627533 -0.4540157 -0.005447038
v 0.009627533 -0.6985258 -0.005447047
v 0.005558472 -0.4540157 -0.009516158
v 0.005558472 -0.6985258 -0.009516166
v -4.440307E-05 -0.4540157 -0.01093103
v -6.317138E-05 -0.6985258 -0.01089957
v -0.005558624 -0.6985257 0.009739145
v 0 -0.4540157 0.01122855
v 0 -0.6985257 0.01122854
v -0.005558624 -0.4540157 0.009739152
v -0.009627685 -0.6985258 0.005670016
v -0.009627685 -0.4540157 0.005670024
v -0.01111717 -0.6985258 0.0001114905
v -0.01111717 -0.4540157 0.0001114988
v -0.009627685 -0.6985258 -0.005447036
v -0.009627685 -0.4540157 -0.005447026
v -0.005558624 -0.6985258 -0.009516163
v -0.005558624 -0.4540157 -0.009516154
v -6.317138E-05 -0.6985258 -0.01089957
v -4.440307E-05 -0.4540157 -0.01093103
v -0.002509003 -0.6962287 0.008005765
v -0.002509003 -0.4540157 0.01543637
v -0.002509003 -0.696181 0.01469538
v -0.002517547 -0.4540157 0.008185545
v 0.002524261 -0.696181 0.01469538
v 0.002524261 -0.4540157 0.008185545
v 0.002524261 -0.6962287 0.008005765
v 0.002524261 -0.4540157 0.01543637
v -0.002509003 -0.696181 0.01469538
v 0.002524261 -0.4540157 0.01543637
v 0.002524261 -0.696181 0.01469538
v -0.002509003 -0.4540157 0.01543637
vt 0.8359576 0.4708914
vt 0.4430553 0.3583203
vt 0.4430554 0.4708914
vt 0.8359576 0.3583203
vt 0.8359576 0.5780072
vt 0.4430554 0.5780072
vt 0.8359576 0.6839082
vt 0.4430554 0.6839082
vt 0.4430554 0.2535675
vt 0.8359576 0.2535675
vt 0.9905595 0.3583203
vt 0.9905595 0.4708914
vt 0.9905595 0.5780072
vt 0.9905595 0.6839082
vt 0.9905595 0.2535675
vt 0.9905595 0.1452634
vt 0.8359576 0.1452634
vt 0.4430554 0.1452634
vt 0.4430554 0.03923762
vt 0.8359576 0.03923762
vt 0.3112764 0.6839082
vt 0.3112764 0.5780072
vt 0.3112765 0.1452634
vt 0.3112765 0.03923762
vt 0.3112765 0.2535675
vt 0.3112765 0.3583203
vt 0.3112765 0.4708914
vt 0.8359576 0.5780072
vt 0.4430554 0.6839082
vt 0.4430554 0.5780072
vt 0.8359576 0.6839082
vt 0.8359576 0.4708914
vt 0.4430554 0.4708914
vt 0.8359576 0.3583203
vt 0.4430554 0.3583203
vt 0.8359576 0.2535675
vt 0.4430554 0.2535675
vt 0.8359576 0.1452634
vt 0.4430554 0.1452634
vt 0.8359576 0.03923762
vt 0.4430554 0.03923762
vt 0.9905595 0.6839082
vt 0.9905595 0.5780072
vt 0.9905595 0.4708914
vt 0.9905595 0.3583203
vt 0.9905595 0.2535675
vt 0.9905595 0.1452634
vt 0.9905595 0.03923762
vt 0.3112765 0.3583204
vt 0.3112765 0.2535675
vt 0.3112765 0.1452634
vt 0.3112765 0.03923762
vt 0.3112765 0.4708914
vt 0.3112764 0.5780072
vt 0.3112764 0.6839082
vt 0.8359576 0.1452634
vt 0.9905595 0.03923762
vt 0.8359576 0.03923762
vt 0.9905595 0.1452634
vt 0.9905595 0.4708914
vt 0.998402 0.3583203
vt 0.9905595 0.3583203
vt 0.998402 0.4773947
vt 0.9905595 0.5780072
vt 0.998402 0.5939298
vt 0.9905595 0.6839082
vt 0.998402 0.7180453
vt 0.998402 0.2517259
vt 0.9905595 0.2535675
vt 0.998402 0.1346035
vt 0.9905595 0.1452634
vt 0.998402 0.009805649
vt 0.9905595 0.03923762
vt 0.9905595 0.5780072
vt 0.998402 0.7180453
vt 0.9905595 0.6839082
vt 0.998402 0.5939298
vt 0.9905595 0.4708914
vt 0.998402 0.4773947
vt 0.9905595 0.3583203
vt 0.998402 0.3583203
vt 0.9905595 0.2535675
vt 0.998402 0.2517259
vt 0.9905595 0.1452634
vt 0.998402 0.1346035
vt 0.9905595 0.03923762
vt 0.998402 0.009805649
vt 0.9984428 0.7342231
vt 0.9886855 0.8962817
vt 0.9984428 0.8720388
vt 0.4447089 0.7342231
vt 0.4450032 0.8637969
vt 0.3148984 0.8560232
vt 0.314742 0.7342231
vt 0.9984428 0.9831458
vt 0.9886855 0.8962817
vt 0.9886855 0.9831458
vt 0.9984428 0.896304
vt 0.09975742 0.9300268
vt 0.09002636 0.8425984
vt 0.09002636 0.9294463
vt 0.09975742 0.8431686
vt 0.9886855 0.8962817
vt 0.4447089 0.7342231
vt 0.9984428 0.7342231
vt 0.4450032 0.8638057
vt 0.9984428 0.8720362
vt 0.314742 0.7342231
vt 0.3148984 0.8560341
vt 0.9886855 0.9831458
vt 0.4450032 0.8637969
vt 0.4450032 0.9506574
vt 0.9886855 0.8962817
vt 0.3148984 0.9428828
vt 0.3148984 0.8560232
vt 0.03815285 0.9842926
vt 0.03200273 0.8358863
vt 0.02555742 0.9842926
vt 0.04206582 0.8358863
vt 0.05108957 0.9842926
vt 0.05240084 0.8358863
vt 0.0641382 0.9842926
vt 0.06282776 0.8358863
vt 0.07707302 0.9842926
vt 0.07316392 0.8358863
vt 0.08966955 0.9842926
vt 0.08322758 0.8358863
vt 0.0158685 0.6859629
vt 0.000414989 0.7793183
vt 0.03132121 0.7793183
vt 0.02541937 0.9303876
vt 0.006316987 0.9303876
vt 0.06464012 0.6611831
vt 0.02291777 0.6611831
vt 0.04377913 0.7076612
vt 0.08550112 0.360734
vt 0.02291777 0.06028676
vt 0.002056758 0.360734
vt 0.007646689 0.5341984
vt 0.007646689 0.1872704
vt 0.06464012 0.06028676
vt 0.04354233 0.0171138
vt 0.0799112 0.1872704
vt 0.07991157 0.5341984
vt 0.08979104 0.4708914
vt 0.4311186 0.3583203
vt 0.08979104 0.3583203
vt 0.4311187 0.4708853
vt 0.08979104 0.5780072
vt 0.4311185 0.5780071
vt 0.08979104 0.6839082
vt 0.4311186 0.6839081
vt 0.4311187 0.2535675
vt 0.08979104 0.2535675
vt 0.4311187 0.1452634
vt 0.08979104 0.1452634
vt 0.4311186 0.03923706
vt 0.08979104 0.03923762
vt 0.08979104 0.5780072
vt 0.4311186 0.6839082
vt 0.08979104 0.6839082
vt 0.4311185 0.5780011
vt 0.08979104 0.4708914
vt 0.4311187 0.4708914
vt 0.08979104 0.3583203
vt 0.4311187 0.3583203
vt 0.08979104 0.2535675
vt 0.4311187 0.2535674
vt 0.08979104 0.1452634
vt 0.4311187 0.1452632
vt 0.08979104 0.03923762
vt 0.4311187 0.03949873
vt 0.09975742 0.7342231
vt 0.4332098 0.8559079
vt 0.09975742 0.843183
vt 0.4329372 0.7325656
vt 0.09975742 0.8431686
vt 0.4329365 0.7341453
vt 0.09975742 0.7342231
vt 0.4334269 0.8561246
vt 0.09975742 0.9300268
vt 0.4334269 0.8561246
vt 0.09975742 0.8431686
vt 0.4332148 0.949953
vn 0.8660119 -0.006124424 0.499986
vn 1 0 -6.167588E-06
vn 0.8660278 0 0.4999958
vn 0.9999813 -0.006124391 -6.33624E-06
vn 0.4999914 -0.006124417 0.8660088
vn 0.5000007 0 0.8660251
vn 3.257349E-06 -0.006124432 0.9999813
vn 3.76636E-06 0 1
vn 0.8660271 0 -0.4999972
vn 0.8660107 -0.006124339 -0.4999881
vn 0.9999251 -0.01223616 -5.668287E-06
vn 0.865963 -0.01223618 0.4999584
vn 0.4999619 -0.01223607 0.865961
vn 4.802318E-06 -0.01223627 0.9999251
vn 0.8659617 -0.01223621 -0.4999608
vn 0.7070575 -0.01181944 -0.7070572
vn 0.575112 -0.004150121 -0.818064
vn 0.4953073 0 -0.8687178
vn -0.001444128 -9.512572E-05 -0.9999989
vn -0.08903005 -0.004152305 -0.9960203
vn 3.948049E-06 0 1
vn 0.5000006 0 0.8660251
vn 0.4937687 -6.001016E-05 -0.8695933
vn -0.001961855 -9.204902E-05 -0.9999981
vn 0.8660269 0 -0.4999974
vn 1 0 -6.247387E-06
vn 0.8660278 0 0.4999959
vn -0.4999926 -0.006124499 0.866008
vn 3.76636E-06 0 1
vn -0.5000016 0 0.8660244
vn 3.257349E-06 -0.006124432 0.9999813
vn -0.8660076 -0.006124497 0.4999932
vn -0.866024 0 0.5000026
vn -0.9999813 -0.006124231 -1.177358E-07
vn -1 0 0
vn -0.8660078 -0.006124177 -0.499993
vn -0.8660238 0 -0.5000028
vn -0.4999958 -0.006124435 -0.8660061
vn -0.4965615 -8.932567E-05 -0.8680015
vn -0.08903005 -0.004152305 -0.9960203
vn -0.001444128 -9.512572E-05 -0.9999989
vn 4.802318E-06 -0.01223627 0.9999251
vn -0.4999649 -0.01223635 0.8659593
vn -0.8659641 -0.01223585 0.4999565
vn -0.9999251 -0.01223581 -5.018806E-07
vn -0.8659638 -0.01223638 -0.4999571
vn -0.4999674 -0.01223633 -0.8659577
vn -0.2588033 -0.01181936 -0.9658577
vn -1 0 0
vn -0.866024 0 -0.5000026
vn -0.4953784 -2.691385E-05 -0.8686774
vn -0.001961855 -9.204902E-05 -0.9999981
vn -0.8660239 0 0.5000027
vn -0.5000015 0 0.8660246
vn 3.948049E-06 0 1
vn 0.2587968 -0.01181939 -0.9658594
vn 0.2587968 -0.01181939 -0.9658594
vn 0.2587968 -0.01181939 -0.9658594
vn 0.2587991 -0.01181925 -0.9658589
vn 0.7904837 -0.4084699 0.4563857
vn 0.9127671 -0.4084803 -4.597268E-06
vn 0.912766 -0.4084829 -8.458293E-06
vn 0.7904833 -0.4084679 0.4563881
vn 0.4563864 -0.4084771 0.7904796
vn 0.4563883 -0.4084789 0.7904776
vn 3.47664E-06 -0.4084764 0.9127689
vn 2.403356E-06 -0.4084756 0.9127693
vn 0.7904814 -0.4084774 -0.4563829
vn 0.7904828 -0.4084762 -0.4563816
vn 0.4563842 -0.4084781 -0.7904803
vn 0.4563823 -0.4084786 -0.7904811
vn -3.722836E-06 -0.408477 -0.9127687
vn -3.183871E-06 -0.4084761 -0.912769
vn -0.4563893 -0.4084738 0.7904796
vn 2.403356E-06 -0.4084756 0.9127693
vn 3.47664E-06 -0.4084764 0.9127689
vn -0.4563845 -0.4084766 0.7904809
vn -0.7904797 -0.4084833 0.4563806
vn -0.790479 -0.4084859 0.4563794
vn -0.9127649 -0.4084852 -7.959664E-07
vn -0.9127649 -0.4084853 -2.513305E-07
vn -0.7904803 -0.4084855 -0.4563774
vn -0.7904806 -0.4084827 -0.4563796
vn -0.4563872 -0.4084738 -0.7904809
vn -0.4563842 -0.4084712 -0.7904839
vn -3.183871E-06 -0.4084761 -0.912769
vn -3.722836E-06 -0.408477 -0.9127687
vn 1 0 0
vn 1 0 0
vn 1 0 0
vn 1 -2.634362E-07 1.005157E-05
vn 1 -2.634362E-07 1.005157E-05
vn 1 0 0
vn 1 0 0
vn 0 0.202994 0.9791799
vn 0 0.202994 0.9791799
vn 0 0.202994 0.9791799
vn 0 0.202994 0.9791799
vn 0 -0.9999746 0.007127844
vn 0 -0.9999746 0.007127842
vn 0 -0.9999746 0.007127842
vn 0 -0.9999746 0.007127844
vn -0.9999918 0.0001848605 0.004071755
vn -0.9999983 -3.586161E-05 0.001815843
vn -0.9999911 0.0003573155 0.004222451
vn -0.9999985 -3.384285E-05 0.001782679
vn -0.9999884 0.0009760598 0.004708209
vn -0.9999993 -2.269039E-05 0.001195804
vn -0.9999994 -2.077838E-05 0.001168126
vn 4.736866E-07 -0.005186219 0.9999865
vn 4.736866E-07 -0.005186218 0.9999865
vn 4.736866E-07 -0.005186219 0.9999865
vn 0 -0.005186225 0.9999865
vn 4.736794E-07 -0.005190827 0.9999865
vn 4.736794E-07 -0.005190827 0.9999865
vn 0.9450192 0.3070811 0.1124275
vn -1.939168E-05 0.7703058 0.6376747
vn -9.185264E-06 0.9936566 0.1124562
vn 0.7326153 0.238042 0.6376604
vn 0.5840529 -0.8038906 0.112437
vn 0.4527532 -0.6232023 0.6376781
vn -0.5840566 -0.8038874 0.1124418
vn -0.4527894 -0.6231841 0.6376702
vn -0.9450209 0.3070685 0.1124476
vn -0.7325991 0.2380469 0.6376773
vn -9.185264E-06 0.9936566 0.1124562
vn -1.939168E-05 0.7703058 0.6376747
vn -1.939168E-05 0.7703058 0.6376747
vn 0.7326153 0.238042 0.6376604
vn -0.7325991 0.2380469 0.6376773
vn -0.4527894 -0.6231841 0.6376702
vn 0.4527532 -0.6232023 0.6376781
vn 0 -1 0
vn 0 -1 0
vn 0 -1 0
vn 0 -1 0
vn 0 -1 0
vn 5.122668E-05 -1 -1.372693E-05
vn 5.122668E-05 -1 -1.372692E-05
vn 0 -1 0
vn 0 -1 0
vn 0 -1 0
vn 0 -1 0
vn -5.122342E-05 -1 -1.372464E-05
vn 0.8660288 0 0.499994
vn 1 0 -6.247387E-06
vn 1 0 -5.995726E-06
vn 0.8660278 0 0.4999959
vn 0.5000023 0 0.8660241
vn 0.5000006 0 0.8660251
vn 3.918586E-06 0 1
vn 3.948049E-06 0 1
vn 0.8660269 0 -0.4999974
vn 0.8660271 0 -0.4999972
vn 0.4937687 -6.001016E-05 -0.8695933
vn 0.4911365 -7.323288E-05 -0.8710827
vn -0.001961855 -9.204902E-05 -0.9999981
vn -0.002706485 -7.460098E-05 -0.9999964
vn -0.5000033 0 0.8660235
vn 3.948049E-06 0 1
vn 3.918586E-06 0 1
vn -0.5000015 0 0.8660246
vn -0.8660251 0 0.5000005
vn -0.8660239 0 0.5000027
vn -1 0 -1.080316E-07
vn -1 0 0
vn -0.8660238 0 -0.5000027
vn -0.866024 0 -0.5000026
vn -0.4934133 0 -0.869795
vn -0.4953784 -2.691385E-05 -0.8686774
vn -0.002706485 -7.460098E-05 -0.9999964
vn -0.001961855 -9.204902E-05 -0.9999981
vn -1 -6.921964E-07 2.25633E-05
vn -0.9999994 -2.077838E-05 0.001168126
vn -1 0 0
vn -0.9999993 -2.269039E-05 0.001195804
vn 1 0 0
vn 1 0 0
vn 1 0 0
vn 1 0 0
vn 4.736836E-07 -0.00305985 0.9999954
vn 4.736836E-07 -0.00305985 0.9999954
vn 4.736836E-07 -0.00305985 0.9999954
vn 4.736836E-07 -0.00305985 0.9999954
g barrel_mr133_710mm_plank_LOD1_0
f 3/3/3 2/2/2 1/1/1
f 4/4/4 1/1/1 2/2/2
f 1/1/1 5/5/5 3/3/3
f 6/6/6 3/3/3 5/5/5
f 5/5/5 7/7/7 6/6/6
f 8/8/8 6/6/6 7/7/7
f 2/2/2 9/9/9 4/4/4
f 10/10/10 4/4/4 9/9/9
f 4/4/4 11/11/11 1/1/1
f 12/12/12 1/1/1 11/11/11
f 1/1/1 12/12/12 5/5/5
f 13/13/13 5/5/5 12/12/12
f 5/5/5 13/13/13 7/7/7
f 14/14/14 7/7/7 13/13/13
f 10/10/10 15/15/15 4/4/4
f 11/11/11 4/4/4 15/15/15
f 15/15/15 10/10/10 16/16/16
f 17/17/17 16/16/16 10/10/10
f 9/9/9 18/18/18 10/10/10
f 17/17/17 10/10/10 18/18/18
f 18/18/18 19/19/19 17/17/17
f 20/20/20 17/17/17 19/19/19
f 8/8/8 21/21/21 6/6/6
f 22/22/22 6/6/6 21/21/21
f 18/18/18 23/23/23 19/19/19
f 24/24/24 19/19/19 23/23/23
f 23/23/23 18/18/18 25/25/25
f 9/9/9 25/25/25 18/18/18
f 25/25/25 9/9/9 26/26/26
f 2/2/2 26/26/26 9/9/9
f 26/26/26 2/2/2 27/27/27
f 3/3/3 27/27/27 2/2/2
f 27/27/27 3/3/3 22/22/22
f 6/6/6 22/22/22 3/3/3
f 30/30/30 29/29/29 28/28/28
f 31/31/31 28/28/28 29/29/29
f 28/28/28 32/32/32 30/30/30
f 33/33/33 30/30/30 32/32/32
f 32/32/32 34/34/34 33/33/33
f 35/35/35 33/33/33 34/34/34
f 34/34/34 36/36/36 35/35/35
f 37/37/37 35/35/35 36/36/36
f 36/36/36 38/38/38 37/37/37
f 39/39/39 37/37/37 38/38/38
f 38/38/38 40/40/40 39/39/39
f 41/41/41 39/39/39 40/40/40
f 31/31/31 42/42/42 28/28/28
f 43/43/43 28/28/28 42/42/42
f 28/28/28 43/43/43 32/32/32
f 44/44/44 32/32/32 43/43/43
f 32/32/32 44/44/44 34/34/34
f 45/45/45 34/34/34 44/44/44
f 34/34/34 45/45/45 36/36/36
f 46/46/46 36/36/36 45/45/45
f 36/36/36 46/46/46 38/38/38
f 47/47/47 38/38/38 46/46/46
f 38/38/38 47/47/47 40/40/40
f 48/48/48 40/40/40 47/47/47
f 35/35/35 49/49/49 33/33/33
f 49/49/49 35/35/35 50/50/50
f 37/37/37 50/50/50 35/35/35
f 50/50/50 37/37/37 51/51/51
f 39/39/39 51/51/51 37/37/37
f 51/51/51 39/39/39 52/52/52
f 41/41/41 52/52/52 39/39/39
f 53/53/53 33/33/33 49/49/49
f 33/33/33 53/53/53 30/30/30
f 54/54/54 30/30/30 53/53/53
f 30/30/30 54/54/54 29/29/29
f 55/55/55 29/29/29 54/54/54
f 58/58/58 57/57/57 56/56/56
f 59/59/59 56/56/56 57/57/57
f 62/62/62 61/61/61 60/60/60
f 63/63/63 60/60/60 61/61/61
f 60/60/60 63/63/63 64/64/64
f 65/65/65 64/64/64 63/63/63
f 64/64/64 65/65/65 66/66/66
f 67/67/67 66/66/66 65/65/65
f 61/61/61 62/62/62 68/68/68
f 69/69/69 68/68/68 62/62/62
f 68/68/68 69/69/69 70/70/70
f 71/71/71 70/70/70 69/69/69
f 70/70/70 71/71/71 72/72/72
f 73/73/73 72/72/72 71/71/71
f 76/76/76 75/75/75 74/74/74
f 77/77/77 74/74/74 75/75/75
f 74/74/74 77/77/77 78/78/78
f 79/79/79 78/78/78 77/77/77
f 78/78/78 79/79/79 80/80/80
f 81/81/81 80/80/80 79/79/79
f 80/80/80 81/81/81 82/82/82
f 83/83/83 82/82/82 81/81/81
f 82/82/82 83/83/83 84/84/84
f 85/85/85 84/84/84 83/83/83
f 84/84/84 85/85/85 86/86/86
f 87/87/87 86/86/86 85/85/85
f 90/90/90 89/89/89 88/88/88
f 88/88/88 89/89/89 91/91/91
f 92/92/92 91/91/91 89/89/89
f 92/92/92 93/93/93 91/91/91
f 94/94/94 91/91/91 93/93/93
f 97/97/97 96/96/96 95/95/95
f 98/98/98 95/95/95 96/96/96
f 101/101/101 100/100/100 99/99/99
f 102/102/102 99/99/99 100/100/100
f 105/105/105 104/104/104 103/103/103
f 106/106/106 103/103/103 104/104/104
f 107/107/107 105/105/105 103/103/103
f 104/104/104 108/108/108 106/106/106
f 109/109/109 106/106/106 108/108/108
f 112/112/112 111/111/111 110/110/110
f 113/113/113 110/110/110 111/111/111
f 112/112/112 114/114/114 111/111/111
f 115/115/115 111/111/111 114/114/114
f 118/118/118 117/117/117 116/116/116
f 119/119/119 116/116/116 117/117/117
f 116/116/116 119/119/119 120/120/120
f 121/121/121 120/120/120 119/119/119
f 120/120/120 121/121/121 122/122/122
f 123/123/123 122/122/122 121/121/121
f 122/122/122 123/123/123 124/124/124
f 125/125/125 124/124/124 123/123/123
f 124/124/124 125/125/125 126/126/126
f 127/127/127 126/126/126 125/125/125
f 130/130/130 129/129/129 128/128/128
f 130/130/130 131/131/131 129/129/129
f 132/132/132 129/129/129 131/131/131
f 135/135/135 134/134/134 133/133/133
f 134/134/134 136/136/136 133/133/133
f 137/137/137 136/136/136 134/134/134
f 138/138/138 137/137/137 134/134/134
f 139/139/139 138/138/138 134/134/134
f 140/140/140 137/137/137 138/138/138
f 141/141/141 136/136/136 137/137/137
f 142/142/142 141/141/141 137/137/137
f 143/143/143 136/136/136 141/141/141
f 133/133/133 136/136/136 144/144/144
f 147/147/147 146/146/146 145/145/145
f 148/148/148 145/145/145 146/146/146
f 145/145/145 148/148/148 149/149/149
f 150/150/150 149/149/149 148/148/148
f 149/149/149 150/150/150 151/151/151
f 152/152/152 151/151/151 150/150/150
f 146/146/146 147/147/147 153/153/153
f 154/154/154 153/153/153 147/147/147
f 153/153/153 154/154/154 155/155/155
f 156/156/156 155/155/155 154/154/154
f 155/155/155 156/156/156 157/157/157
f 158/158/158 157/157/157 156/156/156
f 161/161/161 160/160/160 159/159/159
f 162/162/162 159/159/159 160/160/160
f 159/159/159 162/162/162 163/163/163
f 164/164/164 163/163/163 162/162/162
f 163/163/163 164/164/164 165/165/165
f 166/166/166 165/165/165 164/164/164
f 165/165/165 166/166/166 167/167/167
f 168/168/168 167/167/167 166/166/166
f 167/167/167 168/168/168 169/169/169
f 170/170/170 169/169/169 168/168/168
f 169/169/169 170/170/170 171/171/171
f 172/172/172 171/171/171 170/170/170
f 175/175/175 174/174/174 173/173/173
f 176/176/176 173/173/173 174/174/174
f 179/179/179 178/178/178 177/177/177
f 180/180/180 177/177/177 178/178/178
f 183/183/183 182/182/182 181/181/181
f 184/184/184 181/181/181 182/182/182
