g barrel_glock_double_diamond_114mm_threaded_9x19_LOD1
v -0.005376758 -0.006128084 0.01908286
v -0.005376745 -0.09389337 0.01908285
v -0.00762806 -0.09389337 0.01364769
v -0.007628073 -0.006128084 0.0136477
v -0.005376745 -0.09389337 0.008212536
v -0.005376757 -0.006074676 0.008212545
v -3.939471E-05 -0.09389337 0.006001733
v -0.003334372 -0.005171106 0.007513526
v -3.939494E-05 -0.09389336 0.02129365
v -3.939651E-05 -0.006121726 0.02132105
v 0.005297965 -0.006128084 0.01908286
v 0.005297955 -0.09389336 0.01908285
v 0.00754927 -0.09389336 0.01364769
v 0.00754928 -0.006128084 0.0136477
v 0.005297955 -0.09389336 0.008212536
v 0.005297965 -0.006074676 0.008212545
v -3.939628E-05 -0.003767958 0.006005975
v 0.003255579 -0.005171106 0.007513526
v 0.005297965 -0.006074676 0.008212545
v 0.005297955 -0.09389336 0.008212536
v -0.008195036 0.02632029 0.007608578
v -0.008195036 -0.005072591 0.00757287
v -0.003334372 -0.005171106 0.007513526
v -0.003234679 0.02632029 0.007608579
v -0.005376758 -0.006128084 0.01908286
v -0.00819504 -0.005054369 0.02293398
v -3.939651E-05 -0.006121726 0.02132105
v -0.007628073 -0.006128084 0.0136477
v 0.008116247 -0.005054366 0.02293398
v 0.005297965 -0.006128084 0.01908286
v 0.00754928 -0.006128084 0.0136477
v -0.008195036 -0.005072591 0.00757287
v -0.005376757 -0.006074676 0.008212545
v -0.003334372 -0.005171106 0.007513526
v 0.008116243 -0.005072591 0.00757287
v 0.005297965 -0.006074676 0.008212545
v 0.003255579 -0.005171106 0.007513526
v -0.003234679 0.01666768 0.001515973
v -0.003234679 0.03017231 0.001515974
v -0.003234679 0.02632029 0.007608579
v -0.003234679 0.01303672 0.005529129
v -0.003334372 -0.005171106 0.007513526
v -0.003234679 0.007685835 0.004573614
v -0.003234677 0.002334952 -0.001923884
v -0.003234679 0.01214491 -0.001923882
v -0.005376745 -0.09389337 0.01908285
v -3.939494E-05 -0.09389336 0.02129365
v -3.939471E-05 -0.09389337 0.006001733
v -0.005376745 -0.09389337 0.008212536
v 0.005297955 -0.09389336 0.01908285
v 0.005297955 -0.09389336 0.008212536
v 0.00754927 -0.09389336 0.01364769
v -0.00762806 -0.09389337 0.01364769
v -0.003234679 0.02632029 0.007608579
v 0.003155887 0.02632029 0.007608579
v 0.00492606 0.02632029 0.01654941
v -0.004694537 0.02632029 0.01654941
v 0.008116244 0.02632029 0.007608578
v 0.008116244 0.02630031 0.02293398
v 0.004926058 0.0263003 0.02293398
v -0.008195036 0.02632029 0.007608578
v -0.00819504 0.0263003 0.02293398
v -0.004694541 0.0263003 0.02293398
v -0.003234679 0.03017231 0.001515974
v 0.003155887 0.0301723 0.001515974
v 0.003155887 0.02632029 0.007608579
v -0.003234679 0.02632029 0.007608579
v -0.003234679 0.03017231 0.001515974
v -0.003234679 0.01666768 0.001515973
v 0.003155887 0.01666768 0.001515973
v 0.003155887 0.0301723 0.001515974
v -0.003234679 0.01214491 -0.001923882
v -0.003234677 0.002334952 -0.001923884
v 0.003155886 0.002334952 -0.001923884
v 0.003155887 0.01214491 -0.001923882
v 0.008116244 0.02632029 0.007608578
v 0.003155887 0.02632029 0.007608579
v 0.003255579 -0.005171106 0.007513526
v 0.008116243 -0.005072591 0.00757287
v 0.003155886 0.002334952 -0.001923884
v -0.003234677 0.002334952 -0.001923884
v -3.939628E-05 -0.003767958 0.006005975
v 0.003255579 -0.005171106 0.007513526
v -0.003334372 -0.005171106 0.007513526
v 0.003155887 0.02632029 0.007608579
v 0.003155887 0.0301723 0.001515974
v 0.003155887 0.01666768 0.001515973
v 0.003155887 0.01303672 0.005529129
v 0.003255579 -0.005171106 0.007513526
v 0.003155887 0.007685833 0.004573614
v 0.003155886 0.002334952 -0.001923884
v 0.003155887 0.01214491 -0.001923882
v -0.003234679 0.01303672 0.005529129
v 0.003155887 0.01303672 0.005529129
v 0.003155887 0.01666768 0.001515973
v -0.003234679 0.01666768 0.001515973
v -0.003234679 0.01303672 0.005529129
v -0.003234679 0.007685835 0.004573614
v 0.003155887 0.007685833 0.004573614
v 0.003155887 0.01303672 0.005529129
v -0.003234679 0.007685835 0.004573614
v -0.003234679 0.01214491 -0.001923882
v 0.003155887 0.01214491 -0.001923882
v 0.003155887 0.007685833 0.004573614
v 0.008116247 -0.005054366 0.02293398
v 0.004926058 0.0263003 0.02293398
v 0.008116244 0.02630031 0.02293398
v -0.004694541 0.0263003 0.02293398
v -0.00819504 -0.005054369 0.02293398
v -0.00819504 0.0263003 0.02293398
v 0.004926059 0.02864347 0.02293399
v -0.004694538 0.02864347 0.02293399
v 0.00492606 0.02870718 0.01801454
v -0.004694537 0.02870718 0.01801454
v -0.004694537 0.02632029 0.01654941
v 0.00492606 0.02632029 0.01654941
v 0.004926059 0.02864347 0.02293399
v -0.004694538 0.02864347 0.02293399
v -0.004694537 0.02870718 0.01801454
v 0.00492606 0.02870718 0.01801454
v 0.008116244 0.02630031 0.02293398
v 0.008116244 0.02632029 0.007608578
v 0.008116243 -0.005072591 0.00757287
v 0.008116247 -0.005054366 0.02293398
v -0.008195036 -0.005072591 0.00757287
v -0.008195036 0.02632029 0.007608578
v -0.00819504 0.0263003 0.02293398
v -0.00819504 -0.005054369 0.02293398
v -0.004694541 0.0263003 0.02293398
v -0.004694537 0.02632029 0.01654941
v -0.004694537 0.02870718 0.01801454
v -0.004694538 0.02864347 0.02293399
v 0.00492606 0.02870718 0.01801454
v 0.00492606 0.02632029 0.01654941
v 0.004926058 0.0263003 0.02293398
v 0.004926059 0.02864347 0.02293399
vt 0.7497992 0.2086756
vt 0.7497992 0.9078873
vt 0.8104883 0.9078873
vt 0.8104883 0.2086756
vt 0.8711776 0.907887
vt 0.8711773 0.2081958
vt 0.9307656 0.9078879
vt 0.8934231 0.2000781
vt 0.6900935 0.9078873
vt 0.6900935 0.2086184
vt 0.630388 0.2086756
vt 0.630388 0.9078873
vt 0.569699 0.9078873
vt 0.569699 0.2086756
vt 0.50901 0.9078873
vt 0.50901 0.2019761
vt 0.9302084 0.1874767
vt 0.9670141 0.2000327
vt 0.9892721 0.208123
vt 0.990354 0.9078134
vt 0.4447012 0.8381073
vt 0.1251502 0.8381118
vt 0.1241476 0.8888518
vt 0.4447019 0.8898858
vt 0.5608868 0.146718
vt 0.5320174 0.1848193
vt 0.6172301 0.1685212
vt 0.5345736 0.09123164
vt 0.7022808 0.1856434
vt 0.6737818 0.1472639
vt 0.7006314 0.09203504
vt 0.5156773 0.0294703
vt 0.5474752 0.03119045
vt 0.5636981 0.01304746
vt 0.7201261 0.03045986
vt 0.6883125 0.03187151
vt 0.6722664 0.01357198
vt 0.3460473 0.9528626
vt 0.4835092 0.9537312
vt 0.4447019 0.8898858
vt 0.3093529 0.9107377
vt 0.1241476 0.8888518
vt 0.2548238 0.9203674
vt 0.1999291 0.987847
vt 0.2997836 0.9884782
vt 0.5930992 0.01698864
vt 0.5576188 0.05284708
vt 0.6812506 0.1032913
vt 0.6809832 0.05284708
vt 0.557886 0.1032913
vt 0.6457702 0.1391498
vt 0.5944015 0.1394219
vt 0.6444677 0.01671648
vt 0.3183954 0.07111897
vt 0.3188804 0.1431625
vt 0.4198085 0.1624395
vt 0.419078 0.05398275
vt 0.3192572 0.1990826
vt 0.4875545 0.1979492
vt 0.4873122 0.161985
vt 0.3180187 0.01519907
vt 0.4863161 0.01406572
vt 0.4865818 0.05352802
vt 0.2377065 0.0716627
vt 0.2381917 0.1437059
vt 0.3188804 0.1431625
vt 0.3183954 0.07111897
vt 0.02005075 0.306465
vt 0.02005075 0.4741828
vt 0.1014409 0.4741828
vt 0.1014409 0.3064652
vt 0.02005075 0.7094748
vt 0.02005075 0.8313075
vt 0.1014409 0.8313075
vt 0.1014409 0.7094748
vt 0.4452531 0.3561701
vt 0.4453728 0.304395
vt 0.124817 0.3046857
vt 0.125703 0.3554294
vt 0.1014409 0.8313075
vt 0.02005075 0.8313075
vt 0.06074573 0.9575793
vt 0.1027105 0.9833957
vt 0.0187811 0.9833957
vt 0.4453728 0.304395
vt 0.4843275 0.2406417
vt 0.346864 0.2411912
vt 0.3100717 0.2832306
vt 0.124817 0.3046857
vt 0.2555652 0.273474
vt 0.2008274 0.2058673
vt 0.3006831 0.205468
vt 0.02005075 0.5423431
vt 0.1014409 0.5423433
vt 0.1014409 0.4741828
vt 0.02005075 0.4741828
vt 0.02005075 0.5423431
vt 0.02005075 0.6099025
vt 0.1014409 0.6099025
vt 0.1014409 0.5423433
vt 0.02005075 0.6099025
vt 0.02005075 0.7094748
vt 0.1014409 0.7094748
vt 0.1014409 0.6099025
vt 0.1257096 0.5116382
vt 0.4448331 0.5453049
vt 0.4448714 0.5120035
vt 0.4447182 0.6457309
vt 0.1255145 0.6819057
vt 0.4446763 0.6822713
vt 0.4686845 0.5453321
vt 0.4685695 0.6457583
vt 0.9885727 0.1765347
vt 0.9885725 0.01113909
vt 0.9412902 0.01113909
vt 0.9411749 0.1762298
vt 0.01359976 0.04550214
vt 0.01359976 0.1880766
vt 0.08073216 0.1883413
vt 0.08063217 0.04550214
vt 0.4448714 0.5120035
vt 0.4452531 0.3561701
vt 0.125703 0.3554294
vt 0.1257096 0.5116382
vt 0.1251502 0.8381118
vt 0.4447012 0.8381073
vt 0.4446763 0.6822713
vt 0.1255145 0.6819057
vt 0.01313469 0.2219352
vt 0.1018692 0.2228652
vt 0.08073216 0.1883413
vt 0.01359976 0.1880766
vt 0.08063217 0.04550214
vt 0.1018692 0.01071352
vt 0.01313469 0.01164355
vt 0.01359976 0.04550214
vn -0.7077777 -7.81041E-05 0.7064352
vn -0.7078799 -7.807684E-05 0.7063328
vn -1 -1.440718E-07 0
vn -0.9999993 -1.439254E-07 -0.001193524
vn -0.7010745 0.0006069847 -0.7130878
vn -0.6655264 0.0006759385 -0.746374
vn -1.891706E-07 0.00117213 -0.9999993
vn -0.3970326 0.0004622836 -0.9178045
vn -1.793256E-07 -0.0001561657 1
vn 0 -0.0001561657 1
vn 0.7077777 -7.808733E-05 0.7064352
vn 0.7078798 -7.806011E-05 0.706333
vn 1 -1.203541E-07 0
vn 0.9999993 -1.202036E-07 -0.001193535
vn 0.7010743 0.0006070026 -0.7130879
vn 0.6655264 0.0006759552 -0.746374
vn 0 4.706901E-05 -1
vn 0.3970326 0.0004622955 -0.9178045
vn 0.6655264 0.0006759552 -0.746374
vn 0.7010743 0.0006070026 -0.7130879
vn -0.006021354 0.002088899 -0.9999797
vn -0.006021354 0.002088899 -0.9999797
vn -0.006021354 0.002088899 -0.9999797
vn -0.006021353 0.002088899 -0.9999797
vn -0.1672689 -0.9745413 0.1492991
vn -0.1956769 -0.9574721 0.2120319
vn 1.063045E-07 -0.891895 0.4522424
vn -0.7728634 -0.6345424 -0.006162354
vn 0.1956772 -0.957472 0.2120323
vn 0.1672693 -0.9745412 0.1492994
vn 0.7728636 -0.6345422 -0.006162247
vn -0.3367661 -0.8945903 -0.293763
vn -0.143241 -0.7864117 -0.6008648
vn -0.0217043 -0.5805928 -0.8139048
vn 0.3367661 -0.8945903 -0.293763
vn 0.1432411 -0.7864117 -0.6008648
vn 0.02170432 -0.5805928 -0.8139048
vn -1 0 0
vn -1 0 0
vn -1 0 0
vn -1 0 0
vn -0.9997919 0.003279557 -0.02013625
vn -0.9997919 0.003279558 -0.02013625
vn -0.9999868 0.003973596 -0.003272573
vn -0.9999868 0.003973596 -0.003272573
vn 7.444972E-07 -1 3.037694E-07
vn 8.933967E-07 -1 3.645233E-07
vn 8.933969E-07 -1 3.645233E-07
vn 7.444972E-07 -1 3.037694E-07
vn 7.444975E-07 -1 3.037695E-07
vn 7.444974E-07 -1 3.037695E-07
vn 0 -1 0
vn 0 -1 0
vn 0 1 0
vn 0 1 0
vn 0.001531619 0.9999982 0.001093313
vn -0.00138179 0.9999985 0.001081679
vn 0.0005626585 0.9999998 0.0004016416
vn 0.002578758 0.999995 0.001840791
vn 0.002578757 0.999995 0.001840791
vn -0.0005587853 0.9999998 0.0004374227
vn -0.002352078 0.9999956 0.00184123
vn -0.002352078 0.9999956 0.00184123
vn 3.074355E-07 0.8452348 0.5343952
vn 3.074354E-07 0.8452348 0.5343952
vn 3.074355E-07 0.8452348 0.5343952
vn 3.074355E-07 0.8452348 0.5343952
vn 0 0 -1
vn 0 0 -1
vn 0 0 -1
vn 0 0 -1
vn 0 2.430373E-07 -1
vn 0 2.430373E-07 -1
vn 0 2.430373E-07 -1
vn 0 2.430373E-07 -1
vn 0.006021383 0.002088899 -0.9999797
vn 0.006021382 0.002088899 -0.9999797
vn 0.006021382 0.002088899 -0.9999797
vn 0.006021382 0.002088899 -0.9999797
vn -0.009794396 -0.7905288 -0.6123465
vn 0.009794403 -0.7905288 -0.6123465
vn 0 -0.7842974 -0.6203851
vn -0.04867589 -0.7819631 -0.6214212
vn 0.04867585 -0.7819631 -0.6214212
vn 1 0 0
vn 1 0 0
vn 1 0 0
vn 1 0 0
vn 0.9999868 0.003973585 -0.003272533
vn 0.9999868 0.003973585 -0.003272533
vn 0.9999868 0.003973584 -0.003272532
vn 0.9999868 0.003973584 -0.003272532
vn -1.300289E-07 -0.7415349 -0.6709144
vn -1.300289E-07 -0.7415348 -0.6709144
vn -1.300289E-07 -0.7415349 -0.6709144
vn -1.300289E-07 -0.7415349 -0.6709144
vn 0 0.1757905 -0.9844276
vn 0 0.1757905 -0.9844276
vn 0 0.1757905 -0.9844276
vn 0 0.1757905 -0.9844276
vn 1.469112E-07 0.8245127 0.5658435
vn 1.469112E-07 0.8245127 0.5658435
vn 1.469112E-07 0.8245127 0.5658435
vn 1.469112E-07 0.8245127 0.5658435
vn 0 -1.140589E-07 1
vn 0 -4.152069E-07 1
vn 0 -1.140589E-07 1
vn 0 -4.152068E-07 1
vn 0 -1.140589E-07 1
vn 0 -1.140589E-07 1
vn 0 -1.017503E-06 1
vn 0 -1.017503E-06 1
vn 0 0.5231305 -0.8522525
vn 0 0.5231305 -0.8522526
vn 0 0.5231305 -0.8522525
vn 0 0.5231306 -0.8522526
vn 0 0.9999162 0.0129496
vn 0 0.9999162 0.0129496
vn 0 0.9999162 0.0129496
vn 0 0.9999162 0.0129496
vn 1 0 -1.016401E-07
vn 1 0 -1.016401E-07
vn 1 0 -1.016401E-07
vn 1 0 -1.016401E-07
vn -1 0 -2.285627E-07
vn -1 0 -2.285627E-07
vn -1 0 -2.285627E-07
vn -1 0 -2.285627E-07
vn -1 6.006666E-07 -3.268261E-07
vn -1 6.006666E-07 -3.268261E-07
vn -1 6.006666E-07 -3.268261E-07
vn -1 6.006667E-07 -3.268261E-07
vn 1 -3.166285E-07 2.234717E-07
vn 1 -3.166285E-07 2.234717E-07
vn 1 -3.166286E-07 2.234717E-07
vn 1 -3.166286E-07 2.234717E-07
g barrel_glock_double_diamond_114mm_threaded_9x19_LOD1_0
f 3/3/3 2/2/2 1/1/1
f 4/4/4 3/3/3 1/1/1
f 5/5/5 3/3/3 4/4/4
f 6/6/6 5/5/5 4/4/4
f 5/5/5 6/6/6 7/7/7
f 6/6/6 8/8/8 7/7/7
f 2/2/2 9/9/9 1/1/1
f 9/9/9 10/10/10 1/1/1
f 11/11/11 10/10/10 9/9/9
f 12/12/12 11/11/11 9/9/9
f 12/12/12 13/13/13 11/11/11
f 13/13/13 14/14/14 11/11/11
f 13/13/13 15/15/15 14/14/14
f 15/15/15 16/16/16 14/14/14
f 17/17/17 7/7/7 8/8/8
f 7/7/7 17/17/17 18/18/18
f 7/7/7 18/18/18 19/19/19
f 20/20/20 7/7/7 19/19/19
f 23/23/23 22/22/22 21/21/21
f 24/24/24 23/23/23 21/21/21
f 27/27/27 26/26/26 25/25/25
f 26/26/26 28/28/28 25/25/25
f 29/29/29 26/26/26 27/27/27
f 29/29/29 27/27/27 30/30/30
f 31/31/31 29/29/29 30/30/30
f 32/32/32 28/28/28 26/26/26
f 28/28/28 32/32/32 33/33/33
f 32/32/32 34/34/34 33/33/33
f 35/35/35 29/29/29 31/31/31
f 35/35/35 31/31/31 36/36/36
f 37/37/37 35/35/35 36/36/36
f 40/40/40 39/39/39 38/38/38
f 41/41/41 40/40/40 38/38/38
f 42/42/42 40/40/40 41/41/41
f 43/43/43 42/42/42 41/41/41
f 44/44/44 42/42/42 43/43/43
f 45/45/45 44/44/44 43/43/43
f 48/48/48 47/47/47 46/46/46
f 49/49/49 48/48/48 46/46/46
f 50/50/50 47/47/47 48/48/48
f 51/51/51 50/50/50 48/48/48
f 52/52/52 50/50/50 51/51/51
f 53/53/53 49/49/49 46/46/46
f 56/56/56 55/55/55 54/54/54
f 57/57/57 56/56/56 54/54/54
f 58/58/58 55/55/55 56/56/56
f 59/59/59 58/58/58 56/56/56
f 60/60/60 59/59/59 56/56/56
f 61/61/61 57/57/57 54/54/54
f 57/57/57 61/61/61 62/62/62
f 63/63/63 57/57/57 62/62/62
f 66/66/66 65/65/65 64/64/64
f 67/67/67 66/66/66 64/64/64
f 70/70/70 69/69/69 68/68/68
f 71/71/71 70/70/70 68/68/68
f 74/74/74 73/73/73 72/72/72
f 75/75/75 74/74/74 72/72/72
f 78/78/78 77/77/77 76/76/76
f 79/79/79 78/78/78 76/76/76
f 82/82/82 81/81/81 80/80/80
f 83/83/83 82/82/82 80/80/80
f 84/84/84 81/81/81 82/82/82
f 87/87/87 86/86/86 85/85/85
f 88/88/88 87/87/87 85/85/85
f 88/88/88 85/85/85 89/89/89
f 90/90/90 88/88/88 89/89/89
f 90/90/90 89/89/89 91/91/91
f 92/92/92 90/90/90 91/91/91
f 95/95/95 94/94/94 93/93/93
f 96/96/96 95/95/95 93/93/93
f 99/99/99 98/98/98 97/97/97
f 100/100/100 99/99/99 97/97/97
f 103/103/103 102/102/102 101/101/101
f 104/104/104 103/103/103 101/101/101
f 107/107/107 106/106/106 105/105/105
f 106/106/106 108/108/108 105/105/105
f 108/108/108 109/109/109 105/105/105
f 109/109/109 108/108/108 110/110/110
f 108/108/108 106/106/106 111/111/111
f 112/112/112 108/108/108 111/111/111
f 115/115/115 114/114/114 113/113/113
f 116/116/116 115/115/115 113/113/113
f 119/119/119 118/118/118 117/117/117
f 120/120/120 119/119/119 117/117/117
f 123/123/123 122/122/122 121/121/121
f 124/124/124 123/123/123 121/121/121
f 127/127/127 126/126/126 125/125/125
f 128/128/128 127/127/127 125/125/125
f 131/131/131 130/130/130 129/129/129
f 132/132/132 131/131/131 129/129/129
f 135/135/135 134/134/134 133/133/133
f 136/136/136 135/135/135 133/133/133
