g barrel_mr133_660mm_plank_LOD1
v 0.009627609 -0.1101225 0.005672643
v 0.01111694 -0.6488796 0.0001140892
v 0.009627609 -0.6488796 0.005672615
v 0.01111694 -0.1101225 0.0001141143
v 0.005558472 -0.6488795 0.009741737
v 0.005558472 -0.1101225 0.009741772
v 0 -0.6488795 0.01123114
v 0 -0.1101225 0.01123118
v 0.009627533 -0.1101225 -0.005444419
v 0.009627533 -0.6488796 -0.005444448
v 0.01240761 -0.004649839 0.0001141095
v 0.01074539 -0.004649839 0.006317984
v 0.006203766 -0.004649887 0.01085954
v 0 -0.004649887 0.01252186
v 0.01074531 -0.004649839 -0.00608976
v 0.006203766 -0.004649839 -0.01063131
v 0.005558472 -0.1101225 -0.00951354
v 0.005558472 -0.6488796 -0.009513567
v -1.525879E-07 -0.1101225 -0.01100294
v -6.317138E-05 -0.6488796 -0.01089698
v 0 -0.1101225 0.01123118
v -0.005558624 -0.6488795 0.009741744
v -0.005558624 -0.1101225 0.009741772
v 0 -0.6488795 0.01123114
v -0.009627685 -0.6488796 0.005672615
v -0.009627685 -0.1101225 0.005672643
v -0.01111717 -0.6488796 0.0001140892
v -0.01111717 -0.1101225 0.0001141179
v -0.009627685 -0.6488796 -0.005444437
v -0.009627685 -0.1101225 -0.005444406
v -0.005558624 -0.6488796 -0.009513563
v -0.005558624 -0.1101225 -0.009513534
v -6.317138E-05 -0.6488796 -0.01089698
v -1.525879E-07 -0.1101225 -0.01100294
v 0 -0.004649887 0.01252186
v -0.006203995 -0.004649887 0.01085954
v -0.01074547 -0.004649839 0.006317984
v -0.01240776 -0.004649839 0.0001141131
v -0.01074547 -0.004649839 -0.006089747
v -0.006203995 -0.004649839 -0.0106313
v -1.525879E-07 -0.004649839 -0.01229363
v 0.005558472 -0.1101225 -0.00951354
v -1.525879E-07 -0.004649839 -0.01229363
v -1.525879E-07 -0.1101225 -0.01100294
v 0.006203766 -0.004649839 -0.01063131
v 0.01074539 -0.004649839 0.006317984
v 0.01454384 0.0001235962 0.0001141131
v 0.01240761 -0.004649839 0.0001141095
v 0.01259529 0.0001235962 0.007386078
v 0.006203766 -0.004649887 0.01085954
v 0.007271881 0.0001235485 0.01270953
v 0 -0.004649887 0.01252186
v 0 0.0001235771 0.01465805
v 0.01259529 0.0001235962 -0.00715785
v 0.01074531 -0.004649839 -0.00608976
v 0.007271881 0.0001235962 -0.01248129
v 0.006203766 -0.004649839 -0.01063131
v -1.525879E-07 0.0001235962 -0.01442981
v -1.525879E-07 -0.004649839 -0.01229363
v -0.006203995 -0.004649887 0.01085954
v 0 0.0001235771 0.01465805
v 0 -0.004649887 0.01252186
v -0.007272033 0.0001235485 0.01270953
v -0.01074547 -0.004649839 0.006317984
v -0.01259552 0.0001235962 0.007386078
v -0.01240776 -0.004649839 0.0001141131
v -0.01454399 0.0001235962 0.0001141191
v -0.01074547 -0.004649839 -0.006089747
v -0.01259552 0.0001235962 -0.007157837
v -0.006203995 -0.004649839 -0.0106313
v -0.007272033 0.0001236248 -0.01248128
v -1.525879E-07 -0.004649839 -0.01229363
v -1.525879E-07 0.0001235962 -0.01442981
v 0.002524261 0.0003908443 0.008759886
v 0.002524261 -0.006674747 0.01775964
v 0.002524261 2.451897E-05 0.01637081
v 0.002524261 -0.6465348 0.01469797
v 0.002524261 -0.6465825 0.008008365
v -0.002509003 2.451897E-05 0.01637081
v 0.002524261 -0.006674747 0.01775964
v -0.002509003 -0.006674747 0.01775964
v 0.002524261 2.451897E-05 0.01637081
v -0.002509003 -0.6465348 0.01469798
v 0.002524261 -0.6465825 0.008008365
v -0.002509003 -0.6465825 0.008008365
v 0.002524261 -0.6465348 0.01469797
v -0.002509003 -0.006674747 0.01775964
v -0.002509003 -0.6465825 0.008008365
v -0.002544479 0.0003908443 0.008759886
v -0.002509003 -0.6465348 0.01469798
v -0.002509003 2.451897E-05 0.01637081
v 0.002524261 -0.006674747 0.01775964
v -0.002509003 -0.6465348 0.01469798
v -0.002509003 -0.006674747 0.01775964
v 0.002524261 -0.6465348 0.01469797
v 0.002243805 -0.6379834 0.01429259
v 2.487183E-05 -0.6368403 0.01843654
v 2.487183E-05 -0.6363714 0.01429259
v 0.001797943 -0.6381283 0.01843654
v 0.001396255 -0.640592 0.01429259
v 0.001120605 -0.6402126 0.01843654
v -0.001346436 -0.640592 0.01429259
v -0.001070862 -0.6402126 0.01843654
v -0.002193985 -0.6379834 0.01429259
v -0.001747971 -0.6381283 0.01843654
v 2.487183E-05 -0.6363714 0.01429259
v 2.487183E-05 -0.6368403 0.01843654
v 2.487183E-05 -0.6368403 0.01843654
v 0.001797943 -0.6381283 0.01843654
v -0.001747971 -0.6381283 0.01843654
v -0.001070862 -0.6402126 0.01843654
v 0.001120605 -0.6402126 0.01843654
v 0.005558472 -0.6488795 0.009741737
v -0.005558624 -0.6488795 0.009741744
v 0 -0.6488795 0.01123114
v 0.01111694 -0.6488796 0.0001140892
v -0.005558624 -0.6488796 -0.009513563
v -0.01111717 -0.6488796 0.0001140892
v -0.009627685 -0.6488796 0.005672615
v -0.009627685 -0.6488796 -0.005444437
v 0.005558472 -0.6488796 -0.009513567
v -6.317138E-05 -0.6488796 -0.01089698
v 0.009627533 -0.6488796 -0.005444448
v 0.009627609 -0.6488796 0.005672615
vt 0.8359576 0.4708914
vt 0.08979104 0.3583203
vt 0.08979104 0.4708914
vt 0.8359576 0.3583203
vt 0.08979104 0.5780072
vt 0.8359576 0.5780072
vt 0.08979104 0.6839082
vt 0.8359576 0.6839082
vt 0.8359576 0.2535675
vt 0.08979104 0.2535675
vt 0.9905595 0.3583203
vt 0.9905595 0.4708914
vt 0.9905595 0.5780072
vt 0.9905595 0.6839082
vt 0.9905595 0.2535675
vt 0.9905595 0.1452634
vt 0.8359576 0.1452634
vt 0.08979104 0.1452634
vt 0.8359576 0.03923762
vt 0.08979104 0.03923762
vt 0.8359576 0.6839082
vt 0.08979104 0.5780072
vt 0.8359576 0.5780072
vt 0.08979104 0.6839082
vt 0.08979104 0.4708914
vt 0.8359576 0.4708914
vt 0.08979104 0.3583203
vt 0.8359576 0.3583203
vt 0.08979104 0.2535675
vt 0.8359576 0.2535675
vt 0.08979104 0.1452634
vt 0.8359576 0.1452634
vt 0.08979104 0.03923762
vt 0.8359576 0.03923762
vt 0.9905595 0.6839082
vt 0.9905595 0.5780072
vt 0.9905595 0.4708914
vt 0.9905595 0.3583203
vt 0.9905595 0.2535675
vt 0.9905595 0.1452634
vt 0.9905595 0.03923762
vt 0.8359576 0.1452634
vt 0.9905595 0.03923762
vt 0.8359576 0.03923762
vt 0.9905595 0.1452634
vt 0.9905595 0.4708914
vt 0.998402 0.3583203
vt 0.9905595 0.3583203
vt 0.998402 0.4773947
vt 0.9905595 0.5780072
vt 0.998402 0.5939298
vt 0.9905595 0.6839082
vt 0.998402 0.7180453
vt 0.998402 0.2517259
vt 0.9905595 0.2535675
vt 0.998402 0.1346035
vt 0.9905595 0.1452634
vt 0.998402 0.009805649
vt 0.9905595 0.03923762
vt 0.9905595 0.5780072
vt 0.998402 0.7180453
vt 0.9905595 0.6839082
vt 0.998402 0.5939298
vt 0.9905595 0.4708914
vt 0.998402 0.4773947
vt 0.9905595 0.3583203
vt 0.998402 0.3583203
vt 0.9905595 0.2535675
vt 0.998402 0.2517259
vt 0.9905595 0.1452634
vt 0.998402 0.1346035
vt 0.9905595 0.03923762
vt 0.998402 0.009805649
vt 0.9984428 0.7342231
vt 0.9886855 0.8962817
vt 0.9984428 0.8720388
vt 0.09975742 0.8431686
vt 0.09975742 0.7342231
vt 0.9984428 0.9831458
vt 0.9886855 0.8962817
vt 0.9886855 0.9831458
vt 0.9984428 0.896304
vt 0.09975742 0.9300268
vt 0.09002636 0.8425984
vt 0.09002636 0.9294463
vt 0.09975742 0.8431686
vt 0.9886855 0.8962817
vt 0.09975742 0.7342231
vt 0.9984428 0.7342231
vt 0.09975742 0.843183
vt 0.9984428 0.8720362
vt 0.9886855 0.8962817
vt 0.09975742 0.9300268
vt 0.9886855 0.9831458
vt 0.09975742 0.8431686
vt 0.03815285 0.9842926
vt 0.03200273 0.8358863
vt 0.02555742 0.9842926
vt 0.04206582 0.8358863
vt 0.05108957 0.9842926
vt 0.05240084 0.8358863
vt 0.0641382 0.9842926
vt 0.06282776 0.8358863
vt 0.07707302 0.9842926
vt 0.07316392 0.8358863
vt 0.08966955 0.9842926
vt 0.08322758 0.8358863
vt 0.0158685 0.6859629
vt 0.000414989 0.7793183
vt 0.03132121 0.7793183
vt 0.02541937 0.9303876
vt 0.006316987 0.9303876
vt 0.06464012 0.6611831
vt 0.02291777 0.6611831
vt 0.04377913 0.7076612
vt 0.08550112 0.360734
vt 0.02291777 0.06028676
vt 0.002056758 0.360734
vt 0.007646689 0.5341984
vt 0.007646689 0.1872704
vt 0.06464012 0.06028676
vt 0.04354233 0.0171138
vt 0.0799112 0.1872704
vt 0.07991157 0.5341984
vn 0.8660119 -0.006124421 0.4999858
vn 1 0 -6.108642E-06
vn 0.8660284 0 0.4999949
vn 0.9999813 -0.006124393 -6.277375E-06
vn 0.5000013 0 0.8660247
vn 0.4999912 -0.00612442 0.8660088
vn 4.065899E-06 0 1
vn 3.414327E-06 -0.006124421 0.9999813
vn 0.8660108 -0.006124339 -0.4999877
vn 0.8660272 0 -0.499997
vn 0.9999251 -0.01223616 -5.668287E-06
vn 0.865963 -0.01223618 0.4999584
vn 0.4999619 -0.01223607 0.865961
vn 4.802318E-06 -0.01223627 0.9999251
vn 0.8659617 -0.01223621 -0.4999608
vn 0.7070575 -0.01181944 -0.7070572
vn 0.5751532 -0.004067935 -0.8180357
vn 0.4911571 -0.0001128575 -0.871071
vn -0.0891138 -0.004123469 -0.9960129
vn -0.002730063 -0.0001133364 -0.9999963
vn 3.414327E-06 -0.006124421 0.9999813
vn -0.5000022 0 0.8660241
vn -0.4999923 -0.006124493 0.8660083
vn 4.065899E-06 0 1
vn -0.8660247 0 0.5000011
vn -0.8660079 -0.006124495 0.4999929
vn -1 0 5.008728E-07
vn -0.9999813 -0.006124227 -4.316978E-07
vn -0.8660241 0 -0.5000021
vn -0.8660079 -0.006124186 -0.4999929
vn -0.493413 0 -0.8697951
vn -0.4999736 -0.006165514 -0.8660187
vn -0.002730063 -0.0001133364 -0.9999963
vn -0.0891138 -0.004123469 -0.9960129
vn 4.802318E-06 -0.01223627 0.9999251
vn -0.4999649 -0.01223635 0.8659593
vn -0.8659641 -0.01223585 0.4999565
vn -0.9999251 -0.01223581 -5.018806E-07
vn -0.8659638 -0.01223638 -0.4999571
vn -0.4999674 -0.01223633 -0.8659577
vn -0.2588033 -0.01181936 -0.9658577
vn 0.2587968 -0.01181939 -0.9658594
vn 0.2587968 -0.01181939 -0.9658594
vn 0.2587968 -0.01181939 -0.9658594
vn 0.2587991 -0.01181925 -0.9658589
vn 0.7904837 -0.4084699 0.4563857
vn 0.9127671 -0.4084803 -4.597268E-06
vn 0.912766 -0.4084829 -8.458293E-06
vn 0.7904833 -0.4084679 0.4563881
vn 0.4563864 -0.4084771 0.7904796
vn 0.4563883 -0.4084789 0.7904776
vn 3.47664E-06 -0.4084764 0.9127689
vn 2.403356E-06 -0.4084756 0.9127693
vn 0.7904814 -0.4084774 -0.4563829
vn 0.7904828 -0.4084762 -0.4563816
vn 0.4563842 -0.4084781 -0.7904803
vn 0.4563823 -0.4084786 -0.7904811
vn -3.722836E-06 -0.408477 -0.9127687
vn -3.183871E-06 -0.4084761 -0.912769
vn -0.4563893 -0.4084738 0.7904796
vn 2.403356E-06 -0.4084756 0.9127693
vn 3.47664E-06 -0.4084764 0.9127689
vn -0.4563845 -0.4084766 0.7904809
vn -0.7904797 -0.4084833 0.4563806
vn -0.790479 -0.4084859 0.4563794
vn -0.9127649 -0.4084852 -7.959664E-07
vn -0.9127649 -0.4084853 -2.513305E-07
vn -0.7904803 -0.4084855 -0.4563774
vn -0.7904806 -0.4084827 -0.4563796
vn -0.4563872 -0.4084738 -0.7904809
vn -0.4563842 -0.4084712 -0.7904839
vn -3.183871E-06 -0.4084761 -0.912769
vn -3.722836E-06 -0.408477 -0.9127687
vn 1 0 0
vn 1 0 0
vn 1 0 0
vn 1 0 0
vn 1 0 0
vn 0 0.202994 0.9791799
vn 0 0.202994 0.9791799
vn 0 0.202994 0.9791799
vn 0 0.202994 0.9791799
vn 0 -0.9999746 0.007127844
vn 0 -0.9999746 0.007127842
vn 0 -0.9999746 0.007127842
vn 0 -0.9999746 0.007127844
vn -0.9999917 0.0001883048 0.004075718
vn -1 -5.344184E-07 3.507013E-05
vn -0.9999911 0.0003602024 0.004224717
vn -1 0 0
vn -0.9999884 0.0009760598 0.004708209
vn 0 -0.004784837 0.9999886
vn 0 -0.004784837 0.9999886
vn 0 -0.004784838 0.9999886
vn 4.736804E-07 -0.004784842 0.9999886
vn 0.945023 0.3070714 0.1124219
vn -1.940933E-05 0.7703112 0.637668
vn -9.221849E-06 0.9936587 0.1124382
vn 0.7326156 0.2380491 0.6376575
vn 0.5840555 -0.8038901 0.1124266
vn 0.452757 -0.6232058 0.6376719
vn -0.5840573 -0.8038888 0.1124271
vn -0.45279 -0.6231883 0.6376656
vn -0.9450243 0.3070618 0.1124378
vn -0.7325973 0.2380564 0.6376758
vn -9.221849E-06 0.9936587 0.1124382
vn -1.940933E-05 0.7703112 0.637668
vn -1.940933E-05 0.7703112 0.637668
vn 0.7326156 0.2380491 0.6376575
vn -0.7325973 0.2380564 0.6376758
vn -0.45279 -0.6231883 0.6376656
vn 0.452757 -0.6232058 0.6376719
vn 0 -1 0
vn 0 -1 0
vn 0 -1 0
vn 0 -1 0
vn 0 -1 0
vn 2.561334E-05 -1 -6.863463E-06
vn 2.561334E-05 -1 -6.863462E-06
vn 0 -1 0
vn 0 -1 0
vn 0 -1 0
vn 0 -1 0
vn -2.561171E-05 -1 -6.862322E-06
g barrel_mr133_660mm_plank_LOD1_0
f 3/3/3 2/2/2 1/1/1
f 4/4/4 1/1/1 2/2/2
f 3/3/3 1/1/1 5/5/5
f 6/6/6 5/5/5 1/1/1
f 5/5/5 6/6/6 7/7/7
f 8/8/8 7/7/7 6/6/6
f 4/4/4 2/2/2 9/9/9
f 10/10/10 9/9/9 2/2/2
f 4/4/4 11/11/11 1/1/1
f 12/12/12 1/1/1 11/11/11
f 1/1/1 12/12/12 6/6/6
f 13/13/13 6/6/6 12/12/12
f 6/6/6 13/13/13 8/8/8
f 14/14/14 8/8/8 13/13/13
f 9/9/9 15/15/15 4/4/4
f 11/11/11 4/4/4 15/15/15
f 15/15/15 9/9/9 16/16/16
f 17/17/17 16/16/16 9/9/9
f 9/9/9 10/10/10 17/17/17
f 18/18/18 17/17/17 10/10/10
f 17/17/17 18/18/18 19/19/19
f 20/20/20 19/19/19 18/18/18
f 23/23/23 22/22/22 21/21/21
f 24/24/24 21/21/21 22/22/22
f 22/22/22 23/23/23 25/25/25
f 26/26/26 25/25/25 23/23/23
f 25/25/25 26/26/26 27/27/27
f 28/28/28 27/27/27 26/26/26
f 27/27/27 28/28/28 29/29/29
f 30/30/30 29/29/29 28/28/28
f 29/29/29 30/30/30 31/31/31
f 32/32/32 31/31/31 30/30/30
f 31/31/31 32/32/32 33/33/33
f 34/34/34 33/33/33 32/32/32
f 21/21/21 35/35/35 23/23/23
f 36/36/36 23/23/23 35/35/35
f 23/23/23 36/36/36 26/26/26
f 37/37/37 26/26/26 36/36/36
f 26/26/26 37/37/37 28/28/28
f 38/38/38 28/28/28 37/37/37
f 28/28/28 38/38/38 30/30/30
f 39/39/39 30/30/30 38/38/38
f 30/30/30 39/39/39 32/32/32
f 40/40/40 32/32/32 39/39/39
f 32/32/32 40/40/40 34/34/34
f 41/41/41 34/34/34 40/40/40
f 44/44/44 43/43/43 42/42/42
f 45/45/45 42/42/42 43/43/43
f 48/48/48 47/47/47 46/46/46
f 49/49/49 46/46/46 47/47/47
f 46/46/46 49/49/49 50/50/50
f 51/51/51 50/50/50 49/49/49
f 50/50/50 51/51/51 52/52/52
f 53/53/53 52/52/52 51/51/51
f 47/47/47 48/48/48 54/54/54
f 55/55/55 54/54/54 48/48/48
f 54/54/54 55/55/55 56/56/56
f 57/57/57 56/56/56 55/55/55
f 56/56/56 57/57/57 58/58/58
f 59/59/59 58/58/58 57/57/57
f 62/62/62 61/61/61 60/60/60
f 63/63/63 60/60/60 61/61/61
f 60/60/60 63/63/63 64/64/64
f 65/65/65 64/64/64 63/63/63
f 64/64/64 65/65/65 66/66/66
f 67/67/67 66/66/66 65/65/65
f 66/66/66 67/67/67 68/68/68
f 69/69/69 68/68/68 67/67/67
f 68/68/68 69/69/69 70/70/70
f 71/71/71 70/70/70 69/69/69
f 70/70/70 71/71/71 72/72/72
f 73/73/73 72/72/72 71/71/71
f 76/76/76 75/75/75 74/74/74
f 75/75/75 77/77/77 74/74/74
f 78/78/78 74/74/74 77/77/77
f 81/81/81 80/80/80 79/79/79
f 82/82/82 79/79/79 80/80/80
f 85/85/85 84/84/84 83/83/83
f 86/86/86 83/83/83 84/84/84
f 89/89/89 88/88/88 87/87/87
f 90/90/90 87/87/87 88/88/88
f 91/91/91 89/89/89 87/87/87
f 94/94/94 93/93/93 92/92/92
f 95/95/95 92/92/92 93/93/93
f 98/98/98 97/97/97 96/96/96
f 99/99/99 96/96/96 97/97/97
f 96/96/96 99/99/99 100/100/100
f 101/101/101 100/100/100 99/99/99
f 100/100/100 101/101/101 102/102/102
f 103/103/103 102/102/102 101/101/101
f 102/102/102 103/103/103 104/104/104
f 105/105/105 104/104/104 103/103/103
f 104/104/104 105/105/105 106/106/106
f 107/107/107 106/106/106 105/105/105
f 110/110/110 109/109/109 108/108/108
f 110/110/110 111/111/111 109/109/109
f 112/112/112 109/109/109 111/111/111
f 115/115/115 114/114/114 113/113/113
f 114/114/114 116/116/116 113/113/113
f 117/117/117 116/116/116 114/114/114
f 118/118/118 117/117/117 114/114/114
f 119/119/119 118/118/118 114/114/114
f 120/120/120 117/117/117 118/118/118
f 121/121/121 116/116/116 117/117/117
f 122/122/122 121/121/121 117/117/117
f 123/123/123 116/116/116 121/121/121
f 113/113/113 116/116/116 124/124/124
