g barrel_mk16_457mm_LOD1
v 5.749013E-05 -0.2997111 -0.00780595
v 0.002741793 -0.02707535 -0.007333837
v 5.748581E-05 -0.02707535 -0.007805944
v 0.002741797 -0.2997111 -0.007333843
v 0.005589273 -0.02707535 -0.005489354
v 0.005589277 -0.2997111 -0.005489359
v 0.00743778 -0.02707374 -0.002448583
v 0.007437764 -0.2997095 -0.002448588
v 0.007912099 -0.02707374 3.417432E-05
v 0.007912084 -0.2997095 3.416896E-05
v 0.007439401 -0.02707207 0.002715906
v 0.007439387 -0.2997078 0.002715901
v 0.005589273 -0.02707374 0.005560297
v 0.005589275 -0.2997095 0.005560292
v 0.002742594 -0.02707374 0.007406306
v 0.002742598 -0.2997095 0.007406299
v 5.749002E-05 -0.2997111 0.007879018
v 5.748581E-05 -0.02707535 0.007879023
v -0.002626797 -0.2997111 -0.007333841
v 5.748581E-05 -0.02707535 -0.007805944
v -0.002626821 -0.02707535 -0.007333837
v 5.749013E-05 -0.2997111 -0.00780595
v -0.005474302 -0.02707535 -0.005489354
v -0.005474278 -0.2997111 -0.005489362
v -0.007322828 -0.02707374 -0.002448583
v -0.007322808 -0.2997095 -0.002448588
v -0.007797109 -0.02707374 3.417432E-05
v -0.007797105 -0.2997095 3.416955E-05
v -0.007324449 -0.02707207 0.002715906
v -0.007324427 -0.2997078 0.002715901
v -0.005474302 -0.02707374 0.005560297
v -0.00547428 -0.2997095 0.005560291
v -0.002627641 -0.02707374 0.007406306
v -0.002627618 -0.2997095 0.007406301
v 5.748581E-05 -0.02707535 0.007879023
v 5.749002E-05 -0.2997111 0.007879018
vt 0.5957382 0.466761
vt 0.7000307 0.4708071
vt 0.7000307 0.466761
vt 0.5957382 0.4708071
vt 0.7000307 0.4758436
vt 0.5957382 0.4758436
vt 0.7000331 0.4811263
vt 0.5957406 0.4811263
vt 0.7000331 0.4848787
vt 0.5957406 0.4848787
vt 0.7000355 0.4889212
vt 0.5957431 0.4889212
vt 0.7000331 0.4939581
vt 0.5957406 0.4939582
vt 0.7000333 0.4989948
vt 0.5957407 0.4989948
vt 0.5957384 0.5030419
vt 0.7000309 0.5030419
vt 0.5957423 0.470813
vt 0.7000349 0.4667669
vt 0.7000349 0.470813
vt 0.5957423 0.4667669
vt 0.7000349 0.4758494
vt 0.5957423 0.4758495
vt 0.7000372 0.4811322
vt 0.5957447 0.4811322
vt 0.7000371 0.4848845
vt 0.5957446 0.4848845
vt 0.7000394 0.4889267
vt 0.595747 0.4889268
vt 0.7000371 0.4939635
vt 0.5957445 0.4939636
vt 0.7000369 0.4990001
vt 0.5957444 0.4990001
vt 0.7000344 0.5030472
vt 0.5957418 0.5030473
vn -8.283489E-07 0 -1
vn 0.3657579 0 -0.9307101
vn -2.512964E-07 0 -1
vn 0.3657582 0 -0.93071
vn 0.7171637 0 -0.6969048
vn 0.717118 0 -0.6969517
vn 0.9332408 0 -0.3592517
vn 0.9332226 0 -0.3592989
vn 0.9999747 0 -0.007112754
vn 0.9999743 0 -0.007184734
vn 0.9302914 0 0.3668212
vn 0.9302978 0 0.3668051
vn 0.7066408 0 0.7075725
vn 0.7065942 0 0.7076191
vn 0.3661073 0 0.9305726
vn 0.3660358 0 0.9306008
vn 7.419733E-07 0 1
vn 5.542872E-07 0 1
vn -0.3657582 0 -0.9307098
vn -2.512964E-07 0 -1
vn -0.3657582 0 -0.93071
vn -8.283489E-07 0 -1
vn -0.7171621 0 -0.6969064
vn -0.7171141 0 -0.6969557
vn -0.9332425 0 -0.3592469
vn -0.9332224 0 -0.3592993
vn -0.9999747 0 -0.007112272
vn -0.9999743 0 -0.007183731
vn -0.9302931 0 0.366817
vn -0.9302975 0 0.3668059
vn -0.7066402 0 0.7075731
vn -0.7065922 0 0.707621
vn -0.366109 0 0.9305719
vn -0.3660365 0 0.9306005
vn 5.542872E-07 0 1
vn 7.419733E-07 0 1
g barrel_mk16_457mm_LOD1_0
f 3/3/3 2/2/2 1/1/1
f 4/4/4 1/1/1 2/2/2
f 2/2/2 5/5/5 4/4/4
f 6/6/6 4/4/4 5/5/5
f 5/5/5 7/7/7 6/6/6
f 8/8/8 6/6/6 7/7/7
f 7/7/7 9/9/9 8/8/8
f 10/10/10 8/8/8 9/9/9
f 9/9/9 11/11/11 10/10/10
f 12/12/12 10/10/10 11/11/11
f 11/11/11 13/13/13 12/12/12
f 14/14/14 12/12/12 13/13/13
f 13/13/13 15/15/15 14/14/14
f 16/16/16 14/14/14 15/15/15
f 16/16/16 15/15/15 17/17/17
f 18/18/18 17/17/17 15/15/15
f 21/21/21 20/20/20 19/19/19
f 22/22/22 19/19/19 20/20/20
f 21/21/21 19/19/19 23/23/23
f 24/24/24 23/23/23 19/19/19
f 23/23/23 24/24/24 25/25/25
f 26/26/26 25/25/25 24/24/24
f 25/25/25 26/26/26 27/27/27
f 28/28/28 27/27/27 26/26/26
f 27/27/27 28/28/28 29/29/29
f 30/30/30 29/29/29 28/28/28
f 29/29/29 30/30/30 31/31/31
f 32/32/32 31/31/31 30/30/30
f 31/31/31 32/32/32 33/33/33
f 34/34/34 33/33/33 32/32/32
f 33/33/33 34/34/34 35/35/35
f 36/36/36 35/35/35 34/34/34
