g barrel_ar10_558mm_LOD1
v -0.00220735 -0.2403162 0.01457865
v -0.002689407 -0.2022844 0.01457866
v -0.0002060206 -0.2022844 0.01706204
v 0.0002760371 -0.2403162 0.01706204
v 0.0002760371 -0.2403162 0.01209526
v -0.0002060206 -0.2022844 0.01209527
v 0.002277366 -0.2022844 0.01457866
v 0.002759424 -0.2403162 0.01457865
v -0.0002060206 -0.2022844 0.01209527
v 0.0002760371 -0.2403162 0.01209526
v 0.008471279 -0.0372877 -0.008471285
v 0.009079468 0.01283443 -0.009079466
v 0 0.01283443 -0.0128403
v 0 -0.0372877 -0.0119802
v 0.01198019 -0.0372877 -6.074938E-09
v 0.01284031 0.01283443 2.090994E-09
v 0.008471279 -0.0372877 0.008471273
v 0.009079468 0.01283443 0.00907947
v 0 -0.0372877 0.01198019
v 0 0.01283443 0.01284031
v -0.008471279 -0.0372877 0.008471273
v -0.009079468 0.01283443 0.00907947
v -0.01198019 -0.0372877 -6.074938E-09
v -0.01284031 0.01283443 2.090994E-09
v -0.008471279 -0.0372877 -0.008471285
v -0.009079468 0.01283443 -0.009079466
v 0 -0.0372877 -0.0119802
v 0 0.01283443 -0.0128403
v 0 -0.05981843 -0.007570399
v -0.005353076 -0.05981843 -0.005353086
v -0.007570389 -0.05981843 -9.745659E-09
v -0.005353076 -0.05981843 0.005353067
v 0 -0.05981843 0.007570379
v 0.005353076 -0.05981843 0.005353067
v 0.007570389 -0.05981843 -9.745659E-09
v 0.005353076 -0.05981843 -0.005353086
v 0 -0.05981843 -0.007570399
v -0.009079468 0.01283443 -0.009079466
v 0 0.01283443 -0.0128403
v -0.01284031 0.01283443 2.090994E-09
v -0.009079468 0.01283443 0.00907947
v 0 0.01283443 0.01284031
v 0.009079468 0.01283443 0.00907947
v 0.01284031 0.01283443 2.090994E-09
v 0.009079468 0.01283443 -0.009079466
v 0.0108547 -0.01200282 0.0108547
v 0.0108547 -0.01565368 0.0108547
v 0.008522069 -0.01565368 0.01182091
v 0.008522069 -0.01200282 0.01182091
v 0.01535087 -0.01200282 -1.955507E-09
v 0.01535087 -0.01565368 -2.550308E-09
v 0.0108547 -0.01200282 -0.0108547
v 0.0108547 -0.01565368 -0.0108547
v 0 -0.01200282 -0.01535086
v 0 -0.01565368 -0.01535086
v 0 -0.01200282 0.01535085
v 0 -0.01565368 0.01535085
v -0.0108547 -0.01565368 0.0108547
v -0.0108547 -0.01200282 0.0108547
v -0.01535086 -0.01565368 -2.550308E-09
v -0.01535086 -0.01200282 -1.955507E-09
v -0.0108547 -0.01565368 -0.0108547
v -0.0108547 -0.01200282 -0.0108547
v 0 -0.01565368 -0.01535086
v 0 -0.01200282 -0.01535086
v 0 -0.01200282 0.01535085
v 0 -0.01200282 -1.955507E-09
v 0.0108547 -0.01200282 0.0108547
v 0.008522069 -0.01200282 0.01182091
v -0.0108547 -0.01200282 0.0108547
v -0.01535086 -0.01200282 -1.955507E-09
v -0.0108547 -0.01200282 -0.0108547
v 0 -0.01200282 -0.01535086
v 0.0108547 -0.01200282 -0.0108547
v 0.01535087 -0.01200282 -1.955507E-09
v 0.0108547 -0.01565368 0.0108547
v 0 -0.01565368 -2.550308E-09
v 0 -0.01565368 0.01535085
v 0.008522069 -0.01565368 0.01182091
v -0.0108547 -0.01565368 0.0108547
v -0.01535086 -0.01565368 -2.550308E-09
v -0.0108547 -0.01565368 -0.0108547
v 0 -0.01565368 -0.01535086
v 0.0108547 -0.01565368 -0.0108547
v 0.01535087 -0.01565368 -2.550308E-09
v 9.667283E-05 0.02653486 0.02288332
v 9.667283E-05 -0.03648271 0.02283117
v -0.002283888 -0.03648271 0.02045061
v -0.002336034 0.02653487 0.02045062
v 9.667283E-05 -0.03648271 0.01807005
v 9.667283E-05 0.02653487 0.01801791
v 0.00252938 0.02653487 0.02045062
v 0.002477234 -0.03648271 0.02045061
v 9.667283E-05 0.02653487 0.01801791
v 9.667283E-05 -0.03648271 0.01807005
v -0.001782095 -0.08172569 0.01370766
v 0.0004464661 -0.08172569 0.01593623
v 0.0004464661 -0.08172569 0.01147911
v 0.002675017 -0.08172569 0.01370766
v 0.0004464661 -0.08172569 0.01147911
v -0.002336034 0.02653487 0.02045062
v 9.667283E-05 0.02653487 0.02045062
v 9.667283E-05 0.02653486 0.02288332
v 9.667283E-05 0.02653487 0.01801791
v 0.00252938 0.02653487 0.02045062
v 0.004473876 -0.5262427 0.007748889
v 0.004473876 -0.535591 0.007748888
v -0.004473866 -0.535591 0.007748888
v -0.004473866 -0.5262427 0.007748889
v -0.008947742 -0.535591 -8.725885E-08
v -0.008947742 -0.5262427 -8.573583E-08
v -0.004473876 -0.535591 -0.007749062
v -0.004473876 -0.5262427 -0.007749061
v 0.004473876 -0.535591 -0.007749062
v 0.004473876 -0.5262427 -0.007749061
v 0.008947742 -0.5262427 -8.573583E-08
v 0.008947742 -0.535591 -8.725885E-08
v 0.004473876 -0.5262427 -0.007749061
v 0.004473876 -0.535591 -0.007749062
v 0.004473876 -0.535591 0.007748888
v 0.004473876 -0.535591 -0.007749062
v -0.004473866 -0.535591 0.007748888
v -0.008947742 -0.535591 -8.725885E-08
v -0.004473876 -0.535591 -0.007749062
v 0.008947742 -0.535591 -8.725885E-08
v 0.007051582 -0.2184012 0.007051547
v 0.007051582 -0.5262427 0.007051496
v 0 -0.5262427 0.009972354
v 0 -0.2184012 0.009972405
v -0.007051582 -0.5262427 0.007051496
v -0.007051582 -0.2184012 0.007051547
v -0.00997244 -0.5262427 -8.573583E-08
v -0.00997244 -0.2184012 -3.558207E-08
v -0.007051582 -0.5262427 -0.007051668
v -0.007051582 -0.2184012 -0.007051618
v 0 -0.5262427 -0.009972526
v 0 -0.2184012 -0.009972476
v 0.00997244 -0.2184012 -3.558207E-08
v 0.00997244 -0.5262427 -8.573583E-08
v 0.007051582 -0.2184012 -0.007051618
v 0.007051582 -0.5262427 -0.007051668
v 0 -0.2184012 -0.009972476
v 0 -0.5262427 -0.009972526
v 0.007051582 -0.5262427 0.007051496
v 0 -0.5262427 -8.573583E-08
v 0 -0.5262427 0.009972354
v -0.007051582 -0.5262427 0.007051496
v -0.00997244 -0.5262427 -8.573583E-08
v -0.007051582 -0.5262427 -0.007051668
v 0 -0.5262427 -0.009972526
v 0.007051582 -0.5262427 -0.007051668
v 0.00997244 -0.5262427 -8.573583E-08
v 0.005461926 -0.2021739 0.005461893
v 0.007051582 -0.2184012 0.007051547
v 0 -0.2184012 0.009972405
v 0 -0.2021739 0.00772429
v -0.007051582 -0.2184012 0.007051547
v -0.005461926 -0.2021739 0.005461893
v -0.00997244 -0.2184012 -3.558207E-08
v -0.007724323 -0.2021739 -3.293831E-08
v -0.007051582 -0.2184012 -0.007051618
v -0.005461926 -0.2021739 -0.005461959
v 0 -0.2184012 -0.009972476
v 0 -0.2021739 -0.007724356
v 0.007724323 -0.2021739 -3.293831E-08
v 0.00997244 -0.2184012 -3.558207E-08
v 0.005461926 -0.2021739 -0.005461959
v 0.007051582 -0.2184012 -0.007051618
v 0 -0.2021739 -0.007724356
v 0 -0.2184012 -0.009972476
v 0.01253349 -0.05969974 0.01253348
v 0.01253349 -0.2024632 0.01253346
v 0 -0.2024632 0.017725
v 0 -0.05969975 0.01772503
v -0.01253349 -0.2024632 0.01253346
v -0.01253349 -0.05969974 0.01253348
v -0.01772504 -0.2024632 -3.298545E-08
v -0.01772504 -0.05969974 -9.726323E-09
v -0.01253349 -0.2024632 -0.01253353
v -0.01253349 -0.05969974 -0.0125335
v 0 -0.2024632 -0.01772507
v 0 -0.05969974 -0.01772504
v 0.01772504 -0.05969974 -9.726323E-09
v 0.01772504 -0.2024632 -3.298545E-08
v 0.01253349 -0.05969974 -0.0125335
v 0.01253349 -0.2024632 -0.01253353
v 0 -0.05969974 -0.01772504
v 0 -0.2024632 -0.01772507
v 0 -0.05969975 0.01772503
v 0 -0.05969974 -9.726323E-09
v 0.01253349 -0.05969974 0.01253348
v -0.01253349 -0.05969974 0.01253348
v -0.01772504 -0.05969974 -9.726323E-09
v -0.01253349 -0.05969974 -0.0125335
v 0 -0.05969974 -0.01772504
v 0.01253349 -0.05969974 -0.0125335
v 0.01772504 -0.05969974 -9.726323E-09
v 0.01253349 -0.2024632 0.01253346
v 0 -0.2024632 -3.298545E-08
v 0 -0.2024632 0.017725
v -0.01253349 -0.2024632 0.01253346
v -0.01772504 -0.2024632 -3.298545E-08
v -0.01253349 -0.2024632 -0.01253353
v 0 -0.2024632 -0.01772507
v 0.01253349 -0.2024632 -0.01253353
v 0.01772504 -0.2024632 -3.298545E-08
vt 0.75133 0.731279
vt 0.75133 0.622659
vt 0.731272 0.622659
vt 0.731272 0.731279
vt 0.77139 0.731279
vt 0.77139 0.622659
vt 0.7112139 0.622659
vt 0.7112139 0.731279
vt 0.691154 0.622659
vt 0.691154 0.731279
vt 0.517489 0.030902
vt 0.803809 0.030902
vt 0.803809 0.007303999
vt 0.517489 0.007303999
vt 0.517489 0.05450199
vt 0.803809 0.05450199
vt 0.517489 0.078102
vt 0.803809 0.078102
vt 0.517489 0.1017
vt 0.803809 0.1017
vt 0.517489 0.125299
vt 0.803809 0.125299
vt 0.517489 0.148899
vt 0.803809 0.148899
vt 0.517489 0.172498
vt 0.803809 0.172498
vt 0.517489 0.196097
vt 0.803809 0.196097
vt 0.386363 0.196097
vt 0.386363 0.172498
vt 0.386363 0.148899
vt 0.386363 0.125299
vt 0.386363 0.1017
vt 0.386363 0.078102
vt 0.386363 0.05450199
vt 0.386363 0.030902
vt 0.386363 0.007303999
vt 0.496719 0.874002
vt 0.548577 0.8874925
vt 0.475239 0.8480731
vt 0.496719 0.8221431
vt 0.548577 0.811404
vt 0.600437 0.8221431
vt 0.621915 0.8480731
vt 0.600437 0.874002
vt 0.650295 0.7893921
vt 0.671145 0.7893921
vt 0.671145 0.782182
vt 0.650295 0.782182
vt 0.650295 0.8229449
vt 0.671145 0.8229449
vt 0.650295 0.8564981
vt 0.671145 0.8564981
vt 0.650295 0.8900509
vt 0.671145 0.8900509
vt 0.650295 0.7558389
vt 0.671145 0.7558389
vt 0.671145 0.722286
vt 0.650295 0.722286
vt 0.671145 0.6887341
vt 0.650295 0.6887341
vt 0.671145 0.655181
vt 0.650295 0.655181
vt 0.671145 0.621628
vt 0.650295 0.621628
vt 0.869351 0.10914
vt 0.900957 0.147293
vt 0.932567 0.10914
vt 0.918982 0.10914
vt 0.824651 0.131489
vt 0.82465 0.163096
vt 0.869349 0.185447
vt 0.932562 0.185447
vt 0.9772651 0.163098
vt 0.977263 0.131491
vt 0.863158 0.9246901
vt 0.801158 0.8936911
vt 0.801158 0.9375301
vt 0.849835 0.927449
vt 0.7391599 0.9246901
vt 0.71348 0.8936911
vt 0.7391599 0.862691
vt 0.801158 0.849851
vt 0.863158 0.862691
vt 0.888836 0.8936911
vt 0.415222 0.623275
vt 0.415222 0.8032411
vt 0.434182 0.8032411
vt 0.434182 0.623275
vt 0.453142 0.8032411
vt 0.453142 0.623275
vt 0.396264 0.623275
vt 0.396264 0.8032411
vt 0.377304 0.623275
vt 0.377304 0.8032411
vt 0.434182 0.9338651
vt 0.415222 0.9338651
vt 0.453142 0.9338651
vt 0.396264 0.9338651
vt 0.377304 0.9338651
vt 0.711787 0.7892051
vt 0.7256811 0.7892039
vt 0.725683 0.7822571
vt 0.725683 0.796151
vt 0.739575 0.7892051
vt 0.582058 0.74118
vt 0.63545 0.74118
vt 0.63545 0.715628
vt 0.582058 0.715628
vt 0.63545 0.690075
vt 0.582058 0.690075
vt 0.63545 0.664522
vt 0.582058 0.664522
vt 0.63545 0.638969
vt 0.582058 0.638969
vt 0.582058 0.766733
vt 0.63545 0.766733
vt 0.582058 0.792286
vt 0.63545 0.792286
vt 0.9268759 0.074343
vt 0.9236022 0.01857382
vt 0.865754 0.074343
vt 0.835192 0.04787701
vt 0.865754 0.021409
vt 0.957438 0.04787701
vt 0.138464 0.005975
vt 0.138464 0.8851109
vt 0.182058 0.8851109
vt 0.182058 0.005975
vt 0.225652 0.8851109
vt 0.225652 0.005975
vt 0.269246 0.8851109
vt 0.269246 0.005975
vt 0.31284 0.8851109
vt 0.31284 0.005975
vt 0.356434 0.8851109
vt 0.356434 0.005975
vt 0.09487 0.005975
vt 0.09487 0.8851109
vt 0.05127599 0.005975
vt 0.05127599 0.8851109
vt 0.00768 0.005975
vt 0.00768 0.8851109
vt 0.277942 0.9474359
vt 0.237664 0.9272981
vt 0.237664 0.955777
vt 0.197388 0.9474359
vt 0.180706 0.9272981
vt 0.197388 0.9071589
vt 0.237664 0.8988181
vt 0.277942 0.9071589
vt 0.294624 0.9272981
vt 0.471565 0.7191549
vt 0.565133 0.7191549
vt 0.565133 0.6998149
vt 0.471565 0.6998149
vt 0.565133 0.6804751
vt 0.471565 0.6804751
vt 0.565133 0.661135
vt 0.471565 0.661135
vt 0.565133 0.641795
vt 0.471565 0.641795
vt 0.565133 0.6224549
vt 0.471565 0.6224549
vt 0.471565 0.7384949
vt 0.565133 0.7384949
vt 0.471565 0.757835
vt 0.565133 0.757835
vt 0.471565 0.777176
vt 0.565133 0.777176
vt 0.607776 0.214295
vt 0.607776 0.600537
vt 0.681181 0.600537
vt 0.681181 0.214295
vt 0.754585 0.600537
vt 0.754585 0.214295
vt 0.827992 0.600537
vt 0.827992 0.214295
vt 0.901397 0.600537
vt 0.901397 0.214295
vt 0.974804 0.600537
vt 0.974804 0.214295
vt 0.534371 0.214295
vt 0.534371 0.600537
vt 0.460966 0.214295
vt 0.460966 0.600537
vt 0.387559 0.214295
vt 0.387559 0.600537
vt 0.868971 0.7324961
vt 0.868971 0.783115
vt 0.940559 0.7473221
vt 0.7973831 0.7473221
vt 0.767731 0.783115
vt 0.7973831 0.818909
vt 0.868971 0.833735
vt 0.940559 0.818909
vt 0.970211 0.783115
vt 0.958547 0.7064429
vt 0.886961 0.6706501
vt 0.886961 0.721269
vt 0.815373 0.7064429
vt 0.7857211 0.6706501
vt 0.815373 0.634856
vt 0.886961 0.62003
vt 0.958547 0.634856
vt 0.988201 0.6706501
vn -0.9999197 -0.0126741 0
vn -0.9999197 -0.01267409 0
vn -0.005705322 -7.247074E-05 0.9999838
vn 0.005705375 7.216131E-05 0.9999838
vn -0.7070783 -0.008962186 -0.7070784
vn -0.7070783 -0.008962187 -0.7070785
vn 0.9999197 0.0126741 0
vn 0.9999197 0.01267409 -1.079376E-07
vn 0.7070783 0.00896241 -0.7070783
vn 0.7070783 0.00896241 -0.7070783
vn 0.7033566 -0.1028546 -0.7033566
vn 0.7070027 -0.01715768 -0.7070027
vn 0 -0.01715762 -0.9998528
vn 0 -0.1028546 -0.9946964
vn 0.9946964 -0.1028547 0
vn 0.9998528 -0.01715779 0
vn 0.7033566 -0.1028549 0.7033566
vn 0.7070028 -0.01715791 0.7070026
vn 0 -0.1028549 0.9946964
vn 0 -0.01715796 0.9998528
vn -0.7033566 -0.1028549 0.7033566
vn -0.7070027 -0.01715791 0.7070027
vn -0.9946964 -0.1028547 0
vn -0.9998528 -0.01715779 0
vn -0.7033566 -0.1028546 -0.7033566
vn -0.7070028 -0.01715768 -0.7070026
vn 0 -0.1028546 -0.9946964
vn 0 -0.01715762 -0.9998528
vn 0 -0.1920792 -0.9813794
vn -0.6939399 -0.1920794 -0.6939401
vn -0.9813794 -0.1920794 0
vn -0.69394 -0.1920796 0.69394
vn 0 -0.1920796 0.9813794
vn 0.6939401 -0.1920796 0.6939399
vn 0.9813794 -0.1920794 0
vn 0.6939399 -0.1920794 -0.6939401
vn 0 -0.1920792 -0.9813794
vn 0 1 0
vn 0 1 1.419147E-07
vn 0 1 1.381602E-07
vn 0 1 1.728613E-07
vn 0 1 1.856798E-07
vn 0 1 1.728613E-07
vn 0 1 1.381602E-07
vn 0 1 0
vn 0.707107 0 0.7071065
vn 0.7071069 0 0.7071066
vn 0.3826832 0 0.9238796
vn 0.3826832 0 0.9238796
vn 1 0 0
vn 1 0 0
vn 0.7071065 0 -0.7071071
vn 0.7071065 0 -0.707107
vn 0 0 -1
vn 0 0 -1
vn -2.258954E-07 0 1
vn -2.053595E-07 0 1
vn -0.7071068 0 0.7071068
vn -0.7071068 0 0.7071068
vn -1 0 0
vn -1 0 0
vn -0.7071068 0 -0.7071068
vn -0.7071068 0 -0.7071068
vn 0 0 -1
vn 0 0 -1
vn 0 1 1.857971E-07
vn 0 1 1.401888E-07
vn 0 1 1.63052E-07
vn 0 1 2.162812E-07
vn 0 1 1.325678E-07
vn 0 1 1.098227E-07
vn 0 1 1.325678E-07
vn 0 1 1.553129E-07
vn 0 1 1.325678E-07
vn 0 1 1.098227E-07
vn 0 -1 -1.63052E-07
vn 0 -1 -1.401888E-07
vn 0 -1 -1.857971E-07
vn 0 -1 -2.162812E-07
vn 0 -1 -1.325678E-07
vn 0 -1 -1.098227E-07
vn 0 -1 -1.325678E-07
vn 0 -1 -1.553129E-07
vn 0 -1 -1.325678E-07
vn 0 -1 -1.098227E-07
vn 0 -0.000827621 0.9999996
vn -0.001500851 -0.07352643 0.9972921
vn -0.9994035 -0.01081561 0.0327967
vn -0.9999996 -0.0008274703 0
vn -0.706225 0.04991587 -0.7062257
vn -0.7071068 -0.0005850031 -0.7071065
vn 0.9999996 -0.0008274691 0
vn 0.9994419 -0.003189579 0.0332504
vn 0.7071068 -0.0005850022 -0.7071065
vn 0.706024 0.05531971 -0.7060239
vn -0.9977649 -0.001108666 -0.06681299
vn 0.003779472 -0.150629 0.9885831
vn -0.7037659 0.09708276 -0.7037674
vn 0.9977093 0.01421851 -0.06613672
vn 0.7029827 0.1078446 -0.7029827
vn 0 1 4.900274E-07
vn 0 1 4.900274E-07
vn 0 1 9.80055E-07
vn 0 1 0
vn 0 1 4.900274E-07
vn 0.5000003 -1.096223E-07 0.8660253
vn 0.5000003 -1.096223E-07 0.8660253
vn -0.4999999 -1.096223E-07 0.8660255
vn -0.4999999 -1.096223E-07 0.8660255
vn -1 0 3.943412E-07
vn -1 0 5.257882E-07
vn -0.5000003 1.096223E-07 -0.8660253
vn -0.5000003 1.096223E-07 -0.8660253
vn 0.5000003 1.096223E-07 -0.8660253
vn 0.5000003 1.096223E-07 -0.8660253
vn 1 0 0
vn 1 0 0
vn 0.5000003 1.096223E-07 -0.8660253
vn 0.5000003 1.096223E-07 -0.8660253
vn 0 -1 0
vn 0 -1 0
vn 0 -1 0
vn 0 -1 0
vn 0 -1 0
vn 0 -1 0
vn 0.7071068 -1.151084E-07 0.7071068
vn 0.7071068 -1.151084E-07 0.7071066
vn 0 -1.626877E-07 1
vn 0 -1.626877E-07 1
vn -0.7071068 -1.151084E-07 0.7071066
vn -0.7071068 -1.151084E-07 0.7071068
vn -1 0 0
vn -1 0 0
vn -0.7071068 1.150655E-07 -0.7071068
vn -0.7071068 1.150655E-07 -0.7071066
vn 0 1.626877E-07 -1
vn 0 1.626877E-07 -1
vn 1 0 0
vn 1 0 0
vn 0.7071068 1.150655E-07 -0.7071066
vn 0.7071068 1.150655E-07 -0.7071068
vn 0 1.626877E-07 -1
vn 0 1.626877E-07 -1
vn 0 -1 0
vn 0 -1 0
vn 0 -1 0
vn 0 -1 0
vn 0 -1 0
vn 0 -1 0
vn 0 -1 0
vn 0 -1 0
vn 0 -1 0
vn 0.7004171 0.1372285 0.7004172
vn 0.7004172 0.1372285 0.7004171
vn 0 0.1372284 0.9905394
vn 0 0.1372284 0.9905394
vn -0.7004172 0.1372285 0.700417
vn -0.7004171 0.1372285 0.7004172
vn -0.9905394 0.1372285 0
vn -0.9905394 0.1372286 0
vn -0.7004171 0.1372287 -0.7004172
vn -0.7004171 0.1372287 -0.7004171
vn 0 0.1372287 -0.9905394
vn 0 0.1372287 -0.9905394
vn 0.9905394 0.1372286 0
vn 0.9905394 0.1372285 0
vn 0.7004171 0.1372287 -0.7004171
vn 0.7004171 0.1372287 -0.7004171
vn 0 0.1372287 -0.9905394
vn 0 0.1372287 -0.9905394
vn 0.7071068 -1.170057E-07 0.7071068
vn 0.7071068 -1.170057E-07 0.7071068
vn 0 -1.665562E-07 1
vn 0 -1.665562E-07 1
vn -0.7071068 -1.170057E-07 0.7071068
vn -0.7071068 -1.170057E-07 0.7071068
vn -1 0 0
vn -1 0 0
vn -0.7071068 1.170057E-07 -0.7071068
vn -0.7071068 1.170057E-07 -0.7071068
vn 0 1.665562E-07 -1
vn 0 1.665562E-07 -1
vn 1 0 0
vn 1 0 0
vn 0.7071068 1.170057E-07 -0.7071068
vn 0.7071068 1.170057E-07 -0.7071068
vn 0 1.665562E-07 -1
vn 0 1.665562E-07 -1
vn 0 1 2.69019E-07
vn 0 1 1.345095E-07
vn -1.345095E-07 1 1.345095E-07
vn 1.345095E-07 1 1.345095E-07
vn 0 1 0
vn -1.345095E-07 1 1.345095E-07
vn 0 1 2.69019E-07
vn 1.345095E-07 1 1.345095E-07
vn 0 1 0
vn 0 -1 0
vn 0 -1 0
vn 0 -1 0
vn 0 -1 0
vn 0 -1 0
vn 0 -1 0
vn 0 -1 0
vn 0 -1 0
vn 0 -1 0
g barrel_ar10_558mm_LOD1_0
f 3/3/3 2/2/2 1/1/1
f 4/4/4 3/3/3 1/1/1
f 1/1/1 2/2/2 5/5/5
f 2/2/2 6/6/6 5/5/5
f 7/7/7 3/3/3 4/4/4
f 8/8/8 7/7/7 4/4/4
f 9/9/9 7/7/7 8/8/8
f 10/10/10 9/9/9 8/8/8
f 13/13/13 12/12/12 11/11/11
f 14/14/14 13/13/13 11/11/11
f 11/11/11 12/12/12 15/15/15
f 12/12/12 16/16/16 15/15/15
f 15/15/15 16/16/16 17/17/17
f 16/16/16 18/18/18 17/17/17
f 17/17/17 18/18/18 19/19/19
f 18/18/18 20/20/20 19/19/19
f 19/19/19 20/20/20 21/21/21
f 20/20/20 22/22/22 21/21/21
f 21/21/21 22/22/22 23/23/23
f 22/22/22 24/24/24 23/23/23
f 23/23/23 24/24/24 25/25/25
f 24/24/24 26/26/26 25/25/25
f 25/25/25 26/26/26 27/27/27
f 26/26/26 28/28/28 27/27/27
f 25/25/25 27/27/27 29/29/29
f 30/30/30 25/25/25 29/29/29
f 23/23/23 25/25/25 30/30/30
f 31/31/31 23/23/23 30/30/30
f 21/21/21 23/23/23 31/31/31
f 32/32/32 21/21/21 31/31/31
f 19/19/19 21/21/21 32/32/32
f 33/33/33 19/19/19 32/32/32
f 17/17/17 19/19/19 33/33/33
f 34/34/34 17/17/17 33/33/33
f 15/15/15 17/17/17 34/34/34
f 35/35/35 15/15/15 34/34/34
f 11/11/11 15/15/15 35/35/35
f 36/36/36 11/11/11 35/35/35
f 14/14/14 11/11/11 36/36/36
f 37/37/37 14/14/14 36/36/36
f 40/40/40 39/39/39 38/38/38
f 41/41/41 39/39/39 40/40/40
f 42/42/42 39/39/39 41/41/41
f 43/43/43 39/39/39 42/42/42
f 44/44/44 39/39/39 43/43/43
f 45/45/45 39/39/39 44/44/44
f 48/48/48 47/47/47 46/46/46
f 49/49/49 48/48/48 46/46/46
f 46/46/46 47/47/47 50/50/50
f 47/47/47 51/51/51 50/50/50
f 50/50/50 51/51/51 52/52/52
f 51/51/51 53/53/53 52/52/52
f 52/52/52 53/53/53 54/54/54
f 53/53/53 55/55/55 54/54/54
f 49/49/49 56/56/56 48/48/48
f 56/56/56 57/57/57 48/48/48
f 58/58/58 57/57/57 56/56/56
f 59/59/59 58/58/58 56/56/56
f 60/60/60 58/58/58 59/59/59
f 61/61/61 60/60/60 59/59/59
f 62/62/62 60/60/60 61/61/61
f 63/63/63 62/62/62 61/61/61
f 64/64/64 62/62/62 63/63/63
f 65/65/65 64/64/64 63/63/63
f 68/68/68 67/67/67 66/66/66
f 69/69/69 68/68/68 66/66/66
f 66/66/66 67/67/67 70/70/70
f 70/70/70 67/67/67 71/71/71
f 71/71/71 67/67/67 72/72/72
f 72/72/72 67/67/67 73/73/73
f 73/73/73 67/67/67 74/74/74
f 74/74/74 67/67/67 75/75/75
f 75/75/75 67/67/67 68/68/68
f 78/78/78 77/77/77 76/76/76
f 79/79/79 78/78/78 76/76/76
f 80/80/80 77/77/77 78/78/78
f 81/81/81 77/77/77 80/80/80
f 82/82/82 77/77/77 81/81/81
f 83/83/83 77/77/77 82/82/82
f 84/84/84 77/77/77 83/83/83
f 85/85/85 77/77/77 84/84/84
f 76/76/76 77/77/77 85/85/85
f 88/88/88 87/87/87 86/86/86
f 89/89/89 88/88/88 86/86/86
f 90/90/90 88/88/88 89/89/89
f 91/91/91 90/90/90 89/89/89
f 86/86/86 87/87/87 92/92/92
f 87/87/87 93/93/93 92/92/92
f 92/92/92 93/93/93 94/94/94
f 93/93/93 95/95/95 94/94/94
f 88/88/88 96/96/96 87/87/87
f 96/96/96 97/97/97 87/87/87
f 87/87/87 97/97/97 93/93/93
f 98/98/98 96/96/96 88/88/88
f 90/90/90 98/98/98 88/88/88
f 93/93/93 99/99/99 95/95/95
f 97/97/97 99/99/99 93/93/93
f 99/99/99 100/100/100 95/95/95
f 103/103/103 102/102/102 101/101/101
f 101/101/101 102/102/102 104/104/104
f 104/104/104 102/102/102 105/105/105
f 105/105/105 102/102/102 103/103/103
f 108/108/108 107/107/107 106/106/106
f 109/109/109 108/108/108 106/106/106
f 110/110/110 108/108/108 109/109/109
f 111/111/111 110/110/110 109/109/109
f 112/112/112 110/110/110 111/111/111
f 113/113/113 112/112/112 111/111/111
f 114/114/114 112/112/112 113/113/113
f 115/115/115 114/114/114 113/113/113
f 106/106/106 107/107/107 116/116/116
f 107/107/107 117/117/117 116/116/116
f 116/116/116 117/117/117 118/118/118
f 117/117/117 119/119/119 118/118/118
f 122/122/122 121/121/121 120/120/120
f 123/123/123 121/121/121 122/122/122
f 124/124/124 121/121/121 123/123/123
f 120/120/120 121/121/121 125/125/125
f 128/128/128 127/127/127 126/126/126
f 129/129/129 128/128/128 126/126/126
f 130/130/130 128/128/128 129/129/129
f 131/131/131 130/130/130 129/129/129
f 132/132/132 130/130/130 131/131/131
f 133/133/133 132/132/132 131/131/131
f 134/134/134 132/132/132 133/133/133
f 135/135/135 134/134/134 133/133/133
f 136/136/136 134/134/134 135/135/135
f 137/137/137 136/136/136 135/135/135
f 126/126/126 127/127/127 138/138/138
f 127/127/127 139/139/139 138/138/138
f 138/138/138 139/139/139 140/140/140
f 139/139/139 141/141/141 140/140/140
f 140/140/140 141/141/141 142/142/142
f 141/141/141 143/143/143 142/142/142
f 146/146/146 145/145/145 144/144/144
f 147/147/147 145/145/145 146/146/146
f 148/148/148 145/145/145 147/147/147
f 149/149/149 145/145/145 148/148/148
f 150/150/150 145/145/145 149/149/149
f 151/151/151 145/145/145 150/150/150
f 152/152/152 145/145/145 151/151/151
f 144/144/144 145/145/145 152/152/152
f 155/155/155 154/154/154 153/153/153
f 156/156/156 155/155/155 153/153/153
f 157/157/157 155/155/155 156/156/156
f 158/158/158 157/157/157 156/156/156
f 159/159/159 157/157/157 158/158/158
f 160/160/160 159/159/159 158/158/158
f 161/161/161 159/159/159 160/160/160
f 162/162/162 161/161/161 160/160/160
f 163/163/163 161/161/161 162/162/162
f 164/164/164 163/163/163 162/162/162
f 153/153/153 154/154/154 165/165/165
f 154/154/154 166/166/166 165/165/165
f 165/165/165 166/166/166 167/167/167
f 166/166/166 168/168/168 167/167/167
f 167/167/167 168/168/168 169/169/169
f 168/168/168 170/170/170 169/169/169
f 173/173/173 172/172/172 171/171/171
f 174/174/174 173/173/173 171/171/171
f 175/175/175 173/173/173 174/174/174
f 176/176/176 175/175/175 174/174/174
f 177/177/177 175/175/175 176/176/176
f 178/178/178 177/177/177 176/176/176
f 179/179/179 177/177/177 178/178/178
f 180/180/180 179/179/179 178/178/178
f 181/181/181 179/179/179 180/180/180
f 182/182/182 181/181/181 180/180/180
f 171/171/171 172/172/172 183/183/183
f 172/172/172 184/184/184 183/183/183
f 183/183/183 184/184/184 185/185/185
f 184/184/184 186/186/186 185/185/185
f 185/185/185 186/186/186 187/187/187
f 186/186/186 188/188/188 187/187/187
f 191/191/191 190/190/190 189/189/189
f 189/189/189 190/190/190 192/192/192
f 192/192/192 190/190/190 193/193/193
f 193/193/193 190/190/190 194/194/194
f 194/194/194 190/190/190 195/195/195
f 195/195/195 190/190/190 196/196/196
f 196/196/196 190/190/190 197/197/197
f 197/197/197 190/190/190 191/191/191
f 200/200/200 199/199/199 198/198/198
f 201/201/201 199/199/199 200/200/200
f 202/202/202 199/199/199 201/201/201
f 203/203/203 199/199/199 202/202/202
f 204/204/204 199/199/199 203/203/203
f 205/205/205 199/199/199 204/204/204
f 206/206/206 199/199/199 205/205/205
f 198/198/198 199/199/199 206/206/206
