g barrel_mosin_izhmash_mosin_sawn_off_200mm_LOD1
v 0.006986339 -0.2016897 -0.006904223
v 0.0100874 -0.07800819 5.893469E-05
v 0.007139599 -0.07800818 -0.007057564
v 0.009870538 -0.2016897 5.887508E-05
v 2.323866E-05 -0.2016897 -0.009788425
v 2.320051E-05 -0.07800819 -0.01000526
v 0.007139599 -0.07800819 0.007175336
v 0.006986339 -0.2016897 0.00702198
v 2.320051E-05 -0.0780082 0.01012303
v 2.323866E-05 -0.2016897 0.009906177
v -0.0070932 -0.0780082 0.007175336
v -0.006939861 -0.2016897 0.00702198
v -0.009824061 -0.2016897 5.887508E-05
v -0.010041 -0.0780082 5.893469E-05
v -0.0070932 -0.07800819 -0.007057564
v -0.006939861 -0.2016897 -0.006904223
v 2.320051E-05 -0.07800819 -0.01000526
v 2.323866E-05 -0.2016897 -0.009788425
v -0.009824061 -0.2016897 5.887508E-05
v 0.006986339 -0.2016897 -0.006904223
v -0.006939861 -0.2016897 -0.006904223
v 2.323866E-05 -0.2016897 -0.009788425
v 0.009870538 -0.2016897 5.887508E-05
v -0.006939861 -0.2016897 0.00702198
v 0.006986339 -0.2016897 0.00702198
v 2.323866E-05 -0.2016897 0.009906177
v 2.318382E-05 -0.023876 0.01586136
v 2.319813E-05 -0.0693624 0.01451814
v -0.01115081 -0.023876 0.01123296
v -0.01020101 -0.0693624 0.01028314
v -0.01577931 -0.023876 5.896091E-05
v -0.01443611 -0.0693624 5.893945E-05
v 0.0102474 -0.06936239 0.01028314
v 0.01119718 -0.023876 0.01123296
v -0.01115081 -0.02387598 -0.01111514
v -0.01020101 -0.06936239 -0.01016536
v 2.318382E-05 -0.02387598 -0.01574354
v 2.319813E-05 -0.06936239 -0.01440036
v 0.0144825 -0.06936239 5.893945E-05
v 0.01582568 -0.02387599 5.896091E-05
v 0.0102474 -0.06936239 -0.01016536
v 0.01119718 -0.02387598 -0.01111514
v 2.319813E-05 -0.06936239 -0.01440036
v 2.318382E-05 -0.02387598 -0.01574354
v -0.01443611 -0.0693624 5.893945E-05
v -0.010041 -0.0780082 5.893469E-05
v -0.01020101 -0.06936239 -0.01016536
v -0.0070932 -0.07800819 -0.007057564
v -0.0070932 -0.0780082 0.007175336
v -0.01020101 -0.0693624 0.01028314
v 2.320051E-05 -0.0780082 0.01012303
v 2.319813E-05 -0.0693624 0.01451814
v 0.007139599 -0.07800819 0.007175336
v 0.0102474 -0.06936239 0.01028314
v 0.0100874 -0.07800819 5.893469E-05
v 0.0144825 -0.06936239 5.893945E-05
v 0.007139599 -0.07800818 -0.007057564
v 0.0102474 -0.06936239 -0.01016536
v 2.319813E-05 -0.06936239 -0.01440036
v 2.320051E-05 -0.07800819 -0.01000526
v 2.320051E-05 -0.07800819 -0.01000526
v 2.319813E-05 -0.06936239 -0.01440036
v 0.01582568 -0.02387599 5.896091E-05
v 0.01227008 -0.02387599 5.896091E-05
v 0.01119718 -0.02387598 -0.01111514
v 0.008683083 -0.02387599 -0.008600938
v 0.01119718 -0.023876 0.01123296
v 0.008683083 -0.02387599 0.008718758
v 2.318382E-05 -0.023876 0.01586136
v 2.318382E-05 -0.023876 0.01230586
v -0.008636713 -0.02387599 0.008718758
v -0.01115081 -0.023876 0.01123296
v -0.01577931 -0.023876 5.896091E-05
v -0.01222372 -0.02387599 5.896091E-05
v -0.008636713 -0.02387599 -0.008600938
v -0.01115081 -0.02387598 -0.01111514
v 2.318382E-05 -0.02387598 -0.01574354
v 2.318382E-05 -0.02387598 -0.01218794
v 2.318382E-05 -0.02387598 -0.01218794
v 2.318382E-05 -0.02387598 -0.01574354
v -0.008636713 -0.02387599 -0.008600938
v -0.008636722 -0.001919098 -0.008600929
v -0.01222372 -0.02387599 5.896091E-05
v -0.01222373 -0.001919098 5.897045E-05
v 2.318382E-05 -0.02387598 -0.01218794
v 2.317667E-05 -0.0006540871 -0.01218793
v -0.008636713 -0.02387599 0.008718758
v -0.008636722 -0.001919098 0.008718772
v 2.318382E-05 -0.023876 0.01230586
v 2.317667E-05 -0.0004771042 0.01230587
v 0.008683083 -0.02387599 0.008718758
v 0.008683076 -0.0001140976 0.008718772
v 0.01227008 -0.02387599 5.896091E-05
v 0.01227008 -0.0001140976 5.897045E-05
v 0.008683083 -0.02387599 -0.008600938
v 0.008683076 -0.0001140976 -0.008600929
v 2.317667E-05 -0.0006540871 -0.01218793
v 2.318382E-05 -0.02387598 -0.01218794
v -0.01222373 -0.001919098 5.897045E-05
v 0.008683076 -0.0001140976 -0.008600929
v -0.008636722 -0.001919098 0.008718772
v 0.01227008 -0.0001140976 5.897045E-05
v 2.317667E-05 -0.0004771042 0.01230587
v 0.008683076 -0.0001140976 0.008718772
v -0.008636722 -0.001919098 -0.008600929
v 2.317667E-05 -0.0006540871 -0.01218793
vt 0.385761 0.025
vt 0.333327 0.850106
vt 0.384713 0.850106
vt 0.334225 0.025
vt 0.436098 0.025
vt 0.436098 0.850106
vt 0.28194 0.850106
vt 0.282689 0.025
vt 0.230553 0.850106
vt 0.231152 0.025
vt 0.179165 0.850106
vt 0.179614 0.025
vt 0.128076 0.025
vt 0.127777 0.850106
vt 0.0763885 0.850106
vt 0.0765381 0.025
vt 0.025 0.850106
vt 0.025 0.025
vt 0.722807 0.920337
vt 0.808067 0.832987
vt 0.722807 0.869168
vt 0.758123 0.832987
vt 0.843383 0.869169
vt 0.758123 0.956519
vt 0.843383 0.920337
vt 0.808067 0.956519
vt 0.46572 0.318256
vt 0.895809 0.318256
vt 0.46572 0.244942
vt 0.895809 0.244942
vt 0.46572 0.171628
vt 0.895809 0.171628
vt 0.895809 0.39157
vt 0.46572 0.39157
vt 0.46572 0.0983141
vt 0.895809 0.0983141
vt 0.46572 0.025
vt 0.895809 0.025
vt 0.895809 0.464884
vt 0.46572 0.464884
vt 0.895809 0.538199
vt 0.46572 0.538199
vt 0.895809 0.611513
vt 0.46572 0.611513
vt 0.39176 0.881955
vt 0.39176 0.947933
vt 0.452886 0.881955
vt 0.452886 0.947933
vt 0.330633 0.947933
vt 0.330633 0.881955
vt 0.269506 0.947933
vt 0.269506 0.881955
vt 0.20838 0.947933
vt 0.20838 0.881955
vt 0.147253 0.947933
vt 0.147253 0.881955
vt 0.0861267 0.947933
vt 0.0861267 0.881955
vt 0.514013 0.881955
vt 0.514013 0.947933
vt 0.025 0.947933
vt 0.025 0.881955
vt 0.968561 0.437905
vt 0.937902 0.437905
vt 0.968561 0.506722
vt 0.937902 0.506722
vt 0.968561 0.369087
vt 0.937902 0.369087
vt 0.968561 0.30027
vt 0.937902 0.30027
vt 0.937902 0.231453
vt 0.968561 0.231453
vt 0.968561 0.162635
vt 0.937902 0.162635
vt 0.937902 0.0938174
vt 0.968561 0.0938174
vt 0.968561 0.57554
vt 0.937902 0.57554
vt 0.937902 0.025
vt 0.968561 0.025
vt 0.529569 0.637111
vt 0.529569 0.789303
vt 0.59313 0.637111
vt 0.59313 0.789303
vt 0.46572 0.637111
vt 0.46572 0.789303
vt 0.65669 0.637111
vt 0.65669 0.789303
vt 0.720625 0.637111
vt 0.720625 0.789303
vt 0.784209 0.637111
vt 0.784209 0.789303
vt 0.84777 0.637111
vt 0.84777 0.789303
vt 0.91133 0.637111
vt 0.91133 0.789303
vt 0.974944 0.789303
vt 0.974944 0.637111
vt 0.583285 0.975
vt 0.689322 0.865675
vt 0.539225 0.930144
vt 0.645262 0.820819
vt 0.539173 0.865757
vt 0.583147 0.820744
vt 0.645401 0.975
vt 0.689548 0.929418
vn 0.7071058 -0.00175312 -0.7071056
vn 0.9999985 -0.00175315 2.48592E-06
vn 0.7071033 -0.001752887 -0.707108
vn 0.9999985 -0.001752976 0
vn -1.436902E-07 -0.001753205 -0.9999985
vn 1.643578E-07 -0.001753209 -0.9999985
vn 0.7071013 -0.001753362 0.70711
vn 0.7071059 -0.001752978 0.7071055
vn 1.027235E-07 -0.001753331 0.9999985
vn 0 -0.001753334 0.9999985
vn -0.7071015 -0.001753809 0.7071098
vn -0.7071056 -0.001753418 0.7071056
vn -0.9999985 -0.001753379 -1.026358E-07
vn -0.9999985 -0.001753995 2.424285E-06
vn -0.7071031 -0.001753556 -0.7071083
vn -0.707106 -0.001753333 -0.7071053
vn 1.643578E-07 -0.001753209 -0.9999985
vn -1.436902E-07 -0.001753205 -0.9999985
vn 0 -1 0
vn 0 -1 -5.510899E-07
vn 0 -1 -5.510899E-07
vn 0 -1 -3.306545E-06
vn 0 -1 0
vn 0 -1 0
vn 0 -1 0
vn 0 -1 0
vn 0 -0.02951737 0.9995642
vn 2.038803E-07 -0.02951736 0.9995642
vn -0.706796 -0.02951751 0.7068014
vn -0.7067959 -0.0295174 0.7068016
vn -0.9995642 -0.02951722 1.654673E-06
vn -0.9995642 -0.02951722 1.875703E-06
vn 0.7067957 -0.02951714 0.7068017
vn 0.7067959 -0.02951709 0.7068014
vn -0.7067968 -0.02951684 -0.7068006
vn -0.7067969 -0.02951688 -0.7068005
vn -2.404441E-07 -0.02951648 -0.9995642
vn 0 -0.02951651 -0.9995642
vn 0.9995642 -0.02951677 1.529106E-06
vn 0.9995642 -0.02951673 1.261688E-06
vn 0.7067972 -0.02951649 -0.7068003
vn 0.7067971 -0.02951653 -0.7068003
vn 0 -0.02951651 -0.9995642
vn -2.404441E-07 -0.02951648 -0.9995642
vn -0.8914291 -0.4531602 1.592442E-06
vn -0.8914292 -0.45316 2.530466E-06
vn -0.6303345 -0.4531584 -0.6303379
vn -0.6303335 -0.4531588 -0.6303385
vn -0.6303324 -0.4531587 0.6303399
vn -0.6303334 -0.4531595 0.6303383
vn -1.092287E-07 -0.4531596 0.8914294
vn 0 -0.4531596 0.8914294
vn 0.6303321 -0.453159 0.6303399
vn 0.6303338 -0.4531582 0.6303388
vn 0.8914295 -0.4531594 1.356257E-06
vn 0.8914297 -0.4531591 9.440905E-07
vn 0.6303341 -0.4531578 -0.6303386
vn 0.6303348 -0.4531583 -0.6303377
vn 3.639852E-07 -0.4531586 -0.89143
vn 4.460171E-07 -0.4531585 -0.89143
vn 4.460171E-07 -0.4531585 -0.89143
vn 3.639852E-07 -0.4531586 -0.89143
vn 0 1 8.534726E-07
vn 0 1 8.92425E-07
vn -1.558537E-06 1 1.864155E-06
vn -1.729329E-06 1 1.693754E-06
vn 1.558532E-06 1 1.864158E-06
vn 1.729331E-06 1 1.693763E-06
vn 0 1 6.761352E-07
vn 0 1 0
vn -1.72932E-06 1 1.693768E-06
vn -1.896601E-06 1 1.896626E-06
vn -2.158186E-06 1 4.321981E-07
vn -2.682177E-06 1 0
vn 5.893463E-07 1 2.63012E-06
vn 8.618554E-07 1 2.45323E-06
vn 2.717923E-07 1 3.380672E-07
vn 5.757552E-07 1 2.617313E-07
vn 5.757552E-07 1 2.617313E-07
vn 2.717923E-07 1 3.380672E-07
vn -0.7071066 0 -0.7071068
vn -0.6950122 0 -0.718998
vn -1 -4.343403E-07 1.991985E-06
vn -1 -4.677647E-07 2.166541E-06
vn 0 4.000274E-07 -1
vn 0.02589685 4.135519E-07 -0.9996645
vn -0.7071087 -7.343859E-07 0.7071048
vn -0.6934097 -7.331809E-07 0.7205435
vn 0 -6.460795E-07 1
vn 0.02616993 -6.00146E-07 0.9996575
vn 0.7071089 -2.156485E-07 0.7071046
vn 0.7107531 -1.775283E-07 0.7034415
vn 1 2.693893E-07 1.930378E-06
vn 1 3.010087E-07 2.06386E-06
vn 0.7071069 5.012628E-07 -0.7071066
vn 0.7125506 4.960773E-07 -0.7016206
vn 0.02589685 4.135519E-07 -0.9996645
vn 0 4.000274E-07 -1
vn -0.08357766 0.9964837 0.005925258
vn -0.0835051 0.9960586 0.02990349
vn -0.09074322 0.9958078 -0.01151508
vn -0.0783785 0.9969234 0.000707629
vn -0.1125382 0.990159 -0.08318914
vn -0.05052405 0.9985036 -0.02092771
vn -0.1036356 0.9944307 -0.01916534
vn -0.1031349 0.9896264 0.100014
g barrel_mosin_izhmash_mosin_sawn_off_200mm_LOD1_0
f 3/3/3 2/2/2 1/1/1
f 4/4/4 1/1/1 2/2/2
f 1/1/1 5/5/5 3/3/3
f 6/6/6 3/3/3 5/5/5
f 7/7/7 4/4/4 2/2/2
f 4/4/4 7/7/7 8/8/8
f 9/9/9 8/8/8 7/7/7
f 8/8/8 9/9/9 10/10/10
f 11/11/11 10/10/10 9/9/9
f 10/10/10 11/11/11 12/12/12
f 11/11/11 13/13/13 12/12/12
f 13/13/13 11/11/11 14/14/14
f 14/14/14 15/15/15 13/13/13
f 16/16/16 13/13/13 15/15/15
f 15/15/15 17/17/17 16/16/16
f 18/18/18 16/16/16 17/17/17
f 21/21/21 20/20/20 19/19/19
f 20/20/20 21/21/21 22/22/22
f 23/23/23 19/19/19 20/20/20
f 19/19/19 23/23/23 24/24/24
f 25/25/25 24/24/24 23/23/23
f 24/24/24 25/25/25 26/26/26
f 29/29/29 28/28/28 27/27/27
f 28/28/28 29/29/29 30/30/30
f 31/31/31 30/30/30 29/29/29
f 30/30/30 31/31/31 32/32/32
f 33/33/33 27/27/27 28/28/28
f 27/27/27 33/33/33 34/34/34
f 35/35/35 32/32/32 31/31/31
f 32/32/32 35/35/35 36/36/36
f 37/37/37 36/36/36 35/35/35
f 36/36/36 37/37/37 38/38/38
f 39/39/39 34/34/34 33/33/33
f 34/34/34 39/39/39 40/40/40
f 41/41/41 40/40/40 39/39/39
f 40/40/40 41/41/41 42/42/42
f 43/43/43 42/42/42 41/41/41
f 42/42/42 43/43/43 44/44/44
f 47/47/47 46/46/46 45/45/45
f 46/46/46 47/47/47 48/48/48
f 49/49/49 45/45/45 46/46/46
f 45/45/45 49/49/49 50/50/50
f 51/51/51 50/50/50 49/49/49
f 50/50/50 51/51/51 52/52/52
f 53/53/53 52/52/52 51/51/51
f 52/52/52 53/53/53 54/54/54
f 55/55/55 54/54/54 53/53/53
f 54/54/54 55/55/55 56/56/56
f 57/57/57 56/56/56 55/55/55
f 56/56/56 57/57/57 58/58/58
f 59/59/59 48/48/48 47/47/47
f 48/48/48 59/59/59 60/60/60
f 61/61/61 58/58/58 57/57/57
f 58/58/58 61/61/61 62/62/62
f 65/65/65 64/64/64 63/63/63
f 64/64/64 65/65/65 66/66/66
f 64/64/64 67/67/67 63/63/63
f 67/67/67 64/64/64 68/68/68
f 68/68/68 69/69/69 67/67/67
f 69/69/69 68/68/68 70/70/70
f 71/71/71 69/69/69 70/70/70
f 69/69/69 71/71/71 72/72/72
f 71/71/71 73/73/73 72/72/72
f 73/73/73 71/71/71 74/74/74
f 75/75/75 73/73/73 74/74/74
f 73/73/73 75/75/75 76/76/76
f 77/77/77 66/66/66 65/65/65
f 66/66/66 77/77/77 78/78/78
f 79/79/79 76/76/76 75/75/75
f 76/76/76 79/79/79 80/80/80
f 83/83/83 82/82/82 81/81/81
f 82/82/82 83/83/83 84/84/84
f 82/82/82 85/85/85 81/81/81
f 85/85/85 82/82/82 86/86/86
f 87/87/87 84/84/84 83/83/83
f 84/84/84 87/87/87 88/88/88
f 89/89/89 88/88/88 87/87/87
f 88/88/88 89/89/89 90/90/90
f 91/91/91 90/90/90 89/89/89
f 90/90/90 91/91/91 92/92/92
f 93/93/93 92/92/92 91/91/91
f 92/92/92 93/93/93 94/94/94
f 95/95/95 94/94/94 93/93/93
f 94/94/94 95/95/95 96/96/96
f 95/95/95 97/97/97 96/96/96
f 97/97/97 95/95/95 98/98/98
f 101/101/101 100/100/100 99/99/99
f 100/100/100 101/101/101 102/102/102
f 103/103/103 102/102/102 101/101/101
f 102/102/102 103/103/103 104/104/104
f 100/100/100 105/105/105 99/99/99
f 105/105/105 100/100/100 106/106/106
