g barrel_mr133_610mm_plank_LOD1
v 0.009627609 -0.1100428 0.00552811
v 0.01111694 -0.3676546 -3.043294E-05
v 0.009627609 -0.3676546 0.005528095
v 0.01111694 -0.1100428 -3.041863E-05
v 0.005558472 -0.1100428 0.009597239
v 0.005558472 -0.3676546 0.00959722
v 0 -0.1100428 0.01108664
v 0 -0.3676546 0.01108662
v 0.009627533 -0.3676546 -0.005588967
v 0.009627533 -0.1100428 -0.005588952
v 0.01240761 -0.004570141 -3.04234E-05
v 0.01074539 -0.004570141 0.006173451
v 0.006203766 -0.004570188 0.010715
v 0 -0.004570188 0.01237733
v 0.01074531 -0.004570141 -0.006234292
v 0.006203766 -0.004570141 -0.01077584
v 0.005558472 -0.1100428 -0.009658073
v 0.005558472 -0.3676546 -0.009658087
v -3.326416E-05 -0.3676546 -0.01109168
v -1.525879E-07 -0.1100428 -0.01114748
v 0 -0.4540572 0.01108662
v 0.005558472 -0.4540572 0.009597213
v 0 -0.5992771 0.01108661
v 0.005558472 -0.5992771 0.009597204
v 0.009627609 -0.4540572 0.00552809
v 0.009627609 -0.5992771 0.005528082
v 0.01111694 -0.4540572 -3.043651E-05
v 0.01111694 -0.5992771 -3.044367E-05
v 0.009627533 -0.4540572 -0.005588972
v 0.009627533 -0.5992771 -0.005588981
v 0.005558472 -0.4540572 -0.009658092
v 0.005558472 -0.5992771 -0.0096581
v -4.440307E-05 -0.4540572 -0.01107296
v -6.317138E-05 -0.5992771 -0.01104151
v -0.005558624 -0.1100428 0.009597239
v 0 -0.3676546 0.01108662
v -0.005558624 -0.3676546 0.009597222
v 0 -0.1100428 0.01108664
v -0.009627685 -0.1100428 0.00552811
v -0.009627685 -0.3676546 0.005528095
v -0.01111717 -0.1100428 -3.041506E-05
v -0.01111717 -0.3676546 -3.043055E-05
v -0.009627685 -0.1100428 -0.005588939
v -0.009627685 -0.3676546 -0.005588955
v -0.005558624 -0.1100428 -0.009658067
v -0.005558624 -0.3676546 -0.009658082
v -1.525879E-07 -0.1100428 -0.01114748
v -3.326416E-05 -0.3676546 -0.01109168
v 0 -0.004570188 0.01237733
v -0.006203995 -0.004570188 0.010715
v -0.01074547 -0.004570141 0.006173451
v -0.01240776 -0.004570141 -3.041983E-05
v -0.01074547 -0.004570141 -0.00623428
v -0.006203995 -0.004570141 -0.01077583
v -1.525879E-07 -0.004570141 -0.01243816
v -0.01111717 -0.4540572 -3.043532E-05
v -0.009627685 -0.4540572 -0.00558896
v -0.009627685 -0.5992771 -0.00558897
v -0.01111717 -0.5992771 -3.044367E-05
v -0.009627685 -0.4540572 0.00552809
v -0.009627685 -0.5992771 0.005528082
v -0.005558624 -0.4540572 0.009597218
v -0.005558624 -0.5992771 0.00959721
v 0 -0.4540572 0.01108662
v 0 -0.5992771 0.01108661
v -0.005558624 -0.5992771 -0.009658096
v -0.005558624 -0.4540572 -0.009658089
v -6.317138E-05 -0.5992771 -0.01104151
v -4.440307E-05 -0.4540572 -0.01107296
v 0.005558472 -0.1100428 -0.009658073
v -1.525879E-07 -0.004570141 -0.01243816
v -1.525879E-07 -0.1100428 -0.01114748
v 0.006203766 -0.004570141 -0.01077584
v 0.01074539 -0.004570141 0.006173451
v 0.01454384 0.0002032948 -3.041983E-05
v 0.01240761 -0.004570141 -3.04234E-05
v 0.01259529 0.0002032948 0.007241545
v 0.006203766 -0.004570188 0.010715
v 0.007271881 0.0002032471 0.012565
v 0 -0.004570188 0.01237733
v 0 0.0002032757 0.01451352
v 0.01259529 0.0002032948 -0.007302383
v 0.01074531 -0.004570141 -0.006234292
v 0.007271881 0.0002032948 -0.01262583
v 0.006203766 -0.004570141 -0.01077584
v -1.525879E-07 0.0002032948 -0.01457434
v -1.525879E-07 -0.004570141 -0.01243816
v -0.006203995 -0.004570188 0.010715
v 0 0.0002032757 0.01451352
v 0 -0.004570188 0.01237733
v -0.007272033 0.0002032471 0.012565
v -0.01074547 -0.004570141 0.006173451
v -0.01259552 0.0002032948 0.007241545
v -0.01240776 -0.004570141 -3.041983E-05
v -0.01454399 0.0002032948 -3.041386E-05
v -0.01074547 -0.004570141 -0.00623428
v -0.01259552 0.0002032948 -0.007302369
v -0.006203995 -0.004570141 -0.01077583
v -0.007272033 0.0002033234 -0.01262582
v -1.525879E-07 -0.004570141 -0.01243816
v -1.525879E-07 0.0002032948 -0.01457434
v 0.002524261 0.0004705429 0.008615353
v 0.002524261 -0.006595049 0.01761511
v 0.002524261 0.0001042175 0.01622628
v 0.002524261 -0.3676546 0.008152297
v 0.002524185 -0.3676546 0.01574254
v 0.002524261 -0.4540572 0.01529443
v 0.002524261 -0.4540572 0.00804361
v 0.002524261 -0.5969323 0.01455344
v 0.002524261 -0.59698 0.007863832
v -0.002509003 0.0001042175 0.01622628
v 0.002524261 -0.006595049 0.01761511
v -0.002509003 -0.006595049 0.01761511
v 0.002524261 0.0001042175 0.01622628
v -0.002509003 -0.5969323 0.01455344
v 0.002524261 -0.59698 0.007863832
v -0.002509003 -0.59698 0.007863832
v 0.002524261 -0.5969323 0.01455344
v -0.002509003 -0.006595049 0.01761511
v -0.002522659 -0.3676546 0.008152297
v -0.002544479 0.0004705429 0.008615353
v -0.002509003 -0.3676546 0.01574255
v -0.002509003 0.0001042175 0.01622628
v -0.002517547 -0.4540572 0.00804361
v -0.002509003 -0.4540572 0.01529444
v -0.002509003 -0.59698 0.007863832
v -0.002509003 -0.5969323 0.01455344
v -0.002509003 -0.006595049 0.01761511
v 0.002524185 -0.3676546 0.01574254
v -0.002509003 -0.3676546 0.01574255
v 0.002524261 -0.006595049 0.01761511
v -0.002509003 -0.4540572 0.01529444
v 0.002524261 -0.4540572 0.01529443
v -0.002509003 -0.5969323 0.01455344
v 0.002524261 -0.5969323 0.01455344
v 0.002243805 -0.588381 0.01414806
v 2.487183E-05 -0.5872378 0.01829201
v 2.487183E-05 -0.5867689 0.01414806
v 0.001797943 -0.588526 0.01829201
v 0.001396255 -0.5909895 0.01414806
v 0.001120605 -0.5906101 0.01829201
v -0.001346436 -0.5909895 0.01414806
v -0.001070862 -0.5906101 0.01829201
v -0.002193985 -0.588381 0.01414806
v -0.001747971 -0.588526 0.01829201
v 2.487183E-05 -0.5867689 0.01414806
v 2.487183E-05 -0.5872378 0.01829201
v 2.487183E-05 -0.5872378 0.01829201
v 0.001797943 -0.588526 0.01829201
v -0.001747971 -0.588526 0.01829201
v -0.001070862 -0.5906101 0.01829201
v 0.001120605 -0.5906101 0.01829201
v 0.005558472 -0.5992771 0.009597204
v -0.005558624 -0.5992771 0.00959721
v 0 -0.5992771 0.01108661
v 0.01111694 -0.5992771 -3.044367E-05
v -0.005558624 -0.5992771 -0.009658096
v -0.01111717 -0.5992771 -3.044367E-05
v -0.009627685 -0.5992771 0.005528082
v -0.009627685 -0.5992771 -0.00558897
v 0.005558472 -0.5992771 -0.0096581
v -6.317138E-05 -0.5992771 -0.01104151
v 0.009627533 -0.5992771 -0.005588981
v 0.009627609 -0.5992771 0.005528082
vt 0.8359576 0.4708914
vt 0.4430553 0.3583203
vt 0.4430554 0.4708914
vt 0.8359576 0.3583203
vt 0.8359576 0.5780072
vt 0.4430554 0.5780072
vt 0.8359576 0.6839082
vt 0.4430554 0.6839082
vt 0.4430554 0.2535675
vt 0.8359576 0.2535675
vt 0.9905595 0.3583203
vt 0.9905595 0.4708914
vt 0.9905595 0.5780072
vt 0.9905595 0.6839082
vt 0.9905595 0.2535675
vt 0.9905595 0.1452634
vt 0.8359576 0.1452634
vt 0.4430554 0.1452634
vt 0.4430554 0.03923762
vt 0.8359576 0.03923762
vt 0.3112764 0.6839082
vt 0.3112764 0.5780072
vt 0.08979104 0.6839082
vt 0.08979104 0.5780072
vt 0.3112765 0.4708914
vt 0.08979104 0.4708914
vt 0.3112765 0.3583203
vt 0.08979104 0.3583203
vt 0.3112765 0.2535675
vt 0.08979104 0.2535675
vt 0.3112765 0.1452634
vt 0.08979104 0.1452634
vt 0.3112765 0.03923762
vt 0.08979104 0.03923762
vt 0.8359576 0.5780072
vt 0.4430554 0.6839082
vt 0.4430554 0.5780072
vt 0.8359576 0.6839082
vt 0.8359576 0.4708914
vt 0.4430554 0.4708914
vt 0.8359576 0.3583203
vt 0.4430554 0.3583203
vt 0.8359576 0.2535675
vt 0.4430554 0.2535675
vt 0.8359576 0.1452634
vt 0.4430554 0.1452634
vt 0.8359576 0.03923762
vt 0.4430554 0.03923762
vt 0.9905595 0.6839082
vt 0.9905595 0.5780072
vt 0.9905595 0.4708914
vt 0.9905595 0.3583203
vt 0.9905595 0.2535675
vt 0.9905595 0.1452634
vt 0.9905595 0.03923762
vt 0.3112765 0.3583204
vt 0.3112765 0.2535675
vt 0.08979104 0.2535675
vt 0.08979104 0.3583203
vt 0.3112765 0.4708914
vt 0.08979104 0.4708914
vt 0.3112764 0.5780072
vt 0.08979104 0.5780072
vt 0.3112764 0.6839082
vt 0.08979104 0.6839082
vt 0.08979104 0.1452634
vt 0.3112765 0.1452634
vt 0.08979104 0.03923762
vt 0.3112765 0.03923762
vt 0.8359576 0.1452634
vt 0.9905595 0.03923762
vt 0.8359576 0.03923762
vt 0.9905595 0.1452634
vt 0.9905595 0.4708914
vt 0.998402 0.3583203
vt 0.9905595 0.3583203
vt 0.998402 0.4773947
vt 0.9905595 0.5780072
vt 0.998402 0.5939298
vt 0.9905595 0.6839082
vt 0.998402 0.7180453
vt 0.998402 0.2517259
vt 0.9905595 0.2535675
vt 0.998402 0.1346035
vt 0.9905595 0.1452634
vt 0.998402 0.009805649
vt 0.9905595 0.03923762
vt 0.9905595 0.5780072
vt 0.998402 0.7180453
vt 0.9905595 0.6839082
vt 0.998402 0.5939298
vt 0.9905595 0.4708914
vt 0.998402 0.4773947
vt 0.9905595 0.3583203
vt 0.998402 0.3583203
vt 0.9905595 0.2535675
vt 0.998402 0.2517259
vt 0.9905595 0.1452634
vt 0.998402 0.1346035
vt 0.9905595 0.03923762
vt 0.998402 0.009805649
vt 0.9984428 0.7342231
vt 0.9886855 0.8962817
vt 0.9984428 0.8720388
vt 0.4447089 0.7342231
vt 0.4450032 0.8637969
vt 0.3148984 0.8560232
vt 0.314742 0.7342231
vt 0.09975742 0.8431686
vt 0.09975742 0.7342231
vt 0.9984428 0.9831458
vt 0.9886855 0.8962817
vt 0.9886855 0.9831458
vt 0.9984428 0.896304
vt 0.09975742 0.9300268
vt 0.09002636 0.8425984
vt 0.09002636 0.9294463
vt 0.09975742 0.8431686
vt 0.9886855 0.8962817
vt 0.4447089 0.7342231
vt 0.9984428 0.7342231
vt 0.4450032 0.8638057
vt 0.9984428 0.8720362
vt 0.314742 0.7342231
vt 0.3148984 0.8560341
vt 0.09975742 0.7342231
vt 0.09975742 0.843183
vt 0.9886855 0.9831458
vt 0.4450032 0.8637969
vt 0.4450032 0.9506574
vt 0.9886855 0.8962817
vt 0.3148984 0.9428828
vt 0.3148984 0.8560232
vt 0.09975742 0.9300268
vt 0.09975742 0.8431686
vt 0.03815285 0.9842926
vt 0.03200273 0.8358863
vt 0.02555742 0.9842926
vt 0.04206582 0.8358863
vt 0.05108957 0.9842926
vt 0.05240084 0.8358863
vt 0.0641382 0.9842926
vt 0.06282776 0.8358863
vt 0.07707302 0.9842926
vt 0.07316392 0.8358863
vt 0.08966955 0.9842926
vt 0.08322758 0.8358863
vt 0.0158685 0.6859629
vt 0.000414989 0.7793183
vt 0.03132121 0.7793183
vt 0.02541937 0.9303876
vt 0.006316987 0.9303876
vt 0.06464012 0.6611831
vt 0.02291777 0.6611831
vt 0.04377913 0.7076612
vt 0.08550112 0.360734
vt 0.02291777 0.06028676
vt 0.002056758 0.360734
vt 0.007646689 0.5341984
vt 0.007646689 0.1872704
vt 0.06464012 0.06028676
vt 0.04354233 0.0171138
vt 0.0799112 0.1872704
vt 0.07991157 0.5341984
vn 0.8660119 -0.006124424 0.499986
vn 1 0 -6.18723E-06
vn 0.8660278 0 0.4999959
vn 0.9999813 -0.006124391 -6.33624E-06
vn 0.4999914 -0.006124414 0.8660087
vn 0.5000003 0 0.8660253
vn 3.487911E-06 -0.006124427 0.9999813
vn 3.550296E-06 0 1
vn 0.8660269 0 -0.4999972
vn 0.8660107 -0.006124339 -0.4999881
vn 0.9999251 -0.01223616 -5.668287E-06
vn 0.865963 -0.01223618 0.4999584
vn 0.4999619 -0.01223607 0.865961
vn 4.802318E-06 -0.01223627 0.9999251
vn 0.8659617 -0.01223621 -0.4999608
vn 0.7070575 -0.01181944 -0.7070572
vn 0.575112 -0.004150121 -0.818064
vn 0.4953073 0 -0.8687178
vn -0.001444094 -9.50805E-05 -0.9999989
vn -0.08903005 -0.004152305 -0.9960203
vn 3.923495E-06 0 1
vn 0.5000007 0 0.8660251
vn 3.938228E-06 0 1
vn 0.5000013 0 0.8660246
vn 0.866028 0 0.4999957
vn 0.8660284 0 0.4999949
vn 1 0 -6.17864E-06
vn 1 0 -6.120326E-06
vn 0.8660269 0 -0.4999973
vn 0.8660269 0 -0.4999974
vn 0.4937687 -5.994937E-05 -0.8695934
vn 0.4911637 -0.0001220158 -0.8710673
vn -0.001973335 -0.000111617 -0.9999981
vn -0.002737513 -0.0001265311 -0.9999963
vn -0.4999925 -0.006124494 0.8660082
vn 3.550296E-06 0 1
vn -0.5000018 0 0.8660244
vn 3.487911E-06 -0.006124427 0.9999813
vn -0.8660076 -0.006124497 0.4999932
vn -0.8660239 0 0.5000025
vn -0.9999813 -0.006124231 -1.177358E-07
vn -1 0 0
vn -0.8660078 -0.006124177 -0.499993
vn -0.8660237 0 -0.5000028
vn -0.4999958 -0.006124435 -0.8660061
vn -0.4965616 -8.928838E-05 -0.8680015
vn -0.08903005 -0.004152305 -0.9960203
vn -0.001444094 -9.50805E-05 -0.9999989
vn 4.802318E-06 -0.01223627 0.9999251
vn -0.4999649 -0.01223635 0.8659593
vn -0.8659641 -0.01223585 0.4999565
vn -0.9999251 -0.01223581 -5.018806E-07
vn -0.8659638 -0.01223638 -0.4999571
vn -0.4999674 -0.01223633 -0.8659577
vn -0.2588033 -0.01181936 -0.9658577
vn -1 0 0
vn -0.8660239 0 -0.5000026
vn -0.8660239 0 -0.5000026
vn -1 0 0
vn -0.8660239 0 0.5000026
vn -0.8660244 0 0.5000017
vn -0.5000016 0 0.8660246
vn -0.5000022 0 0.8660241
vn 3.923495E-06 0 1
vn 3.938228E-06 0 1
vn -0.4934133 0 -0.869795
vn -0.4953684 -4.487105E-05 -0.8686829
vn -0.002737513 -0.0001265311 -0.9999963
vn -0.001973335 -0.000111617 -0.9999981
vn 0.2587968 -0.01181939 -0.9658594
vn 0.2587968 -0.01181939 -0.9658594
vn 0.2587968 -0.01181939 -0.9658594
vn 0.2587991 -0.01181925 -0.9658589
vn 0.7904837 -0.4084699 0.4563857
vn 0.9127671 -0.4084803 -4.597268E-06
vn 0.912766 -0.4084829 -8.458293E-06
vn 0.7904833 -0.4084679 0.4563881
vn 0.4563864 -0.4084771 0.7904796
vn 0.4563883 -0.4084789 0.7904776
vn 3.47664E-06 -0.4084764 0.9127689
vn 2.403356E-06 -0.4084756 0.9127693
vn 0.7904814 -0.4084774 -0.4563829
vn 0.7904828 -0.4084762 -0.4563816
vn 0.4563842 -0.4084781 -0.7904803
vn 0.4563823 -0.4084786 -0.7904811
vn -3.722836E-06 -0.408477 -0.9127687
vn -3.183871E-06 -0.4084761 -0.912769
vn -0.4563893 -0.4084738 0.7904796
vn 2.403356E-06 -0.4084756 0.9127693
vn 3.47664E-06 -0.4084764 0.9127689
vn -0.4563845 -0.4084766 0.7904809
vn -0.7904797 -0.4084833 0.4563806
vn -0.790479 -0.4084859 0.4563794
vn -0.9127649 -0.4084852 -7.959664E-07
vn -0.9127649 -0.4084853 -2.513305E-07
vn -0.7904803 -0.4084855 -0.4563774
vn -0.7904806 -0.4084827 -0.4563796
vn -0.4563872 -0.4084738 -0.7904809
vn -0.4563842 -0.4084712 -0.7904839
vn -3.183871E-06 -0.4084761 -0.912769
vn -3.722836E-06 -0.408477 -0.9127687
vn 1 0 0
vn 1 0 0
vn 1 0 0
vn 1 -2.634361E-07 1.005157E-05
vn 1 -2.634361E-07 1.005157E-05
vn 1 0 0
vn 1 0 0
vn 1 0 0
vn 1 0 0
vn 0 0.202994 0.9791799
vn 0 0.202994 0.9791799
vn 0 0.202994 0.9791799
vn 0 0.202994 0.9791799
vn 0 -0.9999746 0.007127844
vn 0 -0.9999746 0.007127842
vn 0 -0.9999746 0.007127842
vn 0 -0.9999746 0.007127844
vn -0.9999918 0.0001848607 0.004071757
vn -0.9999983 -3.583426E-05 0.001815841
vn -0.9999911 0.0003573156 0.004222451
vn -0.9999985 -3.381844E-05 0.001782693
vn -0.9999884 0.0009760598 0.004708209
vn -0.9999993 -3.525525E-05 0.001195786
vn -0.9999994 -3.268769E-05 0.001160936
vn -1 -1.987617E-06 3.82305E-05
vn -1 0 0
vn 4.736866E-07 -0.005186218 0.9999865
vn 4.736866E-07 -0.005186218 0.9999865
vn 4.736866E-07 -0.005186218 0.9999865
vn 0 -0.005186224 0.9999865
vn 4.736794E-07 -0.005186229 0.9999865
vn 4.736794E-07 -0.005186228 0.9999865
vn 4.736795E-07 -0.005186229 0.9999865
vn 4.736794E-07 -0.005186229 0.9999865
vn 0.9450212 0.3070774 0.1124213
vn -2.370937E-05 0.7703124 0.6376666
vn -1.324042E-05 0.993658 0.1124444
vn 0.7326174 0.2380308 0.6376622
vn 0.5840529 -0.8038906 0.112437
vn 0.4527532 -0.6232023 0.6376781
vn -0.5840566 -0.8038874 0.1124418
vn -0.4527894 -0.6231841 0.6376702
vn -0.9450209 0.3070685 0.1124476
vn -0.7326017 0.2380403 0.6376767
vn -1.324042E-05 0.993658 0.1124444
vn -2.370937E-05 0.7703124 0.6376666
vn -2.370937E-05 0.7703124 0.6376666
vn 0.7326174 0.2380308 0.6376622
vn -0.7326017 0.2380403 0.6376767
vn -0.4527894 -0.6231841 0.6376702
vn 0.4527532 -0.6232023 0.6376781
vn 0 -1 0
vn 0 -1 0
vn 0 -1 0
vn 0 -1 0
vn 0 -1 0
vn 2.561334E-05 -1 -6.863463E-06
vn 2.561334E-05 -1 -6.863462E-06
vn 0 -1 0
vn 0 -1 0
vn 0 -1 0
vn 0 -1 0
vn -2.561171E-05 -1 -6.862322E-06
g barrel_mr133_610mm_plank_LOD1_0
f 3/3/3 2/2/2 1/1/1
f 4/4/4 1/1/1 2/2/2
f 1/1/1 5/5/5 3/3/3
f 6/6/6 3/3/3 5/5/5
f 5/5/5 7/7/7 6/6/6
f 8/8/8 6/6/6 7/7/7
f 2/2/2 9/9/9 4/4/4
f 10/10/10 4/4/4 9/9/9
f 4/4/4 11/11/11 1/1/1
f 12/12/12 1/1/1 11/11/11
f 1/1/1 12/12/12 5/5/5
f 13/13/13 5/5/5 12/12/12
f 5/5/5 13/13/13 7/7/7
f 14/14/14 7/7/7 13/13/13
f 10/10/10 15/15/15 4/4/4
f 11/11/11 4/4/4 15/15/15
f 15/15/15 10/10/10 16/16/16
f 17/17/17 16/16/16 10/10/10
f 9/9/9 18/18/18 10/10/10
f 17/17/17 10/10/10 18/18/18
f 18/18/18 19/19/19 17/17/17
f 20/20/20 17/17/17 19/19/19
f 8/8/8 21/21/21 6/6/6
f 22/22/22 6/6/6 21/21/21
f 21/21/21 23/23/23 22/22/22
f 24/24/24 22/22/22 23/23/23
f 22/22/22 24/24/24 25/25/25
f 26/26/26 25/25/25 24/24/24
f 25/25/25 26/26/26 27/27/27
f 28/28/28 27/27/27 26/26/26
f 27/27/27 28/28/28 29/29/29
f 30/30/30 29/29/29 28/28/28
f 29/29/29 30/30/30 31/31/31
f 18/18/18 31/31/31 19/19/19
f 31/31/31 18/18/18 29/29/29
f 32/32/32 31/31/31 30/30/30
f 31/31/31 32/32/32 33/33/33
f 33/33/33 19/19/19 31/31/31
f 34/34/34 33/33/33 32/32/32
f 27/27/27 2/2/2 25/25/25
f 3/3/3 25/25/25 2/2/2
f 25/25/25 3/3/3 22/22/22
f 6/6/6 22/22/22 3/3/3
f 29/29/29 9/9/9 27/27/27
f 2/2/2 27/27/27 9/9/9
f 9/9/9 29/29/29 18/18/18
f 37/37/37 36/36/36 35/35/35
f 38/38/38 35/35/35 36/36/36
f 35/35/35 39/39/39 37/37/37
f 40/40/40 37/37/37 39/39/39
f 39/39/39 41/41/41 40/40/40
f 42/42/42 40/40/40 41/41/41
f 41/41/41 43/43/43 42/42/42
f 44/44/44 42/42/42 43/43/43
f 43/43/43 45/45/45 44/44/44
f 46/46/46 44/44/44 45/45/45
f 45/45/45 47/47/47 46/46/46
f 48/48/48 46/46/46 47/47/47
f 38/38/38 49/49/49 35/35/35
f 50/50/50 35/35/35 49/49/49
f 35/35/35 50/50/50 39/39/39
f 51/51/51 39/39/39 50/50/50
f 39/39/39 51/51/51 41/41/41
f 52/52/52 41/41/41 51/51/51
f 41/41/41 52/52/52 43/43/43
f 53/53/53 43/43/43 52/52/52
f 43/43/43 53/53/53 45/45/45
f 54/54/54 45/45/45 53/53/53
f 45/45/45 54/54/54 47/47/47
f 55/55/55 47/47/47 54/54/54
f 42/42/42 56/56/56 40/40/40
f 56/56/56 42/42/42 57/57/57
f 44/44/44 57/57/57 42/42/42
f 57/57/57 58/58/58 56/56/56
f 59/59/59 56/56/56 58/58/58
f 56/56/56 59/59/59 60/60/60
f 61/61/61 60/60/60 59/59/59
f 60/60/60 61/61/61 62/62/62
f 63/63/63 62/62/62 61/61/61
f 62/62/62 63/63/63 64/64/64
f 65/65/65 64/64/64 63/63/63
f 58/58/58 57/57/57 66/66/66
f 67/67/67 66/66/66 57/57/57
f 66/66/66 67/67/67 68/68/68
f 69/69/69 68/68/68 67/67/67
f 64/64/64 36/36/36 62/62/62
f 37/37/37 62/62/62 36/36/36
f 62/62/62 37/37/37 60/60/60
f 40/40/40 60/60/60 37/37/37
f 60/60/60 40/40/40 56/56/56
f 67/67/67 46/46/46 69/69/69
f 46/46/46 67/67/67 44/44/44
f 57/57/57 44/44/44 67/67/67
f 48/48/48 69/69/69 46/46/46
f 72/72/72 71/71/71 70/70/70
f 73/73/73 70/70/70 71/71/71
f 76/76/76 75/75/75 74/74/74
f 77/77/77 74/74/74 75/75/75
f 74/74/74 77/77/77 78/78/78
f 79/79/79 78/78/78 77/77/77
f 78/78/78 79/79/79 80/80/80
f 81/81/81 80/80/80 79/79/79
f 75/75/75 76/76/76 82/82/82
f 83/83/83 82/82/82 76/76/76
f 82/82/82 83/83/83 84/84/84
f 85/85/85 84/84/84 83/83/83
f 84/84/84 85/85/85 86/86/86
f 87/87/87 86/86/86 85/85/85
f 90/90/90 89/89/89 88/88/88
f 91/91/91 88/88/88 89/89/89
f 88/88/88 91/91/91 92/92/92
f 93/93/93 92/92/92 91/91/91
f 92/92/92 93/93/93 94/94/94
f 95/95/95 94/94/94 93/93/93
f 94/94/94 95/95/95 96/96/96
f 97/97/97 96/96/96 95/95/95
f 96/96/96 97/97/97 98/98/98
f 99/99/99 98/98/98 97/97/97
f 98/98/98 99/99/99 100/100/100
f 101/101/101 100/100/100 99/99/99
f 104/104/104 103/103/103 102/102/102
f 102/102/102 103/103/103 105/105/105
f 106/106/106 105/105/105 103/103/103
f 106/106/106 107/107/107 105/105/105
f 108/108/108 105/105/105 107/107/107
f 107/107/107 109/109/109 108/108/108
f 110/110/110 108/108/108 109/109/109
f 113/113/113 112/112/112 111/111/111
f 114/114/114 111/111/111 112/112/112
f 117/117/117 116/116/116 115/115/115
f 118/118/118 115/115/115 116/116/116
f 121/121/121 120/120/120 119/119/119
f 122/122/122 119/119/119 120/120/120
f 123/123/123 121/121/121 119/119/119
f 120/120/120 124/124/124 122/122/122
f 125/125/125 122/122/122 124/124/124
f 124/124/124 126/126/126 125/125/125
f 127/127/127 125/125/125 126/126/126
f 130/130/130 129/129/129 128/128/128
f 131/131/131 128/128/128 129/129/129
f 130/130/130 132/132/132 129/129/129
f 133/133/133 129/129/129 132/132/132
f 132/132/132 134/134/134 133/133/133
f 135/135/135 133/133/133 134/134/134
f 138/138/138 137/137/137 136/136/136
f 139/139/139 136/136/136 137/137/137
f 136/136/136 139/139/139 140/140/140
f 141/141/141 140/140/140 139/139/139
f 140/140/140 141/141/141 142/142/142
f 143/143/143 142/142/142 141/141/141
f 142/142/142 143/143/143 144/144/144
f 145/145/145 144/144/144 143/143/143
f 144/144/144 145/145/145 146/146/146
f 147/147/147 146/146/146 145/145/145
f 150/150/150 149/149/149 148/148/148
f 150/150/150 151/151/151 149/149/149
f 152/152/152 149/149/149 151/151/151
f 155/155/155 154/154/154 153/153/153
f 154/154/154 156/156/156 153/153/153
f 157/157/157 156/156/156 154/154/154
f 158/158/158 157/157/157 154/154/154
f 159/159/159 158/158/158 154/154/154
f 160/160/160 157/157/157 158/158/158
f 161/161/161 156/156/156 157/157/157
f 162/162/162 161/161/161 157/157/157
f 163/163/163 156/156/156 161/161/161
f 153/153/153 156/156/156 164/164/164
