g barrel_mk16_355mm_LOD1
v 5.753558E-05 -0.1977188 -0.007805946
v 0.002741793 -0.02707535 -0.007333837
v 5.748577E-05 -0.02707535 -0.007805944
v 0.002741843 -0.1977188 -0.007333839
v 0.005589322 -0.1977188 -0.005489356
v 0.005589273 -0.02707535 -0.005489354
v 0.00743781 -0.1977171 -0.002448584
v 0.00743778 -0.02707374 -0.002448583
v 0.007912129 -0.1977171 3.417313E-05
v 0.007912099 -0.02707374 3.417432E-05
v 0.007439433 -0.1977154 0.002715905
v 0.007439401 -0.02707207 0.002715906
v 0.005589321 -0.1977171 0.005560296
v 0.005589273 -0.02707374 0.005560297
v 0.002742644 -0.1977171 0.007406303
v 0.002742594 -0.02707374 0.007406306
v 5.75355E-05 -0.1977188 0.007879022
v 5.748577E-05 -0.02707535 0.007879023
v 5.753558E-05 -0.1977188 -0.007805946
v -0.002626821 -0.02707535 -0.007333837
v -0.002626752 -0.1977188 -0.007333837
v 5.748577E-05 -0.02707535 -0.007805944
v -0.005474233 -0.1977188 -0.005489357
v -0.005474302 -0.02707535 -0.005489354
v -0.007322761 -0.1977171 -0.002448584
v -0.007322828 -0.02707374 -0.002448583
v -0.007797059 -0.1977171 3.417313E-05
v -0.007797109 -0.02707374 3.417432E-05
v -0.007324381 -0.1977154 0.002715905
v -0.007324449 -0.02707207 0.002715906
v -0.005474234 -0.1977171 0.005560295
v -0.005474302 -0.02707374 0.005560297
v -0.002627572 -0.1977171 0.007406304
v -0.002627641 -0.02707374 0.007406306
v 5.75355E-05 -0.1977188 0.007879022
v 5.748577E-05 -0.02707535 0.007879023
vt 0.5964562 0.466761
vt 0.7002645 0.4708071
vt 0.7002645 0.466761
vt 0.5964562 0.4708071
vt 0.5964562 0.4758436
vt 0.7002645 0.4758436
vt 0.5964586 0.4811263
vt 0.7002668 0.4811263
vt 0.5964586 0.4848787
vt 0.7002668 0.4848787
vt 0.5964611 0.4889212
vt 0.7002692 0.4889212
vt 0.5964586 0.4939582
vt 0.7002668 0.4939581
vt 0.5964587 0.4989948
vt 0.700267 0.4989948
vt 0.5964564 0.5030419
vt 0.7002646 0.5030419
vt 0.5964603 0.4667669
vt 0.7002686 0.470813
vt 0.5964603 0.470813
vt 0.7002686 0.4667669
vt 0.5964603 0.4758495
vt 0.7002686 0.4758494
vt 0.5964627 0.4811322
vt 0.700271 0.4811322
vt 0.5964626 0.4848845
vt 0.7002708 0.4848845
vt 0.596465 0.4889268
vt 0.7002732 0.4889267
vt 0.5964625 0.4939636
vt 0.7002708 0.4939635
vt 0.5964624 0.4990001
vt 0.7002707 0.4990001
vt 0.5964598 0.5030473
vt 0.7002681 0.5030472
vn -1.028892E-06 0 -1
vn 0.3657582 1.153189E-07 -0.93071
vn 0 0 -1
vn 0.3657584 1.203195E-07 -0.9307098
vn 0.7171185 2.151598E-07 -0.6969512
vn 0.7171634 1.619332E-07 -0.696905
vn 0.9332224 2.133859E-07 -0.3592992
vn 0.9332408 1.654972E-07 -0.3592516
vn 0.9999743 1.746925E-07 -0.007185089
vn 0.9999747 1.781547E-07 -0.007112341
vn 0.930298 1.629349E-07 0.3668044
vn 0.9302913 2.077162E-07 0.3668215
vn 0.7065946 1.51133E-07 0.7076186
vn 0.7066405 1.929158E-07 0.7075728
vn 0.3660354 0 0.9306009
vn 0.3661076 0 0.9305725
vn 2.409004E-07 0 1
vn 5.777196E-07 0 1
vn -1.028892E-06 0 -1
vn -0.3657582 -1.254377E-07 -0.93071
vn -0.3657588 -1.488371E-07 -0.9307097
vn 0 0 -1
vn -0.7171147 -2.872436E-07 -0.6969551
vn -0.7171618 -2.766367E-07 -0.6969066
vn -0.9332222 -3.667415E-07 -0.3592998
vn -0.9332426 -3.142264E-07 -0.3592468
vn -0.9999743 -3.417335E-07 -0.007184335
vn -0.9999747 -3.454411E-07 -0.007111803
vn -0.9302977 -3.213623E-07 0.3668053
vn -0.9302931 -3.750803E-07 0.3668173
vn -0.7065926 -2.898065E-07 0.7076207
vn -0.70664 -2.902266E-07 0.7075733
vn -0.3660367 -1.558497E-07 0.9306004
vn -0.3661085 -1.448833E-07 0.9305722
vn 2.409004E-07 0 1
vn 5.777196E-07 0 1
g barrel_mk16_355mm_LOD1_0
f 3/3/3 2/2/2 1/1/1
f 4/4/4 1/1/1 2/2/2
f 4/4/4 2/2/2 5/5/5
f 6/6/6 5/5/5 2/2/2
f 5/5/5 6/6/6 7/7/7
f 8/8/8 7/7/7 6/6/6
f 7/7/7 8/8/8 9/9/9
f 10/10/10 9/9/9 8/8/8
f 9/9/9 10/10/10 11/11/11
f 12/12/12 11/11/11 10/10/10
f 11/11/11 12/12/12 13/13/13
f 14/14/14 13/13/13 12/12/12
f 13/13/13 14/14/14 15/15/15
f 16/16/16 15/15/15 14/14/14
f 15/15/15 16/16/16 17/17/17
f 18/18/18 17/17/17 16/16/16
f 21/21/21 20/20/20 19/19/19
f 22/22/22 19/19/19 20/20/20
f 21/21/21 23/23/23 20/20/20
f 24/24/24 20/20/20 23/23/23
f 23/23/23 25/25/25 24/24/24
f 26/26/26 24/24/24 25/25/25
f 25/25/25 27/27/27 26/26/26
f 28/28/28 26/26/26 27/27/27
f 27/27/27 29/29/29 28/28/28
f 30/30/30 28/28/28 29/29/29
f 29/29/29 31/31/31 30/30/30
f 32/32/32 30/30/30 31/31/31
f 31/31/31 33/33/33 32/32/32
f 34/34/34 32/32/32 33/33/33
f 33/33/33 35/35/35 34/34/34
f 36/36/36 34/34/34 35/35/35
