g barrel_m700_remington_heavy_5_r_stainless_threaded_508mm_LOD1
v 0.0001191298 -0.1500262 -0.01201458
v -0.006949853 -0.1500262 -0.009717728
v -0.006513076 -0.3201217 -0.009048323
v 5.998655E-05 -0.3201217 -0.01118404
v -0.01057545 -0.3201217 -0.003456943
v -0.01131872 -0.1500262 -0.003704495
v -0.01057545 -0.3201217 0.003454382
v -0.01131872 -0.1500262 0.003728271
v -0.006513079 -0.3201217 0.009045765
v -0.006949855 -0.1500262 0.009741508
v 5.99813E-05 -0.3201217 0.01118148
v 0.0001191226 -0.1500262 0.01203836
v 0.006633044 -0.3201217 0.009045763
v 0.007188105 -0.1500262 0.009741504
v 0.01069542 -0.3201217 0.003454383
v 0.01155697 -0.1500262 0.003728271
v 0.01069542 -0.3201217 -0.003456941
v 0.01155698 -0.1500262 -0.003704492
v 0.006633048 -0.3201217 -0.009048325
v 0.007188111 -0.1500262 -0.009717733
v 5.998655E-05 -0.3201217 -0.01118404
v 0.0001191298 -0.1500262 -0.01201458
v -0.00983218 -0.4902171 -0.003209391
v -0.00983218 -0.4902172 0.003180495
v -0.006076301 -0.4902172 0.00835002
v -0.006076301 -0.4902172 -0.008378916
v 8.428356E-07 -0.4902172 -0.0103535
v 8.397362E-07 -0.4902172 0.0103246
v 0.006077984 -0.4902172 -0.008378915
v 0.006077983 -0.4902172 0.00835002
v 0.009833863 -0.4902172 -0.00320939
v 0.009833863 -0.4902172 0.003180495
v 0.0001191298 -0.1500262 -0.01201458
v 9.167046E-07 -0.02469007 -0.01562005
v -0.009171826 -0.02469009 -0.01263964
v -0.006949853 -0.1500262 -0.009717728
v -0.01484089 -0.02469009 -0.004836841
v -0.01131872 -0.1500262 -0.003704495
v -0.01484089 -0.02469009 0.004807945
v -0.01131872 -0.1500262 0.003728271
v -0.009171829 -0.0246901 0.01261075
v -0.006949855 -0.1500262 0.009741508
v 9.06691E-07 -0.0246901 0.01559115
v 0.0001191226 -0.1500262 0.01203836
v 0.009173648 -0.02469009 0.01261074
v 0.007188105 -0.1500262 0.009741504
v 0.01484271 -0.02469009 0.004807946
v 0.01155697 -0.1500262 0.003728271
v 0.01484271 -0.02469009 -0.004836838
v 0.01155698 -0.1500262 -0.003704492
v 0.009173652 -0.02469007 -0.01263965
v 0.007188111 -0.1500262 -0.009717733
v 9.167046E-07 -0.02469007 -0.01562005
v 0.0001191298 -0.1500262 -0.01201458
v -1.17907E-08 -0.02530854 -0.01318585
v -7.96402E-09 3.439903E-05 -0.01318585
v -0.007750738 3.421784E-05 -0.01066747
v -0.007750742 -0.02530872 -0.01066747
v -0.01254095 3.421784E-05 -0.004074314
v -0.01254095 -0.02530872 -0.004074315
v -0.01254095 3.421784E-05 0.004075279
v -0.01254095 -0.02530872 0.004075279
v -0.007750741 3.40271E-05 0.01066845
v -0.007750745 -0.02530891 0.01066845
v -1.654714E-08 3.40271E-05 0.01318681
v -2.037382E-08 -0.02530891 0.01318681
v 0.007750712 3.421784E-05 0.01066844
v 0.007750708 -0.02530872 0.01066844
v 0.01254092 3.421784E-05 0.004075282
v 0.01254092 -0.02530872 0.004075281
v 0.01254093 3.421784E-05 -0.004074311
v 0.01254092 -0.02530872 -0.004074311
v 0.007750717 3.439903E-05 -0.01066748
v 0.007750713 -0.02530854 -0.01066748
v -7.96402E-09 3.439903E-05 -0.01318585
v -1.17907E-08 -0.02530854 -0.01318585
v 0.01254093 3.421784E-05 -0.004074311
v 0.01254092 3.421784E-05 0.004075282
v 0.007750712 3.421784E-05 0.01066844
v 0.007750717 3.439903E-05 -0.01066748
v -7.96402E-09 3.439903E-05 -0.01318585
v -1.654714E-08 3.40271E-05 0.01318681
v -0.007750738 3.421784E-05 -0.01066747
v -0.007750741 3.40271E-05 0.01066845
v -0.01254095 3.421784E-05 -0.004074314
v -0.01254095 3.421784E-05 0.004075279
v -0.01484089 -0.02469009 0.004807945
v -0.01484089 -0.02469009 -0.004836841
v -0.009171826 -0.02469009 -0.01263964
v -0.009171829 -0.0246901 0.01261075
v 9.06691E-07 -0.0246901 0.01559115
v 9.167046E-07 -0.02469007 -0.01562005
v 0.009173648 -0.02469009 0.01261074
v 0.009173652 -0.02469007 -0.01263965
v 0.01484271 -0.02469009 0.004807946
v 0.01484271 -0.02469009 -0.004836838
v -0.005523101 -0.4897144 -0.005513029
v -0.005523103 -0.505381 -0.00551303
v -8.904801E-08 -0.505381 -0.007800737
v -8.668239E-08 -0.4897144 -0.007800737
v -0.007810809 -0.4897144 9.984075E-06
v -0.007810811 -0.505381 9.984075E-06
v -0.005523101 -0.4897144 0.005532999
v -0.005523103 -0.505381 0.005533
v -8.668239E-08 -0.4897144 0.007820708
v -8.904801E-08 -0.505381 0.007820707
v 0.005522928 -0.4897144 0.005532999
v 0.005522926 -0.505381 0.005532999
v 0.007810635 -0.4897144 9.984075E-06
v 0.007810632 -0.505381 9.984075E-06
v 0.005522928 -0.4897144 -0.005513029
v 0.005522926 -0.505381 -0.00551303
v -8.668239E-08 -0.4897144 -0.007800737
v -8.904801E-08 -0.505381 -0.007800737
v -0.005523103 -0.505381 -0.00551303
v -0.005523103 -0.505381 0.005533
v -8.904801E-08 -0.505381 0.007820707
v -8.904801E-08 -0.505381 -0.007800737
v 0.005522926 -0.505381 -0.00551303
v 0.005522926 -0.505381 0.005532999
v -0.007810811 -0.505381 9.984075E-06
v 0.007810632 -0.505381 9.984075E-06
v 8.428356E-07 -0.4902172 -0.0103535
v 5.998655E-05 -0.3201217 -0.01118404
v -0.006513076 -0.3201217 -0.009048323
v -0.006076301 -0.4902172 -0.008378916
v -0.01057545 -0.3201217 -0.003456943
v -0.00983218 -0.4902171 -0.003209391
v -0.01057545 -0.3201217 0.003454382
v -0.00983218 -0.4902172 0.003180495
v -0.006513079 -0.3201217 0.009045765
v -0.006076301 -0.4902172 0.00835002
v 5.99813E-05 -0.3201217 0.01118148
v 8.397362E-07 -0.4902172 0.0103246
v 0.006633044 -0.3201217 0.009045763
v 0.006077983 -0.4902172 0.00835002
v 0.01069542 -0.3201217 0.003454383
v 0.009833863 -0.4902172 0.003180495
v 0.01069542 -0.3201217 -0.003456941
v 0.009833863 -0.4902172 -0.00320939
v 0.006633048 -0.3201217 -0.009048325
v 0.006077984 -0.4902172 -0.008378915
v 5.998655E-05 -0.3201217 -0.01118404
v 8.428356E-07 -0.4902172 -0.0103535
vt 0.004110926 0.3232589
vt 0.004110926 0.3546519
vt 0.9950991 0.3545227
vt 0.9950991 0.3232821
vt 0.9950991 0.3859805
vt 0.004110926 0.3861147
vt 0.9950991 0.4174028
vt 0.004110926 0.4175067
vt 0.9950991 0.4488262
vt 0.004110926 0.4488996
vt 0.9950991 0.4802516
vt 0.004110926 0.4802956
vt 0.9950991 0.5116758
vt 0.004110926 0.5116885
vt 0.9950991 0.5430998
vt 0.004110926 0.5430804
vt 0.9950991 0.5745235
vt 0.004110926 0.5744723
vt 0.9950991 0.6059473
vt 0.004110926 0.6058652
vt 0.9950991 0.6373692
vt 0.004110926 0.6372561
vt 0.7566044 0.9326072
vt 0.7660204 0.9615842
vt 0.7906704 0.9794922
vt 0.7660184 0.9036312
vt 0.7906674 0.8857202
vt 0.8211393 0.9794912
vt 0.8211354 0.8857182
vt 0.8457894 0.9615802
vt 0.8457854 0.9036252
vt 0.8552024 0.9326022
vt 0.6058143 0.6450887
vt 0.004110926 0.6450887
vt 0.004110926 0.6797823
vt 0.6058143 0.6797823
vt 0.004110926 0.7146428
vt 0.6058131 0.7146437
vt 0.004110926 0.7494364
vt 0.6058131 0.7494364
vt 0.004110926 0.7842606
vt 0.6058131 0.7842606
vt 0.004110926 0.8191001
vt 0.6058143 0.8191001
vt 0.004110926 0.8539413
vt 0.6058143 0.8539413
vt 0.004110926 0.8887656
vt 0.6058143 0.8887656
vt 0.004110926 0.9235649
vt 0.6058143 0.9235649
vt 0.004110926 0.9583186
vt 0.6058143 0.9583186
vt 0.004110926 0.993017
vt 0.6058131 0.993018
vt 0.612772 0.9938477
vt 0.7445028 0.9938477
vt 0.744504 0.9589684
vt 0.612772 0.9589684
vt 0.744504 0.9240956
vt 0.612772 0.9240956
vt 0.744504 0.889218
vt 0.612772 0.889218
vt 0.744504 0.8543425
vt 0.612772 0.8543425
vt 0.744504 0.8194677
vt 0.612772 0.8194677
vt 0.744504 0.7845912
vt 0.612772 0.7845912
vt 0.744504 0.7497184
vt 0.612772 0.7497175
vt 0.744504 0.71484
vt 0.612772 0.71484
vt 0.744504 0.6799663
vt 0.612772 0.6799663
vt 0.744504 0.6450887
vt 0.612772 0.6450887
vt 0.8403499 0.8096099
vt 0.8288408 0.8450499
vt 0.8403608 0.8804859
vt 0.8704908 0.7877029
vt 0.9077528 0.7876979
vt 0.8705099 0.9023829
vt 0.9379008 0.8095939
vt 0.9077708 0.9023769
vt 0.9494208 0.8450299
vt 0.9379128 0.8804699
vt 0.9739304 0.7563882
vt 0.9880484 0.7129202
vt 0.9739204 0.6694562
vt 0.9369594 0.7832562
vt 0.8912564 0.7832623
vt 0.9369424 0.6425962
vt 0.8542784 0.7564023
vt 0.8912393 0.6426023
vt 0.8401504 0.7129382
vt 0.8542684 0.6694703
vt 0.8201011 0.8424287
vt 0.752369 0.8424287
vt 0.752369 0.8705158
vt 0.8201011 0.8705158
vt 0.8201011 0.8141608
vt 0.752369 0.8141608
vt 0.8201011 0.7864618
vt 0.752369 0.7864618
vt 0.8201011 0.7569488
vt 0.752369 0.7569488
vt 0.8201011 0.7297748
vt 0.752369 0.7297748
vt 0.8201011 0.7019178
vt 0.752369 0.7019168
vt 0.8201011 0.6734617
vt 0.752369 0.6734617
vt 0.8201011 0.6450887
vt 0.752369 0.6450887
vt 0.8745847 0.9234909
vt 0.8746057 0.9758349
vt 0.9007816 0.9866639
vt 0.9007528 0.9126399
vt 0.9269288 0.9234709
vt 0.9269488 0.9758129
vt 0.8637547 0.9496669
vt 0.9377787 0.9496379
vt 0.9950992 0.003706022
vt 0.004110926 0.003682899
vt 0.004110926 0.03492356
vt 0.9950992 0.03479445
vt 0.004110926 0.06638135
vt 0.9950992 0.06624718
vt 0.004110926 0.09780368
vt 0.9950992 0.09769991
vt 0.004110926 0.129227
vt 0.9950992 0.1291536
vt 0.004110926 0.1606524
vt 0.9950992 0.1606084
vt 0.004110926 0.1920767
vt 0.9950992 0.1920641
vt 0.004110926 0.2235005
vt 0.9950992 0.2235198
vt 0.004110926 0.2549243
vt 0.9950992 0.2549756
vt 0.004110926 0.2863481
vt 0.9950992 0.2864303
vt 0.004110926 0.3177699
vt 0.9950992 0.317883
vn 0.0001275709 -0.01685936 -0.9998579
vn -0.5876302 -0.01702303 -0.8089506
vn -0.587779 -0.004693147 -0.8090079
vn -2.892621E-07 -0.00488274 -0.9999881
vn -0.9510464 -0.004605544 -0.3090137
vn -0.9509136 -0.01709867 -0.3089836
vn -0.9510463 -0.004653392 0.3090134
vn -0.9508976 -0.01705731 0.3090351
vn -0.5877787 -0.004818413 0.8090073
vn -0.5876042 -0.01691478 0.8089717
vn 0 -0.005037564 0.9999874
vn 0.0001280505 -0.01672557 0.9998602
vn 0.5877772 -0.005227136 0.809006
vn 0.5877749 -0.01656196 0.8088549
vn 0.9510431 -0.005314732 0.3090127
vn 0.9509311 -0.01648641 0.3089634
vn 0.9510434 -0.005266896 -0.3090124
vn 0.9509473 -0.01652772 -0.3089109
vn 0.5877778 -0.005101894 -0.8090063
vn 0.5878011 -0.01667017 -0.8088337
vn -2.892621E-07 -0.00488274 -0.9999881
vn 0.0001275709 -0.01685936 -0.9998579
vn -5.078301E-06 -1 -1.65004E-06
vn -5.078301E-06 -1 -1.65004E-06
vn -1.269575E-06 -1 -4.125098E-07
vn -1.269575E-06 -1 -4.125099E-07
vn 0 -1 0
vn 0 -1 0
vn 0 -1 0
vn 0 -1 0
vn 0 -1 0
vn 0 -1 0
vn 0.0001275709 -0.01685936 -0.9998579
vn -0.000183927 -0.02875463 -0.9995865
vn -0.5876343 -0.02926812 -0.808597
vn -0.5876302 -0.01702303 -0.8089506
vn -0.950648 -0.0295053 -0.3088654
vn -0.9509136 -0.01709867 -0.3089836
vn -0.9506758 -0.02937566 0.3087921
vn -0.9508976 -0.01705731 0.3090351
vn -0.5876794 -0.02892867 0.8085765
vn -0.5876042 -0.01691478 0.8089717
vn -0.0001835005 -0.0283349 0.9995984
vn 0.0001280505 -0.01672557 0.9998602
vn 0.5874572 -0.02782113 0.8087769
vn 0.5877749 -0.01656196 0.8088549
vn 0.9506891 -0.02758376 0.3089166
vn 0.9509311 -0.01648641 0.3089634
vn 0.9506618 -0.02771351 -0.308989
vn 0.9509473 -0.01652772 -0.3089109
vn 0.5874124 -0.02816081 -0.8087977
vn 0.5878011 -0.01667017 -0.8088337
vn -0.000183927 -0.02875463 -0.9995865
vn 0.0001275709 -0.01685936 -0.9998579
vn -2.723037E-06 0 -1
vn 1.93508E-06 0 -1
vn -0.5877838 0 -0.8090181
vn -0.5877874 0 -0.8090153
vn -0.9510565 1.481536E-07 -0.3090169
vn -0.9510565 1.481536E-07 -0.3090169
vn -0.9510574 1.386709E-07 0.3090141
vn -0.9510559 1.386708E-07 0.3090188
vn -0.5877877 0 0.8090152
vn -0.5877838 0 0.8090181
vn 2.892602E-06 0 1
vn -2.014878E-06 0 1
vn 0.5877876 0 0.8090153
vn 0.5877836 0 0.8090181
vn 0.9510565 -1.42464E-07 0.3090172
vn 0.9510565 -1.42464E-07 0.3090172
vn 0.951056 -1.405673E-07 -0.3090185
vn 0.9510574 -1.405674E-07 -0.3090141
vn 0.5877839 0 -0.809018
vn 0.5877874 0 -0.8090153
vn 1.93508E-06 0 -1
vn -2.723037E-06 0 -1
vn 1.891337E-05 1 6.145332E-06
vn 1.891337E-05 1 6.145332E-06
vn -4.499895E-06 1 1.02318E-05
vn -4.4999E-06 1 1.02318E-05
vn -1.199671E-05 1 1.16939E-05
vn -1.199671E-05 1 1.16939E-05
vn -3.789625E-06 1 1.046258E-05
vn -3.789628E-06 1 1.046258E-05
vn 1.990882E-05 1 6.468767E-06
vn 1.990882E-05 1 6.468767E-06
vn 8.411218E-07 1 2.73297E-07
vn 8.411218E-07 1 2.73297E-07
vn -5.694819E-07 1 5.750444E-07
vn -5.69482E-07 1 5.750445E-07
vn -7.797621E-07 1 7.600802E-07
vn -7.79762E-07 1 7.600803E-07
vn 0 1 7.700489E-07
vn 0 1 7.700488E-07
vn 1.682243E-06 1 5.465942E-07
vn 1.682243E-06 1 5.465942E-07
vn -0.7071068 1.334652E-07 -0.7071068
vn -0.7071068 1.334653E-07 -0.7071068
vn 0 0 -1
vn 0 0 -1
vn -1 1.668316E-07 0
vn -1 1.668316E-07 0
vn -0.7071068 1.248546E-07 0.7071068
vn -0.7071068 1.248546E-07 0.7071068
vn 0 0 1
vn 0 0 1
vn 0.7071069 -1.183966E-07 0.7071066
vn 0.7071069 -1.183966E-07 0.7071066
vn 1 -1.431523E-07 0
vn 1 -1.431522E-07 0
vn 0.7071069 0 -0.7071066
vn 0.7071068 0 -0.7071068
vn 0 0 -1
vn 0 0 -1
vn 0 -1 0
vn 0 -1 0
vn 0 -1 0
vn 0 -1 0
vn 0 -1 0
vn 0 -1 0
vn 0 -1 0
vn 0 -1 0
vn -6.850925E-05 -0.004882723 -0.9999881
vn -2.892621E-07 -0.00488274 -0.9999881
vn -0.587779 -0.004693147 -0.8090079
vn -0.5878159 -0.004693137 -0.808981
vn -0.9510464 -0.004605544 -0.3090137
vn -0.9510485 -0.004605537 -0.3090073
vn -0.9510463 -0.004653392 0.3090134
vn -0.9510571 -0.00465338 0.3089801
vn -0.5877787 -0.004818413 0.8090073
vn -0.5878306 -0.00481839 0.8089697
vn 0 -0.005037564 0.9999874
vn -6.850715E-05 -0.00503754 0.9999874
vn 0.5877772 -0.005227136 0.809006
vn 0.5877396 -0.005227126 0.8090333
vn 0.9510431 -0.005314732 0.3090127
vn 0.951041 -0.005314732 0.309019
vn 0.9510434 -0.005266896 -0.3090124
vn 0.9510324 -0.005266889 -0.3090464
vn 0.5877778 -0.005101894 -0.8090063
vn 0.5877258 -0.005101877 -0.8090441
vn -2.892621E-07 -0.00488274 -0.9999881
vn -6.850925E-05 -0.004882723 -0.9999881
g barrel_m700_remington_heavy_5_r_stainless_threaded_508mm_LOD1_0
f 3/3/3 2/2/2 1/1/1
f 4/4/4 3/3/3 1/1/1
f 3/3/3 5/5/5 2/2/2
f 5/5/5 6/6/6 2/2/2
f 5/5/5 7/7/7 6/6/6
f 7/7/7 8/8/8 6/6/6
f 7/7/7 9/9/9 8/8/8
f 9/9/9 10/10/10 8/8/8
f 9/9/9 11/11/11 10/10/10
f 11/11/11 12/12/12 10/10/10
f 11/11/11 13/13/13 12/12/12
f 13/13/13 14/14/14 12/12/12
f 13/13/13 15/15/15 14/14/14
f 15/15/15 16/16/16 14/14/14
f 15/15/15 17/17/17 16/16/16
f 17/17/17 18/18/18 16/16/16
f 17/17/17 19/19/19 18/18/18
f 19/19/19 20/20/20 18/18/18
f 19/19/19 21/21/21 20/20/20
f 21/21/21 22/22/22 20/20/20
f 25/25/25 24/24/24 23/23/23
f 26/26/26 25/25/25 23/23/23
f 25/25/25 26/26/26 27/27/27
f 28/28/28 25/25/25 27/27/27
f 28/28/28 27/27/27 29/29/29
f 30/30/30 28/28/28 29/29/29
f 30/30/30 29/29/29 31/31/31
f 32/32/32 30/30/30 31/31/31
f 35/35/35 34/34/34 33/33/33
f 36/36/36 35/35/35 33/33/33
f 37/37/37 35/35/35 36/36/36
f 38/38/38 37/37/37 36/36/36
f 39/39/39 37/37/37 38/38/38
f 40/40/40 39/39/39 38/38/38
f 41/41/41 39/39/39 40/40/40
f 42/42/42 41/41/41 40/40/40
f 43/43/43 41/41/41 42/42/42
f 44/44/44 43/43/43 42/42/42
f 45/45/45 43/43/43 44/44/44
f 46/46/46 45/45/45 44/44/44
f 47/47/47 45/45/45 46/46/46
f 48/48/48 47/47/47 46/46/46
f 49/49/49 47/47/47 48/48/48
f 50/50/50 49/49/49 48/48/48
f 51/51/51 49/49/49 50/50/50
f 52/52/52 51/51/51 50/50/50
f 53/53/53 51/51/51 52/52/52
f 54/54/54 53/53/53 52/52/52
f 57/57/57 56/56/56 55/55/55
f 58/58/58 57/57/57 55/55/55
f 59/59/59 57/57/57 58/58/58
f 60/60/60 59/59/59 58/58/58
f 61/61/61 59/59/59 60/60/60
f 62/62/62 61/61/61 60/60/60
f 63/63/63 61/61/61 62/62/62
f 64/64/64 63/63/63 62/62/62
f 65/65/65 63/63/63 64/64/64
f 66/66/66 65/65/65 64/64/64
f 67/67/67 65/65/65 66/66/66
f 68/68/68 67/67/67 66/66/66
f 69/69/69 67/67/67 68/68/68
f 70/70/70 69/69/69 68/68/68
f 71/71/71 69/69/69 70/70/70
f 72/72/72 71/71/71 70/70/70
f 73/73/73 71/71/71 72/72/72
f 74/74/74 73/73/73 72/72/72
f 75/75/75 73/73/73 74/74/74
f 76/76/76 75/75/75 74/74/74
f 79/79/79 78/78/78 77/77/77
f 80/80/80 79/79/79 77/77/77
f 79/79/79 80/80/80 81/81/81
f 82/82/82 79/79/79 81/81/81
f 82/82/82 81/81/81 83/83/83
f 84/84/84 82/82/82 83/83/83
f 84/84/84 83/83/83 85/85/85
f 86/86/86 84/84/84 85/85/85
f 89/89/89 88/88/88 87/87/87
f 90/90/90 89/89/89 87/87/87
f 89/89/89 90/90/90 91/91/91
f 92/92/92 89/89/89 91/91/91
f 92/92/92 91/91/91 93/93/93
f 94/94/94 92/92/92 93/93/93
f 94/94/94 93/93/93 95/95/95
f 96/96/96 94/94/94 95/95/95
f 99/99/99 98/98/98 97/97/97
f 100/100/100 99/99/99 97/97/97
f 97/97/97 98/98/98 101/101/101
f 98/98/98 102/102/102 101/101/101
f 101/101/101 102/102/102 103/103/103
f 102/102/102 104/104/104 103/103/103
f 103/103/103 104/104/104 105/105/105
f 104/104/104 106/106/106 105/105/105
f 105/105/105 106/106/106 107/107/107
f 106/106/106 108/108/108 107/107/107
f 107/107/107 108/108/108 109/109/109
f 108/108/108 110/110/110 109/109/109
f 109/109/109 110/110/110 111/111/111
f 110/110/110 112/112/112 111/111/111
f 111/111/111 112/112/112 113/113/113
f 112/112/112 114/114/114 113/113/113
f 117/117/117 116/116/116 115/115/115
f 118/118/118 117/117/117 115/115/115
f 117/117/117 118/118/118 119/119/119
f 120/120/120 117/117/117 119/119/119
f 121/121/121 115/115/115 116/116/116
f 122/122/122 120/120/120 119/119/119
f 125/125/125 124/124/124 123/123/123
f 126/126/126 125/125/125 123/123/123
f 127/127/127 125/125/125 126/126/126
f 128/128/128 127/127/127 126/126/126
f 129/129/129 127/127/127 128/128/128
f 130/130/130 129/129/129 128/128/128
f 131/131/131 129/129/129 130/130/130
f 132/132/132 131/131/131 130/130/130
f 133/133/133 131/131/131 132/132/132
f 134/134/134 133/133/133 132/132/132
f 135/135/135 133/133/133 134/134/134
f 136/136/136 135/135/135 134/134/134
f 137/137/137 135/135/135 136/136/136
f 138/138/138 137/137/137 136/136/136
f 139/139/139 137/137/137 138/138/138
f 140/140/140 139/139/139 138/138/138
f 141/141/141 139/139/139 140/140/140
f 142/142/142 141/141/141 140/140/140
f 143/143/143 141/141/141 142/142/142
f 144/144/144 143/143/143 142/142/142
