g barrel_57_fn_120mm_57x28_LOD1
v 0.00520926 -0.03707482 0.02256958
v 0.00520926 0.03149189 0.02256959
v 0.008441729 -0.03707481 0.01812047
v 0.008441729 0.03149189 0.01812048
v -2.098585E-05 0.03149189 0.024269
v -2.098585E-05 -0.03707482 0.02426899
v -0.005251229 0.03149189 0.02256959
v -0.005251229 -0.03707482 0.02256958
v -0.008483696 0.03149189 0.01812048
v -0.008483696 -0.03707481 0.01812047
v -0.008483696 0.03149189 0.01262109
v -0.008483696 -0.03707481 0.01262108
v 0.008441724 0.03149189 0.01262109
v 0.008441724 -0.03707481 0.01262108
v 0.005209256 -0.008156497 0.008171969
v 0.005209257 -0.03707481 0.008171962
v -2.098611E-05 -0.03707481 0.006472552
v -2.098611E-05 -0.008156497 0.006472557
v 0.005209256 0.01196918 0.008171969
v 0.005209256 0.0314919 0.008171969
v -2.098611E-05 0.01196918 0.00647256
v -2.098611E-05 0.0314919 0.00647256
v -0.005251227 -0.008156497 0.008171966
v -0.005251221 -0.0370748 0.00817196
v -2.098611E-05 -0.008156497 0.006472557
v -2.098611E-05 -0.03707481 0.006472552
v -0.005251227 0.01196918 0.008171969
v -0.005251227 0.0314919 0.008171969
v -2.098611E-05 0.0314919 0.00647256
v -2.098611E-05 0.01196918 0.00647256
v -0.005251227 0.0314919 0.008171969
v -0.005251229 0.03149189 0.02256959
v -0.008483696 0.03149189 0.01262109
v -0.008483696 0.03149189 0.01812048
v -2.098611E-05 0.0314919 0.00647256
v -2.098585E-05 0.03149189 0.024269
v 0.00520926 0.03149189 0.02256959
v 0.005209256 0.0314919 0.008171969
v 0.008441724 0.03149189 0.01262109
v 0.008441729 0.03149189 0.01812048
v 0.005331023 -0.09099711 0.01363179
v -0.005372995 -0.09099711 0.01363179
v 0.005331026 -0.09099711 0.01710973
v -0.005372995 -0.09099711 0.01710973
v -0.00332871 -0.09099711 0.01992345
v 0.00328674 -0.09099711 0.01992345
v 0.003286738 -0.09099711 0.01081807
v -0.003328709 -0.09099711 0.01081807
v -2.098513E-05 -0.09099711 0.0209982
v -2.09853E-05 -0.09099711 0.009743324
v 0.008441729 -0.03707481 0.01812047
v 0.005331026 -0.03707481 0.01710974
v 0.00520926 -0.03707482 0.02256958
v 0.00328674 -0.03707482 0.01992346
v -2.098585E-05 -0.03707482 0.02426899
v -2.098513E-05 -0.03707482 0.02099821
v -0.005251229 -0.03707482 0.02256958
v -0.00332871 -0.03707482 0.01992346
v -0.008483696 -0.03707481 0.01812047
v -0.005372995 -0.03707481 0.01710974
v -0.008483696 -0.03707481 0.01262108
v -0.005372995 -0.03707481 0.0136318
v -0.005251221 -0.0370748 0.00817196
v -0.003328709 -0.03707481 0.01081808
v -2.098611E-05 -0.03707481 0.006472552
v -2.09853E-05 -0.03707481 0.009743333
v 0.005209257 -0.03707481 0.008171962
v 0.003286738 -0.03707481 0.01081808
v 0.008441724 -0.03707481 0.01262108
v 0.005331023 -0.03707481 0.0136318
v 0.005331026 -0.03707481 0.01710974
v 0.005331026 -0.09099711 0.01710973
v 0.00328674 -0.03707482 0.01992346
v 0.00328674 -0.09099711 0.01992345
v -2.098513E-05 -0.03707482 0.02099821
v -2.098513E-05 -0.09099711 0.0209982
v -0.00332871 -0.03707482 0.01992346
v -0.00332871 -0.09099711 0.01992345
v -0.005372995 -0.03707481 0.01710974
v -0.005372995 -0.09099711 0.01710973
v -0.005372995 -0.03707481 0.0136318
v -0.005372995 -0.09099711 0.01363179
v -0.003328709 -0.03707481 0.01081808
v -0.003328709 -0.09099711 0.01081807
v -2.09853E-05 -0.03707481 0.009743333
v -2.09853E-05 -0.09099711 0.009743324
v 0.005331023 -0.09099711 0.01363179
v 0.005331023 -0.03707481 0.0136318
v 0.003286738 -0.09099711 0.01081807
v 0.003286738 -0.03707481 0.01081808
v -2.09853E-05 -0.09099711 0.009743324
v -2.09853E-05 -0.03707481 0.009743333
v -0.005251227 -0.008156495 -0.004983909
v 0.005209256 -0.008156495 -0.004983909
v -0.005251227 0.01196918 -0.004983906
v 0.005209256 0.01196918 -0.004983906
v -0.005251227 -0.008156497 0.008171966
v -0.005251227 -0.008156495 -0.004983909
v -0.005251227 0.01196918 0.008171969
v -0.005251227 0.01196918 -0.004983906
v -0.005251227 0.01196918 -0.004983906
v -2.098611E-05 0.01196918 0.00647256
v -0.005251227 0.01196918 0.008171969
v 0.005209256 0.01196918 -0.004983906
v 0.005209256 0.01196918 0.008171969
v 0.005209256 0.01196918 0.008171969
v 0.005209256 0.01196918 -0.004983906
v 0.005209256 -0.008156497 0.008171969
v 0.005209256 -0.008156495 -0.004983909
v -2.098611E-05 -0.008156497 0.006472557
v 0.005209256 -0.008156497 0.008171969
v 0.005209256 -0.008156495 -0.004983909
v -0.005251227 -0.008156495 -0.004983909
v -0.005251227 -0.008156497 0.008171966
vt 0.0139026 0.2171238
vt 0.6468155 0.2171247
vt 0.0139026 0.166361
vt 0.6468156 0.1663619
vt 0.6468154 0.2678876
vt 0.0139026 0.2678867
vt 0.6468155 0.3186505
vt 0.01390237 0.3186496
vt 0.6468154 0.3694134
vt 0.01390237 0.3694125
vt 0.6468153 0.4201763
vt 0.01390219 0.4201754
vt 0.6468157 0.115599
vt 0.01390278 0.1155984
vt 0.2808366 0.06483555
vt 0.01390278 0.06483537
vt 0.01390278 0.01407248
vt 0.2808369 0.01407272
vt 0.4666092 0.06483591
vt 0.6468157 0.06483603
vt 0.466609 0.01407295
vt 0.6468158 0.01407307
vt 0.2808361 0.4709386
vt 0.01390219 0.4709383
vt 0.2808361 0.5217015
vt 0.01390201 0.521701
vt 0.4666087 0.4709388
vt 0.6468153 0.4709391
vt 0.6468153 0.521702
vt 0.4666085 0.5217017
vt 0.9472219 0.6634576
vt 0.8189024 0.6634576
vt 0.9075689 0.6922671
vt 0.8585553 0.6922671
vt 0.962368 0.6168429
vt 0.8037563 0.6168429
vt 0.8189024 0.570228
vt 0.9472219 0.570228
vt 0.9075689 0.5414186
vt 0.8585553 0.5414184
vt 0.1107647 0.891202
vt 0.1107647 0.9866021
vt 0.1417621 0.891202
vt 0.1417621 0.9866021
vt 0.1668395 0.9683823
vt 0.1668395 0.9094219
vt 0.08568728 0.9094217
vt 0.08568728 0.9683823
vt 0.1764183 0.938902
vt 0.07610857 0.938902
vt 0.5901297 0.569339
vt 0.6143272 0.5865107
vt 0.6301607 0.5395674
vt 0.6396437 0.5676823
vt 0.680046 0.5390114
vt 0.6711922 0.5673308
vt 0.7207308 0.567883
vt 0.6969223 0.5855898
vt 0.7366752 0.6151546
vt 0.7070059 0.6154854
vt 0.7217889 0.66277
vt 0.6975914 0.6455986
vt 0.6817578 0.6925419
vt 0.6722749 0.6644269
vt 0.6318727 0.693098
vt 0.6407263 0.6647787
vt 0.5911878 0.6642264
vt 0.6149962 0.6465195
vt 0.5752434 0.6169546
vt 0.6049128 0.6166238
vt 0.7657452 0.009623349
vt 0.7657446 0.5116472
vt 0.7981251 0.009623408
vt 0.7981245 0.5116472
vt 0.8305054 0.009623408
vt 0.8305047 0.5116473
vt 0.8628858 0.009623498
vt 0.8628852 0.5116473
vt 0.8952659 0.009623498
vt 0.8952653 0.5116473
vt 0.927646 0.009623557
vt 0.9276454 0.5116473
vt 0.9600261 0.009623617
vt 0.9600257 0.5116475
vt 0.9924063 0.009623647
vt 0.9924058 0.5116475
vt 0.7333646 0.5116472
vt 0.7333652 0.009623319
vt 0.7009843 0.5116472
vt 0.7009848 0.009623319
vt 0.6686041 0.5116472
vt 0.6686047 0.009623259
vt 0.5470103 0.8755296
vt 0.5470103 0.9665411
vt 0.7221143 0.8755293
vt 0.7221143 0.9665411
vt 0.5565512 0.7166775
vt 0.5565512 0.8363714
vt 0.7396573 0.7166775
vt 0.7396573 0.8363714
vt 0.8761237 0.9716974
vt 0.9238474 0.8671617
vt 0.8761237 0.8516553
vt 0.9715712 0.9716974
vt 0.9715714 0.8516553
vt 0.9655654 0.8276613
vt 0.9655654 0.711455
vt 0.7877954 0.8276618
vt 0.7877952 0.7114555
vt 0.8065278 0.8661107
vt 0.759774 0.8509195
vt 0.7597737 0.9685205
vt 0.8532811 0.9685205
vt 0.8532814 0.8509195
vn 0.587785 -1.688164E-07 0.8090171
vn 0.5877851 -1.69325E-07 0.8090171
vn 0.9510565 0 0.3090168
vn 0.9510565 0 0.3090166
vn 0 -2.098035E-07 1
vn -1.415141E-07 -2.086613E-07 1
vn -0.5877852 -1.69291E-07 0.8090171
vn -0.5877852 -1.687824E-07 0.809017
vn -0.9510565 0 0.3090169
vn -0.9510565 0 0.3090171
vn -0.9510565 0 -0.3090166
vn -0.9510565 0 -0.309017
vn 0.9510565 0 -0.309017
vn 0.9510565 0 -0.3090172
vn 0.6714804 1.304548E-07 -0.7410223
vn 0.5877855 2.239595E-07 -0.8090168
vn 1.246821E-07 2.060668E-07 -1
vn 1.396439E-07 1.7286E-07 -1
vn 0.6714808 0 -0.741022
vn 0.5877856 0 -0.8090168
vn 0 0 -1
vn 0 0 -1
vn -0.6714805 1.248434E-07 -0.7410223
vn -0.5877851 0 -0.8090171
vn 1.396439E-07 1.7286E-07 -1
vn 1.246821E-07 2.060668E-07 -1
vn -0.6714807 0 -0.7410222
vn -0.5877855 0 -0.8090168
vn 0 0 -1
vn 0 0 -1
vn -1.741171E-07 1 3.311915E-07
vn -1.683734E-07 1 2.502601E-07
vn -8.918889E-07 1 2.897925E-07
vn 0 1 0
vn 0 1 3.153786E-07
vn 0 1 2.679396E-07
vn 1.683732E-07 1 2.502601E-07
vn 1.741171E-07 1 3.311915E-07
vn 8.918892E-07 1 2.897923E-07
vn 0 1 0
vn 0 -1 0
vn 0 -1 0
vn 0 -1 0
vn 0 -1 0
vn 0 -1 0
vn 0 -1 0
vn 0 -1 0
vn 0 -1 0
vn 0 -1 0
vn 0 -1 0
vn 1.408641E-07 -1 -4.335355E-07
vn 2.830551E-07 -1 -4.303642E-07
vn 3.69847E-07 -1 -4.28429E-07
vn 5.831333E-07 -1 -4.236719E-07
vn 0 -1 0
vn 0 -1 0
vn -3.687872E-07 -1 -2.679399E-07
vn -3.218316E-07 -1 -4.021917E-07
vn -2.931705E-07 -1 -4.841372E-07
vn -2.227372E-07 -1 -6.855148E-07
vn 1.408632E-07 -1 -4.335346E-07
vn -1.037786E-07 -1 -4.389917E-07
vn -8.587396E-07 -1 -9.033172E-07
vn -1.03099E-06 -1 -7.632903E-07
vn -2.920698E-07 -1 -2.223174E-07
vn 0 -1 0
vn 0 -1 0
vn 0 -1 0
vn 0 -1 0
vn 0 -1 0
vn 0.9510567 0 0.3090163
vn 0.9510567 0 0.3090163
vn 0.5877858 -1.431119E-07 0.8090166
vn 0.5877857 -1.441019E-07 0.8090166
vn 0 -1.768746E-07 1
vn 0 -1.765186E-07 1
vn -0.587786 -1.430543E-07 0.8090164
vn -0.5877859 -1.420414E-07 0.8090165
vn -0.9510567 0 0.3090165
vn -0.9510565 0 0.3090167
vn -0.9510565 0 -0.3090168
vn -0.9510565 0 -0.3090166
vn -0.5877855 1.430691E-07 -0.8090168
vn -0.5877856 1.420561E-07 -0.8090168
vn 0 1.768318E-07 -1
vn 0 1.754743E-07 -1
vn 0.9510565 0 -0.3090171
vn 0.9510565 0 -0.309017
vn 0.5877855 1.430429E-07 -0.8090168
vn 0.5877857 1.430543E-07 -0.8090166
vn 0 1.754743E-07 -1
vn 0 1.768318E-07 -1
vn 0 1.776974E-07 -1
vn 0 1.776974E-07 -1
vn 0 1.776974E-07 -1
vn 0 1.776974E-07 -1
vn -1 0 0
vn -1 0 0
vn -1 0 0
vn -1 0 0
vn 0 1 0
vn 0 1 0
vn 0 1 0
vn 0 1 0
vn 0 1 0
vn 1 0 0
vn 1 0 0
vn 1 0 0
vn 1 0 0
vn 0 -1 -1.873337E-07
vn 0 -1 -1.812259E-07
vn 0 -1 -2.007789E-07
vn 0 -1 -2.007789E-07
vn 0 -1 -1.812259E-07
g barrel_57_fn_120mm_57x28_LOD1_0
f 3/3/3 2/2/2 1/1/1
f 3/3/3 4/4/4 2/2/2
f 1/1/1 2/2/2 5/5/5
f 1/1/1 5/5/5 6/6/6
f 6/6/6 5/5/5 7/7/7
f 6/6/6 7/7/7 8/8/8
f 8/8/8 7/7/7 9/9/9
f 8/8/8 9/9/9 10/10/10
f 10/10/10 9/9/9 11/11/11
f 10/10/10 11/11/11 12/12/12
f 3/3/3 13/13/13 4/4/4
f 3/3/3 14/14/14 13/13/13
f 15/15/15 13/13/13 14/14/14
f 16/16/16 15/15/15 14/14/14
f 17/17/17 15/15/15 16/16/16
f 17/17/17 18/18/18 15/15/15
f 15/15/15 19/19/19 13/13/13
f 19/19/19 20/20/20 13/13/13
f 21/21/21 20/20/20 19/19/19
f 21/21/21 22/22/22 20/20/20
f 11/11/11 23/23/23 12/12/12
f 24/24/24 12/12/12 23/23/23
f 25/25/25 24/24/24 23/23/23
f 25/25/25 26/26/26 24/24/24
f 11/11/11 27/27/27 23/23/23
f 11/11/11 28/28/28 27/27/27
f 27/27/27 28/28/28 29/29/29
f 27/27/27 29/29/29 30/30/30
f 33/33/33 32/32/32 31/31/31
f 33/33/33 34/34/34 32/32/32
f 32/32/32 35/35/35 31/31/31
f 32/32/32 36/36/36 35/35/35
f 35/35/35 36/36/36 37/37/37
f 35/35/35 37/37/37 38/38/38
f 37/37/37 39/39/39 38/38/38
f 37/37/37 40/40/40 39/39/39
f 43/43/43 42/42/42 41/41/41
f 43/43/43 44/44/44 42/42/42
f 43/43/43 45/45/45 44/44/44
f 43/43/43 46/46/46 45/45/45
f 42/42/42 47/47/47 41/41/41
f 42/42/42 48/48/48 47/47/47
f 46/46/46 49/49/49 45/45/45
f 48/48/48 50/50/50 47/47/47
f 53/53/53 52/52/52 51/51/51
f 53/53/53 54/54/54 52/52/52
f 55/55/55 54/54/54 53/53/53
f 55/55/55 56/56/56 54/54/54
f 57/57/57 56/56/56 55/55/55
f 57/57/57 58/58/58 56/56/56
f 59/59/59 58/58/58 57/57/57
f 59/59/59 60/60/60 58/58/58
f 61/61/61 60/60/60 59/59/59
f 61/61/61 62/62/62 60/60/60
f 63/63/63 62/62/62 61/61/61
f 63/63/63 64/64/64 62/62/62
f 65/65/65 64/64/64 63/63/63
f 65/65/65 66/66/66 64/64/64
f 67/67/67 66/66/66 65/65/65
f 67/67/67 68/68/68 66/66/66
f 69/69/69 68/68/68 67/67/67
f 69/69/69 70/70/70 68/68/68
f 51/51/51 70/70/70 69/69/69
f 51/51/51 52/52/52 70/70/70
f 73/73/73 72/72/72 71/71/71
f 73/73/73 74/74/74 72/72/72
f 75/75/75 74/74/74 73/73/73
f 75/75/75 76/76/76 74/74/74
f 77/77/77 76/76/76 75/75/75
f 77/77/77 78/78/78 76/76/76
f 79/79/79 78/78/78 77/77/77
f 79/79/79 80/80/80 78/78/78
f 81/81/81 80/80/80 79/79/79
f 81/81/81 82/82/82 80/80/80
f 83/83/83 82/82/82 81/81/81
f 83/83/83 84/84/84 82/82/82
f 85/85/85 84/84/84 83/83/83
f 85/85/85 86/86/86 84/84/84
f 71/71/71 72/72/72 87/87/87
f 71/71/71 87/87/87 88/88/88
f 88/88/88 87/87/87 89/89/89
f 88/88/88 89/89/89 90/90/90
f 90/90/90 89/89/89 91/91/91
f 90/90/90 91/91/91 92/92/92
f 95/95/95 94/94/94 93/93/93
f 95/95/95 96/96/96 94/94/94
f 99/99/99 98/98/98 97/97/97
f 99/99/99 100/100/100 98/98/98
f 103/103/103 102/102/102 101/101/101
f 102/102/102 104/104/104 101/101/101
f 102/102/102 105/105/105 104/104/104
f 108/108/108 107/107/107 106/106/106
f 108/108/108 109/109/109 107/107/107
f 112/112/112 111/111/111 110/110/110
f 112/112/112 110/110/110 113/113/113
f 110/110/110 114/114/114 113/113/113
