g barrel_mosin_izhmash_mosin_carabine_514mm_LOD1
v -0.008393583 -0.1420365 0.01569611
v -0.008433885 -0.1298247 0.01578321
v -0.008415679 -0.1359326 0.02134371
v -0.008393583 -0.1420365 0.006954708
v -0.008468585 -0.1151656 0.01585731
v -0.008631897 -0.0881077 0.00715003
v -0.008631897 -0.0881077 0.01329253
v 0.008515012 -0.1151656 0.01585731
v 0.008440022 -0.1420365 0.006954708
v 0.008480317 -0.1298247 0.01578321
v 0.008678302 -0.08810769 0.00715003
v 0.008678302 -0.0881077 0.01329253
v 0.008440022 -0.1420365 0.01569611
v 0.008462119 -0.1359326 0.02134371
v 0.008678302 -0.08810769 0.00715003
v 0.008678302 -0.0881077 0.01329253
v 2.32029E-05 -0.0881077 0.01008733
v -0.008631897 -0.0881077 0.01329253
v -0.008631897 -0.0881077 0.00715003
v 2.322197E-05 -0.1420365 0.009811105
v 0.008440022 -0.1420365 0.01569611
v 0.008440022 -0.1420365 0.006954708
v -0.008393583 -0.1420365 0.01569611
v -0.008393583 -0.1420365 0.006954708
v -0.008415679 -0.1359326 0.02134371
v 0.008462119 -0.1359326 0.02134371
v -0.008631897 -0.0881077 0.00715003
v -0.010041 -0.0780082 5.893469E-05
v -0.0070932 -0.0780082 0.007175336
v -0.008393583 -0.1420365 0.006954708
v -0.007730455 -0.530134 5.871773E-05
v -0.005459456 -0.5301341 0.00554142
v 2.322197E-05 -0.1420365 0.009811105
v 2.334356E-05 -0.5301341 0.007812419
v 0.005506143 -0.5301341 0.00554142
v 0.008440022 -0.1420365 0.006954708
v 0.007777142 -0.530134 5.871773E-05
v 0.0100874 -0.07800819 5.893469E-05
v 0.008678302 -0.08810769 0.00715003
v 0.007139599 -0.07800819 0.007175336
v 0.005506143 -0.530134 -0.005424082
v 0.007139599 -0.07800818 -0.007057564
v -0.0070932 -0.07800819 -0.007057564
v -0.005459456 -0.530134 -0.005424082
v 2.320051E-05 -0.07800819 -0.01000526
v 2.334356E-05 -0.530134 -0.007695081
v 2.334356E-05 -0.530134 -0.007695081
v 2.320051E-05 -0.07800819 -0.01000526
v -0.007730455 -0.530134 5.871773E-05
v 0.005506143 -0.530134 -0.005424082
v -0.005459456 -0.530134 -0.005424082
v 2.334356E-05 -0.530134 -0.007695081
v 0.007777142 -0.530134 5.871773E-05
v -0.005459456 -0.5301341 0.00554142
v 0.005506143 -0.5301341 0.00554142
v 2.334356E-05 -0.5301341 0.007812419
v 2.318382E-05 -0.023876 0.01586136
v 2.319813E-05 -0.0693624 0.01451814
v -0.01115081 -0.023876 0.01123296
v -0.01020101 -0.0693624 0.01028314
v -0.01577931 -0.023876 5.896091E-05
v -0.01443611 -0.0693624 5.893945E-05
v 0.0102474 -0.06936239 0.01028314
v 0.01119718 -0.023876 0.01123296
v -0.01115081 -0.02387598 -0.01111514
v -0.01020101 -0.06936239 -0.01016536
v 2.318382E-05 -0.02387598 -0.01574354
v 2.319813E-05 -0.06936239 -0.01440036
v 0.0144825 -0.06936239 5.893945E-05
v 0.01582568 -0.02387599 5.896091E-05
v 0.0102474 -0.06936239 -0.01016536
v 0.01119718 -0.02387598 -0.01111514
v 2.319813E-05 -0.06936239 -0.01440036
v 2.318382E-05 -0.02387598 -0.01574354
v -0.01443611 -0.0693624 5.893945E-05
v -0.010041 -0.0780082 5.893469E-05
v -0.01020101 -0.06936239 -0.01016536
v -0.0070932 -0.07800819 -0.007057564
v -0.0070932 -0.0780082 0.007175336
v -0.01020101 -0.0693624 0.01028314
v 2.320051E-05 -0.0780082 0.01012303
v 2.319813E-05 -0.0693624 0.01451814
v 0.007139599 -0.07800819 0.007175336
v 0.0102474 -0.06936239 0.01028314
v 0.0100874 -0.07800819 5.893469E-05
v 0.0144825 -0.06936239 5.893945E-05
v 0.007139599 -0.07800818 -0.007057564
v 0.0102474 -0.06936239 -0.01016536
v 2.319813E-05 -0.06936239 -0.01440036
v 2.320051E-05 -0.07800819 -0.01000526
v 2.320051E-05 -0.07800819 -0.01000526
v 2.319813E-05 -0.06936239 -0.01440036
v 0.008678302 -0.0881077 0.01329253
v 0.008515012 -0.1151656 0.01585731
v -0.008631897 -0.0881077 0.01329253
v -0.008468585 -0.1151656 0.01585731
v -0.008433885 -0.1298247 0.01578321
v 0.008480317 -0.1298247 0.01578321
v -0.008415679 -0.1359326 0.02134371
v 0.008462119 -0.1359326 0.02134371
v 0.01582568 -0.02387599 5.896091E-05
v 0.01227008 -0.02387599 5.896091E-05
v 0.01119718 -0.02387598 -0.01111514
v 0.008683083 -0.02387599 -0.008600938
v 0.01119718 -0.023876 0.01123296
v 0.008683083 -0.02387599 0.008718758
v 2.318382E-05 -0.023876 0.01586136
v 2.318382E-05 -0.023876 0.01230586
v -0.008636713 -0.02387599 0.008718758
v -0.01115081 -0.023876 0.01123296
v -0.01577931 -0.023876 5.896091E-05
v -0.01222372 -0.02387599 5.896091E-05
v -0.008636713 -0.02387599 -0.008600938
v -0.01115081 -0.02387598 -0.01111514
v 2.318382E-05 -0.02387598 -0.01574354
v 2.318382E-05 -0.02387598 -0.01218794
v 2.318382E-05 -0.02387598 -0.01218794
v 2.318382E-05 -0.02387598 -0.01574354
v -0.008636713 -0.02387599 -0.008600938
v -0.008636722 -0.001919098 -0.008600929
v -0.01222372 -0.02387599 5.896091E-05
v -0.01222373 -0.001919098 5.897045E-05
v 2.318382E-05 -0.02387598 -0.01218794
v 2.317667E-05 -0.0006540871 -0.01218793
v -0.008636713 -0.02387599 0.008718758
v -0.008636722 -0.001919098 0.008718772
v 2.318382E-05 -0.023876 0.01230586
v 2.317667E-05 -0.0004771042 0.01230587
v 0.008683083 -0.02387599 0.008718758
v 0.008683076 -0.0001140976 0.008718772
v 0.01227008 -0.02387599 5.896091E-05
v 0.01227008 -0.0001140976 5.897045E-05
v 0.008683083 -0.02387599 -0.008600938
v 0.008683076 -0.0001140976 -0.008600929
v 2.317667E-05 -0.0006540871 -0.01218793
v 2.318382E-05 -0.02387598 -0.01218794
v -0.01222373 -0.001919098 5.897045E-05
v 0.008683076 -0.0001140976 -0.008600929
v -0.008636722 -0.001919098 0.008718772
v 0.01227008 -0.0001140976 5.897045E-05
v 2.317667E-05 -0.0004771042 0.01230587
v 0.008683076 -0.0001140976 0.008718772
v -0.008636722 -0.001919098 -0.008600929
v 2.317667E-05 -0.0006540871 -0.01218793
v -0.005470762 -0.5198171 0.005676928
v -0.005471866 -0.5053231 0.005677233
v -0.005470762 -0.5198171 0.01136302
v -0.005471864 -0.5066561 0.01136333
v 0.005484638 -0.5198171 0.005676928
v -0.005470762 -0.5198171 0.005676928
v 0.005484638 -0.5198171 0.01136302
v -0.005470762 -0.5198171 0.01136302
v 0.008678302 -0.08810769 0.00715003
v 2.32029E-05 -0.0881077 0.01008733
v 0.007139599 -0.07800819 0.007175336
v 2.320051E-05 -0.0780082 0.01012303
v -0.0070932 -0.0780082 0.007175336
v -0.008631897 -0.0881077 0.00715003
v 0.005484638 -0.5198171 0.01136302
v -0.005470762 -0.5198171 0.01136302
v 0.005483537 -0.5066561 0.01136343
v -0.005471864 -0.5066561 0.01136333
v 0.005483537 -0.5066561 0.01136343
v 0.005483534 -0.5053231 0.005677333
v 0.005484638 -0.5198171 0.01136302
v 0.005484638 -0.5198171 0.005676928
v -0.005471866 -0.5053231 0.005677233
v 0.005483534 -0.5053231 0.005677333
v -0.005471864 -0.5066561 0.01136333
v 0.005483537 -0.5066561 0.01136343
vt 0.718161 0.969863
vt 0.716615 0.876235
vt 0.697368 0.915716
vt 0.765047 0.970003
vt 0.720946 0.795786
vt 0.765047 0.627549
vt 0.738045 0.627469
vt 0.812619 0.6786
vt 0.861827 0.557105
vt 0.813932 0.60779
vt 0.861827 0.829948
vt 0.812619 0.830012
vt 0.815461 0.557216
vt 0.794899 0.586464
vt 0.938426 0.88606
vt 0.911425 0.88606
vt 0.927572 0.918828
vt 0.911425 0.951596
vt 0.938426 0.951596
vt 0.835581 0.961429
vt 0.804478 0.924208
vt 0.804478 0.972243
vt 0.866685 0.924208
vt 0.866685 0.972243
vt 0.866766 0.88606
vt 0.804396 0.88606
vt 0.266257 0.821055
vt 0.192698 0.841899
vt 0.266257 0.841899
vt 0.266257 0.721466
vt 0.196593 0.0403191
vt 0.275771 0.0403597
vt 0.354987 0.721478
vt 0.35495 0.0403694
vt 0.434129 0.0403597
vt 0.443728 0.721466
vt 0.513306 0.0403191
vt 0.517289 0.841899
vt 0.443728 0.821055
vt 0.443728 0.841899
vt 0.592482 0.0402569
vt 0.592853 0.841899
vt 0.117132 0.841899
vt 0.117417 0.0402569
vt 0.0399069 0.841899
vt 0.0399069 0.0401751
vt 0.670036 0.0401751
vt 0.670036 0.841899
vt 0.906979 0.448962
vt 0.944416 0.410607
vt 0.906979 0.426494
vt 0.922486 0.410607
vt 0.959923 0.426494
vt 0.922486 0.464849
vt 0.959923 0.448962
vt 0.944416 0.464849
vt 0.712978 0.215546
vt 0.90636 0.215546
vt 0.712978 0.171703
vt 0.90636 0.171703
vt 0.712978 0.127861
vt 0.90636 0.127861
vt 0.90636 0.259389
vt 0.712978 0.259389
vt 0.712978 0.0840178
vt 0.90636 0.0840178
vt 0.712978 0.0401751
vt 0.90636 0.0401751
vt 0.90636 0.303231
vt 0.712978 0.303231
vt 0.90636 0.347074
vt 0.712978 0.347074
vt 0.90636 0.390917
vt 0.712978 0.390917
vt 0.90942 0.627625
vt 0.947478 0.627625
vt 0.90942 0.592365
vt 0.947478 0.592365
vt 0.947478 0.662885
vt 0.90942 0.662885
vt 0.947478 0.698146
vt 0.90942 0.698146
vt 0.947478 0.733406
vt 0.90942 0.733406
vt 0.947478 0.768666
vt 0.90942 0.768666
vt 0.947478 0.803926
vt 0.90942 0.803926
vt 0.90942 0.557105
vt 0.947478 0.557105
vt 0.947478 0.839186
vt 0.90942 0.839186
vt 0.380986 0.971369
vt 0.524109 0.970571
vt 0.380986 0.886828
vt 0.524109 0.887625
vt 0.608304 0.887795
vt 0.608304 0.970402
vt 0.662634 0.887884
vt 0.662634 0.970313
vt 0.94156 0.126897
vt 0.956084 0.126897
vt 0.94156 0.0835386
vt 0.956084 0.0835386
vt 0.94156 0.170255
vt 0.956084 0.170255
vt 0.94156 0.213614
vt 0.956084 0.213614
vt 0.956084 0.256972
vt 0.94156 0.256972
vt 0.94156 0.30033
vt 0.956084 0.30033
vt 0.956084 0.343688
vt 0.94156 0.343688
vt 0.94156 0.0401804
vt 0.956084 0.0401804
vt 0.956084 0.387047
vt 0.94156 0.387047
vt 0.296341 0.973439
vt 0.296341 0.88606
vt 0.259848 0.973439
vt 0.259848 0.88606
vt 0.332999 0.973439
vt 0.332999 0.88606
vt 0.223356 0.973439
vt 0.223356 0.88606
vt 0.186649 0.973439
vt 0.186649 0.88606
vt 0.150143 0.973439
vt 0.150143 0.88606
vt 0.11365 0.973439
vt 0.11365 0.88606
vt 0.077158 0.973439
vt 0.077158 0.88606
vt 0.0406353 0.88606
vt 0.0406353 0.973439
vt 0.737257 0.517809
vt 0.796388 0.456844
vt 0.712686 0.492795
vt 0.771818 0.43183
vt 0.712658 0.45689
vt 0.737179 0.431789
vt 0.771895 0.517809
vt 0.796514 0.49239
vt 0.752852 0.591667
vt 0.752852 0.553379
vt 0.775335 0.591667
vt 0.775335 0.553379
vt 0.376282 0.813114
vt 0.376282 0.776408
vt 0.397295 0.813114
vt 0.397295 0.776408
vt 0.834976 0.431789
vt 0.834976 0.463499
vt 0.872523 0.431789
vt 0.872523 0.463499
vt 0.872523 0.495209
vt 0.834976 0.495209
vt 0.9488 0.478782
vt 0.948797 0.515487
vt 0.911428 0.478782
vt 0.911425 0.515487
vt 0.713099 0.557105
vt 0.735582 0.557106
vt 0.713099 0.595393
vt 0.735582 0.595393
vt 0.335661 0.797936
vt 0.299834 0.797936
vt 0.33566 0.776408
vt 0.299833 0.776408
vn -0.9999946 -0.003299463 -0.0001111511
vn -0.9999959 -0.00269008 -0.0009102113
vn -0.9999945 -0.003297771 -0.0003483341
vn -0.9999942 -0.003346178 0.00074879
vn -0.9999827 -0.004335966 0.00396477
vn -0.9999832 -0.00571575 0.0009937406
vn -0.9999818 -0.006035529 0
vn 0.9999827 -0.004335363 0.003964365
vn 0.9999942 -0.003345636 0.0007487527
vn 0.9999959 -0.002689663 -0.0009100982
vn 0.9999832 -0.005714992 0.0009936324
vn 0.9999818 -0.006034736 0
vn 0.9999946 -0.003298875 -0.0001113546
vn 0.9999945 -0.00329718 -0.000348972
vn -4.91076E-07 1 5.822185E-07
vn -4.579432E-07 1 4.92749E-07
vn -3.443325E-07 1 3.283164E-07
vn -2.307218E-07 1 4.92749E-07
vn -1.975889E-07 1 5.822185E-07
vn 2.83265E-07 -1 -4.744513E-07
vn 2.920365E-07 -0.9161323 0.4008762
vn 3.81407E-07 -1 -5.45493E-07
vn 2.26785E-07 -0.9161323 0.4008761
vn 1.851231E-07 -1 -5.45493E-07
vn 1.922291E-07 -0.6791389 0.7340098
vn 1.918726E-07 -0.6791388 0.7340099
vn -0.9730499 0.0251761 0.229216
vn -0.9983168 0.0417118 -0.04029671
vn -0.914978 0.1384506 0.3790077
vn -0.8656022 -0.006036009 0.500696
vn -0.9999744 -0.007065864 -0.001163415
vn -0.7062687 -0.007116308 0.7079081
vn 5.960308E-07 -0.006197021 0.9999808
vn 0 -0.005149891 0.9999868
vn 0.7062688 -0.00711586 0.707908
vn 0.8656021 -0.00603546 0.5006961
vn 0.9999744 -0.007065355 -0.001162618
vn 0.9983166 0.04171244 -0.04029718
vn 0.9730498 0.02517672 0.2292161
vn 0.9149777 0.1384512 0.3790079
vn 0.707098 -0.00510942 -0.707097
vn 0.7070946 -0.005109341 -0.7071005
vn -0.7070956 -0.005109841 -0.7070995
vn -0.7070973 -0.005109807 -0.7070978
vn -5.140367E-07 -0.005109487 -0.999987
vn 8.819421E-07 -0.005109472 -0.999987
vn 8.819421E-07 -0.005109472 -0.999987
vn -5.140367E-07 -0.005109487 -0.999987
vn 0 -1 -3.478839E-06
vn 0 -1 0
vn 0 -1 0
vn 0 -1 0
vn 0 -1 -3.478839E-06
vn 0 -1 -5.798098E-06
vn 0 -1 -5.798098E-06
vn 0 -1 0
vn 0 -0.02951737 0.9995642
vn 2.038803E-07 -0.02951736 0.9995642
vn -0.706796 -0.02951751 0.7068014
vn -0.7067959 -0.0295174 0.7068016
vn -0.9995642 -0.02951722 1.654673E-06
vn -0.9995642 -0.02951722 1.875703E-06
vn 0.7067957 -0.02951714 0.7068017
vn 0.7067959 -0.02951709 0.7068014
vn -0.7067968 -0.02951684 -0.7068006
vn -0.7067969 -0.02951688 -0.7068005
vn -2.404441E-07 -0.02951648 -0.9995642
vn 0 -0.02951651 -0.9995642
vn 0.9995642 -0.02951677 1.529106E-06
vn 0.9995642 -0.02951673 1.261688E-06
vn 0.7067972 -0.02951649 -0.7068003
vn 0.7067971 -0.02951653 -0.7068003
vn 0 -0.02951651 -0.9995642
vn -2.404441E-07 -0.02951648 -0.9995642
vn -0.8914291 -0.4531602 1.592442E-06
vn -0.8914292 -0.45316 2.530466E-06
vn -0.6303345 -0.4531584 -0.6303379
vn -0.6303335 -0.4531588 -0.6303385
vn -0.6303324 -0.4531587 0.6303399
vn -0.6303334 -0.4531595 0.6303383
vn -1.092287E-07 -0.4531596 0.8914294
vn 0 -0.4531596 0.8914294
vn 0.6303321 -0.453159 0.6303399
vn 0.6303338 -0.4531582 0.6303388
vn 0.8914295 -0.4531594 1.356257E-06
vn 0.8914297 -0.4531591 9.440905E-07
vn 0.6303341 -0.4531578 -0.6303386
vn 0.6303348 -0.4531583 -0.6303377
vn 3.639852E-07 -0.4531586 -0.89143
vn 4.460171E-07 -0.4531585 -0.89143
vn 4.460171E-07 -0.4531585 -0.89143
vn 3.639852E-07 -0.4531586 -0.89143
vn 0 0.09436557 0.9955376
vn 0 0.04484311 0.9989941
vn 0 0.09436557 0.9955376
vn 0 0.0448431 0.9989941
vn -1.008857E-07 0.3580371 0.9337074
vn -1.010919E-07 0.3580371 0.9337074
vn -1.899019E-07 0.6731938 0.7394661
vn -1.901929E-07 0.6731938 0.7394661
vn 0 1 8.534726E-07
vn 0 1 8.92425E-07
vn -1.558537E-06 1 1.864155E-06
vn -1.729329E-06 1 1.693754E-06
vn 1.558532E-06 1 1.864158E-06
vn 1.729331E-06 1 1.693763E-06
vn 0 1 6.761352E-07
vn 0 1 0
vn -1.72932E-06 1 1.693768E-06
vn -1.896601E-06 1 1.896626E-06
vn -2.158186E-06 1 4.321981E-07
vn -2.682177E-06 1 0
vn 5.893463E-07 1 2.63012E-06
vn 8.618554E-07 1 2.45323E-06
vn 2.717923E-07 1 3.380672E-07
vn 5.757552E-07 1 2.617313E-07
vn 5.757552E-07 1 2.617313E-07
vn 2.717923E-07 1 3.380672E-07
vn -0.7071066 0 -0.7071068
vn -0.6950122 0 -0.718998
vn -1 -4.343403E-07 1.991985E-06
vn -1 -4.677647E-07 2.166541E-06
vn 0 4.000274E-07 -1
vn 0.02589685 4.135519E-07 -0.9996645
vn -0.7071087 -7.343859E-07 0.7071048
vn -0.6934097 -7.331809E-07 0.7205435
vn 0 -6.460795E-07 1
vn 0.02616993 -6.00146E-07 0.9996575
vn 0.7071089 -2.156485E-07 0.7071046
vn 0.7107531 -1.775283E-07 0.7034415
vn 1 2.693893E-07 1.930378E-06
vn 1 3.010087E-07 2.06386E-06
vn 0.7071069 5.012628E-07 -0.7071066
vn 0.7125506 4.960773E-07 -0.7016206
vn 0.02589685 4.135519E-07 -0.9996645
vn 0 4.000274E-07 -1
vn -0.08357766 0.9964837 0.005925258
vn -0.0835051 0.9960586 0.02990349
vn -0.09074322 0.9958078 -0.01151508
vn -0.0783785 0.9969234 0.000707629
vn -0.1125382 0.990159 -0.08318914
vn -0.05052405 0.9985036 -0.02092771
vn -0.1036356 0.9944307 -0.01916534
vn -0.1031349 0.9896264 0.100014
vn -1 -7.616094E-05 0
vn -1 -8.15926E-05 -1.384621E-05
vn -1 -7.795366E-05 -4.569952E-06
vn -1 -8.369326E-05 -1.920115E-05
vn 0 -1 0
vn 0 -1 0
vn 0 -1 0
vn 0 -1 0
vn 0.3210218 0.04653893 0.9459276
vn 0 0.02763758 0.9996181
vn 0.3544323 0.01980919 0.9348719
vn 0 -0.003534885 0.9999938
vn -0.3544323 0.01980899 0.9348719
vn -0.3210218 0.0465387 0.9459276
vn 0 -3.079639E-05 1
vn -4.039439E-06 -2.743424E-05 1
vn -5.100875E-06 -2.655078E-05 1
vn -9.140314E-06 -2.318863E-05 1
vn 1 8.369311E-05 1.920111E-05
vn 1 8.159251E-05 1.38462E-05
vn 1 7.795363E-05 4.569939E-06
vn 1 7.616095E-05 0
vn -2.086228E-06 0.9736039 0.2282447
vn -2.086229E-06 0.9736039 0.2282447
vn -2.086229E-06 0.9736039 0.2282447
vn -2.086228E-06 0.9736039 0.2282447
g barrel_mosin_izhmash_mosin_carabine_514mm_LOD1_0
f 3/3/3 2/2/2 1/1/1
f 1/1/1 2/2/2 4/4/4
f 2/2/2 5/5/5 4/4/4
f 4/4/4 5/5/5 6/6/6
f 7/7/7 6/6/6 5/5/5
f 10/10/10 9/9/9 8/8/8
f 9/9/9 11/11/11 8/8/8
f 12/12/12 8/8/8 11/11/11
f 13/13/13 9/9/9 10/10/10
f 14/14/14 13/13/13 10/10/10
f 17/17/17 16/16/16 15/15/15
f 17/17/17 18/18/18 16/16/16
f 18/18/18 17/17/17 19/19/19
f 22/22/22 21/21/21 20/20/20
f 23/23/23 20/20/20 21/21/21
f 20/20/20 23/23/23 24/24/24
f 21/21/21 25/25/25 23/23/23
f 25/25/25 21/21/21 26/26/26
f 29/29/29 28/28/28 27/27/27
f 27/27/27 28/28/28 30/30/30
f 28/28/28 31/31/31 30/30/30
f 32/32/32 30/30/30 31/31/31
f 32/32/32 33/33/33 30/30/30
f 33/33/33 32/32/32 34/34/34
f 35/35/35 33/33/33 34/34/34
f 33/33/33 35/35/35 36/36/36
f 35/35/35 37/37/37 36/36/36
f 38/38/38 36/36/36 37/37/37
f 39/39/39 36/36/36 38/38/38
f 40/40/40 39/39/39 38/38/38
f 37/37/37 41/41/41 38/38/38
f 42/42/42 38/38/38 41/41/41
f 28/28/28 43/43/43 31/31/31
f 44/44/44 31/31/31 43/43/43
f 43/43/43 45/45/45 44/44/44
f 46/46/46 44/44/44 45/45/45
f 41/41/41 47/47/47 42/42/42
f 48/48/48 42/42/42 47/47/47
f 51/51/51 50/50/50 49/49/49
f 50/50/50 51/51/51 52/52/52
f 53/53/53 49/49/49 50/50/50
f 49/49/49 53/53/53 54/54/54
f 55/55/55 54/54/54 53/53/53
f 54/54/54 55/55/55 56/56/56
f 59/59/59 58/58/58 57/57/57
f 58/58/58 59/59/59 60/60/60
f 61/61/61 60/60/60 59/59/59
f 60/60/60 61/61/61 62/62/62
f 63/63/63 57/57/57 58/58/58
f 57/57/57 63/63/63 64/64/64
f 65/65/65 62/62/62 61/61/61
f 62/62/62 65/65/65 66/66/66
f 67/67/67 66/66/66 65/65/65
f 66/66/66 67/67/67 68/68/68
f 69/69/69 64/64/64 63/63/63
f 64/64/64 69/69/69 70/70/70
f 71/71/71 70/70/70 69/69/69
f 70/70/70 71/71/71 72/72/72
f 73/73/73 72/72/72 71/71/71
f 72/72/72 73/73/73 74/74/74
f 77/77/77 76/76/76 75/75/75
f 76/76/76 77/77/77 78/78/78
f 79/79/79 75/75/75 76/76/76
f 75/75/75 79/79/79 80/80/80
f 81/81/81 80/80/80 79/79/79
f 80/80/80 81/81/81 82/82/82
f 83/83/83 82/82/82 81/81/81
f 82/82/82 83/83/83 84/84/84
f 85/85/85 84/84/84 83/83/83
f 84/84/84 85/85/85 86/86/86
f 87/87/87 86/86/86 85/85/85
f 86/86/86 87/87/87 88/88/88
f 89/89/89 78/78/78 77/77/77
f 78/78/78 89/89/89 90/90/90
f 91/91/91 88/88/88 87/87/87
f 88/88/88 91/91/91 92/92/92
f 95/95/95 94/94/94 93/93/93
f 94/94/94 95/95/95 96/96/96
f 97/97/97 94/94/94 96/96/96
f 94/94/94 97/97/97 98/98/98
f 99/99/99 98/98/98 97/97/97
f 98/98/98 99/99/99 100/100/100
f 103/103/103 102/102/102 101/101/101
f 102/102/102 103/103/103 104/104/104
f 102/102/102 105/105/105 101/101/101
f 105/105/105 102/102/102 106/106/106
f 106/106/106 107/107/107 105/105/105
f 107/107/107 106/106/106 108/108/108
f 109/109/109 107/107/107 108/108/108
f 107/107/107 109/109/109 110/110/110
f 109/109/109 111/111/111 110/110/110
f 111/111/111 109/109/109 112/112/112
f 113/113/113 111/111/111 112/112/112
f 111/111/111 113/113/113 114/114/114
f 115/115/115 104/104/104 103/103/103
f 104/104/104 115/115/115 116/116/116
f 117/117/117 114/114/114 113/113/113
f 114/114/114 117/117/117 118/118/118
f 121/121/121 120/120/120 119/119/119
f 120/120/120 121/121/121 122/122/122
f 120/120/120 123/123/123 119/119/119
f 123/123/123 120/120/120 124/124/124
f 125/125/125 122/122/122 121/121/121
f 122/122/122 125/125/125 126/126/126
f 127/127/127 126/126/126 125/125/125
f 126/126/126 127/127/127 128/128/128
f 129/129/129 128/128/128 127/127/127
f 128/128/128 129/129/129 130/130/130
f 131/131/131 130/130/130 129/129/129
f 130/130/130 131/131/131 132/132/132
f 133/133/133 132/132/132 131/131/131
f 132/132/132 133/133/133 134/134/134
f 133/133/133 135/135/135 134/134/134
f 135/135/135 133/133/133 136/136/136
f 139/139/139 138/138/138 137/137/137
f 138/138/138 139/139/139 140/140/140
f 141/141/141 140/140/140 139/139/139
f 140/140/140 141/141/141 142/142/142
f 138/138/138 143/143/143 137/137/137
f 143/143/143 138/138/138 144/144/144
f 147/147/147 146/146/146 145/145/145
f 146/146/146 147/147/147 148/148/148
f 151/151/151 150/150/150 149/149/149
f 150/150/150 151/151/151 152/152/152
f 155/155/155 154/154/154 153/153/153
f 154/154/154 155/155/155 156/156/156
f 157/157/157 154/154/154 156/156/156
f 154/154/154 157/157/157 158/158/158
f 161/161/161 160/160/160 159/159/159
f 160/160/160 161/161/161 162/162/162
f 165/165/165 164/164/164 163/163/163
f 164/164/164 165/165/165 166/166/166
f 169/169/169 168/168/168 167/167/167
f 168/168/168 169/169/169 170/170/170
