g barrel_870_fixed_improved_cylinder_508mm_LOD1
v 0.007784995 -0.1095603 0.007976466
v 0.0110805 0.0006085706 0.01144105
v 0.01577252 0.0006085706 -0.0004664683
v 0.01111191 -0.1095603 -0.0004664683
v -0.0002460626 -0.1095603 0.01147402
v -0.0002460625 0.0006085706 0.01637373
v -0.008277097 -0.1095603 0.007976466
v -0.01157262 0.0006085706 0.01144105
v -0.01160403 -0.1095603 -0.0004664683
v -0.01626464 0.0006085706 -0.0004664683
v -0.008277097 -0.1095603 -0.008909403
v -0.01157262 0.0006085706 -0.01237399
v -0.0002460626 -0.1095603 -0.01240696
v -0.0002460625 0.0006085706 -0.01730667
v 0.007784995 -0.1095603 -0.008909403
v 0.0110805 0.0006085706 -0.01237399
v 0.0110805 0.0006085706 -0.01237399
v 0.007784995 -0.1095603 -0.008909403
v -0.0002460624 0.03460729 0.01637373
v 0.0110805 0.03460729 0.01144105
v 0.01577252 0.03460729 -0.0004664683
v -0.01157262 0.03460729 0.01144105
v 0.0110805 0.03460729 -0.01237399
v -0.01157262 0.03460729 0.01144105
v 0.0110805 0.03460729 -0.01237399
v 0.01577252 0.03460729 -0.0004664683
v -0.0002460624 0.03460729 0.01637373
v 0.0110805 0.03460729 0.01144105
v 0.007784995 -0.4878227 0.007976466
v 0.0111119 -0.4878227 -0.0004664683
v 0.007784995 -0.4878227 -0.008909403
v -0.0002460624 -0.4878227 -0.01240696
v -0.008277095 -0.4878227 0.007976466
v -0.01160403 -0.4878227 -0.0004664683
v -0.008277095 -0.4878227 -0.008909403
v -0.0002460624 -0.4878227 0.01147402
v 0.007784995 -0.1095603 0.007976466
v 0.01111191 -0.1095603 -0.0004664683
v 0.01111191 -0.3022176 -0.0004664683
v 0.007784996 -0.3022176 0.007976468
v -0.0002460626 -0.1095603 0.01147402
v -0.0002460625 -0.3022176 0.01147402
v -0.008277097 -0.1095603 0.007976466
v -0.008277095 -0.3022176 0.007976468
v -0.01160403 -0.1095603 -0.0004664683
v -0.01160403 -0.3022176 -0.0004664683
v 0.007784996 -0.2954575 -0.008909403
v 0.007784995 -0.1095603 -0.008909403
v -0.0002460626 -0.1095603 -0.01240696
v -0.0002460625 -0.2954575 -0.01240696
v -0.008277095 -0.2954575 -0.008909403
v -0.008277097 -0.1095603 -0.008909403
v -0.0002460625 -0.2954575 -0.01240696
v -0.0002460626 -0.1095603 -0.01240696
v 0.0110805 0.0006085706 -0.01237399
v 0.0110805 0.03460729 -0.01237399
v -0.01157262 0.03460729 0.01144105
v -0.01157262 0.0006085706 0.01144105
v -0.0002460624 -0.4878227 -0.01240696
v -0.0002460625 -0.3138897 -0.01240696
v -0.008277095 -0.3138897 -0.008909403
v -0.008277095 -0.4878227 -0.008909403
v -0.01160403 -0.4878227 -0.0004664683
v -0.01160403 -0.3022176 -0.0004664683
v -0.008277095 -0.2954575 -0.008909403
v -0.008277095 -0.3022176 0.007976468
v -0.008277095 -0.4878227 0.007976466
v -0.0002460625 -0.3022176 0.01147402
v -0.0002460624 -0.4878227 0.01147402
v 0.007784996 -0.3022176 0.007976468
v 0.007784995 -0.4878227 0.007976466
v 0.01111191 -0.3022176 -0.0004664683
v 0.0111119 -0.4878227 -0.0004664683
v 0.007784996 -0.3138897 -0.008909403
v 0.007784995 -0.4878227 -0.008909403
v -0.0002460625 -0.3138897 -0.01240696
v -0.0002460624 -0.4878227 -0.01240696
v 0.007784996 -0.2954575 -0.008909403
v 0.0143567 -0.2953801 -0.04007518
v 0.0143567 -0.3137858 -0.04007518
v 0.0143567 -0.3137858 -0.02735237
v 0.0143567 -0.2953801 -0.02735237
v 0.005798958 -0.3137858 -0.01835569
v 0.005798958 -0.2953801 -0.01835569
v 0.005798958 -0.2953801 -0.04906934
v 0.005798958 -0.3137858 -0.04906934
v -0.006300746 -0.2953801 -0.04906934
v -0.006300746 -0.3137858 -0.04906934
v -0.01485848 -0.2953801 -0.04007518
v -0.01485848 -0.3137858 -0.04007518
v -0.01485848 -0.2953801 -0.02735237
v -0.01485848 -0.3137858 -0.02735237
v -0.006300746 -0.2953801 -0.01835569
v -0.006300746 -0.3137858 -0.01835569
v -0.006300746 -0.2953801 -0.04906934
v 0.005798958 -0.2953801 -0.04906934
v 0.0143567 -0.2953801 -0.04007518
v -0.01485848 -0.2953801 -0.04007518
v -0.01485848 -0.2953801 -0.02735237
v 0.0143567 -0.2953801 -0.02735237
v -0.006300746 -0.2953801 -0.01835569
v 0.005798958 -0.2953801 -0.01835569
v -0.0002460625 -0.2954575 -0.01240696
v -0.008277095 -0.2954575 -0.008909403
v 0.007784996 -0.2954575 -0.008909403
v -0.01485848 -0.3137858 -0.04007518
v 0.0143567 -0.3137858 -0.04007518
v 0.005798958 -0.3137858 -0.04906934
v -0.006300746 -0.3137858 -0.04906934
v 0.0143567 -0.3137858 -0.02735237
v -0.01485848 -0.3137858 -0.02735237
v 0.005798958 -0.3137858 -0.01835569
v -0.006300746 -0.3137858 -0.01835569
v -0.0002460625 -0.3138897 -0.01240696
v -0.008277095 -0.3138897 -0.008909403
v 0.007784996 -0.3138897 -0.008909403
v 0.0110805 0.0006085706 -0.01237399
v -0.01157262 0.0006085706 0.01144105
v -0.01626464 0.0006085706 -0.0004664683
v -0.0002460625 0.0006085706 -0.01730667
v -0.01157262 0.0006085706 -0.01237399
v 0.003443283 -0.4862543 0.008916291
v -0.003932993 -0.4862543 0.008916291
v -0.003932993 -0.4862543 0.01163663
v 0.003443283 -0.4862543 0.01163663
v 0.003721133 -0.4795487 0.01439507
v 0.003443283 -0.4862543 0.01163663
v -0.003932993 -0.4862543 0.01163663
v -0.003969234 -0.4795487 0.01439507
v -0.003896752 -0.4743808 0.0143711
v 0.00364865 -0.4743808 0.0143711
v 0.003443283 -0.4672266 0.01163663
v -0.003932993 -0.4672266 0.01163663
v 0.003443283 -0.4672266 0.01163663
v 0.003443283 -0.4862543 0.01163663
v 0.003721133 -0.4795487 0.01439507
v 0.00364865 -0.4743808 0.0143711
v 0.003443283 -0.4862543 0.008916291
v 0.003443283 -0.4672266 0.009116951
v -0.003969234 -0.4795487 0.01439507
v -0.003932993 -0.4862543 0.01163663
v -0.003932993 -0.4672266 0.01163663
v -0.003896752 -0.4743808 0.0143711
v -0.003932993 -0.4862543 0.008916291
v -0.003932993 -0.4672266 0.009116951
v 0.003443283 -0.4672266 0.01163663
v -0.003932993 -0.4672266 0.01163663
v -0.003932993 -0.4672266 0.009116951
v 0.003443283 -0.4672266 0.009116951
v -0.00178027 -0.4784567 0.01729318
v -0.00178027 -0.4755237 0.01729318
v 0.001290585 -0.4755237 0.01729318
v 0.001290585 -0.4784567 0.01729318
v -0.00178027 -0.4784567 0.01389975
v -0.00178027 -0.4784567 0.01729318
v 0.001290585 -0.4784567 0.01729318
v 0.001290585 -0.4784567 0.01389975
v 0.001290585 -0.4755237 0.01729318
v 0.001290585 -0.4755237 0.01389975
v -0.00178027 -0.4755237 0.01729318
v -0.00178027 -0.4755237 0.01389975
v -0.00178027 -0.4755237 0.01389975
v -0.00178027 -0.4755237 0.01729318
v -0.006300746 -0.3137858 -0.01835569
v -0.006300746 -0.2953801 -0.01835569
v -0.008277095 -0.2954575 -0.008909403
v -0.008277095 -0.3138897 -0.008909403
v 0.007784996 -0.2954575 -0.008909403
v 0.005798958 -0.2953801 -0.01835569
v 0.005798958 -0.3137858 -0.01835569
v 0.007784996 -0.3138897 -0.008909403
vt 0.06615202 0.05977941
vt 0.08123468 0.7811838
vt 0.04165486 0.7837284
vt 0.03777504 0.06162371
vt 0.09451124 0.05684595
vt 0.1207787 0.7770775
vt 0.1227609 0.05238917
vt 0.1604233 0.7713546
vt 0.1508697 0.04580924
vt 0.1999763 0.7615252
vt 0.178838 0.03720592
vt 0.239373 0.7494121
vt 0.2066365 0.02682852
vt 0.2785679 0.7347809
vt 0.2342158 0.0144438
vt 0.3175478 0.7178701
vt 0.00190115 0.7846757
vt 0.009461701 0.06192664
vt 0.1258698 0.9849353
vt 0.08560438 0.988995
vt 0.0453096 0.9917079
vt 0.1658651 0.9804162
vt 0.005264625 0.9939219
vt 0.3522083 0.4654095
vt 0.3522083 0.256979
vt 0.315368 0.2875014
vt 0.315368 0.4348872
vt 0.3001094 0.3611942
vt 0.4042214 0.6945959
vt 0.4042211 0.6380385
vt 0.3842263 0.5980517
vt 0.3559547 0.5980542
vt 0.3559528 0.734592
vt 0.3359589 0.694599
vt 0.3359632 0.6380432
vt 0.3842283 0.734592
vt 0.9975414 0.2492649
vt 0.9975395 0.1926413
vt 0.4222211 0.1929912
vt 0.4222244 0.2494784
vt 0.9975407 0.3059107
vt 0.4222237 0.3059438
vt 0.9975342 0.3625751
vt 0.4222166 0.3623905
vt 0.997523 0.4192356
vt 0.422206 0.4188423
vt 0.4442012 0.1364891
vt 0.9975315 0.136002
vt 0.9975176 0.079401
vt 0.444188 0.07997776
vt 0.4441793 0.4753521
vt 0.9975092 0.475855
vt 0.4441637 0.5318637
vt 0.9974932 0.5324575
vt 0.2479232 0.7782183
vt 0.1752178 0.7782183
vt 0.1752178 0.9866144
vt 0.2479232 0.9866144
vt 0.9971179 0.5411072
vt 0.4597639 0.5402969
vt 0.4597422 0.5969205
vt 0.9970967 0.5975962
vt 0.9970814 0.6540149
vt 0.4217652 0.6535781
vt 0.3997904 0.5969348
vt 0.4217573 0.7102531
vt 0.9970742 0.7104498
vt 0.4217546 0.7669067
vt 0.9970722 0.7669067
vt 0.4217507 0.8233455
vt 0.9970677 0.8235843
vt 0.4217408 0.879779
vt 0.9970577 0.8802659
vt 0.4596879 0.9362442
vt 0.9970413 0.9369515
vt 0.4596655 0.9927355
vt 0.9970195 0.9935724
vt 0.399739 0.9362492
vt 0.3576453 0.1880462
vt 0.4175092 0.1880462
vt 0.4175092 0.1093847
vt 0.3576453 0.1093847
vt 0.4175092 0.03067344
vt 0.3576453 0.03067344
vt 0.3576453 0.2666654
vt 0.4175092 0.2666654
vt 0.3576453 0.3452661
vt 0.4175092 0.3452661
vt 0.3576453 0.4238852
vt 0.4175091 0.4238852
vt 0.3576453 0.5025464
vt 0.4175091 0.5025464
vt 0.3576453 0.5812581
vt 0.4175091 0.5812581
vt 0.3249666 0.01657552
vt 0.2856129 0.01657812
vt 0.257779 0.07223819
vt 0.3528012 0.07223837
vt 0.3527992 0.1509736
vt 0.2577775 0.15098
vt 0.3249659 0.2066535
vt 0.2856121 0.2066561
vt 0.3052732 0.2434748
vt 0.331395 0.265114
vt 0.2791506 0.2651166
vt 0.3162856 0.8031721
vt 0.4113074 0.803171
vt 0.3834743 0.7475104
vt 0.3441206 0.7475098
vt 0.4113078 0.8819088
vt 0.3162859 0.8819087
vt 0.3834716 0.9375869
vt 0.3441184 0.9375863
vt 0.3638096 0.9744104
vt 0.3376858 0.9960467
vt 0.3899336 0.9960476
vt 0.2903539 0.446094
vt 0.3156328 0.6482975
vt 0.3476709 0.6008095
vt 0.3297957 0.4578258
vt 0.3535358 0.5219127
vt 0.7613816 0.05450701
vt 0.7373906 0.05450701
vt 0.7373906 0.0713412
vt 0.7613816 0.0713412
vt 0.5761145 0.0692609
vt 0.594226 0.0692609
vt 0.594226 0.02038401
vt 0.5761145 0.02038401
vt 0.5592555 0.02038401
vt 0.5592555 0.0692609
vt 0.5364764 0.0692609
vt 0.5364764 0.02038401
vt 0.6002318 0.05449959
vt 0.6537384 0.05265193
vt 0.6350151 0.03548249
vt 0.6206098 0.03415466
vt 0.6541371 0.07028896
vt 0.6002299 0.07009334
vt 0.6825333 0.03194424
vt 0.6636742 0.05436037
vt 0.7171808 0.05435642
vt 0.6969385 0.031409
vt 0.6639414 0.07253169
vt 0.7174479 0.07128588
vt 0.7668012 0.07141267
vt 0.7907923 0.07141267
vt 0.7907923 0.05582033
vt 0.7668012 0.05582033
vt 0.4695186 0.05218169
vt 0.4695186 0.07145741
vt 0.4796074 0.07145741
vt 0.4796074 0.05218169
vt 0.4940775 0.04989685
vt 0.4940769 0.07110948
vt 0.5041656 0.07110948
vt 0.5041649 0.04989685
vt 0.513802 0.07110681
vt 0.5137998 0.04989417
vt 0.5238905 0.07110285
vt 0.5238886 0.04989014
vt 0.484442 0.04989417
vt 0.4844406 0.07110681
vt 0.8558909 0.01151792
vt 0.7960271 0.01151792
vt 0.7962784 0.07137471
vt 0.8562286 0.07137471
vt 0.9205511 0.07135664
vt 0.9208025 0.01148669
vt 0.8609386 0.01148669
vt 0.8606008 0.07135664
vn 0.7194897 -0.02178069 0.6941615
vn 0.7191808 -0.02155305 0.6944886
vn 0.9997788 -0.02103459 0
vn 0.9997744 -0.02124316 0
vn -4.116226E-07 -0.0223475 0.9997503
vn -1.040745E-07 -0.02209648 0.9997558
vn -0.7194894 -0.02178072 0.6941619
vn -0.6165654 -0.02851193 0.7867873
vn -0.9997744 -0.02124323 0
vn -0.9991063 -0.04226692 0
vn -0.7194894 -0.02178072 -0.6941619
vn -0.7185174 -0.04332272 -0.6941584
vn -4.219131E-07 -0.0223475 -0.9997503
vn -2.301966E-07 -0.04443093 -0.9990125
vn 0.7194897 -0.02178069 -0.6941615
vn 0.8077586 -0.02851417 -0.5888234
vn 0.8077586 -0.02851417 -0.5888234
vn 0.7194897 -0.02178069 -0.6941615
vn 0 0 1
vn 0.7195011 0 0.6944912
vn 1 0 0
vn -0.3992766 0 0.9168305
vn 0.9303771 0 -0.3666042
vn 0 1 0
vn 0 1 0
vn 0 1 0
vn 0 1 0
vn 0 1 0
vn 0 -1 0
vn 0 -1 0
vn 0 -1 0
vn 0 -1 0
vn 0 -1 0
vn 0 -1 0
vn 0 -1 0
vn 0 -1 0
vn 0.7194897 -0.02178069 0.6941615
vn 0.9997744 -0.02124316 0
vn 1 0 0
vn 0.7195006 0 0.6944917
vn -4.116226E-07 -0.0223475 0.9997503
vn -5.794292E-07 0 1
vn -0.7194894 -0.02178072 0.6941619
vn -0.7195001 0 0.6944923
vn -0.9997744 -0.02124323 0
vn -1 0 0
vn 0.8076482 0 -0.5896646
vn 0.7194897 -0.02178069 -0.6941615
vn -4.219131E-07 -0.0223475 -0.9997503
vn -6.001231E-07 0 -1
vn -0.8076474 0 -0.5896658
vn -0.7194894 -0.02178072 -0.6941619
vn -6.001231E-07 0 -1
vn -4.219131E-07 -0.0223475 -0.9997503
vn -0.7245613 0 -0.6892104
vn -0.7245613 0 -0.6892104
vn -0.7245613 0 -0.6892104
vn -0.7245613 0 -0.6892104
vn -5.794292E-07 0 -1
vn -5.794292E-07 0 -1
vn -0.8076474 0 -0.5896657
vn -0.7195002 0 -0.6944922
vn -1 0 0
vn -1 0 0
vn -0.8076474 0 -0.5896658
vn -0.7195001 0 0.6944923
vn -0.7195001 0 0.6944923
vn -5.794292E-07 0 1
vn -5.794291E-07 0 1
vn 0.7195006 0 0.6944917
vn 0.7195006 0 0.6944919
vn 1 0 0
vn 1 0 0
vn 0.8076482 0 -0.5896646
vn 0.7195007 0 -0.6944917
vn -5.794292E-07 0 -1
vn -5.794292E-07 0 -1
vn 0.8076482 0 -0.5896646
vn 0.9285647 0 -0.3711704
vn 0.9285647 0 -0.3711704
vn 0.9285907 0 0.3711056
vn 0.9285907 0 0.3711056
vn 0.7245613 0 0.6892103
vn 0.7245613 0 0.6892103
vn 0.3941372 0 -0.9190515
vn 0.3941372 0 -0.9190515
vn -0.3941372 0 -0.9190515
vn -0.3941372 0 -0.9190515
vn -0.9285647 0 -0.3711705
vn -0.9285647 0 -0.3711705
vn -0.9285907 0 0.3711056
vn -0.9285907 0 0.3711056
vn -0.7245613 0 0.6892103
vn -0.7245613 0 0.6892103
vn 0 1 0
vn 0 1 0
vn 0 1 0
vn 0 1 0
vn 0 1 0
vn 0 1 0
vn 0.0009553485 0.9999888 0.004651287
vn -0.0009557621 0.9999888 0.004654184
vn -1.363619E-06 0.9999437 0.0106088
vn 0.003923048 0.9999517 0.009008045
vn -0.003924963 0.9999517 0.009012473
vn 0 -1 0
vn 0 -1 0
vn 0 -1 0
vn 0 -1 0
vn 0 -1 0
vn 0 -1 0
vn 0.00128331 -0.9999797 -0.006249366
vn -0.001282755 -0.9999797 -0.006245478
vn 1.83072E-06 -0.9998986 -0.01424461
vn -0.005267613 -0.999913 -0.01209542
vn 0.005270183 -0.9999129 -0.01210136
vn 0 1 0
vn 0 1 0
vn 0 1 0
vn 0 1 0
vn 0 1 0
vn 0 -1 0
vn 0 -1 0
vn 0 -0.8301994 0.5574666
vn 0 -0.826274 0.5632683
vn 0 -0.1900765 0.9817693
vn 0 -0.826274 0.5632683
vn 0 -0.8301994 0.5574666
vn 0 -0.1921872 0.9813582
vn 0 0.1832845 0.9830598
vn 0 0.1814734 0.9833959
vn 0 0.8204041 0.5717841
vn 0 0.8243085 0.5661409
vn 0.9998633 0.0005479245 -0.01652628
vn 0.9998473 0.0005791062 -0.01746676
vn 0.9961694 0.002897639 -0.0873974
vn 0.9961694 0.002897639 -0.08739739
vn 1 0 0
vn 1 0 0
vn -0.9999955 0.002995928 0.0002447459
vn -0.9999999 0.0005962459 4.870902E-05
vn -0.9999999 0.0005650364 4.615943E-05
vn -0.9999955 0.002995928 0.0002447459
vn -1 0 0
vn -1 0 0
vn 0 0.8204041 0.5717841
vn 0 0.8243085 0.5661409
vn 0 1 0
vn 0 1 0
vn -0.5773503 -0.5773503 0.5773503
vn -0.5773503 0.5773503 0.5773503
vn 0.5773503 0.5773503 0.5773503
vn 0.5773503 -0.5773503 0.5773503
vn -0.7071068 -0.7071068 0
vn -0.5773503 -0.5773503 0.5773503
vn 0.5773503 -0.5773503 0.5773503
vn 0.7071068 -0.7071068 0
vn 0.5773503 0.5773503 0.5773503
vn 0.7071068 0.7071068 0
vn -0.5773503 0.5773503 0.5773503
vn -0.7071068 0.7071068 0
vn -0.7071068 0.7071068 0
vn -0.5773503 0.5773503 0.5773503
vn -0.9788068 0 -0.2047857
vn -0.9788068 0 -0.2047857
vn -0.9788068 0 -0.2047857
vn -0.9788068 0 -0.2047857
vn 0.9786052 0 -0.2057473
vn 0.9786052 0 -0.2057472
vn 0.9786052 0 -0.2057473
vn 0.9786052 0 -0.2057472
g barrel_870_fixed_improved_cylinder_508mm_LOD1_0
f 3/3/3 2/2/2 1/1/1
f 4/4/4 3/3/3 1/1/1
f 1/1/1 2/2/2 5/5/5
f 2/2/2 6/6/6 5/5/5
f 5/5/5 6/6/6 7/7/7
f 6/6/6 8/8/8 7/7/7
f 7/7/7 8/8/8 9/9/9
f 8/8/8 10/10/10 9/9/9
f 9/9/9 10/10/10 11/11/11
f 10/10/10 12/12/12 11/11/11
f 11/11/11 12/12/12 13/13/13
f 12/12/12 14/14/14 13/13/13
f 13/13/13 14/14/14 15/15/15
f 14/14/14 16/16/16 15/15/15
f 17/17/17 3/3/3 4/4/4
f 18/18/18 17/17/17 4/4/4
f 8/8/8 6/6/6 19/19/19
f 19/19/19 6/6/6 20/20/20
f 6/6/6 2/2/2 20/20/20
f 20/20/20 2/2/2 21/21/21
f 2/2/2 3/3/3 21/21/21
f 22/22/22 8/8/8 19/19/19
f 3/3/3 17/17/17 23/23/23
f 21/21/21 3/3/3 23/23/23
f 26/26/26 25/25/25 24/24/24
f 27/27/27 26/26/26 24/24/24
f 28/28/28 26/26/26 27/27/27
f 31/31/31 30/30/30 29/29/29
f 32/32/32 31/31/31 29/29/29
f 33/33/33 32/32/32 29/29/29
f 32/32/32 33/33/33 34/34/34
f 35/35/35 32/32/32 34/34/34
f 36/36/36 33/33/33 29/29/29
f 39/39/39 38/38/38 37/37/37
f 40/40/40 39/39/39 37/37/37
f 40/40/40 37/37/37 41/41/41
f 42/42/42 40/40/40 41/41/41
f 42/42/42 41/41/41 43/43/43
f 44/44/44 42/42/42 43/43/43
f 44/44/44 43/43/43 45/45/45
f 46/46/46 44/44/44 45/45/45
f 39/39/39 47/47/47 38/38/38
f 48/48/48 38/38/38 47/47/47
f 48/48/48 47/47/47 49/49/49
f 47/47/47 50/50/50 49/49/49
f 45/45/45 51/51/51 46/46/46
f 45/45/45 52/52/52 51/51/51
f 53/53/53 51/51/51 52/52/52
f 54/54/54 53/53/53 52/52/52
f 57/57/57 56/56/56 55/55/55
f 58/58/58 57/57/57 55/55/55
f 61/61/61 60/60/60 59/59/59
f 62/62/62 61/61/61 59/59/59
f 62/62/62 63/63/63 61/61/61
f 61/61/61 63/63/63 64/64/64
f 65/65/65 61/61/61 64/64/64
f 66/66/66 64/64/64 63/63/63
f 67/67/67 66/66/66 63/63/63
f 68/68/68 66/66/66 67/67/67
f 69/69/69 68/68/68 67/67/67
f 70/70/70 68/68/68 69/69/69
f 71/71/71 70/70/70 69/69/69
f 72/72/72 70/70/70 71/71/71
f 73/73/73 72/72/72 71/71/71
f 73/73/73 74/74/74 72/72/72
f 75/75/75 74/74/74 73/73/73
f 76/76/76 74/74/74 75/75/75
f 77/77/77 76/76/76 75/75/75
f 74/74/74 78/78/78 72/72/72
f 81/81/81 80/80/80 79/79/79
f 82/82/82 81/81/81 79/79/79
f 83/83/83 81/81/81 82/82/82
f 84/84/84 83/83/83 82/82/82
f 79/79/79 80/80/80 85/85/85
f 80/80/80 86/86/86 85/85/85
f 85/85/85 86/86/86 87/87/87
f 86/86/86 88/88/88 87/87/87
f 87/87/87 88/88/88 89/89/89
f 88/88/88 90/90/90 89/89/89
f 89/89/89 90/90/90 91/91/91
f 90/90/90 92/92/92 91/91/91
f 91/91/91 92/92/92 93/93/93
f 92/92/92 94/94/94 93/93/93
f 97/97/97 96/96/96 95/95/95
f 98/98/98 97/97/97 95/95/95
f 97/97/97 98/98/98 99/99/99
f 100/100/100 97/97/97 99/99/99
f 100/100/100 99/99/99 101/101/101
f 102/102/102 100/100/100 101/101/101
f 102/102/102 101/101/101 103/103/103
f 101/101/101 104/104/104 103/103/103
f 105/105/105 102/102/102 103/103/103
f 108/108/108 107/107/107 106/106/106
f 109/109/109 108/108/108 106/106/106
f 106/106/106 107/107/107 110/110/110
f 111/111/111 106/106/106 110/110/110
f 111/111/111 110/110/110 112/112/112
f 113/113/113 111/111/111 112/112/112
f 112/112/112 114/114/114 113/113/113
f 113/113/113 114/114/114 115/115/115
f 116/116/116 114/114/114 112/112/112
f 119/119/119 118/118/118 117/117/117
f 120/120/120 119/119/119 117/117/117
f 121/121/121 119/119/119 120/120/120
f 124/124/124 123/123/123 122/122/122
f 125/125/125 124/124/124 122/122/122
f 128/128/128 127/127/127 126/126/126
f 129/129/129 128/128/128 126/126/126
f 129/129/129 126/126/126 130/130/130
f 126/126/126 131/131/131 130/130/130
f 131/131/131 132/132/132 130/130/130
f 132/132/132 133/133/133 130/130/130
f 136/136/136 135/135/135 134/134/134
f 137/137/137 136/136/136 134/134/134
f 135/135/135 138/138/138 134/134/134
f 138/138/138 139/139/139 134/134/134
f 142/142/142 141/141/141 140/140/140
f 143/143/143 142/142/142 140/140/140
f 141/141/141 142/142/142 144/144/144
f 142/142/142 145/145/145 144/144/144
f 148/148/148 147/147/147 146/146/146
f 149/149/149 148/148/148 146/146/146
f 152/152/152 151/151/151 150/150/150
f 153/153/153 152/152/152 150/150/150
f 156/156/156 155/155/155 154/154/154
f 157/157/157 156/156/156 154/154/154
f 158/158/158 156/156/156 157/157/157
f 159/159/159 158/158/158 157/157/157
f 160/160/160 158/158/158 159/159/159
f 161/161/161 160/160/160 159/159/159
f 154/154/154 155/155/155 162/162/162
f 155/155/155 163/163/163 162/162/162
f 166/166/166 165/165/165 164/164/164
f 167/167/167 166/166/166 164/164/164
f 170/170/170 169/169/169 168/168/168
f 171/171/171 170/170/170 168/168/168
