g barrel_m1911a1_127mm_1143x23_LOD1
v -0.005656234 -0.03633637 0.01419756
v -0.005656247 -0.1128006 0.01272938
v 1.890255E-08 -0.03629139 0.01185509
v 6.941113E-09 -0.1127556 0.01038691
v -0.007999145 -0.1129092 0.01838459
v -0.007999132 -0.03644495 0.01985277
v -0.005656247 -0.1130178 0.0240398
v -0.005656234 -0.03655354 0.02550797
v 6.894745E-09 -0.1130627 0.02638226
v 1.885617E-08 -0.03659851 0.02785044
v 0.005656261 -0.1130178 0.0240398
v 0.005656273 -0.03655354 0.02550797
v 0.007999156 -0.1129092 0.01838459
v 0.007999169 -0.03644495 0.01985277
v 0.005656261 -0.1128006 0.01272938
v 0.005656273 -0.03633637 0.01419756
v 6.941113E-09 -0.1127556 0.01038691
v 1.890255E-08 -0.03629139 0.01185509
v -0.007999145 -0.1129092 0.01838459
v 0.007999156 -0.1129092 0.01838459
v -0.005656247 -0.1128006 0.01272938
v 0.005656261 -0.1128006 0.01272938
v -0.005656247 -0.1130178 0.0240398
v 0.005656261 -0.1130178 0.0240398
v 6.894745E-09 -0.1130627 0.02638226
v 6.941113E-09 -0.1127556 0.01038691
v 1.890255E-08 -0.03629139 0.01185509
v 1.89135E-08 -0.03626243 0.010347
v -0.005656234 -0.03633637 0.01419756
v -0.006722815 -0.03631589 0.01313117
v 0.006722853 -0.03631589 0.01313117
v 0.005656273 -0.03633637 0.01419756
v 0.009507541 -0.03644495 0.01985277
v 0.007999169 -0.03644495 0.01985277
v 0.006722853 -0.03657402 0.02657435
v 0.005656273 -0.03655354 0.02550797
v 1.878387E-08 -0.03662748 0.02935853
v 1.885617E-08 -0.03659851 0.02785044
v -0.006722815 -0.03657402 0.02657435
v -0.005656234 -0.03655354 0.02550797
v -0.009507504 -0.03644495 0.01985277
v -0.007999132 -0.03644495 0.01985277
v -0.006722815 -0.03631589 0.01313117
v -0.005656234 -0.03633637 0.01419756
v 1.89135E-08 -0.03626243 0.010347
v 2.509361E-08 0.01127434 0.01125975
v -0.006722815 -0.03631589 0.01313117
v -0.00672283 0.01122088 0.01404391
v -0.009507504 -0.03644495 0.01985277
v -0.009507569 0.01109183 0.02076554
v -0.006722815 -0.03657402 0.02657435
v -0.006722881 0.01096276 0.02748719
v -0.005432377 0.0109525 0.02802163
v 1.878387E-08 -0.03662748 0.02935853
v 6.688425E-07 0.01480198 0.03034613
v 0.005432435 0.0109525 0.02802162
v -0.00543174 0.01484518 0.02809638
v 0.005433072 0.01484517 0.02809637
v 0.006722853 -0.03657402 0.02657435
v 0.006722919 0.01096276 0.02748718
v 0.009507541 -0.03644495 0.01985277
v 0.009507582 0.01109182 0.02076554
v 0.006722853 -0.03631589 0.01313117
v 0.006722862 0.01122088 0.01404392
v 1.89135E-08 -0.03626243 0.010347
v 2.509361E-08 0.01127434 0.01125975
v 6.688425E-07 0.01480198 0.03034613
v -0.00543174 0.01484518 0.02809638
v 0.0001128533 0.01486473 0.02707798
v -0.005343792 0.01492721 0.02392824
v 0.005433072 0.01484517 0.02809637
v 0.005569544 0.01492321 0.02392825
v 0.005432435 0.0109525 0.02802162
v 0.005568909 0.01103053 0.0238535
v 0.006722919 0.01096276 0.02748718
v 0.009507582 0.01109182 0.02076554
v 0.006722862 0.01122088 0.01404392
v 2.509361E-08 0.01127434 0.01125975
v 0.0001122169 0.01097205 0.02700324
v -0.00534443 0.01103454 0.02385349
v -0.00672283 0.01122088 0.01404391
v -0.009507569 0.01109183 0.02076554
v -0.006722881 0.01096276 0.02748719
v -0.005432377 0.0109525 0.02802163
v 0.005432435 0.0109525 0.02802162
v 0.005433072 0.01484517 0.02809637
v 0.005568909 0.01103053 0.0238535
v 0.005569544 0.01492321 0.02392825
v 0.0001128533 0.01486473 0.02707798
v -0.005343792 0.01492721 0.02392824
v 0.0001122169 0.01097205 0.02700324
v -0.00534443 0.01103454 0.02385349
v 0.005569544 0.01492321 0.02392825
v 0.005568909 0.01103053 0.0238535
v -0.00534443 0.01103454 0.02385349
v -0.005343792 0.01492721 0.02392824
v -0.005432377 0.0109525 0.02802163
v -0.00543174 0.01484518 0.02809638
v 0.001762741 -0.00543905 -0.003203453
v -0.001762686 -0.00543905 -0.003203453
v 0.001762741 -0.00543905 0.006236461
v -0.001762687 -0.00543905 0.006236461
v -0.001762686 -0.003874196 -0.006031797
v 0.001762741 -0.003874197 -0.006031796
v 0.001762742 -0.0004762269 -0.007286703
v -0.001762685 -0.0004762264 -0.007286703
v 0.001762742 0.002745163 -0.00569672
v -0.001762685 0.002745164 -0.00569672
v -0.001762685 0.004027901 -0.002948394
v 0.001762742 0.004027901 -0.002948394
v -0.001762685 0.003419684 0.002560961
v 0.001762742 0.003419684 0.00256096
v 0.001762741 -0.00543905 0.006236461
v 0.001762742 0.003419684 0.00256096
v 0.001762741 -0.00543905 -0.003203453
v 0.001762742 0.004027901 -0.002948394
v 0.001762742 0.002745163 -0.00569672
v 0.001762742 -0.0004762269 -0.007286703
v 0.001762741 -0.003874197 -0.006031796
v -0.001762687 -0.00543905 0.006236461
v -0.001762686 -0.00543905 -0.003203453
v -0.001762685 0.003419684 0.002560961
v -0.001762685 0.004027901 -0.002948394
v -0.001762686 -0.003874196 -0.006031797
v -0.001762685 -0.0004762264 -0.007286703
v -0.001762685 0.002745164 -0.00569672
v 0.004513672 -0.009595191 0.01320425
v 0.004514118 -0.004198184 0.003043103
v -0.004511753 -0.009597284 0.01320425
v -0.004511307 -0.004200276 0.00304318
v 0.004513437 0.002186638 -0.001491177
v 0.004512188 0.005114875 -0.00149713
v -0.004511988 0.002184546 -0.0014911
v -0.004513237 0.005112783 -0.001497054
v -0.004513216 0.004843491 0.01320425
v -0.004511753 -0.009597284 0.01320425
v -0.004511307 -0.004200276 0.00304318
v -0.004511663 0.001198534 0.002157923
v -0.004513237 0.005112783 -0.001497054
v -0.004511988 0.002184546 -0.0014911
v 0.004512209 0.004845583 0.01320425
v 0.004512188 0.005114875 -0.00149713
v 0.004513762 0.001200626 0.002157846
v 0.004513437 0.002186638 -0.001491177
v 0.004514118 -0.004198184 0.003043103
v 0.004513672 -0.009595191 0.01320425
v 0.004513762 0.001200626 0.002157846
v 0.004513437 0.002186638 -0.001491177
v -0.004511663 0.001198534 0.002157923
v -0.004511988 0.002184546 -0.0014911
v 0.004514118 -0.004198184 0.003043103
v 0.004513762 0.001200626 0.002157846
v -0.004511307 -0.004200276 0.00304318
v -0.004511663 0.001198534 0.002157923
v 0.004512209 0.004845583 0.01320425
v -0.004513216 0.004843491 0.01320425
v 0.004512188 0.005114875 -0.00149713
v -0.004513237 0.005112783 -0.001497054
vt 0.3952579 0.02038312
vt 0.3952584 0.7031741
vt 0.449917 0.02038294
vt 0.4499173 0.7031741
vt 0.3405993 0.7031746
vt 0.3405989 0.02038327
vt 0.28594 0.7031746
vt 0.2859396 0.02038312
vt 0.2312811 0.7031741
vt 0.2312806 0.02038327
vt 0.1766219 0.7031746
vt 0.1766214 0.02038327
vt 0.1219626 0.7031746
vt 0.1219623 0.02038327
vt 0.06730362 0.7031746
vt 0.06730311 0.02038327
vt 0.01264429 0.7031746
vt 0.01264378 0.02038327
vt 0.8494464 0.4586505
vt 0.8494464 0.5989276
vt 0.8990418 0.4791936
vt 0.8990415 0.5783845
vt 0.7998512 0.4791934
vt 0.7998512 0.5783845
vt 0.779308 0.528789
vt 0.919585 0.528789
vt 0.8950345 0.7659397
vt 0.8950345 0.7781398
vt 0.9572287 0.7659398
vt 0.9572287 0.7781397
vt 0.8382589 0.7781398
vt 0.8382589 0.7659398
vt 0.7814898 0.7781397
vt 0.7814898 0.7659398
vt 0.7218892 0.7781397
vt 0.7218892 0.7659398
vt 0.6622879 0.7781397
vt 0.6622879 0.7659398
vt 0.6055194 0.7781398
vt 0.6055194 0.7659398
vt 0.5487431 0.7781397
vt 0.5487431 0.7659397
vt 0.4865499 0.7781397
vt 0.4865499 0.7659397
vt 0.4711291 0.0234375
vt 0.4711261 0.4403278
vt 0.5349333 0.02343784
vt 0.5349306 0.4403283
vt 0.5987375 0.02343842
vt 0.5987352 0.4403287
vt 0.6625419 0.02343859
vt 0.6625398 0.4403292
vt 0.6747876 0.440329
vt 0.7263459 0.02343883
vt 0.7263499 0.4744675
vt 0.7779019 0.4403294
vt 0.6747928 0.4744672
vt 0.7779069 0.4744677
vt 0.79015 0.023439
vt 0.7901495 0.4403294
vt 0.8539543 0.02343917
vt 0.853954 0.4403296
vt 0.9177586 0.02343917
vt 0.9177585 0.4403296
vt 0.981563 0.02343917
vt 0.9815627 0.4403296
vt 0.7044227 0.6407264
vt 0.65617 0.6588874
vt 0.704468 0.6694042
vt 0.6557449 0.6954474
vt 0.7513843 0.6620041
vt 0.7513843 0.6985773
vt 0.5069245 0.6036966
vt 0.5054677 0.5671524
vt 0.4955761 0.5990904
vt 0.4707402 0.540318
vt 0.4947367 0.481198
vt 0.5535088 0.4563619
vt 0.5535086 0.5944334
vt 0.6011558 0.5664701
vt 0.6126289 0.480358
vt 0.6374654 0.5391302
vt 0.6134692 0.5982506
vt 0.6021873 0.6030179
vt 0.6870563 0.7486358
vt 0.7211944 0.7486522
vt 0.6870561 0.7120628
vt 0.7211944 0.712079
vt 0.9408754 0.5181083
vt 0.9408655 0.5733549
vt 0.9750138 0.5181083
vt 0.9750037 0.5733549
vt 0.9408854 0.462862
vt 0.9750237 0.462862
vt 0.9334484 0.9353077
vt 0.9675868 0.9353237
vt 0.9334486 0.8987451
vt 0.9675868 0.8987615
vt 0.7796369 0.8438265
vt 0.7796367 0.8129146
vt 0.6968651 0.8438261
vt 0.6968653 0.8129146
vt 0.8079795 0.8129148
vt 0.8079792 0.8438265
vt 0.8397405 0.8438265
vt 0.8397405 0.8129148
vt 0.8712396 0.8438265
vt 0.8712396 0.8129146
vt 0.8978333 0.8129148
vt 0.8978333 0.8438265
vt 0.946434 0.8129148
vt 0.946434 0.8438265
vt 0.7994983 0.749434
vt 0.8731683 0.7088777
vt 0.7904157 0.6671624
vt 0.8731683 0.6602768
vt 0.8593447 0.6375585
vt 0.8297395 0.6268008
vt 0.8013327 0.6410069
vt 0.5478497 0.8895367
vt 0.6306213 0.8895369
vt 0.5800774 0.8118614
vt 0.6283849 0.8065286
vt 0.6554211 0.8758161
vt 0.666424 0.8460217
vt 0.6524826 0.8177756
vt 0.7843753 0.9743147
vt 0.7843914 0.8734316
vt 0.7052382 0.9743136
vt 0.7052543 0.8734313
vt 0.8245261 0.9331806
vt 0.8245311 0.9588562
vt 0.903663 0.9331807
vt 0.9036683 0.9588562
vt 0.5146636 0.7367705
vt 0.6412626 0.7390895
vt 0.59558 0.6491431
vt 0.5483921 0.6405152
vt 0.5146638 0.6078443
vt 0.540334 0.6083667
vt 0.7497399 0.6194301
vt 0.7497399 0.4905033
vt 0.7160115 0.5231742
vt 0.7240696 0.4910258
vt 0.6688235 0.5318019
vt 0.623141 0.621749
vt 0.9028196 0.9016505
vt 0.9028189 0.8685076
vt 0.8236823 0.9016505
vt 0.8236817 0.8685076
vt 0.637961 0.9761087
vt 0.6379707 0.9281384
vt 0.558824 0.9761058
vt 0.5588336 0.9281356
vt 0.8972913 0.7397409
vt 0.9764284 0.7397402
vt 0.8972898 0.6108142
vt 0.9764269 0.6108141
vn -0.7071069 0.01357465 -0.7069763
vn -0.7071068 0.01357466 -0.7069764
vn -1.642877E-07 0.0191973 -0.9998158
vn 0 0.0191973 -0.9998158
vn -1 1.597955E-07 -7.80367E-07
vn -1 1.73914E-07 1.026798E-07
vn -0.7071069 -0.01357441 0.7069762
vn -0.7071066 -0.01357444 0.7069766
vn 3.901822E-07 -0.0191973 0.9998158
vn -1.026798E-07 -0.0191973 0.9998158
vn 0.7071071 -0.01357466 0.7069762
vn 0.7071067 -0.01357465 0.7069765
vn 1 -1.360508E-07 -5.339351E-07
vn 1 -1.777644E-07 -1.232157E-07
vn 0.7071072 0.01357442 -0.706976
vn 0.7071069 0.01357443 -0.7069764
vn 0 0.0191973 -0.9998158
vn -1.642877E-07 0.0191973 -0.9998158
vn 0 -0.9998158 -0.01919572
vn -2.811542E-07 -0.9998158 -0.0191964
vn 0 -0.9998158 -0.01919725
vn 0 -0.9998158 -0.01919725
vn -2.810555E-07 -0.9998159 -0.01919308
vn -8.433639E-07 -0.9998158 -0.01919443
vn -8.428713E-07 -0.999816 -0.01918631
vn 0 -0.9998158 -0.01919639
vn -1.010638E-07 -0.9998158 -0.01919837
vn -1.302865E-07 -0.9998158 -0.01919846
vn -1.207834E-06 -0.9998158 -0.01919819
vn -1.052154E-06 -0.9998158 -0.01919819
vn 0 -0.9998158 -0.0191974
vn -1.165435E-07 -0.9998158 -0.01919733
vn 0 -0.9998158 -0.01919791
vn 0 -0.9998158 -0.01919791
vn -5.787311E-07 -0.9998158 -0.01919886
vn -7.820056E-07 -0.9998158 -0.0191991
vn -4.955514E-07 -0.9998156 -0.01920274
vn -7.981283E-07 -0.9998156 -0.01920287
vn 9.18383E-07 -0.9998158 -0.01919908
vn 8.13559E-07 -0.9998158 -0.01919864
vn 0 -0.9998158 -0.01919788
vn -1.068897E-07 -0.9998158 -0.01919787
vn -1.052154E-06 -0.9998158 -0.01919819
vn -1.207834E-06 -0.9998158 -0.01919819
vn 0 0.01919748 -0.9998158
vn 1.067869E-06 0.0191973 -0.9998158
vn -0.7071066 0.01357449 -0.7069766
vn -0.7071041 0.01357391 -0.7069791
vn -1 -1.011435E-06 -1.835399E-07
vn -1 -1.558167E-06 -3.470579E-06
vn -0.7071066 -0.01357652 0.7069764
vn -0.7071064 -0.01357685 0.7069769
vn -0.3826654 -0.01772289 0.923717
vn 0 -0.0191996 0.9998158
vn 2.766193E-05 -0.0191993 0.9998158
vn 0.3826984 -0.01775307 0.9237027
vn -0.3826813 -0.01767488 0.9237112
vn 0.3826824 -0.01780068 0.9237085
vn 0.7071068 -0.01357676 0.7069764
vn 0.7071093 -0.01357622 0.7069739
vn 1 -1.328338E-06 0
vn 1 -5.512618E-07 -4.271477E-06
vn 0.7071068 0.01357424 -0.7069764
vn 0.7071053 0.01357459 -0.7069778
vn 0 0.01919748 -0.9998158
vn 1.067869E-06 0.0191973 -0.9998158
vn 4.481563E-07 0.9998158 0.01919644
vn 6.302447E-05 0.9998092 0.0195367
vn 3.088805E-05 0.9998158 0.01919686
vn 8.927382E-05 0.9998063 0.01967956
vn 6.491331E-05 0.9998222 0.01885947
vn 9.145897E-05 0.9998248 0.01872084
vn -0.0002023036 0.9998249 0.01871095
vn -0.0002380614 0.9998177 0.01909453
vn -0.000366001 0.999824 0.01876292
vn -0.0004647344 0.9998146 0.01925362
vn -0.0001461807 0.9998122 0.01938401
vn 7.526266E-05 0.9998158 0.01919566
vn 0.000367272 0.9998158 0.01919472
vn -0.0002026301 0.999814 0.0192863
vn -0.0001443748 0.9998192 0.01901349
vn -0.0004418262 0.9998166 0.01914562
vn -0.0003558345 0.9998077 0.0196131
vn -0.0001964822 0.9998065 0.01967353
vn 0.9994646 -0.0007917249 0.03270976
vn 0.9994646 -0.0007915663 0.03270961
vn 0.9994646 -0.0007915516 0.0327096
vn 0.9994646 -0.000791393 0.03270946
vn 7.209822E-05 0.0191989 -0.9998158
vn 0.4999957 0.01654502 -0.8658699
vn -5.759529E-05 0.01919889 -0.9998158
vn 0.4999956 0.01654498 -0.8658699
vn -0.499983 0.01670859 -0.8658739
vn -0.4999831 0.01670856 -0.865874
vn -0.9997776 0.0005685157 -0.02108417
vn -0.9997776 0.0005685161 -0.02108417
vn -0.9997776 0.0005685161 -0.02108417
vn -0.9997776 0.0005685165 -0.02108417
vn -1.412102E-07 -0.9682465 -0.2499972
vn -1.637021E-07 -0.9682465 -0.2499972
vn -1.690707E-07 -1 0
vn -1.690707E-07 -1 0
vn 0 -0.6515362 -0.7586176
vn 0 -0.6515361 -0.7586176
vn 0 0.05233467 -0.9986296
vn 0 0.05233476 -0.9986296
vn 0 0.7147749 -0.6993546
vn 1.208475E-07 0.7147751 -0.6993545
vn 1.002054E-07 0.9866855 -0.1626396
vn 0 0.9866855 -0.1626396
vn 0 0.9939614 0.1097305
vn 0 0.9939614 0.1097305
vn 1 -1.513878E-07 0
vn 1 -1.459876E-07 0
vn 1 -1.532554E-07 0
vn 1 -1.415594E-07 0
vn 1 -1.423053E-07 0
vn 1 -1.506412E-07 0
vn 1 -1.960052E-07 0
vn -1 1.719309E-07 0
vn -1 1.527037E-07 0
vn -1 1.555969E-07 0
vn -1 1.451957E-07 0
vn -1 1.476982E-07 0
vn -1 1.611E-07 0
vn -1 1.455365E-07 0
vn 0.0002048422 -0.8831555 -0.4690804
vn 0.0002024695 -0.8831545 -0.469082
vn 0.0002030994 -0.8831548 -0.4690816
vn 0.0002007266 -0.883154 -0.4690833
vn -7.981957E-06 -0.00203312 -0.999998
vn -7.981954E-06 -0.00203312 -0.999998
vn -7.981944E-06 -0.00203312 -0.999998
vn -7.98194E-06 -0.00203312 -0.999998
vn -1 -0.0001619417 -8.213222E-05
vn -1 -0.0001013307 -9.766955E-05
vn -1 -9.364059E-05 -0.0001045141
vn -1 -0.0002798294 -5.167736E-05
vn -1 -0.0004167284 -1.576374E-05
vn -0.9999999 -0.0004263912 -2.611209E-05
vn 1 0.0001619424 8.214693E-05
vn 1 0.0004166491 1.576036E-05
vn 1 0.0002798103 5.167545E-05
vn 0.9999999 0.0004262894 2.608458E-05
vn 1 9.366424E-05 0.0001045216
vn 1 0.0001013307 9.769815E-05
vn 0.0002215566 -0.9653774 -0.2608572
vn 0.0002215552 -0.9653774 -0.2608572
vn 0.0002215524 -0.9653774 -0.2608572
vn 0.0002215509 -0.9653774 -0.2608572
vn 2.913407E-05 -0.1618117 -0.9868217
vn 2.914557E-05 -0.1618117 -0.9868217
vn 2.915572E-05 -0.1618117 -0.9868217
vn 2.916721E-05 -0.1618117 -0.9868217
vn -0.0002317673 0.9998323 0.01831439
vn -0.000231712 0.9998323 0.01831443
vn -0.0002316649 0.9998323 0.01831446
vn -0.0002316095 0.9998323 0.01831449
g barrel_m1911a1_127mm_1143x23_LOD1_0
f 3/3/3 2/2/2 1/1/1
f 3/3/3 4/4/4 2/2/2
f 1/1/1 2/2/2 5/5/5
f 1/1/1 5/5/5 6/6/6
f 6/6/6 5/5/5 7/7/7
f 6/6/6 7/7/7 8/8/8
f 8/8/8 7/7/7 9/9/9
f 8/8/8 9/9/9 10/10/10
f 10/10/10 9/9/9 11/11/11
f 10/10/10 11/11/11 12/12/12
f 12/12/12 11/11/11 13/13/13
f 12/12/12 13/13/13 14/14/14
f 14/14/14 13/13/13 15/15/15
f 14/14/14 15/15/15 16/16/16
f 16/16/16 15/15/15 17/17/17
f 16/16/16 17/17/17 18/18/18
f 21/21/21 20/20/20 19/19/19
f 21/21/21 22/22/22 20/20/20
f 20/20/20 23/23/23 19/19/19
f 20/20/20 24/24/24 23/23/23
f 24/24/24 25/25/25 23/23/23
f 21/21/21 26/26/26 22/22/22
f 29/29/29 28/28/28 27/27/27
f 29/29/29 30/30/30 28/28/28
f 27/27/27 28/28/28 31/31/31
f 27/27/27 31/31/31 32/32/32
f 32/32/32 31/31/31 33/33/33
f 32/32/32 33/33/33 34/34/34
f 34/34/34 33/33/33 35/35/35
f 34/34/34 35/35/35 36/36/36
f 36/36/36 35/35/35 37/37/37
f 36/36/36 37/37/37 38/38/38
f 38/38/38 37/37/37 39/39/39
f 38/38/38 39/39/39 40/40/40
f 40/40/40 39/39/39 41/41/41
f 40/40/40 41/41/41 42/42/42
f 42/42/42 41/41/41 43/43/43
f 42/42/42 43/43/43 44/44/44
f 47/47/47 46/46/46 45/45/45
f 47/47/47 48/48/48 46/46/46
f 49/49/49 48/48/48 47/47/47
f 49/49/49 50/50/50 48/48/48
f 51/51/51 50/50/50 49/49/49
f 51/51/51 52/52/52 50/50/50
f 53/53/53 52/52/52 51/51/51
f 53/53/53 51/51/51 54/54/54
f 54/54/54 55/55/55 53/53/53
f 56/56/56 55/55/55 54/54/54
f 55/55/55 57/57/57 53/53/53
f 56/56/56 58/58/58 55/55/55
f 59/59/59 56/56/56 54/54/54
f 59/59/59 60/60/60 56/56/56
f 61/61/61 60/60/60 59/59/59
f 61/61/61 62/62/62 60/60/60
f 63/63/63 62/62/62 61/61/61
f 63/63/63 64/64/64 62/62/62
f 65/65/65 64/64/64 63/63/63
f 65/65/65 66/66/66 64/64/64
f 69/69/69 68/68/68 67/67/67
f 69/69/69 70/70/70 68/68/68
f 69/69/69 67/67/67 71/71/71
f 69/69/69 71/71/71 72/72/72
f 75/75/75 74/74/74 73/73/73
f 76/76/76 74/74/74 75/75/75
f 76/76/76 77/77/77 74/74/74
f 78/78/78 74/74/74 77/77/77
f 78/78/78 79/79/79 74/74/74
f 78/78/78 80/80/80 79/79/79
f 80/80/80 78/78/78 81/81/81
f 80/80/80 81/81/81 82/82/82
f 80/80/80 82/82/82 83/83/83
f 80/80/80 83/83/83 84/84/84
f 87/87/87 86/86/86 85/85/85
f 87/87/87 88/88/88 86/86/86
f 91/91/91 90/90/90 89/89/89
f 91/91/91 92/92/92 90/90/90
f 91/91/91 89/89/89 93/93/93
f 91/91/91 93/93/93 94/94/94
f 97/97/97 96/96/96 95/95/95
f 97/97/97 98/98/98 96/96/96
f 101/101/101 100/100/100 99/99/99
f 101/101/101 102/102/102 100/100/100
f 99/99/99 100/100/100 103/103/103
f 99/99/99 103/103/103 104/104/104
f 105/105/105 104/104/104 103/103/103
f 105/105/105 103/103/103 106/106/106
f 107/107/107 105/105/105 106/106/106
f 107/107/107 106/106/106 108/108/108
f 107/107/107 108/108/108 109/109/109
f 107/107/107 109/109/109 110/110/110
f 110/110/110 109/109/109 111/111/111
f 110/110/110 111/111/111 112/112/112
f 115/115/115 114/114/114 113/113/113
f 115/115/115 116/116/116 114/114/114
f 115/115/115 117/117/117 116/116/116
f 115/115/115 118/118/118 117/117/117
f 119/119/119 118/118/118 115/115/115
f 122/122/122 121/121/121 120/120/120
f 123/123/123 121/121/121 122/122/122
f 123/123/123 124/124/124 121/121/121
f 123/123/123 125/125/125 124/124/124
f 126/126/126 125/125/125 123/123/123
f 129/129/129 128/128/128 127/127/127
f 129/129/129 130/130/130 128/128/128
f 133/133/133 132/132/132 131/131/131
f 133/133/133 134/134/134 132/132/132
f 137/137/137 136/136/136 135/135/135
f 138/138/138 137/137/137 135/135/135
f 138/138/138 135/135/135 139/139/139
f 138/138/138 139/139/139 140/140/140
f 143/143/143 142/142/142 141/141/141
f 143/143/143 144/144/144 142/142/142
f 143/143/143 141/141/141 145/145/145
f 141/141/141 146/146/146 145/145/145
f 149/149/149 148/148/148 147/147/147
f 149/149/149 150/150/150 148/148/148
f 153/153/153 152/152/152 151/151/151
f 153/153/153 154/154/154 152/152/152
f 157/157/157 156/156/156 155/155/155
f 157/157/157 158/158/158 156/156/156
