g barrel_mpx_203mm_LOD1
v 0.004556601 -0.0232938 -0.004988092
v 0.006452736 -0.1732216 -0.0004105175
v 0.006452691 -0.0232938 -0.0004105277
v 0.004556646 -0.1732216 -0.004988082
v -2.09638E-05 -0.0232938 -0.006884181
v -2.091855E-05 -0.1732216 -0.006884171
v 0.004556647 -0.1732216 0.004167047
v 0.004556601 -0.0232938 0.004167037
v -2.091765E-05 -0.1732216 0.006063136
v -2.09629E-05 -0.0232938 0.006063126
v -0.004598481 -0.1732216 0.004167048
v -0.004598526 -0.0232938 0.004167037
v -0.006494572 -0.1732216 -0.0004105164
v -0.006494617 -0.0232938 -0.0004105266
v -0.004598483 -0.1732216 -0.004988082
v -0.004598528 -0.0232938 -0.004988092
v -2.091855E-05 -0.1732216 -0.006884171
v -2.09638E-05 -0.0232938 -0.006884181
v -0.00715432 -0.00785679 -0.00754388
v -2.097205E-05 -0.007856788 -0.01049861
v -0.01010905 -0.00785679 -0.0004105287
v -0.00715432 -0.00785679 0.006722819
v -2.097064E-05 -0.007856788 0.00967755
v 0.007112378 -0.007856787 0.006722819
v 0.01006711 -0.007856786 -0.0004105305
v 0.007112378 -0.007856787 -0.00754388
v -2.097205E-05 -0.007856788 -0.01049861
v 0.007112355 0.03545498 -0.007543886
v 0.01006709 0.03545498 -0.0004105356
v -2.099431E-05 0.03545498 -0.01049862
v -0.007154342 0.03545498 -0.007543886
v -0.01010907 0.03545498 -0.0004105339
v -0.007154342 0.03545498 0.006722813
v -2.099291E-05 0.03545498 0.009677543
v 0.007112355 0.03545498 0.006722813
v -2.099431E-05 0.03545498 -0.01049862
v -2.091855E-05 -0.1732216 -0.006884171
v 0.006452736 -0.1732216 -0.0004105175
v 0.004556646 -0.1732216 -0.004988082
v -0.006494572 -0.1732216 -0.0004105164
v -2.091765E-05 -0.1732216 0.006063136
v 0.004556647 -0.1732216 0.004167047
v -0.004598481 -0.1732216 0.004167048
v -0.004598483 -0.1732216 -0.004988082
v -2.099291E-05 0.03545498 0.009677543
v 0.01006709 0.03545498 -0.0004105356
v 0.007112355 0.03545498 0.006722813
v -0.01010907 0.03545498 -0.0004105339
v -2.099431E-05 0.03545498 -0.01049862
v 0.007112355 0.03545498 -0.007543886
v -0.007154342 0.03545498 -0.007543886
v -0.007154342 0.03545498 0.006722813
v 0.004855671 0.02451687 0.007320594
v 0.005471468 -0.0004269781 0.01669828
v 0.005471456 0.02451687 0.01669828
v 0.004855684 -0.0004269782 0.007320599
v 0.004239974 -0.0004269688 0.02264074
v 0.004239962 0.02451688 0.02264074
v -0.00551343 0.02451687 0.01669828
v -0.004897633 -0.0004269799 0.007320599
v -0.004897645 0.02451687 0.007320594
v -0.005513417 -0.00042698 0.01669828
v -0.004281935 0.02451687 0.02264074
v -0.004281922 -0.0004269798 0.02264074
v -2.098667E-05 0.02451687 0.02510219
v -0.004281922 -0.0004269798 0.02264074
v -0.004281935 0.02451687 0.02264074
v -2.097385E-05 -0.0004269791 0.02510219
v 0.004239962 0.02451688 0.02264074
v -2.097385E-05 -0.0004269791 0.02510219
v -2.098667E-05 0.02451687 0.02510219
v 0.004239974 -0.0004269688 0.02264074
v 0.004855671 0.02451687 0.007320594
v -0.00551343 0.02451687 0.01669828
v -0.004897645 0.02451687 0.007320594
v 0.005471456 0.02451687 0.01669828
v -2.098667E-05 0.02451687 0.02510219
v 0.004239962 0.02451688 0.02264074
v -0.004281935 0.02451687 0.02264074
v 0.005471468 -0.0004269781 0.01669828
v -0.004897633 -0.0004269799 0.007320599
v -0.005513417 -0.00042698 0.01669828
v 0.004855684 -0.0004269782 0.007320599
v -0.004281922 -0.0004269798 0.02264074
v 0.004239974 -0.0004269688 0.02264074
v -2.097385E-05 -0.0004269791 0.02510219
v 0.002605905 -0.0005307384 0.01275644
v 0.006224526 -0.01303096 0.0164315
v 0.00622452 -0.0005307282 0.0164315
v 0.002605912 -0.01303097 0.01275645
v 0.006184614 -0.01303096 0.02158891
v 0.006184608 -0.0005307282 0.02158891
v 0.002509558 -0.01303096 0.02520752
v 0.002509552 -0.0005307288 0.02520752
v -0.002647844 -0.01303097 0.02516761
v -0.002647851 -0.0005307393 0.02516761
v -0.006266461 -0.01303097 0.02149255
v -0.006266467 -0.0005307399 0.02149255
v -0.00622655 -0.01303097 0.01633515
v -0.006226557 -0.0005307399 0.01633515
v -0.002551493 -0.01303097 0.01271654
v -0.002551499 -0.0005307393 0.01271653
v 0.002605912 -0.01303097 0.01275645
v 0.002605905 -0.0005307384 0.01275644
v -0.002551493 -0.01303097 0.01271654
v 0.006224526 -0.01303096 0.0164315
v 0.002605912 -0.01303097 0.01275645
v -0.006266461 -0.01303097 0.02149255
v 0.002509558 -0.01303096 0.02520752
v 0.006184614 -0.01303096 0.02158891
v -0.002647844 -0.01303097 0.02516761
v -0.00622655 -0.01303097 0.01633515
v 0.002509552 -0.0005307288 0.02520752
v 0.00622452 -0.0005307282 0.0164315
v 0.006184608 -0.0005307282 0.02158891
v -0.006266467 -0.0005307399 0.02149255
v -0.002551499 -0.0005307393 0.01271653
v 0.002605905 -0.0005307384 0.01275644
v -0.006226557 -0.0005307399 0.01633515
v -0.002647851 -0.0005307393 0.02516761
vt 0.6931244 0.055506
vt 0.002 0.1091304
vt 0.6931244 0.1091304
vt 0.002 0.055506
vt 0.6931244 0.002
vt 0.002 0.002
vt 0.002 0.162847
vt 0.6931244 0.162847
vt 0.002 0.2166189
vt 0.6931244 0.2166189
vt 0.002 0.2703031
vt 0.6931244 0.2703031
vt 0.002 0.323911
vt 0.6931244 0.323911
vt 0.002 0.3773689
vt 0.6931244 0.3773689
vt 0.002 0.4306844
vt 0.6931244 0.4306844
vt 0.7800225 0.3773689
vt 0.7800225 0.4306844
vt 0.7800225 0.323911
vt 0.7800225 0.2703031
vt 0.7800225 0.2166189
vt 0.7800225 0.162847
vt 0.7800225 0.1091304
vt 0.7800225 0.055506
vt 0.7800225 0.002
vt 0.998 0.055506
vt 0.998 0.1091304
vt 0.998 0.002
vt 0.998 0.3773689
vt 0.998 0.323911
vt 0.998 0.2703031
vt 0.998 0.2166189
vt 0.998 0.162847
vt 0.998 0.4306844
vt 0.8525712 0.4388382
vt 0.972069 0.4883357
vt 0.9225714 0.4388382
vt 0.8030738 0.5583359
vt 0.9225714 0.6078334
vt 0.972069 0.5583357
vt 0.8525712 0.6078331
vt 0.8030739 0.4883357
vt 0.8090952 0.9937347
vt 0.7319617 0.8075182
vt 0.7319617 0.9166014
vt 0.9953118 0.9166014
vt 0.9181784 0.7303849
vt 0.8090952 0.7303849
vt 0.9953118 0.8075182
vt 0.9181783 0.9937347
vt 0.5790923 0.6752987
vt 0.4463195 0.4388383
vt 0.4463193 0.6752987
vt 0.5790923 0.4388383
vt 0.3605807 0.4388383
vt 0.3605807 0.6752987
vt 0.1357999 0.6752986
vt 0.003027204 0.4388383
vt 0.003027014 0.6752983
vt 0.1358 0.4388383
vt 0.2215385 0.6752986
vt 0.2215386 0.4388383
vt 0.2910596 0.6752987
vt 0.2215386 0.4388383
vt 0.2215385 0.6752986
vt 0.2910596 0.4388383
vt 0.3605807 0.6752987
vt 0.2910596 0.4388383
vt 0.2910596 0.6752987
vt 0.3605807 0.4388383
vt 0.01317092 0.9798601
vt 0.1456583 0.8333661
vt 0.01317092 0.8420658
vt 0.1456585 0.9885601
vt 0.2643884 0.9109628
vt 0.2296133 0.9711615
vt 0.2296132 0.8507643
vt 0.4236264 0.833461
vt 0.2911388 0.9799553
vt 0.4236264 0.9886551
vt 0.2911388 0.8421609
vt 0.5075812 0.9712566
vt 0.5075812 0.8508596
vt 0.5423563 0.9110582
vt 0.003027014 0.6993369
vt 0.07589445 0.8178326
vt 0.07589201 0.6993352
vt 0.00302979 0.8178344
vt 0.1487588 0.8178313
vt 0.1487574 0.6993339
vt 0.2216235 0.8178308
vt 0.221623 0.6993328
vt 0.2944886 0.817831
vt 0.2944889 0.6993326
vt 0.3673542 0.8178316
vt 0.3673549 0.6993326
vt 0.4402205 0.8178326
vt 0.4402214 0.6993328
vt 0.5130872 0.8178335
vt 0.5130882 0.6993334
vt 0.585954 0.8178344
vt 0.585955 0.699334
vt 0.6501458 0.6312666
vt 0.7745354 0.6827904
vt 0.7230114 0.6312666
vt 0.5986218 0.755656
vt 0.7230114 0.8071799
vt 0.7745354 0.7556562
vt 0.6501457 0.8071799
vt 0.5986218 0.6827903
vt 0.6546502 0.6147517
vt 0.6031262 0.4903621
vt 0.6031263 0.5632277
vt 0.77904 0.5632277
vt 0.7275159 0.4388382
vt 0.6546502 0.4388382
vt 0.7790399 0.490362
vt 0.7275159 0.6147517
vn 0.6837357 -0.2549883 -0.6837298
vn 1 0 0
vn 0.9669439 -0.2549891 0
vn 0.7071097 0 -0.7071038
vn 0 -0.2549891 -0.9669439
vn 0 0 -1
vn 0.7071068 0 0.7071068
vn 0.6837327 -0.2549883 0.6837327
vn 0 0 1
vn 1.396986E-07 -0.2549891 0.9669439
vn -0.7071068 0 0.7071068
vn -0.6837327 -0.2549883 0.6837327
vn -1 0 0
vn -0.9669439 -0.2549891 0
vn -0.7071097 0 -0.7071038
vn -0.6837357 -0.2549883 -0.6837298
vn 0 0 -1
vn 0 -0.2549891 -0.9669439
vn -0.6871761 -0.235802 -0.6871582
vn 0 -0.2358008 -0.9718014
vn -0.9718014 -0.2358008 0
vn -0.6871582 -0.235802 0.6871761
vn 1.862647E-07 -0.2358022 0.971801
vn 0.6871761 -0.235802 0.6871582
vn 0.9718014 -0.2358008 0
vn 0.6871582 -0.235802 -0.6871761
vn 0 -0.2358008 -0.9718014
vn 0.7070978 0 -0.7071157
vn 1 0 0
vn 0 0 -1
vn -0.7071157 0 -0.7070978
vn -1 0 0
vn -0.7070978 0 0.7071157
vn 0 0 1
vn 0.7071157 0 0.7070978
vn 0 0 -1
vn 5.354982E-07 -1 0
vn 0 -1 0
vn 2.980164E-06 -1 0
vn 0 -1 0
vn 5.354982E-07 -1 0
vn 2.980164E-06 -1 0
vn 2.980164E-06 -1 0
vn 2.980164E-06 -1 0
vn -5.122279E-07 1 0
vn 0 1 -3.725294E-07
vn 0 1 -5.96047E-06
vn 0 1 0
vn -4.889449E-07 1 0
vn 0 1 -5.96047E-06
vn 0 1 -5.96047E-06
vn 0 1 -5.96047E-06
vn 0.9978507 0 -0.06552938
vn 0.9975927 0 0.06934416
vn 0.9975927 0 0.06934416
vn 0.9978507 0 -0.06552938
vn 0.9791956 0 0.2029184
vn 0.9791956 0 0.2029184
vn -0.9975944 0 0.06932003
vn -0.9978507 0 -0.06552938
vn -0.9978507 0 -0.06552938
vn -0.9975927 0 0.06934416
vn -0.9791956 0 0.2029184
vn -0.9791956 -3.725296E-07 0.2029184
vn -0.5002225 0 0.8658969
vn -0.5002006 0 0.8659096
vn -0.5002006 0 0.8659096
vn -0.5002005 0 0.8659096
vn 0.5002006 0 0.8659096
vn 0.5002006 0 0.8659096
vn 0.5002226 0 0.8658969
vn 0.5002006 0 0.8659096
vn 0 1 -5.96047E-06
vn 0 1 0
vn 0 1 -5.96047E-06
vn 0 1 0
vn -5.35511E-07 1 0
vn 0 1 0
vn 0 1 0
vn 0 -1 0
vn 0 -1 0
vn 0 -1 0
vn 0 -1 0
vn 0 -1 0
vn 0 -1 0
vn 5.355106E-07 -1 0
vn 0.38982 0 -0.920891
vn 0.9268042 0 -0.3755449
vn 0.9268042 3.725289E-07 -0.3755449
vn 0.38982 0 -0.920891
vn 0.9208933 0 0.389815
vn 0.9209036 0 0.3897904
vn 0.3755321 0 0.9268094
vn 0.3755321 0 0.9268094
vn -0.3898175 0 0.9208921
vn -0.38982 -3.725287E-07 0.920891
vn -0.9268184 0 0.37551
vn -0.9268184 -3.725298E-07 0.37551
vn -0.9208933 0 -0.389815
vn -0.9208933 -3.725297E-07 -0.389815
vn -0.3755203 0 -0.9268141
vn -0.3755228 0 -0.9268131
vn 0.38982 0 -0.920891
vn 0.38982 0 -0.920891
vn 0 -1 0
vn 0 -1 0
vn 0 -1 0
vn 0 -1 0
vn 0 -1 0
vn 0 -1 0
vn 0 -1 0
vn 0 -1 0
vn 0 1 0
vn 0 1 0
vn 0 1 0
vn 0 1 0
vn 0 1 0
vn 0 1 0
vn 0 1 0
vn 0 1 0
g barrel_mpx_203mm_LOD1_0
f 3/3/3 2/2/2 1/1/1
f 4/4/4 1/1/1 2/2/2
f 1/1/1 4/4/4 5/5/5
f 6/6/6 5/5/5 4/4/4
f 2/2/2 3/3/3 7/7/7
f 8/8/8 7/7/7 3/3/3
f 7/7/7 8/8/8 9/9/9
f 10/10/10 9/9/9 8/8/8
f 9/9/9 10/10/10 11/11/11
f 12/12/12 11/11/11 10/10/10
f 11/11/11 12/12/12 13/13/13
f 14/14/14 13/13/13 12/12/12
f 13/13/13 14/14/14 15/15/15
f 16/16/16 15/15/15 14/14/14
f 15/15/15 16/16/16 17/17/17
f 18/18/18 17/17/17 16/16/16
f 16/16/16 19/19/19 18/18/18
f 20/20/20 18/18/18 19/19/19
f 19/19/19 16/16/16 21/21/21
f 14/14/14 21/21/21 16/16/16
f 21/21/21 14/14/14 22/22/22
f 12/12/12 22/22/22 14/14/14
f 22/22/22 12/12/12 23/23/23
f 10/10/10 23/23/23 12/12/12
f 23/23/23 10/10/10 24/24/24
f 8/8/8 24/24/24 10/10/10
f 24/24/24 8/8/8 25/25/25
f 3/3/3 25/25/25 8/8/8
f 25/25/25 3/3/3 26/26/26
f 1/1/1 26/26/26 3/3/3
f 26/26/26 1/1/1 27/27/27
f 5/5/5 27/27/27 1/1/1
f 26/26/26 28/28/28 25/25/25
f 29/29/29 25/25/25 28/28/28
f 25/25/25 29/29/29 24/24/24
f 28/28/28 26/26/26 30/30/30
f 27/27/27 30/30/30 26/26/26
f 19/19/19 31/31/31 20/20/20
f 31/31/31 19/19/19 32/32/32
f 21/21/21 32/32/32 19/19/19
f 32/32/32 21/21/21 33/33/33
f 22/22/22 33/33/33 21/21/21
f 33/33/33 22/22/22 34/34/34
f 23/23/23 34/34/34 22/22/22
f 34/34/34 23/23/23 35/35/35
f 24/24/24 35/35/35 23/23/23
f 35/35/35 24/24/24 29/29/29
f 36/36/36 20/20/20 31/31/31
f 39/39/39 38/38/38 37/37/37
f 38/38/38 40/40/40 37/37/37
f 41/41/41 40/40/40 38/38/38
f 42/42/42 41/41/41 38/38/38
f 43/43/43 40/40/40 41/41/41
f 40/40/40 44/44/44 37/37/37
f 47/47/47 46/46/46 45/45/45
f 46/46/46 48/48/48 45/45/45
f 49/49/49 48/48/48 46/46/46
f 50/50/50 49/49/49 46/46/46
f 51/51/51 48/48/48 49/49/49
f 48/48/48 52/52/52 45/45/45
f 55/55/55 54/54/54 53/53/53
f 56/56/56 53/53/53 54/54/54
f 54/54/54 55/55/55 57/57/57
f 58/58/58 57/57/57 55/55/55
f 61/61/61 60/60/60 59/59/59
f 62/62/62 59/59/59 60/60/60
f 59/59/59 62/62/62 63/63/63
f 64/64/64 63/63/63 62/62/62
f 67/67/67 66/66/66 65/65/65
f 68/68/68 65/65/65 66/66/66
f 71/71/71 70/70/70 69/69/69
f 72/72/72 69/69/69 70/70/70
f 75/75/75 74/74/74 73/73/73
f 76/76/76 73/73/73 74/74/74
f 76/76/76 74/74/74 77/77/77
f 78/78/78 76/76/76 77/77/77
f 74/74/74 79/79/79 77/77/77
f 82/82/82 81/81/81 80/80/80
f 83/83/83 80/80/80 81/81/81
f 82/82/82 80/80/80 84/84/84
f 84/84/84 80/80/80 85/85/85
f 86/86/86 84/84/84 85/85/85
f 89/89/89 88/88/88 87/87/87
f 90/90/90 87/87/87 88/88/88
f 88/88/88 89/89/89 91/91/91
f 92/92/92 91/91/91 89/89/89
f 91/91/91 92/92/92 93/93/93
f 94/94/94 93/93/93 92/92/92
f 93/93/93 94/94/94 95/95/95
f 96/96/96 95/95/95 94/94/94
f 95/95/95 96/96/96 97/97/97
f 98/98/98 97/97/97 96/96/96
f 97/97/97 98/98/98 99/99/99
f 100/100/100 99/99/99 98/98/98
f 99/99/99 100/100/100 101/101/101
f 102/102/102 101/101/101 100/100/100
f 101/101/101 102/102/102 103/103/103
f 104/104/104 103/103/103 102/102/102
f 107/107/107 106/106/106 105/105/105
f 106/106/106 108/108/108 105/105/105
f 109/109/109 108/108/108 106/106/106
f 110/110/110 109/109/109 106/106/106
f 111/111/111 108/108/108 109/109/109
f 108/108/108 112/112/112 105/105/105
f 115/115/115 114/114/114 113/113/113
f 114/114/114 116/116/116 113/113/113
f 117/117/117 116/116/116 114/114/114
f 118/118/118 117/117/117 114/114/114
f 119/119/119 116/116/116 117/117/117
f 116/116/116 120/120/120 113/113/113
