g barrel_rpk16_izhmash_550mm_LOD1
v 0.007006092 -0.3134555 -0.01056198
v 3.611869E-06 -0.281016 -0.01288726
v 3.522387E-06 -0.3134555 -0.01288725
v 0.007006165 -0.281016 -0.01056194
v 0.0116125 -0.3134555 -0.004040699
v 0.0116125 -0.281016 -0.004040699
v 0.01066407 -0.281016 0.02490235
v 0.01066407 -0.3134554 0.02490236
v -0.006997615 -0.3134555 -0.01058327
v -0.006997536 -0.281016 -0.01058332
v -0.01161255 -0.3134555 -0.004040718
v -0.01161255 -0.281016 -0.004040794
v -0.01066412 -0.3134554 0.02490234
v -0.01066412 -0.281016 0.02490225
v 0.008281729 -0.3134554 0.03591788
v 0.008281729 -0.2914238 0.03591787
v -0.008280575 -0.2914238 0.03591778
v -0.008280575 -0.3134554 0.03591786
v 0.008281766 -0.2914238 0.06057343
v 0.008281766 -0.3134553 0.06057344
v -0.008285738 -0.3134553 0.06057344
v -0.008285738 -0.2914238 0.06057336
v -0.008285738 -0.3134553 0.06057344
v -2.756094E-07 -0.2914238 0.0647955
v -2.750133E-07 -0.3134553 0.06479555
v -0.008285738 -0.2914238 0.06057336
v 0.008281766 -0.3134553 0.06057344
v 0.008281766 -0.2914238 0.06057343
v 0.0116125 -0.281016 -0.004040699
v -0.006997536 -0.281016 -0.01058332
v 0.007006165 -0.281016 -0.01056194
v -0.01161255 -0.281016 -0.004040794
v -0.01066412 -0.281016 0.02490225
v 0.01066407 -0.281016 0.02490235
v 3.611869E-06 -0.281016 -0.01288726
v 0.01066407 -0.3134554 0.02490236
v -0.01161255 -0.3134555 -0.004040718
v -0.01066412 -0.3134554 0.02490234
v 0.007006092 -0.3134555 -0.01056198
v 3.522387E-06 -0.3134555 -0.01288725
v -0.006997615 -0.3134555 -0.01058327
v 0.0116125 -0.3134555 -0.004040699
v -0.008280575 -0.3134554 0.03591786
v 0.008281729 -0.3134554 0.03591788
v -0.008285738 -0.3134553 0.06057344
v -2.750133E-07 -0.3134553 0.06479555
v 0.008281766 -0.3134553 0.06057344
v -0.01066412 -0.281016 0.02490225
v 0.008281729 -0.2914238 0.03591787
v -0.008280575 -0.2914238 0.03591778
v 0.01066407 -0.281016 0.02490235
v -0.008285738 -0.2914238 0.06057336
v 0.008281729 -0.2914238 0.03591787
v -2.756094E-07 -0.2914238 0.0647955
v -0.008280575 -0.2914238 0.03591778
v 0.008281766 -0.2914238 0.06057343
v -0.00742907 -0.01180271 -0.007273587
v -0.01050629 -0.2826308 0.0001554782
v -0.00742907 -0.2826308 -0.007273578
v -0.01050629 -0.01180264 0.0001554591
v 3.50776E-07 -0.01180313 -0.01035117
v 3.494436E-07 -0.2826308 -0.01035116
v -0.007429075 -0.2826308 0.007584534
v -0.007429074 -0.01180264 0.007584515
v -1.957667E-08 -0.2826308 0.01066175
v -1.828459E-08 -0.01180264 0.01066174
v 0.007429034 -0.2826308 0.007584525
v 0.007429034 -0.01180267 0.007584515
v 0.01050624 -0.2826308 0.0001554687
v 0.01050624 -0.01180267 0.0001554591
v 0.007429025 -0.2826308 -0.007274102
v 0.007429026 -0.01180313 -0.007274112
v 3.494436E-07 -0.2826308 -0.01035116
v 3.50776E-07 -0.01180313 -0.01035117
v 0.01050624 -0.5844542 0.0001554782
v -0.007429074 -0.5844542 0.007584534
v 0.007429033 -0.5844542 0.007584534
v -0.01050629 -0.5844542 0.0001554782
v -0.00742907 -0.5844542 -0.007273568
v 0.007429025 -0.5844538 -0.007274093
v -1.957667E-08 -0.5844542 0.01066176
v 3.494006E-07 -0.5844538 -0.01035115
v -0.01004048 -0.05458809 0.02561518
v -0.007099688 -0.2917038 0.01851549
v -0.007099687 -0.05458809 0.01851549
v -0.01004046 -0.2917038 0.02561516
v 3.696045E-07 -0.05458847 0.01557434
v 3.475813E-07 -0.2917033 0.01557437
v -0.00709968 -0.2917038 0.03271483
v -0.007099651 -0.05458805 0.03271482
v -1.582183E-08 -0.2917038 0.0356556
v -1.582183E-08 -0.05458805 0.03565559
v 0.007099645 -0.2917038 0.03271483
v 0.007099646 -0.05458805 0.03271481
v 0.01004043 -0.2917038 0.02561516
v 0.01004045 -0.05458809 0.02561513
v 0.007099634 -0.2917033 0.01851499
v 0.007099605 -0.05458839 0.01851501
v 3.475813E-07 -0.2917033 0.01557437
v 3.696045E-07 -0.05458847 0.01557434
v -0.007006143 -0.08957781 0.009810371
v -3.660695E-06 -0.04969055 0.01213565
v -3.571213E-06 -0.08957781 0.01213564
v -0.007006215 -0.04969055 0.009810343
v -0.01161255 -0.08957781 0.003289099
v -0.01161255 -0.04969055 0.00328909
v -0.01161255 -0.04969059 -0.02477611
v -0.01161255 -0.08957781 -0.0247761
v 0.006997564 -0.08957781 0.009831658
v 0.006997486 -0.04969055 0.009831715
v 0.0116125 -0.08957781 0.003289109
v 0.0116125 -0.04969055 0.003289185
v 0.0116125 -0.08957781 -0.0247761
v 0.0116125 -0.04969059 -0.02477602
v 0.0116125 -0.08957781 -0.0247761
v -0.01161255 -0.04969059 -0.02477611
v -0.01161255 -0.08957781 -0.0247761
v 0.0116125 -0.04969059 -0.02477602
v -0.01161255 -0.04969055 0.00328909
v 0.006997486 -0.04969055 0.009831715
v -0.007006215 -0.04969055 0.009810343
v 0.0116125 -0.04969055 0.003289185
v 0.0116125 -0.04969059 -0.02477602
v -0.01161255 -0.04969059 -0.02477611
v -3.660695E-06 -0.04969055 0.01213565
v 0.0116125 -0.08957781 0.003289109
v -0.007006143 -0.08957781 0.009810371
v 0.006997564 -0.08957781 0.009831658
v -0.01161255 -0.08957781 0.003289099
v -0.01161255 -0.08957781 -0.0247761
v 0.0116125 -0.08957781 -0.0247761
v -3.571213E-06 -0.08957781 0.01213564
v -0.00742907 -0.5844542 -0.007273568
v -0.01050629 -0.3124359 0.0001554687
v -0.01050629 -0.5844542 0.0001554782
v -0.00742907 -0.3124359 -0.007273587
v 3.494006E-07 -0.5844538 -0.01035115
v 3.494436E-07 -0.3124359 -0.01035116
v -0.007429075 -0.3124359 0.007584525
v -0.007429074 -0.5844542 0.007584534
v -1.957667E-08 -0.3124359 0.01066174
v -1.957667E-08 -0.5844542 0.01066176
v 0.007429034 -0.3124359 0.007584525
v 0.007429033 -0.5844542 0.007584534
v 0.01050624 -0.3124359 0.0001554591
v 0.01050624 -0.5844542 0.0001554782
v 0.007429025 -0.3124359 -0.007274112
v 0.007429025 -0.5844538 -0.007274093
v 3.494436E-07 -0.3124359 -0.01035116
v 3.494006E-07 -0.5844538 -0.01035115
v 0.01004045 -0.05458809 0.02561513
v -0.007099687 -0.05458809 0.01851549
v 0.007099605 -0.05458839 0.01851501
v -0.01004048 -0.05458809 0.02561518
v -0.007099651 -0.05458805 0.03271482
v 0.007099646 -0.05458805 0.03271481
v -1.582183E-08 -0.05458805 0.03565559
v 3.696045E-07 -0.05458847 0.01557434
v 0.01050624 -0.01180267 0.0001554591
v -0.00742907 -0.01180271 -0.007273587
v 0.007429026 -0.01180313 -0.007274112
v -0.01050629 -0.01180264 0.0001554591
v -0.007429074 -0.01180264 0.007584515
v 0.007429034 -0.01180267 0.007584515
v -1.828459E-08 -0.01180264 0.01066174
v 3.50776E-07 -0.01180313 -0.01035117
vt 0.2621207 0.7162192
vt 0.2883272 0.8314352
vt 0.2883275 0.7162191
vt 0.262121 0.8314353
vt 0.2337629 0.7162194
vt 0.2337633 0.8314354
vt 0.1309108 0.8314359
vt 0.1309099 0.7162201
vt 0.3145052 0.7162189
vt 0.3145052 0.8314351
vt 0.3429416 0.7162189
vt 0.3429419 0.8314351
vt 0.4457948 0.7162186
vt 0.4457948 0.8314347
vt 0.09088147 0.7162206
vt 0.09088194 0.7944704
vt 0.4858246 0.7944689
vt 0.4858248 0.7162188
vt 0.003312234 0.7944713
vt 0.003311995 0.7162215
vt 0.5733945 0.7162188
vt 0.5733945 0.7944689
vt 0.335567 0.9924253
vt 0.4138169 0.9593969
vt 0.335567 0.9593969
vt 0.4138172 0.9924253
vt 0.335567 0.9263795
vt 0.4138172 0.9263795
vt 0.5001985 0.9967437
vt 0.4769606 0.9306458
vt 0.4770364 0.9803832
vt 0.5001982 0.9142548
vt 0.6029959 0.9176238
vt 0.6029959 0.9933755
vt 0.4687775 0.9555118
vt 0.4628107 0.8420998
vt 0.3600129 0.9212204
vt 0.4628107 0.9178516
vt 0.3368513 0.8550922
vt 0.3285927 0.8799635
vt 0.3367757 0.9048296
vt 0.3600127 0.8387314
vt 0.5019349 0.909386
vt 0.5019352 0.8505612
vt 0.5895047 0.9094044
vt 0.6045005 0.8799767
vt 0.5895049 0.8505612
vt 0.9925746 0.7029408
vt 0.9387493 0.6356503
vt 0.9387494 0.6944751
vt 0.9925746 0.627189
vt 0.9447438 0.4990767
vt 0.8571739 0.5579191
vt 0.9597399 0.5285044
vt 0.8571739 0.4990944
vt 0.9447438 0.5579198
vt 0.005161129 0.0320182
vt 0.9823698 0.06211363
vt 0.9823698 0.03201826
vt 0.005161088 0.06211366
vt 0.005162615 0.001921051
vt 0.9823698 0.001921148
vt 0.9823698 0.09220915
vt 0.005161032 0.09220919
vt 0.9823698 0.1223048
vt 0.005160991 0.1223048
vt 0.9823698 0.1524009
vt 0.005160991 0.1524005
vt 0.9823697 0.1824969
vt 0.00516095 0.1824962
vt 0.9823697 0.2125943
vt 0.005162314 0.2125938
vt 0.9823697 0.2426882
vt 0.005162314 0.2426881
vt 0.6935802 0.9983692
vt 0.6671941 0.9346675
vt 0.6671941 0.9874397
vt 0.6935802 0.9237384
vt 0.7199662 0.9346679
vt 0.7199681 0.9874397
vt 0.6562648 0.9610538
vt 0.7308969 0.9610552
vt 0.8455182 0.6575414
vt 0.003351009 0.6848354
vt 0.8455182 0.6848353
vt 0.00335089 0.6575415
vt 0.845517 0.7121305
vt 0.00335244 0.7121307
vt 0.003351009 0.6302475
vt 0.8455182 0.6302475
vt 0.003351009 0.6029536
vt 0.8455182 0.6029539
vt 0.003351129 0.5756597
vt 0.8455177 0.57566
vt 0.003351129 0.5483658
vt 0.8455177 0.5483663
vt 0.003352678 0.5210705
vt 0.8455163 0.521071
vt 0.003352678 0.4937783
vt 0.845516 0.4937788
vt 0.1392675 0.8398516
vt 0.1654724 0.9815205
vt 0.1654739 0.8398522
vt 0.1392658 0.9815205
vt 0.1109105 0.8398514
vt 0.1109083 0.9815202
vt 0.01122826 0.981519
vt 0.01123005 0.83985
vt 0.191652 0.8398525
vt 0.1916506 0.9815208
vt 0.2200884 0.8398528
vt 0.220087 0.9815208
vt 0.3197681 0.8398535
vt 0.3197667 0.9815215
vt 0.5828261 0.7983352
vt 0.7244949 0.7158463
vt 0.5828261 0.7158463
vt 0.7244945 0.7983352
vt 0.9306701 0.6681191
vt 0.8645722 0.6913558
vt 0.9143095 0.6912804
vt 0.848181 0.6681191
vt 0.8481815 0.5684389
vt 0.9306705 0.5684389
vt 0.8894383 0.699539
vt 0.692969 0.9039327
vt 0.6268407 0.9270943
vt 0.6765778 0.9271704
vt 0.61048 0.9039325
vt 0.6104802 0.804253
vt 0.6929692 0.804253
vt 0.6517119 0.9353532
vt 0.9941986 0.2782891
vt 0.003143903 0.3083861
vt 0.9941989 0.3083858
vt 0.003143816 0.2782893
vt 0.9941965 0.2481906
vt 0.00314373 0.2481907
vt 0.003144006 0.3384828
vt 0.9941991 0.3384827
vt 0.003144179 0.3685796
vt 0.9941998 0.3685796
vt 0.003144179 0.3986764
vt 0.9941993 0.3986763
vt 0.003144368 0.4287733
vt 0.9941993 0.4287729
vt 0.003144368 0.4588717
vt 0.9941981 0.4588713
vt 0.003144469 0.4889667
vt 0.9941981 0.4889665
vt 0.7931851 0.8892484
vt 0.7091548 0.8967749
vt 0.7707768 0.9160667
vt 0.7060371 0.8619683
vt 0.7284447 0.8351521
vt 0.7900674 0.8544418
vt 0.763251 0.8320344
vt 0.7359723 0.9191844
vt 0.8320258 0.7889257
vt 0.744878 0.7889257
vt 0.8064998 0.8144529
vt 0.7448779 0.7528279
vt 0.770403 0.7273029
vt 0.8320258 0.7528279
vt 0.8065008 0.7273028
vt 0.7704039 0.8144529
vn 0.5957565 -1.102537E-06 -0.8031651
vn 0.001346206 -2.744551E-07 -0.9999992
vn 0.001339269 -2.9768E-07 -0.9999992
vn 0.5957612 1.047473E-07 -0.8031616
vn 0.9579248 -5.298526E-07 -0.2870194
vn 0.9579254 0 -0.2870173
vn 0.9955136 0 0.09461848
vn 0.9924605 0 0.1225649
vn -0.5949463 7.029344E-07 -0.8037654
vn -0.5949399 -9.953571E-07 -0.8037702
vn -0.9580197 3.828995E-07 -0.2867025
vn -0.9580182 -6.467583E-07 -0.286707
vn -0.9924541 4.084212E-07 0.1226169
vn -0.9955102 2.504444E-07 0.09465469
vn 0.9943348 0 0.1062939
vn 0.9919466 0 0.1266562
vn -0.9919494 3.616972E-07 0.1266349
vn -0.9943403 3.909042E-07 0.1062421
vn 1 0 -1.450496E-06
vn 1 0 -1.450495E-06
vn -1 0 -0.000209403
vn -1 0 -0.0002094031
vn -0.4540299 2.311495E-06 0.8909864
vn 8.07825E-05 2.164325E-06 1
vn 8.360417E-05 2.16434E-06 1
vn -0.4540324 3.471106E-06 0.8909851
vn 0.4541773 1.545285E-06 0.8909113
vn 0.4541748 3.85647E-07 0.8909127
vn 0 1 0
vn 0 1 0
vn 0 1 0
vn 0 1 0
vn 0 1 -6.590005E-07
vn 0 1 -6.590006E-07
vn 0 1 0
vn 0 -1 6.590004E-07
vn 0 -1 6.590003E-07
vn 0 -1 6.590004E-07
vn 0 -1 0
vn 0 -1 0
vn 0 -1 0
vn -8.915844E-07 -1 6.297843E-07
vn 0 -1 5.19453E-06
vn 0 -1 5.19453E-06
vn 0 -1 3.094388E-06
vn 1.57749E-06 -1 3.094389E-06
vn 1.57749E-06 -1 3.094389E-06
vn -3.95451E-06 0.7268718 0.6867731
vn -3.954509E-06 0.7268718 0.6867731
vn -3.95451E-06 0.7268717 0.6867732
vn -3.070852E-06 0.7268726 0.6867723
vn 1.174639E-06 1 -2.305091E-06
vn 1.174639E-06 1 -2.305091E-06
vn 1.174639E-06 1 -2.305091E-06
vn 0 1 -3.094389E-06
vn -1.577476E-06 1 -3.094389E-06
vn -0.7071207 0 -0.7070928
vn -1 0 -2.258955E-07
vn -0.7071154 0 -0.7070981
vn -1 0 7.187608E-07
vn -1.948839E-05 0 -1
vn -1.223371E-05 0 -1
vn -0.7071065 0 0.707107
vn -0.7071069 0 0.7071066
vn 6.058107E-07 0 1
vn -5.955438E-07 0 1
vn 0.7071075 0 0.7071061
vn 0.7071068 0 0.7071068
vn 1 0 1.176447E-05
vn 1 0 1.924244E-05
vn 0.7071155 0 -0.7070981
vn 0.7071205 0 -0.7070929
vn -1.223371E-05 0 -1
vn -1.948839E-05 0 -1
vn 9.663875E-06 -1 -2.222422E-05
vn -1.210292E-06 -1 1.357126E-06
vn 0 -1 4.279028E-06
vn -1.815439E-06 -1 2.567419E-06
vn 9.058736E-06 -1 -2.186973E-05
vn 3.080642E-05 -1 -7.43733E-05
vn 0 -1 0
vn 3.080642E-05 -1 -7.437327E-05
vn -1 0 3.942898E-06
vn -0.7071203 0 -0.7070932
vn -0.70712 0 -0.7070935
vn -1 0 4.31255E-07
vn -1.373839E-05 0 -1
vn -1.885176E-05 0 -1
vn -0.7071068 0 0.7071066
vn -0.7071044 0 0.7071091
vn 5.377859E-07 0 1
vn -8.214393E-07 0 1
vn 0.7071071 0 0.7071064
vn 0.7071057 0 0.7071078
vn 1 0 1.915904E-05
vn 1 0 1.439582E-05
vn 0.70712 0 -0.7070935
vn 0.7071193 0 -0.7070943
vn -1.885176E-05 0 -1
vn -1.373839E-05 0 -1
vn -0.5957562 -9.93694E-07 0.8031653
vn -0.001345547 -3.281769E-07 0.9999992
vn -0.001339259 -2.420968E-07 0.9999992
vn -0.5957609 0 0.8031619
vn -0.9530955 -4.840284E-07 0.3026699
vn -0.9530963 0 0.3026675
vn -1 0 1.274275E-07
vn -1 0 1.274275E-07
vn 0.5949463 5.816115E-07 0.8037654
vn 0.5949399 -8.514209E-07 0.8037702
vn 0.9531957 2.813037E-07 0.3023542
vn 0.9531941 -5.78334E-07 0.302359
vn 1 0 -1.274275E-07
vn 1 0 -1.274275E-07
vn 1.651152E-06 4.832273E-07 -1
vn 2.865703E-06 1.190422E-06 -1
vn 4.106231E-07 -2.390927E-07 -1
vn 4.106231E-06 1.912742E-06 -1
vn 0 1 0
vn 0 1 0
vn 0 1 0
vn 0 1 0
vn 0 1 -1.359227E-06
vn 0 1 -1.359226E-06
vn 0 1 0
vn 0 -1 0
vn 0 -1 0
vn 0 -1 0
vn 0 -1 0
vn 0 -1 0
vn 0 -1 0
vn 0 -1 0
vn -0.7071199 0 -0.7070936
vn -1 0 -1.232158E-07
vn -1 0 -1.472813E-06
vn -0.7071151 0 -0.7070984
vn -1.979641E-05 0 -1
vn -1.271182E-05 0 -1
vn -0.7071063 0 0.7071072
vn -0.7071072 0 0.7071063
vn 4.517914E-07 0 1
vn -3.491117E-07 0 1
vn 0.7071074 0 0.7071061
vn 0.7071077 0 0.7071058
vn 1 0 1.164382E-05
vn 1 0 1.85853E-05
vn 0.7071151 0 -0.7070985
vn 0.7071209 0 -0.7070926
vn -1.271182E-05 0 -1
vn -1.979641E-05 0 -1
vn 2.149056E-05 1 -5.188306E-05
vn 2.149056E-05 1 -5.188306E-05
vn 2.149056E-05 1 -5.188306E-05
vn 0 1 0
vn 0 1 -5.373051E-06
vn 0 1 -5.373052E-06
vn 0 1 0
vn 2.148969E-05 1 -7.782401E-05
vn 2.823903E-05 1 -7.330993E-05
vn 2.823904E-05 1 -7.330994E-05
vn 2.823903E-05 1 -7.330993E-05
vn 1.815439E-06 1 -9.517701E-06
vn 2.567418E-06 1 -6.198284E-06
vn 2.567418E-06 1 -6.198284E-06
vn 2.567418E-06 1 -6.198284E-06
vn 2.823922E-05 1 -6.817548E-05
g barrel_rpk16_izhmash_550mm_LOD1_0
f 3/3/3 2/2/2 1/1/1
f 4/4/4 1/1/1 2/2/2
f 1/1/1 4/4/4 5/5/5
f 6/6/6 5/5/5 4/4/4
f 6/6/6 7/7/7 5/5/5
f 8/8/8 5/5/5 7/7/7
f 3/3/3 9/9/9 2/2/2
f 10/10/10 2/2/2 9/9/9
f 9/9/9 11/11/11 10/10/10
f 12/12/12 10/10/10 11/11/11
f 11/11/11 13/13/13 12/12/12
f 14/14/14 12/12/12 13/13/13
f 8/8/8 7/7/7 15/15/15
f 16/16/16 15/15/15 7/7/7
f 14/14/14 13/13/13 17/17/17
f 18/18/18 17/17/17 13/13/13
f 16/16/16 19/19/19 15/15/15
f 20/20/20 15/15/15 19/19/19
f 18/18/18 21/21/21 17/17/17
f 22/22/22 17/17/17 21/21/21
f 25/25/25 24/24/24 23/23/23
f 26/26/26 23/23/23 24/24/24
f 25/25/25 27/27/27 24/24/24
f 28/28/28 24/24/24 27/27/27
f 31/31/31 30/30/30 29/29/29
f 32/32/32 29/29/29 30/30/30
f 32/32/32 33/33/33 29/29/29
f 34/34/34 29/29/29 33/33/33
f 35/35/35 30/30/30 31/31/31
f 38/38/38 37/37/37 36/36/36
f 37/37/37 39/39/39 36/36/36
f 40/40/40 39/39/39 37/37/37
f 41/41/41 40/40/40 37/37/37
f 36/36/36 39/39/39 42/42/42
f 38/38/38 36/36/36 43/43/43
f 44/44/44 43/43/43 36/36/36
f 43/43/43 44/44/44 45/45/45
f 46/46/46 45/45/45 44/44/44
f 47/47/47 46/46/46 44/44/44
f 50/50/50 49/49/49 48/48/48
f 51/51/51 48/48/48 49/49/49
f 54/54/54 53/53/53 52/52/52
f 55/55/55 52/52/52 53/53/53
f 56/56/56 53/53/53 54/54/54
f 59/59/59 58/58/58 57/57/57
f 60/60/60 57/57/57 58/58/58
f 57/57/57 61/61/61 59/59/59
f 62/62/62 59/59/59 61/61/61
f 58/58/58 63/63/63 60/60/60
f 64/64/64 60/60/60 63/63/63
f 63/63/63 65/65/65 64/64/64
f 66/66/66 64/64/64 65/65/65
f 65/65/65 67/67/67 66/66/66
f 68/68/68 66/66/66 67/67/67
f 67/67/67 69/69/69 68/68/68
f 70/70/70 68/68/68 69/69/69
f 69/69/69 71/71/71 70/70/70
f 72/72/72 70/70/70 71/71/71
f 71/71/71 73/73/73 72/72/72
f 74/74/74 72/72/72 73/73/73
f 77/77/77 76/76/76 75/75/75
f 78/78/78 75/75/75 76/76/76
f 78/78/78 79/79/79 75/75/75
f 80/80/80 75/75/75 79/79/79
f 81/81/81 76/76/76 77/77/77
f 82/82/82 80/80/80 79/79/79
f 85/85/85 84/84/84 83/83/83
f 86/86/86 83/83/83 84/84/84
f 85/85/85 87/87/87 84/84/84
f 88/88/88 84/84/84 87/87/87
f 86/86/86 89/89/89 83/83/83
f 90/90/90 83/83/83 89/89/89
f 89/89/89 91/91/91 90/90/90
f 92/92/92 90/90/90 91/91/91
f 91/91/91 93/93/93 92/92/92
f 94/94/94 92/92/92 93/93/93
f 93/93/93 95/95/95 94/94/94
f 96/96/96 94/94/94 95/95/95
f 95/95/95 97/97/97 96/96/96
f 98/98/98 96/96/96 97/97/97
f 97/97/97 99/99/99 98/98/98
f 100/100/100 98/98/98 99/99/99
f 103/103/103 102/102/102 101/101/101
f 104/104/104 101/101/101 102/102/102
f 101/101/101 104/104/104 105/105/105
f 106/106/106 105/105/105 104/104/104
f 106/106/106 107/107/107 105/105/105
f 108/108/108 105/105/105 107/107/107
f 103/103/103 109/109/109 102/102/102
f 110/110/110 102/102/102 109/109/109
f 109/109/109 111/111/111 110/110/110
f 112/112/112 110/110/110 111/111/111
f 111/111/111 113/113/113 112/112/112
f 114/114/114 112/112/112 113/113/113
f 117/117/117 116/116/116 115/115/115
f 118/118/118 115/115/115 116/116/116
f 121/121/121 120/120/120 119/119/119
f 122/122/122 119/119/119 120/120/120
f 122/122/122 123/123/123 119/119/119
f 124/124/124 119/119/119 123/123/123
f 125/125/125 120/120/120 121/121/121
f 128/128/128 127/127/127 126/126/126
f 129/129/129 126/126/126 127/127/127
f 129/129/129 130/130/130 126/126/126
f 131/131/131 126/126/126 130/130/130
f 132/132/132 127/127/127 128/128/128
f 135/135/135 134/134/134 133/133/133
f 136/136/136 133/133/133 134/134/134
f 133/133/133 136/136/136 137/137/137
f 138/138/138 137/137/137 136/136/136
f 134/134/134 135/135/135 139/139/139
f 140/140/140 139/139/139 135/135/135
f 139/139/139 140/140/140 141/141/141
f 142/142/142 141/141/141 140/140/140
f 141/141/141 142/142/142 143/143/143
f 144/144/144 143/143/143 142/142/142
f 143/143/143 144/144/144 145/145/145
f 146/146/146 145/145/145 144/144/144
f 145/145/145 146/146/146 147/147/147
f 148/148/148 147/147/147 146/146/146
f 147/147/147 148/148/148 149/149/149
f 150/150/150 149/149/149 148/148/148
f 153/153/153 152/152/152 151/151/151
f 154/154/154 151/151/151 152/152/152
f 154/154/154 155/155/155 151/151/151
f 156/156/156 151/151/151 155/155/155
f 157/157/157 156/156/156 155/155/155
f 158/158/158 152/152/152 153/153/153
f 161/161/161 160/160/160 159/159/159
f 162/162/162 159/159/159 160/160/160
f 162/162/162 163/163/163 159/159/159
f 164/164/164 159/159/159 163/163/163
f 165/165/165 164/164/164 163/163/163
f 166/166/166 160/160/160 161/161/161
