g barrel_870_vent_rib_barrel_cut_off_325mm_LOD1
v 0.01184119 -0.3238809 -0.0001360554
v 0.008343641 -0.3238809 0.008306905
v 0.00995146 -0.1575997 0.009914724
v 0.01411452 -0.1575997 -0.0001360554
v 0.008343641 -0.2946683 -0.008579015
v 0.00995146 -0.1576023 -0.01018678
v 0.00339318 -0.1576125 0.01277984
v 0.00339318 -0.3238809 0.01035922
v 0.008343641 -0.3140511 -0.008579015
v 0.008343641 -0.3238809 -0.008579015
v -9.931922E-05 -0.3140511 -0.01207657
v -9.931922E-05 -0.3238809 -0.01207657
v -0.008542254 -0.3140511 -0.008579015
v -0.008542254 -0.3238809 -0.008579015
v -0.01203983 -0.3238809 -0.0001360554
v -0.008542254 -0.2946683 -0.008579015
v -0.01454935 -0.1576073 -0.0001360554
v -0.008542254 -0.3238809 0.008306905
v -0.0103152 -0.1576073 0.01007982
v -0.01015005 -0.1576023 -0.01018678
v -9.931922E-05 -0.1576023 -0.01434984
v -9.931922E-05 -0.2946683 -0.01207657
v -0.00359182 -0.1576125 0.01277984
v -0.00359182 -0.3238809 0.01035922
v 0.0118082 0.03448519 0.01177146
v 0.00339318 -0.01634275 0.01483722
v -9.931922E-05 -0.01634275 0.01628505
v -9.931922E-05 0.03448519 0.01670414
v -0.01200684 0.03448519 0.01177146
v -0.00359182 -0.01634275 0.01483722
v -0.01200684 0.0008150005 0.01177146
v -0.0103152 -0.1576073 0.01007982
v -0.00359182 -0.1576125 0.01277984
v -0.01454935 -0.1576073 -0.0001360554
v -0.01693952 0.0008150005 -0.0001360554
v -0.01015005 -0.1576023 -0.01018678
v -0.01200684 0.0008150005 -0.01204357
v -9.931922E-05 -0.1576023 -0.01434984
v -9.931922E-05 0.0008150005 -0.01697625
v 0.00995146 -0.1576023 -0.01018678
v 0.0118082 0.0008150005 -0.01204357
v 0.00995146 -0.1575997 0.009914724
v 0.00339318 -0.1576125 0.01277984
v 0.01674088 0.03448519 -0.0001360554
v 0.01411452 -0.1575997 -0.0001360554
v 0.0118082 0.0008150005 -0.01204357
v 0.0118082 0.03448519 -0.01204357
v 0.00995146 -0.1576023 -0.01018678
v 0.01674088 0.03448519 -0.0001360554
v -9.931922E-05 0.03448519 0.01670414
v -0.01200684 0.03448519 0.01177146
v 0.0118082 0.03448519 -0.01204357
v 0.0118082 0.03448519 0.01177146
v 0.008343641 -0.3238809 -0.008579015
v -9.931922E-05 -0.3238809 -0.01207657
v 0.008343641 -0.3238809 0.008306905
v 0.01184119 -0.3238809 -0.0001360554
v -0.008542254 -0.3238809 0.008306905
v 0.00339318 -0.3238809 0.01035922
v -0.00359182 -0.3238809 0.01035922
v 0.00339318 -0.323863 0.01685146
v -0.00359182 -0.323863 0.01685146
v -0.01203983 -0.3238809 -0.0001360554
v -0.008542254 -0.3238809 -0.008579015
v -0.01200684 0.03448519 0.01177146
v -0.01200684 0.0008150005 0.01177146
v 0.0118082 0.0008150005 -0.01204357
v 0.0118082 0.03448519 -0.01204357
v 0.01525244 -0.3139393 -0.02702196
v 0.01525244 -0.2945896 -0.02702196
v 0.01525244 -0.2945896 -0.03974476
v 0.01525244 -0.3139393 -0.03974476
v 0.006255811 -0.3139393 -0.01802528
v 0.006255811 -0.2945896 -0.01802528
v 0.006255811 -0.2945896 -0.0487389
v 0.006255811 -0.3139393 -0.0487389
v -0.00646456 -0.2945896 -0.0487389
v -0.00646456 -0.3139393 -0.0487389
v -0.01546124 -0.2945896 -0.03974476
v -0.01546124 -0.3139393 -0.03974476
v -0.01546124 -0.2945896 -0.02702196
v -0.01546124 -0.3139393 -0.02702196
v -0.00646456 -0.2945896 -0.01802528
v -0.00646456 -0.3139393 -0.01802528
v 0.01525244 -0.2945896 -0.03974476
v -0.01546124 -0.2945896 -0.03974476
v -0.00646456 -0.2945896 -0.0487389
v 0.006255811 -0.2945896 -0.0487389
v -0.01546124 -0.2945896 -0.02702196
v 0.01525244 -0.2945896 -0.02702196
v -0.00646456 -0.2945896 -0.01802528
v 0.006255811 -0.2945896 -0.01802528
v 0.006255811 -0.3139393 -0.0487389
v -0.00646456 -0.3139393 -0.0487389
v -0.01546124 -0.3139393 -0.03974476
v 0.01525244 -0.3139393 -0.03974476
v 0.01525244 -0.3139393 -0.02702196
v -0.01546124 -0.3139393 -0.02702196
v 0.006255811 -0.3139393 -0.01802528
v -0.00646456 -0.3139393 -0.01802528
v 0.008343641 -0.2946683 -0.008579015
v 0.006255811 -0.2945896 -0.01802528
v 0.006255811 -0.3139393 -0.01802528
v 0.008343641 -0.3140511 -0.008579015
v -0.008542254 -0.2946683 -0.008579015
v -0.008542254 -0.3140511 -0.008579015
v -0.00646456 -0.3139393 -0.01802528
v -0.00646456 -0.2945896 -0.01802528
v -0.008542254 -0.3140511 -0.008579015
v -9.931922E-05 -0.3140511 -0.01207657
v -0.00646456 -0.3139393 -0.01802528
v 0.006255811 -0.3139393 -0.01802528
v 0.008343641 -0.3140511 -0.008579015
v -9.931922E-05 -0.2946683 -0.01207657
v -0.008542254 -0.2946683 -0.008579015
v -0.00646456 -0.2945896 -0.01802528
v 0.006255811 -0.2945896 -0.01802528
v 0.008343641 -0.2946683 -0.008579015
v -0.01693952 0.0008150005 -0.0001360554
v -9.931922E-05 0.0008150005 -0.01697625
v 0.0118082 0.0008150005 -0.01204357
v -0.01200684 0.0008150005 0.01177146
v -0.01200684 0.0008150005 -0.01204357
v -0.00359182 -0.1576125 0.01757785
v -0.00359182 -0.323863 0.01685146
v -0.00359182 -0.3238809 0.01035922
v -0.00359182 -0.1576125 0.01277984
v -0.00359182 -0.01634275 0.01819507
v -0.00359182 -0.01634275 0.01483722
v -9.931922E-05 -0.01634275 0.01628505
v 0.00339318 -0.01634275 0.01819507
v 0.00339318 -0.01634275 0.01483722
v 0.00339318 -0.01634275 0.01819507
v 0.00339318 -0.01634275 0.01483722
v 0.00339318 -0.08697762 0.01788646
v 0.00339318 -0.1576125 0.01277984
v 0.00339318 -0.1576125 0.01757785
v 0.00339318 -0.1576125 0.01757785
v 0.00339318 -0.323863 0.01685146
v -0.00359182 -0.323863 0.01685146
v -0.00359182 -0.1576125 0.01757785
v -0.00359182 -0.01634275 0.01819507
v -0.00359182 -0.08697762 0.01788646
v -0.00359182 -0.01634275 0.01483722
v -0.00359182 -0.1576125 0.01277984
v -0.00359182 -0.1576125 0.01757785
v 0.00339318 -0.323863 0.01685146
v 0.00339318 -0.1576125 0.01757785
v 0.00339318 -0.1576125 0.01277984
v 0.00339318 -0.3238809 0.01035922
v -0.00359182 -0.01634275 0.01819507
v 0.00339318 -0.01634275 0.01819507
v 0.00339318 -0.08697762 0.01788646
v -0.00359182 -0.08697762 0.01788646
v -0.00359182 -0.1576125 0.01757785
v -0.00359182 -0.08697762 0.01788646
v 0.00339318 -0.08697762 0.01788646
v 0.00339318 -0.1576125 0.01757785
vt 0.2067945 0.4464765
vt 0.204565 0.4875787
vt 0.9886673 0.5295166
vt 0.991264 0.480438
vt 0.3462839 0.4100049
vt 0.9932946 0.4313667
vt 0.9865383 0.5617767
vt 0.2030105 0.5116785
vt 0.2547603 0.4070388
vt 0.2083583 0.405735
vt 0.2559089 0.3660275
vt 0.2095012 0.3650036
vt 0.25673 0.3250177
vt 0.2103197 0.3242557
vt 0.2107436 0.2834726
vt 0.3482969 0.3261979
vt 0.9959896 0.2839093
vt 0.2104677 0.2421781
vt 0.9957317 0.234097
vt 0.9956558 0.3333089
vt 0.9947495 0.3822498
vt 0.3475379 0.3681999
vt 0.9951313 0.2014451
vt 0.2100427 0.2179689
vt 0.0738037 0.8759654
vt 0.3135695 0.8343194
vt 0.3135695 0.8173172
vt 0.0735078 0.8177316
vt 0.07361827 0.7595316
vt 0.3135695 0.8003052
vt 0.2326703 0.7597059
vt 0.9808728 0.7675414
vt 0.9807286 0.8003052
vt 0.9817379 0.7175841
vt 0.2337013 0.70161
vt 0.9831855 0.6680341
vt 0.2354084 0.6435238
vt 0.985274 0.6189243
vt 0.2378776 0.5854527
vt 0.9880028 0.5698617
vt 0.2411059 0.5273932
vt 0.9809398 0.8666387
vt 0.9808 0.8343194
vt 0.07476638 0.9340631
vt 0.9817582 0.9158259
vt 0.2352996 0.9882404
vt 0.07634969 0.9922116
vt 0.9831175 0.9649509
vt 0.1172729 0.1775499
vt 0.117274 0.07005927
vt 0.06103937 0.04779939
vt 0.06103943 0.1998107
vt 0.1405647 0.123805
vt 0.1105873 0.5048284
vt 0.09466465 0.5431602
vt 0.1903213 0.5037009
vt 0.1502091 0.4884776
vt 0.1915013 0.5799099
vt 0.2003556 0.5259058
vt 0.2008488 0.5574295
vt 0.2310111 0.5254673
vt 0.2315054 0.55699
vt 0.1518737 0.5962558
vt 0.1117652 0.5810289
vt 0.06634963 0.6015728
vt 0.06634963 0.753542
vt 0.2253987 0.753542
vt 0.2253987 0.6015728
vt 0.6317132 0.005976629
vt 0.6317132 0.09331085
vt 0.6917965 0.09331174
vt 0.6917939 0.005977476
vt 0.5716287 0.005976629
vt 0.5716287 0.09331085
vt 0.7518713 0.09330995
vt 0.7518678 0.005975781
vt 0.8119401 0.09331085
vt 0.8119383 0.005976629
vt 0.872014 0.09330995
vt 0.872014 0.005975781
vt 0.9320956 0.09331264
vt 0.9320964 0.005978324
vt 0.99218 0.09331264
vt 0.99218 0.005978324
vt 0.2027152 0.2362914
vt 0.100154 0.3343141
vt 0.1602305 0.3343061
vt 0.2027067 0.2937094
vt 0.05766791 0.293708
vt 0.1602291 0.1956853
vt 0.05766658 0.2362806
vt 0.100142 0.1956848
vt 0.1570838 0.4801744
vt 0.1995619 0.4395786
vt 0.1995712 0.3821598
vt 0.09700918 0.480182
vt 0.05452771 0.439578
vt 0.1570831 0.3415507
vt 0.05452383 0.3821504
vt 0.09699728 0.3415526
vt 0.4712161 0.05008818
vt 0.470843 0.00642278
vt 0.5622209 0.006421932
vt 0.5627494 0.05008639
vt 0.4612814 0.04904523
vt 0.3697484 0.04904348
vt 0.3702767 0.005389675
vt 0.4616545 0.005391482
vt 0.1351981 0.0873576
vt 0.1517082 0.1254706
vt 0.1798077 0.09674214
vt 0.1798105 0.1541532
vt 0.1352009 0.1635833
vt 0.08546029 0.5419398
vt 0.1019722 0.5038292
vt 0.05736252 0.5132109
vt 0.05736252 0.5706221
vt 0.1019714 0.5800512
vt 0.1080977 0.05781398
vt 0.2205633 0.0584078
vt 0.2441655 0.004786753
vt 0.0851187 0.003945501
vt 0.1642021 0.08037124
vt 0.9956325 0.1724356
vt 0.2105166 0.1724356
vt 0.2103001 0.2017494
vt 0.9955331 0.194074
vt 0.3591666 0.01514799
vt 0.3440112 0.01514528
vt 0.3505441 0.03164056
vt 0.3591657 0.04813379
vt 0.3440104 0.04813493
vt 0.004243335 0.3579659
vt 0.02007428 0.3580317
vt 0.004243365 0.6767766
vt 0.0268994 0.9956806
vt 0.004243395 0.9955874
vt 0.9952244 0.1338637
vt 0.2101111 0.1338637
vt 0.2101111 0.1653896
vt 0.9952244 0.1653896
vt 0.05010079 0.9960074
vt 0.05010093 0.6771961
vt 0.0342373 0.9959397
vt 0.02746087 0.3582898
vt 0.05010107 0.3583848
vt 0.2103264 0.1264811
vt 0.9954404 0.1264811
vt 0.9953429 0.1048276
vt 0.2101104 0.09715561
vt 0.2304764 0.09061088
vt 0.2304764 0.05908453
vt 0.5640478 0.05908445
vt 0.5640478 0.09061075
vt 0.01797914 0.0271614
vt 0.01797903 0.345972
vt 0.05096499 0.345972
vt 0.05096504 0.0271614
vn 0.9999634 -0.008309931 -0.002027425
vn 0.7109537 -0.01386023 0.7031024
vn 0.7134854 -0.01382694 0.7005336
vn 0.9998974 -0.01432899 -7.000636E-05
vn 0.7891791 -0.01437469 -0.6139948
vn 0.7069149 -0.01578203 -0.7071224
vn 0.399497 -0.01301464 0.9166421
vn 0.3928936 -0.01303812 0.9194915
vn 0.7971666 0 -0.6037593
vn 0.7071068 0 -0.7071068
vn -4.928705E-07 0 -1
vn -4.928705E-07 0 -1
vn -0.7971658 0 -0.6037604
vn -0.7071063 0 -0.7071072
vn -0.9999537 -0.00909884 -0.003125678
vn -0.7846376 -0.0148011 -0.6197781
vn -0.9998277 -0.01550702 -0.01019313
vn -0.704824 -0.01496888 0.7092242
vn -0.7033705 -0.01498929 0.7106653
vn -0.6997133 -0.01611785 -0.7142419
vn -5.852665E-07 -0.01657998 -0.9998626
vn -7.363083E-07 -0.01658477 -0.9998624
vn -0.373216 -0.01369884 0.9276433
vn -0.3770179 -0.01368877 0.9261048
vn 0.7080482 -0.01127237 0.7060741
vn 0.3974419 -0.01100483 0.9175614
vn 0.005694347 -0.007160894 0.9999582
vn 0.005694347 -0.007160894 0.9999582
vn -0.3722086 -0.005629955 0.9281319
vn -0.3706449 -0.01018771 0.9287188
vn -0.5969243 -0.009900256 0.8022366
vn -0.7033705 -0.01498929 0.7106653
vn -0.373216 -0.01369884 0.9276433
vn -0.9998277 -0.01550702 -0.01019313
vn -0.9998698 -0.01549202 -0.004521222
vn -0.6997133 -0.01611785 -0.7142419
vn -0.7037734 -0.01617289 -0.7102404
vn -5.852665E-07 -0.01657998 -0.9998626
vn -4.329975E-07 -0.01657522 -0.9998627
vn 0.7069149 -0.01578203 -0.7071224
vn 0.8044854 -0.01425563 -0.5938014
vn 0.7134854 -0.01382694 0.7005336
vn 0.399497 -0.01301464 0.9166421
vn 0.999961 -0.008552081 0.002218076
vn 0.9998974 -0.01432899 -7.000636E-05
vn 0.8044854 -0.01425563 -0.5938014
vn 0.9238679 0 -0.3827115
vn 0.7069149 -0.01578203 -0.7071224
vn 0 1 0
vn 0 1 0
vn 0 1 0
vn 0 1 0
vn 0 1 0
vn 0 -1 0
vn 0 -1 0
vn 0 -1 0
vn 0 -1 0
vn 0 -1 0
vn 0 -0.9999995 0.000997882
vn 0 -0.9999995 0.0009978823
vn 0 -0.9999963 0.002743979
vn 0 -0.9999963 0.002743979
vn 0 -1 0
vn 0 -1 0
vn -0.7071068 0 -0.7071068
vn -0.7071068 0 -0.7071068
vn -0.7071068 0 -0.7071068
vn -0.7071068 0 -0.7071068
vn 0.92388 0 0.3826821
vn 0.92388 0 0.3826821
vn 0.923853 0 -0.3827473
vn 0.923853 0 -0.3827473
vn 0.7071087 0 0.7071048
vn 0.7071087 0 0.7071048
vn 0.3826196 0 -0.923906
vn 0.3826196 0 -0.923906
vn -0.3826183 0 -0.9239066
vn -0.3826183 0 -0.9239066
vn -0.9238526 0 -0.3827486
vn -0.9238526 0 -0.3827486
vn -0.9238795 0 0.3826834
vn -0.9238795 0 0.3826834
vn -0.7071068 0 0.7071068
vn -0.7071068 0 0.7071068
vn 0 1 0
vn 0 1 0
vn 0 1 0
vn 0 1 0
vn 0 1 0
vn 0 1 0
vn 0.0009500002 0.9999886 0.004695204
vn -0.0009504392 0.9999886 0.004698212
vn 0 -1 0
vn 0 -1 0
vn 0 -1 0
vn 0 -1 0
vn 0 -1 0
vn 0 -1 0
vn 0.001348004 -0.9999769 -0.006663665
vn -0.001347382 -0.999977 -0.006659399
vn 0.9764346 0 -0.2158133
vn 0.9764346 0 -0.2158133
vn 0.9764346 0 -0.2158133
vn 0.9764346 0 -0.2158133
vn -0.9766549 0 -0.2148141
vn -0.9766549 0 -0.2148141
vn -0.9766549 0 -0.2148141
vn -0.9766549 0 -0.2148141
vn -0.005390622 -0.9999008 -0.01301271
vn 1.851064E-06 -0.9998811 -0.01541931
vn -0.001347382 -0.999977 -0.006659399
vn 0.001348004 -0.9999769 -0.006663665
vn 0.00539324 -0.9999007 -0.01301907
vn -1.304969E-06 0.9999409 0.01087166
vn 0.003800679 0.9999508 0.009174665
vn 0.0009500002 0.9999886 0.004695204
vn -0.0009504392 0.9999886 0.004698212
vn -0.003802526 0.9999506 0.00917915
vn 0 1 0
vn 0 1 0
vn 0 1 0
vn 0 1 0
vn 0 1 0
vn -1 0 0
vn -1 0 0
vn -1 0 0
vn -1 0 0
vn 0 1 0
vn 0 1 0
vn 0 1 0
vn 0 1 0
vn 0 1 0
vn 1 0 0
vn 1 0 0
vn 1 0 0
vn 1 0 0
vn 1 0 0
vn 0 -0.004369133 0.9999905
vn 0 -0.004369199 0.9999905
vn 0 -0.004369199 0.9999905
vn 0 -0.004369133 0.9999905
vn -1 0 0
vn -1 0 0
vn -1 0 0
vn -1 0 0
vn -1 0 0
vn 1 0 0
vn 1 0 0
vn 1 0 0
vn 1 0 0
vn 0 -0.004369034 0.9999905
vn 0 -0.004369034 0.9999905
vn 0 -0.004369051 0.9999905
vn 0 -0.004369051 0.9999905
vn 0 -0.004369133 0.9999905
vn 0 -0.004369051 0.9999905
vn 0 -0.004369051 0.9999905
vn 0 -0.004369133 0.9999905
g barrel_870_vent_rib_barrel_cut_off_325mm_LOD1_0
f 3/3/3 2/2/2 1/1/1
f 4/4/4 3/3/3 1/1/1
f 4/4/4 1/1/1 5/5/5
f 6/6/6 4/4/4 5/5/5
f 3/3/3 7/7/7 2/2/2
f 7/7/7 8/8/8 2/2/2
f 9/9/9 5/5/5 1/1/1
f 10/10/10 9/9/9 1/1/1
f 9/9/9 10/10/10 11/11/11
f 10/10/10 12/12/12 11/11/11
f 11/11/11 12/12/12 13/13/13
f 12/12/12 14/14/14 13/13/13
f 14/14/14 15/15/15 13/13/13
f 13/13/13 15/15/15 16/16/16
f 15/15/15 17/17/17 16/16/16
f 17/17/17 15/15/15 18/18/18
f 19/19/19 17/17/17 18/18/18
f 17/17/17 20/20/20 16/16/16
f 20/20/20 21/21/21 16/16/16
f 21/21/21 22/22/22 16/16/16
f 22/22/22 21/21/21 5/5/5
f 21/21/21 6/6/6 5/5/5
f 23/23/23 19/19/19 18/18/18
f 24/24/24 23/23/23 18/18/18
f 27/27/27 26/26/26 25/25/25
f 28/28/28 27/27/27 25/25/25
f 27/27/27 28/28/28 29/29/29
f 29/29/29 30/30/30 27/27/27
f 29/29/29 31/31/31 30/30/30
f 30/30/30 31/31/31 32/32/32
f 33/33/33 30/30/30 32/32/32
f 34/34/34 32/32/32 31/31/31
f 35/35/35 34/34/34 31/31/31
f 36/36/36 34/34/34 35/35/35
f 37/37/37 36/36/36 35/35/35
f 38/38/38 36/36/36 37/37/37
f 39/39/39 38/38/38 37/37/37
f 38/38/38 39/39/39 40/40/40
f 39/39/39 41/41/41 40/40/40
f 26/26/26 43/43/43 42/42/42
f 25/25/25 26/26/26 42/42/42
f 25/25/25 42/42/42 44/44/44
f 42/42/42 45/45/45 44/44/44
f 44/44/44 45/45/45 46/46/46
f 47/47/47 44/44/44 46/46/46
f 45/45/45 48/48/48 46/46/46
f 51/51/51 50/50/50 49/49/49
f 52/52/52 51/51/51 49/49/49
f 53/53/53 49/49/49 50/50/50
f 56/56/56 55/55/55 54/54/54
f 57/57/57 56/56/56 54/54/54
f 58/58/58 55/55/55 56/56/56
f 56/56/56 59/59/59 58/58/58
f 59/59/59 60/60/60 58/58/58
f 59/59/59 61/61/61 60/60/60
f 61/61/61 62/62/62 60/60/60
f 58/58/58 63/63/63 55/55/55
f 63/63/63 64/64/64 55/55/55
f 67/67/67 66/66/66 65/65/65
f 68/68/68 67/67/67 65/65/65
f 71/71/71 70/70/70 69/69/69
f 72/72/72 71/71/71 69/69/69
f 69/69/69 70/70/70 73/73/73
f 70/70/70 74/74/74 73/73/73
f 75/75/75 71/71/71 72/72/72
f 76/76/76 75/75/75 72/72/72
f 77/77/77 75/75/75 76/76/76
f 78/78/78 77/77/77 76/76/76
f 79/79/79 77/77/77 78/78/78
f 80/80/80 79/79/79 78/78/78
f 81/81/81 79/79/79 80/80/80
f 82/82/82 81/81/81 80/80/80
f 83/83/83 81/81/81 82/82/82
f 84/84/84 83/83/83 82/82/82
f 87/87/87 86/86/86 85/85/85
f 88/88/88 87/87/87 85/85/85
f 86/86/86 89/89/89 85/85/85
f 89/89/89 90/90/90 85/85/85
f 89/89/89 91/91/91 90/90/90
f 91/91/91 92/92/92 90/90/90
f 95/95/95 94/94/94 93/93/93
f 96/96/96 95/95/95 93/93/93
f 96/96/96 97/97/97 95/95/95
f 97/97/97 98/98/98 95/95/95
f 97/97/97 99/99/99 98/98/98
f 99/99/99 100/100/100 98/98/98
f 103/103/103 102/102/102 101/101/101
f 104/104/104 103/103/103 101/101/101
f 107/107/107 106/106/106 105/105/105
f 108/108/108 107/107/107 105/105/105
f 111/111/111 110/110/110 109/109/109
f 112/112/112 110/110/110 111/111/111
f 113/113/113 110/110/110 112/112/112
f 116/116/116 115/115/115 114/114/114
f 117/117/117 116/116/116 114/114/114
f 118/118/118 117/117/117 114/114/114
f 121/121/121 120/120/120 119/119/119
f 122/122/122 121/121/121 119/119/119
f 123/123/123 119/119/119 120/120/120
f 126/126/126 125/125/125 124/124/124
f 127/127/127 126/126/126 124/124/124
f 130/130/130 129/129/129 128/128/128
f 131/131/131 130/130/130 128/128/128
f 132/132/132 130/130/130 131/131/131
f 135/135/135 134/134/134 133/133/133
f 136/136/136 134/134/134 135/135/135
f 137/137/137 136/136/136 135/135/135
f 140/140/140 139/139/139 138/138/138
f 141/141/141 140/140/140 138/138/138
f 144/144/144 143/143/143 142/142/142
f 143/143/143 144/144/144 145/145/145
f 146/146/146 143/143/143 145/145/145
f 149/149/149 148/148/148 147/147/147
f 150/150/150 149/149/149 147/147/147
f 153/153/153 152/152/152 151/151/151
f 154/154/154 153/153/153 151/151/151
f 157/157/157 156/156/156 155/155/155
f 158/158/158 157/157/157 155/155/155
