g handguard_t5000_orsis_t5000m_std_LOD1
v -0.005033936 -0.3034905 -0.02934182
v -0.008113229 -0.302215 -0.02934182
v -0.005033936 -0.3034905 -0.03754386
v -0.008113229 -0.302215 -0.03754386
v -0.01119252 -0.3034905 -0.02934182
v -0.01119252 -0.3034905 -0.03754386
v -0.01246801 -0.3065698 -0.02934182
v -0.01246801 -0.3065698 -0.03754386
v -0.01119252 -0.3096491 -0.02934182
v -0.01119252 -0.3096491 -0.03754386
v -0.008113229 -0.3109245 -0.03754386
v -0.008113229 -0.3109245 -0.02934182
v -0.003758455 -0.3065698 -0.02934182
v -0.003758455 -0.3065698 -0.03754386
v -0.005033936 -0.3096491 -0.02934182
v -0.005033936 -0.3096491 -0.03754386
v -0.008113229 -0.3109245 -0.02934182
v -0.008113229 -0.3109245 -0.03754386
v -0.008113229 -0.302215 -0.03754386
v -0.01246801 -0.3065698 -0.03754386
v -0.005033936 -0.3034905 -0.03754386
v -0.01119252 -0.3034905 -0.03754386
v -0.003758455 -0.3065698 -0.03754386
v -0.005033936 -0.3096491 -0.03754386
v -0.008113229 -0.3109245 -0.03754386
v -0.01119252 -0.3096491 -0.03754386
v 0.01196156 -0.04323806 -0.03043342
v -0.02818802 -0.04017018 -0.03418139
v -0.02818802 -0.04323806 -0.03043342
v 0.01196156 -0.04017018 -0.03418139
v -0.02818802 -0.0001198673 -0.01296378
v 0.01196156 -0.0001198673 -0.03591845
v 0.01196156 -0.0001198673 -0.01296378
v -0.02818802 -0.0001198673 -0.03591845
v 0.01196156 -0.04017018 -0.03418139
v -0.02818802 -0.0001198673 -0.03591845
v -0.02818802 -0.04017018 -0.03418139
v 0.01196156 -0.0001198673 -0.03591845
v 0.01196156 -0.0001198673 -0.01296378
v 0.01196156 -0.04323806 -0.03043342
v 0.01196156 -0.04323807 -0.01296378
v 0.01196156 -0.0001198673 -0.03591845
v 0.01196156 -0.04017018 -0.03418139
v -0.02818802 -0.0001198673 -0.03591845
v -0.02818802 -0.04323806 -0.03043342
v -0.02818802 -0.04017018 -0.03418139
v -0.02818802 -0.0001198673 -0.01296378
v -0.02818802 -0.04323807 -0.01296378
v 0.01196156 -0.04323807 -0.01296378
v -0.02818802 -0.04323806 -0.03043342
v -0.02818802 -0.04323807 -0.01296378
v 0.01196156 -0.04323806 -0.03043342
v -0.03764834 0.002379952 -0.008120283
v -0.03764829 0.002373152 0.001586147
v -0.03768021 -0.353895 -0.00812039
v -0.03764829 -0.3587032 -3.878355E-05
v -0.03581209 -0.04323807 -0.01330708
v -0.03764829 -0.003528528 0.00803904
v -0.03764304 -0.3587031 0.008038463
v -0.03528225 -0.009240951 0.01428191
v -0.03528225 -0.3587031 0.01428185
v -0.02195652 -0.02099471 0.02713191
v -0.02195652 -0.3587031 0.02713028
v -0.01619044 -0.02320045 0.02953677
v -0.01619044 -0.3587031 0.0295367
v -3.602147E-05 -0.02320045 0.02953677
v -3.602147E-05 -0.3587031 0.02953669
v 0.005730084 -0.3587031 0.02713028
v 0.005730084 -0.02099471 0.02713191
v 0.01905579 -0.3587031 0.01428185
v 0.01905579 -0.009240951 0.01428191
v 0.02141658 -0.3587031 0.008038463
v 0.02142185 -0.003528528 0.00803904
v 0.02142182 -0.3587032 -3.878355E-05
v 0.02142182 0.002373152 0.001586147
v 0.02145373 -0.353895 -0.00812039
v 0.02142187 0.002379952 -0.008120283
v 0.01958563 -0.04323807 -0.01330708
v 0.01905581 -0.3501788 -0.0143588
v 0.009121258 -0.1113834 -0.02380509
v 0.005060053 -0.1184843 -0.0274695
v 0.009121258 -0.04323806 -0.02380508
v 0.005730065 -0.3425304 -0.02720723
v -0.0001977312 -0.3411491 -0.02952784
v -0.0001977312 -0.1186971 -0.0295278
v -0.008113229 -0.3405518 -0.03053127
v -0.008113229 -0.1190176 -0.03053123
v 0.01958563 0.002379952 -0.01330707
v 0.005060053 -0.1184843 -0.0274695
v -0.02128652 -0.1184843 -0.0274695
v -0.01602873 -0.1186971 -0.0295278
v -0.0001977312 -0.1186971 -0.0295278
v -0.02534773 -0.1113834 -0.02380509
v 0.009121258 -0.1113834 -0.02380509
v 0.009121258 -0.04323806 -0.02380508
v -0.02534773 -0.04323806 -0.02380508
v -0.008113229 -0.1190176 -0.03053123
v -0.02534773 -0.1113834 -0.02380509
v -0.02534773 -0.04323806 -0.02380508
v -0.03528227 -0.3501788 -0.0143588
v -0.02128652 -0.1184843 -0.0274695
v -0.02195652 -0.3425304 -0.02720723
v -0.01602873 -0.3411491 -0.02952784
v -0.01602873 -0.1186971 -0.0295278
v -0.008113229 -0.3405518 -0.03053127
v -0.008113229 -0.1190176 -0.03053123
v -0.03581209 0.002379952 -0.01330707
v -0.03528227 -0.3501788 -0.0143588
v -0.03768021 -0.353895 -0.00812039
v 0.02145373 -0.353895 -0.00812039
v 0.01905581 -0.3501788 -0.0143588
v -0.02195652 -0.3425304 -0.02720723
v 0.005730065 -0.3425304 -0.02720723
v -0.03764829 -0.3587032 -3.878355E-05
v 0.02142182 -0.3587032 -3.878355E-05
v -0.0001977312 -0.3411491 -0.02952784
v -0.01602873 -0.3411491 -0.02952784
v -0.008113229 -0.3405518 -0.03053127
v -0.03764304 -0.3587031 0.008038463
v 0.02141658 -0.3587031 0.008038463
v 0.02142182 -0.3587032 -3.878355E-05
v -0.03764829 -0.3587032 -3.878355E-05
v 0.01905579 -0.3587031 0.01428185
v -0.03528225 -0.3587031 0.01428185
v -0.02195652 -0.3587031 0.02713028
v 0.005730084 -0.3587031 0.02713028
v -3.602147E-05 -0.3587031 0.02953669
v -0.01619044 -0.3587031 0.0295367
v -0.02534773 -0.04323806 -0.02380508
v 0.009121258 -0.04323806 -0.02380508
v 0.01958563 -0.04323807 -0.01330708
v -0.03581209 -0.04323807 -0.01330708
v 0.005730084 -0.02099471 0.02713191
v -3.602147E-05 -0.02320045 0.02953677
v -0.02195652 -0.02099471 0.02713191
v -0.01619044 -0.02320045 0.02953677
v 0.01905579 -0.009240951 0.01428191
v -0.03528225 -0.009240951 0.01428191
v -0.03764829 -0.003528528 0.00803904
v 0.02142185 -0.003528528 0.00803904
v 0.02142182 0.002373152 0.001586147
v -0.03764829 0.002373152 0.001586147
v 0.01958563 -0.04323807 -0.01330708
v 0.01958563 0.002379952 -0.01330707
v -0.03581209 -0.04323807 -0.01330708
v -0.03581209 0.002379952 -0.01330707
v -0.03764829 0.002373152 0.001586147
v 0.02142187 0.002379952 -0.008120283
v 0.02142182 0.002373152 0.001586147
v -0.03764834 0.002379952 -0.008120283
v 0.01958563 0.002379952 -0.01330707
v -0.03581209 0.002379952 -0.01330707
vt 0.053952 0.9219
vt 0.053952 0.93668
vt 0.090324 0.921896
vt 0.090324 0.936676
vt 0.053952 0.951461
vt 0.090324 0.951456
vt 0.053952 0.966238
vt 0.090324 0.966233
vt 0.053952 0.981019
vt 0.090323 0.981015
vt 0.090324 0.9958
vt 0.053952 0.9958
vt 0.053952 0.907123
vt 0.090324 0.907119
vt 0.053952 0.892341
vt 0.090324 0.892341
vt 0.053952 0.87756
vt 0.090324 0.87756
vt 0.966404 0.935021
vt 0.935258 0.966185
vt 0.988435 0.944146
vt 0.944375 0.944154
vt 0.997563 0.966184
vt 0.988439 0.988215
vt 0.966408 0.997345
vt 0.944379 0.988215
vt 0.997425 0.2365654
vt 0.8072701 0.209767
vt 0.807308 0.2365654
vt 0.9973875 0.209767
vt 0.807257 0.3299439
vt 0.997375 0.447412
vt 0.997375 0.3299439
vt 0.807258 0.447412
vt 0.9973875 0.209767
vt 0.807232 0.002612
vt 0.8072701 0.209767
vt 0.99735 0.002612
vt 0.699608 0.4471463
vt 0.777481 0.2277592
vt 0.699608 0.2277592
vt 0.801953 0.4471463
vt 0.794187 0.2433687
vt 0.802016 0.00271805
vt 0.777579 0.2221042
vt 0.794288 0.2064987
vt 0.699689 0.00271805
vt 0.699689 0.2221042
vt 0.997425 0.3259635
vt 0.807308 0.2365654
vt 0.807308 0.3259635
vt 0.997425 0.2365654
vt 0.110721 0.998432
vt 0.137567 0.998432
vt 0.110512 0.014888
vt 0.132724 0.001582
vt 0.09551 0.87252
vt 0.155445 0.982116
vt 0.154914 0.001582
vt 0.173953 0.96635
vt 0.173225 0.001582
vt 0.225103 0.93388
vt 0.224242 0.001582
vt 0.242406 0.927799
vt 0.241429 0.001582
vt 0.287072 0.927799
vt 0.285975 0.001582
vt 0.303175 0.001582
vt 0.304403 0.933901
vt 0.354229 0.001582
vt 0.355652 0.966314
vt 0.372698 0.001582
vt 0.37413 0.982083
vt 0.39508 0.001582
vt 0.391963 0.998335
vt 0.417432 0.014778
vt 0.418834 0.998335
vt 0.433984 0.872353
vt 0.43593 0.025017
vt 0.474772 0.684203
vt 0.48954 0.664597
vt 0.474772 0.872354
vt 0.487136 0.046085
vt 0.504805 0.049894
vt 0.504993 0.664009
vt 0.526919 0.051539
vt 0.526919 0.663124
vt 0.433986 0.998336
vt 0.675112 0.364035
vt 0.550357 0.363999
vt 0.57525 0.373798
vt 0.650215 0.373829
vt 0.531134 0.325354
vt 0.694352 0.325354
vt 0.694352 0.00267
vt 0.531134 0.00267
vt 0.612727 0.3788
vt 0.054538 0.684406
vt 0.054538 0.87252
vt 0.092101 0.025165
vt 0.039278 0.664815
vt 0.041044 0.046298
vt 0.023519 0.05012
vt 0.023628 0.664236
vt 0.001545 0.051773
vt 0.001545 0.663356
vt 0.09551 0.998432
vt 0.57185 0.692553
vt 0.532904 0.679691
vt 0.532904 0.996846
vt 0.57185 0.983983
vt 0.652046 0.764026
vt 0.652046 0.912522
vt 0.48247 0.679859
vt 0.48247 0.996672
vt 0.666526 0.880729
vt 0.666526 0.795821
vt 0.672792 0.838277
vt 0.571784 0.673895
vt 0.571784 0.379043
vt 0.531454 0.379018
vt 0.531454 0.67392
vt 0.602949 0.390832
vt 0.60295 0.662106
vt 0.667096 0.595586
vt 0.667096 0.457356
vt 0.679109 0.486144
vt 0.679109 0.566797
vt 0.049949 0.933974
vt 0.049949 0.72962
vt 0.003153 0.667582
vt 0.003153 0.996008
vt 0.763309 0.979246
vt 0.794348 0.996811
vt 0.912352 0.979246
vt 0.88131 0.996811
vt 0.691577 0.885502
vt 0.984085 0.885497
vt 0.996823 0.83995
vt 0.678839 0.839949
vt 0.678839 0.792873
vt 0.996823 0.792873
vt 0.986877 0.700707
vt 0.986877 0.455141
vt 0.688664 0.700707
vt 0.688664 0.455141
vt 0.9968 0.786826
vt 0.678817 0.734573
vt 0.678817 0.786826
vt 0.9968 0.734575
vt 0.688704 0.706655
vt 0.986921 0.706655
vn 0.7071321 0.7070814 0
vn 0 1 0
vn 0.7071321 0.7070814 0
vn 0 1 0
vn -0.7071321 0.7070814 0
vn -0.7071321 0.7070814 0
vn -1 0 0
vn -1 0 0
vn -0.7071321 -0.7070814 0
vn -0.7071321 -0.7070814 0
vn 0 -1 0
vn 0 -1 0
vn 1 0 0
vn 1 0 0
vn 0.7071321 -0.7070814 0
vn 0.7071321 -0.7070814 0
vn 0 -1 0
vn 0 -1 0
vn 0 0 -1
vn 0 0 -1
vn 0 0 -1
vn 0 0 -1
vn 0 0 -1
vn 0 0 -1
vn 0 0 -1
vn 0 0 -1
vn 0 -0.773816 -0.6334105
vn 0 -0.773816 -0.6334105
vn 0 -0.773816 -0.6334105
vn 0 -0.773816 -0.6334105
vn 0 1 0
vn 0 1 0
vn 0 1 0
vn 0 1 0
vn 0 -0.04334463 -0.9990602
vn 0 -0.04329703 -0.9990622
vn 0 -0.04334463 -0.9990602
vn 0 -0.04329703 -0.9990622
vn 1 0 0
vn 1 0 0
vn 1 0 0
vn 1 0 0
vn 1 0 0
vn -1 0 0
vn -1 0 0
vn -1 0 0
vn -1 0 0
vn -1 0 0
vn 0 -1 0
vn 0 -1 0
vn 0 -1 0
vn 0 -1 0
vn -0.985704 0 -0.1684862
vn -0.9999992 0 0.001299381
vn -0.9926689 -0.0001907328 -0.120865
vn -0.9999996 0 0.0009417539
vn -0.883517 0.0001192105 -0.4683991
vn -0.9952084 0 0.09777562
vn -0.9836437 0 0.1801253
vn -0.8795477 0 0.4758107
vn -0.8349584 0 0.5503129
vn -0.5905515 0 0.807
vn -0.5490397 0 0.8357963
vn -0.2154414 0 0.9765168
vn -0.1963465 0 0.9805345
vn 0.2154414 0 0.9765168
vn 0.1963408 0 0.9805357
vn 0.5490397 0 0.8357963
vn 0.5905515 0 0.807
vn 0.8349584 0 0.5503129
vn 0.8795477 0 0.4758107
vn 0.9836437 0 0.1801253
vn 0.9952084 0 0.09777562
vn 0.9999996 0 0.0009298329
vn 0.9999992 0 0.001299381
vn 0.9926689 -0.0001907328 -0.120865
vn 0.985704 0 -0.1684862
vn 0.883517 0.0001192105 -0.4683991
vn 0.8655376 0.0001907363 -0.5008438
vn 0.6984112 0.0006675717 -0.7156965
vn 0.563229 -0.0008344663 -0.8263004
vn 0.7082443 0 -0.7059674
vn 0.5705864 0.0007629435 -0.8212372
vn 0.257594 0 -0.9662533
vn 0.250012 0 -0.9682427
vn 0 0 -1
vn 0 0 -1
vn 0.9426688 0 -0.3337298
vn 0 0.5770922 -0.816679
vn 0 0.5770922 -0.816679
vn 0 0.9936939 -0.112127
vn 0 0.9936939 -0.112127
vn 0 0.1942394 -0.9809542
vn 0 0.1942394 -0.9809542
vn 0 0 -1
vn 0 0 -1
vn 0 0.9526081 -0.3042004
vn -0.6984112 0.0006675717 -0.7156965
vn -0.7082443 0 -0.7059674
vn -0.865537 0.0001907362 -0.500845
vn -0.563229 -0.0008344663 -0.8263004
vn -0.5705864 0.0007629435 -0.8212372
vn -0.257594 0 -0.9662533
vn -0.250012 0 -0.9682427
vn 0 0 -1
vn 0 0 -1
vn -0.9426688 0 -0.3337298
vn 0 -0.8591927 -0.5116521
vn 0 -0.8592733 -0.5115168
vn 0 -0.8592733 -0.5115168
vn 0 -0.8591927 -0.5116521
vn 0 -0.8592759 -0.5115123
vn 0 -0.8592759 -0.5115123
vn 0 -0.8594148 -0.5112789
vn 0 -0.8594148 -0.5112789
vn 0 -0.8592812 -0.5115036
vn 0 -0.8592812 -0.5115036
vn 0 -0.8592706 -0.5115212
vn 0 -1 0
vn 0 -1 0
vn 0 -1 1.192066E-05
vn 0 -1 1.192066E-05
vn 0 -1 0
vn 0 -1 0
vn 0 -1 0
vn 0 -1 0
vn 0 -1 0
vn 0 -1 0
vn 0 1 0
vn 0 1 0
vn 0 1 0
vn 0 1 0
vn 0 0.737718 0.675109
vn 0 0.7369661 0.6759297
vn 0 0.737718 0.675109
vn 0 0.7369661 0.6759297
vn 0 0.7377971 0.6750225
vn 0 0.7377971 0.6750225
vn 0 0.7378544 0.6749599
vn 0 0.7378544 0.6749599
vn 0 0.7379334 0.6748735
vn 0 0.7379334 0.6748735
vn 0 0 -1
vn 0 0 -1
vn 0 0 -1
vn 0 0 -1
vn 0 0.9999998 0.0007033185
vn 0 1 0.0003933817
vn 0 0.9999998 0.0007033185
vn 0 1 0.0003933817
vn 0 1 0
vn 0 1 0
g handguard_t5000_orsis_t5000m_std_LOD1_0
f 3/3/3 2/2/2 1/1/1
f 3/3/3 4/4/4 2/2/2
f 4/4/4 5/5/5 2/2/2
f 4/4/4 6/6/6 5/5/5
f 6/6/6 7/7/7 5/5/5
f 6/6/6 8/8/8 7/7/7
f 8/8/8 9/9/9 7/7/7
f 8/8/8 10/10/10 9/9/9
f 9/9/9 10/10/10 11/11/11
f 11/11/11 12/12/12 9/9/9
f 3/3/3 1/1/1 13/13/13
f 13/13/13 14/14/14 3/3/3
f 14/14/14 13/13/13 15/15/15
f 15/15/15 16/16/16 14/14/14
f 16/16/16 15/15/15 17/17/17
f 17/17/17 18/18/18 16/16/16
f 21/21/21 20/20/20 19/19/19
f 19/19/19 20/20/20 22/22/22
f 23/23/23 20/20/20 21/21/21
f 24/24/24 20/20/20 23/23/23
f 25/25/25 20/20/20 24/24/24
f 26/26/26 20/20/20 25/25/25
f 29/29/29 28/28/28 27/27/27
f 28/28/28 30/30/30 27/27/27
f 33/33/33 32/32/32 31/31/31
f 32/32/32 34/34/34 31/31/31
f 37/37/37 36/36/36 35/35/35
f 36/36/36 38/38/38 35/35/35
f 41/41/41 40/40/40 39/39/39
f 40/40/40 42/42/42 39/39/39
f 42/42/42 40/40/40 43/43/43
f 46/46/46 45/45/45 44/44/44
f 47/47/47 44/44/44 45/45/45
f 45/45/45 48/48/48 47/47/47
f 51/51/51 50/50/50 49/49/49
f 50/50/50 52/52/52 49/49/49
f 55/55/55 54/54/54 53/53/53
f 54/54/54 55/55/55 56/56/56
f 55/55/55 53/53/53 57/57/57
f 56/56/56 58/58/58 54/54/54
f 58/58/58 56/56/56 59/59/59
f 59/59/59 60/60/60 58/58/58
f 60/60/60 59/59/59 61/61/61
f 61/61/61 62/62/62 60/60/60
f 61/61/61 63/63/63 62/62/62
f 63/63/63 64/64/64 62/62/62
f 63/63/63 65/65/65 64/64/64
f 65/65/65 66/66/66 64/64/64
f 65/65/65 67/67/67 66/66/66
f 66/66/66 67/67/67 68/68/68
f 68/68/68 69/69/69 66/66/66
f 69/69/69 68/68/68 70/70/70
f 71/71/71 69/69/69 70/70/70
f 70/70/70 72/72/72 71/71/71
f 73/73/73 71/71/71 72/72/72
f 72/72/72 74/74/74 73/73/73
f 75/75/75 73/73/73 74/74/74
f 74/74/74 76/76/76 75/75/75
f 76/76/76 77/77/77 75/75/75
f 78/78/78 77/77/77 76/76/76
f 78/78/78 76/76/76 79/79/79
f 79/79/79 80/80/80 78/78/78
f 79/79/79 81/81/81 80/80/80
f 80/80/80 82/82/82 78/78/78
f 79/79/79 83/83/83 81/81/81
f 81/81/81 83/83/83 84/84/84
f 84/84/84 85/85/85 81/81/81
f 84/84/84 86/86/86 85/85/85
f 87/87/87 85/85/85 86/86/86
f 78/78/78 88/88/88 77/77/77
f 91/91/91 90/90/90 89/89/89
f 89/89/89 92/92/92 91/91/91
f 89/89/89 90/90/90 93/93/93
f 93/93/93 94/94/94 89/89/89
f 94/94/94 93/93/93 95/95/95
f 96/96/96 95/95/95 93/93/93
f 91/91/91 92/92/92 97/97/97
f 99/99/99 98/98/98 57/57/57
f 98/98/98 100/100/100 57/57/57
f 98/98/98 101/101/101 100/100/100
f 101/101/101 102/102/102 100/100/100
f 103/103/103 102/102/102 101/101/101
f 101/101/101 104/104/104 103/103/103
f 105/105/105 103/103/103 104/104/104
f 104/104/104 106/106/106 105/105/105
f 100/100/100 55/55/55 57/57/57
f 53/53/53 107/107/107 57/57/57
f 110/110/110 109/109/109 108/108/108
f 108/108/108 111/111/111 110/110/110
f 108/108/108 112/112/112 111/111/111
f 112/112/112 113/113/113 111/111/111
f 114/114/114 109/109/109 110/110/110
f 110/110/110 115/115/115 114/114/114
f 116/116/116 113/113/113 112/112/112
f 112/112/112 117/117/117 116/116/116
f 117/117/117 118/118/118 116/116/116
f 121/121/121 120/120/120 119/119/119
f 119/119/119 122/122/122 121/121/121
f 119/119/119 120/120/120 123/123/123
f 124/124/124 119/119/119 123/123/123
f 125/125/125 124/124/124 123/123/123
f 123/123/123 126/126/126 125/125/125
f 125/125/125 126/126/126 127/127/127
f 127/127/127 128/128/128 125/125/125
f 131/131/131 130/130/130 129/129/129
f 131/131/131 129/129/129 132/132/132
f 135/135/135 134/134/134 133/133/133
f 135/135/135 136/136/136 134/134/134
f 133/133/133 137/137/137 135/135/135
f 137/137/137 138/138/138 135/135/135
f 139/139/139 138/138/138 137/137/137
f 139/139/139 137/137/137 140/140/140
f 139/139/139 140/140/140 141/141/141
f 141/141/141 142/142/142 139/139/139
f 145/145/145 144/144/144 143/143/143
f 146/146/146 144/144/144 145/145/145
f 149/149/149 148/148/148 147/147/147
f 148/148/148 150/150/150 147/147/147
f 150/150/150 148/148/148 151/151/151
f 151/151/151 152/152/152 150/150/150
