g handguard_mr133_izhmeh_std_LOD1
v -0.01450462 -0.01451321 0.01228393
v -0.01450462 -0.01451321 0.01962256
v -0.01234398 -0.01451321 0.01962256
v -0.01234398 -0.01451321 0.01228393
v -0.01450462 0.08196647 0.01228393
v -0.01450462 -0.01451321 0.01228393
v -0.01234398 -0.01451321 0.01228393
v -0.01234398 0.08196647 0.01228393
v -0.01234398 0.08196647 0.01228393
v -0.01234398 -0.01451321 0.01228393
v -0.01234398 -0.01451321 0.01962256
v -0.01234398 0.08196647 0.01962256
v -0.01234398 0.08196647 0.01962256
v -0.01234398 -0.01451321 0.01962256
v -0.01450462 -0.01451321 0.01962256
v -0.01450462 0.08196647 0.01962256
v -0.01450462 0.08196647 0.01962256
v -0.01450462 -0.01451321 0.01962256
v -0.01450462 -0.01451321 0.01228393
v -0.01450462 0.08196647 0.01228393
v 0.01133598 -0.01451321 0.01228393
v 0.01133598 -0.01451321 0.01962256
v 0.01349663 -0.01451321 0.01962256
v 0.01349663 -0.01451321 0.01228393
v 0.01133606 0.08196645 0.01228393
v 0.01133598 -0.01451321 0.01228393
v 0.01349663 -0.01451321 0.01228393
v 0.0134967 0.08196645 0.01228393
v 0.0134967 0.08196645 0.01228393
v 0.01349663 -0.01451321 0.01228393
v 0.01349663 -0.01451321 0.01962256
v 0.0134967 0.08196645 0.01962257
v 0.0134967 0.08196645 0.01962257
v 0.01349663 -0.01451321 0.01962256
v 0.01133598 -0.01451321 0.01962256
v 0.01133606 0.08196645 0.01962257
v 0.01133606 0.08196645 0.01962257
v 0.01133598 -0.01451321 0.01962256
v 0.01133598 -0.01451321 0.01228393
v 0.01133606 0.08196645 0.01228393
v 0.01914322 -0.003574676 0.01308973
v 0.01914322 -0.1563808 0.01308971
v 0.0103305 -0.1563808 0.02130765
v 0.0103305 -0.003574657 0.02130767
v -0.001410446 -0.1563808 0.02401826
v -0.001410446 -0.003574676 0.02401827
v 0.02266624 -0.003574676 0.001566422
v 0.02266617 -0.1563808 0.001566406
v 0.0199556 -0.003574695 -0.01017454
v 0.0199556 -0.1563808 -0.01017456
v 0.01173759 -0.003574676 -0.0189872
v 0.01173759 -0.1563808 -0.01898722
v 0.0002143097 -0.003574676 -0.02251022
v 0.0002143097 -0.1563808 -0.02251023
v 0.008119125 -0.179196 0.0171488
v 0.0151487 -0.179196 0.01059371
v -0.001246109 -0.179196 0.01931093
v 0.009241561 -0.179196 -0.01499276
v 4.997253E-05 -0.179196 -0.01780292
v 0.01579674 -0.179196 -0.007963272
v 0.01795883 -0.179196 0.001402024
v -0.001410446 -0.003574676 0.02401827
v -0.001410446 -0.1563808 0.02401826
v -0.01293381 -0.1563808 0.02049524
v -0.01293381 -0.003574676 0.02049526
v -0.02115173 -0.1563808 0.01168257
v -0.02115173 -0.003574676 0.01168259
v -0.02386238 -0.1563808 -5.839824E-05
v -0.02386238 -0.003574676 -5.838156E-05
v -0.02033928 -0.1563808 -0.01158166
v -0.02033928 -0.003574676 -0.01158165
v -0.01152664 -0.1563808 -0.01979962
v -0.01152664 -0.003574676 -0.01979961
v 0.0002143097 -0.1563808 -0.02251023
v 0.0002143097 -0.003574676 -0.02251022
v -0.01043777 -0.179196 0.01650077
v -0.001246109 -0.179196 0.01931093
v -0.01699287 -0.179196 0.009471267
v -0.01915497 -0.179196 0.0001059973
v -0.01634483 -0.179196 -0.009085651
v -0.009315338 -0.179196 -0.01564076
v 4.997253E-05 -0.179196 -0.01780292
v 0.008119125 -0.179196 0.0171488
v 0.0151487 -0.179196 0.01059371
v 0.01795883 -0.179196 0.001402024
v 0.01579674 -0.179196 -0.007963272
v -0.01699287 -0.179196 0.009471267
v -0.001246109 -0.179196 0.01931093
v -0.01043777 -0.179196 0.01650077
v -0.009315338 -0.179196 -0.01564076
v 4.997253E-05 -0.179196 -0.01780292
v 0.009241561 -0.179196 -0.01499276
v -0.01634483 -0.179196 -0.009085651
v -0.01915497 -0.179196 0.0001059973
v 0.02266624 -0.003574676 0.001566422
v 0.01914322 -0.003574676 0.01308973
v 0.0103305 -0.003574657 0.02130767
v 0.0199556 -0.003574695 -0.01017454
v -0.01152664 -0.003574676 -0.01979961
v 0.01173759 -0.003574676 -0.0189872
v 0.0002143097 -0.003574676 -0.02251022
v -0.02115173 -0.003574676 0.01168259
v -0.02033928 -0.003574676 -0.01158165
v -0.02386238 -0.003574676 -5.838156E-05
v -0.01293381 -0.003574676 0.02049526
v -0.001410446 -0.003574676 0.02401827
vt 0.0205174 0.3186909
vt 0.0205174 0.4339995
vt 0.003541116 0.4339995
vt 0.003541116 0.3186909
vt 0.1934349 0.1214189
vt 0.9955666 0.1214189
vt 0.9955666 0.08550338
vt 0.1934349 0.08550338
vt 0.5341225 0.07588317
vt 0.9967484 0.07588396
vt 0.9967484 0.00551107
vt 0.5341225 0.005510435
vt 0.1934349 0.2793374
vt 0.9955666 0.2793374
vt 0.9955666 0.2434206
vt 0.1934349 0.2434206
vt 0.1934349 0.2434206
vt 0.9955666 0.2434206
vt 0.9955666 0.1214189
vt 0.1934349 0.1214189
vt 0.0205174 0.3186949
vt 0.0205174 0.4339995
vt 0.003541116 0.4339995
vt 0.003541116 0.3186949
vt 0.1934349 0.08550338
vt 0.995567 0.08550338
vt 0.995567 0.1214189
vt 0.1934349 0.1214189
vt 0.1934349 0.1214189
vt 0.995567 0.1214189
vt 0.995567 0.2434206
vt 0.1934349 0.2434206
vt 0.1934349 0.2434206
vt 0.995567 0.2434206
vt 0.995567 0.2793379
vt 0.1934349 0.2793379
vt 0.5341225 0.07588396
vt 0.9967477 0.07588396
vt 0.9967477 0.005510435
vt 0.5341225 0.005510435
vt 0.9968063 0.7564746
vt 0.2732502 0.7564746
vt 0.2732502 0.8728101
vt 0.9968063 0.8728101
vt 0.2732502 0.9898272
vt 0.9968063 0.9898272
vt 0.9968063 0.6410482
vt 0.2732502 0.6410482
vt 0.9968063 0.5260764
vt 0.2732502 0.5260764
vt 0.9968063 0.4098529
vt 0.2732502 0.4098529
vt 0.9968063 0.2923625
vt 0.2732502 0.2923625
vt 0.1584708 0.8472853
vt 0.1584708 0.7454351
vt 0.1584708 0.9437995
vt 0.1584708 0.4348118
vt 0.1584708 0.3382983
vt 0.1584708 0.5366623
vt 0.1584708 0.6410482
vt 0.9968063 0.9898272
vt 0.2732512 0.9898272
vt 0.2732512 0.8728101
vt 0.9968063 0.8728101
vt 0.2732512 0.7564746
vt 0.9968063 0.7564746
vt 0.2732512 0.6410482
vt 0.9968063 0.6410482
vt 0.2732512 0.5260764
vt 0.9968063 0.5260764
vt 0.2732512 0.4098529
vt 0.9968063 0.4098529
vt 0.2732512 0.2923625
vt 0.9968063 0.2923625
vt 0.1584708 0.8472846
vt 0.1584708 0.9437995
vt 0.1584708 0.7454351
vt 0.1584708 0.6410482
vt 0.1584708 0.5366623
vt 0.1584708 0.4348118
vt 0.1584708 0.3382983
vt 0.0113841 0.6124489
vt 0.03816193 0.6698832
vt 0.075712 0.6928419
vt 0.113971 0.6751762
vt 0.04274788 0.4072745
vt 0.002550984 0.5359297
vt 0.01403083 0.4608318
vt 0.1453343 0.4700018
vt 0.1541684 0.5465193
vt 0.1426886 0.6216173
vt 0.1185558 0.4125676
vt 0.08100653 0.3896087
vt 0.09131601 0.02227372
vt 0.04648092 0.04968657
vt 0.01450746 0.1182638
vt 0.1369979 0.04336571
vt 0.1744464 0.2883458
vt 0.1712852 0.1073146
vt 0.1849934 0.1969841
vt 0.05195576 0.3632444
vt 0.1424717 0.3569232
vt 0.09763794 0.3843373
vt 0.01766752 0.2992951
vt 0.003959683 0.2096273
vn 0 -1 0
vn 0 -1 0
vn 0 -1 0
vn 0 -1 0
vn 0 0 -1
vn 0 0 -1
vn 0 0 -1
vn 0 0 -1
vn 1 0 0
vn 1 0 0
vn 1 0 0
vn 1 0 0
vn 0 0 1
vn 0 0 1
vn 0 0 1
vn 0 0 1
vn -1 0 0
vn -1 0 0
vn -1 0 0
vn -1 0 0
vn 0 -1 0
vn 0 -1 0
vn 0 -1 0
vn 0 -1 0
vn 0 0 -1
vn 0 0 -1
vn 0 0 -1
vn 0 0 -1
vn 1 -7.907776E-07 0
vn 1 -7.907776E-07 0
vn 1 -7.907776E-07 0
vn 1 -7.907776E-07 0
vn 0 0 1
vn 0 0 1
vn 0 0 1
vn 0 0 1
vn -1 7.907775E-07 0
vn -1 7.907775E-07 0
vn -1 7.907775E-07 0
vn -1 7.907775E-07 0
vn 0.848048 -1.83275E-07 0.5299194
vn 0.8438001 -0.09996722 0.5272645
vn 0.4671182 -0.09996694 0.8785256
vn 0.46947 -1.028435E-07 0.8829485
vn -0.03472365 -0.09996658 0.9943848
vn -0.03489834 -1.128972E-07 0.9993908
vn 0.9993908 -2.520817E-07 0.03489826
vn 0.9943846 -0.09996682 0.03472374
vn 0.8829468 0 -0.4694731
vn 0.8785243 -0.09996656 -0.4671207
vn 0.5299172 0 -0.8480494
vn 0.5272629 -0.09996609 -0.8438013
vn 0.03489926 1.091273E-07 -0.9993908
vn 0.03472436 -0.09996621 -0.9943848
vn 0.4597726 -0.2021869 0.8647135
vn 0.8305331 -0.2021876 0.5189748
vn -0.03417826 -0.2021862 0.9787506
vn 0.5189729 -0.2021854 -0.8305349
vn 0.03417895 -0.2021857 -0.9787506
vn 0.8647121 -0.2021863 -0.4597758
vn 0.9787505 -0.2021864 0.03417822
vn -0.03489834 -1.128972E-07 0.9993908
vn -0.03472365 -0.09996658 0.9943848
vn -0.5272644 -0.09996654 0.8438002
vn -0.5299188 0 0.8480484
vn -0.8785247 -0.09996694 0.4671198
vn -0.8829473 0 0.4694722
vn -0.9943845 -0.0999672 -0.03472653
vn -0.9993907 0 -0.03490162
vn -0.8437993 -0.09996656 -0.5272659
vn -0.848047 0 -0.5299211
vn -0.4671207 -0.0999663 -0.8785243
vn -0.4694725 0 -0.882947
vn 0.03472436 -0.09996621 -0.9943848
vn 0.03489926 1.091273E-07 -0.9993908
vn -0.5189745 -0.2021862 0.8305337
vn -0.03417826 -0.2021862 0.9787506
vn -0.8647125 -0.2021871 0.4597746
vn -0.9787501 -0.2021876 -0.03418021
vn -0.8305332 -0.2021863 -0.5189752
vn -0.4597763 -0.2021859 -0.8647119
vn 0.03417895 -0.2021857 -0.9787506
vn 0 -1 0
vn 0 -1 0
vn 0 -1 0
vn 0 -1 0
vn 0 -1 0
vn 0 -1 0
vn 0 -1 0
vn 0 -1 0
vn 0 -1 0
vn 0 -1 0
vn 0 -1 0
vn 0 -1 0
vn 2.48008E-07 1 -8.112014E-07
vn 2.480081E-07 1 -8.112015E-07
vn 2.48008E-07 1 -8.112014E-07
vn 2.480081E-07 1 -8.112014E-07
vn 0 1 1.63773E-06
vn 0 1 1.63773E-06
vn 0 1 1.63773E-06
vn 1.693932E-07 1 -5.540611E-07
vn 0 1 0
vn 0 1 0
vn -8.683903E-07 1 1.38972E-06
vn -8.683903E-07 1 1.38972E-06
g handguard_mr133_izhmeh_std_LOD1_0
f 3/3/3 2/2/2 1/1/1
f 4/4/4 3/3/3 1/1/1
f 7/7/7 6/6/6 5/5/5
f 8/8/8 7/7/7 5/5/5
f 11/11/11 10/10/10 9/9/9
f 12/12/12 11/11/11 9/9/9
f 15/15/15 14/14/14 13/13/13
f 16/16/16 15/15/15 13/13/13
f 19/19/19 18/18/18 17/17/17
f 20/20/20 19/19/19 17/17/17
f 23/23/23 22/22/22 21/21/21
f 24/24/24 23/23/23 21/21/21
f 27/27/27 26/26/26 25/25/25
f 28/28/28 27/27/27 25/25/25
f 31/31/31 30/30/30 29/29/29
f 32/32/32 31/31/31 29/29/29
f 35/35/35 34/34/34 33/33/33
f 36/36/36 35/35/35 33/33/33
f 39/39/39 38/38/38 37/37/37
f 40/40/40 39/39/39 37/37/37
f 43/43/43 42/42/42 41/41/41
f 44/44/44 43/43/43 41/41/41
f 45/45/45 43/43/43 44/44/44
f 46/46/46 45/45/45 44/44/44
f 41/41/41 42/42/42 47/47/47
f 42/42/42 48/48/48 47/47/47
f 47/47/47 48/48/48 49/49/49
f 48/48/48 50/50/50 49/49/49
f 49/49/49 50/50/50 51/51/51
f 50/50/50 52/52/52 51/51/51
f 51/51/51 52/52/52 53/53/53
f 52/52/52 54/54/54 53/53/53
f 43/43/43 55/55/55 42/42/42
f 55/55/55 56/56/56 42/42/42
f 42/42/42 56/56/56 48/48/48
f 57/57/57 55/55/55 43/43/43
f 45/45/45 57/57/57 43/43/43
f 52/52/52 58/58/58 54/54/54
f 58/58/58 59/59/59 54/54/54
f 60/60/60 58/58/58 52/52/52
f 50/50/50 60/60/60 52/52/52
f 61/61/61 60/60/60 50/50/50
f 48/48/48 61/61/61 50/50/50
f 56/56/56 61/61/61 48/48/48
f 64/64/64 63/63/63 62/62/62
f 65/65/65 64/64/64 62/62/62
f 66/66/66 64/64/64 65/65/65
f 67/67/67 66/66/66 65/65/65
f 68/68/68 66/66/66 67/67/67
f 69/69/69 68/68/68 67/67/67
f 70/70/70 68/68/68 69/69/69
f 71/71/71 70/70/70 69/69/69
f 72/72/72 70/70/70 71/71/71
f 73/73/73 72/72/72 71/71/71
f 74/74/74 72/72/72 73/73/73
f 75/75/75 74/74/74 73/73/73
f 64/64/64 76/76/76 63/63/63
f 76/76/76 77/77/77 63/63/63
f 78/78/78 76/76/76 64/64/64
f 66/66/66 78/78/78 64/64/64
f 79/79/79 78/78/78 66/66/66
f 68/68/68 79/79/79 66/66/66
f 80/80/80 79/79/79 68/68/68
f 70/70/70 80/80/80 68/68/68
f 81/81/81 80/80/80 70/70/70
f 72/72/72 81/81/81 70/70/70
f 82/82/82 81/81/81 72/72/72
f 74/74/74 82/82/82 72/72/72
f 85/85/85 84/84/84 83/83/83
f 86/86/86 85/85/85 83/83/83
f 86/86/86 83/83/83 87/87/87
f 87/87/87 83/83/83 88/88/88
f 89/89/89 87/87/87 88/88/88
f 90/90/90 86/86/86 87/87/87
f 86/86/86 90/90/90 91/91/91
f 92/92/92 86/86/86 91/91/91
f 93/93/93 90/90/90 87/87/87
f 94/94/94 93/93/93 87/87/87
f 97/97/97 96/96/96 95/95/95
f 98/98/98 97/97/97 95/95/95
f 97/97/97 98/98/98 99/99/99
f 99/99/99 98/98/98 100/100/100
f 101/101/101 99/99/99 100/100/100
f 102/102/102 97/97/97 99/99/99
f 102/102/102 99/99/99 103/103/103
f 104/104/104 102/102/102 103/103/103
f 97/97/97 102/102/102 105/105/105
f 106/106/106 97/97/97 105/105/105
