g handguard_svd_izhmash_svd_s_std_LOD1
v 0.02313679 0.008520088 -0.0108509
v 0.01919799 0.008523064 -0.022066
v 0.02313679 -7.93457E-06 -0.0108477
v 0.01919798 -7.93457E-06 -0.0220627
v 0.00733282 0.008524094 -0.0287255
v 0.007332819 -7.93457E-06 -0.02872249
v -0.007333313 0.008524094 -0.0287255
v -0.007333314 -7.93457E-06 -0.02872249
v -0.01919841 0.008523064 -0.022066
v -0.01919841 -7.93457E-06 -0.0220627
v -0.02313721 0.008520088 -0.0108509
v -0.02313721 -7.93457E-06 -0.0108477
v -0.01603741 0.008512077 0.0200033
v -0.01603741 -7.93457E-06 0.0200065
v -0.01278001 0.008511085 0.0245963
v -0.01278002 -7.93457E-06 0.0245963
v 0.01603699 -7.93457E-06 0.0200065
v 0.01603699 0.008512077 0.0200033
v 0.01277953 -7.93457E-06 0.0245963
v 0.01277954 0.008511085 0.0245963
v -0.01790585 -0.2541689 0.0204994
v -0.01120116 -0.2712409 0.0280587
v -0.01584665 -0.2612209 0.0204994
v -0.01710005 -0.2712409 0.0183363
v 0.01120058 -0.2712409 0.0280587
v 0.01790525 -0.2541689 0.0204994
v 0.01584614 -0.2612209 0.0204994
v 0.01709954 -0.2712409 0.0183363
v 0.02659578 -0.01247292 -0.007044296
v 0.01790529 -7.93457E-06 0.0204994
v 0.02659579 -7.93457E-06 -0.007044296
v 0.02460108 -0.05528492 -0.000739603
v 0.01790525 -0.2541689 0.0204994
v 0.02460105 -0.2541689 -0.000739603
v -0.01790581 -7.93457E-06 0.0204994
v -0.02659622 -0.01247292 -0.007044296
v -0.02659621 -7.93457E-06 -0.007044296
v -0.02460152 -0.05528492 -0.000739603
v -0.01790585 -0.2541689 0.0204994
v -0.02460155 -0.2541689 -0.000739603
v -0.01766896 -0.2612209 -0.0003136015
v -0.02263345 -0.2603099 -0.0002289009
v -0.01584665 -0.2612209 0.0204994
v -0.01433265 -0.2612209 -0.0114239
v -0.01953165 -0.2603099 -0.0136782
v -0.007460554 -0.2603099 -0.0216643
v -0.005824155 -0.2612209 -0.0180211
v 0.00582363 -0.2612209 -0.0180211
v 0.007460035 -0.2603099 -0.0216643
v 0.01433208 -0.2612209 -0.0114239
v 0.01953105 -0.2603099 -0.0136782
v 0.02263295 -0.2603099 -0.0002289009
v 0.01766835 -0.2612209 -0.0003136015
v 0.01584614 -0.2612209 0.0204994
v 0.01120058 -0.2712409 0.0280587
v -0.01120116 -0.2712409 0.0280587
v -2.759695E-07 -0.2712409 0.031384
v -0.01710005 -0.2712409 0.0183363
v 0.01709954 -0.2712409 0.0183363
v 0.01687324 -0.2712409 -0.0003136015
v -0.01687386 -0.2712409 -0.0003136015
v 0.01433207 -0.2712409 -0.0114239
v -0.01433265 -0.2712409 -0.0114239
v 0.005823629 -0.2712409 -0.0180211
v -0.005824156 -0.2712409 -0.0180211
v -0.01086512 -0.04615791 0.0290263
v 0.01086459 -0.04615791 0.0290263
v -2.425909E-07 -0.04857891 0.0321977
v 0.01086459 -0.04615791 0.0290263
v 0.01086459 -7.93457E-06 0.0284637
v 0.01790529 -7.93457E-06 0.0204994
v 0.01790525 -0.2541689 0.0204994
v 0.01120058 -0.2712409 0.0280587
v -2.425909E-07 -0.04857891 0.0321977
v -2.759695E-07 -0.2712409 0.031384
v -0.01120116 -0.2712409 0.0280587
v -0.01086512 -0.04615791 0.0290263
v -0.01790585 -0.2541689 0.0204994
v -0.01790581 -7.93457E-06 0.0204994
v -0.01086511 -7.93457E-06 0.0284637
v 0.008766285 -7.93457E-06 -0.0303435
v 0.007332819 -7.93457E-06 -0.02872249
v -0.008766714 -7.93457E-06 -0.0303435
v -0.007333314 -7.93457E-06 -0.02872249
v 0.01919798 -7.93457E-06 -0.0220627
v 0.02295079 -7.93457E-06 -0.0216631
v 0.02313679 -7.93457E-06 -0.0108477
v 0.02659579 -7.93457E-06 -0.007044296
v 0.01603699 -7.93457E-06 0.0200065
v 0.01790529 -7.93457E-06 0.0204994
v 0.01277953 -7.93457E-06 0.0245963
v 0.01086459 -7.93457E-06 0.0284637
v -0.01919841 -7.93457E-06 -0.0220627
v -0.02295131 -7.93457E-06 -0.0216631
v -0.02313721 -7.93457E-06 -0.0108477
v -0.02659621 -7.93457E-06 -0.007044296
v -0.01603741 -7.93457E-06 0.0200065
v -0.01790581 -7.93457E-06 0.0204994
v -0.01278002 -7.93457E-06 0.0245963
v -0.01086511 -7.93457E-06 0.0284637
v -0.02295132 -0.01247292 -0.0216631
v -0.008766716 -0.01247292 -0.0303435
v -0.02295131 -7.93457E-06 -0.0216631
v -0.008766714 -7.93457E-06 -0.0303435
v 0.008766282 -0.01247292 -0.0303435
v 0.008766285 -7.93457E-06 -0.0303435
v 0.02295078 -0.01247292 -0.0216631
v 0.02295079 -7.93457E-06 -0.0216631
v -0.008109222 -0.05528492 -0.0240389
v 0.008108786 -0.05528492 -0.0240389
v 0.008108757 -0.2541689 -0.0240389
v 0.02122945 -0.2541689 -0.0153584
v 0.02122948 -0.05528492 -0.0153584
v -0.008109252 -0.2541689 -0.0240389
v -0.02122992 -0.05528492 -0.0153584
v -0.02122995 -0.2541689 -0.0153584
v 0.02460105 -0.2541689 -0.000739603
v 0.02460108 -0.05528492 -0.000739603
v -0.02460152 -0.05528492 -0.000739603
v -0.02659622 -0.01247292 -0.007044296
v -0.02659621 -7.93457E-06 -0.007044296
v -0.02460155 -0.2541689 -0.000739603
v 0.02659578 -0.01247292 -0.007044296
v 0.02659579 -7.93457E-06 -0.007044296
v -0.008109252 -0.2541689 -0.0240389
v -0.02122995 -0.2541689 -0.0153584
v -0.007460554 -0.2603099 -0.0216643
v -0.01953165 -0.2603099 -0.0136782
v 0.007460035 -0.2603099 -0.0216643
v 0.008108757 -0.2541689 -0.0240389
v 0.02122945 -0.2541689 -0.0153584
v 0.01953105 -0.2603099 -0.0136782
v -0.02460155 -0.2541689 -0.000739603
v -0.02263345 -0.2603099 -0.0002289009
v -0.01790585 -0.2541689 0.0204994
v -0.01584665 -0.2612209 0.0204994
v 0.02460105 -0.2541689 -0.000739603
v 0.02263295 -0.2603099 -0.0002289009
v 0.01790525 -0.2541689 0.0204994
v 0.01584614 -0.2612209 0.0204994
v 0.01766835 -0.2612209 -0.0003136015
v 0.01433208 -0.2612209 -0.0114239
v 0.01687324 -0.2712409 -0.0003136015
v 0.01433207 -0.2712409 -0.0114239
v 0.01709954 -0.2712409 0.0183363
v 0.01584614 -0.2612209 0.0204994
v 0.00582363 -0.2612209 -0.0180211
v 0.005823629 -0.2712409 -0.0180211
v -0.005824155 -0.2612209 -0.0180211
v -0.005824156 -0.2712409 -0.0180211
v -0.01433265 -0.2612209 -0.0114239
v -0.01433265 -0.2712409 -0.0114239
v -0.01687386 -0.2712409 -0.0003136015
v -0.01766896 -0.2612209 -0.0003136015
v -0.01710005 -0.2712409 0.0183363
v -0.01584665 -0.2612209 0.0204994
v 0.01919799 0.008523064 -0.022066
v -0.01919841 0.008523064 -0.022066
v 0.00733282 0.008524094 -0.0287255
v -0.007333313 0.008524094 -0.0287255
v -0.02313721 0.008520088 -0.0108509
v 0.02313679 0.008520088 -0.0108509
v 0.01603699 0.008512077 0.0200033
v -0.01603741 0.008512077 0.0200033
v 0.01277954 0.008511085 0.0245963
v -0.01278001 0.008511085 0.0245963
v -0.01086512 -0.04615791 0.0290263
v -0.01086511 -7.93457E-06 0.0284637
v 0.01086459 -0.04615791 0.0290263
v 0.01086459 -7.93457E-06 0.0284637
v 0.01277953 -7.93457E-06 0.0245963
v 0.01086459 -7.93457E-06 0.0284637
v -0.01278002 -7.93457E-06 0.0245963
v -0.01086511 -7.93457E-06 0.0284637
v -0.01278002 -7.93457E-06 0.0245963
v -0.01278001 0.008511085 0.0245963
v 0.01277953 -7.93457E-06 0.0245963
v 0.01277954 0.008511085 0.0245963
vt 0.809046 0.169576
vt 0.809017 0.208732
vt 0.847091 0.169576
vt 0.847092 0.208727
vt 0.809002 0.253569
vt 0.847106 0.253571
vt 0.808985 0.301941
vt 0.847098 0.301949
vt 0.808997 0.346804
vt 0.847097 0.346807
vt 0.809026 0.385994
vt 0.847114 0.385996
vt 0.809105 0.490383
vt 0.847159 0.490385
vt 0.809116 0.50895
vt 0.847165 0.508943
vt 0.847154 0.065318
vt 0.809148 0.0653152
vt 0.847165 0.046784
vt 0.809164 0.0467718
vt 0.045 0.912759
vt 0.107603 0.942954
vt 0.0713772 0.91558
vt 0.107603 0.907352
vt 0.428926 0.134981
vt 0.428926 0.185991
vt 0.438526 0.168156
vt 0.463444 0.148134
vt 0.652095 0.788499
vt 0.558618 0.826749
vt 0.652095 0.826749
vt 0.652095 0.65712
vt 0.558618 0.0468102
vt 0.652095 0.0468103
vt 0.777029 0.826749
vt 0.683552 0.788498
vt 0.683552 0.826748
vt 0.683552 0.65712
vt 0.777029 0.0468102
vt 0.683552 0.0468102
vt 0.922533 0.682839
vt 0.93935 0.682839
vt 0.922533 0.616274
vt 0.922533 0.723403
vt 0.93935 0.723403
vt 0.93935 0.763707
vt 0.922533 0.763707
vt 0.922533 0.806133
vt 0.93935 0.806133
vt 0.922533 0.846437
vt 0.93935 0.846437
vt 0.93935 0.887001
vt 0.922533 0.887001
vt 0.922533 0.953566
vt 0.873093 0.894626
vt 0.873093 0.942416
vt 0.880874 0.918521
vt 0.851918 0.955
vt 0.851918 0.882041
vt 0.808277 0.882041
vt 0.808277 0.955
vt 0.782279 0.882041
vt 0.782279 0.955
vt 0.766842 0.906096
vt 0.766842 0.930945
vt 0.142171 0.920502
vt 0.220724 0.920502
vt 0.181447 0.907352
vt 0.401997 0.204228
vt 0.401997 0.0467718
vt 0.364276 0.0469474
vt 0.364276 0.920428
vt 0.401865 0.920428
vt 0.444484 0.204228
vt 0.444484 0.920428
vt 0.487102 0.920428
vt 0.486972 0.204228
vt 0.524692 0.920428
vt 0.524692 0.0469476
vt 0.486972 0.0467718
vt 0.935734 0.405801
vt 0.946956 0.405801
vt 0.935734 0.365664
vt 0.946956 0.365664
vt 0.946956 0.443492
vt 0.935734 0.443492
vt 0.946956 0.47709
vt 0.935734 0.47709
vt 0.946956 0.552559
vt 0.935734 0.552559
vt 0.946956 0.572826
vt 0.935734 0.572826
vt 0.946956 0.327973
vt 0.935734 0.327973
vt 0.946956 0.294375
vt 0.935734 0.294375
vt 0.946956 0.218906
vt 0.935734 0.218906
vt 0.946956 0.198639
vt 0.935734 0.198639
vt 0.0989212 0.0875284
vt 0.156954 0.0875284
vt 0.0989212 0.0467718
vt 0.156954 0.0467718
vt 0.217479 0.0875284
vt 0.217479 0.0467718
vt 0.275512 0.0875284
vt 0.275512 0.0467718
vt 0.156954 0.229175
vt 0.217479 0.229175
vt 0.217479 0.879475
vt 0.275512 0.879475
vt 0.275512 0.229175
vt 0.156954 0.879475
vt 0.0989212 0.229175
vt 0.0989212 0.879475
vt 0.329433 0.879475
vt 0.329433 0.229175
vt 0.045 0.229175
vt 0.045 0.0875284
vt 0.045 0.0467718
vt 0.045 0.879475
vt 0.329433 0.0875284
vt 0.329433 0.0467718
vt 0.882931 0.397349
vt 0.882931 0.444683
vt 0.906948 0.397349
vt 0.906948 0.444683
vt 0.906948 0.348554
vt 0.882931 0.348554
vt 0.882931 0.301221
vt 0.906948 0.301221
vt 0.882931 0.48982
vt 0.906948 0.48982
vt 0.882931 0.558925
vt 0.906948 0.558925
vt 0.882931 0.256083
vt 0.906948 0.256083
vt 0.882931 0.186978
vt 0.906948 0.186978
vt 0.808487 0.604597
vt 0.808487 0.641966
vt 0.8453 0.604597
vt 0.8453 0.641966
vt 0.8453 0.54034
vt 0.808487 0.54034
vt 0.808487 0.676956
vt 0.8453 0.676956
vt 0.808487 0.71481
vt 0.8453 0.71481
vt 0.808487 0.7498
vt 0.8453 0.7498
vt 0.8453 0.787169
vt 0.808487 0.787169
vt 0.8453 0.851426
vt 0.808487 0.851426
vt 0.947764 0.148271
vt 0.877224 0.148271
vt 0.925966 0.162756
vt 0.899022 0.162756
vt 0.869988 0.123876
vt 0.955 0.123876
vt 0.941957 0.0567626
vt 0.883032 0.0567626
vt 0.935972 0.0467718
vt 0.889016 0.0467718
vt 0.725463 0.862843
vt 0.558618 0.862843
vt 0.725463 0.937323
vt 0.558618 0.937323
vt 0.334139 0.920817
vt 0.334139 0.907352
vt 0.253224 0.920817
vt 0.253224 0.907352
vt 0.428926 0.111547
vt 0.459722 0.111547
vt 0.428926 0.045
vt 0.459722 0.045
vn 0.9984379 -2.09251E-05 -0.05587199
vn 0.7657089 -0.0002480047 -0.6431871
vn 0.9984479 -2.172304E-05 -0.05569393
vn 0.7658214 -0.0002430696 -0.6430531
vn 0.2529331 -0.0003462551 -0.9674837
vn 0.2529702 -0.0003406769 -0.967474
vn -0.2529282 -0.0003406101 -0.9674849
vn -0.2529654 -0.0003461944 -0.9674752
vn -0.7657142 -0.0002429967 -0.6431808
vn -0.7658269 -0.000247871 -0.6430468
vn -0.9984379 -2.176326E-05 -0.05587276
vn -0.9984478 -2.084681E-05 -0.05569471
vn -0.9124941 0.0001536107 0.4090896
vn -0.9124062 8.413045E-05 0.4092858
vn -0.8156165 0.0001365507 0.5785928
vn -0.815497 1.14115E-07 0.5787612
vn 0.9123796 0.0001535906 0.409345
vn 0.9124678 8.397499E-05 0.4091488
vn 0.8155634 0.0001364274 0.5786676
vn 0.815683 -1.141411E-07 0.5784991
vn -0.9378143 -0.2738434 0.2133402
vn -0.8841999 -0.06050757 0.4631731
vn -0.9310518 -0.2028223 0.3033244
vn -0.8549321 -0.005036094 0.5187154
vn 0.8841966 -0.06050565 0.4631797
vn 0.9378129 -0.2738317 0.2133614
vn 0.9310485 -0.2028132 0.3033408
vn 0.8549297 -0.005036434 0.5187194
vn 0.9536483 -6.989168E-05 0.3009236
vn 0.953667 -5.687157E-05 0.3008638
vn 0.9536573 -3.648134E-07 0.300895
vn 0.9537138 -1.870753E-05 0.3007157
vn 0.9537277 -1.376908E-07 0.3006719
vn 0.9537277 -1.372684E-07 0.3006719
vn -0.9536681 -5.674475E-05 0.3008606
vn -0.9536492 -6.977262E-05 0.3009206
vn -0.9536583 3.311227E-07 0.3008918
vn -0.9537151 -1.850857E-05 0.3007119
vn -0.953729 1.376251E-07 0.3006676
vn -0.953729 1.371976E-07 0.3006677
vn -0.180802 -0.983281 -0.02165842
vn -0.1769464 -0.9840693 -0.01725468
vn -0.180204 -0.9835027 0.01577792
vn -0.1335867 -0.9852663 -0.1067942
vn -0.1351958 -0.986987 -0.08705598
vn -0.07145393 -0.9760593 -0.2054324
vn -0.06687155 -0.974615 -0.2136672
vn 0.06687182 -0.9746152 -0.213667
vn 0.07145423 -0.9760593 -0.2054322
vn 0.133587 -0.9852663 -0.1067943
vn 0.1351963 -0.9869869 -0.08705674
vn 0.1769435 -0.9840698 -0.01725479
vn 0.1807985 -0.9832817 -0.0216581
vn 0.1802005 -0.9835033 0.01577683
vn 0 -1 0
vn 0 -1 0
vn 0 -1 0
vn 0 -1 0
vn 0 -1 0
vn 0 -1 0
vn 0 -1 0
vn 0 -1 0
vn 0 -1 0
vn 0 -1 0
vn 0 -1 0
vn 0 0.7948644 0.606787
vn 0 0.7948645 0.606787
vn 0 0.7948645 0.606787
vn 0.6447555 -0.0007654701 0.7643885
vn 0.7491891 0.008073876 0.6623069
vn 0.7525279 0.006865685 0.6585246
vn 0.7504965 -0.001688367 0.6608723
vn 0.4157659 -0.003145869 0.9094663
vn 7.238136E-07 -0.003855682 0.9999926
vn 2.076699E-07 -0.003654388 0.9999933
vn -0.415765 -0.003145774 0.9094666
vn -0.6447548 -0.0007652912 0.764389
vn -0.7504947 -0.001688253 0.6608742
vn -0.7525274 0.006865922 0.6585251
vn -0.7491887 0.008074115 0.6623074
vn 0 1 0
vn 0 1 0
vn 0 1 0
vn 0 1 0
vn 0 1 0
vn 0 1 0
vn 0 1 0
vn 0 1 0
vn 0 1 0
vn 0 1 0
vn 0 1 0
vn 0 1 0
vn 0 1 0
vn 0 1 0
vn 0 1 0
vn 0 1 0
vn 0 1 0
vn 0 1 0
vn 0 1 0
vn 0 1 0
vn -0.7997242 -0.05667721 -0.5976864
vn -0.2684967 -0.07154394 -0.9606202
vn -0.8062631 2.863406E-07 -0.591557
vn -0.271146 0 -0.9625382
vn 0.2684981 -0.07154398 -0.9606197
vn 0.2711475 0 -0.9625378
vn 0.7997231 -0.05667707 -0.5976878
vn 0.8062623 -3.084287E-07 -0.5915582
vn -0.2876984 -0.07593195 -0.9547062
vn 0.2876989 -0.07593177 -0.9547061
vn 0.2880973 0 -0.9576011
vn 0.8216512 -1.198887E-07 -0.5699907
vn 0.8264415 -0.05934585 -0.559886
vn -0.2880972 0 -0.9576011
vn -0.8264416 -0.05934607 -0.559886
vn -0.8216512 1.181977E-07 -0.5699905
vn 0.9744198 -1.401741E-07 -0.224735
vn 0.9737366 -0.03744223 -0.2245774
vn -0.9737368 -0.03744195 -0.2245771
vn -0.9700006 -0.03913241 -0.239932
vn -0.9702954 3.711781E-07 -0.2419233
vn -0.97442 1.401741E-07 -0.2247347
vn 0.9699993 -0.03913234 -0.2399376
vn 0.9702938 -3.711775E-07 -0.2419295
vn -0.2660138 -0.3719758 -0.8893091
vn -0.7599656 -0.358503 -0.5421513
vn -0.2691506 -0.371947 -0.8883769
vn -0.7764387 -0.3568434 -0.5194283
vn 0.2691504 -0.3719486 -0.8883762
vn 0.2660143 -0.3719766 -0.8893085
vn 0.759964 -0.3585128 -0.5421469
vn 0.7764349 -0.3568527 -0.5194276
vn -0.9525947 -0.3032943 0.02399619
vn -0.9521936 -0.3002573 0.05633019
vn -0.9188102 -0.2686616 0.2891516
vn -0.9189298 -0.2683292 0.2890804
vn 0.9525939 -0.303297 0.02399554
vn 0.9521937 -0.3002569 0.05632884
vn 0.918812 -0.268653 0.2891538
vn 0.9189323 -0.2683187 0.2890822
vn 0.9896903 -0.04889609 -0.1346188
vn 0.834423 -0.01843891 -0.5508161
vn 0.9887172 -0.0606551 -0.1369641
vn 0.8429492 -1.913389E-07 -0.5379933
vn 0.9967253 0.05453859 0.05970087
vn 0.9906617 0.1051986 0.08673397
vn 0.323826 0 -0.9461166
vn 0.323826 0 -0.9461166
vn -0.3238246 0 -0.9461172
vn -0.3238246 0 -0.9461172
vn -0.8344215 -0.01843867 -0.5508183
vn -0.8429476 0 -0.5379956
vn -0.9887174 -0.06065491 -0.1369627
vn -0.9896905 -0.04889622 -0.1346176
vn -0.9967251 0.05453729 0.05970547
vn -0.9906614 0.1051967 0.08673821
vn 0 1 0.0002419241
vn 0 1 0.000241924
vn 0 1 0.0001546616
vn 0 1 0.0001546616
vn 0 1 0.0002623496
vn 0 1 0.0002623496
vn 0 1 0.0002444845
vn 0 1 0.0002444844
vn 0 1 0.0002159419
vn 0 1 0.0002159419
vn 0 0.01218981 0.9999257
vn 0 0.01218981 0.9999257
vn 0 0.01218981 0.9999257
vn 0 0.01218981 0.9999257
vn 0 1 0
vn 0 1 0
vn 0 1 0
vn 0 1 0
vn 0 0 1
vn 0 0 1
vn 0 0 1
vn 0 0 1
g handguard_svd_izhmash_svd_s_std_LOD1_0
f 3/3/3 2/2/2 1/1/1
f 2/2/2 3/3/3 4/4/4
f 4/4/4 5/5/5 2/2/2
f 5/5/5 4/4/4 6/6/6
f 6/6/6 7/7/7 5/5/5
f 7/7/7 6/6/6 8/8/8
f 8/8/8 9/9/9 7/7/7
f 9/9/9 8/8/8 10/10/10
f 10/10/10 11/11/11 9/9/9
f 11/11/11 10/10/10 12/12/12
f 12/12/12 13/13/13 11/11/11
f 13/13/13 12/12/12 14/14/14
f 14/14/14 15/15/15 13/13/13
f 15/15/15 14/14/14 16/16/16
f 1/1/1 17/17/17 3/3/3
f 17/17/17 1/1/1 18/18/18
f 18/18/18 19/19/19 17/17/17
f 19/19/19 18/18/18 20/20/20
f 23/23/23 22/22/22 21/21/21
f 24/24/24 22/22/22 23/23/23
f 27/27/27 26/26/26 25/25/25
f 28/28/28 27/27/27 25/25/25
f 31/31/31 30/30/30 29/29/29
f 29/29/29 30/30/30 32/32/32
f 30/30/30 33/33/33 32/32/32
f 34/34/34 32/32/32 33/33/33
f 37/37/37 36/36/36 35/35/35
f 36/36/36 38/38/38 35/35/35
f 39/39/39 35/35/35 38/38/38
f 40/40/40 39/39/39 38/38/38
f 43/43/43 42/42/42 41/41/41
f 42/42/42 44/44/44 41/41/41
f 44/44/44 42/42/42 45/45/45
f 46/46/46 44/44/44 45/45/45
f 44/44/44 46/46/46 47/47/47
f 46/46/46 48/48/48 47/47/47
f 48/48/48 46/46/46 49/49/49
f 49/49/49 50/50/50 48/48/48
f 50/50/50 49/49/49 51/51/51
f 52/52/52 50/50/50 51/51/51
f 50/50/50 52/52/52 53/53/53
f 54/54/54 53/53/53 52/52/52
f 57/57/57 56/56/56 55/55/55
f 58/58/58 55/55/55 56/56/56
f 55/55/55 58/58/58 59/59/59
f 58/58/58 60/60/60 59/59/59
f 60/60/60 58/58/58 61/61/61
f 61/61/61 62/62/62 60/60/60
f 62/62/62 61/61/61 63/63/63
f 63/63/63 64/64/64 62/62/62
f 64/64/64 63/63/63 65/65/65
f 68/68/68 67/67/67 66/66/66
f 71/71/71 70/70/70 69/69/69
f 69/69/69 72/72/72 71/71/71
f 72/72/72 69/69/69 73/73/73
f 74/74/74 73/73/73 69/69/69
f 73/73/73 74/74/74 75/75/75
f 74/74/74 76/76/76 75/75/75
f 76/76/76 74/74/74 77/77/77
f 77/77/77 78/78/78 76/76/76
f 78/78/78 77/77/77 79/79/79
f 79/79/79 77/77/77 80/80/80
f 83/83/83 82/82/82 81/81/81
f 82/82/82 83/83/83 84/84/84
f 85/85/85 81/81/81 82/82/82
f 81/81/81 85/85/85 86/86/86
f 87/87/87 86/86/86 85/85/85
f 86/86/86 87/87/87 88/88/88
f 89/89/89 88/88/88 87/87/87
f 88/88/88 89/89/89 90/90/90
f 91/91/91 90/90/90 89/89/89
f 90/90/90 91/91/91 92/92/92
f 83/83/83 93/93/93 84/84/84
f 93/93/93 83/83/83 94/94/94
f 94/94/94 95/95/95 93/93/93
f 95/95/95 94/94/94 96/96/96
f 96/96/96 97/97/97 95/95/95
f 97/97/97 96/96/96 98/98/98
f 98/98/98 99/99/99 97/97/97
f 99/99/99 98/98/98 100/100/100
f 103/103/103 102/102/102 101/101/101
f 102/102/102 103/103/103 104/104/104
f 104/104/104 105/105/105 102/102/102
f 105/105/105 104/104/104 106/106/106
f 106/106/106 107/107/107 105/105/105
f 107/107/107 106/106/106 108/108/108
f 105/105/105 109/109/109 102/102/102
f 109/109/109 101/101/101 102/102/102
f 109/109/109 105/105/105 110/110/110
f 107/107/107 110/110/110 105/105/105
f 111/111/111 109/109/109 110/110/110
f 110/110/110 112/112/112 111/111/111
f 112/112/112 110/110/110 113/113/113
f 110/110/110 107/107/107 113/113/113
f 109/109/109 111/111/111 114/114/114
f 114/114/114 115/115/115 109/109/109
f 101/101/101 109/109/109 115/115/115
f 115/115/115 114/114/114 116/116/116
f 113/113/113 117/117/117 112/112/112
f 117/117/117 113/113/113 118/118/118
f 116/116/116 119/119/119 115/115/115
f 120/120/120 115/115/115 119/119/119
f 115/115/115 120/120/120 101/101/101
f 121/121/121 101/101/101 120/120/120
f 101/101/101 121/121/121 103/103/103
f 119/119/119 116/116/116 122/122/122
f 113/113/113 123/123/123 118/118/118
f 123/123/123 113/113/113 107/107/107
f 108/108/108 123/123/123 107/107/107
f 123/123/123 108/108/108 124/124/124
f 127/127/127 126/126/126 125/125/125
f 126/126/126 127/127/127 128/128/128
f 125/125/125 129/129/129 127/127/127
f 129/129/129 125/125/125 130/130/130
f 131/131/131 129/129/129 130/130/130
f 129/129/129 131/131/131 132/132/132
f 128/128/128 133/133/133 126/126/126
f 133/133/133 128/128/128 134/134/134
f 134/134/134 135/135/135 133/133/133
f 135/135/135 134/134/134 136/136/136
f 137/137/137 132/132/132 131/131/131
f 132/132/132 137/137/137 138/138/138
f 139/139/139 138/138/138 137/137/137
f 138/138/138 139/139/139 140/140/140
f 143/143/143 142/142/142 141/141/141
f 142/142/142 143/143/143 144/144/144
f 141/141/141 145/145/145 143/143/143
f 145/145/145 141/141/141 146/146/146
f 144/144/144 147/147/147 142/142/142
f 147/147/147 144/144/144 148/148/148
f 148/148/148 149/149/149 147/147/147
f 149/149/149 148/148/148 150/150/150
f 150/150/150 151/151/151 149/149/149
f 151/151/151 150/150/150 152/152/152
f 153/153/153 151/151/151 152/152/152
f 151/151/151 153/153/153 154/154/154
f 155/155/155 154/154/154 153/153/153
f 154/154/154 155/155/155 156/156/156
f 159/159/159 158/158/158 157/157/157
f 158/158/158 159/159/159 160/160/160
f 161/161/161 157/157/157 158/158/158
f 157/157/157 161/161/161 162/162/162
f 161/161/161 163/163/163 162/162/162
f 163/163/163 161/161/161 164/164/164
f 164/164/164 165/165/165 163/163/163
f 165/165/165 164/164/164 166/166/166
f 169/169/169 168/168/168 167/167/167
f 168/168/168 169/169/169 170/170/170
f 173/173/173 172/172/172 171/171/171
f 172/172/172 173/173/173 174/174/174
f 177/177/177 176/176/176 175/175/175
f 176/176/176 177/177/177 178/178/178
