g handguard_ar15_lone_star_ion_lite_m_lok_16_inch_LOD1
v -0.01100993 -0.4065785 0.02508512
v -0.008205927 -0.4065785 0.02787912
v 0.007948073 -0.4065785 0.02787912
v 0.01075207 -0.4065785 0.02508512
v -0.008205927 -0.4065785 0.02229112
v 0.007948073 -0.4065785 0.02229112
v -0.007775927 -0.4065785 0.01878812
v 0.007518073 -0.4065785 0.01878812
v 0.008778072 -0.4065785 0.01570312
v -0.009035927 -0.4065785 0.01570312
v 0.01909907 -0.4065785 0.005190121
v -0.01935693 -0.4065785 0.005190121
v 0.01909907 -0.4065785 -0.01084888
v -0.01935693 -0.4065785 -0.01084888
v -0.008800928 -0.4065785 -0.02135188
v 0.008543073 -0.4065785 -0.02135188
v 0.007433073 -0.4065785 -0.02180988
v -0.007690927 -0.4065785 -0.02180988
v 0.007948073 -0.000178566 0.02789012
v -0.008205927 -0.000178566 0.02789012
v -0.01109093 -0.000178566 0.02508512
v 0.01083307 -0.000178566 0.02508512
v -0.008205927 -0.000178566 0.02229112
v 0.007948073 -0.000178566 0.02229112
v -0.007775927 -0.000178566 0.01878812
v 0.007518073 -0.000178566 0.01878812
v 0.008860072 -0.000178566 0.01570312
v -0.009117926 -0.000178566 0.01570312
v 0.01909907 -0.000178566 0.005190121
v -0.01935693 -0.000178566 0.005190121
v 0.01909907 -0.000178566 -0.01084888
v -0.01935693 -0.000178566 -0.01084888
v -0.008880927 -0.000178566 -0.02135188
v 0.008623072 -0.000178566 -0.02135188
v 0.008104073 -0.000178566 -0.02180988
v -0.008361927 -0.000178566 -0.02180988
v 0.008104073 -0.05367557 -0.02180988
v 0.008623072 -0.000178566 -0.02135188
v 0.008104073 -0.000178566 -0.02180988
v 0.007433073 -0.4065785 -0.02180988
v 0.008543073 -0.4065785 -0.02135188
v 0.008104073 -0.05367557 -0.02180988
v -0.008361927 -0.05367557 -0.02180988
v -0.007690927 -0.4065785 -0.02180988
v 0.007433073 -0.4065785 -0.02180988
v -0.008880927 -0.000178566 -0.02135188
v -0.008361927 -0.05367557 -0.02180988
v -0.008361927 -0.000178566 -0.02180988
v -0.008800928 -0.4065785 -0.02135188
v -0.007690927 -0.4065785 -0.02180988
v -0.008361927 -0.04322257 -0.03037788
v 0.008104073 -0.04322257 -0.03037788
v 0.008104073 -0.009397565 -0.03037788
v -0.008361927 -0.009397565 -0.03037788
v 0.008104073 -0.04322257 -0.03037788
v 0.008104073 -0.05367557 -0.02180988
v 0.008104073 -0.000178566 -0.02180988
v 0.008104073 -0.009397565 -0.03037788
v 0.008104073 -0.009397565 -0.03037788
v 0.008104073 -0.000178566 -0.02180988
v -0.008361927 -0.000178566 -0.02180988
v -0.008361927 -0.009397565 -0.03037788
v -0.008361927 -0.009397565 -0.03037788
v -0.008361927 -0.000178566 -0.02180988
v -0.008361927 -0.05367557 -0.02180988
v -0.008361927 -0.04322257 -0.03037788
v -0.008361927 -0.04322257 -0.03037788
v -0.008361927 -0.05367557 -0.02180988
v 0.008104073 -0.05367557 -0.02180988
v 0.008104073 -0.04322257 -0.03037788
v 0.01909907 -0.4065785 -0.01084888
v 0.01909907 -0.000178566 -0.01084888
v 0.008623072 -0.000178566 -0.02135188
v 0.008543073 -0.4065785 -0.02135188
v -0.008800928 -0.4065785 -0.02135188
v -0.008880927 -0.000178566 -0.02135188
v -0.01935693 -0.000178566 -0.01084888
v -0.01935693 -0.4065785 -0.01084888
v -0.01935693 -0.4065785 -0.01084888
v -0.01935693 -0.000178566 -0.01084888
v -0.01935693 -0.000178566 0.005190121
v -0.01935693 -0.4065785 0.005190121
v -0.01935693 -0.4065785 0.005190121
v -0.01935693 -0.000178566 0.005190121
v -0.009117926 -0.000178566 0.01570312
v -0.009035927 -0.4065785 0.01570312
v -0.007775927 -0.000178566 0.01878812
v -0.007775927 -0.4065785 0.01878812
v -0.008205927 -0.000178566 0.02229112
v -0.008205927 -0.4065785 0.02229112
v -0.008205927 -0.4065785 0.02229112
v -0.008205927 -0.000178566 0.02229112
v -0.01109093 -0.000178566 0.02508512
v -0.01100993 -0.4065785 0.02508512
v -0.01100993 -0.4065785 0.02508512
v -0.01109093 -0.000178566 0.02508512
v -0.008205927 -0.000178566 0.02789012
v -0.008205927 -0.4065785 0.02787912
v -0.008205927 -0.4065785 0.02787912
v -0.008205927 -0.000178566 0.02789012
v 0.007948073 -0.000178566 0.02789012
v 0.007948073 -0.4065785 0.02787912
v 0.007948073 -0.4065785 0.02787912
v 0.007948073 -0.000178566 0.02789012
v 0.01083307 -0.000178566 0.02508512
v 0.01075207 -0.4065785 0.02508512
v 0.01075207 -0.4065785 0.02508512
v 0.01083307 -0.000178566 0.02508512
v 0.007948073 -0.000178566 0.02229112
v 0.007948073 -0.4065785 0.02229112
v 0.007948073 -0.4065785 0.02229112
v 0.007948073 -0.000178566 0.02229112
v 0.007518073 -0.000178566 0.01878812
v 0.007518073 -0.4065785 0.01878812
v 0.008860072 -0.000178566 0.01570312
v 0.008778072 -0.4065785 0.01570312
v 0.01909907 -0.000178566 0.005190121
v 0.01909907 -0.4065785 0.005190121
v 0.01909907 -0.4065785 0.005190121
v 0.01909907 -0.000178566 0.005190121
v 0.01909907 -0.000178566 -0.01084888
v 0.01909907 -0.4065785 -0.01084888
vt 0.8445 0.868
vt 0.8386 0.88
vt 0.8386 0.9489
vt 0.8445 0.9608
vt 0.8505 0.88
vt 0.8505 0.9489
vt 0.858 0.8818
vt 0.858 0.947
vt 0.8645 0.9524
vt 0.8645 0.8765
vt 0.8869 0.995
vt 0.8869 0.8338
vt 0.9211 0.995
vt 0.9211 0.8339
vt 0.9435 0.8775
vt 0.9435 0.9514
vt 0.9445 0.9467
vt 0.9445 0.8822
vt 0.271 0.9431
vt 0.271 0.8761
vt 0.2652 0.8641
vt 0.2652 0.9551
vt 0.2594 0.8761
vt 0.2594 0.9431
vt 0.2521 0.8779
vt 0.2521 0.9413
vt 0.2457 0.9469
vt 0.2457 0.8723
vt 0.2239 0.9895
vt 0.2239 0.8297
vt 0.1907 0.9895
vt 0.1907 0.8297
vt 0.1689 0.8733
vt 0.1689 0.9459
vt 0.1679 0.9434
vt 0.1679 0.8758
vt 0.1338 0.3589
vt 0.0029 0.3529
vt 0.0029 0.3566
vt 0.9972 0.3586
vt 0.9972 0.3527
vt 0.8655 0.7882
vt 0.8655 0.7139
vt 0.0021 0.7141
vt 0.0021 0.7881
vt 0.9964 0.8178
vt 0.8655 0.8239
vt 0.9964 0.8215
vt 0.0021 0.8176
vt 0.0021 0.8235
vt 0.4982 0.9066
vt 0.4982 0.8323
vt 0.4159 0.8296
vt 0.4159 0.9094
vt 0.1074 0.87
vt 0.133 0.8282
vt 0.0021 0.8276
vt 0.0251 0.8696
vt 0.9474 0.7761
vt 0.9474 0.7139
vt 0.9075 0.7139
vt 0.9075 0.7761
vt 0.3902 0.8716
vt 0.4132 0.8296
vt 0.2823 0.8302
vt 0.3079 0.872
vt 0.9047 0.78
vt 0.9047 0.7139
vt 0.8676 0.7139
vt 0.8676 0.78
vt 0.0021 0.0762
vt 0.9964 0.0767
vt 0.9964 0.004
vt 0.0021 0.0045
vt 0.0021 0.2377
vt 0.9964 0.2382
vt 0.9964 0.1655
vt 0.0021 0.166
vt 0.0021 0.1602
vt 0.9964 0.1602
vt 0.9964 0.0818
vt 0.0021 0.0818
vt 0.0021 0.5159
vt 0.9964 0.5165
vt 0.9964 0.4445
vt 0.0021 0.4449
vt 0.9964 0.4281
vt 0.0021 0.4286
vt 0.9964 0.4108
vt 0.0021 0.4114
vt 0.0041 0.3824
vt 0.9984 0.3826
vt 0.9984 0.3629
vt 0.0041 0.3631
vt 0.0021 0.3466
vt 0.9964 0.3467
vt 0.9964 0.327
vt 0.0021 0.3272
vt 0.0021 0.3223
vt 0.9964 0.3223
vt 0.9964 0.2433
vt 0.0021 0.2433
vt 0.0021 0.4064
vt 0.9964 0.4065
vt 0.9964 0.3869
vt 0.0021 0.387
vt 0.0021 0.8132
vt 0.9964 0.8133
vt 0.9964 0.7937
vt 0.0021 0.7938
vt 0.0021 0.6256
vt 0.9964 0.6261
vt 0.9964 0.6089
vt 0.0021 0.6083
vt 0.9964 0.5924
vt 0.0021 0.592
vt 0.9964 0.5205
vt 0.0021 0.521
vt 0.0021 0.7086
vt 0.9964 0.7086
vt 0.9964 0.6301
vt 0.0021 0.6301
vn 0 -1 0
vn 0 -1 0
vn 0 -1 0
vn 0 -1 0
vn 0 -1 0
vn 0 -1 0
vn 0 -1 0
vn 0 -1 0
vn 0 -1 0
vn 0 -1 0
vn 0 -1 0
vn 0 -1 0
vn 0 -1 0
vn 0 -1 0
vn 0 -1 0
vn 0 -1 0
vn 0 -1 0
vn 0 -1 0
vn 0 1 0
vn 0 1 0
vn 0 1 0
vn 0 1 0
vn 0 1 0
vn 0 1 0
vn 0 1 0
vn 0 1 0
vn 0 1 0
vn 0 1 0
vn 0 1 0
vn 0 1 0
vn 0 1 0
vn 0 1 0
vn 0 1 0
vn 0 1 0
vn 0 1 0
vn 0 1 0
vn 0.5031798 -0.0004949831 -0.8641816
vn 0.660476 -4.047356E-06 -0.7508472
vn 0.6616694 0 -0.7497957
vn 0.5024849 -0.0004969898 -0.8645859
vn 0.5024848 -0.0004969899 -0.8645859
vn 0 0 -1
vn 0 0 -1
vn 0 0 -1
vn 0 0 -1
vn -0.660476 -4.047356E-06 -0.7508472
vn -0.5031798 -0.0004949831 -0.8641816
vn -0.6616694 0 -0.7497957
vn -0.5024849 -0.0004969898 -0.8645858
vn -0.5024849 -0.0004969898 -0.8645859
vn 0 0 -1
vn 0 0 -1
vn 0 0 -1
vn 0 0 -1
vn 1 0 0
vn 1 0 0
vn 1 0 0
vn 1 0 0
vn 0 0.6807711 -0.7324963
vn 0 0.6807711 -0.7324963
vn 0 0.6807711 -0.7324963
vn 0 0.6807711 -0.7324963
vn -1 0 0
vn -1 0 0
vn -1 0 0
vn -1 0 0
vn 0 -0.6339266 -0.7733933
vn 0 -0.6339266 -0.7733933
vn 0 -0.6339266 -0.7733933
vn 0 -0.6339266 -0.7733933
vn 0.7066693 -6.955364E-05 -0.707544
vn 0.7066693 -6.955364E-05 -0.707544
vn 0.7066692 -6.955364E-05 -0.707544
vn 0.7066693 -6.955365E-05 -0.707544
vn -0.7066693 -6.955365E-05 -0.707544
vn -0.7066693 -6.955364E-05 -0.707544
vn -0.7066693 -6.955364E-05 -0.707544
vn -0.7066693 -6.955364E-05 -0.707544
vn -1 0 0
vn -1 0 0
vn -1 0 0
vn -1 0 0
vn -0.7149855 -7.213157E-05 0.6991393
vn -0.7149855 -7.213157E-05 0.6991393
vn -0.8327979 -8.401724E-05 0.5535772
vn -0.8328125 -8.401872E-05 0.5535551
vn -0.9904279 -4.810316E-05 0.1380311
vn -0.9904279 -4.810316E-05 0.1380311
vn -0.99255 0 -0.1218374
vn -0.99255 0 -0.1218374
vn -0.7007456 -6.98334E-05 -0.7134112
vn -0.7007456 -6.98334E-05 -0.7134112
vn -0.7007456 -6.98334E-05 -0.7134112
vn -0.7007456 -6.98334E-05 -0.7134112
vn -0.7014468 -7.954735E-05 0.7127219
vn -0.7014468 -7.954736E-05 0.7127219
vn -0.7014468 -7.954735E-05 0.7127219
vn -0.7014468 -7.954737E-05 0.7127219
vn 0 -2.706262E-05 1
vn 0 -2.706262E-05 1
vn 0 -2.706262E-05 1
vn 0 -2.706262E-05 1
vn 0.7014468 -7.954737E-05 0.7127219
vn 0.7014468 -7.954735E-05 0.7127219
vn 0.7014468 -7.954736E-05 0.7127219
vn 0.7014468 -7.954735E-05 0.7127219
vn 0.7007456 -6.98334E-05 -0.7134112
vn 0.7007456 -6.983339E-05 -0.7134112
vn 0.7007456 -6.98334E-05 -0.7134112
vn 0.7007456 -6.98334E-05 -0.7134112
vn 0.99255 0 -0.1218374
vn 0.99255 0 -0.1218374
vn 0.9904279 -4.81032E-05 0.1380311
vn 0.9904279 -4.81032E-05 0.1380311
vn 0.8327979 -8.401728E-05 0.5535772
vn 0.8328125 -8.401874E-05 0.5535551
vn 0.7149855 -7.213157E-05 0.6991393
vn 0.7149855 -7.213157E-05 0.6991393
vn 1 0 0
vn 1 0 0
vn 1 0 0
vn 1 0 0
g handguard_ar15_lone_star_ion_lite_m_lok_16_inch_LOD1_0
f 3/3/3 2/2/2 1/1/1
f 4/4/4 3/3/3 1/1/1
f 1/1/1 5/5/5 4/4/4
f 5/5/5 6/6/6 4/4/4
f 6/6/6 5/5/5 7/7/7
f 8/8/8 6/6/6 7/7/7
f 9/9/9 8/8/8 7/7/7
f 10/10/10 9/9/9 7/7/7
f 11/11/11 9/9/9 10/10/10
f 12/12/12 11/11/11 10/10/10
f 13/13/13 11/11/11 12/12/12
f 14/14/14 13/13/13 12/12/12
f 13/13/13 14/14/14 15/15/15
f 16/16/16 13/13/13 15/15/15
f 17/17/17 16/16/16 15/15/15
f 18/18/18 17/17/17 15/15/15
f 21/21/21 20/20/20 19/19/19
f 22/22/22 21/21/21 19/19/19
f 21/21/21 22/22/22 23/23/23
f 22/22/22 24/24/24 23/23/23
f 25/25/25 23/23/23 24/24/24
f 26/26/26 25/25/25 24/24/24
f 25/25/25 26/26/26 27/27/27
f 28/28/28 25/25/25 27/27/27
f 28/28/28 27/27/27 29/29/29
f 30/30/30 28/28/28 29/29/29
f 30/30/30 29/29/29 31/31/31
f 32/32/32 30/30/30 31/31/31
f 33/33/33 32/32/32 31/31/31
f 34/34/34 33/33/33 31/31/31
f 33/33/33 34/34/34 35/35/35
f 36/36/36 33/33/33 35/35/35
f 39/39/39 38/38/38 37/37/37
f 40/40/40 37/37/37 38/38/38
f 41/41/41 40/40/40 38/38/38
f 44/44/44 43/43/43 42/42/42
f 45/45/45 44/44/44 42/42/42
f 48/48/48 47/47/47 46/46/46
f 49/49/49 46/46/46 47/47/47
f 50/50/50 49/49/49 47/47/47
f 53/53/53 52/52/52 51/51/51
f 54/54/54 53/53/53 51/51/51
f 57/57/57 56/56/56 55/55/55
f 58/58/58 57/57/57 55/55/55
f 61/61/61 60/60/60 59/59/59
f 62/62/62 61/61/61 59/59/59
f 65/65/65 64/64/64 63/63/63
f 66/66/66 65/65/65 63/63/63
f 69/69/69 68/68/68 67/67/67
f 70/70/70 69/69/69 67/67/67
f 73/73/73 72/72/72 71/71/71
f 74/74/74 73/73/73 71/71/71
f 77/77/77 76/76/76 75/75/75
f 78/78/78 77/77/77 75/75/75
f 81/81/81 80/80/80 79/79/79
f 82/82/82 81/81/81 79/79/79
f 85/85/85 84/84/84 83/83/83
f 86/86/86 85/85/85 83/83/83
f 87/87/87 85/85/85 86/86/86
f 88/88/88 87/87/87 86/86/86
f 89/89/89 87/87/87 88/88/88
f 90/90/90 89/89/89 88/88/88
f 93/93/93 92/92/92 91/91/91
f 94/94/94 93/93/93 91/91/91
f 97/97/97 96/96/96 95/95/95
f 98/98/98 97/97/97 95/95/95
f 101/101/101 100/100/100 99/99/99
f 102/102/102 101/101/101 99/99/99
f 105/105/105 104/104/104 103/103/103
f 106/106/106 105/105/105 103/103/103
f 109/109/109 108/108/108 107/107/107
f 110/110/110 109/109/109 107/107/107
f 113/113/113 112/112/112 111/111/111
f 114/114/114 113/113/113 111/111/111
f 115/115/115 113/113/113 114/114/114
f 116/116/116 115/115/115 114/114/114
f 117/117/117 115/115/115 116/116/116
f 118/118/118 117/117/117 116/116/116
f 121/121/121 120/120/120 119/119/119
f 122/122/122 121/121/121 119/119/119
