g handguard_sa58_ds_arms_picatinny_full_lenght_quad_rail_LOD1
v -0.2474485 0.00861229 -0.03173789
v -0.2474485 -0.007107691 -0.03173789
v -0.06198653 -0.007107691 -0.03173789
v -0.06198653 0.00861229 -0.03173789
v -0.2995925 0.0007522994 -0.02626489
v -0.2995925 0.008612292 -0.0245979
v -0.2995925 -0.007107693 -0.0245979
v -0.2995925 -0.01285366 -0.02083587
v -0.2995925 0.01435826 -0.02083587
v -0.2995925 -0.01511767 -0.01532908
v -0.2995925 0.01662227 -0.01532908
v -0.2995925 -0.01511767 0.01277509
v -0.2995925 0.01662227 0.01277509
v -0.2995925 0.01662227 0.01277509
v -0.2995925 0.01662227 -0.01532908
v -0.2474485 0.01662229 -0.003036907
v -0.04613553 0.01662229 -0.01532906
v -0.04985663 0.01662229 -0.006054904
v -0.06198752 0.01662229 -0.003036907
v -0.04613555 0.01435827 -0.02083587
v -0.2995925 0.01435826 -0.02083587
v -0.06198653 0.00861229 -0.02459792
v -0.2474485 0.008612292 -0.0245979
v -0.2995925 0.008612292 -0.0245979
v -0.2474485 0.0007522994 -0.02626488
v -0.2995925 0.0007522994 -0.02626489
v -0.2474485 0.01662227 0.01277509
v -0.05030137 0.01100722 -0.02764201
v -0.06198653 0.008639283 -0.0286929
v -0.001758471 0.009522279 0.03047011
v -0.2474485 0.009522279 0.03047011
v -0.2474485 0.009522279 0.02031311
v -0.001758471 0.009522279 0.02031311
v -0.2474485 0.01348869 0.01277511
v -0.06198752 0.01348869 0.01277511
v -0.009975137 0.01619981 0.007622714
v -0.06198752 0.02180928 -0.00303787
v -0.01849437 0.02180928 -0.00303787
v -0.001758471 0.01531875 0.009297134
v -0.2474485 0.01348869 0.01277511
v -0.2474485 0.01662227 0.01277509
v -0.06198752 0.01348869 0.01277511
v -0.06198752 0.02749028 0.01277511
v -0.2474485 0.02749028 0.01277511
v -0.2995925 0.01662227 0.01277509
v -0.2995925 -0.01511767 0.01277509
v -0.2474485 -0.01198409 0.01277511
v -0.2474485 -0.01511767 0.01277509
v -0.06198752 -0.01198409 0.01277511
v -0.06198752 -0.02598568 0.01277511
v -0.2474485 -0.02598568 0.01277511
v -0.2474485 0.02749028 0.01277511
v -0.2474485 0.02749028 -0.003036907
v -0.06198752 0.02749028 -0.003036907
v -0.06198752 0.02749028 0.01277511
v -0.06198752 0.02180928 -0.00303787
v -0.04985663 0.02180928 -0.006055622
v -0.01849437 0.02180928 -0.00303787
v -0.01767912 0.02180928 -0.01338798
v -0.04613555 0.02180928 -0.01338823
v -0.01651056 0.01519429 -0.02437284
v -0.04613553 0.01519429 -0.02437284
v -0.05030137 0.01100722 -0.02764201
v -0.01651053 0.008639283 -0.0286929
v -0.06198653 0.008639283 -0.0286929
v -0.06198653 0.0007522994 -0.03035988
v -0.01651053 0.0007522994 -0.03035988
v -0.009975137 0.01619981 0.007622714
v -0.009975137 0.01619981 -0.01804904
v -0.001758471 0.01531875 -0.01804904
v -0.001758471 0.01531875 0.009297134
v -0.01849437 0.02180928 -0.00303787
v -0.01767912 0.02180928 -0.01338798
v -0.009975137 0.01238168 -0.0233109
v -0.001758471 0.01172089 -0.02331091
v -0.009975137 0.007423555 -0.02670491
v -0.001758471 0.006983025 -0.02670491
v -0.009975137 0.0007522994 -0.02823187
v -0.001758471 0.0007522994 -0.02823188
v -0.01651053 0.0007522994 -0.03035988
v -0.01651053 0.008639283 -0.0286929
v -0.01651056 0.01519429 -0.02437284
v -0.2474485 0.02749028 -0.003036907
v -0.2474485 0.01662229 -0.003036907
v -0.06198752 0.02180928 -0.00303787
v -0.06198752 0.02749028 -0.003036907
v -0.06198752 0.01662229 -0.003036907
v -0.04985663 0.02180928 -0.006055622
v -0.04985663 0.01662229 -0.006054904
v -0.04613555 0.02180928 -0.01338823
v -0.04613553 0.01662229 -0.01532906
v -0.04613553 0.01519429 -0.02437284
v -0.04613555 0.01435827 -0.02083587
v -0.05030137 0.01100722 -0.02764201
v -0.2474485 0.02749028 -0.003036907
v -0.2474485 0.02749028 0.01277511
v -0.2474485 0.01662227 0.01277509
v -0.2474485 0.01662229 -0.003036907
v -0.06198653 0.00861229 -0.03173789
v -0.06198653 -0.007107691 -0.03173789
v -0.06198653 0.0007522994 -0.03035988
v -0.06198653 -0.007134685 -0.0286929
v -0.06198653 0.008639283 -0.0286929
v -0.06198653 0.00861229 -0.02459792
v -0.2474485 0.008612292 -0.0245979
v -0.06198653 0.008639283 -0.0286929
v -0.2474485 0.00861229 -0.03173789
v -0.06198653 0.00861229 -0.03173789
v -0.001758471 0.0007522994 -0.02823188
v -0.001758471 0.009522279 0.02031311
v -0.001758471 0.006983025 -0.02670491
v -0.001758471 0.01172089 -0.02331091
v -0.001758471 0.01531875 -0.01804904
v -0.001758471 0.01531875 0.009297134
v -0.001758471 -0.00801768 0.02031311
v -0.001758471 -0.005478426 -0.02670491
v -0.001758471 -0.01021629 -0.02331091
v -0.001758471 -0.01381416 -0.01804904
v -0.001758471 -0.01381416 0.009297134
v -0.001758471 0.009522279 0.03047011
v -0.001758471 -0.00801768 0.03047011
v -0.06198752 0.02180928 -0.00303787
v -0.06198752 0.01348869 0.01277511
v -0.06198752 0.02749028 0.01277511
v -0.06198752 0.02749028 -0.003036907
v -0.2995925 -0.01511767 0.01277509
v -0.2474485 -0.01511769 -0.003036907
v -0.2995925 -0.01511767 -0.01532908
v -0.04613553 -0.01511769 -0.01532906
v -0.04985663 -0.01511769 -0.006054904
v -0.06198752 -0.01511769 -0.003036907
v -0.04613555 -0.01285367 -0.02083587
v -0.2995925 -0.01285366 -0.02083587
v -0.06198653 -0.007107691 -0.02459792
v -0.2474485 -0.007107693 -0.0245979
v -0.2995925 -0.007107693 -0.0245979
v -0.2474485 0.0007522994 -0.02626488
v -0.2995925 0.0007522994 -0.02626489
v -0.2474485 -0.01511767 0.01277509
v -0.05030137 -0.009502619 -0.02764201
v -0.06198653 -0.007134685 -0.0286929
v -0.001758471 -0.00801768 0.03047011
v -0.001758471 -0.00801768 0.02031311
v -0.2474485 -0.00801768 0.02031311
v -0.2474485 -0.00801768 0.03047011
v -0.2474485 -0.01198409 0.01277511
v -0.06198752 -0.01198409 0.01277511
v -0.009975137 -0.01469522 0.007622714
v -0.06198752 -0.02030469 -0.00303787
v -0.01849437 -0.02030469 -0.00303787
v -0.001758471 -0.01381416 0.009297134
v -0.2474485 0.009522279 0.03047011
v -0.2474485 -0.00801768 0.03047011
v -0.2474485 -0.00801768 0.02031311
v -0.2474485 0.009522279 0.02031311
v -0.2474485 0.01348869 0.01277511
v -0.2474485 -0.01198409 0.01277511
v -0.2474485 -0.02598568 0.01277511
v -0.06198752 -0.02598568 0.01277511
v -0.06198752 -0.02598568 -0.003036907
v -0.2474485 -0.02598568 -0.003036907
v -0.06198752 -0.02030469 -0.00303787
v -0.01849437 -0.02030469 -0.00303787
v -0.04985663 -0.02030469 -0.006055622
v -0.01767912 -0.02030469 -0.01338798
v -0.04613555 -0.02030469 -0.01338823
v -0.01651056 -0.01368969 -0.02437284
v -0.04613553 -0.01368969 -0.02437284
v -0.05030137 -0.009502619 -0.02764201
v -0.01651053 -0.007134685 -0.0286929
v -0.06198653 -0.007134685 -0.0286929
v -0.06198653 0.0007522994 -0.03035988
v -0.01651053 0.0007522994 -0.03035988
v -0.009975137 -0.01469522 0.007622714
v -0.001758471 -0.01381416 0.009297134
v -0.001758471 -0.01381416 -0.01804904
v -0.009975137 -0.01469522 -0.01804904
v -0.01849437 -0.02030469 -0.00303787
v -0.01767912 -0.02030469 -0.01338798
v -0.009975137 -0.01087708 -0.0233109
v -0.001758471 -0.01021629 -0.02331091
v -0.009975137 -0.005918956 -0.02670491
v -0.001758471 -0.005478426 -0.02670491
v -0.009975137 0.0007522994 -0.02823187
v -0.001758471 0.0007522994 -0.02823188
v -0.01651053 0.0007522994 -0.03035988
v -0.01651053 -0.007134685 -0.0286929
v -0.01651056 -0.01368969 -0.02437284
v -0.001758471 -0.00801768 0.03047011
v -0.2474485 -0.00801768 0.03047011
v -0.2474485 0.009522279 0.03047011
v -0.001758471 0.009522279 0.03047011
v -0.2474485 -0.02598568 -0.003036907
v -0.06198752 -0.02030469 -0.00303787
v -0.2474485 -0.01511769 -0.003036907
v -0.06198752 -0.02598568 -0.003036907
v -0.06198752 -0.01511769 -0.003036907
v -0.04985663 -0.02030469 -0.006055622
v -0.04985663 -0.01511769 -0.006054904
v -0.04613555 -0.02030469 -0.01338823
v -0.04613553 -0.01511769 -0.01532906
v -0.04613553 -0.01368969 -0.02437284
v -0.04613555 -0.01285367 -0.02083587
v -0.05030137 -0.009502619 -0.02764201
v -0.2474485 -0.01511767 0.01277509
v -0.2474485 -0.02598568 0.01277511
v -0.2474485 -0.02598568 -0.003036907
v -0.2474485 -0.01511769 -0.003036907
v -0.06198653 -0.007107691 -0.02459792
v -0.06198653 -0.007134685 -0.0286929
v -0.2474485 -0.007107693 -0.0245979
v -0.2474485 -0.007107691 -0.03173789
v -0.06198653 -0.007107691 -0.03173789
v -0.06198752 -0.02030469 -0.00303787
v -0.06198752 -0.02598568 -0.003036907
v -0.06198752 -0.02598568 0.01277511
v -0.06198752 -0.01198409 0.01277511
v -0.2474485 0.0007522994 -0.02626488
v -0.2474485 -0.007107693 -0.0245979
v -0.2474485 -0.007107691 -0.03173789
v -0.2474485 0.00861229 -0.03173789
v -0.2474485 0.008612292 -0.0245979
vt 0.7651525 0.8163505
vt 0.7651525 0.7468039
vt 0.01259062 0.7468039
vt 0.01259062 0.8163505
vt 0.2756874 0.9090272
vt 0.2824517 0.9438006
vt 0.2824517 0.8742539
vt 0.2977173 0.8488333
vt 0.2977173 0.9692211
vt 0.3200625 0.8388169
vt 0.3200625 0.9792373
vt 0.4341029 0.8388169
vt 0.4341029 0.9792373
vt 0.9921589 0.342736
vt 0.9921589 0.4670714
vt 0.7903654 0.4126896
vt 0.01130025 0.4670714
vt 0.02570076 0.4260415
vt 0.07264634 0.4126896
vt 0.01130071 0.4934125
vt 0.9921589 0.4934125
vt 0.0726427 0.523797
vt 0.7903654 0.523797
vt 0.9921585 0.523797
vt 0.7903654 0.5593437
vt 0.9921585 0.5593437
vt 0.7903656 0.342736
vt 0.02516346 0.5282689
vt 0.06997734 0.5416557
vt 0.9937733 0.007486545
vt 0.009912618 0.007486545
vt 0.009912618 0.05242218
vt 0.9937733 0.05242218
vt 0.009912298 0.09010597
vt 0.7525872 0.09010597
vt 0.9608697 0.1158636
vt 0.7525872 0.1691577
vt 0.9267547 0.1691577
vt 0.9937733 0.1074929
vt 0.7329676 0.1999389
vt 0.7329676 0.1860756
vt 0.009592196 0.1999389
vt 0.009592196 0.1379946
vt 0.7329676 0.1379946
vt 0.936351 0.1860756
vt 0.936351 0.3264959
vt 0.7329676 0.3126327
vt 0.7329676 0.3264959
vt 0.009592196 0.3126327
vt 0.009592196 0.374577
vt 0.7329676 0.374577
vt 0.01036862 0.2202032
vt 0.01036862 0.2901568
vt 0.7132375 0.2901568
vt 0.7132375 0.2202032
vt 0.9805835 0.7499267
vt 0.9313593 0.7632775
vt 0.8040984 0.7499267
vt 0.8007904 0.7957166
vt 0.9162601 0.7957178
vt 0.7960498 0.8524459
vt 0.9162588 0.8524463
vt 0.9331825 0.8758731
vt 0.7960499 0.887179
vt 0.9805754 0.887179
vt 0.9805764 0.922842
vt 0.7960491 0.922842
vt 0.7638624 0.9270056
vt 0.659679 0.9270071
vt 0.6596976 0.9635637
vt 0.7706576 0.9635637
vt 0.7206165 0.881887
vt 0.6825691 0.8875153
vt 0.6333895 0.9288005
vt 0.6338817 0.9652644
vt 0.6090754 0.9309613
vt 0.6103107 0.9673388
vt 0.5814146 0.9336597
vt 0.5843841 0.9698654
vt 0.5770144 0.9036333
vt 0.6079414 0.9003366
vt 0.6362832 0.8972151
vt 0.9075953 0.6374003
vt 0.9075952 0.5893193
vt 0.1550335 0.6122671
vt 0.155037 0.6374003
vt 0.1550406 0.5893193
vt 0.1043054 0.6122238
vt 0.1043193 0.5892929
vt 0.07093047 0.6123332
vt 0.06374241 0.5891402
vt 0.0272686 0.5815391
vt 0.04171664 0.5783474
vt 0.01331159 0.5558496
vt 0.9853015 0.8555475
vt 0.9853015 0.7855938
vt 0.9412014 0.7855939
vt 0.9412014 0.8555475
vt 0.2099585 0.9746491
vt 0.2737467 0.9746491
vt 0.2418526 0.9685528
vt 0.2738563 0.9611778
vt 0.209849 0.9611778
vt 0.7713041 0.5394902
vt 0.08800025 0.5394901
vt 0.7713041 0.5576072
vt 0.0880004 0.5710774
vt 0.7713041 0.5710774
vt 0.01351998 0.9033427
vt 0.2105044 0.8645434
vt 0.01971612 0.8757774
vt 0.03348825 0.8548166
vt 0.05483947 0.8388994
vt 0.1658041 0.8388994
vt 0.2105044 0.9421418
vt 0.01971612 0.9309079
vt 0.03348825 0.9518687
vt 0.05483947 0.967786
vt 0.1658041 0.967786
vt 0.2517191 0.8645434
vt 0.2517191 0.9421418
vt 0.9242576 0.599858
vt 0.9884231 0.636669
vt 0.9884231 0.5747249
vt 0.9242616 0.5747249
vt 0.9921589 0.3427359
vt 0.7903654 0.4126895
vt 0.9921589 0.4670711
vt 0.01130025 0.4670711
vt 0.02570076 0.4260415
vt 0.07264634 0.4126895
vt 0.01130025 0.4934123
vt 0.9921585 0.4934123
vt 0.07264224 0.5237969
vt 0.7903654 0.5237969
vt 0.9921585 0.5237969
vt 0.7903654 0.5593437
vt 0.9921585 0.5593438
vt 0.7903654 0.3427359
vt 0.02516323 0.5282688
vt 0.06997688 0.5416559
vt 0.9937733 0.00748661
vt 0.9937733 0.05242218
vt 0.009912618 0.05242218
vt 0.00991278 0.00748661
vt 0.009912298 0.09010591
vt 0.7525874 0.09010591
vt 0.9608698 0.1158636
vt 0.7525874 0.1691576
vt 0.9267549 0.1691576
vt 0.9937733 0.1074929
vt 0.5477148 0.9051935
vt 0.4765416 0.9051935
vt 0.4765416 0.860258
vt 0.5477148 0.860258
vt 0.5638096 0.8269092
vt 0.4604469 0.8269092
vt 0.01036877 0.2202032
vt 0.7132375 0.2202032
vt 0.7132375 0.2901568
vt 0.01036877 0.2901568
vt 0.9805837 0.7499267
vt 0.8040986 0.7499267
vt 0.9313593 0.7632779
vt 0.8007904 0.795717
vt 0.9162601 0.7957177
vt 0.7960498 0.8524462
vt 0.9162588 0.8524463
vt 0.9331825 0.8758729
vt 0.79605 0.8871791
vt 0.9805754 0.887179
vt 0.9805765 0.9228421
vt 0.7960491 0.9228421
vt 0.7638624 0.9270057
vt 0.7706576 0.9635637
vt 0.6596976 0.9635637
vt 0.659679 0.9270071
vt 0.7206169 0.881887
vt 0.6825693 0.8875155
vt 0.6333894 0.9288002
vt 0.6338814 0.9652643
vt 0.6090752 0.9309611
vt 0.6103105 0.9673387
vt 0.5814144 0.9336593
vt 0.5843837 0.9698653
vt 0.5770141 0.9036329
vt 0.6079414 0.9003363
vt 0.6362833 0.8972147
vt 0.01023833 0.7277229
vt 0.9922931 0.7277229
vt 0.9922931 0.6501246
vt 0.01023833 0.6501246
vt 0.9075953 0.6374005
vt 0.1550335 0.6122674
vt 0.907595 0.5893196
vt 0.1550369 0.6374005
vt 0.1550406 0.5893196
vt 0.1043052 0.6122242
vt 0.1043193 0.5892929
vt 0.0709303 0.6123334
vt 0.06374241 0.5891404
vt 0.02726844 0.5815391
vt 0.04171647 0.5783476
vt 0.01331174 0.5558493
vt 0.9412014 0.7855939
vt 0.9853015 0.7855939
vt 0.9853015 0.8555475
vt 0.9412016 0.8555475
vt 0.7713041 0.5394898
vt 0.7713041 0.5576063
vt 0.08800025 0.5394897
vt 0.0880004 0.5710777
vt 0.7713041 0.5710777
vt 0.9242578 0.599858
vt 0.9242616 0.5747249
vt 0.9884231 0.5747249
vt 0.9884231 0.636669
vt 0.5112208 0.9467226
vt 0.4793267 0.9393476
vt 0.4793267 0.9709356
vt 0.5431147 0.9709356
vt 0.5431147 0.9393476
vn 0 0 -1
vn 0 0 -1
vn 0 0 -1
vn 0 0 -1
vn -1 0 0
vn -1 0 0
vn -1 0 0
vn -1 0 0
vn -1 0 0
vn -1 0 0
vn -1 0 0
vn -1 0 0
vn -1 0 0
vn -2.600705E-07 1 1.978356E-07
vn -1.606981E-07 0.9810413 -0.1937987
vn 0 1 -3.661119E-07
vn 0 0.9753851 -0.2205086
vn 0 1 0
vn 0 1 0
vn -0.0739446 0.8954679 -0.4389413
vn 0 0.7708728 -0.6369892
vn -0.07274803 0.8917508 -0.446641
vn -4.086207E-05 0.6557603 -0.7549691
vn 0 0.384198 -0.9232507
vn 0 0 -1
vn 0 0 -1
vn 0 1 1.055483E-06
vn -0.2560781 0.9343244 -0.2479148
vn -0.06418505 0.9979372 0.001306543
vn 0 1 0
vn 0 1 0
vn 0 0.9708153 0.2398286
vn 0 0.9708153 0.2398283
vn 0 0.8849648 0.4656579
vn 0 0.8849648 0.4656579
vn 0 0.8849648 0.4656578
vn 0 0.8849649 0.4656578
vn 0 0.8849649 0.4656578
vn 0 0.8849648 0.4656579
vn 0 6.086793E-06 1
vn 0 2.165862E-06 1
vn -1.017374E-07 0 1
vn 0 0 1
vn 0 -1.755012E-06 1
vn -3.060845E-07 2.325872E-07 1
vn -3.060845E-07 -2.325872E-07 1
vn -1.441576E-07 -2.92711E-06 1
vn 0 -2.165862E-06 1
vn -1.017374E-07 0 1
vn 0 0 1
vn 0 1.755012E-06 1
vn 0 1 0
vn 0 1 0
vn 0 1 0
vn 0 1 0
vn 0 1 0
vn 0 1 0
vn 0 1 0
vn 1.204455E-06 0.9593952 -0.2820653
vn 9.938606E-07 0.9725373 -0.2327472
vn 0.005986683 0.7194885 -0.6944785
vn 9.23952E-07 0.7267144 -0.6869397
vn 0.0007635308 0.4577629 -0.889074
vn 0.006096167 0.3815643 -0.9243221
vn 0 0.2315847 -0.9728147
vn 0 0 -1
vn 0 0 -1
vn 0.2512721 0.9679083 0.003956507
vn 0.2821405 0.9030287 -0.3239381
vn 0.09570341 0.9469441 -0.3068189
vn 0.1066172 0.9943001 0
vn 0.5655282 0.8246296 0.01279906
vn 0.5139753 0.8493947 -0.1198251
vn 0.2244885 0.6768755 -0.701031
vn 0.05764088 0.7003725 -0.7114462
vn 0.1832621 0.3938754 -0.9007092
vn 0.02219992 0.4037552 -0.9145976
vn 0.1680633 0 -0.9857761
vn 0.006344892 0 -0.9999799
vn 0.3179113 0 -0.9481205
vn 0.3329907 0.3744593 -0.8653886
vn 0.3595794 0.6865 -0.6319971
vn -5.09236E-06 3.305199E-06 -1
vn -5.101156E-06 -3.305535E-06 -1
vn -0.08100837 -5.817557E-05 -0.9967134
vn 0 0.0001695498 -1
vn -0.1216097 -0.0001727437 -0.992578
vn -0.6405571 0.04234054 -0.7667424
vn -0.6405194 0.04233623 -0.7667741
vn -0.9502142 0.05727973 -0.3062874
vn -0.9890546 0.02712357 -0.1450357
vn -0.8718868 0.476576 0.1126445
vn -0.9855325 0.1649415 0.03898592
vn -0.7570361 0.6358529 0.1502915
vn -1 -2.63252E-06 -6.031344E-07
vn -1 -2.63252E-06 -6.031344E-07
vn -1 -2.63252E-06 -6.031344E-07
vn -1 -2.63252E-06 -6.031345E-07
vn 1 0 0
vn 1 0 0
vn 1 0 0
vn 1 0 0
vn 1 0 0
vn -0.07274803 0.8917508 -0.446641
vn -4.086207E-05 0.6557603 -0.7549691
vn -0.06418505 0.9979372 0.001306543
vn -0.0001440222 1 -9.298218E-05
vn 0 0.9999608 -0.008864635
vn 1 0 0
vn 1 0 0
vn 1 0 0
vn 1 0 0
vn 1 0 0
vn 1 0 0
vn 1 0 0
vn 1 0 0
vn 1 0 0
vn 1 0 0
vn 1 0 0
vn 1 0 0
vn 1 0 0
vn 1 0 0
vn 1 0 0
vn 1 0 0
vn 1 0 0
vn -2.600705E-07 -1 1.978356E-07
vn 0 -1 -3.661119E-07
vn -1.606981E-07 -0.9810413 -0.1937987
vn 0 -0.9753851 -0.2205086
vn 0 -1 0
vn 0 -1 0
vn -0.0739446 -0.8954679 -0.4389413
vn 0 -0.7708728 -0.6369892
vn -0.07274804 -0.8917509 -0.446641
vn -4.086207E-05 -0.6557603 -0.7549691
vn 0 -0.384198 -0.9232507
vn 0 0 -1
vn 0 0 -1
vn 0 -1 1.055483E-06
vn -0.2560781 -0.9343244 -0.2479148
vn -0.06418505 -0.9979372 0.001306543
vn 0 -1 0
vn 0 -0.9708153 0.2398283
vn 0 -0.9708153 0.2398286
vn 0 -1 0
vn 0 -0.8849648 0.4656579
vn 0 -0.8849648 0.4656579
vn 0 -0.8849648 0.4656578
vn 0 -0.8849649 0.4656578
vn 0 -0.8849649 0.4656578
vn 0 -0.8849648 0.4656579
vn -1 0 1.877867E-06
vn -1 0 1.877867E-06
vn -1 0 2.247667E-06
vn -1 0 2.247667E-06
vn -1 0 2.53031E-06
vn -1 0 2.53031E-06
vn 0 -1 0
vn 0 -1 0
vn 0 -1 0
vn 0 -1 0
vn 0 -1 0
vn 0 -1 0
vn 0 -1 0
vn 1.203361E-06 -0.9593952 -0.2820653
vn 9.929579E-07 -0.9725373 -0.2327472
vn 0.005986682 -0.7194885 -0.6944786
vn 9.231129E-07 -0.7267144 -0.6869397
vn 0.0007635308 -0.4577629 -0.889074
vn 0.006096167 -0.3815643 -0.9243221
vn 0 -0.2315847 -0.9728147
vn 0 0 -1
vn 0 0 -1
vn 0.2512721 -0.9679083 0.003956507
vn 0.1066172 -0.9943001 0
vn 0.09570341 -0.9469441 -0.306819
vn 0.2821405 -0.9030287 -0.3239381
vn 0.5655282 -0.8246296 0.01279906
vn 0.5139753 -0.8493947 -0.1198251
vn 0.2244885 -0.6768757 -0.7010309
vn 0.05764089 -0.7003725 -0.7114462
vn 0.1832621 -0.3938754 -0.9007092
vn 0.02219992 -0.4037552 -0.9145976
vn 0.1680633 0 -0.9857761
vn 0.006344892 0 -0.9999799
vn 0.3179113 0 -0.9481205
vn 0.3329907 -0.3744593 -0.8653886
vn 0.3595794 -0.6865 -0.6319971
vn 0 0 1
vn 0 0 1
vn 0 0 1
vn 0 0 1
vn -5.09236E-06 -3.305199E-06 -1
vn -0.08100837 5.817557E-05 -0.9967134
vn -5.101156E-06 3.305535E-06 -1
vn 0 -0.0001695498 -1
vn -0.1216097 0.0001727437 -0.992578
vn -0.6405571 -0.04234053 -0.7667424
vn -0.6405194 -0.04233623 -0.7667741
vn -0.9502142 -0.05727973 -0.3062874
vn -0.9890546 -0.02712357 -0.1450358
vn -0.8718868 -0.476576 0.1126445
vn -0.9855325 -0.1649415 0.03898592
vn -0.7570361 -0.6358529 0.1502915
vn -1 2.63252E-06 -6.031345E-07
vn -1 2.63252E-06 -6.031345E-07
vn -1 2.63252E-06 -6.031345E-07
vn -1 2.63252E-06 -6.031345E-07
vn -0.07274804 -0.8917509 -0.446641
vn -0.06418505 -0.9979372 0.001306543
vn -4.086207E-05 -0.6557603 -0.7549691
vn -0.0001440222 -1 -9.298218E-05
vn 0 -0.9999608 -0.008864635
vn 1 0 0
vn 1 0 0
vn 1 0 0
vn 1 0 0
vn -1 0 -6.222805E-06
vn -1 -1.13311E-06 -5.342721E-06
vn -1 -6.94345E-07 -5.972847E-06
vn -1 6.94345E-07 -5.972847E-06
vn -1 1.13311E-06 -5.342721E-06
g handguard_sa58_ds_arms_picatinny_full_lenght_quad_rail_LOD1_0
f 3/3/3 2/2/2 1/1/1
f 4/4/4 3/3/3 1/1/1
f 7/7/7 6/6/6 5/5/5
f 6/6/6 7/7/7 8/8/8
f 9/9/9 6/6/6 8/8/8
f 9/9/9 8/8/8 10/10/10
f 11/11/11 9/9/9 10/10/10
f 11/11/11 10/10/10 12/12/12
f 13/13/13 11/11/11 12/12/12
f 16/16/16 15/15/15 14/14/14
f 15/15/15 16/16/16 17/17/17
f 17/17/17 16/16/16 18/18/18
f 18/18/18 16/16/16 19/19/19
f 17/17/17 20/20/20 15/15/15
f 20/20/20 21/21/21 15/15/15
f 20/20/20 22/22/22 21/21/21
f 22/22/22 23/23/23 21/21/21
f 23/23/23 24/24/24 21/21/21
f 23/23/23 25/25/25 24/24/24
f 25/25/25 26/26/26 24/24/24
f 27/27/27 16/16/16 14/14/14
f 22/22/22 20/20/20 28/28/28
f 29/29/29 22/22/22 28/28/28
f 32/32/32 31/31/31 30/30/30
f 33/33/33 32/32/32 30/30/30
f 34/34/34 32/32/32 33/33/33
f 35/35/35 34/34/34 33/33/33
f 33/33/33 36/36/36 35/35/35
f 35/35/35 36/36/36 37/37/37
f 36/36/36 38/38/38 37/37/37
f 39/39/39 36/36/36 33/33/33
f 42/42/42 41/41/41 40/40/40
f 43/43/43 41/41/41 42/42/42
f 44/44/44 41/41/41 43/43/43
f 41/41/41 45/45/45 40/40/40
f 40/40/40 45/45/45 46/46/46
f 47/47/47 40/40/40 46/46/46
f 48/48/48 47/47/47 46/46/46
f 48/48/48 49/49/49 47/47/47
f 48/48/48 50/50/50 49/49/49
f 48/48/48 51/51/51 50/50/50
f 54/54/54 53/53/53 52/52/52
f 55/55/55 54/54/54 52/52/52
f 58/58/58 57/57/57 56/56/56
f 59/59/59 57/57/57 58/58/58
f 60/60/60 57/57/57 59/59/59
f 59/59/59 61/61/61 60/60/60
f 61/61/61 62/62/62 60/60/60
f 62/62/62 61/61/61 63/63/63
f 63/63/63 61/61/61 64/64/64
f 65/65/65 63/63/63 64/64/64
f 65/65/65 64/64/64 66/66/66
f 64/64/64 67/67/67 66/66/66
f 70/70/70 69/69/69 68/68/68
f 71/71/71 70/70/70 68/68/68
f 72/72/72 68/68/68 69/69/69
f 73/73/73 72/72/72 69/69/69
f 74/74/74 69/69/69 70/70/70
f 75/75/75 74/74/74 70/70/70
f 76/76/76 74/74/74 75/75/75
f 77/77/77 76/76/76 75/75/75
f 78/78/78 76/76/76 77/77/77
f 79/79/79 78/78/78 77/77/77
f 78/78/78 80/80/80 76/76/76
f 80/80/80 81/81/81 76/76/76
f 76/76/76 81/81/81 74/74/74
f 81/81/81 82/82/82 74/74/74
f 82/82/82 73/73/73 69/69/69
f 74/74/74 82/82/82 69/69/69
f 85/85/85 84/84/84 83/83/83
f 86/86/86 85/85/85 83/83/83
f 87/87/87 84/84/84 85/85/85
f 85/85/85 88/88/88 87/87/87
f 88/88/88 89/89/89 87/87/87
f 88/88/88 90/90/90 89/89/89
f 90/90/90 91/91/91 89/89/89
f 90/90/90 92/92/92 91/91/91
f 92/92/92 93/93/93 91/91/91
f 93/93/93 92/92/92 94/94/94
f 97/97/97 96/96/96 95/95/95
f 98/98/98 97/97/97 95/95/95
f 101/101/101 100/100/100 99/99/99
f 102/102/102 100/100/100 101/101/101
f 103/103/103 101/101/101 99/99/99
f 106/106/106 105/105/105 104/104/104
f 107/107/107 105/105/105 106/106/106
f 108/108/108 107/107/107 106/106/106
f 111/111/111 110/110/110 109/109/109
f 112/112/112 110/110/110 111/111/111
f 113/113/113 110/110/110 112/112/112
f 114/114/114 110/110/110 113/113/113
f 110/110/110 115/115/115 109/109/109
f 115/115/115 116/116/116 109/109/109
f 115/115/115 117/117/117 116/116/116
f 115/115/115 118/118/118 117/117/117
f 115/115/115 119/119/119 118/118/118
f 115/115/115 110/110/110 120/120/120
f 121/121/121 115/115/115 120/120/120
f 124/124/124 123/123/123 122/122/122
f 125/125/125 124/124/124 122/122/122
f 128/128/128 127/127/127 126/126/126
f 127/127/127 128/128/128 129/129/129
f 127/127/127 129/129/129 130/130/130
f 127/127/127 130/130/130 131/131/131
f 129/129/129 128/128/128 132/132/132
f 128/128/128 133/133/133 132/132/132
f 132/132/132 133/133/133 134/134/134
f 133/133/133 135/135/135 134/134/134
f 136/136/136 135/135/135 133/133/133
f 137/137/137 135/135/135 136/136/136
f 138/138/138 137/137/137 136/136/136
f 127/127/127 139/139/139 126/126/126
f 132/132/132 134/134/134 140/140/140
f 134/134/134 141/141/141 140/140/140
f 144/144/144 143/143/143 142/142/142
f 145/145/145 144/144/144 142/142/142
f 144/144/144 146/146/146 143/143/143
f 146/146/146 147/147/147 143/143/143
f 148/148/148 143/143/143 147/147/147
f 147/147/147 149/149/149 148/148/148
f 149/149/149 150/150/150 148/148/148
f 148/148/148 151/151/151 143/143/143
f 154/154/154 153/153/153 152/152/152
f 155/155/155 154/154/154 152/152/152
f 154/154/154 155/155/155 156/156/156
f 157/157/157 154/154/154 156/156/156
f 160/160/160 159/159/159 158/158/158
f 161/161/161 160/160/160 158/158/158
f 164/164/164 163/163/163 162/162/162
f 164/164/164 165/165/165 163/163/163
f 164/164/164 166/166/166 165/165/165
f 167/167/167 165/165/165 166/166/166
f 168/168/168 167/167/167 166/166/166
f 167/167/167 168/168/168 169/169/169
f 167/167/167 169/169/169 170/170/170
f 169/169/169 171/171/171 170/170/170
f 170/170/170 171/171/171 172/172/172
f 173/173/173 170/170/170 172/172/172
f 176/176/176 175/175/175 174/174/174
f 177/177/177 176/176/176 174/174/174
f 177/177/177 174/174/174 178/178/178
f 179/179/179 177/177/177 178/178/178
f 176/176/176 177/177/177 180/180/180
f 181/181/181 176/176/176 180/180/180
f 180/180/180 182/182/182 181/181/181
f 182/182/182 183/183/183 181/181/181
f 182/182/182 184/184/184 183/183/183
f 184/184/184 185/185/185 183/183/183
f 186/186/186 184/184/184 182/182/182
f 187/187/187 186/186/186 182/182/182
f 187/187/187 182/182/182 180/180/180
f 188/188/188 187/187/187 180/180/180
f 179/179/179 188/188/188 177/177/177
f 188/188/188 180/180/180 177/177/177
f 191/191/191 190/190/190 189/189/189
f 192/192/192 191/191/191 189/189/189
f 195/195/195 194/194/194 193/193/193
f 194/194/194 196/196/196 193/193/193
f 195/195/195 197/197/197 194/194/194
f 198/198/198 194/194/194 197/197/197
f 199/199/199 198/198/198 197/197/197
f 200/200/200 198/198/198 199/199/199
f 201/201/201 200/200/200 199/199/199
f 200/200/200 201/201/201 202/202/202
f 201/201/201 203/203/203 202/202/202
f 202/202/202 203/203/203 204/204/204
f 207/207/207 206/206/206 205/205/205
f 208/208/208 207/207/207 205/205/205
f 211/211/211 210/210/210 209/209/209
f 211/211/211 212/212/212 210/210/210
f 212/212/212 213/213/213 210/210/210
f 216/216/216 215/215/215 214/214/214
f 217/217/217 216/216/216 214/214/214
f 220/220/220 219/219/219 218/218/218
f 221/221/221 220/220/220 218/218/218
f 222/222/222 221/221/221 218/218/218
