g handguard_ak_magpul_zhukov_u_LOD1
v 0.01479357 -0.05054526 0.0230497
v 0.02069313 -0.05054526 0.005391915
v 0.01703658 -0.1577564 0.005647864
v 0.01303812 -0.1577564 0.02156449
v 0.008086034 -0.1577564 0.02554352
v 0.007912034 -0.05054526 0.0284184
v 1.978397E-05 -0.1577564 0.02803167
v 1.978397E-05 -0.05054526 0.03090654
v 0.008086034 -0.1577564 0.02554352
v 1.978397E-05 -0.1577564 0.005647864
v 1.978397E-05 -0.1577564 0.02803167
v 0.01303812 -0.1577564 0.02156449
v 0.01703658 -0.1577564 0.005647864
v 0.007912034 -0.05054526 0.0284184
v 1.978397E-05 -0.05054526 0.005391915
v 0.01479357 -0.05054526 0.0230497
v 0.02069313 -0.05054526 0.005391915
v 1.978397E-05 -0.05054526 0.03090654
v 0.0226617 -0.1681011 -0.0283848
v 0.0226617 -0.2556303 -0.0283848
v 0.0226617 -0.1694801 0.008011535
v 0.0226617 -0.2632186 -0.005653155
v 0.0226617 -0.2632186 -0.0283848
v 0.0226617 -0.2499649 0.01831202
v 0.0226617 -0.174412 0.01831202
v 0.0226617 -0.05584987 0.008011535
v 0.0226617 -0.01877841 -0.0283848
v 0.0226617 -0.04706129 0.01321057
v 0.0226617 -0.007329693 0.01321057
v 0.0226617 0.003160801 -0.005003885
v 0.02076063 0.003160801 -0.02490428
v 0.0196178 -0.01401106 -0.0409263
v 0.01847497 0.003160801 -0.04169638
v 0.008836433 -0.01301707 -0.04486953
v 0.008836433 0.003160801 -0.04486953
v 1.978397E-05 0.003160801 -0.04486953
v 1.978397E-05 -0.01301707 -0.04486953
v 0.009105665 -0.1681011 -0.03847773
v 0.009105665 -0.2556303 -0.03847773
v 0.0226617 -0.2556303 -0.0283848
v 1.978397E-05 -0.2556303 -0.03847773
v 0.0226617 -0.1681011 -0.0283848
v 0.0226617 -0.01877841 -0.0283848
v 0.009105665 -0.0161282 -0.03847773
v 1.978397E-05 -0.0161282 -0.03847773
v 1.978397E-05 -0.1681011 -0.03847773
v 0.0226617 -0.2632186 -0.0283848
v 1.978397E-05 -0.2632186 -0.04444363
v 1.978397E-05 -0.2632186 -0.005653155
v 0.006916374 -0.2632186 -0.04444363
v 0.0226617 -0.2632186 -0.005653155
v 1.978397E-05 -0.2499649 0.01831202
v 0.0226617 -0.2499649 0.01831202
v 0.01580802 -0.2632186 -0.0417949
v 0.011309 -0.2632186 -0.04441904
v 0.011309 -0.2556303 -0.04441904
v 0.01580802 -0.2556303 -0.0417949
v 0.009105665 -0.2556303 -0.03847773
v 0.0226617 -0.2556303 -0.0283848
v 0.006916374 -0.2556303 -0.04444363
v 1.978397E-05 -0.2556303 -0.03847773
v 1.978397E-05 -0.2556303 -0.04444363
v 1.978397E-05 -0.174412 0.01831202
v 1.978397E-05 -0.1694801 0.008011535
v 0.0226617 -0.1694801 0.008011535
v 0.0226617 -0.174412 0.01831202
v 1.978397E-05 -0.0161282 -0.03847773
v 0.009105665 -0.0161282 -0.03847773
v 0.008836433 -0.01301707 -0.04486953
v 1.978397E-05 -0.01301707 -0.04486953
v 0.0196178 -0.01401106 -0.0409263
v 0.0226617 -0.01877841 -0.0283848
v 0.0226617 0.003160801 -0.005003885
v 1.978397E-05 0.003160801 -0.005003885
v 0.02076063 0.003160801 -0.02490428
v 1.978397E-05 0.003160801 -0.04486953
v 0.0226617 -0.007329693 0.01321057
v 0.008836433 0.003160801 -0.04486953
v 0.01847497 0.003160801 -0.04169638
v 1.978397E-05 -0.007329693 0.01321057
v 1.978397E-05 -0.174412 0.01831202
v 0.0226617 -0.174412 0.01831202
v 0.0226617 -0.2499649 0.01831202
v 1.978397E-05 -0.2499649 0.01831202
v 0.0226617 -0.007329693 0.01321057
v 0.0226617 -0.04706129 0.01321057
v 1.978397E-05 -0.04706129 0.01321057
v 1.978397E-05 -0.007329693 0.01321057
v 0.0226617 -0.04706129 0.01321057
v 0.0226617 -0.05584987 0.008011535
v 1.978397E-05 -0.05584987 0.008011535
v 1.978397E-05 -0.04706129 0.01321057
v 0.0226617 -0.05584987 0.008011535
v 0.0226617 -0.1694801 0.008011535
v 1.978397E-05 -0.1694801 0.008011535
v 1.978397E-05 -0.05584987 0.008011535
v 1.978397E-05 -0.2632186 -0.04444363
v 0.006916374 -0.2632186 -0.04444363
v 0.006916374 -0.2556303 -0.04444363
v 1.978397E-05 -0.2556303 -0.04444363
v 0.011309 -0.2632186 -0.04441904
v 0.011309 -0.2556303 -0.04441904
v 0.01580802 -0.2632186 -0.0417949
v 0.0226617 -0.2632186 -0.0283848
v 0.0226617 -0.2556303 -0.0283848
v 0.01580802 -0.2556303 -0.0417949
v 0.01580802 -0.2632186 -0.0417949
v 0.01580802 -0.2556303 -0.0417949
v 0.011309 -0.2556303 -0.04441904
v 0.011309 -0.2632186 -0.04441904
v -0.01475401 -0.05054526 0.0230497
v -0.01699702 -0.1577564 0.005647864
v -0.02065356 -0.05054526 0.005391915
v -0.01299855 -0.1577564 0.02156449
v -0.008046466 -0.1577564 0.02554352
v -0.007872466 -0.05054526 0.0284184
v 1.978397E-05 -0.1577564 0.02803167
v 1.978397E-05 -0.05054526 0.03090654
v -0.008046466 -0.1577564 0.02554352
v 1.978397E-05 -0.1577564 0.02803167
v 1.978397E-05 -0.1577564 0.005647864
v -0.01299855 -0.1577564 0.02156449
v -0.01699702 -0.1577564 0.005647864
v -0.007872466 -0.05054526 0.0284184
v -0.01475401 -0.05054526 0.0230497
v 1.978397E-05 -0.05054526 0.005391915
v -0.02065356 -0.05054526 0.005391915
v 1.978397E-05 -0.05054526 0.03090654
v -0.02262214 -0.1681011 -0.0283848
v -0.02262214 -0.1694801 0.008011535
v -0.02262214 -0.2556303 -0.0283848
v -0.02262214 -0.2632186 -0.005653155
v -0.02262214 -0.2632186 -0.0283848
v -0.02262214 -0.2499649 0.01831202
v -0.02262214 -0.174412 0.01831202
v -0.02262214 -0.05584987 0.008011535
v -0.02262214 -0.01877841 -0.0283848
v -0.02262214 -0.04706129 0.01321057
v -0.02262214 -0.007329693 0.01321057
v -0.02262214 0.003160801 -0.005003885
v -0.02072106 0.003160801 -0.02490428
v -0.01957824 -0.01401106 -0.0409263
v -0.01843541 0.003160801 -0.04169638
v -0.008796866 -0.01301707 -0.04486953
v -0.008796866 0.003160801 -0.04486953
v 1.978397E-05 0.003160801 -0.04486953
v 1.978397E-05 -0.01301707 -0.04486953
v -0.009066097 -0.1681011 -0.03847773
v -0.02262214 -0.2556303 -0.0283848
v -0.009066097 -0.2556303 -0.03847773
v 1.978397E-05 -0.2556303 -0.03847773
v -0.02262214 -0.1681011 -0.0283848
v -0.02262214 -0.01877841 -0.0283848
v -0.009066097 -0.0161282 -0.03847773
v 1.978397E-05 -0.0161282 -0.03847773
v 1.978397E-05 -0.1681011 -0.03847773
v -0.02262214 -0.2632186 -0.0283848
v 1.978397E-05 -0.2632186 -0.005653155
v 1.978397E-05 -0.2632186 -0.04444363
v -0.006876806 -0.2632186 -0.04444363
v -0.02262214 -0.2632186 -0.005653155
v 1.978397E-05 -0.2499649 0.01831202
v -0.02262214 -0.2499649 0.01831202
v -0.01576846 -0.2632186 -0.0417949
v -0.01126944 -0.2632186 -0.04441904
v -0.01126944 -0.2556303 -0.04441904
v -0.009066097 -0.2556303 -0.03847773
v -0.01576846 -0.2556303 -0.0417949
v -0.02262214 -0.2556303 -0.0283848
v -0.006876806 -0.2556303 -0.04444363
v 1.978397E-05 -0.2556303 -0.03847773
v 1.978397E-05 -0.2556303 -0.04444363
v 1.978397E-05 -0.174412 0.01831202
v -0.02262214 -0.1694801 0.008011535
v 1.978397E-05 -0.1694801 0.008011535
v -0.02262214 -0.174412 0.01831202
v 1.978397E-05 -0.0161282 -0.03847773
v -0.008796866 -0.01301707 -0.04486953
v -0.009066097 -0.0161282 -0.03847773
v 1.978397E-05 -0.01301707 -0.04486953
v -0.01957824 -0.01401106 -0.0409263
v -0.02262214 -0.01877841 -0.0283848
v -0.02262214 0.003160801 -0.005003885
v -0.02072106 0.003160801 -0.02490428
v 1.978397E-05 0.003160801 -0.005003885
v 1.978397E-05 0.003160801 -0.04486953
v -0.02262214 -0.007329693 0.01321057
v -0.008796866 0.003160801 -0.04486953
v -0.01843541 0.003160801 -0.04169638
v 1.978397E-05 -0.007329693 0.01321057
v 1.978397E-05 -0.174412 0.01831202
v -0.02262214 -0.2499649 0.01831202
v -0.02262214 -0.174412 0.01831202
v 1.978397E-05 -0.2499649 0.01831202
v -0.02262214 -0.007329693 0.01321057
v 1.978397E-05 -0.04706129 0.01321057
v -0.02262214 -0.04706129 0.01321057
v 1.978397E-05 -0.007329693 0.01321057
v -0.02262214 -0.04706129 0.01321057
v 1.978397E-05 -0.05584987 0.008011535
v -0.02262214 -0.05584987 0.008011535
v 1.978397E-05 -0.04706129 0.01321057
v -0.02262214 -0.05584987 0.008011535
v 1.978397E-05 -0.1694801 0.008011535
v -0.02262214 -0.1694801 0.008011535
v 1.978397E-05 -0.05584987 0.008011535
v 1.978397E-05 -0.2632186 -0.04444363
v -0.006876806 -0.2556303 -0.04444363
v -0.006876806 -0.2632186 -0.04444363
v 1.978397E-05 -0.2556303 -0.04444363
v -0.01126944 -0.2632186 -0.04441904
v -0.01126944 -0.2556303 -0.04441904
v -0.02262214 -0.2556303 -0.0283848
v -0.02262214 -0.2632186 -0.0283848
v -0.01576846 -0.2632186 -0.0417949
v -0.01576846 -0.2556303 -0.0417949
v -0.01126944 -0.2556303 -0.04441904
v -0.01576846 -0.2556303 -0.0417949
v -0.01576846 -0.2632186 -0.0417949
v -0.01126944 -0.2632186 -0.04441904
vt 0.009913 0.314818
vt 0.010787 0.443338
vt 0.402315 0.424142
vt 0.401596 0.318353
vt 0.401758 0.274497
vt 0.010153 0.254562
vt 0.402315 0.221857
vt 0.010788 0.197443
vt 0.94236 0.234936
vt 0.916041 0.10712
vt 0.916041 0.252113
vt 0.96044 0.207465
vt 0.97817 0.10712
vt 0.812579 0.186466
vt 0.89665 0.240953
vt 0.83218 0.138957
vt 0.89665 0.098227
vt 0.803495 0.240953
vt 0.363701 0.641637
vt 0.044128 0.641429
vt 0.358621 0.89291
vt 0.016394 0.798347
vt 0.016423 0.641411
vt 0.064754 0.963832
vt 0.340601 0.964011
vt 0.773489 0.893181
vt 0.908884 0.641994
vt 0.80557 0.929095
vt 0.950631 0.92919
vt 0.988955 0.803464
vt 0.988994 0.657507
vt 0.925212 0.558302
vt 0.989003 0.543118
vt 0.929946 0.456423
vt 0.989012 0.456462
vt 0.989027 0.398414
vt 0.929961 0.398376
vt 0.36372 0.543094
vt 0.044146 0.542886
vt 0.044128 0.641429
vt 0.044162 0.456249
vt 0.363701 0.641637
vt 0.908884 0.641994
vt 0.918578 0.543457
vt 0.918594 0.45682
vt 0.363735 0.456458
vt 0.470566 0.270691
vt 0.411907 0.436101
vt 0.553599 0.436101
vt 0.411907 0.385718
vt 0.553599 0.27069
vt 0.653633 0.4361
vt 0.653633 0.27069
vt 0.421582 0.327004
vt 0.411997 0.359872
vt 0.828539 0.01549
vt 0.800811 0.050918
vt 0.838571 0.089806
vt 0.755581 0.224155
vt 0.850865 0.013371
vt 0.895923 0.085162
vt 0.894398 0.009845
vt 0.951391 0.377819
vt 0.993087 0.377819
vt 0.993087 0.236806
vt 0.951391 0.236806
vt 0.650927 0.115707
vt 0.692703 0.086597
vt 0.680077 0.022089
vt 0.639539 0.050336
vt 0.736173 0.024036
vt 0.77207 0.137151
vt 0.196109 0.194363
vt 0.196109 0.007631
vt 0.114048 0.178685
vt 0.031719 0.007631
vt 0.282784 0.194363
vt 0.031719 0.080344
vt 0.044804 0.159835
vt 0.282784 0.007631
vt 0.662503 0.271921
vt 0.662503 0.427577
vt 0.917548 0.427577
vt 0.917548 0.27192
vt 0.295636 0.195813
vt 0.440698 0.195813
vt 0.440698 0.040156
vt 0.295636 0.040156
vt 0.45504 0.043279
vt 0.45504 0.113776
vt 0.537358 0.113776
vt 0.537358 0.043279
vt 0.448347 0.244669
vt 0.744563 0.244668
vt 0.744563 0.13353
vt 0.448347 0.133531
vt 0.508588 0.908961
vt 0.462771 0.908931
vt 0.462761 0.96132
vt 0.508578 0.96135
vt 0.434581 0.908913
vt 0.434572 0.961302
vt 0.407116 0.908895
vt 0.388876 0.908883
vt 0.388866 0.961272
vt 0.407107 0.961284
vt 0.407116 0.908895
vt 0.407107 0.961284
vt 0.434572 0.961302
vt 0.434581 0.908913
vt 0.009912968 0.314818
vt 0.402315 0.424142
vt 0.01078701 0.443338
vt 0.401596 0.318353
vt 0.401758 0.274497
vt 0.01015306 0.254562
vt 0.402315 0.221857
vt 0.01078796 0.197443
vt 0.94236 0.234936
vt 0.916041 0.252113
vt 0.916041 0.10712
vt 0.96044 0.207465
vt 0.97817 0.10712
vt 0.812579 0.186466
vt 0.83218 0.138957
vt 0.89665 0.240953
vt 0.89665 0.098227
vt 0.803495 0.240953
vt 0.363701 0.641637
vt 0.358621 0.89291
vt 0.04412794 0.641429
vt 0.01639402 0.798347
vt 0.01642299 0.641411
vt 0.06475401 0.963832
vt 0.340601 0.964011
vt 0.773489 0.893181
vt 0.908884 0.641994
vt 0.80557 0.929095
vt 0.950631 0.92919
vt 0.988955 0.803464
vt 0.988994 0.657507
vt 0.925212 0.558302
vt 0.9890029 0.543118
vt 0.9299459 0.456423
vt 0.989012 0.456462
vt 0.989027 0.398414
vt 0.929961 0.398376
vt 0.3637201 0.543094
vt 0.04412794 0.641429
vt 0.04414594 0.542886
vt 0.04416203 0.456249
vt 0.363701 0.641637
vt 0.908884 0.641994
vt 0.918578 0.543457
vt 0.918594 0.45682
vt 0.363735 0.456458
vt 0.470566 0.270691
vt 0.553599 0.436101
vt 0.411907 0.436101
vt 0.411907 0.385718
vt 0.553599 0.27069
vt 0.653633 0.4361
vt 0.653633 0.27069
vt 0.421582 0.327004
vt 0.411997 0.359872
vt 0.828539 0.01549
vt 0.838571 0.089806
vt 0.8008111 0.050918
vt 0.755581 0.224155
vt 0.850865 0.013371
vt 0.895923 0.085162
vt 0.894398 0.009845
vt 0.951391 0.377819
vt 0.9930871 0.236806
vt 0.9930871 0.377819
vt 0.951391 0.236806
vt 0.6509269 0.115707
vt 0.680077 0.022089
vt 0.692703 0.086597
vt 0.639539 0.050336
vt 0.736173 0.024036
vt 0.7720701 0.137151
vt 0.1961091 0.194363
vt 0.114048 0.178685
vt 0.1961091 0.007631
vt 0.03171897 0.007631
vt 0.282784 0.194363
vt 0.03171897 0.080344
vt 0.04480398 0.159835
vt 0.282784 0.007631
vt 0.662503 0.271921
vt 0.9175479 0.427577
vt 0.662503 0.427577
vt 0.9175479 0.27192
vt 0.2956361 0.195813
vt 0.440698 0.040156
vt 0.440698 0.195813
vt 0.2956361 0.040156
vt 0.45504 0.043279
vt 0.537358 0.113776
vt 0.45504 0.113776
vt 0.537358 0.043279
vt 0.448347 0.244669
vt 0.744563 0.13353
vt 0.744563 0.244668
vt 0.448347 0.133531
vt 0.508588 0.908961
vt 0.462761 0.96132
vt 0.4627711 0.908931
vt 0.5085779 0.96135
vt 0.434581 0.908913
vt 0.434572 0.961302
vt 0.3888659 0.961272
vt 0.388875 0.908883
vt 0.4071161 0.908895
vt 0.407107 0.961284
vt 0.434572 0.961302
vt 0.407107 0.961284
vt 0.4071161 0.908895
vt 0.434581 0.908913
vn 0.8183467 -0.02642716 0.5741169
vn 0.9479905 -0.03157608 0.3167285
vn 0.9676039 -0.02059962 0.2516316
vn 0.8420104 -0.02125438 0.5390423
vn 0.4699203 -0.02346789 0.8823969
vn 0.4636415 -0.0232357 0.8857181
vn 0 -0.02632971 0.9996533
vn 0 -0.0268054 0.9996407
vn 0 -1 0
vn 0 -1 0
vn 0 -1 0
vn 0 -1 0
vn 0 -1 0
vn 0 1 0
vn 0 1 0
vn 0 1 0
vn 0 1 0
vn 0 1 0
vn 1 0 0
vn 0.9878311 0 -0.155531
vn 1 0 0
vn 1 0 0
vn 0.9722254 0 -0.2340464
vn 1 0 0
vn 1 0 0
vn 1 0 0
vn 0.9958581 0.05152613 -0.07491145
vn 1 0 0
vn 1 0 0
vn 0.9991979 0.02920179 -0.02740117
vn 0.9879029 0.09295565 -0.124125
vn 0.8246449 0.05324924 -0.5631388
vn 0.7554329 0.02909396 -0.6545797
vn 0.1729429 -0.006684467 -0.9849091
vn 0.1583503 0 -0.9873829
vn 0 0 -1
vn 0 0 -1
vn 0.3145638 0 -0.9492363
vn 0.3145635 0 -0.9492364
vn 0.5971903 0 -0.8020995
vn 0 0 -1
vn 0.5971907 0 -0.8020994
vn 0.5971907 0 -0.8020994
vn 0.2981336 0 -0.9545241
vn 0 0 -1
vn 0 0 -1
vn 0 -1 0
vn 0 -1 0
vn 0 -0.9682692 0.2499093
vn 0 -1 0
vn 0 -0.9682692 0.2499093
vn 0 -0.8750907 0.483959
vn 0 -0.8750907 0.483959
vn 0 -1 0
vn 0 -1 0
vn 0.2591329 0.8575945 -0.4442767
vn 0.2626547 0.8533634 -0.4503147
vn 0 1 0
vn 0 1 0
vn 0 1 0
vn 0 1 0
vn 0 1 0
vn 0 0.901945 0.4318509
vn 0 0.901945 0.4318509
vn 0 0.901945 0.4318509
vn 0 0.901945 0.4318509
vn 0 -0.899146 -0.4376487
vn 0.0515365 -0.9046106 -0.4231119
vn 0.03304648 -0.8981065 -0.4385346
vn 0 -0.8991461 -0.4376486
vn 0.09244998 -0.914521 -0.3938327
vn 0.09849016 -0.9220259 -0.3743901
vn 0 0.9638693 0.2663754
vn 0 0.9660623 0.258309
vn 0 1 0
vn 0 1 0
vn 0 0.8665529 0.4990852
vn 0 1 0
vn 0 1 0
vn 0 0.8665529 0.4990852
vn 0 0 1
vn 0 0 1
vn 0 0 1
vn 0 0 1
vn 0 0 1
vn 0 0 1
vn 0 0 1
vn 0 0 1
vn 0 -0.5091495 0.8606781
vn 0 -0.5091495 0.8606781
vn 0 -0.5091495 0.8606781
vn 0 -0.5091495 0.8606781
vn 0 0 1
vn 0 0 1
vn 0 0 1
vn 0 0 1
vn 0 0 -1
vn 0.002800116 0 -0.9999961
vn 0.002800116 0 -0.9999961
vn 0 0 -1
vn 0.00560021 0 -0.9999844
vn 0.00560021 0 -0.9999844
vn 0.8904445 0 -0.4550917
vn 0.9722254 0 -0.2340464
vn 0.9878311 0 -0.155531
vn 0.8904445 0 -0.4550917
vn 0.5038297 0 -0.863803
vn 0.2626547 0.8533634 -0.4503147
vn 0.2591329 0.8575945 -0.4442767
vn 0.5038297 0 -0.863803
vn -0.8183467 -0.02642716 0.5741169
vn -0.9676039 -0.02059962 0.2516316
vn -0.9479905 -0.03157608 0.3167285
vn -0.8420104 -0.02125438 0.5390423
vn -0.4699203 -0.02346789 0.8823969
vn -0.4636415 -0.0232357 0.8857181
vn 0 -0.02632971 0.9996533
vn 0 -0.0268054 0.9996407
vn 0 -1 0
vn 0 -1 0
vn 0 -1 0
vn 0 -1 0
vn 0 -1 0
vn 0 1 0
vn 0 1 0
vn 0 1 0
vn 0 1 0
vn 0 1 0
vn -1 0 0
vn -1 0 0
vn -0.9878311 0 -0.155531
vn -1 0 0
vn -0.9722254 0 -0.2340464
vn -1 0 0
vn -1 0 0
vn -1 0 0
vn -0.9958581 0.05152613 -0.07491145
vn -1 0 0
vn -1 0 0
vn -0.9991979 0.02920179 -0.02740117
vn -0.9879029 0.09295565 -0.124125
vn -0.8246449 0.05324924 -0.5631388
vn -0.7554329 0.02909396 -0.6545797
vn -0.1729429 -0.006684467 -0.9849091
vn -0.1583503 0 -0.9873829
vn 0 0 -1
vn 0 0 -1
vn -0.3145638 0 -0.9492363
vn -0.5971903 0 -0.8020995
vn -0.3145635 0 -0.9492364
vn 0 0 -1
vn -0.5971907 0 -0.8020994
vn -0.5971907 0 -0.8020994
vn -0.2981336 0 -0.9545241
vn 0 0 -1
vn 0 0 -1
vn 0 -1 0
vn 0 -0.9682692 0.2499093
vn 0 -1 0
vn 0 -1 0
vn 0 -0.9682692 0.2499093
vn 0 -0.8750907 0.483959
vn 0 -0.8750907 0.483959
vn 0 -1 0
vn 0 -1 0
vn -0.2591329 0.8575945 -0.4442767
vn 0 1 0
vn -0.2626547 0.8533634 -0.4503147
vn 0 1 0
vn 0 1 0
vn 0 1 0
vn 0 1 0
vn 0 0.901945 0.4318509
vn 0 0.901945 0.4318509
vn 0 0.901945 0.4318509
vn 0 0.901945 0.4318509
vn 0 -0.899146 -0.4376487
vn -0.03304648 -0.8981065 -0.4385346
vn -0.0515365 -0.9046106 -0.4231119
vn 0 -0.8991461 -0.4376486
vn -0.09244998 -0.914521 -0.3938327
vn -0.09849016 -0.9220259 -0.3743901
vn 0 0.9638693 0.2663754
vn 0 1 0
vn 0 0.9660623 0.258309
vn 0 1 0
vn 0 0.8665529 0.4990852
vn 0 1 0
vn 0 1 0
vn 0 0.8665529 0.4990852
vn 0 0 1
vn 0 0 1
vn 0 0 1
vn 0 0 1
vn 0 0 1
vn 0 0 1
vn 0 0 1
vn 0 0 1
vn 0 -0.5091495 0.8606781
vn 0 -0.5091495 0.8606781
vn 0 -0.5091495 0.8606781
vn 0 -0.5091495 0.8606781
vn 0 0 1
vn 0 0 1
vn 0 0 1
vn 0 0 1
vn 0 0 -1
vn -0.002800116 0 -0.9999961
vn -0.002800116 0 -0.9999961
vn 0 0 -1
vn -0.00560021 0 -0.9999844
vn -0.00560021 0 -0.9999844
vn -0.9878311 0 -0.155531
vn -0.9722254 0 -0.2340464
vn -0.8904445 0 -0.4550917
vn -0.8904445 0 -0.4550917
vn -0.2591329 0.8575945 -0.4442767
vn -0.2626547 0.8533634 -0.4503147
vn -0.5038297 0 -0.863803
vn -0.5038297 0 -0.863803
g handguard_ak_magpul_zhukov_u_LOD1_0
f 3/3/3 2/2/2 1/1/1
f 4/4/4 3/3/3 1/1/1
f 4/4/4 1/1/1 5/5/5
f 1/1/1 6/6/6 5/5/5
f 7/7/7 5/5/5 6/6/6
f 8/8/8 7/7/7 6/6/6
f 11/11/11 10/10/10 9/9/9
f 9/9/9 10/10/10 12/12/12
f 13/13/13 12/12/12 10/10/10
f 16/16/16 15/15/15 14/14/14
f 15/15/15 16/16/16 17/17/17
f 14/14/14 15/15/15 18/18/18
f 21/21/21 20/20/20 19/19/19
f 20/20/20 21/21/21 22/22/22
f 23/23/23 20/20/20 22/22/22
f 22/22/22 21/21/21 24/24/24
f 21/21/21 25/25/25 24/24/24
f 19/19/19 26/26/26 21/21/21
f 26/26/26 19/19/19 27/27/27
f 28/28/28 26/26/26 27/27/27
f 28/28/28 27/27/27 29/29/29
f 27/27/27 30/30/30 29/29/29
f 30/30/30 27/27/27 31/31/31
f 27/27/27 32/32/32 31/31/31
f 33/33/33 31/31/31 32/32/32
f 32/32/32 34/34/34 33/33/33
f 34/34/34 35/35/35 33/33/33
f 35/35/35 34/34/34 36/36/36
f 34/34/34 37/37/37 36/36/36
f 40/40/40 39/39/39 38/38/38
f 38/38/38 39/39/39 41/41/41
f 42/42/42 40/40/40 38/38/38
f 43/43/43 42/42/42 38/38/38
f 44/44/44 43/43/43 38/38/38
f 45/45/45 44/44/44 38/38/38
f 46/46/46 38/38/38 41/41/41
f 46/46/46 45/45/45 38/38/38
f 49/49/49 48/48/48 47/47/47
f 50/50/50 47/47/47 48/48/48
f 49/49/49 47/47/47 51/51/51
f 49/49/49 51/51/51 52/52/52
f 51/51/51 53/53/53 52/52/52
f 47/47/47 50/50/50 54/54/54
f 50/50/50 55/55/55 54/54/54
f 58/58/58 57/57/57 56/56/56
f 57/57/57 58/58/58 59/59/59
f 60/60/60 58/58/58 56/56/56
f 61/61/61 58/58/58 60/60/60
f 62/62/62 61/61/61 60/60/60
f 65/65/65 64/64/64 63/63/63
f 66/66/66 65/65/65 63/63/63
f 69/69/69 68/68/68 67/67/67
f 70/70/70 69/69/69 67/67/67
f 69/69/69 71/71/71 68/68/68
f 71/71/71 72/72/72 68/68/68
f 75/75/75 74/74/74 73/73/73
f 74/74/74 75/75/75 76/76/76
f 77/77/77 73/73/73 74/74/74
f 76/76/76 75/75/75 78/78/78
f 75/75/75 79/79/79 78/78/78
f 80/80/80 77/77/77 74/74/74
f 83/83/83 82/82/82 81/81/81
f 84/84/84 83/83/83 81/81/81
f 87/87/87 86/86/86 85/85/85
f 88/88/88 87/87/87 85/85/85
f 91/91/91 90/90/90 89/89/89
f 92/92/92 91/91/91 89/89/89
f 95/95/95 94/94/94 93/93/93
f 96/96/96 95/95/95 93/93/93
f 99/99/99 98/98/98 97/97/97
f 100/100/100 99/99/99 97/97/97
f 98/98/98 99/99/99 101/101/101
f 99/99/99 102/102/102 101/101/101
f 105/105/105 104/104/104 103/103/103
f 106/106/106 105/105/105 103/103/103
f 109/109/109 108/108/108 107/107/107
f 110/110/110 109/109/109 107/107/107
f 113/113/113 112/112/112 111/111/111
f 112/112/112 114/114/114 111/111/111
f 111/111/111 114/114/114 115/115/115
f 116/116/116 111/111/111 115/115/115
f 115/115/115 117/117/117 116/116/116
f 117/117/117 118/118/118 116/116/116
f 121/121/121 120/120/120 119/119/119
f 121/121/121 119/119/119 122/122/122
f 122/122/122 123/123/123 121/121/121
f 126/126/126 125/125/125 124/124/124
f 125/125/125 126/126/126 127/127/127
f 126/126/126 124/124/124 128/128/128
f 131/131/131 130/130/130 129/129/129
f 130/130/130 131/131/131 132/132/132
f 131/131/131 133/133/133 132/132/132
f 130/130/130 132/132/132 134/134/134
f 135/135/135 130/130/130 134/134/134
f 136/136/136 129/129/129 130/130/130
f 129/129/129 136/136/136 137/137/137
f 136/136/136 138/138/138 137/137/137
f 137/137/137 138/138/138 139/139/139
f 140/140/140 137/137/137 139/139/139
f 137/137/137 140/140/140 141/141/141
f 142/142/142 137/137/137 141/141/141
f 141/141/141 143/143/143 142/142/142
f 144/144/144 142/142/142 143/143/143
f 145/145/145 144/144/144 143/143/143
f 144/144/144 145/145/145 146/146/146
f 147/147/147 144/144/144 146/146/146
f 150/150/150 149/149/149 148/148/148
f 150/150/150 148/148/148 151/151/151
f 149/149/149 152/152/152 148/148/148
f 152/152/152 153/153/153 148/148/148
f 153/153/153 154/154/154 148/148/148
f 154/154/154 155/155/155 148/148/148
f 148/148/148 156/156/156 151/151/151
f 155/155/155 156/156/156 148/148/148
f 159/159/159 158/158/158 157/157/157
f 157/157/157 160/160/160 159/159/159
f 157/157/157 158/158/158 161/161/161
f 161/161/161 158/158/158 162/162/162
f 163/163/163 161/161/161 162/162/162
f 160/160/160 157/157/157 164/164/164
f 165/165/165 160/160/160 164/164/164
f 168/168/168 167/167/167 166/166/166
f 167/167/167 168/168/168 169/169/169
f 167/167/167 170/170/170 166/166/166
f 167/167/167 171/171/171 170/170/170
f 171/171/171 172/172/172 170/170/170
f 175/175/175 174/174/174 173/173/173
f 174/174/174 176/176/176 173/173/173
f 179/179/179 178/178/178 177/177/177
f 178/178/178 180/180/180 177/177/177
f 181/181/181 178/178/178 179/179/179
f 182/182/182 181/181/181 179/179/179
f 185/185/185 184/184/184 183/183/183
f 184/184/184 185/185/185 186/186/186
f 183/183/183 187/187/187 185/185/185
f 184/184/184 186/186/186 188/188/188
f 189/189/189 184/184/184 188/188/188
f 187/187/187 190/190/190 185/185/185
f 193/193/193 192/192/192 191/191/191
f 192/192/192 194/194/194 191/191/191
f 197/197/197 196/196/196 195/195/195
f 196/196/196 198/198/198 195/195/195
f 201/201/201 200/200/200 199/199/199
f 200/200/200 202/202/202 199/199/199
f 205/205/205 204/204/204 203/203/203
f 204/204/204 206/206/206 203/203/203
f 209/209/209 208/208/208 207/207/207
f 208/208/208 210/210/210 207/207/207
f 209/209/209 211/211/211 208/208/208
f 211/211/211 212/212/212 208/208/208
f 215/215/215 214/214/214 213/213/213
f 216/216/216 215/215/215 213/213/213
f 219/219/219 218/218/218 217/217/217
f 220/220/220 219/219/219 217/217/217
