g handguard_ar15_colt_m4_length_std_LOD1
v -0.02458888 -0.02444779 -0.002398788
v -0.02458889 -0.01776597 -0.002364516
v -0.01734272 -0.01776597 0.01512927
v -0.01734273 -0.0244478 0.01512926
v 0.0001510567 -0.01776597 0.02237543
v 0.0001510556 -0.0244478 0.02237543
v 0.01764484 -0.01776597 0.01512927
v 0.01764483 -0.0244478 0.01512926
v 0.024891 -0.01776598 -0.002364518
v 0.02489099 -0.0244478 -0.002398788
v 0.02478315 -0.02444205 -0.001687063
v 0.02489099 -0.01776599 -0.001627032
v 0.01764483 -0.01776599 -0.01912081
v 0.01764483 -0.02444782 -0.01912081
v 0.0001510554 -0.01776599 -0.02636697
v 0.0001510543 -0.02444781 -0.02636697
v -0.01734271 -0.01776597 -0.01912081
v -0.01734272 -0.02444781 -0.01912081
v -0.02458888 -0.01776596 -0.001627032
v -0.02456464 -0.02444204 -0.001687058
v -0.01734272 -0.01776597 0.01512927
v -0.02458889 -0.01776597 -0.002364516
v 0.024891 -0.01776598 -0.002364518
v 0.01764484 -0.01776597 0.01512927
v 0.0001510567 -0.01776597 0.02237543
v 0.03092469 -0.0244363 -0.002359207
v 0.02713125 -0.1815418 -0.002461828
v 0.0234996 -0.1815418 0.0124102
v 0.02678482 -0.02443631 0.01556621
v 0.01357774 -0.1815418 0.02367675
v 0.01547446 -0.02443631 0.02840944
v 2.422046E-05 -0.1815418 0.02780059
v 2.422082E-05 -0.02443631 0.03311039
v -0.0135293 -0.1815418 0.02367675
v -0.01542602 -0.02443631 0.02840944
v -0.02345116 -0.1815418 0.0124102
v -0.02673637 -0.02443631 0.01556621
v -0.02708281 -0.1815418 -0.002461828
v -0.03087625 -0.02443631 -0.002359206
v 0.02054924 -0.1815428 -0.002398788
v 0.02054924 -0.1872945 -0.002364516
v 0.01457475 -0.1872945 0.01205918
v 0.01457475 -0.1815428 0.01205918
v 0.0001510537 -0.1872945 0.01803367
v 0.0001510537 -0.1815428 0.01803368
v -0.01427264 -0.1872945 0.01205918
v -0.01427264 -0.1815428 0.01205918
v -0.02024714 -0.1872945 -0.002364518
v -0.02024714 -0.1815428 -0.002398788
v -0.02049706 -0.1815422 -0.002699882
v -0.02024714 -0.1872944 -0.002650446
v -0.01427264 -0.1872944 -0.01707414
v -0.01427264 -0.1815428 -0.01707415
v 0.0001510548 -0.1872944 -0.02304862
v 0.0001510547 -0.1815428 -0.02304863
v 0.01457475 -0.1872944 -0.01707414
v 0.01457475 -0.1815428 -0.01707415
v 0.02054923 -0.1872944 -0.002650446
v 0.02071555 -0.1815423 -0.002699882
v 0.02054924 -0.1872945 -0.002364516
v -0.02024714 -0.1872945 -0.002364518
v -0.01427264 -0.1872945 0.01205918
v 0.01457475 -0.1872945 0.01205918
v 0.0001510537 -0.1872945 0.01803367
v 0.0001510537 -0.1815428 0.01803368
v 2.422046E-05 -0.1815418 0.02780059
v 0.01357774 -0.1815418 0.02367675
v -0.0135293 -0.1815418 0.02367675
v -0.01427264 -0.1815428 0.01205918
v -0.02345116 -0.1815418 0.0124102
v -0.02024714 -0.1815428 -0.002398788
v -0.02708281 -0.1815418 -0.002461828
v 0.01457475 -0.1815428 0.01205918
v 0.0234996 -0.1815418 0.0124102
v 0.02054924 -0.1815428 -0.002398788
v 0.02713125 -0.1815418 -0.002461828
v 0.02489099 -0.0244478 -0.002398788
v 0.03092469 -0.0244363 -0.002359207
v 0.02678482 -0.02443631 0.01556621
v 0.01764483 -0.0244478 0.01512926
v 0.01547446 -0.02443631 0.02840944
v 0.0001510556 -0.0244478 0.02237543
v 2.422082E-05 -0.02443631 0.03311039
v 0.0001510556 -0.0244478 0.02237543
v 2.422082E-05 -0.02443631 0.03311039
v -0.01542602 -0.02443631 0.02840944
v -0.01734273 -0.0244478 0.01512926
v -0.02673637 -0.02443631 0.01556621
v -0.03087625 -0.02443631 -0.002359206
v -0.02458888 -0.02444779 -0.002398788
v 0.02054924 -0.1815428 -0.002398788
v 0.02489099 -0.0244478 -0.002398788
v -0.02458888 -0.02444779 -0.002398788
v -0.02024714 -0.1815428 -0.002398788
v 0.03092469 -0.0244363 -0.002359207
v 0.02713125 -0.1815418 -0.002461828
v -0.02708281 -0.1815418 -0.002461828
v -0.03087625 -0.02443631 -0.002359206
v -0.02458889 -0.01776597 -0.002364516
v 0.024891 -0.01776598 -0.002364518
v -0.02024714 -0.1872945 -0.002364518
v 0.02054924 -0.1872945 -0.002364516
v -0.03087625 -0.02443632 -0.001712817
v -0.02708281 -0.1815418 -0.002715064
v -0.02345115 -0.1815418 -0.01810544
v -0.02673637 -0.0244363 -0.01925699
v -0.0135293 -0.1815418 -0.02937198
v -0.01542602 -0.02443632 -0.03210019
v 2.420911E-05 -0.1815418 -0.03349584
v 2.420789E-05 -0.02443632 -0.03680114
v 2.420789E-05 -0.02443632 -0.03680114
v 2.420911E-05 -0.1815418 -0.03349584
v 0.01357772 -0.1815418 -0.02937199
v 0.01547444 -0.02443635 -0.0321002
v 0.02349958 -0.1815418 -0.01810547
v 0.02678481 -0.02443635 -0.01925701
v 0.02713124 -0.1815418 -0.002715064
v 0.03092469 -0.0244363 -0.001712821
v 0.01764483 -0.01776599 -0.01912081
v 0.02489099 -0.01776599 -0.001627032
v -0.02458888 -0.01776596 -0.001627032
v -0.01734271 -0.01776597 -0.01912081
v 0.0001510554 -0.01776599 -0.02636697
v -0.01427264 -0.1872944 -0.01707414
v -0.02024714 -0.1872944 -0.002650446
v 0.02054923 -0.1872944 -0.002650446
v 0.01457475 -0.1872944 -0.01707414
v 0.0001510548 -0.1872944 -0.02304862
v 0.02713124 -0.1815418 -0.002715064
v 0.02071555 -0.1815423 -0.002699882
v 0.02478315 -0.02444205 -0.001687063
v 0.03092469 -0.0244363 -0.001712821
v -0.02456464 -0.02444204 -0.001687058
v 0.02489099 -0.01776599 -0.001627032
v -0.02458888 -0.01776596 -0.001627032
v -0.02049706 -0.1815422 -0.002699882
v -0.03087625 -0.02443632 -0.001712817
v -0.02708281 -0.1815418 -0.002715064
v 0.02054923 -0.1872944 -0.002650446
v -0.02024714 -0.1872944 -0.002650446
v -0.01427264 -0.1815428 -0.01707415
v -0.02345115 -0.1815418 -0.01810544
v -0.02708281 -0.1815418 -0.002715064
v -0.02049706 -0.1815422 -0.002699882
v 0.0001510547 -0.1815428 -0.02304863
v -0.0135293 -0.1815418 -0.02937198
v 2.420911E-05 -0.1815418 -0.03349584
v 0.02071555 -0.1815423 -0.002699882
v 0.02713124 -0.1815418 -0.002715064
v 0.02349958 -0.1815418 -0.01810547
v 0.01457475 -0.1815428 -0.01707415
v 0.01357772 -0.1815418 -0.02937199
v 0.0001510547 -0.1815428 -0.02304863
v 2.420911E-05 -0.1815418 -0.03349584
v -0.02456464 -0.02444204 -0.001687058
v -0.03087625 -0.02443632 -0.001712817
v -0.02673637 -0.0244363 -0.01925699
v -0.01734272 -0.02444781 -0.01912081
v -0.01542602 -0.02443632 -0.03210019
v 0.0001510543 -0.02444781 -0.02636697
v 2.420789E-05 -0.02443632 -0.03680114
v 0.01547444 -0.02443635 -0.0321002
v 0.01764483 -0.02444782 -0.01912081
v 0.02678481 -0.02443635 -0.01925701
v 0.03092469 -0.0244363 -0.001712821
v 0.02478315 -0.02444205 -0.001687063
vt 0.6809006 0.669607
vt 0.6809006 0.6953008
vt 0.7537122 0.6953008
vt 0.7537122 0.669607
vt 0.8265239 0.6953008
vt 0.8265239 0.669607
vt 0.899336 0.6953008
vt 0.899336 0.6696072
vt 0.9721476 0.6953008
vt 0.9721476 0.6696072
vt 0.3896537 0.6696072
vt 0.3896537 0.6953008
vt 0.4624653 0.6953008
vt 0.4624653 0.6696072
vt 0.5352769 0.6953008
vt 0.5352769 0.6696072
vt 0.608089 0.6953008
vt 0.6080889 0.6696072
vt 0.6809006 0.6953008
vt 0.6809006 0.669607
vt 0.6274764 0.9085682
vt 0.5931689 0.9913938
vt 0.8274351 0.9913938
vt 0.7931276 0.9085682
vt 0.7103021 0.8742607
vt 0.004863201 0.003553144
vt 0.01816596 0.6510836
vt 0.08332228 0.6497016
vt 0.07913523 0.001977929
vt 0.1451925 0.649224
vt 0.1496617 0.001433378
vt 0.2035746 0.6497891
vt 0.2162143 0.002077566
vt 0.2619351 0.6515021
vt 0.2827418 0.00403017
vt 0.3237385 0.6543931
vt 0.3531931 0.007325976
vt 0.3887897 0.6583161
vt 0.4273472 0.01179771
vt 0.7362306 0.7311056
vt 0.7362306 0.7089885
vt 0.6761969 0.7089884
vt 0.6761969 0.7311056
vt 0.6161634 0.7089884
vt 0.6161634 0.7311056
vt 0.55613 0.7089884
vt 0.55613 0.7311056
vt 0.4960963 0.7089884
vt 0.4960963 0.7311056
vt 0.9899978 0.7311056
vt 0.9899978 0.7089884
vt 0.9299644 0.7089885
vt 0.9299644 0.7311056
vt 0.8699307 0.7089885
vt 0.8699307 0.7311056
vt 0.8098972 0.7089885
vt 0.8098972 0.7311056
vt 0.7498638 0.7089885
vt 0.7498638 0.7311056
vt 0.1943205 0.7683324
vt 0.3874559 0.770971
vt 0.3601049 0.7023011
vt 0.2235374 0.700435
vt 0.2922075 0.6730841
vt 0.1136856 0.7389153
vt 0.1148292 0.7726692
vt 0.1609733 0.7562312
vt 0.06734994 0.7606208
vt 0.06290129 0.720616
vt 0.03125718 0.7233146
vt 0.03993074 0.6717665
vt 0.01622204 0.6707467
vt 0.1625355 0.7159448
vt 0.1934172 0.715712
vt 0.1808349 0.6651601
vt 0.2034684 0.6619681
vt 0.9339402 0.6319189
vt 0.9511055 0.6450945
vt 0.9812913 0.5880777
vt 0.9556391 0.5677184
vt 0.9810834 0.5268289
vt 0.9255862 0.5069786
vt 0.9505386 0.4777608
vt 0.9249825 0.4343029
vt 0.949904 0.4635473
vt 0.9816511 0.4152477
vt 0.9565259 0.3743232
vt 0.9833704 0.3540232
vt 0.9546013 0.2962786
vt 0.9364184 0.3096071
vt 0.570013 0.8143722
vt 0.04711461 0.7999204
vt 0.04711457 0.9646166
vt 0.570013 0.9501649
vt 0.04707636 0.779837
vt 0.5700098 0.7924636
vt 0.5700098 0.9729179
vt 0.04707636 0.9855444
vt 0.02487381 0.9646166
vt 0.02487384 0.7999204
vt 0.5891578 0.9501649
vt 0.5891578 0.8143722
vt 0.9252149 0.01053668
vt 0.899784 0.6581554
vt 0.8345945 0.6563624
vt 0.850902 0.008492799
vt 0.7726904 0.6553192
vt 0.7803344 0.00730359
vt 0.7142651 0.6550092
vt 0.7137335 0.006950386
vt 0.7137335 0.006950386
vt 0.7142651 0.6550092
vt 0.7726904 0.6553192
vt 0.7803344 0.00730359
vt 0.8345945 0.6563624
vt 0.850902 0.008492799
vt 0.899784 0.6581554
vt 0.9252149 0.01053668
vt 0.9117151 0.8122633
vt 0.9348422 0.7564296
vt 0.7769213 0.7564296
vt 0.8000482 0.8122633
vt 0.8558819 0.8353902
vt 0.686497 0.7950299
vt 0.7064151 0.7467477
vt 0.5699339 0.7469431
vt 0.5899903 0.795168
vt 0.6382723 0.8150862
vt 0.6600865 0.02693706
vt 0.6358331 0.02693505
vt 0.6511973 0.6209815
vt 0.6744138 0.6212274
vt 0.4646493 0.6208283
vt 0.6516042 0.6460707
vt 0.4645569 0.6460667
vt 0.4800385 0.02683727
vt 0.4407896 0.6208487
vt 0.4551425 0.02668405
vt 0.635204 0.005191843
vt 0.4809826 0.005188511
vt 0.4788719 0.7471281
vt 0.4919443 0.7828847
vt 0.5556408 0.7678615
vt 0.5435292 0.7435673
vt 0.4303099 0.7049032
vt 0.4321372 0.7669984
vt 0.3920024 0.7245809
vt 0.8494812 0.9419231
vt 0.8424914 0.9674278
vt 0.9076246 0.9699124
vt 0.9133347 0.9333227
vt 0.9632869 0.9428754
vt 0.9529197 0.8825859
vt 0.9945635 0.8935621
vt 0.750306 0.7591615
vt 0.72429 0.7591839
vt 0.7411209 0.8315546
vt 0.7798427 0.8311179
vt 0.7875708 0.8846434
vt 0.8518544 0.8612182
vt 0.8511928 0.9042253
vt 0.9149397 0.8850536
vt 0.9240583 0.8315822
vt 0.9617308 0.8322651
vt 0.9790283 0.7595969
vt 0.9537132 0.7594913
vn -0.9240114 -0.0009807476 0.3823635
vn -0.9240114 -0.0009807476 0.3823635
vn -0.7072289 -0.000530853 0.7069845
vn -0.707229 -0.0005308532 0.7069843
vn 0 -1.784716E-07 1
vn 0 -1.784716E-07 1
vn 0.707229 -0.0005310571 0.7069844
vn 0.707229 -0.0005310571 0.7069844
vn 0.9240115 -0.0009809362 0.3823635
vn 0.9240115 -0.0009809362 0.3823635
vn 0.9246393 -0.005753582 -0.3808006
vn 0.9246393 -0.005753582 -0.3808006
vn 0.7078183 -0.003115483 -0.7063876
vn 0.7077897 -0.003115179 -0.7064163
vn -1.848235E-07 -4.716751E-07 -1
vn 0 -4.716752E-07 -1
vn -0.7071012 2.369837E-05 -0.7071123
vn -0.7070729 2.369606E-05 -0.7071406
vn -0.9238736 4.402458E-05 -0.3826977
vn -0.9238736 4.402458E-05 -0.3826977
vn 1.403233E-07 1 -1.684109E-07
vn 1.411304E-07 1 -1.362876E-07
vn 1.411305E-07 1 -1.362876E-07
vn 1.403233E-07 1 -1.684109E-07
vn 1.362876E-07 1 -3.290275E-07
vn 0.9727681 -0.02430536 0.2305025
vn 0.9727681 -0.02430536 0.2305025
vn 0.8884656 -0.02743638 0.4581223
vn 0.8872999 -0.02746074 0.4603747
vn 0.5420059 -0.03184109 0.8397713
vn 0.5402064 -0.03185425 0.8409294
vn 0 -0.03377835 0.9994293
vn 0 -0.03377835 0.9994293
vn -0.542006 -0.0318411 0.8397712
vn -0.5402065 -0.03185426 0.8409293
vn -0.8884656 -0.02743638 0.4581223
vn -0.8872997 -0.02746075 0.4603749
vn -0.9727681 -0.02430537 0.2305029
vn -0.9727681 -0.02430537 0.2305029
vn 0.9240395 0.001139281 0.3822954
vn 0.9240395 0.001139281 0.3822954
vn 0.7072548 0.0006164439 0.7069584
vn 0.7072549 0.0006164439 0.7069584
vn 0 -3.682144E-07 1
vn 0 -3.682144E-07 1
vn -0.7072549 0.0006162096 0.7069584
vn -0.7072548 0.0006162094 0.7069584
vn -0.9240394 0.001138848 0.3822956
vn -0.9240394 0.001138848 0.3822956
vn -0.9205769 -0.02167576 -0.3899592
vn -0.9205769 -0.02167576 -0.3899592
vn -0.7041947 -0.0117133 -0.7099102
vn -0.7041971 -0.01171339 -0.7099079
vn 0 -2.312574E-06 -1
vn 0 -2.312574E-06 -1
vn 0.705112 -0.00810556 -0.7090496
vn 0.7051142 -0.008105621 -0.7090474
vn 0.9216482 -0.01499169 -0.3877368
vn 0.9216482 -0.01499169 -0.3877368
vn 2.738722E-07 -1 -6.611856E-07
vn 2.738722E-07 -1 -6.611856E-07
vn 2.282268E-07 -1 -5.509881E-07
vn 2.282268E-07 -1 -5.509881E-07
vn 0 -1 0
vn -5.604005E-06 -1 9.616026E-05
vn -8.91737E-07 -1 0.0001015375
vn 3.370414E-05 -1 9.218608E-05
vn -5.469315E-05 -1 9.253499E-05
vn -8.149339E-05 -1 7.429179E-05
vn -0.0001023933 -1 5.688019E-05
vn -0.0001219468 -1 4.059029E-05
vn -0.0001219468 -1 4.059029E-05
vn 0.000106407 -1 6.575375E-05
vn 0.0001132516 -1 6.090184E-05
vn 0.0001356836 -1 4.500034E-05
vn 0.0001481352 -1 3.617365E-05
vn -0.00149958 0.9999988 -0.0004813279
vn -0.001499581 0.9999988 -0.0004813278
vn -0.00140013 0.9999988 -0.0006780612
vn -0.00108511 0.999999 -0.0008459718
vn -0.000547191 0.9999994 -0.0009946954
vn -0.0003491223 0.9999994 -0.00101711
vn -0.0003267536 0.9999994 -0.001073916
vn 0.0003465395 0.9999994 -0.001009101
vn 0.0003244128 0.9999994 -0.001066222
vn 0.0005439622 0.9999994 -0.0009831567
vn 0.001051657 0.9999992 -0.0008268709
vn 0.001357198 0.9999989 -0.000658068
vn 0.001450477 0.9999989 -0.0004656256
vn 0.001450477 0.9999989 -0.0004656256
vn 0 0 -1
vn 0 0 -1
vn 0 0 -1
vn 0 0 -1
vn -0.001859807 0.0003747635 -0.9999982
vn -0.001859806 0.0003747634 -0.9999982
vn 0.001787826 0.0003729012 -0.9999983
vn 0.001787825 0.0003729012 -0.9999983
vn 0 0.005128983 -0.9999869
vn 0 0.005128983 -0.9999869
vn 0 -0.005958459 -0.9999822
vn 0 -0.005958459 -0.9999822
vn -0.9730344 -0.02202995 -0.2296059
vn -0.9730344 -0.02202995 -0.2296059
vn -0.8879999 -0.02193557 -0.4593201
vn -0.8884374 -0.02193851 -0.4584733
vn -0.5411429 -0.02113172 -0.840665
vn -0.5413622 -0.02113191 -0.8405238
vn -3.061895E-07 -0.02103413 -0.9997788
vn -5.773543E-07 -0.02103413 -0.9997788
vn -5.773543E-07 -0.02103413 -0.9997788
vn -3.061895E-07 -0.02103413 -0.9997788
vn 0.5411422 -0.02113172 -0.8406656
vn 0.5413611 -0.02113191 -0.8405246
vn 0.8879996 -0.0219356 -0.4593208
vn 0.8884372 -0.02193854 -0.4584736
vn 0.9730343 -0.02203001 -0.229606
vn 0.9730343 -0.02203001 -0.229606
vn 6.075298E-07 1 -3.603436E-07
vn 5.927481E-07 1 -1.362875E-07
vn 5.927481E-07 1 -1.362875E-07
vn 6.075298E-07 1 -3.603436E-07
vn 6.814383E-07 1 -1.480625E-06
vn 0 -1 0
vn 0 -1 0
vn 0 -1 0
vn 0 -1 0
vn 0 -1 0
vn 0.003263424 -0.006494669 0.9999737
vn 0.003263424 -0.006494668 0.9999737
vn 0.003263424 -0.006494669 0.9999737
vn 0.003263424 -0.006494668 0.9999737
vn -0.0031774 -0.006492551 0.9999739
vn 0 -0.008991221 0.9999596
vn 0 -0.008991222 0.9999596
vn -0.0031774 -0.00649255 0.9999739
vn -0.0031774 -0.006492551 0.9999739
vn -0.0031774 -0.006492551 0.9999739
vn 0 0.008593847 0.999963
vn 0 0.008593847 0.999963
vn -9.228378E-05 -1 -1.325638E-05
vn -9.228379E-05 -1 -1.325639E-05
vn -9.228378E-05 -1 -1.325639E-05
vn -9.228378E-05 -1 -1.325639E-05
vn -5.966895E-05 -1 -8.425683E-05
vn -5.966896E-05 -1 -8.425683E-05
vn -2.962821E-05 -1 -9.275106E-05
vn 9.596764E-05 -1 -1.484746E-05
vn 9.596764E-05 -1 -1.484746E-05
vn 9.596764E-05 -1 -1.484745E-05
vn 9.596764E-05 -1 -1.484746E-05
vn 5.942832E-05 -1 -8.391716E-05
vn 5.942832E-05 -1 -8.391716E-05
vn 2.843535E-05 -1 -9.345604E-05
vn 0.001094539 0.9999994 0.0001911966
vn 0.001094539 0.9999994 0.0001911967
vn 0.001094539 0.9999994 0.0001911967
vn 0.001094539 0.9999994 0.0001911966
vn 0.000333884 0.9999994 0.001096843
vn -0.0006976957 0.9999993 0.001000951
vn -0.0003348132 0.9999994 0.001104972
vn -0.0006976957 0.9999993 0.001000951
vn -0.001125767 0.9999994 0.0001966052
vn -0.001125767 0.9999994 0.0001966052
vn -0.001125767 0.9999994 0.0001966052
vn -0.001125767 0.9999994 0.0001966052
g handguard_ar15_colt_m4_length_std_LOD1_0
f 3/3/3 2/2/2 1/1/1
f 4/4/4 3/3/3 1/1/1
f 5/5/5 3/3/3 4/4/4
f 6/6/6 5/5/5 4/4/4
f 7/7/7 5/5/5 6/6/6
f 8/8/8 7/7/7 6/6/6
f 9/9/9 7/7/7 8/8/8
f 10/10/10 9/9/9 8/8/8
f 13/13/13 12/12/12 11/11/11
f 14/14/14 13/13/13 11/11/11
f 15/15/15 13/13/13 14/14/14
f 16/16/16 15/15/15 14/14/14
f 17/17/17 15/15/15 16/16/16
f 18/18/18 17/17/17 16/16/16
f 19/19/19 17/17/17 18/18/18
f 20/20/20 19/19/19 18/18/18
f 23/23/23 22/22/22 21/21/21
f 24/24/24 23/23/23 21/21/21
f 25/25/25 24/24/24 21/21/21
f 28/28/28 27/27/27 26/26/26
f 29/29/29 28/28/28 26/26/26
f 30/30/30 28/28/28 29/29/29
f 31/31/31 30/30/30 29/29/29
f 32/32/32 30/30/30 31/31/31
f 33/33/33 32/32/32 31/31/31
f 34/34/34 32/32/32 33/33/33
f 35/35/35 34/34/34 33/33/33
f 36/36/36 34/34/34 35/35/35
f 37/37/37 36/36/36 35/35/35
f 38/38/38 36/36/36 37/37/37
f 39/39/39 38/38/38 37/37/37
f 42/42/42 41/41/41 40/40/40
f 43/43/43 42/42/42 40/40/40
f 44/44/44 42/42/42 43/43/43
f 45/45/45 44/44/44 43/43/43
f 46/46/46 44/44/44 45/45/45
f 47/47/47 46/46/46 45/45/45
f 48/48/48 46/46/46 47/47/47
f 49/49/49 48/48/48 47/47/47
f 52/52/52 51/51/51 50/50/50
f 53/53/53 52/52/52 50/50/50
f 54/54/54 52/52/52 53/53/53
f 55/55/55 54/54/54 53/53/53
f 56/56/56 54/54/54 55/55/55
f 57/57/57 56/56/56 55/55/55
f 58/58/58 56/56/56 57/57/57
f 57/57/57 59/59/59 58/58/58
f 62/62/62 61/61/61 60/60/60
f 60/60/60 63/63/63 62/62/62
f 64/64/64 62/62/62 63/63/63
f 67/67/67 66/66/66 65/65/65
f 66/66/66 68/68/68 65/65/65
f 65/65/65 68/68/68 69/69/69
f 68/68/68 70/70/70 69/69/69
f 69/69/69 70/70/70 71/71/71
f 70/70/70 72/72/72 71/71/71
f 73/73/73 67/67/67 65/65/65
f 74/74/74 67/67/67 73/73/73
f 75/75/75 74/74/74 73/73/73
f 76/76/76 74/74/74 75/75/75
f 79/79/79 78/78/78 77/77/77
f 80/80/80 79/79/79 77/77/77
f 81/81/81 79/79/79 80/80/80
f 82/82/82 81/81/81 80/80/80
f 83/83/83 81/81/81 82/82/82
f 86/86/86 85/85/85 84/84/84
f 87/87/87 86/86/86 84/84/84
f 88/88/88 86/86/86 87/87/87
f 89/89/89 88/88/88 87/87/87
f 90/90/90 89/89/89 87/87/87
f 93/93/93 92/92/92 91/91/91
f 94/94/94 93/93/93 91/91/91
f 91/91/91 92/92/92 95/95/95
f 96/96/96 91/91/91 95/95/95
f 93/93/93 94/94/94 97/97/97
f 98/98/98 93/93/93 97/97/97
f 92/92/92 93/93/93 99/99/99
f 100/100/100 92/92/92 99/99/99
f 101/101/101 94/94/94 91/91/91
f 91/91/91 102/102/102 101/101/101
f 105/105/105 104/104/104 103/103/103
f 106/106/106 105/105/105 103/103/103
f 107/107/107 105/105/105 106/106/106
f 108/108/108 107/107/107 106/106/106
f 109/109/109 107/107/107 108/108/108
f 110/110/110 109/109/109 108/108/108
f 113/113/113 112/112/112 111/111/111
f 114/114/114 113/113/113 111/111/111
f 115/115/115 113/113/113 114/114/114
f 116/116/116 115/115/115 114/114/114
f 117/117/117 115/115/115 116/116/116
f 118/118/118 117/117/117 116/116/116
f 121/121/121 120/120/120 119/119/119
f 122/122/122 121/121/121 119/119/119
f 123/123/123 122/122/122 119/119/119
f 126/126/126 125/125/125 124/124/124
f 127/127/127 126/126/126 124/124/124
f 128/128/128 127/127/127 124/124/124
f 131/131/131 130/130/130 129/129/129
f 132/132/132 131/131/131 129/129/129
f 130/130/130 131/131/131 133/133/133
f 131/131/131 134/134/134 133/133/133
f 134/134/134 135/135/135 133/133/133
f 136/136/136 130/130/130 133/133/133
f 136/136/136 133/133/133 137/137/137
f 138/138/138 136/136/136 137/137/137
f 139/139/139 130/130/130 136/136/136
f 136/136/136 140/140/140 139/139/139
f 143/143/143 142/142/142 141/141/141
f 144/144/144 143/143/143 141/141/141
f 145/145/145 141/141/141 142/142/142
f 146/146/146 145/145/145 142/142/142
f 147/147/147 145/145/145 146/146/146
f 150/150/150 149/149/149 148/148/148
f 151/151/151 150/150/150 148/148/148
f 150/150/150 151/151/151 152/152/152
f 151/151/151 153/153/153 152/152/152
f 152/152/152 153/153/153 154/154/154
f 157/157/157 156/156/156 155/155/155
f 158/158/158 157/157/157 155/155/155
f 157/157/157 158/158/158 159/159/159
f 158/158/158 160/160/160 159/159/159
f 159/159/159 160/160/160 161/161/161
f 161/161/161 160/160/160 162/162/162
f 162/162/162 160/160/160 163/163/163
f 164/164/164 162/162/162 163/163/163
f 165/165/165 164/164/164 163/163/163
f 166/166/166 165/165/165 163/163/163
