g handguard_ak_tdi_akm_l_LOD1
v 0.01898988 -0.02463737 -0.0395456
v -0.0001319218 -0.000625248 -0.0395456
v 0.009421608 -0.04027973 -0.0395456
v -0.0001319218 -0.1547542 -0.0395456
v 0.009421608 -0.1547542 -0.0395456
v -0.009685452 -0.04027973 -0.0395456
v -0.01925372 -0.02463737 -0.0395456
v -0.01925372 -0.000625248 -0.0395456
v -0.009685452 -0.1547542 -0.0395456
v 0.01898988 -0.000625248 -0.0395456
v 0.01898988 -0.02463737 -0.0395456
v 0.01898988 -0.000625248 0.0007576048
v 0.01898988 -0.000625248 -0.0395456
v 0.01898988 -0.04027973 -0.02568173
v 0.01898988 -0.1547542 0.0007576048
v 0.01898988 -0.1547542 -0.02568173
v 0.01898988 -0.04027973 -0.02568173
v 0.009421608 -0.04027973 -0.0395456
v 0.009421608 -0.1547542 -0.0395456
v 0.01898988 -0.1547542 -0.02568173
v 0.01898988 -0.000625248 0.0007576048
v 0.01898988 -0.1547542 0.0007576048
v 0.0148122 -0.1547542 0.0007576048
v -0.0001319218 -0.000625248 0.0007576048
v -0.0001319218 -0.1547542 0.0007576048
v -0.01925372 -0.000625248 -0.0395456
v -0.0001319218 -0.000625248 -0.0395456
v -0.0001319218 -0.000625248 0.0007576048
v -0.01925372 -0.000625248 0.0007576048
v 0.01898988 -0.000625248 0.0007576048
v 0.01898988 -0.000625248 -0.0395456
v 0.009421608 -0.04027973 -0.0395456
v 0.01898988 -0.04027973 -0.02568173
v 0.01898988 -0.02463737 -0.0395456
v -0.01925372 -0.1547542 -0.02568173
v -0.0001319218 -0.1547542 -0.0395456
v -0.009685452 -0.1547542 -0.0395456
v 0.01898988 -0.1547542 -0.02568173
v 0.009421608 -0.1547542 -0.0395456
v -0.0001319218 -0.1547542 0.0007576048
v 0.0148122 -0.1547542 0.0007576048
v -0.01507604 -0.1547542 0.0007576048
v -0.01925372 -0.1547542 0.0007576048
v 0.01898988 -0.1547542 0.0007576048
v -0.01925372 -0.02463737 -0.0395456
v -0.01925372 -0.000625248 -0.0395456
v -0.01925372 -0.000625248 0.0007576048
v -0.01925372 -0.04027973 -0.02568173
v -0.01925372 -0.1547542 0.0007576048
v -0.01925372 -0.1547542 -0.02568173
v -0.009685452 -0.1547542 -0.0395456
v -0.009685452 -0.04027973 -0.0395456
v -0.01925372 -0.04027973 -0.02568173
v -0.01925372 -0.1547542 -0.02568173
v -0.01925372 -0.000625248 0.0007576048
v -0.0001319218 -0.000625248 0.0007576048
v -0.01507604 -0.1547542 0.0007576048
v -0.01925372 -0.1547542 0.0007576048
v -0.0001319218 -0.1547542 0.0007576048
v -0.009685452 -0.04027973 -0.0395456
v -0.01925372 -0.02463737 -0.0395456
v -0.01925372 -0.04027973 -0.02568173
vt 0.817874 0.581163
vt 0.969857 0.462446
vt 0.720759 0.521759
vt 0.015007 0.462446
vt 0.015007 0.521759
vt 0.720759 0.403134
vt 0.817874 0.343729
vt 0.969857 0.343729
vt 0.015007 0.403134
vt 0.969857 0.581163
vt 0.80235 0.600106
vt 0.951838 0.84622
vt 0.951838 0.600106
vt 0.706828 0.684766
vt 0.012658 0.84622
vt 0.012658 0.684766
vt 0.7317454 0.648762
vt 0.7317454 0.5417814
vt 0.009807622 0.5417824
vt 0.009807622 0.648762
vt 0.9882838 0.8685886
vt 0.01154188 0.8685865
vt 0.01154188 0.89512
vt 0.9882838 0.9900273
vt 0.01154188 0.9900273
vt 0.393721 0.187831
vt 0.393721 0.286125
vt 0.600897 0.286125
vt 0.600897 0.187831
vt 0.600897 0.38442
vt 0.393721 0.38442
vt 0.6423697 0.3646955
vt 0.6423697 0.1980525
vt 0.8156173 0.3109292
vt 0.196592 0.386624
vt 0.125522 0.2886
vt 0.125522 0.337574
vt 0.196592 0.190576
vt 0.125522 0.239625
vt 0.332128 0.2886
vt 0.332128 0.211992
vt 0.332128 0.365208
vt 0.332128 0.386624
vt 0.332128 0.190576
vt 0.80235 0.254574
vt 0.951838 0.254574
vt 0.951838 0.008459
vt 0.706828 0.169913
vt 0.012658 0.00846
vt 0.012658 0.169913
vt 0.009807622 0.5417824
vt 0.7317454 0.5417814
vt 0.7317454 0.648762
vt 0.009807622 0.648762
vt 0.9882838 0.8685886
vt 0.9882838 0.9900273
vt 0.01154188 0.89512
vt 0.01154188 0.8685865
vt 0.01154188 0.9900273
vt 0.6423697 0.3646955
vt 0.8156173 0.3109292
vt 0.6423697 0.1980525
vn 0 0 -1
vn 0 0 -1
vn 0 0 -1
vn 0 0 -1
vn 0 0 -1
vn 0 0 -1
vn 0 0 -1
vn 0 0 -1
vn 0 0 -1
vn 0 0 -1
vn 1 0 0
vn 1 0 0
vn 1 0 0
vn 1 0 0
vn 1 0 0
vn 1 0 0
vn 0.8230221 0 -0.5680093
vn 0.8230221 0 -0.5680093
vn 0.8230221 0 -0.5680093
vn 0.8230221 0 -0.5680093
vn 0 0 1
vn 0 0 1
vn 0 0 1
vn 0 0 1
vn 0 0 1
vn 0 1 0
vn 0 1 0
vn 0 1 0
vn 0 1 0
vn 0 1 0
vn 0 1 0
vn 0.7351174 -0.4496583 -0.5073557
vn 0.7351174 -0.4496583 -0.5073557
vn 0.7351174 -0.4496583 -0.5073557
vn 0 -1 0
vn 0 -1 0
vn 0 -1 0
vn 0 -1 0
vn 0 -1 0
vn -1.583212E-06 -1 0
vn 0 -1 0
vn 0 -1 0
vn 0 -1 0
vn 0 -1 0
vn -1 0 0
vn -1 0 0
vn -1 0 0
vn -1 0 0
vn -1 0 0
vn -1 0 0
vn -0.8230221 0 -0.5680093
vn -0.8230221 0 -0.5680093
vn -0.8230221 0 -0.5680093
vn -0.8230221 0 -0.5680093
vn 0 0 1
vn 0 0 1
vn 0 0 1
vn 0 0 1
vn 0 0 1
vn -0.7351174 -0.4496583 -0.5073557
vn -0.7351174 -0.4496583 -0.5073557
vn -0.7351174 -0.4496583 -0.5073557
g handguard_ak_tdi_akm_l_LOD1_0
f 3/3/3 2/2/2 1/1/1
f 4/4/4 2/2/2 3/3/3
f 5/5/5 4/4/4 3/3/3
f 6/6/6 2/2/2 4/4/4
f 2/2/2 6/6/6 7/7/7
f 8/8/8 2/2/2 7/7/7
f 9/9/9 6/6/6 4/4/4
f 1/1/1 2/2/2 10/10/10
f 13/13/13 12/12/12 11/11/11
f 11/11/11 12/12/12 14/14/14
f 15/15/15 14/14/14 12/12/12
f 16/16/16 14/14/14 15/15/15
f 19/19/19 18/18/18 17/17/17
f 20/20/20 19/19/19 17/17/17
f 23/23/23 22/22/22 21/21/21
f 24/24/24 23/23/23 21/21/21
f 24/24/24 25/25/25 23/23/23
f 28/28/28 27/27/27 26/26/26
f 29/29/29 28/28/28 26/26/26
f 28/28/28 30/30/30 27/27/27
f 30/30/30 31/31/31 27/27/27
f 34/34/34 33/33/33 32/32/32
f 37/37/37 36/36/36 35/35/35
f 36/36/36 38/38/38 35/35/35
f 39/39/39 38/38/38 36/36/36
f 35/35/35 38/38/38 40/40/40
f 41/41/41 40/40/40 38/38/38
f 42/42/42 35/35/35 40/40/40
f 35/35/35 42/42/42 43/43/43
f 41/41/41 38/38/38 44/44/44
f 47/47/47 46/46/46 45/45/45
f 47/47/47 45/45/45 48/48/48
f 48/48/48 49/49/49 47/47/47
f 48/48/48 50/50/50 49/49/49
f 53/53/53 52/52/52 51/51/51
f 54/54/54 53/53/53 51/51/51
f 57/57/57 56/56/56 55/55/55
f 58/58/58 57/57/57 55/55/55
f 59/59/59 56/56/56 57/57/57
f 62/62/62 61/61/61 60/60/60
