g handguard_ar15_war_sport_lvoa_c_LOD1
v 3.814697E-06 0.008173893 0.02031284
v 0.38664 0.008173895 0.02031283
v 0.3811135 -0.003910568 0.02031284
v 3.814697E-06 -0.01408131 0.02031284
v 0.3844747 -0.01408131 0.02031283
v 0.3946247 0.01308944 0.01732283
v 3.814697E-06 0.008173893 0.02031284
v 3.814697E-06 0.02806246 0.008215184
v 0.38664 0.008173895 0.02031283
v 0.411579 0.02806246 0.008215143
v 0.411579 0.01313592 0.01729456
v 0.3935049 -0.02078694 0.01487879
v 0.411579 -0.03040631 0.007083554
v 3.814697E-06 -0.03040631 0.007083602
v 0.411579 -0.02074089 0.01491612
v 0.3845674 -0.01436186 0.02008547
v 3.814697E-06 -0.01408131 0.02031284
v 0.3844747 -0.01408131 0.02031283
v 0.3845674 -0.01436186 0.02008547
v 0.3935049 -0.02078694 -0.01490854
v 0.3935049 -0.02078694 0.01487879
v 0.3845674 -0.01436186 -0.02011522
v 0.3946247 0.01308944 0.01732283
v 0.411579 0.01313592 -0.0173243
v 0.3946247 0.01308944 -0.01735258
v 0.411579 0.01313592 0.01729456
v 0.3845674 -0.01436186 -0.02011522
v 0.3811135 -0.003910568 -0.02034258
v 0.3844748 -0.01408131 -0.02034257
v 0.3845674 -0.01436186 0.02008547
v 0.3811135 -0.003910568 0.02031284
v 0.3844747 -0.01408131 0.02031283
v 0.411579 -0.03040631 0.007083554
v 3.814697E-06 -0.03040631 -1.487255E-05
v 3.814697E-06 -0.03040631 0.007083602
v 0.411579 -0.03040631 -1.487255E-05
v 0.411579 -0.03040631 -0.007113298
v 3.814697E-06 -0.03040631 -0.007113345
v 3.814697E-06 0.02806246 0.008215184
v 0.411579 0.02806246 -0.008244886
v 0.411579 0.02806246 0.008215143
v 3.814697E-06 0.02806246 -0.008244928
v 0.411579 0.02806246 0.008215143
v 0.411579 0.01313592 -0.0173243
v 0.411579 0.01313592 0.01729456
v 0.411579 0.02806246 -0.008244886
v 3.814697E-06 0.008173893 -0.02034258
v 0.3811135 -0.003910568 -0.02034258
v 0.38664 0.008173895 -0.02034257
v 3.814697E-06 -0.01408131 -0.02034258
v 0.3844748 -0.01408131 -0.02034257
v 0.3946247 0.01308944 -0.01735258
v 3.814697E-06 0.008173893 -0.02034258
v 0.38664 0.008173895 -0.02034257
v 3.814697E-06 0.02806246 -0.008244928
v 0.411579 0.02806246 -0.008244886
v 0.411579 0.01313592 -0.0173243
v 0.3935049 -0.02078694 -0.01490854
v 0.411579 -0.03040631 -0.007113298
v 0.411579 -0.02074089 -0.01494586
v 3.814697E-06 -0.03040631 -0.007113345
v 0.3845674 -0.01436186 -0.02011522
v 3.814697E-06 -0.01408131 -0.02034258
v 0.3844748 -0.01408131 -0.02034257
v 0.3946247 0.01308944 -0.01735258
v 0.38664 0.008173895 0.02031283
v 0.3946247 0.01308944 0.01732283
v 0.38664 0.008173895 -0.02034257
v 0.38664 0.008173895 0.02031283
v 0.3811135 -0.003910568 -0.02034258
v 0.3811135 -0.003910568 0.02031284
v 0.38664 0.008173895 -0.02034257
v 0.411579 -0.02074089 -0.01494586
v 0.3935049 -0.02078694 0.01487879
v 0.3935049 -0.02078694 -0.01490854
v 0.411579 -0.02074089 0.01491612
v 3.814697E-06 0.008173893 0.02031284
v 3.814697E-06 0.02806246 -0.008244928
v 3.814697E-06 0.02806246 0.008215184
v 3.814697E-06 0.008173893 -0.02034258
v 3.814697E-06 -0.01408131 -0.02034258
v 3.814697E-06 -0.01408131 0.02031284
v 3.814697E-06 -0.03040631 -1.487255E-05
v 3.814697E-06 -0.03040631 -0.007113345
v 3.814697E-06 -0.03040631 0.007083602
v 0.411579 -0.02074089 0.01491612
v 0.411579 -0.03040631 -1.487255E-05
v 0.411579 -0.03040631 0.007083554
v 0.411579 -0.02074089 -0.01494586
v 0.411579 -0.03040631 -0.007113298
vt 0.009367842 0.3629517
vt 0.9309672 0.3629517
vt 0.9177793 0.2758558
vt 0.009341104 0.2038104
vt 0.9257789 0.2038104
vt 0.9511749 0.4323512
vt 0.01054141 0.3926397
vt 0.01056985 0.5591041
vt 0.9321357 0.3912377
vt 0.9916086 0.5576123
vt 0.9915878 0.4326783
vt 0.9482127 0.1108444
vt 0.9912795 0.02298757
vt 0.01023777 0.02298757
vt 0.9912944 0.111203
vt 0.9269193 0.1700136
vt 0.01026316 0.1739897
vt 0.9266985 0.172596
vt 0.5651066 0.9565156
vt 0.6485191 0.8778045
vt 0.5775174 0.8778045
vt 0.6609299 0.956516
vt 0.7560042 0.8618087
vt 0.8385898 0.9830469
vt 0.8386573 0.8618087
vt 0.7560715 0.9830469
vt 0.5542787 0.8806012
vt 0.5548205 0.9593127
vt 0.5548205 0.882714
vt 0.4584554 0.8806007
vt 0.4579133 0.9593127
vt 0.4579133 0.8827136
vt 0.9909562 0.8386476
vt 0.009918109 0.7878876
vt 0.009918109 0.8386482
vt 0.9909562 0.7878876
vt 0.9909562 0.7371275
vt 0.009918109 0.7371275
vt 0.9921629 0.7070878
vt 0.01112573 0.5893833
vt 0.01112573 0.707087
vt 0.9921629 0.5893833
vt 0.6831767 0.9701764
vt 0.7440531 0.8634393
vt 0.6615347 0.8634393
vt 0.7224112 0.9701764
vt 0.009367969 0.3629518
vt 0.9177791 0.2758558
vt 0.9309669 0.3629518
vt 0.009341237 0.2038104
vt 0.9257787 0.2038104
vt 0.9511749 0.4323512
vt 0.01054141 0.3926397
vt 0.9321357 0.3912377
vt 0.01056985 0.5591041
vt 0.9916086 0.5576123
vt 0.9915878 0.4326783
vt 0.9482127 0.1108444
vt 0.9912795 0.02298757
vt 0.9912944 0.111203
vt 0.01023777 0.02298757
vt 0.9269193 0.1700136
vt 0.01026316 0.1739897
vt 0.9266985 0.172596
vt 0.3241851 0.9613267
vt 0.2344049 0.8942767
vt 0.241532 0.9613267
vt 0.3313121 0.8942767
vt 0.3478017 0.9737838
vt 0.4447089 0.8787621
vt 0.3478017 0.8787621
vt 0.4447089 0.9737838
vt 0.9156854 0.8564199
vt 0.844595 0.9856661
vt 0.9155966 0.9856661
vt 0.8445058 0.8564199
vt 0.987266 0.3219146
vt 0.954208 0.4217456
vt 0.973262 0.4217456
vt 0.940204 0.3219146
vt 0.940204 0.210205
vt 0.987266 0.210205
vt 0.963735 0.128261
vt 0.955518 0.128261
vt 0.9719521 0.128261
vt 0.9252331 0.9471658
vt 0.9608229 0.8780499
vt 0.9439029 0.8780499
vt 0.9964127 0.9471658
vt 0.9777429 0.8780499
vn 0 3.889468E-07 1
vn 0 3.889468E-07 1
vn 0 3.889468E-07 1
vn 0 -4.647333E-07 1
vn 0 -4.647333E-07 1
vn 0 0.5196827 0.8543594
vn 0 0.5196827 0.8543594
vn 0 0.5196827 0.8543594
vn 0 0.5196837 0.8543587
vn 2.054695E-07 0.5196837 0.8543587
vn 2.054695E-07 0.5196837 0.8543587
vn 0 -0.6295947 0.7769237
vn 0 -0.6295947 0.7769237
vn 0 -0.6295947 0.7769237
vn 0 -0.6295949 0.7769236
vn 0 -0.629607 0.7769138
vn 0 -0.6296071 0.7769136
vn 0 -0.6296071 0.7769138
vn 0.8640917 0.5033345 -6.433377E-07
vn 0.3429321 0.9393602 0
vn 0.3429322 0.9393601 0
vn 0.8640918 0.5033343 1.684807E-05
vn 0.2980281 -0.9545571 1.639336E-07
vn 0.002741461 -0.9999963 0
vn 0.2980274 -0.9545574 0
vn 0.002741461 -0.9999963 0
vn 0.8640918 0.5033343 1.684807E-05
vn 0.9984949 -0.05484521 6.011034E-07
vn 0.9494914 0.313793 8.512507E-05
vn 0.8640917 0.5033345 -6.433377E-07
vn 0.998495 -0.05484449 0
vn 0.9494919 0.3137915 -3.250511E-06
vn 0 -1 -3.358752E-07
vn 0 -1 0
vn 0 -1 -3.358729E-07
vn 0 -1 0
vn 0 -1 3.358753E-07
vn 0 -1 3.358731E-07
vn 0 1 0
vn 0 1 0
vn 0 1 0
vn 0 1 0
vn 1 1.848446E-06 4.133246E-07
vn 1 2.068888E-06 2.844875E-07
vn 1 1.612956E-06 5.509565E-07
vn 1 2.555648E-06 0
vn 0 2.917101E-07 -1
vn 0 2.917101E-07 -1
vn 0 2.917101E-07 -1
vn 0 -3.485501E-07 -1
vn 0 -3.4855E-07 -1
vn 0 0.5196837 -0.8543587
vn 0 0.5196837 -0.8543587
vn 0 0.5196837 -0.8543587
vn 0 0.5196826 -0.8543594
vn 0 0.5196838 -0.8543587
vn 1.152327E-07 0.5196837 -0.8543587
vn 0 -0.6295947 -0.7769237
vn 0 -0.6295947 -0.7769237
vn 0 -0.6295947 -0.7769237
vn 0 -0.6295946 -0.7769239
vn 0 -0.6296071 -0.7769138
vn 0 -0.6296071 -0.7769136
vn 0 -0.6296071 -0.7769138
vn 0.2980274 -0.9545574 0
vn 0.7707062 -0.6371908 1.082564E-07
vn 0.2980281 -0.9545571 1.639336E-07
vn 0.7707058 -0.6371911 0
vn 0.7707062 -0.6371908 1.082564E-07
vn 0.9984949 -0.05484521 6.011034E-07
vn 0.998495 -0.05484449 0
vn 0.7707058 -0.6371911 0
vn -0.002548132 0.9999968 0
vn 0.3429322 0.9393601 0
vn 0.3429321 0.9393602 0
vn -0.002548135 0.9999968 0
vn -1 0 0
vn -1 0 0
vn -1 0 0
vn -1 0 0
vn -1 0 0
vn -1 0 0
vn -1 0 0
vn -1 0 0
vn -1 0 0
vn 1 -2.610456E-06 4.124093E-07
vn 1 -2.960059E-06 4.051155E-07
vn 1 -1.973372E-06 0
vn 1 -3.309662E-06 4.124099E-07
vn 1 -3.946744E-06 0
g handguard_ar15_war_sport_lvoa_c_LOD1_0
f 3/3/3 2/2/2 1/1/1
f 4/4/4 3/3/3 1/1/1
f 5/5/5 3/3/3 4/4/4
f 8/8/8 7/7/7 6/6/6
f 9/9/9 6/6/6 7/7/7
f 8/8/8 6/6/6 10/10/10
f 11/11/11 10/10/10 6/6/6
f 14/14/14 13/13/13 12/12/12
f 15/15/15 12/12/12 13/13/13
f 16/16/16 14/14/14 12/12/12
f 17/17/17 14/14/14 16/16/16
f 18/18/18 17/17/17 16/16/16
f 21/21/21 20/20/20 19/19/19
f 22/22/22 19/19/19 20/20/20
f 25/25/25 24/24/24 23/23/23
f 26/26/26 23/23/23 24/24/24
f 29/29/29 28/28/28 27/27/27
f 27/27/27 28/28/28 30/30/30
f 28/28/28 31/31/31 30/30/30
f 30/30/30 31/31/31 32/32/32
f 35/35/35 34/34/34 33/33/33
f 36/36/36 33/33/33 34/34/34
f 36/36/36 34/34/34 37/37/37
f 38/38/38 37/37/37 34/34/34
f 41/41/41 40/40/40 39/39/39
f 42/42/42 39/39/39 40/40/40
f 45/45/45 44/44/44 43/43/43
f 46/46/46 43/43/43 44/44/44
f 49/49/49 48/48/48 47/47/47
f 48/48/48 50/50/50 47/47/47
f 48/48/48 51/51/51 50/50/50
f 54/54/54 53/53/53 52/52/52
f 55/55/55 52/52/52 53/53/53
f 55/55/55 56/56/56 52/52/52
f 57/57/57 52/52/52 56/56/56
f 60/60/60 59/59/59 58/58/58
f 61/61/61 58/58/58 59/59/59
f 61/61/61 62/62/62 58/58/58
f 63/63/63 62/62/62 61/61/61
f 64/64/64 62/62/62 63/63/63
f 67/67/67 66/66/66 65/65/65
f 68/68/68 65/65/65 66/66/66
f 71/71/71 70/70/70 69/69/69
f 72/72/72 69/69/69 70/70/70
f 75/75/75 74/74/74 73/73/73
f 76/76/76 73/73/73 74/74/74
f 79/79/79 78/78/78 77/77/77
f 80/80/80 77/77/77 78/78/78
f 80/80/80 81/81/81 77/77/77
f 82/82/82 77/77/77 81/81/81
f 82/82/82 81/81/81 83/83/83
f 81/81/81 84/84/84 83/83/83
f 85/85/85 82/82/82 83/83/83
f 88/88/88 87/87/87 86/86/86
f 87/87/87 89/89/89 86/86/86
f 90/90/90 89/89/89 87/87/87
