g handguard_ar15_magpul_moe_sl_carabine_length_LOD1
v 0.01911159 -0.1922485 0.01740318
v 0.02422812 -0.01906837 -0.002521269
v 0.02452322 -0.2301601 -0.002521269
v 0.01945065 -0.2273046 0.01531431
v 0.02070545 -0.01906837 -0.01968122
v 0.02041578 -0.2319481 -0.02162366
v 0.01120401 -0.2192848 -0.0319665
v 0.01244832 -0.2275562 -0.03437926
v 0.01244832 -0.2319481 -0.03437926
v 0.01911162 -0.01924263 0.01583908
v 0.01120405 -0.005415077 -0.0319665
v 0.0148673 -0.005415058 -0.0275917
v 0.01911159 -0.1922485 0.01740318
v 0.01911159 -0.1922485 0.01740318
v 0.01911163 -0.005986328 0.01878459
v 0.01911162 -0.01924263 0.01583908
v 0.004936229 -0.005788297 0.02949481
v 0.004936199 -0.1908184 0.03021812
v 0.01911159 -0.1922485 0.01740318
v 0.01945065 -0.2273046 0.01531431
v -0.01961835 -0.2273046 0.01531431
v -0.01927929 -0.1922485 0.01740318
v 0.01945065 -0.2273046 0.01531431
v 0.02452322 -0.2301601 -0.002521269
v -0.02469093 -0.2301601 -0.002521269
v -0.01961835 -0.2273046 0.01531431
v 0.02041578 -0.2319481 -0.02162366
v -0.02058349 -0.2319481 -0.02162366
v -0.02469093 -0.2301601 -0.002521269
v 0.02452322 -0.2301601 -0.002521269
v 0.01120401 -0.2192848 -0.0319665
v -0.01137171 -0.2192848 -0.0319665
v -0.01261603 -0.2275562 -0.03437926
v 0.01244832 -0.2275562 -0.03437926
v 0.01244832 -0.2319481 -0.03437926
v -0.01261603 -0.2319481 -0.03437926
v -0.01137168 -0.005415077 -0.0319665
v 0.01120405 -0.005415077 -0.0319665
v 0.01120405 -0.005415077 -0.0319665
v 0.0148673 -0.005415058 -0.0275917
v -0.01503493 -0.005415058 -0.0275917
v -0.01137168 -0.005415077 -0.0319665
v 0.01244832 -0.2319481 -0.03437926
v -0.01261603 -0.2319481 -0.03437926
v -0.02058349 -0.2319481 -0.02162366
v 0.02041578 -0.2319481 -0.02162366
v 0.0148673 -0.005415058 -0.0275917
v 0.02070545 -0.01906837 -0.01968122
v -0.02087308 -0.01906837 -0.01968122
v -0.01503493 -0.005415058 -0.0275917
v 0.02070545 -0.01906837 -0.01968122
v 0.02422812 -0.01906837 -0.002521269
v -0.02439575 -0.01906837 -0.002521269
v -0.02087308 -0.01906837 -0.01968122
v 0.004936229 -0.005788297 0.02949481
v -0.005103859 -0.005788297 0.02949481
v -0.01927926 -0.005986328 0.01878459
v 0.01911163 -0.005986328 0.01878459
v -0.01927929 -0.1922485 0.01740318
v -0.01961835 -0.2273046 0.01531431
v -0.02469093 -0.2301601 -0.002521269
v -0.02439575 -0.01906837 -0.002521269
v -0.02087308 -0.01906837 -0.01968122
v -0.02058349 -0.2319481 -0.02162366
v -0.01137171 -0.2192848 -0.0319665
v -0.01261603 -0.2275562 -0.03437926
v -0.01261603 -0.2319481 -0.03437926
v -0.01927925 -0.01924263 0.01583908
v -0.01137168 -0.005415077 -0.0319665
v -0.01503493 -0.005415058 -0.0275917
v -0.01927929 -0.1922485 0.01740318
v -0.005103859 -0.005788297 0.02949481
v -0.005103889 -0.1908184 0.03021812
v -0.01927926 -0.005986328 0.01878459
v -0.01927925 -0.01924263 0.01583908
v 0.01911162 -0.01924263 0.01583908
v -0.01927925 -0.01924263 0.01583908
v -0.02439575 -0.01906837 -0.002521269
v 0.02422812 -0.01906837 -0.002521269
v -0.01927926 -0.005986328 0.01878459
v -0.01927925 -0.01924263 0.01583908
v 0.01911162 -0.01924263 0.01583908
v 0.01911163 -0.005986328 0.01878459
v 0.01911159 -0.1922485 0.01740318
v 0.01911159 -0.1922485 0.01740318
v -0.01927929 -0.1922485 0.01740318
v -0.005103889 -0.1908184 0.03021812
v 0.004936199 -0.1908184 0.03021812
v 0.004936199 -0.1908184 0.03021812
v -0.005103889 -0.1908184 0.03021812
v -0.005103859 -0.005788297 0.02949481
v 0.004936229 -0.005788297 0.02949481
vt 0.173409 0.4990429
vt 0.9164557 0.4126652
vt 0.01151714 0.4077519
vt 0.0232157 0.4891564
vt 0.9175598 0.3351542
vt 0.005031434 0.3206216
vt 0.05980016 0.2605461
vt 0.02294745 0.2550262
vt 0.004191281 0.2553624
vt 0.9151324 0.4957573
vt 0.9767525 0.2677352
vt 0.976554 0.2923225
vt 0.006186202 0.6135247
vt 0.006186202 0.6135247
vt 0.8199796 0.6167537
vt 0.7621796 0.6108986
vt 0.8213698 0.6943457
vt 0.01228862 0.7001997
vt 0.1726844 0.9954681
vt 0.1741522 0.8442573
vt 0.005043964 0.8442572
vt 0.00651147 0.995468
vt 0.5878534 0.9214584
vt 0.6098096 0.8436846
vt 0.3967889 0.8436846
vt 0.4187453 0.9214584
vt 0.1964855 0.926617
vt 0.3739487 0.926617
vt 0.3917274 0.8440071
vt 0.1787067 0.8440071
vt 0.06368899 0.6029057
vt 0.06368899 0.5045816
vt 0.02679251 0.4991458
vt 0.02679251 0.6083086
vt 0.007982317 0.6083006
vt 0.007982317 0.4991378
vt 0.9896216 0.5045899
vt 0.9896216 0.602914
vt 0.6833615 0.9291804
vt 0.667505 0.9480169
vt 0.7969373 0.9480169
vt 0.7810808 0.9291804
vt 0.9546337 0.8962263
vt 0.8461441 0.8962264
vt 0.8116575 0.951149
vt 0.9891204 0.951149
vt 0.9184986 0.8341946
vt 0.9881617 0.8591128
vt 0.9881618 0.6816469
vt 0.9184986 0.7065653
vt 0.9112202 0.6899389
vt 0.8354621 0.6749033
vt 0.8354621 0.8824408
vt 0.9112202 0.8674054
vt 0.9266866 0.08140539
vt 0.9266866 0.1251139
vt 0.9730531 0.1868251
vt 0.973053 0.01969423
vt 0.1733535 0.005055234
vt 0.02326543 0.0154025
vt 0.01177023 0.09704728
vt 0.9161904 0.08924319
vt 0.9174615 0.1663951
vt 0.005555275 0.1846719
vt 0.06044225 0.2446844
vt 0.02348124 0.2502932
vt 0.00469392 0.2499648
vt 0.9146707 0.006251812
vt 0.976868 0.2333906
vt 0.9765606 0.2088185
vt 0.006086591 0.7896842
vt 0.8212676 0.7088625
vt 0.0121882 0.7030091
vt 0.8198773 0.7864545
vt 0.7620782 0.7923099
vt 0.6383253 0.9232512
vt 0.804498 0.923251
vt 0.8266443 0.844192
vt 0.6161787 0.8441923
vt 0.9926464 0.6679256
vt 0.9926463 0.6088082
vt 0.8264738 0.6088082
vt 0.8264737 0.6679256
vt 0.9837882 0.4850736
vt 0.9837882 0.4850736
vt 0.9837883 0.3179432
vt 0.9279752 0.379654
vt 0.9279751 0.4233625
vt 0.005507421 0.7956714
vt 0.005507421 0.8393798
vt 0.8064072 0.8393798
vt 0.8064072 0.7956715
vn 0.9651002 0.0003337879 0.2618805
vn 0.9995118 0.00162123 0.03120271
vn 0.999954 0.0006675737 0.009572531
vn 0.9651654 0.0002861021 0.2616404
vn 0.8839302 -0.0001907334 -0.4676188
vn 0.9113026 0.04348732 -0.4094341
vn 0.7927153 0.08144352 -0.6041269
vn 0.8608997 0.148202 -0.4867111
vn 0.8481423 0 -0.5297686
vn 0.9632877 0.002384199 0.2684608
vn 0.7904898 -0.001049043 -0.6124743
vn 0.7904898 -0.001049043 -0.6124743
vn 1 0 0
vn 0.9178377 0.001239773 0.396954
vn 0.677969 -0.005435959 0.7350704
vn 1 0 0
vn 0.6073586 -0.00534057 0.7944098
vn 0.670777 0.002908725 0.7416533
vn 0 -0.05946135 0.9982306
vn 0 -0.05950886 0.9982278
vn 0 -0.05950886 0.9982278
vn 0 -0.05946135 0.9982306
vn 0 -0.9874241 0.1580937
vn 0 -0.9921649 0.1249355
vn 0 -0.9921649 0.1249355
vn 0 -0.9874241 0.1580937
vn 0 -0.9982291 0.05948651
vn 0 -0.9982291 0.05948651
vn 0 -0.9921649 0.1249355
vn 0 -0.9921649 0.1249355
vn 0 0.1476269 -0.9890431
vn 0 0.1476269 -0.9890431
vn 0 0.1346589 -0.990892
vn 0 0.1346589 -0.990892
vn 0 0 -1
vn 0 0 -1
vn 0 0 -1
vn 0 0 -1
vn 0 1 0
vn 0 1 0
vn 0 1 0
vn 0 1 0
vn 0 -1 0
vn 0 -1 0
vn 0 -0.9982291 0.05948651
vn 0 -0.9982291 0.05948651
vn 0 0.5013369 0.8652521
vn 0 0.5013369 0.8652521
vn 0 0.5013369 0.8652521
vn 0 0.5013369 0.8652521
vn 0 1 0
vn 0 0.9999894 0.004621813
vn 0 0.9999894 0.004621813
vn 0 1 0
vn 0 0.9998293 -0.01847739
vn 0 0.9998293 -0.01847739
vn 0 0.9998293 -0.01847739
vn 0 0.9998293 -0.01847739
vn -0.9651002 0.0003337879 0.2618805
vn -0.9651654 0.0002861021 0.2616404
vn -0.999954 0.0006675737 0.009572531
vn -0.9995118 0.00162123 0.03120271
vn -0.8839302 -0.0001907334 -0.4676188
vn -0.9113026 0.04348732 -0.4094341
vn -0.7927153 0.08144352 -0.6041269
vn -0.8608997 0.148202 -0.4867111
vn -0.8481423 0 -0.5297686
vn -0.9632877 0.002384199 0.2684608
vn -0.7904898 -0.001049043 -0.6124743
vn -0.7904898 -0.001049043 -0.6124743
vn -0.6726632 0.002336505 0.7399451
vn -0.6073586 -0.00534057 0.7944098
vn -0.670777 0.002908725 0.7416533
vn -0.677969 -0.005435959 0.7350704
vn -1 0 0
vn 0 0.9999551 0.00948932
vn 0 0.9999551 0.00948932
vn 0 0.9999894 0.004621813
vn 0 0.9999894 0.004621813
vn 0 0.2168699 -0.9762005
vn 0 0.2168674 -0.9762011
vn 0 0.2168674 -0.9762011
vn 0 0.2168699 -0.9762005
vn 0 -0.9938314 0.1109012
vn 0 -0.9938314 0.1109012
vn 0 -0.9938314 0.1109012
vn 0 -0.9938301 0.110913
vn 0 -0.9938301 0.110913
vn 0 0.003910039 0.9999924
vn 0 0.003910039 0.9999924
vn 0 0.003910039 0.9999924
vn 0 0.003910039 0.9999924
g handguard_ar15_magpul_moe_sl_carabine_length_LOD1_0
f 3/3/3 2/2/2 1/1/1
f 4/4/4 3/3/3 1/1/1
f 2/2/2 3/3/3 5/5/5
f 3/3/3 6/6/6 5/5/5
f 5/5/5 6/6/6 7/7/7
f 8/8/8 7/7/7 6/6/6
f 9/9/9 8/8/8 6/6/6
f 10/10/10 1/1/1 2/2/2
f 5/5/5 7/7/7 11/11/11
f 12/12/12 5/5/5 11/11/11
f 15/15/15 14/14/14 13/13/13
f 16/16/16 15/15/15 13/13/13
f 17/17/17 14/14/14 15/15/15
f 18/18/18 14/14/14 17/17/17
f 21/21/21 20/20/20 19/19/19
f 22/22/22 21/21/21 19/19/19
f 25/25/25 24/24/24 23/23/23
f 26/26/26 25/25/25 23/23/23
f 29/29/29 28/28/28 27/27/27
f 30/30/30 29/29/29 27/27/27
f 33/33/33 32/32/32 31/31/31
f 34/34/34 33/33/33 31/31/31
f 33/33/33 34/34/34 35/35/35
f 36/36/36 33/33/33 35/35/35
f 32/32/32 37/37/37 31/31/31
f 37/37/37 38/38/38 31/31/31
f 41/41/41 40/40/40 39/39/39
f 42/42/42 41/41/41 39/39/39
f 45/45/45 44/44/44 43/43/43
f 46/46/46 45/45/45 43/43/43
f 49/49/49 48/48/48 47/47/47
f 50/50/50 49/49/49 47/47/47
f 53/53/53 52/52/52 51/51/51
f 54/54/54 53/53/53 51/51/51
f 57/57/57 56/56/56 55/55/55
f 58/58/58 57/57/57 55/55/55
f 61/61/61 60/60/60 59/59/59
f 62/62/62 61/61/61 59/59/59
f 62/62/62 63/63/63 61/61/61
f 63/63/63 64/64/64 61/61/61
f 64/64/64 63/63/63 65/65/65
f 65/65/65 66/66/66 64/64/64
f 66/66/66 67/67/67 64/64/64
f 59/59/59 68/68/68 62/62/62
f 69/69/69 65/65/65 63/63/63
f 70/70/70 69/69/69 63/63/63
f 73/73/73 72/72/72 71/71/71
f 74/74/74 71/71/71 72/72/72
f 75/75/75 71/71/71 74/74/74
f 78/78/78 77/77/77 76/76/76
f 79/79/79 78/78/78 76/76/76
f 82/82/82 81/81/81 80/80/80
f 83/83/83 82/82/82 80/80/80
f 86/86/86 85/85/85 84/84/84
f 84/84/84 87/87/87 86/86/86
f 84/84/84 88/88/88 87/87/87
f 91/91/91 90/90/90 89/89/89
f 92/92/92 91/91/91 89/89/89
