g handguard_ak_strike_industries_trax_1_LOD1
v -0.01299983 -0.001440854 -0.03219136
v -0.01569024 -0.1521899 -0.02431017
v -0.01299985 -0.1521017 -0.0321914
v -0.01569022 -0.001352668 -0.02431014
v -0.007441958 -0.001440849 -0.03666167
v -0.007441978 -0.1521017 -0.03666171
v -0.01569024 -0.1524411 0.01262228
v 0.01297357 -0.1524726 0.01984568
v 0.0157534 -0.1524411 0.01262228
v -0.01291041 -0.1524726 0.01984568
v -0.00748565 -0.1525041 0.02372774
v 0.00754881 -0.1525041 0.02372774
v -0.01044838 -0.1525357 0.02815004
v 0.007802427 -0.1525672 0.03115379
v 0.01051154 -0.1525357 0.02815004
v -0.007739265 -0.1525672 0.03115379
v 0.007505118 -0.1521017 -0.03666171
v -0.007441958 -0.001440849 -0.03666167
v -0.007441978 -0.1521017 -0.03666171
v 0.007505138 -0.001440844 -0.03666168
v -0.01299985 -0.1521017 -0.0321914
v 0.01575339 -0.1521899 -0.02431018
v 0.01306299 -0.1521017 -0.0321914
v -0.01569024 -0.1521899 -0.02431017
v -0.01569024 -0.1524411 0.01262228
v 0.0157534 -0.1524411 0.01262228
v 0.007505118 -0.1521017 -0.03666171
v -0.007441978 -0.1521017 -0.03666171
v -0.01569024 -0.1524411 0.01262228
v -0.01291039 -0.05768171 0.0198457
v -0.01291041 -0.1524726 0.01984568
v -0.01569022 -0.05771322 0.0126223
v -0.00748565 -0.1525041 0.02372774
v -0.007485631 -0.0576502 0.02372777
v -0.01044838 -0.1525357 0.02815004
v -0.007485631 -0.0576502 0.02372777
v -0.01044836 -0.05761869 0.02815007
v -0.00748565 -0.1525041 0.02372774
v 0.007505118 -0.1521017 -0.03666171
v 0.01306301 -0.001440859 -0.03219136
v 0.007505138 -0.001440844 -0.03666168
v 0.01306299 -0.1521017 -0.0321914
v 0.01575339 -0.1521899 -0.02431018
v 0.01575341 -0.001352673 -0.02431014
v 0.0157534 -0.1524411 0.01262228
v 0.01297359 -0.05768171 0.0198457
v 0.01575341 -0.05771322 0.0126223
v 0.01297357 -0.1524726 0.01984568
v 0.007548831 -0.0576502 0.02372777
v 0.00754881 -0.1525041 0.02372774
v 0.01575341 -0.05783884 -0.001373365
v 0.01575341 -0.001352673 -0.02431014
v 0.01575339 -0.1521899 -0.02431018
v 0.01575341 -0.00122705 -0.001373349
v 0.01575341 -0.05771322 0.0126223
v 0.0157534 -0.1524411 0.01262228
v -0.01569022 -0.05771322 0.0126223
v 0.01297359 -0.05768171 0.0198457
v -0.01291039 -0.05768171 0.0198457
v 0.01575341 -0.05771322 0.0126223
v -0.007485631 -0.0576502 0.02372777
v 0.007548831 -0.0576502 0.02372777
v -0.01044836 -0.05761869 0.02815007
v 0.007802447 -0.05758717 0.03115381
v -0.007739246 -0.05758717 0.03115382
v 0.01051156 -0.05761869 0.02815006
v -0.01569022 -0.05783884 -0.00137336
v 0.01575341 -0.05783884 -0.001373365
v 0.007802427 -0.1525672 0.03115379
v -0.007739246 -0.05758717 0.03115382
v 0.007802447 -0.05758717 0.03115381
v -0.007739265 -0.1525672 0.03115379
v -0.007739265 -0.1525672 0.03115379
v -0.01044836 -0.05761869 0.02815007
v -0.007739246 -0.05758717 0.03115382
v -0.01044838 -0.1525357 0.02815004
v -0.01569024 -0.1524411 0.01262228
v -0.01569022 -0.05783884 -0.00137336
v -0.01569022 -0.05771322 0.0126223
v -0.01569024 -0.1521899 -0.02431017
v -0.01569022 -0.001352668 -0.02431014
v -0.01569022 -0.001227045 -0.001373349
v 0.01051154 -0.1525357 0.02815004
v 0.007548831 -0.0576502 0.02372777
v 0.00754881 -0.1525041 0.02372774
v 0.01051156 -0.05761869 0.02815006
v 0.007802427 -0.1525672 0.03115379
v 0.01051156 -0.05761869 0.02815006
v 0.01051154 -0.1525357 0.02815004
v 0.007802447 -0.05758717 0.03115381
v 0.01575341 -0.05783884 -0.001373365
v -0.01569022 -0.001227045 -0.001373349
v 0.01575341 -0.00122705 -0.001373349
v -0.01569022 -0.05783884 -0.00137336
v 0.01306301 -0.001440859 -0.03219136
v -0.01569022 -0.001352668 -0.02431014
v -0.01299983 -0.001440854 -0.03219136
v 0.01575341 -0.001352673 -0.02431014
v 0.01575341 -0.00122705 -0.001373349
v -0.01569022 -0.001227045 -0.001373349
v -0.007441958 -0.001440849 -0.03666167
v 0.007505138 -0.001440844 -0.03666168
vt 0.9859936 0.4602922
vt 0.01404147 0.4066885
vt 0.01404147 0.4602924
vt 0.9859936 0.4066885
vt 0.9859936 0.5062029
vt 0.01404147 0.5062029
vt 0.9573119 0.8456964
vt 0.9108259 0.6612325
vt 0.9573119 0.6433432
vt 0.9108259 0.8278067
vt 0.8858421 0.7928965
vt 0.8858421 0.6961432
vt 0.8573825 0.8119626
vt 0.8380514 0.6945109
vt 0.8573825 0.6770767
vt 0.8380514 0.7945282
vt 0.01372056 0.5231519
vt 0.9832839 0.6193427
vt 0.01372056 0.6193426
vt 0.9832839 0.5231521
vt 0.9469861 0.2180511
vt 0.8962651 0.0330116
vt 0.9469861 0.05032532
vt 0.8962651 0.2353648
vt 0.6585842 0.2353648
vt 0.6585842 0.0330116
vt 0.975754 0.08609264
vt 0.975754 0.1822836
vt 0.01404147 0.1689636
vt 0.6230959 0.119144
vt 0.01404147 0.1191441
vt 0.6230959 0.1689634
vt 0.01404147 0.07620651
vt 0.6230959 0.07620644
vt 0.01404147 0.04194357
vt 0.6230959 0.07620644
vt 0.6230959 0.04194357
vt 0.01404147 0.07620651
vt 0.01424153 0.5071123
vt 0.9857934 0.4612207
vt 0.9857934 0.5071123
vt 0.01424153 0.4612207
vt 0.01424153 0.4076389
vt 0.9857934 0.407639
vt 0.01424153 0.1700119
vt 0.6230451 0.1202132
vt 0.6230451 0.170012
vt 0.01424153 0.1202131
vt 0.6230451 0.07729306
vt 0.01424153 0.07729306
vt 0.6230451 0.2596205
vt 0.9857934 0.407639
vt 0.01424153 0.4076389
vt 0.9857934 0.2596205
vt 0.6230451 0.170012
vt 0.01424153 0.1700119
vt 0.6889537 0.8358575
vt 0.7354397 0.6513934
vt 0.7354397 0.8179677
vt 0.6889537 0.6335042
vt 0.7604229 0.7830575
vt 0.7604229 0.6863042
vt 0.7888829 0.8021236
vt 0.808214 0.6846719
vt 0.808214 0.7846892
vt 0.7888829 0.6672377
vt 0.5988829 0.8358575
vt 0.5988829 0.633504
vt 0.6311333 0.8889432
vt 0.01989672 0.9889605
vt 0.01989672 0.8889432
vt 0.6311333 0.9889605
vt 0.01404147 0.01590716
vt 0.6230959 0.04194357
vt 0.6230959 0.01590713
vt 0.01404147 0.04194357
vt 0.01404147 0.1689636
vt 0.6230959 0.2594911
vt 0.6230959 0.1689634
vt 0.01404147 0.4066885
vt 0.9859936 0.4066885
vt 0.9859936 0.2594911
vt 0.01424153 0.04304431
vt 0.6230451 0.07729306
vt 0.01424153 0.07729306
vt 0.6230451 0.04304427
vt 0.01424153 0.01701856
vt 0.6230451 0.04304427
vt 0.01424153 0.04304431
vt 0.6230451 0.01701856
vt 0.5988829 0.633504
vt 0.2345621 0.8358575
vt 0.2345621 0.6335042
vt 0.5988829 0.8358575
vt 0.03623192 0.6508179
vt 0.0869543 0.8358575
vt 0.03623192 0.8185437
vt 0.0869543 0.6335042
vt 0.2345621 0.6335042
vt 0.2345621 0.8358575
vt 0.007465337 0.7827762
vt 0.007465337 0.6865852
vn -0.8195215 2.51571E-07 -0.5730486
vn -0.9463775 2.158667E-07 -0.3230629
vn -0.8195214 2.580706E-07 -0.5730487
vn -0.9463774 1.96267E-07 -0.3230632
vn -0.6267464 2.863371E-07 -0.7792233
vn -0.6267463 2.791224E-07 -0.7792233
vn 0 -0.9999835 -0.005744698
vn 0 -0.9999862 -0.005274267
vn 0 -0.9999835 -0.005744698
vn 0 -0.9999862 -0.005274269
vn 0 -0.9999707 -0.007659718
vn 0.0001577086 -0.9999661 -0.008223455
vn -7.375744E-05 -0.9999624 -0.008675008
vn 0.0005158217 -0.9999624 -0.008647921
vn 0.002141262 -0.9999611 -0.008561551
vn 0 -0.9999449 -0.01049262
vn -3.190166E-07 2.531977E-07 -1
vn -3.190166E-07 2.531977E-07 -1
vn -3.190166E-07 2.531977E-07 -1
vn -3.190166E-07 2.531977E-07 -1
vn 0 -0.999966 -0.008247734
vn -1.281923E-07 -0.9999619 -0.008739456
vn -3.674099E-07 -0.999966 -0.008247186
vn 0 -0.9999619 -0.008739919
vn 0 -0.9999835 -0.005744698
vn 0 -0.9999835 -0.005744698
vn -3.34039E-07 -1 2.734486E-06
vn 0 -1 4.2667E-06
vn -0.9332765 1.173876E-07 0.3591588
vn -0.7903883 0 0.6126063
vn -0.7903881 0 0.6126065
vn -0.9332765 1.020393E-07 0.359159
vn -0.5819563 0 0.8132201
vn -0.5819564 0 0.81322
vn -0.8307884 3.123575E-07 -0.5565883
vn -0.8307886 3.170098E-07 -0.5565883
vn -0.8307886 3.171878E-07 -0.5565882
vn -0.8307884 3.12178E-07 -0.5565882
vn 0.6267461 1.081834E-07 -0.7792236
vn 0.8195213 0 -0.5730487
vn 0.6267461 1.129932E-07 -0.7792236
vn 0.8195212 0 -0.5730488
vn 0.9463774 0 -0.3230631
vn 0.9463775 0 -0.323063
vn 0.9332767 -2.891638E-07 0.3591582
vn 0.7903885 -2.851487E-07 0.6126059
vn 0.933277 -2.268125E-07 0.3591576
vn 0.7903883 -3.036089E-07 0.6126063
vn 0.5819561 -3.145697E-07 0.8132202
vn 0.5819564 -2.878596E-07 0.81322
vn 1 -1.670659E-07 -1.944816E-07
vn 1 0 -1.64064E-07
vn 1 -1.562303E-07 -2.014877E-07
vn 1 0 -1.037153E-07
vn 1 -2.095708E-07 0
vn 1 -1.510126E-07 -1.946933E-07
vn 0 0.9999757 -0.006974017
vn 0 0.9999862 -0.005273167
vn 0 0.9999862 -0.005272769
vn 1.505163E-07 0.9999757 -0.006974223
vn 0 0.9999707 -0.007659717
vn 0.000157708 0.9999661 -0.00822346
vn -7.376006E-05 0.9999624 -0.008675008
vn 0.0005158251 0.9999624 -0.008647921
vn 0 0.9999449 -0.01049261
vn 0.002141276 0.9999611 -0.008561551
vn 1.502357E-07 0.9999597 -0.008975473
vn 1.501108E-07 0.9999597 -0.008975472
vn 0 -2.458359E-07 1
vn 2.751315E-07 -2.059997E-07 1
vn 3.068116E-07 -2.008158E-07 1
vn 0 -2.510197E-07 1
vn -0.7425886 0 0.6697478
vn -0.7425886 0 0.6697478
vn -0.7425886 0 0.6697478
vn -0.7425886 0 0.6697479
vn -1 1.962426E-07 1.340203E-07
vn -1 1.462249E-07 2.959913E-07
vn -1 2.013502E-07 1.685445E-07
vn -1 1.852434E-07 1.735103E-07
vn -1 0 2.193167E-07
vn -1 0 1.558036E-07
vn 0.8307883 0 -0.5565886
vn 0.8307884 0 -0.5565884
vn 0.8307883 0 -0.5565886
vn 0.8307884 0 -0.5565884
vn 0.7425893 -3.361069E-07 0.6697471
vn 0.7425893 -3.361069E-07 0.6697471
vn 0.7425893 -3.361069E-07 0.6697471
vn 0.7425886 -2.929397E-07 0.6697478
vn 0 -2.737452E-07 1
vn 0 -2.737452E-07 1
vn 0 -2.737452E-07 1
vn 1.706043E-07 -1.895159E-07 1
vn 1.808983E-07 0.9999374 -0.01118865
vn 1.808983E-07 0.9999374 -0.01118865
vn 1.808982E-07 0.9999374 -0.01118865
vn 1.516387E-07 0.9999374 -0.01118876
vn 1.516459E-07 0.999985 -0.005476829
vn 1.515422E-07 0.999985 -0.005476829
vn 1.82957E-07 1 1.294142E-06
vn -3.190154E-07 1 3.596651E-06
g handguard_ak_strike_industries_trax_1_LOD1_0
f 3/3/3 2/2/2 1/1/1
f 4/4/4 1/1/1 2/2/2
f 1/1/1 5/5/5 3/3/3
f 6/6/6 3/3/3 5/5/5
f 9/9/9 8/8/8 7/7/7
f 10/10/10 7/7/7 8/8/8
f 10/10/10 8/8/8 11/11/11
f 12/12/12 11/11/11 8/8/8
f 12/12/12 13/13/13 11/11/11
f 14/14/14 13/13/13 12/12/12
f 15/15/15 14/14/14 12/12/12
f 16/16/16 13/13/13 14/14/14
f 19/19/19 18/18/18 17/17/17
f 20/20/20 17/17/17 18/18/18
f 23/23/23 22/22/22 21/21/21
f 24/24/24 21/21/21 22/22/22
f 24/24/24 22/22/22 25/25/25
f 26/26/26 25/25/25 22/22/22
f 23/23/23 21/21/21 27/27/27
f 28/28/28 27/27/27 21/21/21
f 31/31/31 30/30/30 29/29/29
f 32/32/32 29/29/29 30/30/30
f 31/31/31 33/33/33 30/30/30
f 34/34/34 30/30/30 33/33/33
f 37/37/37 36/36/36 35/35/35
f 38/38/38 35/35/35 36/36/36
f 41/41/41 40/40/40 39/39/39
f 42/42/42 39/39/39 40/40/40
f 42/42/42 40/40/40 43/43/43
f 44/44/44 43/43/43 40/40/40
f 47/47/47 46/46/46 45/45/45
f 48/48/48 45/45/45 46/46/46
f 46/46/46 49/49/49 48/48/48
f 50/50/50 48/48/48 49/49/49
f 53/53/53 52/52/52 51/51/51
f 54/54/54 51/51/51 52/52/52
f 51/51/51 55/55/55 53/53/53
f 56/56/56 53/53/53 55/55/55
f 59/59/59 58/58/58 57/57/57
f 60/60/60 57/57/57 58/58/58
f 59/59/59 61/61/61 58/58/58
f 62/62/62 58/58/58 61/61/61
f 63/63/63 62/62/62 61/61/61
f 64/64/64 62/62/62 63/63/63
f 65/65/65 64/64/64 63/63/63
f 66/66/66 62/62/62 64/64/64
f 57/57/57 60/60/60 67/67/67
f 68/68/68 67/67/67 60/60/60
f 71/71/71 70/70/70 69/69/69
f 72/72/72 69/69/69 70/70/70
f 75/75/75 74/74/74 73/73/73
f 76/76/76 73/73/73 74/74/74
f 79/79/79 78/78/78 77/77/77
f 80/80/80 77/77/77 78/78/78
f 80/80/80 78/78/78 81/81/81
f 82/82/82 81/81/81 78/78/78
f 85/85/85 84/84/84 83/83/83
f 86/86/86 83/83/83 84/84/84
f 89/89/89 88/88/88 87/87/87
f 90/90/90 87/87/87 88/88/88
f 93/93/93 92/92/92 91/91/91
f 94/94/94 91/91/91 92/92/92
f 97/97/97 96/96/96 95/95/95
f 98/98/98 95/95/95 96/96/96
f 98/98/98 96/96/96 99/99/99
f 100/100/100 99/99/99 96/96/96
f 97/97/97 95/95/95 101/101/101
f 102/102/102 101/101/101 95/95/95
