g handguard_416_hk_quad_rail_w_sight_LOD1
v 0.010635 8.044714E-05 0.03422288
v 0.010635 8.044714E-05 0.01408987
v 0.010635 -0.2416695 0.01408987
v 0.010635 -0.2416695 0.03422288
v 0.01848599 -0.2416695 0.004887871
v 0.01848599 8.044714E-05 0.004887871
v 0.028214 -0.2416695 0.004887871
v 0.028214 8.044714E-05 0.004887871
v 0.028214 8.044714E-05 0.004887871
v 0.028214 8.044714E-05 -0.01077812
v 0.028214 -0.2416695 -0.01077812
v 0.028214 -0.2416695 0.004887871
v 0.028214 8.044714E-05 -0.01077812
v 0.01848599 8.044714E-05 -0.01077812
v 0.01848599 -0.2416695 -0.01077812
v 0.028214 -0.2416695 -0.01077812
v 0.009394999 -0.2416695 -0.02068313
v 0.009394999 8.044714E-05 -0.02068313
v 0.009394999 -0.2416695 -0.03442012
v 0.009394999 8.044714E-05 -0.03442012
v 0.009394999 8.044714E-05 -0.03442012
v -0.009394997 8.044714E-05 -0.03442012
v -0.009394997 -0.2416695 -0.03442012
v 0.009394999 -0.2416695 -0.03442012
v -0.010635 8.044714E-05 0.03422287
v 0.010635 8.044714E-05 0.03422288
v 0.010635 -0.2416695 0.03422288
v -0.010635 -0.2416695 0.03422287
v -0.010635 8.044714E-05 0.03422287
v -0.010635 -0.2416695 0.03422287
v -0.010635 -0.2416695 0.01408988
v -0.010635 8.044714E-05 0.01408988
v -0.01848599 -0.2416695 0.004887871
v -0.01848599 8.044714E-05 0.004887871
v -0.028214 -0.2416695 0.004887871
v -0.028214 8.044714E-05 0.004887871
v -0.028214 8.044714E-05 0.004887871
v -0.028214 -0.2416695 0.004887871
v -0.028214 -0.2416695 -0.01077812
v -0.028214 8.044714E-05 -0.01077812
v -0.028214 8.044714E-05 -0.01077812
v -0.028214 -0.2416695 -0.01077812
v -0.01848599 -0.2416695 -0.01077812
v -0.01848599 8.044714E-05 -0.01077812
v -0.009394997 -0.2416695 -0.02068313
v -0.009394997 8.044714E-05 -0.02068313
v -0.009394997 -0.2416695 -0.03442012
v -0.009394997 8.044714E-05 -0.03442012
v 0.010635 8.044714E-05 0.03422288
v -0.010635 8.044714E-05 0.03422287
v -0.010635 8.044714E-05 0.01408988
v 0.010635 8.044714E-05 0.01408987
v 0.01848599 8.044714E-05 0.004887871
v -0.01848599 8.044714E-05 0.004887871
v 0.01848599 8.044714E-05 -0.01077812
v 0.028214 8.044714E-05 0.004887871
v 0.028214 8.044714E-05 -0.01077812
v -0.01848599 8.044714E-05 -0.01077812
v -0.028214 8.044714E-05 -0.01077812
v -0.028214 8.044714E-05 0.004887871
v 0.009394999 8.044714E-05 -0.02068313
v -0.009394997 8.044714E-05 -0.02068313
v 0.009394999 8.044714E-05 -0.03442012
v -0.009394997 8.044714E-05 -0.03442012
v -0.010635 -0.2416695 0.03422287
v 0.010635 -0.2416695 0.03422288
v 0.010635 -0.2416695 0.01408987
v -0.010635 -0.2416695 0.01408988
v -0.01848599 -0.2416695 0.004887871
v 0.01848599 -0.2416695 0.004887871
v -0.01848599 -0.2416695 -0.01077812
v -0.028214 -0.2416695 -0.01077812
v -0.028214 -0.2416695 0.004887871
v 0.01848599 -0.2416695 -0.01077812
v 0.028214 -0.2416695 -0.01077812
v 0.028214 -0.2416695 0.004887871
v -0.009394997 -0.2416695 -0.02068313
v 0.009394999 -0.2416695 -0.02068313
v -0.009394997 -0.2416695 -0.03442012
v 0.009394999 -0.2416695 -0.03442012
v 0.01981235 -0.01787956 -0.00984726
v 0.01981235 -0.01787956 -0.02792912
v 0.01981235 -0.04004453 -0.02792912
v 0.01981235 -0.04004453 -0.00984726
v 0.01981235 -0.01787956 -0.02792912
v -0.01951198 -0.01787956 -0.02792912
v -0.01951198 -0.04004453 -0.02792912
v 0.01981235 -0.04004453 -0.02792912
v -0.01951198 -0.01787956 -0.00984726
v -0.01951198 -0.04004453 -0.00984726
v -0.01951198 -0.04004453 -0.02792912
v -0.01951198 -0.01787956 -0.02792912
v -0.01951198 -0.01787956 -0.00984726
v -0.01951198 -0.01787956 -0.02792912
v 0.01981235 -0.01787956 -0.02792912
v 0.01981235 -0.01787956 -0.00984726
v -0.01951198 -0.04004453 -0.02792912
v -0.01951198 -0.04004453 -0.00984726
v 0.01981235 -0.04004453 -0.00984726
v 0.01981235 -0.04004453 -0.02792912
v -0.03050199 -0.02896357 -0.0148387
v -0.03050199 -0.0342233 -0.01787541
v -0.03050199 -0.0342233 -0.02394884
v -0.03050199 -0.02896357 -0.02698554
v -0.03050199 -0.02370382 -0.01787541
v -0.03050199 -0.02370382 -0.02394883
v -0.03050199 -0.02370382 -0.02394883
v -0.01908908 -0.02370382 -0.02394883
v -0.01908908 -0.02370382 -0.01787541
v -0.03050199 -0.02370382 -0.01787541
v -0.03050199 -0.02896357 -0.02698554
v -0.01908908 -0.02896357 -0.02698554
v -0.01908908 -0.02896357 -0.0148387
v -0.03050199 -0.02896357 -0.0148387
v -0.01908908 -0.0342233 -0.01787541
v -0.03050199 -0.0342233 -0.01787541
v -0.01908908 -0.0342233 -0.02394884
v -0.03050199 -0.0342233 -0.02394884
v -0.01908908 -0.02896357 -0.02698554
v -0.03050199 -0.02896357 -0.02698554
vt 0.9181749 0.1450304
vt 0.9181749 0.07861511
vt 0.006746842 0.07861511
vt 0.006746842 0.1450304
vt 0.006746842 0.03871229
vt 0.9181749 0.03871229
vt 0.006746842 0.006621402
vt 0.9181749 0.006621402
vt 0.9186097 0.6020001
vt 0.9186097 0.5503207
vt 0.007181488 0.5503207
vt 0.007181488 0.6020001
vt 0.9181741 0.2716911
vt 0.9181741 0.2396
vt 0.006746842 0.2396003
vt 0.006746842 0.2716913
vt 0.006746842 0.1952491
vt 0.9181741 0.195249
vt 0.006746842 0.1499331
vt 0.9181741 0.1499331
vt 0.9186088 0.7457156
vt 0.9186088 0.6837303
vt 0.007182464 0.6837303
vt 0.007182464 0.7457156
vt 0.007182366 0.6076284
vt 0.007182366 0.6777944
vt 0.9186088 0.6777944
vt 0.9186088 0.6076284
vt 0.006746842 0.4169431
vt 0.9181737 0.416943
vt 0.9181737 0.3505274
vt 0.006746842 0.3505277
vt 0.9181737 0.3106247
vt 0.006746842 0.3106248
vt 0.9181737 0.2785338
vt 0.006746842 0.2785339
vt 0.007181781 0.8026555
vt 0.9186095 0.8026555
vt 0.9186095 0.7509761
vt 0.007181781 0.7509761
vt 0.9181741 0.4228622
vt 0.006746842 0.4228624
vt 0.006746842 0.4549533
vt 0.9181741 0.4549533
vt 0.006746842 0.4993042
vt 0.9181741 0.4993042
vt 0.006746842 0.5446205
vt 0.9181741 0.5446205
vt 0.2515373 0.8654488
vt 0.2515373 0.9356148
vt 0.3179525 0.9356148
vt 0.3179526 0.8654488
vt 0.3483083 0.8395497
vt 0.3483083 0.961514
vt 0.3999877 0.8395497
vt 0.3483083 0.8074589
vt 0.3999877 0.8074589
vt 0.3999877 0.961514
vt 0.3999877 0.9936047
vt 0.3483083 0.9936047
vt 0.4326627 0.8695393
vt 0.4326627 0.9315245
vt 0.4779787 0.8695393
vt 0.4779787 0.9315245
vt 0.01108658 0.8654486
vt 0.01108658 0.9356146
vt 0.07750183 0.9356146
vt 0.07750171 0.8654486
vt 0.1078575 0.8395495
vt 0.1078575 0.9615135
vt 0.1595371 0.8395495
vt 0.1595371 0.8074588
vt 0.1078575 0.8074585
vt 0.1595371 0.9615137
vt 0.1595371 0.9936047
vt 0.1078575 0.9936047
vt 0.1922119 0.8695393
vt 0.1922119 0.9315241
vt 0.2375279 0.8695393
vt 0.2375279 0.9315241
vt 0.6840962 0.8796815
vt 0.6840962 0.8200326
vt 0.6109781 0.8200326
vt 0.6109781 0.8796815
vt 0.5152476 0.9736663
vt 0.6449717 0.9736663
vt 0.6449717 0.9005479
vt 0.5152475 0.9005479
vt 0.5175141 0.8796815
vt 0.5906324 0.8796815
vt 0.5906324 0.8200326
vt 0.5175141 0.8200326
vt 0.9636745 0.9771596
vt 0.9636745 0.9175107
vt 0.8339505 0.9175107
vt 0.8339505 0.9771596
vt 0.6751093 0.9124817
vt 0.6751093 0.9721306
vt 0.8048334 0.9721306
vt 0.8048334 0.9124817
vt 0.9593407 0.7802424
vt 0.9766917 0.7702249
vt 0.9766917 0.7501897
vt 0.9593407 0.7401721
vt 0.9419897 0.7702249
vt 0.9419897 0.7501897
vt 0.9771996 0.3842194
vt 0.9395504 0.3842194
vt 0.9395504 0.4042545
vt 0.9771996 0.4042545
vt 0.9771996 0.3641842
vt 0.9395504 0.3641842
vt 0.9395504 0.4242897
vt 0.9771996 0.4242897
vt 0.9395504 0.4443249
vt 0.9771996 0.4443249
vt 0.9395504 0.46436
vt 0.9771996 0.46436
vt 0.9395504 0.4843952
vt 0.9771996 0.4843952
vn 1 0 0
vn 0.9382812 0 0.3458733
vn 0.9382812 0 0.3458733
vn 1 0 0
vn 0.4188956 0 0.9080344
vn 0.4188956 0 0.9080344
vn 0 0 1
vn 0 0 1
vn 1 0 0
vn 1 0 0
vn 1 0 0
vn 1 0 0
vn 0 0 -1
vn 0.402377 0 -0.915474
vn 0.402377 0 -0.915474
vn 0 0 -1
vn 0.9318615 0 -0.3628143
vn 0.9318615 0 -0.3628143
vn 1 0 0
vn 1 0 0
vn 0 0 -1
vn 0 0 -1
vn 0 0 -1
vn 0 0 -1
vn -1.120915E-07 0 1
vn -1.120915E-07 0 1
vn -1.120915E-07 0 1
vn -1.120915E-07 0 1
vn -1 0 0
vn -1 0 0
vn -0.9382812 0 0.3458733
vn -0.9382812 0 0.3458733
vn -0.4188957 0 0.9080344
vn -0.4188957 0 0.9080344
vn 0 0 1
vn 0 0 1
vn -1 0 0
vn -1 0 0
vn -1 0 0
vn -1 0 0
vn 0 0 -1
vn 0 0 -1
vn -0.402377 0 -0.915474
vn -0.402377 0 -0.915474
vn -0.9318615 0 -0.3628144
vn -0.9318615 0 -0.3628144
vn -1 0 0
vn -1 0 0
vn 0 1 0
vn 0 1 0
vn 0 1 0
vn 0 1 0
vn 0 1 0
vn 0 1 0
vn 0 1 0
vn 0 1 0
vn 0 1 0
vn 0 1 0
vn 0 1 0
vn 0 1 0
vn 0 1 0
vn 0 1 0
vn 0 1 0
vn 0 1 0
vn 0 -1 0
vn 0 -1 0
vn 0 -1 0
vn 0 -1 0
vn 0 -1 0
vn 0 -1 0
vn 0 -1 0
vn 0 -1 0
vn 0 -1 0
vn 0 -1 0
vn 0 -1 0
vn 0 -1 0
vn 0 -1 0
vn 0 -1 0
vn 0 -1 0
vn 0 -1 0
vn 1 0 0
vn 1 0 0
vn 1 0 0
vn 1 0 0
vn 0 0 -1
vn 0 0 -1
vn 0 0 -1
vn 0 0 -1
vn -1 0 0
vn -1 0 0
vn -1 0 0
vn -1 0 0
vn 0 1 0
vn 0 1 0
vn 0 1 0
vn 0 1 0
vn 0 -1 0
vn 0 -1 0
vn 0 -1 0
vn 0 -1 0
vn -1 0 0
vn -1 0 0
vn -1 0 0
vn -1 0 0
vn -1 0 0
vn -1 0 0
vn 0 0.8660253 -0.5000002
vn 0 0.8660253 -0.5000002
vn 0 0.8660253 0.5000001
vn 0 0.8660253 0.5000001
vn 0 1.095392E-07 -1
vn 0 1.095392E-07 -1
vn 0 0 1
vn 0 0 1
vn 0 -0.8660254 0.5
vn 0 -0.8660254 0.5
vn 0 -0.8660253 -0.5000003
vn 0 -0.8660253 -0.5000003
vn 0 1.095392E-07 -1
vn 0 1.095392E-07 -1
g handguard_416_hk_quad_rail_w_sight_LOD1_0
f 3/3/3 2/2/2 1/1/1
f 4/4/4 3/3/3 1/1/1
f 3/3/3 5/5/5 2/2/2
f 5/5/5 6/6/6 2/2/2
f 5/5/5 7/7/7 6/6/6
f 7/7/7 8/8/8 6/6/6
f 11/11/11 10/10/10 9/9/9
f 12/12/12 11/11/11 9/9/9
f 15/15/15 14/14/14 13/13/13
f 16/16/16 15/15/15 13/13/13
f 15/15/15 17/17/17 14/14/14
f 17/17/17 18/18/18 14/14/14
f 17/17/17 19/19/19 18/18/18
f 19/19/19 20/20/20 18/18/18
f 23/23/23 22/22/22 21/21/21
f 24/24/24 23/23/23 21/21/21
f 27/27/27 26/26/26 25/25/25
f 28/28/28 27/27/27 25/25/25
f 31/31/31 30/30/30 29/29/29
f 32/32/32 31/31/31 29/29/29
f 33/33/33 31/31/31 32/32/32
f 34/34/34 33/33/33 32/32/32
f 35/35/35 33/33/33 34/34/34
f 36/36/36 35/35/35 34/34/34
f 39/39/39 38/38/38 37/37/37
f 40/40/40 39/39/39 37/37/37
f 43/43/43 42/42/42 41/41/41
f 44/44/44 43/43/43 41/41/41
f 45/45/45 43/43/43 44/44/44
f 46/46/46 45/45/45 44/44/44
f 47/47/47 45/45/45 46/46/46
f 48/48/48 47/47/47 46/46/46
f 51/51/51 50/50/50 49/49/49
f 52/52/52 51/51/51 49/49/49
f 51/51/51 52/52/52 53/53/53
f 54/54/54 51/51/51 53/53/53
f 54/54/54 53/53/53 55/55/55
f 55/55/55 53/53/53 56/56/56
f 57/57/57 55/55/55 56/56/56
f 58/58/58 54/54/54 55/55/55
f 54/54/54 58/58/58 59/59/59
f 60/60/60 54/54/54 59/59/59
f 58/58/58 55/55/55 61/61/61
f 62/62/62 58/58/58 61/61/61
f 62/62/62 61/61/61 63/63/63
f 64/64/64 62/62/62 63/63/63
f 67/67/67 66/66/66 65/65/65
f 68/68/68 67/67/67 65/65/65
f 67/67/67 68/68/68 69/69/69
f 70/70/70 67/67/67 69/69/69
f 70/70/70 69/69/69 71/71/71
f 72/72/72 71/71/71 69/69/69
f 73/73/73 72/72/72 69/69/69
f 74/74/74 70/70/70 71/71/71
f 70/70/70 74/74/74 75/75/75
f 76/76/76 70/70/70 75/75/75
f 74/74/74 71/71/71 77/77/77
f 78/78/78 74/74/74 77/77/77
f 78/78/78 77/77/77 79/79/79
f 80/80/80 78/78/78 79/79/79
f 83/83/83 82/82/82 81/81/81
f 84/84/84 83/83/83 81/81/81
f 87/87/87 86/86/86 85/85/85
f 88/88/88 87/87/87 85/85/85
f 91/91/91 90/90/90 89/89/89
f 92/92/92 91/91/91 89/89/89
f 95/95/95 94/94/94 93/93/93
f 96/96/96 95/95/95 93/93/93
f 99/99/99 98/98/98 97/97/97
f 100/100/100 99/99/99 97/97/97
f 103/103/103 102/102/102 101/101/101
f 101/101/101 104/104/104 103/103/103
f 101/101/101 105/105/105 104/104/104
f 105/105/105 106/106/106 104/104/104
f 109/109/109 108/108/108 107/107/107
f 110/110/110 109/109/109 107/107/107
f 107/107/107 108/108/108 111/111/111
f 108/108/108 112/112/112 111/111/111
f 113/113/113 109/109/109 110/110/110
f 114/114/114 113/113/113 110/110/110
f 115/115/115 113/113/113 114/114/114
f 116/116/116 115/115/115 114/114/114
f 117/117/117 115/115/115 116/116/116
f 118/118/118 117/117/117 116/116/116
f 119/119/119 117/117/117 118/118/118
f 120/120/120 119/119/119 118/118/118
