g handguard_fal_fn_original_stamped_steel_LOD1
v 0.006592056 -0.01780083 0.01687223
v 0.006592054 0.01891088 0.01687231
v 0.009273045 0.0189109 0.01039989
v 0.009273046 -0.01780081 0.01039982
v 0.0001196815 -0.01780083 0.01955315
v 0.0001196799 0.01891088 0.01955322
v -0.006352732 -0.01780083 0.0168722
v -0.006352734 0.01891088 0.01687227
v -0.009033654 -0.01780081 0.01039978
v -0.009033655 0.0189109 0.01040005
v -0.006352711 -0.01780081 0.003927364
v -0.006352568 0.0189109 0.003927345
v 0.0001197112 -0.01780079 0.001246452
v 0.0001197096 0.01891092 0.001246529
v 0.006592075 0.0189109 0.003927479
v 0.006592077 -0.01780081 0.003927402
v 0.0001197096 0.01891092 0.001246529
v 0.0001197112 -0.01780079 0.001246452
v -0.009033655 0.0189109 0.01040005
v 0.009273045 0.0189109 0.01039989
v 0.006592054 0.01891088 0.01687231
v -0.006352734 0.01891088 0.01687227
v 0.006592075 0.0189109 0.003927479
v -0.006352568 0.0189109 0.003927345
v 0.0001196799 0.01891088 0.01955322
v 0.0001197096 0.01891092 0.001246529
v 0.0202931 -0.01555119 -0.01299745
v 0.0202931 -0.009477062 -0.01299744
v 0.01644402 -0.009477043 -0.02484377
v 0.01644402 -0.01555117 -0.02484379
v 0.006366933 -0.009477024 -0.03216522
v 0.006366933 -0.01555115 -0.03216524
v -0.006089055 -0.009477024 -0.03216526
v -0.006089055 -0.01672703 -0.03216528
v -0.01616616 -0.009477043 -0.02484381
v -0.01616616 -0.01672705 -0.02484383
v -0.02001529 -0.009477062 -0.01299751
v -0.02001529 -0.01672707 -0.01299753
v -0.0161662 -0.009477081 -0.001151123
v -0.0161662 -0.01672708 -0.001151142
v 0.01644398 -0.0155512 -0.001151104
v 0.01644398 -0.009477081 -0.001151085
v 0.007670464 -0.01555122 0.005309868
v 0.007670464 -0.0094771 0.005309887
v -0.007392756 -0.0094771 0.005309849
v -0.007392756 -0.0167271 0.005309829
v -0.0161662 -0.01672708 -0.001151142
v -0.0161662 -0.009477081 -0.001151123
v 0.0202931 -0.009477062 -0.01299744
v 0.01643047 -0.005644856 -0.01299745
v 0.0133191 -0.005644836 -0.02257339
v 0.01644402 -0.009477043 -0.02484377
v 0.005173303 -0.005644817 -0.02849169
v 0.006366933 -0.009477024 -0.03216522
v -0.004895439 -0.005644817 -0.02849169
v -0.006089055 -0.009477024 -0.03216526
v -0.01304126 -0.005644836 -0.02257343
v -0.01616616 -0.009477043 -0.02484381
v -0.01615266 -0.005644856 -0.01299749
v -0.02001529 -0.009477062 -0.01299751
v -0.01304129 -0.005644875 -0.003421497
v -0.0161662 -0.009477081 -0.001151123
v 0.01644398 -0.009477081 -0.001151085
v 0.01331907 -0.005644875 -0.003421459
v 0.007670464 -0.0094771 0.005309887
v 0.007670469 -0.005644875 0.001636333
v -0.007392756 -0.0094771 0.005309849
v -0.007392751 -0.005644875 0.001636295
v -0.0161662 -0.009477081 -0.001151123
v -0.01304129 -0.005644875 -0.003421497
v 0.01643047 -0.005644856 -0.01299745
v 0.01643047 -0.0002561951 -0.01299744
v 0.0133191 -0.000256176 -0.02257338
v 0.0133191 -0.005644836 -0.02257339
v 0.005173303 -0.0002561569 -0.02849167
v 0.005173303 -0.005644817 -0.02849169
v -0.004895439 -0.0002561569 -0.02849167
v -0.004895439 -0.005644817 -0.02849169
v -0.01304126 -0.000256176 -0.02257341
v -0.01304126 -0.005644836 -0.02257343
v -0.01615266 -0.0002561951 -0.01299747
v -0.01615266 -0.005644856 -0.01299749
v -0.01304129 -0.0002562141 -0.003421478
v -0.01304129 -0.005644875 -0.003421497
v 0.01331907 -0.005644875 -0.003421459
v 0.01331907 -0.0002562141 -0.00342144
v 0.007670469 -0.005644875 0.001636333
v 0.007670469 -0.0002562141 0.001636353
v -0.007392751 -0.005644875 0.001636295
v -0.007392751 -0.0002562141 0.001636314
v -0.01304129 -0.005644875 -0.003421497
v -0.01304129 -0.0002562141 -0.003421478
v -0.02001529 -0.01672707 -0.01299753
v 0.0202931 -0.01555119 -0.01299745
v 0.01644402 -0.01555117 -0.02484379
v -0.01616616 -0.01672705 -0.02484383
v 0.01644398 -0.0155512 -0.001151104
v -0.0161662 -0.01672708 -0.001151142
v 0.007670464 -0.01555122 0.005309868
v -0.007392756 -0.0167271 0.005309829
v -0.006089055 -0.01672703 -0.03216528
v 0.006366933 -0.01555115 -0.03216524
v -0.01304126 -0.000256176 -0.02257341
v 0.0133191 -0.000256176 -0.02257338
v 0.01643047 -0.0002561951 -0.01299744
v -0.01615266 -0.0002561951 -0.01299747
v -0.01304129 -0.0002562141 -0.003421478
v 0.01331907 -0.0002562141 -0.00342144
v -0.007392751 -0.0002562141 0.001636314
v 0.007670469 -0.0002562141 0.001636353
v 0.005173303 -0.0002561569 -0.02849167
v -0.004895439 -0.0002561569 -0.02849167
v 0.01642377 -0.2652256 -0.0003722763
v 0.01642376 -0.2510852 0.008595886
v 0.01642377 -0.2511851 -0.0003722381
v 0.01642376 -0.275989 0.008595829
v 0.0164238 -0.2649467 -0.01232368
v 0.0164238 -0.2974652 -0.01232374
v 0.01642376 -0.2817723 0.01277117
v 0.01642376 -0.2974652 0.01277113
v 0.01191374 -0.2974651 -0.024289
v 0.01281134 -0.2649974 -0.02464022
v 0.0001389459 -0.2974651 -0.02881571
v 0.0001389464 -0.2649974 -0.02997019
v 0.01642377 -0.2511851 -0.0003722381
v 0.01642376 -0.2510852 0.008595886
v 0.01205125 -0.2510852 0.008595886
v 0.007375439 -0.2462809 0.01805822
v 0.007375428 -0.01771858 0.01805866
v 0.01045435 -0.2462809 0.01185707
v 0.0001388523 -0.01771858 0.02123371
v 0.0001388623 -0.2462809 0.02123327
v 0.02283883 -0.01771852 -0.01308584
v 0.01642377 -0.2511851 -0.0003722381
v 0.02283884 -0.2585299 -0.01308718
v 0.01642377 -0.2652256 -0.0003722763
v 0.01161912 -0.2484006 0.009500618
v 0.01205125 -0.2510852 0.008595886
v 0.0001389464 -0.2649974 -0.02997019
v 0.01281134 -0.2649974 -0.02464022
v 0.01520797 -0.01771851 -0.0263962
v 0.0001389392 -0.01771849 -0.03222996
v 0.02283883 -0.01771852 -0.01308584
v 0.02283884 -0.2585299 -0.01308718
v 0.01642376 -0.275989 0.008595829
v 0.01205125 -0.2510852 0.008595886
v 0.01642376 -0.2510852 0.008595886
v -0.01177349 -0.2510852 0.008595848
v -0.01134136 -0.2484006 0.00950058
v 0.01161912 -0.2484006 0.009500618
v 0.01045435 -0.2462809 0.01185707
v -0.01017659 -0.2462809 0.01185703
v -0.007097704 -0.2462809 0.01805818
v 0.007375439 -0.2462809 0.01805822
v 0.0001388623 -0.2462809 0.02123327
v -0.01614599 -0.275989 0.008595791
v -0.01614599 -0.2510852 0.008595848
v 0.01642376 -0.2817723 0.01277117
v -0.016146 -0.2817723 0.01277113
v -0.01614599 -0.275989 0.008595791
v 0.01642376 -0.275989 0.008595829
v 0.01642376 -0.2974652 0.01277113
v -0.016146 -0.2974652 0.01277109
v -0.016146 -0.2817723 0.01277113
v 0.01642376 -0.2817723 0.01277117
v 0.02283884 -0.2585299 -0.01308718
v 0.0164238 -0.2649467 -0.01232368
v 0.01642377 -0.2652256 -0.0003722763
v 0.01281134 -0.2649974 -0.02464022
v 0.0001388523 -0.01771858 0.02123371
v 0.0001389392 -0.01771849 -0.03222996
v 0.01520797 -0.01771851 -0.0263962
v 0.007375428 -0.01771858 0.01805866
v 0.02283883 -0.01771852 -0.01308584
v -0.01614598 -0.2652256 -0.0003723144
v -0.01614598 -0.2511851 -0.0003722763
v -0.01614599 -0.2510852 0.008595848
v -0.01614599 -0.275989 0.008595791
v -0.01614596 -0.2649467 -0.01232372
v -0.01614596 -0.2974652 -0.01232378
v -0.016146 -0.2817723 0.01277113
v -0.016146 -0.2974652 0.01277109
v -0.01163587 -0.2974651 -0.02428904
v -0.01253347 -0.2649974 -0.02464025
v 0.0001389459 -0.2974651 -0.02881571
v 0.0001389464 -0.2649974 -0.02997019
v -0.01614598 -0.2511851 -0.0003722763
v -0.01177349 -0.2510852 0.008595848
v -0.01614599 -0.2510852 0.008595848
v -0.007097704 -0.2462809 0.01805818
v -0.01017659 -0.2462809 0.01185703
v -0.007097714 -0.01771858 0.01805862
v 0.0001388523 -0.01771858 0.02123371
v 0.0001388623 -0.2462809 0.02123327
v -0.02256101 -0.01771852 -0.01308592
v -0.01614598 -0.2511851 -0.0003722763
v -0.022561 -0.2585299 -0.01308725
v -0.01614598 -0.2652256 -0.0003723144
v -0.01134136 -0.2484006 0.00950058
v -0.01177349 -0.2510852 0.008595848
v 0.0001389464 -0.2649974 -0.02997019
v 0.0001389392 -0.01771849 -0.03222996
v -0.01493011 -0.01771851 -0.02639624
v -0.01253347 -0.2649974 -0.02464025
v -0.02256101 -0.01771852 -0.01308592
v -0.022561 -0.2585299 -0.01308725
v 0.01642376 -0.2974652 0.01277113
v 0.0164238 -0.2974652 -0.01232374
v -0.01614596 -0.2974652 -0.01232378
v -0.016146 -0.2974652 0.01277109
v -0.01163587 -0.2974651 -0.02428904
v 0.01191374 -0.2974651 -0.024289
v 0.0001389459 -0.2974651 -0.02881571
v -0.022561 -0.2585299 -0.01308725
v -0.01614598 -0.2652256 -0.0003723144
v -0.01614596 -0.2649467 -0.01232372
v -0.01253347 -0.2649974 -0.02464025
v 0.0001388523 -0.01771858 0.02123371
v -0.007097714 -0.01771858 0.01805862
v -0.01493011 -0.01771851 -0.02639624
v 0.0001389392 -0.01771849 -0.03222996
v -0.02256101 -0.01771852 -0.01308592
vt 0.003329 0.215648
vt 0.184396 0.215648
vt 0.184396 0.181097
vt 0.003329 0.181097
vt 0.003329 0.250203
vt 0.184396 0.250203
vt 0.003329 0.284755
vt 0.184396 0.284755
vt 0.003329 0.319306
vt 0.184396 0.319306
vt 0.003329 0.353863
vt 0.184396 0.353863
vt 0.003329 0.388415
vt 0.184396 0.388415
vt 0.184396 0.146542
vt 0.003329 0.146542
vt 0.184396 0.111989
vt 0.003329 0.111989
vt 0.064806 0.00857
vt 0.064805 0.098862
vt 0.096726 0.085639
vt 0.096726 0.021791
vt 0.032881 0.085639
vt 0.032879 0.021791
vt 0.109951 0.053713
vt 0.019658 0.053713
vt 0.523795 0.388542
vt 0.523795 0.355419
vt 0.468247 0.355419
vt 0.468247 0.388542
vt 0.412699 0.355419
vt 0.412699 0.388542
vt 0.357082 0.355419
vt 0.357082 0.388542
vt 0.301533 0.355419
vt 0.301533 0.388542
vt 0.245987 0.355419
vt 0.245987 0.388542
vt 0.190436 0.355419
vt 0.190436 0.388542
vt 0.579341 0.388542
vt 0.579341 0.355419
vt 0.62491 0.388542
vt 0.62491 0.355419
vt 0.699259 0.355419
vt 0.699259 0.388542
vt 0.744828 0.388542
vt 0.744828 0.355419
vt 0.523795 0.355419
vt 0.523795 0.328704
vt 0.468247 0.328704
vt 0.468247 0.355419
vt 0.412699 0.328704
vt 0.412699 0.355419
vt 0.357082 0.328704
vt 0.357082 0.355419
vt 0.301533 0.328704
vt 0.301533 0.355419
vt 0.245987 0.328704
vt 0.245987 0.355419
vt 0.190436 0.328704
vt 0.190436 0.355419
vt 0.579341 0.355419
vt 0.579341 0.328704
vt 0.62491 0.355419
vt 0.62491 0.328704
vt 0.699259 0.355419
vt 0.699259 0.328704
vt 0.744828 0.355419
vt 0.744828 0.328704
vt 0.523795 0.328704
vt 0.523795 0.302128
vt 0.468247 0.302128
vt 0.468247 0.328704
vt 0.412699 0.302128
vt 0.412699 0.328704
vt 0.357082 0.302128
vt 0.357082 0.328704
vt 0.301533 0.302128
vt 0.301533 0.328704
vt 0.245987 0.302128
vt 0.245987 0.328704
vt 0.190436 0.302128
vt 0.190436 0.328704
vt 0.579341 0.328704
vt 0.579341 0.302128
vt 0.62491 0.328704
vt 0.62491 0.302128
vt 0.699259 0.328704
vt 0.699259 0.302128
vt 0.744828 0.328704
vt 0.744828 0.302128
vt 0.758623 0.133997
vt 0.758624 0.297194
vt 0.806571 0.281619
vt 0.806568 0.149568
vt 0.71068 0.281623
vt 0.710677 0.149571
vt 0.68453 0.246159
vt 0.684527 0.185037
vt 0.836201 0.190298
vt 0.836204 0.24089
vt 0.786203 0.126844
vt 0.916216 0.126838
vt 0.931563 0.079609
vt 0.770856 0.079611
vt 0.786202 0.032378
vt 0.916216 0.032377
vt 0.814063 0.007434
vt 0.888356 0.007431
vt 0.876044 0.156027
vt 0.826381 0.156032
vt 0.24277 0.241048
vt 0.206496 0.29768
vt 0.242768 0.297681
vt 0.206499 0.196723
vt 0.291083 0.24105
vt 0.291714 0.109696
vt 0.190045 0.17313
vt 0.190044 0.109695
vt 0.344225 0.109694
vt 0.342279 0.24105
vt 0.396607 0.109694
vt 0.396607 0.241053
vt 0.254409 0.252122
vt 0.254409 0.28842
vt 0.272104 0.28842
vt 0.921838 0.729977
vt 0.001099 0.729895
vt 0.921838 0.757862
vt 0.001098 0.698104
vt 0.921838 0.698104
vt 0.001099 0.870022
vt 0.941377 0.812683
vt 0.971073 0.870022
vt 0.997998 0.812683
vt 0.930449 0.768429
vt 0.941377 0.77252
vt 0.997775 0.997666
vt 0.997775 0.939818
vt 0.001691 0.935064
vt 0.001691 0.997666
vt 0.001691 0.875982
vt 0.971852 0.875982
vt 0.865613 0.295947
vt 0.883308 0.19516
vt 0.865613 0.195159
vt 0.97973 0.195162
vt 0.979772 0.183702
vt 0.883264 0.183699
vt 0.889769 0.17087
vt 0.973263 0.170875
vt 0.960803 0.145779
vt 0.902229 0.145778
vt 0.931517 0.132931
vt 0.997426 0.295949
vt 0.997426 0.195161
vt 0.865611 0.324817
vt 0.997425 0.324813
vt 0.997426 0.295949
vt 0.865613 0.295947
vt 0.865612 0.388324
vt 0.997424 0.388325
vt 0.997425 0.324813
vt 0.865611 0.324817
vt 0.96124 0.743595
vt 0.992976 0.743752
vt 0.992976 0.688647
vt 0.992976 0.801442
vt 0.115658 0.006281
vt 0.332027 0.006162
vt 0.30845 0.067166
vt 0.128522 0.035554
vt 0.254596 0.098074
vt 0.40206 0.24547
vt 0.34543 0.24547
vt 0.345428 0.281743
vt 0.446387 0.281745
vt 0.40206 0.197162
vt 0.533414 0.196527
vt 0.469974 0.298196
vt 0.533414 0.298194
vt 0.533411 0.144019
vt 0.40206 0.145964
vt 0.533413 0.091638
vt 0.40206 0.091637
vt 0.313995 0.285298
vt 0.2777 0.267602
vt 0.277702 0.285296
vt 0.922063 0.661544
vt 0.922063 0.633637
vt 0.001325 0.661513
vt 0.001325 0.693362
vt 0.922063 0.693362
vt 0.001325 0.521453
vt 0.941602 0.578796
vt 0.971297 0.521453
vt 0.998224 0.578796
vt 0.930678 0.623058
vt 0.941603 0.618964
vt 0.997146 0.394308
vt 0.00106 0.394307
vt 0.00106 0.456909
vt 0.997146 0.452156
vt 0.00106 0.515991
vt 0.971223 0.515991
vt 0.671231 0.296039
vt 0.67123 0.194484
vt 0.539418 0.194481
vt 0.539421 0.296044
vt 0.55767 0.146056
vt 0.652978 0.14606
vt 0.605324 0.127738
vt 0.989915 0.680225
vt 0.958181 0.625278
vt 0.958181 0.680382
vt 0.958181 0.738067
vt 0.115658 0.006281
vt 0.128522 0.035554
vt 0.30845 0.067166
vt 0.332027 0.006162
vt 0.254596 0.098074
vn 0.7071276 0 0.7070859
vn 0.7071306 0 0.7070829
vn 1 0 0
vn 1 0 0
vn -3.725205E-07 0 1
vn -2.793904E-07 0 1
vn -0.7071306 0 0.7070829
vn -0.7071276 0 0.7070859
vn -1 0 0
vn -1 0 0
vn -0.7071306 0 -0.7070829
vn -0.7071276 0 -0.7070859
vn 4.097726E-06 0 -1
vn 4.097726E-06 0 -1
vn 0.7071306 0 -0.7070829
vn 0.7071306 0 -0.7070829
vn 4.097726E-06 0 -1
vn 4.097726E-06 0 -1
vn 0 1 0
vn 0 1 0
vn 0 1 0
vn 0 1 0
vn 0 1 0
vn 0 1 0
vn 0 1 0
vn 0 1 0
vn 1 0 0
vn 1 0 0
vn 0.8089876 0 -0.5878257
vn 0.8089876 0 -0.5878257
vn 0.30903 0 -0.9510524
vn 0.300034 0 -0.9539285
vn -0.3090354 0 -0.9510505
vn -0.3185263 0 -0.9479141
vn -0.8089876 0 -0.5878257
vn -0.8089876 0 -0.5878257
vn -1 0 0
vn -1 0 0
vn -0.810908 0 0.5851737
vn -0.810908 0 0.5851737
vn 0.810908 0 0.5851737
vn 0.810908 0 0.5851737
vn 0.3045078 0 0.9525099
vn 0.3120691 0 0.9500595
vn -0.3120852 0 0.9500541
vn -0.3200108 0 0.9474139
vn -0.810908 0 0.5851737
vn -0.810908 0 0.5851737
vn 0.7042999 0.7099026 0
vn 0.7042999 0.7099026 0
vn 0.569809 0.7099306 -0.4139037
vn 0.569809 0.7099306 -0.4139037
vn 0.2176395 0.7098927 -0.6698397
vn 0.2176395 0.7098927 -0.6698397
vn -0.2176282 0.7098946 -0.6698414
vn -0.2176395 0.7098927 -0.6698397
vn -0.569809 0.7099306 -0.4139037
vn -0.569809 0.7099306 -0.4139037
vn -0.7042999 0.7099026 0
vn -0.7042999 0.7099026 0
vn -0.5957826 0.6885234 0.4134955
vn -0.5934308 0.6880026 0.4177227
vn 0.5934308 0.6880026 0.4177227
vn 0.5957673 0.6885332 0.4135014
vn 0.2059305 0.69604 0.6878378
vn 0.2762211 0.6902875 0.6687339
vn -0.205942 0.6960383 0.6878362
vn -0.2762211 0.6902875 0.6687339
vn -0.5934308 0.6880026 0.4177227
vn -0.5957826 0.6885234 0.4134955
vn 1 0 0
vn 1 0 0
vn 0.8089917 0 -0.5878201
vn 0.8089876 0 -0.5878257
vn 0.30903 0 -0.9510524
vn 0.3090354 0 -0.9510505
vn -0.30903 0 -0.9510524
vn -0.3090246 0 -0.9510541
vn -0.8089834 0 -0.5878314
vn -0.8089876 0 -0.5878257
vn -1 0 0
vn -1 0 0
vn -0.8378795 0 0.5458554
vn -0.837883 0 0.5458499
vn 0.8378759 0 0.5458609
vn 0.8378795 0 0.5458554
vn 0.3570895 0 0.9340702
vn 0.3570895 0 0.9340702
vn -0.3570946 0 0.9340682
vn -0.3570946 0 0.9340682
vn -0.837883 0 0.5458499
vn -0.8378795 0 0.5458554
vn 0.03223515 -0.9994803 0
vn 0.03223515 -0.9994803 0
vn 0.0372189 -0.9993072 0
vn 0.0372189 -0.9993072 0
vn 0.03654028 -0.9993321 0
vn 0.03654028 -0.9993321 0
vn 0.04926463 -0.9987858 0
vn 0.04926463 -0.9987858 0
vn 0.05210992 -0.9986413 0
vn 0.05210992 -0.9986413 0
vn 0 1 0
vn 0 1 0
vn 0 1 0
vn 0 1 0
vn 0 1 0
vn 0 1 0
vn 0 1 0
vn 0 1 0
vn 0 1 0
vn 0 1 0
vn 1 0 0
vn 1 0 0
vn 1 0 0
vn 1 0 0
vn 0.9868037 -0.007629311 -0.1617414
vn 0.98699 -0.007629461 -0.1606002
vn 1 0 0
vn 1 0 0
vn 0.7258834 -0.02288913 -0.6874368
vn 0.6634354 -0.01602173 -0.748062
vn 1.676286E-06 -0.02879935 -0.9995852
vn 1.676345E-06 -0.01945454 -0.9998108
vn 0 0.9999388 -0.01106169
vn 0 0.9999388 -0.0110638
vn 0 0.9999388 -0.0110638
vn 0.6901624 0 0.7236546
vn 0.6901624 0 0.7236546
vn 0.8974227 0.0007629422 0.4411713
vn -1.583212E-06 0 1
vn -1.676342E-06 0 1
vn 0.8956398 0 0.4447802
vn 0.8948702 0 0.4463264
vn 0.8927712 0 0.4505102
vn 0.8927761 0 0.4505006
vn 0.8999933 0.007438848 0.4358402
vn 0.8988229 -0.003051706 0.4383013
vn 1.676345E-06 -0.01945454 -0.9998108
vn 0.6634354 -0.01602173 -0.748062
vn 0.6202628 -0.00801139 -0.7843532
vn 1.583131E-06 -0.0101082 -0.999949
vn 0.8160557 -0.006103668 -0.5779411
vn 0.8160557 -0.006103668 -0.5779411
vn 0 0 1
vn 0 -0.1007123 0.9949156
vn 0 0 1
vn 0 -0.1007123 0.9949156
vn 0 -0.5113229 0.8593886
vn 0 -0.5113229 0.8593886
vn -1.192121E-05 -0.8920881 0.4518615
vn -1.192121E-05 -0.8920881 0.4518615
vn 0 -1 0
vn 0 -1 0
vn 0 -1 0
vn 0 0 1
vn 0 0 1
vn -1.192183E-05 0.5852189 0.8108753
vn -1.192183E-05 0.5852189 0.8108753
vn 0 0.5852189 0.8108753
vn 0 0.5852189 0.8108753
vn 0 0 1
vn 0 0 1
vn -1.192066E-05 0 1
vn -1.192066E-05 0 1
vn 0.6965536 -0.7093084 -0.1081414
vn 0.696613 -0.7093082 -0.1077599
vn 0.7060671 -0.7079505 -0.01659259
vn 0.6814399 -0.7048613 -0.1970027
vn 0 1 0
vn 0 1 0
vn 0 1 0
vn 0 1 0
vn 0 1 0
vn -1 0 0
vn -1 0 0
vn -1 0 0
vn -1 0 0
vn -0.9868037 -0.007629311 -0.1617414
vn -0.98699 -0.007629461 -0.1606002
vn -1 0 0
vn -1 0 0
vn -0.7258834 -0.02288913 -0.6874368
vn -0.6634354 -0.01602173 -0.748062
vn 1.676286E-06 -0.02879935 -0.9995852
vn 1.676345E-06 -0.01945454 -0.9998108
vn 0 0.9999388 -0.01106169
vn 0 0.9999388 -0.0110638
vn 0 0.9999388 -0.0110638
vn -0.6901624 0 0.7236546
vn -0.8974273 0.0007629258 0.4411619
vn -0.6901624 0 0.7236546
vn -1.583212E-06 0 1
vn -1.676342E-06 0 1
vn -0.8956398 0 0.4447802
vn -0.8948702 0 0.4463264
vn -0.8927809 0 0.450491
vn -0.8927761 0 0.4505006
vn -0.8999933 0.007438848 0.4358402
vn -0.8988229 -0.003051706 0.4383013
vn 1.676345E-06 -0.01945454 -0.9998108
vn 1.583131E-06 -0.0101082 -0.999949
vn -0.6202628 -0.00801139 -0.7843532
vn -0.6634354 -0.01602173 -0.748062
vn -0.8160557 -0.006103668 -0.5779411
vn -0.8160557 -0.006103668 -0.5779411
vn 0 -1 0
vn 0 -1 0
vn 0 -1 0
vn 0 -1 0
vn 0 -1 0
vn 0 -1 0
vn 0 -1 0
vn -0.6965536 -0.7093084 -0.1081414
vn -0.7060671 -0.7079505 -0.01659259
vn -0.696613 -0.7093082 -0.1077599
vn -0.6814399 -0.7048613 -0.1970027
vn 0 1 0
vn 0 1 0
vn 0 1 0
vn 0 1 0
vn 0 1 0
g handguard_fal_fn_original_stamped_steel_LOD1_0
f 3/3/3 2/2/2 1/1/1
f 4/4/4 3/3/3 1/1/1
f 1/1/1 2/2/2 5/5/5
f 2/2/2 6/6/6 5/5/5
f 5/5/5 6/6/6 7/7/7
f 6/6/6 8/8/8 7/7/7
f 7/7/7 8/8/8 9/9/9
f 8/8/8 10/10/10 9/9/9
f 9/9/9 10/10/10 11/11/11
f 10/10/10 12/12/12 11/11/11
f 11/11/11 12/12/12 13/13/13
f 12/12/12 14/14/14 13/13/13
f 15/15/15 3/3/3 4/4/4
f 16/16/16 15/15/15 4/4/4
f 17/17/17 15/15/15 16/16/16
f 18/18/18 17/17/17 16/16/16
f 21/21/21 20/20/20 19/19/19
f 22/22/22 21/21/21 19/19/19
f 19/19/19 20/20/20 23/23/23
f 24/24/24 19/19/19 23/23/23
f 25/25/25 21/21/21 22/22/22
f 26/26/26 24/24/24 23/23/23
f 29/29/29 28/28/28 27/27/27
f 30/30/30 29/29/29 27/27/27
f 31/31/31 29/29/29 30/30/30
f 32/32/32 31/31/31 30/30/30
f 33/33/33 31/31/31 32/32/32
f 34/34/34 33/33/33 32/32/32
f 35/35/35 33/33/33 34/34/34
f 36/36/36 35/35/35 34/34/34
f 37/37/37 35/35/35 36/36/36
f 38/38/38 37/37/37 36/36/36
f 39/39/39 37/37/37 38/38/38
f 40/40/40 39/39/39 38/38/38
f 27/27/27 28/28/28 41/41/41
f 28/28/28 42/42/42 41/41/41
f 41/41/41 42/42/42 43/43/43
f 42/42/42 44/44/44 43/43/43
f 44/44/44 45/45/45 43/43/43
f 45/45/45 46/46/46 43/43/43
f 46/46/46 45/45/45 47/47/47
f 45/45/45 48/48/48 47/47/47
f 51/51/51 50/50/50 49/49/49
f 52/52/52 51/51/51 49/49/49
f 53/53/53 51/51/51 52/52/52
f 54/54/54 53/53/53 52/52/52
f 55/55/55 53/53/53 54/54/54
f 56/56/56 55/55/55 54/54/54
f 57/57/57 55/55/55 56/56/56
f 58/58/58 57/57/57 56/56/56
f 59/59/59 57/57/57 58/58/58
f 60/60/60 59/59/59 58/58/58
f 61/61/61 59/59/59 60/60/60
f 62/62/62 61/61/61 60/60/60
f 49/49/49 50/50/50 63/63/63
f 50/50/50 64/64/64 63/63/63
f 63/63/63 64/64/64 65/65/65
f 64/64/64 66/66/66 65/65/65
f 67/67/67 65/65/65 66/66/66
f 68/68/68 67/67/67 66/66/66
f 67/67/67 68/68/68 69/69/69
f 68/68/68 70/70/70 69/69/69
f 73/73/73 72/72/72 71/71/71
f 74/74/74 73/73/73 71/71/71
f 75/75/75 73/73/73 74/74/74
f 76/76/76 75/75/75 74/74/74
f 77/77/77 75/75/75 76/76/76
f 78/78/78 77/77/77 76/76/76
f 79/79/79 77/77/77 78/78/78
f 80/80/80 79/79/79 78/78/78
f 81/81/81 79/79/79 80/80/80
f 82/82/82 81/81/81 80/80/80
f 83/83/83 81/81/81 82/82/82
f 84/84/84 83/83/83 82/82/82
f 71/71/71 72/72/72 85/85/85
f 72/72/72 86/86/86 85/85/85
f 85/85/85 86/86/86 87/87/87
f 86/86/86 88/88/88 87/87/87
f 89/89/89 87/87/87 88/88/88
f 90/90/90 89/89/89 88/88/88
f 89/89/89 90/90/90 91/91/91
f 90/90/90 92/92/92 91/91/91
f 95/95/95 94/94/94 93/93/93
f 96/96/96 95/95/95 93/93/93
f 93/93/93 94/94/94 97/97/97
f 98/98/98 93/93/93 97/97/97
f 98/98/98 97/97/97 99/99/99
f 100/100/100 98/98/98 99/99/99
f 95/95/95 96/96/96 101/101/101
f 102/102/102 95/95/95 101/101/101
f 105/105/105 104/104/104 103/103/103
f 106/106/106 105/105/105 103/103/103
f 105/105/105 106/106/106 107/107/107
f 108/108/108 105/105/105 107/107/107
f 108/108/108 107/107/107 109/109/109
f 110/110/110 108/108/108 109/109/109
f 103/103/103 104/104/104 111/111/111
f 112/112/112 103/103/103 111/111/111
f 115/115/115 114/114/114 113/113/113
f 114/114/114 116/116/116 113/113/113
f 113/113/113 116/116/116 117/117/117
f 117/117/117 116/116/116 118/118/118
f 116/116/116 119/119/119 118/118/118
f 118/118/118 119/119/119 120/120/120
f 117/117/117 118/118/118 121/121/121
f 122/122/122 117/117/117 121/121/121
f 122/122/122 121/121/121 123/123/123
f 124/124/124 122/122/122 123/123/123
f 127/127/127 126/126/126 125/125/125
f 130/130/130 129/129/129 128/128/128
f 129/129/129 131/131/131 128/128/128
f 131/131/131 132/132/132 128/128/128
f 133/133/133 129/129/129 130/130/130
f 133/133/133 130/130/130 134/134/134
f 135/135/135 133/133/133 134/134/134
f 136/136/136 135/135/135 134/134/134
f 134/134/134 130/130/130 137/137/137
f 138/138/138 134/134/134 137/137/137
f 141/141/141 140/140/140 139/139/139
f 142/142/142 141/141/141 139/139/139
f 141/141/141 143/143/143 140/140/140
f 143/143/143 144/144/144 140/140/140
f 147/147/147 146/146/146 145/145/145
f 146/146/146 148/148/148 145/145/145
f 149/149/149 148/148/148 146/146/146
f 150/150/150 149/149/149 146/146/146
f 149/149/149 150/150/150 151/151/151
f 152/152/152 149/149/149 151/151/151
f 153/153/153 152/152/152 151/151/151
f 154/154/154 153/153/153 151/151/151
f 154/154/154 155/155/155 153/153/153
f 148/148/148 156/156/156 145/145/145
f 148/148/148 157/157/157 156/156/156
f 160/160/160 159/159/159 158/158/158
f 161/161/161 160/160/160 158/158/158
f 164/164/164 163/163/163 162/162/162
f 165/165/165 164/164/164 162/162/162
f 168/168/168 167/167/167 166/166/166
f 166/166/166 167/167/167 169/169/169
f 172/172/172 171/171/171 170/170/170
f 173/173/173 172/172/172 170/170/170
f 173/173/173 174/174/174 172/172/172
f 177/177/177 176/176/176 175/175/175
f 178/178/178 177/177/177 175/175/175
f 178/178/178 175/175/175 179/179/179
f 178/178/178 179/179/179 180/180/180
f 181/181/181 178/178/178 180/180/180
f 181/181/181 180/180/180 182/182/182
f 180/180/180 179/179/179 183/183/183
f 179/179/179 184/184/184 183/183/183
f 183/183/183 184/184/184 185/185/185
f 184/184/184 186/186/186 185/185/185
f 189/189/189 188/188/188 187/187/187
f 192/192/192 191/191/191 190/190/190
f 193/193/193 192/192/192 190/190/190
f 194/194/194 193/193/193 190/190/190
f 192/192/192 195/195/195 191/191/191
f 191/191/191 195/195/195 196/196/196
f 195/195/195 197/197/197 196/196/196
f 197/197/197 198/198/198 196/196/196
f 191/191/191 196/196/196 199/199/199
f 196/196/196 200/200/200 199/199/199
f 203/203/203 202/202/202 201/201/201
f 204/204/204 203/203/203 201/201/201
f 205/205/205 203/203/203 204/204/204
f 206/206/206 205/205/205 204/204/204
f 209/209/209 208/208/208 207/207/207
f 210/210/210 209/209/209 207/207/207
f 209/209/209 211/211/211 208/208/208
f 211/211/211 212/212/212 208/208/208
f 211/211/211 213/213/213 212/212/212
f 216/216/216 215/215/215 214/214/214
f 216/216/216 214/214/214 217/217/217
f 220/220/220 219/219/219 218/218/218
f 221/221/221 220/220/220 218/218/218
f 222/222/222 219/219/219 220/220/220
