g handguard_mpx_midwest_14_inch_m_lok_LOD1
v 0.007756519 -0.1017457 0.03917832
v 0.007756519 -0.3618695 0.03917827
v -0.007756529 -0.3618695 0.03917827
v -0.007756529 -0.1017413 0.03917832
v -0.01559261 -0.1017413 0.02343958
v -0.01559261 -0.3641416 0.02343954
v -0.01643189 -0.2602113 0.01688622
v -0.01208099 -0.3641416 0.02820432
v -0.01208099 -0.1017413 0.02820437
v -0.007793155 -0.1017413 0.03017546
v -0.007793155 -0.3641416 0.03017542
v -0.01643189 -0.1017413 0.01688626
v -0.01643189 -0.3641416 0.0168862
v -0.007756529 -0.3618695 0.03917827
v -0.01054748 -0.3641416 0.03692975
v -0.01054748 -0.1017413 0.03692979
v -0.007756529 -0.1017413 0.03917832
v -0.01054748 -0.3641416 0.03692975
v -0.007747321 -0.3641416 0.03451322
v -0.007747321 -0.1017413 0.03451328
v -0.01054748 -0.1017413 0.03692979
v -0.007793155 -0.3641416 0.03017542
v -0.007793155 -0.1017413 0.03017546
v -0.007747321 -0.1017413 0.03451328
v -0.007747321 -0.3641416 0.03451322
v -0.01643184 0.01494947 0.01688628
v 0.01643183 0.01494947 0.01688628
v 0.01643188 -0.1017457 0.01688626
v -0.01643189 -0.1017413 0.01688626
v -0.02464634 0.01494947 -0.01535557
v -0.02464638 -0.2602113 -0.01535562
v -0.01002818 -0.2602114 -0.02744841
v -0.01002813 0.01494949 -0.02744835
v -0.02464638 -0.3641416 0.0008989322
v -0.02464638 -0.2602114 0.0008989489
v -0.01967792 -0.2602114 0.01518048
v -0.01967792 -0.3641416 0.01518046
v -0.02464638 -0.3641416 -0.01535564
v -0.02464638 -0.2602113 -0.01535562
v -0.01643189 -0.2602113 0.01688622
v -0.01643189 -0.3641416 0.0168862
v -0.02464634 0.01494947 -0.01535557
v -0.02464634 0.01494947 0.0008989965
v -0.02464638 -0.2602114 0.0008989489
v -0.02464638 -0.2602113 -0.01535562
v -0.01967788 0.01494947 0.01518054
v -0.01967792 -0.2602114 0.01518048
v -0.01643189 -0.1017413 0.01688626
v -0.01643189 -0.2602113 0.01688622
v -0.01643184 0.01494947 0.01688628
v -0.01002813 0.01494949 -0.02744835
v -0.01002818 -0.2602114 -0.02744841
v 0.01002817 -0.2602114 -0.02744841
v 0.01002812 0.01494949 -0.02744835
v -0.02464638 -0.2602113 -0.01535562
v -0.02464638 -0.3641416 -0.01535564
v -0.01002818 -0.3499499 -0.02744843
v -0.01002818 -0.2602114 -0.02744841
v -0.01002818 -0.2602114 -0.02744841
v -0.01002818 -0.3499499 -0.02744843
v 0.01002817 -0.3499499 -0.02744843
v 0.01002817 -0.2602114 -0.02744841
v 0.02464633 0.01494947 -0.01535557
v 0.01002812 0.01494949 -0.02744835
v 0.01002817 -0.2602114 -0.02744841
v 0.02464637 -0.2602113 -0.01535562
v 0.02464638 -0.3641416 0.0008989322
v 0.01967791 -0.3641416 0.01518046
v 0.01967791 -0.2602114 0.01518048
v 0.02464637 -0.2602114 0.0008989489
v 0.02464638 -0.3641416 -0.01535564
v 0.02464637 -0.2602113 -0.01535562
v 0.01643188 -0.2602113 0.01688622
v 0.01643188 -0.3641416 0.0168862
v 0.02464633 0.01494947 -0.01535557
v 0.02464637 -0.2602113 -0.01535562
v 0.02464637 -0.2602114 0.0008989489
v 0.02464633 0.01494947 0.0008989965
v 0.01967787 0.01494947 0.01518054
v 0.01967791 -0.2602114 0.01518048
v 0.01643188 -0.1017457 0.01688626
v 0.01643188 -0.2602113 0.01688622
v 0.01643183 0.01494947 0.01688628
v 0.01559261 -0.1017413 0.02343958
v 0.01643188 -0.2602113 0.01688622
v 0.01559261 -0.3641416 0.02343954
v 0.01208098 -0.3641416 0.02820432
v 0.01208098 -0.1017413 0.02820437
v 0.007793145 -0.1017413 0.03017546
v 0.007793145 -0.3641416 0.03017542
v 0.01643188 -0.3641416 0.0168862
v 0.01643188 -0.1017457 0.01688626
v 0.007756519 -0.1017457 0.03917832
v 0.01054747 -0.1017413 0.03692979
v 0.01054747 -0.3641416 0.03692975
v 0.007756519 -0.3618695 0.03917827
v 0.01054747 -0.1017413 0.03692979
v 0.007747312 -0.1017413 0.03451328
v 0.007747312 -0.3641416 0.03451322
v 0.01054747 -0.3641416 0.03692975
v 0.007793145 -0.3641416 0.03017542
v 0.007747312 -0.3641416 0.03451322
v 0.007747312 -0.1017413 0.03451328
v 0.007793145 -0.1017413 0.03017546
v 0.02464637 -0.2602113 -0.01535562
v 0.01002817 -0.2602114 -0.02744841
v 0.01002817 -0.3499499 -0.02744843
v 0.02464638 -0.3641416 -0.01535564
v -0.01002813 0.01494949 -0.02744835
v 0.01002812 0.01494949 -0.02744835
v 0.02464633 0.01494947 -0.01535557
v -0.02464634 0.01494947 -0.01535557
v 0.02464633 0.01494947 0.0008989965
v -0.02464634 0.01494947 0.0008989965
v -0.01967788 0.01494947 0.01518054
v 0.01967787 0.01494947 0.01518054
v -0.01643184 0.01494947 0.01688628
v 0.01643183 0.01494947 0.01688628
v -0.007747321 -0.3641416 0.03451322
v 0.007747312 -0.3641416 0.03451322
v 0.007793145 -0.3641416 0.03017542
v -0.007793155 -0.3641416 0.03017542
v -0.01054748 -0.3641416 0.03692975
v 0.01054747 -0.3641416 0.03692975
v -0.01208099 -0.3641416 0.02820432
v 0.01208098 -0.3641416 0.02820432
v -0.01559261 -0.3641416 0.02343954
v 0.01559261 -0.3641416 0.02343954
v -0.01643189 -0.3641416 0.0168862
v 0.01643188 -0.3641416 0.0168862
v 0.01967791 -0.3641416 0.01518046
v -0.01967792 -0.3641416 0.01518046
v -0.02464638 -0.3641416 0.0008989322
v 0.02464638 -0.3641416 0.0008989322
v 0.02464638 -0.3641416 -0.01535564
v -0.02464638 -0.3641416 -0.01535564
v -0.007793155 -0.1017413 0.03017546
v -0.01208099 -0.1017413 0.02820437
v -0.01559261 -0.1017413 0.02343958
v -0.01643189 -0.1017413 0.01688626
v 0.007793145 -0.1017413 0.03017546
v 0.007747312 -0.1017413 0.03451328
v -0.007747321 -0.1017413 0.03451328
v 0.01054747 -0.1017413 0.03692979
v -0.01054748 -0.1017413 0.03692979
v 0.007756519 -0.1017457 0.03917832
v -0.007756529 -0.1017413 0.03917832
v 0.01643188 -0.1017457 0.01688626
v 0.01559261 -0.1017413 0.02343958
v 0.01208098 -0.1017413 0.02820437
v -0.007756529 -0.3618695 0.03917827
v 0.007756519 -0.3618695 0.03917827
v 0.01054747 -0.3641416 0.03692975
v -0.01054748 -0.3641416 0.03692975
v -0.02464638 -0.3641416 -0.01535564
v 0.02464638 -0.3641416 -0.01535564
v 0.01002817 -0.3499499 -0.02744843
v -0.01002818 -0.3499499 -0.02744843
vt 0.349426 0.9954839
vt 0.349426 0.06756133
vt 0.2940874 0.06756133
vt 0.2940874 0.9954839
vt 0.381417 0.9954849
vt 0.381417 0.05945736
vt 0.3578508 0.4302148
vt 0.4025344 0.05945736
vt 0.4025344 0.995488
vt 0.4193694 0.995488
vt 0.4193694 0.05945623
vt 0.3578477 0.995488
vt 0.3578487 0.05945736
vt 0.4406393 0.0679453
vt 0.4278542 0.05983913
vt 0.4278542 0.9958699
vt 0.4406414 0.9958689
vt 0.4622184 0.06009895
vt 0.4490231 0.06009895
vt 0.4490231 0.9961276
vt 0.4622163 0.9961276
vt 0.4708084 0.05984026
vt 0.4708084 0.9958689
vt 0.4862843 0.9958689
vt 0.4862843 0.05984026
vt 0.4946786 0.9959667
vt 0.6119145 0.9959667
vt 0.6119134 0.5796408
vt 0.4946786 0.5796408
vt 0.2053556 0.9956217
vt 0.2053545 0.01402509
vt 0.1376791 0.01402599
vt 0.1376769 0.9956228
vt 0.9922465 0.3563598
vt 0.6214908 0.355974
vt 0.6214298 0.4098936
vt 0.9921856 0.4102404
vt 0.9923086 0.2983905
vt 0.6215529 0.2979957
vt 0.6214161 0.4229576
vt 0.992172 0.4233201
vt 0.004109 0.996013
vt 0.06210574 0.9960782
vt 0.06312666 0.01448095
vt 0.005151121 0.01441586
vt 0.1160947 0.9961361
vt 0.1170652 0.0145449
vt 0.129636 0.5798259
vt 0.13012 0.01455492
vt 0.1291469 0.9961508
vt 0.285691 0.9951642
vt 0.2856898 0.01356691
vt 0.2141447 0.01356691
vt 0.2141434 0.9951642
vt 0.9924614 0.432706
vt 0.6217035 0.4327032
vt 0.6723292 0.5003828
vt 0.9924603 0.5003822
vt 0.9209116 0.6728722
vt 0.9209107 0.9930014
vt 0.9924582 0.9930003
vt 0.9924561 0.6728711
vt 0.2053556 0.9956217
vt 0.1376769 0.9956228
vt 0.1376791 0.01402599
vt 0.2053545 0.01402509
vt 0.9922465 0.3563598
vt 0.9921856 0.4102404
vt 0.6214298 0.4098936
vt 0.6214908 0.355974
vt 0.9923086 0.2983905
vt 0.6215529 0.2979957
vt 0.6214161 0.4229576
vt 0.992172 0.4233201
vt 0.004109 0.996013
vt 0.005151121 0.01441586
vt 0.06312666 0.01448095
vt 0.06210574 0.9960782
vt 0.1160947 0.9961361
vt 0.1170652 0.01454298
vt 0.129636 0.5798259
vt 0.13012 0.01455492
vt 0.1291469 0.9961508
vt 0.381417 0.9954849
vt 0.3578508 0.4302148
vt 0.381417 0.05945736
vt 0.4025344 0.05945736
vt 0.4025344 0.995488
vt 0.4193694 0.995488
vt 0.4193694 0.05945623
vt 0.3578487 0.05945736
vt 0.3578477 0.995488
vt 0.4406414 0.9958689
vt 0.4278542 0.9958699
vt 0.4278542 0.05983913
vt 0.4406393 0.0679453
vt 0.4622163 0.9961276
vt 0.4490231 0.9961276
vt 0.4490231 0.06009895
vt 0.4622184 0.06009895
vt 0.4708084 0.05984026
vt 0.4862843 0.05984026
vt 0.4862843 0.9958689
vt 0.4708084 0.9958689
vt 0.9924614 0.432706
vt 0.9924603 0.5003822
vt 0.6723292 0.5003828
vt 0.6217035 0.4327032
vt 0.9119289 0.1291399
vt 0.8403813 0.1291399
vt 0.788233 0.1722791
vt 0.964079 0.1722791
vt 0.788233 0.2302665
vt 0.964079 0.2302665
vt 0.946354 0.2812164
vt 0.8059582 0.2812164
vt 0.9347755 0.2873029
vt 0.8175377 0.2873029
vt 0.6769578 0.2615573
vt 0.7322312 0.2615499
vt 0.7323933 0.2460751
vt 0.6767927 0.2460794
vt 0.6669709 0.2701821
vt 0.7422224 0.2701674
vt 0.6614957 0.2390462
vt 0.7476903 0.239044
vt 0.6489683 0.222044
vt 0.7602166 0.222044
vt 0.6459746 0.1986597
vt 0.7632104 0.1986639
vt 0.774792 0.1925754
vt 0.634396 0.1925732
vt 0.6166722 0.1416254
vt 0.7925169 0.1416285
vt 0.792518 0.08364347
vt 0.6166732 0.08363822
vt 0.8327026 0.07275042
vt 0.8174077 0.07978466
vt 0.8048846 0.09678581
vt 0.8018918 0.1201628
vt 0.8883073 0.07275155
vt 0.8881453 0.05727878
vt 0.832871 0.05727556
vt 0.8981344 0.04865929
vt 0.8228797 0.04865292
vt 0.88818 0.04063627
vt 0.8328373 0.04062894
vt 0.9191223 0.1201596
vt 0.9161317 0.09678265
vt 0.9036043 0.07978252
vt 0.6771993 0.2891934
vt 0.7325389 0.2891965
vt 0.7424954 0.2777926
vt 0.6672439 0.2777906
vt 0.6173012 0.07498619
vt 0.793147 0.07498398
vt 0.740997 0.008470923
vt 0.6694503 0.008470923
vn 0 -1.64979E-07 1
vn 0 -1.64979E-07 1
vn 0 -1.64979E-07 1
vn 0 -1.649791E-07 1
vn -0.9282001 0 0.3720815
vn -0.9282001 0 0.3720814
vn -0.9918988 0 0.127031
vn -0.6313391 -1.410139E-07 0.7755069
vn -0.631339 -1.410139E-07 0.775507
vn -0.4176767 -1.651583E-07 0.9085957
vn -0.4176766 -1.651583E-07 0.9085957
vn -0.9918987 0 0.1270312
vn -0.9918988 0 0.1270311
vn -0.6273748 -1.277067E-07 0.7787175
vn -0.6273748 -1.277067E-07 0.7787175
vn -0.6273748 -1.277067E-07 0.7787175
vn -0.6273748 -1.277067E-07 0.7787175
vn -0.6533411 1.376054E-07 -0.7570636
vn -0.6533411 1.376054E-07 -0.7570637
vn -0.6533411 1.376054E-07 -0.7570636
vn -0.6533411 1.376054E-07 -0.7570637
vn -0.9999442 0 0.01056547
vn -0.9999442 0 0.01056547
vn -0.9999442 0 0.01056547
vn -0.9999442 0 0.01056547
vn 0 -1.634502E-07 1
vn 0 -1.634502E-07 1
vn 0 -1.634502E-07 1
vn 0 -1.634502E-07 1
vn -0.63741 2.426302E-07 -0.7705248
vn -0.6374101 1.829599E-07 -0.7705247
vn -0.6374101 1.829599E-07 -0.7705247
vn -0.6374099 2.426302E-07 -0.7705248
vn -0.9860215 0 0.1666181
vn -0.9860215 0 0.166618
vn -0.7577859 0 0.6525033
vn -0.7577859 0 0.6525033
vn -1 0 0
vn -1 0 0
vn -0.4651707 -1.673951E-07 0.8852209
vn -0.4651707 -1.216989E-07 0.8852209
vn -1 1.386352E-07 0
vn -0.9860215 1.033528E-07 0.166618
vn -0.9860215 0 0.166618
vn -1 0 0
vn -0.7577848 0 0.6525044
vn -0.7577859 0 0.6525033
vn -0.4651736 -1.335167E-07 0.8852195
vn -0.4651707 -1.673951E-07 0.8852209
vn -0.4651681 0 0.8852224
vn 0 1.992881E-07 -1
vn 0 1.793484E-07 -1
vn 0 1.793484E-07 -1
vn 0 1.992881E-07 -1
vn -0.6374101 1.829599E-07 -0.7705247
vn -0.6374102 1.232896E-07 -0.7705246
vn -0.6374102 1.232896E-07 -0.7705246
vn -0.6374101 1.829599E-07 -0.7705247
vn 0 1.793484E-07 -1
vn 0 1.594088E-07 -1
vn 0 1.594089E-07 -1
vn 0 1.793484E-07 -1
vn 0.63741 2.400612E-07 -0.7705247
vn 0.63741 2.400612E-07 -0.7705247
vn 0.6374101 1.970866E-07 -0.7705247
vn 0.6374101 1.970866E-07 -0.7705247
vn 0.9860216 0 0.166618
vn 0.7577858 0 0.6525034
vn 0.7577857 0 0.6525034
vn 0.9860215 0 0.166618
vn 1 0 0
vn 1 1.108658E-07 0
vn 0.4651706 -1.62144E-07 0.8852211
vn 0.4651705 -1.111907E-07 0.8852211
vn 1 1.299705E-07 0
vn 1 1.108658E-07 0
vn 0.9860215 0 0.166618
vn 0.9860215 1.011383E-07 0.166618
vn 0.7577852 0 0.6525041
vn 0.7577857 0 0.6525034
vn 0.4651739 -1.257871E-07 0.8852193
vn 0.4651706 -1.62144E-07 0.8852211
vn 0.4651692 0 0.8852218
vn 0.9281796 0 0.3721325
vn 0.9918989 0 0.1270296
vn 0.9282002 0 0.3720814
vn 0.6313385 -1.410139E-07 0.7755073
vn 0.6313385 -1.410138E-07 0.7755073
vn 0.4176767 -1.651583E-07 0.9085957
vn 0.4176766 -1.651583E-07 0.9085957
vn 0.9918989 0 0.1270296
vn 0.9918989 0 0.1270298
vn 0.6273748 -1.277077E-07 0.7787175
vn 0.6273748 -1.277077E-07 0.7787175
vn 0.6273748 -1.277077E-07 0.7787175
vn 0.6273748 -1.277077E-07 0.7787175
vn 0.6533411 1.376054E-07 -0.7570637
vn 0.6533411 1.376054E-07 -0.7570636
vn 0.6533411 1.376054E-07 -0.7570637
vn 0.6533411 1.376054E-07 -0.7570636
vn 0.9999442 0 0.01056547
vn 0.9999442 0 0.01056547
vn 0.9999442 0 0.01056547
vn 0.9999442 0 0.01056547
vn 0.6374101 1.970866E-07 -0.7705247
vn 0.6374101 1.970866E-07 -0.7705247
vn 0.6374102 1.54112E-07 -0.7705247
vn 0.6374102 1.54112E-07 -0.7705247
vn 0 1 1.577262E-06
vn 0 1 1.577262E-06
vn 0 1 4.819322E-07
vn 0 1 4.819322E-07
vn 0 1 0
vn 0 1 0
vn 0 1 0
vn 0 1 0
vn 0 1 0
vn 0 1 0
vn 0 -1 0
vn 0 -1 0
vn 0 -1 0
vn 0 -1 0
vn 0 -1 0
vn 0 -1 0
vn 0 -1 0
vn 0 -1 0
vn 0 -1 0
vn 0 -1 0
vn 0 -1 0
vn 0 -1 0
vn 0 -1 0
vn 0 -1 0
vn 0 -1 0
vn 0 -1 0
vn 0 -1 0
vn 0 -1 0
vn 4.552134E-05 1 -8.298135E-05
vn 0 1 0
vn 0 1 0
vn 6.237685E-05 1 -0.0001137074
vn -2.059393E-05 1 -0.0001595362
vn 0 1 0
vn 0 1 0
vn 5.846001E-05 0.9999999 0.0004758894
vn 5.845998E-05 0.9999999 0.0004758892
vn 0.0001198345 0.9999995 0.0009755036
vn 0.0001198345 0.9999995 0.0009755036
vn -9.351639E-05 1 -0.0002942159
vn -0.0005011117 0.9999998 -0.0005802369
vn -0.0005011117 0.9999998 -0.0005802369
vn -7.321887E-07 -0.7034119 0.7107824
vn -7.321887E-07 -0.7034119 0.7107824
vn -7.321887E-07 -0.7034119 0.7107824
vn -7.321887E-07 -0.7034119 0.7107824
vn -3.572528E-07 -0.6485766 -0.7611494
vn -3.572528E-07 -0.6485766 -0.7611494
vn -3.572529E-07 -0.6485766 -0.7611494
vn -3.572529E-07 -0.6485766 -0.7611494
g handguard_mpx_midwest_14_inch_m_lok_LOD1_0
f 3/3/3 2/2/2 1/1/1
f 4/4/4 3/3/3 1/1/1
f 7/7/7 6/6/6 5/5/5
f 5/5/5 6/6/6 8/8/8
f 9/9/9 5/5/5 8/8/8
f 10/10/10 9/9/9 8/8/8
f 11/11/11 10/10/10 8/8/8
f 12/12/12 7/7/7 5/5/5
f 7/7/7 13/13/13 6/6/6
f 16/16/16 15/15/15 14/14/14
f 17/17/17 16/16/16 14/14/14
f 20/20/20 19/19/19 18/18/18
f 21/21/21 20/20/20 18/18/18
f 24/24/24 23/23/23 22/22/22
f 25/25/25 24/24/24 22/22/22
f 28/28/28 27/27/27 26/26/26
f 29/29/29 28/28/28 26/26/26
f 32/32/32 31/31/31 30/30/30
f 33/33/33 32/32/32 30/30/30
f 36/36/36 35/35/35 34/34/34
f 37/37/37 36/36/36 34/34/34
f 38/38/38 34/34/34 35/35/35
f 39/39/39 38/38/38 35/35/35
f 36/36/36 37/37/37 40/40/40
f 37/37/37 41/41/41 40/40/40
f 44/44/44 43/43/43 42/42/42
f 45/45/45 44/44/44 42/42/42
f 46/46/46 43/43/43 44/44/44
f 47/47/47 46/46/46 44/44/44
f 47/47/47 48/48/48 46/46/46
f 47/47/47 49/49/49 48/48/48
f 48/48/48 50/50/50 46/46/46
f 53/53/53 52/52/52 51/51/51
f 54/54/54 53/53/53 51/51/51
f 57/57/57 56/56/56 55/55/55
f 58/58/58 57/57/57 55/55/55
f 61/61/61 60/60/60 59/59/59
f 62/62/62 61/61/61 59/59/59
f 65/65/65 64/64/64 63/63/63
f 66/66/66 65/65/65 63/63/63
f 69/69/69 68/68/68 67/67/67
f 70/70/70 69/69/69 67/67/67
f 67/67/67 71/71/71 70/70/70
f 71/71/71 72/72/72 70/70/70
f 68/68/68 69/69/69 73/73/73
f 74/74/74 68/68/68 73/73/73
f 77/77/77 76/76/76 75/75/75
f 78/78/78 77/77/77 75/75/75
f 78/78/78 79/79/79 77/77/77
f 79/79/79 80/80/80 77/77/77
f 81/81/81 80/80/80 79/79/79
f 82/82/82 80/80/80 81/81/81
f 83/83/83 81/81/81 79/79/79
f 86/86/86 85/85/85 84/84/84
f 86/86/86 84/84/84 87/87/87
f 84/84/84 88/88/88 87/87/87
f 88/88/88 89/89/89 87/87/87
f 89/89/89 90/90/90 87/87/87
f 86/86/86 91/91/91 85/85/85
f 85/85/85 92/92/92 84/84/84
f 95/95/95 94/94/94 93/93/93
f 96/96/96 95/95/95 93/93/93
f 99/99/99 98/98/98 97/97/97
f 100/100/100 99/99/99 97/97/97
f 103/103/103 102/102/102 101/101/101
f 104/104/104 103/103/103 101/101/101
f 107/107/107 106/106/106 105/105/105
f 108/108/108 107/107/107 105/105/105
f 111/111/111 110/110/110 109/109/109
f 112/112/112 111/111/111 109/109/109
f 113/113/113 111/111/111 112/112/112
f 114/114/114 113/113/113 112/112/112
f 114/114/114 115/115/115 113/113/113
f 115/115/115 116/116/116 113/113/113
f 115/115/115 117/117/117 116/116/116
f 117/117/117 118/118/118 116/116/116
f 121/121/121 120/120/120 119/119/119
f 122/122/122 121/121/121 119/119/119
f 119/119/119 120/120/120 123/123/123
f 120/120/120 124/124/124 123/123/123
f 122/122/122 125/125/125 121/121/121
f 125/125/125 126/126/126 121/121/121
f 125/125/125 127/127/127 126/126/126
f 127/127/127 128/128/128 126/126/126
f 127/127/127 129/129/129 128/128/128
f 129/129/129 130/130/130 128/128/128
f 131/131/131 130/130/130 129/129/129
f 132/132/132 131/131/131 129/129/129
f 132/132/132 133/133/133 131/131/131
f 133/133/133 134/134/134 131/131/131
f 135/135/135 134/134/134 133/133/133
f 136/136/136 135/135/135 133/133/133
f 139/139/139 138/138/138 137/137/137
f 140/140/140 139/139/139 137/137/137
f 137/137/137 141/141/141 140/140/140
f 142/142/142 141/141/141 137/137/137
f 143/143/143 142/142/142 137/137/137
f 144/144/144 142/142/142 143/143/143
f 145/145/145 144/144/144 143/143/143
f 146/146/146 144/144/144 145/145/145
f 147/147/147 146/146/146 145/145/145
f 141/141/141 148/148/148 140/140/140
f 149/149/149 148/148/148 141/141/141
f 150/150/150 149/149/149 141/141/141
f 153/153/153 152/152/152 151/151/151
f 154/154/154 153/153/153 151/151/151
f 157/157/157 156/156/156 155/155/155
f 158/158/158 157/157/157 155/155/155
