g handguard_ar10_kac_urx4_14_5_inch_LOD1
v -0.02140819 -0.1904986 0.006151832
v -0.02140819 1.335144E-07 -0.01152654
v -0.02140819 1.335144E-07 0.00615184
v -0.02140819 -0.1904986 -0.01152654
v -0.02140819 1.335144E-07 0.00615184
v -0.007861272 1.335144E-07 0.01969874
v -0.007861272 -0.1904986 0.01969873
v -0.02140819 -0.1904986 0.006151832
v -0.008899692 -0.1904986 -0.02403503
v -0.008899692 1.525879E-07 -0.02403502
v -0.02140819 1.335144E-07 -0.01152654
v -0.02140819 -0.1904986 -0.01152654
v -0.007861272 -0.1904986 0.02457277
v -0.007861272 1.335144E-07 0.01969874
v -0.007861272 1.335144E-07 0.02457278
v -0.007861272 -0.1904986 0.01969873
v -0.01092941 -0.1904986 0.02764986
v -0.007861272 1.335144E-07 0.02457278
v -0.01092941 1.335144E-07 0.02764986
v -0.007861272 -0.1904986 0.02457277
v -0.01092941 1.335144E-07 0.02764986
v -0.008140563 1.335144E-07 0.03043637
v -0.01092941 -0.1904986 0.02764986
v -0.008140563 -0.1904986 0.03043636
v -0.02140819 -0.1904986 0.006151832
v -0.007861272 -0.1904986 0.01969873
v -0.007861272 -0.3809973 0.01969872
v -0.02140819 -0.3809973 0.006151823
v -0.02140819 -0.3809973 0.006151823
v -0.02140819 -0.3809973 -0.01152655
v -0.02140819 -0.1904986 -0.01152654
v -0.02140819 -0.1904986 0.006151832
v -0.008899692 -0.1904986 -0.02403503
v -0.02140819 -0.3809973 -0.01152655
v -0.008899692 -0.3809973 -0.02403504
v -0.02140819 -0.1904986 -0.01152654
v -0.008140563 -0.3809973 0.03043635
v -0.01092941 -0.1904986 0.02764986
v -0.008140563 -0.1904986 0.03043636
v -0.01092941 -0.3809973 0.02764985
v -0.01092941 -0.3809973 0.02764985
v -0.007861272 -0.3809973 0.02457276
v -0.007861272 -0.1904986 0.02457277
v -0.01092941 -0.1904986 0.02764986
v -0.007861272 -0.3809973 0.02457276
v -0.007861272 -0.3809973 0.01969872
v -0.007861272 -0.1904986 0.01969873
v -0.007861272 -0.1904986 0.02457277
v -0.008140563 1.335144E-07 0.03043637
v 0.008019572 1.335144E-07 0.03043637
v -0.008140563 -0.1904986 0.03043636
v 0.008019572 -0.1904986 0.03043636
v -0.008899692 -0.1904986 -0.02403503
v 0.0087787 -0.1904986 -0.02403503
v 0.0087787 1.525879E-07 -0.02403502
v -0.008899692 1.525879E-07 -0.02403502
v 0.0212872 -0.1904986 -0.01152654
v 0.0212872 -0.1904986 0.006151832
v 0.0212872 1.335144E-07 -0.01152654
v 0.0212872 1.335144E-07 0.00615184
v 0.0212872 1.335144E-07 0.00615184
v 0.007740281 1.335144E-07 0.01969874
v -0.007861272 1.335144E-07 0.01969874
v -0.02140819 1.335144E-07 0.00615184
v 0.00774028 1.335144E-07 0.02457278
v -0.007861272 1.335144E-07 0.02457278
v -0.01092941 1.335144E-07 0.02764986
v 0.01080841 1.335144E-07 0.02764986
v -0.008140563 1.335144E-07 0.03043637
v 0.008019572 1.335144E-07 0.03043637
v 0.0212872 -0.3809973 -0.01152655
v 0.0087787 -0.3809973 -0.02403504
v -0.008899692 -0.3809973 -0.02403504
v -0.02140819 -0.3809973 -0.01152655
v 0.0212872 -0.3809973 0.006151823
v -0.02140819 -0.3809973 0.006151823
v 0.007740281 1.335144E-07 0.01969874
v 0.0212872 1.335144E-07 0.00615184
v 0.007740281 -0.1904986 0.01969873
v 0.0212872 -0.1904986 0.006151832
v 0.0087787 -0.1904986 -0.02403503
v 0.0212872 -0.1904986 -0.01152654
v 0.0212872 1.335144E-07 -0.01152654
v 0.0087787 1.525879E-07 -0.02403502
v 0.007740281 -0.1904986 0.01969873
v 0.00774028 -0.1904986 0.02457277
v 0.007740281 1.335144E-07 0.01969874
v 0.00774028 1.335144E-07 0.02457278
v 0.00774028 -0.1904986 0.02457277
v 0.01080841 -0.1904986 0.02764986
v 0.00774028 1.335144E-07 0.02457278
v 0.01080841 1.335144E-07 0.02764986
v 0.01080841 -0.1904986 0.02764986
v 0.008019572 1.335144E-07 0.03043637
v 0.01080841 1.335144E-07 0.02764986
v 0.008019572 -0.1904986 0.03043636
v 0.00774028 -0.3809973 0.02457276
v -0.007861272 -0.3809973 0.01969872
v -0.007861272 -0.3809973 0.02457276
v 0.007740281 -0.3809973 0.01969872
v 0.01080841 -0.3809973 0.02764985
v -0.01092941 -0.3809973 0.02764985
v -0.008140563 -0.3809973 0.03043635
v 0.008019572 -0.3809973 0.03043635
v 0.0212872 -0.3809973 0.006151823
v -0.02140819 -0.3809973 0.006151823
v 0.0212872 1.335144E-07 -0.01152654
v -0.02140819 1.335144E-07 -0.01152654
v -0.008899692 1.525879E-07 -0.02403502
v 0.0087787 1.525879E-07 -0.02403502
v -0.02140819 1.335144E-07 0.00615184
v 0.0212872 1.335144E-07 0.00615184
v 0.007740281 -0.1904986 0.01969873
v 0.0212872 -0.1904986 0.006151832
v 0.007740281 -0.3809973 0.01969872
v 0.0212872 -0.3809973 0.006151823
v 0.0212872 -0.3809973 0.006151823
v 0.0212872 -0.1904986 0.006151832
v 0.0212872 -0.1904986 -0.01152654
v 0.0212872 -0.3809973 -0.01152655
v 0.0087787 -0.3809973 -0.02403504
v 0.0212872 -0.3809973 -0.01152655
v 0.0087787 -0.1904986 -0.02403503
v 0.0212872 -0.1904986 -0.01152654
v -0.008899692 -0.3809973 -0.02403504
v 0.0087787 -0.3809973 -0.02403504
v -0.008899692 -0.1904986 -0.02403503
v 0.0087787 -0.1904986 -0.02403503
v -0.008140563 -0.1904986 0.03043636
v 0.008019572 -0.1904986 0.03043636
v 0.008019572 -0.3809973 0.03043635
v -0.008140563 -0.3809973 0.03043635
v 0.008019572 -0.1904986 0.03043636
v 0.01080841 -0.1904986 0.02764986
v 0.008019572 -0.3809973 0.03043635
v 0.01080841 -0.3809973 0.02764985
v 0.01080841 -0.3809973 0.02764985
v 0.01080841 -0.1904986 0.02764986
v 0.00774028 -0.1904986 0.02457277
v 0.00774028 -0.3809973 0.02457276
v 0.00774028 -0.3809973 0.02457276
v 0.00774028 -0.1904986 0.02457277
v 0.007740281 -0.1904986 0.01969873
v 0.007740281 -0.3809973 0.01969872
vt 0.003737 0.743428
vt 0.832144 0.666553
vt 0.832144 0.743428
vt 0.003737 0.666553
vt 0.832331 0.407405
vt 0.832331 0.490717
vt 0.003924 0.490717
vt 0.003924 0.407405
vt 0.003827 0.582324
vt 0.832234 0.582324
vt 0.832234 0.659249
vt 0.003827 0.659249
vt 0.004106 0.102157
vt 0.832512 0.080962
vt 0.832512 0.102157
vt 0.004106 0.080962
vt 0.004139 0.073713
vt 0.832546 0.054818
vt 0.832546 0.073713
vt 0.004139 0.054818
vt 0.832463 0.109327
vt 0.832463 0.126471
vt 0.004056 0.109327
vt 0.004056 0.126471
vt 0.832772 0.316977
vt 0.832772 0.400289
vt 0.004365 0.400289
vt 0.004365 0.316977
vt 0.003956 0.827378
vt 0.003956 0.750502
vt 0.832364 0.750502
vt 0.832364 0.827378
vt 0.832765 0.498027
vt 0.004359 0.574951
vt 0.004359 0.498027
vt 0.832765 0.574951
vt 0.004157 0.021609
vt 0.832564 0.004465
vt 0.832564 0.021609
vt 0.004157 0.004465
vt 0.004015 0.047705
vt 0.004015 0.028811
vt 0.832421 0.028811
vt 0.832421 0.047705
vt 0.004075 0.309863
vt 0.004075 0.288668
vt 0.832482 0.288668
vt 0.832482 0.309863
vt 0.832568 0.204067
vt 0.832568 0.133796
vt 0.004161 0.204067
vt 0.004161 0.133796
vt 0.832783 0.995535
vt 0.832783 0.918659
vt 0.004376 0.918659
vt 0.004376 0.995535
vt 0.003737 0.666553
vt 0.003737 0.743428
vt 0.832144 0.666553
vt 0.832144 0.743428
vt 0.98961 0.223555
vt 0.919484 0.29369
vt 0.919485 0.374448
vt 0.98961 0.444564
vt 0.894259 0.293691
vt 0.894253 0.37445
vt 0.878322 0.390333
vt 0.878322 0.277809
vt 0.8639 0.375897
vt 0.863899 0.292245
vt 0.904141 0.481928
vt 0.839396 0.546676
vt 0.839394 0.638187
vt 0.904142 0.702934
vt 0.995652 0.48193
vt 0.995652 0.702937
vt 0.832331 0.490717
vt 0.832331 0.407405
vt 0.003924 0.490717
vt 0.003924 0.407405
vt 0.003827 0.582324
vt 0.003827 0.659249
vt 0.832234 0.659249
vt 0.832234 0.582324
vt 0.004106 0.080962
vt 0.004106 0.102157
vt 0.832512 0.080962
vt 0.832512 0.102157
vt 0.004139 0.054818
vt 0.004139 0.073713
vt 0.832546 0.054818
vt 0.832546 0.073713
vt 0.004056 0.109327
vt 0.832463 0.126471
vt 0.832463 0.109327
vt 0.004056 0.126471
vt 0.954229 0.836176
vt 0.929 0.916935
vt 0.954228 0.916937
vt 0.929 0.836179
vt 0.970159 0.820295
vt 0.970155 0.93282
vt 0.984582 0.918382
vt 0.984584 0.834733
vt 0.858874 0.766054
vt 0.858874 0.987059
vt 0.931188 0.006251
vt 0.931189 0.227259
vt 0.995935 0.162512
vt 0.995936 0.071003
vt 0.839675 0.227256
vt 0.839677 0.006254
vt 0.832772 0.400289
vt 0.832772 0.316977
vt 0.004365 0.400289
vt 0.004365 0.316977
vt 0.003956 0.827378
vt 0.832364 0.827378
vt 0.832364 0.750502
vt 0.003956 0.750502
vt 0.004359 0.498027
vt 0.004359 0.574951
vt 0.832765 0.498027
vt 0.832765 0.574951
vt 0.832702 0.911615
vt 0.832702 0.834739
vt 0.004295 0.911615
vt 0.004295 0.834739
vt 0.832853 0.28159
vt 0.832853 0.211318
vt 0.004446 0.211318
vt 0.004446 0.28159
vt 0.832564 0.021609
vt 0.832564 0.004465
vt 0.004157 0.021609
vt 0.004157 0.004465
vt 0.004015 0.047705
vt 0.832421 0.047705
vt 0.832421 0.028811
vt 0.004015 0.028811
vt 0.004075 0.309863
vt 0.832482 0.309863
vt 0.832482 0.288668
vt 0.004075 0.288668
vn -1 0 0
vn -1 0 0
vn -1 0 0
vn -1 0 0
vn -0.7071038 0 0.7071097
vn -0.7071127 0 0.7071007
vn -0.7071127 0 0.7071007
vn -0.7071038 0 0.7071097
vn -0.7071097 0 -0.7071038
vn -0.7071097 0 -0.7071038
vn -0.7071068 0 -0.7071068
vn -0.7071068 0 -0.7071068
vn -1 0 0
vn -1 0 0
vn -1 0 0
vn -1 0 0
vn -0.7081372 0 -0.7060749
vn -0.7081402 0 -0.7060719
vn -0.7081372 0 -0.7060749
vn -0.7081402 0 -0.7060719
vn -0.7068087 0 0.7074047
vn -0.7068058 0 0.7074077
vn -0.7068087 0 0.7074047
vn -0.7068058 0 0.7074077
vn -0.7071038 0 0.7071097
vn -0.7071127 0 0.7071007
vn -0.7071127 0 0.7071007
vn -0.7071038 0 0.7071097
vn -1 0 0
vn -1 0 0
vn -1 0 0
vn -1 0 0
vn -0.7071097 0 -0.7071038
vn -0.7071068 0 -0.7071068
vn -0.7071097 0 -0.7071038
vn -0.7071068 0 -0.7071068
vn -0.7068058 0 0.7074077
vn -0.7068087 0 0.7074047
vn -0.7068058 0 0.7074077
vn -0.7068087 0 0.7074047
vn -0.7081372 0 -0.7060749
vn -0.7081402 0 -0.7060719
vn -0.7081402 0 -0.7060719
vn -0.7081372 0 -0.7060749
vn -1 0 0
vn -1 0 0
vn -1 0 0
vn -1 0 0
vn 0 0 1
vn 0 0 1
vn 0 0 1
vn 0 0 1
vn 0 0 -1
vn 0 0 -1
vn 0 0 -1
vn 0 0 -1
vn 1 0 0
vn 1 0 0
vn 1 0 0
vn 1 0 0
vn 0 1 0
vn 0 1 0
vn 0 1 0
vn 0 1 0
vn 0 1 0
vn 0 1 0
vn 0 1 0
vn 0 1 0
vn 0 1 0
vn 0 1 0
vn 0 -1 0
vn 0 -1 0
vn 0 -1 0
vn 0 -1 0
vn 0 -1 0
vn 0 -1 0
vn 0.7071127 0 0.7071007
vn 0.7071038 0 0.7071097
vn 0.7071127 0 0.7071007
vn 0.7071038 0 0.7071097
vn 0.7071097 0 -0.7071038
vn 0.7071068 0 -0.7071068
vn 0.7071068 0 -0.7071068
vn 0.7071097 0 -0.7071038
vn 1 0 0
vn 1 0 0
vn 1 0 0
vn 1 0 0
vn 0.7081402 0 -0.7060719
vn 0.7081372 0 -0.7060749
vn 0.7081402 0 -0.7060719
vn 0.7081372 0 -0.7060749
vn 0.7068087 0 0.7074047
vn 0.7068058 0 0.7074077
vn 0.7068087 0 0.7074047
vn 0.7068058 0 0.7074077
vn 0 -1 0
vn 0 -1 0
vn 0 -1 0
vn 0 -1 0
vn 0 -1 0
vn 0 -1 0
vn 0 -1 0
vn 0 -1 0
vn 0 -1 0
vn 0 -1 0
vn 0 1 0
vn 0 1 0
vn 0 1 0
vn 0 1 0
vn 0 1 0
vn 0 1 0
vn 0.7071127 0 0.7071007
vn 0.7071038 0 0.7071097
vn 0.7071127 0 0.7071007
vn 0.7071038 0 0.7071097
vn 1 0 0
vn 1 0 0
vn 1 0 0
vn 1 0 0
vn 0.7071097 0 -0.7071038
vn 0.7071068 0 -0.7071068
vn 0.7071097 0 -0.7071038
vn 0.7071068 0 -0.7071068
vn 0 0 -1
vn 0 0 -1
vn 0 0 -1
vn 0 0 -1
vn 0 0 1
vn 0 0 1
vn 0 0 1
vn 0 0 1
vn 0.7068058 0 0.7074077
vn 0.7068087 0 0.7074047
vn 0.7068058 0 0.7074077
vn 0.7068087 0 0.7074047
vn 0.7081372 0 -0.7060749
vn 0.7081372 0 -0.7060749
vn 0.7081402 0 -0.7060719
vn 0.7081402 0 -0.7060719
vn 1 0 0
vn 1 0 0
vn 1 0 0
vn 1 0 0
g handguard_ar10_kac_urx4_14_5_inch_LOD1_0
f 3/3/3 2/2/2 1/1/1
f 2/2/2 4/4/4 1/1/1
f 7/7/7 6/6/6 5/5/5
f 5/5/5 8/8/8 7/7/7
f 11/11/11 10/10/10 9/9/9
f 9/9/9 12/12/12 11/11/11
f 15/15/15 14/14/14 13/13/13
f 14/14/14 16/16/16 13/13/13
f 19/19/19 18/18/18 17/17/17
f 18/18/18 20/20/20 17/17/17
f 23/23/23 22/22/22 21/21/21
f 23/23/23 24/24/24 22/22/22
f 27/27/27 26/26/26 25/25/25
f 25/25/25 28/28/28 27/27/27
f 31/31/31 30/30/30 29/29/29
f 29/29/29 32/32/32 31/31/31
f 35/35/35 34/34/34 33/33/33
f 36/36/36 33/33/33 34/34/34
f 39/39/39 38/38/38 37/37/37
f 40/40/40 37/37/37 38/38/38
f 43/43/43 42/42/42 41/41/41
f 41/41/41 44/44/44 43/43/43
f 47/47/47 46/46/46 45/45/45
f 45/45/45 48/48/48 47/47/47
f 51/51/51 50/50/50 49/49/49
f 51/51/51 52/52/52 50/50/50
f 55/55/55 54/54/54 53/53/53
f 53/53/53 56/56/56 55/55/55
f 59/59/59 58/58/58 57/57/57
f 58/58/58 59/59/59 60/60/60
f 63/63/63 62/62/62 61/61/61
f 61/61/61 64/64/64 63/63/63
f 63/63/63 65/65/65 62/62/62
f 65/65/65 63/63/63 66/66/66
f 65/65/65 66/66/66 67/67/67
f 68/68/68 65/65/65 67/67/67
f 68/68/68 67/67/67 69/69/69
f 70/70/70 68/68/68 69/69/69
f 73/73/73 72/72/72 71/71/71
f 71/71/71 74/74/74 73/73/73
f 74/74/74 71/71/71 75/75/75
f 76/76/76 74/74/74 75/75/75
f 79/79/79 78/78/78 77/77/77
f 79/79/79 80/80/80 78/78/78
f 83/83/83 82/82/82 81/81/81
f 81/81/81 84/84/84 83/83/83
f 87/87/87 86/86/86 85/85/85
f 86/86/86 87/87/87 88/88/88
f 91/91/91 90/90/90 89/89/89
f 90/90/90 91/91/91 92/92/92
f 95/95/95 94/94/94 93/93/93
f 96/96/96 93/93/93 94/94/94
f 99/99/99 98/98/98 97/97/97
f 98/98/98 100/100/100 97/97/97
f 99/99/99 97/97/97 101/101/101
f 102/102/102 99/99/99 101/101/101
f 101/101/101 103/103/103 102/102/102
f 101/101/101 104/104/104 103/103/103
f 105/105/105 100/100/100 98/98/98
f 98/98/98 106/106/106 105/105/105
f 109/109/109 108/108/108 107/107/107
f 107/107/107 110/110/110 109/109/109
f 107/107/107 108/108/108 111/111/111
f 111/111/111 112/112/112 107/107/107
f 115/115/115 114/114/114 113/113/113
f 115/115/115 116/116/116 114/114/114
f 119/119/119 118/118/118 117/117/117
f 117/117/117 120/120/120 119/119/119
f 123/123/123 122/122/122 121/121/121
f 123/123/123 124/124/124 122/122/122
f 127/127/127 126/126/126 125/125/125
f 127/127/127 128/128/128 126/126/126
f 131/131/131 130/130/130 129/129/129
f 129/129/129 132/132/132 131/131/131
f 135/135/135 134/134/134 133/133/133
f 135/135/135 136/136/136 134/134/134
f 139/139/139 138/138/138 137/137/137
f 137/137/137 140/140/140 139/139/139
f 143/143/143 142/142/142 141/141/141
f 141/141/141 144/144/144 143/143/143
