g handguard_ak_izhmash_ak74m_std_plastic_LOD1
v 0.016662 0.0591268 0.0146893
v 0.0116249 0.0591268 0.0143785
v 0.0177551 0.0536118 0.0145256
v -0.0175192 0.0536118 0.0145256
v -0.011389 0.0591268 0.0143785
v -0.0164261 0.0591268 0.0146893
v 0.0177551 0.0536118 0.0145256
v 0.0173909 0.0591268 0.0274062
v 0.016662 0.0591268 0.0146893
v 0.017741 0.0501778 0.0143999
v 0.0162703 0.0266888 0.0143999
v 0.0160624 0.00128676 0.0143999
v 0.0162241 -0.0428432 0.0293907
v 0.012903 0.0417488 0.0402827
v 0.0129798 0.0591268 0.0391241
v 0.0119711 -0.0314693 0.0392396
v 0.011908 -0.0428792 0.0374315
v 0.000117954 -0.0314693 0.0433655
v 0.000117954 0.0417488 0.0444086
v 0.000117954 0.0591268 0.044044
v 0.000117954 -0.0428982 0.042268
v 0.0158265 -0.0275552 0.0143999
v 0.0156794 -0.0427842 0.0145546
v -0.017155 0.0591268 0.0274062
v -0.0127439 0.0591268 0.0391241
v -0.0126671 0.0417488 0.0402827
v -0.0159881 -0.0428432 0.0293907
v -0.0117352 -0.0314693 0.0392396
v -0.0116721 -0.0428792 0.0374315
v 0.000117954 -0.0314693 0.0433655
v 0.000117954 0.0417488 0.0444086
v 0.000117954 0.0591268 0.044044
v 0.000117954 -0.0428982 0.042268
v -0.0158265 0.00128676 0.0143999
v -0.0160344 0.0266888 0.0143999
v -0.0175051 0.0501778 0.0143999
v -0.0175192 0.0536118 0.0145256
v -0.0164261 0.0591268 0.0146893
v -0.0155906 -0.0275552 0.0143999
v -0.0154435 -0.0427842 0.0145546
v -0.015012 -0.0472902 0.0171789
v -0.0149793 -0.0473492 0.0287531
v 0.0152479 -0.0472902 0.0171789
v 0.0152152 -0.0473492 0.0287531
v 0.0102327 -0.0473852 0.0376336
v -0.00999679 -0.0473852 0.0376336
v 0.000117954 -0.0474042 0.0411393
v 0.0152479 -0.0472902 0.0171789
v 0.0152152 -0.0473492 0.0287531
v 0.0146242 -0.0431072 0.0174279
v 0.0147793 -0.0431672 0.0285904
v 0.0102327 -0.0473852 0.0376336
v 0.009467229 -0.0432022 0.0379212
v 0.000117954 -0.0474042 0.0411393
v 0.000117954 -0.0432212 0.0419567
v 0.000117954 -0.0432212 0.0419567
v -0.00923133 -0.0432022 0.0379212
v 0.000117954 -0.0428982 0.042268
v -0.0116721 -0.0428792 0.0374315
v -0.0145434 -0.0431672 0.0285904
v -0.0159881 -0.0428432 0.0293907
v -0.0143883 -0.0431072 0.0174279
v -0.0154435 -0.0427842 0.0145546
v -0.00999679 -0.0473852 0.0376336
v -0.00923133 -0.0432022 0.0379212
v 0.000117954 -0.0474042 0.0411393
v 0.000117954 -0.0432212 0.0419567
v -0.0145434 -0.0431672 0.0285904
v -0.0149793 -0.0473492 0.0287531
v -0.0143883 -0.0431072 0.0174279
v -0.015012 -0.0472902 0.0171789
v 0.000117954 0.0591268 0.0425421
v 0.000117954 0.0628036 0.0425421
v 0.0109745 0.0591268 0.039506
v 0.0109745 0.0628036 0.039506
v 0.0161465 0.0591268 0.0275319
v 0.0161465 0.0628036 0.0275319
v 0.0162442 0.0628036 0.014823
v 0.0162442 0.0591268 0.014823
v 0.000117954 0.0591268 0.0425421
v 0.0109745 0.0591268 0.039506
v 0.000117954 0.0591268 0.044044
v 0.0129798 0.0591268 0.0391241
v -0.0107386 0.0591268 0.039506
v -0.0127439 0.0591268 0.0391241
v -0.017155 0.0591268 0.0274062
v 0.0173909 0.0591268 0.0274062
v -0.0159106 0.0591268 0.0275319
v -0.0160083 0.0591268 0.014823
v -0.0164261 0.0591268 0.0146893
v -0.011389 0.0591268 0.0143785
v 0.0116249 0.0591268 0.0143785
v 0.0162442 0.0591268 0.014823
v 0.016662 0.0591268 0.0146893
v 0.0161465 0.0591268 0.0275319
v 0.009467229 -0.0432022 0.0379212
v 0.011908 -0.0428792 0.0374315
v 0.0147793 -0.0431672 0.0285904
v 0.0162241 -0.0428432 0.0293907
v 0.0146242 -0.0431072 0.0174279
v 0.000117954 -0.0428982 0.042268
v 0.000117954 -0.0432212 0.0419567
v 0.0156794 -0.0427842 0.0145546
v -0.015012 -0.0472902 0.0171789
v 0.0152479 -0.0472902 0.0171789
v -0.0143883 -0.0431072 0.0174279
v 0.0146242 -0.0431072 0.0174279
v 0.000117954 0.0591268 0.0425421
v -0.0107386 0.0591268 0.039506
v 0.000117954 0.0628036 0.0425421
v -0.0107386 0.0628036 0.039506
v -0.0159106 0.0591268 0.0275319
v -0.0159106 0.0628036 0.0275319
v -0.0160083 0.0628036 0.014823
v -0.0160083 0.0591268 0.014823
v 0.000117954 0.0628036 0.0425421
v -0.0160083 0.0628036 0.014823
v 0.0109745 0.0628036 0.039506
v 0.0162442 0.0628036 0.014823
v 0.0161465 0.0628036 0.0275319
v -0.0107386 0.0628036 0.039506
v -0.0159106 0.0628036 0.0275319
v 0.0162442 0.0591268 0.014823
v 0.0162442 0.0628036 0.014823
v -0.0160083 0.0591268 0.014823
v -0.0160083 0.0628036 0.014823
v 0.0156794 -0.0427842 0.0145546
v -0.0154435 -0.0427842 0.0145546
v 0.0146242 -0.0431072 0.0174279
v -0.0143883 -0.0431072 0.0174279
v 0.0158265 -0.0275552 0.0143999
v -0.0155906 -0.0275552 0.0143999
v 0.0156794 -0.0427842 0.0145546
v -0.0154435 -0.0427842 0.0145546
v -0.0160344 0.0266888 0.0143999
v -0.0158265 0.00128676 0.0143999
v 0.0162703 0.0266888 0.0143999
v 0.0160624 0.00128676 0.0143999
v -0.0175192 0.0536118 0.0145256
v -0.0175051 0.0501778 0.0143999
v 0.0177551 0.0536118 0.0145256
v 0.017741 0.0501778 0.0143999
v -0.0158265 0.00128676 0.0143999
v -0.0155906 -0.0275552 0.0143999
v 0.0160624 0.00128676 0.0143999
v 0.0158265 -0.0275552 0.0143999
v -0.0175051 0.0501778 0.0143999
v -0.0160344 0.0266888 0.0143999
v 0.017741 0.0501778 0.0143999
v 0.0162703 0.0266888 0.0143999
vt 0.90835 0.780598
vt 0.908307 0.747888
vt 0.881947 0.780598
vt 0.881947 0.592381
vt 0.908 0.625091
vt 0.908 0.592381
vt 1.43078 0.467893
vt 1.36623 0.492821
vt 1.43078 0.492821
vt 1.42025 0.453001
vt 1.42025 0.349782
vt 1.42229 0.238198
vt 1.35242 0.0356702
vt 1.30475 0.418597
vt 1.30475 0.492821
vt 1.29922 0.0970929
vt 1.29922 0.0369338
vt 1.23794 0.097305
vt 1.23794 0.419928
vt 1.23794 0.492821
vt 1.23794 0.0369034
vt 1.42229 0.111499
vt 1.4281 0.0356946
vt 0.366235 0.492821
vt 0.304752 0.492821
vt 0.304752 0.418597
vt 0.352418 0.0356702
vt 0.299224 0.0970929
vt 0.299224 0.0369338
vt 0.237939 0.097305
vt 0.237939 0.419928
vt 0.237939 0.492821
vt 0.237939 0.0369034
vt 0.422294 0.238198
vt 0.420254 0.349782
vt 0.420254 0.453001
vt 0.430782 0.467893
vt 0.430782 0.492821
vt 0.422294 0.111499
vt 0.428102 0.0356946
vt 0.868904 0.140688
vt 0.899302 0.140587
vt 0.868904 0.0478808
vt 0.899302 0.0479811
vt 0.921721 0.0632623
vt 0.921721 0.125306
vt 0.931475 0.0942841
vt 1.91819 0.342287
vt 1.91819 0.291066
vt 1.89828 0.342287
vt 1.89828 0.291066
vt 1.91819 0.243177
vt 1.89828 0.243177
vt 1.91819 0.189069
vt 1.89828 0.189069
vt 0.965638 0.981951
vt 0.965638 0.925307
vt 0.981302 0.981951
vt 0.981302 0.921027
vt 0.965638 0.871935
vt 0.981302 0.870057
vt 0.965638 0.821529
vt 0.981302 0.792531
vt 0.918186 0.243177
vt 0.898278 0.243177
vt 0.918186 0.189069
vt 0.898278 0.189069
vt 0.898278 0.291066
vt 0.918186 0.291066
vt 0.898278 0.342287
vt 0.918186 0.342287
vt 1.05697 0.963173
vt 1.05697 0.982498
vt 1.10944 0.963173
vt 1.10944 0.982498
vt 1.13665 0.963173
vt 1.13665 0.982498
vt 1.16554 0.982498
vt 1.16554 0.963173
vt 0.957903 0.0956057
vt 0.945088 0.135699
vt 0.976109 0.0957259
vt 0.950857 0.153867
vt 0.9458 0.0553439
vt 0.951892 0.0372519
vt 0.890716 0.0168446
vt 0.889336 0.173462
vt 0.904556 0.0435982
vt 0.86078 0.0311317
vt 0.822268 0.0168446
vt 0.822268 0.0425143
vt 0.822268 0.146851
vt 0.86078 0.158794
vt 0.822268 0.173462
vt 0.904189 0.146903
vt 1.96564 0.925307
vt 1.9813 0.921027
vt 1.96564 0.871935
vt 1.9813 0.870057
vt 1.96564 0.821529
vt 1.9813 0.981951
vt 1.96564 0.981951
vt 1.9813 0.792531
vt 0.351377 0.509689
vt 0.351377 0.627406
vt 0.367616 0.509689
vt 0.367616 0.627406
vt 0.0569739 0.963173
vt 0.109436 0.963173
vt 0.0569738 0.982498
vt 0.109436 0.982498
vt 0.136651 0.963173
vt 0.136651 0.982498
vt 0.165537 0.982498
vt 0.165537 0.963173
vt 0.859406 0.60002
vt 0.775224 0.533841
vt 0.848605 0.6662
vt 0.775224 0.6662
vt 0.813007 0.6662
vt 0.848605 0.533841
vt 0.813007 0.533841
vt 0.39798 0.621052
vt 0.418525 0.621052
vt 0.39798 0.516581
vt 0.418525 0.516581
vt 0.192351 0.0321446
vt 0.192351 0.217321
vt 0.22246 0.0455496
vt 0.222459 0.203916
vt 0.862746 0.909568
vt 0.678023 0.909568
vt 0.862746 0.976332
vt 0.678023 0.976332
vt 0.766758 0.125256
vt 0.766758 0.0356702
vt 0.576155 0.125256
vt 0.576155 0.0356702
vt 0.961007 0.382371
vt 0.942231 0.382371
vt 0.961007 0.572981
vt 0.942231 0.572981
vt 0.352752 0.728394
vt 0.215279 0.728394
vt 0.352752 0.880234
vt 0.215279 0.880234
vt 0.72381 0.184872
vt 0.611824 0.184872
vt 0.72381 0.343053
vt 0.611824 0.343053
vn 0.06153124 0.04179632 -0.9972296
vn 0.01437045 -0.01069485 -0.9998395
vn 0.02881545 0.005368657 -0.9995703
vn -0.02881546 0.005368665 -0.9995703
vn -0.01437046 -0.01069485 -0.9998395
vn -0.06153126 0.04179634 -0.9972296
vn 0.9976957 0.06784166 -0.0008374119
vn 0.9850857 0.0172621 0.1711959
vn 0.9790532 0.1957186 -0.05611676
vn 0.9972957 -0.04520319 0.05794704
vn 0.9986795 -0.01477174 -0.04920339
vn 0.9988206 -0.01161625 -0.0471425
vn 0.9775677 -0.0302637 0.2084362
vn 0.6968822 0.006510764 0.7171561
vn 0.7176697 0.04316725 0.6950446
vn 0.6648419 -0.05476505 0.7449738
vn 0.6811691 -0.1182618 0.7225115
vn 0.3270139 -0.05335531 0.9435121
vn 0.3071153 0.003192334 0.951667
vn 0.3360762 0.04361991 0.9408241
vn 0.3504679 -0.1172589 0.9292054
vn 0.9993394 -0.008626676 -0.0353032
vn 0.999275 -0.01002526 -0.03672779
vn -0.9850857 0.01726186 0.1711959
vn -0.7176697 0.04316724 0.6950446
vn -0.6968825 0.006510368 0.7171558
vn -0.9775679 -0.0302634 0.208435
vn -0.664845 -0.05476496 0.7449711
vn -0.6811728 -0.1182612 0.722508
vn -0.3270138 -0.05335532 0.9435121
vn -0.3071151 0.003192337 0.951667
vn -0.336076 0.0436199 0.9408242
vn -0.3504676 -0.1172589 0.9292055
vn -0.9988207 -0.01161701 -0.04713852
vn -0.9986795 -0.01477178 -0.04920328
vn -0.9972957 -0.04520319 0.05794704
vn -0.9976957 0.06784174 -0.0008374476
vn -0.9790531 0.1957188 -0.05611685
vn -0.9993396 -0.00862663 -0.03529639
vn -0.9992753 -0.01002519 -0.03672098
vn 0 -0.999987 -0.005097398
vn 0 -0.999989 -0.004677532
vn 0 -0.999987 -0.005097398
vn 0 -0.999989 -0.004677532
vn 0 -0.9999911 -0.004242442
vn 0 -0.9999911 -0.004242442
vn 0 -0.9999853 -0.005418861
vn 0.9890906 0.147266 0.003545136
vn 0.9615232 0.1151954 0.2494058
vn 0.9904805 0.1376533 -0.0001279256
vn 0.9635229 0.1118069 0.2431516
vn 0.6677794 0.06908397 0.7411464
vn 0.6141525 0.03285867 0.788503
vn 0.376236 -0.1351169 0.9166188
vn 0.3903727 -0.176566 0.9035673
vn -0.2980157 -0.6624117 0.6873116
vn -0.2031478 -0.8809627 0.4273589
vn -0.2948145 -0.6703361 0.6809802
vn -0.155932 -0.9802313 0.121786
vn -0.1997549 -0.979298 0.03276252
vn -0.1936771 -0.9798171 0.04947473
vn -0.2576561 -0.9661473 -0.01313525
vn -0.2592403 -0.9657205 -0.01335652
vn -0.6677792 0.06908258 0.7411467
vn -0.6141529 0.03285742 0.7885028
vn -0.3762358 -0.1351171 0.9166188
vn -0.3903724 -0.176566 0.9035673
vn -0.9635229 0.1118066 0.2431519
vn -0.9615231 0.1151954 0.2494062
vn -0.9904805 0.1376531 -0.0001280062
vn -0.9890906 0.1472657 0.003545033
vn 0.269323 0 0.9630499
vn 0.269323 0 0.9630499
vn 0.6577888 0 0.7532024
vn 0.6577888 0 0.7532024
vn 0.9785063 0 0.2062173
vn 0.9785063 0 0.2062173
vn 0.9999704 0 0.007687327
vn 0.9999704 0 0.007687327
vn 0 1 0
vn 0 1 0
vn 0 1 0
vn 0 1 0
vn 0 1 0
vn 0 1 0
vn 0 1 0
vn 0 1 0
vn 0 1 0
vn 0 1 0
vn 0 1 0
vn 0 1 0
vn 0 1 0
vn 0 1 0
vn 0 1 0
vn 0 1 0
vn 0.2031478 -0.8809629 0.4273585
vn 0.1559313 -0.9802315 0.1217856
vn 0.1997423 -0.9793006 0.03276219
vn 0.1936662 -0.9798194 0.04947183
vn 0.2576515 -0.9661487 -0.01313678
vn 0.2948147 -0.6703361 0.6809801
vn 0.298016 -0.6624117 0.6873115
vn 0.2592362 -0.9657215 -0.01335815
vn 0 0.05942135 -0.998233
vn 0 0.05942135 -0.998233
vn 0 0.05942134 -0.998233
vn 0 0.05942135 -0.998233
vn -0.2693227 0 0.9630499
vn -0.6577888 0 0.7532026
vn -0.2693228 0 0.9630499
vn -0.6577888 0 0.7532025
vn -0.9785063 0 0.2062172
vn -0.9785063 0 0.2062172
vn -0.9999704 0 0.007687234
vn -0.9999704 0 0.007687233
vn 0 1 0
vn 0 1 0
vn 0 1 0
vn 0 1 0
vn 0 1 0
vn 0 1 0
vn 0 1 0
vn 0 0 -1
vn 0 0 -1
vn 0 0 -1
vn 0 0 -1
vn 0 -0.9937407 -0.1117106
vn 0 -0.9937407 -0.1117106
vn 0 -0.9937407 -0.1117106
vn 0 -0.9937407 -0.1117106
vn 0 -0.01015767 -0.9999484
vn 0 -0.01015767 -0.9999484
vn 0 -0.01015767 -0.9999484
vn 0 -0.01015767 -0.9999484
vn 0 0 -1
vn 0 0 -1
vn 0 0 -1
vn 0 0 -1
vn 0 0.03657977 -0.9993308
vn 0 0.03657977 -0.9993308
vn 0 0.03657977 -0.9993308
vn 0 0.03657977 -0.9993308
vn 0 0 -1
vn 0 0 -1
vn 0 0 -1
vn 0 0 -1
vn 0 0 -1
vn 0 0 -1
vn 0 0 -1
vn 0 0 -1
g handguard_ak_izhmash_ak74m_std_plastic_LOD1_0
f 3/3/3 2/2/2 1/1/1
f 4/4/4 2/2/2 3/3/3
f 2/2/2 4/4/4 5/5/5
f 5/5/5 4/4/4 6/6/6
f 9/9/9 8/8/8 7/7/7
f 7/7/7 8/8/8 10/10/10
f 10/10/10 8/8/8 11/11/11
f 12/12/12 11/11/11 8/8/8
f 13/13/13 12/12/12 8/8/8
f 8/8/8 14/14/14 13/13/13
f 15/15/15 14/14/14 8/8/8
f 16/16/16 13/13/13 14/14/14
f 13/13/13 16/16/16 17/17/17
f 14/14/14 18/18/18 16/16/16
f 18/18/18 14/14/14 19/19/19
f 20/20/20 14/14/14 15/15/15
f 14/14/14 20/20/20 19/19/19
f 21/21/21 16/16/16 18/18/18
f 16/16/16 21/21/21 17/17/17
f 22/22/22 12/12/12 13/13/13
f 23/23/23 22/22/22 13/13/13
f 26/26/26 25/25/25 24/24/24
f 26/26/26 24/24/24 27/27/27
f 27/27/27 28/28/28 26/26/26
f 28/28/28 27/27/27 29/29/29
f 30/30/30 26/26/26 28/28/28
f 26/26/26 30/30/30 31/31/31
f 26/26/26 32/32/32 25/25/25
f 32/32/32 26/26/26 31/31/31
f 28/28/28 33/33/33 30/30/30
f 33/33/33 28/28/28 29/29/29
f 34/34/34 27/27/27 24/24/24
f 35/35/35 34/34/34 24/24/24
f 24/24/24 36/36/36 35/35/35
f 24/24/24 37/37/37 36/36/36
f 24/24/24 38/38/38 37/37/37
f 34/34/34 39/39/39 27/27/27
f 39/39/39 40/40/40 27/27/27
f 43/43/43 42/42/42 41/41/41
f 42/42/42 43/43/43 44/44/44
f 44/44/44 45/45/45 42/42/42
f 46/46/46 42/42/42 45/45/45
f 45/45/45 47/47/47 46/46/46
f 50/50/50 49/49/49 48/48/48
f 49/49/49 50/50/50 51/51/51
f 51/51/51 52/52/52 49/49/49
f 52/52/52 51/51/51 53/53/53
f 53/53/53 54/54/54 52/52/52
f 54/54/54 53/53/53 55/55/55
f 58/58/58 57/57/57 56/56/56
f 57/57/57 58/58/58 59/59/59
f 59/59/59 60/60/60 57/57/57
f 60/60/60 59/59/59 61/61/61
f 61/61/61 62/62/62 60/60/60
f 62/62/62 61/61/61 63/63/63
f 66/66/66 65/65/65 64/64/64
f 65/65/65 66/66/66 67/67/67
f 68/68/68 64/64/64 65/65/65
f 64/64/64 68/68/68 69/69/69
f 70/70/70 69/69/69 68/68/68
f 69/69/69 70/70/70 71/71/71
f 74/74/74 73/73/73 72/72/72
f 73/73/73 74/74/74 75/75/75
f 76/76/76 75/75/75 74/74/74
f 75/75/75 76/76/76 77/77/77
f 76/76/76 78/78/78 77/77/77
f 78/78/78 76/76/76 79/79/79
f 82/82/82 81/81/81 80/80/80
f 81/81/81 82/82/82 83/83/83
f 84/84/84 82/82/82 80/80/80
f 82/82/82 84/84/84 85/85/85
f 85/85/85 84/84/84 86/86/86
f 83/83/83 87/87/87 81/81/81
f 84/84/84 88/88/88 86/86/86
f 89/89/89 86/86/86 88/88/88
f 86/86/86 89/89/89 90/90/90
f 89/89/89 91/91/91 90/90/90
f 89/89/89 92/92/92 91/91/91
f 92/92/92 89/89/89 93/93/93
f 92/92/92 93/93/93 94/94/94
f 93/93/93 87/87/87 94/94/94
f 93/93/93 95/95/95 87/87/87
f 95/95/95 81/81/81 87/87/87
f 98/98/98 97/97/97 96/96/96
f 97/97/97 98/98/98 99/99/99
f 100/100/100 99/99/99 98/98/98
f 101/101/101 96/96/96 97/97/97
f 96/96/96 101/101/101 102/102/102
f 99/99/99 100/100/100 103/103/103
f 106/106/106 105/105/105 104/104/104
f 105/105/105 106/106/106 107/107/107
f 110/110/110 109/109/109 108/108/108
f 109/109/109 110/110/110 111/111/111
f 111/111/111 112/112/112 109/109/109
f 112/112/112 111/111/111 113/113/113
f 114/114/114 112/112/112 113/113/113
f 112/112/112 114/114/114 115/115/115
f 118/118/118 117/117/117 116/116/116
f 118/118/118 119/119/119 117/117/117
f 119/119/119 118/118/118 120/120/120
f 117/117/117 121/121/121 116/116/116
f 121/121/121 117/117/117 122/122/122
f 125/125/125 124/124/124 123/123/123
f 124/124/124 125/125/125 126/126/126
f 129/129/129 128/128/128 127/127/127
f 128/128/128 129/129/129 130/130/130
f 133/133/133 132/132/132 131/131/131
f 132/132/132 133/133/133 134/134/134
f 137/137/137 136/136/136 135/135/135
f 136/136/136 137/137/137 138/138/138
f 141/141/141 140/140/140 139/139/139
f 140/140/140 141/141/141 142/142/142
f 145/145/145 144/144/144 143/143/143
f 144/144/144 145/145/145 146/146/146
f 149/149/149 148/148/148 147/147/147
f 148/148/148 149/149/149 150/150/150
