g ak104_release_LOD0
v 0.004959 0.010319 -0.062583
v 0.003759 0.010519 -0.062483
v 0.004759 0.009818999 -0.063483
v 0.00375923 0.0104188 -0.0635832
v 0.00415923 0.0096188 -0.0646832
v 0.00375923 0.0107188 -0.0644832
v 0.00375923 0.0100188 -0.0657832
v -0.006241 0.010319 -0.062583
v -0.006041 0.009818999 -0.063483
v -0.005041 0.010519 -0.062483
v -0.00504077 0.0104188 -0.0635832
v -0.00544077 0.0096188 -0.0646832
v -0.00504077 0.0107188 -0.0644832
v -0.00504077 0.0100188 -0.0657832
v -0.006341 0.020819 -0.058283
v -0.005041 0.020819 -0.058283
v -0.006241 0.013519 -0.035183
v -0.005041 0.013519 -0.035183
v -0.006041 0.009818999 -0.063483
v -0.006241 0.010319 -0.062583
v -0.006041 0.002019 -0.038583
v -0.006140999 0.002719 -0.038283
v -0.00554077 0.0015188 -0.0386832
v -0.00544077 0.0096188 -0.0646832
v -0.006241 0.013519 -0.035183
v -0.005041 0.013519 -0.035183
v -0.006140999 0.002719 -0.038283
v -0.00504077 0.0025188 -0.0383832
v -0.006041 0.002019 -0.038583
v -0.00554077 0.0015188 -0.0386832
v 0.00375923 0.0025188 -0.0383832
v 0.00425923 0.0015188 -0.0386832
v 0.004759 0.002019 -0.038583
v 0.004859 0.002719 -0.038283
v 0.003759 0.013519 -0.035183
v 0.004959 0.013519 -0.035183
v 0.003759 0.020819 -0.058283
v 0.003759 0.010519 -0.062483
v 0.005059 0.020819 -0.058283
v 0.004959 0.010319 -0.062583
v -0.006241 0.010319 -0.062583
v -0.006341 0.020819 -0.058283
v -0.006140999 0.002719 -0.038283
v -0.006241 0.013519 -0.035183
v 0.005059 0.020819 -0.058283
v 0.004959 0.013519 -0.035183
v 0.003759 0.020819 -0.058283
v 0.003759 0.013519 -0.035183
v 0.004759 0.009818999 -0.063483
v 0.004759 0.002019 -0.038583
v 0.004959 0.010319 -0.062583
v 0.004859 0.002719 -0.038283
v 0.00425923 0.0015188 -0.0386832
v 0.00415923 0.0096188 -0.0646832
v 0.004959 0.010319 -0.062583
v 0.004859 0.002719 -0.038283
v 0.005059 0.020819 -0.058283
v 0.004959 0.013519 -0.035183
v -0.005041 0.020819 -0.058283
v -0.006341 0.020819 -0.058283
v -0.005041 0.010519 -0.062483
v -0.006241 0.010319 -0.062583
v -0.00394053 0.0124186 -0.0739834
v -0.00394053 0.0134186 -0.07358339
v -0.00474053 0.0123186 -0.0736834
v -0.00474053 0.0133186 -0.0732834
v -0.00504077 0.0121188 -0.0728832
v -0.00504077 0.0131188 -0.0724832
v 0.000859469 0.00671859 -0.0555834
v 0.000459469 0.00771861 -0.0561834
v -0.000640531 0.0066186 -0.0549834
v -0.000640531 0.00761859 -0.0558834
v -0.00174053 0.00771861 -0.0561834
v -0.00214053 0.00671859 -0.0555834
v -0.00334053 0.0072186 -0.0570834
v -0.00254053 0.0082186 -0.0575834
v 0.00205947 0.0072186 -0.0570834
v 0.00125947 0.0082186 -0.0575834
v 0.00265947 0.0124186 -0.0739834
v 0.00345947 0.0123186 -0.0736834
v 0.00265947 0.0134186 -0.07358339
v 0.00345947 0.0133186 -0.0732834
v 0.00375923 0.0121188 -0.0728832
v 0.00375923 0.0131188 -0.0724832
v 0.000459469 0.00771861 -0.0561834
v 0.00125947 0.0082186 -0.0575834
v -0.000640531 0.00761859 -0.0558834
v 0.00125947 0.0131498 -0.073715
v -0.000640531 0.0130958 -0.0737348
v -0.00254053 0.0082186 -0.0575834
v -0.00174053 0.00771861 -0.0561834
v -0.00254053 0.0131498 -0.073715
v 0.003759 0.010519 -0.062483
v 0.00375923 0.0025188 -0.0383832
v 0.00375923 0.0104188 -0.0635832
v 0.003759 0.020819 -0.058283
v 0.003759 0.013519 -0.035183
v -0.005041 0.010519 -0.062483
v -0.00504077 0.0104188 -0.0635832
v -0.00504077 0.0025188 -0.0383832
v -0.005041 0.020819 -0.058283
v -0.005041 0.013519 -0.035183
v -0.00504077 0.0121188 -0.0728832
v -0.00504077 0.0131188 -0.0724832
v -0.00504077 0.0100188 -0.0657832
v -0.00504077 0.0107188 -0.0644832
v 0.00375923 0.0121188 -0.0728832
v 0.00375923 0.0100188 -0.0657832
v 0.00375923 0.0131188 -0.0724832
v 0.00375923 0.0107188 -0.0644832
v 0.00375923 0.0131188 -0.0724832
v 0.00265947 0.0134186 -0.07358339
v 0.00345947 0.0133186 -0.0732834
v 0.00205947 0.0134186 -0.07358339
v 0.00375923 0.0107188 -0.0644832
v 0.00205923 0.0082188 -0.0566832
v 0.00375923 0.0104188 -0.0635832
v 0.00375923 0.0025188 -0.0383832
v 0.00145923 0.0078188 -0.0555832
v 0.000259235 0.00761879 -0.0547832
v -0.0006407649 0.00761879 -0.0545832
v -0.000640531 0.00251861 -0.0383834
v -0.00504077 0.0025188 -0.0383832
v -0.00154077 0.00761879 -0.0547832
v -0.00274077 0.0078188 -0.0555832
v -0.00334077 0.0082188 -0.0566832
v -0.00504077 0.0104188 -0.0635832
v -0.00504077 0.0107188 -0.0644832
v -0.00504077 0.0131188 -0.0724832
v -0.00334053 0.0134186 -0.07358339
v -0.00394053 0.0134186 -0.07358339
v -0.00474053 0.0133186 -0.0732834
v -0.00214053 0.00671859 -0.0555834
v -0.00554077 0.0015188 -0.0386832
v -0.000640531 0.0066186 -0.0549834
v -0.00334053 0.0072186 -0.0570834
v -0.00544077 0.0096188 -0.0646832
v -0.00504077 0.0100188 -0.0657832
v -0.000640531 0.00151859 -0.0386834
v 0.00425923 0.0015188 -0.0386832
v 0.000859469 0.00671859 -0.0555834
v 0.00205947 0.0072186 -0.0570834
v 0.00415923 0.0096188 -0.0646832
v 0.00375923 0.0100188 -0.0657832
v 0.00375923 0.0121188 -0.0728832
v 0.00205947 0.0124186 -0.0739834
v 0.00265947 0.0124186 -0.0739834
v 0.00345947 0.0123186 -0.0736834
v -0.00334053 0.0124186 -0.0739834
v -0.00504077 0.0121188 -0.0728832
v -0.00394053 0.0124186 -0.0739834
v -0.00474053 0.0123186 -0.0736834
v 0.00145923 0.0078188 -0.0555832
v 0.000259235 0.00761879 -0.0547832
v 0.000459235 0.0087188 -0.0557832
v 0.00205923 0.0082188 -0.0566832
v 0.00125923 0.0092188 -0.0571832
v -0.0006407649 0.0086188 -0.0554832
v -0.0006407649 0.00761879 -0.0545832
v -0.00154077 0.00761879 -0.0547832
v -0.00174077 0.0087188 -0.0557832
v -0.00274077 0.0078188 -0.0555832
v -0.00254077 0.0092188 -0.0571832
v -0.00334077 0.0082188 -0.0566832
v 0.00205947 0.0124186 -0.0739834
v 0.00205947 0.0134186 -0.07358339
v 0.00125947 0.0131498 -0.073715
v 0.00125947 0.0141498 -0.073315
v 0.00265947 0.0124186 -0.0739834
v 0.00265947 0.0134186 -0.07358339
v -0.000640531 0.0140958 -0.0733348
v -0.000640531 0.0130958 -0.0737348
v -0.00254053 0.0131498 -0.073715
v -0.00254053 0.0141498 -0.073315
v -0.00334053 0.0134186 -0.07358339
v -0.00334053 0.0124186 -0.0739834
v -0.00394053 0.0134186 -0.07358339
v -0.00394053 0.0124186 -0.0739834
v 0.00125947 0.0141498 -0.073315
v 0.00205947 0.0134186 -0.07358339
v 0.00125923 0.0092188 -0.0571832
v 0.00205923 0.0082188 -0.0566832
v -0.00174077 0.0087188 -0.0557832
v -0.00254077 0.0092188 -0.0571832
v -0.0006407649 0.0086188 -0.0554832
v -0.00254053 0.0141498 -0.073315
v -0.000640531 0.0140958 -0.0733348
v 0.00125923 0.0092188 -0.0571832
v 0.000459235 0.0087188 -0.0557832
v 0.00125947 0.0141498 -0.073315
v -0.00254053 0.0141498 -0.073315
v -0.00254077 0.0092188 -0.0571832
v -0.00334053 0.0134186 -0.07358339
v -0.00334077 0.0082188 -0.0566832
v -0.00254053 0.0131498 -0.073715
v -0.00334053 0.0124186 -0.0739834
v -0.00254053 0.0082186 -0.0575834
v -0.00334053 0.0072186 -0.0570834
v 0.00125947 0.0131498 -0.073715
v 0.00125947 0.0082186 -0.0575834
v 0.00205947 0.0124186 -0.0739834
v 0.00205947 0.0072186 -0.0570834
vt 0.155395 0.22095
vt 0.158124 0.220838
vt 0.155395 0.218612
vt 0.158014 0.21839
vt 0.156268 0.215718
vt 0.158669 0.216386
vt 0.157468 0.213379
vt 0.682404 0.148058
vt 0.680089 0.148058
vt 0.682183 0.150925
vt 0.679868 0.150704
vt 0.677223 0.14894
vt 0.677884 0.151475
vt 0.674909 0.150153
vt 0.980949 0.298683
vt 0.983677 0.298683
vt 0.980949 0.24547
vt 0.983677 0.24547
vt 0.972571 0.224466
vt 0.970808 0.226009
vt 0.972682 0.283766
vt 0.971029 0.283655
vt 0.974225 0.283766
vt 0.974225 0.221821
vt 0.728992 0.908165
vt 0.731416 0.908165
vt 0.728992 0.882592
vt 0.731416 0.882153
vt 0.729433 0.880831
vt 0.730425 0.879728
vt 0.750705 0.882153
vt 0.751588 0.879728
vt 0.752691 0.880831
vt 0.753131 0.882484
vt 0.750705 0.908165
vt 0.753242 0.908165
vt 0.648127 0.663525
vt 0.673478 0.663525
vt 0.648127 0.66088
vt 0.673478 0.66088
vt 0.23204 0.759589
vt 0.206358 0.761684
vt 0.23204 0.814811
vt 0.206358 0.81426
vt 0.983029 0.493917
vt 0.983029 0.547132
vt 0.985648 0.493918
vt 0.985648 0.547132
vt 0.973611 0.571207
vt 0.973722 0.514554
vt 0.971848 0.569665
vt 0.972069 0.514554
vt 0.975376 0.514443
vt 0.975376 0.573744
vt 0.143694 0.807303
vt 0.197483 0.807303
vt 0.143694 0.781729
vt 0.197483 0.781729
vt 0.344887 0.8452
vt 0.344887 0.842444
vt 0.319756 0.8452
vt 0.319206 0.842555
vt 0.346597 0.96628
vt 0.346597 0.964062
vt 0.344907 0.96628
vt 0.344907 0.964062
vt 0.343007 0.96628
vt 0.343007 0.964062
vt 0.380637 0.961986
vt 0.380954 0.964986
vt 0.383791 0.961986
vt 0.383791 0.964986
vt 0.386628 0.964986
vt 0.386945 0.961986
vt 0.390813 0.961986
vt 0.390813 0.964986
vt 0.376769 0.961986
vt 0.376769 0.964986
vt 0.343007 0.959422
vt 0.344802 0.959422
vt 0.343007 0.957099
vt 0.344802 0.957099
vt 0.346597 0.959422
vt 0.346597 0.957099
vt 0.492208 0.161364
vt 0.48902 0.159677
vt 0.492927 0.163772
vt 0.452429 0.159677
vt 0.452427 0.163805
vt 0.489027 0.167874
vt 0.492212 0.166182
vt 0.452438 0.167933
vt 0.921007 0.614331
vt 0.921646 0.651426
vt 0.921646 0.612911
vt 0.905544 0.615749
vt 0.905616 0.651071
vt 0.915393 0.920689
vt 0.916026 0.922122
vt 0.916026 0.883224
vt 0.900083 0.919259
vt 0.900154 0.883511
vt 0.959627 0.884386
vt 0.962246 0.884386
vt 0.959627 0.86869
vt 0.962246 0.86869
vt 0.750054 0.545737
vt 0.765878 0.545737
vt 0.750163 0.5434
vt 0.76806 0.5434
vt 0.716921 0.767811
vt 0.719283 0.770206
vt 0.718564 0.76854
vt 0.719283 0.771513
vt 0.700084 0.767811
vt 0.683452 0.771561
vt 0.698031 0.767811
vt 0.644747 0.767811
vt 0.681091 0.772811
vt 0.679448 0.775415
vt 0.67914 0.777395
vt 0.644747 0.777395
vt 0.644747 0.786875
vt 0.679448 0.779374
vt 0.681091 0.781874
vt 0.683452 0.783125
vt 0.698031 0.786875
vt 0.700084 0.786875
vt 0.716921 0.786875
vt 0.719283 0.783191
vt 0.719283 0.784479
vt 0.718564 0.786146
vt 0.501513 0.732506
vt 0.462894 0.724849
vt 0.500292 0.736057
vt 0.504953 0.729843
vt 0.522486 0.72496
vt 0.525039 0.725848
vt 0.462894 0.736057
vt 0.462894 0.747155
vt 0.501513 0.739497
vt 0.504953 0.742161
vt 0.522486 0.747044
vt 0.525039 0.746156
vt 0.54113 0.746156
vt 0.543682 0.742231
vt 0.543682 0.743603
vt 0.543017 0.745379
vt 0.543682 0.729792
vt 0.54113 0.725848
vt 0.543682 0.7284
vt 0.543017 0.726625
vt 0.873611 0.0036062
vt 0.870983 0.00185385
vt 0.871081 0.00487375
vt 0.874878 0.00604131
vt 0.872638 0.0076967
vt 0.868939 0.004192
vt 0.868939 0.001465
vt 0.866893 0.00185385
vt 0.866893 0.00487375
vt 0.864264 0.0036062
vt 0.865239 0.0076967
vt 0.863096 0.00604131
vt 0.693786 0.998653
vt 0.693786 0.996435
vt 0.692112 0.998653
vt 0.692112 0.996435
vt 0.695092 0.998653
vt 0.695092 0.996435
vt 0.687911 0.996435
vt 0.687911 0.998653
vt 0.683738 0.998653
vt 0.683738 0.996435
vt 0.68195 0.996435
vt 0.68195 0.998653
vt 0.680625 0.996435
vt 0.680625 0.998653
vt 0.940978 0.999067
vt 0.941064 0.996771
vt 0.906304 0.999093
vt 0.904682 0.996771
vt 0.980132 0.953683
vt 0.978536 0.956716
vt 0.982421 0.953012
vt 0.97848 0.991385
vt 0.982392 0.991397
vt 0.986304 0.95672
vt 0.98471 0.953685
vt 0.986304 0.991394
vt 0.696939 0.999113
vt 0.731609 0.999113
vt 0.696852 0.996805
vt 0.733233 0.996805
vt 0.381985 0.988845
vt 0.381985 0.991384
vt 0.417189 0.988845
vt 0.417189 0.991384
vt 0.381983 0.987845
vt 0.41719 0.987845
vt 0.381983 0.985307
vt 0.41719 0.985307
vn 0.1016223 0.8598736 -0.5002902
vn 0.3398268 0.8955979 -0.2870926
vn 0.3956633 0.8504403 -0.3467013
vn 0.6709718 0.7305463 -0.1268824
vn 0.842102 0.5060247 -0.1865563
vn 0.9389219 0.343868 -0.01343016
vn 0.9092402 0.3665154 -0.1973541
vn -0.1016223 0.8598736 -0.5002902
vn -0.3955122 0.8504707 -0.346799
vn -0.3397637 0.8956009 -0.2871578
vn -0.6708699 0.7306136 -0.1270331
vn -0.8420488 0.5060906 -0.1866176
vn -0.938922 0.3438678 -0.01343015
vn -0.9092404 0.3665152 -0.1973539
vn 0 0.9535203 0.3013289
vn 0 0.9535203 0.3013289
vn 0 0.9535203 0.3013288
vn 0 0.9535203 0.3013289
vn -0.7718058 -0.6064775 -0.1910519
vn -0.9663414 -0.2455148 -0.07685435
vn -0.8988361 -0.4188559 -0.1290477
vn -0.9913424 -0.126423 -0.0354601
vn -0.7113274 -0.6707145 -0.2101323
vn -0.6767752 -0.7021273 -0.2213427
vn 0 -0.2758963 0.9611874
vn 0.002275317 -0.2761097 0.9611234
vn 0.02538829 -0.3261761 0.944968
vn 0.003873991 -0.2967905 0.9549347
vn -0.02709946 -0.3238299 0.9457271
vn -0.0334359 -0.2718125 0.9617691
vn -0.003876796 -0.2967957 0.9549331
vn 0.03345051 -0.2718057 0.9617707
vn 0.02713 -0.3237979 0.9457372
vn -0.02539944 -0.3261735 0.9449687
vn -0.002275366 -0.2761097 0.9611234
vn 0 -0.2758963 0.9611874
vn 0 0.3775825 -0.925976
vn -0.013005 0.3789575 -0.9253227
vn -0.0009589547 0.3776861 -0.9259331
vn -0.01392855 0.3790528 -0.9252703
vn -0.9999502 -0.009935926 0.001007509
vn -0.9999509 -0.009855949 0.001079896
vn -0.9999521 -0.009714104 0.001208278
vn -0.9999528 -0.009628046 0.001286167
vn 0 0.9535203 0.3013289
vn 0 0.9535203 0.3013288
vn 0 0.9535203 0.3013289
vn 0 0.9535203 0.3013289
vn 0.7719883 -0.6062658 -0.1909868
vn 0.8989343 -0.4186636 -0.1289876
vn 0.9663416 -0.2455144 -0.07685424
vn 0.9913424 -0.1264234 -0.03546024
vn 0.7116494 -0.6704032 -0.2100348
vn 0.6770583 -0.7018784 -0.2212662
vn 0.9999502 -0.009935942 0.00100748
vn 0.9999521 -0.009714074 0.001208289
vn 0.9999509 -0.009855949 0.001079881
vn 0.9999528 -0.009628 0.001286194
vn 0 0.3775825 -0.9259759
vn 0.0009589549 0.3776861 -0.9259331
vn 0.013005 0.3789575 -0.9253227
vn 0.01392855 0.3790528 -0.9252703
vn -0.3670604 0.3454697 -0.863665
vn -0.3670581 0.3454682 -0.8636666
vn -0.6998902 0.265267 -0.6631645
vn -0.729681 0.2539524 -0.634881
vn -0.9386492 0.1280826 -0.3202068
vn -0.9386492 0.1280826 -0.3202069
vn -0.3894859 -0.5834027 -0.7127005
vn -0.3918493 -0.6254156 -0.6747663
vn 0 -0.6310267 -0.775761
vn 0 -0.6689671 -0.743292
vn 0.3918495 -0.6254156 -0.6747662
vn 0.389486 -0.5834028 -0.7127005
vn 0.5186984 -0.640544 -0.5662643
vn 0.5105902 -0.6748623 -0.5327837
vn -0.5186982 -0.640544 -0.5662646
vn -0.51059 -0.6748623 -0.532784
vn 0.3670604 0.3454697 -0.863665
vn 0.7000615 0.2652046 -0.6630086
vn 0.3670581 0.3454682 -0.8636666
vn 0.7298698 0.2538775 -0.6346938
vn 0.9388278 0.1279022 -0.3197555
vn 0.9388276 0.1279021 -0.3197556
vn -0.007212172 -0.940407 -0.3399745
vn 0.0346949 -0.9539599 -0.2979206
vn -9.118333E-05 -0.950586 -0.3104613
vn 0.03087185 -0.9555764 -0.2931221
vn -0.0003287253 -0.9561538 -0.2928648
vn -0.03343902 -0.9537412 -0.2987633
vn 0.007212178 -0.940407 -0.3399745
vn -0.0302121 -0.9558802 -0.292199
vn -1 -0.0003345049 -0.000101496
vn -1 -2.023273E-05 -3.789384E-06
vn -0.9999999 -0.0005168985 -0.0001620436
vn -1 -7.593276E-06 4.578715E-06
vn -1 -1.915445E-05 -6.053136E-06
vn 1 0.0003345049 0.000101496
vn 0.9999999 0.0005168985 0.0001620436
vn 1 2.023273E-05 3.789384E-06
vn 1 7.593276E-06 -4.578715E-06
vn 1 1.915445E-05 6.053136E-06
vn -1 0 0
vn -1 0 0
vn -1 0 0
vn -1 0 0
vn 1 0 0
vn 1 0 0
vn 1 0 0
vn 1 0 0
vn -0.007870169 0.960867 0.2768984
vn 0.005494153 0.9661852 0.2577908
vn 0.03549813 0.972647 0.2295596
vn -0.01506351 0.9602001 0.2789064
vn -0.04671295 0.9544101 0.2948207
vn -0.03105204 0.9535654 0.2995811
vn 0.05012093 0.9479069 0.3145798
vn 0.0005875732 0.9541489 0.299332
vn -0.04399147 0.953063 0.2995589
vn 0.04689955 0.9566373 0.2874812
vn 1.950098E-07 0.9579731 0.286858
vn 0 0.9538452 0.3002989
vn -0.0005876702 0.9541489 0.2993319
vn -0.04689926 0.9566373 0.2874813
vn 0.0439915 0.953063 0.299559
vn 0.03103129 0.9536256 0.2993918
vn -0.05012094 0.9479069 0.3145798
vn 0.08034424 0.9541605 0.2883098
vn 0.014025 0.9593542 0.281856
vn 0.01357569 0.9592118 0.2823625
vn -0.005492824 0.9661854 0.2577898
vn -0.03550761 0.9726522 0.2295361
vn 0.003430254 -0.9559714 -0.2934396
vn 0.0005963821 -0.9546452 -0.2977451
vn -4.807945E-07 -0.9579804 -0.2868336
vn -0.01757929 -0.9544312 -0.2979131
vn 0.06273524 -0.9465854 -0.3162918
vn -0.04540796 -0.9538351 -0.2968784
vn 0 -0.9543757 -0.2986089
vn -0.0005963239 -0.9546452 -0.2977452
vn -0.003429157 -0.9559714 -0.2934398
vn 0.01755958 -0.9545014 -0.2976889
vn -0.06274292 -0.9465854 -0.3162899
vn 0.09798526 -0.9527501 -0.2875169
vn 0.01542422 -0.9593722 -0.2817217
vn 0.01358404 -0.9592101 -0.2823677
vn -0.005493517 -0.9661853 -0.2577904
vn -0.0354942 -0.9726465 -0.2295624
vn -0.01587532 -0.9607015 -0.2771291
vn -0.005856547 -0.9617072 -0.2740164
vn 0.005492183 -0.9661855 -0.2577894
vn 0.03550365 -0.9726517 -0.2295389
vn 0.4593198 0.6458683 0.6098192
vn 0.2335751 0.6354275 0.7359855
vn 0.3652033 0.6548326 0.6616803
vn 0.5097747 0.6779662 0.5296145
vn 0.5105884 0.674862 0.5327857
vn 4.114347E-07 0.6619425 0.7495546
vn 3.868058E-07 0.6689599 0.7432985
vn -0.2335742 0.6354277 0.7359856
vn -0.3633181 0.6551276 0.6624256
vn -0.4597786 0.6433855 0.6120937
vn -0.5102381 0.6778396 0.5293303
vn -0.5154412 0.6757982 0.5268937
vn 0.009421433 0.3713776 -0.9284341
vn 0.01672515 0.371341 -0.9283458
vn 0.01623946 0.3713425 -0.9283539
vn 0.008963984 0.3713754 -0.9284395
vn 0 0.3713941 -0.9284753
vn 0 0.3713941 -0.9284753
vn 0 0.3713903 -0.9284768
vn 0 0.3713903 -0.9284768
vn -0.01623946 0.3713424 -0.9283539
vn -0.008963984 0.3713754 -0.9284395
vn -0.01672515 0.371341 -0.9283458
vn -0.009421431 0.3713776 -0.9284341
vn 0 0.3713941 -0.9284753
vn 0 0.3713941 -0.9284753
vn 0.6970518 0.6856992 0.2096077
vn 0.6976655 0.6851116 0.2094872
vn 0.7105183 0.6725731 0.2069035
vn 0.7109367 0.6721575 0.2068175
vn -0.007234811 0.9404005 0.339992
vn 0.03469944 0.9539628 0.2979109
vn -9.121601E-05 0.9505867 0.3104595
vn 0.03087239 0.9555805 0.2931092
vn -0.0003293345 0.956158 0.2928511
vn -0.03344368 0.9537442 0.2987533
vn 0.007234841 0.9404005 0.339992
vn -0.0302122 0.9558847 0.2921844
vn -0.6970512 0.6857055 0.2095889
vn -0.7105273 0.6725702 0.2068824
vn -0.6976654 0.6851175 0.2094683
vn -0.7109458 0.6721542 0.2067963
vn 0.6970524 -0.6856984 -0.2096082
vn 0.6976661 -0.6851109 -0.2094877
vn 0.7105182 -0.6725731 -0.2069037
vn 0.7109366 -0.6721575 -0.2068177
vn -0.6970525 -0.6856984 -0.2096082
vn -0.7105183 -0.6725731 -0.2069037
vn -0.6976662 -0.6851109 -0.2094877
vn -0.7109367 -0.6721575 -0.2068177
g ak104_release_LOD0_0
f 3/3/3 2/2/2 1/1/1
f 2/2/2 3/3/3 4/4/4
f 5/5/5 4/4/4 3/3/3
f 4/4/4 5/5/5 6/6/6
f 5/5/5 7/7/7 6/6/6
f 10/10/10 9/9/9 8/8/8
f 9/9/9 10/10/10 11/11/11
f 11/11/11 12/12/12 9/9/9
f 12/12/12 11/11/11 13/13/13
f 12/12/12 13/13/13 14/14/14
f 17/17/17 16/16/16 15/15/15
f 16/16/16 17/17/17 18/18/18
f 21/21/21 20/20/20 19/19/19
f 20/20/20 21/21/21 22/22/22
f 19/19/19 23/23/23 21/21/21
f 23/23/23 19/19/19 24/24/24
f 27/27/27 26/26/26 25/25/25
f 26/26/26 27/27/27 28/28/28
f 29/29/29 28/28/28 27/27/27
f 30/30/30 28/28/28 29/29/29
f 30/30/30 31/31/31 28/28/28
f 31/31/31 30/30/30 32/32/32
f 32/32/32 33/33/33 31/31/31
f 33/33/33 34/34/34 31/31/31
f 34/34/34 35/35/35 31/31/31
f 35/35/35 34/34/34 36/36/36
f 39/39/39 38/38/38 37/37/37
f 38/38/38 39/39/39 40/40/40
f 43/43/43 42/42/42 41/41/41
f 42/42/42 43/43/43 44/44/44
f 47/47/47 46/46/46 45/45/45
f 46/46/46 47/47/47 48/48/48
f 51/51/51 50/50/50 49/49/49
f 50/50/50 51/51/51 52/52/52
f 53/53/53 49/49/49 50/50/50
f 49/49/49 53/53/53 54/54/54
f 57/57/57 56/56/56 55/55/55
f 56/56/56 57/57/57 58/58/58
f 61/61/61 60/60/60 59/59/59
f 60/60/60 61/61/61 62/62/62
f 65/65/65 64/64/64 63/63/63
f 64/64/64 65/65/65 66/66/66
f 67/67/67 66/66/66 65/65/65
f 66/66/66 67/67/67 68/68/68
f 71/71/71 70/70/70 69/69/69
f 70/70/70 71/71/71 72/72/72
f 71/71/71 73/73/73 72/72/72
f 73/73/73 71/71/71 74/74/74
f 75/75/75 73/73/73 74/74/74
f 73/73/73 75/75/75 76/76/76
f 70/70/70 77/77/77 69/69/69
f 77/77/77 70/70/70 78/78/78
f 81/81/81 80/80/80 79/79/79
f 80/80/80 81/81/81 82/82/82
f 82/82/82 83/83/83 80/80/80
f 83/83/83 82/82/82 84/84/84
f 87/87/87 86/86/86 85/85/85
f 86/86/86 87/87/87 88/88/88
f 89/89/89 88/88/88 87/87/87
f 87/87/87 90/90/90 89/89/89
f 90/90/90 87/87/87 91/91/91
f 92/92/92 89/89/89 90/90/90
f 95/95/95 94/94/94 93/93/93
f 94/94/94 96/96/96 93/93/93
f 96/96/96 94/94/94 97/97/97
f 100/100/100 99/99/99 98/98/98
f 101/101/101 100/100/100 98/98/98
f 100/100/100 101/101/101 102/102/102
f 105/105/105 104/104/104 103/103/103
f 104/104/104 105/105/105 106/106/106
f 109/109/109 108/108/108 107/107/107
f 108/108/108 109/109/109 110/110/110
f 113/113/113 112/112/112 111/111/111
f 114/114/114 111/111/111 112/112/112
f 111/111/111 114/114/114 115/115/115
f 116/116/116 115/115/115 114/114/114
f 115/115/115 116/116/116 117/117/117
f 117/117/117 116/116/116 118/118/118
f 116/116/116 119/119/119 118/118/118
f 120/120/120 118/118/118 119/119/119
f 121/121/121 118/118/118 120/120/120
f 122/122/122 118/118/118 121/121/121
f 123/123/123 122/122/122 121/121/121
f 121/121/121 124/124/124 123/123/123
f 124/124/124 125/125/125 123/123/123
f 125/125/125 126/126/126 123/123/123
f 127/127/127 123/123/123 126/126/126
f 126/126/126 128/128/128 127/127/127
f 128/128/128 126/126/126 129/129/129
f 130/130/130 129/129/129 126/126/126
f 129/129/129 130/130/130 131/131/131
f 132/132/132 129/129/129 131/131/131
f 135/135/135 134/134/134 133/133/133
f 133/133/133 134/134/134 136/136/136
f 134/134/134 137/137/137 136/136/136
f 138/138/138 136/136/136 137/137/137
f 134/134/134 135/135/135 139/139/139
f 140/140/140 139/139/139 135/135/135
f 135/135/135 141/141/141 140/140/140
f 141/141/141 142/142/142 140/140/140
f 140/140/140 142/142/142 143/143/143
f 144/144/144 143/143/143 142/142/142
f 144/144/144 142/142/142 145/145/145
f 146/146/146 145/145/145 142/142/142
f 145/145/145 146/146/146 147/147/147
f 148/148/148 145/145/145 147/147/147
f 136/136/136 138/138/138 149/149/149
f 150/150/150 149/149/149 138/138/138
f 149/149/149 150/150/150 151/151/151
f 152/152/152 151/151/151 150/150/150
f 155/155/155 154/154/154 153/153/153
f 156/156/156 155/155/155 153/153/153
f 155/155/155 156/156/156 157/157/157
f 158/158/158 154/154/154 155/155/155
f 154/154/154 158/158/158 159/159/159
f 158/158/158 160/160/160 159/159/159
f 160/160/160 158/158/158 161/161/161
f 160/160/160 161/161/161 162/162/162
f 163/163/163 162/162/162 161/161/161
f 162/162/162 163/163/163 164/164/164
f 167/167/167 166/166/166 165/165/165
f 166/166/166 167/167/167 168/168/168
f 166/166/166 169/169/169 165/165/165
f 169/169/169 166/166/166 170/170/170
f 167/167/167 171/171/171 168/168/168
f 171/171/171 167/167/167 172/172/172
f 173/173/173 171/171/171 172/172/172
f 171/171/171 173/173/173 174/174/174
f 173/173/173 175/175/175 174/174/174
f 175/175/175 173/173/173 176/176/176
f 176/176/176 177/177/177 175/175/175
f 177/177/177 176/176/176 178/178/178
f 181/181/181 180/180/180 179/179/179
f 180/180/180 181/181/181 182/182/182
f 185/185/185 184/184/184 183/183/183
f 184/184/184 185/185/185 186/186/186
f 187/187/187 186/186/186 185/185/185
f 185/185/185 188/188/188 187/187/187
f 188/188/188 185/185/185 189/189/189
f 190/190/190 187/187/187 188/188/188
f 193/193/193 192/192/192 191/191/191
f 192/192/192 193/193/193 194/194/194
f 197/197/197 196/196/196 195/195/195
f 196/196/196 197/197/197 198/198/198
f 201/201/201 200/200/200 199/199/199
f 200/200/200 201/201/201 202/202/202
