g release_001_LOD0
v 0.002586505 -0.006499996 -0.004327984
v -0.002586495 -0.006499996 -0.004327984
v -0.002586495 -0.006499996 0.004328022
v 0.002586505 -0.006499996 0.004328022
v 0.002586505 -0.00633501 -0.005158978
v -0.002586495 -0.00633501 -0.005158978
v 0.002586505 -0.00586401 -0.005863972
v -0.002586495 -0.00586401 -0.005863972
v 0.002586505 -0.005158997 -0.006334972
v -0.002586495 -0.005158997 -0.006334972
v 0.002586505 -0.004328003 -0.006499977
v -0.002586495 -0.004328003 -0.006499977
v -0.002586495 -0.00633501 0.005159034
v 0.002586505 -0.00633501 0.005159034
v -0.002586495 -0.00586401 0.005864029
v 0.002586505 -0.00586401 0.005864029
v -0.002586495 -0.005159016 0.006335029
v 0.002586505 -0.005159016 0.006335029
v -0.002586495 -0.004328003 0.006500034
v 0.002586505 -0.004328003 0.006500034
v -0.002586495 0.004326992 0.006500034
v 0.002586505 0.004326992 0.006500034
v -0.002586495 0.005158997 0.006335029
v 0.002586505 0.005158997 0.006335029
v -0.002586495 0.005862999 0.005864029
v 0.002586505 0.005862999 0.005864029
v -0.002586495 0.006333999 0.005159034
v 0.002586505 0.006333999 0.005159034
v -0.002586495 0.006499996 0.004328022
v 0.002586505 0.006499996 0.004328022
v -0.002586495 0.006499996 -0.004327965
v 0.002586505 0.006499996 -0.004327965
v -0.002586495 0.006333999 -0.005158958
v 0.002586505 0.006333999 -0.005158958
v -0.002586495 0.005862999 -0.005863952
v 0.002586505 0.005862999 -0.005863952
v -0.002586495 0.005158997 -0.006334953
v 0.002586505 0.005158997 -0.006334953
v -0.002586495 0.004326992 -0.006499977
v 0.002586505 0.004326992 -0.006499977
v -0.002586495 -0.004328003 -0.006499977
v 0.002586505 -0.004328003 -0.006499977
v -0.002586495 -0.004328003 0.006500034
v -0.002586495 -0.005159016 0.006335029
v -0.002586495 -0.00633501 0.005159034
v -0.002586495 -0.006499996 0.004328022
v -0.002586495 -0.006499996 -0.004327984
v -0.002586495 -0.004328003 -0.006499977
v -0.002586495 -0.005158997 -0.006334972
v -0.002586495 -0.00633501 -0.005158978
v -0.002586495 0.004326992 -0.006499977
v -0.002586495 0.004326992 0.006500034
v -0.002586495 0.006499996 0.004328022
v -0.002586495 0.005158997 0.006335029
v -0.002586495 0.006333999 0.005159034
v -0.002586495 0.006499996 -0.004327965
v -0.002586495 0.006333999 -0.005158958
v -0.002586495 0.005158997 -0.006334953
v -0.002586495 0.005862999 0.005864029
v -0.002586495 0.005862999 -0.005863952
v -0.002586495 -0.00586401 -0.005863972
v -0.002586495 -0.00586401 0.005864029
vt 2.482196 0.7583148
vt 2.482196 0.7429023
vt 2.508202 0.7429023
vt 2.508202 0.7583148
vt 2.479691 0.7583148
vt 2.479691 0.7429023
vt 2.477187 0.7583148
vt 2.477187 0.7429023
vt 2.474683 0.7583148
vt 2.474683 0.7429023
vt 2.472178 0.7583148
vt 2.472178 0.7429023
vt 2.510706 0.7429023
vt 2.510706 0.7583148
vt 2.51321 0.7429023
vt 2.51321 0.7583148
vt 2.515907 0.7429023
vt 2.515907 0.7583148
vt 2.518411 0.7429023
vt 2.518411 0.7583148
vt 2.544225 0.7429023
vt 2.544225 0.7583148
vt 2.546729 0.7429023
vt 2.546729 0.7583148
vt 2.549426 0.7429023
vt 2.549426 0.7583148
vt 2.55193 0.7429023
vt 2.55193 0.7583148
vt 2.554434 0.7429023
vt 2.554434 0.7583148
vt 2.580441 0.7429023
vt 2.580441 0.7583148
vt 2.582945 0.7429023
vt 2.582945 0.7583148
vt 2.585449 0.7429023
vt 2.585449 0.7583148
vt 2.587954 0.7429023
vt 2.587954 0.7583148
vt 2.590458 0.7429023
vt 2.590458 0.7583148
vt 2.616464 0.7429023
vt 2.616464 0.7583148
vt 2.041924 0.8229268
vt 2.041538 0.8256305
vt 2.037869 0.8291066
vt 2.035359 0.8296852
vt 2.008712 0.8296852
vt 2.001953 0.8229268
vt 2.002532 0.8256305
vt 2.006201 0.8291066
vt 2.001953 0.7964724
vt 2.041924 0.7964724
vt 2.035359 0.7897144
vt 2.041538 0.7937693
vt 2.037869 0.7902932
vt 2.008712 0.7897144
vt 2.006201 0.7902932
vt 2.002532 0.7937693
vt 2.039993 0.7916445
vt 2.003884 0.7916445
vt 2.003884 0.8277546
vt 2.039993 0.8277546
vn 0 -0.9952022 -0.09783899
vn 0 -0.9952022 -0.09783899
vn 0 -0.9952024 0.09783681
vn 0 -0.9952024 0.09783681
vn 0 -0.9239596 -0.3824902
vn 0 -0.9239596 -0.3824902
vn 0 -0.7071024 -0.7071112
vn 0 -0.7071024 -0.7071112
vn 0 -0.3824946 -0.9239576
vn 0 -0.3824946 -0.9239576
vn 0 -0.09784998 -0.9952012
vn 0 -0.09784998 -0.9952012
vn 0 -0.9239604 0.3824882
vn 0 -0.9239604 0.3824882
vn 0 -0.7071068 0.7071068
vn 0 -0.7071068 0.7071068
vn 0 -0.3824984 0.9239562
vn 0 -0.3824984 0.9239562
vn 0 -0.09784779 0.9952013
vn 0 -0.09784779 0.9952013
vn 0 0.09773448 0.9952126
vn 0 0.09773448 0.9952126
vn 0 0.3826937 0.9238753
vn 0 0.3826937 0.9238753
vn 0 0.7073367 0.7068768
vn 0 0.7073367 0.7068768
vn 0 0.9237365 0.3830287
vn 0 0.9237365 0.3830287
vn 0 0.995145 0.09841899
vn 0 0.995145 0.09841899
vn 0 0.9951448 -0.09842119
vn 0 0.9951448 -0.09842119
vn 0 0.9237357 -0.3830307
vn 0 0.9237357 -0.3830307
vn 0 0.7073367 -0.7068768
vn 0 0.7073367 -0.7068768
vn 0 0.3827039 -0.9238711
vn 0 0.3827039 -0.9238711
vn 0 0.09774547 -0.9952115
vn 0 0.09774547 -0.9952115
vn 0 -0.09784998 -0.9952012
vn 0 -0.09784998 -0.9952012
vn -1 0 0
vn -1 0 0
vn -1 0 0
vn -1 0 0
vn -1 0 0
vn -1 0 0
vn -1 0 0
vn -1 0 0
vn -1 0 0
vn -1 0 0
vn -1 0 0
vn -1 0 0
vn -1 0 0
vn -1 0 0
vn -1 0 0
vn -1 0 0
vn -1 0 0
vn -1 0 0
vn -1 0 0
vn -1 0 0
g release_001_LOD0_0
f 3/3/3 2/2/2 1/1/1
f 4/4/4 3/3/3 1/1/1
f 5/5/5 1/1/1 2/2/2
f 6/6/6 5/5/5 2/2/2
f 7/7/7 5/5/5 6/6/6
f 8/8/8 7/7/7 6/6/6
f 9/9/9 7/7/7 8/8/8
f 10/10/10 9/9/9 8/8/8
f 11/11/11 9/9/9 10/10/10
f 12/12/12 11/11/11 10/10/10
f 3/3/3 4/4/4 13/13/13
f 4/4/4 14/14/14 13/13/13
f 13/13/13 14/14/14 15/15/15
f 14/14/14 16/16/16 15/15/15
f 15/15/15 16/16/16 17/17/17
f 16/16/16 18/18/18 17/17/17
f 19/19/19 17/17/17 18/18/18
f 20/20/20 19/19/19 18/18/18
f 21/21/21 19/19/19 20/20/20
f 22/22/22 21/21/21 20/20/20
f 21/21/21 22/22/22 23/23/23
f 22/22/22 24/24/24 23/23/23
f 23/23/23 24/24/24 25/25/25
f 24/24/24 26/26/26 25/25/25
f 25/25/25 26/26/26 27/27/27
f 26/26/26 28/28/28 27/27/27
f 27/27/27 28/28/28 29/29/29
f 28/28/28 30/30/30 29/29/29
f 31/31/31 29/29/29 30/30/30
f 32/32/32 31/31/31 30/30/30
f 33/33/33 31/31/31 32/32/32
f 34/34/34 33/33/33 32/32/32
f 33/33/33 34/34/34 35/35/35
f 34/34/34 36/36/36 35/35/35
f 35/35/35 36/36/36 37/37/37
f 36/36/36 38/38/38 37/37/37
f 37/37/37 38/38/38 39/39/39
f 38/38/38 40/40/40 39/39/39
f 41/41/41 39/39/39 40/40/40
f 42/42/42 41/41/41 40/40/40
f 45/45/45 44/44/44 43/43/43
f 46/46/46 45/45/45 43/43/43
f 47/47/47 46/46/46 43/43/43
f 48/48/48 47/47/47 43/43/43
f 48/48/48 49/49/49 47/47/47
f 49/49/49 50/50/50 47/47/47
f 51/51/51 48/48/48 43/43/43
f 52/52/52 51/51/51 43/43/43
f 52/52/52 53/53/53 51/51/51
f 52/52/52 54/54/54 53/53/53
f 54/54/54 55/55/55 53/53/53
f 53/53/53 56/56/56 51/51/51
f 56/56/56 57/57/57 51/51/51
f 57/57/57 58/58/58 51/51/51
f 54/54/54 59/59/59 55/55/55
f 57/57/57 60/60/60 58/58/58
f 49/49/49 61/61/61 50/50/50
f 45/45/45 62/62/62 44/44/44
