g reciever_vepr_molot_vpo-101_std_LOD1
v 0.0184786 0.04283031 -0.0268578
v 0.01847692 0.001006489 -0.02685773
v 0.008616781 0.001040277 -0.008146352
v 0.01815442 0.2246364 -0.0253083
v 0.01856906 0.04735623 -0.02813598
v 0.01852487 0.2263087 -0.02738689
v 0.01848597 0.06061454 -0.03488086
v 0.01848597 0.2316436 -0.03437041
v 0.01848597 0.06074196 -0.0376679
v 0.01848597 0.1568131 -0.03784637
v 0.01848597 0.04733685 -0.03488084
v 0.01848597 0.2319748 -0.037986
v 0.008613548 0.2111344 -0.008139933
v 0.004910452 0.2077424 -0.004675835
v 0.004912505 0.001039648 -0.004653327
v -0.0001464879 0.2060847 -0.003340221
v -0.0001464436 0.001039658 -0.003336308
v -0.005205364 0.001039648 -0.004653327
v -0.005203428 0.2077424 -0.004675835
v -0.008906525 0.2111344 -0.008139933
v -0.008888951 0.001039648 -0.008109026
v -0.01134738 0.08169743 -0.01273182
v -0.01879461 0.1446996 -0.02695878
v -0.01844739 0.2246364 -0.0253083
v -0.01886195 0.1486218 -0.02842227
v -0.01881785 0.2263087 -0.02738689
v -0.01871722 0.1565268 -0.03798587
v -0.01878099 0.2311094 -0.03374816
v -0.01913901 0.0857916 -0.02686821
v -0.01134737 0.0009881497 -0.01273168
v -0.01877855 0.2319925 -0.03798376
v 0.0137515 0.2290477 -0.02519196
v 0.01815442 0.2246364 -0.0253083
v 0.008613548 0.2111344 -0.008139933
v 0.004621506 0.2161304 -0.009023708
v 0.01852487 0.2263087 -0.02738689
v 0.01848597 0.2316436 -0.03437041
v 0.0140955 0.2352551 -0.0332425
v 0.01411464 0.2353403 -0.03795844
v 0.01848597 0.2319748 -0.037986
v 0.004910452 0.2077424 -0.004675835
v 0.001935968 0.2131776 -0.006114
v -0.0001464879 0.2122857 -0.005408105
v -0.0001464879 0.2060847 -0.003340221
v -0.01440761 0.2353403 -0.03795844
v -0.01438848 0.2352551 -0.0332425
v -0.01404447 0.2290477 -0.02519196
v -0.004914482 0.2161304 -0.009023708
v -0.002228944 0.2131776 -0.006114
v -0.008906525 0.2111344 -0.008139933
v -0.01844739 0.2246364 -0.0253083
v -0.01881785 0.2263087 -0.02738689
v -0.005203428 0.2077424 -0.004675835
v -0.01878099 0.2311094 -0.03374816
v -0.01877855 0.2319925 -0.03798376
v -0.01877855 0.2319925 -0.03798376
v -0.01871722 0.1565268 -0.03798587
v 0.0170374 0.1565268 -0.03798587
v 0.01848597 0.2319748 -0.037986
v -0.01440761 0.2353403 -0.03795844
v 0.01411464 0.2353403 -0.03795844
v 0.01848597 0.1568131 -0.03784637
v -0.01886195 0.1486218 -0.02842227
v -0.01879461 0.1446996 -0.02695878
v 0.01703732 0.1446996 -0.02695878
v 0.01703726 0.1486218 -0.02842227
v 0.01706454 0.0857916 -0.02687135
v -0.01913901 0.0857916 -0.02686821
v -0.01871722 0.1565268 -0.03798587
v 0.0170374 0.1565268 -0.03798587
v 0.01706454 0.04236694 -0.02687128
v 0.01706454 0.000988121 -0.02687121
v 0.01847692 0.001006489 -0.02685773
v 0.0184786 0.04283031 -0.0268578
v 0.01856906 0.04735623 -0.02813598
v 0.01712048 0.04706991 -0.02827547
v 0.01848597 0.04733685 -0.03488084
v 0.0170374 0.04705053 -0.03502034
v 0.01848597 0.06061454 -0.03488086
v 0.0170374 0.06032821 -0.03502036
v 0.0170374 0.04705053 -0.03502034
v 0.01848597 0.04733685 -0.03488084
v 0.01848597 0.1568131 -0.03784637
v 0.0170374 0.1565268 -0.03798587
v 0.0170374 0.06045565 -0.0378074
v 0.01848597 0.06074196 -0.0376679
v 0.01848597 0.06074196 -0.0376679
v 0.0170374 0.06045565 -0.0378074
v 0.0170374 0.06032821 -0.03502036
v 0.01848597 0.06061454 -0.03488086
v 0.0170374 0.1565268 -0.03798587
v 0.01703732 0.1446996 -0.02695878
v 0.01706454 0.0857916 -0.02687135
v 0.0170374 0.06045565 -0.0378074
v 0.0170374 0.06032821 -0.03502036
v 0.01712048 0.04706991 -0.02827547
v 0.01706454 0.04236694 -0.02687128
v 0.0170374 0.04705053 -0.03502034
v 0.01703726 0.1486218 -0.02842227
v 0.004912505 0.001039648 -0.004653327
v 0.008616781 0.001040277 -0.008146352
v -0.008888951 0.001039648 -0.008109026
v -0.005205364 0.001039648 -0.004653327
v -0.0001464436 0.001039658 -0.003336308
v 0.008693055 0.0009881497 -0.01273168
v -0.01134737 0.0009881497 -0.01273168
v -0.01134738 0.08169743 -0.01273182
v 0.008693034 0.08169743 -0.01273182
v 0.01706454 0.0857916 -0.02687135
v -0.01913901 0.0857916 -0.02686821
v -0.01134737 0.0009881497 -0.01273168
v 0.008693055 0.0009881497 -0.01273168
v 0.008693034 0.08169743 -0.01273182
v -0.01134738 0.08169743 -0.01273182
v 0.01706454 0.04236694 -0.02687128
v 0.008693055 0.0009881497 -0.01273168
v 0.01706454 0.000988121 -0.02687121
v 0.008693034 0.08169743 -0.01273182
v 0.01706454 0.0857916 -0.02687135
v 0.01847692 0.001006489 -0.02685773
v 0.008693055 0.0009881497 -0.01273168
v 0.008616781 0.001040277 -0.008146352
v 0.01706454 0.000988121 -0.02687121
vt 0.1929565 0.3713047
vt 0.01842652 0.3713047
vt 0.01856252 0.5473487
vt 0.9510641 0.3877617
vt 0.211895 0.3608687
vt 0.958071 0.3702507
vt 0.2672635 0.3049377
vt 0.980417 0.3120587
vt 0.2678335 0.2817797
vt 0.668435 0.2817797
vt 0.2118865 0.3046307
vt 0.9818485 0.2819277
vt 0.894609 0.5511747
vt 0.880495 0.5932707
vt 0.01860502 0.5894747
vt 0.873623 0.6366787
vt 0.01864302 0.6326727
vt 0.01868602 0.6758057
vt 0.880577 0.6800877
vt 0.8947945 0.7221357
vt 0.01870652 0.7173827
vt 0.3550135 0.7616727
vt 0.6175625 0.8971347
vt 0.950928 0.8862037
vt 0.634 0.9105437
vt 0.957943 0.9036817
vt 0.6669455 0.9914297
vt 0.9779584 0.9565787
vt 0.3719175 0.8971347
vt 0.01846052 0.7616727
vt 0.9816389 0.9914297
vt 0.06493253 0.3081117
vt 0.07728353 0.3536697
vt 0.1689765 0.2700747
vt 0.150519 0.2312817
vt 0.06489452 0.3575347
vt 0.02647752 0.3556707
vt 0.02335802 0.3094517
vt 0.004513017 0.3138937
vt 0.01050502 0.3611917
vt 0.1898775 0.2363767
vt 0.1673335 0.2089327
vt 0.1718635 0.1917017
vt 0.1990385 0.1916127
vt 0.004389017 0.07063768
vt 0.02317151 0.07511168
vt 0.06473152 0.07598769
vt 0.150453 0.1522497
vt 0.167302 0.1745028
vt 0.1688435 0.1133427
vt 0.07700552 0.03033869
vt 0.06459552 0.02652469
vt 0.189801 0.1469087
vt 0.02955701 0.02802669
vt 0.01055902 0.02351569
vt 0.709364 0.008162688
vt 0.4556095 0.008162688
vt 0.455543 0.2487327
vt 0.709236 0.2586247
vt 0.7206125 0.03750569
vt 0.72056 0.2293157
vt 0.4565015 0.2586247
vt 0.769736 0.2497797
vt 0.7838145 0.2497797
vt 0.783816 0.008203687
vt 0.769736 0.008205687
vt 0.9818931 0.00820669
vt 0.9818931 0.2497817
vt 0.7280145 0.2497797
vt 0.7280145 0.008203687
vt 0.2508345 0.1532637
vt 0.4243025 0.1532637
vt 0.4243035 0.1410306
vt 0.250835 0.1410306
vt 0.230795 0.1410306
vt 0.230796 0.1532637
vt 0.202667 0.1410327
vt 0.2026665 0.1532647
vt 0.5795555 0.9894317
vt 0.5795555 0.9770657
vt 0.524192 0.9770657
vt 0.524192 0.9894317
vt 0.995234 0.1922907
vt 0.9890511 0.1922907
vt 0.9890499 0.9934797
vt 0.9952335 0.9934797
vt 0.517233 0.9633117
vt 0.511049 0.9633117
vt 0.511049 0.9865767
vt 0.517233 0.9865767
vt 0.006504516 0.9209667
vt 0.04439052 0.9911877
vt 0.2327145 0.9911877
vt 0.313675 0.9209667
vt 0.3141135 0.9389687
vt 0.356502 0.9821597
vt 0.3715415 0.9911877
vt 0.3565685 0.9390177
vt 0.03184652 0.9819447
vt 0.3164 0.2518117
vt 0.33184 0.2226747
vt 0.2588435 0.2230217
vt 0.2742095 0.2518337
vt 0.2953045 0.2628127
vt 0.332155 0.1844377
vt 0.248592 0.1844727
vt 0.9086135 0.5576087
vt 0.908616 0.7247377
vt 0.9699969 0.7945447
vt 0.9699824 0.4926267
vt 0.268347 0.9081307
vt 0.268347 0.7786947
vt 0.007705016 0.7786947
vt 0.007705016 0.9081307
vt 0.311656 0.01042769
vt 0.4488485 0.1193958
vt 0.4488505 0.01044569
vt 0.181262 0.1194217
vt 0.167679 0.01047069
vt 0.01842652 0.3713047
vt 0.009858014 0.5134577
vt 0.01856252 0.5473487
vt 0.01316702 0.3766277
vn 0.8944435 -0.000905995 0.44718
vn 0.8846797 0 0.4661994
vn 0.7947816 -0.0001907352 0.6068955
vn 0.9701642 -0.0001907355 0.2424487
vn 0.9964581 9.536739E-05 0.0840902
vn 0.9994419 0.0001907355 0.03340255
vn 0.9999808 9.536796E-05 -0.006198918
vn 0.9999952 0.0001907341 -0.00309943
vn 1 0 0
vn 1 0 0
vn 0.9999243 0 -0.01230236
vn 1 0 0
vn 0.8286712 -0.0007629393 0.5597351
vn 0.5410377 0 0.8409984
vn 0.4840059 9.53671E-05 0.8750647
vn -3.725294E-07 0 1
vn -2.793971E-07 9.536753E-05 1
vn -0.4834456 9.536708E-05 0.8753744
vn -0.5403382 0 0.8414479
vn -0.8260804 -0.003814705 0.5635393
vn -0.7943191 0 0.6075008
vn -0.8812414 0.001430509 0.4726641
vn -0.9012829 0.0001907351 0.4332309
vn -0.9714004 -0.001716613 0.237441
vn -0.9958852 0.000286102 0.09062281
vn -0.9996001 0.0003814676 0.02827629
vn -0.9999402 0.0002861025 -0.01094342
vn -0.9999896 -0.0003814707 -0.004553807
vn -0.8750418 0.005817399 0.4840125
vn -0.8829106 0 0.469541
vn -0.9999993 -0.0009536745 -0.0007390977
vn 0.3300838 0.7017499 0.6313413
vn 0.5459515 0.5399672 0.6406031
vn 0.4383037 0.4703915 0.7659123
vn 0.2467169 0.6375763 0.7298132
vn 0.6009657 0.6000836 0.5279582
vn 0.6355863 0.7197232 0.2793362
vn 0.3208913 0.8914719 0.3198542
vn 0.3317864 0.9428451 0.03099582
vn 0.6256168 0.7790857 0.04036083
vn 0.2605985 0.3776478 0.8885215
vn 0.1649547 0.5287323 0.8326056
vn 0 0.4327977 0.9014911
vn 0 0.3246193 0.9458447
vn -0.3471833 0.9362482 0.05387862
vn -0.327745 0.8885155 0.3211283
vn -0.330655 0.701888 0.6308885
vn -0.2467169 0.6375763 0.7298132
vn -0.1649547 0.5287323 0.8326056
vn -0.4383037 0.4703915 0.7659123
vn -0.5459515 0.5399672 0.6406031
vn -0.6019909 0.6000359 0.5268434
vn -0.2605985 0.3776478 0.8885215
vn -0.6434194 0.6966015 0.3174239
vn -0.6505492 0.7549289 0.08287433
vn -3.576273E-05 0.002288815 -0.9999974
vn -3.576282E-05 9.536753E-05 -1
vn 0.06381354 -0.001144424 -0.9979612
vn 0.0007987008 0.002288814 -0.9999971
vn -3.576344E-05 0.007820272 -0.9999695
vn -3.576344E-05 0.007820272 -0.9999695
vn 0.09621242 -0.001811955 -0.9953592
vn 0 -0.5802161 -0.8144626
vn -2.384147E-05 -0.1789064 -0.983866
vn -2.384167E-05 -0.1783357 -0.9839697
vn 0 -0.5799248 -0.81467
vn -4.768257E-05 -0.001525842 -0.9999988
vn -4.76837E-05 -0.001525878 -0.9999988
vn 0 -0.7707713 -0.6371118
vn 0 -0.7707713 -0.6371118
vn 0.05593323 -0.1128201 -0.9920399
vn 0.009536774 0 -0.9999546
vn 0.009536774 0 -0.9999546
vn 0.07918954 -0.169513 -0.9823413
vn 0.1983678 -0.7931849 -0.5757672
vn 0.1964667 -0.7740413 -0.6018811
vn 0.1938667 -0.9810278 0.0004529875
vn 0.1938667 -0.9810278 0.0004291461
vn 0.09585597 0 -0.9953952
vn 0.09585597 0 -0.9953952
vn 0.09585597 0 -0.9953952
vn 0.09585597 0 -0.9953952
vn 0.09621242 -0.001811955 -0.9953592
vn 0.06381354 -0.001144424 -0.9979612
vn 0.09621467 -0.001859682 -0.9953589
vn 0.09621467 -0.001859682 -0.9953589
vn 0.1978677 -0.9792055 -0.04477594
vn 0.1978679 -0.9792066 -0.04475215
vn 0.1978677 -0.9792055 -0.04477594
vn 0.1978677 -0.9792055 -0.04477594
vn -0.9999994 -9.536747E-05 0.001120568
vn -0.9999994 -9.536747E-05 0.00114441
vn -0.9999993 -0.0002861024 0.001168251
vn -0.9999996 0.0007629399 0.00038147
vn -0.999999 -0.000333786 0.001335144
vn -0.9999936 -0.001049036 0.003433209
vn -0.999999 -0.001430511 0.0001430511
vn -0.9999241 0 0.0123262
vn -1 -9.536753E-05 -2.384188E-05
vn 1.788098E-05 -1 -7.152394E-05
vn 0.003141269 -0.9999608 0.008285321
vn 2.384278E-05 -0.9999663 0.008213838
vn 1.788098E-05 -1 -7.152394E-05
vn 0 -1 1.192066E-05
vn 0.01167695 -0.9998664 0.01144448
vn 2.384208E-05 -0.9999368 0.01124154
vn -1.192085E-05 -0.9605345 -0.2781612
vn -1.788128E-05 -0.9605345 -0.2781612
vn -1.192077E-05 -0.960528 -0.2781831
vn -1.192085E-05 -0.9605345 -0.2781612
vn 0 0 -1
vn 0 0 -1
vn 0 0 -1
vn 0 0 -1
vn -0.860496 0 -0.5094573
vn -0.8604923 0 -0.5094635
vn -0.860496 0 -0.5094573
vn -0.8604907 0 -0.5094661
vn -0.8604855 0 -0.5094749
vn 0.0135666 -0.9998751 0.008106579
vn 0.01167695 -0.9998664 0.01144448
vn 0.003141269 -0.9999608 0.008285321
vn 0.01293369 -0.9998871 0.007652927
g reciever_vepr_molot_vpo-101_std_LOD1_0
f 3/3/3 2/2/2 1/1/1
f 3/3/3 1/1/1 4/4/4
f 4/4/4 1/1/1 5/5/5
f 6/6/6 4/4/4 5/5/5
f 6/6/6 5/5/5 7/7/7
f 8/8/8 6/6/6 7/7/7
f 8/8/8 7/7/7 9/9/9
f 10/10/10 8/8/8 9/9/9
f 11/11/11 7/7/7 5/5/5
f 12/12/12 8/8/8 10/10/10
f 13/13/13 3/3/3 4/4/4
f 13/13/13 14/14/14 3/3/3
f 14/14/14 15/15/15 3/3/3
f 14/14/14 16/16/16 15/15/15
f 16/16/16 17/17/17 15/15/15
f 17/17/17 16/16/16 18/18/18
f 16/16/16 19/19/19 18/18/18
f 19/19/19 20/20/20 18/18/18
f 20/20/20 21/21/21 18/18/18
f 21/21/21 20/20/20 22/22/22
f 23/23/23 22/22/22 20/20/20
f 24/24/24 23/23/23 20/20/20
f 23/23/23 24/24/24 25/25/25
f 24/24/24 26/26/26 25/25/25
f 27/27/27 25/25/25 26/26/26
f 28/28/28 27/27/27 26/26/26
f 29/29/29 22/22/22 23/23/23
f 30/30/30 21/21/21 22/22/22
f 31/31/31 27/27/27 28/28/28
f 34/34/34 33/33/33 32/32/32
f 35/35/35 34/34/34 32/32/32
f 36/36/36 32/32/32 33/33/33
f 32/32/32 36/36/36 37/37/37
f 38/38/38 32/32/32 37/37/37
f 39/39/39 38/38/38 37/37/37
f 40/40/40 39/39/39 37/37/37
f 41/41/41 34/34/34 35/35/35
f 42/42/42 41/41/41 35/35/35
f 42/42/42 43/43/43 41/41/41
f 43/43/43 44/44/44 41/41/41
f 38/38/38 39/39/39 45/45/45
f 46/46/46 38/38/38 45/45/45
f 38/38/38 46/46/46 32/32/32
f 35/35/35 32/32/32 47/47/47
f 46/46/46 47/47/47 32/32/32
f 48/48/48 35/35/35 47/47/47
f 42/42/42 35/35/35 48/48/48
f 49/49/49 43/43/43 42/42/42
f 49/49/49 42/42/42 48/48/48
f 43/43/43 49/49/49 44/44/44
f 50/50/50 48/48/48 47/47/47
f 49/49/49 48/48/48 50/50/50
f 51/51/51 50/50/50 47/47/47
f 52/52/52 51/51/51 47/47/47
f 52/52/52 47/47/47 46/46/46
f 53/53/53 49/49/49 50/50/50
f 49/49/49 53/53/53 44/44/44
f 54/54/54 52/52/52 46/46/46
f 54/54/54 46/46/46 45/45/45
f 55/55/55 54/54/54 45/45/45
f 58/58/58 57/57/57 56/56/56
f 59/59/59 58/58/58 56/56/56
f 56/56/56 60/60/60 59/59/59
f 60/60/60 61/61/61 59/59/59
f 58/58/58 59/59/59 62/62/62
f 65/65/65 64/64/64 63/63/63
f 66/66/66 65/65/65 63/63/63
f 65/65/65 67/67/67 64/64/64
f 67/67/67 68/68/68 64/64/64
f 66/66/66 63/63/63 69/69/69
f 70/70/70 66/66/66 69/69/69
f 73/73/73 72/72/72 71/71/71
f 74/74/74 73/73/73 71/71/71
f 74/74/74 71/71/71 75/75/75
f 71/71/71 76/76/76 75/75/75
f 75/75/75 76/76/76 77/77/77
f 76/76/76 78/78/78 77/77/77
f 81/81/81 80/80/80 79/79/79
f 82/82/82 81/81/81 79/79/79
f 85/85/85 84/84/84 83/83/83
f 86/86/86 85/85/85 83/83/83
f 89/89/89 88/88/88 87/87/87
f 90/90/90 89/89/89 87/87/87
f 93/93/93 92/92/92 91/91/91
f 94/94/94 93/93/93 91/91/91
f 94/94/94 95/95/95 93/93/93
f 95/95/95 96/96/96 93/93/93
f 96/96/96 97/97/97 93/93/93
f 98/98/98 96/96/96 95/95/95
f 91/91/91 92/92/92 99/99/99
f 102/102/102 101/101/101 100/100/100
f 103/103/103 102/102/102 100/100/100
f 104/104/104 103/103/103 100/100/100
f 101/101/101 102/102/102 105/105/105
f 102/102/102 106/106/106 105/105/105
f 109/109/109 108/108/108 107/107/107
f 110/110/110 109/109/109 107/107/107
f 113/113/113 112/112/112 111/111/111
f 114/114/114 113/113/113 111/111/111
f 117/117/117 116/116/116 115/115/115
f 116/116/116 118/118/118 115/115/115
f 118/118/118 119/119/119 115/115/115
f 122/122/122 121/121/121 120/120/120
f 121/121/121 123/123/123 120/120/120
