g reciever_p226_sig_stainless_elite_LOD1
v 0.00805417 -0.1834846 0.001100797
v 1.716016E-05 -0.1834846 0.01725851
v 0.01198218 -0.1834846 0.01212282
v 0.01198218 -0.1834846 0.001100797
v 0.00629053 -0.1834846 0.0163804
v 0.009920631 -0.1834846 0.01439347
v -0.00801985 -0.1834846 0.001100797
v -0.01194786 -0.1834846 0.0122248
v -0.01194786 -0.1834846 0.001100797
v -0.00625621 -0.1834846 0.0163804
v -0.00988631 -0.1834846 0.01439347
v 0.00805417 -0.1554076 -0.01113718
v 0.00805417 -0.1834846 -0.01113718
v 0.00805417 -0.1554076 -0.004503518
v 0.00805417 -0.1554076 0.001933182
v 0.00805417 -0.1834846 0.001100797
v 0.00713777 -0.1554076 -0.01421102
v 0.00713777 -0.1834846 -0.01421102
v 0.00466119 -0.1554076 -0.01655486
v 0.00466119 -0.1834846 -0.01655486
v 1.716016E-05 -0.1554076 -0.0178081
v 1.716016E-05 -0.1834846 -0.0178081
v -0.00462687 -0.1834846 -0.01655486
v -0.00462687 -0.1554076 -0.01655486
v -0.00710345 -0.1834846 -0.01421102
v -0.00710345 -0.1554076 -0.01421102
v -0.00801985 -0.1834846 -0.01113718
v -0.00801985 -0.1554076 -0.01113718
v -0.00801985 -0.1554076 -0.004503518
v -0.00801985 -0.1834846 0.001100797
v -0.00801985 -0.1554076 0.001100802
v 0.01198218 -0.1092376 0.01166852
v 0.01198218 -0.1834846 0.01212282
v 0.009920631 -0.1834846 0.01439347
v 0.009920631 -0.1092376 0.01439348
v 0.00629053 -0.1092376 0.01638041
v 0.00629053 -0.1834846 0.0163804
v 1.716016E-05 -0.1092376 0.01725852
v 1.716016E-05 -0.1834846 0.01725851
v -0.00625621 -0.1834846 0.0163804
v -0.00625621 -0.1092376 0.01638041
v -0.00988631 -0.1834846 0.01439347
v -0.00988631 -0.1092376 0.01439348
v -0.01194786 -0.1834846 0.0122248
v -0.01194786 -0.1092376 0.01222481
v 0.01198218 -0.1631556 -0.001867969
v 0.00771476 -0.1631556 -0.001867969
v 0.00771476 -0.1642663 0.0002642506
v 0.01198218 -0.1642663 0.0002642506
v 0.00771476 -0.1666801 0.0011008
v 0.01198218 -0.1666801 0.0011008
v 0.01198218 -0.1834846 0.001100797
v 0.00805417 -0.1834846 0.001100797
v 0.01198218 -0.1631556 -0.004973179
v 0.00801241 -0.1631556 -0.004973179
v 0.00549336 -0.07724962 0.01655952
v 1.716016E-05 -0.07724962 0.01725852
v 1.716016E-05 -0.007287035 0.01725853
v 0.00548379 -0.007868833 0.01656068
v 0.009920631 -0.07724962 0.01463107
v 0.009920631 -0.009589977 0.01466205
v 0.01137902 -0.07724962 0.01356808
v 0.01137902 -0.01063322 0.01379524
v -0.005459039 -0.07724962 0.01655952
v -0.00544947 -0.007868833 0.01656068
v -0.00988631 -0.07724962 0.01466567
v -0.00988631 -0.009589977 0.01466205
v 0.01198218 -0.01067532 0.01212285
v 0.01198218 -0.07724962 0.01166852
v -0.01134469 -0.01059993 0.01379524
v -0.01134469 -0.07724962 0.01379523
v -0.01194786 -0.01067532 0.01212285
v -0.01194786 -0.07724962 0.01212284
v 0.01198218 -0.005200853 -0.004973154
v 0.01198218 -0.07724956 -0.004973165
v 0.01198218 -0.07724962 0.01166852
v 0.01198218 -0.01067532 0.01212285
v 0.01198218 -0.005200853 -0.004973154
v 0.007199355 -0.001675754 -0.004973153
v 1.716016E-05 0.0001214409 -0.004973153
v -0.01194786 -0.005200853 -0.004973154
v -0.007165039 -0.001675754 -0.004973153
v 0.01198218 -0.07724956 -0.004973165
v -0.01194786 -0.07724956 -0.004973165
v 0.009920631 -0.009589977 0.01466205
v 0.01198218 -0.01067532 0.01212285
v 0.01137902 -0.01063322 0.01379524
v 0.01198218 -0.005200853 -0.004973154
v 0.007199355 -0.001675754 -0.004973153
v 0.00548379 -0.007868833 0.01656068
v 1.716016E-05 -0.007287035 0.01725853
v 1.716016E-05 0.0001214409 -0.004973153
v -0.007165039 -0.001675754 -0.004973153
v -0.00544947 -0.007868833 0.01656068
v -0.00988631 -0.009589977 0.01466205
v -0.01194786 -0.005200853 -0.004973154
v -0.01194786 -0.01067532 0.01212285
v -0.01134469 -0.01059993 0.01379524
v 0.00466119 -0.1554076 -0.01655486
v 0.00713777 -0.1554076 -0.01421102
v 0.00805417 -0.1554076 -0.01113718
v 1.716016E-05 -0.1554076 -0.0178081
v 0.00805417 -0.1554076 -0.004503518
v -0.00801985 -0.1554076 -0.004503518
v -0.00801985 -0.1554076 -0.01113718
v -0.00462687 -0.1554076 -0.01655486
v -0.00710345 -0.1554076 -0.01421102
v -0.01194786 -0.1631556 -0.004973179
v -0.01194786 -0.07724956 -0.004973165
v -0.01194786 -0.07724962 0.004038955
v -0.01194786 -0.1092376 0.00420694
v -0.01194786 -0.1631556 -0.001867969
v -0.01194786 -0.1642663 0.0002642506
v -0.01194786 -0.1092376 0.01222481
v -0.01194786 -0.1666801 0.0011008
v -0.01194786 -0.1834846 0.0122248
v -0.01194786 -0.1834846 0.001100797
v -0.01194786 -0.1631556 -0.001867969
v -0.01194786 -0.1642663 0.0002642506
v -0.007970739 -0.1642663 0.0002642506
v -0.007970739 -0.1631556 -0.001867969
v -0.007970739 -0.1666801 0.0011008
v -0.01194786 -0.1666801 0.0011008
v -0.01194786 -0.1834846 0.001100797
v -0.00801985 -0.1834846 0.001100797
v -0.01194786 -0.1631556 -0.004973179
v -0.007970699 -0.1631556 -0.004973179
v -0.01194786 -0.01067532 0.01212285
v -0.01194786 -0.07724962 0.01212284
v -0.01194786 -0.07724962 0.004038955
v -0.01194786 -0.005200853 -0.004973154
v -0.01194786 -0.07724956 -0.004973165
v 0.01198218 -0.1092376 0.01166852
v 0.008983131 -0.1094848 0.01166852
v 0.008983131 -0.07696059 0.01166852
v 0.01198218 -0.07724962 0.01166852
v -0.01194786 -0.07724962 0.004038955
v 0.008983131 -0.07696059 0.01166852
v 0.008983131 -0.1094848 0.01166852
v -0.01194786 -0.1092376 0.00420694
v -0.01194786 -0.1092376 0.01222481
v -0.01194786 -0.1092376 0.00420694
v 0.01198218 -0.1092376 0.01166852
v 1.716016E-05 -0.1092376 0.01725852
v 0.00629053 -0.1092376 0.01638041
v 0.009920631 -0.1092376 0.01439348
v -0.00625621 -0.1092376 0.01638041
v -0.00988631 -0.1092376 0.01439348
v -0.01194786 -0.07724962 0.01212284
v -0.00988631 -0.07724962 0.01466567
v 1.716016E-05 -0.07724962 0.01725852
v 0.009920631 -0.07724962 0.01463107
v 0.00549336 -0.07724962 0.01655952
v -0.005459039 -0.07724962 0.01655952
v 0.01198218 -0.07724962 0.01166852
v -0.01194786 -0.07724962 0.004038955
v 0.01137902 -0.07724962 0.01356808
v -0.00462687 -0.1834846 -0.01655486
v -0.00710345 -0.1834846 -0.01421102
v -0.00801985 -0.1834846 -0.01113718
v 1.716016E-05 -0.1834846 -0.0178081
v 0.00805417 -0.1834846 -0.01113718
v 0.00466119 -0.1834846 -0.01655486
v 0.00713777 -0.1834846 -0.01421102
v 0.00805417 -0.1834846 0.001100797
v -0.00801985 -0.1834846 0.001100797
v -0.01194786 -0.07724956 -0.004973165
v -0.01194786 -0.1631556 -0.004973179
v -0.007970699 -0.1631556 -0.004973179
v 0.01198218 -0.07724956 -0.004973165
v 0.00801241 -0.1631556 -0.004973179
v 0.01198218 -0.1631556 -0.004973179
v 0.01198218 -0.1092376 0.01166852
v 0.01198218 -0.07724962 0.01166852
v 0.01198218 -0.07724956 -0.004973165
v 0.01198218 -0.1631556 -0.004973179
v 0.01198218 -0.1631556 -0.001867969
v 0.01198218 -0.1642663 0.0002642506
v 0.01198218 -0.1666801 0.0011008
v 0.01198218 -0.1834846 0.01212282
v 0.01198218 -0.1834846 0.001100797
v -0.01194786 -0.07724962 0.01212284
v -0.01134469 -0.07724962 0.01379523
v -0.00988631 -0.07724962 0.01466567
vt 0.918718 0.729652
vt 0.8586108 0.8537886
vt 0.9499337 0.8143477
vt 0.9499337 0.729652
vt 0.905515 0.847051
vt 0.9326578 0.8317931
vt 0.7985367 0.729652
vt 0.7673014 0.8151078
vt 0.7673014 0.729652
vt 0.8117106 0.8470376
vt 0.7845718 0.8317695
vt 0.7639672 0.7912363
vt 0.5511184 0.7913212
vt 0.7639672 0.8424959
vt 0.7639672 0.892242
vt 0.5511184 0.892242
vt 0.7639672 0.7664362
vt 0.5511184 0.7665595
vt 0.7639672 0.7400761
vt 0.5511184 0.7402294
vt 0.7639672 0.7029144
vt 0.5511184 0.7030657
vt 0.5511184 0.6658946
vt 0.7639672 0.6657589
vt 0.5511184 0.6395366
vt 0.7639672 0.639432
vt 0.5511184 0.6147407
vt 0.7639672 0.6146672
vt 0.7639672 0.563422
vt 0.5511184 0.5201951
vt 0.7639672 0.5201274
vt 0.002066165 0.4767997
vt 0.5649664 0.4767997
vt 0.5649623 0.4530652
vt 0.002061486 0.4506889
vt 0.002061486 0.4199391
vt 0.5649623 0.4218193
vt 0.002061486 0.3727378
vt 0.5649623 0.3741318
vt 0.5649623 0.3264614
vt 0.002061486 0.3255113
vt 0.5649623 0.2952667
vt 0.002061486 0.2947123
vt 0.5649618 0.2736566
vt 0.002061993 0.2733794
vt 0.9864973 0.6184753
vt 0.9533191 0.6194875
vt 0.9533191 0.6370054
vt 0.986749 0.63656
vt 0.9533191 0.6557015
vt 0.9867743 0.6558655
vt 0.9841166 0.7814394
vt 0.9533191 0.7812765
vt 0.9847183 0.5945786
vt 0.9533191 0.5948805
vt 0.5332164 0.89623
vt 0.5332164 0.8544103
vt 0.003376361 0.8551061
vt 0.007838384 0.896847
vt 0.5332164 0.9328107
vt 0.02092412 0.9333877
vt 0.5332164 0.9464814
vt 0.02884429 0.9462284
vt 0.5332164 0.8125906
vt 0.007728772 0.8133536
vt 0.5332164 0.7761137
vt 0.02071851 0.7767786
vt 0.02919965 0.9615788
vt 0.5332164 0.9615788
vt 0.02835206 0.763917
vt 0.5332164 0.7632481
vt 0.02890526 0.7497807
vt 0.5332164 0.7497807
vt 0.548144 0.4798787
vt 0.001902593 0.4798787
vt 0.002187465 0.610245
vt 0.5069399 0.610245
vt 0.9223253 0.5173942
vt 0.9397113 0.49341
vt 0.9485927 0.4573521
vt 0.9224045 0.3972136
vt 0.9397576 0.4212797
vt 0.5672794 0.5173926
vt 0.567342 0.3972144
vt 0.9338287 0.7054054
vt 0.9174622 0.7264745
vt 0.9297558 0.7202766
vt 0.7784924 0.7264745
vt 0.7705479 0.6800067
vt 0.9440432 0.6670759
vt 0.9481095 0.6243668
vt 0.7666971 0.6228185
vt 0.7715234 0.5657042
vt 0.9447728 0.5815945
vt 0.9352139 0.5430963
vt 0.7802402 0.5205394
vt 0.9192095 0.5205394
vt 0.9313213 0.5283148
vt 0.8399832 0.9277715
vt 0.8532327 0.9149888
vt 0.8581348 0.8982295
vt 0.8151312 0.9346073
vt 0.8581348 0.8620611
vt 0.7721231 0.8620611
vt 0.7721231 0.8982329
vt 0.7902803 0.9277772
vt 0.7770265 0.9149955
vt 0.653286 0.001964795
vt 0.001976184 0.001957963
vt 0.001944915 0.07157458
vt 0.2444395 0.0728965
vt 0.6532924 0.0259682
vt 0.6617351 0.04245755
vt 0.2445184 0.1352564
vt 0.680137 0.04900048
vt 0.8075535 0.1352564
vt 0.8075535 0.04900048
vt 0.9813684 0.5660972
vt 0.9813638 0.5475135
vt 0.9512188 0.5475417
vt 0.9512187 0.5661095
vt 0.9512188 0.5278228
vt 0.9813488 0.5277692
vt 0.9809654 0.3979421
vt 0.9512187 0.398006
vt 0.9813642 0.5900817
vt 0.9512188 0.5900953
vt 0.04344945 0.7450501
vt 0.5481785 0.7450501
vt 0.5481826 0.6826048
vt 0.001953652 0.6129864
vt 0.5481988 0.612995
vt 0.8110244 0.2549008
vt 0.8305119 0.2549008
vt 0.8305119 0.002132106
vt 0.8110244 0.002132106
vt 0.997255 0.002132106
vt 0.8334159 0.002132106
vt 0.8334159 0.2549008
vt 0.9971656 0.2549008
vt 0.002291168 0.1191568
vt 0.002291168 0.1810587
vt 0.1838951 0.1187849
vt 0.09226461 0.07794885
vt 0.139981 0.08350358
vt 0.1678739 0.09814636
vt 0.04488487 0.08595446
vt 0.01775332 0.1020082
vt 0.5372937 0.9534451
vt 0.5525942 0.9712858
vt 0.6272529 0.9948635
vt 0.702734 0.9741946
vt 0.6688595 0.9902712
vt 0.5858405 0.9886634
vt 0.7187543 0.9534451
vt 0.5372939 0.8910112
vt 0.7107441 0.9638199
vt 0.8951786 0.8540934
vt 0.8754049 0.873052
vt 0.8680893 0.8979124
vt 0.9322451 0.8439583
vt 0.9964017 0.8979177
vt 0.9693148 0.8540944
vt 0.9890873 0.8730519
vt 0.9964017 0.9969155
vt 0.8680894 0.9969156
vt 0.9906496 0.2744871
vt 0.5672944 0.2744947
vt 0.5672938 0.2943967
vt 0.9906204 0.3946726
vt 0.5672938 0.3746767
vt 0.5672944 0.3946501
vt 0.565276 0.2702986
vt 0.8075535 0.2702986
vt 0.8075535 0.1409229
vt 0.156675 0.1404187
vt 0.156687 0.1638516
vt 0.1482366 0.1797496
vt 0.1298446 0.1858809
vt 0.002313662 0.2702986
vt 0.002313662 0.1858809
vt 0.5372937 0.9534451
vt 0.5449439 0.9623654
vt 0.5525942 0.9712858
vn 0 -1 0
vn 0 -1 0
vn 0 -1 0
vn 0 -1 0
vn 0 -1 0
vn 0 -1 0
vn 0 -1 0
vn 0 -1 0
vn 0 -1 0
vn 0 -1 0
vn 0 -1 0
vn 0.9895247 0 -0.1443633
vn 0.9895247 0 -0.1443634
vn 1 0 0
vn 1 0 0
vn 1 0 0
vn 0.8518267 0 -0.5238237
vn 0.8518267 0 -0.5238237
vn 0.4888099 1.478385E-07 -0.8723903
vn 0.4888098 1.478385E-07 -0.8723903
vn 0 1.699934E-07 -1
vn 0 1.699934E-07 -1
vn -0.4888098 1.478385E-07 -0.8723903
vn -0.4888099 1.478385E-07 -0.8723903
vn -0.8518267 0 -0.5238237
vn -0.8518267 0 -0.5238237
vn -0.9895247 0 -0.1443634
vn -0.9895247 0 -0.1443633
vn -1 0 0
vn -1 0 0
vn -1 0 0
vn 0.7712413 0.001947368 0.6365399
vn 0.7712413 0.001947368 0.6365399
vn 0.6371521 0.0009914546 0.7707374
vn 0.6371522 0.0009914547 0.7707374
vn 0.3145077 -1.523107E-07 0.9492549
vn 0.3145077 -1.523107E-07 0.9492549
vn 0 -1.605596E-07 1
vn 0 -1.605596E-07 1
vn -0.3145077 -1.523107E-07 0.9492549
vn -0.3145077 -1.523107E-07 0.9492549
vn -0.6097621 -1.271814E-07 0.7925845
vn -0.6097621 -1.271814E-07 0.7925845
vn -0.7247803 -1.106722E-07 0.6889801
vn -0.7247803 -1.106722E-07 0.6889802
vn 0 -0.9713094 -0.237819
vn 0 -0.9694541 -0.2452729
vn 0 -0.6534186 -0.7569968
vn 0 -0.6534186 -0.7569968
vn 0 -0.1671148 -0.9859374
vn 0 -0.1660407 -0.9861189
vn 0 1.773469E-07 -1
vn 0 1.773469E-07 -1
vn 0 -1 0
vn 0 -1 0
vn 0.2640942 -9.449813E-05 0.9644969
vn 0 4.342655E-07 1
vn 0 4.342655E-07 1
vn 0.2430128 -7.982691E-05 0.970023
vn 0.4757307 -0.0008992848 0.8795905
vn 0.4518256 -0.0006821575 0.8921061
vn 0.7926388 -0.001713295 0.6096892
vn 0.7580715 -0.001707959 0.6521692
vn -0.2625247 2.246152E-05 0.9649252
vn -0.2416827 1.905745E-05 0.9703553
vn -0.4535431 3.366343E-05 0.8912343
vn -0.4357592 3.678682E-05 0.9000633
vn 0.9474211 -0.001637242 0.3199851
vn 0.9474211 -0.001637241 0.319985
vn -0.7338383 1.419023E-05 0.6793242
vn -0.7713266 1.22529E-05 0.6364395
vn -0.9406897 0 0.3392679
vn -0.9406897 0 0.3392679
vn 1 0 0
vn 1 0 0
vn 1 0 0
vn 1 0 0
vn 0 1.635119E-07 -1
vn 0 1.707619E-07 -1
vn 0 1.683488E-07 -1
vn 0 1.635119E-07 -1
vn 0 1.707619E-07 -1
vn 0 1.621857E-07 -1
vn 0 1.621857E-07 -1
vn 0.5285507 0.8088996 0.2575178
vn 0.6095938 0.7583134 0.2309896
vn 0.6497341 0.7288319 0.215985
vn 0.6013843 0.7639523 0.2339098
vn 0.3881808 0.8789937 0.2769218
vn 0.3016429 0.9072361 0.2931455
vn 0 0.9527431 0.303777
vn 0 0.9527431 0.3037769
vn -0.3881809 0.8789937 0.2769219
vn -0.3016428 0.9072361 0.2931455
vn -0.5261747 0.811264 0.2549332
vn -0.6013846 0.7639521 0.2339098
vn -0.6068116 0.7615548 0.2276264
vn -0.6340772 0.7482902 0.1949563
vn 0 1 0
vn 0 1 0
vn 0 1 0
vn 0 1 0
vn 0 1 0
vn 0 1 0
vn 0 1 0
vn 0 1 0
vn 0 1 0
vn -1 0 0
vn -1 0 0
vn -1 0 0
vn -1 0 0
vn -1 0 0
vn -1 0 0
vn -1 0 0
vn -1 0 0
vn -1 0 0
vn -1 0 0
vn 0 -0.9713094 -0.237819
vn 0 -0.6534186 -0.7569968
vn 0 -0.6534186 -0.7569968
vn 0 -0.9713097 -0.237818
vn 0 -0.1661953 -0.9860929
vn 0 -0.1660407 -0.9861189
vn 0 1.773469E-07 -1
vn 0 1.773469E-07 -1
vn 0 -1 0
vn 0 -1 0
vn -1 0 0
vn -1 0 0
vn -1 0 0
vn -1 0 0
vn -1 0 0
vn 0 -2.217427E-07 1
vn 0 -2.217427E-07 1
vn 0 -2.217427E-07 1
vn 0 -2.217427E-07 1
vn -0.3391351 0.002449496 0.9407346
vn -0.3391351 0.002449496 0.9407346
vn -0.3391351 0.002449496 0.9407346
vn -0.3391351 0.002449496 0.9407346
vn -1.026951E-07 1 3.219906E-07
vn 0 1 0
vn 1.757211E-07 1 5.60289E-07
vn 0 1 4.891233E-07
vn 1.354607E-07 1 6.696211E-07
vn 8.173634E-07 1 1.493314E-06
vn -1.533115E-07 1 7.837091E-07
vn -1.254447E-06 1 2.291862E-06
vn 0 -1 -1.28566E-07
vn 0 -1 0
vn 0 -1 -1.727407E-07
vn 0 -1 0
vn 0 -1 -4.371951E-07
vn 0 -1 -4.485793E-07
vn 0 -1 0
vn 0 -1 -2.211981E-07
vn 0 -1 0
vn 0 -1 0
vn 0 -1 0
vn 0 -1 0
vn 0 -1 0
vn 0 -1 0
vn 0 -1 0
vn 0 -1 0
vn 0 -1 0
vn 0 -1 0
vn 0 1.621857E-07 -1
vn 0 1.630513E-07 -1
vn 0 1.630512E-07 -1
vn 0 1.621857E-07 -1
vn 0 1.630513E-07 -1
vn 0 1.630512E-07 -1
vn 1 0 0
vn 1 0 0
vn 1 0 0
vn 1 0 0
vn 1 0 0
vn 1 0 0
vn 1 0 0
vn 1 0 0
vn 1 0 0
vn 0 -1 -1.28566E-07
vn 0 -1 0
vn 0 -1 0
g reciever_p226_sig_stainless_elite_LOD1_0
f 3/3/3 2/2/2 1/1/1
f 4/4/4 3/3/3 1/1/1
f 5/5/5 2/2/2 3/3/3
f 6/6/6 5/5/5 3/3/3
f 7/7/7 1/1/1 2/2/2
f 2/2/2 8/8/8 7/7/7
f 8/8/8 9/9/9 7/7/7
f 2/2/2 10/10/10 8/8/8
f 10/10/10 11/11/11 8/8/8
f 14/14/14 13/13/13 12/12/12
f 13/13/13 14/14/14 15/15/15
f 16/16/16 13/13/13 15/15/15
f 17/17/17 12/12/12 13/13/13
f 18/18/18 17/17/17 13/13/13
f 19/19/19 17/17/17 18/18/18
f 20/20/20 19/19/19 18/18/18
f 21/21/21 19/19/19 20/20/20
f 22/22/22 21/21/21 20/20/20
f 21/21/21 22/22/22 23/23/23
f 24/24/24 21/21/21 23/23/23
f 24/24/24 23/23/23 25/25/25
f 26/26/26 24/24/24 25/25/25
f 26/26/26 25/25/25 27/27/27
f 28/28/28 26/26/26 27/27/27
f 27/27/27 29/29/29 28/28/28
f 27/27/27 30/30/30 29/29/29
f 30/30/30 31/31/31 29/29/29
f 34/34/34 33/33/33 32/32/32
f 35/35/35 34/34/34 32/32/32
f 34/34/34 35/35/35 36/36/36
f 37/37/37 34/34/34 36/36/36
f 37/37/37 36/36/36 38/38/38
f 39/39/39 37/37/37 38/38/38
f 40/40/40 39/39/39 38/38/38
f 41/41/41 40/40/40 38/38/38
f 42/42/42 40/40/40 41/41/41
f 43/43/43 42/42/42 41/41/41
f 44/44/44 42/42/42 43/43/43
f 45/45/45 44/44/44 43/43/43
f 48/48/48 47/47/47 46/46/46
f 49/49/49 48/48/48 46/46/46
f 50/50/50 48/48/48 49/49/49
f 51/51/51 50/50/50 49/49/49
f 50/50/50 51/51/51 52/52/52
f 53/53/53 50/50/50 52/52/52
f 46/46/46 47/47/47 54/54/54
f 47/47/47 55/55/55 54/54/54
f 58/58/58 57/57/57 56/56/56
f 59/59/59 58/58/58 56/56/56
f 59/59/59 56/56/56 60/60/60
f 61/61/61 59/59/59 60/60/60
f 61/61/61 60/60/60 62/62/62
f 63/63/63 61/61/61 62/62/62
f 57/57/57 58/58/58 64/64/64
f 58/58/58 65/65/65 64/64/64
f 64/64/64 65/65/65 66/66/66
f 65/65/65 67/67/67 66/66/66
f 63/63/63 62/62/62 68/68/68
f 62/62/62 69/69/69 68/68/68
f 66/66/66 67/67/67 70/70/70
f 71/71/71 66/66/66 70/70/70
f 71/71/71 70/70/70 72/72/72
f 73/73/73 71/71/71 72/72/72
f 76/76/76 75/75/75 74/74/74
f 77/77/77 76/76/76 74/74/74
f 80/80/80 79/79/79 78/78/78
f 81/81/81 80/80/80 78/78/78
f 81/81/81 82/82/82 80/80/80
f 81/81/81 78/78/78 83/83/83
f 84/84/84 81/81/81 83/83/83
f 87/87/87 86/86/86 85/85/85
f 86/86/86 88/88/88 85/85/85
f 88/88/88 89/89/89 85/85/85
f 85/85/85 89/89/89 90/90/90
f 90/90/90 89/89/89 91/91/91
f 89/89/89 92/92/92 91/91/91
f 92/92/92 93/93/93 91/91/91
f 93/93/93 94/94/94 91/91/91
f 93/93/93 95/95/95 94/94/94
f 93/93/93 96/96/96 95/95/95
f 96/96/96 97/97/97 95/95/95
f 97/97/97 98/98/98 95/95/95
f 101/101/101 100/100/100 99/99/99
f 102/102/102 101/101/101 99/99/99
f 102/102/102 103/103/103 101/101/101
f 104/104/104 103/103/103 102/102/102
f 104/104/104 102/102/102 105/105/105
f 105/105/105 102/102/102 106/106/106
f 107/107/107 105/105/105 106/106/106
f 110/110/110 109/109/109 108/108/108
f 111/111/111 110/110/110 108/108/108
f 108/108/108 112/112/112 111/111/111
f 112/112/112 113/113/113 111/111/111
f 114/114/114 111/111/111 113/113/113
f 114/114/114 113/113/113 115/115/115
f 114/114/114 115/115/115 116/116/116
f 115/115/115 117/117/117 116/116/116
f 120/120/120 119/119/119 118/118/118
f 121/121/121 120/120/120 118/118/118
f 120/120/120 122/122/122 119/119/119
f 122/122/122 123/123/123 119/119/119
f 123/123/123 122/122/122 124/124/124
f 122/122/122 125/125/125 124/124/124
f 121/121/121 118/118/118 126/126/126
f 127/127/127 121/121/121 126/126/126
f 130/130/130 129/129/129 128/128/128
f 130/130/130 128/128/128 131/131/131
f 130/130/130 131/131/131 132/132/132
f 135/135/135 134/134/134 133/133/133
f 136/136/136 135/135/135 133/133/133
f 139/139/139 138/138/138 137/137/137
f 140/140/140 139/139/139 137/137/137
f 143/143/143 142/142/142 141/141/141
f 143/143/143 141/141/141 144/144/144
f 143/143/143 144/144/144 145/145/145
f 143/143/143 145/145/145 146/146/146
f 141/141/141 147/147/147 144/144/144
f 141/141/141 148/148/148 147/147/147
f 151/151/151 150/150/150 149/149/149
f 152/152/152 151/151/151 149/149/149
f 152/152/152 153/153/153 151/151/151
f 151/151/151 154/154/154 150/150/150
f 152/152/152 149/149/149 155/155/155
f 149/149/149 156/156/156 155/155/155
f 157/157/157 152/152/152 155/155/155
f 160/160/160 159/159/159 158/158/158
f 161/161/161 160/160/160 158/158/158
f 160/160/160 161/161/161 162/162/162
f 162/162/162 161/161/161 163/163/163
f 164/164/164 162/162/162 163/163/163
f 160/160/160 162/162/162 165/165/165
f 166/166/166 160/160/160 165/165/165
f 169/169/169 168/168/168 167/167/167
f 167/167/167 170/170/170 169/169/169
f 170/170/170 171/171/171 169/169/169
f 170/170/170 172/172/172 171/171/171
f 175/175/175 174/174/174 173/173/173
f 176/176/176 175/175/175 173/173/173
f 176/176/176 173/173/173 177/177/177
f 173/173/173 178/178/178 177/177/177
f 173/173/173 179/179/179 178/178/178
f 173/173/173 180/180/180 179/179/179
f 180/180/180 181/181/181 179/179/179
f 184/184/184 183/183/183 182/182/182
