g reciever_glock_lone_wolf_alphawolf_custom_pat_5_LOD1
v -0.01249376 0.06197327 0.005919748
v -0.01249376 0.06197327 -0.01200915
v 0.01247762 0.06197327 -0.01200915
v 0.01247762 0.06197327 0.005919748
v -0.00918195 0.06197327 0.009276319
v 0.009385685 0.06197327 0.009276319
v -0.008188813 -0.1208439 -0.01200917
v -0.01249374 -0.1208439 -0.01200917
v -0.01249374 -0.1208439 0.005919726
v -0.009181925 -0.1208439 0.009276296
v 0.008333788 -0.1208439 -0.01200917
v 0.006425763 -0.1208439 -0.01832751
v -0.006174749 -0.1208439 -0.01868195
v 7.24882E-05 -0.1208439 -0.02194967
v 0.009385711 -0.1208439 0.009276296
v 0.01247764 -0.1208439 0.005919727
v 0.01247764 -0.1208439 -0.01200917
v 0.008333787 -0.1174833 -0.01200917
v 0.01247762 0.06197327 -0.01200915
v -0.01249376 0.06197327 -0.01200915
v -0.008188814 -0.1174833 -0.01200917
v -0.01249374 -0.1208439 -0.01200917
v -0.008188813 -0.1208439 -0.01200917
v 0.01247764 -0.1208439 -0.01200917
v 0.008333788 -0.1208439 -0.01200917
v 0.01247762 0.06197327 -0.01200915
v 0.01247764 -0.1208439 -0.01200917
v 0.01247764 -0.1208439 0.005919727
v 0.01247762 0.06197327 0.005919748
v -0.00918195 0.06197327 0.009276319
v 0.009385685 0.06197327 0.009276319
v 0.009339514 -0.01304124 0.00927631
v -0.00918194 -0.01304124 0.00927631
v -0.01249376 0.06197327 -0.01200915
v -0.01249376 0.06197327 0.005919748
v -0.01249375 -0.01304124 0.005919739
v -0.01249375 -0.01304124 -0.001973489
v -0.01249374 -0.1208439 -0.01200917
v -0.01249375 -0.04014155 -0.001973493
v -0.01249375 -0.04014155 0.005919735
v -0.01249374 -0.1208439 0.005919726
v -0.01249376 0.06197327 0.005919748
v -0.00918195 0.06197327 0.009276319
v -0.00918194 -0.01304124 0.00927631
v -0.01249375 -0.01304124 0.005919739
v 0.009385711 -0.1208439 0.009276296
v 0.009339519 -0.04014155 0.009276305
v 0.01247764 -0.1208439 0.005919727
v 0.01247762 0.06197327 0.005919748
v 0.009339514 -0.01304124 0.00927631
v 0.009385685 0.06197327 0.009276319
v 7.24882E-05 -0.1208439 -0.02194967
v 0.006425763 -0.1208439 -0.01832751
v 0.006425762 -0.1174833 -0.01832751
v 7.2487E-05 -0.1174833 -0.02194967
v -0.006174749 -0.1208439 -0.01868195
v -0.006174748 -0.1174833 -0.01868195
v -0.008188813 -0.1208439 -0.01200917
v -0.006174749 -0.1208439 -0.01868195
v -0.006174748 -0.1174833 -0.01868195
v -0.008188814 -0.1174833 -0.01200917
v 0.008333787 -0.1174833 -0.01200917
v -0.008188814 -0.1174833 -0.01200917
v -0.006174748 -0.1174833 -0.01868195
v 0.006425762 -0.1174833 -0.01832751
v 7.2487E-05 -0.1174833 -0.02194967
v 0.008333787 -0.1174833 -0.01200917
v 0.006425762 -0.1174833 -0.01832751
v 0.006425763 -0.1208439 -0.01832751
v 0.008333788 -0.1208439 -0.01200917
v -0.009181925 -0.1208439 0.009276296
v -0.009181936 -0.04014155 0.009276306
v 0.009339519 -0.04014155 0.009276305
v 0.009385711 -0.1208439 0.009276296
v -0.01249374 -0.1208439 0.005919726
v -0.01249375 -0.04014155 0.005919735
v -0.009181936 -0.04014155 0.009276306
v -0.009181925 -0.1208439 0.009276296
v -0.00918194 -0.01304124 0.00927631
v 0.009339514 -0.01304124 0.00927631
v 0.009335169 -0.01304124 -0.001973491
v -0.01249375 -0.01304124 0.005919739
v -0.01249375 -0.01304124 -0.001973489
v -0.01249375 -0.04014155 -0.001973493
v 0.009335173 -0.04014155 -0.001973494
v -0.01249375 -0.04014155 0.005919735
v -0.009181936 -0.04014155 0.009276306
v 0.009339519 -0.04014155 0.009276305
v -0.01249375 -0.01304124 -0.001973489
v 0.009335169 -0.01304124 -0.001973491
v 0.009335173 -0.04014155 -0.001973494
v -0.01249375 -0.04014155 -0.001973493
v 0.009335169 -0.01304124 -0.001973491
v 0.009339514 -0.01304124 0.00927631
v 0.009339519 -0.04014155 0.009276305
v 0.009335173 -0.04014155 -0.001973494
vt 0.9891938 0.9589755
vt 0.9891938 0.8064764
vt 0.8688748 0.8064764
vt 0.8688748 0.9589755
vt 0.9732367 0.9875252
vt 0.8837726 0.9875252
vt 0.9099198 0.6014906
vt 0.8926615 0.6014906
vt 0.8926615 0.7643569
vt 0.9059384 0.7948474
vt 0.9761589 0.6014906
vt 0.9685096 0.5440953
vt 0.9179943 0.540876
vt 0.9430394 0.5111922
vt 0.9803761 0.7948474
vt 0.9927716 0.7643569
vt 0.9927716 0.6014906
vt 0.845431 0.06971997
vt 0.004200876 0.0257054
vt 0.004200876 0.2909443
vt 0.845431 0.2452184
vt 0.861184 0.290944
vt 0.861184 0.2452184
vt 0.861184 0.02570516
vt 0.861184 0.06971997
vt 0.004227683 0.9944979
vt 0.8611572 0.9944979
vt 0.8611572 0.8040742
vt 0.004227683 0.8040743
vt 0.004227683 0.5583959
vt 0.004227683 0.7556038
vt 0.3558475 0.7551925
vt 0.3558476 0.5583962
vt 0.004227683 0.3178901
vt 0.004227683 0.5083139
vt 0.3558476 0.5083139
vt 0.3558476 0.4244794
vt 0.8611572 0.3178903
vt 0.4828764 0.4244794
vt 0.4828764 0.5083139
vt 0.8611572 0.5083139
vt 0.004227683 0.5083139
vt 0.004227683 0.5583959
vt 0.3558476 0.5583962
vt 0.3558476 0.5083139
vt 0.8611572 0.7556038
vt 0.4828763 0.7551925
vt 0.8611572 0.8040742
vt 0.004227683 0.8040743
vt 0.3558475 0.7551925
vt 0.004227683 0.7556038
vt 0.884938 0.6494014
vt 0.884938 0.5808372
vt 0.869185 0.5808372
vt 0.869185 0.6494014
vt 0.884938 0.7154995
vt 0.869185 0.7154995
vt 0.884938 0.7808463
vt 0.884938 0.7154995
vt 0.869185 0.7154995
vt 0.869185 0.7808463
vt 0.9472088 0.436412
vt 0.8697567 0.436412
vt 0.879198 0.4989711
vt 0.9382647 0.495648
vt 0.9084827 0.529607
vt 0.869185 0.5189585
vt 0.869185 0.5808372
vt 0.884938 0.5808372
vt 0.884938 0.5189585
vt 0.8611572 0.5583962
vt 0.4828764 0.5583959
vt 0.4828763 0.7551925
vt 0.8611572 0.7556038
vt 0.8611572 0.5083139
vt 0.4828764 0.5083139
vt 0.4828764 0.5583959
vt 0.8611572 0.5583962
vt 0.9782271 0.009152023
vt 0.8809865 0.009066878
vt 0.8809865 0.1428981
vt 0.9956081 0.04909815
vt 0.9955918 0.1429986
vt 0.9903671 0.163338
vt 0.8696218 0.163338
vt 0.9903671 0.2622687
vt 0.9720479 0.304338
vt 0.8695979 0.304338
vt 0.4686567 0.4466946
vt 0.3663304 0.4466946
vt 0.3663304 0.7345458
vt 0.4686568 0.7345458
vt 0.992299 0.4211407
vt 0.992299 0.3209439
vt 0.871614 0.3209439
vt 0.871614 0.4211407
vn 0 1 0
vn 0 1 0
vn 0 1 0
vn 0 1 0
vn 0 1 0
vn 0 1 0
vn 0 -1 0
vn 0 -1 0
vn 0 -1 0
vn 0 -1 0
vn 0 -1 0
vn 0 -1 0
vn 0 -1 0
vn 0 -1 0
vn 0 -1 0
vn 0 -1 0
vn 0 -1 0
vn 0 1.606676E-07 -1
vn 0 1.129928E-07 -1
vn 0 1.129953E-07 -1
vn 0 1.616026E-07 -1
vn 1.071046E-07 2.175293E-07 -1
vn 0 3.547327E-07 -1
vn -1.089912E-07 2.203365E-07 -1
vn 0 3.547328E-07 -1
vn 1 1.43455E-07 0
vn 1 1.43455E-07 0
vn 1 1.43455E-07 0
vn 1 1.43455E-07 0
vn 0 -1.27132E-07 1
vn 0 -1.27132E-07 1
vn 0 -1.27132E-07 1
vn 0 -1.27132E-07 1
vn -1 -1.530341E-07 0
vn -1 -1.540573E-07 0
vn -1 -1.540573E-07 0
vn -1 -1.463413E-07 0
vn -1 -1.336544E-07 0
vn -1 -1.387252E-07 0
vn -1 -1.329433E-07 0
vn -1 -1.329433E-07 0
vn -0.7118366 -1.911507E-07 0.7023451
vn -0.7118366 -1.911507E-07 0.7023451
vn -0.7118366 -1.911507E-07 0.7023451
vn -0.7118366 -1.911507E-07 0.7023451
vn 0.7355062 0.0004209035 0.6775178
vn 0.7355062 0.0004209035 0.6775179
vn 0.7355062 0.0004209035 0.6775179
vn 0.7304781 0 0.6829362
vn 0.7304781 0 0.6829362
vn 0.7355064 -0.0004527858 0.6775176
vn 0.01811536 0 -0.9998358
vn 0.4952849 1.818947E-07 -0.8687306
vn 0.4952849 1.818947E-07 -0.8687306
vn 0.01811517 0 -0.9998358
vn -0.4634905 0 -0.8861019
vn -0.4634905 0 -0.8861019
vn -0.957342 0 -0.2889571
vn -0.957342 0 -0.2889572
vn -0.957342 0 -0.2889572
vn -0.957342 0 -0.2889571
vn 0 1 0
vn 0 1 0
vn 0 1 0
vn 0 1 0
vn 0 1 0
vn 0.9573026 3.98897E-07 -0.289088
vn 0.9573026 3.988969E-07 -0.2890879
vn 0.9573026 3.98897E-07 -0.289088
vn 0.9573026 3.98897E-07 -0.2890879
vn 0 -1.255484E-07 1
vn 0 -1.255484E-07 1
vn 0 -1.255484E-07 1
vn 0 -1.255484E-07 1
vn -0.7118368 -1.850207E-07 0.702345
vn -0.7118368 -1.850207E-07 0.702345
vn -0.7118368 -1.850207E-07 0.702345
vn -0.7118368 -1.850207E-07 0.702345
vn 2.574512E-07 -1 0
vn 2.574512E-07 -1 0
vn 2.574512E-07 -1 0
vn 0 -1 -6.041092E-07
vn 0 -1 -6.041092E-07
vn 0 1 0
vn 0 1 0
vn 0 1 0
vn 0 1 0
vn 0 1 0
vn 0 -1.319645E-07 1
vn 0 -1.319645E-07 1
vn 0 -1.319645E-07 1
vn 0 -1.319645E-07 1
vn -1 -1.760131E-07 0.000386245
vn -1 -1.760131E-07 0.000386245
vn -1 -1.760131E-07 0.000386245
vn -1 -1.760131E-07 0.000386245
g reciever_glock_lone_wolf_alphawolf_custom_pat_5_LOD1_0
f 3/3/3 2/2/2 1/1/1
f 4/4/4 3/3/3 1/1/1
f 4/4/4 1/1/1 5/5/5
f 6/6/6 4/4/4 5/5/5
f 9/9/9 8/8/8 7/7/7
f 10/10/10 9/9/9 7/7/7
f 10/10/10 7/7/7 11/11/11
f 12/12/12 11/11/11 7/7/7
f 13/13/13 12/12/12 7/7/7
f 14/14/14 12/12/12 13/13/13
f 15/15/15 10/10/10 11/11/11
f 16/16/16 15/15/15 11/11/11
f 17/17/17 16/16/16 11/11/11
f 20/20/20 19/19/19 18/18/18
f 21/21/21 20/20/20 18/18/18
f 22/22/22 20/20/20 21/21/21
f 22/22/22 21/21/21 23/23/23
f 24/24/24 18/18/18 19/19/19
f 24/24/24 25/25/25 18/18/18
f 28/28/28 27/27/27 26/26/26
f 29/29/29 28/28/28 26/26/26
f 32/32/32 31/31/31 30/30/30
f 33/33/33 32/32/32 30/30/30
f 36/36/36 35/35/35 34/34/34
f 37/37/37 36/36/36 34/34/34
f 37/37/37 34/34/34 38/38/38
f 39/39/39 37/37/37 38/38/38
f 40/40/40 39/39/39 38/38/38
f 41/41/41 40/40/40 38/38/38
f 44/44/44 43/43/43 42/42/42
f 45/45/45 44/44/44 42/42/42
f 48/48/48 47/47/47 46/46/46
f 47/47/47 48/48/48 49/49/49
f 50/50/50 47/47/47 49/49/49
f 51/51/51 50/50/50 49/49/49
f 54/54/54 53/53/53 52/52/52
f 55/55/55 54/54/54 52/52/52
f 55/55/55 52/52/52 56/56/56
f 57/57/57 55/55/55 56/56/56
f 60/60/60 59/59/59 58/58/58
f 61/61/61 60/60/60 58/58/58
f 64/64/64 63/63/63 62/62/62
f 65/65/65 64/64/64 62/62/62
f 66/66/66 64/64/64 65/65/65
f 69/69/69 68/68/68 67/67/67
f 70/70/70 69/69/69 67/67/67
f 73/73/73 72/72/72 71/71/71
f 74/74/74 73/73/73 71/71/71
f 77/77/77 76/76/76 75/75/75
f 78/78/78 77/77/77 75/75/75
f 81/81/81 80/80/80 79/79/79
f 82/82/82 81/81/81 79/79/79
f 83/83/83 81/81/81 82/82/82
f 86/86/86 85/85/85 84/84/84
f 87/87/87 85/85/85 86/86/86
f 88/88/88 85/85/85 87/87/87
f 91/91/91 90/90/90 89/89/89
f 92/92/92 91/91/91 89/89/89
f 95/95/95 94/94/94 93/93/93
f 96/96/96 95/95/95 93/93/93
