g reciever_svd_izhmash_svd_s_cut_off_LOD1
v -0.008468722 0.2858199 -0.00151782
v -0.006718323 0.2775779 0.00064888
v -0.01277712 0.2930029 -0.006660919
v -0.01825242 0.2957349 -0.01382182
v -0.01921564 0.1911629 -0.01382182
v -0.006136237 0.1855729 0.00137918
v 0.01921608 0.2957579 -0.01389442
v 0.008072706 0.2775709 0.00064888
v 0.0135554 0.2929649 -0.006660919
v 0.009743207 0.2858049 -0.00151782
v 0.01921606 0.19119 -0.01389442
v 0.007501721 0.1855729 0.00137918
v 0.009273847 0.279819 -0.03239492
v -0.009567424 0.279819 -0.03239492
v 0.009273846 0.2776599 -0.04666131
v -0.009567424 0.2776599 -0.04666131
v 0.01921608 0.2957579 -0.01389442
v 0.0135554 0.2929649 -0.006660919
v -0.01825242 0.2957349 -0.01382182
v -0.01277712 0.2930029 -0.006660919
v -0.008468722 0.2858199 -0.00151782
v 0.009743207 0.2858049 -0.00151782
v -0.006718323 0.2775779 0.00064888
v 0.008072706 0.2775709 0.00064888
v -0.009567425 0.2706029 -0.03239492
v -0.009567424 0.2737759 -0.04666131
v -0.009567424 0.279819 -0.03239492
v -0.009567424 0.2776599 -0.04666131
v -0.009567424 0.2737759 -0.04666131
v 0.009273846 0.2737759 -0.04666131
v -0.009567424 0.2776599 -0.04666131
v 0.009273846 0.2776599 -0.04666131
v 0.009273847 0.279819 -0.03239492
v 0.009273846 0.2776599 -0.04666131
v 0.009273845 0.2706029 -0.03239492
v 0.009273846 0.2737759 -0.04666131
v 0.009273845 0.2706029 -0.03239492
v 0.009273846 0.2737759 -0.04666131
v -0.009567425 0.2706029 -0.03239492
v -0.009567424 0.2737759 -0.04666131
v 0.01928638 0.3013829 -0.03239492
v 0.01930726 0.1934739 -0.03239492
v 0.01921608 0.2957579 -0.01389442
v 0.01924826 0.1934779 -0.02011552
v 0.01921606 0.19119 -0.01389442
v -0.01896194 0.1934779 -0.02011552
v -0.01953884 0.1934739 -0.03239492
v -0.01910212 0.3013829 -0.03239492
v -0.01825242 0.2957349 -0.01382182
v -0.01921564 0.1911629 -0.01382182
v -0.01910212 0.3013829 -0.03239492
v 0.01928638 0.3013829 -0.03239492
v -0.01825242 0.2957349 -0.01382182
v 0.01921608 0.2957579 -0.01389442
v 0.01921606 0.19119 -0.01389442
v -0.01921564 0.1911629 -0.01382182
v 0.007501721 0.1855729 0.00137918
v -0.006136237 0.1855729 0.00137918
v -0.01896194 0.1934779 -0.02011552
v 0.01924826 0.1934779 -0.02011552
v 0.01930726 0.1934739 -0.03239492
v -0.01953884 0.1934739 -0.03239492
v -0.006718323 0.2775779 0.00064888
v 0.008072706 0.2775709 0.00064888
v -0.006136237 0.1855729 0.00137918
v 0.007501721 0.1855729 0.00137918
v -0.01953884 0.1934739 -0.03239492
v 0.01930726 0.1934739 -0.03239492
v -0.01910212 0.3013829 -0.03239492
v 0.01928638 0.3013829 -0.03239492
v -0.006293535 0.193736 -0.01168212
v -0.0001244563 0.193736 -0.00551312
v -0.006293563 0.01769794 -0.01168212
v -0.0001244825 0.01769794 -0.00551312
v -0.0001244825 0.01769794 -0.01785122
v -0.0001244563 0.193736 -0.01785122
v 0.00604459 0.01769794 -0.01168212
v 0.006044616 0.193736 -0.01168212
v 0.006044616 0.193736 -0.01168212
v 0.00604459 0.01769794 -0.01168212
v 0.00604459 0.01769794 -0.01168212
v -0.0001244825 0.01769794 -0.01785122
v -0.0001244825 0.01769794 -0.00551312
v -0.006293563 0.01769794 -0.01168212
vt 0.352155 0.910706
vt 0.370796 0.87755
vt 0.307109 0.939512
vt 0.249088 0.95035
vt 0.249088 0.517916
vt 0.370796 0.517916
vt 0.56272 0.517916
vt 0.678823 0.592791
vt 0.619356 0.52941
vt 0.658828 0.558892
vt 0.56272 0.96
vt 0.678823 0.96
vt 0.861418 0.786743
vt 0.861418 0.933461
vt 0.908637 0.786743
vt 0.908637 0.933461
vt 0.712069 0.801678
vt 0.712069 0.842647
vt 0.824148 0.801678
vt 0.824148 0.842293
vt 0.824148 0.889068
vt 0.712069 0.889269
vt 0.824148 0.934176
vt 0.712069 0.934308
vt 0.891906 0.506408
vt 0.891906 0.428307
vt 0.861418 0.506408
vt 0.861418 0.428307
vt 0.934111 0.183944
vt 0.934111 0.04
vt 0.921157 0.183944
vt 0.921157 0.04
vt 0.837349 0.375582
vt 0.837349 0.308828
vt 0.801678 0.375582
vt 0.801678 0.308828
vt 0.829078 0.505953
vt 0.829078 0.458176
vt 0.682199 0.505953
vt 0.682199 0.458176
vt 0.646743 0.476635
vt 0.646743 0.04
vt 0.532851 0.476635
vt 0.571149 0.04
vt 0.532851 0.04
vt 0.452133 0.954633
vt 0.527854 0.954633
vt 0.527854 0.517916
vt 0.413372 0.517916
vt 0.413472 0.954633
vt 0.881638 0.27421
vt 0.881638 0.04
vt 0.801678 0.27421
vt 0.801678 0.04
vt 0.807347 0.756995
vt 0.807931 0.56272
vt 0.889529 0.697804
vt 0.889529 0.629013
vt 0.774104 0.56272
vt 0.773911 0.756995
vt 0.712069 0.756995
vt 0.712069 0.56272
vt 0.77088 0.04
vt 0.682199 0.04
vt 0.77088 0.415815
vt 0.682199 0.415812
vt 0.488077 0.04
vt 0.249088 0.04
vt 0.488077 0.484348
vt 0.249088 0.484348
vt 0.128084 0.928661
vt 0.172126 0.928661
vt 0.128084 0.04
vt 0.172126 0.04
vt 0.0840419 0.04
vt 0.0840419 0.928661
vt 0.04 0.04
vt 0.04 0.928661
vt 0.216168 0.928661
vt 0.216168 0.04
vt 0.920394 0.308828
vt 0.876353 0.308828
vt 0.920394 0.35287
vt 0.876353 0.35287
vn -0.7600206 0.009421145 0.6498307
vn -0.7766086 0.003620617 0.6299729
vn -0.7966273 -0.02673365 0.6038793
vn -0.7860478 -0.006696223 0.6181295
vn -0.7602547 0.001164452 0.649624
vn -0.7579544 0.000382431 0.6523075
vn 0.7903355 0.005659174 0.6126482
vn 0.7942074 0.0005609072 0.6076466
vn 0.7866017 0.01298058 0.6173243
vn 0.8099481 -0.01001115 0.5864162
vn 0.7935385 -8.344356E-05 0.60852
vn 0.7935082 -9.402585E-05 0.6085596
vn 0 0.9887415 -0.1496338
vn 0 0.9887415 -0.1496338
vn 0 0.9887415 -0.1496338
vn 0 0.9887415 -0.1496338
vn 0.0001263416 0.9328427 0.3602842
vn 0.0003904359 0.8438209 0.5366249
vn 0.001042056 0.9342022 0.3567425
vn 0.001223599 0.8480316 0.5299441
vn 0.0005548302 0.4575993 0.8891584
vn 0.0003512869 0.4555683 0.8902007
vn 0.0001855198 0.2543329 0.9671167
vn 0.0001194391 0.2544565 0.9670842
vn -1 1.293503E-07 0
vn -1 0 0
vn -1 1.065439E-07 0
vn -1 0 0
vn 0 0 -1
vn 0 0 -1
vn 0 0 -1
vn 0 0 -1
vn 1 -1.940254E-07 0
vn 1 0 0
vn 1 -1.595077E-07 0
vn 1 0 0
vn 0 -0.9761482 -0.2171051
vn 0 -0.9761482 -0.2171051
vn 0 -0.9761482 -0.2171051
vn 0 -0.9761482 -0.2171051
vn 0.9999926 0.0001935345 0.003858783
vn 0.999989 4.192555E-05 0.004696968
vn 0.9999921 0.0001763907 0.003961585
vn 0.9999875 1.039577E-05 0.005002595
vn 0.9999866 -1.482003E-07 0.005175943
vn -0.9999744 0.006798585 0.002271768
vn -0.9988901 0.004042607 0.04692776
vn -0.9988901 0.004042581 0.04692753
vn -0.9990152 0.004213252 0.04416859
vn -0.9992767 0.009204391 -0.03689559
vn 0 0.9567416 0.2909392
vn -1.582678E-05 0.9567505 0.2909099
vn -6.707E-06 0.9567453 0.2909268
vn -2.275735E-05 0.9567544 0.2908971
vn 3.343531E-06 -0.9385403 -0.3451698
vn 6.400187E-06 -0.9385325 -0.3451908
vn 5.681048E-06 -0.9385462 -0.3451536
vn 0 -0.9385495 -0.3451447
vn 3.363069E-06 -0.9846286 -0.1746612
vn 0 -0.9846395 -0.1745994
vn 0 -1 0.0003292978
vn 0 -1 0.0003292978
vn 3.725723E-06 0.007937386 0.9999685
vn 3.375717E-06 0.00793744 0.9999685
vn 3.769353E-07 0.007937903 0.9999685
vn 0 0.00793796 0.9999685
vn 0 0 -1
vn 0 0 -1
vn 0 0 -1
vn 0 0 -1
vn -1 1.52472E-07 4.016352E-06
vn 6.439526E-07 0 1
vn -1 1.524721E-07 3.756423E-06
vn 0 0 1
vn 2.146525E-07 0 -1
vn 2.817315E-07 0 -1
vn 1 -1.489794E-07 4.078398E-06
vn 1 -1.489794E-07 3.8235E-06
vn 1 -1.489794E-07 3.8235E-06
vn 1 -1.489794E-07 4.078398E-06
vn 0 -1 0
vn 0 -1 0
vn 0 -1 0
vn 0 -1 0
g reciever_svd_izhmash_svd_s_cut_off_LOD1_0
f 3/3/3 2/2/2 1/1/1
f 3/3/3 4/4/4 2/2/2
f 5/5/5 2/2/2 4/4/4
f 2/2/2 5/5/5 6/6/6
f 9/9/9 8/8/8 7/7/7
f 8/8/8 9/9/9 10/10/10
f 8/8/8 11/11/11 7/7/7
f 11/11/11 8/8/8 12/12/12
f 15/15/15 14/14/14 13/13/13
f 14/14/14 15/15/15 16/16/16
f 19/19/19 18/18/18 17/17/17
f 18/18/18 19/19/19 20/20/20
f 21/21/21 18/18/18 20/20/20
f 18/18/18 21/21/21 22/22/22
f 23/23/23 22/22/22 21/21/21
f 22/22/22 23/23/23 24/24/24
f 27/27/27 26/26/26 25/25/25
f 26/26/26 27/27/27 28/28/28
f 31/31/31 30/30/30 29/29/29
f 30/30/30 31/31/31 32/32/32
f 35/35/35 34/34/34 33/33/33
f 34/34/34 35/35/35 36/36/36
f 39/39/39 38/38/38 37/37/37
f 38/38/38 39/39/39 40/40/40
f 43/43/43 42/42/42 41/41/41
f 42/42/42 43/43/43 44/44/44
f 45/45/45 44/44/44 43/43/43
f 48/48/48 47/47/47 46/46/46
f 48/48/48 46/46/46 49/49/49
f 50/50/50 49/49/49 46/46/46
f 53/53/53 52/52/52 51/51/51
f 52/52/52 53/53/53 54/54/54
f 57/57/57 56/56/56 55/55/55
f 56/56/56 57/57/57 58/58/58
f 59/59/59 55/55/55 56/56/56
f 55/55/55 59/59/59 60/60/60
f 59/59/59 61/61/61 60/60/60
f 61/61/61 59/59/59 62/62/62
f 65/65/65 64/64/64 63/63/63
f 64/64/64 65/65/65 66/66/66
f 69/69/69 68/68/68 67/67/67
f 68/68/68 69/69/69 70/70/70
f 73/73/73 72/72/72 71/71/71
f 72/72/72 73/73/73 74/74/74
f 71/71/71 75/75/75 73/73/73
f 75/75/75 71/71/71 76/76/76
f 76/76/76 77/77/77 75/75/75
f 77/77/77 76/76/76 78/78/78
f 74/74/74 79/79/79 72/72/72
f 79/79/79 74/74/74 80/80/80
f 83/83/83 82/82/82 81/81/81
f 82/82/82 83/83/83 84/84/84
