g reciever_pp-19-01_izhmash_vityaz_std_LOD1
v 0.005689 -7.50351E-05 -0.00470689
v 0.005689 0.006357975 -0.002202091
v 0.005689 0.04875198 -0.004696691
v 0.005689 0.002425976 0.003704309
v 0.005689 -0.002753019 0.00389411
v 0.005689 -0.003961029 -0.001331787
v 0.00352458 0.004221973 0.0008617115
v 0.005689 0.006357975 -0.002202091
v 0.005689 0.002425976 0.003704309
v -4.034729E-05 0.00438797 0.0008043075
v -0.0056797 0.002425976 0.003704309
v -0.00360528 0.004221973 0.0008617115
v -0.0056797 0.006367979 -0.00222619
v -0.0056797 -0.002753019 0.00389411
v 0.005689 -0.002753019 0.00389411
v -0.0056797 -0.003961029 -0.001331787
v 0.005689 -0.003961029 -0.001331787
v -0.0056797 -7.50351E-05 -0.00470689
v 0.005689 -7.50351E-05 -0.00470689
v 0.005689 0.04875198 -0.004696691
v 0.00364871 0.04844198 7.691145E-05
v 0.00239927 0.05066498 -0.003550191
v -4.034729E-05 0.04941698 4.751205E-05
v -4.034729E-05 0.05137197 -0.003230889
v -0.00245423 0.05066498 -0.003550191
v -0.00372941 0.04844198 7.691145E-05
v -0.0056797 0.04875198 -0.004696691
v -0.00844769 -0.0008480262 -0.00618979
v -0.006083259 0.170142 -0.004935689
v 0.000129849 0.002260981 -0.00302679
v -0.0100446 0.172631 -0.00897399
v -0.000502202 0.16812 -0.003273089
v 0.00526613 0.169548 -0.004512989
v 0.00919777 -0.001618032 -0.006961589
v 0.00967933 0.172621 -0.008499288
v 0.0114788 0.177153 -0.01476739
v 0.011917 -0.009588022 -0.01500669
v 0.016238 0.180046 -0.01819389
v 0.0169625 -0.01226902 -0.01847869
v 0.0185203 0.184481 -0.02286229
v 0.0185319 -0.01194802 -0.02552819
v 0.018502 0.0002619743 -0.02702539
v 0.018199 0.0009809685 -0.03536778
v -0.0111696 0.05099197 -0.01489899
v -0.0115013 0.177121 -0.01466029
v -0.016739 0.180177 -0.01852179
v -0.0196663 0.116014 -0.02169709
v -0.0184936 0.186009 -0.02355869
v -0.0199167 0.07047598 -0.02186179
v 0.0178212 0.194744 -0.03706005
v -0.0113296 0.01792198 -0.01469499
v -0.011687 -0.009300021 -0.01470469
v -0.0180005 0.007430963 -0.01965299
v -0.0175725 -0.01228802 -0.01910239
v -0.018614 -0.01213703 -0.02594869
v -0.0187948 -0.001304016 -0.02976567
v 0.0156839 0.186797 -0.02139179
v 0.0185203 0.184481 -0.02286229
v 0.016238 0.180046 -0.01819389
v 0.0114788 0.177153 -0.01476739
v 0.00843263 0.180983 -0.01461589
v 0.00967933 0.172621 -0.008499288
v 0.006346699 0.1751029 -0.007219491
v 0.00526613 0.169548 -0.004512989
v -0.00118119 0.173383 -0.00589999
v -0.000502202 0.16812 -0.003273089
v -0.006083259 0.170142 -0.004935689
v -0.00804624 0.1751029 -0.008176188
v -0.0100446 0.172631 -0.00897399
v -0.0115013 0.177121 -0.01466029
v -0.00892012 0.181433 -0.01521839
v -0.016739 0.180177 -0.01852179
v -0.0144049 0.185974 -0.02024609
v -0.0184936 0.186009 -0.02355869
v -0.0176987 0.194599 -0.03194059
v -0.0184282 0.194744 -0.03706005
v -0.0180005 0.007430963 -0.01965299
v -0.0105307 0.01614797 -0.01614299
v -0.0113296 0.01792198 -0.01469499
v -0.0119999 0.005348978 -0.02904742
v -0.0187948 -0.001304016 -0.02976567
v -0.0196663 0.116014 -0.02169709
v -0.0199167 0.07047598 -0.02186179
v -0.020155 0.101825 -0.02550969
v -0.0196419 0.07137898 -0.02552969
v -0.0201731 0.118402 -0.02884109
v -0.019936 0.129689 -0.03706264
v -0.020195 0.119988 -0.03246355
v -0.020236 0.12399 -0.03706169
v -0.00118119 0.173383 -0.00589999
v -0.00892012 0.181433 -0.01521839
v 0.006346699 0.1751029 -0.007219491
v 0.00843263 0.180983 -0.01461589
v -0.00804624 0.1751029 -0.008176188
v -0.005279 0.1832789 -0.01701669
v 0.005173 0.1832789 -0.01701669
v 0.005181 0.191339 -0.02610269
v 0.0156839 0.186797 -0.02139179
v -0.005288 0.191339 -0.02610269
v -0.0144049 0.185974 -0.02024609
v 0.0179182 0.194599 -0.03194059
v -0.0176987 0.194599 -0.03194059
v -0.0196419 0.07137898 -0.02552969
v -0.0199167 0.07047598 -0.02186179
v -0.0119162 0.05687696 -0.02322709
v -0.0111696 0.05099197 -0.01489899
v -0.009214229 0.05054796 -0.01564309
v -0.019936 0.129689 -0.03706264
v -0.0184936 0.186009 -0.02355869
v -0.0196663 0.116014 -0.02169709
v -0.0184282 0.194744 -0.03706005
v -0.0111696 0.05099197 -0.01489899
v -0.0105307 0.01614797 -0.01614299
v -0.009214229 0.05054796 -0.01564309
v -0.0113296 0.01792198 -0.01469499
v 0.0179182 0.194599 -0.03194059
v 0.0178212 0.194744 -0.03706005
v 0.0178212 0.194744 -0.03706005
v 0.0179182 0.194599 -0.03194059
v -0.0184282 0.194744 -0.03706005
v -0.0176987 0.194599 -0.03194059
v -0.0056797 -0.002753019 0.00389411
v -0.0056797 -7.50351E-05 -0.00470689
v -0.0056797 0.002425976 0.003704309
v -0.0056797 -0.003961029 -0.001331787
v -0.0056797 0.006367979 -0.00222619
v -0.0056797 0.04875198 -0.004696691
v -0.0113366 -0.009314022 -0.01512699
v -0.00798947 -0.0008370304 -0.006476393
v -0.0107406 0.01683397 -0.01442359
v -0.010607 0.05127098 -0.01477919
v -0.0007428959 0.171404 -0.006037591
v 0.000175138 0.002275972 -0.00356749
v 0.00872142 -0.001587019 -0.00723259
v 0.0115884 -0.009569025 -0.01545509
v 0.0164726 -0.01223502 -0.01871619
v 0.0179509 -0.01188903 -0.02538419
v 0.0179413 0.0003349781 -0.02680119
v 0.0176297 0.001033974 -0.035074
v 0.0170601 0.1945599 -0.03646226
v -0.0115984 0.05776098 -0.02217139
v -0.0187851 0.07172096 -0.02457439
v -0.0194276 0.101867 -0.02499899
v -0.0196075 0.118438 -0.02872769
v -0.0196711 0.123995 -0.03692534
v -0.0196575 0.119913 -0.03251922
v -0.0178663 0.194287 -0.03662855
v 0.005238099 0.190974 -0.02654829
v 0.0170601 0.1945599 -0.03646226
v -0.0178663 0.194287 -0.03662855
v 0.00553283 0.182734 -0.01735759
v -0.00539445 0.190971 -0.02654419
v -0.00557361 0.182799 -0.01738219
v -0.0007428959 0.171404 -0.006037591
v -0.0120004 0.004683971 -0.02798709
v -0.017859 -0.001603022 -0.02857789
v -0.0178487 -0.01180503 -0.02558349
v -0.0171742 -0.01208103 -0.01957479
v -4.034729E-05 0.04941698 4.751205E-05
v 0.00364871 0.04844198 7.691145E-05
v -4.034729E-05 0.00438797 0.0008043075
v 0.00352458 0.004221973 0.0008617115
v -0.00372941 0.04844198 7.691145E-05
v -0.00360528 0.004221973 0.0008617115
v -0.0056797 0.04875198 -0.004696691
v -0.00372941 0.04844198 7.691145E-05
v -0.0056797 0.006367979 -0.00222619
v -0.00360528 0.004221973 0.0008617115
v 0.005689 0.04875198 -0.004696691
v 0.005689 0.006357975 -0.002202091
v 0.00364871 0.04844198 7.691145E-05
v 0.00352458 0.004221973 0.0008617115
vt 0.369773 0.716544
vt 0.405089 0.692919
vt 0.637162 0.716544
vt 0.383749 0.638215
vt 0.355396 0.638215
vt 0.348604 0.684472
vt 0.0506239 0.392008
vt 0.0609021 0.420752
vt 0.0609021 0.365074
vt 0.0336995 0.392008
vt 0.00692373 0.365074
vt 0.0167754 0.392008
vt 0.00692373 0.420952
vt 0.00692373 0.324412
vt 0.0609021 0.324412
vt 0.00692373 0.282324
vt 0.0609021 0.282323
vt 0.00692373 0.241937
vt 0.0609021 0.241937
vt 0.540777 0.723325
vt 0.504279 0.768598
vt 0.48806 0.723325
vt 0.454122 0.768598
vt 0.454097 0.723325
vt 0.420461 0.723325
vt 0.403975 0.768598
vt 0.36845 0.723325
vt 0.0706439 0.408304
vt 0.87298 0.396422
vt 0.0857484 0.335784
vt 0.884517 0.441531
vt 0.863612 0.349995
vt 0.870438 0.303158
vt 0.0682171 0.256969
vt 0.884951 0.25603
vt 0.906336 0.204473
vt 0.0315195 0.188904
vt 0.920011 0.158001
vt 0.0204536 0.14004
vt 0.940913 0.116975
vt 0.0204536 0.0826461
vt 0.0805452 0.0715527
vt 0.0805452 0.00491848
vt 0.289801 0.483517
vt 0.905554 0.488391
vt 0.919861 0.540205
vt 0.618536 0.572114
vt 0.947448 0.582605
vt 0.381666 0.572522
vt 0.989648 0.00491848
vt 0.158899 0.482079
vt 0.0267306 0.468314
vt 0.103057 0.539251
vt 0.0132328 0.534902
vt 0.0132328 0.597221
vt 0.0665779 0.62323
vt 0.187809 0.585144
vt 0.159044 0.532817
vt 0.137777 0.588608
vt 0.118335 0.633892
vt 0.134477 0.67334
vt 0.0738688 0.654935
vt 0.0802538 0.694781
vt 0.0443717 0.701722
vt 0.0666735 0.765698
vt 0.0328628 0.757998
vt 0.0474581 0.813418
vt 0.0818681 0.831884
vt 0.0728325 0.859057
vt 0.115074 0.879116
vt 0.136828 0.84534
vt 0.143954 0.929773
vt 0.176653 0.90067
vt 0.191708 0.943284
vt 0.260779 0.921169
vt 0.29019 0.943284
vt 0.103057 0.539251
vt 0.15424 0.499613
vt 0.158899 0.482079
vt 0.115545 0.62323
vt 0.0665779 0.62323
vt 0.618536 0.572114
vt 0.381666 0.572522
vt 0.551985 0.602315
vt 0.384268 0.602315
vt 0.629716 0.628948
vt 0.683087 0.691663
vt 0.637211 0.657612
vt 0.656148 0.691663
vt 0.0666735 0.765698
vt 0.136828 0.84534
vt 0.0802538 0.694781
vt 0.134477 0.67334
vt 0.0818681 0.831884
vt 0.152477 0.809302
vt 0.152477 0.709264
vt 0.222324 0.709264
vt 0.187809 0.585144
vt 0.222324 0.809302
vt 0.176653 0.90067
vt 0.262857 0.582035
vt 0.260779 0.921169
vt 0.384268 0.602315
vt 0.381666 0.572522
vt 0.309691 0.560553
vt 0.289801 0.483517
vt 0.285166 0.499613
vt 0.683087 0.691663
vt 0.947448 0.582605
vt 0.618536 0.572114
vt 0.989281 0.691663
vt 0.289801 0.483517
vt 0.15424 0.499613
vt 0.285166 0.499613
vt 0.158899 0.482079
vt 0.262857 0.582035
vt 0.29019 0.532817
vt 0.29019 0.532817
vt 0.262857 0.582035
vt 0.29019 0.943284
vt 0.260779 0.921169
vt 0.603866 0.700497
vt 0.58949 0.622175
vt 0.575514 0.700497
vt 0.610656 0.654244
vt 0.554126 0.64558
vt 0.322115 0.622175
vt 0.298741 0.763732
vt 0.32149 0.806681
vt 0.384852 0.776795
vt 0.508904 0.776795
vt 0.855992 0.85582
vt 0.333542 0.838157
vt 0.32945 0.871978
vt 0.302923 0.901706
vt 0.29449 0.921565
vt 0.29449 0.944005
vt 0.337776 0.94787
vt 0.337776 0.9937
vt 0.984231 0.9937
vt 0.532439 0.755631
vt 0.581166 0.722185
vt 0.681439 0.722185
vt 0.73741 0.719497
vt 0.760073 0.699245
vt 0.744515 0.71029
vt 0.991811 0.699245
vt 0.958487 0.810014
vt 0.994289 0.70976
vt 0.994289 0.994504
vt 0.917539 0.810014
vt 0.958487 0.889048
vt 0.917539 0.889048
vt 0.8619 0.854408
vt 0.346532 0.691637
vt 0.325628 0.666525
vt 0.298305 0.688578
vt 0.296047 0.722882
vt 0.968223 0.58214
vt 0.98568 0.58214
vt 0.968223 0.108436
vt 0.98568 0.108436
vt 0.950766 0.58214
vt 0.950766 0.108436
vt 0.922072 0.532006
vt 0.946206 0.532006
vt 0.922072 0.166323
vt 0.946206 0.166323
vt 0.333187 0.954437
vt 0.123306 0.954437
vt 0.333187 0.994125
vt 0.123306 0.994125
vn 1 0 0
vn 1 0 0
vn 1 0 0
vn 1 0 0
vn 1 0 0
vn 1 0 0
vn -0.001644843 0.8448314 0.5350301
vn -0.03703826 0.8318434 0.5537733
vn -0.002506254 0.4925857 0.8702603
vn -6.7099E-05 0.8377407 0.5460683
vn 0.002212614 0.4927165 0.8701871
vn 0.00237479 0.8446127 0.5353725
vn 0.03750138 0.8322197 0.5531764
vn 0 -0.6079676 0.7939618
vn 0 -0.6079676 0.7939618
vn 0 -0.9510325 -0.3090909
vn 0 -0.9510325 -0.3090909
vn 0 -0.6557336 -0.7549922
vn 0 -0.6557336 -0.7549922
vn 0.5543879 0.7809618 0.2876677
vn 0.3697968 0.8434922 0.3895783
vn 0.3910431 0.8281824 0.4014963
vn -0.0004906232 0.8771941 0.4801357
vn -0.001495449 0.8588812 0.5121728
vn -0.394926 0.8278749 0.3983172
vn -0.3727929 0.8437824 0.3860787
vn -0.5613844 0.778772 0.2799317
vn -0.8005713 0.006596254 0.5992013
vn -0.5642332 0.003056523 0.8256097
vn 0.03192272 -0.003227071 0.9994851
vn -0.9108263 -0.0004575859 0.4127895
vn -0.04627293 0.001307058 0.998928
vn 0.5031002 0.003734295 0.86422
vn 0.8252153 -0.0001267778 0.5648182
vn 0.8948534 0.001466026 0.4463578
vn 0.7410148 0.0001936601 0.6714886
vn 0.7079881 0.001223818 0.7062233
vn 0.8155967 0.001996291 0.5786173
vn 0.857248 -0.001283507 0.5149021
vn 0.9957436 0.001834689 0.09214921
vn 0.979943 -0.002646454 0.1992603
vn 0.9997166 0.0004385377 -0.02379967
vn 0.999323 0.0007568844 -0.03678142
vn -0.9343841 -0.003580559 0.3562493
vn -0.7494987 -0.003223901 0.6619979
vn -0.8517363 0.01597391 0.5237271
vn -0.6651317 -0.006008341 0.7467018
vn -0.9346653 0.02509157 0.3546422
vn -0.6219887 0.0005881049 0.783026
vn 0.9988424 0.001527643 -0.04807884
vn -0.904954 0.007639688 0.425441
vn -0.7253194 0.01019404 0.6883371
vn -0.757127 0.005775745 0.6532423
vn -0.8807314 -0.005892861 0.4735795
vn -0.9923092 -0.00861776 0.1234833
vn -0.9974348 0.008400567 0.0710872
vn 0.6152334 0.4410079 0.6534523
vn 0.7077767 0.4194128 0.5684584
vn 0.409749 0.4177558 0.8109167
vn 0.5644217 0.4488417 0.6927981
vn 0.5599703 0.426034 0.7105831
vn 0.5939346 0.4303243 0.6797519
vn 0.4465603 0.436388 0.7811206
vn 0.1857678 0.4105115 0.8927321
vn -0.03995502 0.454708 0.8897438
vn -0.001982618 0.446382 0.8948403
vn -0.2308263 0.4369581 0.86936
vn -0.5869073 0.409699 0.6983455
vn -0.6838995 0.3454783 0.6425934
vn -0.5978711 0.4347373 0.673464
vn -0.5215747 0.4245877 0.7400574
vn -0.4561329 0.4045226 0.7926565
vn -0.4977878 0.4787678 0.7231796
vn -0.5570988 0.5583206 0.6147512
vn -0.9346196 0.2888926 0.2074305
vn -0.9626986 0.2292794 0.1436743
vn -0.5412661 0.6577516 -0.5238261
vn -0.336712 0.5854805 -0.7374535
vn -0.2537774 0.540473 -0.8021758
vn -0.5649449 0.6522329 -0.5054003
vn -0.5741791 0.6413652 -0.50889
vn -0.9960904 0.02746384 0.08396312
vn -0.9979645 -0.0148042 -0.06203064
vn -0.9952231 0.005558339 0.0974682
vn -0.9967499 -0.01674626 -0.07879954
vn -0.9941282 0.06693853 0.08501956
vn -0.9964125 0.06006123 0.05962355
vn -0.9988538 0.03949131 0.02704939
vn -0.9971282 0.05249882 0.05458366
vn -0.04626895 0.7365915 0.6747534
vn -0.02226754 0.7415206 0.6705605
vn -0.02147212 0.7636342 0.645292
vn 0.01108945 0.7553099 0.6552739
vn -0.03669857 0.7409431 0.6705643
vn -0.02696755 0.7255607 0.6876296
vn 0.01912721 0.7354244 0.6773368
vn 0.02191713 0.8323786 0.5537737
vn 0.04616759 0.7685756 0.6380909
vn -0.02288204 0.8325335 0.5535019
vn -0.0331324 0.7621284 0.6465776
vn 0.04809174 0.8237421 0.5649214
vn -0.04896471 0.8241181 0.5642976
vn -0.8552209 -0.4847255 -0.1834074
vn -0.8533636 -0.4821407 -0.1982695
vn -0.817684 -0.5052035 -0.275975
vn -0.5425885 -0.7081637 -0.4517764
vn -0.3710888 -0.7737169 -0.5134737
vn -0.999358 0.01819398 0.03086431
vn -0.9996631 0.02250141 0.01293224
vn -0.9992924 0.0176259 0.03322657
vn -0.99968 0.0231695 0.01014767
vn -0.371358 0.02632633 -0.9281164
vn -0.8486571 0.003322928 -0.528933
vn -0.3501685 0.02700694 -0.9362974
vn -0.8749296 0.001245874 -0.4842485
vn 0.994161 0.09856562 0.0439181
vn 0.9988938 0.04356775 -0.01769227
vn 0 0.9995992 0.0283113
vn 0 0.9995992 0.02831129
vn 0 0.9995992 0.0283113
vn 0 0.9995992 0.02831129
vn -1 0 0
vn -1 0 0
vn -1 0 0
vn -1 0 0
vn -1 0 0
vn -1 0 0
vn 0.7231349 0.002097778 -0.6907036
vn 0.7960228 -0.01387417 -0.6051077
vn 0.9520552 -0.04580252 -0.3024781
vn 0.9061473 -0.04197571 -0.4208741
vn -0.004042272 -0.05042538 -0.9987197
vn -0.03849099 -0.01480142 -0.9991493
vn -0.8448361 -0.04253669 -0.5333316
vn -0.6935 -0.00976652 -0.7203904
vn -0.8687629 -0.04740945 -0.4929536
vn -0.9661971 -0.07242562 -0.2474224
vn -0.9619846 -0.07313059 -0.2631302
vn -0.9942049 -0.1008862 -0.0371309
vn -0.861021 -0.006182183 -0.5085317
vn 0.925328 -0.0347869 -0.3775685
vn 0.4838768 0.07456663 -0.8719536
vn 0.7350062 -0.01263546 -0.6779427
vn 0.9188716 -0.1529499 -0.3637048
vn 0.9473566 -0.1833274 -0.2625003
vn 0.9996135 -0.01878816 -0.02049142
vn 0.8659298 -0.02012327 -0.4997604
vn -0.1496865 -0.8605878 -0.4868086
vn -0.1715407 -0.8612561 -0.4783427
vn 0.1852796 -0.8567125 -0.481368
vn -0.6236218 -0.373597 -0.6866739
vn 0.1560677 -0.8647347 -0.4773643
vn 0.4790627 -0.524986 -0.7034832
vn 0.01318787 -0.635 -0.7723995
vn 0.9545039 -0.2830865 -0.0937252
vn 0.3702682 -0.2612693 -0.8914257
vn 0.892836 -0.3567442 -0.2749139
vn 0.916747 -0.2197684 -0.3335818
vn 0 0.01680447 0.9998587
vn -0.004045963 0.01684779 0.9998499
vn 0 0.0177369 0.9998426
vn -0.01526986 0.01778561 0.9997252
vn 0.004045957 0.01684779 0.9998499
vn 0.01526983 0.01778561 0.9997252
vn -0.9249901 0.02211159 0.3793474
vn -0.9208174 0.02136746 0.389408
vn -0.8340897 0.008471013 0.5515636
vn -0.827593 0.007638189 0.5612766
vn 0.9187383 0.02319512 0.3941851
vn 0.8211079 0.008902743 0.5707035
vn 0.9142078 0.0224101 0.4046255
vn 0.8140798 0.0080208 0.5806977
g reciever_pp-19-01_izhmash_vityaz_std_LOD1_0
f 3/3/3 2/2/2 1/1/1
f 4/4/4 1/1/1 2/2/2
f 5/5/5 1/1/1 4/4/4
f 6/6/6 1/1/1 5/5/5
f 9/9/9 8/8/8 7/7/7
f 7/7/7 10/10/10 9/9/9
f 9/9/9 10/10/10 11/11/11
f 12/12/12 11/11/11 10/10/10
f 13/13/13 11/11/11 12/12/12
f 14/14/14 9/9/9 11/11/11
f 9/9/9 14/14/14 15/15/15
f 16/16/16 15/15/15 14/14/14
f 15/15/15 16/16/16 17/17/17
f 18/18/18 17/17/17 16/16/16
f 17/17/17 18/18/18 19/19/19
f 22/22/22 21/21/21 20/20/20
f 22/22/22 23/23/23 21/21/21
f 23/23/23 22/22/22 24/24/24
f 25/25/25 23/23/23 24/24/24
f 23/23/23 25/25/25 26/26/26
f 26/26/26 25/25/25 27/27/27
f 30/30/30 29/29/29 28/28/28
f 29/29/29 31/31/31 28/28/28
f 29/29/29 30/30/30 32/32/32
f 32/32/32 30/30/30 33/33/33
f 33/33/33 30/30/30 34/34/34
f 33/33/33 34/34/34 35/35/35
f 35/35/35 34/34/34 36/36/36
f 36/36/36 34/34/34 37/37/37
f 37/37/37 38/38/38 36/36/36
f 38/38/38 37/37/37 39/39/39
f 38/38/38 39/39/39 40/40/40
f 39/39/39 41/41/41 40/40/40
f 40/40/40 41/41/41 42/42/42
f 43/43/43 40/40/40 42/42/42
f 31/31/31 44/44/44 28/28/28
f 44/44/44 31/31/31 45/45/45
f 44/44/44 45/45/45 46/46/46
f 46/46/46 47/47/47 44/44/44
f 47/47/47 46/46/46 48/48/48
f 47/47/47 49/49/49 44/44/44
f 43/43/43 50/50/50 40/40/40
f 28/28/28 44/44/44 51/51/51
f 28/28/28 51/51/51 52/52/52
f 53/53/53 52/52/52 51/51/51
f 52/52/52 53/53/53 54/54/54
f 54/54/54 53/53/53 55/55/55
f 56/56/56 55/55/55 53/53/53
f 59/59/59 58/58/58 57/57/57
f 60/60/60 59/59/59 57/57/57
f 61/61/61 60/60/60 57/57/57
f 60/60/60 61/61/61 62/62/62
f 63/63/63 62/62/62 61/61/61
f 64/64/64 62/62/62 63/63/63
f 65/65/65 64/64/64 63/63/63
f 64/64/64 65/65/65 66/66/66
f 65/65/65 67/67/67 66/66/66
f 67/67/67 65/65/65 68/68/68
f 69/69/69 67/67/67 68/68/68
f 68/68/68 70/70/70 69/69/69
f 70/70/70 68/68/68 71/71/71
f 71/71/71 72/72/72 70/70/70
f 72/72/72 71/71/71 73/73/73
f 74/74/74 72/72/72 73/73/73
f 75/75/75 74/74/74 73/73/73
f 76/76/76 74/74/74 75/75/75
f 79/79/79 78/78/78 77/77/77
f 80/80/80 77/77/77 78/78/78
f 77/77/77 80/80/80 81/81/81
f 84/84/84 83/83/83 82/82/82
f 83/83/83 84/84/84 85/85/85
f 86/86/86 84/84/84 82/82/82
f 82/82/82 87/87/87 86/86/86
f 88/88/88 86/86/86 87/87/87
f 89/89/89 88/88/88 87/87/87
f 92/92/92 91/91/91 90/90/90
f 91/91/91 92/92/92 93/93/93
f 94/94/94 90/90/90 91/91/91
f 93/93/93 95/95/95 91/91/91
f 95/95/95 93/93/93 96/96/96
f 96/96/96 93/93/93 97/97/97
f 93/93/93 98/98/98 97/97/97
f 95/95/95 99/99/99 91/91/91
f 91/91/91 99/99/99 100/100/100
f 98/98/98 101/101/101 97/97/97
f 102/102/102 100/100/100 99/99/99
f 97/97/97 102/102/102 99/99/99
f 101/101/101 102/102/102 97/97/97
f 105/105/105 104/104/104 103/103/103
f 104/104/104 105/105/105 106/106/106
f 106/106/106 105/105/105 107/107/107
f 110/110/110 109/109/109 108/108/108
f 111/111/111 108/108/108 109/109/109
f 114/114/114 113/113/113 112/112/112
f 115/115/115 112/112/112 113/113/113
f 117/117/117 116/116/116 58/58/58
f 116/116/116 57/57/57 58/58/58
f 120/120/120 119/119/119 118/118/118
f 119/119/119 120/120/120 121/121/121
f 124/124/124 123/123/123 122/122/122
f 122/122/122 123/123/123 125/125/125
f 126/126/126 123/123/123 124/124/124
f 126/126/126 127/127/127 123/123/123
f 130/130/130 129/129/129 128/128/128
f 131/131/131 129/129/129 130/130/130
f 129/129/129 131/131/131 132/132/132
f 132/132/132 133/133/133 129/129/129
f 133/133/133 132/132/132 134/134/134
f 135/135/135 134/134/134 132/132/132
f 135/135/135 132/132/132 136/136/136
f 137/137/137 136/136/136 132/132/132
f 137/137/137 132/132/132 138/138/138
f 132/132/132 139/139/139 138/138/138
f 140/140/140 139/139/139 132/132/132
f 131/131/131 141/141/141 132/132/132
f 141/141/141 142/142/142 132/132/132
f 142/142/142 143/143/143 132/132/132
f 143/143/143 144/144/144 132/132/132
f 145/145/145 132/132/132 144/144/144
f 144/144/144 146/146/146 145/145/145
f 145/145/145 147/147/147 132/132/132
f 150/150/150 149/149/149 148/148/148
f 148/148/148 149/149/149 151/151/151
f 152/152/152 150/150/150 148/148/148
f 150/150/150 152/152/152 153/153/153
f 154/154/154 153/153/153 151/151/151
f 149/149/149 154/154/154 151/151/151
f 150/150/150 153/153/153 154/154/154
f 157/157/157 156/156/156 155/155/155
f 155/155/155 158/158/158 157/157/157
f 158/158/158 155/155/155 130/130/130
f 128/128/128 158/158/158 130/130/130
f 161/161/161 160/160/160 159/159/159
f 160/160/160 161/161/161 162/162/162
f 163/163/163 161/161/161 159/159/159
f 161/161/161 163/163/163 164/164/164
f 167/167/167 166/166/166 165/165/165
f 166/166/166 167/167/167 168/168/168
f 171/171/171 170/170/170 169/169/169
f 170/170/170 171/171/171 172/172/172
