g reciever_p226_sig_emperor_scorpion_LOD1
v 0.008053683 -0.1835557 0.0010939
v 1.668543E-05 -0.1835557 0.0172519
v 0.01198168 -0.1835557 0.0121159
v 0.01198168 -0.1835557 0.0010939
v 0.006289685 -0.1835557 0.0163739
v 0.009919685 -0.1835557 0.0143869
v -0.008020316 -0.1835557 0.001093902
v -0.01194831 -0.1835557 0.0122179
v -0.01194832 -0.1835557 0.001093902
v -0.006256315 -0.1835557 0.0163739
v -0.009886315 -0.1835557 0.0143869
v 0.008053681 -0.1550709 -0.0111441
v 0.008053681 -0.1835557 -0.0111441
v 0.008053682 -0.1550709 -0.0045101
v 0.008053683 -0.1550709 0.0019269
v 0.008053683 -0.1835557 0.0010939
v 0.007137682 -0.1550709 -0.0142181
v 0.007137682 -0.1835557 -0.0142181
v 0.004660681 -0.1550709 -0.0165611
v 0.004660681 -0.1835557 -0.0165611
v 1.668125E-05 -0.1550709 -0.0178151
v 1.668125E-05 -0.1835557 -0.0178151
v -0.004627318 -0.1835557 -0.0165611
v -0.004627318 -0.1550709 -0.0165611
v -0.007104319 -0.1835557 -0.0142181
v -0.007104319 -0.1550709 -0.0142181
v -0.008020318 -0.1835557 -0.0111441
v -0.008020318 -0.1550709 -0.0111441
v -0.008020317 -0.1550709 -0.004510098
v -0.008020316 -0.1835557 0.001093902
v -0.008020316 -0.1550709 0.001093902
v 0.01198168 -0.1082304 0.0116619
v 0.009919685 -0.1835557 0.0143869
v 0.009919685 -0.1082304 0.0143869
v 0.01198168 -0.1835557 0.0121159
v 0.006289685 -0.1082304 0.0163739
v 0.006289685 -0.1835557 0.0163739
v 1.668543E-05 -0.1082304 0.0172519
v 1.668543E-05 -0.1835557 0.0172519
v -0.006256315 -0.1835557 0.0163739
v -0.006256315 -0.1082304 0.0163739
v -0.009886315 -0.1835557 0.0143869
v -0.009886315 -0.1082304 0.0143869
v -0.01194831 -0.1835557 0.0122179
v -0.01194831 -0.1082304 0.0122179
v 0.01198168 -0.1629315 -0.001874101
v 0.007714683 -0.1640586 0.0002578992
v 0.01198168 -0.1640586 0.0002578992
v 0.007714683 -0.1629315 -0.001874101
v 0.007714683 -0.1665066 0.0010939
v 0.01198168 -0.1665066 0.0010939
v 0.01198168 -0.1835557 0.0010939
v 0.008053683 -0.1835557 0.0010939
v 0.01198168 -0.1629315 -0.004980101
v 0.008011683 -0.1629315 -0.0049801
v 0.005492685 -0.07577783 0.0165529
v 1.668543E-05 -0.004798732 0.0172519
v 0.005483685 -0.00538918 0.0165539
v 1.668543E-05 -0.07577783 0.0172519
v 0.009919685 -0.07577783 0.0146249
v 0.009919685 -0.007135177 0.0146559
v 0.01137868 -0.07577783 0.0135619
v 0.01137868 -0.008194341 0.0137889
v -0.005459315 -0.07577783 0.0165529
v -0.005450315 -0.00538918 0.0165539
v -0.009886315 -0.07577783 0.0146589
v -0.009886315 -0.007135177 0.0146559
v 0.01198168 -0.008236951 0.0121159
v 0.01198168 -0.07577783 0.0116619
v -0.01134531 -0.008159847 0.0137889
v -0.01134531 -0.07577783 0.0137889
v -0.01194831 -0.008236951 0.0121159
v -0.01194831 -0.07577783 0.0121159
v 0.01198168 -0.002682433 -0.004980101
v 0.01198168 -0.07577783 0.0116619
v 0.01198168 -0.008236951 0.0121159
v 0.01198168 -0.07577783 -0.004980101
v 0.01198168 -0.002682433 -0.004980101
v 0.007198683 0.0008937597 -0.0049801
v 1.668278E-05 0.002716856 -0.004980099
v -0.01194832 -0.002682433 -0.004980098
v -0.007165317 0.0008937597 -0.004980098
v 0.01198168 -0.07577783 -0.004980101
v -0.01194832 -0.07577783 -0.004980098
v 0.009919685 -0.007135177 0.0146559
v 0.01198168 -0.008236951 0.0121159
v 0.01137868 -0.008194341 0.0137889
v 0.01198168 -0.002682433 -0.004980101
v 0.007198683 0.0008937597 -0.0049801
v 0.005483685 -0.00538918 0.0165539
v 1.668543E-05 -0.004798732 0.0172519
v 1.668278E-05 0.002716856 -0.004980099
v -0.007165317 0.0008937597 -0.004980098
v -0.005450315 -0.00538918 0.0165539
v -0.009886315 -0.007135177 0.0146559
v -0.01194832 -0.002682433 -0.004980098
v -0.01194831 -0.008236951 0.0121159
v -0.01134531 -0.008159847 0.0137889
v 0.004660681 -0.1550709 -0.0165611
v 0.008053681 -0.1550709 -0.0111441
v 1.668125E-05 -0.1550709 -0.0178151
v 0.007137682 -0.1550709 -0.0142181
v 0.008053682 -0.1550709 -0.0045101
v -0.008020317 -0.1550709 -0.004510098
v -0.008020318 -0.1550709 -0.0111441
v -0.004627318 -0.1550709 -0.0165611
v -0.007104319 -0.1550709 -0.0142181
v -0.01194832 -0.1629315 -0.004980098
v -0.01194832 -0.07577783 0.004031902
v -0.01194832 -0.1082304 0.004199901
v -0.01194832 -0.07577783 -0.004980098
v -0.01194832 -0.1629315 -0.001874098
v -0.01194832 -0.1640586 0.0002579016
v -0.01194831 -0.1082304 0.0122179
v -0.01194832 -0.1665066 0.001093902
v -0.01194831 -0.1835557 0.0122179
v -0.01194832 -0.1835557 0.001093902
v -0.01194832 -0.1629315 -0.001874098
v -0.007971317 -0.1640586 0.0002579016
v -0.007971317 -0.1629315 -0.001874098
v -0.01194832 -0.1640586 0.0002579016
v -0.007971317 -0.1665066 0.001093902
v -0.01194832 -0.1665066 0.001093902
v -0.01194832 -0.1835557 0.001093902
v -0.008020316 -0.1835557 0.001093902
v -0.01194832 -0.1629315 -0.004980098
v -0.007971317 -0.1629315 -0.004980098
v -0.01194831 -0.008236951 0.0121159
v -0.01194831 -0.07577783 0.0121159
v -0.01194832 -0.07577783 0.004031902
v -0.01194832 -0.002682433 -0.004980098
v -0.01194832 -0.07577783 -0.004980098
v 0.01198168 -0.1082304 0.0116619
v 0.008982684 -0.07548463 0.0116619
v 0.01198168 -0.07577783 0.0116619
v 0.008982684 -0.108481 0.0116619
v -0.01194832 -0.07577783 0.004031902
v 0.008982684 -0.108481 0.0116619
v -0.01194832 -0.1082304 0.004199901
v 0.008982684 -0.07548463 0.0116619
v -0.01194831 -0.1082304 0.0122179
v -0.01194832 -0.1082304 0.004199901
v 0.01198168 -0.1082304 0.0116619
v 1.668543E-05 -0.1082304 0.0172519
v 0.006289685 -0.1082304 0.0163739
v 0.009919685 -0.1082304 0.0143869
v -0.006256315 -0.1082304 0.0163739
v -0.009886315 -0.1082304 0.0143869
v -0.01194831 -0.07577783 0.0121159
v -0.009886315 -0.07577783 0.0146589
v 1.668543E-05 -0.07577783 0.0172519
v 0.009919685 -0.07577783 0.0146249
v 0.005492685 -0.07577783 0.0165529
v -0.005459315 -0.07577783 0.0165529
v 0.01198168 -0.07577783 0.0116619
v -0.01194832 -0.07577783 0.004031902
v -0.01134531 -0.07577783 0.0137889
v 0.01198168 -0.07577783 0.0116619
v 0.009919685 -0.07577783 0.0146249
v 0.01137868 -0.07577783 0.0135619
v -0.004627318 -0.1835557 -0.0165611
v -0.008020318 -0.1835557 -0.0111441
v 1.668125E-05 -0.1835557 -0.0178151
v -0.007104319 -0.1835557 -0.0142181
v 0.008053681 -0.1835557 -0.0111441
v 0.004660681 -0.1835557 -0.0165611
v 0.007137682 -0.1835557 -0.0142181
v 0.008053683 -0.1835557 0.0010939
v -0.008020316 -0.1835557 0.001093902
v -0.01194832 -0.07577783 -0.004980098
v -0.01194832 -0.1629315 -0.004980098
v -0.007971317 -0.1629315 -0.004980098
v 0.01198168 -0.07577783 -0.004980101
v 0.008011683 -0.1629315 -0.0049801
v 0.01198168 -0.1629315 -0.004980101
v 0.01198168 -0.1082304 0.0116619
v 0.01198168 -0.07577783 -0.004980101
v 0.01198168 -0.1629315 -0.004980101
v 0.01198168 -0.07577783 0.0116619
v 0.01198168 -0.1629315 -0.001874101
v 0.01198168 -0.1640586 0.0002578992
v 0.01198168 -0.1665066 0.0010939
v 0.01198168 -0.1835557 0.0121159
v 0.01198168 -0.1835557 0.0010939
vt 0.9187 0.7297
vt 0.8586 0.8538
vt 0.9499 0.8143
vt 0.9499 0.7297
vt 0.9055 0.8471
vt 0.9327 0.8318
vt 0.7985 0.7297
vt 0.7673 0.8151
vt 0.7673 0.7297
vt 0.8117 0.847
vt 0.7846 0.8318
vt 0.764 0.7912
vt 0.5511 0.7913
vt 0.764 0.8425
vt 0.764 0.8922
vt 0.5511 0.8922
vt 0.764 0.7664
vt 0.5511 0.7666
vt 0.764 0.7401
vt 0.5511 0.7402
vt 0.764 0.7029
vt 0.5511 0.7031
vt 0.5511 0.6659
vt 0.764 0.6658
vt 0.5511 0.6395
vt 0.764 0.6394
vt 0.5511 0.6147
vt 0.764 0.6147
vt 0.764 0.5634
vt 0.5511 0.5202
vt 0.764 0.5201
vt 0.0021 0.4768
vt 0.565 0.4531
vt 0.0021 0.4507
vt 0.565 0.4768
vt 0.0021 0.4199
vt 0.565 0.4218
vt 0.0021 0.3727
vt 0.565 0.3741
vt 0.565 0.3265
vt 0.0021 0.3255
vt 0.565 0.2953
vt 0.0021 0.2947
vt 0.565 0.2737
vt 0.0021 0.2734
vt 0.9865 0.6185
vt 0.9533 0.637
vt 0.9867 0.6366
vt 0.9533 0.6195
vt 0.9533 0.6557
vt 0.9868 0.6559
vt 0.9841 0.7814
vt 0.9533 0.7813
vt 0.9847 0.5946
vt 0.9533 0.5949
vt 0.5332 0.8962
vt 0.0034 0.8551
vt 0.0078 0.8968
vt 0.5332 0.8544
vt 0.5332 0.9328
vt 0.0209 0.9334
vt 0.5332 0.9465
vt 0.0288 0.9462
vt 0.5332 0.8126
vt 0.0077 0.8134
vt 0.5332 0.7761
vt 0.0207 0.7768
vt 0.0292 0.9616
vt 0.5332 0.9616
vt 0.0284 0.7639
vt 0.5332 0.7632
vt 0.0289 0.7498
vt 0.5332 0.7498
vt 0.5481 0.4799
vt 0.0022 0.6102
vt 0.5069 0.6102
vt 0.0019 0.4799
vt 0.9223 0.5174
vt 0.9397 0.4934
vt 0.9486 0.4574
vt 0.9224 0.3972
vt 0.9398 0.4213
vt 0.5673 0.5174
vt 0.5673 0.3972
vt 0.9338 0.7054
vt 0.9175 0.7265
vt 0.9298 0.7203
vt 0.7785 0.7265
vt 0.7705 0.68
vt 0.944 0.6671
vt 0.9481 0.6244
vt 0.7667 0.6228
vt 0.7715 0.5657
vt 0.9448 0.5816
vt 0.9352 0.5431
vt 0.7802 0.5205
vt 0.9192 0.5205
vt 0.9313 0.5283
vt 0.84 0.9278
vt 0.8581 0.8982
vt 0.8151 0.9346
vt 0.8532 0.915
vt 0.8581 0.8621
vt 0.7721 0.8621
vt 0.7721 0.8982
vt 0.7903 0.9278
vt 0.777 0.915
vt 0.6533 0.002
vt 0.0019 0.0716
vt 0.2444 0.0729
vt 0.002 0.002
vt 0.6533 0.026
vt 0.6617 0.0425
vt 0.2445 0.1353
vt 0.6801 0.049
vt 0.8076 0.1353
vt 0.8076 0.049
vt 0.9814 0.5661
vt 0.9512 0.5475
vt 0.9512 0.5661
vt 0.9814 0.5475
vt 0.9512 0.5278
vt 0.9813 0.5278
vt 0.981 0.3979
vt 0.9512 0.398
vt 0.9814 0.5901
vt 0.9512 0.5901
vt 0.0434 0.7451
vt 0.5482 0.7451
vt 0.5482 0.6826
vt 0.002 0.613
vt 0.5482 0.613
vt 0.811 0.2549
vt 0.8305 0.0021
vt 0.811 0.0021
vt 0.8305 0.2549
vt 0.9973 0.0021
vt 0.8334 0.2549
vt 0.9972 0.2549
vt 0.8334 0.0021
vt 0.0023 0.1192
vt 0.0023 0.1811
vt 0.1839 0.1188
vt 0.0923 0.0779
vt 0.14 0.0835
vt 0.1679 0.0981
vt 0.0449 0.086
vt 0.0178 0.102
vt 0.5373 0.9534
vt 0.5526 0.9713
vt 0.6273 0.9949
vt 0.7027 0.9742
vt 0.6689 0.9903
vt 0.5858 0.9887
vt 0.7188 0.9534
vt 0.5373 0.891
vt 0.5449 0.9624
vt 0.7188 0.9534
vt 0.7027 0.9742
vt 0.7107 0.9638
vt 0.8952 0.8541
vt 0.8681 0.8979
vt 0.9322 0.844
vt 0.8754 0.8731
vt 0.9964 0.8979
vt 0.9693 0.8541
vt 0.9891 0.8731
vt 0.9964 0.9969
vt 0.8681 0.9969
vt 0.9906 0.2745
vt 0.5673 0.2745
vt 0.5673 0.2944
vt 0.9906 0.3947
vt 0.5673 0.3747
vt 0.5673 0.3947
vt 0.5653 0.2703
vt 0.8076 0.1409
vt 0.1567 0.1404
vt 0.8076 0.2703
vt 0.1567 0.1639
vt 0.1482 0.1797
vt 0.1298 0.1859
vt 0.0023 0.2703
vt 0.0023 0.1859
vn 0 -1 0
vn 0 -1 0
vn 0 -1 0
vn 0 -1 0
vn 0 -1 0
vn 0 -1 0
vn 0 -1 0
vn 0 -1 0
vn 0 -1 0
vn 0 -1 0
vn 0 -1 0
vn 0.9895194 0 -0.1444007
vn 0.9895194 0 -0.1444007
vn 1 0 0
vn 1 0 0
vn 1 0 0
vn 0.851827 0 -0.5238233
vn 0.851827 0 -0.5238233
vn 0.4887992 0 -0.8723963
vn 0.4887992 0 -0.8723963
vn -1.164154E-07 0 -1
vn 0 0 -1
vn -0.4887992 0 -0.8723963
vn -0.4887992 0 -0.8723963
vn -0.8518323 0 -0.5238147
vn -0.8518323 0 -0.5238147
vn -0.9895194 0 -0.1444007
vn -0.9895194 0 -0.1444007
vn -1 0 0
vn -1 0 0
vn -1 0 0
vn 0.7960836 0 0.6051866
vn 0.6198236 0.002098167 0.7847384
vn 0.653302 0 0.7570974
vn 0.7403768 0.004196053 0.672179
vn 0.3144821 0 0.9492633
vn 0.3144821 0 0.9492633
vn 0 0 1
vn 0 0 1
vn -0.3144821 0 0.9492633
vn -0.3144821 0 0.9492633
vn -0.6097773 0 0.7925728
vn -0.6097773 0 0.7925728
vn -0.7247788 0 0.6889817
vn -0.7247788 0 0.6889817
vn 0 -0.9720915 -0.2346022
vn 0 -0.6587444 -0.7523668
vn 0 -0.6587444 -0.7523668
vn 0 -0.970271 -0.2420209
vn 0 -0.1694993 -0.9855303
vn 0 -0.1685404 -0.9856947
vn 0 0 -1
vn 0 0 -1
vn 0 -1 0
vn 0 -1 0
vn 0.26569 0 0.9640586
vn 1.164154E-07 0 1
vn 0.2418062 -0.0001907412 0.9703245
vn 0 0 1
vn 0.4970226 -0.000190743 0.8677377
vn 0.4352137 -0.001335194 0.9003261
vn 0.8111084 -0.001335158 0.5848945
vn 0.7330054 -0.002336538 0.6802188
vn -0.2625061 0 0.9649303
vn -0.2417165 0 0.9703469
vn -0.4539247 0 0.8910401
vn -0.4354978 0 0.9001898
vn 0.940925 -0.001192131 0.3386128
vn 0.9531138 -0.002145794 0.3026046
vn -0.7334886 0 0.6797018
vn -0.7716011 0 0.6361066
vn -0.9406832 0 0.3392859
vn -0.9406832 0 0.3392859
vn 1 0 0
vn 1 0 0
vn 1 0 0
vn 1 0 0
vn 0 0 -1
vn 0 0 -1
vn 0 0 -1
vn 0 0 -1
vn 0 0 -1
vn 0 0 -1
vn 0 0 -1
vn 0.5370049 0.8042347 0.2546216
vn 0.6528519 0.7231773 0.2253866
vn 0.6447376 0.7337334 0.2143565
vn 0.5782231 0.7819147 0.2329537
vn 0.3846021 0.8807881 0.276213
vn 0.2670318 0.9213653 0.2824534
vn 0 0.9573679 0.2888716
vn 0 0.9500749 0.312022
vn -0.3846021 0.8807881 0.276213
vn -0.2670318 0.9213653 0.2824534
vn -0.5346897 0.8065903 0.2520299
vn -0.5782231 0.7819147 0.2329537
vn -0.6504536 0.7263728 0.2220196
vn -0.6289688 0.7529841 0.1934251
vn 0 1 0
vn 0 1 0
vn 0 1 0
vn 0 1 0
vn 0 1 0
vn 0 1 0
vn 0 1 0
vn 0 1 0
vn 0 1 0
vn -1 0 0
vn -1 0 0
vn -1 0 0
vn -1 0 0
vn -1 0 0
vn -1 0 0
vn -1 0 0
vn -1 0 0
vn -1 0 0
vn -1 0 0
vn 0 -0.9720915 -0.2346022
vn 0 -0.6587444 -0.7523668
vn 0 -0.9720915 -0.2346022
vn 0 -0.6587444 -0.7523668
vn 0 -0.1687257 -0.985663
vn 0 -0.1685404 -0.9856947
vn 0 0 -1
vn 0 0 -1
vn 0 -1 0
vn 0 -1 0
vn -1 0 0
vn -1 0 0
vn -1 0 0
vn -1 0 0
vn -1 0 0
vn 0 0 1
vn 0 0 1
vn 0 0 1
vn 0 0 1
vn -0.3391161 0.002408122 0.9407415
vn -0.3391161 0.002408122 0.9407415
vn -0.3391161 0.002408122 0.9407415
vn -0.3391161 0.002408122 0.9407415
vn 0 1 0
vn 0 1 0
vn 0 1 0
vn 0 1 0
vn 0 1 0
vn 0 1 0
vn 0 1 0
vn 0 1 0
vn 0 -1 0
vn 0 -1 0
vn 0 -1 0
vn 0 -1 0
vn 0 -1 0
vn 0 -1 0
vn 0 -1 0
vn 0 -1 0
vn 0 -1 0
vn 0 -1 0
vn 0 -1 0
vn 0 -1 0
vn 0 -1 0
vn 0 -1 0
vn 0 -1 0
vn 0 -1 0
vn 0 -1 0
vn 0 -1 0
vn 0 -1 0
vn 0 -1 0
vn 0 -1 0
vn 0 0 -1
vn 0 0 -1
vn 0 0 -1
vn 0 0 -1
vn 0 0 -1
vn 0 0 -1
vn 1 0 0
vn 1 0 0
vn 1 0 0
vn 1 0 0
vn 1 0 0
vn 1 0 0
vn 1 0 0
vn 1 0 0
vn 1 0 0
g reciever_p226_sig_emperor_scorpion_LOD1_0
f 3/3/3 2/2/2 1/1/1
f 4/4/4 3/3/3 1/1/1
f 5/5/5 2/2/2 3/3/3
f 6/6/6 5/5/5 3/3/3
f 7/7/7 1/1/1 2/2/2
f 2/2/2 8/8/8 7/7/7
f 8/8/8 9/9/9 7/7/7
f 2/2/2 10/10/10 8/8/8
f 10/10/10 11/11/11 8/8/8
f 14/14/14 13/13/13 12/12/12
f 13/13/13 14/14/14 15/15/15
f 16/16/16 13/13/13 15/15/15
f 17/17/17 12/12/12 13/13/13
f 18/18/18 17/17/17 13/13/13
f 19/19/19 17/17/17 18/18/18
f 20/20/20 19/19/19 18/18/18
f 21/21/21 19/19/19 20/20/20
f 22/22/22 21/21/21 20/20/20
f 21/21/21 22/22/22 23/23/23
f 24/24/24 21/21/21 23/23/23
f 24/24/24 23/23/23 25/25/25
f 26/26/26 24/24/24 25/25/25
f 26/26/26 25/25/25 27/27/27
f 28/28/28 26/26/26 27/27/27
f 27/27/27 29/29/29 28/28/28
f 27/27/27 30/30/30 29/29/29
f 30/30/30 31/31/31 29/29/29
f 34/34/34 33/33/33 32/32/32
f 33/33/33 35/35/35 32/32/32
f 33/33/33 34/34/34 36/36/36
f 37/37/37 33/33/33 36/36/36
f 37/37/37 36/36/36 38/38/38
f 39/39/39 37/37/37 38/38/38
f 40/40/40 39/39/39 38/38/38
f 41/41/41 40/40/40 38/38/38
f 42/42/42 40/40/40 41/41/41
f 43/43/43 42/42/42 41/41/41
f 44/44/44 42/42/42 43/43/43
f 45/45/45 44/44/44 43/43/43
f 48/48/48 47/47/47 46/46/46
f 47/47/47 49/49/49 46/46/46
f 50/50/50 47/47/47 48/48/48
f 51/51/51 50/50/50 48/48/48
f 50/50/50 51/51/51 52/52/52
f 53/53/53 50/50/50 52/52/52
f 46/46/46 49/49/49 54/54/54
f 49/49/49 55/55/55 54/54/54
f 58/58/58 57/57/57 56/56/56
f 57/57/57 59/59/59 56/56/56
f 58/58/58 56/56/56 60/60/60
f 61/61/61 58/58/58 60/60/60
f 61/61/61 60/60/60 62/62/62
f 63/63/63 61/61/61 62/62/62
f 59/59/59 57/57/57 64/64/64
f 57/57/57 65/65/65 64/64/64
f 64/64/64 65/65/65 66/66/66
f 65/65/65 67/67/67 66/66/66
f 63/63/63 62/62/62 68/68/68
f 62/62/62 69/69/69 68/68/68
f 66/66/66 67/67/67 70/70/70
f 71/71/71 66/66/66 70/70/70
f 71/71/71 70/70/70 72/72/72
f 73/73/73 71/71/71 72/72/72
f 76/76/76 75/75/75 74/74/74
f 75/75/75 77/77/77 74/74/74
f 80/80/80 79/79/79 78/78/78
f 81/81/81 80/80/80 78/78/78
f 81/81/81 82/82/82 80/80/80
f 81/81/81 78/78/78 83/83/83
f 84/84/84 81/81/81 83/83/83
f 87/87/87 86/86/86 85/85/85
f 86/86/86 88/88/88 85/85/85
f 88/88/88 89/89/89 85/85/85
f 85/85/85 89/89/89 90/90/90
f 90/90/90 89/89/89 91/91/91
f 89/89/89 92/92/92 91/91/91
f 92/92/92 93/93/93 91/91/91
f 93/93/93 94/94/94 91/91/91
f 93/93/93 95/95/95 94/94/94
f 93/93/93 96/96/96 95/95/95
f 96/96/96 97/97/97 95/95/95
f 97/97/97 98/98/98 95/95/95
f 101/101/101 100/100/100 99/99/99
f 100/100/100 102/102/102 99/99/99
f 101/101/101 103/103/103 100/100/100
f 104/104/104 103/103/103 101/101/101
f 104/104/104 101/101/101 105/105/105
f 105/105/105 101/101/101 106/106/106
f 107/107/107 105/105/105 106/106/106
f 110/110/110 109/109/109 108/108/108
f 109/109/109 111/111/111 108/108/108
f 108/108/108 112/112/112 110/110/110
f 112/112/112 113/113/113 110/110/110
f 114/114/114 110/110/110 113/113/113
f 114/114/114 113/113/113 115/115/115
f 114/114/114 115/115/115 116/116/116
f 115/115/115 117/117/117 116/116/116
f 120/120/120 119/119/119 118/118/118
f 119/119/119 121/121/121 118/118/118
f 119/119/119 122/122/122 121/121/121
f 122/122/122 123/123/123 121/121/121
f 123/123/123 122/122/122 124/124/124
f 122/122/122 125/125/125 124/124/124
f 120/120/120 118/118/118 126/126/126
f 127/127/127 120/120/120 126/126/126
f 130/130/130 129/129/129 128/128/128
f 130/130/130 128/128/128 131/131/131
f 130/130/130 131/131/131 132/132/132
f 135/135/135 134/134/134 133/133/133
f 134/134/134 136/136/136 133/133/133
f 139/139/139 138/138/138 137/137/137
f 138/138/138 140/140/140 137/137/137
f 143/143/143 142/142/142 141/141/141
f 143/143/143 141/141/141 144/144/144
f 143/143/143 144/144/144 145/145/145
f 143/143/143 145/145/145 146/146/146
f 141/141/141 147/147/147 144/144/144
f 141/141/141 148/148/148 147/147/147
f 151/151/151 150/150/150 149/149/149
f 152/152/152 151/151/151 149/149/149
f 152/152/152 153/153/153 151/151/151
f 151/151/151 154/154/154 150/150/150
f 152/152/152 149/149/149 155/155/155
f 149/149/149 156/156/156 155/155/155
f 150/150/150 157/157/157 149/149/149
f 160/160/160 159/159/159 158/158/158
f 163/163/163 162/162/162 161/161/161
f 162/162/162 164/164/164 161/161/161
f 162/162/162 163/163/163 165/165/165
f 165/165/165 163/163/163 166/166/166
f 167/167/167 165/165/165 166/166/166
f 162/162/162 165/165/165 168/168/168
f 169/169/169 162/162/162 168/168/168
f 172/172/172 171/171/171 170/170/170
f 170/170/170 173/173/173 172/172/172
f 173/173/173 174/174/174 172/172/172
f 173/173/173 175/175/175 174/174/174
f 178/178/178 177/177/177 176/176/176
f 177/177/177 179/179/179 176/176/176
f 178/178/178 176/176/176 180/180/180
f 176/176/176 181/181/181 180/180/180
f 176/176/176 182/182/182 181/181/181
f 176/176/176 183/183/183 182/182/182
f 183/183/183 184/184/184 182/182/182
