g reciever_57_fn_five_seven_cover_std_LOD1
v -0.005413256 -0.1770332 0.01423124
v 0.005371389 -0.1770332 0.01423124
v -0.008292763 -0.1770332 0.01311745
v 0.008250896 -0.1770332 0.01311745
v 0.01338324 -0.1770332 0.007527487
v -0.01342511 -0.1770332 0.007527487
v 0.01436156 -0.1770332 0.005070817
v -0.01440343 -0.1770332 0.005070817
v 0.01436156 -0.1770332 -0.006701689
v -0.01440343 -0.1770332 -0.006701689
v -0.005413256 -0.1069692 0.01423125
v 0.005371389 -0.1069692 0.01423125
v -0.005413256 -0.1770332 0.01423124
v 0.005371389 -0.1770332 0.01423124
v -0.008292763 -0.1076032 0.01311746
v -0.008292763 -0.1770332 0.01311745
v -0.01342511 -0.1130222 0.007527497
v -0.01342511 -0.1770332 0.007527487
v -0.01440343 -0.1142676 0.005070832
v -0.01440343 -0.1770332 0.005070817
v -0.01494951 -0.1144557 0.002279904
v -0.01440343 -0.1770332 -0.006701689
v -0.01602094 -0.1125018 -0.006701679
v 0.008250896 -0.1076032 0.01311746
v 0.008250896 -0.1770332 0.01311745
v 0.01338324 -0.1130222 0.007527497
v 0.01338324 -0.1770332 0.007527487
v 0.01436156 -0.1142676 0.005070832
v 0.01436156 -0.1770332 0.005070817
v 0.01490765 -0.1144557 0.002279904
v 0.01436156 -0.1770332 -0.006701689
v 0.01597907 -0.1125018 -0.006701679
v -0.01602094 -0.1125018 -0.006701679
v -0.01602094 -0.1144557 0.002279904
v -0.01494951 -0.1144557 0.002279904
v -0.01602094 -0.1142676 0.005070832
v -0.01440343 -0.1142676 0.005070832
v -0.01512003 -0.1130222 0.007527497
v -0.01342511 -0.1130222 0.007527497
v -0.009349469 -0.1065168 0.01400594
v -0.008292763 -0.1076032 0.01311746
v -0.005995742 -0.1054965 0.01526284
v -0.005413256 -0.1069692 0.01423125
v 0.005371389 -0.1069692 0.01423125
v 0.005953875 -0.1054965 0.01526284
v 0.008250896 -0.1076032 0.01311746
v 0.009307602 -0.1065168 0.01400594
v 0.01338324 -0.1130222 0.007527497
v 0.01507816 -0.1130222 0.007527497
v 0.01436156 -0.1142676 0.005070832
v 0.01597907 -0.1142676 0.005070832
v 0.01490765 -0.1144557 0.002279904
v 0.01597907 -0.1144557 0.002279904
v 0.01597907 -0.1125018 -0.006701679
v -0.005995739 0.01853681 0.01526286
v 0.005953873 0.01853681 0.01526286
v -0.005995739 -0.02343259 0.01526286
v 0.005953873 -0.02343259 0.01526286
v 0.005953873 -0.02497412 0.01526286
v -0.005995739 -0.02497412 0.01526286
v 0.005953875 -0.1054965 0.01526284
v -0.005995742 -0.1054965 0.01526284
v -0.01519876 0.02580778 0.009832746
v -0.01519876 -0.02838171 0.009832742
v -0.01602094 0.02652714 0.007021029
v -0.01602094 -0.03105919 0.007021019
v -0.01248204 -0.02478115 0.01348212
v -0.01248204 0.0230029 0.01348213
v -0.009605356 0.01947321 0.01511517
v -0.009605356 -0.02343261 0.01511516
v -0.005995739 0.01853681 0.01526286
v -0.005995739 -0.02343259 0.01526286
v -0.01602094 -0.1144557 0.002279904
v -0.01602094 -0.03237113 0.005070841
v -0.01602094 -0.1142676 0.005070832
v -0.01602094 -0.1125018 -0.006701679
v -0.01602094 0.02921868 -0.006701655
v -0.01602094 -0.03105919 0.007021019
v -0.01602094 0.02652714 0.007021029
v -0.005995739 -0.02343259 0.01526286
v -0.005995739 -0.02497412 0.01526286
v -0.009605356 -0.02343261 0.01511516
v -0.009349469 -0.02600619 0.01400596
v -0.01248204 -0.02478115 0.01348212
v -0.01519876 -0.02838171 0.009832742
v -0.01512003 -0.03110715 0.007527506
v -0.01602094 -0.03105919 0.007021019
v -0.01602094 -0.03237113 0.005070841
v -0.009349469 -0.1065168 0.01400594
v -0.009349469 -0.02600619 0.01400596
v -0.005995742 -0.1054965 0.01526284
v -0.005995739 -0.02497412 0.01526286
v -0.01512003 -0.03110715 0.007527506
v -0.01512003 -0.1130222 0.007527497
v -0.01602094 -0.03237113 0.005070841
v -0.01602094 -0.1142676 0.005070832
v 0.01597907 0.02921868 -0.006701655
v 0.01597907 0.02652714 0.007021029
v -0.01602094 0.02921868 -0.006701655
v -0.01602094 0.02652714 0.007021029
v -0.01519876 0.02580778 0.009832746
v 0.01515689 0.02580778 0.009832746
v -0.01248204 0.0230029 0.01348213
v 0.01244018 0.0230029 0.01348213
v -0.005995739 0.01853681 0.01526286
v -0.009605356 0.01947321 0.01511517
v 0.005953873 0.01853681 0.01526286
v 0.00956349 0.01947321 0.01511517
v 0.01597907 -0.03105919 0.007021019
v 0.01515689 -0.02838171 0.009832742
v 0.01597907 0.02652714 0.007021029
v 0.01515689 0.02580778 0.009832746
v 0.01244018 -0.02478115 0.01348212
v 0.01244018 0.0230029 0.01348213
v 0.00956349 0.01947321 0.01511517
v 0.00956349 -0.02343261 0.01511516
v 0.005953873 0.01853681 0.01526286
v 0.005953873 -0.02343259 0.01526286
v 0.01597907 -0.1144557 0.002279904
v 0.01597907 -0.1142676 0.005070832
v 0.01597907 -0.03237113 0.005070841
v 0.01597907 -0.1125018 -0.006701679
v 0.01597907 0.02921868 -0.006701655
v 0.01597907 -0.03105919 0.007021019
v 0.01597907 0.02652714 0.007021029
v 0.009307602 -0.02600619 0.01400596
v 0.005953873 -0.02497412 0.01526286
v 0.00956349 -0.02343261 0.01511516
v 0.005953873 -0.02343259 0.01526286
v 0.01244018 -0.02478115 0.01348212
v 0.01515689 -0.02838171 0.009832742
v 0.01507816 -0.03110715 0.007527506
v 0.01597907 -0.03105919 0.007021019
v 0.01597907 -0.03237113 0.005070841
v 0.009307602 -0.1065168 0.01400594
v 0.005953875 -0.1054965 0.01526284
v 0.009307602 -0.02600619 0.01400596
v 0.005953873 -0.02497412 0.01526286
v 0.01507816 -0.03110715 0.007527506
v 0.01507816 -0.1130222 0.007527497
v 0.01597907 -0.03237113 0.005070841
v 0.01597907 -0.1142676 0.005070832
v -0.01440343 -0.1770332 -0.006701689
v 0.01436156 -0.1770332 -0.006701689
v -0.01602094 -0.1125018 -0.006701679
v 0.01597907 -0.1125018 -0.006701679
v 0.01597907 0.02921868 -0.006701655
v -0.01602094 0.02921868 -0.006701655
vt 0.1579088 0.8192114
vt 0.2585133 0.8192114
vt 0.1310457 0.8140163
vt 0.2853771 0.8140162
vt 0.3332547 0.7879429
vt 0.08316796 0.7879432
vt 0.342381 0.7764841
vt 0.07404153 0.7764844
vt 0.342381 0.7215735
vt 0.07404153 0.7215736
vt 0.7623813 0.6838725
vt 0.6692532 0.6838725
vt 0.7623811 0.9863822
vt 0.6692531 0.9863822
vt 0.7890419 0.6866097
vt 0.7890413 0.9863823
vt 0.8545721 0.710007
vt 0.8545718 0.9863823
vt 0.8774062 0.7153843
vt 0.8774061 0.9863823
vt 0.9019635 0.7161964
vt 0.9790648 0.9864253
vt 0.9800522 0.7077162
vt 0.6425928 0.6866097
vt 0.6425927 0.9863823
vt 0.5770624 0.710007
vt 0.5770622 0.9863823
vt 0.5542282 0.7153843
vt 0.5542278 0.9863823
vt 0.529671 0.7161964
vt 0.4525698 0.9864253
vt 0.4515817 0.7077161
vt 0.4209391 0.9814588
vt 0.4176323 0.9257626
vt 0.4046478 0.9259554
vt 0.4166259 0.9088129
vt 0.3970235 0.9091038
vt 0.404717 0.8922853
vt 0.3841765 0.8925902
vt 0.3314814 0.8376917
vt 0.319111 0.8463612
vt 0.2901948 0.8285541
vt 0.2834441 0.8395031
vt 0.1527022 0.8404351
vt 0.14533 0.8295868
vt 0.1174409 0.8477989
vt 0.1045812 0.8393092
vt 0.05503764 0.8949365
vt 0.03448809 0.8949245
vt 0.0431374 0.9116265
vt 0.02352644 0.9116151
vt 0.03647707 0.9285799
vt 0.02348692 0.9285724
vt 0.0233571 0.984293
vt 0.6601735 0.05357429
vt 0.5484251 0.05357402
vt 0.6598807 0.2473021
vt 0.5483841 0.2483095
vt 0.5483434 0.2554504
vt 0.6598946 0.2546569
vt 0.5490338 0.6335865
vt 0.6594185 0.6335437
vt 0.7961699 0.01740661
vt 0.7961702 0.2701643
vt 0.8234978 0.01405123
vt 0.8234986 0.282653
vt 0.7537289 0.2533701
vt 0.7537286 0.03048947
vt 0.7228702 0.04695317
vt 0.7228706 0.2470802
vt 0.6891693 0.05132085
vt 0.6891696 0.2470801
vt 0.8899494 0.6829301
vt 0.863913 0.3000603
vt 0.8639134 0.6820527
vt 0.9737353 0.6738164
vt 0.973734 0.0127849
vt 0.8457208 0.293941
vt 0.84572 0.02533925
vt 0.09953769 0.8223826
vt 0.1028872 0.8154106
vt 0.06685956 0.8184574
vt 0.07395168 0.8058572
vt 0.04239924 0.8072091
vt 0.02164204 0.7822972
vt 0.02549417 0.7658015
vt 0.01655956 0.7640126
vt 0.01635535 0.7530804
vt 0.7279522 0.648301
vt 0.7279515 0.2727727
vt 0.6945413 0.6435423
vt 0.6945406 0.2679588
vt 0.8088855 0.2965653
vt 0.8088859 0.6786444
vt 0.833295 0.3024608
vt 0.8332954 0.6844532
vt 0.3672487 0.9881079
vt 0.3672487 0.9229698
vt 0.06839747 0.9881083
vt 0.06839854 0.9229701
vt 0.0760575 0.9094512
vt 0.359589 0.909451
vt 0.1013659 0.8880116
vt 0.33428 0.8880113
vt 0.1617923 0.8656157
vt 0.1280788 0.869864
vt 0.2738536 0.8656156
vt 0.3075674 0.8698639
vt 0.3908073 0.2928632
vt 0.4181358 0.2803747
vt 0.3908073 0.02426118
vt 0.418135 0.02761653
vt 0.4605768 0.2635804
vt 0.4605764 0.04069942
vt 0.4914346 0.05716306
vt 0.4914346 0.2572903
vt 0.5251357 0.06153077
vt 0.5251361 0.2572902
vt 0.3226811 0.6818532
vt 0.3487169 0.680976
vt 0.3487164 0.2989827
vt 0.2388951 0.6727397
vt 0.238894 0.01170701
vt 0.3669087 0.2928632
vt 0.3669087 0.02426118
vt 0.3565299 0.8065618
vt 0.3275891 0.8161173
vt 0.3636248 0.8191646
vt 0.3309391 0.8230908
vt 0.3880904 0.807914
vt 0.4088524 0.7829964
vt 0.4049993 0.766497
vt 0.4139361 0.7647079
vt 0.4141403 0.7537733
vt 0.4915063 0.65467
vt 0.5249172 0.6499113
vt 0.4915056 0.2791412
vt 0.5249164 0.2743272
vt 0.4105721 0.3029338
vt 0.4105725 0.6850134
vt 0.3861622 0.3088294
vt 0.3861626 0.6908227
vt 0.02614109 0.666362
vt 0.1997968 0.666362
vt 0.01637626 0.4715723
vt 0.2095618 0.4715723
vt 0.2095618 0.04378539
vt 0.01637626 0.04378533
vn 0 -1 0
vn 0 -1 0
vn 0 -1 0
vn 0 -1 0
vn 0 -1 0
vn 0 -1 0
vn 0 -1 0
vn 0 -1 0
vn 0 -1 0
vn 0 -1 0
vn -0.1708327 -2.007033E-07 0.9853
vn 0.1708327 -2.011706E-07 0.9853
vn -0.1834913 -2.015506E-07 0.9830214
vn 0.1834913 -2.015648E-07 0.9830214
vn -0.5039194 -1.769294E-07 0.8637506
vn -0.5634554 -1.519727E-07 0.8261465
vn -0.8141667 -1.122198E-07 0.5806312
vn -0.8467966 0 0.5319169
vn -0.9554805 0 0.2950545
vn -0.9815642 -0.004314336 0.1910837
vn -0.9895262 -0.01245022 0.143816
vn -0.9998946 -0.01020789 0.0103275
vn -0.9932747 -0.02489688 0.1130728
vn 0.5039194 -1.768335E-07 0.8637506
vn 0.5634554 -1.518931E-07 0.8261465
vn 0.8141667 -1.109471E-07 0.5806312
vn 0.8467966 0 0.5319169
vn 0.9554805 0 0.2950545
vn 0.9815642 -0.004314336 0.1910837
vn 0.9895262 -0.01245022 0.143816
vn 0.9998946 -0.01020789 0.0103275
vn 0.9932747 -0.02489688 0.1130728
vn 0 -0.9771458 -0.21257
vn 0 -0.997303 -0.07339483
vn 0 -0.9982086 -0.05983011
vn 0 -0.9700274 0.2429955
vn 0 -0.9549526 0.2967584
vn 0 -0.8365902 0.5478293
vn -0.004036793 -0.7813676 0.6240579
vn -0.07171579 -0.6763192 0.7331093
vn -0.08989574 -0.6665268 0.740041
vn -0.07281654 -0.6060209 0.792109
vn -0.07749026 -0.592394 0.8019131
vn 0.07749029 -0.592394 0.8019131
vn 0.07281655 -0.6060209 0.7921089
vn 0.08989574 -0.6665269 0.740041
vn 0.07171578 -0.6763192 0.7331092
vn 0.004036792 -0.7813676 0.6240579
vn 0 -0.8365902 0.5478293
vn 0 -0.9549526 0.2967584
vn 0 -0.9700274 0.2429955
vn 0 -0.9982086 -0.05983012
vn 0 -0.997303 -0.07339483
vn 0 -0.9771458 -0.21257
vn 0 -1.136155E-07 1
vn 0 -1.136155E-07 1
vn 0 0 1
vn 0 0 1
vn 0 0 1
vn 0 0 1
vn 0 -1.776538E-07 1
vn 0 -1.776538E-07 1
vn -0.9163634 0 0.4003474
vn -0.9273482 0 0.3741997
vn -0.9598079 0 0.2806578
vn -0.9598081 0 0.2806575
vn -0.709223 0 0.7049842
vn -0.7334941 0 0.6796958
vn -0.3415296 0 0.939871
vn -0.3004641 -1.070729E-07 0.9537932
vn -0.04088305 -1.111595E-07 0.999164
vn -0.04088303 -1.135205E-07 0.999164
vn -1 0 0
vn -1 0 0
vn -1 0 0
vn -1 0 0
vn -1 0 0
vn -1 0 0
vn -1 0 0
vn -0.04088303 0 0.999164
vn -0.1094604 -0.1623562 0.980642
vn -0.2257118 -0.3471344 0.9102483
vn -0.2762364 -0.4536957 0.8472624
vn -0.3277702 -0.4937186 0.8054866
vn -0.2922216 -0.6104437 0.7361827
vn -0.3708155 -0.6528032 0.6605632
vn -0.3682056 -0.7212981 0.5866462
vn -0.3370275 -0.7811803 0.5255186
vn -0.6175659 -1.147204E-07 0.7865191
vn -0.5068569 -1.463392E-07 0.8620302
vn -0.3509403 -1.661022E-07 0.9363979
vn -0.3509401 -1.55009E-07 0.936398
vn -0.8267564 0 0.56256
vn -0.8918669 0 0.4522981
vn -0.9388604 0 0.3442982
vn -0.9388604 0 0.3442982
vn 0 0.9813027 0.1924711
vn 0 0.9760416 0.2175841
vn 0 0.9813027 0.1924711
vn 0 0.9760416 0.2175841
vn 0 0.9228551 0.3851473
vn 0 0.9228551 0.3851473
vn 0.008853997 0.6918445 0.7219923
vn -0.008853997 0.6918445 0.7219922
vn 0.01186974 0.3851684 0.9227699
vn 0.08776367 0.4763019 0.8748909
vn -0.01186974 0.3851684 0.9227699
vn -0.08776367 0.4763019 0.8748909
vn 0.9598081 0 0.2806575
vn 0.9273482 0 0.3741998
vn 0.9598079 0 0.2806578
vn 0.9163634 0 0.4003474
vn 0.709223 0 0.7049842
vn 0.7334941 0 0.6796958
vn 0.3415297 0 0.939871
vn 0.3004641 -1.070758E-07 0.9537932
vn 0.04088305 -1.112669E-07 0.999164
vn 0.04088303 -1.135205E-07 0.999164
vn 1 0 0
vn 1 0 0
vn 1 0 0
vn 1 0 0
vn 1 0 0
vn 1 0 0
vn 1 0 0
vn 0.2762365 -0.4536957 0.8472624
vn 0.1094604 -0.1623562 0.980642
vn 0.2257118 -0.3471344 0.9102483
vn 0.04088303 0 0.999164
vn 0.3277702 -0.4937186 0.8054866
vn 0.2922216 -0.6104437 0.7361827
vn 0.3708155 -0.6528032 0.6605632
vn 0.3682056 -0.7212981 0.5866462
vn 0.3370275 -0.7811803 0.5255186
vn 0.6175659 -1.146773E-07 0.7865191
vn 0.3509403 -1.661254E-07 0.9363979
vn 0.5068569 -1.464773E-07 0.8620302
vn 0.3509401 -1.559637E-07 0.936398
vn 0.8267564 0 0.56256
vn 0.8918669 0 0.4522981
vn 0.9388603 0 0.3442982
vn 0.9388604 0 0.3442982
vn 0 1.477845E-07 -1
vn 0 1.477845E-07 -1
vn 0 1.580902E-07 -1
vn 0 1.580902E-07 -1
vn 0 1.682316E-07 -1
vn 0 1.682316E-07 -1
g reciever_57_fn_five_seven_cover_std_LOD1_0
f 3/3/3 2/2/2 1/1/1
f 3/3/3 4/4/4 2/2/2
f 3/3/3 5/5/5 4/4/4
f 3/3/3 6/6/6 5/5/5
f 6/6/6 7/7/7 5/5/5
f 6/6/6 8/8/8 7/7/7
f 8/8/8 9/9/9 7/7/7
f 8/8/8 10/10/10 9/9/9
f 13/13/13 12/12/12 11/11/11
f 13/13/13 14/14/14 12/12/12
f 13/13/13 11/11/11 15/15/15
f 13/13/13 15/15/15 16/16/16
f 16/16/16 15/15/15 17/17/17
f 16/16/16 17/17/17 18/18/18
f 18/18/18 17/17/17 19/19/19
f 18/18/18 19/19/19 20/20/20
f 19/19/19 21/21/21 20/20/20
f 20/20/20 21/21/21 22/22/22
f 21/21/21 23/23/23 22/22/22
f 24/24/24 12/12/12 14/14/14
f 24/24/24 14/14/14 25/25/25
f 26/26/26 24/24/24 25/25/25
f 26/26/26 25/25/25 27/27/27
f 28/28/28 26/26/26 27/27/27
f 28/28/28 27/27/27 29/29/29
f 30/30/30 28/28/28 29/29/29
f 30/30/30 29/29/29 31/31/31
f 32/32/32 30/30/30 31/31/31
f 35/35/35 34/34/34 33/33/33
f 36/36/36 34/34/34 35/35/35
f 36/36/36 35/35/35 37/37/37
f 37/37/37 38/38/38 36/36/36
f 37/37/37 39/39/39 38/38/38
f 39/39/39 40/40/40 38/38/38
f 39/39/39 41/41/41 40/40/40
f 41/41/41 42/42/42 40/40/40
f 41/41/41 43/43/43 42/42/42
f 44/44/44 42/42/42 43/43/43
f 44/44/44 45/45/45 42/42/42
f 45/45/45 44/44/44 46/46/46
f 45/45/45 46/46/46 47/47/47
f 47/47/47 46/46/46 48/48/48
f 47/47/47 48/48/48 49/49/49
f 49/49/49 48/48/48 50/50/50
f 49/49/49 50/50/50 51/51/51
f 51/51/51 50/50/50 52/52/52
f 51/51/51 52/52/52 53/53/53
f 53/53/53 52/52/52 54/54/54
f 57/57/57 56/56/56 55/55/55
f 57/57/57 58/58/58 56/56/56
f 57/57/57 59/59/59 58/58/58
f 57/57/57 60/60/60 59/59/59
f 60/60/60 61/61/61 59/59/59
f 60/60/60 62/62/62 61/61/61
f 65/65/65 64/64/64 63/63/63
f 65/65/65 66/66/66 64/64/64
f 63/63/63 64/64/64 67/67/67
f 63/63/63 67/67/67 68/68/68
f 69/69/69 68/68/68 67/67/67
f 69/69/69 67/67/67 70/70/70
f 71/71/71 69/69/69 70/70/70
f 71/71/71 70/70/70 72/72/72
f 75/75/75 74/74/74 73/73/73
f 73/73/73 74/74/74 76/76/76
f 74/74/74 77/77/77 76/76/76
f 78/78/78 77/77/77 74/74/74
f 78/78/78 79/79/79 77/77/77
f 82/82/82 81/81/81 80/80/80
f 82/82/82 83/83/83 81/81/81
f 82/82/82 84/84/84 83/83/83
f 84/84/84 85/85/85 83/83/83
f 85/85/85 86/86/86 83/83/83
f 85/85/85 87/87/87 86/86/86
f 87/87/87 88/88/88 86/86/86
f 91/91/91 90/90/90 89/89/89
f 91/91/91 92/92/92 90/90/90
f 89/89/89 90/90/90 93/93/93
f 89/89/89 93/93/93 94/94/94
f 94/94/94 93/93/93 95/95/95
f 94/94/94 95/95/95 96/96/96
f 99/99/99 98/98/98 97/97/97
f 99/99/99 100/100/100 98/98/98
f 101/101/101 98/98/98 100/100/100
f 101/101/101 102/102/102 98/98/98
f 103/103/103 102/102/102 101/101/101
f 103/103/103 104/104/104 102/102/102
f 105/105/105 104/104/104 103/103/103
f 105/105/105 103/103/103 106/106/106
f 105/105/105 107/107/107 104/104/104
f 104/104/104 107/107/107 108/108/108
f 111/111/111 110/110/110 109/109/109
f 111/111/111 112/112/112 110/110/110
f 113/113/113 110/110/110 112/112/112
f 113/113/113 112/112/112 114/114/114
f 113/113/113 114/114/114 115/115/115
f 113/113/113 115/115/115 116/116/116
f 116/116/116 115/115/115 117/117/117
f 116/116/116 117/117/117 118/118/118
f 121/121/121 120/120/120 119/119/119
f 121/121/121 119/119/119 122/122/122
f 123/123/123 121/121/121 122/122/122
f 123/123/123 124/124/124 121/121/121
f 125/125/125 124/124/124 123/123/123
f 128/128/128 127/127/127 126/126/126
f 128/128/128 129/129/129 127/127/127
f 130/130/130 128/128/128 126/126/126
f 131/131/131 130/130/130 126/126/126
f 132/132/132 131/131/131 126/126/126
f 133/133/133 131/131/131 132/132/132
f 134/134/134 133/133/133 132/132/132
f 137/137/137 136/136/136 135/135/135
f 137/137/137 138/138/138 136/136/136
f 139/139/139 137/137/137 135/135/135
f 139/139/139 135/135/135 140/140/140
f 141/141/141 139/139/139 140/140/140
f 141/141/141 140/140/140 142/142/142
f 145/145/145 144/144/144 143/143/143
f 145/145/145 146/146/146 144/144/144
f 145/145/145 147/147/147 146/146/146
f 145/145/145 148/148/148 147/147/147
