g reciever_ak74_izhmash_ak74_std_LOD1
v -0.007375456 0.2143775 -0.008970143
v -0.009495496 0.2109954 -0.007570944
v -0.009511496 0.2109954 -0.008062143
v -0.003816457 0.2072174 -0.003475044
v -7.045157E-05 0.2112605 -0.005315144
v 0.003675553 0.2072174 -0.003475044
v 0.007234553 0.2143775 -0.008970143
v 0.009354553 0.2109954 -0.007570944
v 0.0186602 0.04450346 -0.02791084
v 0.0186602 0.04268056 -0.02656014
v 0.0186705 0.2213584 -0.02017215
v 0.0186602 0.04450346 -0.03478919
v 0.0186705 0.2325244 -0.03407511
v 0.0186602 0.04698345 -0.03773681
v 0.0186705 0.2328945 -0.03773681
v 0.0186602 0.0008304596 -0.02017215
v 0.0186602 0.0008304596 -0.02656014
v -0.007329457 0.2141405 -0.009648745
v -0.009420496 0.2107405 -0.008717745
v -0.009416496 0.2107405 -0.008694744
v -0.003791447 0.2069654 -0.004299743
v -7.045157E-05 0.2110285 -0.006010744
v 0.003650553 0.2069654 -0.004299743
v 0.007204553 0.2141425 -0.009657745
v 0.009283543 0.2107424 -0.008702746
v 0.0182375 0.04518506 -0.02851744
v 0.0182485 0.2211125 -0.02082174
v 0.0182375 0.04336216 -0.02716674
v 0.0182375 0.04518506 -0.03539577
v 0.0182445 0.2316384 -0.03391922
v 0.0182375 0.04766506 -0.03773681
v 0.0182445 0.2320064 -0.03773681
v 0.0182475 0.00151206 -0.02082474
v 0.0182375 0.00151206 -0.02716674
v -0.007375456 0.2143775 -0.008970143
v 0.007234553 0.2143775 -0.008970143
v -7.045157E-05 0.2112605 -0.005315144
v 0.009992553 0.2203555 -0.01598115
v -0.0101335 0.2203555 -0.01598115
v 0.0160535 0.2245644 -0.02085414
v -0.0161945 0.2245644 -0.02085414
v -0.0160255 0.2349555 -0.03312211
v 0.0158845 0.2349555 -0.03312211
v 0.007204553 0.2141425 -0.009657745
v -0.007329457 0.2141405 -0.009648745
v -7.045157E-05 0.2110285 -0.006010744
v 0.009959553 0.2201194 -0.01666774
v -0.0101005 0.2201194 -0.01666774
v 0.0160145 0.2242715 -0.02153474
v -0.01615549 0.2242725 -0.02153474
v 0.0158415 0.2340164 -0.03299022
v -0.0159825 0.2340164 -0.03299022
v -0.0184855 0.2213584 -0.02018514
v -0.0122705 0.2169925 -0.01505414
v -0.0184855 0.1501182 -0.02062414
v -0.0122705 0.07450546 -0.01505414
v -0.01853549 0.07875445 -0.02042714
v -0.009511496 0.2109954 -0.008062143
v -0.0105075 0.06471945 -0.01058814
v -0.009495496 0.2109954 -0.007570944
v -0.009495496 0.0008304596 -0.007570944
v -0.003933456 0.0008304596 -0.003509245
v -0.003816457 0.2072174 -0.003475044
v 0.003675553 0.2072174 -0.003475044
v 0.003743553 0.0008304596 -0.003494444
v 0.009354553 0.0008304596 -0.007570944
v 0.009354553 0.2109954 -0.007570944
v 0.0121295 0.0008304596 -0.01505414
v 0.0121295 0.2169925 -0.01505414
v 0.0186602 0.0008304596 -0.02017215
v 0.0186705 0.2213584 -0.02017215
v -0.0105075 0.0008304596 -0.01058814
v -0.0183835 0.1498834 -0.02126374
v -0.01840349 0.2211024 -0.02085475
v -0.0183815 0.1644208 -0.03773681
v -0.0183915 0.2316265 -0.03392422
v -0.0183855 0.2320064 -0.03773681
v -0.0184855 0.1501182 -0.02062414
v -0.0184855 0.1646658 -0.03773681
v -0.0184855 0.2213584 -0.02018514
v -0.0184855 0.2325244 -0.03407511
v -0.0184855 0.2328945 -0.03773681
v 0.009992553 0.2203555 -0.01598115
v 0.0121295 0.2169925 -0.01505414
v 0.007234553 0.2143775 -0.008970143
v 0.009354553 0.2109954 -0.007570944
v 0.0186705 0.2213584 -0.02017215
v 0.0160535 0.2245644 -0.02085414
v 0.0186705 0.2325244 -0.03407511
v 0.0158845 0.2349555 -0.03312211
v -0.02013149 0.08006905 -0.02221574
v -0.0184705 0.07943606 -0.02111974
v -0.0201255 0.1460495 -0.02220174
v -0.0183835 0.1498834 -0.02126374
v -0.0201195 0.1429835 -0.02668274
v -0.0201195 0.08109106 -0.02668274
v 0.0120425 0.00151206 -0.01572374
v 0.0182475 0.00151206 -0.02082474
v 0.0120575 0.2167395 -0.01573575
v 0.0182485 0.2211125 -0.02082174
v 0.009283543 0.2107424 -0.008702746
v 0.009267543 0.00151206 -0.008690744
v 0.003650553 0.2069654 -0.004299743
v 0.003725544 0.00151206 -0.004319744
v -0.003791447 0.2069654 -0.004299743
v -0.003867456 0.00151206 -0.004319744
v -0.009408497 0.00151206 -0.008690744
v -0.009416496 0.2107405 -0.008694744
v -0.0104075 0.06540105 -0.01123374
v -0.0104075 0.00151206 -0.01123374
v -0.009420496 0.2107405 -0.008717745
v -0.0121825 0.07518706 -0.01572274
v -0.0121985 0.2167395 -0.01573575
v -0.0184705 0.07943606 -0.02111974
v -0.0183835 0.1498834 -0.02126374
v -0.01840349 0.2211024 -0.02085475
v 0.0158845 0.2349555 -0.03312211
v 0.0158845 0.2355185 -0.03773681
v 0.0186705 0.2325244 -0.03407511
v 0.0186705 0.2328945 -0.03773681
v -0.0121985 0.2167395 -0.01573575
v -0.0101005 0.2201194 -0.01666774
v -0.01840349 0.2211024 -0.02085475
v -0.01615549 0.2242725 -0.02153474
v -0.007329457 0.2141405 -0.009648745
v -0.009420496 0.2107405 -0.008717745
v -0.0183915 0.2316265 -0.03392422
v -0.0159825 0.2340164 -0.03299022
v -0.009511496 0.2109954 -0.008062143
v -0.0122705 0.2169925 -0.01505414
v -0.007375456 0.2143775 -0.008970143
v -0.0101335 0.2203555 -0.01598115
v -0.0184855 0.2213584 -0.02018514
v -0.0161945 0.2245644 -0.02085414
v -0.0184855 0.2325244 -0.03407511
v -0.0160255 0.2349555 -0.03312211
v -0.0201195 0.1429835 -0.02668274
v -0.0201255 0.1460495 -0.02220174
v -0.0201195 0.1540089 -0.03773681
v -0.0201225 0.1601309 -0.03773681
v -0.0183835 0.1498834 -0.02126374
v -0.0183815 0.1644208 -0.03773681
v -0.0159825 0.2340164 -0.03299022
v -0.0159835 0.2345715 -0.03773681
v -0.0183915 0.2316265 -0.03392422
v -0.0183855 0.2320064 -0.03773681
v -0.0159835 0.2345715 -0.03773681
v -0.0159825 0.2340164 -0.03299022
v 0.0158425 0.2345715 -0.03773681
v 0.0158415 0.2340164 -0.03299022
v 0.0120575 0.2167395 -0.01573575
v 0.0182485 0.2211125 -0.02082174
v 0.009959553 0.2201194 -0.01666774
v 0.0160145 0.2242715 -0.02153474
v 0.007204553 0.2141425 -0.009657745
v 0.009283543 0.2107424 -0.008702746
v 0.0182445 0.2316384 -0.03391922
v 0.0158415 0.2340164 -0.03299022
v -0.0202265 0.07938746 -0.02155914
v -0.0202265 0.1462843 -0.02155914
v -0.01853549 0.07875445 -0.02042714
v -0.0184855 0.1501182 -0.02062414
v -0.0202265 0.1432083 -0.02607615
v -0.0202265 0.08040946 -0.02607615
v 0.0158415 0.2340164 -0.03299022
v 0.0182445 0.2316384 -0.03391922
v 0.0158425 0.2345715 -0.03773681
v 0.0182445 0.2320064 -0.03773681
v -0.0202265 0.1432083 -0.02607615
v -0.0202265 0.1542338 -0.03773681
v -0.0202265 0.1462843 -0.02155914
v -0.0202265 0.1603757 -0.03773681
v -0.0184855 0.1501182 -0.02062414
v -0.0184855 0.1646658 -0.03773681
v -0.0160255 0.2349555 -0.03312211
v -0.0184855 0.2325244 -0.03407511
v -0.0160255 0.2355185 -0.03773681
v -0.0184855 0.2328945 -0.03773681
v -0.0160255 0.2355185 -0.03773681
v 0.0158845 0.2355185 -0.03773681
v -0.0160255 0.2349555 -0.03312211
v 0.0158845 0.2349555 -0.03312211
vt 0.472923 0.0354121
vt 0.482449 0.0552053
vt 0.48259 0.0550162
vt 0.460048 0.0902355
vt 0.44543 0.0638451
vt 0.430616 0.0902355
vt 0.418146 0.035
vt 0.408453 0.0546139
vt 0.683294 0.752391
vt 0.665879 0.76339
vt 0.6263 0.0724252
vt 0.715665 0.752373
vt 0.697335 0.0364432
vt 0.730662 0.742902
vt 0.729683 0.035
vt 0.627423 0.919063
vt 0.666053 0.91905
vt 0.310906 0.138737
vt 0.304716 0.151232
vt 0.304761 0.151302
vt 0.318909 0.174163
vt 0.328398 0.157276
vt 0.337768 0.174163
vt 0.346059 0.138958
vt 0.352095 0.151617
vt 0.797449 0.642797
vt 0.761158 0.204282
vt 0.786212 0.649887
vt 0.818325 0.642792
vt 0.806894 0.181141
vt 0.828001 0.636686
vt 0.827719 0.180232
vt 0.761524 0.750287
vt 0.786278 0.75028
vt 0.706781 0.911754
vt 0.707046 0.823366
vt 0.688542 0.86739
vt 0.742493 0.806516
vt 0.742159 0.929258
vt 0.76743 0.771532
vt 0.766952 0.965
vt 0.817578 0.965
vt 0.817578 0.771532
vt 0.822117 0.0693058
vt 0.821976 0.126007
vt 0.833863 0.0977925
vt 0.799309 0.0580275
vt 0.799104 0.136926
vt 0.783334 0.035
vt 0.783037 0.15948
vt 0.750785 0.035
vt 0.750785 0.15948
vt 0.35753 0.881548
vt 0.30874 0.86491
vt 0.358965 0.609615
vt 0.308139 0.316093
vt 0.358104 0.332284
vt 0.263232 0.842049
vt 0.279041 0.278768
vt 0.262958 0.842047
vt 0.262072 0.0350072
vt 0.21926 0.0350134
vt 0.219389 0.827673
vt 0.174081 0.82772
vt 0.173098 0.0350134
vt 0.129494 0.0350134
vt 0.130538 0.842182
vt 0.0837294 0.0350357
vt 0.0848194 0.865106
vt 0.035 0.0350598
vt 0.0361212 0.881806
vt 0.278774 0.035
vt 0.844936 0.761158
vt 0.844148 0.936473
vt 0.909975 0.797951
vt 0.889993 0.959466
vt 0.91082 0.960336
vt 0.855956 0.180232
vt 0.956943 0.237348
vt 0.854522 0.452167
vt 0.925706 0.487956
vt 0.958071 0.489312
vt 0.493137 0.11799
vt 0.493137 0.14041
vt 0.528355 0.11799
vt 0.528355 0.14041
vt 0.460282 0.14041
vt 0.460282 0.11799
vt 0.408453 0.14041
vt 0.408453 0.11799
vt 0.602176 0.913331
vt 0.602176 0.90639
vt 0.366958 0.913331
vt 0.366958 0.90639
vt 0.366958 0.924186
vt 0.602176 0.924186
vt 0.419058 0.325495
vt 0.387705 0.325503
vt 0.419334 0.860727
vt 0.388071 0.871496
vt 0.448832 0.84596
vt 0.448566 0.325487
vt 0.476735 0.836657
vt 0.476115 0.32548
vt 0.505782 0.836649
vt 0.505751 0.325473
vt 0.533295 0.325466
vt 0.53365 0.845934
vt 0.544058 0.482692
vt 0.543961 0.325463
vt 0.533743 0.845931
vt 0.562912 0.50677
vt 0.56324 0.86068
vt 0.59526 0.517217
vt 0.595492 0.696064
vt 0.594703 0.871389
vt 0.304716 0.0566084
vt 0.326874 0.0566084
vt 0.304716 0.035
vt 0.326874 0.035
vt 0.327431 0.200979
vt 0.327431 0.215223
vt 0.348603 0.200979
vt 0.348603 0.215223
vt 0.304716 0.215223
vt 0.304716 0.200979
vt 0.381915 0.200979
vt 0.381915 0.215223
vt 0.52835 0.169858
vt 0.493178 0.169858
vt 0.52835 0.192287
vt 0.493178 0.192287
vt 0.460291 0.169858
vt 0.460291 0.192287
vt 0.408453 0.169858
vt 0.408453 0.192287
vt 0.325463 0.242474
vt 0.325463 0.263592
vt 0.369774 0.242474
vt 0.369774 0.263592
vt 0.325463 0.27994
vt 0.369774 0.27994
vt 0.221726 0.864895
vt 0.221726 0.879131
vt 0.235371 0.864895
vt 0.235371 0.879131
vt 0.4764 0.267047
vt 0.4764 0.242474
vt 0.398079 0.267047
vt 0.398079 0.242474
vt 0.386287 0.121328
vt 0.386287 0.0878254
vt 0.377332 0.121328
vt 0.377332 0.0878254
vt 0.377332 0.15731
vt 0.386287 0.15731
vt 0.386287 0.035
vt 0.377332 0.035
vt 0.107616 0.923591
vt 0.337846 0.923591
vt 0.107616 0.90639
vt 0.337846 0.90639
vt 0.337846 0.950538
vt 0.107616 0.950538
vt 0.180232 0.854522
vt 0.180232 0.86814
vt 0.194472 0.854522
vt 0.194472 0.86814
vt 0.570569 0.221726
vt 0.501816 0.221726
vt 0.570569 0.254634
vt 0.501816 0.254634
vt 0.570569 0.279988
vt 0.501816 0.279988
vt 0.304716 0.0868685
vt 0.304716 0.108478
vt 0.326874 0.0868685
vt 0.326874 0.108478
vt 0.553685 0.035
vt 0.553685 0.156755
vt 0.591962 0.035
vt 0.591962 0.156755
vn -0.2783692 0.5379503 0.7956884
vn -0.5735119 0.5932353 0.564939
vn -0.8418272 0.53905 0.0274214
vn -0.130673 0.4921056 0.8606721
vn 0 0.5057824 0.862661
vn 0.1306733 0.4921055 0.8606723
vn 0.2276622 0.5191044 0.8238329
vn 0.2593899 0.5035465 0.8241103
vn 1 -5.62773E-05 -4.480876E-05
vn 1 -4.630922E-05 -0.0002524179
vn 1 -5.455094E-05 -4.73814E-05
vn 1 -5.681932E-05 -1.787618E-05
vn 1 -5.512031E-05 -1.924049E-05
vn 1 -5.461187E-05 -4.559129E-05
vn 1 -5.540115E-05 -5.598163E-06
vn 1 -4.503692E-06 -2.950532E-05
vn 1 0 0
vn 0.28888 -0.4786337 -0.8291309
vn 0.8249686 -0.5466582 -0.1434977
vn 0.6196681 -0.5401493 -0.5694299
vn 0.1517439 -0.4657826 -0.8717914
vn -8.025827E-05 -0.4865993 -0.8736252
vn -0.1519216 -0.4658829 -0.871707
vn -0.2871469 -0.4776624 -0.8302923
vn -0.3474499 -0.4443825 -0.8257135
vn -1 6.042481E-05 4.811159E-05
vn -1 3.498441E-05 0.0003470245
vn -0.9999992 1.406465E-05 0.001333493
vn -1 5.333201E-05 2.366412E-05
vn -1 3.688764E-05 0.0001199918
vn -1 3.723686E-05 3.912903E-05
vn -1 3.797286E-05 3.660467E-06
vn -0.9999988 4.340031E-07 0.001579726
vn -0.9999988 0 0.001576862
vn 0 0.7609268 0.6488377
vn 0 0.7609268 0.6488377
vn 0 0.7608845 0.6488873
vn 0 0.758263 0.6519489
vn 0 0.7582629 0.6519489
vn 0 0.7609181 0.6488481
vn 0 0.7609181 0.6488481
vn 0 0.7630668 0.6463197
vn 0 0.7630668 0.6463196
vn -0.0002981186 -0.7607248 -0.6490744
vn -0.0001308657 -0.7609282 -0.6488362
vn -0.0002985725 -0.760198 -0.6496913
vn -6.524999E-05 -0.7608656 -0.6489095
vn -1.357731E-05 -0.7609089 -0.6488587
vn -1.781123E-05 -0.7613658 -0.6483225
vn -1.238663E-05 -0.7613661 -0.6483222
vn -1.696235E-05 -0.7616916 -0.6479398
vn 0 -0.7617149 -0.6479123
vn -0.6386222 -0.00474189 0.7695059
vn -0.7476783 -0.003191662 0.6640533
vn -0.6657252 -9.319393E-05 0.7461969
vn -0.8704007 0.0006767726 0.4923435
vn -0.6500003 0.002553206 0.7599297
vn -0.972937 0.002637495 0.2310554
vn -0.9459582 4.805623E-06 0.3242884
vn -0.9210202 0.004138625 0.389493
vn -0.8069444 0 0.5906274
vn -0.3111149 -4.840231E-05 0.9503723
vn -0.3486933 4.235949E-05 0.937237
vn 0.3488039 -7.326498E-05 0.9371958
vn 0.3081571 1.210661E-05 0.9513355
vn 0.7967877 6.011035E-05 0.6042593
vn 0.8548268 0 0.5189134
vn 0.8076773 0 0.5896248
vn 0.7400181 -2.011698E-05 0.6725869
vn 0.6168182 -7.036359E-07 0.7871057
vn 0.6162422 -2.878138E-05 0.7875566
vn -0.9480909 0 0.3179995
vn 0.9999999 0.0002787105 0.0003673201
vn 0.9999996 0.0001160339 0.0009135072
vn 0.9999999 0.0002543858 0.0004607296
vn 0.999999 7.151302E-05 0.001362116
vn 0.9999988 5.917631E-05 0.001579578
vn -1 0 0
vn -1 0 0
vn -1 0 0
vn -1 0 0
vn -1 0 0
vn 0.4208313 0.4811229 0.7690396
vn 0.4602703 0.5042484 0.7306743
vn 0.5045187 0.5681596 0.6501196
vn 0.4957501 0.5786759 0.6475848
vn 0.4576745 0.5244204 0.7179954
vn 0.5244415 0.5600075 0.6413679
vn 0.6595243 0.5791171 0.4792193
vn 0.6647094 0.5745798 0.4775138
vn 0.8357196 8.148721E-05 -0.5491564
vn 0.5491226 6.796024E-05 -0.8357417
vn 0.6929185 -0.001964978 -0.7210132
vn 0.4781632 -0.002385767 -0.8782678
vn 0.9999989 -8.823411E-05 0.001443563
vn 0.9999964 0 0.002686269
vn -0.8084643 2.640987E-05 -0.5885453
vn -0.6350333 1.472501E-06 -0.7724847
vn -0.7444009 2.329706E-05 -0.6677329
vn -0.6347848 1.34529E-05 -0.7726889
vn -0.8540453 3.155773E-05 -0.5201986
vn -0.8024185 -4.980823E-05 -0.5967618
vn -0.3688905 4.416955E-05 -0.9294729
vn -0.3278116 -2.768015E-05 -0.9447431
vn 0.368821 4.800356E-05 -0.9295005
vn 0.3278523 -2.932279E-05 -0.944729
vn 0.8028966 -7.684999E-05 -0.5961183
vn 0.8911735 -0.002322518 -0.4536568
vn 0.9308625 3.089811E-05 -0.3653698
vn 0.930756 0 -0.3656408
vn 0.9577765 -0.001518333 -0.2875096
vn 0.8700384 3.673389E-05 -0.4929838
vn 0.7473564 0.003066492 -0.6644163
vn 0.6521736 -6.544521E-05 -0.7580697
vn 0.6787605 -0.002073252 -0.7343568
vn 0.6382896 0.004599984 -0.7697826
vn 0.6720616 0.7350452 0.08967532
vn 0.6778724 0.730632 0.08164582
vn 0.677233 0.7311248 0.08253517
vn 0.6837776 0.7259935 0.07336003
vn 0.4756133 -0.4951534 -0.7270593
vn 0.4317585 -0.4762992 -0.7659789
vn 0.4833393 -0.5001737 -0.7184771
vn 0.5706687 -0.534563 -0.6233615
vn 0.5467652 -0.5174093 -0.6582822
vn 0.547205 -0.5168177 -0.6583813
vn 0.7065645 -0.5452024 -0.4511329
vn 0.7109216 -0.5409546 -0.4493979
vn -0.5425063 0.5198125 0.6599106
vn -0.470698 0.498848 0.7277322
vn -0.5418172 0.5207322 0.6597514
vn -0.4287406 0.4792815 0.7658137
vn -0.4834724 0.5001486 0.718405
vn -0.5697664 0.5338974 0.6247557
vn -0.7058141 0.5461676 0.4511402
vn -0.7099313 0.5421988 0.4494642
vn 0.9999994 0.0007963745 0.0007943097
vn 0.9777983 -0.1553256 -0.1406566
vn 0.9999996 0.0005306829 0.0006581827
vn 0.9354938 -0.2647369 -0.2340209
vn 0.8924569 -0.3347357 -0.3024444
vn 0.8794707 -0.3569144 -0.3148703
vn 0.7176399 -0.6916846 -0.08102722
vn 0.7233276 -0.6865827 -0.07349392
vn 0.7219426 -0.6878392 -0.07533934
vn 0.7282873 -0.6820058 -0.06682605
vn 0 -0.9932334 -0.1161349
vn 0 -0.9932334 -0.1161349
vn 0 -0.9932334 -0.1161349
vn 0 -0.9932334 -0.1161349
vn -0.4748666 -0.4951557 -0.7275457
vn -0.4787744 -0.5028414 -0.7196705
vn -0.4301127 -0.4767533 -0.7666221
vn -0.5677708 -0.538138 -0.6229315
vn -0.5460159 -0.5189419 -0.6576974
vn -0.5461825 -0.5187188 -0.6577351
vn -0.7054689 -0.546034 -0.4518411
vn -0.7099923 -0.5416397 -0.4500415
vn -0.8380404 0 0.5456082
vn -0.6929201 0.002240922 0.7210109
vn -0.5545276 6.374766E-05 0.8321653
vn -0.4778421 0.00275974 0.8784415
vn -1 0 0
vn -1 0 0
vn -0.7167534 -0.6925909 -0.08113281
vn -0.7214377 -0.6884088 -0.07497229
vn -0.7229639 -0.6870239 -0.07294808
vn -0.7283396 -0.6820547 -0.06574796
vn -1 0 0
vn -1 0 0
vn -0.977293 0.1597782 0.1391741
vn -0.9381368 0.2635927 0.22454
vn -0.8944262 0.3375703 0.2933394
vn -0.8826033 0.3581838 0.3044925
vn -0.7167529 0.6921948 0.08444759
vn -0.7214041 0.6881096 0.0779826
vn -0.7224537 0.687173 0.07651164
vn -0.7278008 0.6823139 0.06894631
vn 0 0.9926401 0.1211018
vn 0 0.9926401 0.1211018
vn 0 0.9926401 0.1211018
vn 0 0.9926401 0.1211018
g reciever_ak74_izhmash_ak74_std_LOD1_0
f 3/3/3 2/2/2 1/1/1
f 4/4/4 1/1/1 2/2/2
f 1/1/1 4/4/4 5/5/5
f 6/6/6 5/5/5 4/4/4
f 6/6/6 7/7/7 5/5/5
f 7/7/7 6/6/6 8/8/8
f 11/11/11 10/10/10 9/9/9
f 12/12/12 11/11/11 9/9/9
f 11/11/11 12/12/12 13/13/13
f 14/14/14 13/13/13 12/12/12
f 13/13/13 14/14/14 15/15/15
f 16/16/16 10/10/10 11/11/11
f 10/10/10 16/16/16 17/17/17
f 20/20/20 19/19/19 18/18/18
f 18/18/18 21/21/21 20/20/20
f 21/21/21 18/18/18 22/22/22
f 22/22/22 23/23/23 21/21/21
f 24/24/24 23/23/23 22/22/22
f 23/23/23 24/24/24 25/25/25
f 28/28/28 27/27/27 26/26/26
f 27/27/27 29/29/29 26/26/26
f 29/29/29 27/27/27 30/30/30
f 30/30/30 31/31/31 29/29/29
f 31/31/31 30/30/30 32/32/32
f 28/28/28 33/33/33 27/27/27
f 33/33/33 28/28/28 34/34/34
f 37/37/37 36/36/36 35/35/35
f 38/38/38 35/35/35 36/36/36
f 35/35/35 38/38/38 39/39/39
f 40/40/40 39/39/39 38/38/38
f 39/39/39 40/40/40 41/41/41
f 40/40/40 42/42/42 41/41/41
f 42/42/42 40/40/40 43/43/43
f 46/46/46 45/45/45 44/44/44
f 45/45/45 47/47/47 44/44/44
f 47/47/47 45/45/45 48/48/48
f 48/48/48 49/49/49 47/47/47
f 49/49/49 48/48/48 50/50/50
f 50/50/50 51/51/51 49/49/49
f 51/51/51 50/50/50 52/52/52
f 55/55/55 54/54/54 53/53/53
f 54/54/54 55/55/55 56/56/56
f 57/57/57 56/56/56 55/55/55
f 56/56/56 58/58/58 54/54/54
f 58/58/58 56/56/56 59/59/59
f 58/58/58 59/59/59 60/60/60
f 61/61/61 60/60/60 59/59/59
f 61/61/61 62/62/62 60/60/60
f 63/63/63 60/60/60 62/62/62
f 62/62/62 64/64/64 63/63/63
f 64/64/64 62/62/62 65/65/65
f 65/65/65 66/66/66 64/64/64
f 67/67/67 64/64/64 66/66/66
f 68/68/68 67/67/67 66/66/66
f 67/67/67 68/68/68 69/69/69
f 70/70/70 69/69/69 68/68/68
f 69/69/69 70/70/70 71/71/71
f 72/72/72 61/61/61 59/59/59
f 75/75/75 74/74/74 73/73/73
f 74/74/74 75/75/75 76/76/76
f 77/77/77 76/76/76 75/75/75
f 80/80/80 79/79/79 78/78/78
f 79/79/79 80/80/80 81/81/81
f 81/81/81 82/82/82 79/79/79
f 85/85/85 84/84/84 83/83/83
f 84/84/84 85/85/85 86/86/86
f 87/87/87 83/83/83 84/84/84
f 83/83/83 87/87/87 88/88/88
f 89/89/89 88/88/88 87/87/87
f 88/88/88 89/89/89 90/90/90
f 93/93/93 92/92/92 91/91/91
f 92/92/92 93/93/93 94/94/94
f 91/91/91 95/95/95 93/93/93
f 95/95/95 91/91/91 96/96/96
f 99/99/99 98/98/98 97/97/97
f 98/98/98 99/99/99 100/100/100
f 97/97/97 101/101/101 99/99/99
f 101/101/101 97/97/97 102/102/102
f 102/102/102 103/103/103 101/101/101
f 103/103/103 102/102/102 104/104/104
f 104/104/104 105/105/105 103/103/103
f 105/105/105 104/104/104 106/106/106
f 107/107/107 105/105/105 106/106/106
f 105/105/105 107/107/107 108/108/108
f 107/107/107 109/109/109 108/108/108
f 110/110/110 109/109/109 107/107/107
f 111/111/111 108/108/108 109/109/109
f 112/112/112 111/111/111 109/109/109
f 111/111/111 112/112/112 113/113/113
f 112/112/112 114/114/114 113/113/113
f 115/115/115 113/113/113 114/114/114
f 113/113/113 115/115/115 116/116/116
f 119/119/119 118/118/118 117/117/117
f 118/118/118 119/119/119 120/120/120
f 123/123/123 122/122/122 121/121/121
f 122/122/122 123/123/123 124/124/124
f 125/125/125 121/121/121 122/122/122
f 121/121/121 125/125/125 126/126/126
f 127/127/127 124/124/124 123/123/123
f 124/124/124 127/127/127 128/128/128
f 131/131/131 130/130/130 129/129/129
f 130/130/130 131/131/131 132/132/132
f 132/132/132 133/133/133 130/130/130
f 133/133/133 132/132/132 134/134/134
f 134/134/134 135/135/135 133/133/133
f 135/135/135 134/134/134 136/136/136
f 139/139/139 138/138/138 137/137/137
f 138/138/138 139/139/139 140/140/140
f 140/140/140 141/141/141 138/138/138
f 141/141/141 140/140/140 142/142/142
f 145/145/145 144/144/144 143/143/143
f 144/144/144 145/145/145 146/146/146
f 149/149/149 148/148/148 147/147/147
f 148/148/148 149/149/149 150/150/150
f 153/153/153 152/152/152 151/151/151
f 152/152/152 153/153/153 154/154/154
f 151/151/151 155/155/155 153/153/153
f 155/155/155 151/151/151 156/156/156
f 154/154/154 157/157/157 152/152/152
f 157/157/157 154/154/154 158/158/158
f 161/161/161 160/160/160 159/159/159
f 160/160/160 161/161/161 162/162/162
f 163/163/163 159/159/159 160/160/160
f 159/159/159 163/163/163 164/164/164
f 167/167/167 166/166/166 165/165/165
f 166/166/166 167/167/167 168/168/168
f 171/171/171 170/170/170 169/169/169
f 170/170/170 171/171/171 172/172/172
f 173/173/173 172/172/172 171/171/171
f 172/172/172 173/173/173 174/174/174
f 177/177/177 176/176/176 175/175/175
f 176/176/176 177/177/177 178/178/178
f 181/181/181 180/180/180 179/179/179
f 180/180/180 181/181/181 182/182/182
