g reciever_pp-19-01_izhmash_vityaz_sn_LOD1
v -0.0091423 -0.0007731724 -0.006264985
v -0.006083259 0.1702168 -0.004619486
v 0.000129849 0.002335835 -0.003063786
v -0.0102847 0.1727058 -0.009010985
v -0.000502202 0.1681948 -0.002956786
v 0.00526613 0.1696228 -0.004196684
v 0.00919777 -0.001543179 -0.006998584
v 0.0100995 0.1726958 -0.008536284
v 0.0118989 0.1772278 -0.01480438
v 0.011917 -0.009513168 -0.01504369
v 0.0166775 0.1801208 -0.01810309
v 0.0169625 -0.01219417 -0.01851569
v 0.0188198 0.1845558 -0.02289928
v 0.0188314 -0.01187317 -0.02556518
v 0.0188014 0.0003368282 -0.02706238
v 0.0184984 0.001055822 -0.03540478
v -0.0119277 0.05106683 -0.01436478
v -0.0117414 0.1771958 -0.01469728
v -0.016739 0.1802518 -0.01833329
v -0.0202433 0.1160888 -0.02173408
v -0.0184936 0.1860838 -0.02337018
v -0.019936 0.1297638 -0.03709963
v -0.0184282 0.1948188 -0.03709704
v -0.0204938 0.07055083 -0.02189878
v 0.0181206 0.1948188 -0.03709704
v -0.0201731 0.1184768 -0.02887809
v -0.020195 0.1200628 -0.03250055
v -0.0202433 0.1160888 -0.02173408
v -0.020155 0.1018998 -0.02554668
v -0.0204938 0.07055083 -0.02189878
v -0.02019575 0.07067382 -0.02556668
v -0.020236 0.1240648 -0.03709868
v -0.0116952 0.01322283 -0.01445469
v -0.0120526 -0.009225168 -0.01446438
v -0.0185453 0.008367824 -0.01968998
v -0.0181173 -0.01221316 -0.01913938
v -0.0188289 -0.01210817 -0.02603628
v -0.0186403 -0.006569176 -0.02913352
v -0.0187948 0.008508835 -0.02980267
v 0.0156839 0.1868718 -0.02142878
v 0.0188198 0.1845558 -0.02289928
v 0.0166775 0.1801208 -0.01810309
v 0.0118989 0.1772278 -0.01480438
v 0.00843263 0.1810579 -0.01465289
v 0.0100995 0.1726958 -0.008536284
v 0.006346699 0.1751778 -0.007256486
v 0.00526613 0.1696228 -0.004196684
v -0.00118119 0.1734578 -0.005936985
v -0.000502202 0.1681948 -0.002956786
v -0.006083259 0.1702168 -0.004619486
v -0.00804624 0.1751778 -0.008213184
v -0.0102847 0.1727058 -0.009010985
v -0.0117414 0.1771958 -0.01469728
v -0.00892012 0.1815078 -0.01525539
v -0.016739 0.1802518 -0.01833329
v -0.0144049 0.1860489 -0.02028308
v -0.0184936 0.1860838 -0.02337018
v -0.0176987 0.1946738 -0.03197759
v -0.0184282 0.1948188 -0.03709704
v -0.0185453 0.008367824 -0.01968998
v -0.0105307 0.01042883 -0.01617998
v -0.0116952 0.01322283 -0.01445469
v -0.0119999 0.009029827 -0.02908441
v -0.0187948 0.008508835 -0.02980267
v -0.00118119 0.1734578 -0.005936985
v -0.00892012 0.1815078 -0.01525539
v 0.006346699 0.1751778 -0.007256486
v 0.00843263 0.1810579 -0.01465289
v -0.00804624 0.1751778 -0.008213184
v -0.005279 0.1833538 -0.01705369
v 0.005173 0.1833538 -0.01705369
v 0.005181 0.1914138 -0.02613968
v 0.0156839 0.1868718 -0.02142878
v -0.005288 0.1914138 -0.02613968
v -0.0144049 0.1860489 -0.02028308
v 0.0182177 0.1946738 -0.03197759
v -0.0176987 0.1946738 -0.03197759
v -0.02019575 0.07067382 -0.02556668
v -0.0204938 0.07055083 -0.02189878
v -0.0125985 0.05658381 -0.02326409
v -0.0119277 0.05106683 -0.01436478
v -0.009214229 0.05062281 -0.01568009
v -0.0119277 0.05106683 -0.01436478
v -0.0105307 0.01042883 -0.01617998
v -0.009214229 0.05062281 -0.01568009
v -0.0116952 0.01322283 -0.01445469
v 0.0182177 0.1946738 -0.03197759
v 0.0181206 0.1948188 -0.03709704
v 0.0181206 0.1948188 -0.03709704
v 0.0182177 0.1946738 -0.03197759
v -0.0184282 0.1948188 -0.03709704
v -0.0176987 0.1946738 -0.03197759
v -0.010612 -0.009239168 -0.01516399
v -0.00726485 -0.0007621765 -0.006805885
v -0.0107406 0.009987831 -0.01446059
v -0.010607 0.05134583 -0.01481619
v -0.0007428959 0.1714788 -0.006074586
v 0.000175138 0.002350826 -0.003896985
v 0.00780915 -0.001512165 -0.007562086
v 0.0111838 -0.009494171 -0.01564748
v 0.0162194 -0.01216017 -0.01965659
v 0.0179509 -0.01181417 -0.02542119
v 0.0179413 0.000409832 -0.02683819
v 0.0176297 0.001108828 -0.035111
v 0.0170601 0.1946348 -0.03649925
v -0.0115984 0.05783584 -0.02220839
v -0.01933895 0.07179581 -0.02461139
v -0.0194276 0.1019418 -0.02503598
v -0.0196075 0.1185128 -0.02876469
v -0.0196575 0.1199878 -0.03255621
v -0.0196711 0.1240698 -0.03696233
v -0.0178663 0.1943618 -0.03666554
v 0.005238099 0.1910488 -0.02658528
v 0.0170601 0.1946348 -0.03649925
v -0.0178663 0.1943618 -0.03666554
v 0.00553283 0.1828088 -0.01739459
v -0.00539445 0.1910458 -0.02658118
v -0.00557361 0.1828738 -0.01741919
v -0.0007428959 0.1714788 -0.006074586
v -0.0162698 -0.01200618 -0.01961179
v -0.0120004 0.007559824 -0.02933185
v -0.0178487 -0.01173017 -0.02562048
v -0.0178543 -0.006571169 -0.02924768
v -0.017859 0.007405834 -0.0294635
v 0.0107771 0.1528688 0.001135914
v 0.00483683 0.1616148 -0.001340685
v 0.005774269 0.1613708 -0.004922686
v 0.00811096 0.1544868 0.003967516
v 0.00294715 0.1583048 0.003967516
v 0 0.1616148 -0.001340685
v 0 0.1583048 0.003967516
v 0.005774269 0.004262819 -0.004922686
v 0.005774269 -1.811981E-07 -0.004922686
v 0.005774269 0.004262819 0.003967516
v 0.005774269 -0.0009541797 0.003967516
v 0.005774269 -0.003590164 0.002058012
v 0.005774269 -0.003812179 -0.001233485
v 0.0107771 0.004262819 0.001135914
v 0.00811096 0.004262819 0.003967516
v 0.0107771 0.1528688 0.001135914
v 0.00811096 0.1544868 0.003967516
v 0.00294715 0.1583048 0.003967516
v 0.00811096 0.1544868 0.003967516
v 0.005774269 0.004262819 0.003967516
v 0.00811096 0.004262819 0.003967516
v 0 0.004247827 0.003967516
v 0.005774269 -0.0009541797 0.003967516
v 0 -0.0009541797 0.003967516
v 0 0.1583048 0.003967516
v 0.005774269 0.004262819 -0.004922686
v 0.005774269 0.004262819 0.003967516
v 0.0107771 0.004262819 0.001135914
v 0.00811096 0.004262819 0.003967516
v 0.0107771 0.004262819 0.001135914
v 0.0107771 0.1528688 0.001135914
v 0.005774269 0.004262819 -0.004922686
v 0.005774269 0.1613708 -0.004922686
v -0.0107771 0.1528688 0.001135914
v -0.005774269 0.1613708 -0.004922686
v -0.00483683 0.1616148 -0.001340685
v -0.00811096 0.1544868 0.003967516
v -0.00294715 0.1583048 0.003967516
v 0 0.1616148 -0.001340685
v 0 0.1583048 0.003967516
v -0.005774269 0.004262819 -0.004922686
v -0.005774269 0.004262819 0.003967516
v -0.005774269 -1.811981E-07 -0.004922686
v -0.005774269 -0.0009541797 0.003967516
v -0.005774269 -0.003590164 0.002058012
v -0.005774269 -0.003812179 -0.001233485
v -0.0107771 0.004262819 0.001135914
v -0.0107771 0.1528688 0.001135914
v -0.00811096 0.004262819 0.003967516
v -0.00811096 0.1544868 0.003967516
v -0.00294715 0.1583048 0.003967516
v -0.005774269 0.004262819 0.003967516
v -0.00811096 0.1544868 0.003967516
v -0.00811096 0.004262819 0.003967516
v 0 0.004247827 0.003967516
v -0.005774269 -0.0009541797 0.003967516
v 0 -0.0009541797 0.003967516
v 0 0.1583048 0.003967516
v -0.005774269 0.004262819 -0.004922686
v -0.0107771 0.004262819 0.001135914
v -0.005774269 0.004262819 0.003967516
v -0.00811096 0.004262819 0.003967516
v -0.0107771 0.004262819 0.001135914
v -0.005774269 0.004262819 -0.004922686
v -0.0107771 0.1528688 0.001135914
v -0.005774269 0.1613708 -0.004922686
v 0.005774269 -0.003812179 -0.001233485
v 0.005774269 -1.811981E-07 -0.004922686
v 0 -0.003812179 -0.001233485
v 0 -1.811981E-07 -0.004922686
v 0 -0.003590164 0.002058012
v 0.005774269 -0.003590164 0.002058012
v 0 -0.0009541797 0.003967516
v 0.005774269 -0.0009541797 0.003967516
v 0.005774269 0.1613708 -0.004922686
v 0.00483683 0.1616148 -0.001340685
v 0 0.1613749 -0.004922686
v 0 0.1616148 -0.001340685
v -0.005774269 -0.003812179 -0.001233485
v 0 -0.003812179 -0.001233485
v -0.005774269 -1.811981E-07 -0.004922686
v 0 -1.811981E-07 -0.004922686
v 0 -0.003590164 0.002058012
v -0.005774269 -0.003590164 0.002058012
v 0 -0.0009541797 0.003967516
v -0.005774269 -0.0009541797 0.003967516
v -0.005774269 0.1613708 -0.004922686
v 0 0.1613749 -0.004922686
v -0.00483683 0.1616148 -0.001340685
v 0 0.1616148 -0.001340685
vt 0.048091 0.378783
vt 0.98981 0.361918
vt 0.048091 0.308354
vt 0.98981 0.405723
vt 0.98981 0.319943
vt 0.98981 0.277559
vt 0.048091 0.237086
vt 0.98981 0.23093
vt 0.98981 0.184164
vt 0.048091 0.175694
vt 0.98981 0.142489
vt 0.048091 0.13152
vt 0.98981 0.10485
vt 0.048091 0.0790565
vt 0.102866 0.0686926
vt 0.102866 0.00575416
vt 0.331279 0.44216
vt 0.98981 0.448033
vt 0.98981 0.492568
vt 0.627837 0.524733
vt 0.98981 0.530902
vt 0.691035 0.631849
vt 0.98981 0.631849
vt 0.420135 0.523612
vt 0.98981 0.00575416
vt 0.638977 0.575996
vt 0.646418 0.601948
vt 0.627837 0.524733
vt 0.562963 0.550902
vt 0.420135 0.523612
vt 0.418885 0.550902
vt 0.664946 0.631849
vt 0.157792 0.442
vt 0.048091 0.432644
vt 0.12892 0.486531
vt 0.048091 0.482176
vt 0.048091 0.526007
vt 0.0714829 0.54452
vt 0.132062 0.54452
vt 0.209363 0.558384
vt 0.181604 0.511059
vt 0.161081 0.561516
vt 0.14232 0.602471
vt 0.157897 0.638148
vt 0.0994101 0.621503
vt 0.105572 0.65754
vt 0.0709455 0.663817
vt 0.0924667 0.721677
vt 0.0598394 0.714713
vt 0.0739239 0.764835
vt 0.107129 0.781536
vt 0.0984101 0.806111
vt 0.139173 0.824252
vt 0.160166 0.793705
vt 0.167042 0.870067
vt 0.198597 0.843746
vt 0.213125 0.882285
vt 0.279779 0.862285
vt 0.30816 0.882285
vt 0.12892 0.486531
vt 0.147894 0.459786
vt 0.157792 0.442
vt 0.156375 0.528898
vt 0.132062 0.54452
vt 0.0924667 0.721677
vt 0.160166 0.793705
vt 0.105572 0.65754
vt 0.157897 0.638148
vt 0.107129 0.781536
vt 0.175267 0.761113
vt 0.175267 0.670638
vt 0.24267 0.670638
vt 0.209363 0.558384
vt 0.24267 0.761113
vt 0.198597 0.843746
vt 0.281784 0.555572
vt 0.279779 0.862285
vt 0.418885 0.550902
vt 0.420135 0.523612
vt 0.348955 0.511741
vt 0.331279 0.44216
vt 0.327402 0.459786
vt 0.331279 0.44216
vt 0.147894 0.459786
vt 0.327402 0.459786
vt 0.157792 0.442
vt 0.281784 0.555572
vt 0.30816 0.511059
vt 0.30816 0.511059
vt 0.281784 0.555572
vt 0.30816 0.882285
vt 0.279779 0.862285
vt 0.323085 0.699279
vt 0.345038 0.738122
vt 0.406182 0.711093
vt 0.525892 0.711093
vt 0.860832 0.782563
vt 0.356668 0.766589
vt 0.352719 0.797176
vt 0.327121 0.824063
vt 0.318983 0.842023
vt 0.318983 0.862318
vt 0.360754 0.865813
vt 0.360754 0.907262
vt 0.984583 0.907262
vt 0.548604 0.691952
vt 0.595625 0.661704
vt 0.692388 0.661704
vt 0.746401 0.659273
vt 0.753257 0.650946
vt 0.76827 0.640957
vt 0.991898 0.640957
vt 0.95974 0.739022
vt 0.994289 0.644272
vt 0.994289 0.907262
vt 0.920226 0.740367
vt 0.95974 0.813717
vt 0.920226 0.815062
vt 0.866533 0.782247
vt 0.320485 0.662334
vt 0.369204 0.634076
vt 0.322665 0.63131
vt 0.336903 0.62054
vt 0.349031 0.611365
vt 0.122302 0.843551
vt 0.0756952 0.87707
vt 0.0835611 0.909141
vt 0.100058 0.820527
vt 0.0691857 0.820527
vt 0.054928 0.87707
vt 0.0550555 0.820527
vt 0.488982 0.580617
vt 0.519783 0.580617
vt 0.488982 0.702104
vt 0.526675 0.702103
vt 0.546519 0.676008
vt 0.546519 0.63103
vt 0.996625 0.942146
vt 0.996625 0.915121
vt 0.100535 0.942146
vt 0.0907613 0.915121
vt 0.0276581 0.00551917
vt 0.00409473 0.0290897
vt 0.0147562 0.964122
vt 0.00409473 0.964122
vt 0.0410835 0.964122
vt 0.0147562 0.996235
vt 0.0410835 0.996235
vt 0.0410854 0.00551917
vt 0.431891 0.58095
vt 0.431891 0.699097
vt 0.389681 0.661466
vt 0.412176 0.699097
vt 0.996625 0.942146
vt 0.100535 0.942146
vt 0.996625 0.996745
vt 0.0491542 0.996745
vt 1.1223 0.843551
vt 1.08356 0.909141
vt 1.0757 0.87707
vt 1.10006 0.820527
vt 1.06919 0.820527
vt 1.05493 0.87707
vt 1.05506 0.820527
vt 1.48898 0.580617
vt 1.48898 0.702104
vt 1.51978 0.580617
vt 1.52667 0.702103
vt 1.54652 0.676008
vt 1.54652 0.63103
vt 1.99662 0.942146
vt 1.10053 0.942146
vt 1.99662 0.915121
vt 1.09076 0.915121
vt 1.02766 0.00551917
vt 1.01476 0.964122
vt 1.00409 0.0290897
vt 1.00409 0.964122
vt 1.04108 0.964122
vt 1.01476 0.996235
vt 1.04108 0.996235
vt 1.04109 0.00551917
vt 1.43189 0.58095
vt 1.38968 0.661466
vt 1.43189 0.699097
vt 1.41218 0.699097
vt 1.99662 0.942146
vt 1.99662 0.996745
vt 1.10053 0.942146
vt 1.04915 0.996745
vt 0.475667 0.633716
vt 0.475667 0.58059
vt 0.438986 0.633716
vt 0.438986 0.58059
vt 0.438986 0.666752
vt 0.475667 0.666752
vt 0.438986 0.699343
vt 0.475667 0.699343
vt 0.0835611 0.909141
vt 0.0756952 0.87707
vt 0.0548021 0.909141
vt 0.054928 0.87707
vt 1.47567 0.633716
vt 1.43899 0.633716
vt 1.47567 0.58059
vt 1.43899 0.58059
vt 1.43899 0.666752
vt 1.47567 0.666752
vt 1.43899 0.699343
vt 1.47567 0.699343
vt 1.08356 0.909141
vt 1.0548 0.909141
vt 1.0757 0.87707
vt 1.05493 0.87707
vn -0.806421 0.006179681 0.5913097
vn -0.5683699 0.003177173 0.822767
vn 0.04390768 -0.004890071 0.9990237
vn -0.9098625 0.003547166 0.4148948
vn -0.04639278 -0.0008212232 0.9989229
vn 0.5001834 0.001874871 0.8659175
vn 0.824227 -0.002349791 0.5662547
vn 0.8933513 -0.0006576264 0.4493583
vn 0.7319285 -0.001543365 0.6813797
vn 0.7072133 -0.0007844692 0.7069998
vn 0.8266152 -7.659917E-06 0.5627677
vn 0.8451818 -0.002457169 0.5344732
vn 0.9965039 0.001188295 0.08353779
vn 0.9718956 -0.00313729 0.235391
vn 0.9997156 0.0004388997 -0.02383973
vn 0.999323 0.0007563648 -0.0367818
vn -0.9226952 -0.001198765 0.3855283
vn -0.743041 0.002861765 0.6692398
vn -0.8485041 0.02265329 0.5287038
vn -0.7893733 0.004366104 0.613898
vn -0.9947525 0.02581415 0.09900028
vn -0.9996865 0.02484844 0.003094435
vn -0.9996817 0.02316954 0.009980983
vn -0.6592577 0.0009070346 0.7519166
vn 0.9988421 0.001527581 -0.0480859
vn -0.9998817 0.01522542 -0.00219239
vn -0.9988538 0.0394913 0.02704939
vn -0.9999089 0.001530366 -0.01340868
vn -0.9991547 0.004271522 -0.04088532
vn -0.9969442 0.001686463 -0.07809857
vn -0.9967174 0.00135243 -0.08094808
vn -0.9971282 0.05249884 0.05458369
vn -0.9016019 0.0002702357 0.4325666
vn -0.7347828 0.01082032 0.6782161
vn -0.8633539 0.002753594 0.5045915
vn -0.8956139 -0.006725969 0.4447814
vn -0.9985418 -0.002877163 0.05390549
vn -0.9998229 0.01418334 -0.012376
vn -0.999657 -0.009154238 0.0245358
vn 0.5772932 0.4726296 0.6658482
vn 0.6774811 0.454006 0.5787036
vn 0.3736226 0.4535782 0.8091187
vn 0.5240981 0.480728 0.7030091
vn 0.5289648 0.4606938 0.7127114
vn 0.5586578 0.4743398 0.6803699
vn 0.4143941 0.4770589 0.7750434
vn 0.1689976 0.4587449 0.8723491
vn -0.0347836 0.5026238 0.8638052
vn -0.0005004879 0.4926933 0.8702029
vn -0.2091673 0.4879424 0.8474439
vn -0.5596225 0.4493367 0.6963612
vn -0.6595027 0.3897614 0.6427613
vn -0.5689927 0.452232 0.6868287
vn -0.5000775 0.4443616 0.7432801
vn -0.4311926 0.4222393 0.7973626
vn -0.4708146 0.4998707 0.7269546
vn -0.5286688 0.5761352 0.62336
vn -0.9331998 0.2937603 0.2069851
vn -0.9618205 0.2329486 0.1436531
vn -0.1222756 0.9771696 -0.1737483
vn 0.04498563 0.8132148 -0.5802225
vn 0.2002254 0.5738245 -0.7941255
vn -0.1345808 0.9906129 -0.02396069
vn -0.07810312 0.9968196 0.01582651
vn -0.0462689 0.7365909 0.6747541
vn -0.02226756 0.7415202 0.6705608
vn -0.02147206 0.7636334 0.6452929
vn 0.01108946 0.7553095 0.6552744
vn -0.03669919 0.7409421 0.6705654
vn -0.02696751 0.7255607 0.6876297
vn 0.01912721 0.7354243 0.6773369
vn 0.0215703 0.8323609 0.5538141
vn 0.04597169 0.7683806 0.6383399
vn -0.02288204 0.8325336 0.5535018
vn -0.03313239 0.7621284 0.6465777
vn 0.04758814 0.8230969 0.5659035
vn -0.04896473 0.8241183 0.5642975
vn -0.8708577 -0.4837768 -0.08698722
vn -0.869347 -0.4798802 -0.1181137
vn -0.8201835 -0.5169839 -0.2450035
vn -0.5600119 -0.7223949 -0.4056258
vn -0.3603454 -0.8047494 -0.4717305
vn -0.4490666 0.024458 -0.8931634
vn -0.79788 -0.0005021683 -0.602816
vn -0.4326814 0.02537977 -0.9011896
vn -0.8316951 -0.003790644 -0.5552195
vn 0.9932681 0.1043093 0.05037883
vn 0.9988943 0.04354978 -0.01771233
vn 0 0.9995992 0.02831129
vn 0 0.9995992 0.02831129
vn 0 0.9995992 0.02831129
vn 0 0.9995992 0.02831129
vn 0.7167112 0.03028226 -0.6967123
vn 0.7830094 0.004137839 -0.6219962
vn 0.9322505 -0.05866012 -0.3570266
vn 0.88708 -0.03785364 -0.460061
vn -0.004011014 -0.04975053 -0.9987537
vn -0.04599434 -0.01311039 -0.9988557
vn -0.8288392 -0.03617399 -0.5583162
vn -0.7286229 -0.0117941 -0.6848136
vn -0.8602915 -0.04188539 -0.5080789
vn -0.9491082 -0.06425439 -0.3083258
vn -0.9619846 -0.07313059 -0.2631302
vn -0.9942049 -0.1008862 -0.03713083
vn -0.861021 -0.006182182 -0.5085317
vn 0.9210038 -0.03286954 -0.3881645
vn 0.4662218 0.07691311 -0.881318
vn 0.7530511 -0.02304256 -0.6575584
vn 0.9196402 -0.1774366 -0.3503969
vn 0.9501116 -0.261852 -0.1694744
vn 0.9372084 -0.1792688 -0.2991708
vn 0.86593 -0.02012327 -0.4997603
vn -0.1496864 -0.8605878 -0.4868086
vn -0.1715411 -0.8612559 -0.478343
vn 0.1852791 -0.8567127 -0.4813677
vn -0.6236218 -0.3735971 -0.6866739
vn 0.1560676 -0.8647347 -0.4773644
vn 0.4790627 -0.524986 -0.7034832
vn 0.01318787 -0.635 -0.7723995
vn 0.8917972 -0.2004796 -0.4055932
vn 0.759452 -0.2140523 -0.6143404
vn 0.8924173 -0.3298059 -0.3079278
vn 0.7447594 -0.3120374 -0.5898866
vn 0.02286818 -0.0154276 -0.9996195
vn 0.7454702 0.5926794 0.3049676
vn 0.5218151 0.7469698 0.4120015
vn 0.7928356 0.5859443 0.1675739
vn 0.6607465 0.6193227 0.4240915
vn 0.2346731 0.7851441 0.5731294
vn 0 0.8485455 0.5291225
vn 0 0.8485455 0.5291225
vn 1 0 0
vn 1 0 0
vn 1 0 0
vn 1 0 0
vn 1 0 0
vn 1 0 0
vn 0.7280585 0 0.685515
vn 0.7280585 0 0.685515
vn 0.7280585 0 0.685515
vn 0.7280585 0 0.685515
vn 0 0 1
vn 0 0 1
vn 0 0 1
vn 0 0 1
vn 0 0 1
vn 0 0 1
vn 0 0 1
vn 0 0 1
vn 0 -1 0
vn 0 -1 0
vn 0 -1 0
vn 0 -1 0
vn 0.771093 0 -0.6367226
vn 0.7710931 0 -0.6367226
vn 0.7710929 0 -0.6367226
vn 0.771093 0 -0.6367226
vn -0.7454702 0.5926794 0.3049676
vn -0.7928356 0.5859443 0.1675739
vn -0.5218151 0.7469698 0.4120015
vn -0.6607465 0.6193227 0.4240915
vn -0.2346731 0.7851441 0.5731294
vn 0 0.8485455 0.5291225
vn 0 0.8485455 0.5291225
vn -1 0 0
vn -1 0 0
vn -1 0 0
vn -1 0 0
vn -1 0 0
vn -1 0 0
vn -0.7280585 0 0.685515
vn -0.7280585 0 0.685515
vn -0.7280585 0 0.685515
vn -0.7280585 0 0.685515
vn 0 0 1
vn 0 0 1
vn 0 0 1
vn 0 0 1
vn 0 0 1
vn 0 0 1
vn 0 0 1
vn 0 0 1
vn 0 -1 0
vn 0 -1 0
vn 0 -1 0
vn 0 -1 0
vn -0.771093 0 -0.6367226
vn -0.7710929 0 -0.6367226
vn -0.7710931 0 -0.6367226
vn -0.771093 0 -0.6367226
vn 0 -0.9333329 -0.3590119
vn 0 -0.695438 -0.7185861
vn 0 -0.9333329 -0.3590119
vn 0 -0.695438 -0.7185861
vn 0 -0.8748764 0.4843462
vn 0 -0.8748764 0.4843462
vn 0 -0.5866485 0.8098418
vn 0 -0.5866484 0.8098418
vn 0.0006986646 0.9976997 -0.06778612
vn 0.0004543849 0.997722 -0.06745775
vn 0 0.9977376 -0.06722874
vn 0 0.9977633 -0.06684696
vn 0 -0.9333329 -0.3590119
vn 0 -0.9333329 -0.3590119
vn 0 -0.695438 -0.7185861
vn 0 -0.695438 -0.7185861
vn 0 -0.8748764 0.4843462
vn 0 -0.8748764 0.4843462
vn 0 -0.5866485 0.8098418
vn 0 -0.5866484 0.8098418
vn -0.0006986646 0.9976997 -0.06778612
vn 0 0.9977376 -0.06722874
vn -0.0004543849 0.997722 -0.06745775
vn 0 0.9977633 -0.06684696
g reciever_pp-19-01_izhmash_vityaz_sn_LOD1_0
f 3/3/3 2/2/2 1/1/1
f 2/2/2 4/4/4 1/1/1
f 2/2/2 3/3/3 5/5/5
f 5/5/5 3/3/3 6/6/6
f 6/6/6 3/3/3 7/7/7
f 6/6/6 7/7/7 8/8/8
f 8/8/8 7/7/7 9/9/9
f 9/9/9 7/7/7 10/10/10
f 10/10/10 11/11/11 9/9/9
f 11/11/11 10/10/10 12/12/12
f 11/11/11 12/12/12 13/13/13
f 12/12/12 14/14/14 13/13/13
f 13/13/13 14/14/14 15/15/15
f 16/16/16 13/13/13 15/15/15
f 4/4/4 17/17/17 1/1/1
f 17/17/17 4/4/4 18/18/18
f 17/17/17 18/18/18 19/19/19
f 19/19/19 20/20/20 17/17/17
f 20/20/20 19/19/19 21/21/21
f 20/20/20 21/21/21 22/22/22
f 23/23/23 22/22/22 21/21/21
f 20/20/20 24/24/24 17/17/17
f 16/16/16 25/25/25 13/13/13
f 27/27/27 26/26/26 22/22/22
f 28/28/28 22/22/22 26/26/26
f 26/26/26 29/29/29 28/28/28
f 29/29/29 30/30/30 28/28/28
f 30/30/30 29/29/29 31/31/31
f 32/32/32 27/27/27 22/22/22
f 1/1/1 17/17/17 33/33/33
f 1/1/1 33/33/33 34/34/34
f 35/35/35 34/34/34 33/33/33
f 34/34/34 35/35/35 36/36/36
f 37/37/37 36/36/36 35/35/35
f 35/35/35 38/38/38 37/37/37
f 38/38/38 35/35/35 39/39/39
f 42/42/42 41/41/41 40/40/40
f 43/43/43 42/42/42 40/40/40
f 44/44/44 43/43/43 40/40/40
f 43/43/43 44/44/44 45/45/45
f 46/46/46 45/45/45 44/44/44
f 47/47/47 45/45/45 46/46/46
f 48/48/48 47/47/47 46/46/46
f 47/47/47 48/48/48 49/49/49
f 48/48/48 50/50/50 49/49/49
f 50/50/50 48/48/48 51/51/51
f 52/52/52 50/50/50 51/51/51
f 51/51/51 53/53/53 52/52/52
f 53/53/53 51/51/51 54/54/54
f 54/54/54 55/55/55 53/53/53
f 55/55/55 54/54/54 56/56/56
f 57/57/57 55/55/55 56/56/56
f 58/58/58 57/57/57 56/56/56
f 59/59/59 57/57/57 58/58/58
f 62/62/62 61/61/61 60/60/60
f 63/63/63 60/60/60 61/61/61
f 60/60/60 63/63/63 64/64/64
f 67/67/67 66/66/66 65/65/65
f 66/66/66 67/67/67 68/68/68
f 69/69/69 65/65/65 66/66/66
f 68/68/68 70/70/70 66/66/66
f 70/70/70 68/68/68 71/71/71
f 71/71/71 68/68/68 72/72/72
f 68/68/68 73/73/73 72/72/72
f 70/70/70 74/74/74 66/66/66
f 66/66/66 74/74/74 75/75/75
f 73/73/73 76/76/76 72/72/72
f 77/77/77 75/75/75 74/74/74
f 72/72/72 77/77/77 74/74/74
f 76/76/76 77/77/77 72/72/72
f 80/80/80 79/79/79 78/78/78
f 79/79/79 80/80/80 81/81/81
f 81/81/81 80/80/80 82/82/82
f 85/85/85 84/84/84 83/83/83
f 86/86/86 83/83/83 84/84/84
f 88/88/88 87/87/87 41/41/41
f 87/87/87 40/40/40 41/41/41
f 91/91/91 90/90/90 89/89/89
f 90/90/90 91/91/91 92/92/92
f 95/95/95 94/94/94 93/93/93
f 96/96/96 94/94/94 95/95/95
f 94/94/94 96/96/96 97/97/97
f 97/97/97 98/98/98 94/94/94
f 98/98/98 97/97/97 99/99/99
f 100/100/100 99/99/99 97/97/97
f 100/100/100 97/97/97 101/101/101
f 102/102/102 101/101/101 97/97/97
f 102/102/102 97/97/97 103/103/103
f 97/97/97 104/104/104 103/103/103
f 105/105/105 104/104/104 97/97/97
f 96/96/96 106/106/106 97/97/97
f 106/106/106 107/107/107 97/97/97
f 107/107/107 108/108/108 97/97/97
f 108/108/108 109/109/109 97/97/97
f 110/110/110 97/97/97 109/109/109
f 97/97/97 110/110/110 111/111/111
f 111/111/111 112/112/112 97/97/97
f 115/115/115 114/114/114 113/113/113
f 113/113/113 114/114/114 116/116/116
f 117/117/117 115/115/115 113/113/113
f 115/115/115 117/117/117 118/118/118
f 119/119/119 118/118/118 116/116/116
f 114/114/114 119/119/119 116/116/116
f 115/115/115 118/118/118 119/119/119
f 93/93/93 120/120/120 95/95/95
f 120/120/120 121/121/121 95/95/95
f 122/122/122 121/121/121 120/120/120
f 121/121/121 122/122/122 123/123/123
f 124/124/124 121/121/121 123/123/123
f 127/127/127 126/126/126 125/125/125
f 125/125/125 126/126/126 128/128/128
f 129/129/129 128/128/128 126/126/126
f 130/130/130 129/129/129 126/126/126
f 129/129/129 130/130/130 131/131/131
f 134/134/134 133/133/133 132/132/132
f 133/133/133 134/134/134 135/135/135
f 136/136/136 133/133/133 135/135/135
f 137/137/137 133/133/133 136/136/136
f 140/140/140 139/139/139 138/138/138
f 139/139/139 140/140/140 141/141/141
f 144/144/144 143/143/143 142/142/142
f 143/143/143 144/144/144 145/145/145
f 142/142/142 146/146/146 144/144/144
f 146/146/146 147/147/147 144/144/144
f 147/147/147 146/146/146 148/148/148
f 146/146/146 142/142/142 149/149/149
f 152/152/152 151/151/151 150/150/150
f 151/151/151 152/152/152 153/153/153
f 156/156/156 155/155/155 154/154/154
f 155/155/155 156/156/156 157/157/157
f 160/160/160 159/159/159 158/158/158
f 160/160/160 158/158/158 161/161/161
f 161/161/161 162/162/162 160/160/160
f 162/162/162 163/163/163 160/160/160
f 163/163/163 162/162/162 164/164/164
f 167/167/167 166/166/166 165/165/165
f 166/166/166 167/167/167 168/168/168
f 167/167/167 169/169/169 168/168/168
f 167/167/167 170/170/170 169/169/169
f 173/173/173 172/172/172 171/171/171
f 172/172/172 173/173/173 174/174/174
f 177/177/177 176/176/176 175/175/175
f 176/176/176 177/177/177 178/178/178
f 179/179/179 175/175/175 176/176/176
f 180/180/180 179/179/179 176/176/176
f 179/179/179 180/180/180 181/181/181
f 175/175/175 179/179/179 182/182/182
f 185/185/185 184/184/184 183/183/183
f 184/184/184 185/185/185 186/186/186
f 189/189/189 188/188/188 187/187/187
f 188/188/188 189/189/189 190/190/190
f 193/193/193 192/192/192 191/191/191
f 192/192/192 193/193/193 194/194/194
f 191/191/191 195/195/195 193/193/193
f 195/195/195 191/191/191 196/196/196
f 196/196/196 197/197/197 195/195/195
f 197/197/197 196/196/196 198/198/198
f 201/201/201 200/200/200 199/199/199
f 200/200/200 201/201/201 202/202/202
f 205/205/205 204/204/204 203/203/203
f 204/204/204 205/205/205 206/206/206
f 207/207/207 203/203/203 204/204/204
f 203/203/203 207/207/207 208/208/208
f 209/209/209 208/208/208 207/207/207
f 208/208/208 209/209/209 210/210/210
f 213/213/213 212/212/212 211/211/211
f 212/212/212 213/213/213 214/214/214
