g reciever_val_tochmash_val_std_LOD1
v 0.01462448 0.0002424645 -0.03082102
v 0.01263029 0.0002424621 -0.0113187
v 0.01263036 0.1800995 -0.01131866
v 0.01462456 0.1800995 -0.03082099
v 0.006684944 0.1688006 -0.0006462443
v 0.006684878 0.0002424621 -0.0006462681
v 0.006684878 0.0002424621 -0.0006462681
v 0.01263029 0.0002424621 -0.0113187
v -0.01278036 0.0002424741 -0.0113187
v -0.006834945 0.0002424693 -0.0006462681
v 0.01462448 0.0002424645 -0.03082102
v -0.01539967 0.0002424788 -0.03082102
v 0.006684944 0.1688006 -0.0006462443
v 0.006684878 0.0002424621 -0.0006462681
v -0.006834945 0.0002424693 -0.0006462681
v -0.006834851 0.1688006 -0.0006462443
v 0.01263036 0.1800995 -0.01131866
v -0.01278026 0.1800995 -0.01131866
v -0.01539956 0.1800995 -0.03082099
v 0.01462456 0.1800995 -0.03082099
v -0.01278026 0.1800995 -0.01131866
v -0.01278036 0.0002424741 -0.0113187
v -0.01539967 0.0002424788 -0.03082102
v -0.01539956 0.1800995 -0.03082099
v -0.006834851 0.1688006 -0.0006462443
v -0.006834945 0.0002424693 -0.0006462681
v -0.01278026 0.1800995 -0.01131866
v 0.01263036 0.1800995 -0.01131866
v 0.006684944 0.1688006 -0.0006462443
v -0.006834851 0.1688006 -0.0006462443
vt 0.001999406 0.38285
vt 0.001999738 0.5999367
vt 0.9978319 0.5999361
vt 0.9978315 0.3828493
vt 0.9352728 0.7352188
vt 0.001999903 0.7352195
vt 0.87138 0.9171198
vt 0.9160718 0.966913
vt 0.9160718 0.7540954
vt 0.87138 0.8038891
vt 0.9977392 0.9836144
vt 0.9977392 0.732158
vt 0.7105514 0.7547623
vt 0.00470025 0.7547611
vt 0.00470025 0.9605691
vt 0.7105514 0.9605695
vt 0.8669067 0.9719626
vt 0.8669067 0.7644653
vt 0.7872808 0.7430766
vt 0.7872808 0.9882468
vt 0.002167915 0.2206699
vt 0.998 0.2206702
vt 0.9980005 0.00277056
vt 0.002168126 0.002770099
vt 0.06472728 0.3559527
vt 0.9979997 0.3559532
vt 0.7168831 0.7583173
vt 0.7168831 0.971135
vt 0.7819679 0.9213412
vt 0.7819679 0.8081108
vn 0.9948125 0 0.1017256
vn 0.9538221 0 0.3003719
vn 0.971107 0 0.2386444
vn 0.9948125 0 0.1017256
vn 0.8735896 0 0.4866634
vn 0.873592 0 0.4866591
vn 0 -1 0
vn 0 -1 0
vn 0 -1 0
vn 0 -1 0
vn 0 -1 0
vn 0 -1 0
vn 0 0 1
vn 0 0 1
vn 0 0 1
vn 0 0 1
vn 0 0.9437185 0.3307498
vn 0 0.9450026 0.3270631
vn 0 1 0
vn 0 1 0
vn -0.9659068 0 0.25889
vn -0.9489561 0 0.3154079
vn -0.9911008 0 0.1331131
vn -0.991101 0 0.1331126
vn -0.873589 0 0.4866643
vn -0.8735915 0 0.4866601
vn 0 0.9450026 0.3270631
vn 0 0.9437185 0.3307498
vn 0 0.6866467 0.7269912
vn 0 0.6866467 0.7269912
g reciever_val_tochmash_val_std_LOD1_0
f 3/3/3 2/2/2 1/1/1
f 4/4/4 3/3/3 1/1/1
f 3/3/3 5/5/5 2/2/2
f 5/5/5 6/6/6 2/2/2
f 9/9/9 8/8/8 7/7/7
f 10/10/10 9/9/9 7/7/7
f 11/11/11 8/8/8 9/9/9
f 12/12/12 11/11/11 9/9/9
f 15/15/15 14/14/14 13/13/13
f 16/16/16 15/15/15 13/13/13
f 19/19/19 18/18/18 17/17/17
f 20/20/20 19/19/19 17/17/17
f 23/23/23 22/22/22 21/21/21
f 24/24/24 23/23/23 21/21/21
f 21/21/21 22/22/22 25/25/25
f 22/22/22 26/26/26 25/25/25
f 29/29/29 28/28/28 27/27/27
f 30/30/30 29/29/29 27/27/27
