g reciever_glock_polymer80_ps9_LOD1
v -0.01256822 0.06199499 0.007167222
v -0.01256822 0.06199499 -0.01195016
v 0.01240316 0.06199499 -0.01195016
v 0.01240316 0.06199499 0.007167222
v -0.009256409 0.06199499 0.009335302
v 0.009311227 0.06199499 0.009335302
v -0.00826327 -0.1208221 -0.01195016
v -0.0125682 -0.1208221 -0.01195016
v -0.0125682 -0.1208221 0.007167221
v -0.009256383 -0.1208221 0.0093353
v 0.00825933 -0.1208221 -0.01195016
v 0.006351305 -0.1208221 -0.01826851
v -0.006249207 -0.1208221 -0.01862295
v -1.969933E-06 -0.1208221 -0.02189067
v 0.009311252 -0.1208221 0.0093353
v 0.01240319 -0.1208221 0.007167222
v 0.01240319 -0.1208221 -0.01195016
v 0.008259329 -0.1174616 -0.01195016
v 0.01240316 0.06199499 -0.01195016
v -0.01256822 0.06199499 -0.01195016
v -0.008263272 -0.1174616 -0.01195016
v -0.01033521 -0.05169041 -0.01195016
v -0.0125682 -0.1208221 -0.01195016
v -0.00826327 -0.1208221 -0.01195016
v 0.01240319 -0.1208221 -0.01195016
v 0.00825933 -0.1208221 -0.01195016
v 0.01240316 0.06199499 -0.01195016
v 0.01240319 -0.1208221 -0.01195016
v 0.01240319 -0.1208221 0.007167222
v 0.01240316 0.06199499 0.007167222
v -0.009256409 0.06199499 0.009335302
v 0.009311227 0.06199499 0.009335302
v 0.009265056 -0.01301951 0.009335301
v -0.009256398 -0.01301951 0.009335301
v -0.01256822 0.06199499 -0.01195016
v -0.01256822 0.06199499 0.007167222
v -0.01256821 -0.01301951 0.007167221
v -0.01256821 -0.01301951 -0.001914497
v -0.0125682 -0.1208221 -0.01195016
v -0.01256821 -0.04011981 -0.001914498
v -0.01256821 -0.04011981 0.007167221
v -0.0125682 -0.1208221 0.007167221
v -0.01256822 0.06199499 0.007167222
v -0.009256409 0.06199499 0.009335302
v -0.009256398 -0.01301951 0.009335301
v -0.01256821 -0.01301951 0.007167221
v 0.009311252 -0.1208221 0.0093353
v 0.009265061 -0.04011981 0.0093353
v 0.01240319 -0.1208221 0.007167222
v 0.01240316 0.06199499 0.007167222
v 0.009265056 -0.01301951 0.009335301
v 0.009311227 0.06199499 0.009335302
v -1.969933E-06 -0.1208221 -0.02189067
v 0.006351305 -0.1208221 -0.01826851
v 0.006351304 -0.1174616 -0.01826851
v -1.971126E-06 -0.1174616 -0.02189067
v -0.006249207 -0.1208221 -0.01862295
v -0.006249207 -0.1174616 -0.01862295
v -0.00826327 -0.1208221 -0.01195016
v -0.006249207 -0.1208221 -0.01862295
v -0.006249207 -0.1174616 -0.01862295
v -0.008263272 -0.1174616 -0.01195016
v 0.008259329 -0.1174616 -0.01195016
v -0.008263272 -0.1174616 -0.01195016
v -0.006249207 -0.1174616 -0.01862295
v 0.006351304 -0.1174616 -0.01826851
v -1.971126E-06 -0.1174616 -0.02189067
v 0.008259329 -0.1174616 -0.01195016
v 0.006351304 -0.1174616 -0.01826851
v 0.006351305 -0.1208221 -0.01826851
v 0.00825933 -0.1208221 -0.01195016
v -0.009256383 -0.1208221 0.0093353
v -0.009256395 -0.04011981 0.009335301
v 0.009265061 -0.04011981 0.0093353
v 0.009311252 -0.1208221 0.0093353
v -0.0125682 -0.1208221 0.007167221
v -0.01256821 -0.04011981 0.007167221
v -0.009256395 -0.04011981 0.009335301
v -0.009256383 -0.1208221 0.0093353
v -0.009256398 -0.01301951 0.009335301
v 0.009265056 -0.01301951 0.009335301
v 0.009260711 -0.01301951 -0.001914499
v -0.01256821 -0.01301951 0.007167221
v -0.01256821 -0.01301951 -0.001914497
v -0.01256821 -0.04011981 -0.001914498
v 0.009260716 -0.04011981 -0.001914499
v -0.01256821 -0.04011981 0.007167221
v -0.009256395 -0.04011981 0.009335301
v 0.009265061 -0.04011981 0.0093353
v -0.01256821 -0.01301951 -0.001914497
v 0.009260711 -0.01301951 -0.001914499
v 0.009260716 -0.04011981 -0.001914499
v -0.01256821 -0.04011981 -0.001914498
v 0.009260711 -0.01301951 -0.001914499
v 0.009265056 -0.01301951 0.009335301
v 0.009265061 -0.04011981 0.0093353
v 0.009260716 -0.04011981 -0.001914499
vt 0.9899149 0.9677943
vt 0.9891938 0.8064764
vt 0.8688748 0.8064764
vt 0.8688748 0.9690844
vt 0.9732367 0.9875252
vt 0.8837726 0.9875252
vt 0.9099198 0.6014906
vt 0.8926615 0.6014906
vt 0.8926615 0.7751532
vt 0.9059384 0.7948474
vt 0.9761589 0.6014906
vt 0.9685096 0.5440953
vt 0.9179943 0.540876
vt 0.9430394 0.5111922
vt 0.9803761 0.7948474
vt 0.9941639 0.7717285
vt 0.9927716 0.6014906
vt 0.845431 0.06971997
vt 0.004200876 0.0257054
vt 0.004200876 0.2909443
vt 0.845431 0.2452184
vt 0.5371185 0.2672259
vt 0.861184 0.290944
vt 0.861184 0.2452184
vt 0.861184 0.02570516
vt 0.861184 0.06971997
vt 0.004227683 0.9944979
vt 0.8611572 0.9944979
vt 0.8614736 0.793734
vt 0.003890032 0.7937402
vt 0.004227683 0.5583959
vt 0.004227683 0.7556038
vt 0.3558475 0.7551925
vt 0.3558476 0.5583962
vt 0.004227683 0.3178901
vt 0.00422768 0.5191182
vt 0.3558476 0.5271428
vt 0.3558476 0.4244794
vt 0.8611572 0.3178903
vt 0.4828764 0.4244794
vt 0.4828764 0.5191182
vt 0.8611572 0.5191182
vt 0.00422768 0.5191182
vt 0.004227683 0.5583959
vt 0.3558476 0.5583962
vt 0.3558476 0.5271428
vt 0.8611572 0.7556038
vt 0.4828763 0.7551925
vt 0.8614736 0.793734
vt 0.003890032 0.7937402
vt 0.3558475 0.7551925
vt 0.004227683 0.7556038
vt 0.884938 0.6494014
vt 0.884938 0.5808372
vt 0.869185 0.5808372
vt 0.869185 0.6494014
vt 0.884938 0.7154995
vt 0.869185 0.7154995
vt 0.884938 0.7808463
vt 0.884938 0.7154995
vt 0.869185 0.7154995
vt 0.869185 0.7808463
vt 0.9472088 0.436412
vt 0.8697567 0.436412
vt 0.879198 0.4989711
vt 0.9382647 0.495648
vt 0.9084827 0.529607
vt 0.869185 0.5189585
vt 0.869185 0.5808372
vt 0.884938 0.5808372
vt 0.884938 0.5189585
vt 0.8611572 0.5583962
vt 0.4828764 0.5583959
vt 0.4828763 0.7551925
vt 0.8611572 0.7556038
vt 0.8611572 0.5191182
vt 0.4828764 0.5191182
vt 0.4828764 0.5583959
vt 0.8611572 0.5583962
vt 0.9782271 0.009152023
vt 0.8809865 0.009066878
vt 0.8809865 0.1428981
vt 0.9931428 0.03697889
vt 0.9955918 0.1429986
vt 0.9903671 0.163338
vt 0.8696218 0.163338
vt 0.9888499 0.2725475
vt 0.9720479 0.304338
vt 0.8695979 0.304338
vt 0.4686567 0.4466946
vt 0.3663304 0.4466946
vt 0.3663304 0.7345458
vt 0.4686568 0.7345458
vt 0.992299 0.4211407
vt 0.992299 0.3209439
vt 0.871614 0.3209439
vt 0.871614 0.4211407
vn 0 1 0
vn 0 1 0
vn 0 1 0
vn 0 1 0
vn 0 1 0
vn 0 1 0
vn 0 -1 0
vn 0 -1 0
vn 0 -1 0
vn 0 -1 0
vn 0 -1 0
vn 0 -1 0
vn 0 -1 0
vn 0 -1 0
vn 0 -1 0
vn 0 -1 0
vn 0 -1 0
vn 0 0 -1
vn 0 0 -1
vn 0 0 -1
vn 0 0 -1
vn 0 0 -1
vn 0 0 -1
vn 0 0 -1
vn 0 0 -1
vn 0 0 -1
vn 1 0 0
vn 1 0 0
vn 1 0 0
vn 1 0 0
vn 0 0 1
vn 0 0 1
vn 0 0 1
vn 0 0 1
vn -1 0 0
vn -1 0 0
vn -1 0 0
vn -1 0 0
vn -1 0 0
vn -1 0 0
vn -1 0 0
vn -1 0 0
vn -0.5477208 0 0.8366612
vn -0.5477208 0 0.8366612
vn -0.5477208 0 0.8366612
vn -0.5477208 0 0.8366612
vn 0.5741254 0.0003814707 0.8187674
vn 0.5741254 0.0002861031 0.8187674
vn 0.5741254 0.0003814707 0.8187674
vn 0.5684174 0 0.8227403
vn 0.5684215 0 0.8227375
vn 0.5741254 -0.0003814707 0.8187674
vn 0.01811536 0 -0.9998358
vn 0.4952869 0 -0.8687295
vn 0.4952869 0 -0.8687295
vn 0.01811515 0 -0.9998358
vn -0.4634895 0 -0.8861024
vn -0.4634895 0 -0.8861024
vn -0.9573435 0 -0.2889525
vn -0.9573435 0 -0.2889525
vn -0.9573435 0 -0.2889525
vn -0.9573435 0 -0.2889525
vn 0 1 0
vn 0 1 0
vn 0 1 0
vn 0 1 0
vn 0 1 0
vn 0.957301 0 -0.2890935
vn 0.9573042 0 -0.2890825
vn 0.9573042 0 -0.2890825
vn 0.957301 0 -0.2890935
vn 0 0 1
vn 0 0 1
vn 0 0 1
vn 0 0 1
vn -0.5477208 0 0.8366612
vn -0.5477208 0 0.8366612
vn -0.5477208 0 0.8366612
vn -0.5477208 0 0.8366612
vn 0 -1 0
vn 0 -1 0
vn 0 -1 0
vn 0 -1 0
vn 0 -1 -1.490082E-06
vn 0 1 0
vn 0 1 0
vn 0 1 0
vn 0 1 0
vn 0 1 0
vn 0 0 1
vn 0 0 1
vn 0 0 1
vn 0 0 1
vn -1 0 0.0003844504
vn -1 0 0.0003814701
vn -1 0 0.0003814701
vn -1 0 0.0003844504
g reciever_glock_polymer80_ps9_LOD1_0
f 3/3/3 2/2/2 1/1/1
f 4/4/4 3/3/3 1/1/1
f 4/4/4 1/1/1 5/5/5
f 6/6/6 4/4/4 5/5/5
f 9/9/9 8/8/8 7/7/7
f 10/10/10 9/9/9 7/7/7
f 10/10/10 7/7/7 11/11/11
f 12/12/12 11/11/11 7/7/7
f 13/13/13 12/12/12 7/7/7
f 14/14/14 12/12/12 13/13/13
f 15/15/15 10/10/10 11/11/11
f 16/16/16 15/15/15 11/11/11
f 17/17/17 16/16/16 11/11/11
f 20/20/20 19/19/19 18/18/18
f 18/18/18 21/21/21 20/20/20
f 21/21/21 22/22/22 20/20/20
f 22/22/22 21/21/21 23/23/23
f 20/20/20 22/22/22 23/23/23
f 23/23/23 21/21/21 24/24/24
f 25/25/25 18/18/18 19/19/19
f 25/25/25 26/26/26 18/18/18
f 29/29/29 28/28/28 27/27/27
f 30/30/30 29/29/29 27/27/27
f 33/33/33 32/32/32 31/31/31
f 34/34/34 33/33/33 31/31/31
f 37/37/37 36/36/36 35/35/35
f 38/38/38 37/37/37 35/35/35
f 38/38/38 35/35/35 39/39/39
f 40/40/40 38/38/38 39/39/39
f 41/41/41 40/40/40 39/39/39
f 42/42/42 41/41/41 39/39/39
f 45/45/45 44/44/44 43/43/43
f 46/46/46 45/45/45 43/43/43
f 49/49/49 48/48/48 47/47/47
f 48/48/48 49/49/49 50/50/50
f 51/51/51 48/48/48 50/50/50
f 52/52/52 51/51/51 50/50/50
f 55/55/55 54/54/54 53/53/53
f 56/56/56 55/55/55 53/53/53
f 56/56/56 53/53/53 57/57/57
f 58/58/58 56/56/56 57/57/57
f 61/61/61 60/60/60 59/59/59
f 62/62/62 61/61/61 59/59/59
f 65/65/65 64/64/64 63/63/63
f 66/66/66 65/65/65 63/63/63
f 67/67/67 65/65/65 66/66/66
f 70/70/70 69/69/69 68/68/68
f 71/71/71 70/70/70 68/68/68
f 74/74/74 73/73/73 72/72/72
f 75/75/75 74/74/74 72/72/72
f 78/78/78 77/77/77 76/76/76
f 79/79/79 78/78/78 76/76/76
f 82/82/82 81/81/81 80/80/80
f 83/83/83 82/82/82 80/80/80
f 84/84/84 82/82/82 83/83/83
f 87/87/87 86/86/86 85/85/85
f 88/88/88 86/86/86 87/87/87
f 89/89/89 86/86/86 88/88/88
f 92/92/92 91/91/91 90/90/90
f 93/93/93 92/92/92 90/90/90
f 96/96/96 95/95/95 94/94/94
f 97/97/97 96/96/96 94/94/94
