g silencer_wave_dd_wave_qd_supressor_multi_LOD1
v -8.191566E-05 -0.0001335621 0.02130212
v -0.01514483 -0.1920099 0.01506287
v -0.01514481 -0.0001335716 0.01506286
v -8.194462E-05 -0.1920099 0.02130212
v -0.02138409 -0.1920099 -2.552799E-08
v -0.02138406 -0.0001335621 -2.552799E-08
v -0.01514483 -0.1920099 -0.01506292
v -0.01514481 -0.0001335621 -0.01506292
v -8.194462E-05 -0.1920099 -0.02130217
v -8.191566E-05 -0.0001335621 -0.02130217
v 0.01498098 -0.0001335621 0.01506286
v 0.01498096 -0.1920099 0.01506286
v 0.02122023 -0.0001335621 -2.552799E-08
v 0.0212202 -0.1920099 -2.552799E-08
v 0.01498098 -0.0001335621 -0.01506292
v 0.01498096 -0.1920099 -0.01506292
v -8.191566E-05 -0.0001335621 -0.02130217
v -8.194462E-05 -0.1920099 -0.02130217
v -8.191566E-05 -0.0001335621 0.02130212
v 0.02122023 -0.0001335621 -2.552799E-08
v 0.01498098 -0.0001335621 0.01506286
v -0.02138406 -0.0001335621 -2.552799E-08
v -8.191566E-05 -0.0001335621 -0.02130217
v 0.01498098 -0.0001335621 -0.01506292
v -0.01514481 -0.0001335621 -0.01506292
v -0.01514481 -0.0001335716 0.01506286
v -0.01514483 -0.1920099 0.01506287
v -0.01514483 -0.1920099 -0.01506292
v -0.02138409 -0.1920099 -2.552799E-08
v 0.01498096 -0.1920099 0.01506286
v 0.01498096 -0.1920099 -0.01506292
v -8.194462E-05 -0.1920099 -0.02130217
v 0.0212202 -0.1920099 -2.552799E-08
v -8.194462E-05 -0.1920099 0.02130212
vt 0.005967 0.377454
vt 0.993799 0.284599
vt 0.005967 0.2846
vt 0.993799 0.377453
vt 0.993799 0.191745
vt 0.005967 0.191745
vt 0.993799 0.098891
vt 0.005967 0.098891
vt 0.993799 0.006037
vt 0.005967 0.006037
vt 0.005967 0.470308
vt 0.993799 0.470306
vt 0.005967 0.563162
vt 0.993799 0.56316
vt 0.005967 0.656015
vt 0.993799 0.656013
vt 0.005968 0.74887
vt 0.9938 0.748868
vt 0.334152 0.992341
vt 0.274799 0.849051
vt 0.274799 0.932988
vt 0.477441 0.932988
vt 0.418089 0.789698
vt 0.334152 0.789698
vt 0.477441 0.849051
vt 0.418089 0.992341
vt 0.726601 0.850768
vt 0.667248 0.994057
vt 0.726601 0.934705
vt 0.583311 0.791415
vt 0.523959 0.934705
vt 0.583311 0.994057
vt 0.523959 0.850768
vt 0.667248 0.791415
vn 0 0 1
vn -0.7071066 1.174312E-07 0.7071068
vn -0.7071066 1.308418E-07 0.7071069
vn 0 0 1
vn -1 1.588459E-07 0
vn -1 1.393694E-07 0
vn -0.7071068 0 -0.7071068
vn -0.7071068 0 -0.7071068
vn 0 0 -1
vn 2.16911E-07 0 -1
vn 0.7071069 -1.057964E-07 0.7071066
vn 0.7071069 -1.05435E-07 0.7071066
vn 1 -1.491077E-07 0
vn 1 -1.491077E-07 1.642877E-07
vn 0.7071068 -1.054351E-07 -0.7071066
vn 0.7071069 -1.057964E-07 -0.7071066
vn 2.16911E-07 0 -1
vn 0 0 -1
vn -1.801362E-07 1 1.801362E-07
vn 0 1 0
vn 0 1 0
vn -1.801362E-07 1 1.801362E-07
vn 0 1 0
vn 0 1 0
vn 0 1 0
vn -1.080818E-06 1 1.080818E-06
vn 2.54751E-07 -1 -5.276068E-07
vn 2.547511E-07 -1 0
vn 1.528506E-06 -1 -6.331281E-07
vn -2.547513E-07 -1 -5.27607E-07
vn -2.547513E-07 -1 0
vn 0 -1 3.057011E-06
vn -1.528508E-06 -1 -6.331284E-07
vn 0 -1 0
g silencer_wave_dd_wave_qd_supressor_multi_LOD1_0
f 3/3/3 2/2/2 1/1/1
f 4/4/4 1/1/1 2/2/2
f 2/2/2 3/3/3 5/5/5
f 6/6/6 5/5/5 3/3/3
f 5/5/5 6/6/6 7/7/7
f 8/8/8 7/7/7 6/6/6
f 7/7/7 8/8/8 9/9/9
f 10/10/10 9/9/9 8/8/8
f 1/1/1 4/4/4 11/11/11
f 12/12/12 11/11/11 4/4/4
f 11/11/11 12/12/12 13/13/13
f 14/14/14 13/13/13 12/12/12
f 13/13/13 14/14/14 15/15/15
f 16/16/16 15/15/15 14/14/14
f 15/15/15 16/16/16 17/17/17
f 18/18/18 17/17/17 16/16/16
f 21/21/21 20/20/20 19/19/19
f 20/20/20 22/22/22 19/19/19
f 23/23/23 22/22/22 20/20/20
f 24/24/24 23/23/23 20/20/20
f 25/25/25 22/22/22 23/23/23
f 19/19/19 22/22/22 26/26/26
f 29/29/29 28/28/28 27/27/27
f 28/28/28 30/30/30 27/27/27
f 31/31/31 30/30/30 28/28/28
f 32/32/32 31/31/31 28/28/28
f 33/33/33 30/30/30 31/31/31
f 27/27/27 30/30/30 34/34/34
