g silencer_pp-19-01_izhmash_vityaz_std_9x19_LOD1
v 0.02225874 -1.744318E-11 -0.0003990531
v 0.02225874 -3.376575E-09 0.03103872
v 0.01927663 0.01112937 0.03103872
v 0.01927663 0.01112937 -0.000399053
v 0.01112937 0.01927663 0.03103872
v 0.01112937 0.01927663 -0.0003990531
v 1.680488E-09 0.02225873 0.03103872
v 1.680488E-09 0.02225874 -0.0003990532
v -0.01112936 0.01927663 0.03103872
v -0.01112936 0.01927663 -0.0003990531
v -0.01927663 0.01112937 0.03103872
v -0.01927663 0.01112937 -0.000399053
v -0.02225874 5.291297E-09 0.03103872
v -0.02225874 8.650429E-09 -0.0003990531
v -0.01927664 -0.01112936 0.03103872
v -0.01927664 -0.01112936 -0.0003990532
v 0.01927662 -0.01112938 -0.0003990532
v 0.009249999 0.01602147 0.04268177
v 0.01602147 0.009249995 0.04268177
v 0.01927662 -0.01112938 0.03103872
v 0.01112936 -0.01927664 -0.0003990531
v 0.01112936 -0.01927664 0.03103872
v -1.034836E-08 -0.02225874 -0.000399053
v -1.034836E-08 -0.02225874 0.03103872
v -0.01112937 -0.01927663 -0.0003990531
v -0.01112937 -0.01927663 0.03103872
v -0.01927664 -0.01112936 -0.0003990532
v -0.01927664 -0.01112936 0.03103872
v 0.0185 -4.035358E-09 0.04268177
v -0.009250006 -0.01602147 0.04268177
v -0.01602147 -0.009249996 0.04268177
v -8.600877E-09 -0.0185 0.04268177
v 0.009249991 -0.01602148 0.04268177
v 0.01602146 -0.009250015 0.04268177
v -0.009250006 -0.01602147 0.1800002
v -0.01602147 -0.009249992 0.1800002
v -8.600877E-09 -0.0185 0.1800002
v 0.009249991 -0.01602148 0.1800002
v 0.01602146 -0.009250011 0.1800002
v 0.0185 1.537557E-11 0.1800002
v 0.01602147 0.009249999 0.1800002
v 0.009249999 0.01602147 0.1800002
v 1.396711E-09 0.0185 0.1800002
v 1.396711E-09 0.0185 0.04268177
v -0.009249997 0.01602147 0.04268177
v -0.01602147 0.00925 0.04268177
v -0.0185 3.168808E-09 0.04268177
v -0.01602147 -0.009249996 0.04268177
v -0.009249997 0.01602147 0.1800002
v -0.01602147 0.009250004 0.1800002
v -0.0185 7.219542E-09 0.1800002
v -0.01602147 -0.009249992 0.1800002
v 0.02225874 -1.744318E-11 -0.0003990531
v -2.483527E-09 3.476938E-10 -0.0003990536
v 0.01927662 -0.01112938 -0.0003990532
v 0.01112936 -0.01927664 -0.0003990531
v -1.034836E-08 -0.02225874 -0.000399053
v -0.01112937 -0.01927663 -0.0003990531
v -0.01927664 -0.01112936 -0.0003990532
v -0.02225874 8.650429E-09 -0.0003990531
v -0.01927663 0.01112937 -0.000399053
v -0.01112936 0.01927663 -0.0003990531
v 1.680488E-09 0.02225874 -0.0003990532
v 0.01112937 0.01927663 -0.0003990531
v 0.01927663 0.01112937 -0.000399053
v 0.01602147 0.009249999 0.1800002
v 0.0185 1.537557E-11 0.1800002
v -2.483527E-09 5.215406E-10 0.1800002
v 0.009249999 0.01602147 0.1800002
v 1.396711E-09 0.0185 0.1800002
v -0.009249997 0.01602147 0.1800002
v -0.01602147 0.009250004 0.1800002
v -0.0185 7.219542E-09 0.1800002
v -0.01602147 -0.009249992 0.1800002
v -0.009250006 -0.01602147 0.1800002
v -8.600877E-09 -0.0185 0.1800002
v 0.009249991 -0.01602148 0.1800002
v 0.01602146 -0.009250011 0.1800002
vt 0.01038602 0.3920005
vt 0.1613787 0.3920005
vt 0.1613787 0.3370394
vt 0.01038602 0.3370394
vt 0.1613787 0.2820421
vt 0.01038602 0.2820421
vt 0.1613787 0.2270882
vt 0.01038602 0.2270882
vt 0.1613787 0.1721805
vt 0.01038602 0.1721805
vt 0.1613787 0.1173077
vt 0.01038602 0.1173077
vt 0.1613787 0.06246507
vt 0.01038602 0.06246506
vt 0.1613787 0.007660467
vt 0.01038602 0.007660478
vt 0.01038602 0.446922
vt 0.2237568 0.282042
vt 0.2237568 0.3370393
vt 0.1613787 0.446922
vt 0.01038602 0.5018137
vt 0.1613787 0.5018137
vt 0.01038602 0.5566801
vt 0.1613787 0.5566801
vt 0.01038602 0.6115131
vt 0.1613787 0.6115131
vt 0.01038602 0.6654687
vt 0.1613787 0.6654687
vt 0.2237568 0.3920003
vt 0.2237568 0.6115129
vt 0.2237568 0.6654687
vt 0.2237568 0.5566799
vt 0.2237568 0.5018135
vt 0.2237568 0.4469219
vt 0.9907874 0.6115127
vt 0.9907874 0.6654687
vt 0.9907874 0.5566797
vt 0.9907874 0.5018133
vt 0.9907874 0.4469217
vt 0.9907874 0.3920002
vt 0.9907874 0.3370392
vt 0.9907874 0.2820419
vt 0.9907874 0.227088
vt 0.2237568 0.2270881
vt 0.2237568 0.1721804
vt 0.2237568 0.1173077
vt 0.2237568 0.06246505
vt 0.2237568 0.00766046
vt 0.9907874 0.1721804
vt 0.9907874 0.1173076
vt 0.9907874 0.06246502
vt 0.9907874 0.007660465
vt 0.2881979 0.7162332
vt 0.1741511 0.8302816
vt 0.3299427 0.7885364
vt 0.3299429 0.872025
vt 0.2881987 0.9443282
vt 0.2158958 0.9860724
vt 0.1324076 0.9860723
vt 0.06010479 0.9443289
vt 0.01836017 0.8720265
vt 0.01835935 0.7885384
vt 0.06010292 0.7162349
vt 0.1324056 0.6744901
vt 0.2158943 0.6744891
vt 0.7126299 0.8733788
vt 0.7126299 0.7900662
vt 0.5571667 0.8317225
vt 0.6709737 0.9455293
vt 0.598823 0.9871857
vt 0.5155106 0.9871855
vt 0.4433599 0.9455294
vt 0.4017037 0.8733788
vt 0.4017036 0.7900664
vt 0.4433598 0.7179157
vt 0.5155104 0.6762595
vt 0.5988229 0.6762594
vt 0.6709736 0.7179156
vn 1 -1.571363E-07 0
vn 0.9884261 -1.629531E-07 0.1517037
vn 0.8560021 0.494213 0.1517038
vn 0.8660254 0.5 0
vn 0.494213 0.856002 0.1517038
vn 0.5 0.8660254 0
vn 0 0.9884261 0.1517038
vn 0 1 1.032784E-07
vn -0.4942128 0.8560022 0.1517038
vn -0.4999998 0.8660255 0
vn -0.8560019 0.4942132 0.1517038
vn -0.8660253 0.5000002 0
vn -0.9884261 3.717368E-07 0.1517037
vn -1 4.026617E-07 0
vn -0.8560023 -0.4942128 0.1517037
vn -0.8660256 -0.4999998 0
vn 0.8660251 -0.5000005 0
vn 0.4935918 0.8549262 0.1595884
vn 0.8549262 0.4935918 0.1595884
vn 0.8560018 -0.4942134 0.1517037
vn 0.4999995 -0.8660257 0
vn 0.4942125 -0.8560023 0.1517037
vn -5.008719E-07 -1 -1.038108E-07
vn -5.092285E-07 -0.9884261 0.1517037
vn -0.5000004 -0.8660253 0
vn -0.4942134 -0.8560019 0.1517037
vn -0.8660256 -0.4999998 0
vn -0.8560023 -0.4942128 0.1517037
vn 0.9871837 -1.452067E-07 0.1595884
vn -0.4935923 -0.8549259 0.1595883
vn -0.8549263 -0.4935916 0.1595883
vn -5.082234E-07 -0.9871837 0.1595884
vn 0.4935914 -0.8549264 0.1595883
vn 0.8549259 -0.4935923 0.1595883
vn -0.5000004 -0.8660251 0
vn -0.8660256 -0.4999996 0
vn -5.106929E-07 -1 0
vn 0.4999995 -0.8660257 0
vn 0.8660251 -0.5000004 0
vn 1 -1.080312E-07 0
vn 0.8660254 0.5 0
vn 0.5000001 0.8660254 0
vn 0 1 0
vn 0 0.9871837 0.1595884
vn -0.4935917 0.8549262 0.1595884
vn -0.854926 0.4935921 0.1595884
vn -0.9871837 3.726971E-07 0.1595884
vn -0.8549263 -0.4935916 0.1595883
vn -0.4999999 0.8660255 0
vn -0.8660253 0.5000003 0
vn -1 4.026617E-07 0
vn -0.8660256 -0.4999996 0
vn 0 0 -1
vn 0 0 -1
vn 0 0 -1
vn 0 0 -1
vn 0 0 -1
vn 0 0 -1
vn 0 0 -1
vn 0 0 -1
vn 0 0 -1
vn 0 0 -1
vn 0 0 -1
vn 0 0 -1
vn 0 0 -1
vn 1.785743E-06 1.030999E-06 1
vn 2.061998E-06 0 1
vn 0 0 1
vn 1.030999E-06 1.785743E-06 1
vn 0 2.061999E-06 1
vn -1.030999E-06 1.785744E-06 1
vn -1.785743E-06 1.031E-06 1
vn -2.061999E-06 0 1
vn -1.785744E-06 -1.030999E-06 1
vn -1.031E-06 -1.785743E-06 1
vn 0 -2.061999E-06 1
vn 1.030998E-06 -1.785744E-06 1
vn 1.785742E-06 -1.031E-06 1
g silencer_pp-19-01_izhmash_vityaz_std_9x19_LOD1_0
f 3/3/3 2/2/2 1/1/1
f 4/4/4 3/3/3 1/1/1
f 5/5/5 3/3/3 4/4/4
f 6/6/6 5/5/5 4/4/4
f 7/7/7 5/5/5 6/6/6
f 8/8/8 7/7/7 6/6/6
f 9/9/9 7/7/7 8/8/8
f 10/10/10 9/9/9 8/8/8
f 11/11/11 9/9/9 10/10/10
f 12/12/12 11/11/11 10/10/10
f 13/13/13 11/11/11 12/12/12
f 14/14/14 13/13/13 12/12/12
f 15/15/15 13/13/13 14/14/14
f 16/16/16 15/15/15 14/14/14
f 1/1/1 2/2/2 17/17/17
f 3/3/3 5/5/5 18/18/18
f 19/19/19 3/3/3 18/18/18
f 2/2/2 3/3/3 19/19/19
f 2/2/2 20/20/20 17/17/17
f 17/17/17 20/20/20 21/21/21
f 20/20/20 22/22/22 21/21/21
f 21/21/21 22/22/22 23/23/23
f 22/22/22 24/24/24 23/23/23
f 23/23/23 24/24/24 25/25/25
f 24/24/24 26/26/26 25/25/25
f 25/25/25 26/26/26 27/27/27
f 26/26/26 28/28/28 27/27/27
f 29/29/29 2/2/2 19/19/19
f 28/28/28 26/26/26 30/30/30
f 31/31/31 28/28/28 30/30/30
f 26/26/26 24/24/24 32/32/32
f 30/30/30 26/26/26 32/32/32
f 24/24/24 22/22/22 33/33/33
f 32/32/32 24/24/24 33/33/33
f 22/22/22 20/20/20 34/34/34
f 33/33/33 22/22/22 34/34/34
f 34/34/34 20/20/20 2/2/2
f 29/29/29 34/34/34 2/2/2
f 31/31/31 30/30/30 35/35/35
f 36/36/36 31/31/31 35/35/35
f 30/30/30 32/32/32 37/37/37
f 35/35/35 30/30/30 37/37/37
f 32/32/32 33/33/33 38/38/38
f 37/37/37 32/32/32 38/38/38
f 33/33/33 34/34/34 39/39/39
f 38/38/38 33/33/33 39/39/39
f 34/34/34 29/29/29 40/40/40
f 39/39/39 34/34/34 40/40/40
f 40/40/40 29/29/29 41/41/41
f 29/29/29 19/19/19 41/41/41
f 41/41/41 19/19/19 42/42/42
f 19/19/19 18/18/18 42/42/42
f 42/42/42 18/18/18 43/43/43
f 18/18/18 44/44/44 43/43/43
f 18/18/18 5/5/5 44/44/44
f 5/5/5 7/7/7 44/44/44
f 44/44/44 7/7/7 45/45/45
f 7/7/7 9/9/9 45/45/45
f 45/45/45 9/9/9 46/46/46
f 9/9/9 11/11/11 46/46/46
f 46/46/46 11/11/11 47/47/47
f 11/11/11 13/13/13 47/47/47
f 47/47/47 13/13/13 48/48/48
f 13/13/13 15/15/15 48/48/48
f 44/44/44 45/45/45 49/49/49
f 43/43/43 44/44/44 49/49/49
f 45/45/45 46/46/46 50/50/50
f 49/49/49 45/45/45 50/50/50
f 46/46/46 47/47/47 51/51/51
f 50/50/50 46/46/46 51/51/51
f 47/47/47 48/48/48 52/52/52
f 51/51/51 47/47/47 52/52/52
f 55/55/55 54/54/54 53/53/53
f 56/56/56 54/54/54 55/55/55
f 57/57/57 54/54/54 56/56/56
f 58/58/58 54/54/54 57/57/57
f 59/59/59 54/54/54 58/58/58
f 60/60/60 54/54/54 59/59/59
f 61/61/61 54/54/54 60/60/60
f 62/62/62 54/54/54 61/61/61
f 63/63/63 54/54/54 62/62/62
f 64/64/64 54/54/54 63/63/63
f 65/65/65 54/54/54 64/64/64
f 53/53/53 54/54/54 65/65/65
f 68/68/68 67/67/67 66/66/66
f 68/68/68 66/66/66 69/69/69
f 68/68/68 69/69/69 70/70/70
f 68/68/68 70/70/70 71/71/71
f 68/68/68 71/71/71 72/72/72
f 68/68/68 72/72/72 73/73/73
f 68/68/68 73/73/73 74/74/74
f 68/68/68 74/74/74 75/75/75
f 68/68/68 75/75/75 76/76/76
f 68/68/68 76/76/76 77/77/77
f 68/68/68 77/77/77 78/78/78
f 68/68/68 78/78/78 67/67/67
