g silencer_akm_hexagon_akm_762x39_LOD1
v 0.02660309 -0.1972335 -5.323099E-06
v 0.01881501 -0.1972335 0.01880747
v 0.01881501 -0.008078289 0.01880743
v 0.02660309 -0.008078289 -5.355249E-06
v 0.01880744 -0.1972335 -0.01881497
v 0.01880744 -0.008078299 -0.018815
v -5.342509E-06 -0.1972335 -0.02660304
v -5.343846E-06 -0.008078299 -0.02660308
v -0.01881499 -0.1972335 -0.0188074
v -0.01881499 -0.008078299 -0.01880744
v -0.02660307 -0.1972335 5.375804E-06
v -0.02660307 -0.008078289 5.344986E-06
v -0.01880743 -0.1972335 0.01881503
v -0.01880744 -0.008078289 0.018815
v 5.345698E-06 -0.1972335 0.02660311
v 5.345698E-06 -0.008078289 0.02660308
v 0.01881501 -0.008078289 0.01880743
v 0.01881501 -0.1972335 0.01880747
v 5.345698E-06 -0.008078289 0.02660308
v -0.01880744 -0.008078289 0.018815
v -0.008355998 -0.008190241 0.0107706
v 0.001726186 -0.008190241 0.01345701
v -0.02660307 -0.008078289 5.344986E-06
v -0.0135856 -0.008190241 0.001741841
v -0.01881499 -0.008078299 -0.01880744
v -0.01089919 -0.008190241 -0.008340335
v -0.001870442 -0.008190241 -0.01356994
v -5.343846E-06 -0.008078299 -0.02660308
v 0.008211744 -0.008190241 -0.01088353
v 0.01880744 -0.008078299 -0.018815
v 0.01075495 -0.008190241 0.008227398
v 0.01881501 -0.008078289 0.01880743
v 0.02660309 -0.008078289 -5.355249E-06
v 0.01344134 -0.008190241 -0.001854782
v 0.01344134 6.427765E-06 -0.001854781
v 0.01344134 -0.008190241 -0.001854782
v 0.01075495 -0.008190241 0.008227398
v 0.01075495 6.427765E-06 0.008227399
v 0.008211742 6.427765E-06 -0.01088353
v 0.008211744 -0.008190241 -0.01088353
v 0.001726186 -0.008190241 0.01345701
v 0.001726186 6.427765E-06 0.013457
v -0.008355998 -0.008190241 0.0107706
v -0.008355996 6.427765E-06 0.0107706
v -0.0135856 -0.008190241 0.001741841
v -0.0135856 6.427765E-06 0.001741841
v -0.01089919 -0.008190241 -0.008340335
v -0.01089919 6.427765E-06 -0.008340338
v -0.001870442 -0.008190241 -0.01356994
v -0.00187044 6.427765E-06 -0.01356994
v 0.008211744 -0.008190241 -0.01088353
v 0.008211742 6.427765E-06 -0.01088353
v 0.01344134 6.427765E-06 -0.001854781
v 0.01075495 6.427765E-06 0.008227399
v 0.001726186 6.427765E-06 0.013457
v 0.008211742 6.427765E-06 -0.01088353
v -0.008355996 6.427765E-06 0.0107706
v -0.00187044 6.427765E-06 -0.01356994
v -0.0135856 6.427765E-06 0.001741841
v -0.01089919 6.427765E-06 -0.008340338
v -0.01881499 -0.1972335 -0.0188074
v 0.01881501 -0.1972335 0.01880747
v 0.02660309 -0.1972335 -5.323099E-06
v -5.342509E-06 -0.1972335 -0.02660304
v 5.345698E-06 -0.1972335 0.02660311
v -0.02660307 -0.1972335 5.375804E-06
v 0.01880744 -0.1972335 -0.01881497
v -0.01880743 -0.1972335 0.01881503
v -0.0007103223 -0.2002026 0.01886783
v -0.0007103223 -0.1972683 0.01886783
v 0.002098471 -0.1972683 0.02392885
v 0.00209847 -0.2002026 0.02392884
v 0.00209847 -0.2002026 0.02392884
v 0.002098471 -0.1972683 0.02392885
v 0.007885836 -0.1972683 0.02402686
v 0.007885836 -0.2002026 0.02402686
v 0.007885836 -0.2002026 0.02402686
v 0.007885836 -0.1972683 0.02402686
v 0.01086441 -0.1972683 0.01906387
v 0.01086441 -0.2002026 0.01906387
v 0.01086441 -0.2002026 0.01906387
v 0.01086441 -0.1972683 0.01906387
v 0.008055612 -0.1972683 0.01400285
v 0.008055612 -0.2002026 0.01400285
v 0.008055612 -0.2002026 0.01400285
v 0.008055612 -0.1972683 0.01400285
v 0.002268249 -0.1972683 0.01390483
v 0.002268248 -0.2002026 0.01390483
v 0.002268248 -0.2002026 0.01390483
v 0.002268249 -0.1972683 0.01390483
v -0.0007103223 -0.1972683 0.01886783
v -0.0007103223 -0.2002026 0.01886783
v -0.0007103223 -0.2002026 0.01886783
v 0.00209847 -0.2002026 0.02392884
v 0.007885836 -0.2002026 0.02402686
v 0.002268248 -0.2002026 0.01390483
v 0.01086441 -0.2002026 0.01906387
v 0.008055612 -0.2002026 0.01400285
v -0.02487733 -0.2002026 -0.006360692
v -0.02487733 -0.1972683 -0.006360693
v -0.02287949 -0.1972683 -0.0009282138
v -0.02287949 -0.2002026 -0.0009282114
v -0.02287949 -0.2002026 -0.0009282114
v -0.02287949 -0.1972683 -0.0009282138
v -0.01717591 -0.1972683 5.784664E-05
v -0.01717591 -0.2002026 5.784712E-05
v -0.01717591 -0.2002026 5.784712E-05
v -0.01717591 -0.1972683 5.784664E-05
v -0.01347016 -0.1972683 -0.004388573
v -0.01347016 -0.2002026 -0.004388573
v -0.01347016 -0.2002026 -0.004388573
v -0.01347016 -0.1972683 -0.004388573
v -0.015468 -0.1972683 -0.009821052
v -0.015468 -0.2002026 -0.009821054
v -0.015468 -0.2002026 -0.009821054
v -0.015468 -0.1972683 -0.009821052
v -0.02117159 -0.1972683 -0.01080711
v -0.02117159 -0.2002026 -0.01080711
v -0.02117159 -0.2002026 -0.01080711
v -0.02117159 -0.1972683 -0.01080711
v -0.02487733 -0.1972683 -0.006360693
v -0.02487733 -0.2002026 -0.006360692
v -0.02487733 -0.2002026 -0.006360692
v -0.02287949 -0.2002026 -0.0009282114
v -0.01717591 -0.2002026 5.784712E-05
v -0.02117159 -0.2002026 -0.01080711
v -0.01347016 -0.2002026 -0.004388573
v -0.015468 -0.2002026 -0.009821054
v 0.008973086 -0.2002026 -0.01674844
v 0.008973086 -0.1972683 -0.01674844
v 0.009323158 -0.1972683 -0.01097084
v 0.009323158 -0.2002026 -0.01097084
v 0.009323158 -0.2002026 -0.01097084
v 0.009323158 -0.1972683 -0.01097084
v 0.01450174 -0.1972683 -0.008385212
v 0.01450174 -0.2002026 -0.008385211
v 0.01450174 -0.2002026 -0.008385211
v 0.01450174 -0.1972683 -0.008385212
v 0.01933025 -0.1972683 -0.01157718
v 0.01933025 -0.2002026 -0.01157718
v 0.01933025 -0.2002026 -0.01157718
v 0.01933025 -0.1972683 -0.01157718
v 0.01898018 -0.1972683 -0.01735478
v 0.01898018 -0.2002026 -0.01735478
v 0.01898018 -0.2002026 -0.01735478
v 0.01898018 -0.1972683 -0.01735478
v 0.0138016 -0.1972683 -0.01994041
v 0.01380159 -0.2002026 -0.01994041
v 0.01380159 -0.2002026 -0.01994041
v 0.0138016 -0.1972683 -0.01994041
v 0.008973086 -0.1972683 -0.01674844
v 0.008973086 -0.2002026 -0.01674844
v 0.008973086 -0.2002026 -0.01674844
v 0.009323158 -0.2002026 -0.01097084
v 0.01450174 -0.2002026 -0.008385211
v 0.01380159 -0.2002026 -0.01994041
v 0.01933025 -0.2002026 -0.01157718
v 0.01898018 -0.2002026 -0.01735478
vt 0.3498587 0.1589481
vt 0.2575871 0.1589481
vt 0.2575871 0.9966822
vt 0.3498587 0.9966822
vt 0.4421302 0.1589481
vt 0.4421302 0.9966822
vt 0.5344018 0.1589481
vt 0.5344018 0.9966822
vt 0.6266758 0.1589481
vt 0.6266758 0.9966822
vt 0.7189497 0.1589481
vt 0.7189497 0.9966822
vt 0.8112215 0.1589481
vt 0.8112215 0.9966822
vt 0.9034929 0.1589481
vt 0.9034929 0.9966822
vt 0.9957651 0.9966822
vt 0.9957651 0.1589481
vt 0.08183223 0.4335672
vt 0.1763886 0.4337728
vt 0.1459469 0.3806235
vt 0.09793019 0.3741367
vt 0.2433929 0.3670543
vt 0.1844851 0.3512553
vt 0.243596 0.2724988
vt 0.1909698 0.3032369
vt 0.1616033 0.2646957
vt 0.1768811 0.2054917
vt 0.1135869 0.258209
vt 0.08232505 0.2052863
vt 0.06856355 0.3355953
vt 0.01511711 0.3665597
vt 0.01532058 0.2720044
vt 0.07504845 0.2875769
vt 0.9256605 0.1531646
vt 0.9256607 0.116863
vt 0.878545 0.116863
vt 0.878545 0.1531646
vt 0.9727761 0.1531646
vt 0.9727761 0.116863
vt 0.8078713 0.116863
vt 0.831429 0.1531646
vt 0.7843135 0.116863
vt 0.7843135 0.1531646
vt 0.7371982 0.116863
vt 0.7371982 0.1531646
vt 0.690082 0.116863
vt 0.690082 0.1531646
vt 0.6429662 0.116863
vt 0.6429662 0.1531646
vt 0.5976439 0.116863
vt 0.597644 0.1531646
vt 0.08123539 0.3534686
vt 0.1189838 0.3769041
vt 0.1622469 0.3667824
vt 0.07111378 0.3102057
vt 0.1856822 0.3290341
vt 0.09454905 0.2724572
vt 0.175561 0.285771
vt 0.1378125 0.2623355
vt 0.04088957 0.7859491
vt 0.2146194 0.959609
vt 0.2505755 0.8727542
vt 0.1277298 0.7499582
vt 0.1277797 0.9955999
vt 0.004934051 0.872804
vt 0.2145843 0.7859138
vt 0.04092479 0.9596444
vt 0.912102 0.0802789
vt 0.912102 0.09327405
vt 0.9377371 0.09327405
vt 0.9377371 0.0802789
vt 0.940912 0.0802789
vt 0.940912 0.09327405
vt 0.9665474 0.09327405
vt 0.9665474 0.0802789
vt 0.9706991 0.0802789
vt 0.9706991 0.09327405
vt 0.996334 0.09327405
vt 0.996334 0.0802789
vt 0.8244504 0.0802789
vt 0.8244504 0.09327405
vt 0.8500858 0.09327405
vt 0.8500858 0.0802789
vt 0.8537491 0.0802789
vt 0.8537491 0.09327405
vt 0.8793842 0.09327405
vt 0.8793842 0.0802789
vt 0.8830475 0.0802789
vt 0.8830475 0.09327405
vt 0.9086829 0.09327405
vt 0.9086829 0.0802789
vt 0.4596595 0.1288518
vt 0.4720991 0.151266
vt 0.4977304 0.1517002
vt 0.4728512 0.1068712
vt 0.5109218 0.1297203
vt 0.4984825 0.1073057
vt 0.8244516 0.06256935
vt 0.8244516 0.07556453
vt 0.8500866 0.07556453
vt 0.8500866 0.06256935
vt 0.8537499 0.06256935
vt 0.8537499 0.07556453
vt 0.8793846 0.07556453
vt 0.8793846 0.06256935
vt 0.8830479 0.06256935
vt 0.8830479 0.07556453
vt 0.9086829 0.07556453
vt 0.9086829 0.06256935
vt 0.912102 0.06256935
vt 0.912102 0.07556453
vt 0.9377365 0.07556453
vt 0.9377365 0.06256935
vt 0.9409114 0.06256935
vt 0.9409114 0.07556453
vt 0.9665465 0.07556453
vt 0.9665465 0.06256935
vt 0.9706983 0.06256935
vt 0.9706983 0.07556453
vt 0.9963328 0.07556453
vt 0.9963328 0.06256935
vt 0.5651493 0.1234714
vt 0.5728179 0.1479326
vt 0.5978363 0.1535219
vt 0.582499 0.1045999
vt 0.6151859 0.1346504
vt 0.6075172 0.1101893
vt 0.912102 0.09884336
vt 0.912102 0.1118385
vt 0.9377367 0.1118385
vt 0.9377367 0.09884336
vt 0.9409117 0.09884336
vt 0.9409117 0.1118385
vt 0.9665471 0.1118385
vt 0.9665471 0.09884336
vt 0.9706989 0.09884336
vt 0.9706989 0.1118385
vt 0.9963343 0.1118385
vt 0.9963343 0.09884336
vt 0.8244508 0.09884336
vt 0.8244508 0.1118385
vt 0.8500858 0.1118385
vt 0.8500858 0.09884336
vt 0.8537491 0.09884336
vt 0.8537491 0.1118385
vt 0.879384 0.1118385
vt 0.879384 0.09884336
vt 0.8830473 0.09884336
vt 0.8830473 0.1118385
vt 0.9086829 0.1118385
vt 0.9086829 0.09884336
vt 0.5159941 0.1183627
vt 0.5162987 0.1439962
vt 0.5386506 0.1565486
vt 0.5380403 0.1052824
vt 0.5606962 0.1434677
vt 0.5603918 0.1178345
vn 1 0 -0.000201355
vn 0.707249 1.206083E-07 0.7069646
vn 0.7072491 1.206083E-07 0.7069645
vn 1 0 -0.0002014167
vn 0.7069645 -1.088825E-07 -0.7072491
vn 0.7069644 -1.088826E-07 -0.7072491
vn -0.0002010675 -1.654177E-07 -1
vn -0.000201047 -1.654177E-07 -1
vn -0.7072489 -1.258431E-07 -0.7069647
vn -0.7072489 -1.258431E-07 -0.7069647
vn -1 0 0.0002009032
vn -1 0 0.0002008622
vn -0.7069648 1.046948E-07 0.7072488
vn -0.7069648 1.046948E-07 0.7072487
vn 0.0002009649 1.603923E-07 1
vn 0.0002009649 1.603923E-07 1
vn 0.7072491 1.206083E-07 0.7069645
vn 0.707249 1.206083E-07 0.7069646
vn 1.519925E-05 0.9999632 -0.008586224
vn 0.006113978 0.9999628 -0.006092054
vn 0.005468719 0.9999628 -0.006673512
vn -0.0008514701 0.9999632 -0.008542633
vn 0.008671932 0.9999624 2.154341E-05
vn 0.008627961 0.9999624 -0.0008656952
vn 0.006119448 0.9999623 0.006162078
vn 0.006737584 0.9999623 0.005486534
vn 0.0008971925 0.9999624 0.008624219
vn -3.607268E-05 0.9999626 0.008661157
vn -0.005433889 0.9999628 0.006701217
vn -0.006117861 0.9999629 0.006067264
vn -0.006638067 0.9999633 -0.005416003
vn -0.006040739 0.9999634 -0.006070274
vn -0.008576218 0.9999633 -2.945955E-05
vn -0.008539354 0.9999632 0.0008823423
vn 0.9912612 2.050918E-07 -0.1319129
vn 0.9912612 2.050918E-07 -0.131913
vn 0.7942042 0 0.6076509
vn 0.7942042 0 0.6076509
vn 0.6076512 1.06082E-07 -0.7942039
vn 0.6076513 1.06082E-07 -0.7942039
vn 0.1319126 1.603016E-07 0.9912612
vn 0.1319126 1.603015E-07 0.9912612
vn -0.6076515 2.522393E-07 0.7942038
vn -0.6076515 2.522392E-07 0.7942038
vn -0.9912614 1.414426E-07 0.1319123
vn -0.9912614 1.414426E-07 0.1319123
vn -0.7942039 0 -0.6076512
vn -0.7942038 0 -0.6076514
vn -0.1319127 0 -0.9912612
vn -0.1319126 0 -0.9912612
vn 0.6076513 1.06082E-07 -0.7942039
vn 0.6076512 1.06082E-07 -0.7942039
vn 0 1 0
vn 0 1 0
vn 0 1 0
vn 0 1 0
vn 0 1 0
vn 0 1 0
vn 0 1 0
vn 0 1 0
vn 0 -1 0
vn 0 -1 0
vn 0 -1 0
vn 0 -1 0
vn 0 -1 0
vn 0 -1 0
vn 0 -1 0
vn 0 -1 0
vn -0.8743685 -1.754731E-07 0.4852626
vn -0.8743685 -1.754731E-07 0.4852625
vn -0.8743685 -1.754731E-07 0.4852626
vn -0.8743685 -1.754731E-07 0.4852625
vn -0.01693465 -8.091637E-07 0.9998566
vn -0.01693464 -8.091637E-07 0.9998566
vn -0.01693464 -8.091637E-07 0.9998566
vn -0.01693464 -8.091637E-07 0.9998566
vn 0.8574339 1.096707E-07 0.5145941
vn 0.8574339 1.096707E-07 0.5145941
vn 0.8574339 1.096707E-07 0.5145941
vn 0.8574339 1.096707E-07 0.5145941
vn 0.8743684 -1.754731E-07 -0.4852628
vn 0.8743684 -1.754731E-07 -0.4852628
vn 0.8743684 -1.754731E-07 -0.4852628
vn 0.8743684 -1.754731E-07 -0.4852628
vn 0.01693445 0 -0.9998566
vn 0.01693445 0 -0.9998566
vn 0.01693445 0 -0.9998566
vn 0.01693444 0 -0.9998566
vn -0.8574339 0 -0.514594
vn -0.8574339 0 -0.5145941
vn -0.8574339 0 -0.514594
vn -0.8574339 0 -0.514594
vn 0 -1 0
vn 0 -1 0
vn 0 -1 0
vn 0 -1 0
vn 0 -1 0
vn 0 -1 0
vn -0.9385446 1.75473E-07 0.3451581
vn -0.9385446 1.75473E-07 0.3451581
vn -0.9385446 1.75473E-07 0.3451581
vn -0.9385446 1.75473E-07 0.3451581
vn -0.170357 4.880346E-07 0.9853824
vn -0.170357 4.880345E-07 0.9853824
vn -0.170357 4.880346E-07 0.9853824
vn -0.170357 4.880345E-07 0.9853824
vn 0.7681876 0 0.6402248
vn 0.7681876 0 0.6402249
vn 0.7681876 0 0.6402248
vn 0.7681876 0 0.6402249
vn 0.9385446 -1.041871E-07 -0.345158
vn 0.9385446 -1.041871E-07 -0.345158
vn 0.9385446 -1.041871E-07 -0.345158
vn 0.9385446 -1.041871E-07 -0.345158
vn 0.1703567 2.659513E-07 -0.9853824
vn 0.1703566 2.659513E-07 -0.9853824
vn 0.1703566 2.659513E-07 -0.9853824
vn 0.1703566 2.659513E-07 -0.9853824
vn -0.7681878 0 -0.6402246
vn -0.7681878 0 -0.6402246
vn -0.7681878 0 -0.6402245
vn -0.7681878 0 -0.6402245
vn 0 -1 0
vn 0 -1 0
vn 0 -1 0
vn 0 -1 0
vn 0 -1 0
vn 0 -1 0
vn -0.9981694 0 0.06048031
vn -0.9981694 0 0.0604803
vn -0.9981694 0 0.06048031
vn -0.9981694 0 0.06048031
vn -0.4467068 4.386827E-07 0.8946804
vn -0.4467068 4.386828E-07 0.8946804
vn -0.4467068 4.386828E-07 0.8946804
vn -0.4467068 4.386827E-07 0.8946804
vn 0.5514619 2.632096E-07 0.8342001
vn 0.5514619 2.632096E-07 0.8342
vn 0.5514619 2.632096E-07 0.8342001
vn 0.5514619 2.632096E-07 0.8342
vn 0.9981694 -2.303084E-07 -0.06048052
vn 0.9981694 -2.303084E-07 -0.06048052
vn 0.9981694 -2.303084E-07 -0.06048052
vn 0.9981694 -2.303084E-07 -0.06048052
vn 0.446707 -8.883322E-07 -0.8946803
vn 0.446707 -8.883321E-07 -0.8946803
vn 0.446707 -8.883321E-07 -0.8946803
vn 0.446707 -8.883321E-07 -0.8946803
vn -0.5514622 -1.754731E-07 -0.8341998
vn -0.5514622 -1.754731E-07 -0.8341998
vn -0.5514622 -1.754731E-07 -0.8341998
vn -0.5514622 -1.754731E-07 -0.8341998
vn 0 -1 0
vn 0 -1 0
vn 0 -1 0
vn 0 -1 0
vn 0 -1 0
vn 0 -1 0
g silencer_akm_hexagon_akm_762x39_LOD1_0
f 3/3/3 2/2/2 1/1/1
f 4/4/4 3/3/3 1/1/1
f 4/4/4 1/1/1 5/5/5
f 6/6/6 4/4/4 5/5/5
f 6/6/6 5/5/5 7/7/7
f 8/8/8 6/6/6 7/7/7
f 8/8/8 7/7/7 9/9/9
f 10/10/10 8/8/8 9/9/9
f 10/10/10 9/9/9 11/11/11
f 12/12/12 10/10/10 11/11/11
f 12/12/12 11/11/11 13/13/13
f 14/14/14 12/12/12 13/13/13
f 14/14/14 13/13/13 15/15/15
f 16/16/16 14/14/14 15/15/15
f 17/17/17 16/16/16 15/15/15
f 18/18/18 17/17/17 15/15/15
f 21/21/21 20/20/20 19/19/19
f 22/22/22 21/21/21 19/19/19
f 23/23/23 20/20/20 21/21/21
f 24/24/24 23/23/23 21/21/21
f 25/25/25 23/23/23 24/24/24
f 26/26/26 25/25/25 24/24/24
f 25/25/25 26/26/26 27/27/27
f 28/28/28 25/25/25 27/27/27
f 27/27/27 29/29/29 28/28/28
f 29/29/29 30/30/30 28/28/28
f 31/31/31 22/22/22 19/19/19
f 32/32/32 31/31/31 19/19/19
f 31/31/31 32/32/32 33/33/33
f 34/34/34 31/31/31 33/33/33
f 34/34/34 33/33/33 30/30/30
f 29/29/29 34/34/34 30/30/30
f 37/37/37 36/36/36 35/35/35
f 38/38/38 37/37/37 35/35/35
f 39/39/39 35/35/35 36/36/36
f 40/40/40 39/39/39 36/36/36
f 37/37/37 38/38/38 41/41/41
f 38/38/38 42/42/42 41/41/41
f 41/41/41 42/42/42 43/43/43
f 42/42/42 44/44/44 43/43/43
f 43/43/43 44/44/44 45/45/45
f 44/44/44 46/46/46 45/45/45
f 45/45/45 46/46/46 47/47/47
f 46/46/46 48/48/48 47/47/47
f 47/47/47 48/48/48 49/49/49
f 48/48/48 50/50/50 49/49/49
f 49/49/49 50/50/50 51/51/51
f 50/50/50 52/52/52 51/51/51
f 55/55/55 54/54/54 53/53/53
f 55/55/55 53/53/53 56/56/56
f 57/57/57 55/55/55 56/56/56
f 57/57/57 56/56/56 58/58/58
f 59/59/59 57/57/57 58/58/58
f 60/60/60 59/59/59 58/58/58
f 63/63/63 62/62/62 61/61/61
f 64/64/64 63/63/63 61/61/61
f 61/61/61 62/62/62 65/65/65
f 66/66/66 61/61/61 65/65/65
f 67/67/67 63/63/63 64/64/64
f 68/68/68 66/66/66 65/65/65
f 71/71/71 70/70/70 69/69/69
f 72/72/72 71/71/71 69/69/69
f 75/75/75 74/74/74 73/73/73
f 76/76/76 75/75/75 73/73/73
f 79/79/79 78/78/78 77/77/77
f 80/80/80 79/79/79 77/77/77
f 83/83/83 82/82/82 81/81/81
f 84/84/84 83/83/83 81/81/81
f 87/87/87 86/86/86 85/85/85
f 88/88/88 87/87/87 85/85/85
f 91/91/91 90/90/90 89/89/89
f 92/92/92 91/91/91 89/89/89
f 95/95/95 94/94/94 93/93/93
f 95/95/95 93/93/93 96/96/96
f 97/97/97 95/95/95 96/96/96
f 98/98/98 97/97/97 96/96/96
f 101/101/101 100/100/100 99/99/99
f 102/102/102 101/101/101 99/99/99
f 105/105/105 104/104/104 103/103/103
f 106/106/106 105/105/105 103/103/103
f 109/109/109 108/108/108 107/107/107
f 110/110/110 109/109/109 107/107/107
f 113/113/113 112/112/112 111/111/111
f 114/114/114 113/113/113 111/111/111
f 117/117/117 116/116/116 115/115/115
f 118/118/118 117/117/117 115/115/115
f 121/121/121 120/120/120 119/119/119
f 122/122/122 121/121/121 119/119/119
f 125/125/125 124/124/124 123/123/123
f 125/125/125 123/123/123 126/126/126
f 127/127/127 125/125/125 126/126/126
f 128/128/128 127/127/127 126/126/126
f 131/131/131 130/130/130 129/129/129
f 132/132/132 131/131/131 129/129/129
f 135/135/135 134/134/134 133/133/133
f 136/136/136 135/135/135 133/133/133
f 139/139/139 138/138/138 137/137/137
f 140/140/140 139/139/139 137/137/137
f 143/143/143 142/142/142 141/141/141
f 144/144/144 143/143/143 141/141/141
f 147/147/147 146/146/146 145/145/145
f 148/148/148 147/147/147 145/145/145
f 151/151/151 150/150/150 149/149/149
f 152/152/152 151/151/151 149/149/149
f 155/155/155 154/154/154 153/153/153
f 155/155/155 153/153/153 156/156/156
f 157/157/157 155/155/155 156/156/156
f 158/158/158 157/157/157 156/156/156
