g silencer_all_rotor_43_v2_LOD1
v -5.94759E-05 -0.1793009 0.02184336
v -5.946159E-05 -0.008745637 0.02184335
v 0.01279348 -0.008745637 0.01766717
v 0.01279347 -0.1793009 0.01766718
v 0.02073703 -0.008745637 0.006733794
v 0.02073702 -0.1793009 0.006733797
v 0.02073702 -0.008745637 -0.006780591
v 0.02073701 -0.1793009 -0.006780591
v 0.01279346 -0.008745637 -0.01771395
v 0.01279345 -0.1793009 -0.01771396
v -5.94902E-05 -0.008745637 -0.02189012
v -5.950451E-05 -0.1793009 -0.02189013
v -5.950451E-05 -0.1793009 -0.02189013
v -5.94902E-05 -0.008745637 -0.02189012
v -0.01291243 -0.008745637 -0.01771394
v -0.01291245 -0.1793009 -0.01771394
v -0.02085598 -0.008745637 -0.006780567
v -0.020856 -0.1793009 -0.006780568
v -0.02085597 -0.008745637 0.006733823
v -0.02085599 -0.1793009 0.006733827
v -0.0129124 -0.008745637 0.01766719
v -0.01291242 -0.1793009 0.01766719
v -5.946159E-05 -0.008745637 0.02184335
v -5.94759E-05 -0.1793009 0.02184336
v -0.01291245 -0.1793009 -0.01771394
v -0.01291242 -0.1793009 0.01766719
v -5.94759E-05 -0.1793009 0.02184336
v -5.950451E-05 -0.1793009 -0.02189013
v 0.01279345 -0.1793009 -0.01771396
v 0.01279347 -0.1793009 0.01766718
v -0.02085599 -0.1793009 0.006733827
v -0.020856 -0.1793009 -0.006780568
v 0.02073701 -0.1793009 -0.006780591
v 0.02073702 -0.1793009 0.006733797
v -0.01065411 -0.008677721 -0.005840535
v -0.01065411 -0.0006187058 -0.005840534
v -0.0106541 -0.0006187058 0.006299024
v -0.0106541 -0.008677721 0.006299026
v -0.000140934 -0.0006187058 0.0123688
v -0.000140934 -0.008677726 0.0123688
v -0.0001409388 -0.008677726 -0.01191032
v -0.0001409388 -0.0006187058 -0.01191032
v -0.000140934 -0.008677726 0.0123688
v -0.000140934 -0.0006187058 0.0123688
v 0.01037223 -0.0006187105 0.006299017
v 0.01037223 -0.00867773 0.006299017
v 0.01037223 -0.0006187058 -0.005840541
v 0.01037223 -0.00867773 -0.005840541
v -0.0001409388 -0.0006187058 -0.01191032
v -0.0001409388 -0.008677726 -0.01191032
v -0.0106541 -0.0006187058 0.006299024
v -0.01065411 -0.0006187058 -0.005840534
v -0.0001409388 -0.0006187058 -0.01191032
v -0.000140934 -0.0006187058 0.0123688
v 0.01037223 -0.0006187105 0.006299017
v 0.01037223 -0.0006187058 -0.005840541
v -0.0129124 -0.008745637 0.01766719
v -0.0106541 -0.008677721 0.006299026
v -0.000140934 -0.008677726 0.0123688
v -5.946159E-05 -0.008745637 0.02184335
v 0.01279348 -0.008745637 0.01766717
v 0.01037223 -0.00867773 0.006299017
v 0.02073703 -0.008745637 0.006733794
v 0.01037223 -0.00867773 -0.005840541
v 0.02073702 -0.008745637 -0.006780591
v 0.01279346 -0.008745637 -0.01771395
v -0.0001409388 -0.008677726 -0.01191032
v -5.94902E-05 -0.008745637 -0.02189012
v -0.01291243 -0.008745637 -0.01771394
v -0.01065411 -0.008677721 -0.005840535
v -0.02085598 -0.008745637 -0.006780567
v -0.02085597 -0.008745637 0.006733823
vt 0.9891174 0.08595888
vt 0.9891174 0.9877956
vt 0.9176581 0.9877956
vt 0.9176581 0.08595878
vt 0.8461986 0.9877956
vt 0.8461986 0.08595878
vt 0.7747394 0.9877956
vt 0.7747394 0.08595878
vt 0.7032799 0.9877956
vt 0.7032799 0.08595878
vt 0.6318207 0.9877956
vt 0.6318207 0.08595888
vt 0.6317186 0.08595898
vt 0.6317186 0.9877952
vt 0.7031778 0.9877952
vt 0.7031778 0.08595898
vt 0.7746373 0.9877952
vt 0.7746373 0.08595898
vt 0.8460966 0.9877952
vt 0.8460966 0.08595898
vt 0.9175562 0.9877952
vt 0.9175562 0.08595898
vt 0.9890154 0.9877952
vt 0.9890154 0.08595898
vt 0.06070769 0.527406
vt 0.06070793 0.7144889
vt 0.1286696 0.7365715
vt 0.1286696 0.5053238
vt 0.1966316 0.527406
vt 0.1966316 0.7144889
vt 0.01870507 0.6566774
vt 0.01870507 0.5852181
vt 0.2386344 0.5852181
vt 0.2386344 0.6566774
vt 0.8620718 0.01303059
vt 0.8620718 0.05566359
vt 0.9262024 0.05566359
vt 0.9262024 0.01303059
vt 0.9904217 0.05566359
vt 0.9904217 0.01303059
vt 0.7979411 0.01303059
vt 0.7979411 0.05566359
vt 0.9904217 0.01303059
vt 0.9904217 0.05566359
vt 0.9262024 0.05566359
vt 0.9262024 0.01303059
vt 0.8620718 0.05566359
vt 0.8620718 0.01303059
vt 0.7979411 0.05566359
vt 0.7979411 0.01303059
vt 0.04962623 0.2507738
vt 0.1138161 0.2507738
vt 0.1459107 0.1951842
vt 0.01753139 0.1951842
vt 0.04962623 0.1395943
vt 0.1138161 0.1395943
vt 0.09683757 0.2731605
vt 0.08890106 0.3339323
vt 0.1518427 0.3213283
vt 0.1682936 0.2740039
vt 0.2256068 0.3166863
vt 0.194229 0.3695343
vt 0.2468856 0.3849036
vt 0.1736736 0.4303439
vt 0.224002 0.4526006
vt 0.1656969 0.4939181
vt 0.1107315 0.4429479
vt 0.09424101 0.4930746
vt 0.03692743 0.4503922
vt 0.06834525 0.3947421
vt 0.01564885 0.3821746
vt 0.03853239 0.3144781
vn 7.381173E-07 0 1
vn 6.283975E-07 0 1
vn 0.5877856 0 0.8090166
vn 0.5877858 0 0.8090166
vn 0.9510568 0 0.3090162
vn 0.9510568 0 0.3090162
vn 0.9510562 0 -0.3090177
vn 0.9510562 0 -0.3090177
vn 0.5877848 0 -0.8090174
vn 0.5877849 0 -0.8090173
vn -5.984738E-07 0 -1
vn -4.787789E-07 0 -1
vn -4.787789E-07 0 -1
vn -5.984738E-07 0 -1
vn -0.5877858 0 -0.8090166
vn -0.5877858 0 -0.8090166
vn -0.9510567 0 -0.3090164
vn -0.9510567 0 -0.3090164
vn -0.9510562 0 0.3090177
vn -0.9510562 0 0.3090177
vn -0.5877845 0 0.8090175
vn -0.5877845 0 0.8090175
vn 6.283975E-07 0 1
vn 7.381173E-07 0 1
vn 0 -1 0
vn 0 -1 0
vn -7.419889E-07 -1 0
vn -7.419889E-07 -1 0
vn -1.112983E-06 -1 0
vn -1.112983E-06 -1 0
vn 0 -1 0
vn 0 -1 0
vn 0 -1 0
vn 0 -1 0
vn -0.8660255 0 -0.4999999
vn -0.8660255 0 -0.4999997
vn -0.8660253 0 0.5000002
vn -0.8660253 0 0.5000004
vn 2.628942E-07 1.582876E-07 1
vn 4.600647E-07 1.582876E-07 1
vn 0 1.494938E-07 -1
vn -1.971706E-07 1.494938E-07 -1
vn 4.600647E-07 1.582876E-07 1
vn 2.628942E-07 1.582876E-07 1
vn 0.8660256 2.499474E-07 0.4999998
vn 0.8660256 2.499474E-07 0.4999996
vn 0.8660253 2.499474E-07 -0.5000004
vn 0.8660253 2.499474E-07 -0.5000001
vn -1.971706E-07 1.494938E-07 -1
vn 0 1.494938E-07 -1
vn 0 1 0
vn 0 1 0
vn 1.133905E-07 1 0
vn 1.133905E-07 1 0
vn 2.267811E-07 1 1.30932E-07
vn 2.267811E-07 1 1.30932E-07
vn -0.002732178 0.9999769 0.006231264
vn -0.002732177 0.9999769 0.006231263
vn -0.002732178 0.9999769 0.006231263
vn -0.002732178 0.9999769 0.006231263
vn 0.002714588 0.9999772 0.006190204
vn 0.002714588 0.9999772 0.006190203
vn 0.00635767 0.9999691 0.004619111
vn 0.006551495 0.9999785 0
vn 0.006551495 0.9999785 0
vn 0.006146431 0.9999712 -0.004465649
vn 0.002595076 0.9999791 -0.005917666
vn 0.002595076 0.9999791 -0.005917666
vn -0.00261113 0.9999789 -0.005955193
vn -0.00261113 0.9999789 -0.005955195
vn -0.006239304 0.9999703 -0.004533117
vn -0.006657051 0.9999778 0
g silencer_all_rotor_43_v2_LOD1_0
f 3/3/3 2/2/2 1/1/1
f 4/4/4 3/3/3 1/1/1
f 5/5/5 3/3/3 4/4/4
f 6/6/6 5/5/5 4/4/4
f 7/7/7 5/5/5 6/6/6
f 8/8/8 7/7/7 6/6/6
f 9/9/9 7/7/7 8/8/8
f 10/10/10 9/9/9 8/8/8
f 11/11/11 9/9/9 10/10/10
f 12/12/12 11/11/11 10/10/10
f 15/15/15 14/14/14 13/13/13
f 16/16/16 15/15/15 13/13/13
f 17/17/17 15/15/15 16/16/16
f 18/18/18 17/17/17 16/16/16
f 19/19/19 17/17/17 18/18/18
f 20/20/20 19/19/19 18/18/18
f 21/21/21 19/19/19 20/20/20
f 22/22/22 21/21/21 20/20/20
f 23/23/23 21/21/21 22/22/22
f 24/24/24 23/23/23 22/22/22
f 27/27/27 26/26/26 25/25/25
f 28/28/28 27/27/27 25/25/25
f 27/27/27 28/28/28 29/29/29
f 30/30/30 27/27/27 29/29/29
f 25/25/25 26/26/26 31/31/31
f 32/32/32 25/25/25 31/31/31
f 30/30/30 29/29/29 33/33/33
f 34/34/34 30/30/30 33/33/33
f 37/37/37 36/36/36 35/35/35
f 38/38/38 37/37/37 35/35/35
f 39/39/39 37/37/37 38/38/38
f 40/40/40 39/39/39 38/38/38
f 35/35/35 36/36/36 41/41/41
f 36/36/36 42/42/42 41/41/41
f 45/45/45 44/44/44 43/43/43
f 46/46/46 45/45/45 43/43/43
f 47/47/47 45/45/45 46/46/46
f 48/48/48 47/47/47 46/46/46
f 49/49/49 47/47/47 48/48/48
f 50/50/50 49/49/49 48/48/48
f 53/53/53 52/52/52 51/51/51
f 54/54/54 53/53/53 51/51/51
f 53/53/53 54/54/54 55/55/55
f 56/56/56 53/53/53 55/55/55
f 59/59/59 58/58/58 57/57/57
f 60/60/60 59/59/59 57/57/57
f 59/59/59 60/60/60 61/61/61
f 62/62/62 59/59/59 61/61/61
f 63/63/63 62/62/62 61/61/61
f 64/64/64 62/62/62 63/63/63
f 65/65/65 64/64/64 63/63/63
f 66/66/66 64/64/64 65/65/65
f 67/67/67 64/64/64 66/66/66
f 68/68/68 67/67/67 66/66/66
f 67/67/67 68/68/68 69/69/69
f 70/70/70 67/67/67 69/69/69
f 71/71/71 70/70/70 69/69/69
f 70/70/70 71/71/71 72/72/72
f 58/58/58 70/70/70 72/72/72
f 57/57/57 58/58/58 72/72/72
