g silencer_all_sig_srd_9_9x19_LOD1
v 0.01771264 -0.028417 0.0004858473
v 0.01255563 -0.1822226 0.01293592
v 0.01255564 -0.028417 0.01293594
v 0.01771263 -0.1822225 0.0004858287
v 0.0001055412 -0.1822226 0.01809292
v 0.0001055476 -0.028417 0.01809294
v -0.01234455 -0.1822226 0.01293592
v -0.01234455 -0.028417 0.01293594
v -0.01750155 -0.1822225 0.0004858271
v -0.01750154 -0.028417 0.0004858458
v -0.01234455 -0.1822225 -0.01196427
v -0.01234454 -0.028417 -0.01196425
v 0.0001055422 -0.1822225 -0.01712126
v 0.0001055486 -0.028417 -0.01712125
v 0.01255564 -0.028417 -0.01196425
v 0.01255563 -0.1822225 -0.01196427
v 0.0001055486 -0.028417 -0.01712125
v 0.0001055422 -0.1822225 -0.01712126
v 0.0001055494 -0.0001174604 -0.008755771
v -0.009136072 -0.0001174604 0.0004858502
v -0.006429262 -0.0001174604 -0.006048963
v 0.009347171 -0.0001174604 0.0004858511
v 0.0001055489 -0.0001174604 0.009727472
v -0.006429264 -0.0001174604 0.007020664
v 0.006640363 -0.0001174604 0.007020664
v 0.006640363 -0.0001174604 -0.006048963
v -0.01750155 -0.1822225 0.0004858271
v 0.01255563 -0.1822225 -0.01196427
v -0.01234455 -0.1822225 -0.01196427
v 0.01771263 -0.1822225 0.0004858287
v 0.01255563 -0.1822226 0.01293592
v -0.01234455 -0.1822226 0.01293592
v 0.0001055412 -0.1822226 0.01809292
v 0.0001055422 -0.1822225 -0.01712126
v 0.01255564 -0.028417 0.01293594
v 0.01297725 -0.028417 0.0004858473
v 0.01771264 -0.028417 0.0004858473
v 0.009207216 -0.028417 0.009587516
v 0.0001055476 -0.028417 0.01809294
v 0.0001055478 -0.028417 0.01335755
v -0.01234455 -0.028417 0.01293594
v -0.008996118 -0.028417 0.009587516
v -0.01750154 -0.028417 0.0004858458
v -0.01276615 -0.028417 0.0004858462
v 0.01771264 -0.028417 0.0004858473
v 0.009207216 -0.028417 -0.008615821
v 0.01255564 -0.028417 -0.01196425
v 0.01297725 -0.028417 0.0004858473
v 0.0001055485 -0.028417 -0.01238585
v 0.0001055486 -0.028417 -0.01712125
v -0.008996118 -0.028417 -0.008615821
v -0.01234454 -0.028417 -0.01196425
v -0.01276615 -0.028417 0.0004858462
v -0.01750154 -0.028417 0.0004858458
v 0.009207216 -0.028417 0.009587516
v 0.01297725 -0.005414973 0.0004858502
v 0.01297725 -0.028417 0.0004858473
v 0.009207216 -0.005414973 0.009587517
v 0.009207216 -0.005414973 -0.008615819
v 0.009207216 -0.028417 -0.008615821
v 0.0001055494 -0.005414973 -0.01238585
v 0.0001055485 -0.028417 -0.01238585
v -0.008996117 -0.005414973 -0.008615819
v -0.008996118 -0.028417 -0.008615821
v -0.01276615 -0.005414973 0.0004858491
v -0.01276615 -0.028417 0.0004858462
v 0.0001055478 -0.028417 0.01335755
v 0.0001055487 -0.005414973 0.01335755
v -0.008996118 -0.028417 0.009587516
v -0.008996118 -0.005414973 0.009587517
v -0.01276615 -0.028417 0.0004858462
v -0.01276615 -0.005414973 0.0004858491
v 0.009207216 -0.005414973 0.009587517
v 0.009347171 -0.005414973 0.0004858502
v 0.01297725 -0.005414973 0.0004858502
v 0.006640363 -0.005414973 0.007020664
v 0.006640363 -0.005414973 -0.006048964
v 0.009207216 -0.005414973 -0.008615819
v 0.0001055494 -0.005414973 -0.008755771
v 0.0001055494 -0.005414973 -0.01238585
v -0.006429262 -0.005414973 -0.006048964
v -0.008996117 -0.005414973 -0.008615819
v -0.009136072 -0.005414973 0.0004858493
v -0.01276615 -0.005414973 0.0004858491
v -0.006429264 -0.005414973 0.007020664
v -0.008996118 -0.005414973 0.009587517
v 0.0001055489 -0.005414973 0.009727472
v 0.0001055487 -0.005414973 0.01335755
v 0.006640363 -0.005414973 0.007020664
v 0.009347171 -0.0001174604 0.0004858511
v 0.009347171 -0.005414973 0.0004858502
v 0.006640363 -0.0001174604 0.007020664
v 0.006640363 -0.0001174604 -0.006048963
v 0.006640363 -0.005414973 -0.006048964
v 0.0001055489 -0.005414973 0.009727472
v 0.0001055489 -0.0001174604 0.009727472
v -0.006429264 -0.005414973 0.007020664
v -0.006429264 -0.0001174604 0.007020664
v -0.009136072 -0.005414973 0.0004858493
v -0.009136072 -0.0001174604 0.0004858502
v -0.006429262 -0.005414973 -0.006048964
v -0.006429262 -0.0001174604 -0.006048963
v 0.0001055494 -0.005414973 -0.008755771
v 0.0001055494 -0.0001174604 -0.008755771
v 0.006640363 -0.005414973 -0.006048964
v 0.006640363 -0.0001174604 -0.006048963
vt 0.266507 0.01857026
vt 0.3876344 0.7098071
vt 0.3876344 0.01857026
vt 0.266507 0.7098071
vt 0.5087618 0.7098071
vt 0.5087618 0.01857026
vt 0.6298892 0.7098071
vt 0.6298892 0.01857026
vt 0.7510166 0.7098071
vt 0.7510166 0.01857026
vt 0.872144 0.7098071
vt 0.872144 0.01857026
vt 0.9932706 0.7098071
vt 0.9932714 0.01857026
vt 0.1453796 0.01857026
vt 0.1453796 0.7098071
vt 0.02425262 0.01857026
vt 0.02425262 0.7098071
vt 0.1163902 0.8162994
vt 0.0333221 0.7747656
vt 0.05765235 0.8041345
vt 0.1994585 0.7747656
vt 0.1163902 0.7332318
vt 0.05765235 0.7453967
vt 0.1751282 0.7453967
vt 0.1751282 0.8041345
vt 0.225751 0.7742738
vt 0.5075843 0.7360312
vt 0.274106 0.7360312
vt 0.5559392 0.7742738
vt 0.5075843 0.8125165
vt 0.274106 0.8125165
vt 0.3908451 0.8283571
vt 0.3908451 0.7201906
vt 0.9159605 0.7465498
vt 0.9189922 0.7913126
vt 0.9530432 0.7913126
vt 0.8918829 0.7585887
vt 0.8264347 0.7280085
vt 0.8264347 0.745034
vt 0.7369094 0.7465498
vt 0.760987 0.7585887
vt 0.6998266 0.7913126
vt 0.7338774 0.7913126
vt 0.8356261 0.7625409
vt 0.7756126 0.7946513
vt 0.7992387 0.8064644
vt 0.8022135 0.7625409
vt 0.7113916 0.8079519
vt 0.7113916 0.8246582
vt 0.647171 0.7946513
vt 0.6235449 0.8064644
vt 0.6205697 0.7625409
vt 0.5871574 0.7625409
vt 0.4557643 0.9495972
vt 0.3680994 0.8472548
vt 0.3680994 0.9495972
vt 0.4557643 0.8472548
vt 0.2804344 0.8472548
vt 0.2804344 0.9495972
vt 0.1927695 0.8472548
vt 0.1927695 0.9495972
vt 0.1051046 0.8472548
vt 0.1051046 0.9495972
vt 0.01744001 0.8472548
vt 0.01744001 0.9495972
vt 0.5434289 0.9495972
vt 0.5434289 0.8472548
vt 0.6310942 0.9495972
vt 0.6310942 0.8472548
vt 0.7187588 0.9495972
vt 0.7187588 0.8472548
vt 0.9391826 0.8877209
vt 0.9404405 0.9286259
vt 0.9730695 0.9286259
vt 0.9161109 0.899257
vt 0.9161109 0.9579948
vt 0.9391826 0.9695308
vt 0.8573729 0.9701597
vt 0.8573729 0.9864742
vt 0.798635 0.9579948
vt 0.7755628 0.9695308
vt 0.7743047 0.9286259
vt 0.7416762 0.9286259
vt 0.798635 0.899257
vt 0.7755628 0.8877209
vt 0.8573729 0.8870921
vt 0.8573729 0.8707775
vt 0.1565831 0.9926438
vt 0.09300613 0.9688356
vt 0.09300613 0.9926438
vt 0.1565831 0.9688356
vt 0.02942833 0.9688356
vt 0.02942833 0.9926438
vt 0.2201609 0.9926438
vt 0.2201609 0.9688356
vt 0.2837383 0.9926438
vt 0.2837383 0.9688356
vt 0.3473157 0.9926438
vt 0.3473157 0.9688356
vt 0.4108931 0.9926438
vt 0.4108931 0.9688356
vt 0.4744705 0.9926438
vt 0.4744705 0.9688356
vt 0.5380479 0.9926438
vt 0.5380479 0.9688356
vn 1 0 0
vn 0.7071066 -1.203083E-07 0.7071069
vn 0.7071066 -1.214452E-07 0.7071069
vn 1 0 1.232157E-07
vn 0 -1.286176E-07 1
vn -1.090972E-07 -1.297545E-07 1
vn -0.7071066 0 0.7071069
vn -0.7071068 0 0.7071066
vn -1 0 2.053594E-07
vn -1 0 -2.14344E-07
vn -0.7071068 1.262066E-07 -0.7071068
vn -0.7071066 1.156417E-07 -0.7071068
vn -1.232157E-07 1.266704E-07 -1
vn 1.244992E-07 1.278074E-07 -1
vn 0.7071069 0 -0.7071066
vn 0.7071066 0 -0.7071069
vn 1.244992E-07 1.278074E-07 -1
vn -1.232157E-07 1.266704E-07 -1
vn 0 1 0
vn 0 1 0
vn 0 1 0
vn 0 1 0
vn 0 1 0
vn 0 1 0
vn 0 1 0
vn 0 1 0
vn 0 -1 -7.659976E-07
vn 0 -1 0
vn 0 -1 0
vn 0 -1 -7.659978E-07
vn 0 -1 -1.276663E-06
vn 0 -1 -1.276662E-06
vn 0 -1 0
vn 0 -1 0
vn 0 1 0
vn 0 1 0
vn 0 1 0
vn 0 1 0
vn 0 1 0
vn 0 1 0
vn 0 1 0
vn 0 1 0
vn 0 1 0
vn 0 1 0
vn 0 1 0
vn 0 1 0
vn 0 1 0
vn 0 1 0
vn 0 1 0
vn 0 1 0
vn 0 1 0
vn 0 1 0
vn 0 1 0
vn 0 1 0
vn 0.7071068 0 0.7071068
vn 1 0 0
vn 1 0 0
vn 0.7071066 0 0.7071069
vn 0.7071068 0 -0.7071068
vn 0.7071068 0 -0.7071068
vn 0 0 -1
vn 0 0 -1
vn -0.7071066 0 -0.7071069
vn -0.7071066 0 -0.7071069
vn -1 0 0
vn -1 0 -1.078138E-07
vn 0 0 1
vn 0 0 1
vn -0.7071068 0 0.7071068
vn -0.7071068 0 0.7071068
vn -1 0 -1.078138E-07
vn -1 0 0
vn 0 1 0
vn 0 1 0
vn 0 1 0
vn 0 1 0
vn 0 1 0
vn 0 1 0
vn 0 1 0
vn 0 1 0
vn 0 1 0
vn 0 1 0
vn 0 1 0
vn 0 1 0
vn 0 1 0
vn 0 1 0
vn 0 1 0
vn 0 1 0
vn 0.7071068 0 0.7071068
vn 1 0 0
vn 1 0 0
vn 0.7071068 0 0.7071068
vn 0.7071068 0 -0.7071068
vn 0.7071068 0 -0.7071068
vn 0 0 1
vn 0 0 1
vn -0.7071068 0 0.7071068
vn -0.7071068 0 0.7071068
vn -1 0 -1.437517E-07
vn -1 0 0
vn -0.7071066 0 -0.7071069
vn -0.7071066 0 -0.7071069
vn 0 1.125144E-07 -1
vn 0 1.125144E-07 -1
vn 0.7071068 0 -0.7071068
vn 0.7071068 0 -0.7071068
g silencer_all_sig_srd_9_9x19_LOD1_0
f 3/3/3 2/2/2 1/1/1
f 4/4/4 1/1/1 2/2/2
f 2/2/2 3/3/3 5/5/5
f 6/6/6 5/5/5 3/3/3
f 5/5/5 6/6/6 7/7/7
f 8/8/8 7/7/7 6/6/6
f 7/7/7 8/8/8 9/9/9
f 10/10/10 9/9/9 8/8/8
f 9/9/9 10/10/10 11/11/11
f 12/12/12 11/11/11 10/10/10
f 11/11/11 12/12/12 13/13/13
f 14/14/14 13/13/13 12/12/12
f 1/1/1 4/4/4 15/15/15
f 16/16/16 15/15/15 4/4/4
f 15/15/15 16/16/16 17/17/17
f 18/18/18 17/17/17 16/16/16
f 21/21/21 20/20/20 19/19/19
f 20/20/20 22/22/22 19/19/19
f 23/23/23 22/22/22 20/20/20
f 24/24/24 23/23/23 20/20/20
f 25/25/25 22/22/22 23/23/23
f 19/19/19 22/22/22 26/26/26
f 29/29/29 28/28/28 27/27/27
f 30/30/30 27/27/27 28/28/28
f 30/30/30 31/31/31 27/27/27
f 32/32/32 27/27/27 31/31/31
f 33/33/33 32/32/32 31/31/31
f 34/34/34 28/28/28 29/29/29
f 37/37/37 36/36/36 35/35/35
f 38/38/38 35/35/35 36/36/36
f 35/35/35 38/38/38 39/39/39
f 40/40/40 39/39/39 38/38/38
f 39/39/39 40/40/40 41/41/41
f 42/42/42 41/41/41 40/40/40
f 41/41/41 42/42/42 43/43/43
f 44/44/44 43/43/43 42/42/42
f 47/47/47 46/46/46 45/45/45
f 48/48/48 45/45/45 46/46/46
f 46/46/46 47/47/47 49/49/49
f 50/50/50 49/49/49 47/47/47
f 49/49/49 50/50/50 51/51/51
f 52/52/52 51/51/51 50/50/50
f 51/51/51 52/52/52 53/53/53
f 54/54/54 53/53/53 52/52/52
f 57/57/57 56/56/56 55/55/55
f 58/58/58 55/55/55 56/56/56
f 56/56/56 57/57/57 59/59/59
f 60/60/60 59/59/59 57/57/57
f 59/59/59 60/60/60 61/61/61
f 62/62/62 61/61/61 60/60/60
f 61/61/61 62/62/62 63/63/63
f 64/64/64 63/63/63 62/62/62
f 63/63/63 64/64/64 65/65/65
f 66/66/66 65/65/65 64/64/64
f 55/55/55 58/58/58 67/67/67
f 68/68/68 67/67/67 58/58/58
f 67/67/67 68/68/68 69/69/69
f 70/70/70 69/69/69 68/68/68
f 69/69/69 70/70/70 71/71/71
f 72/72/72 71/71/71 70/70/70
f 75/75/75 74/74/74 73/73/73
f 76/76/76 73/73/73 74/74/74
f 74/74/74 75/75/75 77/77/77
f 78/78/78 77/77/77 75/75/75
f 77/77/77 78/78/78 79/79/79
f 80/80/80 79/79/79 78/78/78
f 79/79/79 80/80/80 81/81/81
f 82/82/82 81/81/81 80/80/80
f 81/81/81 82/82/82 83/83/83
f 84/84/84 83/83/83 82/82/82
f 83/83/83 84/84/84 85/85/85
f 86/86/86 85/85/85 84/84/84
f 85/85/85 86/86/86 87/87/87
f 88/88/88 87/87/87 86/86/86
f 73/73/73 76/76/76 88/88/88
f 87/87/87 88/88/88 76/76/76
f 91/91/91 90/90/90 89/89/89
f 92/92/92 89/89/89 90/90/90
f 90/90/90 91/91/91 93/93/93
f 94/94/94 93/93/93 91/91/91
f 89/89/89 92/92/92 95/95/95
f 96/96/96 95/95/95 92/92/92
f 95/95/95 96/96/96 97/97/97
f 98/98/98 97/97/97 96/96/96
f 97/97/97 98/98/98 99/99/99
f 100/100/100 99/99/99 98/98/98
f 99/99/99 100/100/100 101/101/101
f 102/102/102 101/101/101 100/100/100
f 101/101/101 102/102/102 103/103/103
f 104/104/104 103/103/103 102/102/102
f 103/103/103 104/104/104 105/105/105
f 106/106/106 105/105/105 104/104/104
