g silencer_ak_hexagon_dtkp_762x39_LOD1
v 0.02264854 -0.1990151 0.009381226
v 0.02264854 -0.002078962 0.009381226
v 0.0245145 -0.002078962 2.547494E-10
v 0.0245145 -0.1990151 2.547494E-10
v 0.01733439 -0.1990151 0.01733453
v 0.01733439 -0.002078962 0.01733453
v 0.009381077 -0.1990151 0.02264869
v 0.009381077 -0.002078962 0.02264869
v -1.483549E-07 -0.1990151 0.02451465
v -1.483549E-07 -0.002078962 0.02451465
v -0.009381374 -0.1990151 0.02264869
v -0.009381374 -0.002078962 0.02264869
v -0.01733468 -0.1990151 0.01733453
v -0.01733468 -0.002078962 0.01733453
v -0.02264884 -0.1990151 0.009381226
v -0.02264884 -0.002078962 0.009381226
v -0.0245148 -0.1990151 2.547494E-10
v -0.0245148 -0.002078962 2.547494E-10
v -0.02264884 -0.1990151 -0.009381226
v -0.02264884 -0.002078962 -0.009381226
v -0.01733468 -0.002078962 -0.01733453
v -0.02264884 -0.002078962 -0.009381226
v -0.01733468 -0.1990151 -0.01733453
v -0.02264884 -0.1990151 -0.009381226
v -0.009381374 -0.1990151 -0.02264869
v -0.009381374 -0.002078962 -0.02264869
v -1.483549E-07 -0.1990151 -0.02451465
v -1.483549E-07 -0.002078962 -0.02451465
v 0.009381077 -0.1990151 -0.02264869
v 0.009381077 -0.002078962 -0.02264869
v 0.01733439 -0.1990151 -0.01733453
v 0.01733439 -0.002078962 -0.01733453
v 0.02264854 -0.1990151 -0.009381226
v 0.02264854 -0.002078962 -0.009381226
v 0.02264854 -0.002078962 -0.009381226
v 0.0245145 -0.002078962 2.547494E-10
v 0.02264854 -0.002078962 0.009381226
v 0.01733439 -0.002078962 -0.01733453
v 0.01733439 -0.002078962 0.01733453
v 0.009381077 -0.002078962 -0.02264869
v 0.009381077 -0.002078962 0.02264869
v -1.483549E-07 -0.002078962 -0.02451465
v -1.483549E-07 -0.002078962 0.02451465
v 0.01271081 -0.2090437 2.547494E-10
v 0.01174327 -0.2090437 -0.004864166
v 0.01174327 -0.2090437 0.004864166
v 0.008987725 -0.2090437 0.008987873
v 0.008987725 -0.2090437 -0.008987873
v 0.004864017 -0.2090437 0.01174342
v 0.004864017 -0.2090437 -0.01174342
v -1.483549E-07 -0.2090437 0.01271095
v -1.483549E-07 -0.2090437 -0.01271095
v 0.0245145 -0.1990151 2.547494E-10
v 0.01271081 -0.2090437 2.547494E-10
v 0.01174327 -0.2090437 0.004864166
v 0.02264854 -0.1990151 0.009381226
v 0.01733439 -0.1990151 0.01733453
v 0.008987725 -0.2090437 0.008987873
v 0.004864017 -0.2090437 0.01174342
v 0.009381077 -0.1990151 0.02264869
v -1.483549E-07 -0.1990151 0.02451465
v -1.483549E-07 -0.2090437 0.01271095
v 0.01174327 -0.2090437 -0.004864166
v 0.02264854 -0.1990151 -0.009381226
v 0.01733439 -0.1990151 -0.01733453
v 0.008987725 -0.2090437 -0.008987873
v 0.004864017 -0.2090437 -0.01174342
v 0.009381077 -0.1990151 -0.02264869
v -1.483549E-07 -0.1990151 -0.02451465
v -1.483549E-07 -0.2090437 -0.01271095
v -0.004864315 -0.2090437 0.01174342
v -0.009381374 -0.1990151 0.02264869
v -1.483549E-07 -0.1990151 0.02451465
v -1.483549E-07 -0.2090437 0.01271095
v -0.01733468 -0.1990151 0.01733453
v -0.008988022 -0.2090437 0.008987873
v -0.01174357 -0.2090437 0.004864166
v -0.02264884 -0.1990151 0.009381226
v -0.0245148 -0.1990151 2.547494E-10
v -0.0127111 -0.2090437 2.547494E-10
v -0.01174357 -0.2090437 -0.004864166
v -0.02264884 -0.1990151 -0.009381226
v -0.01733468 -0.1990151 -0.01733453
v -0.008988022 -0.2090437 -0.008987873
v -0.004864315 -0.2090437 -0.01174342
v -0.009381374 -0.1990151 -0.02264869
v -1.483549E-07 -0.1990151 -0.02451465
v -1.483549E-07 -0.2090437 -0.01271095
v -0.01090854 -0.002801237 -0.01090839
v -0.01542716 7.3843E-05 2.547494E-10
v -0.01542716 -0.002801237 2.547494E-10
v -0.01090854 7.3843E-05 -0.01090839
v -1.483549E-07 -0.002801237 -0.01542701
v -1.483549E-07 7.3843E-05 -0.01542701
v -0.01090854 7.3843E-05 0.01090839
v -0.01090854 -0.002801237 0.01090839
v -1.483549E-07 7.3843E-05 0.01542701
v -1.483549E-07 -0.002801237 0.01542701
v 0.01090824 -0.002801237 -0.01090839
v -1.483549E-07 7.3843E-05 -0.01542701
v -1.483549E-07 -0.002801237 -0.01542701
v 0.01090824 7.3843E-05 -0.01090839
v 0.01542686 -0.002801237 2.547494E-10
v 0.01542686 7.3843E-05 2.547494E-10
v 0.01090824 -0.002801237 0.01090839
v 0.01090824 7.3843E-05 0.01090839
v -1.483549E-07 -0.002801237 0.01542701
v -1.483549E-07 7.3843E-05 0.01542701
v -0.01090854 7.3843E-05 0.01090839
v -0.01542716 7.3843E-05 2.547494E-10
v -0.01090854 7.3843E-05 -0.01090839
v -1.483549E-07 7.3843E-05 0.01542701
v -1.483549E-07 7.3843E-05 -0.01542701
v -1.483549E-07 7.3843E-05 -0.01542701
v 0.01090824 7.3843E-05 0.01090839
v -1.483549E-07 7.3843E-05 0.01542701
v 0.01090824 7.3843E-05 -0.01090839
v 0.01542686 7.3843E-05 2.547494E-10
v -0.009381374 -0.002078962 0.02264869
v -0.009381374 -0.002078962 -0.02264869
v -1.483549E-07 -0.002078962 -0.02451465
v -1.483549E-07 -0.002078962 0.02451465
v -0.01733468 -0.002078962 -0.01733453
v -0.01733468 -0.002078962 0.01733453
v -0.02264884 -0.002078962 -0.009381226
v -0.02264884 -0.002078962 0.009381226
v -0.0245148 -0.002078962 2.547494E-10
v -1.483549E-07 -0.2090437 -0.01271095
v -0.004864315 -0.2090437 0.01174342
v -1.483549E-07 -0.2090437 0.01271095
v -0.004864315 -0.2090437 -0.01174342
v -0.008988022 -0.2090437 0.008987873
v -0.008988022 -0.2090437 -0.008987873
v -0.01174357 -0.2090437 -0.004864166
v -0.01174357 -0.2090437 0.004864166
v -0.0127111 -0.2090437 2.547494E-10
vt 0.3961 0.9954
vt 0.3961 0.0054
vt 0.3472 0.0054
vt 0.3472 0.9954
vt 0.4449 0.9954
vt 0.4449 0.0054
vt 0.4938 0.9954
vt 0.4938 0.0054
vt 0.5427 0.9954
vt 0.5427 0.0054
vt 0.5915 0.9954
vt 0.5915 0.0054
vt 0.6404 0.9954
vt 0.6404 0.0054
vt 0.6893 0.9954
vt 0.6893 0.0054
vt 0.7381 0.9954
vt 0.7381 0.0054
vt 0.787 0.9954
vt 0.787 0.0054
vt 0.054 0.0054
vt 0.0051 0.0054
vt 0.054 0.9954
vt 0.0051 0.9954
vt 0.1029 0.9954
vt 0.1029 0.0054
vt 0.1517 0.9954
vt 0.1517 0.0054
vt 0.2006 0.9954
vt 0.2006 0.0054
vt 0.2495 0.9954
vt 0.2495 0.0054
vt 0.2983 0.9954
vt 0.2983 0.0054
vt 0.9506 0.6559
vt 0.9626 0.5955
vt 0.9506 0.5352
vt 0.9164 0.707
vt 0.9164 0.4841
vt 0.8653 0.7412
vt 0.8653 0.4499
vt 0.8049 0.7532
vt 0.8049 0.4379
vt 0.8447 0.8447
vt 0.8558 0.789
vt 0.8558 0.9003
vt 0.8873 0.9475
vt 0.8873 0.7418
vt 0.9345 0.979
vt 0.9345 0.7103
vt 0.9901 0.9901
vt 0.9901 0.6992
vt 0.7979 0.2884
vt 0.9035 0.2884
vt 0.91 0.3212
vt 0.8124 0.3616
vt 0.8539 0.4236
vt 0.9286 0.3489
vt 0.9563 0.3675
vt 0.9159 0.4651
vt 0.9891 0.4796
vt 0.9891 0.374
vt 0.91 0.2557
vt 0.8124 0.2152
vt 0.8539 0.1532
vt 0.9286 0.2279
vt 0.9563 0.2093
vt 0.9159 0.1118
vt 0.9891 0.0972
vt 0.9891 0.2028
vt 0.9563 0.3675
vt 0.9159 0.4651
vt 0.9891 0.4796
vt 0.9891 0.374
vt 0.8539 0.4236
vt 0.9286 0.3489
vt 0.91 0.3212
vt 0.8124 0.3616
vt 0.7979 0.2884
vt 0.9035 0.2884
vt 0.91 0.2557
vt 0.8124 0.2152
vt 0.8539 0.1532
vt 0.9286 0.2279
vt 0.9563 0.2093
vt 0.9159 0.1118
vt 0.9891 0.0972
vt 0.9891 0.2028
vt 0.8031 0.8242
vt 0.8221 0.8797
vt 0.8031 0.8797
vt 0.8221 0.8242
vt 0.8031 0.7688
vt 0.8221 0.7688
vt 0.8221 0.9352
vt 0.8031 0.9352
vt 0.8221 0.9907
vt 0.8031 0.9907
vt 0.8031 0.8242
vt 0.8222 0.7688
vt 0.8031 0.7688
vt 0.8221 0.8243
vt 0.8031 0.8797
vt 0.8221 0.8797
vt 0.8031 0.9352
vt 0.8221 0.9352
vt 0.8031 0.9907
vt 0.8221 0.9907
vt 0.9627 0.0776
vt 0.8944 0.1059
vt 0.8261 0.0776
vt 0.991 0.0093
vt 0.7978 0.0093
vt 0.7978 0.0093
vt 0.9627 0.0776
vt 0.991 0.0093
vt 0.8261 0.0776
vt 0.8944 0.1059
vt 0.8653 0.4499
vt 0.8653 0.7412
vt 0.8049 0.7532
vt 0.8049 0.4379
vt 0.9164 0.707
vt 0.9164 0.4841
vt 0.9506 0.6559
vt 0.9506 0.5352
vt 0.9626 0.5955
vt 0.9901 0.6992
vt 0.9345 0.979
vt 0.9901 0.9901
vt 0.9345 0.7103
vt 0.8873 0.9475
vt 0.8873 0.7418
vt 0.8558 0.789
vt 0.8558 0.9003
vt 0.8447 0.8447
vn 0.9238776 0 0.382688
vn 0.9238776 0 0.382688
vn 1 0 0
vn 1 0 0
vn 0.7071068 0 0.7071068
vn 0.7071068 0 0.7071068
vn 0.382688 0 0.9238776
vn 0.382688 0 0.9238776
vn 0 0 1
vn 0 0 1
vn -0.382688 0 0.9238776
vn -0.382688 0 0.9238776
vn -0.7071068 0 0.7071068
vn -0.7071068 0 0.7071068
vn -0.9238776 0 0.382688
vn -0.9238776 0 0.382688
vn -1 0 0
vn -1 0 0
vn -0.9238776 0 -0.382688
vn -0.9238776 0 -0.382688
vn -0.7071068 0 -0.7071068
vn -0.9238776 0 -0.382688
vn -0.7071068 0 -0.7071068
vn -0.9238776 0 -0.382688
vn -0.382688 0 -0.9238776
vn -0.382688 0 -0.9238776
vn 0 0 -1
vn 0 0 -1
vn 0.382688 0 -0.9238776
vn 0.382688 0 -0.9238776
vn 0.7071068 0 -0.7071068
vn 0.7071068 0 -0.7071068
vn 0.9238776 0 -0.382688
vn 0.9238776 0 -0.382688
vn 0 1 0
vn 0 1 0
vn 0 1 0
vn 0 1 0
vn 0 1 0
vn 0 1 0
vn 0 1 0
vn 0 1 0
vn 0 1 0
vn 0 -1 0
vn 0 -1 0
vn 0 -1 0
vn 0 -1 0
vn 0 -1 0
vn 0 -1 0
vn 0 -1 0
vn 0 -1 0
vn 0 -1 0
vn 0.6475376 -0.7620334 0
vn 0.6473397 -0.7622016 0
vn 0.5980416 -0.7622125 0.2477465
vn 0.5981485 -0.7621208 0.2477704
vn 0.4577964 -0.7621318 0.4577964
vn 0.4577237 -0.7622192 0.4577237
vn 0.2477465 -0.7622125 0.5980416
vn 0.2477704 -0.7621208 0.5981485
vn 0 -0.7620334 0.6475376
vn 0 -0.7622016 0.6473397
vn 0.5980416 -0.7622125 -0.2477465
vn 0.5981485 -0.7621208 -0.2477704
vn 0.4577964 -0.7621318 -0.4577964
vn 0.4577237 -0.7622192 -0.4577237
vn 0.2477465 -0.7622125 -0.5980416
vn 0.2477704 -0.7621208 -0.5981485
vn 0 -0.7620334 -0.6475376
vn 0 -0.7622016 -0.6473397
vn -0.2477465 -0.7622125 0.5980416
vn -0.2477704 -0.7621208 0.5981485
vn 0 -0.7620334 0.6475376
vn 0 -0.7622016 0.6473397
vn -0.4577964 -0.7621318 0.4577964
vn -0.4577237 -0.7622192 0.4577237
vn -0.5980416 -0.7622125 0.2477465
vn -0.5981485 -0.7621208 0.2477704
vn -0.6475376 -0.7620334 0
vn -0.6473397 -0.7622016 0
vn -0.5980416 -0.7622125 -0.2477465
vn -0.5981485 -0.7621208 -0.2477704
vn -0.4577964 -0.7621318 -0.4577964
vn -0.4577237 -0.7622192 -0.4577237
vn -0.2477465 -0.7622125 -0.5980416
vn -0.2477704 -0.7621208 -0.5981485
vn 0 -0.7620334 -0.6475376
vn 0 -0.7622016 -0.6473397
vn -0.7071068 0 -0.7071068
vn -1 0 0
vn -1 0 0
vn -0.7071068 0 -0.7071068
vn 0 0 -1
vn 0 0 -1
vn -0.7071068 0 0.7071068
vn -0.7071068 0 0.7071068
vn 0 0 1
vn 0 0 1
vn 0.7071068 0 -0.7071068
vn 0 0 -1
vn 0 0 -1
vn 0.7071068 0 -0.7071068
vn 1 0 0
vn 1 0 0
vn 0.7071068 0 0.7071068
vn 0.7071068 0 0.7071068
vn 0 0 1
vn 0 0 1
vn 0 1 0
vn 0 1 0
vn 0 1 0
vn 0 1 0
vn 0 1 0
vn 0 1 0
vn 0 1 0
vn 0 1 0
vn 0 1 0
vn 0 1 0
vn 0 1 0
vn 0 1 0
vn 0 1 0
vn 0 1 0
vn 0 1 0
vn 0 1 0
vn 0 1 0
vn 0 1 0
vn 0 1 0
vn 0 -1 0
vn 0 -1 0
vn 0 -1 0
vn 0 -1 0
vn 0 -1 0
vn 0 -1 0
vn 0 -1 0
vn 0 -1 0
vn 0 -1 0
g silencer_ak_hexagon_dtkp_762x39_LOD1_0
f 3/3/3 2/2/2 1/1/1
f 1/1/1 4/4/4 3/3/3
f 5/5/5 1/1/1 2/2/2
f 2/2/2 6/6/6 5/5/5
f 7/7/7 5/5/5 6/6/6
f 7/7/7 6/6/6 8/8/8
f 9/9/9 7/7/7 8/8/8
f 9/9/9 8/8/8 10/10/10
f 11/11/11 9/9/9 10/10/10
f 11/11/11 10/10/10 12/12/12
f 13/13/13 11/11/11 12/12/12
f 13/13/13 12/12/12 14/14/14
f 14/14/14 15/15/15 13/13/13
f 15/15/15 14/14/14 16/16/16
f 16/16/16 17/17/17 15/15/15
f 17/17/17 16/16/16 18/18/18
f 18/18/18 19/19/19 17/17/17
f 19/19/19 18/18/18 20/20/20
f 23/23/23 22/22/22 21/21/21
f 22/22/22 23/23/23 24/24/24
f 21/21/21 25/25/25 23/23/23
f 21/21/21 26/26/26 25/25/25
f 26/26/26 27/27/27 25/25/25
f 26/26/26 28/28/28 27/27/27
f 28/28/28 29/29/29 27/27/27
f 28/28/28 30/30/30 29/29/29
f 30/30/30 31/31/31 29/29/29
f 30/30/30 32/32/32 31/31/31
f 33/33/33 31/31/31 32/32/32
f 32/32/32 34/34/34 33/33/33
f 4/4/4 33/33/33 34/34/34
f 34/34/34 3/3/3 4/4/4
f 37/37/37 36/36/36 35/35/35
f 37/37/37 35/35/35 38/38/38
f 39/39/39 37/37/37 38/38/38
f 39/39/39 38/38/38 40/40/40
f 40/40/40 41/41/41 39/39/39
f 41/41/41 40/40/40 42/42/42
f 42/42/42 43/43/43 41/41/41
f 46/46/46 45/45/45 44/44/44
f 45/45/45 46/46/46 47/47/47
f 48/48/48 45/45/45 47/47/47
f 47/47/47 49/49/49 48/48/48
f 50/50/50 48/48/48 49/49/49
f 49/49/49 51/51/51 50/50/50
f 52/52/52 50/50/50 51/51/51
f 55/55/55 54/54/54 53/53/53
f 53/53/53 56/56/56 55/55/55
f 55/55/55 56/56/56 57/57/57
f 57/57/57 58/58/58 55/55/55
f 57/57/57 59/59/59 58/58/58
f 60/60/60 59/59/59 57/57/57
f 59/59/59 60/60/60 61/61/61
f 61/61/61 62/62/62 59/59/59
f 53/53/53 54/54/54 63/63/63
f 63/63/63 64/64/64 53/53/53
f 63/63/63 65/65/65 64/64/64
f 63/63/63 66/66/66 65/65/65
f 65/65/65 66/66/66 67/67/67
f 67/67/67 68/68/68 65/65/65
f 68/68/68 67/67/67 69/69/69
f 69/69/69 67/67/67 70/70/70
f 73/73/73 72/72/72 71/71/71
f 71/71/71 74/74/74 73/73/73
f 71/71/71 72/72/72 75/75/75
f 75/75/75 76/76/76 71/71/71
f 77/77/77 76/76/76 75/75/75
f 78/78/78 77/77/77 75/75/75
f 77/77/77 78/78/78 79/79/79
f 79/79/79 80/80/80 77/77/77
f 79/79/79 81/81/81 80/80/80
f 81/81/81 79/79/79 82/82/82
f 81/81/81 82/82/82 83/83/83
f 83/83/83 84/84/84 81/81/81
f 85/85/85 84/84/84 83/83/83
f 83/83/83 86/86/86 85/85/85
f 85/85/85 86/86/86 87/87/87
f 87/87/87 88/88/88 85/85/85
f 91/91/91 90/90/90 89/89/89
f 92/92/92 89/89/89 90/90/90
f 89/89/89 92/92/92 93/93/93
f 92/92/92 94/94/94 93/93/93
f 90/90/90 91/91/91 95/95/95
f 96/96/96 95/95/95 91/91/91
f 97/97/97 95/95/95 96/96/96
f 96/96/96 98/98/98 97/97/97
f 101/101/101 100/100/100 99/99/99
f 100/100/100 102/102/102 99/99/99
f 103/103/103 99/99/99 102/102/102
f 102/102/102 104/104/104 103/103/103
f 105/105/105 103/103/103 104/104/104
f 104/104/104 106/106/106 105/105/105
f 107/107/107 105/105/105 106/106/106
f 108/108/108 107/107/107 106/106/106
f 111/111/111 110/110/110 109/109/109
f 109/109/109 112/112/112 111/111/111
f 113/113/113 111/111/111 112/112/112
f 116/116/116 115/115/115 114/114/114
f 115/115/115 117/117/117 114/114/114
f 118/118/118 117/117/117 115/115/115
f 121/121/121 120/120/120 119/119/119
f 119/119/119 122/122/122 121/121/121
f 120/120/120 123/123/123 119/119/119
f 123/123/123 124/124/124 119/119/119
f 123/123/123 125/125/125 124/124/124
f 125/125/125 126/126/126 124/124/124
f 127/127/127 126/126/126 125/125/125
f 130/130/130 129/129/129 128/128/128
f 131/131/131 128/128/128 129/129/129
f 129/129/129 132/132/132 131/131/131
f 132/132/132 133/133/133 131/131/131
f 134/134/134 133/133/133 132/132/132
f 132/132/132 135/135/135 134/134/134
f 136/136/136 134/134/134 135/135/135
