g flashlight_glass
v 0.002534685 2.341971E-09 0.01437492
v -0.01371638 8.133587E-10 0.00499236
v -0.007298335 2.059495E-09 0.01264109
v 0.0111817 -1.528613E-09 -0.009382561
v -0.007298337 -2.059495E-09 -0.01264109
v -0.01371639 -8.133578E-10 -0.004992354
v 0.002534684 -2.341972E-09 -0.01437492
v 0.01459667 0 0
v 0.0111817 1.528613E-09 0.009382563
vt 0.9924039 0.5868241
vt 0.6710102 0.03015372
vt 0.9330127 0.2500001
vt 0.1786062 0.8830222
vt 0.06698728 0.2499999
vt 0.32899 0.03015366
vt 0.007596076 0.5868241
vt 0.5 1
vt 0.8213938 0.8830222
vn 0 -1 1.629207E-07
vn 0 -1 1.629207E-07
vn 0 -1 1.629207E-07
vn 0 -1 1.629207E-07
vn 0 -1 1.629207E-07
vn 0 -1 1.629207E-07
vn 0 -1 1.629207E-07
vn 0 -1 1.629207E-07
vn 0 -1 1.629207E-07
g flashlight_glass_0
f 3/3/3 2/2/2 1/1/1
f 2/2/2 4/4/4 1/1/1
f 5/5/5 4/4/4 2/2/2
f 6/6/6 5/5/5 2/2/2
f 7/7/7 4/4/4 5/5/5
f 4/4/4 8/8/8 1/1/1
f 1/1/1 8/8/8 9/9/9
