g flashlight_glass
v -0.06910724 0.01251054 0.01491485
v -0.06910724 0.009753682 0.01687232
v -0.06910735 0.01488225 0.01250517
v -0.06910724 0.01820785 0.006647332
v -0.06910735 0.01680335 0.009722823
v -0.06910724 0.01811161 -0.00661973
v -0.06910724 0.01932935 5.235616E-06
v -0.06910724 0.01906148 0.003375776
v -0.06910735 0.01901262 -0.003360969
v -0.06910724 -0.003295107 0.01927089
v -0.06910724 -0.003572178 -0.01893005
v -0.06910724 0.009510028 -0.01672099
v -0.06910724 0.01470141 -0.01242871
v -0.06910724 0.01666259 -0.009674598
v -0.06910724 0.01229491 -0.0148038
v -0.06910724 0.003163615 -0.01897891
v -0.06910724 0.006436335 -0.01812982
v -0.06910724 -0.0002063968 -0.01925143
v -0.06910724 -0.01946084 0.0002866428
v -0.06910724 -0.01501364 -0.01221319
v -0.06910724 -0.009885068 -0.01658034
v -0.06910724 -0.006832207 -0.01803348
v -0.06910724 -0.01264193 -0.01462286
v -0.06910724 -0.01833923 -0.006355349
v -0.06910724 -0.01693474 -0.009430839
v -0.06910724 -0.01919287 -0.003083792
v -0.06910724 -0.018243 0.006911713
v -0.06910724 -0.01914401 0.003652848
v -0.06910724 -0.0148328 0.0127207
v -0.06910724 -0.01679398 0.009966583
v -0.06910724 -0.009641416 0.01701297
v -0.06910724 -0.0124263 0.01509579
v -0.06910724 -0.006567826 0.0184218
v -0.06910724 0.003440792 0.01922203
v -0.06910724 7.501028E-05 0.01954342
v -0.06910724 0.006700823 0.01832546
vt 0.1770627 0.8791683
vt 0.247841 0.9294236
vt 0.1161726 0.8173035
vt 0.03079289 0.6669122
vt 0.06685126 0.7458708
vt 0.03326364 0.3263001
vt 0.002 0.4963863
vt 0.008877162 0.5829198
vt 0.01013158 0.409964
vt 0.5828491 0.9910032
vt 0.5899626 0.01025102
vt 0.2540964 0.06696536
vt 0.1208153 0.1771633
vt 0.07046502 0.247871
vt 0.1825987 0.1161863
vt 0.4170311 0.008996645
vt 0.3330089 0.03079573
vt 0.5035511 0.002
vt 0.9978803 0.503611
vt 0.883705 0.1826965
vt 0.7520366 0.07057633
vt 0.673659 0.03326912
vt 0.8228149 0.1208317
vt 0.9690847 0.3330878
vt 0.9330263 0.2541291
vt 0.9910005 0.4170801
vt 0.9666141 0.6736998
vt 0.9897462 0.5900333
vt 0.8790622 0.8228367
vt 0.9294126 0.752129
vt 0.7457812 0.9330345
vt 0.817279 0.8838137
vt 0.6668714 0.9692042
vt 0.409915 0.9897489
vt 0.4963265 0.998
vt 0.3262186 0.9667308
vn -1 0.0001026448 0.0001445622
vn -1 0.0001026448 0.0001445622
vn -1 0.0001026448 0.0001445622
vn -1 -0.0001459016 -0.0001007392
vn -1 -0.0001459016 -0.0001007392
vn -1 -0.0003473491 6.384647E-05
vn -1 0 0
vn -1 0 0
vn -1 -0.000347349 6.384646E-05
vn -1 0 0
vn -1 0 0
vn -1 0 0
vn -1 0 0
vn -1 0 0
vn -1 0 0
vn -1 0 0
vn -1 0 0
vn -1 0 0
vn -1 0 0
vn -1 0 0
vn -1 0 0
vn -1 0 0
vn -1 0 0
vn -1 0 0
vn -1 0 0
vn -1 0 0
vn -1 0 0
vn -1 0 0
vn -1 0 0
vn -1 0 0
vn -1 0 0
vn -1 0 0
vn -1 0 0
vn -1 0 0
vn -1 0 0
vn -1 0 0
g flashlight_glass_0
f 3/3/3 2/2/2 1/1/1
f 4/4/4 2/2/2 3/3/3
f 5/5/5 4/4/4 3/3/3
f 6/6/6 2/2/2 4/4/4
f 7/7/7 6/6/6 4/4/4
f 8/8/8 7/7/7 4/4/4
f 9/9/9 6/6/6 7/7/7
f 10/10/10 2/2/2 6/6/6
f 11/11/11 10/10/10 6/6/6
f 12/12/12 11/11/11 6/6/6
f 13/13/13 12/12/12 6/6/6
f 14/14/14 13/13/13 6/6/6
f 15/15/15 12/12/12 13/13/13
f 16/16/16 11/11/11 12/12/12
f 17/17/17 16/16/16 12/12/12
f 18/18/18 11/11/11 16/16/16
f 19/19/19 10/10/10 11/11/11
f 20/20/20 19/19/19 11/11/11
f 21/21/21 20/20/20 11/11/11
f 22/22/22 21/21/21 11/11/11
f 23/23/23 20/20/20 21/21/21
f 24/24/24 19/19/19 20/20/20
f 25/25/25 24/24/24 20/20/20
f 26/26/26 19/19/19 24/24/24
f 28/28/28 27/27/27 19/19/19
f 27/27/27 29/29/29 19/19/19
f 30/30/30 29/29/29 27/27/27
f 29/29/29 10/10/10 19/19/19
f 31/31/31 10/10/10 29/29/29
f 32/32/32 31/31/31 29/29/29
f 33/33/33 10/10/10 31/31/31
f 35/35/35 34/34/34 10/10/10
f 34/34/34 2/2/2 10/10/10
f 36/36/36 2/2/2 34/34/34
