g flashlight_ultrafire_WF-501B_LOD1
v -1.429737E-09 -0.05444351 0.01682691
v -0.01189827 -0.06991483 0.01189848
v -0.01189827 -0.05444351 0.01189849
v -1.828112E-10 -0.06991483 0.01682691
v -0.01682669 -0.06991483 2.125624E-07
v -0.0168267 -0.05444351 2.163361E-07
v -0.01189827 -0.06991483 -0.01189806
v -0.01189827 -0.0544435 -0.01189805
v 1.288225E-09 -0.06991483 -0.01682648
v 4.12993E-11 -0.0544435 -0.01682648
v 0.01189827 -0.05444351 0.01189849
v 0.01189827 -0.06991483 0.01189848
v 0.01682669 -0.05444351 2.172723E-07
v 0.01682669 -0.06991483 2.134986E-07
v 0.01189827 -0.0544435 -0.01189805
v 0.01189827 -0.06991483 -0.01189806
v 4.12993E-11 -0.0544435 -0.01682648
v 1.288225E-09 -0.06991483 -0.01682648
v 0.01365204 -0.0435951 2.185505E-07
v 0.009653449 -0.0435951 0.009653668
v -1.902348E-09 -0.0435951 0.01365226
v -0.009653452 -0.0435951 0.009653668
v 0.009653449 -0.0435951 -0.009653232
v -7.065949E-10 -0.0435951 -0.01365182
v -0.01365204 -0.0435951 2.177871E-07
v -0.009653452 -0.0435951 -0.009653232
v -7.065949E-10 -0.0435951 -0.01365182
v -6.403156E-09 0.05937139 0.01365227
v -0.009653457 0.05937139 0.009653681
v 0.009653444 0.05937139 0.009653681
v 0.01365203 0.05937139 2.308251E-07
v 0.009653444 0.05937139 -0.009653219
v -5.207403E-09 0.05937139 -0.01365181
v -0.009653457 0.05937139 -0.009653219
v -5.207403E-09 0.05937139 -0.01365181
v -0.01365205 0.05937139 2.300616E-07
v 0.01365203 0.05937139 2.308251E-07
v -5.207403E-09 0.05937139 -0.01365181
v 0.009653444 0.05937139 -0.009653219
v -6.403156E-09 0.05937139 0.01365227
v -0.01365205 0.05937139 2.300616E-07
v -0.009653457 0.05937139 -0.009653219
v -0.009653457 0.05937139 0.009653681
v 0.009653444 0.05937139 0.009653681
v -0.01189827 -0.06991483 0.01189848
v -0.01189827 -0.06991483 -0.01189806
v -0.01682669 -0.06991483 2.125624E-07
v 0.01189827 -0.06991483 0.01189848
v 0.01189827 -0.06991483 -0.01189806
v 1.288225E-09 -0.06991483 -0.01682648
v 0.01682669 -0.06991483 2.134986E-07
v -1.828112E-10 -0.06991483 0.01682691
vt 0.3322134 0.8607688
vt 0.4155301 0.998
vt 0.4132739 0.8601285
vt 0.3322535 0.998
vt 0.4988324 0.998
vt 0.4944219 0.8583359
vt 0.5825351 0.998
vt 0.5760979 0.8550222
vt 0.6633584 0.998
vt 0.6633584 0.8489381
vt 0.2511873 0.8602453
vt 0.2490318 0.998
vt 0.1701505 0.8585915
vt 0.1658989 0.998
vt 0.08870392 0.8554589
vt 0.0824855 0.998
vt 0.002 0.8496113
vt 0.002 0.998
vt 0.1738095 0.7815807
vt 0.2532073 0.7829261
vt 0.3329601 0.7833133
vt 0.4127206 0.7827529
vt 0.09534381 0.7791666
vt 0.01866842 0.7754175
vt 0.4921246 0.7812233
vt 0.5705478 0.7786256
vt 0.6464177 0.774791
vt 0.3322742 0.002
vt 0.4109215 0.002
vt 0.2536249 0.002
vt 0.1750581 0.002
vt 0.09656576 0.002
vt 0.01866842 0.002
vt 0.5679635 0.002
vt 0.6464177 0.002
vt 0.4894822 0.002
vt 0.656175 0.6051402
vt 0.7539579 0.3690711
vt 0.6561749 0.4668541
vt 0.892244 0.7029232
vt 0.990027 0.4668541
vt 0.892244 0.3690711
vt 0.990027 0.6051402
vt 0.7539579 0.7029231
vt 0.7527278 0.3514179
vt 0.6518751 0.1079379
vt 0.6518751 0.2505652
vt 0.9962078 0.2505652
vt 0.8953552 0.007085173
vt 0.7527279 0.007085131
vt 0.9962078 0.1079379
vt 0.895355 0.3514179
vn 0 0.1372341 0.9905386
vn -0.707101 0 0.7071125
vn -0.7004108 0.1372353 0.7004222
vn 0 0 1
vn -1 0 0
vn -0.9905386 0.1372341 0
vn -0.707101 0 -0.7071125
vn -0.7004108 0.1372353 -0.7004222
vn 0 0 -1
vn 0 0.1372341 -0.9905386
vn 0.7004166 0.1372342 0.7004166
vn 0.7071068 0 0.7071068
vn 0.9905386 0.1372341 0
vn 1 0 0
vn 0.7004166 0.1372342 -0.7004166
vn 0.7071068 0 -0.7071068
vn 0 0.1372341 -0.9905386
vn 0 0 -1
vn 0.9891446 0.1469454 0
vn 0.6994261 0.1469909 0.6994261
vn 0 0.1469902 0.9891379
vn -0.6994233 0.1469902 0.699429
vn 0.699429 0.1469902 -0.6994233
vn 0 0.1469902 -0.9891379
vn -0.9891379 0.1469902 0
vn -0.6994308 0.146946 -0.6994308
vn 0 0.1469902 -0.9891379
vn 0 0 1
vn -0.7071068 0 0.7071068
vn 0.7071068 0 0.7071068
vn 1 0 0
vn 0.7071068 0 -0.7071068
vn 0 0 -1
vn -0.7071068 0 -0.7071068
vn 0 0 -1
vn -1 0 0
vn 0 1 0
vn 0 1 0
vn 0 1 0
vn 0 1 0
vn 0 1 0
vn 0 1 0
vn 0 1 0
vn 0 1 0
vn 0 -1 0
vn 0 -1 0
vn 0 -1 -2.086272E-07
vn 0 -1 0
vn 0 -1 0
vn 0 -1 0
vn 0 -1 -2.086272E-07
vn 0 -1 0
g flashlight_ultrafire_WF-501B_LOD1_0
f 3/3/3 2/2/2 1/1/1
f 4/4/4 1/1/1 2/2/2
f 2/2/2 3/3/3 5/5/5
f 6/6/6 5/5/5 3/3/3
f 5/5/5 6/6/6 7/7/7
f 8/8/8 7/7/7 6/6/6
f 7/7/7 8/8/8 9/9/9
f 10/10/10 9/9/9 8/8/8
f 1/1/1 4/4/4 11/11/11
f 12/12/12 11/11/11 4/4/4
f 11/11/11 12/12/12 13/13/13
f 14/14/14 13/13/13 12/12/12
f 13/13/13 14/14/14 15/15/15
f 16/16/16 15/15/15 14/14/14
f 15/15/15 16/16/16 17/17/17
f 18/18/18 17/17/17 16/16/16
f 13/13/13 19/19/19 11/11/11
f 20/20/20 11/11/11 19/19/19
f 11/11/11 20/20/20 1/1/1
f 21/21/21 1/1/1 20/20/20
f 1/1/1 21/21/21 3/3/3
f 22/22/22 3/3/3 21/21/21
f 15/15/15 23/23/23 13/13/13
f 19/19/19 13/13/13 23/23/23
f 17/17/17 24/24/24 15/15/15
f 23/23/23 15/15/15 24/24/24
f 3/3/3 22/22/22 6/6/6
f 25/25/25 6/6/6 22/22/22
f 6/6/6 25/25/25 8/8/8
f 26/26/26 8/8/8 25/25/25
f 8/8/8 26/26/26 10/10/10
f 27/27/27 10/10/10 26/26/26
f 21/21/21 28/28/28 22/22/22
f 29/29/29 22/22/22 28/28/28
f 22/22/22 29/29/29 25/25/25
f 20/20/20 30/30/30 21/21/21
f 28/28/28 21/21/21 30/30/30
f 30/30/30 20/20/20 31/31/31
f 19/19/19 31/31/31 20/20/20
f 23/23/23 32/32/32 19/19/19
f 31/31/31 19/19/19 32/32/32
f 24/24/24 33/33/33 23/23/23
f 32/32/32 23/23/23 33/33/33
f 26/26/26 34/34/34 27/27/27
f 35/35/35 27/27/27 34/34/34
f 25/25/25 36/36/36 26/26/26
f 34/34/34 26/26/26 36/36/36
f 36/36/36 25/25/25 29/29/29
f 39/39/39 38/38/38 37/37/37
f 38/38/38 40/40/40 37/37/37
f 41/41/41 40/40/40 38/38/38
f 42/42/42 41/41/41 38/38/38
f 43/43/43 40/40/40 41/41/41
f 37/37/37 40/40/40 44/44/44
f 47/47/47 46/46/46 45/45/45
f 46/46/46 48/48/48 45/45/45
f 49/49/49 48/48/48 46/46/46
f 50/50/50 49/49/49 46/46/46
f 51/51/51 48/48/48 49/49/49
f 45/45/45 48/48/48 52/52/52
