g Bolt_catch_LOD0
v 0.002244283 -0.003896942 6.430268E-05
v -0.002116823 -0.003896942 6.429076E-05
v -0.002116827 -0.003359013 0.002071918
v 0.002244279 -0.003359013 0.00207193
v -0.002116827 -0.001889343 0.003541606
v 0.002244279 -0.001889343 0.003541619
v -0.002116823 0.0001182938 0.004079551
v 0.002244283 0.0001182938 0.004079562
v 0.002244293 -0.003358993 -0.001943327
v -0.002116815 -0.003358993 -0.00194334
v 0.002244298 -0.001889324 -0.003413011
v -0.002116809 -0.001889324 -0.00341302
v 0.002244306 0.0001183128 -0.003950947
v -0.002116802 0.0001183128 -0.003950958
v 0.002244283 0.0001182938 0.004079562
v -0.002116823 0.0001182938 0.004079551
v -0.002116815 0.002125931 0.003541611
v 0.002244293 0.002125931 0.003541623
v -0.002116808 0.0035956 0.002071928
v 0.0022443 0.0035956 0.00207194
v -0.002116802 0.004133529 6.43003E-05
v 0.002244306 0.004133529 6.43146E-05
v -0.002116798 0.003595619 -0.001943328
v 0.002244309 0.003595619 -0.001943315
v -0.002116799 0.00212595 -0.003413013
v 0.002244308 0.00212595 -0.003413002
v -0.002116802 0.0001183128 -0.003950958
v 0.002244306 0.0001183128 -0.003950947
v -0.002838309 -0.002209625 0.001408333
v -0.002838302 -0.002569771 6.429076E-05
v -0.002838297 -0.002209606 -0.001279751
v -0.002838309 -0.001225719 0.002392241
v -0.002116823 -0.003896942 6.429076E-05
v -0.002116827 -0.003359013 0.002071918
v -0.002116827 -0.001889343 0.003541606
v -0.002838302 0.0001183128 0.002752377
v -0.002116823 0.0001182938 0.004079551
v -0.002838297 0.001462345 0.002392244
v -0.002116815 0.002125931 0.003541611
v -0.002838292 0.00244627 0.001408339
v -0.002116808 0.0035956 0.002071928
v -0.00283829 0.002806396 6.429791E-05
v -0.002116802 0.004133529 6.43003E-05
v -0.002838285 0.002446289 -0.001279744
v -0.002116798 0.003595619 -0.001943328
v -0.002838285 0.001462364 -0.002263652
v -0.002116799 0.00212595 -0.003413013
v -0.00283829 0.0001183319 -0.002623789
v -0.002116802 0.0001183128 -0.003950958
v -0.002838292 -0.0012257 -0.002263657
v -0.002116809 -0.001889324 -0.00341302
v -0.002116815 -0.003358993 -0.00194334
vt 0.3772726 0.7218301
vt 0.41014 0.72183
vt 0.41014 0.7061664
vt 0.3772726 0.7061664
vt 0.41014 0.6905024
vt 0.3772726 0.6905024
vt 0.41014 0.6748388
vt 0.3772726 0.6748388
vt 0.3772726 0.7374933
vt 0.41014 0.7374933
vt 0.3772726 0.7531574
vt 0.41014 0.7531574
vt 0.3772726 0.7688212
vt 0.41014 0.7688212
vt 0.3772726 0.6748388
vt 0.41014 0.6748388
vt 0.41014 0.6905024
vt 0.3772726 0.6905024
vt 0.41014 0.7061675
vt 0.3772726 0.7061675
vt 0.41014 0.7218308
vt 0.3772726 0.7218308
vt 0.41014 0.7374933
vt 0.3772726 0.7374933
vt 0.41014 0.7531582
vt 0.3772728 0.7531582
vt 0.41014 0.7688217
vt 0.3772726 0.7688218
vt 0.3121311 0.7364863
vt 0.3099255 0.7447948
vt 0.3120321 0.7530718
vt 0.3181043 0.7303808
vt 0.3005766 0.7447804
vt 0.3039908 0.7318611
vt 0.313412 0.7223301
vt 0.3263625 0.7282214
vt 0.3263871 0.7188552
vt 0.3346561 0.7304762
vt 0.3393263 0.7223761
vt 0.3407697 0.7364538
vt 0.348844 0.7317995
vt 0.3428762 0.7447309
vt 0.3522222 0.7447452
vt 0.3406704 0.7530395
vt 0.3488073 0.7576637
vt 0.3346978 0.7591446
vt 0.3393897 0.7671938
vt 0.3264396 0.7613031
vt 0.3264175 0.7706692
vt 0.3181451 0.7590484
vt 0.3134755 0.7671494
vt 0.3039581 0.7577251
vn 0 -1 -4.350705E-06
vn -0.4772016 -0.8787939 -5.413811E-06
vn -0.4772022 -0.7610604 0.4393919
vn -1.366863E-06 -0.8660284 0.4999948
vn -0.4772023 -0.4393992 0.7610561
vn -2.36674E-06 -0.5000022 0.8660241
vn -0.4772016 0 0.8787938
vn -2.733704E-06 -5.597975E-07 1
vn 1.334952E-06 -0.8660258 -0.4999995
vn -0.4772007 -0.7610574 -0.4393986
vn 2.110124E-06 -0.5000001 -0.8660253
vn -0.4771993 -0.4393974 -0.761059
vn 2.389331E-06 2.199907E-06 -1
vn -0.477197 2.013447E-06 -0.8787963
vn -2.733704E-06 -5.597975E-07 1
vn -0.4772016 0 0.8787938
vn -0.477199 0.4393994 0.761058
vn -2.366741E-06 0.5000014 0.8660246
vn -0.4771962 0.7610628 0.4393941
vn -1.404094E-06 0.8660281 0.4999953
vn -0.4771942 0.8787978 2.801159E-06
vn 0 1 4.763182E-06
vn -0.4771937 0.7610652 -0.4393928
vn 1.420051E-06 0.8660307 -0.4999908
vn -0.4771955 0.4394007 -0.7610595
vn 2.228458E-06 0.5000028 -0.8660238
vn -0.477197 2.013447E-06 -0.8787963
vn 2.389331E-06 2.199907E-06 -1
vn -0.9587855 -0.2460656 0.1420634
vn -0.9587844 -0.2841347 -5.284767E-06
vn -0.9587852 -0.2460629 -0.1420702
vn -0.9587854 -0.1420643 0.2460658
vn -0.4772016 -0.8787939 -5.413811E-06
vn -0.4772022 -0.7610604 0.4393919
vn -0.4772023 -0.4393992 0.7610561
vn -0.9587841 3.939731E-06 0.2841356
vn -0.4772016 0 0.8787938
vn -0.9587835 0.1420716 0.2460689
vn -0.477199 0.4393994 0.761058
vn -0.958782 0.2460772 0.1420672
vn -0.4771962 0.7610628 0.4393941
vn -0.9587818 0.2841436 -6.838378E-07
vn -0.4771942 0.8787978 2.801159E-06
vn -0.9587814 0.2460779 -0.1420705
vn -0.4771937 0.7610652 -0.4393928
vn -0.9587827 0.1420712 -0.2460723
vn -0.4771955 0.4394007 -0.7610595
vn -0.9587833 3.674982E-06 -0.2841383
vn -0.477197 2.013447E-06 -0.8787963
vn -0.9587845 -0.1420637 -0.2460695
vn -0.4771993 -0.4393974 -0.761059
vn -0.4772007 -0.7610574 -0.4393986
g Bolt_catch_LOD0_0
f 3/3/3 2/2/2 1/1/1
f 4/4/4 3/3/3 1/1/1
f 5/5/5 3/3/3 4/4/4
f 6/6/6 5/5/5 4/4/4
f 7/7/7 5/5/5 6/6/6
f 8/8/8 7/7/7 6/6/6
f 1/1/1 2/2/2 9/9/9
f 2/2/2 10/10/10 9/9/9
f 9/9/9 10/10/10 11/11/11
f 10/10/10 12/12/12 11/11/11
f 11/11/11 12/12/12 13/13/13
f 12/12/12 14/14/14 13/13/13
f 17/17/17 16/16/16 15/15/15
f 18/18/18 17/17/17 15/15/15
f 19/19/19 17/17/17 18/18/18
f 20/20/20 19/19/19 18/18/18
f 21/21/21 19/19/19 20/20/20
f 22/22/22 21/21/21 20/20/20
f 23/23/23 21/21/21 22/22/22
f 24/24/24 23/23/23 22/22/22
f 25/25/25 23/23/23 24/24/24
f 26/26/26 25/25/25 24/24/24
f 27/27/27 25/25/25 26/26/26
f 28/28/28 27/27/27 26/26/26
f 31/31/31 30/30/30 29/29/29
f 32/32/32 31/31/31 29/29/29
f 29/29/29 30/30/30 33/33/33
f 34/34/34 29/29/29 33/33/33
f 32/32/32 29/29/29 34/34/34
f 35/35/35 32/32/32 34/34/34
f 36/36/36 32/32/32 35/35/35
f 37/37/37 36/36/36 35/35/35
f 38/38/38 36/36/36 37/37/37
f 39/39/39 38/38/38 37/37/37
f 40/40/40 38/38/38 39/39/39
f 40/40/40 32/32/32 36/36/36
f 38/38/38 40/40/40 36/36/36
f 31/31/31 32/32/32 40/40/40
f 41/41/41 40/40/40 39/39/39
f 42/42/42 40/40/40 41/41/41
f 43/43/43 42/42/42 41/41/41
f 44/44/44 42/42/42 43/43/43
f 42/42/42 44/44/44 40/40/40
f 45/45/45 44/44/44 43/43/43
f 46/46/46 44/44/44 45/45/45
f 46/46/46 31/31/31 40/40/40
f 44/44/44 46/46/46 40/40/40
f 47/47/47 46/46/46 45/45/45
f 48/48/48 46/46/46 47/47/47
f 49/49/49 48/48/48 47/47/47
f 50/50/50 48/48/48 49/49/49
f 51/51/51 50/50/50 49/49/49
f 31/31/31 50/50/50 51/51/51
f 31/31/31 46/46/46 48/48/48
f 50/50/50 31/31/31 48/48/48
f 52/52/52 31/31/31 51/51/51
f 30/30/30 31/31/31 52/52/52
f 33/33/33 30/30/30 52/52/52
