g weapon_kac_sr25_bolt_catch_right_00_LOD0
v 0.002381732 -1.907349E-08 -0.0007114696
v 0.001158228 -0.0008489418 -0.0006873703
v 0.001502359 -1.907349E-08 -0.0003432369
v 0.002393215 -0.0008508396 -0.001203794
v 0.0006417989 -0.0008508396 0.0005476188
v 0.001134138 -1.907349E-08 0.0005361271
v 0.000461725 -0.0008489418 -0.001383886
v 0.002416165 -0.0008508396 -0.002188558
v -0.0003429568 -0.0008508396 0.0005705547
v 0.000117594 -1.907349E-08 -0.00172801
v 0.002427648 -1.907349E-08 -0.002680893
v -0.0008352947 -1.907349E-08 0.0005820465
v 0.0004617286 0.0008489132 -0.001383886
v 0.002416166 0.000850811 -0.002188558
v -0.0003429556 0.000850811 0.0005705547
v 0.00115823 0.0008489132 -0.0006873798
v 0.002393217 0.000850811 -0.001203794
v 0.0006418002 0.000850811 0.0005476188
v 0.001502359 -1.907349E-08 -0.0003432369
v 0.002381732 -1.907349E-08 -0.0007114696
v 0.001134138 -1.907349E-08 0.0005361271
v -0.0003421533 -0.0008514404 0.002680817
v 0.0006409955 -0.0008514404 0.002680817
v 0.00113257 -1.907349E-08 0.002680817
v -0.0008337283 -1.907349E-08 0.002680817
v -0.0003421521 0.0008514118 0.002680817
v 0.0006409967 0.0008514118 0.002680817
v 0.00113257 -1.907349E-08 0.002680817
v 0.005109819 -1.907349E-08 -0.0007130337
v 0.00510982 0.0008514118 -0.001204605
v 0.00510982 0.0008514118 -0.002187748
v 0.005109819 -1.907349E-08 -0.002679319
v 0.005109819 -0.0008514404 -0.002187748
v 0.005109819 -0.0008514404 -0.001204605
v 0.005109819 -1.907349E-08 -0.0007130337
v 0.008362951 -0.0008514404 -0.001204605
v 0.008362951 -1.907349E-08 -0.0007130337
v 0.008362951 -0.0008514404 -0.002187748
v 0.008362951 -1.907349E-08 -0.002679319
v 0.008362953 0.0008514118 -0.002187748
v 0.008362953 0.0008514118 -0.001204605
v 0.008362951 -1.907349E-08 -0.0007130337
vt 0.3645946 0.9634191
vt 0.360248 0.9591994
vt 0.3602624 0.9634191
vt 0.365115 0.9596286
vt 0.3553879 0.9596247
vt 0.3559784 0.9634191
vt 0.3602313 0.9561363
vt 0.3659897 0.9564651
vt 0.3544149 0.9564967
vt 0.3602246 0.9535951
vt 0.3663667 0.9535784
vt 0.3539866 0.9536214
vt 0.3602246 0.9510669
vt 0.3659703 0.9507012
vt 0.3544149 0.950749
vt 0.360232 0.9480334
vt 0.3650795 0.9475899
vt 0.3553838 0.9476334
vt 0.3602476 0.9438586
vt 0.3645521 0.9438586
vt 0.3559739 0.9438586
vt 0.3476614 0.9571027
vt 0.3480645 0.9604129
vt 0.3482971 0.9634191
vt 0.3474755 0.9536462
vt 0.3476614 0.9501894
vt 0.3480645 0.9468763
vt 0.3483016 0.9438586
vt 0.3741487 0.9438586
vt 0.3742926 0.9469265
vt 0.3745682 0.9501808
vt 0.3747289 0.9535306
vt 0.3746618 0.9569148
vt 0.3744589 0.9602528
vt 0.3743303 0.9634196
vt 0.3744589 0.9602528
vt 0.3743303 0.9634196
vt 0.3746618 0.9569148
vt 0.3747289 0.9535306
vt 0.3745682 0.9501808
vt 0.3742926 0.9469265
vt 0.3741487 0.9438586
vn 0.2118558 -0.0001573424 0.9773009
vn 0.2809972 -0.917614 0.2811141
vn 0.707109 -2.899134E-06 0.7071046
vn 0.08294659 -0.8913833 0.4455959
vn 0.4454647 -0.8914492 0.08294281
vn 0.9772881 0.000137474 0.2119148
vn -0.4129237 -0.8117787 -0.4129281
vn -0.1146746 -0.8361017 -0.5364549
vn -0.536351 -0.8361565 -0.1147603
vn -0.7071068 -1.53653E-06 -0.7071068
vn -0.181965 -8.165914E-05 -0.9833051
vn -0.9833168 9.240362E-05 -0.1819007
vn -0.4129253 0.811778 -0.4129275
vn -0.1147521 0.8361646 -0.5363401
vn -0.5364823 0.8360848 -0.1146685
vn 0.2811113 0.9176148 0.2809972
vn 0.08293466 0.8914592 0.4454462
vn 0.4456076 0.8913781 0.0829394
vn 0.707109 -2.899134E-06 0.7071046
vn 0.2118558 -0.0001573424 0.9773009
vn 0.9772881 0.000137474 0.2119148
vn -0.4997489 -0.8661703 0.000134692
vn 0.4998679 -0.8661016 -5.693824E-05
vn 0.9999999 -0.0001365744 0.0005435051
vn -0.9999999 0.0001348655 0.0005548762
vn -0.4998698 0.8661006 -5.498458E-05
vn 0.4997556 0.8661664 0.0001319393
vn 0.9999999 -0.0001365744 0.0005435051
vn 0.0002082553 5.079027E-05 1
vn -2.161197E-05 0.8660543 0.4999499
vn 5.903974E-05 0.8660818 -0.4999022
vn 0.0002127997 -5.719785E-05 -1
vn -2.09466E-05 -0.8660555 -0.4999478
vn 5.725849E-05 -0.866082 0.4999019
vn 0.0002082553 5.079027E-05 1
vn 0 -0.866026 0.4999988
vn 0 -2.218168E-06 1
vn 0 -0.866026 -0.4999989
vn 0 -2.234599E-06 -1
vn 0 0.866025 -0.5000007
vn 0 0.8660249 0.5000008
vn 0 -2.218168E-06 1
g weapon_kac_sr25_bolt_catch_right_00_LOD0_0
f 3/3/3 2/2/2 1/1/1
f 4/4/4 1/1/1 2/2/2
f 2/2/2 3/3/3 5/5/5
f 6/6/6 5/5/5 3/3/3
f 2/2/2 7/7/7 4/4/4
f 8/8/8 4/4/4 7/7/7
f 5/5/5 9/9/9 2/2/2
f 7/7/7 2/2/2 9/9/9
f 7/7/7 10/10/10 8/8/8
f 11/11/11 8/8/8 10/10/10
f 9/9/9 12/12/12 7/7/7
f 10/10/10 7/7/7 12/12/12
f 10/10/10 13/13/13 11/11/11
f 14/14/14 11/11/11 13/13/13
f 12/12/12 15/15/15 10/10/10
f 13/13/13 10/10/10 15/15/15
f 13/13/13 16/16/16 14/14/14
f 17/17/17 14/14/14 16/16/16
f 15/15/15 18/18/18 13/13/13
f 16/16/16 13/13/13 18/18/18
f 16/16/16 19/19/19 17/17/17
f 20/20/20 17/17/17 19/19/19
f 18/18/18 21/21/21 16/16/16
f 19/19/19 16/16/16 21/21/21
f 9/9/9 22/22/22 12/12/12
f 22/22/22 9/9/9 23/23/23
f 5/5/5 23/23/23 9/9/9
f 23/23/23 5/5/5 24/24/24
f 6/6/6 24/24/24 5/5/5
f 25/25/25 12/12/12 22/22/22
f 12/12/12 25/25/25 15/15/15
f 26/26/26 15/15/15 25/25/25
f 15/15/15 26/26/26 18/18/18
f 27/27/27 18/18/18 26/26/26
f 18/18/18 27/27/27 21/21/21
f 28/28/28 21/21/21 27/27/27
f 20/20/20 29/29/29 17/17/17
f 30/30/30 17/17/17 29/29/29
f 17/17/17 30/30/30 14/14/14
f 31/31/31 14/14/14 30/30/30
f 14/14/14 31/31/31 11/11/11
f 32/32/32 11/11/11 31/31/31
f 11/11/11 32/32/32 8/8/8
f 33/33/33 8/8/8 32/32/32
f 8/8/8 33/33/33 4/4/4
f 34/34/34 4/4/4 33/33/33
f 4/4/4 34/34/34 1/1/1
f 35/35/35 1/1/1 34/34/34
f 34/34/34 36/36/36 35/35/35
f 37/37/37 35/35/35 36/36/36
f 36/36/36 34/34/34 38/38/38
f 33/33/33 38/38/38 34/34/34
f 38/38/38 33/33/33 39/39/39
f 32/32/32 39/39/39 33/33/33
f 39/39/39 32/32/32 40/40/40
f 31/31/31 40/40/40 32/32/32
f 40/40/40 31/31/31 41/41/41
f 30/30/30 41/41/41 31/31/31
f 41/41/41 30/30/30 42/42/42
f 29/29/29 42/42/42 30/30/30
