g weapon_release_LOD0
v -0.005647508 -0.00358459 -0.00792376
v 0.005976028 -0.00322629 -0.009341569
v -0.005647411 -0.003227067 -0.009342556
v 0.005975931 -0.003583813 -0.007922778
v -0.005647411 -0.003227067 -0.009342556
v 0.005976051 -0.002100382 -0.01050168
v -0.005647387 -0.002101159 -0.01050276
v 0.005976028 -0.00322629 -0.009341569
v -0.005647387 -0.002101159 -0.01050276
v 0.005975985 -0.0005452823 -0.01094346
v -0.005647454 -0.0005460596 -0.01094445
v 0.005976051 -0.002100382 -0.01050168
v -0.005647454 -0.0005460596 -0.01094445
v 0.005975847 0.00102242 -0.01054839
v -0.005647592 0.001021643 -0.01054946
v 0.005975985 -0.0005452823 -0.01094346
v -0.005647592 0.001021643 -0.01054946
v 0.005975674 0.002182527 -0.009422559
v -0.005647765 0.002181749 -0.009423546
v 0.005975847 0.00102242 -0.01054839
v -0.005647765 0.002181749 -0.009423546
v 0.0059755 0.002582278 -0.007683806
v -0.005647938 0.002581501 -0.007684793
v 0.005975674 0.002182527 -0.009422559
v -0.005647938 0.002581501 -0.007684793
v -0.005679475 0.001391549 -0.008951401
v -0.005647765 0.002181749 -0.009423546
v -0.005679368 0.001656594 -0.007991824
v -0.005679353 0.000573349 -0.009745512
v -0.005647592 0.001021643 -0.01054946
v -0.005679257 -0.0005323124 -0.0100241
v -0.005647454 -0.0005460596 -0.01094445
v -0.005679209 -0.00162909 -0.009712548
v -0.005647387 -0.002101159 -0.01050276
v -0.005679226 -0.002423119 -0.008894348
v -0.005647411 -0.003227067 -0.009342556
v -0.005677109 -0.002637372 -0.007847385
v -0.005647508 -0.00358459 -0.00792376
v -0.005648486 0.000345006 0.0005262136
v -0.005675443 -0.0006367826 0.000448513
v -0.005678602 -0.00343502 -0.003154554
v -0.005647855 -0.0043679 -0.003211274
v 0.005975931 -0.003583813 -0.007922778
v 0.006010269 -0.002422342 -0.008893356
v 0.005976028 -0.00322629 -0.009341569
v 0.006007794 -0.002636595 -0.007846398
v 0.006010286 -0.001628313 -0.009711556
v 0.005976051 -0.002100382 -0.01050168
v 0.006010239 -0.0005314446 -0.01002311
v 0.005975985 -0.0005452823 -0.01094346
v 0.006010141 0.0005741263 -0.00974452
v 0.005975847 0.00102242 -0.01054839
v 0.00601002 0.001392326 -0.008950409
v 0.005975674 0.002182527 -0.009422559
v 0.006009607 0.001657448 -0.007990832
v 0.0059755 0.002582278 -0.007683806
v 0.005975584 -0.004367122 -0.003210292
v 0.006008702 -0.003434243 -0.003153563
v 0.006004244 -0.0006360054 0.0004495048
v 0.005974953 0.0003457832 0.0005272007
v -0.005647855 -0.0043679 -0.003211274
v 0.005975931 -0.003583813 -0.007922778
v -0.005647508 -0.00358459 -0.00792376
v 0.005975584 -0.004367122 -0.003210292
v -0.005647938 0.002581501 -0.007684793
v 0.005974953 0.0003457832 0.0005272007
v -0.005648486 0.000345006 0.0005262136
v 0.0059755 0.002582278 -0.007683806
v -0.005675443 -0.0006367826 0.000448513
v 0.006009607 0.001657448 -0.007990832
v -0.005679368 0.001656594 -0.007991824
v 0.006004244 -0.0006360054 0.0004495048
v -0.005679368 0.001656594 -0.007991824
v 0.00601002 0.001392326 -0.008950409
v -0.005679475 0.001391549 -0.008951401
v 0.006009607 0.001657448 -0.007990832
v -0.005679475 0.001391549 -0.008951401
v 0.006010141 0.0005741263 -0.00974452
v -0.005679353 0.000573349 -0.009745512
v 0.00601002 0.001392326 -0.008950409
v -0.005679353 0.000573349 -0.009745512
v 0.006010239 -0.0005314446 -0.01002311
v -0.005679257 -0.0005323124 -0.0100241
v 0.006010141 0.0005741263 -0.00974452
v -0.005679257 -0.0005323124 -0.0100241
v 0.006010286 -0.001628313 -0.009711556
v -0.005679209 -0.00162909 -0.009712548
v 0.006010239 -0.0005314446 -0.01002311
v -0.005679209 -0.00162909 -0.009712548
v 0.006010269 -0.002422342 -0.008893356
v -0.005679226 -0.002423119 -0.008894348
v 0.006010286 -0.001628313 -0.009711556
v -0.005679226 -0.002423119 -0.008894348
v 0.006007794 -0.002636595 -0.007846398
v -0.005677109 -0.002637372 -0.007847385
v 0.006010269 -0.002422342 -0.008893356
v 0.006008702 -0.003434243 -0.003153563
v -0.005678602 -0.00343502 -0.003154554
vt 0.8022 0.3694
vt 0.8069 0.3986
vt 0.8069 0.3694
vt 0.8022 0.3986
vt 0.8069 0.3694
vt 0.812 0.3986
vt 0.812 0.3694
vt 0.8069 0.3986
vt 0.812 0.3694
vt 0.8171 0.3986
vt 0.8171 0.3694
vt 0.812 0.3986
vt 0.8171 0.3694
vt 0.8222 0.3986
vt 0.8222 0.3694
vt 0.8171 0.3986
vt 0.8222 0.3694
vt 0.8273 0.3986
vt 0.8273 0.3694
vt 0.8222 0.3986
vt 0.8273 0.3694
vt 0.8329 0.3986
vt 0.8329 0.3694
vt 0.8273 0.3986
vt 0.1307 0.036
vt 0.1251 0.0436
vt 0.1208 0.0404
vt 0.1307 0.041
vt 0.1216 0.0488
vt 0.1159 0.0477
vt 0.1219 0.0546
vt 0.1162 0.056
vt 0.1258 0.0596
vt 0.1217 0.0631
vt 0.1322 0.0624
vt 0.1309 0.067
vt 0.1391 0.0619
vt 0.1403 0.0667
vt 0.1862 0.036
vt 0.1862 0.041
vt 0.1695 0.0592
vt 0.1708 0.0639
vt 0.1403 0.0667
vt 0.1322 0.0624
vt 0.1309 0.067
vt 0.1391 0.0619
vt 0.1258 0.0596
vt 0.1217 0.0631
vt 0.1219 0.0546
vt 0.1162 0.056
vt 0.1216 0.0488
vt 0.1159 0.0477
vt 0.1251 0.0436
vt 0.1208 0.0404
vt 0.1307 0.041
vt 0.1307 0.036
vt 0.1708 0.0639
vt 0.1695 0.0592
vt 0.1862 0.041
vt 0.1862 0.036
vt 0.7872 0.3694
vt 0.8022 0.3986
vt 0.8022 0.3694
vt 0.7872 0.3986
vt 0.8329 0.3694
vt 0.8598 0.3986
vt 0.8598 0.3694
vt 0.8329 0.3986
vt 0.9287 0.2014
vt 0.9479 0.1833
vt 0.9287 0.1833
vt 0.9479 0.2014
vt 0.9287 0.1833
vt 0.9479 0.1812
vt 0.9287 0.1812
vt 0.9479 0.1833
vt 0.9287 0.1812
vt 0.9479 0.1788
vt 0.9287 0.1788
vt 0.9479 0.1812
vt 0.9287 0.1788
vt 0.9479 0.1765
vt 0.9287 0.1765
vt 0.9479 0.1788
vt 0.9287 0.1765
vt 0.9479 0.1741
vt 0.9287 0.1741
vt 0.9479 0.1765
vt 0.9287 0.1741
vt 0.9479 0.1717
vt 0.9287 0.1717
vt 0.9479 0.1741
vt 0.9287 0.1717
vt 0.9479 0.1695
vt 0.9287 0.1695
vt 0.9479 0.1717
vt 0.9479 0.1597
vt 0.9287 0.1597
vn 8.559185E-05 -0.9696866 -0.2443518
vn 8.559185E-05 -0.9696866 -0.2443518
vn 8.559185E-05 -0.9696866 -0.2443518
vn 8.549167E-05 -0.9696864 -0.2443526
vn 0.000112555 -0.7176334 -0.696421
vn 0.000112555 -0.7176334 -0.696421
vn 0.000112555 -0.7176334 -0.6964211
vn 0.0001071273 -0.7176062 -0.6964491
vn 9.995811E-05 -0.2732225 -0.9619509
vn 9.995812E-05 -0.2732225 -0.9619509
vn 9.995811E-05 -0.2732225 -0.9619509
vn 0.0001074582 -0.2732744 -0.9619361
vn 7.316871E-05 0.2443209 -0.9696945
vn 7.316871E-05 0.2443209 -0.9696945
vn 7.316871E-05 0.2443209 -0.9696945
vn 6.600383E-05 0.2443708 -0.9696819
vn 1.436742E-05 0.696452 -0.7176033
vn 1.436742E-05 0.696452 -0.7176033
vn 1.436742E-05 0.6964521 -0.7176033
vn 1.967068E-05 0.6964247 -0.7176298
vn -4.614145E-05 0.9745749 -0.2240617
vn -4.614145E-05 0.9745749 -0.2240617
vn -4.614145E-05 0.9745749 -0.2240617
vn -4.614145E-05 0.9745749 -0.2240617
vn -0.9993464 0.03520674 -0.008193623
vn -0.9993464 0.03520673 -0.008193623
vn -0.9993464 0.03520673 -0.008193623
vn -0.9992504 0.0373427 -0.01020271
vn -0.9993636 0.02476575 -0.02567131
vn -0.9993636 0.02476575 -0.02567131
vn -0.9993617 0.008645193 -0.0346621
vn -0.9993617 0.008645193 -0.0346621
vn -0.9993605 -0.009809064 -0.03438432
vn -0.9993605 -0.009809064 -0.03438433
vn -0.9993603 -0.02565569 -0.02491788
vn -0.9993603 -0.02565569 -0.02491788
vn -0.9995012 -0.03060736 -0.007780785
vn -0.9995012 -0.03060736 -0.007780785
vn -0.9994788 0.03116763 0.008422617
vn -0.9996099 0.02683232 0.00775555
vn -0.9994531 -0.0326079 -0.005493661
vn -0.9994531 -0.0326079 -0.00549366
vn 0.9992586 -0.03735023 -0.009343927
vn 0.9992586 -0.03735024 -0.009343928
vn 0.9992586 -0.03735024 -0.009343929
vn 0.9994368 -0.03326105 -0.004444181
vn 0.9992593 -0.02762536 -0.02679086
vn 0.9992593 -0.02762536 -0.02679086
vn 0.9992591 -0.01047823 -0.03703342
vn 0.9992591 -0.01047823 -0.03703342
vn 0.9992577 0.009496343 -0.03733397
vn 0.9992577 0.009496342 -0.03733397
vn 0.9992558 0.02693785 -0.02760465
vn 0.9992558 0.02693785 -0.02760465
vn 0.9991642 0.03985722 -0.009063444
vn 0.9991642 0.03985723 -0.009063444
vn 0.9994345 -0.03318055 -0.005441577
vn 0.9993647 -0.03510445 -0.006160201
vn 0.9995419 0.02918677 0.008016506
vn 0.9995419 0.02918677 0.008016507
vn 7.982064E-05 -0.9864653 -0.1639704
vn 7.982064E-05 -0.9864653 -0.1639704
vn 7.982063E-05 -0.9864653 -0.1639704
vn 7.982064E-05 -0.9864653 -0.1639703
vn -8.68353E-05 0.9648494 0.2628035
vn -8.68353E-05 0.9648494 0.2628035
vn -8.683529E-05 0.9648494 0.2628034
vn -8.683531E-05 0.9648494 0.2628034
vn 9.271461E-05 -0.965011 -0.2622092
vn 9.271462E-05 -0.965011 -0.2622092
vn 9.271461E-05 -0.965011 -0.2622092
vn 8.648524E-05 -0.9650089 -0.2622173
vn 4.150117E-05 -0.9639065 0.2662408
vn 4.150117E-05 -0.9639065 0.2662408
vn 4.150117E-05 -0.9639065 0.2662408
vn 4.778695E-05 -0.9638869 0.2663121
vn -1.457718E-05 -0.6964641 0.7175917
vn -1.457718E-05 -0.6964641 0.7175917
vn -1.457717E-05 -0.6964641 0.7175916
vn -1.457717E-05 -0.6964641 0.7175916
vn -6.413611E-05 -0.244332 0.9696916
vn -6.41361E-05 -0.244332 0.9696916
vn -6.41361E-05 -0.2443319 0.9696916
vn -6.602815E-05 -0.2443508 0.9696869
vn -9.978698E-05 0.2732537 0.961942
vn -9.978699E-05 0.2732537 0.961942
vn -9.978699E-05 0.2732537 0.961942
vn -0.0001019038 0.2732328 0.9619479
vn -0.0001068056 0.7176273 0.6964274
vn -0.0001068056 0.7176273 0.6964274
vn -0.0001068056 0.7176272 0.6964275
vn -0.0001068056 0.7176272 0.6964275
vn -8.21021E-05 0.9796964 0.2004871
vn -8.21021E-05 0.9796964 0.2004871
vn -8.21021E-05 0.9796964 0.2004871
vn -8.215167E-05 0.9796963 0.2004877
vn -7.978337E-05 0.9858605 0.1675683
vn -7.978337E-05 0.9858605 0.1675683
g weapon_release_LOD0_0
f 3/3/3 2/2/2 1/1/1
f 4/4/4 1/1/1 2/2/2
f 7/7/7 6/6/6 5/5/5
f 8/8/8 5/5/5 6/6/6
f 11/11/11 10/10/10 9/9/9
f 12/12/12 9/9/9 10/10/10
f 15/15/15 14/14/14 13/13/13
f 16/16/16 13/13/13 14/14/14
f 19/19/19 18/18/18 17/17/17
f 20/20/20 17/17/17 18/18/18
f 23/23/23 22/22/22 21/21/21
f 24/24/24 21/21/21 22/22/22
f 27/27/27 26/26/26 25/25/25
f 28/28/28 25/25/25 26/26/26
f 26/26/26 27/27/27 29/29/29
f 30/30/30 29/29/29 27/27/27
f 29/29/29 30/30/30 31/31/31
f 32/32/32 31/31/31 30/30/30
f 31/31/31 32/32/32 33/33/33
f 34/34/34 33/33/33 32/32/32
f 33/33/33 34/34/34 35/35/35
f 36/36/36 35/35/35 34/34/34
f 35/35/35 36/36/36 37/37/37
f 38/38/38 37/37/37 36/36/36
f 25/25/25 28/28/28 39/39/39
f 40/40/40 39/39/39 28/28/28
f 37/37/37 38/38/38 41/41/41
f 42/42/42 41/41/41 38/38/38
f 45/45/45 44/44/44 43/43/43
f 46/46/46 43/43/43 44/44/44
f 44/44/44 45/45/45 47/47/47
f 48/48/48 47/47/47 45/45/45
f 47/47/47 48/48/48 49/49/49
f 50/50/50 49/49/49 48/48/48
f 49/49/49 50/50/50 51/51/51
f 52/52/52 51/51/51 50/50/50
f 51/51/51 52/52/52 53/53/53
f 54/54/54 53/53/53 52/52/52
f 53/53/53 54/54/54 55/55/55
f 56/56/56 55/55/55 54/54/54
f 43/43/43 46/46/46 57/57/57
f 58/58/58 57/57/57 46/46/46
f 55/55/55 56/56/56 59/59/59
f 60/60/60 59/59/59 56/56/56
f 63/63/63 62/62/62 61/61/61
f 64/64/64 61/61/61 62/62/62
f 67/67/67 66/66/66 65/65/65
f 68/68/68 65/65/65 66/66/66
f 71/71/71 70/70/70 69/69/69
f 72/72/72 69/69/69 70/70/70
f 75/75/75 74/74/74 73/73/73
f 76/76/76 73/73/73 74/74/74
f 79/79/79 78/78/78 77/77/77
f 80/80/80 77/77/77 78/78/78
f 83/83/83 82/82/82 81/81/81
f 84/84/84 81/81/81 82/82/82
f 87/87/87 86/86/86 85/85/85
f 88/88/88 85/85/85 86/86/86
f 91/91/91 90/90/90 89/89/89
f 92/92/92 89/89/89 90/90/90
f 95/95/95 94/94/94 93/93/93
f 96/96/96 93/93/93 94/94/94
f 94/94/94 95/95/95 97/97/97
f 98/98/98 97/97/97 95/95/95
