g pp-9_stock_release_LOD0
v -0.01636176 0.0007738157 -0.0008336993
v -0.01199596 0.0007738157 -0.0008336993
v -0.01199596 0.001100453 -0.0003070692
v -0.01636176 0.001100453 -0.0003070692
v -0.01636176 0.0002281611 -0.001126478
v -0.01199596 0.0002281611 -0.001126478
v -0.01636176 -0.0003887812 -0.001108189
v -0.01199596 -0.0003887625 -0.001108193
v -0.01199596 0.00111876 0.0003098533
v -0.01636176 0.001118742 0.0003098567
v -0.01199596 0.0008259759 0.0008555178
v -0.01636176 0.000825957 0.0008555215
v -0.01199596 0.00030181 0.001181404
v -0.01636176 0.00030181 0.001181404
v -0.01199596 -0.0003175926 0.00120044
v -0.01636176 -0.0003175926 0.00120044
v -0.01199596 -0.0008632659 0.0009076636
v -0.01636176 -0.0008632659 0.0009076636
v -0.01199596 -0.001186648 0.0003827624
v -0.01636176 -0.001186648 0.0003827624
v -0.01199596 -0.001208173 -0.0002358931
v -0.01636176 -0.001208173 -0.0002358931
v -0.01199596 -0.0009153893 -0.0007815629
v -0.01636176 -0.000915408 -0.0007815594
v -0.01199596 -0.0003887625 -0.001108193
v -0.01636176 -0.0003887812 -0.001108189
v -0.01660272 0.0004433314 -0.01331546
v -0.01558706 0.0004523099 -0.0132857
v -0.01558706 0.005894125 -0.0005194594
v -0.01660272 0.005894125 -0.0005194594
v -0.01660272 0.005871485 0.001826039
v -0.01558706 0.005871485 0.001826039
v -0.01660272 0.004692279 0.004135595
v -0.01558706 0.004692279 0.004135595
v -0.01660272 0.002920507 0.005413248
v -0.01558706 0.002920507 0.005413248
v -0.01660272 -0.0001484459 0.006120346
v -0.01558706 -0.0001484459 0.006120346
v -0.01660272 -0.002734795 0.005349411
v -0.01558706 -0.002734795 0.005349411
v -0.01660272 -0.004972194 0.003494299
v -0.01558705 -0.004972176 0.003494297
v -0.01558705 -0.005751471 0.00116835
v -0.01660272 -0.005755985 0.001126414
v -0.01558706 -0.005123299 -0.0122562
v -0.01660272 -0.005123343 -0.01228325
v -0.01660272 -0.004987992 -0.01305477
v -0.01558706 -0.004987992 -0.01305477
v -0.01660272 -0.004053916 -0.01409426
v -0.01558706 -0.004058895 -0.01409276
v -0.01558706 -0.001219533 -0.01457569
v -0.01558706 -0.0001475458 -0.01414397
v -0.01660272 -0.0001475458 -0.01414397
v -0.01660272 -0.001219533 -0.01457569
v -0.01660272 0.002920507 0.005413248
v -0.01660272 -0.0001484459 0.006120346
v -0.01660272 0.005871485 0.001826039
v -0.01660272 0.004692279 0.004135595
v -0.01660272 -0.005123343 -0.01228325
v -0.01660272 0.005894125 -0.0005194594
v -0.01660272 0.0004433314 -0.01331546
v -0.01660272 -0.004972194 0.003494299
v -0.01660272 -0.005755985 0.001126414
v -0.01660272 -0.002734795 0.005349411
v -0.01660272 -0.004987992 -0.01305477
v -0.01660272 -0.001219533 -0.01457569
v -0.01660272 -0.004053916 -0.01409426
v -0.01660272 -0.0001475458 -0.01414397
v -0.01558706 -0.001219533 -0.01457569
v -0.01558706 -8.845406E-05 -0.009111902
v -0.01558706 0.0004523099 -0.0132857
v -0.01558706 -0.0001475458 -0.01414397
v -0.01558706 0.005894125 -0.0005194594
v -0.01558706 0.004692279 0.004135595
v -0.01558706 0.002920507 0.005413248
v -0.01558706 -0.000821901 -0.007667448
v -0.01558706 -0.0001484459 0.006120346
v -0.01558706 -0.002512377 -0.007457966
v -0.01558706 0.005871485 0.001826039
v -0.01558706 -0.002734795 0.005349411
v -0.01558705 -0.004972176 0.003494297
v -0.01558705 -0.005751471 0.00116835
v -0.01558706 -0.003515768 -0.008819682
v -0.01558706 -0.005123299 -0.0122562
v -0.01558706 -0.004987992 -0.01305477
v -0.01558706 -0.004058895 -0.01409276
v -0.007316393 -0.003918792 -0.01417562
v -0.007316393 -0.00351575 -0.008819688
v -0.007318983 -0.0008219012 -0.007667451
v -0.007316394 -0.001393339 -0.01463152
v -0.007318983 -0.002512377 -0.007457966
v -0.007318985 -8.845414E-05 -0.009111903
v -0.007316394 -0.001393339 -0.01463152
v -0.01558706 -0.001219533 -0.01457569
v -0.01558706 -0.004058895 -0.01409276
v -0.007316393 -0.003918792 -0.01417562
v -0.01660272 -0.001219533 -0.01457569
v -0.01660272 -0.004053916 -0.01409426
v -0.007318985 -8.845414E-05 -0.009111903
v -0.01558706 -8.845406E-05 -0.009111902
v -0.01558706 -0.001219533 -0.01457569
v -0.007316394 -0.001393339 -0.01463152
v -0.007318983 -0.002512377 -0.007457966
v -0.01558706 -0.002512377 -0.007457966
v -0.01558706 -0.000821901 -0.007667448
v -0.007318983 -0.0008219012 -0.007667451
v -0.007316393 -0.003918792 -0.01417562
v -0.01558706 -0.004058895 -0.01409276
v -0.01558706 -0.003515768 -0.008819682
v -0.007316393 -0.00351575 -0.008819688
v -0.007318983 -0.0008219012 -0.007667451
v -0.01558706 -0.000821901 -0.007667448
v -0.01558706 -8.845406E-05 -0.009111902
v -0.007318985 -8.845414E-05 -0.009111903
v -0.007316393 -0.00351575 -0.008819688
v -0.01558706 -0.003515768 -0.008819682
v -0.01558706 -0.002512377 -0.007457966
v -0.007318983 -0.002512377 -0.007457966
v 0.01742957 -0.001971372 0.005569211
v 0.01742957 0.001648575 0.005646479
v 0.01742958 -0.00485662 0.003378664
v 0.01742958 -0.003588231 0.004703752
v 0.01742957 0.005812422 0.000160692
v 0.01742957 0.001884438 -0.005496003
v 0.01742957 -0.004708999 -0.003507305
v 0.01742958 -0.005901855 -8.673372E-05
v 0.01742958 -0.00565174 0.001729508
v 0.01742958 -0.005577684 -0.001892163
v 0.01742957 -0.001735528 -0.005573269
v 0.01742957 -0.00338639 -0.004774942
v 0.01742957 8.148951E-05 -0.005820915
v 0.01742957 0.004767226 -0.003304713
v 0.01742957 0.003498836 -0.004629801
v 0.01742957 0.005565544 -0.001653818
v 0.01742957 0.004622065 0.003580514
v 0.01742957 0.005488271 0.001966118
v 0.01742957 0.003299457 0.004848151
v 0.01742957 -0.0001684228 0.005894125
v 0.01543452 -0.00565174 0.001729508
v 0.01742958 -0.00565174 0.001729508
v 0.01742958 -0.005901855 -8.673372E-05
v 0.01543452 -0.005901855 -8.673372E-05
v 0.01742958 -0.005577684 -0.001892163
v 0.01543452 -0.005577684 -0.001892163
v 0.01742957 -0.004708999 -0.003507305
v 0.01543452 -0.004708999 -0.003507305
v 0.01742957 -0.00338639 -0.004774942
v 0.01543452 -0.00338639 -0.004774942
v 0.01742957 -0.001735528 -0.005573269
v 0.01543452 -0.001735528 -0.005573269
v 0.01543452 -0.00485662 0.003378664
v 0.01742958 -0.00485662 0.003378664
v 0.01543452 -0.003588231 0.004703752
v 0.01742958 -0.003588231 0.004703752
v 0.01543452 -0.001971372 0.005569211
v 0.01742957 -0.001971372 0.005569211
v 0.01543452 -0.0001684228 0.005894125
v 0.01742957 -0.0001684228 0.005894125
v 0.01543452 0.001648575 0.005646479
v 0.01742957 0.001648575 0.005646479
v 0.01543452 0.003299457 0.004848151
v 0.01742957 0.003299457 0.004848151
v 0.01543452 0.004622065 0.003580514
v 0.01742957 0.004622065 0.003580514
v 0.01543452 0.005488271 0.001966118
v 0.01742957 0.005488271 0.001966118
v 0.01543452 0.005812422 0.000160692
v 0.01742957 0.005812422 0.000160692
v 0.01543452 0.005565544 -0.001653818
v 0.01742957 0.005565544 -0.001653818
v 0.01543452 0.004767226 -0.003304713
v 0.01742957 0.004767226 -0.003304713
v 0.01543452 0.003498836 -0.004629801
v 0.01742957 0.003498836 -0.004629801
v 0.01543452 0.001884438 -0.005496003
v 0.01742957 0.001884438 -0.005496003
v 0.01543452 8.148951E-05 -0.005820915
v 0.01742957 8.148951E-05 -0.005820915
v 0.01543452 -0.001735528 -0.005573269
v 0.01742957 -0.001735528 -0.005573269
vt 0.8787329 0.4570265
vt 0.8787329 0.4436854
vt 0.8768484 0.4436854
vt 0.8768484 0.4570265
vt 0.8806192 0.4570265
vt 0.8806177 0.4436854
vt 0.8825037 0.4570265
vt 0.8825037 0.4436854
vt 0.8749635 0.4436854
vt 0.8749635 0.4570265
vt 0.8730788 0.4436854
vt 0.8730788 0.4570265
vt 0.8711927 0.4436854
vt 0.8711941 0.4570265
vt 0.8691627 0.4436854
vt 0.8691627 0.4570265
vt 0.8672781 0.4436854
vt 0.8672781 0.4570265
vt 0.8653934 0.4436854
vt 0.8653934 0.4570265
vt 0.8635087 0.4436854
vt 0.8635072 0.4570265
vt 0.8616226 0.4436854
vt 0.8616226 0.4570265
vt 0.8597379 0.4436854
vt 0.8597379 0.4570265
vt 0.3680413 0.6665322
vt 0.3679497 0.6638227
vt 0.3308015 0.6638227
vt 0.3308039 0.6665322
vt 0.3240079 0.6665322
vt 0.3240186 0.6638227
vt 0.3172512 0.6665322
vt 0.3172586 0.6638227
vt 0.3113265 0.6665322
vt 0.3113265 0.6638227
vt 0.3027916 0.6665322
vt 0.3027916 0.6638227
vt 0.2948958 0.6665322
vt 0.2948958 0.6638227
vt 0.2872103 0.6665322
vt 0.2872096 0.6638227
vt 0.2809587 0.6638227
vt 0.2808512 0.6665322
vt 0.2444883 0.6638227
vt 0.2444174 0.6665322
vt 0.2423276 0.6665322
vt 0.2423271 0.6638227
vt 0.2385992 0.6665322
vt 0.238611 0.6638227
vt 0.3738328 0.6638227
vt 0.3707472 0.6638227
vt 0.3707526 0.6665322
vt 0.3738328 0.6665322
vt 0.998776 0.5168235
vt 0.9990432 0.509593
vt 0.9919603 0.5250362
vt 0.9966608 0.5213744
vt 0.9553674 0.506336
vt 0.9866763 0.5261033
vt 0.9554431 0.5193424
vt 0.9910287 0.4998473
vt 0.9853479 0.4991035
vt 0.996183 0.5040913
vt 0.9536883 0.5069726
vt 0.9518812 0.5161319
vt 0.951746 0.5095279
vt 0.9533175 0.518365
vt 0.1623395 0.4878006
vt 0.1615016 0.478716
vt 0.1598284 0.4854104
vt 0.1606662 0.4868443
vt 0.1530155 0.4636552
vt 0.1563621 0.4562452
vt 0.1594705 0.4544522
vt 0.1630565 0.4765652
vt 0.1674791 0.4545706
vt 0.1658058 0.4765652
vt 0.1539719 0.4595917
vt 0.1709453 0.4569621
vt 0.172858 0.4603087
vt 0.1733356 0.4654482
vt 0.1671212 0.4789554
vt 0.1690326 0.4848132
vt 0.1686735 0.4861273
vt 0.1670003 0.4875625
vt 0.6605957 0.6864883
vt 0.6464257 0.6849344
vt 0.6423506 0.6917278
vt 0.6605938 0.6932818
vt 0.6423506 0.6872635
vt 0.6456486 0.6940567
vt 0.1300217 0.5083351
vt 0.1295689 0.5228485
vt 0.1356151 0.5228485
vt 0.1353133 0.5083351
vt 0.1295689 0.524966
vt 0.1356151 0.524966
vt 0.5895902 0.3038851
vt 0.5761115 0.3038851
vt 0.5761115 0.3146262
vt 0.5895902 0.3146262
vt 0.737139 0.7688377
vt 0.737139 0.7896639
vt 0.742129 0.7896639
vt 0.742129 0.7688377
vt 0.5345746 0.3936779
vt 0.5244524 0.3936779
vt 0.5244524 0.4012965
vt 0.5345746 0.4012965
vt 0.1131432 0.5735949
vt 0.1131432 0.5555536
vt 0.1090542 0.5555536
vt 0.1090542 0.5735949
vt 0.1605329 0.6613926
vt 0.1605329 0.686574
vt 0.1665655 0.686574
vt 0.1665655 0.6613926
vt 0.05913282 0.6213393
vt 0.05711048 0.6339994
vt 0.06819753 0.6121996
vt 0.06295327 0.6160951
vt 0.07441545 0.6513044
vt 0.09614023 0.6402174
vt 0.09231978 0.6160951
vt 0.08085843 0.6102523
vt 0.07441545 0.6102523
vt 0.08707552 0.6121996
vt 0.09816342 0.6274822
vt 0.09614023 0.6213393
vt 0.09816342 0.6339994
vt 0.08707552 0.649282
vt 0.09231978 0.6454608
vt 0.08085763 0.6513044
vt 0.06295412 0.6454608
vt 0.06819753 0.6492812
vt 0.05913282 0.6402174
vt 0.05711048 0.6274822
vt 0.02425699 0.9510061
vt 0.01609902 0.9510061
vt 0.01609902 0.9599231
vt 0.02425699 0.9599231
vt 0.01609902 0.9688401
vt 0.02425705 0.9688401
vt 0.01609902 0.9778531
vt 0.02425705 0.9778531
vt 0.01609902 0.9870541
vt 0.02425705 0.9870551
vt 0.01609902 0.9962571
vt 0.02425705 0.9962571
vt 0.02425699 0.9420881
vt 0.01609902 0.9420881
vt 0.02425699 0.9331712
vt 0.01609902 0.9331712
vt 0.02425693 0.9240642
vt 0.01609902 0.9240642
vt 0.02425693 0.9149563
vt 0.01609902 0.9149563
vt 0.02425693 0.9057552
vt 0.01609902 0.9057552
vt 0.02425693 0.8965532
vt 0.01609902 0.8965532
vt 0.02425693 0.8874462
vt 0.01609896 0.8874462
vt 0.02425693 0.8784342
vt 0.01609896 0.8784342
vt 0.02425693 0.8694211
vt 0.01609896 0.8694211
vt 0.02425693 0.8605992
vt 0.01609896 0.8605992
vt 0.02425693 0.8516811
vt 0.01609896 0.8516811
vt 0.02425693 0.8426691
vt 0.01609896 0.8426691
vt 0.02425693 0.8336571
vt 0.01609896 0.8336571
vt 0.02425693 0.8245492
vt 0.01609896 0.8245492
vt 0.02425693 0.8153481
vt 0.01609896 0.8153481
vn 0 0.6845955 -0.7289232
vn 0 0.6845952 -0.7289234
vn -1.114347E-06 0.9575518 -0.2882612
vn -1.114347E-06 0.9575518 -0.2882612
vn -1.922194E-07 0.2293581 -0.9733421
vn -1.922197E-07 0.2293578 -0.9733422
vn 6.103165E-07 -0.2882499 -0.9575552
vn 6.103111E-07 -0.2882484 -0.9575557
vn -2.878839E-06 0.9733441 0.2293492
vn -2.87884E-06 0.9733441 0.2293495
vn -2.171093E-06 0.7292917 0.6842028
vn -2.171088E-06 0.7292911 0.6842035
vn -4.06286E-07 0.2892894 0.9572417
vn -4.06286E-07 0.2892894 0.9572417
vn 0 -0.228819 0.973469
vn 0 -0.2288188 0.973469
vn 0 -0.685685 0.7278984
vn 0 -0.6856849 0.7278985
vn 0 -0.9572459 0.2892754
vn 0 -0.9572459 0.2892754
vn 8.792055E-07 -0.973931 -0.2268443
vn 8.79206E-07 -0.973931 -0.2268445
vn 1.681097E-06 -0.7289263 -0.6845921
vn 1.681097E-06 -0.728927 -0.6845915
vn 6.103111E-07 -0.2882484 -0.9575557
vn 6.103165E-07 -0.2882499 -0.9575552
vn 0.003307768 0.8723661 -0.488842
vn 0.003247598 0.8743265 -0.4853274
vn 0.0008573823 0.9807392 -0.1953197
vn 0.0008573823 0.9807392 -0.1953197
vn 0 0.9711326 0.2385407
vn 0 0.9711326 0.2385407
vn 0 0.7589768 0.6511176
vn 0 0.7589768 0.6511176
vn 0 0.4128718 0.9107892
vn 0 0.4128717 0.9107892
vn 0 -0.03161522 0.9995002
vn 0 -0.03161534 0.9995002
vn 3.332632E-06 -0.4714871 0.8818729
vn 3.332634E-06 -0.4714872 0.8818729
vn -0.002287614 -0.8253348 0.564639
vn -0.002287593 -0.8253334 0.5646411
vn -0.0003986909 -0.989922 0.1416129
vn -0.0001810493 -0.9912458 0.1320292
vn 0.003078417 -0.9941919 -0.1075773
vn 0.003052271 -0.9939658 -0.1096486
vn 0.000495035 -0.9000603 -0.4357651
vn 0.000495035 -0.9000603 -0.4357651
vn -0.0005351296 -0.4820508 -0.8761432
vn -0.00335464 -0.381577 -0.924331
vn -0.002835996 0.01239588 -0.9999192
vn 0.002523047 0.6205769 -0.7841415
vn 0.002523047 0.6205769 -0.7841415
vn 0.0001644875 0.1070421 -0.9942545
vn -1 -7.432022E-07 -6.113871E-07
vn -1 -3.91202E-07 -1.614434E-07
vn -1 -4.102093E-07 0
vn -1 -7.432022E-07 -6.113871E-07
vn -1 -3.996518E-07 2.01762E-07
vn -1 -3.506049E-07 1.256901E-07
vn -1 -3.350956E-07 1.675274E-07
vn -1 -4.773584E-07 0
vn -1 -5.645688E-07 1.565211E-07
vn -1 5.98115E-07 -2.006568E-06
vn -1 -5.239371E-07 1.052364E-07
vn -1 -4.275328E-07 1.852329E-07
vn -1 -9.926797E-07 -8.920172E-07
vn -1 0 0
vn 1 0 0
vn 1 0 0
vn 1 0 0
vn 1 0 0
vn 1 0 0
vn 1 0 0
vn 1 4.03455E-07 -1.154291E-07
vn 1 5.421608E-07 0
vn 1 4.517158E-07 -1.219591E-07
vn 1 7.261215E-07 -1.708271E-07
vn 1 0 0
vn 1 3.436011E-07 0
vn 1 8.971557E-07 0
vn 1 3.232479E-07 -1.559264E-07
vn 1 3.082423E-07 -1.453606E-07
vn 1 0 0
vn 1 0 0
vn 1 0 0
vn 0.9999999 0.0004735012 0.0001727117
vn 0.9999998 0.0004204817 0.0004960774
vn 0.9999998 0.0004510843 0.0005930564
vn 0.9999999 0.0004881418 0.0001863341
vn 0.9999985 0.0002160112 0.001743142
vn 0.9999998 0.0006317533 0.0003199589
vn -0.008609744 -0.1723738 -0.984994
vn -0.002835996 0.01239588 -0.9999192
vn -0.00335464 -0.381577 -0.924331
vn -0.008609743 -0.1723737 -0.9849939
vn 0.0001644875 0.1070421 -0.9942545
vn -0.0005351296 -0.4820508 -0.8761432
vn 0.005061596 0.9920909 0.1254192
vn 0.005060861 0.9920844 0.1254709
vn 0.009528358 0.9762333 -0.2165125
vn 0.009528358 0.9762333 -0.2165125
vn 1.463056E-07 0.1229793 0.9924092
vn 1.463056E-07 0.1229793 0.9924092
vn 1.463056E-07 0.1229793 0.9924092
vn 1.463056E-07 0.1229793 0.9924092
vn 0.008881439 -0.996022 0.08866352
vn 0.008881438 -0.996022 0.0886635
vn 0.004612284 -0.9352112 0.3540604
vn 0.004614532 -0.9352595 0.3539326
vn 1.095121E-07 0.8916395 0.4527459
vn 1.095121E-07 0.8916395 0.452746
vn 0.005060861 0.9920844 0.1254709
vn 0.005061596 0.9920909 0.1254192
vn 0.004614532 -0.9352595 0.3539326
vn 0.004612284 -0.9352112 0.3540604
vn 1.120263E-06 -0.8050529 0.5932031
vn 1.120263E-06 -0.8050529 0.5932031
vn 1 4.631008E-07 -1.836921E-07
vn 1 2.910158E-07 -3.509651E-07
vn 1 4.166679E-07 -1.142273E-07
vn 1 4.683617E-07 0
vn 1 2.932143E-07 -1.299057E-07
vn 1 3.797785E-07 0
vn 1 4.981117E-07 0
vn 1 5.612772E-07 -1.13936E-07
vn 1 4.726268E-07 -1.425539E-07
vn 1 2.060016E-06 3.698825E-07
vn 1 4.549468E-07 2.029344E-07
vn 1 4.649441E-07 0
vn 1 2.847212E-07 2.089045E-06
vn 1 3.347706E-07 0
vn 1 3.54509E-07 0
vn 1 0 0
vn 1 0 -4.462664E-07
vn 1 0 -3.609381E-07
vn 1 -9.178647E-07 -1.898075E-06
vn 1 3.73558E-07 -2.072875E-06
vn 0 -0.9573665 0.288876
vn 0 -0.9573665 0.288876
vn 0 -0.9997918 -0.02040389
vn 0 -0.9997918 -0.02040389
vn 0 -0.9442264 -0.3292972
vn 0 -0.9442264 -0.3292973
vn 0 -0.7960609 -0.6052166
vn 0 -0.7960609 -0.6052166
vn 0 -0.5706547 -0.8211901
vn 0 -0.5706546 -0.8211902
vn 0 -0.2887705 -0.9573984
vn 0 -0.2887705 -0.9573984
vn 0 -0.8217064 0.5699111
vn 0 -0.8217064 0.5699111
vn 0 -0.6046776 0.7964704
vn 0 -0.6046777 0.7964703
vn 0 -0.3286577 0.9444491
vn 0 -0.3286577 0.9444491
vn 0 -0.02141804 0.9997706
vn 0 -0.02141811 0.9997706
vn 0 0.2887693 0.9573987
vn 0 0.2887692 0.9573987
vn 0 0.5706528 0.8211914
vn 0 0.5706528 0.8211915
vn 0 0.7963631 0.6048189
vn 0 0.796363 0.604819
vn 0 0.9443924 0.3288206
vn 0 0.9443923 0.3288207
vn 0 0.9997751 0.02120949
vn 0 0.9997751 0.02120956
vn 0 0.9574333 -0.2886545
vn 0 0.9574333 -0.2886545
vn 0 0.8213759 -0.5703872
vn 0 0.8213758 -0.5703873
vn 0 0.6050723 -0.7961705
vn 0 0.6050723 -0.7961705
vn 0 0.3291255 -0.9442862
vn 0 0.3291254 -0.9442862
vn 0 0.02141821 -0.9997706
vn 0 0.02141815 -0.9997706
vn 0 -0.2887705 -0.9573984
vn 0 -0.2887705 -0.9573984
g pp-9_stock_release_LOD0_0
f 3/3/3 2/2/2 1/1/1
f 4/4/4 3/3/3 1/1/1
f 1/1/1 2/2/2 5/5/5
f 2/2/2 6/6/6 5/5/5
f 5/5/5 6/6/6 7/7/7
f 6/6/6 8/8/8 7/7/7
f 9/9/9 3/3/3 4/4/4
f 10/10/10 9/9/9 4/4/4
f 11/11/11 9/9/9 10/10/10
f 12/12/12 11/11/11 10/10/10
f 13/13/13 11/11/11 12/12/12
f 14/14/14 13/13/13 12/12/12
f 15/15/15 13/13/13 14/14/14
f 16/16/16 15/15/15 14/14/14
f 17/17/17 15/15/15 16/16/16
f 18/18/18 17/17/17 16/16/16
f 19/19/19 17/17/17 18/18/18
f 20/20/20 19/19/19 18/18/18
f 21/21/21 19/19/19 20/20/20
f 22/22/22 21/21/21 20/20/20
f 23/23/23 21/21/21 22/22/22
f 24/24/24 23/23/23 22/22/22
f 25/25/25 23/23/23 24/24/24
f 26/26/26 25/25/25 24/24/24
f 29/29/29 28/28/28 27/27/27
f 30/30/30 29/29/29 27/27/27
f 29/29/29 30/30/30 31/31/31
f 32/32/32 29/29/29 31/31/31
f 32/32/32 31/31/31 33/33/33
f 34/34/34 32/32/32 33/33/33
f 34/34/34 33/33/33 35/35/35
f 36/36/36 34/34/34 35/35/35
f 35/35/35 37/37/37 36/36/36
f 37/37/37 38/38/38 36/36/36
f 37/37/37 39/39/39 38/38/38
f 39/39/39 40/40/40 38/38/38
f 40/40/40 39/39/39 41/41/41
f 42/42/42 40/40/40 41/41/41
f 43/43/43 42/42/42 41/41/41
f 44/44/44 43/43/43 41/41/41
f 45/45/45 43/43/43 44/44/44
f 46/46/46 45/45/45 44/44/44
f 46/46/46 47/47/47 45/45/45
f 47/47/47 48/48/48 45/45/45
f 48/48/48 47/47/47 49/49/49
f 50/50/50 48/48/48 49/49/49
f 53/53/53 52/52/52 51/51/51
f 54/54/54 53/53/53 51/51/51
f 53/53/53 27/27/27 52/52/52
f 27/27/27 28/28/28 52/52/52
f 57/57/57 56/56/56 55/55/55
f 58/58/58 57/57/57 55/55/55
f 59/59/59 56/56/56 57/57/57
f 59/59/59 57/57/57 60/60/60
f 61/61/61 59/59/59 60/60/60
f 62/62/62 56/56/56 59/59/59
f 63/63/63 62/62/62 59/59/59
f 64/64/64 56/56/56 62/62/62
f 59/59/59 61/61/61 65/65/65
f 61/61/61 66/66/66 65/65/65
f 65/65/65 66/66/66 67/67/67
f 68/68/68 66/66/66 61/61/61
f 71/71/71 70/70/70 69/69/69
f 72/72/72 71/71/71 69/69/69
f 70/70/70 71/71/71 73/73/73
f 74/74/74 70/70/70 73/73/73
f 70/70/70 74/74/74 75/75/75
f 76/76/76 70/70/70 75/75/75
f 75/75/75 77/77/77 76/76/76
f 77/77/77 78/78/78 76/76/76
f 79/79/79 74/74/74 73/73/73
f 77/77/77 80/80/80 78/78/78
f 80/80/80 81/81/81 78/78/78
f 81/81/81 82/82/82 78/78/78
f 82/82/82 83/83/83 78/78/78
f 84/84/84 83/83/83 82/82/82
f 83/83/83 84/84/84 85/85/85
f 86/86/86 83/83/83 85/85/85
f 89/89/89 88/88/88 87/87/87
f 90/90/90 89/89/89 87/87/87
f 91/91/91 88/88/88 89/89/89
f 90/90/90 92/92/92 89/89/89
f 95/95/95 94/94/94 93/93/93
f 96/96/96 95/95/95 93/93/93
f 94/94/94 95/95/95 97/97/97
f 95/95/95 98/98/98 97/97/97
f 101/101/101 100/100/100 99/99/99
f 102/102/102 101/101/101 99/99/99
f 105/105/105 104/104/104 103/103/103
f 106/106/106 105/105/105 103/103/103
f 109/109/109 108/108/108 107/107/107
f 110/110/110 109/109/109 107/107/107
f 113/113/113 112/112/112 111/111/111
f 114/114/114 113/113/113 111/111/111
f 117/117/117 116/116/116 115/115/115
f 118/118/118 117/117/117 115/115/115
f 121/121/121 120/120/120 119/119/119
f 122/122/122 121/121/121 119/119/119
f 123/123/123 120/120/120 121/121/121
f 124/124/124 123/123/123 121/121/121
f 125/125/125 124/124/124 121/121/121
f 126/126/126 125/125/125 121/121/121
f 127/127/127 126/126/126 121/121/121
f 128/128/128 125/125/125 126/126/126
f 129/129/129 124/124/124 125/125/125
f 130/130/130 129/129/129 125/125/125
f 131/131/131 124/124/124 129/129/129
f 132/132/132 123/123/123 124/124/124
f 133/133/133 132/132/132 124/124/124
f 134/134/134 123/123/123 132/132/132
f 135/135/135 120/120/120 123/123/123
f 136/136/136 135/135/135 123/123/123
f 137/137/137 120/120/120 135/135/135
f 120/120/120 138/138/138 119/119/119
f 141/141/141 140/140/140 139/139/139
f 142/142/142 141/141/141 139/139/139
f 143/143/143 141/141/141 142/142/142
f 144/144/144 143/143/143 142/142/142
f 145/145/145 143/143/143 144/144/144
f 146/146/146 145/145/145 144/144/144
f 147/147/147 145/145/145 146/146/146
f 148/148/148 147/147/147 146/146/146
f 149/149/149 147/147/147 148/148/148
f 150/150/150 149/149/149 148/148/148
f 139/139/139 140/140/140 151/151/151
f 140/140/140 152/152/152 151/151/151
f 151/151/151 152/152/152 153/153/153
f 152/152/152 154/154/154 153/153/153
f 153/153/153 154/154/154 155/155/155
f 154/154/154 156/156/156 155/155/155
f 155/155/155 156/156/156 157/157/157
f 156/156/156 158/158/158 157/157/157
f 157/157/157 158/158/158 159/159/159
f 158/158/158 160/160/160 159/159/159
f 159/159/159 160/160/160 161/161/161
f 160/160/160 162/162/162 161/161/161
f 161/161/161 162/162/162 163/163/163
f 162/162/162 164/164/164 163/163/163
f 163/163/163 164/164/164 165/165/165
f 164/164/164 166/166/166 165/165/165
f 165/165/165 166/166/166 167/167/167
f 166/166/166 168/168/168 167/167/167
f 167/167/167 168/168/168 169/169/169
f 168/168/168 170/170/170 169/169/169
f 169/169/169 170/170/170 171/171/171
f 170/170/170 172/172/172 171/171/171
f 171/171/171 172/172/172 173/173/173
f 172/172/172 174/174/174 173/173/173
f 173/173/173 174/174/174 175/175/175
f 174/174/174 176/176/176 175/175/175
f 175/175/175 176/176/176 177/177/177
f 176/176/176 178/178/178 177/177/177
f 177/177/177 178/178/178 179/179/179
f 178/178/178 180/180/180 179/179/179
