g slide_release_LOD0
v -0.0009899671 -0.008455951 0.0002311277
v -0.0009899669 -0.008521125 -0.001656196
v -0.0009899649 -0.008339607 0.0008581114
v -0.0009899647 -0.008437635 -0.00230932
v -0.0009899655 -0.008031156 0.001358926
v -0.0009899653 -0.00816108 -0.002839153
v -0.0009899663 -0.007589271 0.001672087
v -0.0009899662 -0.007640102 -0.003208052
v -0.0009899659 -0.007209756 -0.002959509
v -0.0009899674 -0.007068574 -0.003342066
v -0.0009899678 -0.006850388 -0.003344881
v -0.0009899674 -0.007043269 0.001808336
v -0.0009899905 0.005132983 -0.003767887
v -0.0009899918 0.005797522 -0.003703516
v -0.0009899937 0.006716616 0.001347799
v -0.0009899931 0.006461084 -0.003429792
v -0.0009899846 0.001985924 0.001513367
v -0.0009899831 0.001806609 -0.003650229
v -0.0009899948 0.007334025 -0.002727829
v -0.0009899962 0.008082029 -0.001921523
v -0.0009899968 0.008418715 -0.001267284
v -0.0009899971 0.008521196 -0.0005423498
v -0.0009899951 0.007446186 0.001212027
v -0.0009899969 0.008421843 0.0002234149
v -0.0009899961 0.008050248 0.0008426142
v -0.0009899649 -0.008339607 0.0008581114
v -0.0003354034 -0.008339606 0.0008581114
v -0.0009899671 -0.008455951 0.0002311277
v -0.0003354032 -0.00845595 0.0002311277
v -0.0009899655 -0.008031156 0.001358926
v -0.000335404 -0.008031155 0.001358926
v -0.0009899663 -0.007589271 0.001672087
v -0.0003354048 -0.00758927 0.001672087
v -0.0009899674 -0.007043269 0.001808336
v -0.0003354059 -0.007043267 0.001808336
v -0.0009899669 -0.008521125 -0.001656196
v -0.0003354031 -0.008521124 -0.001656196
v -0.0003354032 -0.008437634 -0.00230932
v -0.0009899647 -0.008437635 -0.00230932
v -0.0003354037 -0.008161078 -0.002839153
v -0.0009899653 -0.00816108 -0.002839153
v -0.0003354048 -0.007640101 -0.003208052
v -0.0009899662 -0.007640102 -0.003208052
v -0.0009899674 -0.007068574 -0.003342066
v -0.0003354058 -0.007068735 -0.003346779
v -0.0009899678 -0.006850388 -0.003344881
v -0.0009899831 0.001806609 -0.003650229
v -0.0003354291 0.005132879 -0.003768132
v -0.0009899846 0.001985924 0.001513367
v -0.0003354321 0.006716636 0.00134784
v -0.0009899937 0.006716616 0.001347799
v -0.0003354335 0.007446188 0.001212027
v -0.0009899951 0.007446186 0.001212027
v -0.0009899961 0.008050248 0.0008426142
v -0.0003354347 0.00805025 0.0008426142
v -0.0009899969 0.008421843 0.0002234149
v -0.0003354354 0.008421844 0.0002234149
v -0.0009899971 0.008521196 -0.0005423498
v -0.0003354356 0.008521198 -0.0005423498
v -0.0003354354 0.008418716 -0.001267284
v -0.0009899968 0.008418715 -0.001267284
v -0.0009899962 0.008082029 -0.001921523
v -0.0003354347 0.008082031 -0.001921523
v -0.0009899948 0.007334025 -0.002727829
v -0.0003354333 0.007334026 -0.002727829
v -0.0003354317 0.006461085 -0.003429792
v -0.0009899931 0.006461084 -0.003429792
v -0.0009899918 0.005797522 -0.003703516
v -0.0003354304 0.005797523 -0.003703516
v -0.0009899905 0.005132983 -0.003767887
v -0.0003354291 0.005132879 -0.003768132
v -0.001774386 -0.007209758 -0.002959505
v -0.0009899659 -0.007209756 -0.002959509
v -0.001774386 -0.00685039 -0.003344881
v -0.0009899678 -0.006850388 -0.003344881
v 0.001774374 0.006977757 -0.0006931114
v 0.001774374 0.006914156 -0.0001834464
v -0.0003354356 0.008521198 -0.0005423498
v -0.0003354354 0.008421844 0.0002234149
v -0.0003354347 0.00805025 0.0008426142
v 0.001774375 0.006626933 0.0002748537
v -0.0003354335 0.007446188 0.001212027
v 0.001774376 0.006111582 0.0005515242
v -0.0003354321 0.006716636 0.00134784
v 0.001774376 0.005636089 0.0006373072
v -0.0003354354 0.008418716 -0.001267284
v 0.001774374 0.006902745 -0.001187881
v -0.0003354347 0.008082031 -0.001921523
v 0.001774375 0.006664274 -0.001639292
v -0.0003354333 0.007334026 -0.002727829
v 0.001774376 0.006010359 -0.002227917
v -0.0003354317 0.006461085 -0.003429792
v 0.001774377 0.005277026 -0.002743826
v -0.0003354304 0.005797523 -0.003703516
v 0.001774378 0.004733012 -0.002915432
v 0.001774398 -0.005675804 0.001027937
v -0.0003354059 -0.007043267 0.001808336
v 0.001774399 -0.006163556 0.0009839392
v -0.0003354048 -0.00758927 0.001672087
v 0.0017744 -0.006631243 0.0007730198
v -0.000335404 -0.008031155 0.001358926
v 0.0017744 -0.006910312 0.0003893709
v -0.0003354034 -0.008339606 0.0008581114
v -0.0003354032 -0.00845595 0.0002311277
v 0.001774402 -0.00699772 -7.919312E-05
v 0.001774402 -0.007043516 -0.001405468
v -0.0003354031 -0.008521124 -0.001656196
v -0.0003354291 0.005132879 -0.003768132
v 0.001774379 0.004196956 -0.002946402
v 0.001774398 -0.005801126 -0.002601143
v -0.0003354058 -0.007068735 -0.003346779
v 0.001774399 -0.006284677 -0.002523611
v -0.0003354048 -0.007640101 -0.003208052
v 0.0017744 -0.006736705 -0.002280943
v -0.0003354037 -0.008161078 -0.002839153
v 0.0017744 -0.006988641 -0.001878952
v -0.0003354032 -0.008437634 -0.00230932
v -0.0009899684 -0.006539123 0.003126681
v -0.001774389 -0.006539125 0.003126681
v -0.0009899695 -0.005974519 0.003557954
v -0.00177439 -0.005974521 0.003557954
v -0.001774392 -0.005289654 0.003749275
v -0.0009899708 -0.005289652 0.003749275
v -0.001774393 -0.004563393 0.003768313
v -0.0009899721 -0.004563391 0.003768313
v -0.0009899801 -0.0003811004 0.003622263
v -0.001774401 -0.0003811019 0.003622263
v -0.001774389 -0.006897425 0.002463066
v -0.0009899676 -0.006897423 0.002463066
v -0.0009899674 -0.007043269 0.001808336
v -0.001774388 -0.007043266 0.001808336
v -0.001774386 -0.007209758 -0.002959505
v -0.0009899659 -0.007209756 -0.002959509
v -0.001774403 0.0003685004 0.003551686
v -0.0009899815 0.0003685019 0.003551686
v -0.0009899829 0.001042139 0.003312924
v -0.001774404 0.001042138 0.003312924
v -0.0009899838 0.001575272 0.002843318
v -0.001774405 0.00157527 0.002843318
v -0.0009899844 0.001886074 0.00215559
v -0.001774405 0.001886416 0.002156329
v -0.001774405 0.001985922 0.001513367
v -0.0009899846 0.001985924 0.001513367
v -0.001774404 0.001806708 -0.00364719
v -0.0009899831 0.001806609 -0.003650229
v -0.0009899838 0.001575272 0.002843318
v -0.0009899844 0.001886074 0.00215559
v -0.0009899684 -0.006539123 0.003126681
v -0.0009899676 -0.006897423 0.002463066
v -0.0009899846 0.001985924 0.001513367
v -0.0009899674 -0.007043269 0.001808336
v -0.0009899695 -0.005974519 0.003557954
v -0.0009899829 0.001042139 0.003312924
v -0.0009899815 0.0003685019 0.003551686
v -0.0009899708 -0.005289652 0.003749275
v -0.0009899721 -0.004563391 0.003768313
v -0.0009899801 -0.0003811004 0.003622263
v 0.001774379 0.004196956 -0.002946402
v 0.001774376 0.005636089 0.0006373072
v 0.001774378 0.004733012 -0.002915432
v 0.001774376 0.006111582 0.0005515242
v 0.001774398 -0.005675804 0.001027937
v 0.001774398 -0.005801126 -0.002601143
v 0.001774399 -0.006163556 0.0009839392
v 0.001774399 -0.006284677 -0.002523611
v 0.0017744 -0.006736705 -0.002280943
v 0.0017744 -0.006631243 0.0007730198
v 0.0017744 -0.006988641 -0.001878952
v 0.0017744 -0.006910312 0.0003893709
v 0.001774402 -0.007043516 -0.001405468
v 0.001774402 -0.00699772 -7.919312E-05
v 0.001774377 0.005277026 -0.002743826
v 0.001774375 0.006626933 0.0002748537
v 0.001774376 0.006010359 -0.002227917
v 0.001774374 0.006914156 -0.0001834464
v 0.001774375 0.006664274 -0.001639292
v 0.001774374 0.006977757 -0.0006931114
v 0.001774374 0.006902745 -0.001187881
v -0.001774404 0.001806708 -0.00364719
v -0.001774386 -0.00685039 -0.003344881
v -0.0009899905 0.005132983 -0.003767887
v -0.0009899801 -0.0003811004 0.003622263
v -0.0009899815 0.0003685019 0.003551686
v -0.0009899708 -0.005289652 0.003749275
vt 0.03519692 0.9820952
vt 0.04171143 0.9820926
vt 0.03302098 0.9817691
vt 0.04395275 0.9817258
vt 0.03125777 0.9807668
vt 0.045746 0.9807094
vt 0.03012473 0.9792811
vt 0.04695504 0.9788684
vt 0.04604651 0.9774145
vt 0.04734833 0.9768816
vt 0.04733242 0.9761295
vt 0.02958914 0.9774145
vt 0.9214514 0.9494973
vt 0.9200789 0.9496785
vt 0.9185375 0.9602143
vt 0.9187232 0.9502936
vt 0.9283548 0.9602179
vt 0.9283548 0.9495018
vt 0.9169644 0.9518111
vt 0.9154716 0.9535363
vt 0.9148211 0.9549168
vt 0.9146612 0.9564272
vt 0.9170156 0.9599854
vt 0.9149219 0.9580066
vt 0.9157367 0.9592634
vt 0.92485 0.1959719
vt 0.9225866 0.1959693
vt 0.9248465 0.198177
vt 0.9225839 0.1981735
vt 0.9248527 0.1939392
vt 0.9225892 0.1939356
vt 0.9248553 0.1920664
vt 0.9225919 0.1920637
vt 0.924858 0.1901211
vt 0.9225945 0.1901176
vt 0.9248376 0.2047057
vt 0.9225751 0.204703
vt 0.9225716 0.2069797
vt 0.924835 0.2069824
vt 0.9225689 0.2090461
vt 0.9248323 0.2090487
vt 0.9225662 0.2112529
vt 0.9248297 0.2112556
vt 0.924827 0.2132848
vt 0.9225636 0.2132848
vt 0.924827 0.2140395
vt 0.924827 0.2439882
vt 0.9225636 0.2554944
vt 0.9248995 0.1588883
vt 0.9226581 0.1425194
vt 0.9249216 0.1425229
vt 0.9226617 0.1399537
vt 0.9249243 0.1399572
vt 0.9249278 0.1375091
vt 0.9226652 0.1375055
vt 0.9249313 0.1350123
vt 0.9226679 0.1350097
vt 0.9249349 0.1323424
vt 0.9226714 0.1323397
vt 0.922675 0.1298085
vt 0.9249384 0.129812
vt 0.9249419 0.1272675
vt 0.9226785 0.1272649
vt 0.9249463 0.1234654
vt 0.9226838 0.1234619
vt 0.9226891 0.1195899
vt 0.9249525 0.1195926
vt 0.9249552 0.1171109
vt 0.9226918 0.1171082
vt 0.9249587 0.1148024
vt 0.9226953 0.1147988
vt 0.2409791 0.3948566
vt 0.24098 0.3975708
vt 0.2428033 0.3948557
vt 0.2428033 0.3975708
vt 0.7703733 0.7823434
vt 0.7700922 0.784043
vt 0.7784786 0.7838406
vt 0.7777619 0.7871495
vt 0.7762974 0.7899892
vt 0.7690944 0.7855499
vt 0.7740897 0.7922262
vt 0.7673939 0.7864505
vt 0.7713066 0.7940265
vt 0.7657633 0.7866873
vt 0.7784079 0.7806448
vt 0.770208 0.7806792
vt 0.7775259 0.777548
vt 0.7695107 0.7791396
vt 0.7750751 0.7733321
vt 0.7674885 0.7771016
vt 0.7715938 0.769743
vt 0.7651367 0.7753146
vt 0.7688805 0.7680311
vt 0.7633108 0.7747003
vt 0.7279056 0.7871655
vt 0.721186 0.7940265
vt 0.7261777 0.7870144
vt 0.7191188 0.7926098
vt 0.7246372 0.7862772
vt 0.7174174 0.7908271
vt 0.7237269 0.7849922
vt 0.716059 0.7884966
vt 0.7151248 0.7857116
vt 0.7234194 0.7834358
vt 0.7232559 0.7790292
vt 0.7152698 0.777083
vt 0.7661513 0.7668628
vt 0.7614362 0.7745792
vt 0.7276801 0.7751635
vt 0.7214608 0.7683882
vt 0.7259629 0.7753764
vt 0.719322 0.7698067
vt 0.7244596 0.7761674
vt 0.7173564 0.7718412
vt 0.7235572 0.7774772
vt 0.7160962 0.7742098
vt 0.9798597 0.3005389
vt 0.9825713 0.3005389
vt 0.9798597 0.2980829
vt 0.9825721 0.2980829
vt 0.9825713 0.2956241
vt 0.9798597 0.2956241
vt 0.9825721 0.2931132
vt 0.9798597 0.2931123
vt 0.9798597 0.2786462
vt 0.9825721 0.2786453
vt 0.9825713 0.3031462
vt 0.9798597 0.3031462
vt 0.9798597 0.3054653
vt 0.9825713 0.3054644
vt 0.9825713 0.3219571
vt 0.9798597 0.3219571
vt 0.9825721 0.2760425
vt 0.9798597 0.2760425
vt 0.9798597 0.2735723
vt 0.9825721 0.2735723
vt 0.9798597 0.2711162
vt 0.9825721 0.2711162
vt 0.9798597 0.2685072
vt 0.9825721 0.268509
vt 0.9825713 0.2662597
vt 0.9798597 0.2662605
vt 0.9825686 0.2484086
vt 0.9798562 0.2483988
vt 0.7127397 0.9471737
vt 0.711589 0.9495165
vt 0.7408323 0.9471294
vt 0.7419972 0.9494636
vt 0.7111736 0.951727
vt 0.7424824 0.951727
vt 0.7389278 0.9455748
vt 0.7146346 0.9456111
vt 0.7169908 0.9448633
vt 0.7365804 0.9448342
vt 0.7347102 0.9444718
vt 0.7189485 0.9449067
vt 0.920588 0.7985476
vt 0.9331434 0.7940022
vt 0.9207594 0.7966987
vt 0.9329038 0.7923486
vt 0.9331434 0.8331362
vt 0.920588 0.8331362
vt 0.932933 0.8348163
vt 0.9207984 0.8348163
vt 0.9215832 0.8364071
vt 0.9321482 0.8364071
vt 0.9229416 0.8373263
vt 0.9307898 0.8373263
vt 0.9245713 0.837572
vt 0.92916 0.837572
vt 0.921417 0.7948391
vt 0.9320095 0.790535
vt 0.9232872 0.7923672
vt 0.9304592 0.7894877
vt 0.9253994 0.790178
vt 0.9287066 0.7892075
vt 0.9269876 0.7894073
vt 0.9275386 0.2439873
vt 0.9275386 0.2140395
vt 0.924827 0.2554953
vt 0.7189485 0.9449067
vt 0.7169908 0.9448633
vt 0.7365804 0.9448342
vn -1 2.327093E-05 -8.694705E-07
vn -1 2.111078E-05 -7.135206E-07
vn -1 -5.548202E-07 0
vn -1 -6.036222E-07 0
vn -1 -1.907349E-06 0
vn -1 -1.907349E-06 0
vn -1 -1.775205E-06 -1.588423E-07
vn -1 -6.401476E-07 9.225223E-07
vn -1 -1.877035E-07 1.5108E-06
vn -1 -1.610608E-06 3.22563E-06
vn -1 -1.866942E-06 3.131031E-06
vn -1 -1.844409E-06 -2.522256E-07
vn -1 -2.02875E-06 0
vn -1 -1.907349E-06 0
vn -1 -1.907349E-06 0
vn -1 -1.907349E-06 0
vn -1 -2.040708E-06 0
vn -1 -2.273441E-06 -2.181519E-07
vn -1 -1.907349E-06 0
vn -1 -1.907349E-06 0
vn -1 -1.907349E-06 0
vn -1 -1.907349E-06 0
vn -1 -1.907349E-06 0
vn -1 -1.907349E-06 0
vn -1 -1.907349E-06 0
vn 1.77982E-06 -0.9331383 0.3595176
vn 1.77982E-06 -0.9331382 0.3595178
vn 1.89603E-06 -0.9940658 0.1087805
vn 1.89603E-06 -0.9940658 0.1087806
vn 1.391491E-06 -0.7295419 0.6839362
vn 1.391491E-06 -0.7295419 0.6839362
vn 7.960546E-07 -0.417362 0.9087403
vn 7.960546E-07 -0.417362 0.9087403
vn 2.016944E-07 -0.1057461 0.9943931
vn 0.0002559828 -0.1057279 0.994395
vn 1.905304E-06 -0.9989278 -0.04629463
vn 1.905304E-06 -0.9989278 -0.04629472
vn 1.819831E-06 -0.9541155 -0.2994388
vn 1.819831E-06 -0.9541156 -0.2994386
vn 1.436638E-06 -0.753212 -0.6577778
vn 1.436638E-06 -0.7532122 -0.6577777
vn -0.001920179 -0.4126225 -0.9109001
vn 7.833605E-07 -0.4107064 -0.9117677
vn -0.00527663 -0.1231764 -0.9923707
vn -0.009912388 -0.133961 -0.9909371
vn -0.007869416 -0.02921754 -0.9995421
vn -0.004365399 -0.0348036 -0.9993846
vn -0.0006322085 0.03081871 -0.9995248
vn 0.01026547 0.03349458 0.9993862
vn 0.0004204242 0.1092341 0.9940159
vn -4.967565E-05 0.1092852 0.9940104
vn -1.617603E-05 0.3582979 0.9336073
vn -6.833753E-07 0.3582854 0.9336122
vn -1.354324E-06 0.7100559 0.7041453
vn -1.354324E-06 0.7100559 0.7041453
vn -1.801467E-06 0.9444873 0.3285483
vn -1.801467E-06 0.9444873 0.3285483
vn -1.907318E-06 0.9999838 -0.00570632
vn -1.907318E-06 0.9999838 -0.005706318
vn -1.817675E-06 0.9529853 -0.3030165
vn -1.817675E-06 0.9529853 -0.3030165
vn -1.561614E-06 0.8187355 -0.5741709
vn -1.561614E-06 0.8187355 -0.5741709
vn -1.300226E-06 0.6816928 -0.7316386
vn -1.300226E-06 0.6816928 -0.7316384
vn -9.712124E-07 0.5091951 -0.8606511
vn -9.712124E-07 0.5091951 -0.8606511
vn -4.606099E-07 0.2414923 -0.9704028
vn -8.932246E-05 0.2415759 -0.9703819
vn -0.0002802033 0.03069525 -0.9995288
vn -0.0006322085 0.03081871 -0.9995248
vn -1.714373E-06 -0.7313545 -0.6819975
vn 2.240665E-07 -0.7313525 -0.6819997
vn -5.435041E-07 -0.7313533 -0.6819989
vn 1.394942E-06 -0.7313513 -0.6820009
vn 0.5904815 0.8069152 -0.01481591
vn 0.5954712 0.7552556 0.273867
vn 0.5901013 0.8073286 -0.000913755
vn 0.5940883 0.7610435 0.2605223
vn 0.5590534 0.6061029 0.5657726
vn 0.547173 0.5457199 0.6346585
vn 0.4674637 0.3490429 0.8121864
vn 0.4349057 0.2591774 0.8623712
vn 0.370105 0.1187015 0.9213752
vn 0.3552281 0.08124112 0.9312427
vn 0.5720632 0.7850222 -0.2376637
vn 0.5694306 0.7763054 -0.2703679
vn 0.5333659 0.701191 -0.4731299
vn 0.5319139 0.658767 -0.5320656
vn 0.5042729 0.5895942 -0.6309417
vn 0.5088221 0.5353534 -0.6741638
vn 0.4871867 0.456727 -0.7443451
vn 0.4797198 0.370467 -0.7953762
vn 0.433977 0.2391723 -0.868597
vn 0.4129849 0.1401686 -0.8998868
vn 0.3508201 -0.006290207 0.9364217
vn 0.3990518 -0.1279903 0.9079517
vn 0.4378509 -0.1911351 0.8784953
vn 0.4933797 -0.3882059 0.7783782
vn 0.5438058 -0.5048501 0.6703742
vn 0.5566419 -0.6171349 0.5561423
vn 0.5841299 -0.7448436 0.3224908
vn 0.5800819 -0.7610089 0.290466
vn 0.5753027 -0.8128439 0.09116876
vn 0.5750504 -0.8134738 0.08704849
vn 0.5757905 -0.8170448 -0.03005392
vn 0.5757168 -0.8166628 -0.04014807
vn 0.3739313 0.04089962 -0.9265541
vn 0.3629392 3.584514E-05 -0.9318129
vn 0.3703946 -0.07173021 -0.9261007
vn 0.3984237 -0.147044 -0.9053379
vn 0.4502333 -0.2502462 -0.857127
vn 0.4885731 -0.3885739 -0.7812213
vn 0.552121 -0.5467532 -0.6294626
vn 0.561683 -0.635287 -0.5300213
vn 0.5881482 -0.7633376 -0.2672031
vn 0.5823587 -0.7758538 -0.2427124
vn 1.450455E-06 -0.7604559 0.6493896
vn 1.450455E-06 -0.7604559 0.6493896
vn 8.507927E-07 -0.4460605 0.8950028
vn 8.507927E-07 -0.4460605 0.8950028
vn 2.837275E-07 -0.148755 0.9888741
vn 2.837275E-07 -0.148755 0.9888741
vn 0 0.004349812 0.9999906
vn 0 0.004349809 0.9999906
vn -1.227318E-07 0.06434669 0.9979277
vn -1.227318E-07 0.06434671 0.9979277
vn 1.408164E-07 -0.9369063 0.3495808
vn 1.787005E-06 -0.9369055 0.3495826
vn -2.176123E-06 -0.9919412 0.1266986
vn -4.137877E-06 -0.9919415 0.1266969
vn 1.409742E-06 -0.9993908 0.03489769
vn 2.055506E-06 -0.999391 0.03489759
vn -4.111174E-07 0.2155438 0.9764941
vn -4.111174E-07 0.2155438 0.9764941
vn -9.664916E-07 0.5067199 0.8621107
vn -9.664916E-07 0.5067199 0.8621107
vn -1.533785E-06 0.8041449 0.5944333
vn 0.000204786 0.8040203 0.5946019
vn 0.0003201148 0.9584361 0.2853069
vn 0.0006866135 0.9583933 0.2854498
vn 0.0001601326 0.9982263 0.05953328
vn -2.234735E-06 0.9982147 0.05972764
vn -8.111633E-06 0.9993976 -0.03470587
vn -8.768644E-06 0.9993976 -0.03470578
vn 1 1.907349E-06 0
vn 1 1.907349E-06 0
vn 1 1.907349E-06 0
vn 1 1.907349E-06 0
vn 1 1.907349E-06 0
vn 1 1.907349E-06 0
vn 1 1.907349E-06 0
vn 1 1.907349E-06 0
vn 1 1.907349E-06 0
vn 1 1.907349E-06 0
vn 1 1.907349E-06 0
vn 1 1.907349E-06 0
vn 1 1.907349E-06 0
vn 1 1.907349E-06 0
vn 1 1.907349E-06 0
vn 1 1.907349E-06 0
vn 1 1.907349E-06 0
vn 1 1.907349E-06 0
vn 1 1.907349E-06 0
vn 1 1.907349E-06 0
vn 1 1.907349E-06 0
vn 1 1.907349E-06 0
vn 1 2.837543E-06 0
vn 1 2.837553E-06 0
vn 1 1.864437E-05 -5.779645E-07
vn 1 1.864322E-05 -5.778791E-07
vn 1 1.907349E-06 0
vn 1 1.907349E-06 0
vn 1 1.907349E-06 0
vn 1 1.907349E-06 0
vn 1 1.907349E-06 0
vn 1 1.907349E-06 0
vn 1 1.907349E-06 0
vn -0.003652913 -0.03522944 -0.9993727
vn 0 -0.03489907 -0.9993908
vn -0.0002802033 0.03069525 -0.9995288
vn 1 1.907349E-06 0
vn 1 1.907349E-06 0
vn 1 1.907349E-06 0
g slide_release_LOD0_0
f 3/3/3 2/2/2 1/1/1
f 3/3/3 4/4/4 2/2/2
f 5/5/5 4/4/4 3/3/3
f 5/5/5 6/6/6 4/4/4
f 7/7/7 6/6/6 5/5/5
f 7/7/7 8/8/8 6/6/6
f 7/7/7 9/9/9 8/8/8
f 9/9/9 10/10/10 8/8/8
f 9/9/9 11/11/11 10/10/10
f 7/7/7 12/12/12 9/9/9
f 15/15/15 14/14/14 13/13/13
f 14/14/14 15/15/15 16/16/16
f 13/13/13 17/17/17 15/15/15
f 13/13/13 18/18/18 17/17/17
f 15/15/15 19/19/19 16/16/16
f 19/19/19 15/15/15 20/20/20
f 15/15/15 21/21/21 20/20/20
f 15/15/15 22/22/22 21/21/21
f 15/15/15 23/23/23 22/22/22
f 23/23/23 24/24/24 22/22/22
f 23/23/23 25/25/25 24/24/24
f 28/28/28 27/27/27 26/26/26
f 28/28/28 29/29/29 27/27/27
f 30/30/30 26/26/26 27/27/27
f 30/30/30 27/27/27 31/31/31
f 32/32/32 30/30/30 31/31/31
f 32/32/32 31/31/31 33/33/33
f 34/34/34 32/32/32 33/33/33
f 34/34/34 33/33/33 35/35/35
f 36/36/36 29/29/29 28/28/28
f 36/36/36 37/37/37 29/29/29
f 36/36/36 38/38/38 37/37/37
f 36/36/36 39/39/39 38/38/38
f 39/39/39 40/40/40 38/38/38
f 39/39/39 41/41/41 40/40/40
f 41/41/41 42/42/42 40/40/40
f 41/41/41 43/43/43 42/42/42
f 44/44/44 42/42/42 43/43/43
f 44/44/44 45/45/45 42/42/42
f 44/44/44 46/46/46 45/45/45
f 47/47/47 45/45/45 46/46/46
f 47/47/47 48/48/48 45/45/45
f 34/34/34 35/35/35 49/49/49
f 35/35/35 50/50/50 49/49/49
f 50/50/50 51/51/51 49/49/49
f 51/51/51 50/50/50 52/52/52
f 51/51/51 52/52/52 53/53/53
f 54/54/54 53/53/53 52/52/52
f 54/54/54 52/52/52 55/55/55
f 56/56/56 54/54/54 55/55/55
f 56/56/56 55/55/55 57/57/57
f 58/58/58 56/56/56 57/57/57
f 58/58/58 57/57/57 59/59/59
f 58/58/58 59/59/59 60/60/60
f 58/58/58 60/60/60 61/61/61
f 62/62/62 61/61/61 60/60/60
f 62/62/62 60/60/60 63/63/63
f 64/64/64 62/62/62 63/63/63
f 64/64/64 63/63/63 65/65/65
f 64/64/64 65/65/65 66/66/66
f 64/64/64 66/66/66 67/67/67
f 68/68/68 67/67/67 66/66/66
f 68/68/68 66/66/66 69/69/69
f 70/70/70 68/68/68 69/69/69
f 70/70/70 69/69/69 71/71/71
f 74/74/74 73/73/73 72/72/72
f 74/74/74 75/75/75 73/73/73
f 78/78/78 77/77/77 76/76/76
f 78/78/78 79/79/79 77/77/77
f 77/77/77 79/79/79 80/80/80
f 77/77/77 80/80/80 81/81/81
f 81/81/81 80/80/80 82/82/82
f 81/81/81 82/82/82 83/83/83
f 84/84/84 83/83/83 82/82/82
f 84/84/84 85/85/85 83/83/83
f 86/86/86 78/78/78 76/76/76
f 86/86/86 76/76/76 87/87/87
f 88/88/88 86/86/86 87/87/87
f 88/88/88 87/87/87 89/89/89
f 90/90/90 88/88/88 89/89/89
f 90/90/90 89/89/89 91/91/91
f 92/92/92 90/90/90 91/91/91
f 92/92/92 91/91/91 93/93/93
f 94/94/94 92/92/92 93/93/93
f 94/94/94 93/93/93 95/95/95
f 96/96/96 85/85/85 84/84/84
f 96/96/96 84/84/84 97/97/97
f 97/97/97 98/98/98 96/96/96
f 97/97/97 99/99/99 98/98/98
f 99/99/99 100/100/100 98/98/98
f 99/99/99 101/101/101 100/100/100
f 101/101/101 102/102/102 100/100/100
f 101/101/101 103/103/103 102/102/102
f 104/104/104 102/102/102 103/103/103
f 104/104/104 105/105/105 102/102/102
f 104/104/104 106/106/106 105/105/105
f 104/104/104 107/107/107 106/106/106
f 108/108/108 94/94/94 95/95/95
f 108/108/108 95/95/95 109/109/109
f 108/108/108 109/109/109 110/110/110
f 108/108/108 110/110/110 111/111/111
f 112/112/112 111/111/111 110/110/110
f 112/112/112 113/113/113 111/111/111
f 114/114/114 113/113/113 112/112/112
f 114/114/114 115/115/115 113/113/113
f 116/116/116 115/115/115 114/114/114
f 107/107/107 116/116/116 106/106/106
f 116/116/116 117/117/117 115/115/115
f 107/107/107 117/117/117 116/116/116
f 120/120/120 119/119/119 118/118/118
f 120/120/120 121/121/121 119/119/119
f 120/120/120 122/122/122 121/121/121
f 120/120/120 123/123/123 122/122/122
f 123/123/123 124/124/124 122/122/122
f 123/123/123 125/125/125 124/124/124
f 124/124/124 125/125/125 126/126/126
f 124/124/124 126/126/126 127/127/127
f 118/118/118 119/119/119 128/128/128
f 118/118/118 128/128/128 129/129/129
f 128/128/128 130/130/130 129/129/129
f 128/128/128 131/131/131 130/130/130
f 132/132/132 130/130/130 131/131/131
f 132/132/132 133/133/133 130/130/130
f 126/126/126 134/134/134 127/127/127
f 126/126/126 135/135/135 134/134/134
f 136/136/136 134/134/134 135/135/135
f 136/136/136 137/137/137 134/134/134
f 138/138/138 137/137/137 136/136/136
f 138/138/138 139/139/139 137/137/137
f 140/140/140 139/139/139 138/138/138
f 140/140/140 141/141/141 139/139/139
f 140/140/140 142/142/142 141/141/141
f 140/140/140 143/143/143 142/142/142
f 144/144/144 142/142/142 143/143/143
f 144/144/144 143/143/143 145/145/145
f 148/148/148 147/147/147 146/146/146
f 148/148/148 149/149/149 147/147/147
f 149/149/149 150/150/150 147/147/147
f 149/149/149 151/151/151 150/150/150
f 152/152/152 148/148/148 146/146/146
f 152/152/152 146/146/146 153/153/153
f 152/152/152 153/153/153 154/154/154
f 152/152/152 154/154/154 155/155/155
f 155/155/155 157/157/157 156/156/156
f 160/160/160 159/159/159 158/158/158
f 160/160/160 161/161/161 159/159/159
f 158/158/158 159/159/159 162/162/162
f 158/158/158 162/162/162 163/163/163
f 164/164/164 163/163/163 162/162/162
f 164/164/164 165/165/165 163/163/163
f 164/164/164 166/166/166 165/165/165
f 164/164/164 167/167/167 166/166/166
f 167/167/167 168/168/168 166/166/166
f 167/167/167 169/169/169 168/168/168
f 169/169/169 170/170/170 168/168/168
f 169/169/169 171/171/171 170/170/170
f 172/172/172 161/161/161 160/160/160
f 172/172/172 173/173/173 161/161/161
f 174/174/174 173/173/173 172/172/172
f 174/174/174 175/175/175 173/173/173
f 176/176/176 175/175/175 174/174/174
f 176/176/176 177/177/177 175/175/175
f 176/176/176 178/178/178 177/177/177
f 46/46/46 179/179/179 47/47/47
f 46/46/46 180/180/180 179/179/179
f 47/47/47 181/181/181 48/48/48
f 184/184/184 183/183/183 182/182/182
