g mount_pp-19-01_izhmash_izh-9x19_sb9_LOD1
v 0.019907 0.216211 -0.0155262
v 0.019907 0.252598 -0.016841
v 0.019907 0.219378 -0.019337
v 0.019907 0.219423 -0.026447
v 0.019907 0.250218 -0.022042
v 0.019907 0.254227 -0.020017
v 0.019907 0.289666 -0.02034
v 0.019907 0.245588 -0.029966
v 0.019907 0.221497 -0.029837
v 0.019907 0.184939 -0.007781
v 0.019907 0.209236 -0.015053
v 0.019907 0.202855 -0.016762
v 0.019907 0.184919 -0.023062
v 0.019907 0.176763 -0.013217
v 0.019907 0.174051 -0.0177995
v 0.019907 0.174417 -0.0215321
v 0.019907 0.178139 -0.024854
v 0.019907 0.182077 -0.024635
v 0.019907 0.295563 -0.011675
v 0.019907 0.296062 -0.016028
v 0.019907 0.294334 -0.018984
v 0.019907 0.29148 -0.007781
vt 0.654457 0.650881
vt 0.35623 0.591616
vt 0.628501 0.479107
vt 0.628132 0.158621
vt 0.375737 0.357178
vt 0.342879 0.448456
vt 0.0524215 0.433897
vt 0.413684 0
vt 0.611133 0.00581479
vt 0.910762 1
vt 0.711624 0.672211
vt 0.763923 0.595177
vt 0.910926 0.311201
vt 0.977773 0.75497
vt 1 0.548411
vt 0.997 0.380162
vt 0.966495 0.230426
vt 0.934219 0.240298
vt 0.00408963 0.824476
vt 0 0.628262
vt 0.0141626 0.495019
vt 0.0378736 1
vn 1 0 0
vn 1 0 0
vn 1 0 0
vn 1 0 0
vn 1 0 0
vn 1 0 0
vn 1 0 0
vn 1 0 0
vn 1 0 0
vn 1 0 0
vn 1 0 0
vn 1 0 0
vn 1 0 0
vn 1 0 0
vn 1 0 0
vn 1 0 0
vn 1 0 0
vn 1 0 0
vn 1 0 0
vn 1 0 0
vn 1 0 0
vn 1 0 0
g mount_pp-19-01_izhmash_izh-9x19_sb9_LOD1_0
f 3/3/3 2/2/2 1/1/1
f 4/4/4 2/2/2 3/3/3
f 2/2/2 4/4/4 5/5/5
f 5/5/5 6/6/6 2/2/2
f 7/7/7 2/2/2 6/6/6
f 5/5/5 4/4/4 8/8/8
f 8/8/8 4/4/4 9/9/9
f 2/2/2 10/10/10 1/1/1
f 11/11/11 1/1/1 10/10/10
f 10/10/10 12/12/12 11/11/11
f 13/13/13 12/12/12 10/10/10
f 14/14/14 13/13/13 10/10/10
f 14/14/14 15/15/15 13/13/13
f 15/15/15 16/16/16 13/13/13
f 17/17/17 13/13/13 16/16/16
f 13/13/13 17/17/17 18/18/18
f 7/7/7 20/20/20 19/19/19
f 7/7/7 21/21/21 20/20/20
f 7/7/7 19/19/19 22/22/22
f 2/2/2 7/7/7 22/22/22
f 10/10/10 2/2/2 22/22/22
