g release_LOD0
v -0.02952681 -0.00396389 -0.002486543
v -0.02952681 -0.003645897 -0.00408555
v -0.03192481 -0.003645897 -0.00408555
v -0.03192481 -0.00396389 -0.002486543
v -0.03192481 -0.002739906 -0.005441541
v -0.02952681 -0.002739906 -0.005441541
v -0.03192481 -0.001383896 -0.006347542
v -0.02952681 -0.001383896 -0.006347542
v -0.03192481 0.0002151108 -0.006665545
v -0.02952681 0.0002151108 -0.006665545
v -0.02952681 -0.00396389 0.00248745
v -0.03192481 -0.00396389 0.00248745
v -0.03192481 -0.003645897 0.004086456
v -0.02952681 -0.003645897 0.004086456
v -0.03192481 -0.002739906 0.005442457
v -0.02952681 -0.002739906 0.005442457
v -0.03192481 -0.001383896 0.006347456
v -0.02952681 -0.001383896 0.006347456
v -0.03192481 0.0002151108 0.006665458
v -0.02952681 0.0002151108 0.006665458
v -0.02952681 0.0002151108 -0.006665545
v -0.02952681 0.001814117 -0.006347542
v -0.03192481 0.001814117 -0.006347542
v -0.03192481 0.0002151108 -0.006665545
v -0.03192481 0.003169098 -0.005441541
v -0.02952681 0.003169098 -0.005441541
v -0.03192481 0.004075127 -0.00408555
v -0.02952681 0.004075127 -0.00408555
v -0.03192481 0.00439312 -0.002486543
v -0.02952681 0.00439312 -0.002486543
v -0.03192481 0.00439312 0.00248745
v -0.02952681 0.00439312 0.00248745
v -0.02952681 0.004075127 0.004086456
v -0.03192481 0.004075127 0.004086456
v -0.02952681 0.003169098 0.005442457
v -0.03192481 0.003169098 0.005442457
v -0.02952681 0.001814117 0.006347456
v -0.03192481 0.001814117 0.006347456
v -0.02952681 0.0002151108 0.006665458
v -0.03192481 0.0002151108 0.006665458
v -0.03192481 -0.001383896 -0.006347542
v -0.03192481 0.0002151108 -0.006665545
v -0.03192481 0.001814117 -0.006347542
v -0.03192481 -0.002739906 -0.005441541
v -0.03192481 0.003169098 -0.005441541
v -0.03192481 -0.003645897 -0.00408555
v -0.03192481 0.004075127 -0.00408555
v -0.03192481 -0.00396389 -0.002486543
v -0.03192481 0.00439312 -0.002486543
v -0.03192481 0.00439312 0.00248745
v -0.03192481 -0.00396389 0.00248745
v -0.03192481 -0.003645897 0.004086456
v -0.03192481 0.004075127 0.004086456
v -0.03192481 -0.002739906 0.005442457
v -0.03192481 0.003169098 0.005442457
v -0.03192481 -0.001383896 0.006347456
v -0.03192481 0.001814117 0.006347456
v -0.03192481 0.0002151108 0.006665458
v 0.0003901899 0.003209114 -0.003107548
v 0.0003901899 0.004771118 -0.002689543
v -0.001109042 0.004771118 -0.002689543
v -0.001109042 0.003209114 -0.003107548
v 0.0003901899 0.005914116 -0.001546545
v -0.001109042 0.005914116 -0.001546545
v 0.0003901899 0.006333084 1.544952E-05
v -0.001109042 0.006333084 1.544952E-05
v 0.0003901899 0.005914116 0.001577454
v -0.001109042 0.005914116 0.001577454
v 0.0003901899 0.004771118 0.002720451
v -0.001109042 0.004771118 0.002720451
v 0.0003901899 0.003209114 0.003138456
v -0.001109042 0.003209114 0.003138456
v 0.0003901851 -0.02897388 -0.003107548
v -0.001109047 -0.02897388 -0.003107548
v -0.001109048 -0.0305349 -0.002689543
v 0.0003901839 -0.0305349 -0.002689543
v -0.001109048 -0.03167889 -0.001545544
v 0.0003901839 -0.03167889 -0.001545544
v -0.001109048 -0.0320969 1.544952E-05
v 0.0003901839 -0.0320969 1.544952E-05
v 0.0003901851 -0.02897388 0.003138456
v -0.001109047 -0.02897388 0.003138456
v 0.0003901839 -0.0305349 0.002720451
v -0.001109048 -0.0305349 0.002720451
v 0.0003901839 -0.03167889 0.001577454
v -0.001109048 -0.03167889 0.001577454
v 0.0003901839 -0.0320969 1.544952E-05
v -0.001109048 -0.0320969 1.544952E-05
v 0.0003901851 -0.02897388 -0.003107548
v 0.0003901851 -0.02897388 0.003138456
v 0.0003901899 0.003209114 0.003138456
v 0.0003901899 0.003209114 -0.003107548
v 0.0003901839 -0.0305349 0.002720451
v 0.0003901839 -0.0305349 -0.002689543
v 0.0003901899 0.004771118 -0.002689543
v 0.0003901899 0.004771118 0.002720451
v 0.0003901899 0.005914116 0.001577454
v 0.0003901899 0.005914116 -0.001546545
v 0.0003901899 0.006333084 1.544952E-05
v 0.0003901839 -0.03167889 0.001577454
v 0.0003901839 -0.03167889 -0.001545544
v 0.0003901839 -0.0320969 1.544952E-05
v -0.001109047 -0.02897388 -0.003107548
v -0.001109042 0.003209114 -0.003107548
v -0.001109042 0.003209114 0.003138456
v -0.001109047 -0.02897388 0.003138456
v -0.001109048 -0.0305349 0.002720451
v -0.001109048 -0.0305349 -0.002689543
v -0.001109042 0.004771118 -0.002689543
v -0.001109042 0.004771118 0.002720451
v -0.001109042 0.005914116 0.001577454
v -0.001109042 0.005914116 -0.001546545
v -0.001109042 0.006333084 1.544952E-05
v -0.001109048 -0.03167889 0.001577454
v -0.001109048 -0.03167889 -0.001545544
v -0.001109048 -0.0320969 1.544952E-05
vt 2.3785 0.4492
vt 2.3682 0.4492
vt 2.3682 0.4341
vt 2.3785 0.4341
vt 2.3579 0.4341
vt 2.3579 0.4492
vt 2.3476 0.4341
vt 2.3476 0.4492
vt 2.3374 0.4341
vt 2.3374 0.4492
vt 2.4098 0.4492
vt 2.4098 0.4341
vt 2.4201 0.4341
vt 2.4201 0.4492
vt 2.4303 0.4341
vt 2.4303 0.4492
vt 2.4406 0.4341
vt 2.4406 0.4492
vt 2.4509 0.4341
vt 2.4509 0.4492
vt 0.3374 0.4492
vt 0.3476 0.4492
vt 0.3476 0.4341
vt 0.3374 0.4341
vt 0.3579 0.4341
vt 0.3579 0.4492
vt 0.3682 0.4341
vt 0.3682 0.4492
vt 0.3785 0.4341
vt 0.3785 0.4492
vt 0.4098 0.4341
vt 0.4098 0.4492
vt 0.4201 0.4492
vt 0.4201 0.4341
vt 0.4304 0.4492
vt 0.4304 0.4341
vt 0.4406 0.4492
vt 0.4406 0.4341
vt 0.4509 0.4492
vt 0.4509 0.4341
vt 0.8567 0.6039
vt 0.8579 0.5977
vt 0.8567 0.5914
vt 0.8531 0.6092
vt 0.8531 0.5861
vt 0.8478 0.6127
vt 0.8478 0.5826
vt 0.8416 0.614
vt 0.8416 0.5813
vt 0.8222 0.5813
vt 0.8222 0.614
vt 0.8159 0.6127
vt 0.8159 0.5826
vt 0.8106 0.6092
vt 0.8106 0.5861
vt 0.8071 0.6039
vt 0.8071 0.5914
vt 0.8058 0.5977
vt 0.7815 0.9922
vt 0.7855 0.9922
vt 0.7855 0.9893
vt 0.7815 0.9893
vt 0.7895 0.9922
vt 0.7895 0.9893
vt 0.7935 0.9922
vt 0.7935 0.9893
vt 0.7975 0.9922
vt 0.7975 0.9893
vt 0.8015 0.9922
vt 0.8015 0.9893
vt 0.8055 0.9922
vt 0.8055 0.9893
vt 0.702 0.9922
vt 0.702 0.9893
vt 0.698 0.9893
vt 0.6981 0.9922
vt 0.694 0.9893
vt 0.6941 0.9922
vt 0.6901 0.9893
vt 0.6901 0.9922
vt 0.8854 0.9922
vt 0.8854 0.9893
vt 0.8894 0.9922
vt 0.8894 0.9893
vt 0.8934 0.9922
vt 0.8934 0.9893
vt 0.8974 0.9922
vt 0.8975 0.9893
vt 0.0296 0.8213
vt 0.0052 0.8213
vt 0.0052 0.9471
vt 0.0296 0.9471
vt 0.0068 0.8152
vt 0.0279 0.8152
vt 0.0279 0.9532
vt 0.0068 0.9532
vt 0.0113 0.9576
vt 0.0235 0.9576
vt 0.0174 0.9593
vt 0.0113 0.8108
vt 0.0235 0.8108
vt 0.0174 0.8091
vt 0.0296 0.8213
vt 0.0296 0.9471
vt 0.0052 0.9471
vt 0.0052 0.8213
vt 0.0068 0.8152
vt 0.0279 0.8152
vt 0.0279 0.9532
vt 0.0068 0.9532
vt 0.0113 0.9576
vt 0.0235 0.9576
vt 0.0174 0.9593
vt 0.0113 0.8108
vt 0.0235 0.8108
vt 0.0174 0.8091
vn 0 -0.9951867 -0.09799648
vn 0 -0.9238927 -0.3826515
vn 0 -0.9238927 -0.3826515
vn 0 -0.9951867 -0.09799648
vn 0 -0.7071062 -0.7071073
vn 0 -0.7071062 -0.7071073
vn 0 -0.3826534 -0.923892
vn 0 -0.3826534 -0.923892
vn 0 0 -1
vn 0 0 -1
vn 0 -0.9951867 0.09799648
vn 0 -0.9951867 0.09799648
vn 0 -0.9238933 0.38265
vn 0 -0.9238933 0.38265
vn 0 -0.7069268 0.7072867
vn 0 -0.7069268 0.7072867
vn 0 -0.3824175 0.9239897
vn 0 -0.3824175 0.9239897
vn 0 0 1
vn 0 0 1
vn 0 0 -1
vn 0 0.3828156 -0.9238248
vn 0 0.3828156 -0.9238248
vn 0 0 -1
vn 0 0.7072235 -0.7069902
vn 0 0.7072235 -0.7069902
vn 0 0.923889 -0.3826605
vn 0 0.923889 -0.3826605
vn 0 0.9951867 -0.09799648
vn 0 0.9951867 -0.09799648
vn 0 0.9951867 0.09799648
vn 0 0.9951867 0.09799648
vn 0 0.9238896 0.382659
vn 0 0.9238896 0.382659
vn 0 0.7070439 0.7071695
vn 0 0.7070439 0.7071695
vn 0 0.3825796 0.9239225
vn 0 0.3825796 0.9239225
vn 0 0 1
vn 0 0 1
vn -1 0 0
vn -1 0 0
vn -1 0 0
vn -1 0 0
vn -1 0 0
vn -1 0 0
vn -1 0 0
vn -1 0 0
vn -1 0 0
vn -1 0 0
vn -1 0 0
vn -1 0 0
vn -1 0 0
vn -1 0 0
vn -1 0 0
vn -1 0 0
vn -1 0 0
vn -1 0 0
vn 0 0.1303685 -0.9914656
vn 0 0.4998622 -0.866105
vn 0 0.4998622 -0.866105
vn 0 0.1303684 -0.9914656
vn 0 0.8659607 -0.500112
vn 0 0.8659607 -0.500112
vn 0 1 -7.562706E-07
vn 0 1 -7.562706E-07
vn 0 0.8659611 0.5001113
vn 0 0.8659611 0.5001113
vn 0 0.4998622 0.866105
vn 0 0.4998622 0.866105
vn 0 0.1303685 0.9914656
vn 0 0.1303684 0.9914656
vn 0 -0.130447 -0.9914553
vn 0 -0.1304471 -0.9914553
vn 0 -0.4999328 -0.8660643
vn 0 -0.4999327 -0.8660643
vn 0 -0.8660643 -0.4999329
vn 0 -0.8660643 -0.4999329
vn 0 -1 -8.084159E-05
vn 0 -1 -8.084159E-05
vn 0 -0.130447 0.9914553
vn 0 -0.1304471 0.9914553
vn 0 -0.499743 0.8661737
vn 0 -0.4997431 0.8661736
vn 0 -0.8659951 0.5000525
vn 0 -0.8659951 0.5000525
vn 0 -1 -8.084159E-05
vn 0 -1 -8.084159E-05
vn 1 -4.279567E-07 0
vn 1 -4.279567E-07 0
vn 1 0 0
vn 1 0 0
vn 1 -5.344641E-07 0
vn 1 -5.345535E-07 0
vn 1 0 0
vn 1 0 0
vn 1 0 0
vn 1 0 0
vn 1 0 0
vn 1 0 0
vn 1 0 0
vn 1 0 0
vn -1 4.279567E-07 0
vn -1 0 0
vn -1 0 0
vn -1 4.279567E-07 0
vn -1 5.344641E-07 0
vn -1 5.345535E-07 0
vn -1 0 0
vn -1 0 0
vn -1 0 0
vn -1 0 0
vn -1 0 0
vn -1 0 0
vn -1 0 0
vn -1 0 0
g release_LOD0_0
f 3/3/3 2/2/2 1/1/1
f 4/4/4 3/3/3 1/1/1
f 3/3/3 5/5/5 2/2/2
f 5/5/5 6/6/6 2/2/2
f 5/5/5 7/7/7 6/6/6
f 7/7/7 8/8/8 6/6/6
f 7/7/7 9/9/9 8/8/8
f 9/9/9 10/10/10 8/8/8
f 1/1/1 11/11/11 4/4/4
f 11/11/11 12/12/12 4/4/4
f 13/13/13 12/12/12 11/11/11
f 14/14/14 13/13/13 11/11/11
f 15/15/15 13/13/13 14/14/14
f 16/16/16 15/15/15 14/14/14
f 17/17/17 15/15/15 16/16/16
f 18/18/18 17/17/17 16/16/16
f 19/19/19 17/17/17 18/18/18
f 20/20/20 19/19/19 18/18/18
f 23/23/23 22/22/22 21/21/21
f 24/24/24 23/23/23 21/21/21
f 23/23/23 25/25/25 22/22/22
f 25/25/25 26/26/26 22/22/22
f 25/25/25 27/27/27 26/26/26
f 27/27/27 28/28/28 26/26/26
f 27/27/27 29/29/29 28/28/28
f 29/29/29 30/30/30 28/28/28
f 29/29/29 31/31/31 30/30/30
f 31/31/31 32/32/32 30/30/30
f 32/32/32 31/31/31 33/33/33
f 31/31/31 34/34/34 33/33/33
f 33/33/33 34/34/34 35/35/35
f 34/34/34 36/36/36 35/35/35
f 35/35/35 36/36/36 37/37/37
f 36/36/36 38/38/38 37/37/37
f 37/37/37 38/38/38 39/39/39
f 38/38/38 40/40/40 39/39/39
f 43/43/43 42/42/42 41/41/41
f 43/43/43 41/41/41 44/44/44
f 45/45/45 43/43/43 44/44/44
f 45/45/45 44/44/44 46/46/46
f 47/47/47 45/45/45 46/46/46
f 47/47/47 46/46/46 48/48/48
f 49/49/49 47/47/47 48/48/48
f 50/50/50 49/49/49 48/48/48
f 51/51/51 50/50/50 48/48/48
f 51/51/51 52/52/52 50/50/50
f 52/52/52 53/53/53 50/50/50
f 52/52/52 54/54/54 53/53/53
f 54/54/54 55/55/55 53/53/53
f 54/54/54 56/56/56 55/55/55
f 56/56/56 57/57/57 55/55/55
f 56/56/56 58/58/58 57/57/57
f 61/61/61 60/60/60 59/59/59
f 62/62/62 61/61/61 59/59/59
f 63/63/63 60/60/60 61/61/61
f 64/64/64 63/63/63 61/61/61
f 65/65/65 63/63/63 64/64/64
f 66/66/66 65/65/65 64/64/64
f 67/67/67 65/65/65 66/66/66
f 68/68/68 67/67/67 66/66/66
f 69/69/69 67/67/67 68/68/68
f 70/70/70 69/69/69 68/68/68
f 71/71/71 69/69/69 70/70/70
f 72/72/72 71/71/71 70/70/70
f 62/62/62 59/59/59 73/73/73
f 74/74/74 62/62/62 73/73/73
f 74/74/74 73/73/73 75/75/75
f 73/73/73 76/76/76 75/75/75
f 75/75/75 76/76/76 77/77/77
f 76/76/76 78/78/78 77/77/77
f 77/77/77 78/78/78 79/79/79
f 78/78/78 80/80/80 79/79/79
f 81/81/81 71/71/71 72/72/72
f 82/82/82 81/81/81 72/72/72
f 83/83/83 81/81/81 82/82/82
f 84/84/84 83/83/83 82/82/82
f 85/85/85 83/83/83 84/84/84
f 86/86/86 85/85/85 84/84/84
f 87/87/87 85/85/85 86/86/86
f 88/88/88 87/87/87 86/86/86
f 91/91/91 90/90/90 89/89/89
f 92/92/92 91/91/91 89/89/89
f 89/89/89 90/90/90 93/93/93
f 94/94/94 89/89/89 93/93/93
f 91/91/91 92/92/92 95/95/95
f 96/96/96 91/91/91 95/95/95
f 97/97/97 96/96/96 95/95/95
f 98/98/98 97/97/97 95/95/95
f 98/98/98 99/99/99 97/97/97
f 94/94/94 93/93/93 100/100/100
f 101/101/101 94/94/94 100/100/100
f 102/102/102 101/101/101 100/100/100
f 105/105/105 104/104/104 103/103/103
f 106/106/106 105/105/105 103/103/103
f 106/106/106 103/103/103 107/107/107
f 103/103/103 108/108/108 107/107/107
f 104/104/104 105/105/105 109/109/109
f 105/105/105 110/110/110 109/109/109
f 110/110/110 111/111/111 109/109/109
f 111/111/111 112/112/112 109/109/109
f 113/113/113 112/112/112 111/111/111
f 107/107/107 108/108/108 114/114/114
f 108/108/108 115/115/115 114/114/114
f 115/115/115 116/116/116 114/114/114
