g bolt_catch
v -0.0003812504 0.004444108 0.007630157
v 0.002853448 0.004444103 0.007630157
v 0.002853447 0.004813905 0.009489357
v -0.0003812516 0.00481391 0.009489357
v -0.0003812516 0.003390908 0.006053958
v 0.002853447 0.003390903 0.006053958
v 0.002853447 0.002329907 0.005052357
v -0.0003812516 0.002329912 0.005052357
v -0.0003812516 0.00481391 0.01249376
v 0.002853447 0.004813905 0.01249376
v 0.002853446 0.004444103 0.01435306
v -0.0003812528 0.004444108 0.01435306
v 0.002853445 0.003390903 0.01592926
v -0.000381254 0.003390908 0.01592926
v 0.002853445 0.001814704 0.01698246
v -0.000381254 0.001814709 0.01698246
v 0.002853445 -4.449367E-05 0.01735226
v -0.000381254 -4.44889E-05 0.01735226
v 0.002853447 0.001927404 0.004089156
v -0.0006105518 0.001927409 0.004089155
v -0.0006105518 0.001927409 0.004089155
v -0.005389148 0.001927409 -0.008501343
v 0.002853451 0.001927404 -0.008501342
v -0.001186651 0.001927409 0.003571056
v -0.001948451 0.001927409 0.003395256
v -0.005350149 0.001930408 -0.003601944
v 0.002853447 0.001927404 0.004089156
v -0.00530935 0.001927409 0.003395254
v -0.005389147 0.00159441 -0.009461944
v 0.002853451 0.001594405 -0.009461941
v 0.002853451 0.001927404 -0.008501342
v -0.005389148 0.001927409 -0.008501343
v 0.002853451 0.0009003019 -0.01021544
v -0.005389147 0.0009003067 -0.01021544
v 0.002853452 -4.449367E-05 -0.01039944
v -0.005389147 -4.44889E-05 -0.01039525
v -0.005389147 -0.0009893894 -0.01021544
v 0.002853451 -0.0009893941 -0.01021544
v -0.005389148 -0.001683493 -0.009461944
v 0.002853451 -0.001683497 -0.009461941
v 0.002853451 -0.002016497 -0.008501342
v -0.005389148 -0.002016492 -0.008501343
v 0.002853444 -0.003479996 0.01592926
v 0.002853445 -0.001903796 0.01698246
v 0.002853445 0.001814704 0.01698246
v 0.002853445 0.003390903 0.01592926
v 0.002853444 -0.004533195 0.01435306
v 0.002853446 0.004444103 0.01435306
v 0.002853445 -4.449367E-05 0.01735226
v 0.002853445 -0.004902995 0.01249376
v 0.002853447 0.004813905 0.01249376
v 0.002853447 0.004813905 0.009489357
v 0.002853445 -0.004902995 0.009489357
v 0.002853448 0.004444103 0.007630157
v 0.002853446 -0.004533195 0.007630157
v 0.002853447 0.003390903 0.006053958
v 0.002853446 -0.003479996 0.006053958
v 0.002853447 0.002329907 0.005052357
v 0.002853447 -0.002418995 0.005052357
v 0.002853447 0.001927404 0.004089156
v 0.002853447 -0.002016497 0.004089156
v 0.002853451 0.001927404 -0.008501342
v 0.002853451 -0.002016497 -0.008501342
v 0.002853451 0.001594405 -0.009461941
v 0.002853451 -0.001683497 -0.009461941
v 0.002853451 0.0009003019 -0.01021544
v 0.002853451 -0.0009893941 -0.01021544
v 0.002853452 -4.449367E-05 -0.01039944
v -0.000381254 -0.004902995 0.009489357
v -0.0003812528 -0.004533195 0.007630157
v -0.0003812504 0.004444108 0.007630157
v -0.0003812516 0.00481391 0.009489357
v -0.0003812516 0.003390908 0.006053958
v -0.0003812528 -0.003479996 0.006053958
v -0.0003812516 0.002329912 0.005052357
v -0.0003812516 -0.00241899 0.005052357
v -0.0006105518 0.001927409 0.004089155
v -0.0006105518 -0.002016492 0.004089155
v -0.001186651 -0.002016492 0.003571056
v -0.001186651 0.001927409 0.003571056
v -0.001948451 -0.002016492 0.003395256
v -0.001948451 0.001927409 0.003395256
v -0.005309351 -0.002009192 0.003395254
v -0.00530935 0.001927409 0.003395254
v -0.00853065 0.001930408 0.006625155
v -0.009219851 -0.002009192 0.007313255
v -0.01247195 0.001272306 0.01055995
v -0.00853065 0.002378111 0.006625155
v -0.01247195 0.002378111 0.01055995
v -0.0003812528 -0.004533195 0.007630157
v -0.000381254 -0.004902995 0.009489357
v 0.002853445 -0.004902995 0.009489357
v 0.002853446 -0.004533195 0.007630157
v -0.0003812528 -0.003479996 0.006053958
v 0.002853446 -0.003479996 0.006053958
v 0.002853447 -0.002418995 0.005052357
v -0.0003812516 -0.00241899 0.005052357
v -0.000381254 -0.004902995 0.01249376
v 0.002853445 -0.004902995 0.01249376
v 0.002853444 -0.004533195 0.01435306
v -0.0003812551 -0.004533195 0.01435306
v 0.002853444 -0.003479996 0.01592926
v -0.0003812551 -0.003479996 0.01592926
v 0.002853445 -0.001903796 0.01698246
v -0.000381254 -0.001903791 0.01698246
v 0.002853445 -4.449367E-05 0.01735226
v -0.000381254 -4.44889E-05 0.01735226
v 0.002853447 -0.002016497 0.004089156
v -0.0006105518 -0.002016492 0.004089155
v -0.0006105518 -0.002016492 0.004089155
v 0.002853447 -0.002016497 0.004089156
v 0.002853451 -0.002016497 -0.008501342
v -0.005389148 -0.002016492 -0.008501343
v -0.001186651 -0.002016492 0.003571056
v -0.001948451 -0.002016492 0.003395256
v -0.00535565 -0.002009192 -0.003809943
v -0.005309351 -0.002009192 0.003395254
v -0.0003812551 -0.003479996 0.01592926
v -0.000381254 0.003390908 0.01592926
v -0.000381254 -4.44889E-05 0.01735226
v -0.000381254 -0.001903791 0.01698246
v -0.000381254 0.001814709 0.01698246
v -0.0003812528 0.004444108 0.01435306
v -0.0003812551 -0.004533195 0.01435306
v -0.0003812516 0.00481391 0.01249376
v -0.000381254 -0.004902995 0.01249376
v -0.01247195 0.001272306 0.01055995
v -0.01525495 0.001272306 0.01055995
v -0.02321025 0.002378111 0.01055995
v -0.01247195 0.002378111 0.01055995
v -0.02321025 0.001272306 0.01055995
v -0.01247195 0.001272306 0.01055995
v -0.009219851 -0.002009192 0.007313255
v -0.01525495 -0.00200839 0.007376752
v -0.01525495 0.001272306 0.01055995
v -0.01525495 0.001272306 0.01055995
v -0.01525495 -0.004348092 0.008209753
v -0.01755015 -0.004348092 0.008209753
v -0.02321025 -0.004348089 0.008209752
v -0.02321025 0.001272306 0.01055995
v -0.01755015 -0.004348092 0.008209753
v -0.01755015 -0.005828991 0.006691153
v -0.02321025 -0.005828988 0.006691152
v -0.02321025 -0.004348089 0.008209752
v -0.01755015 -0.005828991 0.006691153
v -0.01755015 -0.005828991 0.004751753
v -0.02321025 -0.005828988 0.004751751
v -0.02321025 -0.005828988 0.006691152
v -0.01755015 -0.005828991 0.006691153
v -0.01755015 -0.009063993 0.006241152
v -0.01755015 -0.009063993 0.004751753
v -0.01755015 -0.005828991 0.004751753
v -0.01755015 -0.004348092 0.008209753
v -0.01755015 -0.009063993 0.006241152
v -0.01524385 -0.009063993 0.006241152
v -0.01524385 -0.009063993 0.004751753
v -0.01755015 -0.009063993 0.004751753
v -0.01755015 -0.009063993 0.006241152
v -0.01755015 -0.004348092 0.008209753
v -0.01525495 -0.004348092 0.008209753
v -0.01524385 -0.009063993 0.006241152
v -0.009219851 -0.002009192 0.007313255
v -0.005309351 -0.002009192 0.003395254
v -0.00535565 -0.002009192 -0.003809943
v -0.01525495 -0.00200839 0.004788152
v -0.01525495 -0.00200839 0.007376752
v -0.02321025 -0.002009792 -0.003770847
v -0.02321025 -0.002009792 0.004751751
v -0.01524385 -0.009063993 0.006241152
v -0.01525495 -0.00200839 0.007376752
v -0.01525495 -0.00200839 0.004788152
v -0.01524385 -0.009063993 0.004751753
v -0.01525495 -0.004348092 0.008209753
v -0.01525495 0.001272306 0.01055995
v -0.01755015 -0.005828991 0.004751753
v -0.01525495 -0.00200839 0.004788152
v -0.02321025 -0.002009792 0.004751751
v -0.02321025 -0.005828988 0.004751751
v -0.01524385 -0.009063993 0.004751753
v -0.01755015 -0.009063993 0.004751753
v -0.02321025 0.002378111 0.01055995
v -0.02321025 0.002378111 0.006546552
v -0.00853065 0.002378111 0.006625155
v -0.01247195 0.002378111 0.01055995
v -0.02321025 0.002378111 0.006546552
v -0.02321025 0.001933408 0.006546552
v -0.00853065 0.001930408 0.006625155
v -0.00853065 0.002378111 0.006625155
v -0.02321025 0.001933408 0.006546552
v -0.02321025 0.001933408 -0.003680649
v -0.00853065 0.001930408 0.006625155
v -0.00530935 0.001927409 0.003395254
v -0.005350149 0.001930408 -0.003601944
v -0.02321025 -0.002009792 -0.003770847
v -0.02321025 0.001933408 -0.003680649
v -0.02321025 0.001933408 0.006546552
v -0.02321025 -0.002009792 0.004751751
v -0.02321025 -0.005828988 0.004751751
v -0.02321025 -0.004348089 0.008209752
v -0.02321025 0.002378111 0.01055995
v -0.02321025 0.002378111 0.006546552
v -0.02321025 -0.005828988 0.006691152
v -0.02321025 0.001272306 0.01055995
vt 0.7554 0.2002
vt 0.7554 0.1827
vt 0.7657 0.1827
vt 0.7657 0.2002
vt 0.7452 0.2002
vt 0.7452 0.1827
vt 0.7373 0.1827
vt 0.7373 0.2002
vt 0.7819 0.2002
vt 0.7819 0.1827
vt 0.7921 0.1827
vt 0.7921 0.2002
vt 0.8024 0.1827
vt 0.8024 0.2002
vt 0.8126 0.1827
vt 0.8126 0.2002
vt 0.8229 0.1827
vt 0.8229 0.2002
vt 0.7316 0.1827
vt 0.7316 0.2014
vt 0.7316 0.2014
vt 0.6636 0.2236
vt 0.6636 0.1827
vt 0.7288 0.2045
vt 0.7279 0.2086
vt 0.6915 0.225
vt 0.7316 0.1827
vt 0.7279 0.2268
vt 0.6581 0.2236
vt 0.6581 0.1827
vt 0.6636 0.1827
vt 0.6636 0.2236
vt 0.6525 0.1827
vt 0.6525 0.2236
vt 0.6473 0.1827
vt 0.6473 0.2236
vt 0.642 0.2235
vt 0.642 0.1826
vt 0.6364 0.2235
vt 0.6364 0.1826
vt 0.6309 0.1826
vt 0.6309 0.2235
vt 0.8303 0.7587
vt 0.8364 0.7496
vt 0.8364 0.7279
vt 0.8303 0.7187
vt 0.8211 0.7649
vt 0.8211 0.7126
vt 0.8386 0.7387
vt 0.8103 0.767
vt 0.8103 0.7104
vt 0.7927 0.7104
vt 0.7927 0.767
vt 0.7819 0.7126
vt 0.7819 0.7649
vt 0.7727 0.7187
vt 0.7727 0.7587
vt 0.7669 0.7249
vt 0.7669 0.7526
vt 0.7613 0.7272
vt 0.7613 0.7502
vt 0.6879 0.7272
vt 0.6879 0.7502
vt 0.6823 0.7292
vt 0.6823 0.7483
vt 0.678 0.7332
vt 0.678 0.7442
vt 0.6769 0.7387
vt 0.5779 0.4014
vt 0.5771 0.397
vt 0.5555 0.397
vt 0.5546 0.4014
vt 0.5581 0.3932
vt 0.5745 0.3932
vt 0.5606 0.3908
vt 0.572 0.3908
vt 0.5616 0.3884
vt 0.571 0.3884
vt 0.571 0.3866
vt 0.5616 0.3866
vt 0.571 0.3847
vt 0.5616 0.3847
vt 0.571 0.3766
vt 0.5616 0.3766
vt 0.5616 0.3657
vt 0.571 0.3634
vt 0.5631 0.3523
vt 0.5605 0.3657
vt 0.5605 0.3523
vt 0.5392 0.2001
vt 0.529 0.2001
vt 0.529 0.1826
vt 0.5392 0.1826
vt 0.5495 0.2001
vt 0.5495 0.1826
vt 0.5573 0.1826
vt 0.5573 0.2001
vt 0.5128 0.2001
vt 0.5128 0.1826
vt 0.5025 0.1826
vt 0.5025 0.2001
vt 0.4923 0.1826
vt 0.4923 0.2001
vt 0.4821 0.1826
vt 0.4821 0.2001
vt 0.4718 0.1826
vt 0.4718 0.2001
vt 0.563 0.1826
vt 0.563 0.2013
vt 0.563 0.2013
vt 0.563 0.1826
vt 0.6309 0.1826
vt 0.6309 0.2235
vt 0.5658 0.2045
vt 0.5667 0.2086
vt 0.6056 0.2248
vt 0.5667 0.2267
vt 0.5745 0.4169
vt 0.5581 0.4169
vt 0.5663 0.4203
vt 0.5707 0.4194
vt 0.5618 0.4194
vt 0.5555 0.4131
vt 0.5771 0.4131
vt 0.5546 0.4086
vt 0.5779 0.4086
vt 0.4791 0.8162
vt 0.4562 0.8162
vt 0.3908 0.8253
vt 0.4791 0.8253
vt 0.3908 0.8162
vt 0.1567 0.9511
vt 0.1362 0.9367
vt 0.1364 0.9619
vt 0.1567 0.9634
vt 0.0199 0.5534
vt 0.0484 0.5534
vt 0.0484 0.5427
vt 0.0484 0.5162
vt 0.0199 0.5162
vt 0.4138 0.3019
vt 0.4138 0.2906
vt 0.3838 0.2906
vt 0.3838 0.3019
vt 0.4138 0.2906
vt 0.4138 0.2803
vt 0.3838 0.2803
vt 0.3838 0.2906
vt 0.2808 0.0136
vt 0.2997 0.011
vt 0.2997 0.0023
vt 0.2808 0.0023
vt 0.2722 0.0225
vt 0.6219 0.5884
vt 0.6354 0.5884
vt 0.6354 0.5797
vt 0.6219 0.5797
vt 0.6219 0.5884
vt 0.6219 0.6183
vt 0.6353 0.6183
vt 0.6354 0.5884
vt 0.4613 0.9413
vt 0.4708 0.9318
vt 0.4707 0.9144
vt 0.4467 0.9352
vt 0.4467 0.9415
vt 0.4274 0.9144
vt 0.4274 0.9351
vt 0.8654 0.2441
vt 0.8923 0.2485
vt 0.8923 0.2386
vt 0.8654 0.2385
vt 0.8834 0.2517
vt 0.9048 0.2606
vt 0.1052 0.5926
vt 0.0901 0.5672
vt 0.1428 0.5674
vt 0.1427 0.5927
vt 0.0898 0.614
vt 0.1051 0.6141
vt 0.7438 0.8111
vt 0.7438 0.805
vt 0.7217 0.8052
vt 0.7276 0.8111
vt 0.7438 0.805
vt 0.7438 0.8044
vt 0.7217 0.8045
vt 0.7217 0.8052
vt 0.7438 0.8044
vt 0.7438 0.7889
vt 0.7217 0.8045
vt 0.7168 0.7996
vt 0.7169 0.789
vt 0.0337 0.0732
vt 0.0212 0.0735
vt 0.0212 0.106
vt 0.0337 0.1003
vt 0.0459 0.1003
vt 0.0412 0.1112
vt 0.0198 0.1187
vt 0.0198 0.106
vt 0.0459 0.1064
vt 0.0233 0.1187
vn 1.364689E-06 0.9238797 -0.3826829
vn 1.364689E-06 0.9238797 -0.382683
vn 1.467484E-06 0.9951852 -0.09801295
vn 1.467484E-06 0.9951852 -0.09801289
vn 1.125419E-06 0.7637967 -0.6454567
vn 1.125419E-06 0.7637967 -0.6454567
vn 1.220671E-06 0.8224989 -0.5687668
vn 1.232911E-06 0.830196 -0.5574715
vn 1.4312E-06 0.9951857 0.0980078
vn 1.4312E-06 0.9951857 0.09800782
vn 1.219475E-06 0.9238816 0.3826782
vn 1.219476E-06 0.9238818 0.3826782
vn 8.594441E-07 0.7071068 0.7071068
vn 8.594443E-07 0.7071069 0.7071066
vn 3.948828E-07 0.3826826 0.9238799
vn 3.948833E-07 0.3826829 0.9238797
vn -1.829162E-07 5.232658E-06 1
vn -1.829156E-07 5.590528E-06 1
vn 1.381756E-06 0.9226787 -0.3855698
vn 1.381756E-06 0.9226787 -0.3855698
vn 5.785035E-07 1 -2.195651E-07
vn 5.785035E-07 1 -2.195651E-07
vn 5.785035E-07 1 -2.195651E-07
vn 0 1 0
vn 0 1 0
vn 0.002176576 0.9999975 -0.0006295023
vn 1.376551E-06 1 0
vn 0 0.9999999 0.0004286437
vn 6.439273E-07 0.858201 -0.5133139
vn 6.439273E-07 0.858201 -0.5133139
vn 6.404157E-07 0.9448389 -0.3275354
vn 6.404156E-07 0.9448389 -0.3275354
vn -0.0001311178 0.4866962 -0.8735714
vn -0.0001311177 0.4866965 -0.8735712
vn -0.0002543968 1.023119E-05 -1
vn -0.0002543968 1.037483E-05 -1
vn -0.000131681 -0.4866873 -0.8735762
vn -0.0001316809 -0.4866874 -0.8735762
vn -3.474692E-07 -0.858201 -0.5133139
vn -3.474692E-07 -0.858201 -0.5133139
vn -4.514861E-07 -0.9448388 -0.3275354
vn -4.514861E-07 -0.9448389 -0.3275354
vn 1 -1.125742E-07 -5.659386E-07
vn 1 -1.125742E-07 -5.659386E-07
vn 1 -1.125742E-07 -5.659386E-07
vn 1 -1.125742E-07 -5.659386E-07
vn 1 -2.256584E-07 3.781542E-07
vn 1 -2.256584E-07 3.781542E-07
vn 1 0 0
vn 1 -2.550723E-07 6.411512E-07
vn 1 -2.550723E-07 6.411512E-07
vn 1 -2.453648E-07 0
vn 1 -2.453648E-07 0
vn 1 -2.550723E-07 6.411861E-07
vn 1 -2.550723E-07 6.41186E-07
vn 1 -1.025915E-07 5.950934E-07
vn 1 -1.025915E-07 5.950934E-07
vn 1 0 0
vn 1 0 0
vn 1 0 0
vn 1 0 0
vn 1 0 2.840459E-07
vn 1 0 2.840459E-07
vn 1 0 0
vn 1 0 0
vn 1 0 6.478782E-06
vn 1 0 6.478782E-06
vn 1 0 6.478782E-06
vn -1 2.498949E-07 -2.992213E-07
vn -1 2.445672E-07 -2.771365E-07
vn -1 2.445672E-07 -2.771366E-07
vn -1 2.498949E-07 -2.992211E-07
vn -1 1.937314E-07 1.256672E-07
vn -1 1.937315E-07 1.256684E-07
vn -0.9970059 0 0.07732557
vn -0.9970059 0 0.07732565
vn -0.8766652 0 0.4811008
vn -0.8766651 0 0.4811012
vn -0.4614421 0 0.8871703
vn -0.4614421 0 0.8871703
vn -0.1132353 0 0.9935682
vn -0.113157 0 0.9935772
vn 0.3829392 -0.0001289015 0.9237735
vn 0.3832841 -0.0001290176 0.9236305
vn 0.7070541 -8.994433E-05 0.7071595
vn 0.7072503 -0.0001223777 0.7069632
vn 0.7065226 2.25267E-06 0.7076904
vn 0.7065228 0 0.7076903
vn 0.7065228 0 0.7076903
vn 0 -0.92388 -0.3826824
vn 0 -0.9951852 -0.09801231
vn 0 -0.9951852 -0.09801234
vn 0 -0.9238799 -0.3826824
vn -2.531936E-07 -0.7637957 -0.6454581
vn -2.531937E-07 -0.7637957 -0.6454581
vn -8.936971E-07 -0.8224992 -0.5687665
vn -9.180359E-07 -0.8301967 -0.5574706
vn 0 -0.9951858 0.0980072
vn 0 -0.9951858 0.09800719
vn -1.403372E-07 -0.9238819 0.3826776
vn -1.403372E-07 -0.9238819 0.3826776
vn -3.910082E-07 -0.7071066 0.7071069
vn -3.910081E-07 -0.7071068 0.7071068
vn -5.236006E-07 -0.3826776 0.9238819
vn -5.236006E-07 -0.3826773 0.9238821
vn -1.829162E-07 5.232658E-06 1
vn -1.829156E-07 5.590528E-06 1
vn -1.245248E-06 -0.9226804 -0.3855656
vn -1.245248E-06 -0.9226804 -0.3855656
vn -1.376551E-06 -1 0
vn -1.376551E-06 -1 0
vn -1.376551E-06 -1 0
vn 0 -1 0
vn 0 -1 0
vn 0 -1 0
vn -0.003489802 -0.9999937 0.0006370567
vn -0.003489802 -0.9999937 0.0006370567
vn -1 1.125755E-07 5.659446E-07
vn -1 1.125755E-07 5.659444E-07
vn -1 1.125755E-07 5.659445E-07
vn -1 1.125755E-07 5.659445E-07
vn -1 0 0
vn -1 2.445671E-07 -5.472235E-07
vn -1 2.445672E-07 -5.472235E-07
vn -1 2.498949E-07 -2.992061E-07
vn -1 2.498949E-07 -2.992062E-07
vn -2.644922E-07 -4.123794E-07 1
vn -2.644922E-07 -4.123794E-07 1
vn -2.644922E-07 -4.123794E-07 1
vn -2.644922E-07 -4.123794E-07 1
vn -1.498489E-07 0 1
vn 0.005088714 -0.6985733 0.7155203
vn 0.005088714 -0.6985733 0.7155203
vn 0.005088715 -0.6985733 0.7155204
vn 0.005088714 -0.6985733 0.7155204
vn -1.730536E-07 -0.3857853 0.9225886
vn 0 -0.3855038 0.9227063
vn -1.842758E-07 -0.4753458 0.879799
vn -3.441683E-07 -0.5621744 0.8270186
vn -2.245643E-07 -0.3857853 0.9225886
vn -1.842758E-07 -0.4753458 0.879799
vn -4.499207E-07 -0.7159379 0.698164
vn -4.499207E-07 -0.715938 0.6981639
vn -3.441683E-07 -0.5621744 0.8270186
vn -4.212268E-07 -1 0
vn -4.212268E-07 -1 0
vn -4.212268E-07 -1 0
vn -4.212268E-07 -1 0
vn -1 0 0
vn -1 0 0
vn -1 0 0
vn -1 0 0
vn -1 0 0
vn 0 -1 0
vn 0 -1 0
vn 0 -1 0
vn 0 -1 0
vn 0 -0.3852226 0.9228236
vn -1.842758E-07 -0.4753458 0.879799
vn 0 -0.3855038 0.9227063
vn 0 -0.3852226 0.9228236
vn -9.293206E-05 -1 -2.435551E-05
vn -8.466616E-05 -1 -2.941305E-05
vn -1.121021E-05 -1 2.539466E-05
vn -1.318217E-05 -1 4.020984E-05
vn -0.0001327379 -1 0
vn 7.760445E-05 -1 9.166196E-05
vn 7.760445E-05 -1 9.166196E-05
vn 0.9999988 0.001573047 2.923252E-07
vn 0.9999988 0.001573048 2.923252E-07
vn 0.9999988 0.001573048 2.923252E-07
vn 0.9999988 0.001573048 2.923252E-07
vn 0.9999989 0.0004940435 0.00138765
vn 0.9999989 0.0004940435 0.001387651
vn 0.002673134 0.003961305 -0.9999886
vn 0.002673134 0.003961305 -0.9999886
vn 0.002673135 0.003961305 -0.9999886
vn 0.002673135 0.003961305 -0.9999886
vn 0.004968911 0.003542439 -0.9999814
vn 0.004968912 0.003542439 -0.9999814
vn 0 1 0
vn 0 1 0
vn 0 1 0
vn 0 1 0
vn 0.0053545 0 -0.9999857
vn 0.0053545 0 -0.9999857
vn 0.0053545 0 -0.9999857
vn 0.0053545 0 -0.9999857
vn 0.000204318 1 0
vn 0.000204318 1 0
vn 0.000204318 1 0
vn 0.0002984173 1 9.280411E-05
vn 0.0002984173 1 9.280413E-05
vn -1 0 0
vn -1 0 0
vn -1 0 0
vn -1 0 0
vn -1 4.034793E-07 -4.16637E-07
vn -1 2.020336E-07 -6.164428E-07
vn -1 2.020336E-07 -6.164428E-07
vn -1 2.020336E-07 -6.164428E-07
vn -1 0 0
vn -1 0 0
g bolt_catch_0
f 3/3/3 2/2/2 1/1/1
f 4/4/4 3/3/3 1/1/1
f 1/1/1 2/2/2 5/5/5
f 2/2/2 6/6/6 5/5/5
f 6/6/6 7/7/7 5/5/5
f 7/7/7 8/8/8 5/5/5
f 4/4/4 9/9/9 3/3/3
f 9/9/9 10/10/10 3/3/3
f 11/11/11 10/10/10 9/9/9
f 12/12/12 11/11/11 9/9/9
f 13/13/13 11/11/11 12/12/12
f 14/14/14 13/13/13 12/12/12
f 15/15/15 13/13/13 14/14/14
f 16/16/16 15/15/15 14/14/14
f 17/17/17 15/15/15 16/16/16
f 18/18/18 17/17/17 16/16/16
f 8/8/8 7/7/7 19/19/19
f 20/20/20 8/8/8 19/19/19
f 23/23/23 22/22/22 21/21/21
f 24/24/24 21/21/21 22/22/22
f 25/25/25 24/24/24 22/22/22
f 25/25/25 22/22/22 26/26/26
f 27/27/27 23/23/23 21/21/21
f 28/28/28 25/25/25 26/26/26
f 31/31/31 30/30/30 29/29/29
f 32/32/32 31/31/31 29/29/29
f 30/30/30 33/33/33 29/29/29
f 33/33/33 34/34/34 29/29/29
f 33/33/33 35/35/35 34/34/34
f 35/35/35 36/36/36 34/34/34
f 36/36/36 35/35/35 37/37/37
f 35/35/35 38/38/38 37/37/37
f 37/37/37 38/38/38 39/39/39
f 38/38/38 40/40/40 39/39/39
f 40/40/40 41/41/41 39/39/39
f 41/41/41 42/42/42 39/39/39
f 45/45/45 44/44/44 43/43/43
f 46/46/46 45/45/45 43/43/43
f 46/46/46 43/43/43 47/47/47
f 48/48/48 46/46/46 47/47/47
f 45/45/45 49/49/49 44/44/44
f 48/48/48 47/47/47 50/50/50
f 51/51/51 48/48/48 50/50/50
f 52/52/52 51/51/51 50/50/50
f 53/53/53 52/52/52 50/50/50
f 54/54/54 52/52/52 53/53/53
f 55/55/55 54/54/54 53/53/53
f 56/56/56 54/54/54 55/55/55
f 57/57/57 56/56/56 55/55/55
f 58/58/58 56/56/56 57/57/57
f 59/59/59 58/58/58 57/57/57
f 60/60/60 58/58/58 59/59/59
f 61/61/61 60/60/60 59/59/59
f 62/62/62 60/60/60 61/61/61
f 63/63/63 62/62/62 61/61/61
f 64/64/64 62/62/62 63/63/63
f 65/65/65 64/64/64 63/63/63
f 66/66/66 64/64/64 65/65/65
f 67/67/67 66/66/66 65/65/65
f 66/66/66 67/67/67 68/68/68
f 71/71/71 70/70/70 69/69/69
f 72/72/72 71/71/71 69/69/69
f 71/71/71 73/73/73 70/70/70
f 73/73/73 74/74/74 70/70/70
f 74/74/74 73/73/73 75/75/75
f 76/76/76 74/74/74 75/75/75
f 76/76/76 75/75/75 77/77/77
f 78/78/78 76/76/76 77/77/77
f 78/78/78 77/77/77 79/79/79
f 77/77/77 80/80/80 79/79/79
f 79/79/79 80/80/80 81/81/81
f 80/80/80 82/82/82 81/81/81
f 81/81/81 82/82/82 83/83/83
f 82/82/82 84/84/84 83/83/83
f 84/84/84 85/85/85 83/83/83
f 85/85/85 86/86/86 83/83/83
f 87/87/87 86/86/86 85/85/85
f 87/87/87 85/85/85 88/88/88
f 89/89/89 87/87/87 88/88/88
f 92/92/92 91/91/91 90/90/90
f 93/93/93 92/92/92 90/90/90
f 93/93/93 90/90/90 94/94/94
f 95/95/95 93/93/93 94/94/94
f 96/96/96 95/95/95 94/94/94
f 97/97/97 96/96/96 94/94/94
f 98/98/98 91/91/91 92/92/92
f 99/99/99 98/98/98 92/92/92
f 99/99/99 100/100/100 98/98/98
f 100/100/100 101/101/101 98/98/98
f 100/100/100 102/102/102 101/101/101
f 102/102/102 103/103/103 101/101/101
f 102/102/102 104/104/104 103/103/103
f 104/104/104 105/105/105 103/103/103
f 104/104/104 106/106/106 105/105/105
f 106/106/106 107/107/107 105/105/105
f 96/96/96 97/97/97 108/108/108
f 97/97/97 109/109/109 108/108/108
f 112/112/112 111/111/111 110/110/110
f 113/113/113 112/112/112 110/110/110
f 110/110/110 114/114/114 113/113/113
f 114/114/114 115/115/115 113/113/113
f 116/116/116 113/113/113 115/115/115
f 117/117/117 116/116/116 115/115/115
f 120/120/120 119/119/119 118/118/118
f 121/121/121 120/120/120 118/118/118
f 119/119/119 120/120/120 122/122/122
f 118/118/118 119/119/119 123/123/123
f 124/124/124 118/118/118 123/123/123
f 124/124/124 123/123/123 125/125/125
f 126/126/126 124/124/124 125/125/125
f 126/126/126 125/125/125 72/72/72
f 69/69/69 126/126/126 72/72/72
f 129/129/129 128/128/128 127/127/127
f 130/130/130 129/129/129 127/127/127
f 131/131/131 128/128/128 129/129/129
f 134/134/134 133/133/133 132/132/132
f 135/135/135 134/134/134 132/132/132
f 138/138/138 137/137/137 136/136/136
f 139/139/139 138/138/138 136/136/136
f 140/140/140 139/139/139 136/136/136
f 143/143/143 142/142/142 141/141/141
f 144/144/144 143/143/143 141/141/141
f 147/147/147 146/146/146 145/145/145
f 148/148/148 147/147/147 145/145/145
f 151/151/151 150/150/150 149/149/149
f 152/152/152 151/151/151 149/149/149
f 150/150/150 153/153/153 149/149/149
f 156/156/156 155/155/155 154/154/154
f 157/157/157 156/156/156 154/154/154
f 160/160/160 159/159/159 158/158/158
f 161/161/161 160/160/160 158/158/158
f 164/164/164 163/163/163 162/162/162
f 165/165/165 164/164/164 162/162/162
f 166/166/166 165/165/165 162/162/162
f 167/167/167 164/164/164 165/165/165
f 168/168/168 167/167/167 165/165/165
f 171/171/171 170/170/170 169/169/169
f 172/172/172 171/171/171 169/169/169
f 173/173/173 169/169/169 170/170/170
f 174/174/174 173/173/173 170/170/170
f 177/177/177 176/176/176 175/175/175
f 178/178/178 177/177/177 175/175/175
f 175/175/175 176/176/176 179/179/179
f 180/180/180 175/175/175 179/179/179
f 183/183/183 182/182/182 181/181/181
f 184/184/184 183/183/183 181/181/181
f 187/187/187 186/186/186 185/185/185
f 188/188/188 187/187/187 185/185/185
f 191/191/191 190/190/190 189/189/189
f 190/190/190 191/191/191 192/192/192
f 193/193/193 190/190/190 192/192/192
f 196/196/196 195/195/195 194/194/194
f 197/197/197 196/196/196 194/194/194
f 197/197/197 198/198/198 196/196/196
f 198/198/198 199/199/199 196/196/196
f 196/196/196 199/199/199 200/200/200
f 201/201/201 196/196/196 200/200/200
f 202/202/202 199/199/199 198/198/198
f 199/199/199 203/203/203 200/200/200
