g weapon_molot_vepr_km_vpo_136_762x39_kolodka_LOD1
v 0.02591839 -0.6511096 0.007313312
v 0.02222739 -0.6511096 0.003191201
v 0.01923439 -0.6511096 0.004644081
v 0.02222739 -0.6511096 -0.00899879
v 0.02608699 -0.6511096 -0.00988009
v 0.02243639 -0.6511096 -0.01346568
v 0.01923439 -0.6511096 -0.01032999
v 0.01600219 -0.6511096 -0.01373758
v 0.01632239 -0.6512005 -0.00899879
v 0.01012856 -0.6511096 -0.001053144
v 0.007174723 -0.6511096 -0.00818436
v 0.01632239 -0.6512005 0.003191201
v 0.01082189 -0.6511096 -0.02191578
v 2.679765E-05 -0.6511096 -0.01113823
v -0.0001481063 -0.6511096 -0.02528318
v -0.01111811 -0.6511096 -0.02191578
v -0.007160315 -0.6511096 -0.00818436
v -0.0163647 -0.6511096 -0.01363118
v -0.01064591 -0.6511096 -0.001053142
v -0.0161145 -0.6511096 0.01198782
v -0.01065911 -0.6511096 0.01198782
v 0.01581829 -0.6511096 0.01198782
v 0.008150833 -0.6511096 0.01198782
v 0.01622719 -0.6473036 -0.01373758
v 0.01923439 -0.6472466 -0.01032999
v 0.01640319 -0.6472466 -0.00899879
v 0.02243639 -0.6472466 -0.01346568
v 0.02608699 -0.6472466 -0.00988009
v 0.02222739 -0.6472466 -0.00899879
v 0.02591839 -0.6472466 0.007313312
v 0.02222739 -0.6472466 0.003191201
v 0.01923439 -0.6472466 0.004644081
v 0.01581829 -0.6470616 0.01178662
v 0.01640319 -0.6472466 0.003191201
v 0.01600219 -0.6511096 -0.01373758
v 0.02243639 -0.6511096 -0.01346568
v 0.01622719 -0.6473036 -0.01373758
v 0.02243639 -0.6472466 -0.01346568
v 0.02608699 -0.6511096 -0.00988009
v 0.02608699 -0.6472466 -0.00988009
v 2.679765E-05 -0.6602616 -0.01113823
v 0.007174723 -0.6602616 -0.00818436
v 2.679765E-05 -0.6511096 -0.01113823
v 0.007174723 -0.6511096 -0.00818436
v 0.01012856 -0.6602616 -0.001053144
v 0.01012856 -0.6511096 -0.001053144
v -0.007160315 -0.6602616 -0.00818436
v -0.007160315 -0.6511096 -0.00818436
v -0.01064591 -0.6602616 -0.001053142
v -0.01064591 -0.6511096 -0.001053142
v 0.008150833 -0.6602616 0.01181992
v 0.008150833 -0.6511096 0.01198782
v -0.01065911 -0.6559396 0.01181992
v -0.007579105 -0.6602616 0.01181992
v -0.01065911 -0.6511096 0.01198782
v 0.02222739 -0.6511096 0.003191201
v 0.02222739 -0.6511096 -0.00899879
v 0.02222739 -0.6472466 0.003191201
v 0.02222739 -0.6472466 -0.00899879
v 0.01632239 -0.6512005 -0.00899879
v 0.01632239 -0.6512005 0.003191201
v 0.01640319 -0.6472466 -0.00899879
v 0.01640319 -0.6472466 0.003191201
v 0.02608699 -0.6472466 -0.00988009
v 0.02608699 -0.6511096 -0.00988009
v 0.02591839 -0.6472466 0.007313312
v 0.02591839 -0.6511096 0.007313312
v -0.007160315 -0.6602616 -0.00818436
v -0.01064591 -0.6602616 -0.001053142
v 0.008150833 -0.6602616 0.01181992
v 2.679765E-05 -0.6602616 -0.01113823
v 0.007174723 -0.6602616 -0.00818436
v 0.01012856 -0.6602616 -0.001053144
v -0.007579105 -0.6602616 0.01181992
v -0.007579105 -0.6602616 0.01181992
v -0.01065911 -0.6559396 0.01181992
v -0.01065911 -0.6511096 0.01198782
v 0.008150833 -0.6511096 0.01198782
v 0.008150833 -0.6602616 0.01181992
v 0.02591839 -0.6472466 0.007313312
v 0.02591839 -0.6511096 0.007313312
v 0.01581829 -0.6470616 0.01178662
v 0.01581829 -0.6511096 0.01198782
v 0.01584589 -0.6436706 0.01159022
v -0.0161421 -0.6436706 0.01159022
v 0.01681109 -0.6435336 -0.01398758
v -0.0171073 -0.6435336 -0.01398758
v 0.01123079 -0.6434906 -0.02204148
v -0.01152701 -0.6434906 -0.02204148
v -0.0001481063 -0.6434726 -0.02539348
v 0.02222739 -0.6511096 0.003191201
v 0.02222739 -0.6472466 0.003191201
v 0.01923439 -0.6511096 0.004644081
v 0.01923439 -0.6472466 0.004644081
v 0.01640319 -0.6472466 0.003191201
v 0.01632239 -0.6512005 0.003191201
v -0.01111811 -0.6511096 -0.02191578
v -0.01152701 -0.6434906 -0.02204148
v -0.0163647 -0.6511096 -0.01363118
v -0.0171073 -0.6435336 -0.01398758
v -0.0161421 -0.6436706 0.01159022
v -0.0161145 -0.6511096 0.01198782
v -0.0001481063 -0.6434726 -0.02539348
v -0.0001481063 -0.6511096 -0.02528318
v 0.01082189 -0.6511096 -0.02191578
v 0.01123079 -0.6434906 -0.02204148
v 0.01606849 -0.6511096 -0.01363118
v 0.01681109 -0.6435336 -0.01398758
v 0.01584589 -0.6436706 0.01159022
v 0.01581829 -0.6511096 0.01198782
v 0.02222739 -0.6472466 -0.00899879
v 0.02222739 -0.6511096 -0.00899879
v 0.01923439 -0.6472466 -0.01032999
v 0.01923439 -0.6511096 -0.01032999
v 0.01640319 -0.6472466 -0.00899879
v 0.01632239 -0.6512005 -0.00899879
v 0.01584589 -0.6436706 0.01159022
v 0.01581829 -0.6511096 0.01198782
v -0.0161421 -0.6436706 0.01159022
v -0.0161145 -0.6511096 0.01198782
vt 0.442226 0.426093
vt 0.392017 0.462615
vt 0.409742 0.491523
vt 0.243465 0.462615
vt 0.232699 0.426093
vt 0.187392 0.46065
vt 0.227262 0.491602
vt 0.187392 0.522884
vt 0.243517 0.519773
vt 0.340342 0.589262
vt 0.253437 0.608261
vt 0.392073 0.519773
vt 0.0860946 0.57299
vt 0.217442 0.677396
vt 0.0450623 0.679093
vt 0.0861046 0.785193
vt 0.253443 0.746908
vt 0.187069 0.834719
vt 0.34035 0.780678
vt 0.499279 0.834719
vt 0.499276 0.780678
vt 0.499259 0.524524
vt 0.499266 0.589262
vt 0.493181 0.127288
vt 0.436373 0.0967337
vt 0.413413 0.127288
vt 0.493181 0.0656813
vt 0.428197 0.0315608
vt 0.413104 0.0680152
vt 0.129723 0.0315608
vt 0.201481 0.0680152
vt 0.176418 0.0971784
vt 0.0525673 0.127469
vt 0.20179 0.127469
vt 0.506079 0.871585
vt 0.425719 0.871585
vt 0.506079 0.908804
vt 0.425719 0.908804
vt 0.363143 0.871585
vt 0.363143 0.908804
vt 0.681225 0.320069
vt 0.681225 0.39543
vt 0.793588 0.320069
vt 0.793588 0.39543
vt 0.681225 0.47064
vt 0.793588 0.47064
vt 0.681225 0.244355
vt 0.793588 0.244354
vt 0.681225 0.167013
vt 0.793585 0.167013
vt 0.681225 0.598354
vt 0.793588 0.598354
vt 0.734296 0.04
vt 0.681225 0.04
vt 0.793585 0.04
vt 0.324861 0.871585
vt 0.176037 0.871585
vt 0.324861 0.909016
vt 0.176037 0.909016
vt 0.093338 0.96
vt 0.093338 0.841885
vt 0.0450623 0.96
vt 0.0450623 0.841885
vt 0.928951 0.923866
vt 0.928951 0.886434
vt 0.719031 0.923866
vt 0.719031 0.886434
vt 0.921656 0.82006
vt 0.962507 0.753729
vt 0.719031 0.633989
vt 0.837423 0.847536
vt 0.75365 0.82006
vt 0.719031 0.753729
vt 0.962507 0.633989
vt 0.961376 0.411397
vt 0.908616 0.381544
vt 0.84962 0.381544
vt 0.84962 0.563813
vt 0.961376 0.563813
vt 0.419275 0.72658
vt 0.467574 0.72658
vt 0.419275 0.619139
vt 0.467625 0.619139
vt 0.0719771 0.148819
vt 0.0719771 0.405839
vt 0.384814 0.148819
vt 0.384814 0.405839
vt 0.483319 0.148819
vt 0.483319 0.405839
vt 0.524317 0.277329
vt 0.288301 0.648839
vt 0.288301 0.686595
vt 0.328795 0.648839
vt 0.328795 0.686595
vt 0.367973 0.686595
vt 0.367973 0.648839
vt 0.55025 0.385889
vt 0.641947 0.385889
vt 0.55025 0.290141
vt 0.641947 0.290141
vt 0.641947 0.04
vt 0.55025 0.04
vt 0.641947 0.49987
vt 0.55025 0.49987
vt 0.55025 0.61385
vt 0.641947 0.61385
vt 0.55025 0.709598
vt 0.641947 0.709598
vt 0.641947 0.95974
vt 0.55025 0.95974
vt 0.061312 0.511273
vt 0.108885 0.511273
vt 0.061312 0.479631
vt 0.108885 0.479631
vt 0.061312 0.44905
vt 0.108885 0.44905
vt 0.84962 0.349947
vt 0.94058 0.349679
vt 0.84962 0.04
vt 0.94058 0.040267
vn 0 -1 0
vn 0 -1 0
vn 0.009990167 -0.9999393 0.004647144
vn 0 -1 0
vn 0 -1 0
vn 0 -1 0
vn 0.006777543 -0.9999564 -0.006428701
vn -0.0007457003 -0.9999845 -0.005527506
vn -0.01648644 -0.9997475 -0.01526805
vn -0.01143847 -0.9999346 0.0003471694
vn 0 -1 0
vn -0.00682752 -0.9999465 0.007783363
vn 0 -1 0
vn 0 -1 0
vn 0 -1 0
vn 0 -1 0
vn 0 -1 0
vn 0 -1 0
vn 0 -1 0
vn 0 -1 0
vn 0 -1 0
vn -8.509655E-05 -0.9999948 0.003229727
vn 0 -1 0
vn -0.007299027 0.9999205 -0.01028217
vn -0.00512494 0.9999609 -0.007210918
vn -0.005557256 0.9999148 -0.01181919
vn -0.002985806 0.9999909 -0.003048947
vn 0 1 0
vn 0 1 0
vn 0.00346448 0.9999564 -0.008675379
vn 0 1 0
vn 0.007688628 0.9998273 -0.01692357
vn 0.009374972 0.9997267 -0.02141205
vn 0.0106701 0.9997268 -0.02079263
vn 0.04222069 -0.002495973 -0.9991052
vn 0.398445 -0.0004676223 -0.9171921
vn 0.04274127 -0.001645224 -0.9990848
vn 0.3997199 0 -0.9166373
vn 0.700726 0 -0.7134305
vn 0.700726 0 -0.7134306
vn 0.000963041 0 -0.9999995
vn 0.7068157 0 -0.7073977
vn 0.0009630307 0 -0.9999995
vn 0.7068157 0 -0.7073976
vn 0.9927933 0 -0.1198398
vn 0.9927478 -0.000556831 -0.1202139
vn -0.6838726 0 -0.7296014
vn -0.6838726 0 -0.7296014
vn -0.9765771 -0.0743469 -0.201915
vn -0.9741596 4.125866E-06 -0.2258608
vn 0.9885816 -0.001690335 0.1506772
vn 0.9886912 -0.002750747 0.1499401
vn -0.9669025 -0.2421724 0.08032545
vn -0.7994623 -0.569724 0.190459
vn -0.9999995 3.518576E-05 -0.001012198
vn -1 0 0
vn -1 0 0
vn -1 0 0
vn -1 0 0
vn 0.9997913 -0.0204308 0
vn 0.9997913 -0.0204308 0
vn 0.9997913 -0.0204308 0
vn 0.9997913 -0.0204308 0
vn 0.999952 0 0.009805622
vn 0.999952 0 0.009805622
vn 0.999952 0 0.009805622
vn 0.999952 0 0.009805622
vn 0 -1 0
vn 0 -1 0
vn 0 -1 0
vn 0 -1 0
vn 0 -1 0
vn 0 -1 0
vn 0 -1 0
vn -0.006559228 -0.02054881 0.9997674
vn -0.04869196 -0.03469955 0.9982109
vn -0.01007348 -0.02173049 0.9997131
vn 0 -0.01834255 0.9998318
vn 0 -0.01834255 0.9998318
vn 0.4049571 0 0.9143357
vn 0.4083134 0.01008678 0.9127861
vn 0.4165606 0.03549457 0.9084148
vn 0.4195887 0.04506102 0.9065952
vn 0 0.9999857 0.00535632
vn 0 0.9999857 0.00535632
vn 0 0.9999857 0.005349211
vn 0 0.9999857 0.00534921
vn 0 0.9999858 0.005341815
vn 0 0.9999858 0.005341815
vn 0 0.9999856 0.005371452
vn -0.436694 0 -0.8996101
vn -0.436694 0 -0.89961
vn 0.01231673 -0.002923484 -0.9999199
vn 0.01110253 0 -0.9999384
vn 0.4521637 -0.004062864 -0.8919256
vn 0.4466562 -0.009127447 -0.8946592
vn -0.5974607 -0.0417849 -0.8008088
vn -0.5993782 -0.05755129 -0.7983944
vn -0.9589541 -0.08608652 -0.2701783
vn -0.9530293 -0.1067499 -0.2834422
vn -0.9996949 -0.01986296 0.01468171
vn -0.9999473 -0.003187934 0.009765674
vn 0 -0.02112297 -0.9997769
vn 0 -0.01444127 -0.9998957
vn 0.5974607 -0.0417849 -0.8008088
vn 0.5993782 -0.05755129 -0.7983944
vn 0.9589541 -0.08608653 -0.2701783
vn 0.9530293 -0.1067499 -0.2834422
vn 0.9996949 -0.0198631 0.01468171
vn 0.9999473 -0.003188094 0.009765674
vn -0.4063876 0 0.9137008
vn -0.4063876 0 0.9137008
vn 0.01050925 0 0.9999448
vn 0.01156089 -0.00270468 0.9999295
vn 0.4213148 -0.003740003 0.9069067
vn 0.4159644 -0.008500259 0.9093411
vn 0 0.05337184 0.9985747
vn 0 0.05337183 0.9985747
vn 0 0.05337183 0.9985747
vn 0 0.05337184 0.9985747
g weapon_molot_vepr_km_vpo_136_762x39_kolodka_LOD1_0
f 3/3/3 2/2/2 1/1/1
f 4/4/4 1/1/1 2/2/2
f 1/1/1 4/4/4 5/5/5
f 5/5/5 4/4/4 6/6/6
f 4/4/4 7/7/7 6/6/6
f 8/8/8 6/6/6 7/7/7
f 7/7/7 9/9/9 8/8/8
f 9/9/9 10/10/10 8/8/8
f 11/11/11 8/8/8 10/10/10
f 10/10/10 9/9/9 12/12/12
f 8/8/8 11/11/11 13/13/13
f 14/14/14 13/13/13 11/11/11
f 13/13/13 14/14/14 15/15/15
f 14/14/14 16/16/16 15/15/15
f 16/16/16 14/14/14 17/17/17
f 17/17/17 18/18/18 16/16/16
f 18/18/18 17/17/17 19/19/19
f 18/18/18 19/19/19 20/20/20
f 20/20/20 19/19/19 21/21/21
f 22/22/22 10/10/10 12/12/12
f 22/22/22 12/12/12 3/3/3
f 1/1/1 22/22/22 3/3/3
f 23/23/23 10/10/10 22/22/22
f 26/26/26 25/25/25 24/24/24
f 24/24/24 25/25/25 27/27/27
f 25/25/25 28/28/28 27/27/27
f 28/28/28 25/25/25 29/29/29
f 29/29/29 30/30/30 28/28/28
f 30/30/30 29/29/29 31/31/31
f 32/32/32 30/30/30 31/31/31
f 30/30/30 32/32/32 33/33/33
f 34/34/34 33/33/33 32/32/32
f 37/37/37 36/36/36 35/35/35
f 36/36/36 37/37/37 38/38/38
f 38/38/38 39/39/39 36/36/36
f 39/39/39 38/38/38 40/40/40
f 43/43/43 42/42/42 41/41/41
f 42/42/42 43/43/43 44/44/44
f 44/44/44 45/45/45 42/42/42
f 45/45/45 44/44/44 46/46/46
f 47/47/47 43/43/43 41/41/41
f 43/43/43 47/47/47 48/48/48
f 49/49/49 48/48/48 47/47/47
f 48/48/48 49/49/49 50/50/50
f 46/46/46 51/51/51 45/45/45
f 51/51/51 46/46/46 52/52/52
f 53/53/53 50/50/50 49/49/49
f 53/53/53 49/49/49 54/54/54
f 50/50/50 53/53/53 55/55/55
f 58/58/58 57/57/57 56/56/56
f 57/57/57 58/58/58 59/59/59
f 62/62/62 61/61/61 60/60/60
f 61/61/61 62/62/62 63/63/63
f 66/66/66 65/65/65 64/64/64
f 65/65/65 66/66/66 67/67/67
f 70/70/70 69/69/69 68/68/68
f 70/70/70 68/68/68 71/71/71
f 72/72/72 70/70/70 71/71/71
f 73/73/73 70/70/70 72/72/72
f 69/69/69 70/70/70 74/74/74
f 77/77/77 76/76/76 75/75/75
f 78/78/78 77/77/77 75/75/75
f 75/75/75 79/79/79 78/78/78
f 82/82/82 81/81/81 80/80/80
f 81/81/81 82/82/82 83/83/83
f 86/86/86 85/85/85 84/84/84
f 85/85/85 86/86/86 87/87/87
f 88/88/88 87/87/87 86/86/86
f 87/87/87 88/88/88 89/89/89
f 90/90/90 89/89/89 88/88/88
f 93/93/93 92/92/92 91/91/91
f 92/92/92 93/93/93 94/94/94
f 93/93/93 95/95/95 94/94/94
f 95/95/95 93/93/93 96/96/96
f 99/99/99 98/98/98 97/97/97
f 98/98/98 99/99/99 100/100/100
f 99/99/99 101/101/101 100/100/100
f 101/101/101 99/99/99 102/102/102
f 103/103/103 97/97/97 98/98/98
f 97/97/97 103/103/103 104/104/104
f 103/103/103 105/105/105 104/104/104
f 105/105/105 103/103/103 106/106/106
f 106/106/106 107/107/107 105/105/105
f 107/107/107 106/106/106 108/108/108
f 109/109/109 107/107/107 108/108/108
f 107/107/107 109/109/109 110/110/110
f 113/113/113 112/112/112 111/111/111
f 112/112/112 113/113/113 114/114/114
f 115/115/115 114/114/114 113/113/113
f 114/114/114 115/115/115 116/116/116
f 119/119/119 118/118/118 117/117/117
f 118/118/118 119/119/119 120/120/120
