g m1a_socom_hammer_LOD0
v -0.003098789 0.006917839 0.006492405
v -0.003098801 0.01348989 0.024832
v -0.003098776 -0.0009697914 0.005126705
v -0.003098841 0.03600808 0.024832
v -0.003098805 0.0160028 0.02683531
v -0.003098836 0.03389668 0.0267185
v -0.003098833 0.03171044 0.0145551
v -0.003098835 0.03318921 0.01478901
v -0.003098789 0.006917839 -0.001297293
v -0.003098776 -0.0009697914 -0.006203699
v -0.003098769 -0.004669781 -0.006203699
v -0.003098769 -0.004669781 0.003700409
v -0.003098813 0.01994611 0.02821473
v -0.00309883 0.02997628 0.02821473
v -0.003098838 0.03484498 0.01460686
v -0.003098854 0.04418034 0.0166547
v -0.003098841 0.03634378 0.01373538
v -0.003098843 0.03761573 0.01257654
v -0.003098845 0.03891185 0.010816
v -0.003098859 0.04683599 0.005909204
v -0.00309885 0.04141293 0.005909204
v -0.003098861 0.04795474 0.002501802
v -0.003098849 0.04077781 0.002501802
v -0.003098847 0.03999261 0.00328701
v -0.003098849 0.04077781 0.005909204
v -0.003098847 0.03999261 0.005124006
v -0.003098863 0.04873994 0.005124101
v -0.003098863 0.04873994 0.00328701
v -0.003098861 0.04795474 0.005909204
v -0.003098841 0.03600808 0.024832
v -0.0009119647 0.04418034 0.0166547
v -0.0009119511 0.03600808 0.024832
v -0.003098854 0.04418034 0.0166547
v -0.003098836 0.03389668 0.0267185
v -0.0009119695 0.04683599 0.005909204
v -0.003098859 0.04683599 0.005909204
v 0.000911856 0.0360081 0.024832
v 0.00309875 0.0338967 0.0267185
v 0.003098756 0.0299763 0.02821473
v -0.00309883 0.02997628 0.02821473
v 0.003098774 0.01994613 0.02821473
v -0.003098813 0.01994611 0.02821473
v 0.003098781 0.01600282 0.02683531
v -0.003098805 0.0160028 0.02683531
v 0.003098785 0.0134899 0.024832
v -0.003098801 0.01348989 0.024832
v 0.00309881 -0.0009697818 0.005126705
v -0.003098776 -0.0009697914 0.005126705
v 0.003098746 0.0360081 0.024832
v 0.0009118417 0.04418036 0.0166547
v 0.003098731 0.04418036 0.0166547
v 0.0009118372 0.046836 0.005909204
v 0.003098727 0.046836 0.005909204
v -0.003098833 0.03171044 0.0145551
v -0.0009119457 0.03318921 0.01478901
v -0.003098835 0.03318921 0.01478901
v -0.0009119433 0.03171044 0.0145551
v -0.003098789 0.006917839 0.006492405
v 0.003098796 0.006917848 0.006492405
v 0.0009118634 0.03171046 0.0145551
v 0.003098753 0.03171046 0.0145551
v 0.0009118607 0.03318923 0.01478901
v 0.003098751 0.03318923 0.01478901
v -0.003098838 0.03484498 0.01460686
v -0.0009119487 0.03484498 0.01460686
v -0.0009119516 0.03634378 0.01373538
v -0.003098841 0.03634378 0.01373538
v -0.003098843 0.03761573 0.01257654
v -0.0009119535 0.03761573 0.01257654
v -0.003098845 0.03891185 0.010816
v -0.0009119558 0.03891185 0.010816
v -0.00309885 0.04141293 0.005909204
v -0.00091196 0.04141293 0.005909204
v 0.000911858 0.034845 0.01460686
v 0.003098748 0.034845 0.01460686
v 0.0009118554 0.03634379 0.01373536
v 0.003098745 0.03634379 0.01373538
v 0.0009118533 0.03761575 0.01257649
v 0.003098743 0.03761575 0.01257654
v 0.0009118509 0.03891187 0.01081591
v 0.00309874 0.03891187 0.010816
v 0.003098736 0.04141295 0.005909204
v 0.0009118465 0.04141295 0.005909204
v -0.003098789 0.006917839 -0.001297293
v 0.003098796 0.006917848 0.006492405
v -0.003098789 0.006917839 0.006492405
v 0.003098796 0.006917839 -0.001297293
v -0.003098776 -0.0009697914 -0.006203699
v 0.003098796 0.006917839 -0.001297293
v -0.003098789 0.006917839 -0.001297293
v 0.00309881 -0.0009697818 -0.006203699
v -0.003098776 -0.0009697914 0.005126705
v 0.003098817 -0.004669771 0.003700409
v -0.003098769 -0.004669781 0.003700409
v 0.00309881 -0.0009697818 0.005126705
v -0.003098769 -0.004669781 -0.006203699
v 0.00309881 -0.0009697818 -0.006203699
v -0.003098776 -0.0009697914 -0.006203699
v 0.003098817 -0.004669771 -0.006203699
v -0.003098769 -0.004669781 0.003700409
v 0.003098817 -0.004669771 -0.006203699
v -0.003098769 -0.004669781 -0.006203699
v 0.003098817 -0.004669771 0.003700409
v -0.003098861 0.04795474 0.002501802
v -0.0009119588 0.04077781 0.002501802
v -0.0009119713 0.04795474 0.002501802
v -0.003098849 0.04077781 0.002501802
v -0.0009119576 0.03999261 0.00328701
v -0.003098847 0.03999261 0.00328701
v -0.0009119576 0.03999261 0.005124006
v -0.003098847 0.03999261 0.005124006
v -0.0009119588 0.04077779 0.005909204
v -0.003098849 0.04077781 0.005909204
v -0.00091196 0.04141293 0.005909204
v -0.00309885 0.04141293 0.005909204
v -0.003098863 0.04873994 0.00328701
v -0.0009119731 0.04873994 0.00328701
v -0.003098863 0.04873994 0.005124101
v -0.0009119731 0.04873994 0.005124006
v -0.003098861 0.04795474 0.005909204
v -0.0009119713 0.04795476 0.005909204
v -0.003098859 0.04683599 0.005909204
v -0.0009119695 0.04683599 0.005909204
v 0.003098725 0.04795476 0.002501802
v 0.0009118476 0.04077782 0.002501802
v 0.003098737 0.04077782 0.002501855
v 0.0009118351 0.04795476 0.002501802
v 0.0009118491 0.03999263 0.00328701
v 0.003098739 0.03999263 0.00328701
v 0.0009118491 0.03999263 0.005124006
v 0.003098739 0.03999263 0.005124006
v 0.0009118476 0.04077781 0.005909204
v 0.003098737 0.04077782 0.005909204
v 0.0009118465 0.04141295 0.005909204
v 0.003098736 0.04141295 0.005909204
v 0.003098723 0.04873996 0.00328701
v 0.0009118336 0.04873996 0.00328701
v 0.003098723 0.04873996 0.005124101
v 0.0009118336 0.04873996 0.005124006
v 0.003098725 0.04795476 0.005909204
v 0.0009118351 0.04795476 0.005909204
v 0.003098727 0.046836 0.005909204
v 0.0009118372 0.046836 0.005909204
v 0.0009118372 0.046836 0.005909204
v 0.0009118351 0.04795476 0.002501802
v 0.0009118351 0.04795476 0.005909204
v 0.0009118476 0.04077782 0.002501802
v 0.0009118336 0.04873996 0.005124006
v 0.0009118336 0.04873996 0.00328701
v 0.0009118465 0.04141295 0.005909204
v 0.0009118509 0.03891187 0.01081591
v 0.0009118417 0.04418036 0.0166547
v 0.0009118476 0.04077781 0.005909204
v 0.0009118491 0.03999263 0.005124006
v 0.0009118491 0.03999263 0.00328701
v 0.0009118533 0.03761575 0.01257649
v 0.0009118554 0.03634379 0.01373536
v 0.000911858 0.034845 0.01460686
v 0.000911856 0.0360081 0.024832
v 0.0009118607 0.03318923 0.01478901
v 0.0009118634 0.03171046 0.0145551
v -0.0009119433 0.03171044 0.0145551
v 0.000911856 0.0360081 0.024832
v -0.0009119511 0.03600808 0.024832
v 0.0009118634 0.03171046 0.0145551
v -0.0009119511 0.03600808 0.024832
v -0.0009119647 0.04418034 0.0166547
v -0.0009119487 0.03484498 0.01460686
v -0.0009119457 0.03318921 0.01478901
v -0.0009119516 0.03634378 0.01373538
v -0.0009119535 0.03761573 0.01257654
v -0.0009119558 0.03891185 0.010816
v -0.0009119695 0.04683599 0.005909204
v -0.00091196 0.04141293 0.005909204
v -0.0009119588 0.04077781 0.002501802
v -0.0009119713 0.04795474 0.002501802
v -0.0009119731 0.04873994 0.00328701
v -0.0009119713 0.04795476 0.005909204
v -0.0009119731 0.04873994 0.005124006
v -0.0009119576 0.03999261 0.00328701
v -0.0009119588 0.04077779 0.005909204
v -0.0009119576 0.03999261 0.005124006
v -0.0009119433 0.03171044 0.0145551
v 0.003098796 0.006917848 0.006492405
v 0.003098785 0.0134899 0.024832
v 0.003098746 0.0360081 0.024832
v 0.00309881 -0.0009697818 0.005126705
v 0.003098781 0.01600282 0.02683531
v 0.00309875 0.0338967 0.0267185
v 0.003098753 0.03171046 0.0145551
v 0.003098751 0.03318923 0.01478901
v 0.003098796 0.006917839 -0.001297293
v 0.00309881 -0.0009697818 -0.006203699
v 0.003098817 -0.004669771 -0.006203699
v 0.003098817 -0.004669771 0.003700409
v 0.003098774 0.01994613 0.02821473
v 0.003098756 0.0299763 0.02821473
v 0.003098748 0.034845 0.01460686
v 0.003098731 0.04418036 0.0166547
v 0.003098745 0.03634379 0.01373538
v 0.003098743 0.03761575 0.01257654
v 0.00309874 0.03891187 0.010816
v 0.003098727 0.046836 0.005909204
v 0.003098736 0.04141295 0.005909204
v 0.003098725 0.04795476 0.002501802
v 0.003098737 0.04077782 0.002501855
v 0.003098739 0.03999263 0.00328701
v 0.003098737 0.04077782 0.005909204
v 0.003098739 0.03999263 0.005124006
v 0.003098723 0.04873996 0.005124101
v 0.003098723 0.04873996 0.00328701
v 0.003098725 0.04795476 0.005909204
vt 0.3589388 0.60193
vt 0.402063 0.6173811
vt 0.3557266 0.5833839
vt 0.4020656 0.6703304
vt 0.4067743 0.6232901
vt 0.4065011 0.6653654
vt 0.3778996 0.660226
vt 0.3784495 0.6637028
vt 0.3406233 0.6019314
vt 0.3290853 0.5833858
vt 0.3290841 0.5746862
vt 0.352372 0.5746843
vt 0.4100181 0.632562
vt 0.4100192 0.6561469
vt 0.3780208 0.667596
vt 0.382837 0.6895493
vt 0.3759711 0.6711203
vt 0.373246 0.6741117
vt 0.3691058 0.6771597
vt 0.3575668 0.6957955
vt 0.3575663 0.6830421
vt 0.3495537 0.6984267
vt 0.3495532 0.6815486
vt 0.3513995 0.6797022
vt 0.3575663 0.6815481
vt 0.3557196 0.679702
vt 0.3557207 0.7002732
vt 0.3514002 0.7002732
vt 0.3575666 0.6984267
vt 0.01606523 0.7041424
vt 0.01095353 0.6769643
vt 0.01092492 0.7041381
vt 0.01609384 0.6769702
vt 0.01606368 0.7107976
vt 0.01098763 0.6509526
vt 0.01612638 0.6509593
vt 0.006634579 0.7041381
vt 0.001490698 0.7107952
vt 0.001489029 0.7206629
vt 0.01606368 0.7206636
vt 0.001488433 0.7442492
vt 0.01606201 0.7442499
vt 0.001488433 0.7540734
vt 0.01606201 0.7540734
vt 0.00148748 0.761631
vt 0.01606201 0.761631
vt 0.00148748 0.8191075
vt 0.01606201 0.8191075
vt 0.001491652 0.7041373
vt 0.006635533 0.6769485
vt 0.001492367 0.6769485
vt 0.006638155 0.6509184
vt 0.001494752 0.6509184
vt 0.5116477 0.8928735
vt 0.5081623 0.8877211
vt 0.508163 0.8928735
vt 0.511647 0.8877211
vt 0.5730784 0.8928735
vt 0.5730784 0.8782699
vt 0.511647 0.8834234
vt 0.5116477 0.8782699
vt 0.5081615 0.8834225
vt 0.508163 0.878269
vt 0.5046785 0.8928735
vt 0.5046778 0.887722
vt 0.501359 0.887722
vt 0.5013604 0.892874
vt 0.4980416 0.892875
vt 0.4980409 0.8877225
vt 0.491405 0.8928764
vt 0.4914043 0.8877234
vt 0.4784307 0.8928775
vt 0.4784298 0.8877258
vt 0.5046771 0.883422
vt 0.5046785 0.8782682
vt 0.5013578 0.8834199
vt 0.5013599 0.8782661
vt 0.4980388 0.8834176
vt 0.4980409 0.8782638
vt 0.4914002 0.8834136
vt 0.4914036 0.87826
vt 0.4784262 0.8782498
vt 0.4784229 0.8834033
vt 0.649097 0.482394
vt 0.6345239 0.500711
vt 0.649097 0.500711
vt 0.6345239 0.482394
vt 0.1795477 0.3922576
vt 0.1649741 0.4140999
vt 0.1795477 0.4140999
vt 0.1649741 0.3922576
vt 0.9546494 0.6749412
vt 0.9694982 0.6654412
vt 0.9546494 0.6654412
vt 0.9694982 0.6749412
vt 0.5087634 0.2845753
vt 0.5176281 0.2994237
vt 0.5176281 0.2845753
vt 0.5087634 0.2994237
vt 0.1651381 0.4393184
vt 0.1797106 0.4160288
vt 0.1651381 0.4160288
vt 0.1797106 0.4393171
vt 0.2413532 0.6863562
vt 0.2582296 0.681214
vt 0.2413532 0.681214
vt 0.2582296 0.6863562
vt 0.2608412 0.681214
vt 0.2608412 0.6863562
vt 0.2651609 0.681214
vt 0.2651609 0.6863562
vt 0.2677719 0.681214
vt 0.2677719 0.6863562
vt 0.2692654 0.681214
vt 0.2692654 0.6863562
vt 0.2387417 0.6863562
vt 0.2387417 0.681214
vt 0.234423 0.6863562
vt 0.234423 0.681214
vt 0.2318111 0.6863562
vt 0.2318116 0.681214
vt 0.2291809 0.6863562
vt 0.2291809 0.681214
vt 0.3289434 0.3905525
vt 0.3340856 0.3736748
vt 0.3289434 0.3736748
vt 0.3340856 0.3905525
vt 0.3340856 0.3710642
vt 0.3289434 0.3710642
vt 0.3340856 0.3667445
vt 0.3289434 0.3667445
vt 0.3340856 0.3641341
vt 0.3289434 0.3641341
vt 0.3340856 0.3626398
vt 0.3289434 0.3626398
vt 0.3289434 0.3931631
vt 0.3340856 0.3931631
vt 0.3289434 0.3974828
vt 0.3340856 0.3974828
vt 0.3289434 0.4000938
vt 0.3340856 0.4000938
vt 0.3289434 0.402724
vt 0.3340856 0.402724
vt 0.5173456 0.6728893
vt 0.5118297 0.6701431
vt 0.5159954 0.6742566
vt 0.5204936 0.6613693
vt 0.514088 0.6742683
vt 0.5118423 0.6720505
vt 0.523893 0.6662588
vt 0.5329117 0.6691249
vt 0.5336884 0.6826153
vt 0.5246598 0.665482
vt 0.524647 0.6635751
vt 0.5224009 0.6613577
vt 0.5366282 0.6696661
vt 0.5395805 0.6695102
vt 0.5424554 0.6687304
vt 0.5535516 0.6824973
vt 0.5446774 0.6669258
vt 0.546177 0.6648355
vt 0.1696948 0.8541912
vt 0.1888355 0.8573251
vt 0.1888355 0.8541912
vt 0.1696948 0.8573251
vt 0.8104867 0.627241
vt 0.8148502 0.6466188
vt 0.7994119 0.6410238
vt 0.7971739 0.6392392
vt 0.800788 0.6436651
vt 0.8015721 0.646516
vt 0.8018384 0.6502626
vt 0.808844 0.664663
vt 0.8009673 0.659685
vt 0.7969166 0.6640511
vt 0.8073409 0.6706392
vt 0.8092024 0.6702197
vt 0.8104689 0.66569
vt 0.8108886 0.6675509
vt 0.7964967 0.6621895
vt 0.8000448 0.6591016
vt 0.7981833 0.6595211
vt 0.7948111 0.6382214
vt 0.3589388 1.60193
vt 0.402063 1.617381
vt 0.4020656 1.67033
vt 0.3557266 1.583384
vt 0.4067743 1.62329
vt 0.4065011 1.665365
vt 0.3778996 1.660226
vt 0.3784495 1.663703
vt 0.3406233 1.601931
vt 0.3290853 1.583386
vt 0.3290841 1.574686
vt 0.352372 1.574684
vt 0.4100181 1.632562
vt 0.4100192 1.656147
vt 0.3780208 1.667596
vt 0.382837 1.689549
vt 0.3759711 1.67112
vt 0.373246 1.674112
vt 0.3691058 1.67716
vt 0.3575668 1.695796
vt 0.3575663 1.683042
vt 0.3495537 1.698427
vt 0.3495532 1.681549
vt 0.3513995 1.679702
vt 0.3575663 1.681548
vt 0.3557196 1.679702
vt 0.3557207 1.700273
vt 0.3514002 1.700273
vt 0.3575666 1.698427
vn -1 -1.737548E-06 0
vn -1 -1.745588E-06 0
vn -1 -1.748026E-06 0
vn -1 -1.731561E-06 0
vn -1 -1.744801E-06 0
vn -1 -1.729797E-06 2.189314E-07
vn -1 -1.701589E-06 0
vn -1 -1.683068E-06 0
vn -1 -1.738046E-06 0
vn -1 -1.758699E-06 0
vn -1 -1.772035E-06 0
vn -1 -1.772035E-06 0
vn -1 -1.733228E-06 -2.256864E-07
vn -1 -1.723335E-06 -1.334386E-07
vn -1 -1.771107E-06 0
vn -1 -1.716645E-06 0
vn -1 -1.73081E-06 1.543478E-07
vn -1 -1.669568E-06 0
vn -1 -1.74259E-06 0
vn -1 -1.76912E-06 0
vn -1 -1.768447E-06 0
vn -1 -1.906701E-06 0
vn -1 -1.674304E-06 0
vn -1 -1.593975E-06 0
vn -1 -1.801654E-06 0
vn -1 -1.518206E-06 0
vn -1 -1.911852E-06 0
vn -1 -2.27731E-06 0
vn -1 -1.598329E-06 6.790628E-07
vn 0 0.6870746 0.726587
vn 0 0.8709383 0.4913923
vn -3.296299E-06 0.6802021 0.7330247
vn 0 0.8709385 0.4913921
vn -1.638938E-06 0.5200393 0.8541424
vn 0 0.9707924 0.2399214
vn 0 0.9707924 0.2399214
vn -1.611711E-06 0.6802004 0.7330262
vn -1.163966E-06 0.5200389 0.8541425
vn -5.579229E-07 0.181287 0.9834303
vn -5.57922E-07 0.1812867 0.9834303
vn 5.153739E-07 -0.1674615 0.9858786
vn 5.153747E-07 -0.1674618 0.9858786
vn 1.488334E-06 -0.4836074 0.8752851
vn 1.488335E-06 -0.4836076 0.8752849
vn 2.219236E-06 -0.721101 0.6928299
vn 2.120305E-06 -0.7211012 0.6928298
vn 1.436743E-06 -0.8062268 0.5916065
vn 1.240609E-06 -0.8062269 0.5916064
vn 0 0.6870745 0.726587
vn 0 0.8709384 0.4913922
vn 0 0.8709383 0.4913923
vn 0 0.9707924 0.2399214
vn 0 0.9707924 0.2399214
vn 0 0.2334744 -0.9723629
vn 0 0.02365209 -0.9997203
vn 0 0.02365178 -0.9997203
vn -9.999574E-07 0.2589684 -0.9658858
vn -4.505355E-07 0.3092631 -0.9509766
vn -5.716261E-07 0.309263 -0.9509766
vn -1.138668E-06 0.2589681 -0.9658859
vn 0 0.2334746 -0.9723629
vn 0 0.02365178 -0.9997203
vn 0 0.02365208 -0.9997203
vn 0 -0.3127827 -0.9498248
vn 0 -0.3127823 -0.9498249
vn 0 -0.5913916 -0.8063846
vn 0 -0.5913917 -0.8063844
vn 0 -0.7429988 -0.6692927
vn 0 -0.7429987 -0.6692929
vn 0 -0.850951 -0.5252453
vn 0 -0.8509508 -0.5252452
vn 0 -0.8909369 -0.4541273
vn 0 -0.8909368 -0.4541273
vn 0 -0.3127884 -0.9498228
vn 2.761222E-06 -0.3127847 -0.9498241
vn 6.074636E-06 -0.591399 -0.8063791
vn 1.11238E-05 -0.591393 -0.8063836
vn 1.226268E-05 -0.7430058 -0.6692849
vn 1.784161E-05 -0.7430002 -0.6692913
vn 1.727127E-05 -0.8509531 -0.5252417
vn 2.290534E-05 -0.8509499 -0.525247
vn 4.765529E-06 -0.8909341 -0.4541327
vn 0 -0.8909333 -0.4541343
vn -6.583639E-07 1 -7.004736E-07
vn -8.804199E-07 1 -5.238029E-07
vn -1.538784E-06 1 0
vn 0 1 -1.224277E-06
vn -5.083352E-07 0.5281895 -0.8491266
vn -3.044341E-07 0.5281893 -0.8491266
vn 0 0.5281892 -0.8491268
vn -8.127694E-07 0.5281895 -0.8491265
vn 5.534806E-07 -0.3596871 0.933073
vn 5.534806E-07 -0.3596871 0.933073
vn 5.534806E-07 -0.3596871 0.933073
vn 5.534806E-07 -0.3596871 0.933073
vn 0 0 -1
vn 0 0 -1
vn 0 0 -1
vn 0 0 -1
vn 1.538784E-06 -1 0
vn 1.538784E-06 -1 0
vn 1.538784E-06 -1 0
vn 1.538784E-06 -1 0
vn 0 0.3826866 -0.9238782
vn 0 -0.3826866 -0.9238782
vn 0 0.3826858 -0.9238785
vn 0 -0.382686 -0.9238785
vn 0 -0.9238808 -0.3826805
vn 0 -0.9238806 -0.3826807
vn 0 -0.9238819 0.3826777
vn -2.339338E-06 -0.9238801 0.3826818
vn -9.983434E-07 -0.3826895 0.923877
vn -3.337647E-06 -0.3826813 0.9238805
vn 0 0 1
vn 0 0 1
vn 0 0.9238808 -0.3826804
vn 0 0.9238806 -0.3826808
vn 1.668994E-05 0.9238642 0.3827204
vn 2.652298E-06 0.9238814 0.382679
vn 1.069894E-05 0.382664 0.9238876
vn -3.337728E-06 0.3826905 0.9238766
vn 0 0 1
vn 0 0 1
vn 2.444164E-06 0.3826852 -0.9238788
vn 1.971485E-05 -0.3826865 -0.9238782
vn 1.572575E-05 -0.3826813 -0.9238805
vn 0 0.3826866 -0.9238782
vn 6.433188E-06 -0.9238787 -0.3826855
vn 0 -0.9238744 -0.3826959
vn 0 -0.9238818 0.382678
vn 2.339336E-06 -0.9238802 0.3826816
vn 9.983415E-07 -0.3826888 0.9238773
vn 3.337652E-06 -0.3826818 0.9238801
vn 0 0 1
vn 0 0 1
vn 0 0.9238806 -0.3826807
vn 0 0.9238808 -0.3826804
vn -1.668995E-05 0.9238641 0.3827207
vn -4.991661E-06 0.9238798 0.3826827
vn -1.169724E-05 0.3826634 0.9238878
vn 0 0.3826839 0.9238793
vn 0 0 1
vn 0 0 1
vn -1 -1.767273E-06 0
vn -1 -1.811536E-06 0
vn -1 -1.875731E-06 0
vn -1 -1.790674E-06 0
vn -1 -1.897758E-06 0
vn -1 -1.897758E-06 0
vn -1 -1.749948E-06 0
vn -1 -1.754965E-06 0
vn -1 -1.750436E-06 0
vn -1 -1.883849E-06 0
vn -1 -1.897789E-06 0
vn -1 -1.897758E-06 0
vn -1 -1.750962E-06 0
vn -1 -1.749586E-06 0
vn -1 -1.698237E-06 0
vn -1 -1.743528E-06 0
vn -1 -1.738001E-06 0
vn -1 -1.819493E-06 0
vn -9.64839E-06 0.9225791 -0.3858081
vn -9.648388E-06 0.9225791 -0.3858081
vn -9.648387E-06 0.9225791 -0.3858081
vn -9.64839E-06 0.9225791 -0.3858081
vn 1 1.715326E-06 0
vn 1 1.716645E-06 0
vn 1 1.771106E-06 0
vn 1 1.683068E-06 0
vn 1 1.73081E-06 -1.543478E-07
vn 1 1.669568E-06 0
vn 1 1.74259E-06 0
vn 1 1.737705E-06 0
vn 1 1.772001E-06 0
vn 1 1.679684E-06 0
vn 1 1.915065E-06 1.039942E-07
vn 1 2.05708E-06 0
vn 1 1.740804E-06 -1.606656E-07
vn 1 2.277365E-06 0
vn 1 1.593975E-06 0
vn 1 1.801617E-06 0
vn 1 1.518243E-06 0
vn 1 1.59877E-06 0
vn 1 1.771357E-06 0
vn 1 1.750237E-06 0
vn 1 1.742652E-06 0
vn 1 1.749215E-06 0
vn 1 1.744667E-06 0
vn 1 1.73341E-06 0
vn 1 1.701032E-06 0
vn 1 1.684646E-06 0
vn 1 1.775831E-06 0
vn 1 1.724582E-06 0
vn 1 1.691488E-06 0
vn 1 1.691488E-06 0
vn 1 1.733028E-06 0
vn 1 1.753048E-06 2.112914E-07
vn 1 1.776887E-06 0
vn 1 1.750436E-06 0
vn 1 1.749587E-06 0
vn 1 1.750961E-06 0
vn 1 1.764027E-06 0
vn 1 1.787891E-06 0
vn 1 1.686019E-06 0
vn 1 1.816284E-06 0
vn 1 1.775626E-06 0
vn 1 1.794253E-06 0
vn 1 1.51054E-06 1.159499E-07
vn 1 1.897758E-06 0
vn 1 1.879974E-06 0
vn 1 1.897758E-06 0
vn 1 1.864717E-06 0
g m1a_socom_hammer_LOD0_0
f 3/3/3 2/2/2 1/1/1
f 4/4/4 1/1/1 2/2/2
f 2/2/2 5/5/5 4/4/4
f 6/6/6 4/4/4 5/5/5
f 7/7/7 1/1/1 4/4/4
f 8/8/8 7/7/7 4/4/4
f 1/1/1 9/9/9 3/3/3
f 10/10/10 3/3/3 9/9/9
f 10/10/10 11/11/11 3/3/3
f 12/12/12 3/3/3 11/11/11
f 5/5/5 13/13/13 6/6/6
f 14/14/14 6/6/6 13/13/13
f 15/15/15 8/8/8 4/4/4
f 16/16/16 15/15/15 4/4/4
f 16/16/16 17/17/17 15/15/15
f 18/18/18 17/17/17 16/16/16
f 19/19/19 18/18/18 16/16/16
f 20/20/20 19/19/19 16/16/16
f 20/20/20 21/21/21 19/19/19
f 20/20/20 22/22/22 21/21/21
f 23/23/23 21/21/21 22/22/22
f 21/21/21 23/23/23 24/24/24
f 21/21/21 24/24/24 25/25/25
f 26/26/26 25/25/25 24/24/24
f 20/20/20 27/27/27 22/22/22
f 28/28/28 22/22/22 27/27/27
f 20/20/20 29/29/29 27/27/27
f 32/32/32 31/31/31 30/30/30
f 33/33/33 30/30/30 31/31/31
f 34/34/34 32/32/32 30/30/30
f 31/31/31 35/35/35 33/33/33
f 36/36/36 33/33/33 35/35/35
f 32/32/32 34/34/34 37/37/37
f 38/38/38 37/37/37 34/34/34
f 38/38/38 34/34/34 39/39/39
f 40/40/40 39/39/39 34/34/34
f 39/39/39 40/40/40 41/41/41
f 42/42/42 41/41/41 40/40/40
f 41/41/41 42/42/42 43/43/43
f 44/44/44 43/43/43 42/42/42
f 43/43/43 44/44/44 45/45/45
f 46/46/46 45/45/45 44/44/44
f 45/45/45 46/46/46 47/47/47
f 48/48/48 47/47/47 46/46/46
f 49/49/49 37/37/37 38/38/38
f 37/37/37 49/49/49 50/50/50
f 51/51/51 50/50/50 49/49/49
f 50/50/50 51/51/51 52/52/52
f 53/53/53 52/52/52 51/51/51
f 56/56/56 55/55/55 54/54/54
f 57/57/57 54/54/54 55/55/55
f 54/54/54 57/57/57 58/58/58
f 58/58/58 57/57/57 59/59/59
f 60/60/60 59/59/59 57/57/57
f 61/61/61 59/59/59 60/60/60
f 60/60/60 62/62/62 61/61/61
f 63/63/63 61/61/61 62/62/62
f 56/56/56 64/64/64 55/55/55
f 65/65/65 55/55/55 64/64/64
f 65/65/65 64/64/64 66/66/66
f 67/67/67 66/66/66 64/64/64
f 67/67/67 68/68/68 66/66/66
f 69/69/69 66/66/66 68/68/68
f 68/68/68 70/70/70 69/69/69
f 71/71/71 69/69/69 70/70/70
f 70/70/70 72/72/72 71/71/71
f 73/73/73 71/71/71 72/72/72
f 62/62/62 74/74/74 63/63/63
f 75/75/75 63/63/63 74/74/74
f 74/74/74 76/76/76 75/75/75
f 77/77/77 75/75/75 76/76/76
f 76/76/76 78/78/78 77/77/77
f 79/79/79 77/77/77 78/78/78
f 78/78/78 80/80/80 79/79/79
f 81/81/81 79/79/79 80/80/80
f 81/81/81 80/80/80 82/82/82
f 83/83/83 82/82/82 80/80/80
f 86/86/86 85/85/85 84/84/84
f 87/87/87 84/84/84 85/85/85
f 90/90/90 89/89/89 88/88/88
f 91/91/91 88/88/88 89/89/89
f 94/94/94 93/93/93 92/92/92
f 95/95/95 92/92/92 93/93/93
f 98/98/98 97/97/97 96/96/96
f 99/99/99 96/96/96 97/97/97
f 102/102/102 101/101/101 100/100/100
f 103/103/103 100/100/100 101/101/101
f 106/106/106 105/105/105 104/104/104
f 107/107/107 104/104/104 105/105/105
f 105/105/105 108/108/108 107/107/107
f 109/109/109 107/107/107 108/108/108
f 108/108/108 110/110/110 109/109/109
f 111/111/111 109/109/109 110/110/110
f 110/110/110 112/112/112 111/111/111
f 113/113/113 111/111/111 112/112/112
f 112/112/112 114/114/114 113/113/113
f 115/115/115 113/113/113 114/114/114
f 104/104/104 116/116/116 106/106/106
f 117/117/117 106/106/106 116/116/116
f 116/116/116 118/118/118 117/117/117
f 119/119/119 117/117/117 118/118/118
f 118/118/118 120/120/120 119/119/119
f 121/121/121 119/119/119 120/120/120
f 120/120/120 122/122/122 121/121/121
f 123/123/123 121/121/121 122/122/122
f 126/126/126 125/125/125 124/124/124
f 127/127/127 124/124/124 125/125/125
f 125/125/125 126/126/126 128/128/128
f 129/129/129 128/128/128 126/126/126
f 128/128/128 129/129/129 130/130/130
f 131/131/131 130/130/130 129/129/129
f 130/130/130 131/131/131 132/132/132
f 133/133/133 132/132/132 131/131/131
f 132/132/132 133/133/133 134/134/134
f 135/135/135 134/134/134 133/133/133
f 124/124/124 127/127/127 136/136/136
f 137/137/137 136/136/136 127/127/127
f 136/136/136 137/137/137 138/138/138
f 139/139/139 138/138/138 137/137/137
f 138/138/138 139/139/139 140/140/140
f 141/141/141 140/140/140 139/139/139
f 140/140/140 141/141/141 142/142/142
f 143/143/143 142/142/142 141/141/141
f 146/146/146 145/145/145 144/144/144
f 147/147/147 144/144/144 145/145/145
f 146/146/146 148/148/148 145/145/145
f 149/149/149 145/145/145 148/148/148
f 144/144/144 147/147/147 150/150/150
f 150/150/150 151/151/151 144/144/144
f 152/152/152 144/144/144 151/151/151
f 153/153/153 150/150/150 147/147/147
f 154/154/154 153/153/153 147/147/147
f 155/155/155 154/154/154 147/147/147
f 151/151/151 156/156/156 152/152/152
f 156/156/156 157/157/157 152/152/152
f 157/157/157 158/158/158 152/152/152
f 159/159/159 152/152/152 158/158/158
f 160/160/160 159/159/159 158/158/158
f 161/161/161 159/159/159 160/160/160
f 164/164/164 163/163/163 162/162/162
f 165/165/165 162/162/162 163/163/163
f 168/168/168 167/167/167 166/166/166
f 169/169/169 168/168/168 166/166/166
f 170/170/170 167/167/167 168/168/168
f 171/171/171 167/167/167 170/170/170
f 172/172/172 167/167/167 171/171/171
f 167/167/167 172/172/172 173/173/173
f 174/174/174 173/173/173 172/172/172
f 175/175/175 173/173/173 174/174/174
f 176/176/176 173/173/173 175/175/175
f 177/177/177 173/173/173 176/176/176
f 178/178/178 173/173/173 177/177/177
f 179/179/179 178/178/178 177/177/177
f 180/180/180 175/175/175 174/174/174
f 181/181/181 180/180/180 174/174/174
f 182/182/182 180/180/180 181/181/181
f 183/183/183 169/169/169 166/166/166
f 186/186/186 185/185/185 184/184/184
f 187/187/187 184/184/184 185/185/185
f 185/185/185 186/186/186 188/188/188
f 189/189/189 188/188/188 186/186/186
f 184/184/184 190/190/190 186/186/186
f 190/190/190 191/191/191 186/186/186
f 184/184/184 187/187/187 192/192/192
f 193/193/193 192/192/192 187/187/187
f 193/193/193 187/187/187 194/194/194
f 195/195/195 194/194/194 187/187/187
f 188/188/188 189/189/189 196/196/196
f 197/197/197 196/196/196 189/189/189
f 191/191/191 198/198/198 186/186/186
f 198/198/198 199/199/199 186/186/186
f 200/200/200 199/199/199 198/198/198
f 200/200/200 201/201/201 199/199/199
f 201/201/201 202/202/202 199/199/199
f 202/202/202 203/203/203 199/199/199
f 204/204/204 203/203/203 202/202/202
f 203/203/203 204/204/204 205/205/205
f 206/206/206 205/205/205 204/204/204
f 206/206/206 204/204/204 207/207/207
f 204/204/204 208/208/208 207/207/207
f 209/209/209 207/207/207 208/208/208
f 203/203/203 205/205/205 210/210/210
f 211/211/211 210/210/210 205/205/205
f 212/212/212 203/203/203 210/210/210
