g hammer
v -0.000630455 0.008831177 0.0005930924
v -0.001058464 0.00817749 0.0008425903
v -0.001257172 0.00817749 9.857893E-05
v -0.0007633972 0.008831177 9.708404E-05
v -0.0002681351 0.008831177 0.0009553861
v -0.000513916 0.00817749 0.001387153
v 0.0002278519 0.008831177 0.001088355
v 0.0002301025 0.00817749 0.001585855
v 0.000723114 0.008831177 0.0009553861
v 0.0009740829 0.00817749 0.001387153
v 0.001085396 0.008831177 0.0005930924
v 0.001518669 0.00817749 0.0008425903
v 0.001218376 0.008831177 9.708404E-05
v 0.00171814 0.00817749 9.857893E-05
v 0.001085396 0.008831177 -0.0003981757
v 0.001518669 0.00817749 -0.0006454324
v 0.000723114 0.008831177 -0.0007604718
v 0.0009740829 0.00817749 -0.001189997
v 0.0002278519 0.008831177 -0.0008934378
v 0.0002301025 0.00817749 -0.001389446
v -0.0002681351 0.008831177 -0.0007604718
v -0.000513916 0.00817749 -0.001189997
v 0.0002301025 0.00817749 -0.001389446
v 0.0002278519 0.008831177 -0.0008934378
v -0.000630455 0.008831177 -0.0003981757
v -0.001058464 0.00817749 -0.0006454324
v -0.001058464 0.00817749 0.0008425903
v -0.00129303 -0.02627869 0.000741744
v -0.001257172 0.00817749 9.857893E-05
v -0.000513916 0.00817749 0.001387153
v -5.226135E-06 -0.02627869 0.001485012
v 0.0002301025 0.00817749 0.001585855
v 0.0009740829 0.00817749 0.001387153
v 0.001283379 -0.02627869 0.000741744
v 0.001518669 0.00817749 0.0008425903
v 0.00171814 0.00817749 9.857893E-05
v -0.00129303 -0.02627869 -0.0007462787
v -0.001058464 0.00817749 -0.0006454324
v -0.000513916 0.00817749 -0.001189997
v -5.226135E-06 -0.02627869 -0.00149029
v 0.0002301025 0.00817749 -0.001389446
v 0.001283379 -0.02627869 -0.0007462787
v 0.001518669 0.00817749 -0.0006454324
v 0.0009740829 0.00817749 -0.001189997
v -5.226135E-06 -0.02627869 -0.00149029
v 0.0002301025 0.00817749 -0.001389446
v -0.0007633972 0.008831177 9.708404E-05
v 0.0002278519 0.008831177 0.001088355
v -0.000630455 0.008831177 0.0005930924
v -0.0002681351 0.008831177 0.0009553861
v -0.000630455 0.008831177 -0.0003981757
v -0.0002681351 0.008831177 -0.0007604718
v 0.0002278519 0.008831177 -0.0008934378
v 0.000723114 0.008831177 -0.0007604718
v 0.001085396 0.008831177 -0.0003981757
v 0.001218376 0.008831177 9.708404E-05
v 0.001085396 0.008831177 0.0005930924
v 0.000723114 0.008831177 0.0009553861
vt 0.0517 0.3073
vt 0.0517 0.3027
vt 0.0498 0.3027
vt 0.0498 0.3073
vt 0.0537 0.3073
vt 0.0537 0.3027
vt 0.0556 0.3073
vt 0.0556 0.3027
vt 0.0575 0.3073
vt 0.0575 0.3027
vt 0.0595 0.3073
vt 0.0595 0.3027
vt 0.0614 0.3073
vt 0.0614 0.3027
vt 0.0633 0.3073
vt 0.0634 0.3027
vt 0.065 0.3073
vt 0.0654 0.3027
vt 0.0666 0.3073
vt 0.0675 0.3027
vt 0.0462 0.3073
vt 0.0458 0.3027
vt 0.0437 0.3027
vt 0.0447 0.3073
vt 0.048 0.3073
vt 0.0478 0.3027
vt 0.0799 0.6691
vt 0.0798 0.4774
vt 0.0779 0.6691
vt 0.0819 0.6691
vt 0.0838 0.4774
vt 0.0839 0.6691
vt 0.0859 0.6691
vt 0.0879 0.4774
vt 0.0879 0.6691
vt 0.0898 0.6691
vt 0.0758 0.4774
vt 0.0759 0.6691
vt 0.0739 0.6691
vt 0.0717 0.4774
vt 0.0717 0.6691
vt 0.092 0.4774
vt 0.0919 0.6691
vt 0.0939 0.6691
vt 0.096 0.4774
vt 0.0961 0.6691
vt 0.5677 0.2367
vt 0.5648 0.2309
vt 0.5663 0.2359
vt 0.5652 0.2338
vt 0.5691 0.2359
vt 0.5702 0.2338
vt 0.5706 0.2309
vt 0.5702 0.2281
vt 0.5691 0.226
vt 0.5677 0.2252
vt 0.5663 0.226
vt 0.5652 0.2281
vn -0.6905659 0.6039068 0.3980142
vn -0.6902095 0.6039087 0.3986291
vn -0.7977379 0.6030043 0.000156575
vn -0.7977384 0.6030037 -0.0003468775
vn -0.3984434 0.6049663 0.6893899
vn -0.3976122 0.6049685 0.6898678
vn -0.0003528226 0.6058992 0.7955413
vn 0.0003667039 0.6059009 0.79554
vn 0.3970247 0.6069315 0.6884807
vn 0.397453 0.6069327 0.6882325
vn 0.6878024 0.6075196 0.3973008
vn 0.6879002 0.6075196 0.3971312
vn 0.79439 0.6074079 -0.000345585
vn 0.7943895 0.6074086 0.0001551313
vn 0.688189 0.6066115 -0.398018
vn 0.6886088 0.6066135 -0.3972884
vn 0.3975863 0.6055533 -0.6893696
vn 0.3982952 0.6055555 -0.6889583
vn -0.0003546326 0.604516 -0.796593
vn 0.0003683029 0.6045178 -0.7965916
vn -0.3990055 0.6035806 -0.690279
vn -0.3984552 0.6035818 -0.6905957
vn 0.0003683029 0.6045178 -0.7965916
vn -0.0003546326 0.604516 -0.796593
vn -0.6909505 0.6029924 -0.3987325
vn -0.6909201 0.6029924 -0.3987852
vn -0.8657334 0.004428793 0.5004858
vn -0.8669353 -0.002122759 0.4984163
vn -0.9999774 0.006724143 0.0004813227
vn -0.4985986 0.000777913 0.8668327
vn -0.002314254 -0.0094963 0.9999523
vn 0.001127474 -0.002934416 0.9999951
vn 0.5002655 -0.006032933 0.8658511
vn 0.8656975 -0.01395769 0.5003728
vn 0.8660333 -0.007377073 0.499932
vn 0.999976 -0.006912394 0.0004814457
vn -0.8662373 0.0007996863 -0.4996319
vn -0.8661379 0.007359039 -0.499751
vn -0.4994155 0.005856252 -0.8663428
vn -0.002310102 -0.00363402 -0.9999907
vn 0.001133022 0.002918978 -0.9999951
vn 0.8650244 -0.01101455 -0.5016088
vn 0.8664655 -0.004455716 -0.499217
vn 0.5010968 -0.0009714917 -0.8653907
vn -0.002310102 -0.00363402 -0.9999907
vn 0.001133022 0.002918978 -0.9999951
vn 0 1 0
vn 0 1 0
vn 0 1 0
vn 0 1 0
vn 0 1 0
vn 0 1 0
vn 0 1 0
vn 0 1 0
vn 0 1 0
vn 0 1 0
vn 0 1 0
vn 0 1 0
g hammer_0
f 3/3/3 2/2/2 1/1/1
f 4/4/4 3/3/3 1/1/1
f 1/1/1 2/2/2 5/5/5
f 2/2/2 6/6/6 5/5/5
f 5/5/5 6/6/6 7/7/7
f 6/6/6 8/8/8 7/7/7
f 7/7/7 8/8/8 9/9/9
f 8/8/8 10/10/10 9/9/9
f 9/9/9 10/10/10 11/11/11
f 10/10/10 12/12/12 11/11/11
f 11/11/11 12/12/12 13/13/13
f 12/12/12 14/14/14 13/13/13
f 13/13/13 14/14/14 15/15/15
f 14/14/14 16/16/16 15/15/15
f 15/15/15 16/16/16 17/17/17
f 16/16/16 18/18/18 17/17/17
f 17/17/17 18/18/18 19/19/19
f 18/18/18 20/20/20 19/19/19
f 23/23/23 22/22/22 21/21/21
f 24/24/24 23/23/23 21/21/21
f 21/21/21 22/22/22 25/25/25
f 22/22/22 26/26/26 25/25/25
f 25/25/25 26/26/26 4/4/4
f 26/26/26 3/3/3 4/4/4
f 29/29/29 28/28/28 27/27/27
f 27/27/27 28/28/28 30/30/30
f 28/28/28 31/31/31 30/30/30
f 30/30/30 31/31/31 32/32/32
f 32/32/32 31/31/31 33/33/33
f 31/31/31 34/34/34 33/33/33
f 33/33/33 34/34/34 35/35/35
f 35/35/35 34/34/34 36/36/36
f 28/28/28 29/29/29 37/37/37
f 38/38/38 37/37/37 29/29/29
f 38/38/38 39/39/39 37/37/37
f 40/40/40 37/37/37 39/39/39
f 41/41/41 40/40/40 39/39/39
f 34/34/34 42/42/42 36/36/36
f 36/36/36 42/42/42 43/43/43
f 43/43/43 42/42/42 44/44/44
f 42/42/42 45/45/45 44/44/44
f 44/44/44 45/45/45 46/46/46
f 49/49/49 48/48/48 47/47/47
f 50/50/50 48/48/48 49/49/49
f 47/47/47 48/48/48 51/51/51
f 51/51/51 48/48/48 52/52/52
f 52/52/52 48/48/48 53/53/53
f 53/53/53 48/48/48 54/54/54
f 54/54/54 48/48/48 55/55/55
f 55/55/55 48/48/48 56/56/56
f 56/56/56 48/48/48 57/57/57
f 57/57/57 48/48/48 58/58/58
