g spring_18
v 6.454356E-08 -0.04020107 0.004227161
v -0.001940806 -0.04020107 0.003821239
v -0.001940817 -8.163452E-06 0.003821239
v 6.278685E-08 -8.201599E-06 0.004227161
v -0.003399033 -8.163452E-06 0.002658348
v -0.003399031 -0.04020107 0.002658348
v -0.004208263 -8.163452E-06 0.0009779166
v -0.004208262 -0.04020107 0.0009779166
v -0.004208263 -8.163452E-06 -0.0008872128
v -0.004208252 -0.04020107 -0.0008872223
v -0.003399023 -8.163452E-06 -0.002567634
v -0.003399021 -0.04020107 -0.002567634
v -0.001940798 -8.163452E-06 -0.003730526
v -0.001940796 -0.04020107 -0.003730526
v 7.709313E-08 -8.163452E-06 -0.004227219
v 8.361705E-08 -0.04020107 -0.004227219
v 0.001940944 -0.04020107 0.003821239
v 0.001940942 -8.201599E-06 0.003821239
v 0.00339916 -0.04020107 0.002658348
v 0.003399153 -8.201599E-06 0.002658348
v 0.004208419 -0.04020107 0.0009779166
v 0.004208413 -8.201599E-06 0.0009779166
v 0.0042084 -0.04020107 -0.0008872032
v 0.004208399 -8.201599E-06 -0.0008872032
v 0.00339916 -0.04020107 -0.002567634
v 0.003399158 -8.201599E-06 -0.002567634
v 0.001940944 -0.04020107 -0.003730526
v 0.001940942 -8.201599E-06 -0.003730526
v 8.361705E-08 -0.04020107 -0.004227219
v 7.709313E-08 -8.163452E-06 -0.004227219
v 0.003578231 -0.04022118 0.0008372879
v 0.004208419 -0.04020107 0.0009779166
v 0.0042084 -0.04020107 -0.0008872032
v 0.003578222 -0.04022118 -0.0007485389
v 0.00339916 -0.04020107 -0.002567634
v 0.002890165 -0.04022118 -0.002177315
v 0.001650312 -0.04022118 -0.003166065
v 0.001940944 -0.04020107 -0.003730526
v 8.361821E-08 -0.04022118 -0.003588371
v 8.361705E-08 -0.04020107 -0.004227219
v -0.001940796 -0.04020107 -0.003730526
v -0.001650135 -0.04022118 -0.003166065
v -0.002889988 -0.04022118 -0.002177315
v -0.003399021 -0.04020107 -0.002567634
v -0.003578035 -0.04022118 -0.0007485389
v -0.004208252 -0.04020107 -0.0008872223
v -0.004208262 -0.04020107 0.0009779166
v -0.003578054 -0.04022118 0.0008372879
v -0.003399031 -0.04020107 0.002658348
v -0.002889998 -0.04022118 0.002266083
v -0.001650145 -0.04022118 0.003254833
v -0.001940806 -0.04020107 0.003821239
v 8.361821E-08 -0.04022118 0.003599968
v 6.454356E-08 -0.04020107 0.004227161
v 0.001940944 -0.04020107 0.003821239
v 0.001650312 -0.04022118 0.003254833
v 0.002890165 -0.04022118 0.002266083
v 0.00339916 -0.04020107 0.002658348
vt 0.9117656 0.962114
vt 0.9117656 0.9569004
vt 0.8061312 0.9569004
vt 0.8061312 0.962114
vt 0.8061312 0.951997
vt 0.9117656 0.951997
vt 0.8061312 0.9470931
vt 0.9117656 0.9470931
vt 0.8061312 0.9421895
vt 0.9117656 0.9421895
vt 0.8061312 0.9372861
vt 0.9117656 0.9372861
vt 0.8061312 0.932382
vt 0.9117656 0.932382
vt 0.8061312 0.9271148
vt 0.9117656 0.9271148
vt 0.9117656 0.9673268
vt 0.8061312 0.9673269
vt 0.9117656 0.972231
vt 0.8061312 0.972231
vt 0.9117656 0.9771339
vt 0.8061312 0.9771339
vt 0.9117656 0.9820382
vt 0.8061312 0.9820381
vt 0.9117656 0.9869419
vt 0.8061312 0.9869417
vt 0.9117656 0.9918455
vt 0.8061312 0.9918455
vt 0.9117656 0.9971126
vt 0.8061312 0.9971126
vt 0.3936376 0.327046
vt 0.3942378 0.3243525
vt 0.38627 0.3243525
vt 0.386863 0.327046
vt 0.3790918 0.3278077
vt 0.38076 0.3299837
vt 0.3765356 0.3352774
vt 0.3741241 0.3340336
vt 0.374731 0.3423228
vt 0.3720017 0.3423207
vt 0.3741241 0.3506072
vt 0.3765356 0.3493686
vt 0.38076 0.3546625
vt 0.3790918 0.3568333
vt 0.386863 0.3576006
vt 0.38627 0.3602885
vt 0.3942378 0.3602885
vt 0.3936376 0.3576006
vt 0.4014167 0.3568333
vt 0.3997414 0.3546631
vt 0.4039638 0.3493686
vt 0.4063837 0.3506072
vt 0.4054385 0.3423228
vt 0.4081176 0.3423207
vt 0.4063837 0.3340336
vt 0.4039638 0.3352774
vt 0.3997414 0.3299837
vt 0.4014167 0.3278077
vn -2.519823E-07 0 1
vn -0.4256544 0 0.9048858
vn -0.4256559 0 0.9048851
vn -1.550651E-06 0 1
vn -0.7818348 0 0.6234857
vn -0.7818348 0 0.6234857
vn -0.9749295 -1.043676E-07 0.2225145
vn -0.9749295 -1.043676E-07 0.2225145
vn -0.9749282 -1.326413E-07 -0.2225197
vn -0.9749282 -1.326412E-07 -0.2225197
vn -0.7818325 0 -0.6234885
vn -0.7818325 0 -0.6234885
vn -0.445619 0 -0.8952228
vn -0.445619 0 -0.8952228
vn -6.756579E-07 0 -1
vn 9.302481E-07 0 -1
vn 0.4256554 0 0.9048853
vn 0.4256553 0 0.9048853
vn 0.7818312 1.089516E-07 0.6234902
vn 0.7818311 1.089516E-07 0.6234902
vn 0.9749286 1.287402E-07 0.222518
vn 0.9749286 1.287402E-07 0.222518
vn 0.9749277 0 -0.2225223
vn 0.9749277 0 -0.2225223
vn 0.7818338 0 -0.6234869
vn 0.7818338 0 -0.6234869
vn 0.4456212 0 -0.8952217
vn 0.44562 0 -0.8952222
vn 9.302481E-07 0 -1
vn -6.756579E-07 0 -1
vn 0.03033432 -0.9995157 0.006951158
vn 0.03034404 -0.9995157 0.006907577
vn 0.0303669 -0.9995149 -0.006901815
vn 0.0303514 -0.9995149 -0.006972274
vn 0.02453909 -0.9995091 -0.01947977
vn 0.02443165 -0.999509 -0.01961987
vn 0.01404083 -0.999499 -0.02836795
vn 0.01414739 -0.999499 -0.02831308
vn 0 -0.9995053 -0.03145293
vn 0 -0.9995053 -0.03145293
vn -0.01414719 -0.999499 -0.02831249
vn -0.01404031 -0.999499 -0.02836752
vn -0.02443036 -0.999509 -0.01961911
vn -0.02453799 -0.9995091 -0.01947874
vn -0.03034983 -0.9995151 -0.006971746
vn -0.03036529 -0.9995151 -0.00690145
vn -0.0303428 -0.9995157 0.00690714
vn -0.03033307 -0.9995157 0.006950732
vn -0.02448657 -0.999511 0.01944912
vn -0.02439241 -0.9995109 0.0195713
vn -0.01326015 -0.999501 0.02867055
vn -0.01355986 -0.9995013 0.02851676
vn 1.436174E-07 -0.9994867 0.0320366
vn -1.180616E-07 -0.9994867 0.03203659
vn 0.006700129 -0.9994642 0.03203605
vn 0.00670013 -0.9994642 0.03203605
vn 0.02439337 -0.9995109 0.01957203
vn 0.02448735 -0.9995109 0.01945008
g spring_18_0
f 3/3/3 2/2/2 1/1/1
f 4/4/4 3/3/3 1/1/1
f 3/3/3 5/5/5 2/2/2
f 5/5/5 6/6/6 2/2/2
f 5/5/5 7/7/7 6/6/6
f 7/7/7 8/8/8 6/6/6
f 7/7/7 9/9/9 8/8/8
f 9/9/9 10/10/10 8/8/8
f 9/9/9 11/11/11 10/10/10
f 11/11/11 12/12/12 10/10/10
f 11/11/11 13/13/13 12/12/12
f 13/13/13 14/14/14 12/12/12
f 13/13/13 15/15/15 14/14/14
f 15/15/15 16/16/16 14/14/14
f 4/4/4 1/1/1 17/17/17
f 18/18/18 4/4/4 17/17/17
f 18/18/18 17/17/17 19/19/19
f 20/20/20 18/18/18 19/19/19
f 20/20/20 19/19/19 21/21/21
f 22/22/22 20/20/20 21/21/21
f 22/22/22 21/21/21 23/23/23
f 24/24/24 22/22/22 23/23/23
f 24/24/24 23/23/23 25/25/25
f 26/26/26 24/24/24 25/25/25
f 26/26/26 25/25/25 27/27/27
f 28/28/28 26/26/26 27/27/27
f 28/28/28 27/27/27 29/29/29
f 30/30/30 28/28/28 29/29/29
f 33/33/33 32/32/32 31/31/31
f 34/34/34 33/33/33 31/31/31
f 35/35/35 33/33/33 34/34/34
f 36/36/36 35/35/35 34/34/34
f 35/35/35 36/36/36 37/37/37
f 38/38/38 35/35/35 37/37/37
f 38/38/38 37/37/37 39/39/39
f 40/40/40 38/38/38 39/39/39
f 41/41/41 40/40/40 39/39/39
f 42/42/42 41/41/41 39/39/39
f 41/41/41 42/42/42 43/43/43
f 44/44/44 41/41/41 43/43/43
f 44/44/44 43/43/43 45/45/45
f 46/46/46 44/44/44 45/45/45
f 47/47/47 46/46/46 45/45/45
f 48/48/48 47/47/47 45/45/45
f 49/49/49 47/47/47 48/48/48
f 50/50/50 49/49/49 48/48/48
f 49/49/49 50/50/50 51/51/51
f 52/52/52 49/49/49 51/51/51
f 52/52/52 51/51/51 53/53/53
f 54/54/54 52/52/52 53/53/53
f 55/55/55 54/54/54 53/53/53
f 56/56/56 55/55/55 53/53/53
f 55/55/55 56/56/56 57/57/57
f 58/58/58 55/55/55 57/57/57
f 58/58/58 57/57/57 31/31/31
f 32/32/32 58/58/58 31/31/31
