g silencer_aks74u_tochmash_pbs-4_545x39_LOD1
v 0.009517736 -0.1955144 0.01764893
v 0.005764473 -0.2415595 0.01103662
v -0.001392259 -0.2415595 0.01900399
v 0.01585013 -0.2415595 0.009520615
v 0.01676782 -0.2415595 -0.008636581
v 0.0118653 -0.2415595 -0.002961029
v 0.01858673 -0.2415595 0.006007703
v 0.005298381 -0.2415595 -0.0107512
v 0.005126644 -0.2415595 -0.01770555
v 0.01585013 -0.2415595 0.009520615
v 0.00679256 -0.2415595 -0.001307256
v 0.005764473 -0.2415595 0.01103662
v -0.005416391 -0.2415595 0.005576408
v -0.001392259 -0.2415595 0.01900399
v -0.008741983 -0.2415595 0.008603523
v -0.005126579 -0.2415595 0.01946783
v -0.01676784 -0.2415595 0.01039887
v -0.01300434 -0.2415595 -0.0002612776
v -0.01858665 -0.2415595 -0.004245512
v -0.006313355 -0.2415595 -0.01023016
v -0.009517686 -0.2415595 -0.01588664
v 0.002946006 -0.2415595 -0.006011106
v -0.007178689 -0.2415595 0.0001841908
v -0.00414198 -0.2415595 -0.005174484
v 0.009517734 -0.1834502 0.01764893
v 0.01858672 -0.1834502 0.006007703
v 0.009517736 -0.1955144 0.01764893
v 0.01858673 -0.2415595 0.006007703
v 0.01585013 -0.2415595 0.009520615
v -0.005126587 -0.1834502 0.01946783
v -0.001392259 -0.2415595 0.01900399
v -0.005126579 -0.2415595 0.01946783
v 0.01676782 -0.2415595 -0.008636581
v 0.01676781 -0.1834502 -0.008636581
v -0.01676784 -0.2415595 0.01039887
v -0.01676785 -0.1834502 0.01039887
v -0.01858666 -0.1834502 -0.004245512
v -0.01858665 -0.2415595 -0.004245512
v -0.009517686 -0.2415595 -0.01588664
v -0.009517695 -0.1834502 -0.01588664
v 0.005126636 -0.1834502 -0.01770555
v 0.005126644 -0.2415595 -0.01770555
v 0.01676782 -0.2415595 -0.008636581
v 0.01676781 -0.1834502 -0.008636581
v 0.01029285 -0.0175934 0.01901468
v 0.007647825 -9.819031E-05 0.01435475
v 0.0201005 -0.0175934 0.006425312
v 0.0149351 -9.819031E-05 0.005000556
v 0.01813344 -0.0175934 -0.009411704
v 0.01347361 -9.819031E-05 -0.006766662
v -0.004119424 -9.819031E-05 0.01581625
v -0.005544135 -0.0175934 0.02098163
v -0.01347361 -9.819031E-05 0.008528951
v -0.01813353 -0.0175934 0.01117399
v -0.0149351 -9.819031E-05 -0.003238274
v -0.02010049 -0.0175934 -0.004663025
v -0.007647832 -9.819031E-05 -0.01259247
v -0.01029284 -0.0175934 -0.01725239
v 0.004119417 -9.819031E-05 -0.01405396
v 0.005544143 -0.0175934 -0.01921935
v 0.01347361 -9.819031E-05 -0.006766662
v 0.01813344 -0.0175934 -0.009411704
v 0.02332429 -0.0175934 -0.01235816
v 0.01813344 -0.0175934 -0.009411704
v 0.007131188 -0.0175934 -0.02497318
v 0.005544143 -0.0175934 -0.01921935
v 0.0201005 -0.0175934 0.006425312
v 0.02585432 -0.0175934 0.008012298
v 0.01029285 -0.0175934 0.01901468
v 0.0132392 -0.0175934 0.02420543
v -0.007131191 -0.0175934 0.02673545
v -0.005544135 -0.0175934 0.02098163
v -0.01813353 -0.0175934 0.01117399
v -0.02332428 -0.0175934 0.01412044
v -0.02585431 -0.0175934 -0.006250014
v -0.02010049 -0.0175934 -0.004663025
v -0.01029284 -0.0175934 -0.01725239
v -0.01323929 -0.0175934 -0.02244314
v -0.02332428 -0.0175934 0.01412044
v -0.007131191 -0.0175934 0.02673545
v -0.02332426 -0.159878 0.01412044
v -0.007131169 -0.159878 0.02673545
v -0.02585429 -0.159878 -0.006250014
v -0.02585431 -0.0175934 -0.006250014
v -0.01323927 -0.159878 -0.02244314
v -0.01323929 -0.0175934 -0.02244314
v 0.00713121 -0.159878 -0.02497318
v 0.007131188 -0.0175934 -0.02497318
v 0.02332431 -0.159878 -0.01235816
v 0.02332429 -0.0175934 -0.01235816
v 0.0132392 -0.0175934 0.02420543
v 0.01323922 -0.159878 0.02420543
v 0.02585432 -0.0175934 0.008012298
v 0.02585434 -0.159878 0.008012298
v 0.02332429 -0.0175934 -0.01235816
v 0.02332431 -0.159878 -0.01235816
v -0.01300434 -0.2415595 -0.0002612776
v -0.009865602 -0.2547228 -0.0005342264
v -0.006313355 -0.2415595 -0.01023016
v -0.005333446 -0.2547228 -0.007919561
v -0.008741983 -0.2415595 0.008603523
v -0.007445866 -0.2547228 0.0073434
v 0.005298381 -0.2415595 -0.0107512
v 0.003540938 -0.2547228 -0.008490722
v 0.0118653 -0.2415595 -0.002961029
v 0.009455027 -0.2547228 -0.002151663
v -0.005416391 -0.2415595 0.005576408
v -0.007178689 -0.2415595 0.0001841908
v -0.004234496 -0.2547228 0.004370898
v -0.005679176 -0.2547228 0.0003232627
v -0.003352199 -0.2547228 -0.003783077
v -0.00414198 -0.2415595 -0.005174484
v 0.002079156 -0.2547228 -0.004424118
v 0.002946006 -0.2415595 -0.006011106
v 0.005190562 -0.2547228 -0.0009090084
v 0.00679256 -0.2415595 -0.001307256
v -0.005333446 -0.2547228 -0.007919561
v -0.003352199 -0.2547228 -0.003783077
v 0.003540938 -0.2547228 -0.008490722
v 0.002079156 -0.2547228 -0.004424118
v -0.005679176 -0.2547228 0.0003232627
v -0.009865602 -0.2547228 -0.0005342264
v -0.004234496 -0.2547228 0.004370898
v -0.007445866 -0.2547228 0.0073434
v 0.005190562 -0.2547228 -0.0009090084
v 0.009455027 -0.2547228 -0.002151663
v -0.01323927 -0.159878 -0.02244314
v -0.009517695 -0.1834502 -0.01588664
v 0.00713121 -0.159878 -0.02497318
v 0.005126636 -0.1834502 -0.01770555
v -0.02585429 -0.159878 -0.006250014
v -0.01858666 -0.1834502 -0.004245512
v 0.01676781 -0.1834502 -0.008636581
v 0.02332431 -0.159878 -0.01235816
v -0.01676785 -0.1834502 0.01039887
v -0.02332426 -0.159878 0.01412044
v -0.007131169 -0.159878 0.02673545
v -0.005126587 -0.1834502 0.01946783
v 0.01323922 -0.159878 0.02420543
v 0.009517734 -0.1834502 0.01764893
v 0.01858672 -0.1834502 0.006007703
v 0.02585434 -0.159878 0.008012298
v 0.01676781 -0.1834502 -0.008636581
v 0.02332431 -0.159878 -0.01235816
v 0.0118653 -0.2415595 -0.002961029
v 0.009455027 -0.2547228 -0.002151663
v 0.00679256 -0.2415595 -0.001307256
v 0.005190562 -0.2547228 -0.0009090084
v 0.004119417 -9.819031E-05 -0.01405396
v 0.01347361 -9.819031E-05 -0.006766662
v -0.01347361 -9.819031E-05 0.008528951
v -0.004119424 -9.819031E-05 0.01581625
v 0.0149351 -9.819031E-05 0.005000556
v 0.007647825 -9.819031E-05 0.01435475
v -0.0149351 -9.819031E-05 -0.003238274
v -0.007647832 -9.819031E-05 -0.01259247
v -0.008741983 -0.2415595 0.008603523
v -0.005416391 -0.2415595 0.005576408
v -0.007445866 -0.2547228 0.0073434
v -0.004234496 -0.2547228 0.004370898
vt 0.77401 0.478209
vt 0.995773 0.478209
vt 0.995773 0.420353
vt 0.995773 0.532434
vt 0.96043 0.91271
vt 0.920758 0.90817
vt 0.9091 0.961649
vt 0.934856 0.860369
vt 0.962138 0.842751
vt 0.88771 0.961421
vt 0.903599 0.896151
vt 0.853006 0.927742
vt 0.842101 0.869887
vt 0.801775 0.923644
vt 0.820901 0.866043
vt 0.789302 0.910893
vt 0.791012 0.840935
vt 0.841246 0.829541
vt 0.84234 0.791998
vt 0.900553 0.821087
vt 0.913223 0.79275
vt 0.910754 0.86813
vt 0.857875 0.847748
vt 0.887249 0.843803
vt 0.698988 0.479239
vt 0.698988 0.554887
vt 0.757066 0.477423
vt 0.979477 0.554887
vt 0.979477 0.531906
vt 0.698988 0.400539
vt 0.979477 0.420482
vt 0.979477 0.400539
vt 0.979477 0.633174
vt 0.698988 0.633174
vt 0.979477 0.322252
vt 0.698988 0.322252
vt 0.698988 0.243966
vt 0.979477 0.243966
vt 0.979477 0.165679
vt 0.698988 0.165679
vt 0.698988 0.0873923
vt 0.979477 0.0873923
vt 0.979477 0.00910516
vt 0.698988 0.00910516
vt 0.438935 0.909801
vt 0.438935 0.99541
vt 0.510433 0.909801
vt 0.510433 0.99541
vt 0.581931 0.909801
vt 0.581931 0.99541
vt 0.367437 0.99541
vt 0.367437 0.909801
vt 0.295938 0.99541
vt 0.295938 0.909801
vt 0.22444 0.99541
vt 0.22444 0.909801
vt 0.152942 0.99541
vt 0.152942 0.909801
vt 0.0814434 0.99541
vt 0.0814434 0.909801
vt 0.0099452 0.99541
vt 0.0099452 0.909801
vt 0.827055 0.759913
vt 0.838775 0.788533
vt 0.925678 0.759913
vt 0.913579 0.788033
vt 0.785529 0.841084
vt 0.756529 0.829524
vt 0.785034 0.914902
vt 0.756529 0.926845
vt 0.825481 0.994865
vt 0.837579 0.966745
vt 0.912383 0.966246
vt 0.924103 0.994865
vt 0.994629 0.925254
vt 0.965629 0.913694
vt 0.966124 0.839876
vt 0.994629 0.827934
vt 0.695556 0.398151
vt 0.695556 0.301103
vt 0.0100476 0.398151
vt 0.0100476 0.301103
vt 0.0100476 0.495199
vt 0.695556 0.495199
vt 0.0100476 0.592246
vt 0.695556 0.592246
vt 0.0100476 0.689294
vt 0.695556 0.689294
vt 0.0100476 0.786341
vt 0.695556 0.786341
vt 0.695556 0.204056
vt 0.0100476 0.204056
vt 0.695556 0.107008
vt 0.0100476 0.107008
vt 0.695556 0.00996015
vt 0.0100476 0.00996015
vt 0.718824 0.994658
vt 0.718824 0.931747
vt 0.671861 0.994658
vt 0.671861 0.931747
vt 0.754762 0.994658
vt 0.754762 0.931747
vt 0.629 0.994658
vt 0.629 0.931747
vt 0.58711 0.994658
vt 0.58711 0.931747
vt 0.850872 0.753279
vt 0.880944 0.753279
vt 0.850872 0.670887
vt 0.880944 0.670887
vt 0.913757 0.670887
vt 0.913757 0.753279
vt 0.951779 0.670887
vt 0.951779 0.753279
vt 0.984265 0.670887
vt 0.984265 0.753279
vt 0.925762 0.666279
vt 0.925762 0.643769
vt 0.887382 0.666279
vt 0.887382 0.643769
vt 0.96313 0.643769
vt 0.96313 0.666279
vt 0.995892 0.643769
vt 0.995892 0.666279
vt 0.850872 0.643769
vt 0.850872 0.666279
vt 0.193757 0.90664
vt 0.193757 0.790032
vt 0.101851 0.90664
vt 0.101851 0.790032
vt 0.285663 0.90664
vt 0.285663 0.790032
vt 0.0099452 0.790032
vt 0.0099452 0.90664
vt 0.377569 0.790032
vt 0.377569 0.90664
vt 0.469476 0.90664
vt 0.469476 0.790032
vt 0.561382 0.90664
vt 0.561382 0.790032
vt 0.653288 0.790032
vt 0.653288 0.90664
vt 0.745194 0.790032
vt 0.745194 0.90664
vt 0.655436 0.909801
vt 0.586688 0.909801
vt 0.655436 0.92874
vt 0.586688 0.92874
vt 0.801268 0.637899
vt 0.743076 0.637899
vt 0.801789 0.776544
vt 0.743597 0.776544
vt 0.702188 0.679708
vt 0.702188 0.737137
vt 0.842677 0.734734
vt 0.842677 0.677306
vt 0.728569 0.929856
vt 0.728569 0.909801
vt 0.659869 0.929856
vt 0.659869 0.909801
vn 0.4750934 -0.1629047 0.8647245
vn 0.468524 -0.1628834 0.8683054
vn 0.7349815 -0.1547182 0.6602004
vn 0.1469083 -0.1523271 0.9773507
vn 0 -1 0
vn 0 -1 0
vn 0 -1 0
vn 0 -1 0
vn 0 -1 0
vn 0 -1 0
vn 0 -1 0
vn 0 -1 0
vn 0 -1 0
vn 0 -1 0
vn 0 -1 0
vn 0 -1 0
vn 0 -1 0
vn 0 -1 0
vn 0 -1 0
vn 0 -1 0
vn 0 -1 0
vn 0 -1 0
vn 0 -1 0
vn 0 -1 0
vn 0.4936394 0 0.8696666
vn 0.964003 1.552483E-07 0.2658912
vn 0.4945184 0 0.8691672
vn 0.9640051 2.816588E-06 0.2658838
vn 0.7888809 6.249979E-06 0.6145461
vn -0.2658899 -1.052252E-07 0.9640034
vn 0.1232607 0 0.9923744
vn -0.2658884 0 0.9640038
vn 0.8696668 1.369845E-07 -0.4936392
vn 0.8696668 1.427273E-07 -0.4936392
vn -0.8696676 -1.369846E-07 0.4936377
vn -0.8696676 -1.427275E-07 0.4936376
vn -0.9640016 -1.508376E-07 -0.2658963
vn -0.9640016 -1.582093E-07 -0.2658962
vn -0.4936383 0 -0.8696674
vn -0.4936383 0 -0.8696673
vn 0.2658917 0 -0.9640028
vn 0.2658918 0 -0.9640028
vn 0.8696668 1.369845E-07 -0.4936392
vn 0.8696668 1.427273E-07 -0.4936392
vn 0.4719958 0.2928438 0.8315423
vn 0.4719966 0.2928444 0.8315416
vn 0.9217413 0.2928442 0.2542348
vn 0.9217416 0.2928433 0.2542347
vn 0.8315423 0.2928412 -0.4719973
vn 0.8315434 0.2928409 -0.4719954
vn -0.2542377 0.2928436 0.9217406
vn -0.2542369 0.2928438 0.9217408
vn -0.8315419 0.2928439 0.4719963
vn -0.8315417 0.2928441 0.4719964
vn -0.9217409 0.2928446 -0.2542359
vn -0.9217407 0.2928439 -0.2542373
vn -0.4719968 0.2928441 -0.8315416
vn -0.4719956 0.2928435 -0.8315424
vn 0.2542372 0.2928441 -0.9217406
vn 0.254238 0.2928434 -0.9217406
vn 0.8315434 0.2928409 -0.4719954
vn 0.8315423 0.2928412 -0.4719973
vn 0 1 0
vn 0 1 0
vn 0 1 0
vn 0 1 0
vn 0 1 0
vn 0 1 0
vn 0 1 0
vn 0 1 0
vn 0 1 0
vn 0 1 0
vn 0 1 0
vn 0 1 0
vn 0 1 0
vn 0 1 0
vn 0 1 0
vn 0 1 0
vn -0.8696672 -1.311528E-07 0.4936385
vn -0.2658924 0 0.9640027
vn -0.8696672 -1.311528E-07 0.4936385
vn -0.2658923 0 0.9640027
vn -0.9640028 -1.453794E-07 -0.2658919
vn -0.9640028 -1.453794E-07 -0.265892
vn -0.493639 0 -0.8696669
vn -0.493639 0 -0.8696669
vn 0.2658924 0 -0.9640027
vn 0.2658923 0 -0.9640027
vn 0.8696672 1.311528E-07 -0.4936385
vn 0.8696671 1.311528E-07 -0.4936386
vn 0.4936374 0 0.8696678
vn 0.4936375 0 0.8696678
vn 0.9640024 1.453793E-07 0.2658937
vn 0.9640024 1.453794E-07 0.2658938
vn 0.8696671 1.311528E-07 -0.4936386
vn 0.8696672 1.311528E-07 -0.4936385
vn -0.9712936 -0.2303715 -0.05931158
vn -0.9762007 -0.1830155 -0.1163509
vn -0.4818139 -0.1950296 -0.8542944
vn -0.5107103 -0.1804518 -0.8406023
vn -0.9070351 -0.1851051 0.3781845
vn -0.9488583 -0.12133 0.2914566
vn 0.4013153 -0.21098 -0.89131
vn 0.3560564 -0.1925013 -0.9144217
vn 0.7380119 -0.1953883 -0.6458808
vn 0.720144 -0.1731729 -0.6718658
vn 0.9444284 0.1130651 -0.3086604
vn 0.9884074 0.1174238 0.09624168
vn 0.9387937 0.105697 -0.3278636
vn 0.989833 0.1136614 0.08550922
vn 0.5514266 0.1203444 0.8254974
vn 0.547393 0.1203848 0.8281717
vn -0.3477773 0.1347627 0.9278415
vn -0.3719327 0.1291277 0.9192345
vn -0.7499041 0.1240001 0.6498213
vn -0.7691958 0.1126428 0.6290067
vn 0 -1 0
vn 0 -1 0
vn 0 -1 0
vn 0 -1 0
vn 0 -1 0
vn 0 -1 0
vn 0 -1 0
vn 0 -1 0
vn 0 -1 0
vn 0 -1 0
vn -0.4701768 -0.3046286 -0.8283328
vn -0.4701771 -0.3046261 -0.8283335
vn 0.2532548 -0.3046274 -0.9181852
vn 0.2532543 -0.3046259 -0.9181859
vn -0.9181856 -0.3046259 -0.2532555
vn -0.9181846 -0.3046253 -0.2532597
vn 0.8283333 -0.3046266 -0.4701773
vn 0.8283331 -0.3046283 -0.4701765
vn -0.8283341 -0.3046263 0.4701761
vn -0.8283337 -0.3046254 0.4701772
vn -0.2532551 -0.3046257 0.9181857
vn -0.2532533 -0.3046269 0.9181858
vn 0.4701758 -0.3046263 0.8283342
vn 0.4701785 -0.3046269 0.8283324
vn 0.9181861 -0.3046257 0.2532536
vn 0.9181852 -0.3046267 0.2532557
vn 0.8283333 -0.3046266 -0.4701773
vn 0.8283331 -0.3046283 -0.4701765
vn 0.3099559 0.001703817 0.9507495
vn 0.2866392 -0.003479515 0.9580324
vn 0.3040375 0.0003841744 0.95266
vn 0.2797582 -0.005001185 0.9600575
vn 0 1 0
vn 0 1 0
vn 0 1 0
vn 0 1 0
vn 0 1 0
vn 0 1 0
vn 0 1 0
vn 0 1 0
vn 0.6731344 -0.004513153 0.7395064
vn 0.6743274 -0.004843371 0.7384166
vn 0.6780617 -0.005880244 0.7349815
vn 0.6792732 -0.006217668 0.7338591
g silencer_aks74u_tochmash_pbs-4_545x39_LOD1_0
f 3/3/3 2/2/2 1/1/1
f 1/1/1 2/2/2 4/4/4
f 7/7/7 6/6/6 5/5/5
f 8/8/8 5/5/5 6/6/6
f 5/5/5 8/8/8 9/9/9
f 10/10/10 6/6/6 7/7/7
f 6/6/6 10/10/10 11/11/11
f 12/12/12 11/11/11 10/10/10
f 11/11/11 12/12/12 13/13/13
f 14/14/14 13/13/13 12/12/12
f 13/13/13 14/14/14 15/15/15
f 16/16/16 15/15/15 14/14/14
f 17/17/17 15/15/15 16/16/16
f 17/17/17 18/18/18 15/15/15
f 18/18/18 17/17/17 19/19/19
f 19/19/19 20/20/20 18/18/18
f 20/20/20 9/9/9 8/8/8
f 20/20/20 19/19/19 21/21/21
f 9/9/9 20/20/20 21/21/21
f 13/13/13 22/22/22 11/11/11
f 22/22/22 13/13/13 23/23/23
f 23/23/23 24/24/24 22/22/22
f 27/27/27 26/26/26 25/25/25
f 26/26/26 27/27/27 28/28/28
f 29/29/29 28/28/28 27/27/27
f 30/30/30 27/27/27 25/25/25
f 27/27/27 30/30/30 31/31/31
f 32/32/32 31/31/31 30/30/30
f 33/33/33 26/26/26 28/28/28
f 26/26/26 33/33/33 34/34/34
f 30/30/30 35/35/35 32/32/32
f 35/35/35 30/30/30 36/36/36
f 37/37/37 35/35/35 36/36/36
f 35/35/35 37/37/37 38/38/38
f 37/37/37 39/39/39 38/38/38
f 39/39/39 37/37/37 40/40/40
f 41/41/41 39/39/39 40/40/40
f 39/39/39 41/41/41 42/42/42
f 41/41/41 43/43/43 42/42/42
f 43/43/43 41/41/41 44/44/44
f 47/47/47 46/46/46 45/45/45
f 46/46/46 47/47/47 48/48/48
f 49/49/49 48/48/48 47/47/47
f 48/48/48 49/49/49 50/50/50
f 51/51/51 45/45/45 46/46/46
f 45/45/45 51/51/51 52/52/52
f 53/53/53 52/52/52 51/51/51
f 52/52/52 53/53/53 54/54/54
f 55/55/55 54/54/54 53/53/53
f 54/54/54 55/55/55 56/56/56
f 57/57/57 56/56/56 55/55/55
f 56/56/56 57/57/57 58/58/58
f 59/59/59 58/58/58 57/57/57
f 58/58/58 59/59/59 60/60/60
f 61/61/61 60/60/60 59/59/59
f 60/60/60 61/61/61 62/62/62
f 65/65/65 64/64/64 63/63/63
f 64/64/64 65/65/65 66/66/66
f 67/67/67 63/63/63 64/64/64
f 63/63/63 67/67/67 68/68/68
f 69/69/69 68/68/68 67/67/67
f 68/68/68 69/69/69 70/70/70
f 69/69/69 71/71/71 70/70/70
f 71/71/71 69/69/69 72/72/72
f 73/73/73 71/71/71 72/72/72
f 71/71/71 73/73/73 74/74/74
f 73/73/73 75/75/75 74/74/74
f 75/75/75 73/73/73 76/76/76
f 77/77/77 75/75/75 76/76/76
f 75/75/75 77/77/77 78/78/78
f 78/78/78 66/66/66 65/65/65
f 66/66/66 78/78/78 77/77/77
f 81/81/81 80/80/80 79/79/79
f 80/80/80 81/81/81 82/82/82
f 79/79/79 83/83/83 81/81/81
f 83/83/83 79/79/79 84/84/84
f 84/84/84 85/85/85 83/83/83
f 85/85/85 84/84/84 86/86/86
f 86/86/86 87/87/87 85/85/85
f 87/87/87 86/86/86 88/88/88
f 88/88/88 89/89/89 87/87/87
f 89/89/89 88/88/88 90/90/90
f 82/82/82 91/91/91 80/80/80
f 91/91/91 82/82/82 92/92/92
f 92/92/92 93/93/93 91/91/91
f 93/93/93 92/92/92 94/94/94
f 94/94/94 95/95/95 93/93/93
f 95/95/95 94/94/94 96/96/96
f 99/99/99 98/98/98 97/97/97
f 98/98/98 99/99/99 100/100/100
f 98/98/98 101/101/101 97/97/97
f 101/101/101 98/98/98 102/102/102
f 103/103/103 100/100/100 99/99/99
f 100/100/100 103/103/103 104/104/104
f 105/105/105 104/104/104 103/103/103
f 104/104/104 105/105/105 106/106/106
f 109/109/109 108/108/108 107/107/107
f 108/108/108 109/109/109 110/110/110
f 111/111/111 108/108/108 110/110/110
f 108/108/108 111/111/111 112/112/112
f 113/113/113 112/112/112 111/111/111
f 112/112/112 113/113/113 114/114/114
f 115/115/115 114/114/114 113/113/113
f 114/114/114 115/115/115 116/116/116
f 119/119/119 118/118/118 117/117/117
f 118/118/118 119/119/119 120/120/120
f 121/121/121 117/117/117 118/118/118
f 117/117/117 121/121/121 122/122/122
f 123/123/123 122/122/122 121/121/121
f 122/122/122 123/123/123 124/124/124
f 119/119/119 125/125/125 120/120/120
f 125/125/125 119/119/119 126/126/126
f 129/129/129 128/128/128 127/127/127
f 128/128/128 129/129/129 130/130/130
f 128/128/128 131/131/131 127/127/127
f 131/131/131 128/128/128 132/132/132
f 129/129/129 133/133/133 130/130/130
f 133/133/133 129/129/129 134/134/134
f 135/135/135 131/131/131 132/132/132
f 131/131/131 135/135/135 136/136/136
f 135/135/135 137/137/137 136/136/136
f 137/137/137 135/135/135 138/138/138
f 138/138/138 139/139/139 137/137/137
f 139/139/139 138/138/138 140/140/140
f 141/141/141 139/139/139 140/140/140
f 139/139/139 141/141/141 142/142/142
f 143/143/143 142/142/142 141/141/141
f 142/142/142 143/143/143 144/144/144
f 147/147/147 146/146/146 145/145/145
f 146/146/146 147/147/147 148/148/148
f 151/151/151 150/150/150 149/149/149
f 150/150/150 151/151/151 152/152/152
f 152/152/152 153/153/153 150/150/150
f 153/153/153 152/152/152 154/154/154
f 149/149/149 155/155/155 151/151/151
f 155/155/155 149/149/149 156/156/156
f 159/159/159 158/158/158 157/157/157
f 158/158/158 159/159/159 160/160/160
