g silencer_all_alpha_dog_alpha_9_9x19_LOD1
v 0.01065928 -0.006038376 -0.01221502
v 0.01065928 -0.1839497 -0.01221502
v 0.0159959 -0.192814 -0.00239495
v 0.0159959 -0.006038376 -0.002394946
v -1.925826E-06 -0.1935651 -0.01587355
v -1.926422E-06 -0.006038374 -0.01588439
v 0.0159959 -0.192814 -0.00239495
v 0.0159959 -0.1928506 0.003356712
v 0.0159959 -0.1845898 0.01084794
v 0.0159959 -0.006038376 -0.002394946
v 0.0159959 -0.008785876 0.01084794
v 0.0159959 -0.008785876 0.01084794
v 0.0159959 -0.1845898 0.01084794
v 0.01004564 -0.1845898 0.01690414
v 0.01004564 -0.007249831 0.01690414
v 0.01004564 -0.007249831 0.01690414
v 0.01004564 -0.1845898 0.01690414
v 0.008269152 -0.1845898 0.01690414
v 0.008269152 -0.007249831 0.01690414
v 0.008269152 -0.1845898 0.01690414
v 0.008269152 -0.189196 0.02005336
v 0.008269152 -0.01707474 0.02005337
v 0.008269152 -0.007249831 0.01690414
v 0.008269152 -0.01116849 0.02005337
v 0.008269152 -0.01707474 0.02005337
v 0.008269152 -0.189196 0.02005336
v 0.01109538 -0.184279 0.02312184
v 0.01109538 -0.02305755 0.02312184
v 0.01109538 -0.02305755 0.02312184
v 0.01109538 -0.184279 0.02312184
v 0.008269152 -0.1810005 0.02594955
v 0.008269152 -0.02525235 0.02594956
v 0.008269152 -0.01116849 0.02005337
v 0.008269152 -0.01707474 0.02005337
v -0.008273005 -0.01707474 0.02005337
v -0.008273003 -0.01116848 0.02005337
v 0.01109538 -0.02305755 0.02312184
v -0.01109923 -0.02305755 0.02312184
v -0.008273005 -0.02525236 0.02594956
v 0.008269152 -0.02525235 0.02594956
v 0.005535288 -0.00379202 0.005596498
v 0.005535288 6.890297E-06 0.005596496
v 0.007843203 6.890297E-06 2.469301E-05
v 0.007843203 -0.00379202 2.469301E-05
v 0.005535285 6.890297E-06 -0.00554711
v 0.005535285 -0.003792021 -0.005547111
v -1.925826E-06 -0.003792018 -0.007840698
v -1.925826E-06 6.887913E-06 -0.007840698
v -1.925826E-06 6.892681E-06 0.007890088
v -1.925826E-06 -0.00379202 0.007890088
v -0.005539137 6.885528E-06 -0.00554711
v -0.005539137 -0.003792019 -0.005547111
v -0.007847055 -0.003792019 2.469301E-05
v -0.007847055 6.885528E-06 2.469301E-05
v -0.005539139 -0.00379202 0.005596498
v -0.005539139 6.892681E-06 0.005596496
v -1.925826E-06 6.892681E-06 0.007890088
v -1.925826E-06 -0.00379202 0.007890088
v -1.925826E-06 -0.00379202 0.007890088
v 0.005535288 -0.00379202 0.005596498
v 0.009972216 -0.00379202 0.007493994
v 0.004221799 -0.00387605 0.01155338
v -1.925826E-06 -0.003792704 0.007934056
v 0.007843203 -0.00379202 2.469301E-05
v 0.01317974 -0.003792022 -0.001419692
v 0.005535285 -0.003792021 -0.005547111
v 0.009308789 -0.003792021 -0.009320614
v -1.925826E-06 -0.003792019 -0.01317723
v -1.925826E-06 -0.003792018 -0.007840698
v -0.004225651 -0.00387605 0.01155338
v -0.009976068 -0.00379202 0.007493994
v -0.005539139 -0.00379202 0.005596498
v -0.007847055 -0.003792019 2.469301E-05
v -0.01318359 -0.003792019 -0.001419692
v -0.005539137 -0.003792019 -0.005547111
v -0.00931264 -0.003792018 -0.009320614
v 0.01065928 -0.006038376 -0.01221502
v 0.0159959 -0.006038376 -0.002394946
v 0.01317974 -0.003792022 -0.001419692
v 0.009308789 -0.003792021 -0.009320614
v 0.0159959 -0.008785876 0.01084794
v 0.009972216 -0.00379202 0.007493994
v 0.004221799 -0.00387605 0.01155338
v 0.01004564 -0.007249831 0.01690414
v 0.008269152 -0.007249831 0.01690414
v -0.008273005 -0.007249835 0.01690414
v -0.004225651 -0.00387605 0.01155338
v 0.008269152 -0.01116849 0.02005337
v -0.008273003 -0.01116848 0.02005337
v -0.01004949 -0.007249835 0.01690414
v -1.926422E-06 -0.006038374 -0.01588439
v 0.01065928 -0.006038376 -0.01221502
v 0.009308789 -0.003792021 -0.009320614
v -1.925826E-06 -0.003792019 -0.01317723
v -0.00931264 -0.003792018 -0.009320614
v -0.01066313 -0.006038378 -0.01221502
v -0.01318359 -0.003792019 -0.001419692
v -0.01599975 -0.006038379 -0.002394946
v -0.01599975 -0.008785879 0.01084794
v -0.009976068 -0.00379202 0.007493994
v -0.004225651 -0.00387605 0.01155338
v -0.01004949 -0.007249835 0.01690414
v 0.005535288 6.890297E-06 0.005596496
v 0.005535285 6.890297E-06 -0.00554711
v 0.007843203 6.890297E-06 2.469301E-05
v -1.925826E-06 6.887913E-06 -0.007840698
v -1.925826E-06 6.892681E-06 0.007890088
v -0.005539139 6.892681E-06 0.005596496
v -0.005539137 6.885528E-06 -0.00554711
v -0.007847055 6.885528E-06 2.469301E-05
v 0.008269152 -0.1810005 0.02594955
v 0.01109538 -0.184279 0.02312184
v -0.01109923 -0.184279 0.02312184
v -0.008273005 -0.1810005 0.02594955
v 0.008269152 -0.189196 0.02005336
v -0.008273005 -0.189196 0.02005336
v 0.006450097 -0.1933436 0.01692579
v -0.006453949 -0.1933436 0.01692579
v -0.007608207 -0.1988452 0.01147636
v 0.007604357 -0.1988452 0.01147636
v 0.0159959 -0.1845898 0.01084794
v 0.01139454 -0.1988372 0.007713712
v 0.007604357 -0.1988452 0.01147636
v 0.01004564 -0.1845898 0.01690414
v 0.0159959 -0.1928506 0.003356712
v 0.006450097 -0.1933436 0.01692579
v 0.008269152 -0.189196 0.02005336
v 0.008269152 -0.1845898 0.01690414
v 0.007604357 -0.1988452 0.01147636
v 0.007604357 -0.1988452 0.01147636
v 0.008269152 -0.1845898 0.01690414
v 0.01004564 -0.1845898 0.01690414
v 0.01065928 -0.1839497 -0.01221502
v 0.007902659 -0.1987133 -0.01203294
v 0.01213964 -0.1987543 -0.006501572
v 0.0159959 -0.192814 -0.00239495
v -1.925826E-06 -0.1935651 -0.01587355
v 0.008269152 -0.1810005 0.02594955
v -0.008273005 -0.1810005 0.02594955
v -0.008273005 -0.02525236 0.02594956
v 0.008269152 -0.02525235 0.02594956
v -0.01066313 -0.006038378 -0.01221502
v -0.01599975 -0.006038379 -0.002394946
v -0.01599975 -0.192814 -0.00239495
v -0.01066313 -0.1839497 -0.01221502
v -1.925826E-06 -0.1935651 -0.01587355
v -1.926422E-06 -0.006038374 -0.01588439
v -0.01599975 -0.1845898 0.01084794
v -0.01599975 -0.1928506 0.003356712
v -0.01599975 -0.192814 -0.00239495
v -0.01599975 -0.006038379 -0.002394946
v -0.01599975 -0.008785879 0.01084794
v -0.01599975 -0.008785879 0.01084794
v -0.01004949 -0.007249835 0.01690414
v -0.01004949 -0.1845898 0.01690414
v -0.01599975 -0.1845898 0.01084794
v -0.01004949 -0.007249835 0.01690414
v -0.008273005 -0.007249835 0.01690414
v -0.008273005 -0.1845898 0.01690414
v -0.01004949 -0.1845898 0.01690414
v -0.008273005 -0.01707474 0.02005337
v -0.008273005 -0.189196 0.02005336
v -0.008273005 -0.1845898 0.01690414
v -0.008273005 -0.007249835 0.01690414
v -0.008273003 -0.01116848 0.02005337
v -0.008273005 -0.01707474 0.02005337
v -0.01109923 -0.02305755 0.02312184
v -0.01109923 -0.184279 0.02312184
v -0.008273005 -0.189196 0.02005336
v -0.01109923 -0.02305755 0.02312184
v -0.008273005 -0.02525236 0.02594956
v -0.008273005 -0.1810005 0.02594955
v -0.01109923 -0.184279 0.02312184
v -0.01599975 -0.1845898 0.01084794
v -0.01004949 -0.1845898 0.01690414
v -0.007608207 -0.1988452 0.01147636
v -0.01139839 -0.1988372 0.007713712
v -0.01599975 -0.1928506 0.003356712
v -0.006453949 -0.1933436 0.01692579
v -0.007608207 -0.1988452 0.01147636
v -0.008273005 -0.1845898 0.01690414
v -0.008273005 -0.189196 0.02005336
v -0.007608207 -0.1988452 0.01147636
v -0.01004949 -0.1845898 0.01690414
v -0.008273005 -0.1845898 0.01690414
v -0.01066313 -0.1839497 -0.01221502
v -0.01599975 -0.192814 -0.00239495
v -0.01214349 -0.1987543 -0.006501572
v -0.00790651 -0.1987133 -0.01203294
v -1.925826E-06 -0.1935651 -0.01587355
v 0.0159959 -0.192814 -0.00239495
v -0.01599975 -0.192814 -0.00239495
v -0.01599975 -0.1928506 0.003356712
v 0.0159959 -0.1928506 0.003356712
v 0.007604357 -0.1988452 0.01147636
v 0.01139454 -0.1988372 0.007713712
v -0.01139839 -0.1988372 0.007713712
v -0.007608207 -0.1988452 0.01147636
v -0.01599975 -0.1928506 0.003356712
v -0.01139839 -0.1988372 0.007713712
v 0.01139454 -0.1988372 0.007713712
v 0.0159959 -0.1928506 0.003356712
v -0.01599975 -0.192814 -0.00239495
v 0.0159959 -0.192814 -0.00239495
v 0.01213964 -0.1987543 -0.006501572
v -0.01214349 -0.1987543 -0.006501572
v -0.01214349 -0.1987543 -0.006501572
v 0.01213964 -0.1987543 -0.006501572
v 0.007902659 -0.1987133 -0.01203294
v -0.00790651 -0.1987133 -0.01203294
v -0.00790651 -0.1987133 -0.01203294
v 0.007902659 -0.1987133 -0.01203294
v -1.925826E-06 -0.1935651 -0.01587355
vt 0.886773 0.02353911
vt 0.886773 0.8497324
vt 0.7829689 0.8908966
vt 0.7829692 0.02353911
vt 0.9914916 0.8943844
vt 0.9914918 0.02353911
vt 0.7829689 0.8908966
vt 0.7295495 0.8910667
vt 0.659973 0.8527045
vt 0.7829692 0.02353911
vt 0.659973 0.03629795
vt 0.659973 0.03629795
vt 0.659973 0.8527045
vt 0.5811188 0.8527045
vt 0.5811189 0.02916482
vt 0.5811189 0.02916482
vt 0.5811188 0.8527045
vt 0.5646197 0.8527045
vt 0.5646197 0.02916482
vt 0.5646197 0.8527045
vt 0.5353701 0.8740952
vt 0.5353703 0.07479013
vt 0.5646197 0.02916482
vt 0.5353703 0.04736251
vt 0.5353703 0.07479013
vt 0.5353701 0.8740952
vt 0.4966249 0.8512613
vt 0.4966249 0.1025734
vt 0.4966249 0.1025734
vt 0.4966249 0.8512613
vt 0.4594934 0.8360368
vt 0.4594934 0.1127658
vt 0.09867521 0.9197678
vt 0.09867521 0.947202
vt 0.2523501 0.947202
vt 0.2523501 0.9197678
vt 0.07241889 0.9784337
vt 0.2786047 0.9784337
vt 0.2523501 0.9950604
vt 0.09867521 0.9950604
vt 0.6828594 0.9925073
vt 0.6828594 0.9748654
vt 0.6268455 0.9748654
vt 0.6268455 0.9925073
vt 0.5708315 0.9748654
vt 0.5708315 0.9925073
vt 0.5151654 0.9925073
vt 0.5151654 0.9748654
vt 0.7385249 0.9748653
vt 0.7385249 0.9925073
vt 0.4595001 0.9748654
vt 0.4595001 0.9925073
vt 0.4034854 0.9925073
vt 0.4034854 0.9748654
vt 0.3474713 0.9925073
vt 0.3474713 0.9748653
vt 0.2918062 0.9748653
vt 0.2918062 0.9925073
vt 0.3059222 0.5845605
vt 0.2536618 0.5749719
vt 0.2132073 0.5846196
vt 0.2681179 0.602366
vt 0.305939 0.5847645
vt 0.230124 0.5495591
vt 0.180049 0.5438723
vt 0.2494231 0.5232684
vt 0.2129683 0.506478
vt 0.2979084 0.4868136
vt 0.2999383 0.5115737
vt 0.3465143 0.6007596
vt 0.3983359 0.580826
vt 0.3564375 0.5728658
vt 0.3757367 0.5465751
vt 0.4247125 0.5388587
vt 0.3521988 0.5211623
vt 0.3857823 0.5029367
vt 0.02133448 0.7586264
vt 0.004933551 0.8098827
vt 0.03953381 0.8103712
vt 0.04981847 0.7698298
vt 0.01807399 0.8723571
vt 0.08179494 0.8489476
vt 0.1362743 0.8670345
vt 0.08217116 0.8964164
vt 0.09867521 0.8964164
vt 0.2523501 0.8964165
vt 0.2147498 0.8670344
vt 0.09867521 0.9197678
vt 0.2523501 0.9197678
vt 0.2688529 0.8964165
vt 0.5054542 0.8934493
vt 0.4339423 0.931704
vt 0.4624263 0.9429075
vt 0.5229672 0.9072133
vt 0.6132838 0.8949217
vt 0.605059 0.877274
vt 0.6910986 0.9074284
vt 0.7048756 0.8915516
vt 0.8124723 0.9239681
vt 0.7430677 0.9429046
vt 0.7527289 0.9752468
vt 0.8288824 0.9631958
vt 0.4289486 0.4494629
vt 0.333327 0.4692668
vt 0.3893409 0.4692668
vt 0.2939653 0.4495858
vt 0.4289486 0.4216298
vt 0.3895869 0.401949
vt 0.2939649 0.4217528
vt 0.3335728 0.401949
vt 0.224767 0.6101843
vt 0.1985176 0.6302901
vt 0.4046574 0.6302901
vt 0.3784083 0.6101843
vt 0.224767 0.6572056
vt 0.3784083 0.6572056
vt 0.241662 0.6813293
vt 0.3615131 0.6813293
vt 0.3722332 0.7172902
vt 0.2309417 0.7172902
vt 0.2488645 0.3185779
vt 0.2583329 0.3898202
vt 0.3081896 0.3899262
vt 0.3281233 0.3185121
vt 0.1962708 0.3634992
vt 0.354916 0.3625957
vt 0.3768279 0.3402957
vt 0.3439047 0.321087
vt 0.3081896 0.3899262
vt 0.3081896 0.3899262
vt 0.3439047 0.321087
vt 0.3281233 0.3185121
vt 0.3324259 0.2354595
vt 0.3187112 0.3048767
vt 0.3834136 0.3049508
vt 0.4353376 0.2771834
vt 0.2341767 0.2836402
vt 0.01556422 0.7366046
vt 0.169205 0.7366046
vt 0.169205 0.01332268
vt 0.01556422 0.01332268
vt 0.8869586 0.02329622
vt 0.783155 0.02329622
vt 0.7831542 0.8906536
vt 0.8869581 0.8494896
vt 0.9916772 0.8941416
vt 0.9916772 0.02329622
vt 0.6601586 0.8524617
vt 0.7297352 0.890824
vt 0.7831542 0.8906536
vt 0.783155 0.02329622
vt 0.6601586 0.03605503
vt 0.6601586 0.03605503
vt 0.581305 0.02892201
vt 0.5813046 0.8524617
vt 0.6601586 0.8524617
vt 0.581305 0.02892201
vt 0.5648048 0.02892201
vt 0.5648048 0.8524617
vt 0.5813046 0.8524617
vt 0.5355564 0.07454731
vt 0.5355554 0.8738524
vt 0.5648048 0.8524617
vt 0.5648048 0.02892201
vt 0.5355564 0.04711955
vt 0.5355564 0.07454731
vt 0.4968104 0.1023306
vt 0.4968104 0.8510184
vt 0.5355554 0.8738524
vt 0.4968104 0.1023306
vt 0.4596787 0.1125229
vt 0.4596787 0.8357937
vt 0.4968104 0.8510184
vt 0.2488645 0.3185779
vt 0.3281233 0.3185121
vt 0.3081896 0.3899262
vt 0.2583329 0.3898205
vt 0.1962708 0.3634993
vt 0.354916 0.3625957
vt 0.3081896 0.3899262
vt 0.3439047 0.321087
vt 0.3768279 0.3402957
vt 0.3081896 0.3899262
vt 0.3281233 0.3185121
vt 0.3439047 0.321087
vt 0.3324259 0.2354595
vt 0.4353376 0.2771834
vt 0.3834136 0.3049508
vt 0.3187112 0.3048767
vt 0.2341767 0.2836402
vt 0.153002 0.7958593
vt 0.4501722 0.7958593
vt 0.4501722 0.7691485
vt 0.153002 0.7691485
vt 0.2309417 0.7172902
vt 0.195739 0.7347637
vt 0.4074354 0.7347637
vt 0.3722332 0.7172902
vt 0.4501722 0.7691485
vt 0.4074354 0.7347637
vt 0.195739 0.7347637
vt 0.153002 0.7691485
vt 0.4501722 0.7958593
vt 0.153002 0.7958593
vt 0.1888182 0.8293961
vt 0.4143564 0.8293961
vt 0.4143564 0.8293961
vt 0.1888182 0.8293961
vt 0.2281711 0.8550839
vt 0.3750042 0.8550839
vt 0.3750042 0.8550839
vt 0.2281711 0.8550839
vt 0.3015876 0.8849117
vn 0.6457617 -1.505411E-05 -0.7635391
vn 0.6434092 -1.517319E-05 -0.7655225
vn 0.8786386 0 -0.4774874
vn 0.8786385 0 -0.4774874
vn 0 -2.967985E-05 -1
vn 0 -2.967985E-05 -1
vn 1 0 0
vn 1 0 0
vn 1 0 0
vn 1 0 0
vn 1 0 0
vn 0.7133179 0 0.7008406
vn 0.7309792 -0.2114183 0.6488232
vn 0.7008579 -0.1749716 0.6915079
vn 0.7133179 0 0.7008406
vn 0 0 1
vn 0 -0.1712673 0.9852246
vn 0 -0.1833729 0.9830434
vn 0 0 1
vn 0.9975817 -0.05556713 0.04174899
vn 0.9815038 -0.1530567 0.1149954
vn 1 0 0
vn 1 0 0
vn 1 0 0
vn 0.7355451 0 -0.6774757
vn 0.7355452 0 -0.6774757
vn 0.7355451 0 -0.6774757
vn 0.7355451 0 -0.6774757
vn 0.7072929 0 0.7069206
vn 0.7072929 0 0.7069207
vn 0.7072929 0 0.7069206
vn 0.7072929 0 0.7069206
vn 0 0 1
vn 0 0.261032 0.9653301
vn 0 0.261032 0.9653301
vn 0 0 1
vn 0 0.6158078 0.7878963
vn 0 0.6158078 0.7878963
vn 0 0.7899652 0.6131517
vn 0 0.7899652 0.6131517
vn 0.7071069 0 0.7071066
vn 0.7071069 0 0.7071066
vn 1 0 -2.258955E-07
vn 1 0 -2.464314E-07
vn 0.7071066 1.721743E-07 -0.7071068
vn 0.7071066 1.721743E-07 -0.7071069
vn 0 1.682418E-07 -1
vn 1.232157E-07 1.682418E-07 -1
vn -1.026798E-07 1.372497E-07 1
vn 0 1.372497E-07 1
vn -0.7071066 1.104656E-07 -0.7071069
vn -0.7071066 1.104656E-07 -0.7071069
vn -1 0 -1.848236E-07
vn -1 0 0
vn -0.7071069 1.148928E-07 0.7071066
vn -0.7071069 1.148928E-07 0.7071066
vn -1.026798E-07 1.372497E-07 1
vn 0 1.372497E-07 1
vn 0 0.9998987 0.01423364
vn 0.0003484577 0.9999639 0.008498958
vn 0.0002350112 0.9999835 0.005729988
vn 0.0004198017 0.9998605 0.01669831
vn 0 0.9998615 0.01664559
vn 2.299271E-07 1 0
vn 2.23667E-07 1 0
vn 2.980873E-07 1 0
vn 2.957271E-07 1 0
vn 1.944548E-07 1 0
vn 1.944548E-07 1 0
vn -0.0004198017 0.9998605 0.01669831
vn -0.0002348591 0.9999835 0.005730127
vn -0.0003483551 0.9999639 0.008499052
vn 0 1 1.426401E-07
vn 0 1 1.357239E-07
vn 0 1 0
vn 0 1 0
vn 0.3708161 0.8007122 -0.4704841
vn 0.5948476 0.8018531 -0.05646166
vn 0.5964144 0.8021742 -0.02839633
vn 0.4240928 0.7989125 -0.4264788
vn 0.4815761 0.838005 0.2565774
vn 0.4770914 0.7975174 0.3692559
vn 0.1453642 0.8712584 0.4688048
vn 0.2688086 0.9194013 0.2871292
vn 0 0.7822466 0.622969
vn 0 0.7822463 0.6229693
vn -0.1453644 0.8712584 0.4688049
vn 0 0.6264281 0.7794792
vn 0 0.6264281 0.7794792
vn -0.2688087 0.919401 0.2871298
vn 0 0.8056687 -0.5923665
vn 0.3708161 0.8007122 -0.4704841
vn 0.4240928 0.7989125 -0.4264788
vn 0 0.8056687 -0.5923665
vn -0.4240934 0.7989119 -0.4264793
vn -0.3708166 0.8007118 -0.4704846
vn -0.5964152 0.8021736 -0.02839651
vn -0.5948485 0.8018525 -0.05646178
vn -0.4815766 0.8380048 0.2565777
vn -0.4770917 0.7975171 0.369256
vn -0.1453644 0.8712584 0.4688049
vn -0.2688087 0.919401 0.2871298
vn 0 1 -1.478598E-07
vn 0 1 -1.478598E-07
vn 0 1 0
vn -1.076437E-07 1 -3.105056E-07
vn -1.076437E-07 1 -3.105056E-07
vn -4.376679E-07 1 -4.766251E-07
vn -4.376679E-07 1 -4.766251E-07
vn -1.54957E-06 1 -6.418534E-07
vn 0 -0.6531321 0.757244
vn 0 -0.5893585 0.8078716
vn 0 -0.5893586 0.8078716
vn 0 -0.6531321 0.757244
vn 0 -0.5574449 0.830214
vn 0 -0.5574449 0.830214
vn 0 -0.6517239 0.7584563
vn 0 -0.6517239 0.7584563
vn 0 -0.7037288 0.7104687
vn 0 -0.7037288 0.7104687
vn 0.7309792 -0.2114183 0.6488232
vn 0.7300776 -0.3646578 0.5779372
vn 0.6622412 -0.3608839 0.6566578
vn 0.7008579 -0.1749716 0.6915079
vn 0.8442779 -0.3599993 0.3969829
vn 0.9679558 -0.2007687 0.1508426
vn 0.9815038 -0.1530567 0.1149954
vn 0.9975817 -0.05556713 0.04174899
vn 0.9679558 -0.2007687 0.1508426
vn 0 -0.3558306 0.9345505
vn 0 -0.1833729 0.9830434
vn 0 -0.1712673 0.9852246
vn 0.6532277 -0.124162 -0.7469119
vn 0.6384971 -0.1219961 -0.7598937
vn 0.7996242 -0.1449395 -0.5827467
vn 0.7996242 -0.1449395 -0.5827467
vn 0 -0.09149534 -0.9958055
vn 0 0 1
vn 0 0 1
vn 0 0 1
vn 0 0 1
vn -0.6457617 -1.505685E-05 -0.7635391
vn -0.8786385 0 -0.4774874
vn -0.8786385 0 -0.4774874
vn -0.6434092 -1.517592E-05 -0.7655225
vn 0 -2.967985E-05 -1
vn 0 -2.967985E-05 -1
vn -1 0 0
vn -1 0 0
vn -1 0 0
vn -1 0 0
vn -1 0 0
vn -0.7133179 0 0.7008406
vn -0.7133179 0 0.7008406
vn -0.7008579 -0.1749716 0.6915078
vn -0.7309792 -0.2114183 0.6488232
vn 0 0 1
vn 0 0 1
vn 0 -0.183373 0.9830434
vn 0 -0.1712673 0.9852246
vn -1 0 0
vn -0.9815038 -0.1530568 0.1149953
vn -0.9975817 -0.05556712 0.04174894
vn -1 0 0
vn -1 0 0
vn -0.7355453 0 -0.6774755
vn -0.7355453 0 -0.6774755
vn -0.7355453 0 -0.6774755
vn -0.7355453 0 -0.6774755
vn -0.7072931 0 0.7069204
vn -0.7072932 0 0.7069204
vn -0.707293 0 0.7069204
vn -0.7072931 0 0.7069204
vn -0.7309792 -0.2114183 0.6488232
vn -0.7008579 -0.1749716 0.6915078
vn -0.6622411 -0.3608839 0.6566579
vn -0.7300776 -0.3646578 0.5779372
vn -0.8442779 -0.3599993 0.3969829
vn -0.9679558 -0.2007687 0.1508424
vn -0.9679558 -0.2007687 0.1508424
vn -0.9975817 -0.05556712 0.04174894
vn -0.9815038 -0.1530568 0.1149953
vn 0 -0.3558306 0.9345505
vn 0 -0.1712673 0.9852246
vn 0 -0.183373 0.9830434
vn -0.6532276 -0.1241619 -0.746912
vn -0.7996241 -0.1449394 -0.5827467
vn -0.7996241 -0.1449394 -0.5827467
vn -0.6384971 -0.1219961 -0.7598937
vn 0 -0.09149534 -0.9958055
vn 0 -0.9999797 -0.006366916
vn 0 -0.9999797 -0.006366916
vn 0 -0.9999797 -0.006366916
vn 0 -0.9999797 -0.006366916
vn 0 -0.9999977 -0.002134112
vn 0 -0.9999977 -0.002134112
vn 0 -0.9999977 -0.002134112
vn 0 -0.9999977 -0.002134112
vn 0 -0.5884454 -0.8085369
vn 0 -0.5884454 -0.8085369
vn 0 -0.5884454 -0.8085369
vn 0 -0.5884454 -0.8085369
vn 0 -0.5686567 0.822575
vn 0 -0.5686567 0.822575
vn 0 -0.5686566 0.822575
vn 0 -0.5686566 0.822575
vn 0 -0.9999726 -0.007406624
vn 0 -0.9999726 -0.007406624
vn 0 -0.9999726 -0.007406624
vn 0 -0.9999726 -0.007406624
vn 0 -0.5979471 -0.8015355
vn 0 -0.5979471 -0.8015355
vn 0 -0.5979471 -0.8015356
g silencer_all_alpha_dog_alpha_9_9x19_LOD1_0
f 3/3/3 2/2/2 1/1/1
f 4/4/4 3/3/3 1/1/1
f 2/2/2 5/5/5 1/1/1
f 5/5/5 6/6/6 1/1/1
f 9/9/9 8/8/8 7/7/7
f 7/7/7 10/10/10 9/9/9
f 10/10/10 11/11/11 9/9/9
f 14/14/14 13/13/13 12/12/12
f 15/15/15 14/14/14 12/12/12
f 18/18/18 17/17/17 16/16/16
f 19/19/19 18/18/18 16/16/16
f 22/22/22 21/21/21 20/20/20
f 20/20/20 23/23/23 22/22/22
f 23/23/23 24/24/24 22/22/22
f 27/27/27 26/26/26 25/25/25
f 28/28/28 27/27/27 25/25/25
f 31/31/31 30/30/30 29/29/29
f 32/32/32 31/31/31 29/29/29
f 35/35/35 34/34/34 33/33/33
f 36/36/36 35/35/35 33/33/33
f 37/37/37 34/34/34 35/35/35
f 38/38/38 37/37/37 35/35/35
f 38/38/38 39/39/39 37/37/37
f 39/39/39 40/40/40 37/37/37
f 43/43/43 42/42/42 41/41/41
f 44/44/44 43/43/43 41/41/41
f 45/45/45 43/43/43 44/44/44
f 46/46/46 45/45/45 44/44/44
f 45/45/45 46/46/46 47/47/47
f 48/48/48 45/45/45 47/47/47
f 42/42/42 49/49/49 41/41/41
f 49/49/49 50/50/50 41/41/41
f 48/48/48 47/47/47 51/51/51
f 47/47/47 52/52/52 51/51/51
f 51/51/51 52/52/52 53/53/53
f 54/54/54 51/51/51 53/53/53
f 54/54/54 53/53/53 55/55/55
f 56/56/56 54/54/54 55/55/55
f 56/56/56 55/55/55 57/57/57
f 55/55/55 58/58/58 57/57/57
f 61/61/61 60/60/60 59/59/59
f 59/59/59 62/62/62 61/61/61
f 59/59/59 63/63/63 62/62/62
f 60/60/60 61/61/61 64/64/64
f 61/61/61 65/65/65 64/64/64
f 64/64/64 65/65/65 66/66/66
f 65/65/65 67/67/67 66/66/66
f 67/67/67 68/68/68 66/66/66
f 68/68/68 69/69/69 66/66/66
f 63/63/63 70/70/70 62/62/62
f 70/70/70 63/63/63 59/59/59
f 71/71/71 70/70/70 59/59/59
f 59/59/59 72/72/72 71/71/71
f 71/71/71 72/72/72 73/73/73
f 74/74/74 71/71/71 73/73/73
f 74/74/74 73/73/73 75/75/75
f 75/75/75 69/69/69 68/68/68
f 76/76/76 74/74/74 75/75/75
f 76/76/76 75/75/75 68/68/68
f 79/79/79 78/78/78 77/77/77
f 80/80/80 79/79/79 77/77/77
f 81/81/81 78/78/78 79/79/79
f 82/82/82 81/81/81 79/79/79
f 83/83/83 81/81/81 82/82/82
f 84/84/84 81/81/81 83/83/83
f 85/85/85 84/84/84 83/83/83
f 86/86/86 85/85/85 83/83/83
f 87/87/87 86/86/86 83/83/83
f 85/85/85 86/86/86 88/88/88
f 86/86/86 89/89/89 88/88/88
f 90/90/90 86/86/86 87/87/87
f 93/93/93 92/92/92 91/91/91
f 94/94/94 93/93/93 91/91/91
f 94/94/94 91/91/91 95/95/95
f 91/91/91 96/96/96 95/95/95
f 97/97/97 95/95/95 96/96/96
f 98/98/98 97/97/97 96/96/96
f 98/98/98 99/99/99 97/97/97
f 99/99/99 100/100/100 97/97/97
f 99/99/99 101/101/101 100/100/100
f 99/99/99 102/102/102 101/101/101
f 105/105/105 104/104/104 103/103/103
f 104/104/104 106/106/106 103/103/103
f 106/106/106 107/107/107 103/103/103
f 108/108/108 107/107/107 106/106/106
f 109/109/109 108/108/108 106/106/106
f 109/109/109 110/110/110 108/108/108
f 113/113/113 112/112/112 111/111/111
f 114/114/114 113/113/113 111/111/111
f 112/112/112 113/113/113 115/115/115
f 113/113/113 116/116/116 115/115/115
f 117/117/117 115/115/115 116/116/116
f 118/118/118 117/117/117 116/116/116
f 118/118/118 119/119/119 117/117/117
f 119/119/119 120/120/120 117/117/117
f 123/123/123 122/122/122 121/121/121
f 124/124/124 123/123/123 121/121/121
f 122/122/122 125/125/125 121/121/121
f 128/128/128 127/127/127 126/126/126
f 129/129/129 128/128/128 126/126/126
f 132/132/132 131/131/131 130/130/130
f 135/135/135 134/134/134 133/133/133
f 136/136/136 135/135/135 133/133/133
f 134/134/134 137/137/137 133/133/133
f 140/140/140 139/139/139 138/138/138
f 141/141/141 140/140/140 138/138/138
f 144/144/144 143/143/143 142/142/142
f 145/145/145 144/144/144 142/142/142
f 145/145/145 142/142/142 146/146/146
f 142/142/142 147/147/147 146/146/146
f 150/150/150 149/149/149 148/148/148
f 148/148/148 151/151/151 150/150/150
f 148/148/148 152/152/152 151/151/151
f 155/155/155 154/154/154 153/153/153
f 156/156/156 155/155/155 153/153/153
f 159/159/159 158/158/158 157/157/157
f 160/160/160 159/159/159 157/157/157
f 163/163/163 162/162/162 161/161/161
f 161/161/161 164/164/164 163/163/163
f 161/161/161 165/165/165 164/164/164
f 168/168/168 167/167/167 166/166/166
f 169/169/169 168/168/168 166/166/166
f 172/172/172 171/171/171 170/170/170
f 173/173/173 172/172/172 170/170/170
f 176/176/176 175/175/175 174/174/174
f 177/177/177 176/176/176 174/174/174
f 178/178/178 177/177/177 174/174/174
f 181/181/181 180/180/180 179/179/179
f 182/182/182 181/181/181 179/179/179
f 185/185/185 184/184/184 183/183/183
f 188/188/188 187/187/187 186/186/186
f 189/189/189 188/188/188 186/186/186
f 190/190/190 189/189/189 186/186/186
f 193/193/193 192/192/192 191/191/191
f 194/194/194 193/193/193 191/191/191
f 197/197/197 196/196/196 195/195/195
f 198/198/198 197/197/197 195/195/195
f 201/201/201 200/200/200 199/199/199
f 202/202/202 201/201/201 199/199/199
f 205/205/205 204/204/204 203/203/203
f 206/206/206 205/205/205 203/203/203
f 209/209/209 208/208/208 207/207/207
f 210/210/210 209/209/209 207/207/207
f 213/213/213 212/212/212 211/211/211
