g silencer_akm_tochmash_pbs-1_762x39_LOD1
v 0.02093799 -0.04417389 0.0105998
v 0.02093799 -0.05199489 0.0105998
v 0.01837998 -0.04665989 0.0215869
v 0.01837998 -0.06041687 0.0215869
v 0.02093799 -0.06041687 0.0105998
v 0.01908028 -0.06350487 0.0185789
v 0.02023758 -0.06350487 0.0136078
v 0.02423859 -0.05106289 -3.613532E-08
v 0.02423859 -0.04417389 -3.613532E-08
v 0.01938768 -0.05106289 -0.0150176
v 0.01938768 -0.04417389 -0.0150176
v 0.008738405 -0.05106289 -0.0221453
v 0.008738405 -0.04417389 -0.0221453
v -0.008839685 1.144409E-07 0.00642236
v -0.01092641 1.144409E-07 -3.613532E-08
v -0.008839685 1.144409E-07 -0.00642244
v -0.003376465 1.144409E-07 0.0103916
v -0.003376465 1.144409E-07 -0.0103917
v 0.003376445 1.144409E-07 0.0103916
v 0.003376445 1.144409E-07 -0.0103917
v 0.008839665 1.144409E-07 -0.00642244
v 0.008839665 1.144409E-07 0.00642236
v 0.01092638 1.144409E-07 -3.613532E-08
v -0.006334625 -0.1934078 0.0194959
v 0.006334605 -0.1934078 0.0194959
v 0.006334605 -0.1934078 -0.019496
v 0.01658419 -0.1934078 -0.0120492
v -0.006334625 -0.1934078 -0.019496
v -0.01658421 -0.1934078 -0.0120492
v 0.01658419 -0.1934078 0.0120491
v 0.02049918 -0.1934078 -3.613532E-08
v -0.01658421 -0.1934078 0.0120491
v -0.02049921 -0.1934078 -3.613532E-08
v -0.01658421 -0.1934078 -0.0120492
v -0.006334625 -0.1934078 -0.019496
v -0.01658421 -0.05952587 -0.0120492
v -0.006334625 -0.05952587 -0.019496
v -0.02049921 -0.05952587 -3.613532E-08
v -0.02049921 -0.1934078 -3.613532E-08
v -0.01658421 -0.05952587 0.0120491
v -0.01658421 -0.1934078 0.0120491
v -0.006334625 -0.05952587 0.0194959
v -0.006334625 -0.1934078 0.0194959
v 0.006334605 -0.05952587 0.0194959
v 0.006334605 -0.1934078 0.0194959
v 0.01658419 -0.05952587 0.0120491
v 0.01658419 -0.1934078 0.0120491
v 0.02049918 -0.05952587 -3.613532E-08
v 0.02049918 -0.1934078 -3.613532E-08
v 0.01658419 -0.05952587 -0.0120492
v 0.01658419 -0.1934078 -0.0120492
v 0.006334605 -0.05952587 -0.019496
v 0.006334605 -0.1934078 -0.019496
v -0.006334625 -0.05952587 -0.019496
v -0.006334625 -0.1934078 -0.019496
v -0.007206745 -0.04417389 -0.0221801
v -0.006334625 -0.05952587 -0.019496
v 0.007206724 -0.04417389 -0.0221801
v 0.006334605 -0.05952587 -0.019496
v 0.01886749 -0.04417389 -0.0137081
v 0.01658419 -0.05952587 -0.0120492
v 0.02332149 -0.04417389 -3.613532E-08
v 0.02049918 -0.05952587 -3.613532E-08
v 0.01886749 -0.04417389 0.013708
v 0.01658419 -0.05952587 0.0120491
v 0.007206724 -0.04417389 0.02218
v 0.006334605 -0.05952587 0.0194959
v -0.007206745 -0.04417389 0.02218
v -0.006334625 -0.05952587 0.0194959
v -0.01886751 -0.04417389 0.013708
v -0.01658421 -0.05952587 0.0120491
v -0.02332151 -0.04417389 -3.613532E-08
v -0.02049921 -0.05952587 -3.613532E-08
v -0.01886751 -0.04417389 -0.0137081
v -0.01658421 -0.05952587 -0.0120492
v -0.007206745 -0.04417389 -0.0221801
v -0.006334625 -0.05952587 -0.019496
v -0.02188451 -0.04417389 0.0159
v -0.008359155 -0.04417389 0.0257268
v -0.01886751 -0.04417389 0.013708
v -0.007206745 -0.04417389 0.02218
v 0.007206724 -0.04417389 0.02218
v 0.008359134 -0.04417389 0.0257268
v 0.01886749 -0.04417389 0.013708
v 0.02188449 -0.04417389 0.0159
v 0.02332149 -0.04417389 -3.613532E-08
v 0.02705079 -0.04417389 -3.613532E-08
v 0.01886749 -0.04417389 -0.0137081
v 0.02188449 -0.04417389 -0.0159001
v 0.008359134 -0.04417389 -0.0257268
v 0.007206724 -0.04417389 -0.0221801
v -0.007206745 -0.04417389 -0.0221801
v -0.008359155 -0.04417389 -0.0257268
v -0.01886751 -0.04417389 -0.0137081
v -0.02188451 -0.04417389 -0.0159001
v -0.02332151 -0.04417389 -3.613532E-08
v -0.02705081 -0.04417389 -3.613532E-08
v -0.01886751 -0.04417389 0.013708
v -0.02188451 -0.04417389 0.0159
v -0.02072121 -0.005225868 -0.0150549
v -0.008839685 1.144409E-07 -0.00642244
v -0.02561281 -0.005225868 -3.613532E-08
v -0.01092641 1.144409E-07 -3.613532E-08
v -0.003376465 1.144409E-07 -0.0103917
v -0.007914805 -0.005225868 -0.0243593
v -0.02072121 -0.005225868 0.0150548
v -0.008839685 1.144409E-07 0.00642236
v -0.007914805 -0.005225868 0.0243592
v -0.003376465 1.144409E-07 0.0103916
v 0.007914785 -0.005225868 0.0243592
v 0.003376445 1.144409E-07 0.0103916
v 0.02072118 -0.005225868 0.0150548
v 0.008839665 1.144409E-07 0.00642236
v 0.02561278 -0.005225868 -3.613532E-08
v 0.01092638 1.144409E-07 -3.613532E-08
v 0.02072118 -0.005225868 -0.0150549
v 0.008839665 1.144409E-07 -0.00642244
v 0.007914785 -0.005225868 -0.0243593
v 0.003376445 1.144409E-07 -0.0103917
v -0.007914805 -0.005225868 -0.0243593
v -0.003376465 1.144409E-07 -0.0103917
v -0.008359155 -0.04417389 -0.0257268
v -0.007914805 -0.005225868 -0.0243593
v -0.02188451 -0.04417389 -0.0159001
v -0.02072121 -0.005225868 -0.0150549
v -0.02705081 -0.04417389 -3.613532E-08
v -0.02561281 -0.005225868 -3.613532E-08
v -0.02188451 -0.04417389 0.0159
v -0.02072121 -0.005225868 0.0150548
v -0.008359155 -0.04417389 0.0257268
v -0.007914805 -0.005225868 0.0243592
v 0.008359134 -0.04417389 0.0257268
v 0.007914785 -0.005225868 0.0243592
v 0.02188449 -0.04417389 0.0159
v 0.02072118 -0.005225868 0.0150548
v 0.02705079 -0.04417389 -3.613532E-08
v 0.02561278 -0.005225868 -3.613532E-08
v 0.02188449 -0.04417389 -0.0159001
v 0.02072118 -0.005225868 -0.0150549
v 0.008359134 -0.04417389 -0.0257268
v 0.007914785 -0.005225868 -0.0243593
v -0.008359155 -0.04417389 -0.0257268
v -0.007914805 -0.005225868 -0.0243593
vt 0.882186 0.2992
vt 0.917986 0.2992
vt 0.882186 0.231984
vt 0.966594 0.231984
vt 0.966594 0.2992
vt 0.982644 0.250386
vt 0.982644 0.280798
vt 0.917986 0.365349
vt 0.882186 0.365349
vt 0.917986 0.459382
vt 0.882186 0.459382
vt 0.917986 0.535736
vt 0.882186 0.535736
vt 0.97877 0.590316
vt 0.957951 0.565979
vt 0.924265 0.556683
vt 0.97877 0.620398
vt 0.890579 0.565979
vt 0.957951 0.644735
vt 0.86976 0.590316
vt 0.86976 0.620398
vt 0.924265 0.654031
vt 0.890579 0.644735
vt 0.957952 0.176438
vt 0.979426 0.120531
vt 0.776185 0.0645775
vt 0.832374 0.0300407
vt 0.75471 0.120485
vt 0.776153 0.176401
vt 0.957984 0.0646147
vt 0.901815 0.0300407
vt 0.901763 0.210982
vt 0.832322 0.210968
vt 0.660211 0.654555
vt 0.72932 0.654555
vt 0.660211 0.0333046
vt 0.72932 0.0333046
vt 0.591102 0.0333046
vt 0.591102 0.654555
vt 0.521993 0.0333046
vt 0.521993 0.654555
vt 0.452885 0.0333046
vt 0.452885 0.654555
vt 0.383776 0.0333046
vt 0.383776 0.654555
vt 0.314667 0.0333046
vt 0.314667 0.654555
vt 0.245558 0.0333046
vt 0.245558 0.654555
vt 0.176449 0.0333046
vt 0.176449 0.654555
vt 0.10734 0.0333046
vt 0.10734 0.654555
vt 0.0382311 0.0333046
vt 0.0382311 0.654555
vt 0.0439576 0.917547
vt 0.0439576 0.990286
vt 0.134827 0.917547
vt 0.134827 0.990286
vt 0.225697 0.917547
vt 0.225697 0.990286
vt 0.316566 0.917547
vt 0.316566 0.990286
vt 0.407436 0.917547
vt 0.407436 0.990286
vt 0.498306 0.917547
vt 0.498306 0.990286
vt 0.589175 0.917547
vt 0.589175 0.990286
vt 0.680045 0.917547
vt 0.680045 0.990286
vt 0.770914 0.917547
vt 0.770914 0.990286
vt 0.861784 0.917547
vt 0.861784 0.990286
vt 0.952654 0.917547
vt 0.952654 0.990286
vt 0.0439664 0.896892
vt 0.134869 0.896892
vt 0.0439664 0.879931
vt 0.134869 0.879931
vt 0.225772 0.879931
vt 0.225772 0.896892
vt 0.316675 0.879931
vt 0.316675 0.896892
vt 0.407578 0.879931
vt 0.407578 0.896892
vt 0.498481 0.879931
vt 0.498481 0.896892
vt 0.589384 0.896892
vt 0.589384 0.879931
vt 0.680287 0.879931
vt 0.680287 0.896892
vt 0.771189 0.879931
vt 0.771189 0.896892
vt 0.862092 0.879931
vt 0.862092 0.896892
vt 0.952994 0.879931
vt 0.952994 0.896892
vt 0.768537 0.603181
vt 0.848509 0.603181
vt 0.768537 0.562235
vt 0.848509 0.562235
vt 0.848509 0.644127
vt 0.768537 0.644127
vt 0.768537 0.521289
vt 0.848509 0.521289
vt 0.768537 0.480343
vt 0.848509 0.480343
vt 0.768537 0.439397
vt 0.848509 0.439397
vt 0.768537 0.398451
vt 0.848509 0.398451
vt 0.768537 0.357505
vt 0.848509 0.357505
vt 0.768537 0.316559
vt 0.848509 0.316559
vt 0.768537 0.275613
vt 0.848509 0.275613
vt 0.768537 0.234667
vt 0.848509 0.234667
vt 0.954749 0.858323
vt 0.954749 0.67657
vt 0.863676 0.858323
vt 0.863676 0.67657
vt 0.772602 0.858323
vt 0.772602 0.67657
vt 0.681528 0.858323
vt 0.681528 0.67657
vt 0.590454 0.858323
vt 0.590454 0.67657
vt 0.49938 0.858323
vt 0.49938 0.67657
vt 0.408307 0.858323
vt 0.408307 0.67657
vt 0.317233 0.858323
vt 0.317233 0.67657
vt 0.226159 0.858323
vt 0.226159 0.67657
vt 0.135085 0.858323
vt 0.135085 0.67657
vt 0.0440114 0.858323
vt 0.0440114 0.67657
vn 0.9642977 0 0.2648204
vn 0.9683582 0 0.2495647
vn 0.9739521 0 0.2267541
vn 0.9739521 -1.832116E-06 0.2267541
vn 0.9739525 -7.903161E-06 0.2267519
vn 0.9739525 -1.064718E-05 0.2267523
vn 0.9739549 -3.916445E-05 0.2267418
vn 0.9999957 0 0.002951675
vn 0.9999861 0 -0.005284719
vn 0.7980767 0 -0.6025559
vn 0.7980767 0 -0.602556
vn 0.5562217 0 -0.8310339
vn 0.5562217 0 -0.8310339
vn 0 1 0
vn 0 1 0
vn 0 1 0
vn 0 1 0
vn 0 1 0
vn 0 1 0
vn 0 1 0
vn 0 1 0
vn 0 1 0
vn 0 1 0
vn 0 -1 0
vn 0 -1 0
vn 0 -1 0
vn 0 -1 0
vn 0 -1 0
vn 0 -1 0
vn 0 -1 0
vn 0 -1 0
vn 0 -1 0
vn 0 -1 0
vn -0.809018 0 -0.587784
vn -0.3090182 0 -0.9510561
vn -0.8090179 0 -0.5877839
vn -0.3090181 0 -0.9510561
vn -1 0 3.19186E-07
vn -1 0 3.690587E-07
vn -0.8090178 0 0.5877842
vn -0.8090177 0 0.5877843
vn -0.3090182 0 0.9510561
vn -0.3090181 0 0.9510561
vn 0.3090183 0 0.9510561
vn 0.3090183 0 0.9510561
vn 0.8090178 0 0.5877841
vn 0.8090179 0 0.5877841
vn 1 0 3.790333E-07
vn 1 0 3.39135E-07
vn 0.8090181 0 -0.5877838
vn 0.809018 0 -0.5877838
vn 0.3090183 0 -0.9510561
vn 0.3090183 0 -0.9510561
vn -0.3090181 0 -0.9510561
vn -0.3090182 0 -0.9510561
vn -0.3039238 -0.1808064 -0.9353819
vn -0.3039252 -0.1808053 -0.9353817
vn 0.3039231 -0.1808052 -0.9353824
vn 0.3039242 -0.1808065 -0.9353818
vn 0.7956834 -0.1808087 -0.5780969
vn 0.7956839 -0.1808097 -0.5780959
vn 0.9835181 -0.1808096 1.910399E-07
vn 0.9835181 -0.1808097 2.019514E-07
vn 0.7956824 -0.1808096 0.578098
vn 0.7956831 -0.1808085 0.5780975
vn 0.303924 -0.1808062 0.9353819
vn 0.3039254 -0.1808051 0.9353817
vn -0.303923 -0.180805 0.9353824
vn -0.303924 -0.1808063 0.9353819
vn -0.7956832 -0.1808086 0.5780973
vn -0.7956837 -0.1808096 0.5780964
vn -0.9835181 -0.1808096 4.28549E-07
vn -0.9835181 -0.1808095 5.000702E-07
vn -0.7956825 -0.1808097 -0.5780979
vn -0.7956831 -0.1808086 -0.5780974
vn -0.3039238 -0.1808064 -0.9353819
vn -0.3039252 -0.1808053 -0.9353817
vn 0 -1 0
vn 0 -1 0
vn 0 -1 0
vn 0 -1 0
vn 0 -1 0
vn 0 -1 0
vn 0 -1 0
vn 0 -1 0
vn 0 -1 0
vn 0 -1 0
vn 0 -1 0
vn 0 -1 0
vn 0 -1 0
vn 0 -1 0
vn 0 -1 0
vn 0 -1 0
vn 0 -1 0
vn 0 -1 0
vn 0 -1 0
vn 0 -1 0
vn 0 -1 0
vn 0 -1 0
vn -0.27122 0.9421306 -0.1970527
vn -0.2712201 0.9421307 -0.1970521
vn -0.3352463 0.9421306 2.174262E-07
vn -0.3352464 0.9421304 5.501901E-07
vn -0.1035968 0.9421307 -0.318838
vn -0.1035967 0.9421307 -0.3188379
vn -0.2712201 0.9421306 0.1970526
vn -0.2712204 0.9421306 0.1970522
vn -0.1035967 0.9421306 0.3188381
vn -0.1035963 0.9421307 0.3188381
vn 0.1035968 0.9421307 0.3188379
vn 0.1035967 0.9421306 0.3188382
vn 0.2712201 0.9421304 0.1970529
vn 0.2712199 0.9421306 0.1970526
vn 0.3352463 0.9421306 -1.175277E-07
vn 0.3352465 0.9421304 -5.421587E-07
vn 0.27122 0.9421306 -0.1970524
vn 0.2712209 0.9421304 -0.1970516
vn 0.1035968 0.9421307 -0.318838
vn 0.1035967 0.9421307 -0.318838
vn -0.1035967 0.9421307 -0.3188379
vn -0.1035968 0.9421307 -0.318838
vn -0.3088057 0.03689282 -0.9504094
vn -0.3088062 0.03689322 -0.9504092
vn -0.8084648 0.03689361 -0.5873871
vn -0.8084663 0.03689473 -0.587385
vn -0.9993191 0.03689516 7.861661E-07
vn -0.9993191 0.03689513 8.317713E-07
vn -0.8084661 0.03689469 0.5873853
vn -0.8084666 0.0368944 0.5873845
vn -0.3088074 0.03689486 0.9504088
vn -0.3088066 0.03689527 0.950409
vn 0.3088078 0.03689526 0.9504085
vn 0.3088071 0.03689485 0.9504089
vn 0.8084657 0.03689438 0.5873857
vn 0.8084661 0.03689472 0.5873851
vn 0.9993191 0.03689516 -2.486595E-07
vn 0.9993191 0.03689513 -2.871592E-07
vn 0.8084649 0.0368947 -0.5873868
vn 0.8084665 0.03689358 -0.5873846
vn 0.308806 0.0368932 -0.9504092
vn 0.3088067 0.03689282 -0.950409
vn -0.3088057 0.03689282 -0.9504094
vn -0.3088062 0.03689322 -0.9504092
g silencer_akm_tochmash_pbs-1_762x39_LOD1_0
f 3/3/3 2/2/2 1/1/1
f 4/4/4 2/2/2 3/3/3
f 2/2/2 4/4/4 5/5/5
f 6/6/6 5/5/5 4/4/4
f 5/5/5 6/6/6 7/7/7
f 8/8/8 1/1/1 2/2/2
f 1/1/1 8/8/8 9/9/9
f 10/10/10 9/9/9 8/8/8
f 9/9/9 10/10/10 11/11/11
f 12/12/12 11/11/11 10/10/10
f 11/11/11 12/12/12 13/13/13
f 16/16/16 15/15/15 14/14/14
f 17/17/17 16/16/16 14/14/14
f 16/16/16 17/17/17 18/18/18
f 19/19/19 18/18/18 17/17/17
f 18/18/18 19/19/19 20/20/20
f 19/19/19 21/21/21 20/20/20
f 21/21/21 19/19/19 22/22/22
f 21/21/21 22/22/22 23/23/23
f 26/26/26 25/25/25 24/24/24
f 25/25/25 26/26/26 27/27/27
f 26/26/26 24/24/24 28/28/28
f 29/29/29 28/28/28 24/24/24
f 27/27/27 30/30/30 25/25/25
f 30/30/30 27/27/27 31/31/31
f 24/24/24 32/32/32 29/29/29
f 33/33/33 29/29/29 32/32/32
f 36/36/36 35/35/35 34/34/34
f 35/35/35 36/36/36 37/37/37
f 34/34/34 38/38/38 36/36/36
f 38/38/38 34/34/34 39/39/39
f 39/39/39 40/40/40 38/38/38
f 40/40/40 39/39/39 41/41/41
f 41/41/41 42/42/42 40/40/40
f 42/42/42 41/41/41 43/43/43
f 43/43/43 44/44/44 42/42/42
f 44/44/44 43/43/43 45/45/45
f 45/45/45 46/46/46 44/44/44
f 46/46/46 45/45/45 47/47/47
f 47/47/47 48/48/48 46/46/46
f 48/48/48 47/47/47 49/49/49
f 49/49/49 50/50/50 48/48/48
f 50/50/50 49/49/49 51/51/51
f 51/51/51 52/52/52 50/50/50
f 52/52/52 51/51/51 53/53/53
f 53/53/53 54/54/54 52/52/52
f 54/54/54 53/53/53 55/55/55
f 58/58/58 57/57/57 56/56/56
f 57/57/57 58/58/58 59/59/59
f 60/60/60 59/59/59 58/58/58
f 59/59/59 60/60/60 61/61/61
f 62/62/62 61/61/61 60/60/60
f 61/61/61 62/62/62 63/63/63
f 64/64/64 63/63/63 62/62/62
f 63/63/63 64/64/64 65/65/65
f 66/66/66 65/65/65 64/64/64
f 65/65/65 66/66/66 67/67/67
f 68/68/68 67/67/67 66/66/66
f 67/67/67 68/68/68 69/69/69
f 70/70/70 69/69/69 68/68/68
f 69/69/69 70/70/70 71/71/71
f 72/72/72 71/71/71 70/70/70
f 71/71/71 72/72/72 73/73/73
f 74/74/74 73/73/73 72/72/72
f 73/73/73 74/74/74 75/75/75
f 76/76/76 75/75/75 74/74/74
f 75/75/75 76/76/76 77/77/77
f 80/80/80 79/79/79 78/78/78
f 79/79/79 80/80/80 81/81/81
f 82/82/82 79/79/79 81/81/81
f 79/79/79 82/82/82 83/83/83
f 84/84/84 83/83/83 82/82/82
f 83/83/83 84/84/84 85/85/85
f 86/86/86 85/85/85 84/84/84
f 85/85/85 86/86/86 87/87/87
f 88/88/88 87/87/87 86/86/86
f 87/87/87 88/88/88 89/89/89
f 88/88/88 90/90/90 89/89/89
f 90/90/90 88/88/88 91/91/91
f 92/92/92 90/90/90 91/91/91
f 90/90/90 92/92/92 93/93/93
f 94/94/94 93/93/93 92/92/92
f 93/93/93 94/94/94 95/95/95
f 96/96/96 95/95/95 94/94/94
f 95/95/95 96/96/96 97/97/97
f 98/98/98 97/97/97 96/96/96
f 97/97/97 98/98/98 99/99/99
f 102/102/102 101/101/101 100/100/100
f 101/101/101 102/102/102 103/103/103
f 104/104/104 100/100/100 101/101/101
f 100/100/100 104/104/104 105/105/105
f 106/106/106 103/103/103 102/102/102
f 103/103/103 106/106/106 107/107/107
f 108/108/108 107/107/107 106/106/106
f 107/107/107 108/108/108 109/109/109
f 110/110/110 109/109/109 108/108/108
f 109/109/109 110/110/110 111/111/111
f 112/112/112 111/111/111 110/110/110
f 111/111/111 112/112/112 113/113/113
f 114/114/114 113/113/113 112/112/112
f 113/113/113 114/114/114 115/115/115
f 116/116/116 115/115/115 114/114/114
f 115/115/115 116/116/116 117/117/117
f 118/118/118 117/117/117 116/116/116
f 117/117/117 118/118/118 119/119/119
f 120/120/120 119/119/119 118/118/118
f 119/119/119 120/120/120 121/121/121
f 124/124/124 123/123/123 122/122/122
f 123/123/123 124/124/124 125/125/125
f 126/126/126 125/125/125 124/124/124
f 125/125/125 126/126/126 127/127/127
f 128/128/128 127/127/127 126/126/126
f 127/127/127 128/128/128 129/129/129
f 130/130/130 129/129/129 128/128/128
f 129/129/129 130/130/130 131/131/131
f 132/132/132 131/131/131 130/130/130
f 131/131/131 132/132/132 133/133/133
f 134/134/134 133/133/133 132/132/132
f 133/133/133 134/134/134 135/135/135
f 136/136/136 135/135/135 134/134/134
f 135/135/135 136/136/136 137/137/137
f 138/138/138 137/137/137 136/136/136
f 137/137/137 138/138/138 139/139/139
f 140/140/140 139/139/139 138/138/138
f 139/139/139 140/140/140 141/141/141
f 142/142/142 141/141/141 140/140/140
f 141/141/141 142/142/142 143/143/143
