g silencer_pp-91-01_zmz_kedr_b_std_9x18pm_LOD1
v -0.01176573 -0.1341327 -0.008537291
v 0.004485887 -0.1341327 -0.01384415
v -0.004502072 -0.1341327 -0.01383095
v -0.01174064 -0.1341327 0.008558823
v 0.004526493 -0.1341327 0.01381795
v 0.01455504 -0.1341327 -2.784518E-05
v 0.01176506 -0.1341327 -0.008571829
v 0.01178808 -0.1341327 0.008527138
v -0.004461469 -0.1341327 0.01383114
v -0.01453061 -0.1341327 1.484161E-05
v 0.004485887 -0.1341327 -0.01384415
v -0.004502072 -0.0004730511 -0.01383093
v -0.004502072 -0.1341327 -0.01383095
v 0.004485889 -0.0004730535 -0.01384413
v 0.01176506 -0.1341327 -0.008571829
v 0.01176506 -0.0004730511 -0.008571809
v 0.01455504 -0.1341327 -2.784518E-05
v 0.01455504 -0.0004730535 -2.782633E-05
v 0.01178808 -0.1341327 0.008527138
v 0.01178952 -0.000473063 0.008525182
v 0.004526493 -0.1341327 0.01381795
v 0.004526495 -0.0004730582 0.01381797
v -0.004461469 -0.1341327 0.01383114
v -0.004461469 -0.0004730582 0.01383116
v -0.01174064 -0.1341327 0.008558823
v -0.01174064 -0.0004730606 0.008558843
v -0.01453061 -0.1341327 1.484161E-05
v -0.01453062 -0.0004730558 1.486047E-05
v -0.01176573 -0.0004730535 -0.008537271
v -0.01176573 -0.1341327 -0.008537291
v -0.01453062 -0.0004730558 1.486047E-05
v -0.01453061 -0.1341327 1.484161E-05
v -0.01176573 -0.0004730535 -0.008537271
v -0.01174064 -0.0004730606 0.008558843
v -0.01453062 -0.0004730558 1.486047E-05
v 0.004485889 -0.0004730535 -0.01384413
v 0.004526495 -0.0004730582 0.01381797
v -0.004461469 -0.0004730582 0.01383116
v 0.01455504 -0.0004730535 -2.782633E-05
v 0.01178952 -0.000473063 0.008525182
v 0.01176506 -0.0004730511 -0.008571809
v -0.004502072 -0.0004730511 -0.01383093
vt 0.5673394 0.6243588
vt 0.8267414 0.5396532
vt 0.6832791 0.5398633
vt 0.5677394 0.8972403
vt 0.827389 0.981185
vt 0.9874606 0.7601838
vt 0.9429287 0.623808
vt 0.9432957 0.8967351
vt 0.6839266 0.9813951
vt 0.5232073 0.7608646
vt 0.998 0.3665761
vt 0.3077785 0.4175776
vt 0.9979995 0.4175775
vt 0.3077785 0.3665762
vt 0.9979998 0.3155748
vt 0.3077782 0.3155749
vt 0.9979997 0.2645734
vt 0.3077781 0.2645735
vt 0.9979995 0.2135529
vt 0.3077781 0.2135795
vt 0.9979995 0.1625705
vt 0.3077779 0.1625707
vt 0.9979993 0.1115691
vt 0.3077777 0.1115693
vt 0.9979991 0.06056768
vt 0.3077774 0.06056797
vt 0.9979987 0.009566261
vt 0.3077771 0.009566603
vt 0.3077785 0.4685788
vt 0.9979992 0.4685789
vt 0.3077784 0.5195801
vt 0.9979987 0.5195801
vt 0.5673394 0.6243588
vt 0.5677393 0.8972405
vt 0.5232073 0.7608646
vt 0.8267415 0.5396532
vt 0.827389 0.9811851
vt 0.6839266 0.9813951
vt 0.9874607 0.7601839
vt 0.9432957 0.8967351
vt 0.9429287 0.623808
vt 0.6832791 0.5398633
vn 0 -1 0
vn 0 -1 0
vn 0 -1 0
vn 0 -1 0
vn 0 -1 0
vn 0 -1 -1.629777E-07
vn 0 -1 0
vn 0 -1 0
vn 0 -1 0
vn 0 -1 -1.629777E-07
vn 0.3076204 1.18682E-07 -0.9515091
vn -0.3104127 1.231945E-07 -0.9506019
vn -0.3104126 1.259509E-07 -0.950602
vn 0.3076206 1.307649E-07 -0.9515091
vn 0.8081533 0 -0.5889722
vn 0.8081532 0 -0.5889723
vn 0.999999 0 -0.00140705
vn 0.9999989 -2.86644E-06 -0.001447659
vn 0.8098066 2.735229E-06 0.586697
vn 0.8098581 -2.943443E-06 0.5866259
vn 0.3103567 2.691716E-06 0.9506202
vn 0.3103948 -1.379168E-07 0.9506077
vn -0.3076208 -1.362794E-07 0.9515091
vn -0.3076207 -1.345661E-07 0.9515091
vn -0.8081536 0 0.5889719
vn -0.8081533 0 0.5889722
vn -0.9999989 0 0.001467617
vn -0.9999989 0 0.001467477
vn -0.8098788 0 -0.5865973
vn -0.8098788 0 -0.5865972
vn -0.9999989 0 0.001467477
vn -0.9999989 0 0.001467617
vn 0 1 0
vn 0 1 0
vn 0 1 1.629816E-07
vn 0 1 0
vn 0 1 0
vn 0 1 0
vn 0 1 1.629816E-07
vn 0 1 0
vn 0 1 0
vn 0 1 0
g silencer_pp-91-01_zmz_kedr_b_std_9x18pm_LOD1_0
f 3/3/3 2/2/2 1/1/1
f 2/2/2 4/4/4 1/1/1
f 5/5/5 4/4/4 2/2/2
f 6/6/6 5/5/5 2/2/2
f 7/7/7 6/6/6 2/2/2
f 8/8/8 5/5/5 6/6/6
f 9/9/9 4/4/4 5/5/5
f 4/4/4 10/10/10 1/1/1
f 13/13/13 12/12/12 11/11/11
f 14/14/14 11/11/11 12/12/12
f 11/11/11 14/14/14 15/15/15
f 16/16/16 15/15/15 14/14/14
f 15/15/15 16/16/16 17/17/17
f 18/18/18 17/17/17 16/16/16
f 17/17/17 18/18/18 19/19/19
f 20/20/20 19/19/19 18/18/18
f 19/19/19 20/20/20 21/21/21
f 22/22/22 21/21/21 20/20/20
f 21/21/21 22/22/22 23/23/23
f 24/24/24 23/23/23 22/22/22
f 23/23/23 24/24/24 25/25/25
f 26/26/26 25/25/25 24/24/24
f 25/25/25 26/26/26 27/27/27
f 28/28/28 27/27/27 26/26/26
f 30/30/30 29/29/29 13/13/13
f 29/29/29 30/30/30 31/31/31
f 32/32/32 31/31/31 30/30/30
f 12/12/12 13/13/13 29/29/29
f 35/35/35 34/34/34 33/33/33
f 34/34/34 36/36/36 33/33/33
f 37/37/37 36/36/36 34/34/34
f 38/38/38 37/37/37 34/34/34
f 39/39/39 36/36/36 37/37/37
f 40/40/40 39/39/39 37/37/37
f 41/41/41 36/36/36 39/39/39
f 36/36/36 42/42/42 33/33/33
