g silencer_mp9_bt_supressor_9x19_LOD1
v -0.02200427 -0.1923892 0.01275003
v -0.02200424 -0.0276873 0.01275002
v -0.01270417 -0.1923892 0.02205011
v -0.01270415 -0.02768732 0.0220501
v -1.272425E-08 -0.1923892 0.02545418
v 1.214505E-08 -0.0276873 0.02545418
v 0.01270415 -0.1923892 0.02205011
v 0.01270417 -0.02768732 0.0220501
v 0.02200424 -0.1923892 0.01275003
v 0.02200426 -0.0276873 0.01275002
v 0.02540831 -0.1923892 4.587175E-05
v 0.02540833 -0.0276873 4.586222E-05
v 0.02200424 -0.1923892 -0.01265829
v 0.02200426 -0.02768732 -0.0126583
v 0.01270415 -0.1923892 -0.02195839
v 0.01270417 -0.0276873 -0.02195839
v -1.272425E-08 -0.1923892 -0.02536245
v 1.214505E-08 -0.02768732 -0.02536246
v -1.272425E-08 -0.1923892 -0.02536245
v 1.214505E-08 -0.02768732 -0.02536246
v -0.01270417 -0.1923892 -0.02195839
v -0.01270415 -0.0276873 -0.02195839
v -0.02200427 -0.1923892 -0.01265829
v -0.02200424 -0.02768732 -0.0126583
v -0.02540834 -0.1923892 4.587175E-05
v -0.02540831 -0.0276873 4.586222E-05
v 0.02200424 -0.1923892 0.01275003
v 0.02540831 -0.1923892 4.587175E-05
v 0.02200424 -0.1923892 -0.01265829
v 0.01270415 -0.1923892 -0.02195839
v 0.01270415 -0.1923892 0.02205011
v -1.272425E-08 -0.1923892 -0.02536245
v -1.272425E-08 -0.1923892 0.02545418
v -0.01270417 -0.1923892 -0.02195839
v -0.01270417 -0.1923892 0.02205011
v -0.02200427 -0.1923892 0.01275003
v -0.02200427 -0.1923892 -0.01265829
v -0.02540834 -0.1923892 4.587175E-05
v -0.01480056 0.0002526093 4.585745E-05
v -0.01281766 0.0002526093 -0.007354431
v -0.01281766 0.0002526093 0.007446146
v -0.007400269 0.0002526093 -0.01277181
v -0.007400269 0.0002526093 0.01286353
v 1.588533E-08 0.0002526093 -0.01475471
v 1.588533E-08 0.0002526093 0.01484643
v 0.007400303 0.0002526093 -0.01277181
v 0.007400303 0.0002526093 0.01286353
v 0.01281769 0.0002526093 -0.007354431
v 0.01281769 0.0002526093 0.007446146
v 0.01480059 0.0002526093 4.585745E-05
v -0.02200424 -0.0276873 0.01275002
v -0.01680372 -0.0276873 0.009747505
v -0.01270415 -0.02768732 0.0220501
v -0.009701627 -0.0276873 0.01684959
v 1.214505E-08 -0.0276873 0.02545418
v 1.175012E-08 -0.02768732 0.01944913
v 0.01270417 -0.02768732 0.0220501
v 0.009701653 -0.0276873 0.01684959
v 0.02200426 -0.0276873 0.01275002
v 0.01680375 -0.0276873 0.009747505
v 0.02540833 -0.0276873 4.586222E-05
v 0.01940329 -0.0276873 4.586222E-05
v 0.02200426 -0.02768732 -0.0126583
v 0.01680375 -0.02768732 -0.00965578
v 0.01270417 -0.0276873 -0.02195839
v 0.009701653 -0.02768732 -0.01675787
v 1.214505E-08 -0.02768732 -0.02536246
v 1.175012E-08 -0.0276873 -0.01935742
v 1.214505E-08 -0.02768732 -0.02536246
v 1.175012E-08 -0.0276873 -0.01935742
v -0.01270415 -0.0276873 -0.02195839
v -0.009701627 -0.02768732 -0.01675787
v -0.02200424 -0.02768732 -0.0126583
v -0.01680372 -0.02768732 -0.00965578
v -0.02540831 -0.0276873 4.586222E-05
v -0.01940327 -0.0276873 4.586222E-05
v -0.01680372 -0.02407354 0.009747505
v -0.01281766 -0.02407354 0.007446151
v -0.009701627 -0.02407354 0.01684959
v -0.007400273 -0.02407354 0.01286354
v 1.229578E-08 -0.02407354 0.01944913
v 1.221219E-08 -0.02407354 0.01484643
v 0.009701652 -0.02407354 0.01684959
v 0.007400298 -0.02407354 0.01286354
v 0.01680375 -0.02407354 0.009747505
v 0.01281768 -0.02407354 0.007446151
v 0.01940329 -0.02407354 4.586222E-05
v 0.01480058 -0.02407354 4.586222E-05
v 0.01680375 -0.02407354 -0.00965578
v 0.01281768 -0.02407354 -0.007354426
v 0.009701652 -0.02407354 -0.01675786
v 0.007400298 -0.02407354 -0.01277181
v 1.229578E-08 -0.02407354 -0.01935742
v 1.221219E-08 -0.02407354 -0.01475471
v 1.229578E-08 -0.02407354 -0.01935742
v 1.221219E-08 -0.02407354 -0.01475471
v -0.009701627 -0.02407354 -0.01675786
v -0.007400273 -0.02407354 -0.01277181
v -0.01680372 -0.02407354 -0.00965578
v -0.01281766 -0.02407354 -0.007354426
v -0.01940327 -0.02407354 4.586222E-05
v -0.01480056 -0.02407354 4.586222E-05
v -0.01680372 -0.0276873 0.009747505
v -0.01680372 -0.02407354 0.009747505
v -0.009701627 -0.0276873 0.01684959
v -0.009701627 -0.02407354 0.01684959
v 1.175012E-08 -0.02768732 0.01944913
v 1.229578E-08 -0.02407354 0.01944913
v 0.009701653 -0.0276873 0.01684959
v 0.009701652 -0.02407354 0.01684959
v 0.01680375 -0.0276873 0.009747505
v 0.01680375 -0.02407354 0.009747505
v 0.01940329 -0.0276873 4.586222E-05
v 0.01940329 -0.02407354 4.586222E-05
v 0.01680375 -0.02768732 -0.00965578
v 0.01680375 -0.02407354 -0.00965578
v 0.009701653 -0.02768732 -0.01675787
v 0.009701652 -0.02407354 -0.01675786
v 1.175012E-08 -0.0276873 -0.01935742
v 1.229578E-08 -0.02407354 -0.01935742
v 1.175012E-08 -0.0276873 -0.01935742
v 1.229578E-08 -0.02407354 -0.01935742
v -0.009701627 -0.02768732 -0.01675787
v -0.009701627 -0.02407354 -0.01675786
v -0.01680372 -0.02768732 -0.00965578
v -0.01680372 -0.02407354 -0.00965578
v -0.01940327 -0.0276873 4.586222E-05
v -0.01940327 -0.02407354 4.586222E-05
v -0.01480056 -0.02407354 4.586222E-05
v -0.01480056 0.0002526093 4.585745E-05
v -0.01281766 -0.02407354 0.007446151
v -0.01281766 0.0002526093 0.007446146
v -0.01281766 0.0002526093 -0.007354431
v -0.01281766 -0.02407354 -0.007354426
v -0.007400269 0.0002526093 -0.01277181
v -0.007400273 -0.02407354 -0.01277181
v 1.588533E-08 0.0002526093 -0.01475471
v 1.221219E-08 -0.02407354 -0.01475471
v -0.007400273 -0.02407354 0.01286354
v -0.007400269 0.0002526093 0.01286353
v 1.221219E-08 -0.02407354 0.01484643
v 1.588533E-08 0.0002526093 0.01484643
v 0.007400298 -0.02407354 0.01286354
v 0.007400303 0.0002526093 0.01286353
v 0.01281768 -0.02407354 0.007446151
v 0.01281769 0.0002526093 0.007446146
v 0.01480058 -0.02407354 4.586222E-05
v 0.01480059 0.0002526093 4.585745E-05
v 0.01281768 -0.02407354 -0.007354426
v 0.01281769 0.0002526093 -0.007354431
v 0.007400298 -0.02407354 -0.01277181
v 0.007400303 0.0002526093 -0.01277181
v 1.221219E-08 -0.02407354 -0.01475471
v 1.588533E-08 0.0002526093 -0.01475471
vt 0.2652839 0.006832366
vt 0.2652841 0.8110411
vt 0.3295042 0.006832366
vt 0.3295043 0.8110409
vt 0.3937244 0.006832366
vt 0.3937247 0.8110411
vt 0.4579447 0.006832366
vt 0.4579449 0.8110409
vt 0.5221649 0.006832276
vt 0.5221652 0.8110411
vt 0.5863852 0.006832247
vt 0.5863855 0.8110409
vt 0.6506054 0.006832276
vt 0.6506057 0.8110409
vt 0.7148258 0.006832247
vt 0.714826 0.8110409
vt 0.7790462 0.006832217
vt 0.7790463 0.8110409
vt 0.008402636 0.006832455
vt 0.008402875 0.8110411
vt 0.07262295 0.006832455
vt 0.07262319 0.8110411
vt 0.1368432 0.006832455
vt 0.1368435 0.8110411
vt 0.2010636 0.006832396
vt 0.2010637 0.8110411
vt 0.7899041 0.8291749
vt 0.7755112 0.8828897
vt 0.7899041 0.9366047
vt 0.829226 0.9759267
vt 0.829226 0.7898529
vt 0.8829409 0.9903197
vt 0.8829409 0.7754601
vt 0.9366559 0.9759267
vt 0.9366559 0.7898529
vt 0.9759779 0.829175
vt 0.9759778 0.9366047
vt 0.9903709 0.8828897
vt 0.7569022 0.9053015
vt 0.7472765 0.8691709
vt 0.7473273 0.9413381
vt 0.7208307 0.8427296
vt 0.7208467 0.9678252
vt 0.6846309 0.833086
vt 0.6846308 0.9775459
vt 0.648424 0.842833
vt 0.6484486 0.9678996
vt 0.6219639 0.8693173
vt 0.6220305 0.9414558
vt 0.6123767 0.9053625
vt 0.850849 0.2441563
vt 0.8214427 0.2441563
vt 0.850849 0.2948537
vt 0.8214429 0.2948537
vt 0.8508492 0.345356
vt 0.8214429 0.3453561
vt 0.8508492 0.3976111
vt 0.8214429 0.3976111
vt 0.850849 0.478781
vt 0.8214429 0.4787808
vt 0.850849 0.5301544
vt 0.8214429 0.5301543
vt 0.8508492 0.5816799
vt 0.8214429 0.58168
vt 0.8508492 0.6334776
vt 0.8214429 0.6334776
vt 0.8508492 0.6886121
vt 0.8214429 0.6886123
vt 0.8508487 0.03407712
vt 0.8214424 0.03407712
vt 0.8508485 0.08940859
vt 0.8214429 0.08940859
vt 0.8508485 0.1409416
vt 0.8214427 0.1409416
vt 0.8508487 0.191158
vt 0.8214424 0.191158
vt 0.917052 0.2099241
vt 0.8939466 0.2099241
vt 0.9170524 0.2458274
vt 0.8939466 0.2458275
vt 0.9170524 0.2837505
vt 0.8939468 0.2837505
vt 0.9170524 0.3424026
vt 0.8939468 0.3424027
vt 0.9170523 0.3795009
vt 0.8939468 0.3795009
vt 0.9170523 0.4163158
vt 0.8939465 0.4163158
vt 0.917052 0.4536598
vt 0.8939465 0.4536598
vt 0.9170524 0.4908646
vt 0.8939466 0.4908646
vt 0.9170521 0.5308595
vt 0.8939466 0.5308595
vt 0.9170521 0.04351567
vt 0.8939469 0.04351567
vt 0.9170523 0.1055832
vt 0.8939469 0.1055833
vt 0.917052 0.1354942
vt 0.8939465 0.1354942
vt 0.9170521 0.1724191
vt 0.8939465 0.1724188
vt 0.4117522 0.8518901
vt 0.4117522 0.8342445
vt 0.3627098 0.8518901
vt 0.3627097 0.8342448
vt 0.3136675 0.8518904
vt 0.3136674 0.8342448
vt 0.2646251 0.8518901
vt 0.2646251 0.834245
vt 0.2155828 0.8518904
vt 0.2155828 0.8342453
vt 0.1665404 0.8518906
vt 0.1665403 0.8342453
vt 0.117498 0.8518909
vt 0.117498 0.8342453
vt 0.06845576 0.8518909
vt 0.06845576 0.8342455
vt 0.01941341 0.8518911
vt 0.01941341 0.8342457
vt 0.6079214 0.8518894
vt 0.6079214 0.8342441
vt 0.5588792 0.8518897
vt 0.5588791 0.8342441
vt 0.5098367 0.8518897
vt 0.5098367 0.8342443
vt 0.4607945 0.8518899
vt 0.4607944 0.8342445
vt 0.3684588 0.9867187
vt 0.3684587 0.8679388
vt 0.3310501 0.986719
vt 0.3310499 0.867939
vt 0.4058678 0.8679388
vt 0.4058678 0.9867187
vt 0.4432765 0.8679388
vt 0.4432766 0.9867188
vt 0.4806854 0.8679385
vt 0.4806857 0.9867188
vt 0.2936411 0.9867189
vt 0.2936409 0.867939
vt 0.2562322 0.9867189
vt 0.2562322 0.8679389
vt 0.2188233 0.9867189
vt 0.2188232 0.8679392
vt 0.1814146 0.9867189
vt 0.1814143 0.8679392
vt 0.1440055 0.9867187
vt 0.1440055 0.867939
vt 0.1065964 0.986719
vt 0.1065966 0.8679391
vt 0.06918759 0.9867194
vt 0.06918735 0.8679391
vt 0.03177852 0.9867193
vt 0.03177864 0.8679392
vn -0.8660251 1.6511E-07 0.5000005
vn -0.8660253 1.613463E-07 0.5000002
vn -0.4999995 1.33692E-07 0.8660258
vn -0.4999999 0 0.8660255
vn 0 0 1
vn 0 0 1
vn 0.4999998 0 0.8660256
vn 0.5 0 0.8660254
vn 0.8660253 0 0.5000001
vn 0.8660254 0 0.5000001
vn 1 -1.410489E-07 0
vn 1 -1.404945E-07 2.062415E-07
vn 0.8660255 -1.435186E-07 -0.4999997
vn 0.8660255 -1.321565E-07 -0.4999999
vn 0.5000001 0 -0.8660253
vn 0.5000002 0 -0.8660253
vn -1.374943E-07 0 -1
vn 0 0 -1
vn -1.374943E-07 0 -1
vn 0 0 -1
vn -0.5000001 0 -0.8660253
vn -0.5 0 -0.8660254
vn -0.8660254 1.234073E-07 -0.5
vn -0.8660253 1.056227E-07 -0.5000002
vn -1 1.484129E-07 1.178523E-07
vn -1 1.479308E-07 0
vn 0 -1 0
vn 0 -1 0
vn 0 -1 0
vn 0 -1 0
vn 0 -1 0
vn 0 -1 0
vn 0 -1 0
vn 0 -1 0
vn 0 -1 0
vn 0 -1 0
vn 0 -1 0
vn 0 -1 0
vn 0 1 0
vn 0 1 0
vn 0 1 0
vn 0 1 0
vn 0 1 0
vn 0 1 0
vn 0 1 0
vn 0 1 0
vn 0 1 0
vn 0 1 0
vn 0 1 0
vn 0 1 0
vn 3.753385E-07 1 6.50107E-07
vn 0 1 7.797925E-07
vn -1.693385E-06 1 2.193815E-06
vn -1.609603E-06 1 1.666597E-06
vn 8.536015E-07 1 -2.183957E-06
vn 1.543659E-06 1 -2.248111E-06
vn 3.527392E-07 1 2.31817E-06
vn 0 1 3.228382E-06
vn 1.815581E-07 1 5.448463E-07
vn 0 1 0
vn 0 1 -7.506789E-07
vn -1.243753E-07 1 -7.761427E-07
vn 0 1 -1.655496E-07
vn -5.053371E-07 1 0
vn -1.693383E-06 1 2.193812E-06
vn -1.609601E-06 1 1.666594E-06
vn 8.536031E-07 1 -2.183961E-06
vn 1.543662E-06 1 -2.248115E-06
vn 8.536031E-07 1 -2.183961E-06
vn 1.543662E-06 1 -2.248115E-06
vn 3.527382E-07 1 2.318165E-06
vn 0 1 3.228374E-06
vn 5.568967E-07 1 -1.052619E-07
vn 2.80358E-07 1 -7.343468E-07
vn 1.329725E-07 1 -8.650669E-07
vn 0 1 -9.83003E-07
vn 0 1 0
vn 0 1 0
vn 0 1 0
vn 0 1 0
vn 0 1 0
vn 0 1 0
vn 0 1 0
vn 0 1 0
vn 0 1 0
vn 0 1 0
vn 0 1 0
vn 0 1 0
vn 0 1 0
vn 0 1 0
vn 0 1 0
vn 0 1 0
vn 0 1 0
vn 0 1 0
vn 0 1 0
vn 0 1 0
vn 0 1 0
vn 0 1 0
vn 0 1 0
vn 0 1 0
vn 0 1 0
vn 0 1 0
vn -0.8660253 0 0.5000001
vn -0.8660253 0 0.5000001
vn -0.4999993 0 0.8660258
vn -0.4999994 0 0.8660258
vn 0 0 1
vn 0 0 1
vn 0.4999993 2.429815E-07 0.8660258
vn 0.4999994 2.262977E-07 0.8660258
vn 0.8660254 0 0.5000001
vn 0.8660253 0 0.5000001
vn 1 0 -1.865992E-07
vn 1 0 0
vn 0.8660253 0 -0.5000002
vn 0.8660254 1.495231E-07 -0.5000001
vn 0.4999999 1.256557E-06 -0.8660254
vn 0.4999999 1.237098E-06 -0.8660255
vn 1.571361E-07 1.467099E-07 -1
vn 2.430702E-07 1.228018E-07 -1
vn 1.571361E-07 1.467099E-07 -1
vn 2.430702E-07 1.228018E-07 -1
vn -0.5000002 1.017934E-06 -0.8660253
vn -0.5000003 1.056815E-06 -0.8660253
vn -0.8660253 1.061928E-07 -0.5000004
vn -0.8660253 0 -0.5000003
vn -1 0 -1.571362E-07
vn -1 0 0
vn -1 1.474837E-07 0
vn -1 1.490798E-07 0
vn -0.8660254 2.252416E-07 0.5
vn -0.8660254 2.304328E-07 0.5
vn -0.8660253 0 -0.5000002
vn -0.8660253 0 -0.5000001
vn -0.4999999 0 -0.8660255
vn -0.4999999 0 -0.8660254
vn 0 -1.951583E-07 -1
vn 0 -2.012252E-07 -1
vn -0.4999996 2.47883E-07 0.8660256
vn -0.4999998 1.726143E-07 0.8660255
vn 0 0 1
vn 0 0 1
vn 0.4999996 0 0.8660256
vn 0.4999999 0 0.8660254
vn 0.8660254 0 0.4999999
vn 0.8660255 0 0.4999999
vn 1 -1.474837E-07 0
vn 1 -1.490798E-07 0
vn 0.8660253 -2.252416E-07 -0.5000001
vn 0.8660253 -2.371026E-07 -0.5000001
vn 0.4999999 -2.527735E-07 -0.8660254
vn 0.5 -2.615656E-07 -0.8660254
vn 0 -2.012252E-07 -1
vn 0 -1.951583E-07 -1
g silencer_mp9_bt_supressor_9x19_LOD1_0
f 3/3/3 2/2/2 1/1/1
f 3/3/3 4/4/4 2/2/2
f 5/5/5 4/4/4 3/3/3
f 5/5/5 6/6/6 4/4/4
f 7/7/7 6/6/6 5/5/5
f 7/7/7 8/8/8 6/6/6
f 9/9/9 8/8/8 7/7/7
f 9/9/9 10/10/10 8/8/8
f 11/11/11 10/10/10 9/9/9
f 11/11/11 12/12/12 10/10/10
f 13/13/13 12/12/12 11/11/11
f 13/13/13 14/14/14 12/12/12
f 15/15/15 14/14/14 13/13/13
f 15/15/15 16/16/16 14/14/14
f 17/17/17 16/16/16 15/15/15
f 17/17/17 18/18/18 16/16/16
f 21/21/21 20/20/20 19/19/19
f 21/21/21 22/22/22 20/20/20
f 23/23/23 22/22/22 21/21/21
f 23/23/23 24/24/24 22/22/22
f 25/25/25 24/24/24 23/23/23
f 25/25/25 26/26/26 24/24/24
f 1/1/1 26/26/26 25/25/25
f 1/1/1 2/2/2 26/26/26
f 29/29/29 28/28/28 27/27/27
f 30/30/30 29/29/29 27/27/27
f 30/30/30 27/27/27 31/31/31
f 32/32/32 30/30/30 31/31/31
f 32/32/32 31/31/31 33/33/33
f 34/34/34 32/32/32 33/33/33
f 34/34/34 33/33/33 35/35/35
f 34/34/34 35/35/35 36/36/36
f 34/34/34 36/36/36 37/37/37
f 36/36/36 38/38/38 37/37/37
f 41/41/41 40/40/40 39/39/39
f 41/41/41 42/42/42 40/40/40
f 41/41/41 43/43/43 42/42/42
f 43/43/43 44/44/44 42/42/42
f 43/43/43 45/45/45 44/44/44
f 45/45/45 46/46/46 44/44/44
f 45/45/45 47/47/47 46/46/46
f 47/47/47 48/48/48 46/46/46
f 47/47/47 49/49/49 48/48/48
f 49/49/49 50/50/50 48/48/48
f 53/53/53 52/52/52 51/51/51
f 53/53/53 54/54/54 52/52/52
f 55/55/55 54/54/54 53/53/53
f 55/55/55 56/56/56 54/54/54
f 57/57/57 56/56/56 55/55/55
f 57/57/57 58/58/58 56/56/56
f 59/59/59 58/58/58 57/57/57
f 59/59/59 60/60/60 58/58/58
f 61/61/61 60/60/60 59/59/59
f 61/61/61 62/62/62 60/60/60
f 63/63/63 62/62/62 61/61/61
f 63/63/63 64/64/64 62/62/62
f 65/65/65 64/64/64 63/63/63
f 65/65/65 66/66/66 64/64/64
f 67/67/67 66/66/66 65/65/65
f 67/67/67 68/68/68 66/66/66
f 71/71/71 70/70/70 69/69/69
f 71/71/71 72/72/72 70/70/70
f 73/73/73 72/72/72 71/71/71
f 73/73/73 74/74/74 72/72/72
f 75/75/75 74/74/74 73/73/73
f 75/75/75 76/76/76 74/74/74
f 51/51/51 76/76/76 75/75/75
f 51/51/51 52/52/52 76/76/76
f 79/79/79 78/78/78 77/77/77
f 79/79/79 80/80/80 78/78/78
f 81/81/81 80/80/80 79/79/79
f 81/81/81 82/82/82 80/80/80
f 83/83/83 82/82/82 81/81/81
f 83/83/83 84/84/84 82/82/82
f 85/85/85 84/84/84 83/83/83
f 85/85/85 86/86/86 84/84/84
f 87/87/87 86/86/86 85/85/85
f 87/87/87 88/88/88 86/86/86
f 89/89/89 88/88/88 87/87/87
f 89/89/89 90/90/90 88/88/88
f 91/91/91 90/90/90 89/89/89
f 91/91/91 92/92/92 90/90/90
f 93/93/93 92/92/92 91/91/91
f 93/93/93 94/94/94 92/92/92
f 97/97/97 96/96/96 95/95/95
f 97/97/97 98/98/98 96/96/96
f 99/99/99 98/98/98 97/97/97
f 99/99/99 100/100/100 98/98/98
f 101/101/101 100/100/100 99/99/99
f 101/101/101 102/102/102 100/100/100
f 77/77/77 102/102/102 101/101/101
f 77/77/77 78/78/78 102/102/102
f 105/105/105 104/104/104 103/103/103
f 105/105/105 106/106/106 104/104/104
f 107/107/107 106/106/106 105/105/105
f 107/107/107 108/108/108 106/106/106
f 109/109/109 108/108/108 107/107/107
f 109/109/109 110/110/110 108/108/108
f 111/111/111 110/110/110 109/109/109
f 111/111/111 112/112/112 110/110/110
f 113/113/113 112/112/112 111/111/111
f 113/113/113 114/114/114 112/112/112
f 115/115/115 114/114/114 113/113/113
f 115/115/115 116/116/116 114/114/114
f 117/117/117 116/116/116 115/115/115
f 117/117/117 118/118/118 116/116/116
f 119/119/119 118/118/118 117/117/117
f 119/119/119 120/120/120 118/118/118
f 123/123/123 122/122/122 121/121/121
f 123/123/123 124/124/124 122/122/122
f 125/125/125 124/124/124 123/123/123
f 125/125/125 126/126/126 124/124/124
f 127/127/127 126/126/126 125/125/125
f 127/127/127 128/128/128 126/126/126
f 103/103/103 128/128/128 127/127/127
f 103/103/103 104/104/104 128/128/128
f 131/131/131 130/130/130 129/129/129
f 131/131/131 132/132/132 130/130/130
f 129/129/129 130/130/130 133/133/133
f 129/129/129 133/133/133 134/134/134
f 134/134/134 133/133/133 135/135/135
f 134/134/134 135/135/135 136/136/136
f 136/136/136 135/135/135 137/137/137
f 136/136/136 137/137/137 138/138/138
f 139/139/139 132/132/132 131/131/131
f 139/139/139 140/140/140 132/132/132
f 141/141/141 140/140/140 139/139/139
f 141/141/141 142/142/142 140/140/140
f 143/143/143 142/142/142 141/141/141
f 143/143/143 144/144/144 142/142/142
f 145/145/145 144/144/144 143/143/143
f 145/145/145 146/146/146 144/144/144
f 147/147/147 146/146/146 145/145/145
f 147/147/147 148/148/148 146/146/146
f 149/149/149 148/148/148 147/147/147
f 149/149/149 150/150/150 148/148/148
f 151/151/151 150/150/150 149/149/149
f 151/151/151 152/152/152 150/150/150
f 153/153/153 152/152/152 151/151/151
f 153/153/153 154/154/154 152/152/152
