g silencer_base_silencerco_salvo_12g_LOD1
v 0.01428129 -0.008907051 -0.05722508
v 0.01428129 -0.3138185 -0.05722507
v 0.0274484 -0.3087369 -0.04786393
v 0.0274484 -0.008907051 -0.04786393
v 0.0274484 -0.008907051 -0.04786393
v 0.0274484 -0.3087369 -0.04786393
v 0.0274484 -0.3087369 -0.001572592
v 0.0274484 -0.008907051 -0.001572592
v 0.0274484 -0.008907051 -0.001572592
v 0.0274484 -0.3087369 -0.001572592
v 0.009960609 -0.3138185 0.01838412
v 0.009960609 -0.008907042 0.01838412
v 0.01428129 -0.3138185 -0.05722507
v 0.009960609 -0.3138185 0.01838412
v 0.0274484 -0.3087369 -0.001572592
v 0.0274484 -0.3087369 -0.04786393
v -0.01102511 -0.3138185 0.01838412
v -0.01534579 -0.3138185 -0.05722507
v -0.0285129 -0.3087369 -0.001572592
v -0.0285129 -0.3087369 -0.04786393
v -0.01534579 -0.008907051 -0.05722508
v -0.0285129 -0.008907051 -0.04786393
v -0.0285129 -0.3087369 -0.04786393
v -0.01534579 -0.3138185 -0.05722507
v -0.0285129 -0.008907051 -0.04786393
v -0.0285129 -0.008907051 -0.001572592
v -0.0285129 -0.3087369 -0.001572592
v -0.0285129 -0.3087369 -0.04786393
v -0.0285129 -0.008907051 -0.001572592
v -0.01102511 -0.008907042 0.01838412
v -0.01102511 -0.3138185 0.01838412
v -0.0285129 -0.3087369 -0.001572592
v -0.01102511 -0.3138185 0.01838412
v -0.01102511 -0.008907042 0.01838412
v -0.001276573 -0.008849697 0.01824219
v 0.009960609 -0.3138185 0.01838412
v 0.009960609 -0.008907042 0.01838412
v 0.01428129 -0.3138185 -0.05722507
v 0.01428129 -0.008907051 -0.05722508
v -0.01534579 -0.008907051 -0.05722508
v -0.01534579 -0.3138185 -0.05722507
v -0.01914681 -0.008849707 0.0003719401
v -0.01914681 0.001055593 0.0003719354
v -0.01391274 0.001055603 0.01300811
v -0.01391274 -0.008849697 0.01300811
v -0.001276572 0.001055593 0.01824218
v -0.001276573 -0.008849697 0.01824219
v -0.01391274 -0.008849697 -0.01226423
v -0.01391274 0.001055593 -0.01226423
v -0.001276574 -0.008849697 -0.0174983
v -0.001276573 0.001055593 -0.0174983
v 0.01135959 -0.008849697 -0.01226423
v 0.01135959 0.001055593 -0.01226423
v 0.01659367 -0.008849707 0.0003719378
v 0.01659367 0.001055593 0.0003719354
v 0.01135959 -0.008849697 0.01300811
v 0.0113596 0.001055593 0.01300811
v -0.001276573 -0.008849697 0.01824219
v -0.001276572 0.001055593 0.01824218
v -0.01914681 0.001055593 0.0003719354
v -0.01391274 0.001055593 -0.01226423
v -0.01391274 0.001055603 0.01300811
v -0.001276572 0.001055593 0.01824218
v -0.001276573 0.001055593 -0.0174983
v 0.0113596 0.001055593 0.01300811
v 0.01135959 0.001055593 -0.01226423
v 0.01659367 0.001055593 0.0003719354
v -0.001276573 -0.008849697 0.01824219
v 0.01135959 -0.008849697 0.01300811
v 0.009960609 -0.008907042 0.01838412
v 0.01659367 -0.008849707 0.0003719378
v 0.0274484 -0.008907051 -0.001572592
v 0.01135959 -0.008849697 -0.01226423
v 0.0274484 -0.008907051 -0.04786393
v 0.01428129 -0.008907051 -0.05722508
v -0.001276574 -0.008849697 -0.0174983
v -0.01534579 -0.008907051 -0.05722508
v -0.0285129 -0.008907051 -0.04786393
v -0.01391274 -0.008849697 -0.01226423
v -0.01914681 -0.008849707 0.0003719401
v -0.0285129 -0.008907051 -0.001572592
v -0.01391274 -0.008849697 0.01300811
v -0.01102511 -0.008907042 0.01838412
v 0.01135959 -0.008849697 0.01300811
v -0.01102511 -0.008907042 0.01838412
v -0.01391274 -0.008849697 0.01300811
v -0.001276573 -0.008849697 0.01824219
vt 0.4089626 0.02298551
vt 0.4089626 0.9814114
vt 0.4597445 0.9654385
vt 0.4597445 0.02298551
vt 0.4597445 0.02298551
vt 0.4597445 0.9654385
vt 0.6052518 0.9654385
vt 0.6052518 0.02298551
vt 0.6052518 0.02298551
vt 0.6052518 0.9654385
vt 0.6886584 0.9814114
vt 0.6886584 0.02298551
vt 0.1853435 0.01372778
vt 0.1696418 0.2926111
vt 0.236911 0.2191169
vt 0.2372745 0.04838933
vt 0.09223904 0.2926793
vt 0.0760687 0.01382272
vt 0.02484647 0.2193018
vt 0.02419614 0.04857503
vt 0.3158364 0.02298551
vt 0.2650544 0.02298551
vt 0.2650544 0.9654385
vt 0.3158364 0.9814114
vt 0.9835294 0.02298553
vt 0.8380222 0.02298553
vt 0.8380222 0.9654385
vt 0.9835294 0.9654385
vt 0.8380222 0.02298553
vt 0.7546153 0.02298551
vt 0.7546153 0.9814114
vt 0.8380222 0.9654385
vt 0.7546153 0.9814114
vt 0.7546153 0.02298551
vt 0.7239699 0.02280526
vt 0.6886584 0.9814114
vt 0.6886584 0.02298551
vt 0.4089626 0.9814114
vt 0.4089626 0.02298551
vt 0.3158364 0.02298551
vt 0.3158364 0.9814114
vt 0.2152774 0.7301833
vt 0.2464125 0.7301833
vt 0.2464125 0.6871919
vt 0.2152774 0.6871919
vt 0.2464125 0.6442004
vt 0.2152774 0.6442005
vt 0.2152774 0.7731748
vt 0.2464125 0.7731748
vt 0.2152774 0.8161662
vt 0.2464125 0.8161662
vt 0.2152774 0.8591575
vt 0.2464125 0.8591575
vt 0.2152774 0.902149
vt 0.2464125 0.902149
vt 0.2152774 0.9451404
vt 0.2464125 0.9451404
vt 0.2152774 0.9881318
vt 0.2464125 0.9881318
vt 0.1185081 0.7821981
vt 0.1311146 0.8126329
vt 0.1311146 0.7517632
vt 0.1615495 0.7391567
vt 0.1615495 0.8252394
vt 0.1919843 0.7517632
vt 0.1919843 0.812633
vt 0.2045909 0.7821981
vt 0.1437569 0.6033756
vt 0.09709527 0.5822354
vt 0.101357 0.6024564
vt 0.07763967 0.5348224
vt 0.03715259 0.5278123
vt 0.09593235 0.4872216
vt 0.0339511 0.3571109
vt 0.08069542 0.3213512
vt 0.1415145 0.466317
vt 0.1895159 0.3182893
vt 0.2383178 0.3515816
vt 0.1876553 0.4842888
vt 0.2075109 0.5304391
vt 0.2414406 0.5219637
vt 0.1879858 0.5773919
vt 0.1811732 0.5994278
vt 0.09709527 0.5822354
vt 0.1811732 0.5994278
vt 0.1879858 0.5773919
vt 0.1437569 0.6033756
vn 0.5794359 0 -0.8150179
vn 0.5794359 0 -0.8150179
vn 0.5794359 0 -0.8150179
vn 0.5794359 0 -0.8150179
vn 1 0 0
vn 1 0 0
vn 1 0 0
vn 1 0 0
vn 0.7520971 0 0.6590523
vn 0.7520971 0 0.6590523
vn 0.7520971 0 0.6590523
vn 0.7520971 0 0.6590523
vn 0.1311285 -0.9913544 0.004647758
vn 0.09527723 -0.995445 0.003377035
vn 0.3181814 -0.9479628 0.01127772
vn 0.3181814 -0.9479628 0.01127772
vn -0.09527723 -0.995445 0.003377035
vn -0.1311285 -0.9913544 0.004647758
vn -0.3181814 -0.9479628 0.01127772
vn -0.3181814 -0.9479628 0.01127772
vn -0.5794359 0 -0.8150179
vn -0.5794359 0 -0.8150179
vn -0.5794359 0 -0.8150179
vn -0.5794359 0 -0.8150179
vn -1 0 0
vn -1 0 0
vn -1 0 0
vn -1 0 0
vn -0.7520971 0 0.6590523
vn -0.7520971 0 0.6590523
vn -0.7520971 0 0.6590523
vn -0.7520971 0 0.6590523
vn 0.0002961749 0.0004559263 0.9999999
vn 0.01455811 0 0.999894
vn 0.0009608168 1.021092E-05 0.9999995
vn -0.0002961492 0.0004544815 0.9999999
vn -0.01262986 0 0.9999202
vn 0 0 -1
vn 0 0 -1
vn 0 0 -1
vn 0 0 -1
vn -1 1.428625E-07 0
vn -1 1.428625E-07 0
vn -0.7071069 5.654975E-07 0.7071066
vn -0.7071068 5.654976E-07 0.7071066
vn 0 7.381236E-07 1
vn 0 7.381236E-07 1
vn -0.7071068 0 -0.7071068
vn -0.7071066 0 -0.7071069
vn 0 -1.07147E-07 -1
vn 0 -1.07147E-07 -1
vn 0.7071068 -2.023887E-07 -0.7071068
vn 0.7071066 -2.023887E-07 -0.7071069
vn 1 0 0
vn 1 0 -2.053596E-07
vn 0.7071068 3.601329E-07 0.7071066
vn 0.7071069 3.601329E-07 0.7071066
vn 0 7.381236E-07 1
vn 0 7.381236E-07 1
vn -9.11025E-07 1 -3.77359E-07
vn 1.626283E-07 1 -1.931492E-07
vn 1.626284E-07 1 -1.931492E-07
vn 1.886795E-07 1 0
vn 1.886795E-07 1 0
vn 0 1 0
vn 0 1 0
vn 0 1 0
vn 0.004951676 0.9999163 0.01195439
vn 0.004951676 0.9999163 0.01195439
vn 0.004951676 0.9999163 0.01195439
vn 0.003788312 0.9999928 -0.0003363245
vn 0.003788312 0.9999928 -0.0003363245
vn 0.0006959648 0.999999 -0.001230416
vn 0.0006959649 0.999999 -0.001230416
vn 0.0006959649 0.999999 -0.001230416
vn 0.0006959648 0.999999 -0.001230415
vn 0 0.999999 -0.001443709
vn -0.000708768 0.999999 -0.001253051
vn -0.000708768 0.999999 -0.001253051
vn -0.001955313 0.9999977 -0.0008091627
vn -0.0129276 0.9998758 0.009011787
vn -0.0129276 0.9998758 0.009011788
vn -0.0129276 0.9998758 0.009011788
vn 0.009679534 0.9999304 0.006747424
vn -0.005681993 0.9998897 0.01371753
vn -0.005681993 0.9998897 0.01371753
vn -0.005681993 0.9998897 0.01371753
g silencer_base_silencerco_salvo_12g_LOD1_0
f 3/3/3 2/2/2 1/1/1
f 4/4/4 3/3/3 1/1/1
f 7/7/7 6/6/6 5/5/5
f 8/8/8 7/7/7 5/5/5
f 11/11/11 10/10/10 9/9/9
f 12/12/12 11/11/11 9/9/9
f 15/15/15 14/14/14 13/13/13
f 16/16/16 15/15/15 13/13/13
f 14/14/14 17/17/17 13/13/13
f 17/17/17 18/18/18 13/13/13
f 17/17/17 19/19/19 18/18/18
f 19/19/19 20/20/20 18/18/18
f 23/23/23 22/22/22 21/21/21
f 24/24/24 23/23/23 21/21/21
f 27/27/27 26/26/26 25/25/25
f 28/28/28 27/27/27 25/25/25
f 31/31/31 30/30/30 29/29/29
f 32/32/32 31/31/31 29/29/29
f 35/35/35 34/34/34 33/33/33
f 36/36/36 35/35/35 33/33/33
f 37/37/37 35/35/35 36/36/36
f 40/40/40 39/39/39 38/38/38
f 41/41/41 40/40/40 38/38/38
f 44/44/44 43/43/43 42/42/42
f 45/45/45 44/44/44 42/42/42
f 46/46/46 44/44/44 45/45/45
f 47/47/47 46/46/46 45/45/45
f 42/42/42 43/43/43 48/48/48
f 43/43/43 49/49/49 48/48/48
f 48/48/48 49/49/49 50/50/50
f 49/49/49 51/51/51 50/50/50
f 50/50/50 51/51/51 52/52/52
f 51/51/51 53/53/53 52/52/52
f 52/52/52 53/53/53 54/54/54
f 53/53/53 55/55/55 54/54/54
f 54/54/54 55/55/55 56/56/56
f 55/55/55 57/57/57 56/56/56
f 56/56/56 57/57/57 58/58/58
f 57/57/57 59/59/59 58/58/58
f 62/62/62 61/61/61 60/60/60
f 61/61/61 62/62/62 63/63/63
f 64/64/64 61/61/61 63/63/63
f 64/64/64 63/63/63 65/65/65
f 66/66/66 64/64/64 65/65/65
f 67/67/67 66/66/66 65/65/65
f 70/70/70 69/69/69 68/68/68
f 70/70/70 72/72/72 71/71/71
f 71/71/71 72/72/72 73/73/73
f 72/72/72 74/74/74 73/73/73
f 73/73/73 74/74/74 75/75/75
f 76/76/76 73/73/73 75/75/75
f 77/77/77 76/76/76 75/75/75
f 76/76/76 77/77/77 78/78/78
f 79/79/79 76/76/76 78/78/78
f 80/80/80 79/79/79 78/78/78
f 81/81/81 80/80/80 78/78/78
f 82/82/82 80/80/80 81/81/81
f 83/83/83 82/82/82 81/81/81
f 84/84/84 70/70/70 71/71/71
f 87/87/87 86/86/86 85/85/85
