g tx15_release_LOD0
v 0.02931002 0.001833236 -0.002960081
v 0.03163402 0.001833236 -0.002960081
v 0.03163402 0.003101234 -0.002708077
v 0.02931002 0.003101234 -0.002708077
v 0.03163402 0.00417623 -0.00199007
v 0.02931002 0.00417623 -0.00199007
v 0.03163402 0.004894228 -0.0009150648
v 0.02931002 0.004894228 -0.0009150648
v 0.03163402 0.005146227 0.0003529358
v 0.02931002 0.005146227 0.0003529358
v 0.03163402 0.004894218 0.001619935
v 0.02931002 0.004894218 0.001619935
v 0.03163402 0.004176214 0.002694931
v 0.02931002 0.004176214 0.002694931
v 0.03163402 0.003101211 0.003412926
v 0.02931002 0.003101211 0.003412926
v 0.03163402 0.00183321 0.003665922
v 0.02931002 0.00183321 0.003665922
v 0.02931602 -0.01359279 0.003665862
v 0.03164702 -0.02901979 0.003665805
v 0.02932302 -0.02901979 0.003665805
v 0.03164402 -0.03029279 0.003409798
v 0.02932002 -0.03029279 0.003409798
v 0.03164102 -0.03136179 0.002694795
v 0.02931702 -0.03136179 0.002694795
v 0.03164102 -0.03207978 0.001619794
v 0.02931702 -0.03207978 0.001619794
v 0.03164102 -0.03233278 0.0003527927
v 0.02931702 -0.03233278 0.0003527927
v 0.03164102 -0.03207977 -0.0009152078
v 0.02931702 -0.03207977 -0.0009152078
v 0.03164102 -0.03136177 -0.001990204
v 0.02931702 -0.03136177 -0.001990204
v 0.03164402 -0.03029277 -0.002705197
v 0.02932002 -0.03029277 -0.002705197
v 0.03164702 -0.02901977 -0.002960196
v 0.02932302 -0.02901977 -0.002960196
v 0.02931602 -0.01359277 -0.002960138
v 0.03163402 0.001833236 -0.002960081
v 0.02931002 0.001833236 -0.002960081
v 0.03164102 -0.02902279 0.002274806
v 0.03164102 -0.02998379 0.002017801
v 0.03164402 -0.03029279 0.003409798
v 0.03164702 -0.02901979 0.003665805
v 0.03164102 -0.03068778 0.001313798
v 0.03164102 -0.03136179 0.002694795
v 0.03164102 -0.03094478 0.0003527975
v 0.03164102 -0.03207978 0.001619794
v 0.03163402 0.001837215 0.002270923
v 0.03163402 0.00183321 0.003665922
v 0.03163402 0.003101211 0.003412926
v 0.03163402 0.002798216 0.002012925
v 0.03163402 0.004176214 0.002694931
v 0.03163402 0.003502219 0.001309929
v 0.03164102 -0.03233278 0.0003527927
v 0.03164102 -0.03068778 -0.0006092024
v 0.03164102 -0.03207977 -0.0009152078
v 0.03164102 -0.03136177 -0.001990204
v 0.03164102 -0.02998377 -0.0013132
v 0.03164402 -0.03029277 -0.002705197
v 0.03164302 -0.02902277 -0.001569195
v 0.03164702 -0.02901977 -0.002960196
v 0.03163402 0.00183723 -0.001566081
v 0.03163402 0.001833236 -0.002960081
v 0.03163402 0.002798228 -0.001308074
v 0.03163402 0.003101234 -0.002708077
v 0.03163402 0.004894218 0.001619935
v 0.03163402 0.005146227 0.0003529358
v 0.03163402 0.003758223 0.000352931
v 0.03163402 0.004894228 -0.0009150648
v 0.03163402 0.003502226 -0.0006050729
v 0.03163402 0.00417623 -0.00199007
v 0.03164102 -0.03068778 0.001313798
v 0.03164102 -0.02998379 0.002017801
v 0.03098902 -0.02891678 0.001197805
v 0.03164102 -0.02902279 0.002274806
v 0.03163402 0.001837215 0.002270923
v 0.03098402 0.001837218 0.001204922
v 0.03163402 0.002798216 0.002012925
v 0.03163402 0.003502219 0.001309929
v 0.03163402 0.003758223 0.000352931
v 0.03098402 0.001837225 -0.0004990816
v 0.03163402 0.003502226 -0.0006050729
v 0.03163402 0.002798228 -0.001308074
v 0.03163402 0.00183723 -0.001566081
v 0.03099102 -0.02892278 -0.0004911947
v 0.03164302 -0.02902277 -0.001569195
v 0.03164102 -0.03094478 0.0003527975
v 0.03164102 -0.02998377 -0.0013132
v 0.03164102 -0.03068778 -0.0006092024
v 0.02931002 0.003101211 0.003412926
v 0.02931002 0.00183321 0.003665922
v 0.02931002 0.001833236 -0.002960081
v 0.02931002 0.003101234 -0.002708077
v 0.02931602 -0.01359279 0.003665862
v 0.02931602 -0.01359277 -0.002960138
v 0.02931002 0.00417623 -0.00199007
v 0.02931002 0.004176214 0.002694931
v 0.02931002 0.004894228 -0.0009150648
v 0.02931002 0.004894218 0.001619935
v 0.02931002 0.005146227 0.0003529358
v 0.02932302 -0.02901979 0.003665805
v 0.02932302 -0.02901977 -0.002960196
v 0.02931602 -0.01359277 -0.002960138
v 0.02931602 -0.01359279 0.003665862
v 0.02932002 -0.03029279 0.003409798
v 0.02932002 -0.03029277 -0.002705197
v 0.02931702 -0.03136179 0.002694795
v 0.02931702 -0.03136177 -0.001990204
v 0.02931702 -0.03207978 0.001619794
v 0.02931702 -0.03207977 -0.0009152078
v 0.02931702 -0.03233278 0.0003527927
v 0.000312022 0.003202243 -0.00498507
v 0.00372802 0.003202243 -0.00498507
v 0.00372802 0.003698237 -0.003622069
v 0.000312022 0.003698237 -0.003622069
v 0.000312022 0.002270248 -0.006096077
v 0.00372802 0.002270248 -0.006096077
v 0.000312022 0.00101325 -0.00682208
v 0.00372802 0.00101325 -0.00682208
v 0.000312022 -0.0004157495 -0.007074084
v 0.00372802 -0.0004157495 -0.007074084
v 0.00372802 0.003698211 0.003456929
v 0.000312022 0.003698211 0.003456929
v 0.00372802 0.003202205 0.004819927
v 0.000312022 0.003202205 0.004819927
v 0.00372802 0.002270203 0.005931925
v 0.000312022 0.002270203 0.005931925
v 0.00372802 0.0010132 0.006656923
v 0.000312022 0.0010132 0.006656923
v 0.00372802 -0.000415802 0.006908915
v 0.000312022 -0.000415802 0.006908915
v 0.00372802 -0.001843801 0.006656911
v 0.000312022 -0.001843801 0.006656911
v 0.00372802 -0.003100798 0.005931904
v 0.000312022 -0.003100798 0.005931904
v 0.00372802 -0.004032795 0.004819901
v 0.000312022 -0.004032795 0.004819901
v 0.00372802 -0.004529789 0.003456898
v 0.000312022 -0.004529789 0.003456898
v 0.000312022 -0.004529762 -0.003622103
v 0.00372802 -0.004529762 -0.003622103
v 0.00372802 -0.004032757 -0.004985099
v 0.000312022 -0.004032757 -0.004985099
v 0.00372802 -0.003100753 -0.006096096
v 0.000312022 -0.003100753 -0.006096096
v 0.00372802 -0.00184375 -0.00682209
v 0.000312022 -0.00184375 -0.00682209
v 0.00372802 -0.0004157495 -0.007074084
v 0.000312022 -0.0004157495 -0.007074084
v 0.000312022 0.003698211 0.003456929
v 0.000312022 -0.000415802 0.006908915
v 0.000312022 0.003698237 -0.003622069
v 0.000312022 0.003202243 -0.00498507
v 0.000312022 0.002270248 -0.006096077
v 0.000312022 0.00101325 -0.00682208
v 0.000312022 -0.0004157495 -0.007074084
v 0.000312022 -0.00184375 -0.00682209
v 0.000312022 -0.003100753 -0.006096096
v 0.000312022 -0.004032757 -0.004985099
v 0.000312022 -0.004529762 -0.003622103
v 0.000312022 0.003202205 0.004819927
v 0.000312022 0.002270203 0.005931925
v 0.000312022 0.0010132 0.006656923
v 0.000312022 -0.004529789 0.003456898
v 0.000312022 -0.004032795 0.004819901
v 0.000312022 -0.003100798 0.005931904
v 0.000312022 -0.001843801 0.006656911
vt 0.9837 0.3068
vt 0.9794 0.3068
vt 0.9794 0.3092
vt 0.9837 0.3092
vt 0.9794 0.3116
vt 0.9837 0.3116
vt 0.9794 0.3139
vt 0.9837 0.3139
vt 0.9794 0.3163
vt 0.9837 0.3163
vt 0.9794 0.3187
vt 0.9837 0.3188
vt 0.9794 0.3211
vt 0.9837 0.3211
vt 0.9794 0.3235
vt 0.9837 0.3235
vt 0.9794 0.3259
vt 0.9837 0.3259
vt 0.9837 0.3544
vt 0.9794 0.3831
vt 0.9837 0.3831
vt 0.9794 0.3855
vt 0.9837 0.3855
vt 0.9794 0.388
vt 0.9837 0.388
vt 0.9794 0.3903
vt 0.9837 0.3903
vt 0.9794 0.3927
vt 0.9837 0.3927
vt 0.9794 0.3951
vt 0.9837 0.3951
vt 0.9794 0.3975
vt 0.9837 0.3975
vt 0.9794 0.3999
vt 0.9837 0.3999
vt 0.9794 0.4023
vt 0.9837 0.4023
vt 0.9837 0.4308
vt 0.9794 0.4595
vt 0.9837 0.4595
vt 0.9409 0.1027
vt 0.9419 0.0992
vt 0.9367 0.0982
vt 0.9358 0.1027
vt 0.9446 0.0966
vt 0.9393 0.094
vt 0.948 0.0956
vt 0.9435 0.0913
vt 0.9409 0.2171
vt 0.9358 0.2171
vt 0.9367 0.2219
vt 0.9419 0.2208
vt 0.9393 0.2258
vt 0.9446 0.2232
vt 0.948 0.0905
vt 0.9517 0.0966
vt 0.9528 0.0913
vt 0.9567 0.094
vt 0.9541 0.0992
vt 0.9594 0.0982
vt 0.9551 0.1027
vt 0.9604 0.1027
vt 0.9551 0.2171
vt 0.9604 0.2171
vt 0.9541 0.2208
vt 0.9594 0.2219
vt 0.9433 0.2285
vt 0.948 0.2294
vt 0.948 0.2243
vt 0.9528 0.2285
vt 0.9515 0.2232
vt 0.9567 0.2258
vt 0.5 0.4225
vt 0.4971 0.4251
vt 0.5007 0.4295
vt 0.496 0.4289
vt 0.496 0.5434
vt 0.5007 0.5433
vt 0.4971 0.5472
vt 0.5 0.5499
vt 0.5037 0.5509
vt 0.5068 0.5433
vt 0.5075 0.5499
vt 0.5103 0.5472
vt 0.5114 0.5434
vt 0.5068 0.4294
vt 0.5114 0.4289
vt 0.5037 0.4215
vt 0.5103 0.4251
vt 0.5075 0.4225
vt 0.4202 0.8693
vt 0.4178 0.8688
vt 0.4178 0.881
vt 0.4202 0.8806
vt 0.3893 0.8688
vt 0.3893 0.881
vt 0.4222 0.8793
vt 0.4222 0.8706
vt 0.4236 0.8773
vt 0.4236 0.8726
vt 0.424 0.875
vt 2.4178 0.8688
vt 2.4178 0.881
vt 2.3893 0.881
vt 2.3893 0.8688
vt 2.4202 0.8693
vt 2.4202 0.8806
vt 2.4222 0.8706
vt 2.4222 0.8793
vt 2.4236 0.8726
vt 2.4236 0.8773
vt 2.424 0.875
vt 0.7176 0.9605
vt 0.7176 0.9478
vt 0.7123 0.9478
vt 0.7123 0.9605
vt 0.723 0.9605
vt 0.723 0.9478
vt 0.7284 0.9605
vt 0.7284 0.9478
vt 0.7337 0.9605
vt 0.7337 0.9478
vt 0.6861 0.9478
vt 0.6861 0.9605
vt 0.6806 0.9478
vt 0.6806 0.9605
vt 0.6752 0.9478
vt 0.6752 0.9605
vt 0.6699 0.9478
vt 0.6699 0.9605
vt 0.6645 0.9478
vt 0.6645 0.9605
vt 0.6591 0.9478
vt 0.6591 0.9605
vt 0.6537 0.9478
vt 0.6537 0.9605
vt 0.6485 0.9478
vt 0.6485 0.9605
vt 0.6429 0.9478
vt 0.6429 0.9605
vt 0.6168 0.9605
vt 0.6168 0.9478
vt 0.6113 0.9478
vt 0.6113 0.9605
vt 0.606 0.9478
vt 0.606 0.9605
vt 0.6006 0.9478
vt 0.6006 0.9605
vt 0.5953 0.9478
vt 0.5953 0.9605
vt 0.7078 0.2839
vt 0.6925 0.2711
vt 0.7078 0.31
vt 0.7059 0.3151
vt 0.7025 0.3193
vt 0.6978 0.3219
vt 0.6925 0.323
vt 0.6872 0.3219
vt 0.6826 0.3193
vt 0.6791 0.3151
vt 0.6772 0.31
vt 0.7059 0.2788
vt 0.7025 0.2747
vt 0.6978 0.272
vt 0.6772 0.2839
vt 0.6791 0.2788
vt 0.6826 0.2747
vt 0.6872 0.272
vn 0 0.09794925 -0.9951915
vn 0 0.09792397 -0.9951939
vn 0 0.3825236 -0.9239458
vn 0 0.3825236 -0.9239458
vn 0 0.7071104 -0.7071031
vn 0 0.7071104 -0.7071031
vn 0 0.9239485 -0.382517
vn 0 0.9239485 -0.382517
vn 0 1 7.915606E-05
vn 0 1 7.915606E-05
vn 0 0.9239165 0.3825942
vn 0 0.9239165 0.3825942
vn 0 0.7071034 0.70711
vn 0 0.7071034 0.70711
vn 0 0.382866 0.9238039
vn 0 0.382866 0.9238039
vn 0 0.09829434 0.9951573
vn 0 0.0983197 0.9951549
vn -4.647565E-07 -3.786704E-06 1
vn 0 -0.09900842 0.9950866
vn 0 -0.09912654 0.9950748
vn 0 -0.3836022 0.9234984
vn 0 -0.384143 0.9232736
vn 0 -0.7072351 0.7069785
vn 0 -0.7074438 0.7067695
vn 0 -0.9237747 0.3829363
vn 0 -0.9237747 0.3829363
vn 0 -1 7.202894E-05
vn 0 -1 7.202894E-05
vn 0 -0.9238008 -0.3828736
vn 0 -0.9238008 -0.3828736
vn 0 -0.7072293 -0.7069843
vn 0 -0.7074379 -0.7067754
vn 0 -0.3832462 -0.9236463
vn 0 -0.3837882 -0.9234211
vn 0 -0.09862602 -0.9951246
vn 0 -0.09874374 -0.995113
vn 0 3.709231E-06 -1
vn 0 0.09792397 -0.9951939
vn 0 0.09794925 -0.9951915
vn 0.9999962 -0.0001659459 -0.002771206
vn 0.9999975 -0.0006193575 -0.002139569
vn 0.9999969 -0.0006106829 -0.002431878
vn 0.9999964 -9.917896E-05 -0.002687072
vn 0.9999999 -0.0002177343 -0.0004431918
vn 0.9999996 -0.0003996682 -0.0008135129
vn 1 0 0
vn 1 0 0
vn 0.9999995 0.0001492208 -0.0009920899
vn 0.9999994 0.0001731309 -0.001151055
vn 1 0 0
vn 1 0 0
vn 1 0 0
vn 1 0 0
vn 1 0 0
vn 0.9999999 -0.0002177223 0.0004431597
vn 1 0 0
vn 0.9999996 -0.000399674 0.0008135104
vn 0.9999977 -0.001051637 0.001887697
vn 0.9999971 -0.001195094 0.002090721
vn 0.9999975 -0.0007095267 0.002114309
vn 0.9999979 -0.0005647427 0.002022229
vn 0.9999998 0.0001641784 0.0006616147
vn 0.9999998 0.0001904344 0.0007674221
vn 1 0 0
vn 1 0 0
vn 1 0 0
vn 1 0 0
vn 1 0 0
vn 1 0 0
vn 1 0 0
vn 1 0 0
vn 0.928842 0.3310663 -0.1662756
vn 0.8891277 0.2474289 -0.3850076
vn 0.9606842 0.1331013 -0.2436594
vn 0.8560303 0.06629039 -0.5126574
vn 0.8525 -0.06396086 -0.5187994
vn 0.9586989 -0.1426681 -0.2460532
vn 0.8788092 -0.2556361 -0.40292
vn 0.9208231 -0.3484343 -0.1751526
vn 0.9378487 -0.3470441 -3.151023E-05
vn 0.9586823 -0.1426249 0.2461429
vn 0.9208676 -0.3483526 0.1750811
vn 0.8789454 -0.2554772 0.4027239
vn 0.8527203 -0.06388167 0.518447
vn 0.9606234 0.1334213 0.2437243
vn 0.8560948 0.06503032 0.5127112
vn 0.9438102 0.330488 -3.367742E-05
vn 0.8893018 0.2462641 0.3853522
vn 0.928883 0.330967 0.1662443
vn -1 0 0
vn -1 -0.0002076005 0
vn -1 -0.0002075469 0
vn -1 0 0
vn -1 -0.0004214603 0
vn -1 -0.0004214603 0
vn -1 0 0
vn -1 0 0
vn -1 0 0
vn -1 0 0
vn -1 0 0
vn -0.9999996 0.0008573103 0
vn -0.9999996 0.000857695 0
vn -1 -0.0004214603 0
vn -1 -0.0004214603 0
vn -0.9999969 0.002518492 0
vn -0.9999969 0.002518536 0
vn -0.9999976 0.002206484 0
vn -0.9999976 0.002206484 0
vn -1 0 0
vn -1 0 0
vn -1 0 0
vn 0 0.8660743 -0.4999154
vn 0 0.8660743 -0.4999154
vn 0 0.9848135 -0.1736152
vn 0 0.9848135 -0.1736152
vn 0 0.6429012 -0.7659491
vn 0 0.6429012 -0.7659491
vn 0 0.3421078 -0.9396607
vn 0 0.3421078 -0.9396607
vn 0 -5.658336E-05 -1
vn 0 -5.658336E-05 -1
vn 0 0.9848123 0.173623
vn 0 0.9848123 0.173623
vn 0 0.8661811 0.4997303
vn 0 0.8661811 0.4997303
vn 0 0.6428376 0.7660025
vn 0 0.6428376 0.7660025
vn 0 0.3418209 0.9397651
vn 0 0.3418209 0.9397651
vn 0 -6.415477E-05 1
vn 0 -6.415477E-05 1
vn 0 -0.3418847 0.9397419
vn 0 -0.3418847 0.9397419
vn 0 -0.6428421 0.7659987
vn 0 -0.6428421 0.7659987
vn 0 -0.8660228 0.5000046
vn 0 -0.8660228 0.5000046
vn 0 -0.9847573 0.1739335
vn 0 -0.9847573 0.1739335
vn 0 -0.9847559 -0.1739418
vn 0 -0.9847559 -0.1739418
vn 0 -0.865908 -0.5002033
vn 0 -0.865908 -0.5002033
vn 0 -0.6428949 -0.7659543
vn 0 -0.6428949 -0.7659543
vn 0 -0.3421575 -0.9396425
vn 0 -0.3421575 -0.9396425
vn 0 -5.658336E-05 -1
vn 0 -5.658336E-05 -1
vn -1 0 0
vn -1 0 0
vn -1 0 0
vn -1 0 0
vn -1 0 0
vn -1 0 0
vn -1 0 0
vn -1 0 0
vn -1 0 0
vn -1 0 0
vn -1 0 0
vn -1 0 0
vn -1 0 0
vn -1 0 0
vn -1 0 0
vn -1 0 0
vn -1 0 0
vn -1 0 0
g tx15_release_LOD0_0
f 3/3/3 2/2/2 1/1/1
f 4/4/4 3/3/3 1/1/1
f 5/5/5 3/3/3 4/4/4
f 6/6/6 5/5/5 4/4/4
f 7/7/7 5/5/5 6/6/6
f 8/8/8 7/7/7 6/6/6
f 9/9/9 7/7/7 8/8/8
f 10/10/10 9/9/9 8/8/8
f 11/11/11 9/9/9 10/10/10
f 12/12/12 11/11/11 10/10/10
f 13/13/13 11/11/11 12/12/12
f 14/14/14 13/13/13 12/12/12
f 15/15/15 13/13/13 14/14/14
f 16/16/16 15/15/15 14/14/14
f 17/17/17 15/15/15 16/16/16
f 18/18/18 17/17/17 16/16/16
f 18/18/18 19/19/19 17/17/17
f 17/17/17 19/19/19 20/20/20
f 19/19/19 21/21/21 20/20/20
f 22/22/22 20/20/20 21/21/21
f 23/23/23 22/22/22 21/21/21
f 24/24/24 22/22/22 23/23/23
f 25/25/25 24/24/24 23/23/23
f 26/26/26 24/24/24 25/25/25
f 27/27/27 26/26/26 25/25/25
f 28/28/28 26/26/26 27/27/27
f 29/29/29 28/28/28 27/27/27
f 30/30/30 28/28/28 29/29/29
f 31/31/31 30/30/30 29/29/29
f 32/32/32 30/30/30 31/31/31
f 33/33/33 32/32/32 31/31/31
f 34/34/34 32/32/32 33/33/33
f 35/35/35 34/34/34 33/33/33
f 36/36/36 34/34/34 35/35/35
f 37/37/37 36/36/36 35/35/35
f 37/37/37 38/38/38 36/36/36
f 36/36/36 38/38/38 39/39/39
f 38/38/38 40/40/40 39/39/39
f 43/43/43 42/42/42 41/41/41
f 44/44/44 43/43/43 41/41/41
f 42/42/42 43/43/43 45/45/45
f 43/43/43 46/46/46 45/45/45
f 45/45/45 46/46/46 47/47/47
f 46/46/46 48/48/48 47/47/47
f 41/41/41 49/49/49 44/44/44
f 49/49/49 50/50/50 44/44/44
f 50/50/50 49/49/49 51/51/51
f 49/49/49 52/52/52 51/51/51
f 51/51/51 52/52/52 53/53/53
f 52/52/52 54/54/54 53/53/53
f 55/55/55 47/47/47 48/48/48
f 47/47/47 55/55/55 56/56/56
f 55/55/55 57/57/57 56/56/56
f 58/58/58 56/56/56 57/57/57
f 56/56/56 58/58/58 59/59/59
f 58/58/58 60/60/60 59/59/59
f 61/61/61 59/59/59 60/60/60
f 62/62/62 61/61/61 60/60/60
f 63/63/63 61/61/61 62/62/62
f 64/64/64 63/63/63 62/62/62
f 65/65/65 63/63/63 64/64/64
f 66/66/66 65/65/65 64/64/64
f 67/67/67 53/53/53 54/54/54
f 67/67/67 54/54/54 68/68/68
f 54/54/54 69/69/69 68/68/68
f 68/68/68 69/69/69 70/70/70
f 69/69/69 71/71/71 70/70/70
f 71/71/71 65/65/65 66/66/66
f 72/72/72 70/70/70 71/71/71
f 72/72/72 71/71/71 66/66/66
f 75/75/75 74/74/74 73/73/73
f 74/74/74 75/75/75 76/76/76
f 76/76/76 75/75/75 77/77/77
f 75/75/75 78/78/78 77/77/77
f 78/78/78 79/79/79 77/77/77
f 78/78/78 80/80/80 79/79/79
f 81/81/81 80/80/80 78/78/78
f 82/82/82 81/81/81 78/78/78
f 78/78/78 75/75/75 82/82/82
f 82/82/82 83/83/83 81/81/81
f 82/82/82 84/84/84 83/83/83
f 82/82/82 85/85/85 84/84/84
f 85/85/85 82/82/82 86/86/86
f 75/75/75 86/86/86 82/82/82
f 87/87/87 85/85/85 86/86/86
f 73/73/73 88/88/88 75/75/75
f 75/75/75 88/88/88 86/86/86
f 87/87/87 86/86/86 89/89/89
f 90/90/90 89/89/89 86/86/86
f 88/88/88 90/90/90 86/86/86
f 93/93/93 92/92/92 91/91/91
f 94/94/94 93/93/93 91/91/91
f 92/92/92 93/93/93 95/95/95
f 93/93/93 96/96/96 95/95/95
f 94/94/94 91/91/91 97/97/97
f 91/91/91 98/98/98 97/97/97
f 97/97/97 98/98/98 99/99/99
f 98/98/98 100/100/100 99/99/99
f 101/101/101 99/99/99 100/100/100
f 104/104/104 103/103/103 102/102/102
f 105/105/105 104/104/104 102/102/102
f 102/102/102 103/103/103 106/106/106
f 103/103/103 107/107/107 106/106/106
f 106/106/106 107/107/107 108/108/108
f 107/107/107 109/109/109 108/108/108
f 108/108/108 109/109/109 110/110/110
f 109/109/109 111/111/111 110/110/110
f 112/112/112 110/110/110 111/111/111
f 115/115/115 114/114/114 113/113/113
f 116/116/116 115/115/115 113/113/113
f 113/113/113 114/114/114 117/117/117
f 114/114/114 118/118/118 117/117/117
f 117/117/117 118/118/118 119/119/119
f 118/118/118 120/120/120 119/119/119
f 119/119/119 120/120/120 121/121/121
f 120/120/120 122/122/122 121/121/121
f 115/115/115 116/116/116 123/123/123
f 116/116/116 124/124/124 123/123/123
f 125/125/125 123/123/123 124/124/124
f 126/126/126 125/125/125 124/124/124
f 127/127/127 125/125/125 126/126/126
f 128/128/128 127/127/127 126/126/126
f 129/129/129 127/127/127 128/128/128
f 130/130/130 129/129/129 128/128/128
f 131/131/131 129/129/129 130/130/130
f 132/132/132 131/131/131 130/130/130
f 133/133/133 131/131/131 132/132/132
f 134/134/134 133/133/133 132/132/132
f 135/135/135 133/133/133 134/134/134
f 136/136/136 135/135/135 134/134/134
f 137/137/137 135/135/135 136/136/136
f 138/138/138 137/137/137 136/136/136
f 139/139/139 137/137/137 138/138/138
f 140/140/140 139/139/139 138/138/138
f 139/139/139 140/140/140 141/141/141
f 142/142/142 139/139/139 141/141/141
f 143/143/143 142/142/142 141/141/141
f 144/144/144 143/143/143 141/141/141
f 145/145/145 143/143/143 144/144/144
f 146/146/146 145/145/145 144/144/144
f 147/147/147 145/145/145 146/146/146
f 148/148/148 147/147/147 146/146/146
f 149/149/149 147/147/147 148/148/148
f 150/150/150 149/149/149 148/148/148
f 153/153/153 152/152/152 151/151/151
f 154/154/154 152/152/152 153/153/153
f 155/155/155 152/152/152 154/154/154
f 156/156/156 152/152/152 155/155/155
f 157/157/157 152/152/152 156/156/156
f 158/158/158 152/152/152 157/157/157
f 159/159/159 152/152/152 158/158/158
f 160/160/160 152/152/152 159/159/159
f 161/161/161 152/152/152 160/160/160
f 151/151/151 152/152/152 162/162/162
f 162/162/162 152/152/152 163/163/163
f 163/163/163 152/152/152 164/164/164
f 165/165/165 152/152/152 161/161/161
f 166/166/166 152/152/152 165/165/165
f 167/167/167 152/152/152 166/166/166
f 168/168/168 152/152/152 167/167/167
