g trigger_LOD0
v -0.004226379 -0.006517113 -0.01129409
v 0.004226379 -0.006517113 -0.01129409
v 0.004229708 -0.005680657 -0.01600807
v -0.004229708 -0.005680657 -0.01600807
v 0.004226398 -0.003235646 -2.021789E-05
v -0.00422636 -0.003235646 -2.021789E-05
v 0.004229622 -0.003986307 -0.02017141
v -0.004229593 -0.003986307 -0.02017141
v -0.00422636 -0.002251226 0.001968565
v 0.004226398 -0.002251226 0.001968565
v 0.004226398 -0.0004691425 0.002799649
v -0.00422636 -0.0004691425 0.002799649
v 0.004229546 -0.003036733 -0.0233155
v -0.004229507 -0.003036733 -0.0233155
v 0.004229622 -0.002927223 -0.02742439
v -0.004229593 -0.002927223 -0.02742439
v -0.004229603 -0.003392974 -0.03063437
v 0.004229641 -0.003392973 -0.03063437
v -0.004229641 -0.004826281 -0.03385157
v 0.004229679 -0.004826281 -0.03385157
v 0.004229899 -0.006690029 -0.03648378
v -0.004229899 -0.006690029 -0.03648378
v -0.004230289 -0.009547031 -0.03904692
v 0.004230289 -0.009547031 -0.03904692
v -0.00423047 -0.01202838 -0.03982953
v 0.00423048 -0.01202838 -0.03982953
v 0.004230547 -0.01290021 -0.04010449
v -0.004230537 -0.01290021 -0.04010449
v 0.004230576 -0.01308719 -0.0411931
v -0.004230576 -0.01308719 -0.0411931
v 0.004226398 0.001345341 0.00256844
v -0.00422636 0.001345343 0.00256844
v -0.00422636 0.002560024 0.001517043
v 0.004226398 0.002560022 0.001517043
v 0.004226398 0.003242353 -3.437996E-05
v -0.00422636 0.003242355 -3.437996E-05
v 0.004226398 0.004558821 -0.007696974
v -0.00422636 0.004558822 -0.007696974
v -0.004226341 0.01305031 -0.01099469
v 0.004226379 0.01305031 -0.01099469
v 0.004226379 0.0120264 -0.007900689
v -0.004226341 0.0120264 -0.007900689
v 0.00422637 0.01360958 -0.01400672
v -0.004226351 0.01360958 -0.01400672
v 0.00422801 0.01106657 -0.02117756
v -0.004227972 0.01106657 -0.02117756
v 0.004228639 0.00591812 -0.02347028
v -0.004228601 0.005918122 -0.02347028
v 0.00422905 0.003919369 -0.02829272
v -0.004229011 0.003919371 -0.02829272
v 0.004229183 0.002319343 -0.03214777
v -0.004229145 0.002319345 -0.03214777
v -0.004229316 -0.0004997477 -0.03601006
v 0.004229355 -0.0004997483 -0.03601006
v -0.004229689 -0.004060268 -0.03890385
v 0.004229727 -0.004060268 -0.03890385
v -0.004230289 -0.00868019 -0.04066749
v 0.004230289 -0.00868019 -0.04066749
v 0.004230576 -0.01308719 -0.0411931
v -0.004230576 -0.01308719 -0.0411931
v 0.004226398 0.003242353 -3.437996E-05
v 0.004226398 -0.003235646 -2.021789E-05
v 0.004226398 -0.002251226 0.001968565
v 0.004226398 0.002560022 0.001517043
v 0.004226398 0.004558821 -0.007696974
v 0.004226379 -0.006517113 -0.01129409
v 0.004226379 0.0120264 -0.007900689
v 0.004226379 0.01305031 -0.01099469
v 0.004229708 -0.005680657 -0.01600807
v 0.00422637 0.01360958 -0.01400672
v 0.00422801 0.01106657 -0.02117756
v 0.004229622 -0.003986307 -0.02017141
v 0.004228639 0.00591812 -0.02347028
v 0.004229546 -0.003036733 -0.0233155
v 0.00422905 0.003919369 -0.02829272
v 0.004229622 -0.002927223 -0.02742439
v 0.004229183 0.002319343 -0.03214777
v 0.004229641 -0.003392973 -0.03063437
v 0.004229355 -0.0004997483 -0.03601006
v 0.004229679 -0.004826281 -0.03385157
v 0.004229899 -0.006690029 -0.03648378
v 0.004229727 -0.004060268 -0.03890385
v 0.004230289 -0.00868019 -0.04066749
v 0.004230289 -0.009547031 -0.03904692
v 0.00423048 -0.01202838 -0.03982953
v 0.004230547 -0.01290021 -0.04010449
v 0.004230576 -0.01308719 -0.0411931
v 0.004226398 -0.0004691425 0.002799649
v 0.004226398 0.001345341 0.00256844
v -0.00422636 -0.002251226 0.001968565
v -0.00422636 -0.003235646 -2.021789E-05
v -0.00422636 0.003242355 -3.437996E-05
v -0.00422636 0.002560024 0.001517043
v -0.00422636 0.004558822 -0.007696974
v -0.004226379 -0.006517113 -0.01129409
v -0.004226341 0.0120264 -0.007900689
v -0.004226341 0.01305031 -0.01099469
v -0.004229708 -0.005680657 -0.01600807
v -0.004226351 0.01360958 -0.01400672
v -0.004227972 0.01106657 -0.02117756
v -0.004229593 -0.003986307 -0.02017141
v -0.004228601 0.005918122 -0.02347028
v -0.004229507 -0.003036733 -0.0233155
v -0.004229011 0.003919371 -0.02829272
v -0.004229593 -0.002927223 -0.02742439
v -0.004229145 0.002319345 -0.03214777
v -0.004229603 -0.003392974 -0.03063437
v -0.004229316 -0.0004997477 -0.03601006
v -0.004229641 -0.004826281 -0.03385157
v -0.004229899 -0.006690029 -0.03648378
v -0.004229689 -0.004060268 -0.03890385
v -0.004230289 -0.00868019 -0.04066749
v -0.004230289 -0.009547031 -0.03904692
v -0.00423047 -0.01202838 -0.03982953
v -0.004230537 -0.01290021 -0.04010449
v -0.004230576 -0.01308719 -0.0411931
v -0.00422636 0.001345343 0.00256844
v -0.00422636 -0.0004691425 0.002799649
v 0.004226379 0.0120264 -0.007900689
v 0.004226398 0.004558821 -0.007696974
v -0.00422636 0.004558822 -0.007696974
v -0.004226341 0.0120264 -0.007900689
vt 0.803377 0.2996967
vt 0.825507 0.2996967
vt 0.8255157 0.2876387
vt 0.8033682 0.2876387
vt 0.8255072 0.3292698
vt 0.803377 0.3292698
vt 0.8255156 0.2763178
vt 0.8033685 0.2763178
vt 0.803377 0.3348588
vt 0.8255072 0.3348588
vt 0.8255072 0.3398112
vt 0.803377 0.3398112
vt 0.8255151 0.2680457
vt 0.8033687 0.2680457
vt 0.8255156 0.2576934
vt 0.8033685 0.2576934
vt 0.8033683 0.249524
vt 0.8255156 0.249524
vt 0.8033683 0.2406534
vt 0.8255156 0.2406534
vt 0.8255162 0.2325303
vt 0.8033676 0.2325303
vt 0.8033668 0.2228633
vt 0.8255172 0.2228633
vt 0.8033661 0.2163103
vt 0.8255178 0.2163103
vt 0.8255178 0.2140078
vt 0.8033661 0.2140078
vt 0.825518 0.2112258
vt 0.8033661 0.2112258
vt 0.8255072 0.344418
vt 0.803377 0.344418
vt 0.803377 0.3484643
vt 0.8255072 0.3484643
vt 0.8255072 0.3527329
vt 0.803377 0.3527329
vt 0.825507 0.3723148
vt 0.803377 0.3723148
vt 0.9273755 0.3271482
vt 0.8932557 0.3271482
vt 0.8932557 0.340341
vt 0.9273755 0.340341
vt 0.8932557 0.3147468
vt 0.9273755 0.3147468
vt 0.8932492 0.2839474
vt 0.9273822 0.2839474
vt 0.8932467 0.2611329
vt 0.9273847 0.2611329
vt 0.893245 0.2400011
vt 0.9273862 0.2400011
vt 0.8932446 0.2231048
vt 0.927387 0.2231048
vt 0.9273875 0.2037483
vt 0.8932436 0.2037483
vt 0.9273893 0.185175
vt 0.8932421 0.185175
vt 0.9273914 0.1651571
vt 0.89324 0.1651571
vt 0.8932387 0.1471906
vt 0.9273925 0.1471906
vt 0.5452015 0.4319882
vt 0.5231825 0.4320364
vt 0.5265287 0.4387961
vt 0.5428824 0.4372614
vt 0.5496762 0.4059424
vt 0.5120287 0.3937156
vt 0.5750589 0.40525
vt 0.5785393 0.3947335
vt 0.5148715 0.3776925
vt 0.5804403 0.3844953
vt 0.5717964 0.3601211
vt 0.5206308 0.3635412
vt 0.5542965 0.352328
vt 0.5238585 0.3528541
vt 0.5475028 0.3359363
vt 0.5242306 0.3388879
vt 0.5420642 0.3228328
vt 0.5226477 0.3279769
vt 0.5324819 0.3097046
vt 0.5177757 0.3170416
vt 0.5114406 0.3080945
vt 0.5203795 0.2998686
vt 0.5046762 0.2938738
vt 0.5017296 0.2993821
vt 0.4932956 0.2967221
vt 0.4903322 0.2957875
vt 0.4896963 0.2920873
vt 0.5325859 0.4416212
vt 0.5387533 0.4408352
vt 0.5265287 0.4387961
vt 0.5231825 0.4320364
vt 0.5452015 0.4319882
vt 0.5428824 0.4372614
vt 0.5496762 0.4059424
vt 0.5120287 0.3937156
vt 0.5750589 0.40525
vt 0.5785393 0.3947335
vt 0.5148715 0.3776925
vt 0.5804403 0.3844953
vt 0.5717964 0.3601211
vt 0.5206308 0.3635412
vt 0.5542965 0.352328
vt 0.5238585 0.3528541
vt 0.5475028 0.3359363
vt 0.5242306 0.3388879
vt 0.5420642 0.3228328
vt 0.5226477 0.3279769
vt 0.5324819 0.3097046
vt 0.5177757 0.3170416
vt 0.5114406 0.3080945
vt 0.5203795 0.2998686
vt 0.5046762 0.2938738
vt 0.5017296 0.2993821
vt 0.4932956 0.2967221
vt 0.4903322 0.2957875
vt 0.4896963 0.2920873
vt 0.5387533 0.4408352
vt 0.5325859 0.4416212
vt 0.6943871 0.456703
vt 0.6943871 0.4807191
vt 0.7214841 0.4807191
vt 0.7214841 0.456703
vn 0 -0.9985551 0.05373694
vn 0 -0.9985551 0.05373718
vn 0 -0.9607566 -0.2773929
vn 0 -0.9607566 -0.2773926
vn 0 -0.9318073 0.3629535
vn 0 -0.9318073 0.3629534
vn 0 -0.9427865 -0.3333971
vn 0 -0.9427865 -0.3333972
vn 0 -0.6988366 0.7152813
vn 0 -0.6988366 0.7152813
vn 0 -0.1541975 0.98804
vn 0 -0.1541975 0.98804
vn 0 -0.987231 -0.1592955
vn 0 -0.987231 -0.1592955
vn 0 -0.9982764 0.05868867
vn 0 -0.9982764 0.05868866
vn 0 -0.960611 0.2778965
vn 0 -0.960611 0.2778966
vn 0 -0.869001 0.4948104
vn 0 -0.8690012 0.49481
vn 0 -0.7466115 0.6652603
vn 0 -0.7466112 0.6652607
vn 0 -0.4954606 0.8686304
vn 0 -0.4954603 0.8686305
vn 0 -0.300788 0.953691
vn 0 -0.300788 0.953691
vn 0 -0.7533398 0.6576314
vn 0 -0.753341 0.6576302
vn 0 -0.9855677 0.1692818
vn 0 -0.9855677 0.1692818
vn 0 0.4078555 0.9130465
vn 0 0.4078555 0.9130465
vn 2.158765E-07 0.8045741 0.5938522
vn 2.158765E-07 0.8045741 0.5938522
vn 2.352193E-07 0.9575994 0.2881033
vn 2.352193E-07 0.9575994 0.2881033
vn 2.069007E-07 0.9855605 0.1693236
vn 2.069007E-07 0.9855605 0.1693237
vn 1.714119E-07 0.9685183 0.2489425
vn 1.714118E-07 0.9685183 0.2489427
vn 1.352308E-07 0.9493647 0.3141761
vn 1.352308E-07 0.9493647 0.3141761
vn 2.449776E-07 0.9969109 -0.07854126
vn 2.449777E-07 0.9969109 -0.07854157
vn 2.087478E-07 0.7341633 -0.6789729
vn 2.087479E-07 0.7341636 -0.6789726
vn 2.027798E-07 0.71627 -0.6978232
vn 2.027798E-07 0.71627 -0.6978233
vn 2.438224E-07 0.9237018 -0.3831123
vn 2.438224E-07 0.9237018 -0.3831123
vn 1.751919E-07 0.8717839 -0.4898907
vn 1.751919E-07 0.8717839 -0.4898907
vn 0 0.7252297 -0.688507
vn 0 0.7252297 -0.688507
vn 0 0.499964 -0.8660462
vn 0 0.4999644 -0.866046
vn 0 0.2393364 -0.9709367
vn 0 0.2393367 -0.9709367
vn 0 0.1184283 -0.9929627
vn 0 0.1184283 -0.9929627
vn 1 -5.414818E-07 -5.497845E-07
vn 1 -5.620996E-07 -5.707185E-07
vn 1 0 0
vn 1 0 0
vn 1 1.043915E-07 -2.785378E-06
vn 1 3.120764E-05 0.0002307594
vn 1 7.194237E-07 -3.931355E-06
vn 1 3.491932E-05 0.0002531473
vn 1 9.525065E-05 0.0003025213
vn 1 9.453247E-05 0.0003053158
vn 1 0.0001332378 0.0001044109
vn 1 0.0001274959 8.672183E-05
vn 1 0.0001027504 2.435075E-05
vn 1 0.000101324 2.636132E-05
vn 1 8.987809E-05 1.907086E-05
vn 1 8.896142E-05 1.671399E-05
vn 1 7.793756E-05 -7.132341E-06
vn 1 7.711015E-05 -8.238953E-06
vn 1 7.805142E-05 4.526424E-07
vn 1 7.964275E-05 4.813797E-06
vn 1 9.365882E-05 3.37561E-05
vn 1 9.209062E-05 3.142121E-05
vn 1 8.639922E-05 3.93429E-05
vn 1 8.384238E-05 4.028627E-05
vn 1 6.566352E-05 3.474997E-05
vn 1 6.362635E-05 1.956034E-05
vn 1 6.30776E-05 1.544715E-05
vn 1 0 0
vn 1 0 0
vn -1 0 0
vn -1 5.620994E-07 5.707184E-07
vn -1 5.414817E-07 5.497845E-07
vn -1 0 0
vn -1 1.655264E-06 1.418563E-07
vn -1 3.270654E-05 0.0002332461
vn -1 2.117703E-06 -3.308442E-07
vn -1 3.626788E-05 0.0002562302
vn -1 9.640686E-05 0.0003021582
vn -1 9.569187E-05 0.0003050149
vn -1 0.0001340582 0.0001006098
vn -1 0.0001282074 8.330097E-05
vn -1 0.0001031626 2.325698E-05
vn -1 0.0001017875 2.568013E-05
vn -1 9.046416E-05 1.899535E-05
vn -1 8.953543E-05 1.648225E-05
vn -1 7.821753E-05 -8.006708E-06
vn -1 7.734544E-05 -8.973748E-06
vn -1 8.047061E-05 8.194362E-07
vn -1 8.278866E-05 5.290783E-06
vn -1 0.0001002201 3.256389E-05
vn -1 9.855456E-05 3.066755E-05
vn -1 8.942375E-05 3.78452E-05
vn -1 8.579678E-05 3.772021E-05
vn -1 6.377729E-05 3.859418E-05
vn -1 6.244802E-05 2.76673E-05
vn -1 6.201092E-05 2.439092E-05
vn -1 0 0
vn -1 0 0
vn 0 0.02726968 0.9996281
vn 0 0.02726968 0.9996281
vn 0 0.02726969 0.9996281
vn 0 0.02726968 0.9996281
g trigger_LOD0_0
f 3/3/3 2/2/2 1/1/1
f 4/4/4 3/3/3 1/1/1
f 1/1/1 2/2/2 5/5/5
f 6/6/6 1/1/1 5/5/5
f 3/3/3 4/4/4 7/7/7
f 4/4/4 8/8/8 7/7/7
f 9/9/9 6/6/6 5/5/5
f 10/10/10 9/9/9 5/5/5
f 9/9/9 10/10/10 11/11/11
f 12/12/12 9/9/9 11/11/11
f 7/7/7 8/8/8 13/13/13
f 8/8/8 14/14/14 13/13/13
f 13/13/13 14/14/14 15/15/15
f 14/14/14 16/16/16 15/15/15
f 16/16/16 17/17/17 15/15/15
f 17/17/17 18/18/18 15/15/15
f 17/17/17 19/19/19 18/18/18
f 19/19/19 20/20/20 18/18/18
f 20/20/20 19/19/19 21/21/21
f 19/19/19 22/22/22 21/21/21
f 21/21/21 22/22/22 23/23/23
f 24/24/24 21/21/21 23/23/23
f 23/23/23 25/25/25 24/24/24
f 25/25/25 26/26/26 24/24/24
f 26/26/26 25/25/25 27/27/27
f 25/25/25 28/28/28 27/27/27
f 27/27/27 28/28/28 29/29/29
f 28/28/28 30/30/30 29/29/29
f 33/33/33 32/32/32 31/31/31
f 34/34/34 33/33/33 31/31/31
f 34/34/34 35/35/35 33/33/33
f 35/35/35 36/36/36 33/33/33
f 36/36/36 35/35/35 37/37/37
f 38/38/38 36/36/36 37/37/37
f 32/32/32 12/12/12 31/31/31
f 12/12/12 11/11/11 31/31/31
f 41/41/41 40/40/40 39/39/39
f 42/42/42 41/41/41 39/39/39
f 39/39/39 40/40/40 43/43/43
f 44/44/44 39/39/39 43/43/43
f 44/44/44 43/43/43 45/45/45
f 46/46/46 44/44/44 45/45/45
f 46/46/46 45/45/45 47/47/47
f 48/48/48 46/46/46 47/47/47
f 48/48/48 47/47/47 49/49/49
f 50/50/50 48/48/48 49/49/49
f 50/50/50 49/49/49 51/51/51
f 52/52/52 50/50/50 51/51/51
f 53/53/53 52/52/52 51/51/51
f 54/54/54 53/53/53 51/51/51
f 55/55/55 53/53/53 54/54/54
f 56/56/56 55/55/55 54/54/54
f 57/57/57 55/55/55 56/56/56
f 58/58/58 57/57/57 56/56/56
f 57/57/57 58/58/58 59/59/59
f 60/60/60 57/57/57 59/59/59
f 63/63/63 62/62/62 61/61/61
f 64/64/64 63/63/63 61/61/61
f 65/65/65 61/61/61 62/62/62
f 66/66/66 65/65/65 62/62/62
f 67/67/67 65/65/65 66/66/66
f 68/68/68 67/67/67 66/66/66
f 68/68/68 66/66/66 69/69/69
f 70/70/70 68/68/68 69/69/69
f 70/70/70 69/69/69 71/71/71
f 69/69/69 72/72/72 71/71/71
f 71/71/71 72/72/72 73/73/73
f 72/72/72 74/74/74 73/73/73
f 73/73/73 74/74/74 75/75/75
f 74/74/74 76/76/76 75/75/75
f 75/75/75 76/76/76 77/77/77
f 76/76/76 78/78/78 77/77/77
f 77/77/77 78/78/78 79/79/79
f 78/78/78 80/80/80 79/79/79
f 80/80/80 81/81/81 79/79/79
f 81/81/81 82/82/82 79/79/79
f 82/82/82 81/81/81 83/83/83
f 81/81/81 84/84/84 83/83/83
f 84/84/84 85/85/85 83/83/83
f 83/83/83 85/85/85 86/86/86
f 87/87/87 83/83/83 86/86/86
f 88/88/88 63/63/63 64/64/64
f 89/89/89 88/88/88 64/64/64
f 92/92/92 91/91/91 90/90/90
f 93/93/93 92/92/92 90/90/90
f 92/92/92 94/94/94 91/91/91
f 94/94/94 95/95/95 91/91/91
f 94/94/94 96/96/96 95/95/95
f 96/96/96 97/97/97 95/95/95
f 98/98/98 95/95/95 97/97/97
f 99/99/99 98/98/98 97/97/97
f 99/99/99 100/100/100 98/98/98
f 100/100/100 101/101/101 98/98/98
f 100/100/100 102/102/102 101/101/101
f 102/102/102 103/103/103 101/101/101
f 102/102/102 104/104/104 103/103/103
f 104/104/104 105/105/105 103/103/103
f 105/105/105 104/104/104 106/106/106
f 107/107/107 105/105/105 106/106/106
f 107/107/107 106/106/106 108/108/108
f 109/109/109 107/107/107 108/108/108
f 109/109/109 108/108/108 110/110/110
f 108/108/108 111/111/111 110/110/110
f 111/111/111 112/112/112 110/110/110
f 112/112/112 113/113/113 110/110/110
f 114/114/114 113/113/113 112/112/112
f 114/114/114 112/112/112 115/115/115
f 112/112/112 116/116/116 115/115/115
f 118/118/118 117/117/117 93/93/93
f 90/90/90 118/118/118 93/93/93
f 121/121/121 120/120/120 119/119/119
f 122/122/122 121/121/121 119/119/119
