g lnchr_release_LOD0
v 0.002100427 0.003313446 0.008260448
v -0.002332245 0.003300953 0.00916608
v -0.002332249 0.003313465 0.008260456
v 0.002100429 0.003300934 0.009166076
v -0.00401451 0.003300972 0.009166081
v -0.004014511 0.003313484 0.008260458
v -0.002332263 0.00339817 0.002135789
v 0.002100403 0.003398132 0.002135785
v 0.002100403 0.004103489 -0.0022281
v -0.002332265 0.004103508 -0.002228095
v 0.002101005 0.008830852 -0.01715747
v -0.002331958 0.00883091 -0.01715747
v 0.003557594 0.003398132 0.002135785
v 0.0035576 0.003313446 0.008260447
v 0.003557591 0.004103489 -0.0022281
v -0.00401452 0.004103527 -0.002228093
v -0.00401451 0.008830928 -0.01715747
v -0.004014518 0.00339819 0.002135792
v -0.002331933 0.009222145 -0.01839302
v 0.002101054 0.009222107 -0.01839302
v -0.002799482 0.008388233 -0.01871164
v 0.002295662 0.008378067 -0.01871577
v 0.003557603 0.009222107 -0.01839302
v 0.003557602 0.008830852 -0.01715747
v 0.003558201 0.0084091 -0.01870378
v -0.004014509 0.009222164 -0.01839302
v -0.002804464 0.007013492 -0.01923724
v -0.004015443 0.007013492 -0.01923725
v 0.003558761 0.007644634 -0.01899598
v 0.002296293 0.007627849 -0.01900247
v 0.00229681 0.007013473 -0.01923726
v 0.003559227 0.007013492 -0.01923725
v -0.00280448 -0.001604729 0.008134806
v -0.004015476 -0.003231125 0.0002793217
v -0.00401546 -0.001604729 0.008134807
v -0.002804496 -0.003231144 0.0002793193
v -0.004015485 -0.002805595 -0.002491798
v -0.002803606 -0.000458641 0.009165003
v -0.004015452 -0.0004452896 0.00916499
v -0.004014518 0.00339819 0.002135792
v -0.004014511 0.003313484 0.008260458
v -0.00401452 0.004103527 -0.002228093
v -0.004015443 0.007013492 -0.01923725
v -0.00401451 0.008830928 -0.01715747
v -0.004014509 0.009222164 -0.01839302
v -0.004014642 0.002771301 0.009165928
v -0.00401451 0.003300972 0.009166081
v -0.002804504 -0.002805595 -0.002491801
v -0.002804464 0.007013492 -0.01923724
v -0.004015485 -0.002805595 -0.002491798
v -0.004015443 0.007013492 -0.01923725
v 0.002296794 -0.001604767 0.008134801
v 0.003105142 -0.001604767 0.008134801
v 0.002296776 -0.003231182 0.0002792978
v 0.003105053 -0.0004501343 0.009164989
v 0.003559208 -0.001604767 0.0081348
v 0.003559212 -0.0004453468 0.009164982
v 0.003558768 6.015777E-05 0.008358317
v 0.003558909 -0.000690422 0.00771392
v 0.002296607 -0.0004586792 0.009164998
v 0.00355919 -0.003231182 0.0002792954
v 0.002296771 -0.002805633 -0.002491822
v 0.003559185 -0.002805633 -0.002491825
v 0.002296808 0.006243725 -0.01792455
v 0.003559223 0.006262951 -0.01795732
v 0.003558897 -0.001560783 -0.002444312
v 0.003558773 0.006972408 -0.01773591
v 0.003559227 0.007013492 -0.01923725
v 0.003558761 0.007644634 -0.01899598
v 0.003558165 0.007938518 -0.01743521
v 0.003558201 0.0084091 -0.01870378
v 0.003557603 0.009222107 -0.01839302
v 0.003557602 0.008830852 -0.01715747
v 0.003557591 0.004103489 -0.0022281
v 0.003557862 0.002933121 -0.002272775
v 0.003557877 0.002227783 0.001808031
v 0.003558913 -0.002087822 0.0005994868
v 0.003557594 0.003398132 0.002135785
v 0.003558021 0.002143097 0.008295661
v 0.0035576 0.003313446 0.008260447
v 0.003558107 0.002130566 0.009165731
v 0.003557601 0.003300934 0.009166075
v 0.003105053 -0.0004501343 0.009164989
v 0.003558107 0.002130566 0.009165731
v 0.003559212 -0.0004453468 0.009164982
v 0.003105127 0.001924591 0.009165412
v 0.003104725 0.002856922 0.009165688
v 0.003557601 0.003300934 0.009166075
v 0.002100429 0.003300934 0.009166076
v 0.002170646 0.002856922 0.009165685
v 0.002296032 0.002064094 0.009164989
v -0.002332245 0.003300953 0.00916608
v -0.002525001 0.00279192 0.009165865
v -0.004014642 0.002771301 0.009165928
v -0.00401451 0.003300972 0.009166081
v -0.002800829 0.002064133 0.009164994
v -0.004015452 -0.0004452896 0.00916499
v -0.002803606 -0.000458641 0.009165003
v 0.002296607 -0.0004586792 0.009164998
v 0.002295827 0.00100811 -0.001418309
v -0.002799482 0.008388233 -0.01871164
v -0.002800177 0.001013222 -0.001416242
v 0.002295662 0.008378067 -0.01871577
v 0.002296032 0.002064094 0.009164989
v -0.002800829 0.002064133 0.009164994
v -0.002804496 -0.003231144 0.0002793193
v -0.002800177 0.001013222 -0.001416242
v -0.002804504 -0.002805595 -0.002491801
v -0.00280448 -0.001604729 0.008134806
v -0.002800829 0.002064133 0.009164994
v -0.002804464 0.007013492 -0.01923724
v -0.002799482 0.008388233 -0.01871164
v -0.002803606 -0.000458641 0.009165003
v 0.002295662 0.008378067 -0.01871577
v 0.002296808 0.006243725 -0.01792455
v 0.002296293 0.007627849 -0.01900247
v 0.002295827 0.00100811 -0.001418309
v 0.002296771 -0.002805633 -0.002491822
v 0.002296776 -0.003231182 0.0002792978
v 0.002296032 0.002064094 0.009164989
v 0.002296794 -0.001604767 0.008134801
v 0.002296607 -0.0004586792 0.009164998
v 0.00229681 0.007013473 -0.01923726
v 0.003557601 0.003300934 0.009166075
v 0.00229681 0.007013473 -0.01923726
v 0.003966875 0.00203083 4.076958E-07
v 0.003330958 0.00143589 0.001436703
v 0.00333096 0.00203083 4.076958E-07
v 0.003966875 0.00143589 0.001436703
v 0.003330951 -4.196167E-07 0.002031634
v 0.003966869 -4.196167E-07 0.002031634
v 0.003330941 -0.001436691 0.001436703
v 0.00396686 -0.001436691 0.001436703
v 0.003330936 -0.002031632 4.076958E-07
v 0.003966855 -0.002031632 4.076958E-07
v 0.003330938 -0.001436691 -0.001435893
v 0.003966855 -0.001436691 -0.001435893
v 0.003330945 -4.196167E-07 -0.002030833
v 0.00396686 -4.196167E-07 -0.002030833
v 0.003330954 0.00143589 -0.001435893
v 0.003966873 0.00143589 -0.001435893
v 0.004015431 0.0009654998 -0.0009655165
v 0.004015435 0.001365623 4.076958E-07
v 0.004015427 -4.196167E-07 0.001366427
v 0.004015422 -0.0009663391 0.0009663319
v 0.003695657 -4.196167E-07 4.076958E-07
v 0.004015421 -4.196167E-07 -0.001365616
v 0.004015416 -0.0009663391 -0.0009655165
v 0.004015433 0.0009654998 0.0009663271
v 0.004015417 -0.001366424 4.076958E-07
vt 0.9186065 0.2744639
vt 0.9409319 0.2794966
vt 0.9409319 0.2744639
vt 0.9186065 0.2794966
vt 0.9494066 0.2794966
vt 0.9494066 0.2744639
vt 0.9409319 0.240427
vt 0.9186065 0.240427
vt 0.9186065 0.2155985
vt 0.9409319 0.2155985
vt 0.9186046 0.1285809
vt 0.9409319 0.1285809
vt 0.9112685 0.240427
vt 0.9112685 0.2744639
vt 0.9112685 0.2155985
vt 0.9494066 0.2155985
vt 0.9494066 0.1285809
vt 0.9494066 0.240427
vt 0.9409196 0.121379
vt 0.9186169 0.1213798
vt 0.9432547 0.1163766
vt 0.9176517 0.116316
vt 0.9112889 0.1213802
vt 0.9112685 0.1285809
vt 0.9113056 0.1165036
vt 0.9493836 0.121379
vt 0.9432805 0.1081287
vt 0.949366 0.1081278
vt 0.9113042 0.1119165
vt 0.9176478 0.1118153
vt 0.9176441 0.1081292
vt 0.9113004 0.1081292
vt 0.9329005 0.622418
vt 0.9227164 0.599067
vt 0.9349075 0.619308
vt 0.9196435 0.6004741
vt 0.9211367 0.5906137
vt 0.9397689 0.6248605
vt 0.9391886 0.6206083
vt 0.9427865 0.5956878
vt 0.9486158 0.6132359
vt 0.9402707 0.5824046
vt 0.9313831 0.5301702
vt 0.9384449 0.53375
vt 0.9382927 0.5297245
vt 0.9479028 0.6166439
vt 0.9495059 0.6159146
vt 0.9177866 0.5906342
vt 0.9281108 0.5294939
vt 0.9211367 0.5906137
vt 0.9313831 0.5301702
vt 0.7733672 0.294019
vt 0.7769536 0.2915079
vt 0.7618586 0.2426062
vt 0.7861393 0.2987987
vt 0.7792318 0.2899815
vt 0.7866541 0.2959507
vt 0.7893961 0.2912013
vt 0.7847654 0.2873711
vt 0.7850487 0.3042508
vt 0.7686875 0.2425895
vt 0.7645817 0.2229703
vt 0.7710556 0.2257335
vt 0.819119 0.127086
vt 0.8250884 0.1309593
vt 0.7786466 0.225899
vt 0.8294819 0.1323812
vt 0.8295406 0.1232167
vt 0.8334811 0.1246778
vt 0.8353979 0.1341072
vt 0.8381681 0.1263721
vt 0.843152 0.1281748
vt 0.8408654 0.1357001
vt 0.8132169 0.2266443
vt 0.8060746 0.2264904
vt 0.8020954 0.2512909
vt 0.7756727 0.2443971
vt 0.8095585 0.2531596
vt 0.8020964 0.2906143
vt 0.8095585 0.2902838
vt 0.8020887 0.2959507
vt 0.8095585 0.2959507
vt 0.9729413 0.4584503
vt 0.9902681 0.4552148
vt 0.9734998 0.4552148
vt 0.9896805 0.4586144
vt 0.995126 0.4586144
vt 0.9983833 0.4552148
vt 0.9983833 0.4658318
vt 0.9952134 0.4653611
vt 0.9896805 0.4646443
vt 0.9983833 0.4987413
vt 0.9952243 0.5002307
vt 0.9952285 0.511449
vt 0.9983833 0.511449
vt 0.9896805 0.5025166
vt 0.9734962 0.511449
vt 0.9734962 0.5025166
vt 0.9717565 0.4646443
vt 0.3851743 0.3509153
vt 0.3934138 0.3240885
vt 0.3934138 0.3509153
vt 0.3851743 0.3240885
vt 0.3851743 0.3662417
vt 0.3934138 0.3662417
vt 0.379932 0.3538523
vt 0.3853822 0.3509153
vt 0.3801364 0.3509153
vt 0.3811226 0.3646258
vt 0.3853822 0.3662417
vt 0.3836472 0.3240885
vt 0.3853822 0.3240885
vt 0.3824332 0.3662417
vt 0.3851743 0.3240885
vt 0.3831576 0.326226
vt 0.3842457 0.3240885
vt 0.3851743 0.3509153
vt 0.379918 0.3509153
vt 0.3797158 0.3538523
vt 0.3851743 0.3662417
vt 0.3809011 0.3646258
vt 0.3822114 0.3662417
vt 0.3834289 0.3240885
vt 0.9112685 0.2794966
vt 0.8236622 0.1192376
vt 0.9137956 0.4255677
vt 0.9125363 0.4373738
vt 0.917532 0.4255677
vt 0.9098947 0.4347876
vt 0.9004758 0.4422643
vt 0.9004758 0.4386063
vt 0.888416 0.4373738
vt 0.8910582 0.4347876
vt 0.8834206 0.4255683
vt 0.8871568 0.4255683
vt 0.888416 0.4137617
vt 0.8910582 0.4163481
vt 0.9004758 0.4088715
vt 0.9004758 0.4125299
vt 0.9125363 0.4137617
vt 0.9098947 0.4163481
vt 0.9069954 0.4191862
vt 0.9096957 0.4255677
vt 0.9004758 0.4345926
vt 0.8939571 0.4319495
vt 0.9004758 0.4255683
vt 0.9004758 0.4165429
vt 0.8939571 0.4191869
vt 0.9069954 0.4319495
vt 0.8912571 0.4255683
vn 2.594114E-06 0.9999045 0.01382072
vn 3.358458E-05 0.7020487 0.712129
vn 7.838043E-06 0.9999045 0.01382184
vn 1.051479E-06 0.701892 0.7122834
vn -0.5779989 0.5729668 0.5810562
vn -0.7070362 0.7071098 0.009775373
vn 9.080232E-06 0.9962147 0.08692728
vn 4.333409E-06 0.9962146 0.08692778
vn 2.750893E-06 0.9728731 0.2313391
vn 8.243569E-06 0.9728733 0.2313382
vn 5.033639E-06 0.9533452 0.3018822
vn 1.156376E-05 0.9533468 0.3018773
vn 0.7238579 0.6873382 0.0599654
vn 0.7069737 0.7071726 0.009759619
vn 0.7238569 0.6712314 0.159623
vn -0.7238863 0.6712009 0.1596189
vn -0.7069628 0.6742554 0.2135024
vn -0.7238867 0.6873081 0.05996361
vn 9.600138E-06 0.9006271 -0.4345925
vn -1.285514E-05 0.9006835 -0.4344758
vn 0.2913648 0.04419698 -0.9555905
vn -0.292605 0.04486558 -0.9551803
vn 0.5802895 0.7335627 -0.3537652
vn 0.7068954 0.6743181 0.2135274
vn 0.707145 0.2529036 -0.6602921
vn -0.5803421 0.7334917 -0.3538263
vn 0.5855482 -0.2691344 -0.7646567
vn -0.5866455 -0.2682297 -0.7641333
vn 0.7071493 0.2528845 -0.6602949
vn -0.7070382 0.2519263 -0.66078
vn -0.5862671 -0.2685278 -0.7643192
vn 0.5867675 -0.2681376 -0.7640721
vn 0.6427894 -0.664346 0.3814003
vn -0.669342 -0.7427052 0.01924069
vn -0.6432561 -0.6634437 0.3821832
vn 0.6689514 -0.7430565 0.01926599
vn -0.6672156 -0.7018862 -0.2493575
vn 0.6334576 -0.2778563 0.7221686
vn -0.6367944 -0.2722241 0.7213784
vn -0.7238867 0.6873081 0.05996361
vn -0.7070362 0.7071098 0.009775373
vn -0.7238863 0.6712009 0.1596189
vn -0.5866455 -0.2682297 -0.7641333
vn -0.7069628 0.6742554 0.2135024
vn -0.5803421 0.7334917 -0.3538263
vn -0.7071251 -0.0001513035 0.7070884
vn -0.5779989 0.5729668 0.5810562
vn 0.6668035 -0.7022359 -0.2494752
vn 0.5855482 -0.2691344 -0.7646567
vn -0.6672156 -0.7018862 -0.2493575
vn -0.5866455 -0.2682297 -0.7641333
vn -0.6427363 -0.6638268 0.3823924
vn 7.33533E-07 -0.8662115 0.4996776
vn -0.6692144 -0.7428201 0.01924154
vn 0.002836904 -0.356547 0.9342731
vn 0.6429657 -0.6633468 0.3828395
vn 0.6368088 -0.2723365 0.7213233
vn 0.9999999 0.0003600292 -0.0002327845
vn 1 0.0002963068 -7.49725E-05
vn -0.6332343 -0.2788101 0.7219967
vn 0.6693683 -0.7426817 0.01923644
vn -0.6670883 -0.7019945 -0.2493931
vn 0.6672459 -0.7018594 -0.2493517
vn -0.706867 -0.6102052 -0.3577551
vn 0.7073244 -0.6097819 -0.3575727
vn 1 0.000230269 8.305174E-05
vn 0.9999999 0.0005393873 0.0002693972
vn 0.5867675 -0.2681376 -0.7640721
vn 0.7071493 0.2528845 -0.6602949
vn 0.9999999 0.0005727623 0.0002185135
vn 0.707145 0.2529036 -0.6602921
vn 0.5802895 0.7335627 -0.3537652
vn 0.7068954 0.6743181 0.2135274
vn 0.7238569 0.6712314 0.159623
vn 1 0.0002313758 7.307994E-05
vn 1 0.0002454568 1.99812E-06
vn 1 0.0002445156 -9.593138E-06
vn 0.7238579 0.6873382 0.0599654
vn 1 0.0003450618 -5.823109E-05
vn 0.7069737 0.7071726 0.009759619
vn 0.7069458 8.593167E-05 0.7072677
vn 0.577873 0.5729671 0.5811812
vn 0.002836904 -0.356547 0.9342731
vn 0.7069458 8.593167E-05 0.7072677
vn 0.6368088 -0.2723365 0.7213233
vn -0.0005471545 -0.0001853121 0.9999999
vn -0.0002846166 -0.0005845436 0.9999998
vn 0.577873 0.5729671 0.5811812
vn 1.051479E-06 0.701892 0.7122834
vn 1.278794E-05 -0.0008695763 0.9999996
vn -0.2768153 -0.2942511 0.914762
vn 3.358458E-05 0.7020487 0.712129
vn 3.632168E-05 -0.0008141829 0.9999996
vn -0.7071251 -0.0001513035 0.7070884
vn -0.5779989 0.5729668 0.5810562
vn 0.2767934 -0.2947164 0.9146188
vn -0.6367944 -0.2722241 0.7213784
vn 0.6334576 -0.2778563 0.7221686
vn -0.6332343 -0.2788101 0.7219967
vn -0.7678183 -0.6332958 -0.09690935
vn 0.2913648 0.04419698 -0.9555905
vn 0.7668376 -0.6344478 -0.09713986
vn -0.292605 0.04486558 -0.9551803
vn -0.2768153 -0.2942511 0.914762
vn 0.2767934 -0.2947164 0.9146188
vn 0.6689514 -0.7430565 0.01926599
vn 0.7668376 -0.6344478 -0.09713986
vn 0.6668035 -0.7022359 -0.2494752
vn 0.6427894 -0.664346 0.3814003
vn 0.2767934 -0.2947164 0.9146188
vn 0.5855482 -0.2691344 -0.7646567
vn 0.2913648 0.04419698 -0.9555905
vn 0.6334576 -0.2778563 0.7221686
vn -0.292605 0.04486558 -0.9551803
vn -0.706867 -0.6102052 -0.3577551
vn -0.7070382 0.2519263 -0.66078
vn -0.7678183 -0.6332958 -0.09690935
vn -0.6670883 -0.7019945 -0.2493931
vn -0.6692144 -0.7428201 0.01924154
vn -0.2768153 -0.2942511 0.914762
vn -0.6427363 -0.6638268 0.3823924
vn -0.6332343 -0.2788101 0.7219967
vn -0.5862671 -0.2685278 -0.7643192
vn 0.577873 0.5729671 0.5811812
vn -0.5862671 -0.2685278 -0.7643192
vn 0.6074986 0.7943208 -3.397949E-07
vn 0 0.707103 0.7071106
vn 0 1 2.669673E-07
vn 0.6075004 0.5616649 0.5616722
vn 0 -6.119712E-06 1
vn 0.6075 -5.985389E-06 0.7943196
vn 0 -0.7071077 0.7071059
vn 0.6074975 -0.5616714 0.5616689
vn 0 -1 3.080401E-07
vn 0.6074963 -0.7943225 -6.160566E-07
vn 0 -0.7071097 -0.7071038
vn 0.6074983 -0.5616721 -0.5616673
vn 0 -6.140267E-06 -1
vn 0.6074969 -6.350209E-06 -0.7943221
vn 0 0.707105 -0.7071085
vn 0.607501 0.561666 -0.5616707
vn 0.9991666 -0.02886723 0.02885811
vn 0.9991668 -0.04081316 -1.88812E-06
vn 0.9991667 -5.841555E-06 -0.04081563
vn 0.999167 0.02885341 -0.0288596
vn 1 -4.83118E-06 -2.189129E-06
vn 0.9991668 -7.181315E-06 0.0408113
vn 0.999167 0.02885459 0.02885778
vn 0.9991665 -0.02886745 -0.02886107
vn 0.9991668 0.0408113 -3.09199E-06
g lnchr_release_LOD0_0
f 3/3/3 2/2/2 1/1/1
f 4/4/4 1/1/1 2/2/2
f 2/2/2 3/3/3 5/5/5
f 6/6/6 5/5/5 3/3/3
f 3/3/3 1/1/1 7/7/7
f 8/8/8 7/7/7 1/1/1
f 8/8/8 9/9/9 7/7/7
f 10/10/10 7/7/7 9/9/9
f 9/9/9 11/11/11 10/10/10
f 12/12/12 10/10/10 11/11/11
f 8/8/8 1/1/1 13/13/13
f 8/8/8 13/13/13 9/9/9
f 14/14/14 13/13/13 1/1/1
f 15/15/15 9/9/9 13/13/13
f 9/9/9 15/15/15 11/11/11
f 10/10/10 12/12/12 16/16/16
f 17/17/17 16/16/16 12/12/12
f 16/16/16 18/18/18 10/10/10
f 7/7/7 10/10/10 18/18/18
f 7/7/7 18/18/18 3/3/3
f 6/6/6 3/3/3 18/18/18
f 12/12/12 11/11/11 19/19/19
f 20/20/20 19/19/19 11/11/11
f 19/19/19 20/20/20 21/21/21
f 22/22/22 21/21/21 20/20/20
f 20/20/20 11/11/11 23/23/23
f 20/20/20 23/23/23 22/22/22
f 24/24/24 23/23/23 11/11/11
f 24/24/24 11/11/11 15/15/15
f 22/22/22 23/23/23 25/25/25
f 21/21/21 26/26/26 19/19/19
f 19/19/19 26/26/26 12/12/12
f 17/17/17 12/12/12 26/26/26
f 21/21/21 27/27/27 26/26/26
f 28/28/28 26/26/26 27/27/27
f 25/25/25 29/29/29 22/22/22
f 30/30/30 22/22/22 29/29/29
f 30/30/30 29/29/29 31/31/31
f 32/32/32 31/31/31 29/29/29
f 35/35/35 34/34/34 33/33/33
f 36/36/36 33/33/33 34/34/34
f 34/34/34 37/37/37 36/36/36
f 33/33/33 38/38/38 35/35/35
f 39/39/39 35/35/35 38/38/38
f 34/34/34 35/35/35 40/40/40
f 34/34/34 40/40/40 37/37/37
f 41/41/41 40/40/40 35/35/35
f 42/42/42 37/37/37 40/40/40
f 37/37/37 42/42/42 43/43/43
f 44/44/44 43/43/43 42/42/42
f 44/44/44 45/45/45 43/43/43
f 39/39/39 46/46/46 35/35/35
f 46/46/46 47/47/47 35/35/35
f 47/47/47 41/41/41 35/35/35
f 49/49/49 48/48/48 43/43/43
f 48/48/48 36/36/36 50/50/50
f 50/50/50 51/51/51 48/48/48
f 54/54/54 53/53/53 52/52/52
f 53/53/53 55/55/55 52/52/52
f 53/53/53 56/56/56 55/55/55
f 57/57/57 55/55/55 56/56/56
f 57/57/57 56/56/56 58/58/58
f 59/59/59 58/58/58 56/56/56
f 60/60/60 52/52/52 55/55/55
f 61/61/61 56/56/56 53/53/53
f 54/54/54 61/61/61 53/53/53
f 54/54/54 62/62/62 61/61/61
f 63/63/63 61/61/61 62/62/62
f 62/62/62 64/64/64 63/63/63
f 65/65/65 63/63/63 64/64/64
f 63/63/63 65/65/65 66/66/66
f 67/67/67 66/66/66 65/65/65
f 65/65/65 68/68/68 67/67/67
f 69/69/69 67/67/67 68/68/68
f 67/67/67 69/69/69 70/70/70
f 71/71/71 70/70/70 69/69/69
f 71/71/71 72/72/72 70/70/70
f 73/73/73 70/70/70 72/72/72
f 73/73/73 74/74/74 70/70/70
f 75/75/75 70/70/70 74/74/74
f 70/70/70 75/75/75 67/67/67
f 66/66/66 67/67/67 75/75/75
f 75/75/75 76/76/76 66/66/66
f 75/75/75 74/74/74 76/76/76
f 77/77/77 66/66/66 76/76/76
f 66/66/66 77/77/77 63/63/63
f 78/78/78 76/76/76 74/74/74
f 61/61/61 63/63/63 77/77/77
f 76/76/76 78/78/78 79/79/79
f 80/80/80 79/79/79 78/78/78
f 79/79/79 80/80/80 81/81/81
f 82/82/82 81/81/81 80/80/80
f 79/79/79 81/81/81 58/58/58
f 57/57/57 58/58/58 81/81/81
f 59/59/59 79/79/79 58/58/58
f 59/59/59 76/76/76 79/79/79
f 59/59/59 77/77/77 76/76/76
f 61/61/61 77/77/77 56/56/56
f 59/59/59 56/56/56 77/77/77
f 85/85/85 84/84/84 83/83/83
f 86/86/86 83/83/83 84/84/84
f 86/86/86 84/84/84 87/87/87
f 88/88/88 87/87/87 84/84/84
f 88/88/88 89/89/89 87/87/87
f 90/90/90 87/87/87 89/89/89
f 86/86/86 87/87/87 91/91/91
f 90/90/90 91/91/91 87/87/87
f 89/89/89 92/92/92 90/90/90
f 93/93/93 90/90/90 92/92/92
f 90/90/90 93/93/93 91/91/91
f 93/93/93 92/92/92 94/94/94
f 95/95/95 94/94/94 92/92/92
f 93/93/93 94/94/94 96/96/96
f 96/96/96 91/91/91 93/93/93
f 94/94/94 97/97/97 96/96/96
f 98/98/98 96/96/96 97/97/97
f 91/91/91 99/99/99 86/86/86
f 83/83/83 86/86/86 99/99/99
f 102/102/102 101/101/101 100/100/100
f 103/103/103 100/100/100 101/101/101
f 100/100/100 104/104/104 102/102/102
f 105/105/105 102/102/102 104/104/104
f 108/108/108 107/107/107 106/106/106
f 106/106/106 107/107/107 109/109/109
f 110/110/110 109/109/109 107/107/107
f 108/108/108 111/111/111 107/107/107
f 112/112/112 107/107/107 111/111/111
f 110/110/110 113/113/113 109/109/109
f 116/116/116 115/115/115 114/114/114
f 114/114/114 115/115/115 117/117/117
f 118/118/118 117/117/117 115/115/115
f 119/119/119 117/117/117 118/118/118
f 117/117/117 119/119/119 120/120/120
f 121/121/121 120/120/120 119/119/119
f 120/120/120 121/121/121 122/122/122
f 116/116/116 123/123/123 115/115/115
f 4/4/4 124/124/124 1/1/1
f 14/14/14 1/1/1 124/124/124
f 68/68/68 65/65/65 125/125/125
f 64/64/64 125/125/125 65/65/65
f 128/128/128 127/127/127 126/126/126
f 129/129/129 126/126/126 127/127/127
f 127/127/127 130/130/130 129/129/129
f 131/131/131 129/129/129 130/130/130
f 130/130/130 132/132/132 131/131/131
f 133/133/133 131/131/131 132/132/132
f 132/132/132 134/134/134 133/133/133
f 135/135/135 133/133/133 134/134/134
f 134/134/134 136/136/136 135/135/135
f 137/137/137 135/135/135 136/136/136
f 136/136/136 138/138/138 137/137/137
f 139/139/139 137/137/137 138/138/138
f 138/138/138 140/140/140 139/139/139
f 141/141/141 139/139/139 140/140/140
f 140/140/140 128/128/128 141/141/141
f 126/126/126 141/141/141 128/128/128
f 141/141/141 126/126/126 142/142/142
f 143/143/143 142/142/142 126/126/126
f 126/126/126 129/129/129 143/143/143
f 131/131/131 144/144/144 129/129/129
f 131/131/131 133/133/133 144/144/144
f 133/133/133 135/135/135 145/145/145
f 145/145/145 144/144/144 133/133/133
f 144/144/144 145/145/145 146/146/146
f 146/146/146 142/142/142 143/143/143
f 147/147/147 142/142/142 146/146/146
f 139/139/139 141/141/141 147/147/147
f 142/142/142 147/147/147 141/141/141
f 139/139/139 147/147/147 137/137/137
f 148/148/148 147/147/147 146/146/146
f 148/148/148 137/137/137 147/147/147
f 137/137/137 148/148/148 135/135/135
f 143/143/143 149/149/149 146/146/146
f 146/146/146 149/149/149 144/144/144
f 149/149/149 129/129/129 144/144/144
f 149/149/149 143/143/143 129/129/129
f 150/150/150 148/148/148 146/146/146
f 146/146/146 145/145/145 150/150/150
f 150/150/150 145/145/145 135/135/135
f 150/150/150 135/135/135 148/148/148
