g Bolt_catch_LOD0
v 0.0003975248 -0.005487941 0.002150588
v 0.0004111582 0.006117606 -0.001402721
v 0.0004119652 -0.006256266 -0.001401775
v 0.0003967428 0.006191242 0.002389235
v 0.000397554 -0.005902728 0.00212919
v 0.0004119968 -0.006733401 -0.001401703
v 0.0004111278 0.006587608 -0.001402876
v 0.0003967142 0.006598899 0.002410636
v 0.0004134023 0.006105847 -0.00200911
v 0.0004142135 -0.006379124 -0.001969864
v 0.000395174 -0.005365164 0.002718673
v 0.0003943962 0.006203005 0.002995541
v 0.0004142451 -0.006866288 -0.001966307
v 0.0008786118 -0.006427654 -0.003290799
v 0.0008786499 -0.007016051 -0.003283925
v 0.001498044 -0.006831115 -0.00388056
v 0.001500604 -0.006055847 -0.003897293
v 0.0003943676 0.006600711 0.00302042
v 0.002433513 -0.006646163 -0.004225867
v 0.002438669 -0.005683937 -0.004252298
v 0.003220444 -0.005913701 -0.004534707
v 0.003406045 -0.005127477 -0.004562535
v 0.003330147 -0.005882017 -0.004849744
v 0.003515435 -0.005101017 -0.004874005
v 0.003266878 -0.005811782 -0.005786357
v 0.003451436 -0.005042139 -0.005804656
v 0.003190306 -0.004990489 -0.006724455
v 0.003370693 -0.004290156 -0.006725917
v 0.002178679 -0.004627994 -0.00704597
v 0.002182592 -0.00544795 -0.00704623
v 0.000452134 -0.005056075 -0.007124305
v 0.0004521894 -0.005918478 -0.007122574
v -0.0007243258 -0.005918555 -0.007122674
v -0.0007243812 -0.005056152 -0.007124405
v -0.0007277858 -0.002450699 -0.007129414
v 0.0004486251 -0.002450622 -0.007129314
v -0.0007280707 0.001937437 -0.007137957
v 0.0004483402 0.001937513 -0.007137944
v 0.002179878 -0.002223344 -0.007045097
v 0.002159786 0.001826608 -0.007043784
v 0.003411769 -0.002063339 -0.006730353
v 0.003412986 0.00168715 -0.006737833
v 0.003643658 0.001603165 -0.005952925
v 0.003621693 -0.002566509 -0.005859892
v 0.003686942 -0.00253659 -0.004954121
v 0.00371109 0.001782401 -0.005088935
v 0.003579634 -0.002488267 -0.004646537
v 0.003607218 0.001956909 -0.004788063
v 0.00279152 -0.002709273 -0.004332225
v 0.002817712 0.002300753 -0.004466939
v 0.001845611 -0.002869104 -0.003947613
v 0.001858523 0.002498169 -0.004032416
v 0.001215672 -0.003028836 -0.003311601
v 0.001215302 0.002695684 -0.003346658
v 0.002495898 0.005275373 -0.004546921
v 0.001528865 0.005684864 -0.00408288
v 0.002501072 0.005988133 -0.004573357
v 0.001531435 0.006287024 -0.004099531
v 0.003291646 0.005279744 -0.004899957
v 0.003453442 0.004596097 -0.004872181
v 0.0033928 0.005180597 -0.005195105
v 0.003555229 0.004346724 -0.005169072
v 0.003323808 0.004848394 -0.006026516
v 0.003486652 0.004078777 -0.006008274
v 0.003076664 0.004614265 -0.006743777
v 0.003243679 0.003913953 -0.006742282
v 0.002134584 0.004231257 -0.007042994
v 0.002130564 0.005051212 -0.007042734
v 0.0004515088 0.004542964 -0.007142954
v 0.0004514533 0.005405369 -0.007144675
v -0.0007250619 0.005405292 -0.007144775
v -0.0007250065 0.004542887 -0.007143054
v 0.0008778017 0.006094456 -0.003367429
v 0.0008777702 0.006585934 -0.0033743
v 0.0004133713 0.006585882 -0.00201267
v 0.002641812 0.005497274 -0.00623914
v 0.0033928 0.005180597 -0.005195105
v 0.002684079 0.005815873 -0.005282457
v 0.003323808 0.004848394 -0.006026516
v 0.002130564 0.005051212 -0.007042734
v 0.003076664 0.004614265 -0.006743777
v 0.001464862 0.006346571 -0.005444548
v 0.001545935 0.006044476 -0.006298006
v 0.0004514533 0.005405369 -0.007144675
v 0.0004513454 0.00619472 -0.006482563
v -0.0007250619 0.005405292 -0.007144775
v -0.0007251691 0.006191161 -0.006487143
v -0.0007252687 0.006585869 -0.005620997
v -3.557622E-05 0.006585913 -0.005620937
v -0.0007256013 0.006586709 -0.001707826
v -2.714336E-05 0.006586754 -0.001707766
v -0.000725953 0.006598828 0.002410538
v -3.51125E-05 0.006598873 0.002410598
v 0.0003951037 0.006585941 -0.005620901
v 0.0004111278 0.006587608 -0.001402876
v 0.0003967142 0.006598899 0.002410636
v -0.0007260048 0.00660064 0.003020325
v -3.631234E-05 0.006600683 0.003020384
v 0.0004133713 0.006585882 -0.00201267
v 0.0005512905 0.006585924 -0.003991003
v 0.0008777702 0.006585934 -0.0033743
v 0.0003943676 0.006600711 0.00302042
v 0.001496316 0.006401942 -0.004762881
v 0.001531435 0.006287024 -0.004099531
v 0.002501072 0.005988133 -0.004573357
v 0.003291646 0.005279744 -0.004899957
v -0.0007251984 -0.005365238 0.002718577
v -3.628373E-05 0.006202977 0.002995505
v -3.550589E-05 -0.005365193 0.002718637
v -0.0007259762 0.006202934 0.002995448
v -0.0007251698 -0.005769993 0.002693698
v -3.547728E-05 -0.005769948 0.002693758
v 0.000395174 -0.005365164 0.002718673
v 0.0003943962 0.006203005 0.002995541
v 0.0003943676 0.006600711 0.00302042
v -3.631234E-05 0.006600683 0.003020384
v 0.0003952026 -0.005769919 0.002693794
v -0.0007260048 0.00660064 0.003020325
v -0.0007247305 -0.006799959 -0.001684101
v -3.427267E-05 -0.005902756 0.002129154
v -2.627254E-05 -0.006799913 -0.001684041
v -0.0007251131 -0.005902802 0.002129094
v -0.0007244485 -0.007434733 -0.004510937
v -3.475606E-05 -0.007434688 -0.00451088
v -0.0007243234 -0.007137312 -0.006210964
v 0.0004521918 -0.007137234 -0.006210864
v -0.0007243258 -0.005918555 -0.007122674
v 0.0004521894 -0.005918478 -0.007122574
v 0.002182592 -0.00544795 -0.00704623
v 0.002489384 -0.006539012 -0.006027617
v 0.003190306 -0.004990489 -0.006724455
v 0.003266878 -0.005811782 -0.005786357
v 0.002293645 -0.006794149 -0.00499527
v 0.0003959239 -0.007434659 -0.004510841
v 0.0008786499 -0.007016051 -0.003283925
v 0.0004142451 -0.006866288 -0.001966307
v 0.001498044 -0.006831115 -0.00388056
v 0.003330147 -0.005882017 -0.004849744
v 0.003220444 -0.005913701 -0.004534707
v 0.002433513 -0.006646163 -0.004225867
v 0.0004119968 -0.006733401 -0.001401703
v 0.000397554 -0.005902728 0.00212919
v 0.0003952026 -0.005769919 0.002693794
v -3.547728E-05 -0.005769948 0.002693758
v -0.0007251698 -0.005769993 0.002693698
v 0.0003952026 -0.005769919 0.002693794
vt 0.3249 0.495
vt 0.297 0.5826
vt 0.297 0.4882
vt 0.3249 0.5826
vt 0.3249 0.4919
vt 0.297 0.4846
vt 0.297 0.586
vt 0.3249 0.586
vt 0.2926 0.5826
vt 0.2926 0.4872
vt 0.3293 0.495
vt 0.3293 0.5826
vt 0.2926 0.4835
vt 0.282 0.4865
vt 0.282 0.482
vt 0.2757 0.4834
vt 0.2757 0.4892
vt 0.3293 0.586
vt 0.2692 0.4847
vt 0.2692 0.492
vt 0.2636 0.4903
vt 0.2636 0.4963
vt 0.261 0.4904
vt 0.261 0.4964
vt 0.254 0.4908
vt 0.254 0.4968
vt 0.2476 0.4971
vt 0.2476 0.5025
vt 0.2406 0.4998
vt 0.2406 0.4935
vt 0.2302 0.4964
vt 0.2302 0.4899
vt 0.2232 0.4898
vt 0.2232 0.4964
vt 0.2232 0.5162
vt 0.2302 0.5163
vt 0.2232 0.5497
vt 0.2302 0.5497
vt 0.2406 0.5181
vt 0.2406 0.5488
vt 0.2476 0.5193
vt 0.2476 0.5477
vt 0.254 0.5472
vt 0.254 0.5156
vt 0.261 0.5159
vt 0.261 0.5486
vt 0.2636 0.5163
vt 0.2636 0.5499
vt 0.2692 0.5147
vt 0.2692 0.5527
vt 0.2757 0.5135
vt 0.2757 0.5544
vt 0.282 0.5124
vt 0.282 0.556
vt 0.2692 0.5754
vt 0.2757 0.5787
vt 0.2692 0.5808
vt 0.2757 0.5833
vt 0.2636 0.5752
vt 0.2636 0.5699
vt 0.261 0.5745
vt 0.261 0.5681
vt 0.254 0.5719
vt 0.254 0.566
vt 0.2476 0.5699
vt 0.2476 0.5646
vt 0.2406 0.5671
vt 0.2406 0.5733
vt 0.2302 0.5695
vt 0.2302 0.576
vt 0.2232 0.5761
vt 0.2232 0.5695
vt 0.282 0.5826
vt 0.282 0.586
vt 0.2926 0.586
vt 0.9568 0.8944
vt 0.9615 0.8885
vt 0.9566 0.888
vt 0.9617 0.8944
vt 0.9556 0.9007
vt 0.9609 0.8994
vt 0.9502 0.8885
vt 0.951 0.8941
vt 0.9473 0.9017
vt 0.946 0.8954
vt 0.9419 0.9028
vt 0.9407 0.8963
vt 0.94 0.8899
vt 0.9432 0.8897
vt 0.94 0.8648
vt 0.9433 0.8647
vt 0.9401 0.8384
vt 0.9433 0.8384
vt 0.9451 0.8895
vt 0.9452 0.8628
vt 0.9453 0.8384
vt 0.9401 0.8345
vt 0.9432 0.8346
vt 0.9452 0.8667
vt 0.9459 0.8792
vt 0.9474 0.8753
vt 0.9453 0.8346
vt 0.9504 0.8842
vt 0.9509 0.88
vt 0.9558 0.8833
vt 0.961 0.8864
vt 0.3361 0.495
vt 0.3319 0.5826
vt 0.3319 0.495
vt 0.3361 0.5826
vt 0.3361 0.4919
vt 0.3319 0.4919
vt 0.3293 0.495
vt 0.3293 0.5826
vt 0.3293 0.586
vt 0.3319 0.586
vt 0.3293 0.4919
vt 0.3361 0.586
vt 0.5388 0.917
vt 0.5426 0.8877
vt 0.543 0.917
vt 0.5385 0.8878
vt 0.5382 0.9388
vt 0.5423 0.9386
vt 0.5396 0.9524
vt 0.5463 0.9509
vt 0.5435 0.9636
vt 0.5502 0.9614
vt 0.5612 0.96
vt 0.5588 0.9492
vt 0.5684 0.9581
vt 0.5659 0.9488
vt 0.5572 0.9417
vt 0.5449 0.9383
vt 0.5485 0.9289
vt 0.5455 0.919
vt 0.5528 0.9332
vt 0.5664 0.9414
vt 0.5659 0.9389
vt 0.5587 0.9361
vt 0.5455 0.9147
vt 0.5455 0.8877
vt 0.5455 0.8834
vt 0.5426 0.8834
vt 0.5385 0.8835
vt 0.3293 0.4919
vn 0.9999974 0 0.002321189
vn 0.9999958 0 0.002901482
vn 0.9999973 0.0002901486 0.002321189
vn 0.9999958 0 0.002901482
vn 0.7826357 -0.605611 0.143933
vn 0.7830199 -0.6049439 0.1446465
vn 0.7829958 0.622027 0
vn 0.783058 0.6219488 0
vn 0.9931813 0.01223452 0.1159367
vn 0.9929208 -0.01077995 0.1182881
vn 0.7781921 -0.02702838 0.6274444
vn 0.7853198 -0.02694725 0.6185035
vn 0.7344742 -0.6377209 0.2320768
vn 0.9257328 -0.02084371 0.3776035
vn 0.7858467 -0.529355 0.3197317
vn 0.773335 -0.3563533 0.5243715
vn 0.7104924 -0.01350495 0.7035753
vn 0.66078 0.5144417 0.5465525
vn 0.6856357 -0.5178809 0.5115693
vn 0.5027798 -0.00625867 0.8643918
vn 0.829674 -0.282657 0.4814002
vn 0.8271012 -0.06442484 0.5583485
vn 0.9341474 -0.3518842 0.05954964
vn 0.9926744 -0.09119669 0.07925079
vn 0.9189789 -0.3479511 -0.1854931
vn 0.9887161 -0.1089486 -0.1028148
vn 0.7950318 -0.2094714 -0.5692505
vn 0.8388654 -0.06000872 -0.541021
vn 0.253045 -0.008302474 -0.9674188
vn 0.3892169 -0.2902274 -0.87423
vn 0.0357957 -0.001826311 -0.9993575
vn 0.1089935 -0.340468 -0.9339175
vn 0.00036537 -0.3167757 -0.9485003
vn 0 -0.001826147 -0.9999983
vn 0.0001824815 -0.001824815 -0.9999983
vn 0.03832095 -0.001459846 -0.9992644
vn 0 -0.002919696 -0.9999957
vn 0.04345302 -0.001460606 -0.9990544
vn 0.2328258 -0.001084592 -0.9725178
vn 0.2311137 0.003616804 -0.9729201
vn 0.816195 -0.006341842 -0.5777418
vn 0.8076615 0.0184572 -0.5893574
vn 0.992977 0.0168943 -0.117095
vn 0.9952345 -0.02007343 -0.09542149
vn 0.996074 -0.02064854 0.08608405
vn 0.9970537 0.01860392 0.07441567
vn 0.8372411 0.000314634 0.5468339
vn 0.8501921 0.03190566 0.5255049
vn 0.5327153 0.007605281 0.8462603
vn 0.57129 0.036305 0.8199449
vn 0.7175049 -0.01018436 0.6964791
vn 0.7475577 0.03514856 0.6632662
vn 0.9007062 -0.01559267 0.4341489
vn 0.908175 0.02375906 0.4179158
vn 0.5917923 0.05045233 0.8045102
vn 0.771519 0.03872116 0.6350269
vn 0.7487674 0.5204291 0.4104885
vn 0.7992358 0.4497698 0.3986596
vn 0.8586799 0.3298778 0.3922365
vn 0.8626639 0.0995501 0.4958839
vn 0.9408129 0.3368824 -0.03716496
vn 0.9962867 0.07735326 0.03780423
vn 0.9213312 0.3002498 -0.2469797
vn 0.9851842 0.0813428 -0.1509816
vn 0.7652296 0.2982002 -0.5705262
vn 0.8043459 0.06498477 -0.5905969
vn 0.2624989 0.007932657 -0.9648997
vn 0.4355756 0.3408546 -0.8331219
vn 0.04724443 -0.001459287 -0.9988822
vn 0.1128676 0.3633609 -0.9247863
vn 0.000547938 0.3404522 -0.9402616
vn 0.0001824813 -0.002189776 -0.9999976
vn 0.9377463 0.03063255 0.3459676
vn 0.7001562 0.6798211 0.2182305
vn 0.750439 0.6560044 0.08061897
vn 0.7213213 0.5673388 -0.3972685
vn 0.9408129 0.3368824 -0.03716496
vn 0.7194495 0.6800277 -0.1412618
vn 0.9213312 0.3002498 -0.2469797
vn 0.4355756 0.3408546 -0.8331219
vn 0.7652296 0.2982002 -0.5705262
vn 0.4672984 0.8687901 -0.163817
vn 0.4538342 0.7566246 -0.470695
vn 0.1128676 0.3633609 -0.9247863
vn 0.1615999 0.7852772 -0.5976832
vn 0.000547938 0.3404522 -0.9402616
vn 0 0.7953311 -0.6061752
vn -0.0005478183 0.9773079 -0.2118231
vn -0.0001826343 0.977459 -0.2111253
vn -0.0001826146 0.9999976 -0.002191375
vn 0.0003652292 0.9999976 -0.002191375
vn 0 0.9999957 -0.002921828
vn 0 0.9999957 -0.002921828
vn 0.1670176 0.9639403 -0.2071818
vn 0.7829958 0.622027 0
vn 0.783058 0.6219488 0
vn 0 0.6859798 0.7276207
vn 0 0.6859798 0.7276207
vn 0.750439 0.6560044 0.08061897
vn 0.1068247 0.9938711 -0.02843798
vn 0.7001562 0.6798211 0.2182305
vn 0.66078 0.5144417 0.5465525
vn 0.4208603 0.9066856 -0.02824566
vn 0.7992358 0.4497698 0.3986596
vn 0.7487674 0.5204291 0.4104885
vn 0.8586799 0.3298778 0.3922365
vn 0 -0.04269296 0.9990882
vn -0.0001827063 -0.04384951 0.9990381
vn 0 -0.04269296 0.9990882
vn -0.0001827063 -0.04384951 0.9990381
vn -0.0001826754 -0.6448444 0.764314
vn -0.0001826754 -0.6448444 0.764314
vn 0.7781921 -0.02702838 0.6274444
vn 0.7853198 -0.02694725 0.6185035
vn 0.66078 0.5144417 0.5465525
vn 0 0.6859798 0.7276207
vn 0.6799397 -0.4723652 0.5608505
vn 0 0.6859798 0.7276207
vn 0 -0.9745265 0.2242726
vn 0 -0.9735224 0.2285915
vn -0.001461338 -0.9743469 0.225046
vn 0 -0.9735224 0.2285915
vn 0.0001826318 -0.9997267 0.02337688
vn 0.0001826318 -0.9997267 0.02337688
vn 0 -0.8523597 -0.5229559
vn 0.2065506 -0.8414221 -0.4993452
vn 0.00036537 -0.3167757 -0.9485003
vn 0.1089935 -0.340468 -0.9339175
vn 0.3892169 -0.2902274 -0.87423
vn 0.6476556 -0.6634357 -0.3746935
vn 0.7950318 -0.2094714 -0.5692505
vn 0.9189789 -0.3479511 -0.1854931
vn 0.6376973 -0.7700878 -0.01751731
vn 0.2417328 -0.9698218 0.03179743
vn 0.7858467 -0.529355 0.3197317
vn 0.7344742 -0.6377209 0.2320768
vn 0.773335 -0.3563533 0.5243715
vn 0.9341474 -0.3518842 0.05954964
vn 0.829674 -0.282657 0.4814002
vn 0.6856357 -0.5178809 0.5115693
vn 0.7830199 -0.6049439 0.1446465
vn 0.7826357 -0.605611 0.143933
vn 0.6799397 -0.4723652 0.5608505
vn -0.0001826754 -0.6448444 0.764314
vn -0.0001826754 -0.6448444 0.764314
vn 0.6799397 -0.4723652 0.5608505
g Bolt_catch_LOD0_0
f 3/3/3 2/2/2 1/1/1
f 4/4/4 1/1/1 2/2/2
f 1/1/1 5/5/5 3/3/3
f 6/6/6 3/3/3 5/5/5
f 2/2/2 7/7/7 4/4/4
f 8/8/8 4/4/4 7/7/7
f 2/2/2 3/3/3 9/9/9
f 10/10/10 9/9/9 3/3/3
f 3/3/3 6/6/6 10/10/10
f 1/1/1 4/4/4 11/11/11
f 12/12/12 11/11/11 4/4/4
f 4/4/4 8/8/8 12/12/12
f 13/13/13 10/10/10 6/6/6
f 10/10/10 13/13/13 14/14/14
f 15/15/15 14/14/14 13/13/13
f 15/15/15 16/16/16 14/14/14
f 17/17/17 14/14/14 16/16/16
f 18/18/18 12/12/12 8/8/8
f 16/16/16 19/19/19 17/17/17
f 20/20/20 17/17/17 19/19/19
f 19/19/19 21/21/21 20/20/20
f 22/22/22 20/20/20 21/21/21
f 21/21/21 23/23/23 22/22/22
f 24/24/24 22/22/22 23/23/23
f 23/23/23 25/25/25 24/24/24
f 26/26/26 24/24/24 25/25/25
f 25/25/25 27/27/27 26/26/26
f 28/28/28 26/26/26 27/27/27
f 28/28/28 27/27/27 29/29/29
f 30/30/30 29/29/29 27/27/27
f 29/29/29 30/30/30 31/31/31
f 32/32/32 31/31/31 30/30/30
f 32/32/32 33/33/33 31/31/31
f 34/34/34 31/31/31 33/33/33
f 34/34/34 35/35/35 31/31/31
f 36/36/36 31/31/31 35/35/35
f 31/31/31 36/36/36 29/29/29
f 35/35/35 37/37/37 36/36/36
f 38/38/38 36/36/36 37/37/37
f 36/36/36 38/38/38 39/39/39
f 39/39/39 29/29/29 36/36/36
f 29/29/29 39/39/39 28/28/28
f 40/40/40 39/39/39 38/38/38
f 39/39/39 40/40/40 41/41/41
f 41/41/41 28/28/28 39/39/39
f 42/42/42 41/41/41 40/40/40
f 42/42/42 43/43/43 41/41/41
f 44/44/44 41/41/41 43/43/43
f 44/44/44 43/43/43 45/45/45
f 46/46/46 45/45/45 43/43/43
f 45/45/45 46/46/46 47/47/47
f 48/48/48 47/47/47 46/46/46
f 47/47/47 48/48/48 49/49/49
f 50/50/50 49/49/49 48/48/48
f 49/49/49 50/50/50 51/51/51
f 52/52/52 51/51/51 50/50/50
f 51/51/51 52/52/52 53/53/53
f 54/54/54 53/53/53 52/52/52
f 50/50/50 55/55/55 52/52/52
f 56/56/56 52/52/52 55/55/55
f 52/52/52 56/56/56 54/54/54
f 55/55/55 57/57/57 56/56/56
f 58/58/58 56/56/56 57/57/57
f 57/57/57 55/55/55 59/59/59
f 60/60/60 59/59/59 55/55/55
f 55/55/55 50/50/50 60/60/60
f 48/48/48 60/60/60 50/50/50
f 59/59/59 60/60/60 61/61/61
f 62/62/62 61/61/61 60/60/60
f 60/60/60 48/48/48 62/62/62
f 61/61/61 62/62/62 63/63/63
f 64/64/64 63/63/63 62/62/62
f 63/63/63 64/64/64 65/65/65
f 66/66/66 65/65/65 64/64/64
f 66/66/66 67/67/67 65/65/65
f 68/68/68 65/65/65 67/67/67
f 67/67/67 69/69/69 68/68/68
f 70/70/70 68/68/68 69/69/69
f 70/70/70 69/69/69 71/71/71
f 72/72/72 71/71/71 69/69/69
f 69/69/69 38/38/38 72/72/72
f 69/69/69 67/67/67 38/38/38
f 37/37/37 72/72/72 38/38/38
f 40/40/40 38/38/38 67/67/67
f 67/67/67 66/66/66 40/40/40
f 64/64/64 43/43/43 66/66/66
f 42/42/42 66/66/66 43/43/43
f 42/42/42 40/40/40 66/66/66
f 62/62/62 46/46/46 64/64/64
f 43/43/43 64/64/64 46/46/46
f 46/46/46 62/62/62 48/48/48
f 54/54/54 73/73/73 9/9/9
f 73/73/73 74/74/74 9/9/9
f 75/75/75 9/9/9 74/74/74
f 9/9/9 75/75/75 2/2/2
f 7/7/7 2/2/2 75/75/75
f 74/74/74 73/73/73 58/58/58
f 56/56/56 58/58/58 73/73/73
f 73/73/73 54/54/54 56/56/56
f 9/9/9 10/10/10 54/54/54
f 53/53/53 54/54/54 10/10/10
f 14/14/14 53/53/53 10/10/10
f 14/14/14 17/17/17 53/53/53
f 51/51/51 53/53/53 17/17/17
f 17/17/17 20/20/20 51/51/51
f 49/49/49 51/51/51 20/20/20
f 20/20/20 22/22/22 49/49/49
f 47/47/47 49/49/49 22/22/22
f 47/47/47 22/22/22 45/45/45
f 24/24/24 45/45/45 22/22/22
f 24/24/24 26/26/26 45/45/45
f 44/44/44 45/45/45 26/26/26
f 26/26/26 28/28/28 44/44/44
f 41/41/41 44/44/44 28/28/28
f 78/78/78 77/77/77 76/76/76
f 79/79/79 76/76/76 77/77/77
f 76/76/76 79/79/79 80/80/80
f 81/81/81 80/80/80 79/79/79
f 78/78/78 76/76/76 82/82/82
f 83/83/83 82/82/82 76/76/76
f 76/76/76 80/80/80 83/83/83
f 80/80/80 84/84/84 83/83/83
f 85/85/85 83/83/83 84/84/84
f 84/84/84 86/86/86 85/85/85
f 87/87/87 85/85/85 86/86/86
f 87/87/87 88/88/88 85/85/85
f 89/89/89 85/85/85 88/88/88
f 90/90/90 89/89/89 88/88/88
f 91/91/91 89/89/89 90/90/90
f 90/90/90 92/92/92 91/91/91
f 93/93/93 91/91/91 92/92/92
f 85/85/85 89/89/89 94/94/94
f 82/82/82 83/83/83 94/94/94
f 85/85/85 94/94/94 83/83/83
f 91/91/91 93/93/93 95/95/95
f 96/96/96 95/95/95 93/93/93
f 92/92/92 97/97/97 93/93/93
f 98/98/98 93/93/93 97/97/97
f 93/93/93 98/98/98 96/96/96
f 99/99/99 91/91/91 95/95/95
f 91/91/91 99/99/99 100/100/100
f 94/94/94 89/89/89 100/100/100
f 91/91/91 100/100/100 89/89/89
f 101/101/101 100/100/100 99/99/99
f 102/102/102 96/96/96 98/98/98
f 100/100/100 101/101/101 103/103/103
f 104/104/104 103/103/103 101/101/101
f 94/94/94 100/100/100 82/82/82
f 103/103/103 82/82/82 100/100/100
f 82/82/82 103/103/103 78/78/78
f 78/78/78 103/103/103 105/105/105
f 104/104/104 105/105/105 103/103/103
f 105/105/105 106/106/106 78/78/78
f 77/77/77 78/78/78 106/106/106
f 109/109/109 108/108/108 107/107/107
f 110/110/110 107/107/107 108/108/108
f 107/107/107 111/111/111 109/109/109
f 112/112/112 109/109/109 111/111/111
f 109/109/109 113/113/113 108/108/108
f 114/114/114 108/108/108 113/113/113
f 114/114/114 115/115/115 108/108/108
f 116/116/116 108/108/108 115/115/115
f 113/113/113 109/109/109 117/117/117
f 112/112/112 117/117/117 109/109/109
f 110/110/110 108/108/108 118/118/118
f 116/116/116 118/118/118 108/108/108
f 121/121/121 120/120/120 119/119/119
f 122/122/122 119/119/119 120/120/120
f 119/119/119 123/123/123 121/121/121
f 124/124/124 121/121/121 123/123/123
f 123/123/123 125/125/125 124/124/124
f 126/126/126 124/124/124 125/125/125
f 125/125/125 127/127/127 126/126/126
f 128/128/128 126/126/126 127/127/127
f 128/128/128 129/129/129 126/126/126
f 130/130/130 126/126/126 129/129/129
f 129/129/129 131/131/131 130/130/130
f 132/132/132 130/130/130 131/131/131
f 130/130/130 133/133/133 126/126/126
f 134/134/134 126/126/126 133/133/133
f 124/124/124 134/134/134 121/121/121
f 124/124/124 126/126/126 134/134/134
f 134/134/134 133/133/133 135/135/135
f 134/134/134 135/135/135 136/136/136
f 136/136/136 121/121/121 134/134/134
f 137/137/137 135/135/135 133/133/133
f 132/132/132 138/138/138 130/130/130
f 133/133/133 130/130/130 138/138/138
f 138/138/138 139/139/139 133/133/133
f 140/140/140 133/133/133 139/139/139
f 140/140/140 137/137/137 133/133/133
f 136/136/136 141/141/141 121/121/121
f 141/141/141 142/142/142 121/121/121
f 120/120/120 121/121/121 142/142/142
f 142/142/142 143/143/143 120/120/120
f 144/144/144 120/120/120 143/143/143
f 120/120/120 144/144/144 122/122/122
f 145/145/145 122/122/122 144/144/144
f 11/11/11 146/146/146 1/1/1
f 5/5/5 1/1/1 146/146/146
