g mount_keymod_vltor_6_inch_casv_rail_section_LOD1
v -0.008061831 0.004118671 -0.06737804
v -0.01058487 0.00128582 -0.06576122
v -0.008061831 -0.001579256 -0.06737801
v 0.008061852 0.004118671 -0.06737804
v 0.008061852 -0.001579256 -0.06737801
v 0.01058489 0.00128582 -0.06576122
v 0.008061852 0.004118671 -0.06737804
v -0.008061831 0.004118671 -0.06737804
v -0.008061831 -0.001579256 -0.06737801
v 0.008061852 -0.001579256 -0.06737801
v -0.008061831 -0.004107866 -0.06737801
v 0.008061852 -0.004107866 -0.06737801
v -0.01058487 0.00128582 -0.06576122
v -0.01058487 0.00128582 -3.372192E-05
v -0.008061831 -0.001579256 -3.372192E-05
v -0.008061831 -0.001579256 -0.06737801
v -0.008061831 -0.001579256 -0.06737801
v -0.008061831 -0.001579256 -3.372192E-05
v -0.008061831 -0.004107866 -3.372192E-05
v -0.008061831 -0.004107866 -0.06737801
v 0.008061852 -0.001579256 -3.372192E-05
v 0.01058488 0.00128582 -3.372192E-05
v 0.01058489 0.00128582 -0.06576122
v 0.008061852 -0.001579256 -0.06737801
v 0.008061852 -0.004107866 -0.06737801
v 0.008061852 -0.004107866 -3.372192E-05
v 0.008061852 -0.001579256 -3.372192E-05
v 0.008061852 -0.001579256 -0.06737801
v -0.008061831 -0.004107866 -0.06737801
v -0.008061831 -0.004107866 -3.372192E-05
v 0.008061852 -0.004107866 -3.372192E-05
v 0.008061852 -0.004107866 -0.06737801
v -0.008061831 0.004118681 -3.372192E-05
v -0.01058487 0.00128582 -3.372192E-05
v -0.01058487 0.00128582 -0.06576122
v -0.008061831 0.004118671 -0.06737804
v 0.01058489 0.00128582 -0.06576122
v 0.01058488 0.00128582 -3.372192E-05
v 0.008061852 0.004118681 -3.372192E-05
v 0.008061852 0.004118671 -0.06737804
v 0.008061852 0.004118671 -0.06737804
v 0.008061852 0.004118681 -3.372192E-05
v -0.008061831 0.004118681 -3.372192E-05
v -0.008061831 0.004118671 -0.06737804
v -0.008061831 0.004118671 0.06731056
v -0.008061831 -0.001579256 0.06731056
v -0.01058487 0.00128582 0.06569374
v 0.008061852 0.004118671 0.06731056
v 0.01058489 0.00128582 0.06569374
v 0.008061852 -0.001579256 0.06731056
v -0.008061831 -0.001579256 0.06731056
v -0.008061831 0.004118671 0.06731056
v 0.008061852 0.004118671 0.06731056
v 0.008061852 -0.001579256 0.06731056
v -0.008061831 -0.004107866 0.06731056
v 0.008061852 -0.004107866 0.06731056
v -0.008061831 -0.001579256 -3.372192E-05
v -0.01058487 0.00128582 -3.372192E-05
v -0.01058487 0.00128582 0.06569374
v -0.008061831 -0.001579256 0.06731056
v -0.008061831 -0.004107866 -3.372192E-05
v -0.008061831 -0.001579256 -3.372192E-05
v -0.008061831 -0.001579256 0.06731056
v -0.008061831 -0.004107866 0.06731056
v 0.008061852 -0.001579256 -3.372192E-05
v 0.008061852 -0.001579256 0.06731056
v 0.01058489 0.00128582 0.06569374
v 0.01058488 0.00128582 -3.372192E-05
v 0.008061852 -0.001579256 -3.372192E-05
v 0.008061852 -0.004107866 -3.372192E-05
v 0.008061852 -0.004107866 0.06731056
v 0.008061852 -0.001579256 0.06731056
v 0.008061852 -0.004107866 -3.372192E-05
v -0.008061831 -0.004107866 -3.372192E-05
v -0.008061831 -0.004107866 0.06731056
v 0.008061852 -0.004107866 0.06731056
v -0.008061831 0.004118681 -3.372192E-05
v -0.008061831 0.004118671 0.06731056
v -0.01058487 0.00128582 0.06569374
v -0.01058487 0.00128582 -3.372192E-05
v 0.008061852 0.004118681 -3.372192E-05
v 0.01058488 0.00128582 -3.372192E-05
v 0.01058489 0.00128582 0.06569374
v 0.008061852 0.004118671 0.06731056
v -0.008061831 0.004118681 -3.372192E-05
v 0.008061852 0.004118681 -3.372192E-05
v 0.008061852 0.004118671 0.06731056
v -0.008061831 0.004118671 0.06731056
vt 0.9179716 0.9978023
vt 0.9784818 0.9675628
vt 0.9179727 0.9369788
vt 0.5923911 0.9978005
vt 0.5923911 0.9369771
vt 0.5318805 0.9675611
vt 0.5923911 0.9978005
vt 0.9179716 0.9978023
vt 0.9179727 0.9369788
vt 0.5923911 0.9369771
vt 0.9179733 0.9099869
vt 0.5923927 0.9099853
vt 0.5427268 0.0255381
vt 0.5427268 0.6409927
vt 0.6103482 0.6409927
vt 0.6103482 0.01039893
vt 0.6103482 0.01039893
vt 0.6103482 0.6409927
vt 0.6551374 0.6409927
vt 0.6551374 0.01039893
vt 0.05511975 0.6409927
vt 0.1227414 0.6409927
vt 0.1227414 0.0255381
vt 0.05511975 0.01039893
vt 0.01033087 0.01039893
vt 0.01033087 0.6409927
vt 0.05511975 0.6409927
vt 0.05511975 0.01039893
vt 0.691889 0.0105968
vt 0.691889 0.6411905
vt 0.977486 0.6411905
vt 0.977486 0.0105968
vt 0.4755326 0.6409927
vt 0.5427268 0.6409927
vt 0.5427268 0.0255381
vt 0.4755326 0.01039866
vt 0.1227414 0.0255381
vt 0.1227414 0.6409927
vt 0.1899354 0.6409926
vt 0.1899354 0.01039866
vt 0.1899354 0.01039866
vt 0.1899354 0.6409926
vt 0.4755326 0.6409927
vt 0.4755326 0.01039866
vt 0.9179716 0.9978023
vt 0.9179727 0.9369788
vt 0.9784818 0.9675628
vt 0.5923911 0.9978005
vt 0.5318805 0.9675611
vt 0.5923911 0.9369771
vt 0.9179727 0.9369788
vt 0.9179716 0.9978023
vt 0.5923911 0.9978005
vt 0.5923911 0.9369771
vt 0.9179733 0.9099869
vt 0.5923927 0.9099853
vt 0.6103482 0.6409927
vt 0.5427268 0.6409927
vt 0.5427268 0.0255381
vt 0.6103482 0.01039893
vt 0.6551374 0.6409927
vt 0.6103482 0.6409927
vt 0.6103482 0.01039893
vt 0.6551374 0.01039893
vt 0.05511975 0.6409927
vt 0.05511975 0.01039893
vt 0.1227414 0.0255381
vt 0.1227414 0.6409927
vt 0.05511975 0.6409927
vt 0.01033087 0.6409927
vt 0.01033087 0.01039893
vt 0.05511975 0.01039893
vt 0.977486 0.6411905
vt 0.691889 0.6411905
vt 0.691889 0.0105968
vt 0.977486 0.0105968
vt 0.4755326 0.6409927
vt 0.4755326 0.01039866
vt 0.5427268 0.0255381
vt 0.5427268 0.6409927
vt 0.1899354 0.6409926
vt 0.1227414 0.6409927
vt 0.1227414 0.0255381
vt 0.1899354 0.01039866
vt 0.4755326 0.6409927
vt 0.1899354 0.6409926
vt 0.1899354 0.01039866
vt 0.4755326 0.01039866
vn -0.5395412 -5.636821E-06 -0.8419592
vn -0.5395411 -5.636821E-06 -0.8419592
vn -0.5395411 -5.636821E-06 -0.8419592
vn 0.5395412 -5.636821E-06 -0.8419592
vn 0.5395411 -5.636821E-06 -0.8419592
vn 0.5395411 -5.636821E-06 -0.8419592
vn 0 -6.694885E-06 -1
vn 0 -6.694885E-06 -1
vn 0 -6.694885E-06 -1
vn 0 -6.694885E-06 -1
vn 0 0 -1
vn 0 0 -1
vn -0.7504836 -0.6608891 0
vn -0.7504837 -0.660889 0
vn -0.7504837 -0.660889 0
vn -0.7504837 -0.660889 0
vn -1 0 0
vn -1 0 0
vn -1 0 0
vn -1 0 0
vn 0.7504839 -0.6608886 0
vn 0.7504839 -0.6608886 0
vn 0.7504839 -0.6608887 0
vn 0.7504839 -0.6608887 0
vn 1 0 0
vn 1 0 0
vn 1 0 0
vn 1 0 0
vn 0 -1 0
vn 0 -1 0
vn 0 -1 0
vn 0 -1 0
vn -0.7467621 0.6650912 0
vn -0.7467621 0.6650912 0
vn -0.7467621 0.6650912 0
vn -0.7467621 0.6650913 0
vn 0.7467625 0.6650909 0
vn 0.7467625 0.6650909 0
vn 0.7467625 0.6650909 0
vn 0.7467625 0.6650909 0
vn 0 1 -1.416117E-07
vn 0 1 0
vn 0 1 0
vn 0 1 -1.416117E-07
vn -0.5395457 0 0.8419563
vn -0.5395455 0 0.8419563
vn -0.5395457 0 0.8419563
vn 0.5395457 0 0.8419563
vn 0.5395457 0 0.8419563
vn 0.5395455 0 0.8419563
vn 0 0 1
vn 0 0 1
vn 0 0 1
vn 0 0 1
vn 0 0 1
vn 0 0 1
vn -0.7504837 -0.660889 0
vn -0.7504837 -0.660889 0
vn -0.7504836 -0.6608891 0
vn -0.7504836 -0.6608891 0
vn -1 0 0
vn -1 0 0
vn -1 0 0
vn -1 0 0
vn 0.7504839 -0.6608886 0
vn 0.7504839 -0.6608886 0
vn 0.7504839 -0.6608886 0
vn 0.7504839 -0.6608886 0
vn 1 0 0
vn 1 0 0
vn 1 0 0
vn 1 0 0
vn 0 -1 0
vn 0 -1 0
vn 0 -1 0
vn 0 -1 0
vn -0.7467621 0.6650912 0
vn -0.7467622 0.6650912 0
vn -0.7467622 0.6650912 0
vn -0.7467621 0.6650912 0
vn 0.7467625 0.6650909 0
vn 0.7467625 0.6650909 0
vn 0.7467625 0.6650909 0
vn 0.7467624 0.665091 0
vn 0 1 0
vn 0 1 0
vn 0 1 1.416118E-07
vn 0 1 1.416118E-07
g mount_keymod_vltor_6_inch_casv_rail_section_LOD1_0
f 3/3/3 2/2/2 1/1/1
f 6/6/6 5/5/5 4/4/4
f 9/9/9 8/8/8 7/7/7
f 10/10/10 9/9/9 7/7/7
f 11/11/11 9/9/9 10/10/10
f 12/12/12 11/11/11 10/10/10
f 15/15/15 14/14/14 13/13/13
f 16/16/16 15/15/15 13/13/13
f 19/19/19 18/18/18 17/17/17
f 20/20/20 19/19/19 17/17/17
f 23/23/23 22/22/22 21/21/21
f 24/24/24 23/23/23 21/21/21
f 27/27/27 26/26/26 25/25/25
f 28/28/28 27/27/27 25/25/25
f 31/31/31 30/30/30 29/29/29
f 32/32/32 31/31/31 29/29/29
f 35/35/35 34/34/34 33/33/33
f 36/36/36 35/35/35 33/33/33
f 39/39/39 38/38/38 37/37/37
f 40/40/40 39/39/39 37/37/37
f 43/43/43 42/42/42 41/41/41
f 44/44/44 43/43/43 41/41/41
f 47/47/47 46/46/46 45/45/45
f 50/50/50 49/49/49 48/48/48
f 53/53/53 52/52/52 51/51/51
f 54/54/54 53/53/53 51/51/51
f 51/51/51 55/55/55 54/54/54
f 55/55/55 56/56/56 54/54/54
f 59/59/59 58/58/58 57/57/57
f 60/60/60 59/59/59 57/57/57
f 63/63/63 62/62/62 61/61/61
f 64/64/64 63/63/63 61/61/61
f 67/67/67 66/66/66 65/65/65
f 68/68/68 67/67/67 65/65/65
f 71/71/71 70/70/70 69/69/69
f 72/72/72 71/71/71 69/69/69
f 75/75/75 74/74/74 73/73/73
f 76/76/76 75/75/75 73/73/73
f 79/79/79 78/78/78 77/77/77
f 80/80/80 79/79/79 77/77/77
f 83/83/83 82/82/82 81/81/81
f 84/84/84 83/83/83 81/81/81
f 87/87/87 86/86/86 85/85/85
f 88/88/88 87/87/87 85/85/85
