g mount_mp9_bt_mp9_bottom_rail_LOD1
v 0.01060001 0.03152302 -0.009042313
v 0.008660691 0.02902718 -0.009042332
v 0.01060001 0.02902718 -0.007485459
v 0.007835004 0.02581539 -0.009042332
v 0.01060001 0.02581539 -0.006272328
v 0.007834994 -0.04391163 -0.00904232
v 0.0106 -0.04467249 -0.006272316
v 0.009049808 -0.04579376 -0.007988121
v 0.01060001 0.04643964 -0.009042313
v 0.01060001 0.03152302 -0.009042313
v 0.01060001 0.03863763 -0.003502304
v 0.01060001 0.04406282 -0.003502304
v 0.01060001 0.03814563 -0.002610924
v 0.01059989 0.03152306 -0.003502304
v 0.01059978 0.03152307 -0.001456139
v 0.01060001 0.02902718 -0.007485459
v 0.01060001 0.02902718 -0.005059178
v 0.01060001 0.02581539 -0.006272328
v 0.007835002 0.00832737 0.002542107
v 0.007835004 0.02581896 -0.0004732633
v 0.007835004 0.02581896 -0.003502324
v 0.008827579 0.02903233 -0.001026986
v 0.008827579 0.02903233 -0.003502324
v 0.01059978 0.03152307 -0.001456139
v 0.01059989 0.03152306 -0.003502304
v 0.007835001 0.004125957 -0.0004935265
v 0.007835001 -0.001744938 -0.00136466
v 0.007834993 -0.04571943 -0.003502321
v 0.007834994 -0.0430673 0.003964576
v 0.007835 -0.007057895 0.001337891
v 0.007834996 -0.03281793 0.008709726
v 0.007835 -0.01001713 0.005574918
v 0.007834996 -0.02942627 0.009042444
v 0.01060001 0.02581539 -0.006272328
v 0.007835004 0.02581896 -0.003502324
v 0.01060001 0.02902718 -0.005059178
v 0.008827579 0.02903233 -0.003502324
v 0.01059989 0.03152306 -0.003502304
v 0.0106 -0.04467249 -0.006272316
v 0.008679825 -0.046017 -0.004255514
v 0.007834993 -0.04571943 -0.003502321
v 0.01060001 0.04643964 -0.009042313
v -0.0106 0.04643964 -0.009042313
v 0.01060001 0.03152302 -0.009042313
v -0.0106 0.03152302 -0.009042313
v -0.008660685 0.02902718 -0.009042332
v 0.008660691 0.02902718 -0.009042332
v -0.007834999 0.02581539 -0.009042332
v 0.007835004 0.02581539 -0.009042332
v -0.007835009 -0.04391163 -0.00904232
v 0.007834994 -0.04391163 -0.00904232
v 0.01060001 0.04406282 -0.003502304
v -0.0106 0.04406282 -0.003502304
v 0.01060001 0.04643964 -0.009042313
v -0.0106 0.04643964 -0.009042313
v 0.01060001 0.03863763 -0.003502304
v -0.0106 0.03863763 -0.003502304
v 0.01060001 0.04406282 -0.003502304
v -0.0106 0.04406282 -0.003502304
v 0.01060001 0.03814563 -0.002610924
v -0.0106 0.03814563 -0.002610924
v 0.01060001 0.03863763 -0.003502304
v -0.0106 0.03863763 -0.003502304
v 0.007835002 0.00832737 0.002542107
v -0.007835002 0.00832737 0.002542107
v 0.007835004 0.02581896 -0.0004732633
v -0.007834999 0.02581896 -0.0004732633
v -0.008827574 0.02903233 -0.001026986
v 0.008827579 0.02903233 -0.001026986
v -0.01059977 0.03152307 -0.001456139
v 0.01059978 0.03152307 -0.001456139
v -0.0106 0.03814563 -0.002610924
v 0.01060001 0.03814563 -0.002610924
v 0.007835001 0.004125957 -0.0004935265
v -0.007835003 0.004125957 -0.0004935265
v 0.007835002 0.00832737 0.002542107
v -0.007835002 0.00832737 0.002542107
v -0.007835003 -0.001744938 -0.00136466
v 0.007835001 -0.001744938 -0.00136466
v -0.007835004 -0.007057895 0.001337891
v 0.007835 -0.007057895 0.001337891
v -0.007835004 -0.01001713 0.005574918
v 0.007835 -0.01001713 0.005574918
v 0.007834996 -0.02942627 0.009042444
v -0.007835007 -0.02942627 0.009042444
v 0.007835 -0.01001713 0.005574918
v -0.007835004 -0.01001713 0.005574918
v -0.007835007 -0.03281793 0.008709726
v 0.007834996 -0.03281793 0.008709726
v -0.007835009 -0.0430673 0.003964576
v 0.007834994 -0.0430673 0.003964576
v 0.007834993 -0.04571943 -0.003502321
v -0.00783501 -0.04571943 -0.003502321
v 0.007834994 -0.0430673 0.003964576
v -0.007835009 -0.0430673 0.003964576
v -0.008679842 -0.046017 -0.004255514
v 0.008679825 -0.046017 -0.004255514
v 0.00825741 -0.04643965 -0.006272316
v -0.008257425 -0.04643965 -0.006272316
v 0.009049808 -0.04579376 -0.007988121
v -0.009049824 -0.04579376 -0.007988121
v 0.007834994 -0.04391163 -0.00904232
v -0.007835009 -0.04391163 -0.00904232
v 0.0106 -0.04467249 -0.006272316
v 0.00825741 -0.04643965 -0.006272316
v 0.008679825 -0.046017 -0.004255514
v 0.009049808 -0.04579376 -0.007988121
v -0.0106 0.03152302 -0.009042313
v -0.0106 0.02902718 -0.007485459
v -0.008660685 0.02902718 -0.009042332
v -0.007834999 0.02581539 -0.009042332
v -0.0106 0.02581539 -0.006272328
v -0.007835009 -0.04391163 -0.00904232
v -0.01060001 -0.04467249 -0.006272316
v -0.009049824 -0.04579376 -0.007988121
v -0.0106 0.04643964 -0.009042313
v -0.0106 0.03863763 -0.003502304
v -0.0106 0.03152302 -0.009042313
v -0.0106 0.04406282 -0.003502304
v -0.0106 0.03814563 -0.002610924
v -0.01059989 0.03152306 -0.003502304
v -0.01059977 0.03152307 -0.001456139
v -0.0106 0.02902718 -0.007485459
v -0.0106 0.02902718 -0.005059178
v -0.0106 0.02581539 -0.006272328
v -0.008827574 0.02903233 -0.001026986
v -0.008827574 0.02903233 -0.003502324
v -0.01059977 0.03152307 -0.001456139
v -0.01059989 0.03152306 -0.003502304
v -0.007834999 0.02581896 -0.003502324
v -0.007834999 0.02581896 -0.0004732633
v -0.00783501 -0.04571943 -0.003502321
v -0.007835003 -0.001744938 -0.00136466
v -0.007835004 -0.007057895 0.001337891
v -0.007835009 -0.0430673 0.003964576
v -0.007835003 0.004125957 -0.0004935265
v -0.007835002 0.00832737 0.002542107
v -0.007835007 -0.03281793 0.008709726
v -0.007835004 -0.01001713 0.005574918
v -0.007835007 -0.02942627 0.009042444
v -0.008827574 0.02903233 -0.003502324
v -0.007834999 0.02581896 -0.003502324
v -0.0106 0.02902718 -0.005059178
v -0.0106 0.02581539 -0.006272328
v -0.01059989 0.03152306 -0.003502304
v -0.008679842 -0.046017 -0.004255514
v -0.00783501 -0.04571943 -0.003502321
v -0.01060001 -0.04467249 -0.006272316
v -0.01060001 -0.04467249 -0.006272316
v -0.008679842 -0.046017 -0.004255514
v -0.008257425 -0.04643965 -0.006272316
v -0.009049824 -0.04579376 -0.007988121
vt 0.8146546 0.8155622
vt 0.8294038 0.7869469
vt 0.8040797 0.7875293
vt 0.8351966 0.75367
vt 0.7953334 0.7536716
vt 0.8351706 0.04347137
vt 0.7953058 0.03572294
vt 0.8188376 0.02425882
vt 0.912287 0.5152265
vt 0.9122908 0.674825
vt 0.9715636 0.598702
vt 0.9715621 0.5406557
vt 0.9811006 0.603966
vt 0.9715648 0.6748227
vt 0.9934578 0.6748224
vt 0.9289515 0.7015284
vt 0.9549077 0.7015278
vt 0.9419286 0.7358921
vt 0.5947055 0.5953797
vt 0.6262509 0.7826491
vt 0.6586593 0.7827742
vt 0.6320375 0.818656
vt 0.6585214 0.8187574
vt 0.6365037 0.8513793
vt 0.658396 0.8514639
vt 0.6273565 0.5505517
vt 0.6369178 0.4877736
vt 0.6615912 0.01736689
vt 0.5815926 0.04543671
vt 0.6082202 0.4308178
vt 0.5304028 0.1549027
vt 0.5630088 0.3989831
vt 0.5267042 0.1911774
vt 0.6773117 0.08027929
vt 0.7191893 0.08024746
vt 0.6865031 0.04471499
vt 0.7117404 0.04504365
vt 0.6979373 0.01539218
vt 0.6771983 0.8344401
vt 0.7069898 0.8488294
vt 0.7191021 0.8456478
vt 0.2388261 0.01279831
vt 0.01080462 0.01279938
vt 0.2388264 0.1732373
vt 0.01080476 0.1732379
vt 0.03166479 0.2000821
vt 0.2179685 0.2000821
vt 0.0405449 0.2346271
vt 0.2090869 0.2346267
vt 0.04054573 0.9845903
vt 0.2090873 0.9845906
vt 0.9193103 0.03117603
vt 0.9193463 0.2433168
vt 0.9796334 0.03116584
vt 0.9796693 0.2433062
vt 0.7861887 0.9331453
vt 0.5740494 0.9331822
vt 0.7861983 0.9874343
vt 0.5740576 0.9874701
vt 0.4554074 0.226662
vt 0.4553704 0.01452231
vt 0.4452193 0.2266637
vt 0.4451829 0.01452428
vt 0.4232113 0.01327103
vt 0.2546697 0.01336563
vt 0.4233184 0.2041809
vt 0.2547762 0.2042754
vt 0.2441199 0.2393527
vt 0.4340139 0.2392461
vt 0.2250741 0.2665477
vt 0.4530935 0.26642
vt 0.225112 0.338853
vt 0.4531367 0.3387249
vt 0.2604222 0.4089272
vt 0.4289636 0.4086074
vt 0.2603165 0.3531765
vt 0.4288582 0.352857
vt 0.4290844 0.4724445
vt 0.2605429 0.4727638
vt 0.4292062 0.536557
vt 0.2606647 0.5368762
vt 0.4293118 0.5921437
vt 0.2607704 0.592463
vt 0.4314528 0.7740788
vt 0.2629113 0.7740908
vt 0.4314676 0.9861438
vt 0.2629255 0.9861548
vt 0.2629088 0.7374357
vt 0.4314502 0.7374243
vt 0.2629003 0.6159554
vt 0.4314418 0.6159433
vt 0.9817425 0.906883
vt 0.8140841 0.9068978
vt 0.9817498 0.9916633
vt 0.8140914 0.991678
vt 0.8050443 0.8982339
vt 0.9907807 0.8982177
vt 0.9862592 0.8761714
vt 0.8095618 0.8761865
vt 0.9947357 0.8565546
vt 0.8010819 0.8565716
vt 0.9817359 0.8334746
vt 0.8140776 0.8334892
vt 0.5879792 0.4635555
vt 0.5646239 0.4845366
vt 0.5837663 0.4963722
vt 0.5604832 0.4635727
vt 0.8731183 0.814742
vt 0.8836858 0.7867059
vt 0.858362 0.7861289
vt 0.8525596 0.7528546
vt 0.8924236 0.7528462
vt 0.852406 0.04265356
vt 0.8922691 0.03489569
vt 0.8687345 0.02343687
vt 0.9845693 0.4916657
vt 0.9252943 0.4081895
vt 0.9845693 0.3320675
vt 0.9252945 0.4662356
vt 0.9157577 0.4029255
vt 0.9252945 0.3320685
vt 0.9034017 0.3320684
vt 0.9679114 0.305364
vt 0.9419519 0.305364
vt 0.9549319 0.271
vt 0.4997724 0.1894934
vt 0.4732883 0.189298
vt 0.4954223 0.1567538
vt 0.4735301 0.1565908
vt 0.4730224 0.2252797
vt 0.5054306 0.22552
vt 0.4673673 0.9906723
vt 0.4937142 0.5203566
vt 0.5222091 0.5774143
vt 0.5474653 0.9628875
vt 0.5034984 0.4576124
vt 0.5363092 0.4129014
vt 0.5990441 0.853604
vt 0.5673072 0.6094099
vt 0.6028717 0.8173429
vt 0.7439814 0.04628587
vt 0.736527 0.08148903
vt 0.7692193 0.04596406
vt 0.7784016 0.08153039
vt 0.7577919 0.01663876
vt 0.7485521 0.8500754
vt 0.7364432 0.8468901
vt 0.7783475 0.8356923
vt 0.5604972 0.5161861
vt 0.5646997 0.5490047
vt 0.5838464 0.5371763
vt 0.5879936 0.5162127
vn 0.5629554 -0.4374216 -0.7012443
vn 0.603335 -0.2667769 -0.751543
vn 0.6226931 -0.3072698 -0.7196099
vn 0.6889987 -0.1031779 -0.7173808
vn 0.7027478 -0.1186303 -0.7014787
vn 0.7103725 0.02022102 -0.7035353
vn 0.7107465 0.02330282 -0.7030621
vn 0.7158155 0.07304776 -0.6944581
vn 1 -1.880004E-07 0
vn 1 -1.260889E-06 1.449002E-05
vn 1 -1.511105E-07 0
vn 1 -2.197327E-07 0
vn 1 -9.210273E-06 1.344083E-05
vn 1 -1.02084E-05 3.060317E-05
vn 1 -2.498842E-05 5.592969E-05
vn 1 1.36096E-05 9.707737E-06
vn 1 2.910213E-05 0
vn 1 -3.711622E-07 0
vn 1 -1.617933E-07 0
vn 0.9910628 -0.1333964 0
vn 0.9888015 -0.1492365 0
vn 0.9031996 -0.4292209 0
vn 0.8964927 -0.4430585 9.693931E-06
vn 0.8147895 -0.5797569 2.923671E-05
vn 0.8147811 -0.5797688 5.097461E-05
vn 1 -1.399329E-07 1.797108E-07
vn 1 -1.550219E-07 0
vn 1 -1.614329E-07 0
vn 1 -1.589969E-07 0
vn 1 -1.442436E-07 1.05262E-07
vn 1 -1.547984E-07 0
vn 1 -1.734138E-07 -1.204846E-07
vn 1 -1.678728E-07 0
vn 0.7026759 -0.1185787 0.7015595
vn 0.6949542 -0.1100331 0.7105853
vn 0.6424431 -0.3108476 0.7004575
vn 0.631465 -0.2882006 0.7198558
vn 0.5967826 -0.4246542 0.6808225
vn 0.723382 0.001242875 0.690447
vn 0.6932777 0.0005970958 0.7206703
vn 0.6654645 0 0.7464294
vn 0 0 -1
vn 0 0 -1
vn 0 2.803699E-06 -1
vn 0 2.803702E-06 -1
vn 0 4.802755E-06 -1
vn 0 4.802756E-06 -1
vn 0 0 -1
vn 0 0 -1
vn 0 -1.709657E-07 -1
vn 0 -1.709657E-07 -1
vn 0 0.9189934 0.3942731
vn 0 0.9189932 0.3942731
vn 0 0.9189932 0.3942731
vn 0 0.9189934 0.3942731
vn 0 0 1
vn 0 0 1
vn 0 0 1
vn 0 0 1
vn 0 0.8754926 0.4832314
vn 0 0.8754928 0.4832313
vn 0 0.8754928 0.4832313
vn 0 0.8754926 0.4832314
vn 0 0.1698839 0.985464
vn 0 0.1698839 0.985464
vn 0 0.1698468 0.9854705
vn 0 0.1698468 0.9854704
vn 0 0.1698039 0.9854778
vn 0 0.1698039 0.9854778
vn 0 0.171028 0.9852661
vn 0 0.171028 0.9852661
vn 0 0.1717796 0.9851354
vn 0 0.1717796 0.9851354
vn 0 -0.3769453 0.9262354
vn 0 -0.3769453 0.9262356
vn 0 -0.5856528 0.810562
vn 0 -0.5856528 0.810562
vn 0 0.1609242 0.9869667
vn 0 0.1609241 0.9869667
vn 0 0.6562557 0.7545386
vn 0 0.6562556 0.7545386
vn 0 0.8198393 0.5725937
vn 0 0.8198393 0.5725937
vn 0 0.03949143 0.9992199
vn 0 0.03949142 0.9992199
vn 0 0.1758697 0.9844134
vn 0 0.1758697 0.9844134
vn 0 -0.2625718 0.9649124
vn 0 -0.2625718 0.9649124
vn 0 -0.4201289 0.9074645
vn 0 -0.4201289 0.9074645
vn 0 -0.9350697 0.3544636
vn 0 -0.9350697 0.3544636
vn 0 -0.9423249 0.3346997
vn 0 -0.9423249 0.3346996
vn 0 -0.9644821 0.2641483
vn 0 -0.9644821 0.2641483
vn 0 -0.9957072 -0.09255931
vn 0 -0.9957072 -0.09255933
vn 0 -0.76941 -0.6387552
vn 0 -0.7694098 -0.6387554
vn 0 -0.4886754 -0.8724657
vn 0 -0.4886753 -0.8724657
vn 0.6022024 -0.7982935 0.008933726
vn 0.6021769 -0.7982597 0.01282419
vn 0.6017168 -0.7976497 0.04113026
vn 0.6020755 -0.7981252 -0.02238822
vn -0.5629557 -0.4374216 -0.7012442
vn -0.6226933 -0.3072697 -0.7196099
vn -0.6033351 -0.2667769 -0.7515429
vn -0.6889986 -0.1031777 -0.7173809
vn -0.7027477 -0.1186301 -0.7014788
vn -0.7103724 0.02022127 -0.7035354
vn -0.7107464 0.02330306 -0.7030622
vn -0.7158155 0.07304806 -0.6944582
vn -1 1.880004E-07 0
vn -1 1.511105E-07 0
vn -1 -1.057669E-06 1.450056E-05
vn -1 2.197327E-07 0
vn -1 -8.923169E-06 1.351591E-05
vn -1 -9.936175E-06 3.060317E-05
vn -1 -2.462841E-05 5.592969E-05
vn -1 1.387859E-05 9.707737E-06
vn -1 2.937113E-05 0
vn -1 3.711622E-07 0
vn -0.9031997 -0.4292206 0
vn -0.8964927 -0.4430583 9.695129E-06
vn -0.8147897 -0.5797567 2.924031E-05
vn -0.8147812 -0.5797685 5.09809E-05
vn -0.9888016 -0.1492364 0
vn -0.9910628 -0.1333964 0
vn -1 1.520899E-07 0
vn -1 1.354536E-07 5.480182E-07
vn -1 1.672488E-07 0
vn -1 1.512222E-07 0
vn -1 1.651958E-07 -3.608974E-07
vn -1 1.648884E-07 0
vn -1 1.547984E-07 0
vn -1 1.734138E-07 1.204846E-07
vn -1 1.678728E-07 0
vn -0.6314653 -0.2882007 0.7198555
vn -0.6947657 -0.1095665 0.7108416
vn -0.6424432 -0.3108474 0.7004574
vn -0.7029427 -0.1180949 0.7013738
vn -0.5967829 -0.4246541 0.6808223
vn -0.6931044 2.068728E-05 0.7208372
vn -0.6654645 1.299745E-07 0.7464294
vn -0.7242442 2.27745E-07 0.6895436
vn -0.6022024 -0.7982935 0.008933726
vn -0.6017168 -0.7976497 0.04113026
vn -0.6021769 -0.7982597 0.01282419
vn -0.6020755 -0.7981252 -0.02238822
g mount_mp9_bt_mp9_bottom_rail_LOD1_0
f 3/3/3 2/2/2 1/1/1
f 3/3/3 4/4/4 2/2/2
f 3/3/3 5/5/5 4/4/4
f 6/6/6 4/4/4 5/5/5
f 6/6/6 5/5/5 7/7/7
f 8/8/8 6/6/6 7/7/7
f 11/11/11 10/10/10 9/9/9
f 11/11/11 9/9/9 12/12/12
f 13/13/13 10/10/10 11/11/11
f 14/14/14 10/10/10 13/13/13
f 15/15/15 14/14/14 13/13/13
f 14/14/14 16/16/16 10/10/10
f 14/14/14 17/17/17 16/16/16
f 17/17/17 18/18/18 16/16/16
f 21/21/21 20/20/20 19/19/19
f 21/21/21 22/22/22 20/20/20
f 21/21/21 23/23/23 22/22/22
f 23/23/23 24/24/24 22/22/22
f 23/23/23 25/25/25 24/24/24
f 26/26/26 21/21/21 19/19/19
f 27/27/27 21/21/21 26/26/26
f 27/27/27 28/28/28 21/21/21
f 29/29/29 28/28/28 27/27/27
f 30/30/30 29/29/29 27/27/27
f 30/30/30 31/31/31 29/29/29
f 32/32/32 31/31/31 30/30/30
f 32/32/32 33/33/33 31/31/31
f 36/36/36 35/35/35 34/34/34
f 36/36/36 37/37/37 35/35/35
f 37/37/37 36/36/36 38/38/38
f 39/39/39 34/34/34 35/35/35
f 40/40/40 39/39/39 35/35/35
f 41/41/41 40/40/40 35/35/35
f 44/44/44 43/43/43 42/42/42
f 44/44/44 45/45/45 43/43/43
f 44/44/44 46/46/46 45/45/45
f 44/44/44 47/47/47 46/46/46
f 47/47/47 48/48/48 46/46/46
f 47/47/47 49/49/49 48/48/48
f 49/49/49 50/50/50 48/48/48
f 49/49/49 51/51/51 50/50/50
f 54/54/54 53/53/53 52/52/52
f 54/54/54 55/55/55 53/53/53
f 58/58/58 57/57/57 56/56/56
f 58/58/58 59/59/59 57/57/57
f 62/62/62 61/61/61 60/60/60
f 62/62/62 63/63/63 61/61/61
f 66/66/66 65/65/65 64/64/64
f 66/66/66 67/67/67 65/65/65
f 66/66/66 68/68/68 67/67/67
f 66/66/66 69/69/69 68/68/68
f 69/69/69 70/70/70 68/68/68
f 69/69/69 71/71/71 70/70/70
f 71/71/71 72/72/72 70/70/70
f 71/71/71 73/73/73 72/72/72
f 76/76/76 75/75/75 74/74/74
f 76/76/76 77/77/77 75/75/75
f 74/74/74 75/75/75 78/78/78
f 74/74/74 78/78/78 79/79/79
f 79/79/79 78/78/78 80/80/80
f 79/79/79 80/80/80 81/81/81
f 81/81/81 80/80/80 82/82/82
f 81/81/81 82/82/82 83/83/83
f 86/86/86 85/85/85 84/84/84
f 86/86/86 87/87/87 85/85/85
f 84/84/84 85/85/85 88/88/88
f 84/84/84 88/88/88 89/89/89
f 89/89/89 88/88/88 90/90/90
f 89/89/89 90/90/90 91/91/91
f 94/94/94 93/93/93 92/92/92
f 94/94/94 95/95/95 93/93/93
f 92/92/92 93/93/93 96/96/96
f 92/92/92 96/96/96 97/97/97
f 96/96/96 98/98/98 97/97/97
f 96/96/96 99/99/99 98/98/98
f 99/99/99 100/100/100 98/98/98
f 99/99/99 101/101/101 100/100/100
f 101/101/101 102/102/102 100/100/100
f 101/101/101 103/103/103 102/102/102
f 106/106/106 105/105/105 104/104/104
f 105/105/105 107/107/107 104/104/104
f 110/110/110 109/109/109 108/108/108
f 111/111/111 109/109/109 110/110/110
f 111/111/111 112/112/112 109/109/109
f 113/113/113 112/112/112 111/111/111
f 113/113/113 114/114/114 112/112/112
f 113/113/113 115/115/115 114/114/114
f 118/118/118 117/117/117 116/116/116
f 116/116/116 117/117/117 119/119/119
f 118/118/118 120/120/120 117/117/117
f 118/118/118 121/121/121 120/120/120
f 121/121/121 122/122/122 120/120/120
f 123/123/123 121/121/121 118/118/118
f 123/123/123 124/124/124 121/121/121
f 125/125/125 124/124/124 123/123/123
f 128/128/128 127/127/127 126/126/126
f 128/128/128 129/129/129 127/127/127
f 126/126/126 127/127/127 130/130/130
f 126/126/126 130/130/130 131/131/131
f 132/132/132 131/131/131 130/130/130
f 133/133/133 131/131/131 132/132/132
f 133/133/133 132/132/132 134/134/134
f 134/134/134 132/132/132 135/135/135
f 136/136/136 131/131/131 133/133/133
f 131/131/131 136/136/136 137/137/137
f 138/138/138 134/134/134 135/135/135
f 138/138/138 139/139/139 134/134/134
f 138/138/138 140/140/140 139/139/139
f 143/143/143 142/142/142 141/141/141
f 143/143/143 144/144/144 142/142/142
f 143/143/143 141/141/141 145/145/145
f 142/142/142 144/144/144 146/146/146
f 147/147/147 142/142/142 146/146/146
f 144/144/144 148/148/148 146/146/146
f 151/151/151 150/150/150 149/149/149
f 152/152/152 151/151/151 149/149/149
