g mount_keymod_vltor_4_inch_casv_rail_section_LOD1
v -0.01058486 0.04573854 0.005334473
v -0.01058489 -0.04573854 0.005334461
v -0.00806186 -0.04735535 0.002469386
v -0.008061823 0.04735535 0.002469399
v -0.00806186 -0.04735535 0.002469386
v -0.00806186 -0.04735535 -5.922604E-05
v -0.008061823 0.04735535 -5.921392E-05
v -0.008061823 0.04735535 0.002469399
v -0.008061823 0.04735535 0.008167331
v -0.01058486 0.04573854 0.005334473
v -0.008061823 0.04735535 0.002469399
v 0.008061823 -0.04735535 0.002469386
v 0.01058486 -0.04573854 0.005334461
v 0.01058489 0.04573854 0.005334473
v 0.00806186 0.04735535 0.002469399
v 0.00806186 0.04735535 -5.921392E-05
v 0.008061823 -0.04735535 -5.922604E-05
v 0.008061823 -0.04735535 0.002469386
v 0.00806186 0.04735535 0.002469399
v 0.00806186 0.04735535 0.008167331
v 0.00806186 0.04735535 0.002469399
v 0.01058489 0.04573854 0.005334473
v -0.008061823 0.04735535 -5.921392E-05
v -0.00806186 -0.04735535 -5.922604E-05
v 0.008061823 -0.04735535 -5.922604E-05
v 0.00806186 0.04735535 -5.921392E-05
v -0.008061823 0.04735535 0.002469399
v 0.00806186 0.04735535 0.002469399
v 0.00806186 0.04735535 0.008167331
v -0.008061823 0.04735535 0.008167331
v 0.00806186 0.04735535 -5.921392E-05
v -0.008061823 0.04735535 -5.921392E-05
v -0.00806186 -0.04735539 0.008167319
v -0.00806186 -0.04735535 0.002469386
v -0.01058489 -0.04573854 0.005334461
v 0.008061823 -0.04735539 0.008167319
v 0.01058486 -0.04573854 0.005334461
v 0.008061823 -0.04735535 0.002469386
v 0.008061823 -0.04735539 0.008167319
v 0.008061823 -0.04735535 0.002469386
v -0.00806186 -0.04735535 0.002469386
v -0.00806186 -0.04735539 0.008167319
v -0.00806186 -0.04735535 -5.922604E-05
v 0.008061823 -0.04735535 -5.922604E-05
v -0.01058486 0.04573854 0.005334473
v -0.008061823 0.04735535 0.008167331
v -0.00806186 -0.04735539 0.008167319
v -0.01058489 -0.04573854 0.005334461
v 0.01058489 0.04573854 0.005334473
v 0.01058486 -0.04573854 0.005334461
v 0.008061823 -0.04735539 0.008167319
v 0.00806186 0.04735535 0.008167331
v -0.008061823 0.04735535 0.008167331
v 0.00806186 0.04735535 0.008167331
v 0.008061823 -0.04735539 0.008167319
v -0.00806186 -0.04735539 0.008167319
vt 0.5427268 0.8821051
vt 0.5427268 0.0255381
vt 0.6103482 0.01039893
vt 0.6103482 0.8972442
vt 0.6103482 0.01039893
vt 0.6551374 0.01039893
vt 0.6551374 0.8972442
vt 0.6103482 0.8972442
vt 0.07065573 0.9941269
vt 0.0101449 0.9638874
vt 0.07065453 0.9333034
vt 0.05511975 0.01039893
vt 0.1227414 0.0255381
vt 0.1227414 0.8821051
vt 0.05511975 0.8972442
vt 0.01033087 0.8972442
vt 0.01033087 0.01039893
vt 0.05511975 0.01039893
vt 0.05511975 0.8972442
vt 0.3962354 0.9941251
vt 0.3962354 0.9333016
vt 0.4567451 0.9638857
vt 0.691889 0.897442
vt 0.691889 0.0105968
vt 0.977486 0.0105968
vt 0.977486 0.897442
vt 0.07065453 0.9333034
vt 0.3962354 0.9333016
vt 0.3962354 0.9941251
vt 0.07065573 0.9941269
vt 0.396235 0.9063095
vt 0.07065406 0.9063113
vt 0.9179716 0.9978023
vt 0.9179727 0.9369788
vt 0.9784818 0.9675628
vt 0.5923911 0.9978005
vt 0.5318805 0.9675611
vt 0.5923911 0.9369771
vt 0.5923911 0.9978005
vt 0.5923911 0.9369771
vt 0.9179727 0.9369788
vt 0.9179716 0.9978023
vt 0.9179733 0.9099869
vt 0.5923927 0.9099853
vt 0.5427268 0.8821051
vt 0.4755326 0.8972445
vt 0.4755326 0.01039866
vt 0.5427268 0.0255381
vt 0.1227414 0.8821051
vt 0.1227414 0.0255381
vt 0.1899354 0.01039866
vt 0.1899354 0.8972445
vt 0.4755326 0.8972445
vt 0.1899354 0.8972445
vt 0.1899354 0.01039866
vt 0.4755326 0.01039866
vn -0.7504677 0 -0.6609072
vn -0.7504677 0 -0.6609072
vn -0.7504677 0 -0.6609072
vn -0.7504677 0 -0.6609072
vn -1 0 0
vn -1 0 0
vn -1 0 0
vn -1 0 0
vn -0.5395213 0.841972 0
vn -0.5395213 0.841972 0
vn -0.5395213 0.841972 0
vn 0.7504677 0 -0.6609072
vn 0.7504677 0 -0.6609072
vn 0.7504677 0 -0.6609072
vn 0.7504677 0 -0.6609072
vn 1 0 0
vn 1 0 0
vn 1 0 0
vn 1 0 0
vn 0.5395213 0.841972 0
vn 0.5395213 0.841972 0
vn 0.5395213 0.841972 0
vn 0 0 -1
vn 0 0 -1
vn 0 0 -1
vn 0 0 -1
vn 0 1 0
vn 0 1 0
vn 0 1 0
vn 0 1 0
vn 0 1 0
vn 0 1 0
vn -0.5397426 -0.8418301 0
vn -0.5395213 -0.841972 0
vn -0.5395213 -0.841972 0
vn 0.5397426 -0.8418301 0
vn 0.5395011 -0.8419849 0
vn 0.5395213 -0.841972 0
vn 0 -1 0
vn 0 -1 0
vn 0 -1 0
vn 0 -1 0
vn 0 -1 0
vn 0 -1 0
vn -0.7467211 0 0.6651373
vn -0.7467745 0 0.6650774
vn -0.7467745 0 0.6650774
vn -0.7467211 0 0.6651373
vn 0.7467275 0 0.6651301
vn 0.7467275 0 0.6651301
vn 0.7467872 0 0.6650632
vn 0.7467872 0 0.6650632
vn 0 0 1
vn 0 0 1
vn 0 0 1
vn 0 0 1
g mount_keymod_vltor_4_inch_casv_rail_section_LOD1_0
f 3/3/3 2/2/2 1/1/1
f 4/4/4 3/3/3 1/1/1
f 7/7/7 6/6/6 5/5/5
f 8/8/8 7/7/7 5/5/5
f 11/11/11 10/10/10 9/9/9
f 14/14/14 13/13/13 12/12/12
f 15/15/15 14/14/14 12/12/12
f 18/18/18 17/17/17 16/16/16
f 19/19/19 18/18/18 16/16/16
f 22/22/22 21/21/21 20/20/20
f 25/25/25 24/24/24 23/23/23
f 26/26/26 25/25/25 23/23/23
f 29/29/29 28/28/28 27/27/27
f 30/30/30 29/29/29 27/27/27
f 28/28/28 31/31/31 27/27/27
f 31/31/31 32/32/32 27/27/27
f 35/35/35 34/34/34 33/33/33
f 38/38/38 37/37/37 36/36/36
f 41/41/41 40/40/40 39/39/39
f 42/42/42 41/41/41 39/39/39
f 41/41/41 43/43/43 40/40/40
f 43/43/43 44/44/44 40/40/40
f 47/47/47 46/46/46 45/45/45
f 48/48/48 47/47/47 45/45/45
f 51/51/51 50/50/50 49/49/49
f 52/52/52 51/51/51 49/49/49
f 55/55/55 54/54/54 53/53/53
f 56/56/56 55/55/55 53/53/53
