g mount_qars_troy_qars_3,2_inch_rail_section_LOD1
v 0.008100627 0.02741962 0.008595348
v 0.00810051 -0.02753397 0.008595351
v -0.008146258 -0.02753394 0.00859535
v -0.008146141 0.02741965 0.008595347
v -0.008146141 0.02741965 0.008595347
v -0.008146258 -0.02753394 0.00859535
v -0.01070082 -0.02753393 0.005688033
v -0.01070071 0.02741966 0.00568803
v -0.01070071 0.02741966 0.00568803
v -0.01070082 -0.02753393 0.005688033
v -0.008399235 -0.02753394 0.002407836
v -0.008399119 0.02741965 0.002407833
v -0.008399119 0.02741965 0.002407833
v -0.008399235 -0.02753394 0.002407836
v -0.008399235 -0.02753394 -1.59736E-05
v -0.008399119 0.02741965 -1.597658E-05
v -0.008399119 0.02741965 -1.597658E-05
v -0.008399235 -0.02753394 -1.59736E-05
v 0.00852741 -0.02753397 -1.59727E-05
v 0.008527526 0.02741962 -1.597568E-05
v 0.008527526 0.02741962 -1.597568E-05
v 0.00852741 -0.02753397 -1.59727E-05
v 0.00852741 -0.02753397 0.002443561
v 0.008527526 0.02741962 0.002443558
v 0.008527526 0.02741962 0.002443558
v 0.00852741 -0.02753397 0.002443561
v 0.01069591 -0.02753397 0.005594795
v 0.01069603 0.02741961 0.005594792
v 0.01069603 0.02741961 0.005594792
v 0.01069591 -0.02753397 0.005594795
v 0.00810051 -0.02753397 0.008595351
v 0.008100627 0.02741962 0.008595348
v 0.008527526 0.02741962 0.002443558
v 0.01069603 0.02741961 0.005594792
v -0.01070071 0.02741966 0.00568803
v -0.008399119 0.02741965 0.002407833
v -0.008146141 0.02741965 0.008595347
v 0.008100627 0.02741962 0.008595348
v -0.008399119 0.02741965 -1.597658E-05
v 0.008527526 0.02741962 -1.597568E-05
v 0.00852741 -0.02753397 0.002443561
v 0.00852741 -0.02753397 -1.59727E-05
v -0.008399235 -0.02753394 -1.59736E-05
v -0.008399235 -0.02753394 0.002407836
v -0.01070082 -0.02753393 0.005688033
v 0.01069591 -0.02753397 0.005594795
v 0.00810051 -0.02753397 0.008595351
v -0.008146258 -0.02753394 0.00859535
vt 0.5222666 0.0231506
vt 0.5222666 0.9770931
vt 0.8042952 0.9770931
vt 0.804295 0.0231506
vt 0.804295 0.0231506
vt 0.8042952 0.9770931
vt 0.8714777 0.9770931
vt 0.8714777 0.0231506
vt 0.8714777 0.0231506
vt 0.8714777 0.9770931
vt 0.9410375 0.9770931
vt 0.9410375 0.0231506
vt 0.9410375 0.0231506
vt 0.9410375 0.9770931
vt 0.9831126 0.9770931
vt 0.9831126 0.0231506
vt 0.07456931 0.02075777
vt 0.07456931 0.6049534
vt 0.2545115 0.6049534
vt 0.2545117 0.02075777
vt 0.3442997 0.0231506
vt 0.3442996 0.9770931
vt 0.3869949 0.9770931
vt 0.3869949 0.0231506
vt 0.3869949 0.0231506
vt 0.3869949 0.9770931
vt 0.453398 0.9770931
vt 0.453398 0.0231506
vt 0.453398 0.0231506
vt 0.453398 0.9770931
vt 0.5222666 0.9770931
vt 0.5222666 0.0231506
vt 0.1222376 0.6641911
vt 0.06753504 0.6265479
vt 0.06591642 0.9979752
vt 0.1228575 0.9580216
vt 0.01544821 0.9536302
vt 0.01544821 0.6716017
vt 0.1649327 0.9580216
vt 0.1649327 0.6641911
vt 0.2866188 0.9519495
vt 0.3279026 0.9519495
vt 0.3279026 0.6678321
vt 0.2872185 0.6678321
vt 0.2321596 0.6291995
vt 0.2337247 0.9883483
vt 0.1833598 0.9447839
vt 0.1833598 0.6720784
vn 0 0 1
vn 0 0 1
vn 0 0 1
vn 0 0 1
vn -0.7512094 1.632483E-06 0.6600639
vn -0.7512094 1.632483E-06 0.6600639
vn -0.7512094 1.632483E-06 0.6600639
vn -0.7512094 1.632483E-06 0.6600639
vn -0.8185923 1.709496E-06 -0.574375
vn -0.8185923 1.709496E-06 -0.574375
vn -0.8185923 1.709496E-06 -0.574375
vn -0.8185923 1.709496E-06 -0.574375
vn -1 2.125887E-06 0
vn -1 2.125887E-06 0
vn -1 2.125887E-06 0
vn -1 2.125887E-06 0
vn 0 0 -1
vn 0 0 -1
vn 0 0 -1
vn 0 0 -1
vn 1 -2.11504E-06 0
vn 1 -2.11504E-06 0
vn 1 -2.11504E-06 0
vn 1 -2.11504E-06 0
vn 0.8237939 -1.768612E-06 -0.5668893
vn 0.8237939 -1.768612E-06 -0.5668893
vn 0.8237939 -1.768612E-06 -0.5668893
vn 0.8237939 -1.768612E-06 -0.5668893
vn 0.7563223 -1.563472E-06 0.6541992
vn 0.7563224 -1.563473E-06 0.6541992
vn 0.7563224 -1.563473E-06 0.6541992
vn 0.7563222 -1.563472E-06 0.6541992
vn 1.982938E-06 1 0
vn 1.992613E-06 1 0
vn 1.992631E-06 1 0
vn 1.982936E-06 1 0
vn 1.994616E-06 1 -1.879931E-07
vn 1.994616E-06 1 -1.879931E-07
vn 1.971956E-06 1 0
vn 1.971956E-06 1 0
vn -1.909992E-06 -1 4.083717E-07
vn -1.971956E-06 -1 0
vn -1.971956E-06 -1 0
vn -1.910003E-06 -1 4.082964E-07
vn -1.821924E-06 -1 3.651145E-07
vn -1.822372E-06 -1 3.686059E-07
vn -1.773436E-06 -1 0
vn -1.773436E-06 -1 0
g mount_qars_troy_qars_3,2_inch_rail_section_LOD1_0
f 3/3/3 2/2/2 1/1/1
f 4/4/4 3/3/3 1/1/1
f 7/7/7 6/6/6 5/5/5
f 8/8/8 7/7/7 5/5/5
f 11/11/11 10/10/10 9/9/9
f 12/12/12 11/11/11 9/9/9
f 15/15/15 14/14/14 13/13/13
f 16/16/16 15/15/15 13/13/13
f 19/19/19 18/18/18 17/17/17
f 20/20/20 19/19/19 17/17/17
f 23/23/23 22/22/22 21/21/21
f 24/24/24 23/23/23 21/21/21
f 27/27/27 26/26/26 25/25/25
f 28/28/28 27/27/27 25/25/25
f 31/31/31 30/30/30 29/29/29
f 32/32/32 31/31/31 29/29/29
f 35/35/35 34/34/34 33/33/33
f 36/36/36 35/35/35 33/33/33
f 34/34/34 35/35/35 37/37/37
f 38/38/38 34/34/34 37/37/37
f 39/39/39 36/36/36 33/33/33
f 40/40/40 39/39/39 33/33/33
f 43/43/43 42/42/42 41/41/41
f 44/44/44 43/43/43 41/41/41
f 45/45/45 44/44/44 41/41/41
f 46/46/46 45/45/45 41/41/41
f 45/45/45 46/46/46 47/47/47
f 48/48/48 45/45/45 47/47/47
