g mount_all_iea_kh_f_34mm_LOD1
v -0.017702 0.06025432 -0.00575108
v 0.01796515 0.06025432 -0.00575108
v 0.01247696 0.06025432 0.00868097
v -0.01221381 0.06025432 0.00868097
v -0.01221381 0.06025432 0.02173887
v 0.01247696 0.06025432 0.02173887
v 0.01930793 0.06025432 0.03191682
v -0.01925096 0.06025432 0.03191682
v -0.02628811 0.06025432 0.03475117
v 0.0261389 0.06025432 0.03475117
v -0.02628811 0.06025433 0.04430613
v 0.0261389 0.06025433 0.04430613
v 0.01051733 0.06025434 0.05581228
v -0.0106937 0.06025434 0.05564021
v -7.460189E-05 0.06025433 0.05873679
v 0.01796515 0.06025432 0.00868097
v -0.017702 0.06025432 0.00868097
v -0.017702 -0.06881759 -0.005751022
v -0.017702 -0.06881759 0.008681029
v -0.01221381 -0.06881759 0.008681029
v 0.01247696 -0.06881759 0.008681029
v 0.01247696 -0.06883762 0.02173892
v -0.01221381 -0.06883762 0.02173892
v 0.01930793 -0.06883761 0.03191688
v -0.01925096 -0.06883761 0.03191688
v 0.0261389 -0.06883761 0.03475123
v -0.02628811 -0.06883761 0.03475123
v 0.0261389 -0.06883761 0.04430618
v -0.02628811 -0.06883761 0.04430618
v 0.01051733 -0.06883761 0.05581233
v -0.0106937 -0.06883761 0.05564025
v -7.460189E-05 -0.06883762 0.05873683
v 0.01796515 -0.06881759 -0.005751022
v 0.01796515 -0.06881759 0.008681029
v -0.017702 0.06025432 -0.00575108
v -0.017702 -0.06881759 -0.005751022
v 0.01796515 -0.04677457 -0.005751031
v 0.01796515 0.03931535 -0.005751071
v 0.03294962 0.03931535 -0.005751071
v 0.03294962 -0.04677457 -0.005751031
v 0.01796515 0.06025432 -0.00575108
v 0.01796515 -0.06881759 -0.005751022
v 0.01796515 0.06025432 0.00868097
v 0.01796515 0.06025432 -0.00575108
v 0.01796515 0.03931535 -0.005751071
v 0.01796515 0.03931534 0.005770541
v 0.01796515 -0.04677457 0.005770581
v 0.01796515 -0.06881759 0.008681029
v 0.01796515 -0.04677457 -0.005751031
v 0.01796515 -0.06881759 -0.005751022
v -0.017702 0.06025432 0.00868097
v -0.017702 -0.06881759 0.008681029
v -0.017702 -0.06881759 -0.005751022
v -0.017702 0.06025432 -0.00575108
v -0.017702 0.06025432 0.00868097
v -0.01221381 0.06025432 0.00868097
v -0.01221381 -0.06881759 0.008681029
v -0.017702 -0.06881759 0.008681029
v 0.01247696 -0.06881759 0.008681029
v 0.01247696 -0.04896717 0.01274823
v 0.01247696 0.04040125 0.01274819
v 0.01247696 0.06025432 0.00868097
v 0.01247696 0.06025432 0.02173887
v 0.01247696 0.04040125 0.02173887
v 0.01247696 -0.04898455 0.02173892
v 0.01247696 -0.06883762 0.02173892
v -0.01221381 0.06025432 0.00868097
v -0.01221381 0.04040125 0.01274819
v -0.01221381 -0.04896717 0.01274823
v -0.01221381 -0.06881759 0.008681029
v -0.01221381 0.04040125 0.02173887
v -0.01221381 0.06025432 0.02173887
v -0.01221381 -0.06883762 0.02173892
v -0.01221381 -0.04898455 0.02173892
v -0.01221381 -0.04896717 0.01274823
v -0.01221381 0.04040125 0.01274819
v 0.01247696 0.04040125 0.01274819
v 0.01247696 -0.04896717 0.01274823
v -0.01221381 0.04040125 0.01274819
v -0.01221381 0.04040125 0.02173887
v 0.01247696 0.04040125 0.02173887
v 0.01247696 0.04040125 0.01274819
v 0.01930793 0.04040127 0.03191683
v -0.01925096 0.04040127 0.03191683
v 0.0261389 0.04040127 0.03475118
v -0.02628811 0.04040127 0.03475118
v 0.0261389 0.04040126 0.04430612
v -0.02628811 0.04040126 0.04430612
v 0.01051733 0.04040126 0.05581227
v -0.0106937 0.04040126 0.05564019
v -7.460189E-05 0.04040126 0.05873678
v -0.01221381 0.04040125 0.02173887
v -0.01221381 0.06025432 0.02173887
v -0.01925096 0.06025432 0.03191682
v -0.01925096 0.04040127 0.03191683
v 0.01247696 0.06025432 0.02173887
v 0.01247696 0.04040125 0.02173887
v 0.01930793 0.04040127 0.03191683
v 0.01930793 0.06025432 0.03191682
v -0.02628811 0.04040126 0.04430612
v -0.02628811 0.04040127 0.03475118
v -0.02628811 0.06025432 0.03475117
v -0.02628811 0.06025433 0.04430613
v 0.0261389 0.06025433 0.04430613
v 0.0261389 0.06025432 0.03475117
v 0.0261389 0.04040127 0.03475118
v 0.0261389 0.04040126 0.04430612
v -0.02628811 0.04040127 0.03475118
v -0.01925096 0.04040127 0.03191683
v -0.01925096 0.06025432 0.03191682
v -0.02628811 0.06025432 0.03475117
v 0.0261389 0.06025432 0.03475117
v 0.01930793 0.06025432 0.03191682
v 0.01930793 0.04040127 0.03191683
v 0.0261389 0.04040127 0.03475118
v -0.02628811 0.04040126 0.04430612
v -0.02628811 0.06025433 0.04430613
v -0.0106937 0.06025434 0.05564021
v -0.0106937 0.04040126 0.05564019
v -7.460189E-05 0.04040126 0.05873678
v -7.460189E-05 0.06025433 0.05873679
v 0.01051733 0.04040126 0.05581227
v 0.01051733 0.06025434 0.05581228
v 0.0261389 0.06025433 0.04430613
v 0.0261389 0.04040126 0.04430612
v 0.01247696 -0.04896717 0.01274823
v 0.01247696 -0.04898455 0.02173892
v -0.01221381 -0.04898455 0.02173892
v -0.01221381 -0.04896717 0.01274823
v 0.01930793 -0.04898455 0.03191688
v -0.01925096 -0.04898455 0.03191688
v -0.02628811 -0.04898455 0.03475122
v 0.0261389 -0.04898455 0.03475122
v -0.02628811 -0.04898455 0.04430618
v 0.0261389 -0.04898455 0.04430618
v 0.01051733 -0.04898454 0.05581233
v -0.0106937 -0.04898454 0.05564025
v -7.460189E-05 -0.04898455 0.05873684
v -0.01221381 -0.06883762 0.02173892
v -0.01221381 -0.04898455 0.02173892
v -0.01925096 -0.04898455 0.03191688
v -0.01925096 -0.06883761 0.03191688
v 0.01247696 -0.04898455 0.02173892
v 0.01247696 -0.06883762 0.02173892
v 0.01930793 -0.06883761 0.03191688
v 0.01930793 -0.04898455 0.03191688
v -0.02628811 -0.06883761 0.04430618
v -0.02628811 -0.06883761 0.03475123
v -0.02628811 -0.04898455 0.03475122
v -0.02628811 -0.04898455 0.04430618
v 0.0261389 -0.04898455 0.04430618
v 0.0261389 -0.04898455 0.03475122
v 0.0261389 -0.06883761 0.03475123
v 0.0261389 -0.06883761 0.04430618
v -0.02628811 -0.06883761 0.03475123
v -0.01925096 -0.06883761 0.03191688
v -0.01925096 -0.04898455 0.03191688
v -0.02628811 -0.04898455 0.03475122
v 0.0261389 -0.04898455 0.03475122
v 0.01930793 -0.04898455 0.03191688
v 0.01930793 -0.06883761 0.03191688
v 0.0261389 -0.06883761 0.03475123
v -0.02628811 -0.06883761 0.04430618
v -0.02628811 -0.04898455 0.04430618
v -0.0106937 -0.04898454 0.05564025
v -0.0106937 -0.06883761 0.05564025
v -7.460189E-05 -0.06883762 0.05873683
v -7.460189E-05 -0.04898455 0.05873684
v 0.01051733 -0.06883761 0.05581233
v 0.01051733 -0.04898454 0.05581233
v 0.0261389 -0.04898455 0.04430618
v 0.0261389 -0.06883761 0.04430618
v 0.03294962 -0.04677457 0.005770581
v 0.03294962 0.03931534 0.005770541
v 0.03294962 0.03931535 -0.005751071
v 0.03294962 -0.04677457 -0.005751031
v 0.01796515 -0.04677457 0.005770581
v 0.03294962 -0.04677457 0.005770581
v 0.03294962 -0.04677457 -0.005751031
v 0.01796515 -0.04677457 -0.005751031
v 0.01796515 0.03931535 -0.005751071
v 0.03294962 0.03931535 -0.005751071
v 0.03294962 0.03931534 0.005770541
v 0.01796515 0.03931534 0.005770541
v 0.01796515 0.03931534 0.005770541
v 0.03294962 0.03931534 0.005770541
v 0.03294962 -0.04677457 0.005770581
v 0.01796515 -0.04677457 0.005770581
v 0.01247696 0.06025432 0.00868097
v 0.01796515 0.06025432 0.00868097
v 0.01796515 -0.06881759 0.008681029
v 0.01247696 -0.06881759 0.008681029
vt 0.05806341 0.2598754
vt 0.1908429 0.2598754
vt 0.1704118 0.2061487
vt 0.07849454 0.2061487
vt 0.07849454 0.1575375
vt 0.1704118 0.1575375
vt 0.1958417 0.1196476
vt 0.05229703 0.1196476
vt 0.02609951 0.1090961
vt 0.2212716 0.1090961
vt 0.02609951 0.07352549
vt 0.2212716 0.07352549
vt 0.1631166 0.03069108
vt 0.08415348 0.03133174
vt 0.1236856 0.01980389
vt 0.1908429 0.2061487
vt 0.05806341 0.2061487
vt 0.05806341 0.7403763
vt 0.05806341 0.7941031
vt 0.07849454 0.7941031
vt 0.1704118 0.7941031
vt 0.1704118 0.8427143
vt 0.07849454 0.8427143
vt 0.1958417 0.8806041
vt 0.05229703 0.8806041
vt 0.2212716 0.8911557
vt 0.02609951 0.8911557
vt 0.2212716 0.9267261
vt 0.02609951 0.9267261
vt 0.1631166 0.9695607
vt 0.08415348 0.96892
vt 0.1236856 0.9804478
vt 0.1908429 0.7403763
vt 0.1908429 0.7941031
vt 0.05806341 0.2598754
vt 0.05806341 0.7403763
vt 0.1908429 0.658316
vt 0.1908429 0.3378257
vt 0.2466262 0.3378257
vt 0.2466262 0.658316
vt 0.1908429 0.2598754
vt 0.1908429 0.7403763
vt 0.275979 0.3955792
vt 0.275979 0.4557531
vt 0.3632835 0.4557531
vt 0.3632835 0.4077142
vt 0.7222329 0.4077142
vt 0.8141404 0.3955792
vt 0.7222329 0.4557531
vt 0.8141404 0.4557531
vt 0.2759791 0.3174641
vt 0.8141404 0.3174641
vt 0.8141404 0.2591226
vt 0.2759791 0.2591223
vt 0.2759791 0.3174641
vt 0.2759793 0.3385146
vt 0.8141404 0.3385147
vt 0.8141404 0.3174641
vt 0.2702565 0.9725509
vt 0.2853977 0.898653
vt 0.2853977 0.5659574
vt 0.2702565 0.4920496
vt 0.3188677 0.4920496
vt 0.3188677 0.5659574
vt 0.3188678 0.8987176
vt 0.3188678 0.9726253
vt 0.8121721 0.4920496
vt 0.7970309 0.5659574
vt 0.7970309 0.898653
vt 0.812172 0.9725509
vt 0.763561 0.5659574
vt 0.763561 0.4920496
vt 0.7635608 0.9726253
vt 0.7635608 0.8987176
vt 0.7901087 0.07919703
vt 0.4241436 0.07919703
vt 0.4241436 0.180306
vt 0.7901087 0.180306
vt 0.4241436 0.07919703
vt 0.3873266 0.07919703
vt 0.3873266 0.180306
vt 0.4241436 0.180306
vt 0.3456477 0.208279
vt 0.3456477 0.05037986
vt 0.3340411 0.2362521
vt 0.3340411 0.02156255
vt 0.2949133 0.2362521
vt 0.2949134 0.02156255
vt 0.2477956 0.1722814
vt 0.2485002 0.08542179
vt 0.2358196 0.1289072
vt 0.763561 0.5659574
vt 0.763561 0.4920496
vt 0.7174962 0.4920496
vt 0.7174962 0.5659574
vt 0.3188677 0.4920496
vt 0.3188677 0.5659574
vt 0.3645003 0.5659574
vt 0.3645003 0.4920496
vt 0.653683 0.5659574
vt 0.6892536 0.5659574
vt 0.6892536 0.4920496
vt 0.653683 0.4920496
vt 0.4276029 0.4920496
vt 0.3920324 0.4920496
vt 0.3920324 0.5659574
vt 0.4276029 0.5659574
vt 0.6892536 0.5659574
vt 0.7174962 0.5659574
vt 0.7174962 0.4920496
vt 0.6892536 0.4920496
vt 0.3920324 0.4920496
vt 0.3645003 0.4920496
vt 0.3645003 0.5659574
vt 0.3920324 0.5659574
vt 0.653683 0.5659574
vt 0.653683 0.4920496
vt 0.5819154 0.4920496
vt 0.5819154 0.5659574
vt 0.5407369 0.5659574
vt 0.5407367 0.4920497
vt 0.4998305 0.5659574
vt 0.4998305 0.4920496
vt 0.4276029 0.4920496
vt 0.4276029 0.5659574
vt 0.7901087 0.180306
vt 0.8269256 0.1803061
vt 0.8269256 0.0791971
vt 0.7901087 0.07919703
vt 0.8686044 0.2082791
vt 0.8686044 0.05037993
vt 0.8802112 0.02156262
vt 0.8802112 0.2362521
vt 0.9193388 0.02156262
vt 0.9193387 0.2362521
vt 0.9664566 0.1722814
vt 0.9657519 0.08542185
vt 0.9784325 0.1289074
vt 0.7635608 0.9726253
vt 0.7635608 0.8987176
vt 0.7174961 0.8987176
vt 0.7174961 0.9726253
vt 0.3188678 0.8987176
vt 0.3188678 0.9726253
vt 0.3645004 0.9726253
vt 0.3645004 0.8987176
vt 0.6536831 0.9726253
vt 0.6892536 0.9726253
vt 0.6892536 0.8987176
vt 0.653683 0.8987176
vt 0.4276031 0.8987177
vt 0.3920324 0.8987176
vt 0.3920324 0.9726253
vt 0.4276031 0.9726253
vt 0.6892536 0.9726253
vt 0.7174961 0.9726253
vt 0.7174961 0.8987176
vt 0.6892536 0.8987176
vt 0.3920324 0.8987176
vt 0.3645004 0.8987176
vt 0.3645004 0.9726253
vt 0.3920324 0.9726253
vt 0.6536831 0.9726253
vt 0.653683 0.8987176
vt 0.5819154 0.8987176
vt 0.5819154 0.9726253
vt 0.540737 0.9726254
vt 0.540737 0.8987177
vt 0.4998305 0.9726253
vt 0.4998305 0.8987176
vt 0.4276031 0.8987177
vt 0.4276031 0.9726253
vt 0.3308052 0.8141088
vt 0.6512955 0.8141088
vt 0.6512955 0.7712168
vt 0.3308052 0.7712168
vt 0.8919518 0.4398941
vt 0.8919518 0.3774167
vt 0.8439125 0.3774167
vt 0.8439125 0.4398941
vt 0.8439125 0.2708408
vt 0.8439125 0.3333181
vt 0.8919518 0.3333181
vt 0.8919518 0.2708408
vt 0.6512955 0.8698921
vt 0.6512955 0.8141088
vt 0.3308052 0.8141088
vt 0.3308052 0.8698921
vt 0.275979 0.3726964
vt 0.275979 0.3955792
vt 0.8141404 0.3955792
vt 0.8141404 0.3726965
vn 0 1 0
vn 0 1 0
vn 0 1 0
vn 0 1 0
vn 0 1 -3.651714E-07
vn 0 1 -3.651714E-07
vn 0 1 -4.684998E-07
vn 0 1 -4.684998E-07
vn 0 1 -4.990465E-07
vn 0 1 -4.990465E-07
vn 0 1 -4.990465E-07
vn 0 1 -4.990465E-07
vn 0 1 -4.175403E-07
vn 0 1 -4.175403E-07
vn 0 1 1.58395E-06
vn 0 1 0
vn 0 1 0
vn 0 -1 -3.304015E-07
vn 0 -1 -3.304016E-07
vn 0 -1 -3.304016E-07
vn 0 -0.9999988 -0.001533353
vn 0 -0.9999988 -0.001533353
vn 0 -0.9999988 -0.001533353
vn 0 -1 1.405499E-06
vn 0 -1 1.405499E-06
vn 0 -1 -4.990471E-07
vn 0 -1 -4.990471E-07
vn 0 -1 -4.990471E-07
vn 0 -1 -4.990471E-07
vn 0 -1 -4.175403E-07
vn 0 -1 -4.175404E-07
vn 0 -1 -3.167896E-06
vn 0 -1 -3.304015E-07
vn 0 -1 -3.304016E-07
vn 0 -4.565352E-07 -1
vn 0 -4.389432E-07 -1
vn 0 -4.404165E-07 -1
vn 0 -4.565466E-07 -1
vn 0 -4.638768E-07 -1
vn 0 -4.638768E-07 -1
vn 0 -4.554543E-07 -1
vn 0 -4.056021E-07 -1
vn 1 0 0
vn 1 0 0
vn 1 0 0
vn 1 0 0
vn 1 0 0
vn 1 0 0
vn 1 0 0
vn 1 0 0
vn -1 0 0
vn -1 0 0
vn -1 0 0
vn -1 0 0
vn 0 4.525582E-07 1
vn 0 4.525582E-07 1
vn 0 4.525582E-07 1
vn 0 4.525582E-07 1
vn 1 0 0
vn 1 0 0
vn 1 0 0
vn 1 0 0
vn 1 0 0
vn 1 0 0
vn 1 0 0
vn 1 0 0
vn -1 0 0
vn -1 0 0
vn -1 0 0
vn -1 0 0
vn -1 0 0
vn -1 0 0
vn -1 0 0
vn -1 0 0
vn 0 4.66868E-07 1
vn 0 4.66868E-07 1
vn 0 4.66868E-07 1
vn 0 4.66868E-07 1
vn 0 -1 0
vn 0 -1 0
vn 0 -1 0
vn 0 -1 0
vn 0 -1 1.405499E-06
vn 0 -1 1.405499E-06
vn 0 -1 -4.990476E-07
vn 0 -1 -4.990476E-07
vn 0 -1 -4.990476E-07
vn 0 -1 -4.990476E-07
vn 0 -1 0
vn 0 -1 0
vn 0 -1 -1.583948E-06
vn -0.8225374 -2.365659E-07 -0.568711
vn -0.8225374 -2.365659E-07 -0.568711
vn -0.8225374 -2.365659E-07 -0.568711
vn -0.8225373 -2.365659E-07 -0.5687111
vn 0.8303269 -2.816688E-07 -0.5572768
vn 0.8303269 -2.816688E-07 -0.5572768
vn 0.8303268 -2.816688E-07 -0.5572768
vn 0.8303268 -2.816688E-07 -0.5572768
vn -1 0 0
vn -1 0 0
vn -1 0 0
vn -1 0 0
vn 1 0 0
vn 1 0 0
vn 1 0 0
vn 1 0 0
vn -0.3736032 -5.020968E-07 -0.9275886
vn -0.3736033 -5.020967E-07 -0.9275886
vn -0.3736032 -5.020968E-07 -0.9275886
vn -0.3736033 -5.020968E-07 -0.9275886
vn 0.3832443 -5.201281E-07 -0.923647
vn 0.3832442 -5.20128E-07 -0.923647
vn 0.3832442 -5.20128E-07 -0.923647
vn 0.3832442 -5.20128E-07 -0.923647
vn -0.5879234 -4.866729E-07 0.8089166
vn -0.5879234 -4.866729E-07 0.8089166
vn -0.4404621 -5.397198E-07 0.8977712
vn -0.4404621 -5.397198E-07 0.8977712
vn -0.007171384 -5.979977E-07 0.9999744
vn -0.007171392 -5.979977E-07 0.9999744
vn 0.4368716 -5.395926E-07 0.8995239
vn 0.4368716 -5.395926E-07 0.8995239
vn 0.5930496 -4.874429E-07 0.8051659
vn 0.5930496 -4.874429E-07 0.8051659
vn 0 0.9999982 0.001932658
vn 0 0.9999982 0.001932658
vn 0 0.9999982 0.001932658
vn 0 0.9999982 0.001932658
vn 0 1 0
vn 0 1 0
vn 0 1 0
vn 0 1 0
vn 0 1 0
vn 0 1 0
vn 0 1 -4.175403E-07
vn 0 1 -4.175403E-07
vn 0 1 1.583948E-06
vn -0.8225374 -2.03204E-07 -0.568711
vn -0.8225374 -2.03204E-07 -0.568711
vn -0.8225374 -2.03204E-07 -0.568711
vn -0.8225374 -2.03204E-07 -0.5687111
vn 0.8303269 -2.47991E-07 -0.5572767
vn 0.8303269 -2.47991E-07 -0.5572767
vn 0.8303269 -2.47991E-07 -0.5572767
vn 0.8303268 -2.47991E-07 -0.5572768
vn -1 0 0
vn -1 0 0
vn -1 0 0
vn -1 0 0
vn 1 0 0
vn 1 0 0
vn 1 0 0
vn 1 0 0
vn -0.3736032 -2.794923E-07 -0.9275886
vn -0.3736033 -2.794923E-07 -0.9275886
vn -0.3736032 -2.794923E-07 -0.9275886
vn -0.3736033 -2.794923E-07 -0.9275886
vn 0.3832442 -2.993908E-07 -0.923647
vn 0.3832442 -2.993908E-07 -0.923647
vn 0.3832442 -2.993908E-07 -0.923647
vn 0.3832442 -2.993908E-07 -0.923647
vn -0.5879233 -1.946692E-07 0.8089167
vn -0.5879233 -1.946692E-07 0.8089167
vn -0.4404622 -2.15888E-07 0.8977712
vn -0.4404621 -2.15888E-07 0.8977712
vn -0.007171378 -2.397316E-07 0.9999744
vn -0.007171371 -2.397316E-07 0.9999744
vn 0.4368716 -2.195053E-07 0.8995239
vn 0.4368716 -2.195053E-07 0.8995239
vn 0.5930496 -2.01167E-07 0.8051659
vn 0.5930496 -2.01167E-07 0.8051659
vn 1 0 0
vn 1 0 0
vn 1 0 0
vn 1 0 0
vn 0 -1 0
vn 0 -1 0
vn 0 -1 0
vn 0 -1 0
vn 0 1 8.277265E-07
vn 0 1 8.277265E-07
vn 0 1 8.277265E-07
vn 0 1 8.277265E-07
vn 0 4.708004E-07 1
vn 0 4.708004E-07 1
vn 0 4.708004E-07 1
vn 0 4.708004E-07 1
vn 0 4.525582E-07 1
vn 0 4.525582E-07 1
vn 0 4.525582E-07 1
vn 0 4.525582E-07 1
g mount_all_iea_kh_f_34mm_LOD1_0
f 3/3/3 2/2/2 1/1/1
f 4/4/4 3/3/3 1/1/1
f 4/4/4 5/5/5 3/3/3
f 5/5/5 6/6/6 3/3/3
f 7/7/7 6/6/6 5/5/5
f 8/8/8 7/7/7 5/5/5
f 7/7/7 8/8/8 9/9/9
f 10/10/10 7/7/7 9/9/9
f 10/10/10 9/9/9 11/11/11
f 12/12/12 10/10/10 11/11/11
f 13/13/13 12/12/12 11/11/11
f 14/14/14 13/13/13 11/11/11
f 15/15/15 13/13/13 14/14/14
f 16/16/16 2/2/2 3/3/3
f 17/17/17 4/4/4 1/1/1
f 20/20/20 19/19/19 18/18/18
f 21/21/21 20/20/20 18/18/18
f 21/21/21 22/22/22 20/20/20
f 22/22/22 23/23/23 20/20/20
f 22/22/22 24/24/24 23/23/23
f 24/24/24 25/25/25 23/23/23
f 25/25/25 24/24/24 26/26/26
f 27/27/27 25/25/25 26/26/26
f 27/27/27 26/26/26 28/28/28
f 29/29/29 27/27/27 28/28/28
f 28/28/28 30/30/30 29/29/29
f 30/30/30 31/31/31 29/29/29
f 32/32/32 31/31/31 30/30/30
f 33/33/33 21/21/21 18/18/18
f 34/34/34 21/21/21 33/33/33
f 37/37/37 36/36/36 35/35/35
f 38/38/38 37/37/37 35/35/35
f 38/38/38 39/39/39 37/37/37
f 39/39/39 40/40/40 37/37/37
f 41/41/41 38/38/38 35/35/35
f 42/42/42 36/36/36 37/37/37
f 45/45/45 44/44/44 43/43/43
f 46/46/46 45/45/45 43/43/43
f 47/47/47 46/46/46 43/43/43
f 48/48/48 47/47/47 43/43/43
f 49/49/49 47/47/47 48/48/48
f 50/50/50 49/49/49 48/48/48
f 53/53/53 52/52/52 51/51/51
f 54/54/54 53/53/53 51/51/51
f 57/57/57 56/56/56 55/55/55
f 58/58/58 57/57/57 55/55/55
f 61/61/61 60/60/60 59/59/59
f 62/62/62 61/61/61 59/59/59
f 62/62/62 63/63/63 61/61/61
f 63/63/63 64/64/64 61/61/61
f 60/60/60 65/65/65 59/59/59
f 65/65/65 66/66/66 59/59/59
f 69/69/69 68/68/68 67/67/67
f 70/70/70 69/69/69 67/67/67
f 68/68/68 71/71/71 67/67/67
f 71/71/71 72/72/72 67/67/67
f 70/70/70 73/73/73 69/69/69
f 73/73/73 74/74/74 69/69/69
f 77/77/77 76/76/76 75/75/75
f 78/78/78 77/77/77 75/75/75
f 81/81/81 80/80/80 79/79/79
f 82/82/82 81/81/81 79/79/79
f 81/81/81 83/83/83 80/80/80
f 83/83/83 84/84/84 80/80/80
f 84/84/84 83/83/83 85/85/85
f 86/86/86 84/84/84 85/85/85
f 86/86/86 85/85/85 87/87/87
f 88/88/88 86/86/86 87/87/87
f 87/87/87 89/89/89 88/88/88
f 89/89/89 90/90/90 88/88/88
f 91/91/91 90/90/90 89/89/89
f 94/94/94 93/93/93 92/92/92
f 95/95/95 94/94/94 92/92/92
f 98/98/98 97/97/97 96/96/96
f 99/99/99 98/98/98 96/96/96
f 102/102/102 101/101/101 100/100/100
f 103/103/103 102/102/102 100/100/100
f 106/106/106 105/105/105 104/104/104
f 107/107/107 106/106/106 104/104/104
f 110/110/110 109/109/109 108/108/108
f 111/111/111 110/110/110 108/108/108
f 114/114/114 113/113/113 112/112/112
f 115/115/115 114/114/114 112/112/112
f 118/118/118 117/117/117 116/116/116
f 119/119/119 118/118/118 116/116/116
f 118/118/118 119/119/119 120/120/120
f 121/121/121 118/118/118 120/120/120
f 120/120/120 122/122/122 121/121/121
f 122/122/122 123/123/123 121/121/121
f 123/123/123 122/122/122 124/124/124
f 122/122/122 125/125/125 124/124/124
f 128/128/128 127/127/127 126/126/126
f 129/129/129 128/128/128 126/126/126
f 130/130/130 127/127/127 128/128/128
f 131/131/131 130/130/130 128/128/128
f 130/130/130 131/131/131 132/132/132
f 133/133/133 130/130/130 132/132/132
f 133/133/133 132/132/132 134/134/134
f 135/135/135 133/133/133 134/134/134
f 136/136/136 135/135/135 134/134/134
f 137/137/137 136/136/136 134/134/134
f 138/138/138 136/136/136 137/137/137
f 141/141/141 140/140/140 139/139/139
f 142/142/142 141/141/141 139/139/139
f 145/145/145 144/144/144 143/143/143
f 146/146/146 145/145/145 143/143/143
f 149/149/149 148/148/148 147/147/147
f 150/150/150 149/149/149 147/147/147
f 153/153/153 152/152/152 151/151/151
f 154/154/154 153/153/153 151/151/151
f 157/157/157 156/156/156 155/155/155
f 158/158/158 157/157/157 155/155/155
f 161/161/161 160/160/160 159/159/159
f 162/162/162 161/161/161 159/159/159
f 165/165/165 164/164/164 163/163/163
f 166/166/166 165/165/165 163/163/163
f 165/165/165 166/166/166 167/167/167
f 168/168/168 165/165/165 167/167/167
f 167/167/167 169/169/169 168/168/168
f 169/169/169 170/170/170 168/168/168
f 170/170/170 169/169/169 171/171/171
f 169/169/169 172/172/172 171/171/171
f 175/175/175 174/174/174 173/173/173
f 176/176/176 175/175/175 173/173/173
f 179/179/179 178/178/178 177/177/177
f 180/180/180 179/179/179 177/177/177
f 183/183/183 182/182/182 181/181/181
f 184/184/184 183/183/183 181/181/181
f 187/187/187 186/186/186 185/185/185
f 188/188/188 187/187/187 185/185/185
f 191/191/191 190/190/190 189/189/189
f 192/192/192 191/191/191 189/189/189
