g mount_rahg_remington_2_inch_rahg_rail_section_LOD1
v -0.01071163 0.03058126 0.008574724
v -0.008064363 0.030007 0.01138522
v -0.008064363 -0.02073587 0.01138525
v -0.01071163 -0.02131009 0.008574181
v -0.007832043 0.03655522 0.002586143
v -0.01071163 0.03058126 0.008574724
v -0.01071163 -0.02131009 0.008574181
v -0.007832043 -0.02728411 0.002586145
v 0.007845859 0.03655522 0.002586143
v 0.007845854 -0.0272841 0.002586145
v 0.01071658 -0.0213101 0.008574185
v 0.01071659 0.03058122 0.008574726
v 0.00807816 -0.02073588 0.01138525
v 0.00807817 0.03000701 0.01138523
v 0.01071659 0.03058122 0.008574726
v 0.01071658 -0.0213101 0.008574185
v -0.007832043 0.03655522 0.002586143
v -0.007832043 -0.02728411 0.002586145
v 0.007845854 -0.0272841 0.002586145
v 0.007845859 0.03655522 0.002586143
v -0.008064363 -0.02073587 0.01138525
v -0.008064363 0.030007 0.01138522
v 0.00807817 0.03000701 0.01138523
v 0.00807816 -0.02073588 0.01138525
v -0.007832043 -0.02728411 0.002586145
v -0.007832048 -0.02728411 0.007342263
v 0.007845854 -0.0272841 0.007342265
v 0.007845854 -0.0272841 0.002586145
v 0.007845859 0.03655522 0.002586143
v 0.007845859 0.03655523 0.007342247
v -0.007832046 0.03655522 0.007342245
v -0.007832043 0.03655522 0.002586143
v 0.007845854 -0.0272841 0.007342265
v -0.007832048 -0.02728411 0.007342263
v -0.008064363 -0.02073587 0.01138525
v 0.00807816 -0.02073588 0.01138525
v -0.007832046 0.03655522 0.007342245
v 0.007845859 0.03655523 0.007342247
v 0.00807817 0.03000701 0.01138523
v -0.008064363 0.030007 0.01138522
v 0.007845859 0.03655523 0.007342247
v 0.007845859 0.03655522 0.002586143
v 0.01071659 0.03058122 0.008574726
v 0.007845859 0.03655523 0.007342247
v 0.01071659 0.03058122 0.008574726
v 0.00807817 0.03000701 0.01138523
v -0.008064363 0.030007 0.01138522
v -0.01071163 0.03058126 0.008574724
v -0.007832046 0.03655522 0.007342245
v -0.007832046 0.03655522 0.007342245
v -0.01071163 0.03058126 0.008574724
v -0.007832043 0.03655522 0.002586143
v -0.007832048 -0.02728411 0.007342263
v -0.007832043 -0.02728411 0.002586145
v -0.01071163 -0.02131009 0.008574181
v -0.007832048 -0.02728411 0.007342263
v -0.01071163 -0.02131009 0.008574181
v -0.008064363 -0.02073587 0.01138525
v 0.00807816 -0.02073588 0.01138525
v 0.01071658 -0.0213101 0.008574185
v 0.007845854 -0.0272841 0.007342265
v 0.007845854 -0.0272841 0.007342265
v 0.01071658 -0.0213101 0.008574185
v 0.007845854 -0.0272841 0.002586145
v -0.004563747 -0.007166724 0.003333464
v -0.004563734 -0.007166724 4.799127E-05
v 0.00457144 -0.007166729 4.799127E-05
v 0.004571442 -0.007166729 0.003333464
v -0.004563753 -0.0145251 4.79865E-05
v -0.004563775 -0.01452508 0.003333475
v 0.004571436 -0.01452509 0.003333475
v 0.004571438 -0.01452509 4.799127E-05
v 0.004571438 -0.01452509 4.799127E-05
v 0.004571436 -0.01452509 0.003333475
v 0.004571442 -0.007166729 0.003333464
v 0.00457144 -0.007166729 4.799127E-05
v -0.004563753 -0.0145251 4.79865E-05
v -0.004563734 -0.007166724 4.799127E-05
v -0.004563747 -0.007166724 0.003333464
v -0.004563775 -0.01452508 0.003333475
v 0.004571438 -0.01452509 4.799127E-05
v 0.00457144 -0.007166729 4.799127E-05
v -0.004563734 -0.007166724 4.799127E-05
v -0.004563753 -0.0145251 4.79865E-05
v -0.004564814 0.02379679 0.003333466
v -0.004564819 0.02379679 4.800081E-05
v 0.004571347 0.02379678 4.800081E-05
v 0.004571123 0.02379678 0.003333466
v -0.004564824 0.01280527 4.799366E-05
v -0.004564824 0.01280539 0.003333468
v 0.004571113 0.01280539 0.003333468
v 0.004571342 0.01280527 4.799843E-05
v 0.004571342 0.01280527 4.799843E-05
v 0.004571113 0.01280539 0.003333468
v 0.004571123 0.02379678 0.003333466
v 0.004571347 0.02379678 4.800081E-05
v -0.004564824 0.01280527 4.799366E-05
v -0.004564819 0.02379679 4.800081E-05
v -0.004564814 0.02379679 0.003333466
v -0.004564824 0.01280539 0.003333468
v 0.004571342 0.01280527 4.799843E-05
v 0.004571347 0.02379678 4.800081E-05
v -0.004564819 0.02379679 4.800081E-05
v -0.004564824 0.01280527 4.799366E-05
vt 0.4697122 0.8048015
vt 0.4645613 0.7762654
vt 0.009408908 0.7762655
vt 0.004258445 0.8048015
vt 0.004258432 0.7143414
vt 0.05813509 0.7683498
vt 0.5261214 0.7683449
vt 0.5799984 0.7143414
vt 0.003947988 0.5557823
vt 0.579688 0.5557824
vt 0.525811 0.5017788
vt 0.05782504 0.5017738
vt 0.0094093 0.994541
vt 0.4645615 0.9945408
vt 0.4697119 0.9661003
vt 0.004258818 0.9661003
vt 0.004258499 0.7061439
vt 0.5799984 0.7061439
vt 0.5799984 0.5647517
vt 0.004258432 0.5647517
vt 0.4657996 0.8126557
vt 0.008171077 0.8126557
vt 0.008171077 0.9582384
vt 0.4657996 0.9582384
vt 0.8533058 0.6586342
vt 0.8533058 0.7016446
vt 0.9950839 0.7016448
vt 0.9950839 0.6586343
vt 0.9950839 0.6498598
vt 0.9950839 0.6068496
vt 0.8533058 0.6068494
vt 0.8533058 0.6498597
vt 0.592793 0.5030687
vt 0.5907536 0.5622855
vt 0.7367334 0.5622856
vt 0.7345707 0.5030688
vt 0.7345707 0.6301053
vt 0.7367334 0.5708885
vt 0.5907536 0.5708883
vt 0.592793 0.630105
vt 0.9817956 0.8306552
vt 0.9885665 0.7917364
vt 0.9265237 0.8306552
vt 0.972689 0.7100364
vt 0.9174169 0.7100364
vt 0.9179547 0.7419868
vt 0.9179783 0.7501495
vt 0.9174169 0.782149
vt 0.9727195 0.782149
vt 0.9817958 0.8415329
vt 0.926493 0.8415329
vt 0.9885665 0.8804464
vt 0.9151252 0.7917364
vt 0.9083546 0.8306454
vt 0.9704276 0.7917364
vt 0.9365256 0.742039
vt 0.9918275 0.742039
vt 0.9912654 0.7100364
vt 0.9912894 0.782149
vt 0.9918275 0.750195
vt 0.9365562 0.750195
vt 0.9151252 0.8804464
vt 0.9703963 0.8804464
vt 0.9083546 0.841532
vt 0.7322636 0.8804442
vt 0.7322636 0.8507331
vt 0.6496524 0.8507331
vt 0.6496524 0.880444
vt 0.8168199 0.8507331
vt 0.8168199 0.8804442
vt 0.8994311 0.8804443
vt 0.8994311 0.8507332
vt 0.7413301 0.8804442
vt 0.8078732 0.880444
vt 0.8078732 0.8507331
vt 0.7413301 0.8507331
vt 0.640487 0.850733
vt 0.573944 0.850733
vt 0.573944 0.8804441
vt 0.640487 0.8804441
vt 0.4814848 0.9949536
vt 0.5640956 0.994954
vt 0.5640959 0.9284107
vt 0.4814848 0.9284107
vt 0.5745789 0.8889639
vt 0.5745789 0.9180887
vt 0.6571988 0.9180887
vt 0.6571968 0.8889639
vt 0.8575017 0.9180887
vt 0.8575017 0.8889639
vt 0.7748837 0.8889642
vt 0.7748818 0.9180887
vt 0.7658381 0.8889639
vt 0.6664408 0.8889639
vt 0.6664408 0.9180887
vt 0.7658391 0.9180887
vt 0.8667383 0.9180887
vt 0.9661367 0.9180887
vt 0.9661367 0.8889639
vt 0.8667394 0.8889639
vt 0.7452774 0.6852162
vt 0.7452774 0.7678362
vt 0.8446755 0.7678362
vt 0.8446755 0.6852164
vn -0.7279613 0 0.6856182
vn -0.7279613 0 0.6856182
vn -0.7279613 0 0.6856182
vn -0.7279613 0 0.6856182
vn -0.9012159 0 -0.4333704
vn -0.9012206 0 -0.4333607
vn -0.9012206 0 -0.4333607
vn -0.9012159 0 -0.4333704
vn 0.901742 0 -0.4322745
vn 0.901742 0 -0.4322745
vn 0.9017374 0 -0.4322842
vn 0.9017374 0 -0.4322842
vn 0.7291222 0 0.6843835
vn 0.7291222 0 0.6843835
vn 0.7291222 0 0.6843835
vn 0.7291222 0 0.6843835
vn 0 0 -1
vn 0 0 -1
vn 0 0 -1
vn 0 0 -1
vn 0 0 1
vn 0 0 1
vn 0 0 1
vn 0 0 1
vn 0 -1 0
vn 0 -1 0
vn 0 -1 0
vn 0 -1 0
vn 0 1 0
vn 0 1 0
vn 0 1 0
vn 0 1 0
vn 0 -0.5253739 0.8508715
vn 0 -0.5253739 0.8508715
vn 0 -0.5253393 0.8508928
vn 0 -0.5253393 0.8508928
vn 0 0.5253566 0.8508822
vn 0 0.5253566 0.8508822
vn 0 0.5253566 0.8508822
vn 0 0.5253566 0.8508822
vn 0.9013269 0.4331395 0
vn 0.9013269 0.4331395 0
vn 0.9013269 0.4331395 0
vn 0.6122997 0.4309606 0.6628439
vn 0.6122997 0.4309606 0.6628439
vn 0.6122997 0.4309606 0.6628439
vn -0.6110185 0.4314657 0.663697
vn -0.6110185 0.4314657 0.663697
vn -0.6110185 0.4314657 0.663697
vn -0.9008135 0.4342063 0
vn -0.9008135 0.4342063 0
vn -0.9008135 0.4342063 0
vn -0.9008135 -0.4342063 0
vn -0.9008135 -0.4342063 0
vn -0.9008135 -0.4342063 0
vn -0.6111087 -0.4314382 0.6636319
vn -0.6111087 -0.4314382 0.6636319
vn -0.6111087 -0.4314382 0.6636319
vn 0.6123537 -0.4309651 0.6627911
vn 0.6123537 -0.4309651 0.6627911
vn 0.6123537 -0.4309651 0.6627911
vn 0.9013176 -0.4331589 0
vn 0.9013176 -0.4331589 0
vn 0.9013176 -0.4331589 0
vn 0 1 0
vn 0 1 0
vn 0 1 0
vn 0 1 0
vn 0 -1 0
vn 0 -1 0
vn 0 -1 0
vn 0 -1 0
vn 1 0 0
vn 1 0 0
vn 1 0 0
vn 1 0 0
vn -1 0 0
vn -1 0 0
vn -1 0 0
vn -1 0 0
vn 0 0 -1
vn 0 0 -1
vn 0 0 -1
vn 0 0 -1
vn 0 1 0
vn 0 1 0
vn 0 1 0
vn 0 1 0
vn 0 -1 2.384131E-05
vn 0 -1 2.384131E-05
vn 0 -1 2.384131E-05
vn 0 -1 2.384131E-05
vn 1 0 7.152565E-05
vn 1 0 7.152565E-05
vn 1 0 7.152565E-05
vn 1 0 7.152565E-05
vn -1 0 0
vn -1 0 0
vn -1 0 0
vn -1 0 0
vn 0 0 -1
vn 0 0 -1
vn 0 0 -1
vn 0 0 -1
g mount_rahg_remington_2_inch_rahg_rail_section_LOD1_0
f 3/3/3 2/2/2 1/1/1
f 4/4/4 3/3/3 1/1/1
f 7/7/7 6/6/6 5/5/5
f 8/8/8 7/7/7 5/5/5
f 11/11/11 10/10/10 9/9/9
f 12/12/12 11/11/11 9/9/9
f 15/15/15 14/14/14 13/13/13
f 16/16/16 15/15/15 13/13/13
f 19/19/19 18/18/18 17/17/17
f 20/20/20 19/19/19 17/17/17
f 23/23/23 22/22/22 21/21/21
f 24/24/24 23/23/23 21/21/21
f 27/27/27 26/26/26 25/25/25
f 28/28/28 27/27/27 25/25/25
f 31/31/31 30/30/30 29/29/29
f 32/32/32 31/31/31 29/29/29
f 35/35/35 34/34/34 33/33/33
f 36/36/36 35/35/35 33/33/33
f 39/39/39 38/38/38 37/37/37
f 40/40/40 39/39/39 37/37/37
f 43/43/43 42/42/42 41/41/41
f 46/46/46 45/45/45 44/44/44
f 49/49/49 48/48/48 47/47/47
f 52/52/52 51/51/51 50/50/50
f 55/55/55 54/54/54 53/53/53
f 58/58/58 57/57/57 56/56/56
f 61/61/61 60/60/60 59/59/59
f 64/64/64 63/63/63 62/62/62
f 67/67/67 66/66/66 65/65/65
f 68/68/68 67/67/67 65/65/65
f 71/71/71 70/70/70 69/69/69
f 72/72/72 71/71/71 69/69/69
f 75/75/75 74/74/74 73/73/73
f 76/76/76 75/75/75 73/73/73
f 79/79/79 78/78/78 77/77/77
f 80/80/80 79/79/79 77/77/77
f 83/83/83 82/82/82 81/81/81
f 84/84/84 83/83/83 81/81/81
f 87/87/87 86/86/86 85/85/85
f 88/88/88 87/87/87 85/85/85
f 91/91/91 90/90/90 89/89/89
f 92/92/92 91/91/91 89/89/89
f 95/95/95 94/94/94 93/93/93
f 96/96/96 95/95/95 93/93/93
f 99/99/99 98/98/98 97/97/97
f 100/100/100 99/99/99 97/97/97
f 103/103/103 102/102/102 101/101/101
f 104/104/104 103/103/103 101/101/101
