g mount_all_unv_dloc_ird_LOD1
v -0.01689675 0.005264506 0.004961969
v -0.03469835 0.005264506 0.004961969
v -0.03469834 0.007528128 -0.000383172
v -0.01689675 0.007528128 -0.0003831717
v -0.03469834 0.005313489 -0.005693227
v -0.01689675 0.005313489 -0.005693227
v -0.03469834 -1.069215E-06 -0.007883173
v -0.01689675 -1.069215E-06 -0.007883173
v -0.01689675 -1.071659E-06 0.007116828
v -0.03469834 -1.071659E-06 0.007116828
v -0.01689675 -0.005266647 0.004961967
v -0.03469835 -0.005266647 0.004961967
v -0.01689675 -0.007530269 -0.000383173
v -0.03469834 -0.007530269 -0.0003831733
v -0.01689675 -0.005315628 -0.005693228
v -0.03469834 -0.005315628 -0.005693228
v -0.01689675 -1.069215E-06 -0.007883173
v -0.03469834 -1.069215E-06 -0.007883173
v -0.03469835 0.005264506 0.004961969
v -0.03469834 -1.071659E-06 0.007116828
v -0.03469834 -1.069215E-06 -0.007883173
v -0.03469835 -0.005266647 0.004961967
v -0.03469834 -0.007530269 -0.0003831733
v -0.03469834 -0.005315628 -0.005693228
v -0.03469834 0.007528128 -0.000383172
v -0.03469834 0.005313489 -0.005693227
v -0.01689675 0.005313489 -0.005693227
v -0.01689675 -0.007530269 -0.000383173
v -0.01689675 0.007528128 -0.0003831717
v -0.01689675 -0.005315628 -0.005693228
v -0.01689675 -1.069215E-06 -0.007883173
v 0.01714149 -0.02016144 0.01784805
v 0.01714149 -0.02016144 -0.005798102
v -0.01691232 -0.02016144 -0.005798101
v -0.01691232 -0.02016144 0.01784805
v 0.01714149 -0.02016144 -0.005798102
v 0.01714149 0.02015493 -0.005798095
v -0.01691232 0.02015493 -0.005798094
v -0.01691232 -0.02016144 -0.005798101
v 0.01714149 0.02015493 -0.005798095
v 0.01714149 0.02015493 0.01784806
v -0.01691232 0.02015493 0.01784806
v -0.01691232 0.02015493 -0.005798094
v 0.01714149 0.02015493 0.01784806
v 0.01714149 -0.02016144 0.01784805
v -0.01691232 -0.02016144 0.01784805
v -0.01691232 0.02015493 0.01784806
v -0.01691232 -0.02016144 0.01784805
v -0.01691232 -0.02016144 -0.005798101
v -0.01691232 0.02015493 -0.005798094
v -0.01691232 0.02015493 0.01784806
v 0.01714149 0.02015493 0.01784806
v 0.01714149 0.02015493 -0.005798095
v 0.01714149 -0.02016144 -0.005798102
v 0.01714149 -0.02016144 0.01784805
vt 0.2378924 0.3089149
vt 0.006450441 0.3091024
vt 0.006449901 0.3699405
vt 0.237893 0.3697529
vt 0.006450978 0.4302299
vt 0.2378919 0.4300422
vt 0.006452782 0.4929867
vt 0.2378956 0.4928086
vt 0.2378956 0.2473809
vt 0.006447267 0.2475684
vt 0.2378924 0.1858469
vt 0.006450441 0.1860344
vt 0.237893 0.125009
vt 0.006449896 0.1251965
vt 0.2378919 0.06471954
vt 0.006450977 0.06490708
vt 0.2378956 0.001953125
vt 0.006452781 0.002150186
vt 0.2346396 0.5226252
vt 0.1754389 0.4983881
vt 0.1754389 0.6670496
vt 0.1162381 0.5226251
vt 0.09078544 0.582724
vt 0.1156915 0.6424253
vt 0.2600923 0.5827241
vt 0.2351862 0.6424254
vt 0.2806885 0.5596124
vt 0.3941227 0.5292989
vt 0.2611291 0.5293044
vt 0.3745555 0.5604663
vt 0.3276239 0.57507
vt 0.3946422 0.9968064
vt 0.719359 0.9968432
vt 0.7194112 0.5292969
vt 0.3946421 0.5292603
vt 0.005010128 0.9972122
vt 0.390625 0.9971708
vt 0.3905904 0.6714562
vt 0.004975766 0.671497
vt 0.7192951 0.9968873
vt 0.3946425 0.9968432
vt 0.3946421 0.5292969
vt 0.719359 0.5293411
vt 0.5546826 0.001909971
vt 0.5546315 0.5247315
vt 0.9962401 0.5247747
vt 0.9962911 0.001953125
vt 0.9980469 0.5292969
vt 0.7239944 0.5292989
vt 0.7239978 0.9965552
vt 0.9980509 0.9965533
vt 0.5491929 0.001953125
vt 0.2425501 0.002007924
vt 0.2426437 0.5248294
vt 0.5492863 0.5247747
vn 0 0.7027981 0.7113894
vn 0 0.7027981 0.7113894
vn 0 0.9999963 0.002730893
vn 0 0.9999963 0.002730729
vn 0 0.7055967 -0.7086135
vn 0 0.7055968 -0.7086136
vn 0 1.436427E-07 -1
vn 0 1.436427E-07 -1
vn 0 -2.254999E-07 1
vn 0 -2.254998E-07 1
vn 0 -0.7027982 0.7113892
vn 0 -0.7027981 0.7113892
vn 0 -0.9999963 0.002730647
vn 0 -0.9999963 0.002730812
vn 0 -0.7055966 -0.7086138
vn 0 -0.7055966 -0.7086138
vn 0 1.436427E-07 -1
vn 0 1.436427E-07 -1
vn -1 -3.934308E-07 -2.099418E-07
vn -1 0 0
vn -1 0 -2.117956E-07
vn -1 3.93431E-07 -2.099416E-07
vn -1 -5.20493E-07 -5.225194E-07
vn -1 0 0
vn -1 5.204931E-07 -5.225194E-07
vn -1 0 0
vn 1 0 3.218478E-07
vn 1 0 5.128451E-07
vn 1 0 6.404749E-07
vn 1 0 1.939749E-07
vn 1 0 -1.088696E-06
vn 0 -1 -1.008276E-07
vn 0 -1 -1.008276E-07
vn 0 -1 -1.008276E-07
vn 0 -1 -1.008276E-07
vn 0 1.774108E-07 -1
vn 0 1.774108E-07 -1
vn 0 1.774108E-07 -1
vn 0 1.774108E-07 -1
vn 0 1 1.008276E-07
vn 0 1 1.008276E-07
vn 0 1 1.008276E-07
vn 0 1 1.008276E-07
vn 0 -1.774108E-07 1
vn 0 -1.774108E-07 1
vn 0 -1.774108E-07 1
vn 0 -1.774108E-07 1
vn -1 0 1.008276E-07
vn -1 0 1.008276E-07
vn -1 0 1.008276E-07
vn -1 0 1.008276E-07
vn 1 0 0
vn 1 0 0
vn 1 0 0
vn 1 0 0
g mount_all_unv_dloc_ird_LOD1_0
f 3/3/3 2/2/2 1/1/1
f 4/4/4 3/3/3 1/1/1
f 5/5/5 3/3/3 4/4/4
f 6/6/6 5/5/5 4/4/4
f 7/7/7 5/5/5 6/6/6
f 8/8/8 7/7/7 6/6/6
f 1/1/1 2/2/2 9/9/9
f 2/2/2 10/10/10 9/9/9
f 9/9/9 10/10/10 11/11/11
f 10/10/10 12/12/12 11/11/11
f 11/11/11 12/12/12 13/13/13
f 12/12/12 14/14/14 13/13/13
f 13/13/13 14/14/14 15/15/15
f 14/14/14 16/16/16 15/15/15
f 15/15/15 16/16/16 17/17/17
f 16/16/16 18/18/18 17/17/17
f 21/21/21 20/20/20 19/19/19
f 22/22/22 20/20/20 21/21/21
f 23/23/23 22/22/22 21/21/21
f 24/24/24 23/23/23 21/21/21
f 21/21/21 19/19/19 25/25/25
f 21/21/21 25/25/25 26/26/26
f 29/29/29 28/28/28 27/27/27
f 30/30/30 27/27/27 28/28/28
f 27/27/27 30/30/30 31/31/31
f 34/34/34 33/33/33 32/32/32
f 35/35/35 34/34/34 32/32/32
f 38/38/38 37/37/37 36/36/36
f 39/39/39 38/38/38 36/36/36
f 42/42/42 41/41/41 40/40/40
f 43/43/43 42/42/42 40/40/40
f 46/46/46 45/45/45 44/44/44
f 47/47/47 46/46/46 44/44/44
f 50/50/50 49/49/49 48/48/48
f 51/51/51 50/50/50 48/48/48
f 54/54/54 53/53/53 52/52/52
f 55/55/55 54/54/54 52/52/52
