g mount_p226_trijicon_rm50_LOD1
v -0.01472006 0.01194519 0.001032769
v -0.01310398 0.01194519 -0.0006327308
v 0.01347446 0.01194519 -0.0006327308
v 0.01509055 0.01194519 0.001032769
v -0.01472006 0.01194519 0.002698269
v 0.01509055 0.01194519 0.002698269
v 0.01509055 -0.03398226 0.001032774
v 0.01347446 -0.03398226 -0.0006327258
v -0.01310398 -0.03398226 -0.0006327258
v -0.01472006 -0.03398226 0.001032774
v 0.01509055 -0.03398226 0.002698275
v -0.01472006 -0.03398226 0.002698275
v 0.01347446 0.01194519 -0.0006327308
v 0.01347446 0.004857251 -0.00063273
v 0.01509055 0.01194519 0.001032769
v 0.01347446 -0.001816862 -0.0006327291
v 0.01178994 0.00485725 -0.002439052
v 0.01178994 -0.001816862 -0.002439051
v 0.01509055 -0.03398226 0.001032774
v 0.01347446 -0.03398226 -0.0006327258
v -0.01310398 -0.001816862 -0.0006327291
v -0.01472006 -0.03398226 0.001032774
v -0.01310398 -0.03398226 -0.0006327258
v -0.01472006 0.01194519 0.001032769
v -0.01310398 0.004857253 -0.00063273
v -0.01141946 -0.00181686 -0.002439051
v -0.01141946 0.004857251 -0.002439052
v -0.01310398 0.01194519 -0.0006327308
v 0.01178994 -0.001816862 -0.002439051
v 0.01178994 0.00485725 -0.002439052
v -0.01141946 0.004857251 -0.002439052
v -0.01141946 -0.00181686 -0.002439051
v -0.01472006 -0.03398226 0.002698275
v -0.01472006 0.01194519 0.002698269
v 0.01509055 0.01194519 0.002698269
v 0.01509055 -0.03398226 0.002698275
v 0.01509055 -0.03398226 0.002698275
v 0.01509055 0.01194519 0.002698269
v 0.01509055 0.01194519 0.001032769
v 0.01509055 -0.03398226 0.001032774
v -0.01472006 -0.03398226 0.002698275
v -0.01472006 -0.03398226 0.001032774
v -0.01472006 0.01194519 0.001032769
v -0.01472006 0.01194519 0.002698269
v -0.01310398 0.01194519 -0.0006327308
v -0.01310398 0.004857253 -0.00063273
v 0.01347446 0.004857251 -0.00063273
v 0.01347446 0.01194519 -0.0006327308
v -0.01310398 -0.001816862 -0.0006327291
v -0.01310398 -0.03398226 -0.0006327258
v 0.01347446 -0.03398226 -0.0006327258
v 0.01347446 -0.001816862 -0.0006327291
v 0.01347446 -0.001816862 -0.0006327291
v 0.01178994 -0.001816862 -0.002439051
v -0.01141946 -0.00181686 -0.002439051
v -0.01310398 -0.001816862 -0.0006327291
v -0.01310398 0.004857253 -0.00063273
v -0.01141946 0.004857251 -0.002439052
v 0.01178994 0.00485725 -0.002439052
v 0.01347446 0.004857251 -0.00063273
v 0.01410704 -0.0304109 0.002627873
v 0.01410704 -0.0304109 0.004656116
v 0.01137585 -0.02883405 0.004656116
v 0.01137585 -0.02883405 0.002627873
v 0.01137585 -0.02883405 0.002627873
v 0.01137585 -0.02883405 0.004656116
v 0.01137585 -0.03198774 0.004656117
v 0.01137585 -0.03198774 0.002627873
v 0.01137585 -0.03198774 0.002627873
v 0.01137585 -0.03198774 0.004656117
v 0.01410704 -0.0304109 0.004656116
v 0.01410704 -0.0304109 0.002627873
v 0.01410704 -0.0304109 0.004656116
v 0.01137585 -0.03198774 0.004656117
v 0.01137585 -0.02883405 0.004656116
v -0.01098156 -0.03199209 0.002627873
v -0.01098156 -0.03199209 0.004656117
v -0.01096644 -0.02883843 0.004656116
v -0.01096644 -0.02883843 0.002627873
v -0.01096644 -0.02883843 0.002627873
v -0.01096644 -0.02883843 0.004656116
v -0.01370515 -0.03040216 0.004656116
v -0.01370515 -0.03040216 0.002627873
v -0.01370515 -0.03040216 0.002627873
v -0.01370515 -0.03040216 0.004656116
v -0.01098156 -0.03199209 0.004656117
v -0.01098156 -0.03199209 0.002627873
v -0.01098156 -0.03199209 0.004656117
v -0.01370515 -0.03040216 0.004656116
v -0.01096644 -0.02883843 0.004656116
vt 0.3984302 0.07914315
vt 0.43076 0.1124616
vt 0.9624631 0.1124616
vt 0.9947925 0.07914315
vt 0.3984302 0.04582452
vt 0.9947925 0.04582452
vt 0.9909917 0.5239609
vt 0.9656851 0.4978803
vt 0.5494843 0.4978803
vt 0.5241774 0.5239609
vt 0.9909917 0.5500416
vt 0.5241774 0.5500416
vt 0.003549438 0.04099933
vt 0.1567973 0.04099933
vt 0.003549438 0.004989755
vt 0.3010978 0.04099933
vt 0.1567973 0.08005365
vt 0.3010978 0.08005365
vt 0.9965432 0.004989755
vt 0.9965432 0.04099907
vt 0.3010977 0.04099971
vt 0.9965432 0.004989755
vt 0.9965432 0.04099933
vt 0.003549245 0.004989755
vt 0.1567971 0.04099971
vt 0.3010977 0.08005365
vt 0.1567972 0.08005365
vt 0.003549245 0.04099971
vt 0.9934253 0.4906523
vt 0.9934253 0.3560993
vt 0.5255142 0.3560992
vt 0.5255142 0.4906523
vt 0.5184341 0.952301
vt 0.5184341 0.1596125
vt 0.003915338 0.1596125
vt 0.003915338 0.952301
vt 0.005520235 0.9588537
vt 0.9906837 0.9588537
vt 0.9906837 0.994579
vt 0.005520235 0.994579
vt 0.005520235 0.9588537
vt 0.005520235 0.994579
vt 0.9906806 0.994579
vt 0.9906806 0.9588537
vt 0.5265632 0.1482294
vt 0.5265632 0.2727651
vt 0.9935486 0.2727652
vt 0.9935486 0.1482294
vt 0.9911346 0.559263
vt 0.5225175 0.559263
vt 0.5225175 0.946484
vt 0.9911346 0.946484
vt 0.5196626 0.1547617
vt 0.4870116 0.1197496
vt 0.03713919 0.1197496
vt 0.004488151 0.1547617
vt 0.5196626 0.154762
vt 0.4870116 0.1197496
vt 0.03714 0.1197496
vt 0.004488967 0.154762
vt 0.6861155 0.338133
vt 0.6861155 0.3017431
vt 0.63157 0.3017431
vt 0.63157 0.338133
vt 0.63157 0.3017431
vt 0.63157 0.338133
vt 0.6861155 0.338133
vt 0.6861155 0.3017431
vt 0.63157 0.3017431
vt 0.63157 0.338133
vt 0.6861155 0.338133
vt 0.6861155 0.3017431
vt 0.6049457 0.3176606
vt 0.5569252 0.3455389
vt 0.556792 0.2900129
vt 0.63157 0.3017431
vt 0.63157 0.338133
vt 0.6861155 0.338133
vt 0.6861155 0.3017431
vt 0.6861155 0.338133
vt 0.6861155 0.3017431
vt 0.63157 0.3017431
vt 0.63157 0.338133
vt 0.63157 0.3017431
vt 0.63157 0.338133
vt 0.6861155 0.338133
vt 0.6861155 0.3017431
vt 0.5569252 0.3455389
vt 0.6049457 0.3176606
vt 0.556792 0.2900129
vn 0 1 0
vn 0 1 0
vn 0 1 0
vn 0 1 0
vn 0 1 0
vn 0 1 0
vn 0 -1 0
vn 0 -1 0
vn 0 -1 0
vn 0 -1 0
vn 0 -1 0
vn 0 -1 0
vn 0.7176728 -2.085437E-07 -0.6963804
vn 0.7222583 0 -0.6916234
vn 0.7176728 -1.795984E-07 -0.6963804
vn 0.7222583 0 -0.6916234
vn 0.7313349 0 -0.6820185
vn 0.7313349 0 -0.6820185
vn 0.7176728 0 -0.6963804
vn 0.7176728 0 -0.6963804
vn -0.7222583 -1.164896E-07 -0.6916234
vn -0.7176728 0 -0.6963804
vn -0.7176728 0 -0.6963804
vn -0.7176728 0 -0.6963804
vn -0.7222583 -1.08059E-07 -0.6916234
vn -0.7313346 -1.553675E-07 -0.6820188
vn -0.7313346 -1.553675E-07 -0.6820188
vn -0.7176728 0 -0.6963804
vn 0 -1.339608E-07 -1
vn 0 -1.339608E-07 -1
vn 0 -1.339608E-07 -1
vn 0 -1.339608E-07 -1
vn 0 1.16802E-07 1
vn 0 1.16802E-07 1
vn 0 1.16802E-07 1
vn 0 1.16802E-07 1
vn 1 0 0
vn 1 0 0
vn 1 0 0
vn 1 0 0
vn -1 0 0
vn -1 0 0
vn -1 0 0
vn -1 0 0
vn 0 -1.261396E-07 -1
vn 0 -1.261396E-07 -1
vn 0 -1.261396E-07 -1
vn 0 -1.261396E-07 -1
vn 0 -1.019187E-07 -1
vn 0 -1.019187E-07 -1
vn 0 -1.019187E-07 -1
vn 0 -1.019187E-07 -1
vn 0 -1 -4.949669E-07
vn 0 -1 -4.949669E-07
vn 0 -1 -4.949669E-07
vn 0 -1 -4.949669E-07
vn 0 1 -6.599558E-07
vn 0 1 -6.599558E-07
vn 0 1 -6.599558E-07
vn 0 1 -6.599558E-07
vn 0.4999997 0.8660256 -5.095988E-07
vn 0.4999996 0.8660256 -5.095987E-07
vn 0.4999997 0.8660256 -5.095988E-07
vn 0.4999997 0.8660256 -5.095988E-07
vn -1 0 0
vn -1 0 0
vn -1 0 0
vn -1 0 0
vn 0.5 -0.8660254 0
vn 0.5 -0.8660254 0
vn 0.4999999 -0.8660254 0
vn 0.5 -0.8660254 0
vn 0 3.779987E-07 1
vn 0 3.779986E-07 1
vn 0 3.779986E-07 1
vn 0.9999886 -0.004795294 0
vn 0.9999886 -0.004795294 0
vn 0.9999886 -0.004795294 0
vn 0.9999886 -0.004795294 0
vn -0.4958408 0.8684133 0
vn -0.4958408 0.8684133 0
vn -0.4958408 0.8684133 0
vn -0.4958409 0.8684133 0
vn -0.5041475 -0.8636176 0
vn -0.5041475 -0.8636175 0
vn -0.5041475 -0.8636176 0
vn -0.5041475 -0.8636176 0
vn 0 3.779945E-07 1
vn 0 3.779946E-07 1
vn 0 3.779945E-07 1
g mount_p226_trijicon_rm50_LOD1_0
f 3/3/3 2/2/2 1/1/1
f 4/4/4 3/3/3 1/1/1
f 4/4/4 1/1/1 5/5/5
f 6/6/6 4/4/4 5/5/5
f 9/9/9 8/8/8 7/7/7
f 10/10/10 9/9/9 7/7/7
f 10/10/10 7/7/7 11/11/11
f 12/12/12 10/10/10 11/11/11
f 15/15/15 14/14/14 13/13/13
f 14/14/14 15/15/15 16/16/16
f 17/17/17 14/14/14 16/16/16
f 18/18/18 17/17/17 16/16/16
f 15/15/15 19/19/19 16/16/16
f 20/20/20 16/16/16 19/19/19
f 23/23/23 22/22/22 21/21/21
f 22/22/22 24/24/24 21/21/21
f 24/24/24 25/25/25 21/21/21
f 21/21/21 25/25/25 26/26/26
f 25/25/25 27/27/27 26/26/26
f 28/28/28 25/25/25 24/24/24
f 31/31/31 30/30/30 29/29/29
f 32/32/32 31/31/31 29/29/29
f 35/35/35 34/34/34 33/33/33
f 36/36/36 35/35/35 33/33/33
f 39/39/39 38/38/38 37/37/37
f 40/40/40 39/39/39 37/37/37
f 43/43/43 42/42/42 41/41/41
f 44/44/44 43/43/43 41/41/41
f 47/47/47 46/46/46 45/45/45
f 48/48/48 47/47/47 45/45/45
f 51/51/51 50/50/50 49/49/49
f 52/52/52 51/51/51 49/49/49
f 55/55/55 54/54/54 53/53/53
f 56/56/56 55/55/55 53/53/53
f 59/59/59 58/58/58 57/57/57
f 60/60/60 59/59/59 57/57/57
f 63/63/63 62/62/62 61/61/61
f 64/64/64 63/63/63 61/61/61
f 67/67/67 66/66/66 65/65/65
f 68/68/68 67/67/67 65/65/65
f 71/71/71 70/70/70 69/69/69
f 72/72/72 71/71/71 69/69/69
f 75/75/75 74/74/74 73/73/73
f 78/78/78 77/77/77 76/76/76
f 79/79/79 78/78/78 76/76/76
f 82/82/82 81/81/81 80/80/80
f 83/83/83 82/82/82 80/80/80
f 86/86/86 85/85/85 84/84/84
f 87/87/87 86/86/86 84/84/84
f 90/90/90 89/89/89 88/88/88
