g mount_p226_trijicon_rm50_LOD0
v 0.01142141 -0.0332498 0.002667376
v 0.005278972 -0.03385352 0.002667377
v 0.01508984 0.009151983 0.002667384
v 0.001168118 -0.03400303 0.002667374
v 0.01508984 -0.03268441 0.002667378
v -0.0007956303 -0.03400303 0.002667376
v -0.01471936 0.009152098 0.002667383
v 0.01494866 0.0102999 0.002667384
v -0.01457618 0.0102999 0.002667383
v 0.01222651 0.01194362 0.002667384
v 0.01349637 0.01176106 0.002667388
v 0.01440419 0.01121313 0.002667383
v -0.01185403 0.01194362 0.002667381
v -0.01312389 0.01176106 0.002667384
v -0.0140317 0.01121313 0.002667384
v -0.004906483 -0.03385352 0.002667376
v -0.01104893 -0.0332498 0.002667375
v -0.01471936 -0.03268445 0.002667375
v 0.01418242 -0.03040492 0.002649349
v 0.01418242 -0.03040492 0.004649696
v 0.01382231 -0.02929663 0.004649697
v 0.01382231 -0.02929663 0.002649351
v 0.01287954 -0.02861167 0.004649696
v 0.01287954 -0.02861167 0.00264935
v 0.01171422 -0.02861167 0.004649696
v 0.01171422 -0.02861167 0.00264935
v 0.01077146 -0.02929663 0.004649696
v 0.01077146 -0.02929663 0.00264935
v 0.01041135 -0.03040492 0.004649696
v 0.01041135 -0.03040492 0.00264935
v 0.01077145 -0.03151321 0.004649696
v 0.01077146 -0.03151321 0.00264935
v 0.01171422 -0.03219816 0.004649695
v 0.01171422 -0.03219816 0.002649348
v 0.01287954 -0.03219816 0.004649695
v 0.01287955 -0.03219816 0.002649348
v 0.01287955 -0.03219816 0.002649348
v 0.01287954 -0.03219816 0.004649695
v 0.01382231 -0.03151321 0.004649696
v 0.01382231 -0.03151321 0.002649349
v 0.01382231 -0.02929663 0.004649697
v 0.01418242 -0.03040492 0.004649696
v 0.01382231 -0.03151321 0.004649696
v 0.01287954 -0.02861167 0.004649696
v 0.01171422 -0.02861167 0.004649696
v 0.01287954 -0.03219816 0.004649695
v 0.01077146 -0.02929663 0.004649696
v 0.01171422 -0.03219816 0.004649695
v 0.01041135 -0.03040492 0.004649696
v 0.01077145 -0.03151321 0.004649696
v -0.01004089 -0.03040492 0.002649345
v -0.01004089 -0.03040492 0.004649692
v -0.010401 -0.02929663 0.004649694
v -0.010401 -0.02929663 0.002649347
v -0.01134376 -0.02861167 0.004649694
v -0.01134376 -0.02861167 0.002649347
v -0.01250908 -0.02861167 0.004649693
v -0.01250908 -0.02861167 0.002649346
v -0.01345185 -0.02929663 0.004649694
v -0.01345185 -0.02929663 0.002649347
v -0.01381195 -0.03040492 0.004649693
v -0.01381195 -0.03040492 0.002649346
v -0.01345185 -0.03151321 0.004649694
v -0.01345185 -0.03151321 0.002649347
v -0.010401 -0.03151321 0.002649345
v -0.010401 -0.03151321 0.004649692
v -0.01134376 -0.03219817 0.002649345
v -0.01134376 -0.03219816 0.004649692
v -0.01250908 -0.03219817 0.002649347
v -0.01250908 -0.03219816 0.004649694
v -0.01345185 -0.03151321 0.002649347
v -0.01345185 -0.03151321 0.004649694
v -0.010401 -0.02929663 0.004649694
v -0.01004089 -0.03040492 0.004649692
v -0.010401 -0.03151321 0.004649692
v -0.01134376 -0.02861167 0.004649694
v -0.01250908 -0.02861167 0.004649693
v -0.01134376 -0.03219816 0.004649692
v -0.01345185 -0.02929663 0.004649694
v -0.01250908 -0.03219816 0.004649694
v -0.01381195 -0.03040492 0.004649693
v -0.01345185 -0.03151321 0.004649694
v 0.01508984 -0.03268441 0.002667378
v 0.01508984 -0.03268443 0.0009972515
v 0.01142141 -0.0332498 0.002667376
v 0.0134484 -0.03293636 -0.0006346317
v 0.01142141 -0.0332498 -0.0006346327
v 0.005278972 -0.03385352 -0.000634632
v 0.005278972 -0.03385352 0.002667377
v 0.001168118 -0.03400303 -0.0006346349
v 0.001168118 -0.03400303 0.002667374
v 0.0001862436 -0.03400303 -0.0006346339
v -0.0007956303 -0.03400303 0.002667376
v -0.0007956303 -0.03400303 -0.000634633
v -0.004906483 -0.03385352 -0.000634633
v -0.004906483 -0.03385352 0.002667376
v -0.01104893 -0.0332498 -0.0006346338
v -0.01104893 -0.0332498 0.002667375
v -0.01308654 -0.032937 -0.0006346338
v -0.01471936 -0.03268443 0.0009972441
v -0.01471936 -0.03268445 0.002667375
v -0.01471936 0.009152098 0.002667383
v -0.01471936 -0.03268445 0.002667375
v -0.01471936 -0.03268443 0.0009972441
v -0.01471935 0.009152098 0.0009972496
v -0.01457618 0.0102999 0.002667383
v -0.01457618 0.0102999 0.0008541222
v -0.0140317 0.01121313 0.002667384
v -0.0140317 0.01121313 0.0003099732
v -0.01185403 0.01194362 0.002667381
v -0.01185403 0.01194362 -0.0006346278
v 0.000186244 0.01194362 -0.0006346264
v -0.01312389 0.01176106 0.002667384
v -0.01308654 0.0117672 -0.0006346251
v -0.0140317 0.01121313 0.0003099732
v -0.0140317 0.01121313 0.002667384
v 0.01222651 0.01194362 0.002667384
v 0.01222651 0.01194362 -0.000634625
v 0.01349637 0.01176106 0.002667388
v 0.01344841 0.0117672 -0.0006346214
v 0.01440419 0.01121313 0.0003155928
v 0.01440419 0.01121313 0.002667383
v 0.01440419 0.01121313 0.002667383
v 0.01440419 0.01121313 0.0003155928
v 0.01494866 0.0102999 0.0008568942
v 0.01494866 0.0102999 0.002667384
v 0.01508984 0.009151983 0.0009972496
v 0.01508984 0.009151983 0.002667384
v 0.01508984 -0.03268441 0.002667378
v 0.01508984 -0.03268443 0.0009972515
v -0.01185403 0.01194362 -0.0006346278
v -0.01308654 0.0117672 -0.0006346251
v -0.01308654 0.004024535 -0.0006346307
v 0.0001809311 0.0040248 -0.0006346304
v 0.000186244 0.01194362 -0.0006346264
v 0.01142141 -0.0332498 -0.0006346327
v 0.0134484 -0.03293636 -0.0006346317
v 0.0134484 -0.001696661 -0.0006346307
v 0.005278972 -0.03385352 -0.000634632
v 0.001168118 -0.03400303 -0.0006346349
v 0.0001809302 -0.001697218 -0.0006346314
v 0.0001862436 -0.03400303 -0.0006346339
v 0.01164598 -0.00182833 -0.002432629
v 0.01164598 0.004832274 -0.002432628
v 0.0001822949 0.004832274 -0.002432628
v 0.000182293 -0.00182833 -0.002432629
v 0.0134484 -0.001696661 -0.0006346307
v 0.01164598 -0.00182833 -0.002432629
v 0.000182293 -0.00182833 -0.002432629
v 0.0001809302 -0.001697218 -0.0006346314
v 0.01164598 0.004832274 -0.002432628
v 0.0134484 0.004025064 -0.0006346302
v 0.0001822949 0.004832274 -0.002432628
v 0.0001809311 0.0040248 -0.0006346304
v 0.01222651 0.01194362 -0.000634625
v 0.0134484 0.004025064 -0.0006346302
v 0.01344841 0.0117672 -0.0006346214
v 0.0001809311 0.0040248 -0.0006346304
v 0.000186244 0.01194362 -0.0006346264
v -0.0007956303 -0.03400303 -0.000634633
v -0.01308654 -0.001697776 -0.000634632
v -0.004906483 -0.03385352 -0.000634633
v -0.01104893 -0.0332498 -0.0006346338
v -0.01308654 -0.032937 -0.0006346338
v 0.0001809302 -0.001697218 -0.0006346314
v 0.0001862436 -0.03400303 -0.0006346339
v -0.01471935 0.009152098 0.0009972496
v -0.01471936 -0.03268443 0.0009972441
v -0.01308654 -0.001697776 -0.000634632
v -0.01308654 0.004024535 -0.0006346307
v -0.01128139 -0.00182833 -0.002432629
v -0.01128139 0.004832274 -0.002432628
v -0.01308654 0.0117672 -0.0006346251
v -0.0140317 0.01121313 0.0003099732
v -0.01457618 0.0102999 0.0008541222
v -0.01308654 -0.032937 -0.0006346338
v 0.0134484 -0.03293636 -0.0006346317
v 0.01508984 -0.03268443 0.0009972515
v 0.0134484 -0.001696661 -0.0006346307
v 0.01508984 0.009151983 0.0009972496
v 0.0134484 0.004025064 -0.0006346302
v 0.01344841 0.0117672 -0.0006346214
v 0.01440419 0.01121313 0.0003155928
v 0.01494866 0.0102999 0.0008568942
v 0.01164598 0.004832274 -0.002432628
v 0.01164598 -0.00182833 -0.002432629
v 0.000182293 -0.00182833 -0.002432629
v 0.0001822949 0.004832274 -0.002432628
v -0.01128139 -0.00182833 -0.002432629
v -0.01128139 0.004832274 -0.002432628
v 0.0001809302 -0.001697218 -0.0006346314
v 0.000182293 -0.00182833 -0.002432629
v -0.01308654 -0.001697776 -0.000634632
v -0.01128139 -0.00182833 -0.002432629
v 0.0001822949 0.004832274 -0.002432628
v 0.0001809311 0.0040248 -0.0006346304
v -0.01308654 0.004024535 -0.0006346307
v -0.01128139 0.004832274 -0.002432628
vt 0.1202559 0.8737176
vt 0.225933 0.8841038
vt 0.05714494 0.1442169
vt 0.2966575 0.8866763
vt 0.05714277 0.8639896
vt 0.3304428 0.8866763
vt 0.5699958 0.1442162
vt 0.05957397 0.1244677
vt 0.5675321 0.1244681
vt 0.1064067 0.09618775
vt 0.08455963 0.09932838
vt 0.06894097 0.1087553
vt 0.5206974 0.09618666
vt 0.5425454 0.09932875
vt 0.5581641 0.1087559
vt 0.4011676 0.8841031
vt 0.5068453 0.8737172
vt 0.569993 0.8639907
vt 0.6021988 0.02516483
vt 0.6021988 0.05957954
vt 0.6222486 0.05957954
vt 0.6222486 0.02516483
vt 0.6422968 0.05957954
vt 0.6422968 0.02516483
vt 0.6623458 0.05957954
vt 0.6623458 0.02516483
vt 0.682394 0.05957954
vt 0.682394 0.02516483
vt 0.702443 0.05957954
vt 0.702443 0.02516483
vt 0.7224926 0.05957954
vt 0.7224926 0.02516483
vt 0.7425416 0.05957954
vt 0.7425416 0.02516483
vt 0.7625895 0.05957954
vt 0.7625895 0.02516483
vt 0.562103 0.02516483
vt 0.562103 0.05957954
vt 0.5821509 0.05957954
vt 0.5821509 0.02516483
vt 0.6350767 0.1305638
vt 0.6288813 0.1114965
vt 0.6350767 0.09242851
vt 0.6512962 0.1423479
vt 0.6713452 0.1423479
vt 0.6512962 0.08064438
vt 0.687565 0.1305638
vt 0.6713452 0.08064438
vt 0.69376 0.1114965
vt 0.6875647 0.09242883
vt 0.6823955 0.02516483
vt 0.6823955 0.05957954
vt 0.6623461 0.05957954
vt 0.6623461 0.02516483
vt 0.6422971 0.05957954
vt 0.6422971 0.02516483
vt 0.6222482 0.05957954
vt 0.6222482 0.02516483
vt 0.6021984 0.05957954
vt 0.6021984 0.02516483
vt 0.5821494 0.05957954
vt 0.5821494 0.02516483
vt 0.5621034 0.05957954
vt 0.5621034 0.02516483
vt 0.7024447 0.02516483
vt 0.7024447 0.05957954
vt 0.7224937 0.02516483
vt 0.7224937 0.05957954
vt 0.7425427 0.02516483
vt 0.7425427 0.05957954
vt 0.7625895 0.02516483
vt 0.7625895 0.05957954
vt 0.687565 0.1305638
vt 0.6937604 0.1114965
vt 0.687565 0.09242883
vt 0.6713448 0.1423483
vt 0.6512966 0.1423483
vt 0.6713452 0.08064438
vt 0.6350767 0.1305638
vt 0.6512966 0.08064438
vt 0.6288817 0.1114965
vt 0.6350771 0.09242883
vt 0.5762728 0.9724108
vt 0.5762728 0.9436757
vt 0.5124105 0.9724092
vt 0.5477009 0.9155977
vt 0.5124112 0.9155977
vt 0.4062194 0.9155977
vt 0.4062194 0.9724085
vt 0.3354464 0.9155977
vt 0.3354461 0.9724075
vt 0.3185536 0.9155985
vt 0.3016611 0.9724067
vt 0.3016611 0.9155985
vt 0.230891 0.9155992
vt 0.230891 0.9724067
vt 0.1247086 0.9155996
vt 0.1247083 0.9724064
vt 0.08924332 0.9155996
vt 0.06081915 0.9436738
vt 0.06081915 0.9724064
vt 0.5821658 0.1852748
vt 0.5821658 0.9050744
vt 0.611109 0.9050506
vt 0.6105264 0.1852521
vt 0.5821658 0.1653744
vt 0.6129725 0.1653492
vt 0.5821658 0.1470825
vt 0.6223193 0.1470494
vt 0.4789596 0.07423046
vt 0.4789574 0.01784272
vt 0.2718216 0.01785152
vt 0.5010302 0.07423046
vt 0.5003776 0.017842
vt 0.5192391 0.03407699
vt 0.5192725 0.07423046
vt 0.06468841 0.07423046
vt 0.06468607 0.01785965
vt 0.04261777 0.07423046
vt 0.04344692 0.01786019
vt 0.02442222 0.03418629
vt 0.0243757 0.07423046
vt 0.0457353 0.1671665
vt 0.005690908 0.16712
vt 0.01498235 0.1854227
vt 0.0457353 0.1854583
vt 0.01696922 0.2053234
vt 0.0457353 0.2053559
vt 0.0457353 0.9251606
vt 0.01696922 0.925128
vt 0.7852826 0.9853632
vt 0.7641697 0.9823275
vt 0.7641697 0.8491241
vt 0.9924289 0.8491241
vt 0.9924289 0.9853632
vt 0.9573236 0.6178584
vt 0.9922884 0.6124654
vt 0.9922883 0.07501321
vt 0.8516464 0.6282446
vt 0.7809212 0.6308172
vt 0.7640287 0.07501321
vt 0.7640287 0.6308172
vt 0.7795429 0.6736376
vt 0.7795429 0.7882297
vt 0.9767694 0.7882293
vt 0.9767694 0.6736372
vt 0.6739315 0.9740852
vt 0.7049059 0.943011
vt 0.7049058 0.7455223
vt 0.6739311 0.7454989
vt 0.7063825 0.5260963
vt 0.6739951 0.4936294
vt 0.7063825 0.7325934
vt 0.6739951 0.732618
vt 0.7852826 0.9853632
vt 0.7641697 0.8491241
vt 0.7641697 0.9823272
vt 0.9924289 0.8491241
vt 0.9924289 0.9853632
vt 0.7809212 0.6308172
vt 0.9922883 0.07501321
vt 0.8516464 0.6282446
vt 0.9573236 0.6178584
vt 0.9922884 0.6124766
vt 0.7640287 0.07501321
vt 0.7640287 0.6308172
vt 0.6236189 0.270363
vt 0.6236128 0.9901394
vt 0.6633335 0.457029
vt 0.6633343 0.3585792
vt 0.7071674 0.4592756
vt 0.7071686 0.3446823
vt 0.6633343 0.2253734
vt 0.6403455 0.2349053
vt 0.6271022 0.2506162
vt 0.6633284 0.9944854
vt 0.7162887 0.8693264
vt 0.7561101 0.8649919
vt 0.7162891 0.3318649
vt 0.7561105 0.145219
vt 0.7162895 0.2334248
vt 0.7162887 0.1002262
vt 0.7394762 0.109758
vt 0.7526853 0.1254694
vt 0.6724883 0.2195369
vt 0.6724883 0.3341295
vt 0.9767694 0.6736372
vt 0.9767694 0.7882293
vt 0.7795432 0.6736372
vt 0.7795432 0.7882293
vt 0.6739311 0.7455457
vt 0.7049058 0.7455223
vt 0.6739311 0.9740852
vt 0.7049059 0.943011
vt 0.7063825 0.7326425
vt 0.6739951 0.732618
vt 0.6739951 0.4936294
vt 0.7063825 0.5261452
vn -1.070355E-07 -1.734821E-07 1
vn -3.208942E-07 0 1
vn 0 0 1
vn -2.453195E-07 -1.172419E-07 1
vn -4.654825E-07 -1.424708E-07 1
vn 0 -1.735762E-07 1
vn 0 0 1
vn -1.142247E-07 -4.047518E-07 1
vn 4.019761E-07 -4.779374E-07 1
vn -1.222511E-07 0 1
vn -4.104542E-07 -2.855518E-06 1
vn -4.104542E-07 -2.855518E-06 1
vn 2.615391E-07 0 1
vn 2.463589E-06 -3.264467E-06 1
vn 2.463589E-06 -3.264467E-06 1
vn 0 -1.729959E-07 1
vn -1.339048E-07 -1.94333E-07 1
vn 0 -1.852114E-07 1
vn 1 0 1.49657E-07
vn 1 1.695675E-07 1.496568E-07
vn 0.8090174 0.5877848 0
vn 0.8090174 0.5877846 0
vn 0.3090175 0.9510564 0
vn 0.3090174 0.9510564 0
vn -0.3090189 0.9510559 0
vn -0.3090189 0.9510559 0
vn -0.8090181 0.5877836 0
vn -0.8090181 0.5877836 0
vn -1 7.979648E-07 -2.966885E-07
vn -1 7.979648E-07 -2.966885E-07
vn -0.8090176 -0.5877844 -6.642672E-07
vn -0.8090173 -0.5877848 -6.642673E-07
vn -0.3090172 -0.9510565 -3.675788E-07
vn -0.3090166 -0.9510567 -3.675781E-07
vn 0.3090169 -0.9510565 2.756838E-07
vn 0.3090172 -0.9510565 2.75684E-07
vn 0.3090172 -0.9510565 2.75684E-07
vn 0.3090169 -0.9510565 2.756838E-07
vn 0.8090172 -0.587785 4.253408E-07
vn 0.8090171 -0.587785 4.253408E-07
vn -7.402292E-07 -5.378081E-07 1
vn -7.402292E-07 -5.378081E-07 1
vn -4.423934E-07 -3.214178E-07 1
vn -4.423933E-07 -3.214177E-07 1
vn -1.310582E-07 -2.492877E-07 1
vn -1.31058E-07 -2.492877E-07 1
vn 2.323065E-07 -1.869661E-07 1
vn 2.323071E-07 -1.869658E-07 1
vn 6.86231E-07 0 1
vn 6.862309E-07 0 1
vn 1 -3.191861E-07 2.980013E-07
vn 1 0 2.980013E-07
vn 0.8090169 0.5877853 2.40239E-07
vn 0.8090172 0.5877849 2.402391E-07
vn 0.3090169 0.9510565 0
vn 0.3090167 0.9510565 0
vn -0.3090171 0.9510565 0
vn -0.3090171 0.9510565 0
vn -0.8090171 0.5877851 -2.389266E-07
vn -0.8090171 0.5877852 -2.389266E-07
vn -1 1.206921E-06 -1.470319E-07
vn -1 1.206923E-06 -1.470319E-07
vn -0.8090173 -0.5877848 1.627849E-07
vn -0.8090174 -0.5877846 1.627848E-07
vn 0.809017 -0.5877852 5.881259E-07
vn 0.8090169 -0.5877853 5.881261E-07
vn 0.309017 -0.9510565 1.065081E-06
vn 0.3090166 -0.9510567 1.065081E-06
vn -0.3090161 -0.9510568 7.893967E-07
vn -0.3090168 -0.9510565 7.893957E-07
vn -0.8090174 -0.5877846 1.627848E-07
vn -0.8090173 -0.5877848 1.627849E-07
vn 2.62117E-07 -8.067129E-07 1
vn 2.62117E-07 -8.067129E-07 1
vn -1.310588E-07 -5.756103E-07 1
vn -1.310588E-07 -5.756103E-07 1
vn 4.64613E-07 -1.246441E-07 1
vn 4.646129E-07 -1.246441E-07 1
vn 7.219498E-07 1.86966E-07 1
vn 7.219492E-07 1.869659E-07 1
vn -6.862313E-07 0 1
vn -6.862313E-07 0 1
vn 0.152325 -0.9883305 8.465335E-06
vn 0.1523779 -0.9883223 -0.0001220941
vn 0.1251547 -0.9921371 -8.916889E-05
vn 0.1524285 -0.9883144 -0.0002470481
vn 0.1251687 -0.9921355 -0.0001235708
vn 0.06711272 -0.9977453 0
vn 0.06711274 -0.9977453 0
vn 0.01817692 -0.9998348 0
vn 0.01817692 -0.9998348 0
vn 0 -1 0
vn -0.01817693 -0.9998348 0
vn -0.01817692 -0.9998348 0
vn -0.06711271 -0.9977453 0
vn -0.06711272 -0.9977453 0
vn -0.1250198 -0.9921543 0.0001244613
vn -0.1250338 -0.9921524 8.964464E-05
vn -0.152132 -0.9883602 0.0002488363
vn -0.1521826 -0.9883524 0.0001224311
vn -0.1522357 -0.9883442 -9.880233E-06
vn -0.9980755 0.06201114 -6.977182E-07
vn -1 0 -7.137716E-07
vn -1 0 -7.137715E-07
vn -0.9979274 0.06434939 -6.970588E-07
vn -0.9457621 0.3248599 -3.468776E-07
vn -0.9335288 0.3585023 -2.874668E-07
vn -0.7070984 0.7071139 -0.001262744
vn -0.6418885 0.7667962 -0.001698613
vn -0.071181 0.9974635 5.821931E-05
vn -0.07118089 0.9974635 5.821923E-05
vn 0 1 0
vn -0.3348544 0.9422691 -0.001198439
vn -0.2760674 0.9611379 -0.0007931079
vn -0.6418885 0.7667962 -0.001698613
vn -0.7070984 0.7071139 -0.001262744
vn 0.07147974 0.997442 -5.843803E-05
vn 0.0714796 0.9974421 -5.843792E-05
vn 0.334496 0.9423954 -0.001805664
vn 0.2754174 0.9613239 -0.001280845
vn 0.6409978 0.7675391 -0.002354916
vn 0.7063587 0.7078519 -0.001752054
vn 0.7063587 0.7078519 -0.001752054
vn 0.6409978 0.7675391 -0.002354916
vn 0.9338809 0.3575841 0
vn 0.9460431 0.3240408 0
vn 0.9979876 0.06341013 0
vn 0.9981288 0.06114678 0
vn 1 0 0
vn 1 0 0
vn -9.388033E-07 5.513585E-07 -1
vn -2.280887E-06 7.313295E-07 -1
vn -2.039531E-07 4.080784E-07 -1
vn 0 5.114804E-07 -1
vn 1.175756E-07 5.07991E-07 -1
vn 1.517492E-07 0 -1
vn 5.101718E-07 0 -1
vn 0 0 -1
vn 3.891808E-07 0 -1
vn -2.457705E-07 0 -1
vn 0 0 -1
vn -9.864641E-07 0 -1
vn 0 0 -1
vn 0 0 -1
vn 0 0 -1
vn 0 0 -1
vn 7.202992E-06 -0.9973333 0.07298215
vn 0 -0.9973294 0.07303502
vn 3.830959E-05 -0.9973519 0.07272758
vn 4.191316E-05 -0.9973519 0.07272758
vn 0 0.91228 0.409567
vn -3.23523E-06 0.9122711 0.4095869
vn -1.64963E-05 0.9122299 0.4096788
vn -1.820614E-05 0.9122298 0.4096788
vn 1.346212E-06 8.334362E-07 -1
vn 3.215071E-07 7.082419E-07 -1
vn 3.09078E-06 1.13556E-06 -1
vn 0 5.114804E-07 -1
vn 1.175756E-07 5.07991E-07 -1
vn -4.456107E-07 0 -1
vn 0 0 -1
vn 0 0 -1
vn 0 0 -1
vn 0 0 -1
vn 0 0 -1
vn -9.864641E-07 0 -1
vn -0.7069044 1.357255E-07 -0.707309
vn -0.7069044 1.357255E-07 -0.707309
vn -0.7069045 1.357255E-07 -0.707309
vn -0.7069044 1.357255E-07 -0.707309
vn -0.7057022 1.210302E-07 -0.7085086
vn -0.7057022 1.210302E-07 -0.7085086
vn -0.7068887 -1.636334E-05 -0.7073249
vn -0.7068887 -1.636334E-05 -0.7073249
vn -0.7068887 -1.636334E-05 -0.7073249
vn -0.7069036 0 -0.7073098
vn 0.7050392 0 -0.7091683
vn 0.7050392 0 -0.7091684
vn 0.7050392 0 -0.7091683
vn 0.7050391 -5.055537E-07 -0.7091684
vn 0.7050397 0 -0.7091678
vn 0.7050391 -5.055537E-07 -0.7091684
vn 0.7050392 -5.055537E-07 -0.7091684
vn 0.7050391 -5.055537E-07 -0.7091684
vn 0.7062379 0 -0.7079746
vn 0.7062379 0 -0.7079746
vn 0 0 -1
vn 0 0 -1
vn 0 1.192396E-07 -1
vn 0 1.342325E-07 -1
vn 4.191316E-05 -0.9973519 0.07272758
vn 3.830959E-05 -0.9973519 0.07272758
vn 7.216366E-06 -0.9973704 0.0724727
vn 0 -0.9973743 0.07241974
vn -1.64963E-05 0.9122299 0.4096788
vn -1.820614E-05 0.9122298 0.4096788
vn -3.228586E-06 0.9121885 0.4097708
vn 0 0.9121796 0.4097907
g mount_p226_trijicon_rm50_LOD0_0
f 3/3/3 2/2/2 1/1/1
f 4/4/4 2/2/2 3/3/3
f 5/5/5 3/3/3 1/1/1
f 6/6/6 4/4/4 3/3/3
f 7/7/7 6/6/6 3/3/3
f 7/7/7 3/3/3 8/8/8
f 9/9/9 7/7/7 8/8/8
f 9/9/9 8/8/8 10/10/10
f 11/11/11 10/10/10 8/8/8
f 12/12/12 11/11/11 8/8/8
f 13/13/13 9/9/9 10/10/10
f 9/9/9 13/13/13 14/14/14
f 15/15/15 9/9/9 14/14/14
f 16/16/16 6/6/6 7/7/7
f 17/17/17 16/16/16 7/7/7
f 18/18/18 17/17/17 7/7/7
f 21/21/21 20/20/20 19/19/19
f 22/22/22 21/21/21 19/19/19
f 23/23/23 21/21/21 22/22/22
f 24/24/24 23/23/23 22/22/22
f 25/25/25 23/23/23 24/24/24
f 26/26/26 25/25/25 24/24/24
f 27/27/27 25/25/25 26/26/26
f 28/28/28 27/27/27 26/26/26
f 29/29/29 27/27/27 28/28/28
f 30/30/30 29/29/29 28/28/28
f 31/31/31 29/29/29 30/30/30
f 32/32/32 31/31/31 30/30/30
f 33/33/33 31/31/31 32/32/32
f 34/34/34 33/33/33 32/32/32
f 35/35/35 33/33/33 34/34/34
f 36/36/36 35/35/35 34/34/34
f 39/39/39 38/38/38 37/37/37
f 40/40/40 39/39/39 37/37/37
f 20/20/20 39/39/39 40/40/40
f 19/19/19 20/20/20 40/40/40
f 43/43/43 42/42/42 41/41/41
f 44/44/44 43/43/43 41/41/41
f 43/43/43 44/44/44 45/45/45
f 46/46/46 43/43/43 45/45/45
f 46/46/46 45/45/45 47/47/47
f 48/48/48 46/46/46 47/47/47
f 48/48/48 47/47/47 49/49/49
f 50/50/50 48/48/48 49/49/49
f 53/53/53 52/52/52 51/51/51
f 54/54/54 53/53/53 51/51/51
f 55/55/55 53/53/53 54/54/54
f 56/56/56 55/55/55 54/54/54
f 57/57/57 55/55/55 56/56/56
f 58/58/58 57/57/57 56/56/56
f 59/59/59 57/57/57 58/58/58
f 60/60/60 59/59/59 58/58/58
f 61/61/61 59/59/59 60/60/60
f 62/62/62 61/61/61 60/60/60
f 63/63/63 61/61/61 62/62/62
f 64/64/64 63/63/63 62/62/62
f 51/51/51 52/52/52 65/65/65
f 52/52/52 66/66/66 65/65/65
f 65/65/65 66/66/66 67/67/67
f 66/66/66 68/68/68 67/67/67
f 67/67/67 68/68/68 69/69/69
f 68/68/68 70/70/70 69/69/69
f 69/69/69 70/70/70 71/71/71
f 70/70/70 72/72/72 71/71/71
f 75/75/75 74/74/74 73/73/73
f 76/76/76 75/75/75 73/73/73
f 75/75/75 76/76/76 77/77/77
f 78/78/78 75/75/75 77/77/77
f 78/78/78 77/77/77 79/79/79
f 80/80/80 78/78/78 79/79/79
f 80/80/80 79/79/79 81/81/81
f 82/82/82 80/80/80 81/81/81
f 85/85/85 84/84/84 83/83/83
f 86/86/86 84/84/84 85/85/85
f 87/87/87 86/86/86 85/85/85
f 88/88/88 87/87/87 85/85/85
f 89/89/89 88/88/88 85/85/85
f 90/90/90 88/88/88 89/89/89
f 91/91/91 90/90/90 89/89/89
f 92/92/92 90/90/90 91/91/91
f 93/93/93 92/92/92 91/91/91
f 94/94/94 92/92/92 93/93/93
f 95/95/95 94/94/94 93/93/93
f 96/96/96 95/95/95 93/93/93
f 97/97/97 95/95/95 96/96/96
f 98/98/98 97/97/97 96/96/96
f 99/99/99 97/97/97 98/98/98
f 100/100/100 99/99/99 98/98/98
f 101/101/101 100/100/100 98/98/98
f 104/104/104 103/103/103 102/102/102
f 105/105/105 104/104/104 102/102/102
f 105/105/105 102/102/102 106/106/106
f 107/107/107 105/105/105 106/106/106
f 107/107/107 106/106/106 108/108/108
f 109/109/109 107/107/107 108/108/108
f 112/112/112 111/111/111 110/110/110
f 110/110/110 111/111/111 113/113/113
f 111/111/111 114/114/114 113/113/113
f 114/114/114 115/115/115 113/113/113
f 115/115/115 116/116/116 113/113/113
f 117/117/117 112/112/112 110/110/110
f 118/118/118 112/112/112 117/117/117
f 118/118/118 117/117/117 119/119/119
f 120/120/120 118/118/118 119/119/119
f 121/121/121 120/120/120 119/119/119
f 122/122/122 121/121/121 119/119/119
f 125/125/125 124/124/124 123/123/123
f 126/126/126 125/125/125 123/123/123
f 127/127/127 125/125/125 126/126/126
f 128/128/128 127/127/127 126/126/126
f 127/127/127 128/128/128 129/129/129
f 130/130/130 127/127/127 129/129/129
f 133/133/133 132/132/132 131/131/131
f 134/134/134 133/133/133 131/131/131
f 135/135/135 134/134/134 131/131/131
f 138/138/138 137/137/137 136/136/136
f 139/139/139 138/138/138 136/136/136
f 140/140/140 138/138/138 139/139/139
f 141/141/141 138/138/138 140/140/140
f 142/142/142 141/141/141 140/140/140
f 145/145/145 144/144/144 143/143/143
f 146/146/146 145/145/145 143/143/143
f 149/149/149 148/148/148 147/147/147
f 150/150/150 149/149/149 147/147/147
f 153/153/153 152/152/152 151/151/151
f 154/154/154 152/152/152 153/153/153
f 157/157/157 156/156/156 155/155/155
f 156/156/156 158/158/158 155/155/155
f 155/155/155 158/158/158 159/159/159
f 162/162/162 161/161/161 160/160/160
f 163/163/163 161/161/161 162/162/162
f 164/164/164 161/161/161 163/163/163
f 161/161/161 165/165/165 160/160/160
f 160/160/160 165/165/165 166/166/166
f 169/169/169 168/168/168 167/167/167
f 170/170/170 169/169/169 167/167/167
f 171/171/171 169/169/169 170/170/170
f 172/172/172 171/171/171 170/170/170
f 173/173/173 170/170/170 167/167/167
f 174/174/174 173/173/173 167/167/167
f 175/175/175 174/174/174 167/167/167
f 176/176/176 168/168/168 169/169/169
f 179/179/179 178/178/178 177/177/177
f 180/180/180 178/178/178 179/179/179
f 181/181/181 180/180/180 179/179/179
f 182/182/182 180/180/180 181/181/181
f 180/180/180 182/182/182 183/183/183
f 184/184/184 180/180/180 183/183/183
f 185/185/185 181/181/181 179/179/179
f 186/186/186 185/185/185 179/179/179
f 189/189/189 188/188/188 187/187/187
f 190/190/190 188/188/188 189/189/189
f 193/193/193 192/192/192 191/191/191
f 194/194/194 192/192/192 193/193/193
f 197/197/197 196/196/196 195/195/195
f 198/198/198 197/197/197 195/195/195
