g mount_ak_tactica_tula_10000_LOD1
v 0.004401143 -0.09303465 0.005679097
v 0.00806359 0.08882248 0.005679093
v 0.00806359 -0.09303465 0.005679092
v 0.004401143 0.08882248 0.005679097
v 0.01058696 -0.09466702 0.002623494
v 0.004401143 -0.09303465 0.005679097
v 0.00806359 -0.09303465 0.005679092
v 0.004401476 -0.0946658 0.002625798
v 0.01058696 -0.09466702 0.002623494
v 0.00806359 0.08882248 0.005679093
v 0.01058696 0.0912104 0.002623495
v 0.00806359 -0.09303465 0.005679092
v 0.01058696 0.0912104 0.002623495
v 0.00806359 0.08882248 0.005679093
v 0.004401143 0.08882248 0.005679097
v 0.004401477 0.09120859 0.002625799
v 0.008062755 0.09317409 0.0001107344
v 0 0.09120859 0.002625799
v 0.01058673 0.09467918 -0.002121437
v 0 0.09468025 -0.002027585
v 0.01058696 0.0912104 0.002623495
v 0.008062755 -0.09466702 0.0001107343
v 0.01058696 -0.09466702 0.002623494
v 0.008062755 0.09317409 0.0001107344
v 0.01058696 -0.09466702 0.002623494
v 0.008062755 -0.09466702 0.0001107343
v 0.004401476 -0.0946658 0.002625798
v 0 -0.0946658 0.002625798
v 0 -0.09466702 -0.002027585
v 0.01058673 -0.09466702 -0.002121437
v 0.003327479 -0.09466701 -0.002612124
v 0.005977935 -0.09466701 -0.003872121
v 0.007702909 -0.09466702 -0.005300933
v 0.008421826 -0.09466702 -0.005300934
v 0 0.09120859 0.002625799
v 0.01058673 0.09467918 -0.002121437
v 0.008062755 0.09317409 0.0001107344
v 0.008062755 0.09317409 0.0001107344
v 0.01058673 -0.09466702 -0.002121437
v 0.008062755 -0.09466702 0.0001107343
v 0.01058673 0.09467918 -0.002121437
v 0 0.09468025 -0.002027585
v 0.003327565 0.09468025 -0.002612194
v 0.01058673 0.09467918 -0.002121437
v 0.005977917 0.09468025 -0.003872086
v 0.008421826 0.09468025 -0.005300934
v 0.007702909 0.09468025 -0.005300933
v 0.01058673 0.09467918 -0.002121437
v 0.008421826 -0.09466702 -0.005300934
v 0.01058673 -0.09466702 -0.002121437
v 0.008421826 0.09468025 -0.005300934
v 0.004401477 0.09120859 0.002625799
v 0.004401143 -0.09303465 0.005679097
v 0.004401476 -0.0946658 0.002625798
v 0.004401143 0.08882248 0.005679097
v 0 0.09120859 0.002625799
v 0.004401476 -0.0946658 0.002625798
v 0 -0.0946658 0.002625798
v 0.004401477 0.09120859 0.002625799
v 0.007702909 -0.09466702 -0.005300933
v 0.008421826 0.09468025 -0.005300934
v 0.007702909 0.09468025 -0.005300933
v 0.008421826 -0.09466702 -0.005300934
v 0.005977935 -0.09466701 -0.003872121
v 0.007702909 0.09468025 -0.005300933
v 0.005977917 0.09468025 -0.003872086
v 0.007702909 -0.09466702 -0.005300933
v 0.003327479 -0.09466701 -0.002612124
v 0.005977917 0.09468025 -0.003872086
v 0.003327565 0.09468025 -0.002612194
v 0.005977935 -0.09466701 -0.003872121
v 0.003327565 0.09468025 -0.002612194
v 0 -0.09466702 -0.002027585
v 0.003327479 -0.09466701 -0.002612124
v 0 0.09468025 -0.002027585
v -0.004401143 -0.09303465 0.005679097
v -0.00806359 0.08882248 0.005679093
v -0.004401143 0.08882248 0.005679097
v -0.00806359 -0.09303465 0.005679092
v -0.01058696 -0.09466702 0.002623494
v -0.00806359 -0.09303465 0.005679092
v -0.004401143 -0.09303465 0.005679097
v -0.004401476 -0.0946658 0.002625798
v -0.01058696 -0.09466702 0.002623494
v -0.00806359 0.08882248 0.005679093
v -0.00806359 -0.09303465 0.005679092
v -0.01058696 0.0912104 0.002623495
v -0.01058696 0.0912104 0.002623495
v -0.004401143 0.08882248 0.005679097
v -0.00806359 0.08882248 0.005679093
v -0.004401477 0.09120859 0.002625799
v -0.008062755 0.09317409 0.0001107344
v 0 0.09120859 0.002625799
v -0.01058673 0.09467918 -0.002121437
v 0 0.09468025 -0.002027585
v -0.01058696 0.0912104 0.002623495
v -0.008062755 -0.09466702 0.0001107343
v -0.008062755 0.09317409 0.0001107344
v -0.01058696 -0.09466702 0.002623494
v -0.01058696 -0.09466702 0.002623494
v -0.004401476 -0.0946658 0.002625798
v -0.008062755 -0.09466702 0.0001107343
v 0 -0.0946658 0.002625798
v 0 -0.09466702 -0.002027585
v -0.01058673 -0.09466702 -0.002121437
v -0.003327479 -0.09466701 -0.002612124
v -0.005977935 -0.09466701 -0.003872121
v -0.007702909 -0.09466702 -0.005300933
v -0.008421826 -0.09466702 -0.005300934
v -0.01058673 0.09467918 -0.002121437
v 0 0.09120859 0.002625799
v -0.008062755 0.09317409 0.0001107344
v -0.008062755 0.09317409 0.0001107344
v -0.01058673 -0.09466702 -0.002121437
v -0.01058673 0.09467918 -0.002121437
v -0.008062755 -0.09466702 0.0001107343
v 0 0.09468025 -0.002027585
v -0.01058673 0.09467918 -0.002121437
v -0.003327565 0.09468025 -0.002612194
v -0.005977917 0.09468025 -0.003872086
v -0.008421826 0.09468025 -0.005300934
v -0.007702909 0.09468025 -0.005300933
v -0.01058673 0.09467918 -0.002121437
v -0.008421826 -0.09466702 -0.005300934
v -0.008421826 0.09468025 -0.005300934
v -0.01058673 -0.09466702 -0.002121437
v -0.004401477 0.09120859 0.002625799
v -0.004401143 -0.09303465 0.005679097
v -0.004401143 0.08882248 0.005679097
v -0.004401476 -0.0946658 0.002625798
v 0 0.09120859 0.002625799
v -0.004401476 -0.0946658 0.002625798
v -0.004401477 0.09120859 0.002625799
v 0 -0.0946658 0.002625798
v -0.007702909 -0.09466702 -0.005300933
v -0.008421826 0.09468025 -0.005300934
v -0.008421826 -0.09466702 -0.005300934
v -0.007702909 0.09468025 -0.005300933
v -0.005977935 -0.09466701 -0.003872121
v -0.007702909 0.09468025 -0.005300933
v -0.007702909 -0.09466702 -0.005300933
v -0.005977917 0.09468025 -0.003872086
v -0.003327479 -0.09466701 -0.002612124
v -0.005977917 0.09468025 -0.003872086
v -0.005977935 -0.09466701 -0.003872121
v -0.003327565 0.09468025 -0.002612194
v -0.003327565 0.09468025 -0.002612194
v 0 -0.09466702 -0.002027585
v 0 0.09468025 -0.002027585
v -0.003327479 -0.09466701 -0.002612124
vt 0.008610187 0.9606528
vt 0.9684727 0.9413232
vt 0.008610187 0.9413228
vt 0.9684728 0.9606534
vt 0.8509222 0.8409115
vt 0.8912976 0.8635476
vt 0.8673831 0.8635476
vt 0.8912976 0.8409781
vt 0.001496231 0.9224901
vt 0.9684727 0.9413232
vt 0.9799744 0.9224904
vt 0.008610187 0.9413228
vt 0.7669636 0.8387297
vt 0.7828701 0.8632734
vt 0.8058935 0.8632337
vt 0.8058504 0.838873
vt 0.7828029 0.8188458
vt 0.8335146 0.8388264
vt 0.7669124 0.8015838
vt 0.8334562 0.8033885
vt 0.9799744 0.9224904
vt 0.001496328 0.9037207
vt 0.001496231 0.9224901
vt 0.9914176 0.9037207
vt 0.8509222 0.8409115
vt 0.8674096 0.8245175
vt 0.8912976 0.8409781
vt 0.9200516 0.8409654
vt 0.9200516 0.810588
vt 0.8509409 0.8099365
vt 0.8983318 0.80676
vt 0.8810339 0.7985248
vt 0.8697784 0.789191
vt 0.8650852 0.7891884
vt 0.8335146 0.8388264
vt 0.7669124 0.8015838
vt 0.7828029 0.8188458
vt 0.9914176 0.9037207
vt 0.001496134 0.8869923
vt 0.001496328 0.9037207
vt 0.9993469 0.8869923
vt 0.8334562 0.8033885
vt 0.812444 0.7984854
vt 0.7669124 0.8015838
vt 0.7956843 0.7906265
vt 0.7802195 0.7816949
vt 0.7847548 0.7816694
vt 0.9993469 0.8869923
vt 0.001496231 0.8680374
vt 0.001496134 0.8869923
vt 0.9993498 0.8680378
vt 0.981066 0.9767679
vt 0.008610187 0.9606528
vt 7.014709E-07 0.9767674
vt 0.9684728 0.9606534
vt 0.981066 0.9999999
vt 7.014709E-07 0.9767674
vt 7.014709E-07 0.9999993
vt 0.981066 0.9767679
vt 0.001496231 0.8680374
vt 0.9993498 0.8680378
vt 0.9993498 0.8680378
vt 0.001496231 0.8680374
vt 0.7376158 0.825939
vt 0.0002338128 0.8125772
vt 0.0002338128 0.825939
vt 0.7376236 0.8125772
vt 0.7375979 0.8436738
vt 0.0002338128 0.825939
vt 0.0002338128 0.8436738
vt 0.7376158 0.825939
vt 0.0002338128 0.8436738
vt 0.7375716 0.8637602
vt 0.7375979 0.8436738
vt 0.0002338128 0.8637602
vt 0.008610187 0.9606528
vt 0.9684727 0.9413232
vt 0.9684728 0.9606534
vt 0.008610187 0.9413228
vt 0.8509222 0.8409115
vt 0.8673831 0.8635476
vt 0.8912976 0.8635476
vt 0.8912976 0.840921
vt 0.001496328 0.9224902
vt 0.9684727 0.9413232
vt 0.008610187 0.9413228
vt 0.9799744 0.9224904
vt 0.7669636 0.8387297
vt 0.8058935 0.8632337
vt 0.7828701 0.8632734
vt 0.8058504 0.838873
vt 0.7828029 0.8188458
vt 0.8335146 0.8388264
vt 0.7670317 0.8015879
vt 0.8334562 0.8033885
vt 0.9799744 0.9224904
vt 0.001496328 0.9037207
vt 0.9914176 0.9037207
vt 0.001496328 0.9224902
vt 0.8509222 0.8409115
vt 0.8912976 0.840921
vt 0.8674096 0.8245175
vt 0.9200516 0.8409657
vt 0.9200516 0.810588
vt 0.8509409 0.8099365
vt 0.8983318 0.80676
vt 0.8810339 0.7985248
vt 0.8697784 0.789191
vt 0.8650852 0.7891884
vt 0.7670317 0.8015879
vt 0.8335146 0.8388264
vt 0.7828029 0.8188458
vt 0.9914176 0.9037207
vt 0.001496134 0.8869923
vt 0.9993469 0.8869923
vt 0.001496328 0.9037207
vt 0.8334562 0.8033885
vt 0.7670317 0.8015879
vt 0.812444 0.7984854
vt 0.7956843 0.7906265
vt 0.7802195 0.7816949
vt 0.7847548 0.7816694
vt 0.9993469 0.8869923
vt 0.001496231 0.8680374
vt 0.9993498 0.8680378
vt 0.001496134 0.8869923
vt 0.981066 0.9767679
vt 0.008610187 0.9606528
vt 0.9684728 0.9606534
vt 7.014709E-07 0.9767674
vt 0.981066 0.9999999
vt 7.014709E-07 0.9767674
vt 0.981066 0.9767679
vt 7.014709E-07 0.9999993
vt 0.001496231 0.8680374
vt 0.9993498 0.8680378
vt 0.001496231 0.8680374
vt 0.9993498 0.8680378
vt 0.737525 0.825939
vt 0.0002338128 0.8125772
vt 0.7375183 0.8125772
vt 0.0002338128 0.825939
vt 0.7375445 0.8436738
vt 0.0002338128 0.825939
vt 0.737525 0.825939
vt 0.0002338128 0.8436738
vt 0.0002338128 0.8436738
vt 0.7375716 0.8637602
vt 0.0002338128 0.8637602
vt 0.7375445 0.8436738
vn 1.137132E-06 0 1
vn 9.785588E-07 0 1
vn 1.139218E-06 0 1
vn 9.764725E-07 0 1
vn 5.368001E-07 -0.8820261 0.4712005
vn 5.368E-07 -0.8820261 0.4712005
vn 5.368E-07 -0.8820261 0.4712005
vn 0 -0.8820265 0.4711998
vn 0.7710636 0 0.6367581
vn 0.7710635 0 0.6367583
vn 0.7710636 0 0.6367582
vn 0.7710636 0 0.6367582
vn 6.012738E-07 0.7879329 0.6157611
vn 6.012738E-07 0.7879329 0.615761
vn 6.012738E-07 0.7879329 0.615761
vn -2.994569E-07 0.7879338 0.6157599
vn 0 0.7879331 0.6157607
vn 0 0.7879331 0.6157607
vn 0.005381797 0.8015052 0.5979636
vn 0.005381797 0.8015053 0.5979635
vn 0.7054985 0 -0.7087114
vn 0.7054985 0 -0.7087113
vn 0.7054985 0 -0.7087113
vn 0.7054986 0 -0.7087111
vn -0.0001988172 -1 0.0001997225
vn -0.0001988172 -1 0.0001997225
vn -0.0001988171 -1 0.0001997225
vn -7.011488E-05 -1 0.0002643754
vn -7.011487E-05 -1 0.0002643754
vn 0 -1 0
vn -1.150192E-06 -1 -2.419477E-06
vn -3.156906E-06 -1 2.863332E-06
vn -3.156906E-06 -1 2.863332E-06
vn 0 -1 0
vn -0.04395134 0.8506572 0.5238804
vn -0.04395134 0.8506572 0.5238804
vn -0.04395134 0.8506572 0.5238804
vn 0.6624777 0 0.7490817
vn 0.6624777 0 0.7490816
vn 0.6624777 0 0.7490817
vn 0.6624779 0 0.7490814
vn 0.0001062533 0.9999999 0.0006047885
vn 0.0001062533 0.9999999 0.0006047885
vn 0.0001062533 0.9999999 0.0006047885
vn 0 1 0
vn 0 1 0
vn 0 1 0
vn 0.8265822 0 -0.562816
vn 0.8265822 0 -0.562816
vn 0.8265822 0 -0.562816
vn 0.8265823 0 -0.5628158
vn -1 0 -0.0001092204
vn -1 0 -0.0001091262
vn -1 0 -0.0001091255
vn -1 0 -0.0001092222
vn 0 0 1
vn 0 0 1
vn 0 0 1
vn 0 0 1
vn -2.48727E-06 0 -1
vn -2.48727E-06 0 -1
vn -2.487269E-06 0 -1
vn -2.487269E-06 0 -1
vn -0.6378978 0 -0.770121
vn -0.6379031 0 -0.7701166
vn -0.6379032 0 -0.7701166
vn -0.6378978 0 -0.7701211
vn -0.4293432 1.260236E-07 -0.9031413
vn -0.4293278 -1.382046E-07 -0.9031487
vn -0.4293276 -1.408634E-07 -0.9031488
vn -0.4293434 1.286825E-07 -0.9031413
vn -0.1730364 0 -0.9849154
vn 0 -2.885076E-07 -1
vn -0.1730207 -2.874203E-07 -0.9849182
vn 0 0 -1
vn -1.137132E-06 0 1
vn -9.785588E-07 0 1
vn -9.764725E-07 0 1
vn -1.139218E-06 0 1
vn -5.368001E-07 -0.8820261 0.4712005
vn -5.368E-07 -0.8820261 0.4712005
vn -5.368E-07 -0.8820261 0.4712005
vn 0 -0.8820265 0.4711998
vn -0.7710636 0 0.6367581
vn -0.7710635 0 0.6367583
vn -0.7710636 0 0.6367582
vn -0.7710636 0 0.6367582
vn -6.012738E-07 0.7879329 0.6157611
vn -6.012738E-07 0.7879329 0.615761
vn -6.012738E-07 0.7879329 0.615761
vn 2.994721E-07 0.7879338 0.6157599
vn 3.020526E-07 0.7879333 0.6157606
vn -0.005381797 0.8015052 0.5979636
vn -0.005381797 0.8015052 0.5979636
vn -0.005381797 0.8015053 0.5979635
vn -0.7054986 0 -0.7087112
vn -0.7054986 0 -0.7087112
vn -0.7054986 0 -0.7087111
vn -0.7054985 0 -0.7087113
vn 0.0001988171 -1 0.0001997225
vn 0.0001988171 -1 0.0001997225
vn 0.0001988171 -1 0.0001997225
vn 7.011488E-05 -1 0.0002643754
vn 0 -1 0
vn 0 -1 0
vn 1.150192E-06 -1 -2.419477E-06
vn 3.156906E-06 -1 2.863332E-06
vn 0 -1 0
vn 0 -1 0
vn 0.04395134 0.8506572 0.5238804
vn 0.04395134 0.8506572 0.5238804
vn 0.04395134 0.8506572 0.5238804
vn -0.6624779 0 0.7490814
vn -0.6624779 0 0.7490814
vn -0.6624779 0 0.7490814
vn -0.6624777 0 0.7490817
vn -0.0001062533 0.9999999 0.0006047886
vn -0.0001062533 0.9999999 0.0006047885
vn -0.0001062533 0.9999999 0.0006047886
vn 0 1 0
vn 0 1 0
vn 0 1 0
vn -0.8265823 0 -0.5628158
vn -0.8265823 0 -0.5628158
vn -0.8265823 0 -0.5628158
vn -0.8265822 0 -0.562816
vn 1 0 -0.0001092204
vn 1 0 -0.0001091262
vn 1 0 -0.0001092222
vn 1 0 -0.0001091255
vn 0 0 1
vn 0 0 1
vn 0 0 1
vn 0 0 1
vn 2.48727E-06 0 -1
vn 2.48727E-06 0 -1
vn 2.487269E-06 0 -1
vn 2.487269E-06 0 -1
vn 0.6378978 0 -0.770121
vn 0.6379031 0 -0.7701166
vn 0.6378978 0 -0.7701211
vn 0.6379032 0 -0.7701166
vn 0.4293432 1.260236E-07 -0.9031413
vn 0.4293278 -1.382046E-07 -0.9031487
vn 0.4293434 1.286825E-07 -0.9031413
vn 0.4293276 -1.408634E-07 -0.9031488
vn 0.1730364 0 -0.9849154
vn 0 -2.885076E-07 -1
vn 0 0 -1
vn 0.1730207 -2.874203E-07 -0.9849182
g mount_ak_tactica_tula_10000_LOD1_0
f 3/3/3 2/2/2 1/1/1
f 4/4/4 1/1/1 2/2/2
f 7/7/7 6/6/6 5/5/5
f 6/6/6 8/8/8 5/5/5
f 11/11/11 10/10/10 9/9/9
f 12/12/12 9/9/9 10/10/10
f 15/15/15 14/14/14 13/13/13
f 13/13/13 16/16/16 15/15/15
f 13/13/13 17/17/17 16/16/16
f 17/17/17 18/18/18 16/16/16
f 20/20/20 18/18/18 19/19/19
f 23/23/23 22/22/22 21/21/21
f 24/24/24 21/21/21 22/22/22
f 27/27/27 26/26/26 25/25/25
f 28/28/28 26/26/26 27/27/27
f 28/28/28 29/29/29 26/26/26
f 30/30/30 26/26/26 29/29/29
f 29/29/29 31/31/31 30/30/30
f 31/31/31 32/32/32 30/30/30
f 32/32/32 33/33/33 30/30/30
f 34/34/34 30/30/30 33/33/33
f 37/37/37 36/36/36 35/35/35
f 40/40/40 39/39/39 38/38/38
f 41/41/41 38/38/38 39/39/39
f 44/44/44 43/43/43 42/42/42
f 45/45/45 43/43/43 44/44/44
f 44/44/44 46/46/46 45/45/45
f 47/47/47 45/45/45 46/46/46
f 50/50/50 49/49/49 48/48/48
f 51/51/51 48/48/48 49/49/49
f 54/54/54 53/53/53 52/52/52
f 55/55/55 52/52/52 53/53/53
f 58/58/58 57/57/57 56/56/56
f 59/59/59 56/56/56 57/57/57
f 62/62/62 61/61/61 60/60/60
f 63/63/63 60/60/60 61/61/61
f 66/66/66 65/65/65 64/64/64
f 67/67/67 64/64/64 65/65/65
f 70/70/70 69/69/69 68/68/68
f 71/71/71 68/68/68 69/69/69
f 74/74/74 73/73/73 72/72/72
f 75/75/75 72/72/72 73/73/73
f 78/78/78 77/77/77 76/76/76
f 79/79/79 76/76/76 77/77/77
f 82/82/82 81/81/81 80/80/80
f 83/83/83 82/82/82 80/80/80
f 86/86/86 85/85/85 84/84/84
f 87/87/87 84/84/84 85/85/85
f 90/90/90 89/89/89 88/88/88
f 91/91/91 88/88/88 89/89/89
f 92/92/92 88/88/88 91/91/91
f 93/93/93 92/92/92 91/91/91
f 95/95/95 94/94/94 93/93/93
f 98/98/98 97/97/97 96/96/96
f 99/99/99 96/96/96 97/97/97
f 102/102/102 101/101/101 100/100/100
f 103/103/103 101/101/101 102/102/102
f 103/103/103 102/102/102 104/104/104
f 105/105/105 104/104/104 102/102/102
f 106/106/106 104/104/104 105/105/105
f 107/107/107 106/106/106 105/105/105
f 107/107/107 105/105/105 108/108/108
f 109/109/109 108/108/108 105/105/105
f 112/112/112 111/111/111 110/110/110
f 115/115/115 114/114/114 113/113/113
f 116/116/116 113/113/113 114/114/114
f 119/119/119 118/118/118 117/117/117
f 119/119/119 120/120/120 118/118/118
f 118/118/118 120/120/120 121/121/121
f 122/122/122 121/121/121 120/120/120
f 125/125/125 124/124/124 123/123/123
f 126/126/126 123/123/123 124/124/124
f 129/129/129 128/128/128 127/127/127
f 130/130/130 127/127/127 128/128/128
f 133/133/133 132/132/132 131/131/131
f 134/134/134 131/131/131 132/132/132
f 137/137/137 136/136/136 135/135/135
f 138/138/138 135/135/135 136/136/136
f 141/141/141 140/140/140 139/139/139
f 142/142/142 139/139/139 140/140/140
f 145/145/145 144/144/144 143/143/143
f 146/146/146 143/143/143 144/144/144
f 149/149/149 148/148/148 147/147/147
f 150/150/150 147/147/147 148/148/148
