g mount_p90_fn_effen_90_side_rail_LOD1
v 0.007992792 -0.03297925 0.01307774
v 0.007992934 0.00213899 0.01307774
v 0.007992932 -0.03297925 0.009412218
v 0.007992932 -0.019709 0.004953451
v 0.007992932 -0.01795281 0.002861913
v 0.007992934 0.002679189 0.009590066
v 0.007992932 -0.01761866 -8.052587E-07
v 0.007992934 0.004787019 0.007859185
v 0.007992934 0.01847284 0.0043714
v 0.007992934 0.01847284 -8.064508E-07
v -0.007992971 -0.01795281 0.002861914
v 0.007992932 -0.01795281 0.002861913
v 0.007992932 -0.01761866 -8.052587E-07
v -0.007992971 -0.01761866 -8.040666E-07
v -0.007992971 -0.019709 0.004953453
v 0.007992932 -0.019709 0.004953451
v -0.007992974 -0.03297925 0.009412218
v 0.007992932 -0.03297925 0.009412218
v -0.007992968 0.01847284 -8.052587E-07
v 0.007992934 0.01847284 -8.064508E-07
v 0.007992934 0.01847284 0.0043714
v -0.007992968 0.01847284 0.004371401
v -0.007992971 0.002679189 0.009590066
v -0.007992971 0.004787019 0.007859185
v 0.007992934 0.004787019 0.007859185
v 0.007992934 0.002679189 0.009590066
v -0.007992971 0.00213899 0.01307774
v 0.007992934 0.00213899 0.01307774
v -0.007992968 0.01847284 0.004371401
v 0.007992934 0.01847284 0.0043714
v 0.00835492 0.002138971 0.01845939
v 0.01060941 0.002138971 0.01576422
v -0.008354954 0.002138971 0.01845939
v -0.01060945 0.002138971 0.01576422
v -0.007992835 -0.03297925 0.01307774
v -0.007992974 -0.03297925 0.009412218
v -0.007992971 0.00213899 0.01307774
v -0.007992971 -0.019709 0.004953453
v -0.007992971 -0.01795281 0.002861914
v -0.007992971 0.002679189 0.009590066
v -0.007992971 -0.01761866 -8.040666E-07
v -0.007992971 0.004787019 0.007859185
v -0.007992968 0.01847284 0.004371401
v -0.007992968 0.01847284 -8.052587E-07
v 0.007992792 -0.03297925 0.01307774
v 0.01060939 -0.03297925 0.01576422
v 0.01060941 0.002138971 0.01576422
v 0.007992934 0.00213899 0.01307774
v -0.00835495 -0.03297925 0.01845938
v -0.007992835 -0.03297925 0.01307774
v -0.01060944 -0.03297925 0.01576421
v 0.007992792 -0.03297925 0.01307774
v -0.007992974 -0.03297925 0.009412218
v 0.007992932 -0.03297925 0.009412218
v 0.008354908 -0.03297925 0.01845938
v 0.01060939 -0.03297925 0.01576422
v -0.01060944 -0.03297925 0.01576421
v -0.01060945 0.002138971 0.01576422
v -0.008354954 0.002138971 0.01845939
v -0.00835495 -0.03297925 0.01845938
v -0.00835495 -0.03297925 0.01845938
v -0.008354954 0.002138971 0.01845939
v 0.00835492 0.002138971 0.01845939
v 0.008354908 -0.03297925 0.01845938
v 0.008354908 -0.03297925 0.01845938
v 0.00835492 0.002138971 0.01845939
v 0.01060941 0.002138971 0.01576422
v 0.01060939 -0.03297925 0.01576422
v 0.007992934 0.01847284 -8.064508E-07
v -0.007992968 0.01847284 -8.052587E-07
v -0.007992971 -0.01761866 -8.040666E-07
v 0.007992932 -0.01761866 -8.052587E-07
v -0.007992971 0.00213899 0.01307774
v -0.01060945 0.002138971 0.01576422
v -0.01060944 -0.03297925 0.01576421
v -0.007992835 -0.03297925 0.01307774
vt 0.3569806 0.3170496
vt 0.3564003 0.7731369
vt 0.4045854 0.3171102
vt 0.4622729 0.4895271
vt 0.4894071 0.5123696
vt 0.4016864 0.7802103
vt 0.5265803 0.5167565
vt 0.4241309 0.8076138
vt 0.4692013 0.9854118
vt 0.525984 0.9854841
vt 0.9814211 0.3903387
vt 0.7738089 0.390581
vt 0.7738526 0.4280122
vt 0.9814647 0.4277698
vt 0.9813797 0.3548696
vt 0.7737675 0.355112
vt 0.9811674 0.1730582
vt 0.7735552 0.1733006
vt 0.9737419 0.05683973
vt 0.7661297 0.05683997
vt 0.7661297 0.1136226
vt 0.9737419 0.1136225
vt 0.7170059 0.2853042
vt 0.7170059 0.2498823
vt 0.5093936 0.2498822
vt 0.5093936 0.2853041
vt 0.7170059 0.3311394
vt 0.5093936 0.3311393
vt 0.717006 0.06646073
vt 0.5093937 0.06646061
vt 0.5046922 0.401032
vt 0.4754129 0.3660293
vt 0.7217068 0.4010321
vt 0.7509865 0.3660294
vt 0.3346568 0.3104939
vt 0.287052 0.3104346
vt 0.334088 0.7665812
vt 0.2289302 0.4827056
vt 0.2017386 0.5054798
vt 0.2887843 0.7735406
vt 0.1645543 0.509773
vt 0.2662707 0.8008873
vt 0.2207525 0.9785712
vt 0.1639698 0.9785005
vt 0.09064305 0.9820228
vt 0.1393473 0.9820267
vt 0.1393836 0.5259395
vt 0.09068042 0.5259354
vt 0.4366656 0.1271641
vt 0.4319629 0.1970567
vt 0.4659453 0.1621666
vt 0.2243543 0.1970571
vt 0.4319647 0.2446615
vt 0.2243526 0.2446619
vt 0.2196513 0.1271644
vt 0.1903719 0.1621671
vt 0.09435928 0.02876785
vt 0.09435809 0.4848554
vt 0.1399924 0.4848555
vt 0.1399933 0.02876797
vt 0.7600632 0.9824524
vt 0.7600635 0.5263649
vt 0.5430489 0.526365
vt 0.5430489 0.9824524
vt 0.02048033 0.02296664
vt 0.02048039 0.4790543
vt 0.06611466 0.4790542
vt 0.06611443 0.02296658
vt 0.7785111 0.9847855
vt 0.9861233 0.9847855
vt 0.9861234 0.5160575
vt 0.7785111 0.5160576
vt 0.02066439 0.98111
vt 0.06936741 0.9811097
vt 0.06936699 0.5250224
vt 0.02066267 0.5250224
vn 1 -4.03947E-06 3.805051E-05
vn 1 -3.168761E-07 2.274401E-06
vn 1 -3.140894E-06 2.944153E-05
vn 1 0 0
vn 1 0 0
vn 1 0 0
vn 1 0 0
vn 1 0 -1.135401E-07
vn 1 0 0
vn 1 0 0
vn 0 -0.9181815 -0.3961599
vn 0 -0.9181816 -0.3961599
vn 0 -0.9932566 -0.1159371
vn 0 -0.9932566 -0.1159371
vn 0 -0.5631887 -0.8263283
vn 0 -0.5631887 -0.8263282
vn 0 -0.3184995 -0.9479231
vn 0 -0.3184995 -0.9479231
vn 0 1 0
vn 0 1 0
vn 0 1 0
vn 0 1 0
vn 0 0.8685763 0.4955555
vn 0 0.4515708 0.8922353
vn 0 0.4515708 0.8922353
vn 0 0.8685763 0.4955555
vn -7.084516E-07 0.9981005 0.06160851
vn 7.08451E-07 0.9981005 0.06160852
vn 0 0.2469534 0.9690273
vn 0 0.2469533 0.9690273
vn 1.320973E-06 1 3.455317E-06
vn 3.921604E-06 1 3.28039E-06
vn -1.320972E-06 1 3.455318E-06
vn -3.921597E-06 1 3.280393E-06
vn -1 -3.869742E-06 3.772527E-05
vn -1 -2.974081E-06 2.914422E-05
vn -1 -2.195875E-07 2.238083E-06
vn -1 0 -1.693194E-07
vn -1 0 0
vn -1 0 0
vn -1 0 0
vn -1 0 -2.052819E-07
vn -1 0 0
vn -1 0 0
vn 0.7163708 -1.545158E-06 -0.6977197
vn 0.7163709 -1.545158E-06 -0.6977197
vn 0.7163708 -1.545158E-06 -0.6977197
vn 0.7163709 -1.545158E-06 -0.6977197
vn 0 -1 0
vn 0 -1 0
vn 0 -1 0
vn 0 -1 0
vn 0 -1 0
vn 0 -1 0
vn 0 -1 0
vn 0 -1 0
vn -0.7670277 -2.434012E-07 0.641614
vn -0.7670277 -2.434012E-07 0.641614
vn -0.7670277 -2.434012E-07 0.641614
vn -0.7670277 -2.434012E-07 0.641614
vn 0 -2.37616E-07 1
vn 0 -2.37616E-07 1
vn 0 -2.37616E-07 1
vn 0 -2.37616E-07 1
vn 0.7670281 -3.690645E-07 0.6416136
vn 0.7670281 -3.690645E-07 0.6416136
vn 0.7670281 -3.690645E-07 0.6416135
vn 0.7670281 -3.690645E-07 0.6416136
vn 0 0 -1
vn 0 0 -1
vn 0 0 -1
vn 0 0 -1
vn -0.7163702 -1.482928E-06 -0.6977205
vn -0.7163702 -1.482928E-06 -0.6977205
vn -0.7163702 -1.482928E-06 -0.6977205
vn -0.7163702 -1.482928E-06 -0.6977205
g mount_p90_fn_effen_90_side_rail_LOD1_0
f 3/3/3 2/2/2 1/1/1
f 4/4/4 2/2/2 3/3/3
f 5/5/5 2/2/2 4/4/4
f 5/5/5 6/6/6 2/2/2
f 5/5/5 7/7/7 6/6/6
f 6/6/6 7/7/7 8/8/8
f 8/8/8 7/7/7 9/9/9
f 9/9/9 7/7/7 10/10/10
f 13/13/13 12/12/12 11/11/11
f 14/14/14 13/13/13 11/11/11
f 11/11/11 12/12/12 15/15/15
f 12/12/12 16/16/16 15/15/15
f 15/15/15 16/16/16 17/17/17
f 16/16/16 18/18/18 17/17/17
f 21/21/21 20/20/20 19/19/19
f 22/22/22 21/21/21 19/19/19
f 25/25/25 24/24/24 23/23/23
f 26/26/26 25/25/25 23/23/23
f 26/26/26 23/23/23 27/27/27
f 28/28/28 26/26/26 27/27/27
f 29/29/29 24/24/24 25/25/25
f 30/30/30 29/29/29 25/25/25
f 28/28/28 27/27/27 31/31/31
f 32/32/32 28/28/28 31/31/31
f 27/27/27 33/33/33 31/31/31
f 27/27/27 34/34/34 33/33/33
f 37/37/37 36/36/36 35/35/35
f 37/37/37 38/38/38 36/36/36
f 37/37/37 39/39/39 38/38/38
f 40/40/40 39/39/39 37/37/37
f 40/40/40 41/41/41 39/39/39
f 41/41/41 40/40/40 42/42/42
f 41/41/41 42/42/42 43/43/43
f 41/41/41 43/43/43 44/44/44
f 47/47/47 46/46/46 45/45/45
f 48/48/48 47/47/47 45/45/45
f 51/51/51 50/50/50 49/49/49
f 50/50/50 52/52/52 49/49/49
f 50/50/50 53/53/53 52/52/52
f 53/53/53 54/54/54 52/52/52
f 52/52/52 55/55/55 49/49/49
f 52/52/52 56/56/56 55/55/55
f 59/59/59 58/58/58 57/57/57
f 60/60/60 59/59/59 57/57/57
f 63/63/63 62/62/62 61/61/61
f 64/64/64 63/63/63 61/61/61
f 67/67/67 66/66/66 65/65/65
f 68/68/68 67/67/67 65/65/65
f 71/71/71 70/70/70 69/69/69
f 72/72/72 71/71/71 69/69/69
f 75/75/75 74/74/74 73/73/73
f 76/76/76 75/75/75 73/73/73
