g mount_all_zenit_b12_LOD1
v -0.003673183 -0.01782647 -0.0001848968
v 0.002340375 -0.01782647 0.006108666
v 0.01774992 -0.01782647 0.006108666
v 0.02376348 -0.01782647 -0.0001848968
v 0.002340375 -0.01782647 0.006108666
v 0.002340375 0.02850024 0.006108671
v 0.01774992 0.02850024 0.006108671
v 0.01774992 -0.01782647 0.006108666
v 0.002340375 0.02850024 0.006108671
v -0.003673183 0.02850024 -0.0001848914
v 0.02376348 0.02850024 -0.0001848914
v 0.01774992 0.02850024 0.006108671
v 0.02376348 -0.01782647 -0.0001848968
v 0.01774992 -0.01782647 0.006108666
v 0.01774992 0.02850024 0.006108671
v 0.02376348 0.02850024 -0.0001848914
v -0.003673183 0.02850024 -0.0001848914
v 0.002340375 0.02850024 0.006108671
v 0.002340375 -0.01782647 0.006108666
v -0.003673183 -0.01782647 -0.0001848968
v -0.007220855 -0.01791331 -4.558502E-06
v 0.03744388 -0.01791331 -4.558502E-06
v 0.03432 -0.01791331 -0.005605943
v -0.007220855 -0.01791331 -0.005605964
v 0.04702045 0.08299647 -0.03697882
v 0.04702045 -0.01791331 -0.03697884
v 0.05003258 -0.01791331 -0.03697884
v 0.05003258 0.08299647 -0.03697882
v 0.04128911 0.08299645 -0.02209614
v 0.03432 0.08299645 -0.005605926
v 0.03432 -0.01791331 -0.005605943
v 0.04128911 -0.01791331 -0.02209616
v 0.04128911 0.08299647 -0.03119551
v 0.04128911 -0.01791331 -0.03119552
v 0.05003258 0.08299645 -0.01614087
v 0.04316872 0.08299645 -0.01614087
v 0.04702045 0.08299647 -0.03697882
v 0.05003258 0.08299647 -0.03697882
v 0.04128911 0.08299645 -0.02209614
v 0.04128911 0.08299647 -0.03119551
v 0.05003258 0.08299645 -0.01614087
v 0.05003258 0.08299647 -0.03697882
v 0.05003258 -0.01791331 -0.03697884
v 0.05003258 -0.01791331 -0.01614088
v 0.05003258 -0.01791331 -0.01614088
v 0.05003258 -0.01791331 -0.03697884
v 0.04702045 -0.01791331 -0.03697884
v 0.04316872 -0.01791331 -0.01614088
v 0.04128911 -0.01791331 -0.03119552
v 0.04128911 -0.01791331 -0.02209616
v 0.03744388 -0.01791331 -4.558502E-06
v 0.03432 -0.01791331 -0.005605943
v -0.01468869 -0.01791331 0.001757959
v -0.01468869 0.0295314 0.001757965
v -0.007220859 0.0295314 0.001757965
v -0.007220855 -0.01791331 0.001757959
v -0.01468869 0.0295314 0.001757965
v -0.01468869 -0.01791331 0.001757959
v -0.01468869 -0.01791331 -0.005605964
v -0.01468869 0.0295314 -0.005605957
v 0.02340978 0.08299645 -4.546531E-06
v 0.03744388 0.08299645 -4.546531E-06
v 0.03744388 -0.01791331 -4.558502E-06
v 0.0138592 0.0295314 -4.552858E-06
v -0.007220859 0.0295314 -4.552858E-06
v -0.007220855 -0.01791331 -4.558502E-06
v 0.02340978 0.08299645 -0.005605926
v 0.03432 0.08299645 -0.005605926
v 0.03744388 0.08299645 -4.546531E-06
v 0.02340978 0.08299645 -4.546531E-06
v 0.04316872 0.08299645 -0.01614087
v 0.04128911 0.08299645 -0.02209614
v -0.01468869 0.0295314 0.001757965
v -0.01468869 0.0295314 -0.005605957
v -0.007220859 0.0295314 -0.005605957
v -0.007220859 0.0295314 0.001757965
v 0.0138592 0.0295314 -4.552858E-06
v 0.0138592 0.0295314 -0.005605935
v 0.02340978 0.08299645 -0.005605926
v 0.02340978 0.08299645 -4.546531E-06
v -0.007220859 0.0295314 -0.005605957
v -0.01468869 0.0295314 -0.005605957
v -0.01468869 -0.01791331 -0.005605964
v -0.007220855 -0.01791331 -0.005605964
v 0.03432 -0.01791331 -0.005605943
v 0.0138592 0.0295314 -0.005605935
v 0.02340978 0.08299645 -0.005605926
v 0.03432 0.08299645 -0.005605926
v 0.05003258 -0.01791331 -0.01614088
v 0.04316872 -0.01791331 -0.01614088
v 0.04316872 0.08299645 -0.01614087
v 0.05003258 0.08299645 -0.01614087
v 0.03744388 0.08299645 -4.546531E-06
v 0.04316872 0.08299645 -0.01614087
v 0.04316872 -0.01791331 -0.01614088
v 0.03744388 -0.01791331 -4.558502E-06
v -0.007220859 0.0295314 -0.005605957
v 0.0138592 0.0295314 -0.005605935
v 0.0138592 0.0295314 -4.552858E-06
v -0.007220859 0.0295314 -4.552858E-06
v -0.01468869 -0.01791331 -0.005605964
v -0.01468869 -0.01791331 0.001757959
v -0.007220855 -0.01791331 0.001757959
v -0.007220855 -0.01791331 -0.005605964
v -0.007220859 0.0295314 -0.005605957
v -0.007220855 -0.01791331 -0.005605964
v -0.007220855 -0.01791331 0.001757959
v -0.007220859 0.0295314 0.001757965
v 0.04702045 0.08299647 -0.03697882
v 0.04128911 0.08299647 -0.03119551
v 0.04128911 -0.01791331 -0.03119552
v 0.04702045 -0.01791331 -0.03697884
vt 0.7988281 0.7363281
vt 0.8390192 0.7771851
vt 0.9420091 0.7771851
vt 0.9822003 0.7363281
vt 0.3321417 0.6901428
vt 0.04529721 0.6901428
vt 0.04529721 0.7771739
vt 0.3321417 0.7771733
vt 0.8734974 0.3673562
vt 0.9143543 0.4075472
vt 0.9143543 0.2241752
vt 0.8734974 0.2643663
vt 0.7762898 0.9843704
vt 0.776289 0.9359385
vt 0.4894445 0.935939
vt 0.4894452 0.9843704
vt 0.3789055 0.8128971
vt 0.3789063 0.8613281
vt 0.6657506 0.8613281
vt 0.6657499 0.8128964
vt 0.3789063 0.8085938
vt 0.6650288 0.8085938
vt 0.6449504 0.7727355
vt 0.3789063 0.7727355
vt 0.001955 0.115625
vt 0.793518 0.115576
vt 0.793515 0.067792
vt 0.001952 0.067841
vt 0.8556277 0.4121094
vt 0.7988281 0.4121095
vt 0.7988281 0.7322699
vt 0.8556277 0.7322699
vt 0.8844973 0.4121094
vt 0.8844973 0.73227
vt 0.8337507 0.8598278
vt 0.833753 0.8084943
vt 0.6779075 0.8373036
vt 0.6779047 0.8598277
vt 0.7892153 0.7944403
vt 0.7211619 0.7944421
vt 0.001952 0.120099
vt 0.001952 0.301537
vt 0.793514 0.301537
vt 0.793514 0.120099
vt 0.9912437 0.8912797
vt 0.990705 0.7576289
vt 0.9714124 0.7577104
vt 0.9472721 0.8912797
vt 0.9348522 0.7949005
vt 0.9348522 0.853183
vt 0.9109607 0.994809
vt 0.8908824 0.9589506
vt 0.4204063 0.930313
vt 0.8338765 0.930313
vt 0.8338765 0.8652344
vt 0.4204063 0.8652344
vt 0.001965165 0.9975647
vt 0.4154363 0.9974834
vt 0.4154243 0.933309
vt 0.001953125 0.9333892
vt 0.793515 0.594676
vt 0.793515 0.476808
vt 0.001952 0.476808
vt 0.374121 0.677836
vt 0.374121 0.861568
vt 0.001953 0.861568
vt 0.7502692 0.6259664
vt 0.7502632 0.7075601
vt 0.7921546 0.7309246
vt 0.7921612 0.625969
vt 0.6714696 0.7737386
vt 0.6269318 0.7596846
vt 0.4200264 0.9978886
vt 0.4834654 0.9978886
vt 0.4834654 0.9335545
vt 0.4200264 0.9335545
vt 0.9759398 0.1972656
vt 0.9208269 0.1972668
vt 0.9208405 0.7316475
vt 0.9759535 0.7316462
vt 0.9657811 0.1930067
vt 0.9958576 0.1930067
vt 0.9958576 0.001956701
vt 0.9657907 0.001953125
vt 0.7985103 0.001953125
vt 0.8808966 0.1930011
vt 0.8424425 0.4082934
vt 0.7985103 0.4082934
vt 0.793509 0.061831
vt 0.793515 0.002067
vt 0.001952 0.001952
vt 0.001947 0.061717
vt 0.001952 0.306502
vt 0.00197 0.471496
vt 0.793532 0.471399
vt 0.793515 0.306405
vt 0.8853365 0.9552331
vt 0.8853365 0.7819763
vt 0.8392981 0.7819762
vt 0.8392981 0.9552331
vt 0.9967019 0.9977233
vt 0.9967019 0.9393153
vt 0.9374699 0.9393153
vt 0.9374699 0.9977233
vt 0.4154233 0.8652344
vt 0.001953125 0.8652344
vt 0.001953125 0.9294077
vt 0.4154233 0.9294077
vt 0.9103305 0.4121094
vt 0.8844973 0.4121094
vt 0.8844973 0.73227
vt 0.9103305 0.7322699
vn 0 -1 -1.894146E-07
vn 0 -1 -1.894146E-07
vn 0 -1 -1.894146E-07
vn 0 -1 -1.894146E-07
vn 0 -1.157954E-07 1
vn 0 -1.157954E-07 1
vn 0 -1.157954E-07 1
vn 0 -1.157954E-07 1
vn 0 1 -3.788293E-07
vn 0 1 -3.788293E-07
vn 0 1 -3.788292E-07
vn 0 1 -3.788293E-07
vn 0.7230069 0 0.6908408
vn 0.7230068 0 0.6908408
vn 0.723007 0 0.6908407
vn 0.7230069 0 0.6908408
vn -0.7230074 0 0.6908402
vn -0.7230074 0 0.6908402
vn -0.7230074 0 0.6908402
vn -0.7230074 0 0.6908402
vn 0 -1 -2.051086E-07
vn 0 -1 -1.613066E-07
vn 0 -1 -1.54078E-07
vn 0 -1 -2.051086E-07
vn 0 1.653884E-07 -1
vn 0 1.653884E-07 -1
vn 0 1.653884E-07 -1
vn 0 1.653884E-07 -1
vn -0.9800811 0 -0.1985976
vn -0.9211179 0 -0.3892836
vn -0.9211179 0 -0.3892836
vn -0.9800811 0 -0.1985976
vn -1 0 0
vn -1 0 0
vn 0 1 4.576621E-07
vn 0 1 2.163062E-07
vn 0 1 5.028327E-07
vn 0 1 4.576621E-07
vn 0 1 5.086999E-07
vn 0 1 6.352674E-07
vn 1 0 0
vn 1 0 0
vn 1 0 0
vn 1 0 0
vn 0 -1 -1.716233E-07
vn 0 -1 -1.716233E-07
vn 0 -1 -1.581455E-07
vn 0 -1 -1.285646E-07
vn 3.15937E-07 -1 -1.186301E-07
vn 2.545571E-07 -1 -1.162243E-07
vn 0 -1 -1.613066E-07
vn 0 -1 -1.54078E-07
vn 0 -1.193482E-07 1
vn 0 -1.193482E-07 1
vn 0 -1.193482E-07 1
vn 0 -1.193482E-07 1
vn -1 0 0
vn -1 0 0
vn -1 0 0
vn -1 0 0
vn 0 -1.185523E-07 1
vn 0 -1.185523E-07 1
vn 0 -1.188329E-07 1
vn 0 -1.187303E-07 1
vn 0 -1.189495E-07 1
vn 0 -1.189495E-07 1
vn 0 1 0
vn 0 1 0
vn 0 1 0
vn 0 1 0
vn 0 1 2.163062E-07
vn 0 1 5.086999E-07
vn 1.596303E-07 1 4.856486E-07
vn 1.596303E-07 1 4.856486E-07
vn 1.596303E-07 1 4.856486E-07
vn 1.596303E-07 1 4.856486E-07
vn -0.9844172 0.1758486 0
vn -0.9844172 0.1758487 0
vn -0.9844172 0.1758486 0
vn -0.9844172 0.1758486 0
vn 3.47419E-07 2.350911E-07 -1
vn 0 1.633186E-07 -1
vn 0 1.633186E-07 -1
vn 3.47419E-07 2.350911E-07 -1
vn 5.215906E-07 2.70934E-07 -1
vn 3.17933E-07 2.286977E-07 -1
vn 0 1.682487E-07 -1
vn 0 1.682487E-07 -1
vn 0 -1.535749E-07 1
vn 0 -1.535749E-07 1
vn 0 -1.535749E-07 1
vn 0 -1.535749E-07 1
vn 0.9424452 0 0.3343606
vn 0.9424452 0 0.3343607
vn 0.9424452 0 0.3343607
vn 0.9424452 0 0.3343606
vn 0 1 2.128208E-07
vn 0 1 2.128208E-07
vn 0 1 2.128208E-07
vn 0 1 2.128208E-07
vn 1.596303E-07 -1 -1.618828E-07
vn 1.596303E-07 -1 -1.618828E-07
vn 1.596303E-07 -1 -1.618828E-07
vn 1.596303E-07 -1 -1.618828E-07
vn 1 0 0
vn 1 0 0
vn 1 0 0
vn 1 0 0
vn -0.7102908 0 -0.7039083
vn -0.7102908 0 -0.7039083
vn -0.7102908 0 -0.7039083
vn -0.7102908 0 -0.7039083
g mount_all_zenit_b12_LOD1_0
f 3/3/3 2/2/2 1/1/1
f 4/4/4 3/3/3 1/1/1
f 7/7/7 6/6/6 5/5/5
f 8/8/8 7/7/7 5/5/5
f 11/11/11 10/10/10 9/9/9
f 12/12/12 11/11/11 9/9/9
f 15/15/15 14/14/14 13/13/13
f 16/16/16 15/15/15 13/13/13
f 19/19/19 18/18/18 17/17/17
f 20/20/20 19/19/19 17/17/17
f 23/23/23 22/22/22 21/21/21
f 24/24/24 23/23/23 21/21/21
f 27/27/27 26/26/26 25/25/25
f 28/28/28 27/27/27 25/25/25
f 31/31/31 30/30/30 29/29/29
f 32/32/32 31/31/31 29/29/29
f 32/32/32 29/29/29 33/33/33
f 34/34/34 32/32/32 33/33/33
f 37/37/37 36/36/36 35/35/35
f 38/38/38 37/37/37 35/35/35
f 36/36/36 37/37/37 39/39/39
f 37/37/37 40/40/40 39/39/39
f 43/43/43 42/42/42 41/41/41
f 44/44/44 43/43/43 41/41/41
f 47/47/47 46/46/46 45/45/45
f 47/47/47 45/45/45 48/48/48
f 49/49/49 47/47/47 48/48/48
f 50/50/50 49/49/49 48/48/48
f 50/50/50 48/48/48 51/51/51
f 52/52/52 50/50/50 51/51/51
f 55/55/55 54/54/54 53/53/53
f 56/56/56 55/55/55 53/53/53
f 59/59/59 58/58/58 57/57/57
f 60/60/60 59/59/59 57/57/57
f 63/63/63 62/62/62 61/61/61
f 64/64/64 63/63/63 61/61/61
f 63/63/63 64/64/64 65/65/65
f 66/66/66 63/63/63 65/65/65
f 69/69/69 68/68/68 67/67/67
f 70/70/70 69/69/69 67/67/67
f 69/69/69 71/71/71 68/68/68
f 71/71/71 72/72/72 68/68/68
f 75/75/75 74/74/74 73/73/73
f 76/76/76 75/75/75 73/73/73
f 79/79/79 78/78/78 77/77/77
f 80/80/80 79/79/79 77/77/77
f 83/83/83 82/82/82 81/81/81
f 84/84/84 83/83/83 81/81/81
f 84/84/84 81/81/81 85/85/85
f 81/81/81 86/86/86 85/85/85
f 86/86/86 87/87/87 85/85/85
f 87/87/87 88/88/88 85/85/85
f 91/91/91 90/90/90 89/89/89
f 92/92/92 91/91/91 89/89/89
f 95/95/95 94/94/94 93/93/93
f 96/96/96 95/95/95 93/93/93
f 99/99/99 98/98/98 97/97/97
f 100/100/100 99/99/99 97/97/97
f 103/103/103 102/102/102 101/101/101
f 104/104/104 103/103/103 101/101/101
f 107/107/107 106/106/106 105/105/105
f 108/108/108 107/107/107 105/105/105
f 111/111/111 110/110/110 109/109/109
f 112/112/112 111/111/111 109/109/109
