g mount_qars_troy_qars_4,2_inch_rail_section_LOD1
v 3.024199E-08 -0.009518612 0.008608998
v 0.008143827 -0.009518593 0.008608993
v 0.008143925 -0.04713421 0.008608972
v 1.232252E-07 -0.04713423 0.008608976
v 0.008143827 -0.009518593 0.008608993
v 0.01069839 -0.009518583 0.005701675
v 0.01069849 -0.0471342 0.005701654
v 0.008143925 -0.04713421 0.008608972
v 0.01069839 -0.009518583 0.005701675
v 0.008396803 -0.009518588 0.00242148
v 0.008396901 -0.04713421 0.002421459
v 0.01069849 -0.0471342 0.005701654
v 0.008396803 -0.009518588 0.00242148
v 0.008396802 -0.009518588 -2.329349E-06
v 0.008396899 -0.04713421 -2.350509E-06
v 0.008396901 -0.04713421 0.002421459
v 0.008143808 5.667848E-05 0.008608998
v 0.008143827 -0.009518593 0.008608993
v 3.024199E-08 -0.009518612 0.008608998
v 8.784322E-09 5.665941E-05 0.008609002
v 0.01069837 5.667848E-05 0.00570168
v 0.01069839 -0.009518583 0.005701675
v 0.008143827 -0.009518593 0.008608993
v 0.008143808 5.667848E-05 0.008608998
v 0.008396782 5.667848E-05 0.002421486
v 0.008396803 -0.009518588 0.00242148
v 0.01069839 -0.009518583 0.005701675
v 0.01069837 5.667848E-05 0.00570168
v 0.00839678 5.667848E-05 -2.323985E-06
v 0.008396802 -0.009518588 -2.329349E-06
v 0.008396803 -0.009518588 0.00242148
v 0.008396782 5.667848E-05 0.002421486
v 0.008143693 0.04724756 0.008609024
v 0.008143782 0.00963195 0.008609003
v -1.505754E-08 0.009631931 0.008609009
v -1.080408E-07 0.04724754 0.008609029
v 0.01069826 0.04724756 0.005701706
v 0.01069835 0.00963195 0.005701686
v 0.008143782 0.00963195 0.008609003
v 0.008143693 0.04724756 0.008609024
v 0.00839667 0.04724756 0.002421512
v 0.008396759 0.00963195 0.002421491
v 0.01069835 0.00963195 0.005701686
v 0.01069826 0.04724756 0.005701706
v 0.008396667 0.04724756 -2.297759E-06
v 0.008396756 0.00963195 -2.318621E-06
v 0.008396759 0.00963195 0.002421491
v 0.00839667 0.04724756 0.002421512
v -1.505754E-08 0.009631931 0.008609009
v 0.008143782 0.00963195 0.008609003
v 0.008143808 5.667848E-05 0.008608998
v 8.784322E-09 5.665941E-05 0.008609002
v 0.008143782 0.00963195 0.008609003
v 0.01069835 0.00963195 0.005701686
v 0.01069837 5.667848E-05 0.00570168
v 0.008143808 5.667848E-05 0.008608998
v 0.01069835 0.00963195 0.005701686
v 0.008396759 0.00963195 0.002421491
v 0.008396782 5.667848E-05 0.002421486
v 0.01069837 5.667848E-05 0.00570168
v 0.008396759 0.00963195 0.002421491
v 0.008396756 0.00963195 -2.318621E-06
v 0.00839678 5.667848E-05 -2.323985E-06
v 0.008396782 5.667848E-05 0.002421486
v 1.184569E-07 -0.04713423 -2.345741E-06
v 1.208411E-07 -0.04713423 0.002439186
v 0.008396901 -0.04713421 0.002421459
v 0.008396899 -0.04713421 -2.350509E-06
v 1.232252E-07 -0.04713423 0.00565504
v 0.01069849 -0.0471342 0.005701654
v 0.008143925 -0.04713421 0.008608972
v 1.232252E-07 -0.04713423 0.008608976
v 2.547362E-08 -0.009518607 -2.324581E-06
v 1.184569E-07 -0.04713423 -2.345741E-06
v 0.008396899 -0.04713421 -2.350509E-06
v 0.008396802 -0.009518588 -2.329349E-06
v 4.01595E-09 5.665941E-05 -2.319217E-06
v 2.547362E-08 -0.009518607 -2.324581E-06
v 0.008396802 -0.009518588 -2.329349E-06
v 0.00839678 5.667848E-05 -2.323985E-06
v -1.10425E-07 0.04724754 0.002439238
v -1.128092E-07 0.04724754 -2.292991E-06
v 0.008396667 0.04724756 -2.297759E-06
v 0.00839667 0.04724756 0.002421512
v -1.080408E-07 0.04724754 0.005655093
v 0.01069826 0.04724756 0.005701706
v 0.008143693 0.04724756 0.008609024
v -1.080408E-07 0.04724754 0.008609029
v -1.128092E-07 0.04724754 -2.292991E-06
v -1.982591E-08 0.009631931 -2.313852E-06
v 0.008396756 0.00963195 -2.318621E-06
v 0.008396667 0.04724756 -2.297759E-06
v -1.982591E-08 0.009631931 -2.313852E-06
v 4.01595E-09 5.665941E-05 -2.319217E-06
v 0.00839678 5.667848E-05 -2.323985E-06
v 0.008396756 0.00963195 -2.318621E-06
v -0.008143677 -0.04713425 0.008608981
v -0.008143764 -0.009518631 0.008609002
v 3.024199E-08 -0.009518612 0.008608998
v 1.232252E-07 -0.04713423 0.008608976
v -0.01069825 -0.04713425 0.005701666
v -0.01069833 -0.009518635 0.005701687
v -0.008143764 -0.009518631 0.008609002
v -0.008143677 -0.04713425 0.008608981
v -0.008396659 -0.04713425 0.002421469
v -0.008396747 -0.009518631 0.00242149
v -0.01069833 -0.009518635 0.005701687
v -0.01069825 -0.04713425 0.005701666
v -0.008396661 -0.04713425 -2.34127E-06
v -0.008396748 -0.009518626 -2.320111E-06
v -0.008396747 -0.009518631 0.00242149
v -0.008396659 -0.04713425 0.002421469
v 3.024199E-08 -0.009518612 0.008608998
v -0.008143764 -0.009518631 0.008609002
v -0.00814379 5.66308E-05 0.008609007
v 8.784322E-09 5.665941E-05 0.008609002
v -0.008143764 -0.009518631 0.008609002
v -0.01069833 -0.009518635 0.005701687
v -0.01069836 5.66308E-05 0.005701692
v -0.00814379 5.66308E-05 0.008609007
v -0.01069833 -0.009518635 0.005701687
v -0.008396747 -0.009518631 0.00242149
v -0.00839677 5.664034E-05 0.002421495
v -0.01069836 5.66308E-05 0.005701692
v -0.008396747 -0.009518631 0.00242149
v -0.008396748 -0.009518626 -2.320111E-06
v -0.008396772 5.664034E-05 -2.314746E-06
v -0.00839677 5.664034E-05 0.002421495
v -1.505754E-08 0.009631931 0.008609009
v -0.008143811 0.009631902 0.008609012
v -0.008143907 0.04724751 0.008609033
v -1.080408E-07 0.04724754 0.008609029
v -0.008143811 0.009631902 0.008609012
v -0.01069838 0.009631902 0.005701698
v -0.01069848 0.04724751 0.005701718
v -0.008143907 0.04724751 0.008609033
v -0.01069838 0.009631902 0.005701698
v -0.008396793 0.009631912 0.0024215
v -0.008396889 0.04724752 0.002421522
v -0.01069848 0.04724751 0.005701718
v -0.008396793 0.009631912 0.0024215
v -0.008396794 0.009631912 -2.309382E-06
v -0.008396891 0.04724752 -2.28852E-06
v -0.008396889 0.04724752 0.002421522
v -0.00814379 5.66308E-05 0.008609007
v -0.008143811 0.009631902 0.008609012
v -1.505754E-08 0.009631931 0.008609009
v 8.784322E-09 5.665941E-05 0.008609002
v -0.01069836 5.66308E-05 0.005701692
v -0.01069838 0.009631902 0.005701698
v -0.008143811 0.009631902 0.008609012
v -0.00814379 5.66308E-05 0.008609007
v -0.00839677 5.664034E-05 0.002421495
v -0.008396793 0.009631912 0.0024215
v -0.01069838 0.009631902 0.005701698
v -0.01069836 5.66308E-05 0.005701692
v -0.008396772 5.664034E-05 -2.314746E-06
v -0.008396794 0.009631912 -2.309382E-06
v -0.008396793 0.009631912 0.0024215
v -0.00839677 5.664034E-05 0.002421495
v -0.008396659 -0.04713425 0.002421469
v 1.208411E-07 -0.04713423 0.002439186
v 1.184569E-07 -0.04713423 -2.345741E-06
v -0.008396661 -0.04713425 -2.34127E-06
v 1.232252E-07 -0.04713423 0.00565504
v -0.01069825 -0.04713425 0.005701666
v -0.008143677 -0.04713425 0.008608981
v 1.232252E-07 -0.04713423 0.008608976
v -0.008396661 -0.04713425 -2.34127E-06
v 1.184569E-07 -0.04713423 -2.345741E-06
v 2.547362E-08 -0.009518607 -2.324581E-06
v -0.008396748 -0.009518626 -2.320111E-06
v -0.008396748 -0.009518626 -2.320111E-06
v 2.547362E-08 -0.009518607 -2.324581E-06
v 4.01595E-09 5.665941E-05 -2.319217E-06
v -0.008396772 5.664034E-05 -2.314746E-06
v -0.008396891 0.04724752 -2.28852E-06
v -1.128092E-07 0.04724754 -2.292991E-06
v -1.10425E-07 0.04724754 0.002439238
v -0.008396889 0.04724752 0.002421522
v -1.080408E-07 0.04724754 0.005655093
v -0.01069848 0.04724751 0.005701718
v -0.008143907 0.04724751 0.008609033
v -1.080408E-07 0.04724754 0.008609029
v -0.008396794 0.009631912 -2.309382E-06
v -1.982591E-08 0.009631931 -2.313852E-06
v -1.128092E-07 0.04724754 -2.292991E-06
v -0.008396891 0.04724752 -2.28852E-06
v -0.008396772 5.664034E-05 -2.314746E-06
v 4.01595E-09 5.665941E-05 -2.319217E-06
v -1.982591E-08 0.009631931 -2.313852E-06
v -0.008396794 0.009631912 -2.309382E-06
vt 0.6629264 0.3241214
vt 0.8042951 0.3241214
vt 0.8042952 0.9770931
vt 0.6629264 0.9770931
vt 0.8042951 0.3241214
vt 0.8714777 0.3241214
vt 0.8714777 0.9770931
vt 0.8042952 0.9770931
vt 0.8714777 0.3241214
vt 0.9410375 0.3241214
vt 0.9410375 0.9770931
vt 0.8714777 0.9770931
vt 0.9410375 0.3241214
vt 0.9831126 0.3241214
vt 0.9831126 0.9770931
vt 0.9410375 0.9770931
vt 0.8042951 0.490339
vt 0.8042951 0.3241214
vt 0.6629264 0.3241214
vt 0.6629264 0.490339
vt 0.8714777 0.490339
vt 0.8714777 0.3241214
vt 0.8042951 0.3241214
vt 0.8042951 0.490339
vt 0.9410375 0.490339
vt 0.9410375 0.3241214
vt 0.8714777 0.3241214
vt 0.8714777 0.490339
vt 0.9831126 0.490339
vt 0.9831126 0.3241214
vt 0.9410375 0.3241214
vt 0.9410375 0.490339
vt 0.8042952 0.9770931
vt 0.8042951 0.3241214
vt 0.6629264 0.3241214
vt 0.6629264 0.9770931
vt 0.8714777 0.9770931
vt 0.8714777 0.3241214
vt 0.8042951 0.3241214
vt 0.8042952 0.9770931
vt 0.9410375 0.9770931
vt 0.9410375 0.3241214
vt 0.8714777 0.3241214
vt 0.8714777 0.9770931
vt 0.9831126 0.9770931
vt 0.9831126 0.3241214
vt 0.9410375 0.3241214
vt 0.9410375 0.9770931
vt 0.6629264 0.3241214
vt 0.8042951 0.3241214
vt 0.8042951 0.490339
vt 0.6629264 0.490339
vt 0.8042951 0.3241214
vt 0.8714777 0.3241214
vt 0.8714777 0.490339
vt 0.8042951 0.490339
vt 0.8714777 0.3241214
vt 0.9410375 0.3241214
vt 0.9410375 0.490339
vt 0.8714777 0.490339
vt 0.9410375 0.3241214
vt 0.9831126 0.3241214
vt 0.9831126 0.490339
vt 0.9410375 0.490339
vt 0.3279026 0.8087739
vt 0.286921 0.8087739
vt 0.2872185 0.6678321
vt 0.3279026 0.6678321
vt 0.2329422 0.8087739
vt 0.2321596 0.6291995
vt 0.1833598 0.6720784
vt 0.1833598 0.8087739
vt 0.1638331 0.2050727
vt 0.1638331 0.6049534
vt 0.07456931 0.6049534
vt 0.07456931 0.2050727
vt 0.163833 0.3068646
vt 0.1638331 0.2050727
vt 0.07456931 0.2050727
vt 0.07456931 0.3068645
vt 0.286921 0.8087739
vt 0.3279026 0.8087739
vt 0.3279026 0.6678321
vt 0.2872185 0.6678321
vt 0.2329422 0.8087739
vt 0.2321596 0.6291995
vt 0.1833598 0.6720784
vt 0.1833598 0.8087739
vt 0.163833 0.6049534
vt 0.1638331 0.2050727
vt 0.07456931 0.2050727
vt 0.07456931 0.6049534
vt 0.1638331 0.2050727
vt 0.163833 0.3068646
vt 0.07456931 0.3068645
vt 0.07456931 0.2050727
vt 0.8042952 0.9770931
vt 0.8042951 0.3241214
vt 0.6629264 0.3241214
vt 0.6629264 0.9770931
vt 0.8714777 0.9770931
vt 0.8714777 0.3241214
vt 0.8042951 0.3241214
vt 0.8042952 0.9770931
vt 0.9410375 0.9770931
vt 0.9410375 0.3241214
vt 0.8714777 0.3241214
vt 0.8714777 0.9770931
vt 0.9831126 0.9770931
vt 0.9831126 0.3241214
vt 0.9410375 0.3241214
vt 0.9410375 0.9770931
vt 0.6629264 0.3241214
vt 0.8042951 0.3241214
vt 0.8042951 0.490339
vt 0.6629264 0.490339
vt 0.8042951 0.3241214
vt 0.8714777 0.3241214
vt 0.8714777 0.490339
vt 0.8042951 0.490339
vt 0.8714777 0.3241214
vt 0.9410375 0.3241214
vt 0.9410375 0.490339
vt 0.8714777 0.490339
vt 0.9410375 0.3241214
vt 0.9831126 0.3241214
vt 0.9831126 0.490339
vt 0.9410375 0.490339
vt 0.6629264 0.3241214
vt 0.8042951 0.3241214
vt 0.8042952 0.9770931
vt 0.6629264 0.9770931
vt 0.8042951 0.3241214
vt 0.8714777 0.3241214
vt 0.8714777 0.9770931
vt 0.8042952 0.9770931
vt 0.8714777 0.3241214
vt 0.9410375 0.3241214
vt 0.9410375 0.9770931
vt 0.8714777 0.9770931
vt 0.9410375 0.3241214
vt 0.9831126 0.3241214
vt 0.9831126 0.9770931
vt 0.9410375 0.9770931
vt 0.8042951 0.490339
vt 0.8042951 0.3241214
vt 0.6629264 0.3241214
vt 0.6629264 0.490339
vt 0.8714777 0.490339
vt 0.8714777 0.3241214
vt 0.8042951 0.3241214
vt 0.8042951 0.490339
vt 0.9410375 0.490339
vt 0.9410375 0.3241214
vt 0.8714777 0.3241214
vt 0.8714777 0.490339
vt 0.9831126 0.490339
vt 0.9831126 0.3241214
vt 0.9410375 0.3241214
vt 0.9410375 0.490339
vt 0.2872185 0.6678321
vt 0.286921 0.8087739
vt 0.3279026 0.8087739
vt 0.3279026 0.6678321
vt 0.2329422 0.8087739
vt 0.2321596 0.6291995
vt 0.1833598 0.6720784
vt 0.1833598 0.8087739
vt 0.07456931 0.6049534
vt 0.1638331 0.6049534
vt 0.1638331 0.2050727
vt 0.07456931 0.2050727
vt 0.07456931 0.2050727
vt 0.1638331 0.2050727
vt 0.163833 0.3068646
vt 0.07456931 0.3068645
vt 0.3279026 0.6678321
vt 0.3279026 0.8087739
vt 0.286921 0.8087739
vt 0.2872185 0.6678321
vt 0.2329422 0.8087739
vt 0.2321596 0.6291995
vt 0.1833598 0.6720784
vt 0.1833598 0.8087739
vt 0.07456931 0.2050727
vt 0.1638331 0.2050727
vt 0.163833 0.6049534
vt 0.07456931 0.6049534
vt 0.07456931 0.3068645
vt 0.163833 0.3068646
vt 0.1638331 0.2050727
vt 0.07456931 0.2050727
vn 5.489281E-07 -5.574171E-07 1
vn 5.855231E-07 -5.57417E-07 1
vn 5.85523E-07 -5.545986E-07 1
vn 5.48928E-07 -5.545988E-07 1
vn 0.7512095 1.366453E-06 0.6600638
vn 0.7512096 1.366453E-06 0.6600638
vn 0.7512094 1.607015E-06 0.6600639
vn 0.7512094 1.607015E-06 0.6600639
vn 0.8185918 2.264334E-06 -0.5743757
vn 0.8185918 2.264334E-06 -0.5743757
vn 0.8185918 2.475202E-06 -0.5743757
vn 0.8185918 2.475202E-06 -0.5743757
vn 1 2.419823E-06 -9.836517E-07
vn 1 2.419823E-06 -9.836517E-07
vn 1 2.598698E-06 -9.836513E-07
vn 1 2.598698E-06 -9.836513E-07
vn 5.855232E-07 -5.602353E-07 1
vn 5.855231E-07 -5.57417E-07 1
vn 5.489281E-07 -5.574171E-07 1
vn 5.489283E-07 -5.602354E-07 1
vn 0.7512096 1.407362E-06 0.6600638
vn 0.7512096 1.366453E-06 0.6600638
vn 0.7512095 1.366453E-06 0.6600638
vn 0.7512096 1.407362E-06 0.6600637
vn 0.8185918 2.257355E-06 -0.5743757
vn 0.8185918 2.264334E-06 -0.5743757
vn 0.8185918 2.264334E-06 -0.5743757
vn 0.8185918 2.257355E-06 -0.5743757
vn 1 2.365445E-06 -9.836523E-07
vn 1 2.419823E-06 -9.836517E-07
vn 1 2.419823E-06 -9.836517E-07
vn 1 2.365445E-06 -9.836523E-07
vn 5.855231E-07 -5.545988E-07 1
vn 5.855231E-07 -5.57417E-07 1
vn 5.489284E-07 -5.574171E-07 1
vn 5.489284E-07 -5.545988E-07 1
vn 0.7512094 1.371593E-06 0.6600639
vn 0.7512094 1.530213E-06 0.6600639
vn 0.7512095 1.530213E-06 0.6600638
vn 0.7512094 1.371593E-06 0.6600639
vn 0.8185918 2.213842E-06 -0.5743757
vn 0.8185918 2.337543E-06 -0.5743757
vn 0.8185918 2.337543E-06 -0.5743757
vn 0.8185918 2.213842E-06 -0.5743757
vn 1 2.345167E-06 -9.836515E-07
vn 1 2.417554E-06 -9.836519E-07
vn 1 2.417554E-06 -9.836519E-07
vn 1 2.345167E-06 -9.836515E-07
vn 5.489284E-07 -5.574171E-07 1
vn 5.855231E-07 -5.57417E-07 1
vn 5.855232E-07 -5.602353E-07 1
vn 5.489283E-07 -5.602354E-07 1
vn 0.7512095 1.530213E-06 0.6600638
vn 0.7512094 1.530213E-06 0.6600639
vn 0.7512096 1.407362E-06 0.6600638
vn 0.7512096 1.407362E-06 0.6600637
vn 0.8185918 2.337543E-06 -0.5743757
vn 0.8185918 2.337543E-06 -0.5743757
vn 0.8185918 2.257355E-06 -0.5743757
vn 0.8185918 2.257355E-06 -0.5743757
vn 1 2.417554E-06 -9.836519E-07
vn 1 2.417554E-06 -9.836519E-07
vn 1 2.365445E-06 -9.836523E-07
vn 1 2.365445E-06 -9.836523E-07
vn 2.271524E-06 -1 0
vn 2.321784E-06 -1 -1.616968E-07
vn 2.257591E-06 -1 0
vn 2.271524E-06 -1 0
vn 2.388201E-06 -1 -7.972032E-07
vn 2.263437E-06 -1 -7.159388E-07
vn 2.2812E-06 -1 -1.446385E-06
vn 2.404582E-06 -1 -1.274087E-06
vn -5.501362E-07 5.613787E-07 -1
vn -5.501362E-07 5.625216E-07 -1
vn -5.678824E-07 5.625216E-07 -1
vn -5.678825E-07 5.613786E-07 -1
vn -5.501363E-07 5.602355E-07 -1
vn -5.501362E-07 5.613787E-07 -1
vn -5.678825E-07 5.613786E-07 -1
vn -5.678825E-07 5.602354E-07 -1
vn -2.259516E-06 1 3.233917E-07
vn -2.271524E-06 1 0
vn -2.271524E-06 1 0
vn -2.113088E-06 1 4.114179E-07
vn -2.387364E-06 1 4.337259E-07
vn -2.009933E-06 1 0
vn -2.022372E-06 1 -8.81431E-07
vn -2.527965E-06 1 2.203586E-07
vn -5.501362E-07 5.545988E-07 -1
vn -5.501362E-07 5.574171E-07 -1
vn -5.678825E-07 5.57417E-07 -1
vn -5.678824E-07 5.545988E-07 -1
vn -5.501362E-07 5.574171E-07 -1
vn -5.501363E-07 5.602355E-07 -1
vn -5.678825E-07 5.602354E-07 -1
vn -5.678825E-07 5.57417E-07 -1
vn 5.123329E-07 -5.545989E-07 1
vn 5.123332E-07 -5.574174E-07 1
vn 5.489281E-07 -5.574171E-07 1
vn 5.48928E-07 -5.545988E-07 1
vn -0.7512089 -2.08298E-06 0.6600645
vn -0.7512091 -2.25534E-06 0.6600644
vn -0.7512091 -2.25534E-06 0.6600644
vn -0.7512089 -2.08298E-06 0.6600645
vn -0.8185926 -1.544684E-06 -0.5743746
vn -0.8185926 -1.682566E-06 -0.5743746
vn -0.8185926 -1.682566E-06 -0.5743746
vn -0.8185926 -1.544685E-06 -0.5743746
vn -1 -2.313475E-06 4.918236E-07
vn -1 -2.401708E-06 4.918235E-07
vn -1 -2.401708E-06 4.918236E-07
vn -1 -2.313475E-06 4.918236E-07
vn 5.489281E-07 -5.574171E-07 1
vn 5.123332E-07 -5.574174E-07 1
vn 5.123334E-07 -5.602355E-07 1
vn 5.489283E-07 -5.602354E-07 1
vn -0.7512091 -2.25534E-06 0.6600644
vn -0.7512091 -2.25534E-06 0.6600644
vn -0.7512091 -2.193977E-06 0.6600643
vn -0.7512091 -2.193978E-06 0.6600643
vn -0.8185926 -1.682566E-06 -0.5743746
vn -0.8185926 -1.682566E-06 -0.5743746
vn -0.8185926 -1.66753E-06 -0.5743745
vn -0.8185926 -1.66753E-06 -0.5743746
vn -1 -2.401708E-06 4.918236E-07
vn -1 -2.401708E-06 4.918235E-07
vn -1 -2.427693E-06 4.918248E-07
vn -1 -2.427693E-06 4.918248E-07
vn 5.489284E-07 -5.574171E-07 1
vn 5.123337E-07 -5.574173E-07 1
vn 5.123337E-07 -5.545989E-07 1
vn 5.489284E-07 -5.545988E-07 1
vn -0.7512091 -2.139968E-06 0.6600643
vn -0.7512091 -2.139968E-06 0.6600644
vn -0.751209 -2.319682E-06 0.6600645
vn -0.751209 -2.319682E-06 0.6600645
vn -0.8185926 -1.661255E-06 -0.5743746
vn -0.8185926 -1.661256E-06 -0.5743746
vn -0.8185925 -1.807899E-06 -0.5743747
vn -0.8185925 -1.807899E-06 -0.5743747
vn -1 -2.466225E-06 4.918253E-07
vn -1 -2.466225E-06 4.918253E-07
vn -1 -2.567007E-06 4.918247E-07
vn -1 -2.567007E-06 4.918247E-07
vn 5.123334E-07 -5.602355E-07 1
vn 5.123337E-07 -5.574173E-07 1
vn 5.489284E-07 -5.574171E-07 1
vn 5.489283E-07 -5.602354E-07 1
vn -0.7512091 -2.193977E-06 0.6600643
vn -0.7512091 -2.139968E-06 0.6600644
vn -0.7512091 -2.139968E-06 0.6600643
vn -0.7512091 -2.193978E-06 0.6600643
vn -0.8185926 -1.66753E-06 -0.5743745
vn -0.8185926 -1.661256E-06 -0.5743746
vn -0.8185926 -1.661255E-06 -0.5743746
vn -0.8185926 -1.66753E-06 -0.5743746
vn -1 -2.427693E-06 4.918248E-07
vn -1 -2.466225E-06 4.918253E-07
vn -1 -2.466225E-06 4.918253E-07
vn -1 -2.427693E-06 4.918248E-07
vn 2.402094E-06 -1 -3.390603E-07
vn 2.321784E-06 -1 -1.616968E-07
vn 2.271524E-06 -1 0
vn 2.271524E-06 -1 0
vn 2.388201E-06 -1 -7.972032E-07
vn 2.511243E-06 -1 -8.283408E-07
vn 2.527965E-06 -1 -1.101789E-06
vn 2.404582E-06 -1 -1.274087E-06
vn -5.323899E-07 5.625217E-07 -1
vn -5.501362E-07 5.625216E-07 -1
vn -5.501362E-07 5.613787E-07 -1
vn -5.3239E-07 5.613787E-07 -1
vn -5.3239E-07 5.613787E-07 -1
vn -5.501362E-07 5.613787E-07 -1
vn -5.501363E-07 5.602355E-07 -1
vn -5.3239E-07 5.602355E-07 -1
vn -2.271524E-06 1 0
vn -2.271524E-06 1 0
vn -2.259516E-06 1 3.233917E-07
vn -2.402094E-06 1 3.390602E-07
vn -2.387364E-06 1 4.337259E-07
vn -2.750016E-06 1 9.324075E-07
vn -3.033558E-06 1 1.322147E-06
vn -2.527965E-06 1 2.203586E-07
vn -5.323899E-07 5.57417E-07 -1
vn -5.501362E-07 5.574171E-07 -1
vn -5.501362E-07 5.545988E-07 -1
vn -5.323899E-07 5.545988E-07 -1
vn -5.3239E-07 5.602355E-07 -1
vn -5.501363E-07 5.602355E-07 -1
vn -5.501362E-07 5.574171E-07 -1
vn -5.323899E-07 5.57417E-07 -1
g mount_qars_troy_qars_4,2_inch_rail_section_LOD1_0
f 3/3/3 2/2/2 1/1/1
f 4/4/4 3/3/3 1/1/1
f 7/7/7 6/6/6 5/5/5
f 8/8/8 7/7/7 5/5/5
f 11/11/11 10/10/10 9/9/9
f 12/12/12 11/11/11 9/9/9
f 15/15/15 14/14/14 13/13/13
f 16/16/16 15/15/15 13/13/13
f 19/19/19 18/18/18 17/17/17
f 20/20/20 19/19/19 17/17/17
f 23/23/23 22/22/22 21/21/21
f 24/24/24 23/23/23 21/21/21
f 27/27/27 26/26/26 25/25/25
f 28/28/28 27/27/27 25/25/25
f 31/31/31 30/30/30 29/29/29
f 32/32/32 31/31/31 29/29/29
f 35/35/35 34/34/34 33/33/33
f 36/36/36 35/35/35 33/33/33
f 39/39/39 38/38/38 37/37/37
f 40/40/40 39/39/39 37/37/37
f 43/43/43 42/42/42 41/41/41
f 44/44/44 43/43/43 41/41/41
f 47/47/47 46/46/46 45/45/45
f 48/48/48 47/47/47 45/45/45
f 51/51/51 50/50/50 49/49/49
f 52/52/52 51/51/51 49/49/49
f 55/55/55 54/54/54 53/53/53
f 56/56/56 55/55/55 53/53/53
f 59/59/59 58/58/58 57/57/57
f 60/60/60 59/59/59 57/57/57
f 63/63/63 62/62/62 61/61/61
f 64/64/64 63/63/63 61/61/61
f 67/67/67 66/66/66 65/65/65
f 68/68/68 67/67/67 65/65/65
f 66/66/66 67/67/67 69/69/69
f 67/67/67 70/70/70 69/69/69
f 70/70/70 71/71/71 69/69/69
f 71/71/71 72/72/72 69/69/69
f 75/75/75 74/74/74 73/73/73
f 76/76/76 75/75/75 73/73/73
f 79/79/79 78/78/78 77/77/77
f 80/80/80 79/79/79 77/77/77
f 83/83/83 82/82/82 81/81/81
f 84/84/84 83/83/83 81/81/81
f 84/84/84 81/81/81 85/85/85
f 86/86/86 84/84/84 85/85/85
f 87/87/87 86/86/86 85/85/85
f 88/88/88 87/87/87 85/85/85
f 91/91/91 90/90/90 89/89/89
f 92/92/92 91/91/91 89/89/89
f 95/95/95 94/94/94 93/93/93
f 96/96/96 95/95/95 93/93/93
f 99/99/99 98/98/98 97/97/97
f 100/100/100 99/99/99 97/97/97
f 103/103/103 102/102/102 101/101/101
f 104/104/104 103/103/103 101/101/101
f 107/107/107 106/106/106 105/105/105
f 108/108/108 107/107/107 105/105/105
f 111/111/111 110/110/110 109/109/109
f 112/112/112 111/111/111 109/109/109
f 115/115/115 114/114/114 113/113/113
f 116/116/116 115/115/115 113/113/113
f 119/119/119 118/118/118 117/117/117
f 120/120/120 119/119/119 117/117/117
f 123/123/123 122/122/122 121/121/121
f 124/124/124 123/123/123 121/121/121
f 127/127/127 126/126/126 125/125/125
f 128/128/128 127/127/127 125/125/125
f 131/131/131 130/130/130 129/129/129
f 132/132/132 131/131/131 129/129/129
f 135/135/135 134/134/134 133/133/133
f 136/136/136 135/135/135 133/133/133
f 139/139/139 138/138/138 137/137/137
f 140/140/140 139/139/139 137/137/137
f 143/143/143 142/142/142 141/141/141
f 144/144/144 143/143/143 141/141/141
f 147/147/147 146/146/146 145/145/145
f 148/148/148 147/147/147 145/145/145
f 151/151/151 150/150/150 149/149/149
f 152/152/152 151/151/151 149/149/149
f 155/155/155 154/154/154 153/153/153
f 156/156/156 155/155/155 153/153/153
f 159/159/159 158/158/158 157/157/157
f 160/160/160 159/159/159 157/157/157
f 163/163/163 162/162/162 161/161/161
f 164/164/164 163/163/163 161/161/161
f 161/161/161 162/162/162 165/165/165
f 166/166/166 161/161/161 165/165/165
f 166/166/166 165/165/165 167/167/167
f 165/165/165 168/168/168 167/167/167
f 171/171/171 170/170/170 169/169/169
f 172/172/172 171/171/171 169/169/169
f 175/175/175 174/174/174 173/173/173
f 176/176/176 175/175/175 173/173/173
f 179/179/179 178/178/178 177/177/177
f 180/180/180 179/179/179 177/177/177
f 181/181/181 179/179/179 180/180/180
f 182/182/182 181/181/181 180/180/180
f 182/182/182 183/183/183 181/181/181
f 183/183/183 184/184/184 181/181/181
f 187/187/187 186/186/186 185/185/185
f 188/188/188 187/187/187 185/185/185
f 191/191/191 190/190/190 189/189/189
f 192/192/192 191/191/191 189/189/189
