g mount_casv_vltor_2_inch_picatinny_rail_section_LOD1
v -0.008140359 -0.02746063 0.003643589
v -0.008140359 -0.02746063 -1.340866E-05
v -0.008140364 0.02731136 -1.340866E-05
v -0.008140364 0.02731136 0.003643589
v -0.01085035 -0.02746063 0.00650959
v -0.008140359 -0.02746063 0.003643589
v -0.008140364 0.02731136 0.003643589
v -0.01085036 0.02731136 0.00650959
v -0.008140354 -0.02746063 0.009237594
v -0.01085035 -0.02746063 0.00650959
v -0.01085036 0.02731136 0.00650959
v -0.008140359 0.02731136 0.009237594
v 0.008141642 0.02731136 0.009237594
v -0.008140359 0.02731136 0.009237594
v -0.01085036 0.02731136 0.00650959
v 0.01085164 0.02731136 0.00650959
v -0.008140364 0.02731136 0.003643589
v 0.008141642 0.02731136 0.003643589
v -0.008140364 0.02731136 -1.340866E-05
v 0.008141642 0.02731136 -1.340866E-05
v 0.008141643 -0.02746063 0.003643589
v 0.008141642 0.02731136 0.003643589
v 0.008141642 0.02731136 -1.340866E-05
v 0.008141643 -0.02746063 -1.340866E-05
v 0.01085164 -0.02746063 0.00650959
v 0.01085164 0.02731136 0.00650959
v 0.008141642 0.02731136 0.003643589
v 0.008141643 -0.02746063 0.003643589
v 0.008141643 -0.02746063 0.009237594
v 0.008141642 0.02731136 0.009237594
v 0.01085164 0.02731136 0.00650959
v 0.01085164 -0.02746063 0.00650959
v -0.008140354 -0.02746063 0.009237594
v -0.008140359 0.02731136 0.009237594
v 0.008141642 0.02731136 0.009237594
v 0.008141643 -0.02746063 0.009237594
v 0.008141642 0.02731136 -1.340866E-05
v -0.008140364 0.02731136 -1.340866E-05
v -0.008140359 -0.02746063 -1.340866E-05
v 0.008141643 -0.02746063 -1.340866E-05
v 0.008141643 -0.02746063 0.009237594
v 0.01085164 -0.02746063 0.00650959
v -0.01085035 -0.02746063 0.00650959
v -0.008140354 -0.02746063 0.009237594
v -0.008140359 -0.02746063 0.003643589
v 0.008141643 -0.02746063 0.003643589
v -0.008140359 -0.02746063 -1.340866E-05
v 0.008141643 -0.02746063 -1.340866E-05
vt 0.8879828 0.7903399
vt 0.8879828 0.8346828
vt 0.564912 0.8346828
vt 0.564912 0.7903399
vt 0.8879828 0.9090837
vt 0.8879828 0.9568987
vt 0.564912 0.9568987
vt 0.564912 0.9090837
vt 0.8879828 0.8625584
vt 0.8879828 0.9090837
vt 0.564912 0.9090837
vt 0.564912 0.8625584
vt 0.9508673 0.8211915
vt 0.9508673 0.623781
vt 0.9347712 0.5909454
vt 0.9347712 0.8540271
vt 0.9178754 0.6238802
vt 0.9178754 0.8211915
vt 0.8962807 0.6238802
vt 0.8962807 0.8211915
vt 0.8879828 0.7903399
vt 0.564912 0.7903399
vt 0.564912 0.8346828
vt 0.8879828 0.8346828
vt 0.8879828 0.9090837
vt 0.564912 0.9090837
vt 0.564912 0.9568987
vt 0.8879828 0.9568987
vt 0.8879828 0.8625584
vt 0.564912 0.8625584
vt 0.564912 0.9090837
vt 0.8879828 0.9090837
vt 0.5641122 0.7842886
vt 0.887233 0.7842886
vt 0.887233 0.5868782
vt 0.5641122 0.5868782
vt 0.9518171 0.3775636
vt 0.9518171 0.2108063
vt 0.678784 0.2108063
vt 0.678784 0.3775636
vt 0.9508673 0.623781
vt 0.9347712 0.5909454
vt 0.9347712 0.8540271
vt 0.9508673 0.8211915
vt 0.9178754 0.8211915
vt 0.9178754 0.6238802
vt 0.8962807 0.8211915
vt 0.8962807 0.6238802
vn -1 0 0
vn -1 0 0
vn -1 0 0
vn -1 0 0
vn -0.7266415 0 -0.6870169
vn -0.7266189 0 -0.6870406
vn -0.7266189 0 -0.6870406
vn -0.7266415 0 -0.6870169
vn -0.7094394 0 0.7047664
vn -0.7094394 0 0.7047664
vn -0.7094394 0 0.7047664
vn -0.7094394 0 0.7047664
vn 0 1 0
vn 0 1 0
vn 0 1 0
vn 0 1 0
vn 0 1 0
vn 0 1 0
vn 0 1 0
vn 0 1 0
vn 1 0 0
vn 1 0 0
vn 1 0 0
vn 1 0 0
vn 0.7266189 0 -0.6870406
vn 0.7266189 0 -0.6870406
vn 0.7266189 0 -0.6870406
vn 0.7266189 0 -0.6870406
vn 0.7094394 0 0.7047664
vn 0.7094394 0 0.7047664
vn 0.7094394 0 0.7047664
vn 0.7094394 0 0.7047664
vn 0 0 1
vn 0 0 1
vn 0 0 1
vn 0 0 1
vn 0 0 -1
vn 0 0 -1
vn 0 0 -1
vn 0 0 -1
vn 0 -1 0
vn 0 -1 0
vn 0 -1 0
vn 0 -1 0
vn 0 -1 0
vn 0 -1 0
vn 0 -1 0
vn 0 -1 0
g mount_casv_vltor_2_inch_picatinny_rail_section_LOD1_0
f 3/3/3 2/2/2 1/1/1
f 4/4/4 3/3/3 1/1/1
f 7/7/7 6/6/6 5/5/5
f 8/8/8 7/7/7 5/5/5
f 11/11/11 10/10/10 9/9/9
f 12/12/12 11/11/11 9/9/9
f 15/15/15 14/14/14 13/13/13
f 16/16/16 15/15/15 13/13/13
f 17/17/17 15/15/15 16/16/16
f 18/18/18 17/17/17 16/16/16
f 19/19/19 17/17/17 18/18/18
f 20/20/20 19/19/19 18/18/18
f 23/23/23 22/22/22 21/21/21
f 24/24/24 23/23/23 21/21/21
f 27/27/27 26/26/26 25/25/25
f 28/28/28 27/27/27 25/25/25
f 31/31/31 30/30/30 29/29/29
f 32/32/32 31/31/31 29/29/29
f 35/35/35 34/34/34 33/33/33
f 36/36/36 35/35/35 33/33/33
f 39/39/39 38/38/38 37/37/37
f 40/40/40 39/39/39 37/37/37
f 43/43/43 42/42/42 41/41/41
f 44/44/44 43/43/43 41/41/41
f 43/43/43 45/45/45 42/42/42
f 45/45/45 46/46/46 42/42/42
f 45/45/45 47/47/47 46/46/46
f 47/47/47 48/48/48 46/46/46
