g Bolt_catch_LOD0
v 0.002144108 -0.002283684 0.004508632
v 0.00214411 0.01182778 0.004508632
v 0.002270414 0.011908 -0.002612612
v 0.002270411 -0.002363912 -0.002612612
v 0.002520236 -0.00222808 -0.003163483
v 0.002520238 0.01177217 -0.003163483
v 0.003689123 0.0111353 -0.004442427
v 0.003689121 -0.001591212 -0.004442427
v 0.004514516 -0.0004910814 -0.005315218
v 0.004514518 0.01003517 -0.005315218
v 0.005643447 0.006478613 -0.006243317
v 0.005643446 0.003065466 -0.00624335
v 0.0052583 0.001337298 -0.006080317
v 0.005258301 0.008206781 -0.006080317
v 0.001167995 0.01159123 -0.002784207
v 0.001156255 0.01159123 0.004508634
v 0.001156253 -0.002047139 0.004508634
v 0.001167992 -0.002047144 -0.002784207
v 0.001544323 -0.001922203 -0.003643363
v 0.001544325 0.0114663 -0.003643363
v 0.002827603 0.01086713 -0.005066729
v 0.0028276 -0.001323043 -0.005066729
v 0.003642414 -0.0003062928 -0.005926514
v 0.003642415 0.009850376 -0.005926511
v 0.004781052 0.006441873 -0.006766024
v 0.004781035 0.00310222 -0.006766024
v 0.004407221 0.001441849 -0.006585398
v 0.004407238 0.008102239 -0.006585398
v 0.00214411 0.01182778 0.004508632
v 0.001156255 0.01159123 0.004508634
v 0.001167995 0.01159123 -0.002784207
v 0.002270414 0.011908 -0.002612612
v 0.001544325 0.0114663 -0.003643363
v 0.002520238 0.01177217 -0.003163483
v 0.002827603 0.01086713 -0.005066729
v 0.003689123 0.0111353 -0.004442427
v 0.003642415 0.009850376 -0.005926511
v 0.004514518 0.01003517 -0.005315218
v 0.004407238 0.008102239 -0.006585398
v 0.005258301 0.008206781 -0.006080317
v 0.005643447 0.006478613 -0.006243317
v 0.004781052 0.006441873 -0.006766024
v 0.004781035 0.00310222 -0.006766024
v 0.005643446 0.003065466 -0.00624335
v 0.0052583 0.001337298 -0.006080317
v 0.004407221 0.001441849 -0.006585398
v 0.003642414 -0.0003062928 -0.005926514
v 0.004514516 -0.0004910814 -0.005315218
v 0.0028276 -0.001323043 -0.005066729
v 0.003689121 -0.001591212 -0.004442427
v 0.001544323 -0.001922203 -0.003643363
v 0.002520236 -0.00222808 -0.003163483
v 0.001167992 -0.002047144 -0.002784207
v 0.002270411 -0.002363912 -0.002612612
v 0.001156253 -0.002047139 0.004508634
v 0.002144108 -0.002283684 0.004508632
v 0.001156253 -0.002047139 0.004508634
v 0.001156255 0.01159123 0.004508634
v 0.00214411 0.01182778 0.004508632
v 0.002144108 -0.002283684 0.004508632
vt 0.1981281 0.7327513
vt 0.242996 0.7327513
vt 0.242996 0.7129504
vt 0.1981281 0.7129504
vt 0.1984306 0.7112688
vt 0.2426935 0.7112688
vt 0.2406799 0.7064517
vt 0.2004439 0.7064517
vt 0.2039223 0.7031118
vt 0.2372014 0.7031118
vt 0.2259574 0.6990488
vt 0.2151664 0.6990488
vt 0.2096805 0.7001029
vt 0.2314434 0.7001029
vt 0.07354084 0.5317299
vt 0.07354084 0.5464277
vt 0.1047993 0.5464277
vt 0.1047993 0.5317299
vt 0.104513 0.5298394
vt 0.07382725 0.5298394
vt 0.07520042 0.5259768
vt 0.1031399 0.5259768
vt 0.1008094 0.5235895
vt 0.0775309 0.5235895
vt 0.08534292 0.5207382
vt 0.09299717 0.5207382
vt 0.09681021 0.5215401
vt 0.08152997 0.5215401
vt 0.4772538 0.7155555
vt 0.4772538 0.7124343
vt 0.4566761 0.7124343
vt 0.4567292 0.7155555
vt 0.4542954 0.7124343
vt 0.4546461 0.7155555
vt 0.4487007 0.7124343
vt 0.4490663 0.7155555
vt 0.4438384 0.7124343
vt 0.4439389 0.7155555
vt 0.4371966 0.7124343
vt 0.4371623 0.7155555
vt 0.4315062 0.7155555
vt 0.4315587 0.7124343
vt 0.4208621 0.7124343
vt 0.4207963 0.7155555
vt 0.4154955 0.7155555
vt 0.4155623 0.7124343
vt 0.4093104 0.7124343
vt 0.4091366 0.7155555
vt 0.4043302 0.7124343
vt 0.404085 0.7155555
vt 0.3980224 0.7124343
vt 0.3980381 0.7155555
vt 0.3955733 0.7124343
vt 0.3956642 0.7155555
vt 0.3750903 0.7124343
vt 0.3750903 0.7155555
vt 0.5252141 0.7507831
vt 0.4820994 0.7507831
vt 0.4813515 0.7535292
vt 0.5259621 0.7535292
vn 0.9998428 -1.679227E-07 0.01773336
vn 0.9998428 -1.679227E-07 0.01773336
vn 0.9786839 -1.647928E-07 0.2053727
vn 0.9786838 -1.647928E-07 0.2053727
vn 0.8509959 -1.470536E-07 0.5251724
vn 0.8509959 -1.470536E-07 0.5251722
vn 0.7346826 -1.262751E-07 0.678411
vn 0.7346826 -1.262751E-07 0.678411
vn 0.7231435 -0.007528168 0.6906568
vn 0.7231449 0.007528513 0.6906553
vn 0.6513382 0.008748072 0.7587371
vn 0.6513365 -0.008750588 0.7587386
vn 0.8604333 -0.1456949 0.4882904
vn 0.860445 0.1457092 0.4882656
vn -0.9804518 1.721356E-07 -0.1967598
vn -0.9999987 1.748056E-07 -0.001609759
vn -0.9999987 1.748056E-07 -0.001609759
vn -0.9804518 1.721356E-07 -0.1967595
vn -0.8527556 1.541944E-07 -0.5223101
vn -0.8527556 1.541944E-07 -0.5223101
vn -0.7374447 1.55508E-07 -0.6754076
vn -0.7374447 1.55508E-07 -0.6754076
vn -0.7115765 0.005198835 -0.7025893
vn -0.7115757 -0.005198163 -0.7025901
vn -0.6048625 -0.005926974 -0.7963079
vn -0.604863 0.0059288 -0.7963076
vn -0.7792959 0.1083039 -0.6172263
vn -0.7792853 -0.1083003 -0.6172403
vn -0.2561179 0.9666411 0.002927109
vn -0.2561179 0.9666411 0.00292711
vn -0.2309212 0.9644538 -0.1284685
vn -0.2297637 0.9639806 -0.1339781
vn -0.114787 0.9305138 -0.3478045
vn -0.110011 0.9293875 -0.3523299
vn 0.1250836 0.8284171 -0.5459663
vn 0.1208489 0.8310279 -0.5429441
vn 0.3458466 0.6104822 -0.7125318
vn 0.343162 0.614706 -0.7101946
vn 0.4592977 0.348022 -0.8172676
vn 0.4612315 0.3406281 -0.8192912
vn 0.5081564 0.09645908 -0.8558462
vn 0.5076309 0.100446 -0.8556994
vn 0.5076202 -0.1004451 -0.8557059
vn 0.5081459 -0.09645905 -0.8558524
vn 0.4612187 -0.3406301 -0.8192976
vn 0.4592858 -0.3480224 -0.817274
vn 0.3458465 -0.6104814 -0.7125326
vn 0.3431621 -0.614705 -0.7101954
vn 0.125083 -0.828418 -0.5459651
vn 0.1208482 -0.8310286 -0.542943
vn -0.114789 -0.9305132 -0.3478054
vn -0.1100131 -0.929387 -0.3523306
vn -0.2309217 -0.9644536 -0.1284699
vn -0.2297643 -0.9639803 -0.1339796
vn -0.2561179 -0.9666411 0.002927748
vn -0.2561179 -0.9666411 0.002927748
vn 1.206748E-06 0 1
vn 1.206748E-06 0 1
vn 1.206748E-06 0 1
vn 1.206748E-06 0 1
g Bolt_catch_LOD0_0
f 3/3/3 2/2/2 1/1/1
f 4/4/4 3/3/3 1/1/1
f 4/4/4 5/5/5 3/3/3
f 5/5/5 6/6/6 3/3/3
f 7/7/7 6/6/6 5/5/5
f 8/8/8 7/7/7 5/5/5
f 8/8/8 9/9/9 7/7/7
f 9/9/9 10/10/10 7/7/7
f 11/11/11 10/10/10 9/9/9
f 12/12/12 11/11/11 9/9/9
f 12/12/12 9/9/9 13/13/13
f 14/14/14 10/10/10 11/11/11
f 17/17/17 16/16/16 15/15/15
f 18/18/18 17/17/17 15/15/15
f 19/19/19 18/18/18 15/15/15
f 20/20/20 19/19/19 15/15/15
f 20/20/20 21/21/21 19/19/19
f 21/21/21 22/22/22 19/19/19
f 22/22/22 21/21/21 23/23/23
f 21/21/21 24/24/24 23/23/23
f 24/24/24 25/25/25 23/23/23
f 25/25/25 26/26/26 23/23/23
f 27/27/27 23/23/23 26/26/26
f 28/28/28 25/25/25 24/24/24
f 31/31/31 30/30/30 29/29/29
f 32/32/32 31/31/31 29/29/29
f 33/33/33 31/31/31 32/32/32
f 34/34/34 33/33/33 32/32/32
f 35/35/35 33/33/33 34/34/34
f 36/36/36 35/35/35 34/34/34
f 37/37/37 35/35/35 36/36/36
f 38/38/38 37/37/37 36/36/36
f 39/39/39 37/37/37 38/38/38
f 40/40/40 39/39/39 38/38/38
f 40/40/40 41/41/41 39/39/39
f 41/41/41 42/42/42 39/39/39
f 42/42/42 41/41/41 43/43/43
f 41/41/41 44/44/44 43/43/43
f 44/44/44 45/45/45 43/43/43
f 45/45/45 46/46/46 43/43/43
f 47/47/47 46/46/46 45/45/45
f 48/48/48 47/47/47 45/45/45
f 49/49/49 47/47/47 48/48/48
f 50/50/50 49/49/49 48/48/48
f 51/51/51 49/49/49 50/50/50
f 52/52/52 51/51/51 50/50/50
f 53/53/53 51/51/51 52/52/52
f 54/54/54 53/53/53 52/52/52
f 55/55/55 53/53/53 54/54/54
f 56/56/56 55/55/55 54/54/54
f 59/59/59 58/58/58 57/57/57
f 60/60/60 59/59/59 57/57/57
