g Mag_release
v -0.005163717 0.001170082 -0.005516596
v -0.005163717 0.001433067 -0.004707451
v -0.005163717 9.8629E-05 -0.004151163
v -0.005163717 -0.0004401588 -0.004824972
v -0.005163717 0.002718964 -0.006168556
v -0.005163717 0.00314909 -0.005445089
v -0.005163716 0.003869066 -0.00700881
v -0.005163717 0.004488916 -0.006458817
v -0.005163716 0.004588871 -0.008061085
v -0.005163715 0.005361843 -0.007801227
v -0.005163716 0.004684868 -0.009005718
v -0.005163715 0.005516176 -0.009019146
v -0.005163715 0.004511433 -0.01026905
v -0.005163715 0.005284633 -0.01056771
v -0.005163715 0.004159231 -0.01104584
v -0.005163715 0.004814224 -0.01155141
v -0.005163715 0.003578024 -0.01161916
v -0.005163715 0.004043331 -0.01230577
v -0.005163715 0.002710142 -0.01201957
v -0.005163715 0.002946472 -0.01281859
v -0.005163715 0.001744919 -0.01215199
v -0.005163715 0.001755056 -0.01298379
v -0.005163716 0.0008915138 -0.01202383
v -0.005163715 0.000636816 -0.01281568
v -0.005163716 4.434586E-06 -0.01160997
v -0.005163716 -0.0004567623 -0.01230411
v -0.005163716 -0.000703516 -0.01097968
v -0.005163716 -0.001345053 -0.01150054
v -0.005163716 -0.001346054 -0.009714784
v -0.005163716 -0.002143421 -0.009935427
v -0.005163717 -0.001453199 -0.008937063
v -0.005163717 -0.002273493 -0.008902006
v -0.005163717 -0.001347561 -0.006009722
v -0.005260753 -0.00228405 -0.006126881
v -0.005163718 -0.002005434 -0.003223448
v -0.005163718 -0.000624094 -0.003223448
v 0.00488926 0.001170082 -0.005516596
v -0.005163717 0.001170082 -0.005516596
v -0.005163717 -0.0004401588 -0.004824972
v 0.00488926 -0.0004401493 -0.004824972
v 0.00488926 0.002718945 -0.006168575
v -0.005163717 0.002718964 -0.006168556
v 0.004889261 0.003869085 -0.007008791
v -0.005163716 0.003869066 -0.00700881
v 0.004889261 0.004588871 -0.008061085
v -0.005163716 0.004588871 -0.008061085
v 0.004889261 0.00468482 -0.009005699
v -0.005163716 0.004684868 -0.009005718
v 0.004889261 0.004511471 -0.01026905
v -0.005163715 0.004511433 -0.01026905
v 0.004889261 0.004159231 -0.01104584
v -0.005163715 0.004159231 -0.01104584
v 0.004889261 0.003578024 -0.01161916
v -0.005163715 0.003578024 -0.01161916
v 0.004889261 0.002710142 -0.01201951
v -0.005163715 0.002710142 -0.01201957
v 0.004889261 0.001744938 -0.01215199
v -0.005163715 0.001744919 -0.01215199
v 0.004889261 0.0008915233 -0.01202386
v -0.005163716 0.0008915138 -0.01202383
v 0.004889261 4.425049E-06 -0.01160999
v -0.005163716 4.434586E-06 -0.01160997
v 0.004889261 -0.000703516 -0.01097968
v -0.005163716 -0.000703516 -0.01097968
v 0.004889261 -0.001346006 -0.009714784
v -0.005163716 -0.001346054 -0.009714784
v 0.00488926 -0.001453247 -0.008937082
v -0.005163717 -0.001453199 -0.008937063
v 0.00488926 -0.001347561 -0.006009722
v -0.005163717 -0.001347561 -0.006009722
v 0.00488926 0.001433067 -0.004707451
v 0.00488926 0.001170082 -0.005516596
v 0.00488926 -0.0004401493 -0.004824972
v 0.00488926 9.8629E-05 -0.004151163
v 0.00488926 0.00314909 -0.005445089
v 0.00488926 0.002718945 -0.006168575
v 0.004889261 0.004488916 -0.006458817
v 0.004889261 0.003869085 -0.007008791
v 0.004889261 0.005361843 -0.007801227
v 0.004889261 0.004588871 -0.008061085
v 0.004889261 0.005516176 -0.009019146
v 0.004889261 0.00468482 -0.009005699
v 0.004889261 0.005284633 -0.01056771
v 0.004889261 0.004511471 -0.01026905
v 0.004889261 0.004814224 -0.01155141
v 0.004889261 0.004159231 -0.01104584
v 0.004889261 0.004043331 -0.01230577
v 0.004889261 0.003578024 -0.01161916
v 0.004889261 0.002946472 -0.01281859
v 0.004889261 0.002710142 -0.01201951
v 0.004889261 0.001755056 -0.01298379
v 0.004889261 0.001744938 -0.01215199
v 0.004889261 0.000636816 -0.01281568
v 0.004889261 0.0008915233 -0.01202386
v 0.004889261 -0.0004567623 -0.01230411
v 0.004889261 4.425049E-06 -0.01160999
v 0.004889261 -0.001345053 -0.01150054
v 0.004889261 -0.000703516 -0.01097968
v 0.00488926 -0.002143421 -0.009935427
v 0.004889261 -0.001346006 -0.009714784
v 0.00488926 -0.002273493 -0.008902006
v 0.00488926 -0.001453247 -0.008937082
v 0.004986295 -0.00228405 -0.006126881
v 0.00488926 -0.001347561 -0.006009722
v 0.004889259 -0.002005434 -0.003223448
v 0.004889259 -0.000624094 -0.003223448
v -0.005163717 0.001433067 -0.004707451
v 0.00488926 0.001433067 -0.004707451
v 0.00488926 9.8629E-05 -0.004151163
v -0.005163717 9.8629E-05 -0.004151163
v -0.005163717 0.00314909 -0.005445089
v 0.00488926 0.00314909 -0.005445089
v -0.005163717 0.004488916 -0.006458817
v 0.004889261 0.004488916 -0.006458817
v -0.005163715 0.005361843 -0.007801227
v 0.004889261 0.005361843 -0.007801227
v -0.005163715 0.005516176 -0.009019146
v 0.004889261 0.005516176 -0.009019146
v -0.005163715 0.005284633 -0.01056771
v 0.004889261 0.005284633 -0.01056771
v -0.005163715 0.004814224 -0.01155141
v 0.004889261 0.004814224 -0.01155141
v -0.005163715 0.004043331 -0.01230577
v 0.004889261 0.004043331 -0.01230577
v -0.005163715 0.002946472 -0.01281859
v 0.004889261 0.002946472 -0.01281859
v -0.005163715 0.001755056 -0.01298379
v 0.004889261 0.001755056 -0.01298379
v -0.005163715 0.000636816 -0.01281568
v 0.004889261 0.000636816 -0.01281568
v -0.005163716 -0.0004567623 -0.01230411
v 0.004889261 -0.0004567623 -0.01230411
v -0.005163716 -0.001345053 -0.01150054
v 0.004889261 -0.001345053 -0.01150054
v -0.005163716 -0.002143421 -0.009935427
v 0.00488926 -0.002143421 -0.009935427
v -0.005163717 -0.002273493 -0.008902006
v 0.00488926 -0.002273493 -0.008902006
v -0.005260753 -0.00228405 -0.006126881
v 0.004986295 -0.00228405 -0.006126881
v -0.005163718 -0.002005434 -0.003223448
v 0.004889259 -0.002005434 -0.003223448
v 0.004889259 -0.000624094 -0.003223448
v -0.005163718 -0.000624094 -0.003223448
v -0.003530287 -0.001190758 -0.001526508
v -0.003524766 -0.002442703 -0.001543283
v -0.005163718 -0.002005434 -0.003223448
v -0.005163718 -0.000624094 -0.003223448
v -0.002653443 -0.001466932 0.000212059
v -0.002652463 -0.002754516 0.0001903439
v -0.001685928 -0.003235579 0.004163465
v -0.001685928 -0.002176399 0.004174118
v -0.001710409 -0.006031818 0.02974076
v -0.001710409 -0.007063875 0.02972861
v 0.004889259 -0.002005434 -0.003223448
v 0.003250309 -0.002442703 -0.001543283
v 0.003255829 -0.001190758 -0.001526499
v 0.004889259 -0.000624094 -0.003223448
v 0.002378005 -0.002754516 0.0001903439
v 0.002378984 -0.001466932 0.000212059
v 0.001411468 -0.002176399 0.004174118
v 0.001411468 -0.003235579 0.004163465
v 0.001435948 -0.007063875 0.02972861
v 0.001435948 -0.006031818 0.02974075
v 0.004889259 -0.000624094 -0.003223448
v 0.003255829 -0.001190758 -0.001526499
v -0.003530287 -0.001190758 -0.001526508
v -0.005163718 -0.000624094 -0.003223448
v 0.002378984 -0.001466932 0.000212059
v -0.002653443 -0.001466932 0.000212059
v -0.001685928 -0.002176399 0.004174118
v 0.001411468 -0.002176399 0.004174118
v -0.001710409 -0.006031818 0.02974076
v 0.001435948 -0.006031818 0.02974075
v -0.005163718 -0.002005434 -0.003223448
v -0.003524766 -0.002442703 -0.001543283
v 0.003250309 -0.002442703 -0.001543283
v 0.004889259 -0.002005434 -0.003223448
v -0.002652463 -0.002754516 0.0001903439
v 0.002378005 -0.002754516 0.0001903439
v 0.001411468 -0.003235579 0.004163465
v -0.001685928 -0.003235579 0.004163465
v 0.001435948 -0.007063875 0.02972861
v -0.001710409 -0.007063875 0.02972861
v -0.001710409 -0.006031818 0.02974076
v 0.001435948 -0.006031818 0.02974075
v 0.001435948 -0.007063875 0.02972861
v -0.001710409 -0.007063875 0.02972861
v 0.00488926 -0.0004401493 -0.004824972
v -0.005163717 -0.0004401588 -0.004824972
v -0.005163717 -0.001347561 -0.006009722
v 0.00488926 -0.001347561 -0.006009722
vt 0.3135448 0.6618475
vt 0.3127626 0.6642465
vt 0.3167177 0.6659005
vt 0.3183182 0.6639045
vt 0.3089535 0.659911
vt 0.3076767 0.6620548
vt 0.3055449 0.6574181
vt 0.3037069 0.6590477
vt 0.3034125 0.654299
vt 0.3011215 0.6550683
vt 0.3031282 0.6515002
vt 0.3006652 0.6514595
vt 0.3036425 0.6477573
vt 0.301352 0.646872
vt 0.3046858 0.6454564
vt 0.3027457 0.6439586
vt 0.3064076 0.6437584
vt 0.3050295 0.6417242
vt 0.3089786 0.6425726
vt 0.3082788 0.6402054
vt 0.3118383 0.642181
vt 0.3118085 0.6397166
vt 0.3143669 0.6425608
vt 0.3151217 0.6402144
vt 0.316996 0.6437877
vt 0.3183628 0.6417302
vt 0.319095 0.6456556
vt 0.3209962 0.6441112
vt 0.3210012 0.6494055
vt 0.3233652 0.6487501
vt 0.3213203 0.6517119
vt 0.3237532 0.6518139
vt 0.3210154 0.6603945
vt 0.3238081 0.6600493
vt 0.3229529 0.6686581
vt 0.3188564 0.6686581
vt 0.604783 0.6999161
vt 0.6345844 0.6999161
vt 0.6345844 0.694721
vt 0.604783 0.694721
vt 0.604783 0.704898
vt 0.6345844 0.704898
vt 0.604783 0.7091205
vt 0.6345844 0.7091205
vt 0.604783 0.7128999
vt 0.6345844 0.7128999
vt 0.604783 0.7157143
vt 0.6345844 0.7157143
vt 0.604783 0.7194946
vt 0.6345844 0.7194946
vt 0.604783 0.7220232
vt 0.6345844 0.7220232
vt 0.604783 0.7244433
vt 0.6345844 0.7244431
vt 0.604783 0.7272767
vt 0.6345844 0.7272767
vt 0.604783 0.7301648
vt 0.6345844 0.7301649
vt 0.6047829 0.7327231
vt 0.6345844 0.7327234
vt 0.6047829 0.7356249
vt 0.6345845 0.735625
vt 0.6047829 0.738435
vt 0.6345845 0.738435
vt 0.6047829 0.7426407
vt 0.6345845 0.7426408
vt 0.6047829 0.7449681
vt 0.6345845 0.7449684
vt 0.6047829 0.7536517
vt 0.6345845 0.7536521
vt 0.7094014 0.6776478
vt 0.70862 0.6752495
vt 0.7038471 0.6773043
vt 0.7054467 0.6793005
vt 0.7144872 0.6754581
vt 0.7132111 0.6733139
vt 0.7184571 0.672452
vt 0.7166196 0.6708223
vt 0.7210431 0.668473
vt 0.7187524 0.6677032
vt 0.7215 0.6648642
vt 0.7190366 0.6649043
vt 0.7208133 0.6602763
vt 0.7185229 0.6611614
vt 0.7194196 0.6573622
vt 0.7174791 0.65886
vt 0.7171355 0.6551273
vt 0.7157571 0.6571617
vt 0.7138859 0.653608
vt 0.7131857 0.6559758
vt 0.7103558 0.6531178
vt 0.7103255 0.6555828
vt 0.7070417 0.6536152
vt 0.7077961 0.6559628
vt 0.7037998 0.6551303
vt 0.7051657 0.6571887
vt 0.7011648 0.6575107
vt 0.7030658 0.6590562
vt 0.6987931 0.6621488
vt 0.7011573 0.6628057
vt 0.6984041 0.6652125
vt 0.7008365 0.6651119
vt 0.6983591 0.673447
vt 0.7011515 0.6737941
vt 0.6992108 0.6820567
vt 0.7033072 0.6820567
vt 0.4675249 0.7299613
vt 0.4675246 0.7598084
vt 0.4718127 0.7598084
vt 0.4718127 0.7299613
vt 0.4619847 0.7299613
vt 0.4619847 0.7598084
vt 0.4570016 0.7299613
vt 0.4570013 0.7598084
vt 0.4522521 0.7299613
vt 0.4522519 0.7598084
vt 0.4486111 0.7299613
vt 0.4486108 0.7598084
vt 0.443967 0.7299613
vt 0.443967 0.7598084
vt 0.4407328 0.7299613
vt 0.4407328 0.7598084
vt 0.4375338 0.7299613
vt 0.4375338 0.7598084
vt 0.4339426 0.7299613
vt 0.4339426 0.7598084
vt 0.4303751 0.7299613
vt 0.4303751 0.7598084
vt 0.4270213 0.7299613
vt 0.4270213 0.7598084
vt 0.4234405 0.7299613
vt 0.4234405 0.7598084
vt 0.4198881 0.7299613
vt 0.4198881 0.7598084
vt 0.414677 0.7299613
vt 0.414677 0.7598084
vt 0.4115874 0.7299613
vt 0.4115874 0.7598084
vt 0.4033565 0.7299613
vt 0.4033565 0.7598084
vt 0.3947055 0.7299613
vt 0.3947055 0.7598084
vt 0.4753007 0.7598084
vt 0.4753007 0.7299613
vt 0.3963253 0.70968
vt 0.3968545 0.7062187
vt 0.3901399 0.7062187
vt 0.3901399 0.70968
vt 0.4020201 0.70968
vt 0.4025477 0.7062187
vt 0.4144199 0.7062187
vt 0.4139672 0.70968
vt 0.4844595 0.70968
vt 0.4844595 0.7062187
vt 0.4888933 0.7093217
vt 0.4959113 0.7093217
vt 0.4954288 0.7059569
vt 0.4888933 0.7059569
vt 0.501463 0.7093217
vt 0.5009841 0.7059569
vt 0.5126747 0.7059569
vt 0.5130881 0.7093217
vt 0.5859134 0.7093217
vt 0.5859134 0.7059569
vt 0.6502273 0.6569211
vt 0.6550695 0.6622248
vt 0.6751869 0.6622248
vt 0.6800293 0.6569211
vt 0.657669 0.6674433
vt 0.6725875 0.6674433
vt 0.6697192 0.6793755
vt 0.6605372 0.6793755
vt 0.6697917 0.7560239
vt 0.6604645 0.7560239
vt 0.6607608 0.7597235
vt 0.6559026 0.7545775
vt 0.6358182 0.754576
vt 0.6309592 0.7597235
vt 0.6533173 0.7493557
vt 0.6384045 0.7493545
vt 0.6412706 0.7374905
vt 0.6504527 0.7374911
vt 0.6412036 0.6608597
vt 0.6505311 0.6608602
vt 0.3074273 0.6538832
vt 0.3167545 0.6538832
vt 0.3167545 0.6508235
vt 0.3074273 0.6508235
vt 0.346563 0.6998867
vt 0.3763644 0.6998867
vt 0.3763644 0.6954627
vt 0.346563 0.6954627
vn -1 2.972642E-07 2.479645E-07
vn -1 2.978954E-07 2.469129E-07
vn -1 3.544849E-07 0
vn -1 2.283706E-07 -1.195008E-07
vn -1 1.144561E-07 0
vn -1 1.109602E-07 0
vn -1 0 -3.86318E-07
vn -1 0 -3.851829E-07
vn -1 4.656417E-07 -1.404378E-07
vn -1 4.746381E-07 -1.32785E-07
vn -1 6.862595E-07 -2.16238E-07
vn -1 6.861449E-07 -2.170248E-07
vn -1 5.660367E-07 -2.174938E-07
vn -1 5.578795E-07 -1.855993E-07
vn -1 2.473121E-07 0
vn -1 2.344284E-07 0
vn -1 0 -2.219777E-07
vn -1 0 -2.248852E-07
vn -1 0 -5.815133E-07
vn -1 0 -5.812555E-07
vn -1 2.931635E-07 -7.62021E-07
vn -1 2.8867E-07 -7.60958E-07
vn -1 2.901026E-07 -6.283242E-07
vn -1 2.855664E-07 -6.241297E-07
vn -1 0 -2.234584E-07
vn -1 0 -2.228795E-07
vn -1 0 0
vn -1 0 0
vn -1 0 -3.179762E-07
vn -1 0 -3.308383E-07
vn -0.999615 0.02642697 -0.008460719
vn -0.9995042 0.02998816 -0.009600768
vn -0.9981934 0.06003134 0.002479312
vn -0.997137 0.0756156 0.0005402992
vn -0.9997937 0.01977089 0.004667882
vn -1 1.963593E-07 -2.663385E-07
vn -5.280498E-07 -0.3913105 -0.9202587
vn -5.280498E-07 -0.3913105 -0.9202587
vn 1.863418E-07 -0.3946531 -0.9188302
vn 1.863418E-07 -0.3946531 -0.9188302
vn -6.250302E-07 -0.4922581 -0.8704492
vn -6.250301E-07 -0.4922582 -0.8704492
vn 6.692564E-07 -0.7179872 -0.6960563
vn 6.692562E-07 -0.7179872 -0.6960564
vn -4.87648E-07 -0.9391703 -0.3434519
vn -4.87648E-07 -0.9391703 -0.3434519
vn -1.441391E-06 -0.9998456 0.01757145
vn -1.441389E-06 -0.9998456 0.01757171
vn 5.706997E-07 -0.9607645 0.2773653
vn 5.707011E-07 -0.9607644 0.2773654
vn 8.789098E-07 -0.8202393 0.5720205
vn 8.789098E-07 -0.8202393 0.5720205
vn -1.311779E-06 -0.5690927 0.8222733
vn -1.311779E-06 -0.5690927 0.8222733
vn -2.666646E-06 -0.2804929 0.9598562
vn -2.666647E-06 -0.2804926 0.9598562
vn -7.550622E-07 0.006335274 0.99998
vn -7.550572E-07 0.006335642 0.99998
vn 1.690165E-06 0.2886201 0.9574438
vn 1.690166E-06 0.2886204 0.9574437
vn 1.603893E-06 0.5496817 0.8353741
vn 1.603893E-06 0.5496818 0.8353741
vn -5.544635E-07 0.7920278 0.610485
vn -5.544635E-07 0.7920278 0.610485
vn -1.006181E-06 0.954302 0.2988441
vn -1.006179E-06 0.9543021 0.2988438
vn 1.23734E-06 0.998728 0.05042325
vn 1.237343E-06 0.998728 0.05042302
vn 2.335896E-06 0.9993492 -0.03607138
vn 2.335896E-06 0.9993492 -0.03607138
vn 1 0 0
vn 1 0 0
vn 1 -2.798593E-07 3.77798E-07
vn 1 -4.019729E-07 3.214179E-07
vn 1 -1.152728E-07 3.306113E-07
vn 1 -1.130438E-07 3.242183E-07
vn 1 0 5.184754E-07
vn 1 0 5.242694E-07
vn 1 1.000723E-07 1.885119E-07
vn 1 1.035947E-07 1.951472E-07
vn 1 0 0
vn 1 0 0
vn 1 0 0
vn 1 0 0
vn 1 0 0
vn 1 0 0
vn 1 0 2.248807E-07
vn 1 0 2.219767E-07
vn 1 -1.121425E-07 3.817792E-07
vn 1 -1.125348E-07 3.816573E-07
vn 1 -1.620805E-07 1.605352E-07
vn 1 -1.583485E-07 1.568388E-07
vn 1 -2.487076E-07 1.198229E-07
vn 1 -2.429944E-07 1.170704E-07
vn 1 -2.45638E-07 1.183441E-07
vn 1 -2.462754E-07 1.186511E-07
vn 1 -2.028229E-07 0
vn 1 -2.10034E-07 0
vn 1 -4.07012E-07 1.410461E-07
vn 1 -4.072882E-07 1.355474E-07
vn 0.9995041 0.02998895 -0.009600551
vn 0.999615 0.02642591 -0.008459874
vn 0.997137 0.07561585 0.0005404489
vn 0.9981934 0.06003129 0.002479714
vn 0.9997937 0.01977044 0.00466857
vn 1 -3.927181E-07 5.32675E-07
vn 0 0.3898508 0.9208781
vn 0 0.3898508 0.920878
vn 0 0.6067513 0.7948917
vn 0 0.6067516 0.7948915
vn 0 0.50281 0.864397
vn 0 0.50281 0.864397
vn 0 0.7318112 0.6815075
vn 0 0.7318112 0.6815073
vn 0 0.9389243 0.3441236
vn 0 0.9389243 0.3441235
vn 0 0.9999374 -0.01118677
vn 0 0.9999374 -0.0111868
vn 0 0.9561481 -0.2928833
vn 0 0.9561481 -0.2928833
vn 0 0.8132113 -0.5819685
vn 0 0.8132113 -0.5819685
vn 0 0.5695441 -0.8219607
vn 0 0.5695441 -0.8219607
vn 0 0.2836113 -0.9589394
vn 0 0.2836113 -0.9589394
vn 0 -0.005721948 -0.9999837
vn 0 -0.0057219 -0.9999837
vn 0 -0.2891958 -0.95727
vn 0 -0.2891957 -0.95727
vn 0 -0.553414 -0.8329064
vn 0 -0.553414 -0.8329064
vn 0 -0.7939209 -0.608021
vn 0 -0.7939209 -0.6080211
vn 0 -0.9557929 -0.2940409
vn 0 -0.9557929 -0.2940409
vn 0 -0.9979631 -0.06379339
vn 0 -0.9979631 -0.06379342
vn 0 -0.9989441 0.04594317
vn 0 -0.9989441 0.04594316
vn 0 -0.9954274 0.09552208
vn 0 -0.9954274 0.09552208
vn 0 0.7888712 0.6145585
vn 0 0.7888712 0.6145585
vn -0.8057507 -0.007419926 0.5922083
vn -0.824863 -0.007764877 0.5652793
vn -0.7190222 -0.005934766 0.6949617
vn -0.7190222 -0.005934767 0.6949617
vn -0.9350885 -0.006664588 0.3543515
vn -0.9417717 -0.006200933 0.3361958
vn -0.9940134 -0.001696848 0.1092451
vn -0.9915242 -0.002016905 0.1299063
vn -0.9999995 1.028157E-05 -0.0009560237
vn -0.9999995 1.028157E-05 -0.0009560237
vn 0.7190238 -0.005936945 0.6949601
vn 0.8248629 -0.007766393 0.5652795
vn 0.8057516 -0.007421586 0.5922071
vn 0.7190238 -0.005936945 0.6949601
vn 0.9417714 -0.006201216 0.3361965
vn 0.9350883 -0.00666498 0.3543522
vn 0.9915242 -0.002016611 0.1299065
vn 0.9940134 -0.001696557 0.1092453
vn 0.9999995 1.056114E-05 -0.0009559298
vn 0.9999995 1.056114E-05 -0.0009559298
vn -1.79302E-07 0.9485129 0.3167387
vn -1.626525E-07 0.964056 0.2656994
vn -1.626525E-07 0.9640559 0.2656995
vn -1.79302E-07 0.9485129 0.3167387
vn 0 0.9863648 0.1645729
vn 0 0.9863648 0.1645729
vn 1.030709E-07 0.986519 0.1636467
vn 1.030709E-07 0.986519 0.1636467
vn 2.215284E-07 0.9888203 0.1491129
vn 2.215284E-07 0.9888203 0.1491129
vn 0 -0.9677626 -0.2518639
vn 0 -0.9737014 -0.2278278
vn 0 -0.9737014 -0.2278278
vn 0 -0.9677626 -0.2518639
vn 0 -0.9879841 -0.1545561
vn 0 -0.9879841 -0.1545561
vn 0 -0.9910909 -0.1331874
vn 0 -0.9910909 -0.1331874
vn 0 -0.9889731 -0.1480955
vn 0 -0.9889731 -0.1480955
vn 1.515486E-06 -0.01176699 0.9999307
vn 1.515486E-06 -0.01176699 0.9999307
vn 1.515486E-06 -0.01176699 0.9999307
vn 1.515487E-06 -0.01176699 0.9999307
vn -3.771289E-07 0.7938979 -0.6080511
vn -3.771289E-07 0.7938979 -0.608051
vn -3.771289E-07 0.7938979 -0.6080511
vn -3.771289E-07 0.7938979 -0.6080511
g Mag_release_0
f 3/3/3 2/2/2 1/1/1
f 4/4/4 3/3/3 1/1/1
f 5/5/5 1/1/1 2/2/2
f 6/6/6 5/5/5 2/2/2
f 7/7/7 5/5/5 6/6/6
f 8/8/8 7/7/7 6/6/6
f 7/7/7 8/8/8 9/9/9
f 8/8/8 10/10/10 9/9/9
f 9/9/9 10/10/10 11/11/11
f 10/10/10 12/12/12 11/11/11
f 11/11/11 12/12/12 13/13/13
f 12/12/12 14/14/14 13/13/13
f 15/15/15 13/13/13 14/14/14
f 16/16/16 15/15/15 14/14/14
f 17/17/17 15/15/15 16/16/16
f 18/18/18 17/17/17 16/16/16
f 19/19/19 17/17/17 18/18/18
f 20/20/20 19/19/19 18/18/18
f 21/21/21 19/19/19 20/20/20
f 22/22/22 21/21/21 20/20/20
f 21/21/21 22/22/22 23/23/23
f 22/22/22 24/24/24 23/23/23
f 25/25/25 23/23/23 24/24/24
f 26/26/26 25/25/25 24/24/24
f 27/27/27 25/25/25 26/26/26
f 28/28/28 27/27/27 26/26/26
f 27/27/27 28/28/28 29/29/29
f 28/28/28 30/30/30 29/29/29
f 31/31/31 29/29/29 30/30/30
f 32/32/32 31/31/31 30/30/30
f 31/31/31 32/32/32 33/33/33
f 32/32/32 34/34/34 33/33/33
f 34/34/34 35/35/35 33/33/33
f 4/4/4 33/33/33 35/35/35
f 36/36/36 4/4/4 35/35/35
f 4/4/4 36/36/36 3/3/3
f 39/39/39 38/38/38 37/37/37
f 40/40/40 39/39/39 37/37/37
f 41/41/41 37/37/37 38/38/38
f 42/42/42 41/41/41 38/38/38
f 43/43/43 41/41/41 42/42/42
f 44/44/44 43/43/43 42/42/42
f 43/43/43 44/44/44 45/45/45
f 44/44/44 46/46/46 45/45/45
f 45/45/45 46/46/46 47/47/47
f 46/46/46 48/48/48 47/47/47
f 47/47/47 48/48/48 49/49/49
f 48/48/48 50/50/50 49/49/49
f 51/51/51 49/49/49 50/50/50
f 52/52/52 51/51/51 50/50/50
f 53/53/53 51/51/51 52/52/52
f 54/54/54 53/53/53 52/52/52
f 55/55/55 53/53/53 54/54/54
f 56/56/56 55/55/55 54/54/54
f 57/57/57 55/55/55 56/56/56
f 58/58/58 57/57/57 56/56/56
f 57/57/57 58/58/58 59/59/59
f 58/58/58 60/60/60 59/59/59
f 61/61/61 59/59/59 60/60/60
f 62/62/62 61/61/61 60/60/60
f 63/63/63 61/61/61 62/62/62
f 64/64/64 63/63/63 62/62/62
f 63/63/63 64/64/64 65/65/65
f 64/64/64 66/66/66 65/65/65
f 67/67/67 65/65/65 66/66/66
f 68/68/68 67/67/67 66/66/66
f 67/67/67 68/68/68 69/69/69
f 68/68/68 70/70/70 69/69/69
f 73/73/73 72/72/72 71/71/71
f 74/74/74 73/73/73 71/71/71
f 75/75/75 71/71/71 72/72/72
f 76/76/76 75/75/75 72/72/72
f 77/77/77 75/75/75 76/76/76
f 78/78/78 77/77/77 76/76/76
f 77/77/77 78/78/78 79/79/79
f 78/78/78 80/80/80 79/79/79
f 79/79/79 80/80/80 81/81/81
f 80/80/80 82/82/82 81/81/81
f 81/81/81 82/82/82 83/83/83
f 82/82/82 84/84/84 83/83/83
f 85/85/85 83/83/83 84/84/84
f 86/86/86 85/85/85 84/84/84
f 87/87/87 85/85/85 86/86/86
f 88/88/88 87/87/87 86/86/86
f 89/89/89 87/87/87 88/88/88
f 90/90/90 89/89/89 88/88/88
f 91/91/91 89/89/89 90/90/90
f 92/92/92 91/91/91 90/90/90
f 91/91/91 92/92/92 93/93/93
f 92/92/92 94/94/94 93/93/93
f 95/95/95 93/93/93 94/94/94
f 96/96/96 95/95/95 94/94/94
f 97/97/97 95/95/95 96/96/96
f 98/98/98 97/97/97 96/96/96
f 97/97/97 98/98/98 99/99/99
f 98/98/98 100/100/100 99/99/99
f 101/101/101 99/99/99 100/100/100
f 102/102/102 101/101/101 100/100/100
f 101/101/101 102/102/102 103/103/103
f 102/102/102 104/104/104 103/103/103
f 104/104/104 105/105/105 103/103/103
f 104/104/104 73/73/73 105/105/105
f 73/73/73 106/106/106 105/105/105
f 74/74/74 106/106/106 73/73/73
f 109/109/109 108/108/108 107/107/107
f 110/110/110 109/109/109 107/107/107
f 111/111/111 107/107/107 108/108/108
f 112/112/112 111/111/111 108/108/108
f 113/113/113 111/111/111 112/112/112
f 114/114/114 113/113/113 112/112/112
f 113/113/113 114/114/114 115/115/115
f 114/114/114 116/116/116 115/115/115
f 115/115/115 116/116/116 117/117/117
f 116/116/116 118/118/118 117/117/117
f 117/117/117 118/118/118 119/119/119
f 118/118/118 120/120/120 119/119/119
f 121/121/121 119/119/119 120/120/120
f 122/122/122 121/121/121 120/120/120
f 123/123/123 121/121/121 122/122/122
f 124/124/124 123/123/123 122/122/122
f 125/125/125 123/123/123 124/124/124
f 126/126/126 125/125/125 124/124/124
f 127/127/127 125/125/125 126/126/126
f 128/128/128 127/127/127 126/126/126
f 127/127/127 128/128/128 129/129/129
f 128/128/128 130/130/130 129/129/129
f 131/131/131 129/129/129 130/130/130
f 132/132/132 131/131/131 130/130/130
f 133/133/133 131/131/131 132/132/132
f 134/134/134 133/133/133 132/132/132
f 133/133/133 134/134/134 135/135/135
f 134/134/134 136/136/136 135/135/135
f 137/137/137 135/135/135 136/136/136
f 138/138/138 137/137/137 136/136/136
f 137/137/137 138/138/138 139/139/139
f 138/138/138 140/140/140 139/139/139
f 139/139/139 140/140/140 141/141/141
f 140/140/140 142/142/142 141/141/141
f 110/110/110 144/144/144 143/143/143
f 109/109/109 110/110/110 143/143/143
f 147/147/147 146/146/146 145/145/145
f 148/148/148 147/147/147 145/145/145
f 145/145/145 146/146/146 149/149/149
f 146/146/146 150/150/150 149/149/149
f 149/149/149 150/150/150 151/151/151
f 152/152/152 149/149/149 151/151/151
f 152/152/152 151/151/151 153/153/153
f 151/151/151 154/154/154 153/153/153
f 157/157/157 156/156/156 155/155/155
f 158/158/158 157/157/157 155/155/155
f 156/156/156 157/157/157 159/159/159
f 157/157/157 160/160/160 159/159/159
f 160/160/160 161/161/161 159/159/159
f 161/161/161 162/162/162 159/159/159
f 163/163/163 162/162/162 161/161/161
f 164/164/164 163/163/163 161/161/161
f 167/167/167 166/166/166 165/165/165
f 168/168/168 167/167/167 165/165/165
f 166/166/166 167/167/167 169/169/169
f 167/167/167 170/170/170 169/169/169
f 170/170/170 171/171/171 169/169/169
f 171/171/171 172/172/172 169/169/169
f 171/171/171 173/173/173 172/172/172
f 173/173/173 174/174/174 172/172/172
f 177/177/177 176/176/176 175/175/175
f 178/178/178 177/177/177 175/175/175
f 176/176/176 177/177/177 179/179/179
f 177/177/177 180/180/180 179/179/179
f 180/180/180 181/181/181 179/179/179
f 181/181/181 182/182/182 179/179/179
f 181/181/181 183/183/183 182/182/182
f 183/183/183 184/184/184 182/182/182
f 187/187/187 186/186/186 185/185/185
f 188/188/188 187/187/187 185/185/185
f 191/191/191 190/190/190 189/189/189
f 192/192/192 191/191/191 189/189/189
