g scope_all_belomo_pk_06_LOD1
v -0.01178162 -0.0173415 -0.003960466
v 0.01178162 -0.0173415 -0.003960466
v 0.01178162 0.01642491 -0.003960466
v -0.01178162 0.01642491 -0.003960466
v -0.007277605 -0.02575404 0.03511341
v -0.01178162 -0.02374377 0.02924826
v -0.01178162 -0.002277236 0.02546077
v -0.00736355 -0.003123197 0.03214532
v -0.01178162 0.01275641 0.01657404
v -0.01178162 -0.0173415 0.01094064
v -0.01178162 -0.0173415 -0.003960466
v -0.01178162 0.01642491 -0.003960466
v -0.01178162 0.02565369 0.01559758
v -0.01178162 0.02561613 0.00330355
v 0 -0.003101662 0.03442005
v 0 -0.02658482 0.0376588
v -0.01178162 0.02561613 0.00330355
v 0.01178162 0.02561613 0.00330355
v 0.01178162 0.02565369 0.01559758
v -0.01178162 0.02565369 0.01559758
v -0.01178162 0.02565369 0.01559758
v 0.01178162 0.02565369 0.01559758
v 0.01178162 0.01275641 0.01657404
v -0.01178162 0.01275641 0.01657404
v 0.01178162 -0.002277236 0.02546077
v -0.01178162 -0.002277236 0.02546077
v -0.01178162 -0.002277236 0.02546077
v 0.01178162 -0.002277236 0.02546077
v 0.00736355 -0.003123197 0.03214532
v -0.00736355 -0.003123197 0.03214532
v 0 -0.003101662 0.03442005
v -0.01178162 -0.02374377 0.02924826
v 0.01178162 -0.02374377 0.02924826
v 0.01178162 -0.0173415 0.01094064
v -0.01178162 -0.0173415 0.01094064
v -0.01178162 -0.0173415 -0.003960466
v 0.01178162 -0.0173415 -0.003960466
v -0.007277605 -0.02575404 0.03511341
v 0.007277605 -0.02575404 0.03511341
v 0 -0.02658482 0.0376588
v 0.01178162 -0.002277236 0.02546077
v 0.01178162 -0.02374377 0.02924826
v 0.007277605 -0.02575404 0.03511341
v 0.00736355 -0.003123197 0.03214532
v 0.01178162 0.01275641 0.01657404
v 0.01178162 -0.0173415 0.01094064
v 0.01178162 -0.0173415 -0.003960466
v 0.01178162 0.01642491 -0.003960466
v 0.01178162 0.02565369 0.01559758
v 0.01178162 0.02561613 0.00330355
v 0 -0.003101662 0.03442005
v 0 -0.02658482 0.0376588
v -0.01178162 0.02561613 0.00330355
v -0.01178162 0.01642491 -0.003960466
v 0.01178162 0.01642491 -0.003960466
v 0.01178162 0.02561613 0.00330355
vt 0.7718194 0.6265846
vt 0.9596631 0.6265846
vt 0.9596631 0.9787336
vt 0.7718194 0.9787336
vt 0.4047374 0.8493354
vt 0.3362477 0.8231469
vt 0.3285085 0.6148322
vt 0.4037838 0.6310527
vt 0.2641267 0.4607528
vt 0.1711835 0.7384291
vt 0.03001816 0.7188006
vt 0.07447487 0.3989527
vt 0.2718841 0.3373057
vt 0.1553925 0.321458
vt 0.47743 0.6336136
vt 0.4780877 0.8603117
vt 0.02766012 0.00544157
vt 0.02844629 0.3088455
vt 0.1867456 0.308435
vt 0.1859627 0.005030989
vt 0.1859627 0.005030989
vt 0.1867456 0.308435
vt 0.353286 0.3080065
vt 0.3525079 0.004602193
vt 0.57815 0.3074324
vt 0.5773768 0.004027549
vt 0.5773768 0.004027549
vt 0.57815 0.3074324
vt 0.6647611 0.2503248
vt 0.6642805 0.06069579
vt 0.6938115 0.1554365
vt 0.7089401 0.414349
vt 0.9955391 0.414349
vt 0.9955391 0.1916739
vt 0.7089401 0.1916739
vt 0.7089401 0.0104321
vt 0.9955391 0.0104321
vt 0.7637222 0.4856866
vt 0.9407569 0.4856866
vt 0.8522397 0.5166461
vt 0.4818292 0.6263528
vt 0.4732572 0.4180517
vt 0.4047268 0.3921257
vt 0.4064168 0.6104097
vt 0.5470227 0.7801414
vt 0.638616 0.5020117
vt 0.7798496 0.5209002
vt 0.7370347 0.8409528
vt 0.5399416 0.9036309
vt 0.6565287 0.9188621
vt 0.3327414 0.6080883
vt 0.33135 0.3813899
vt 0.04630767 0.8438203
vt 0.04669965 0.9946675
vt 0.3501041 0.9938794
vt 0.3497117 0.8430341
vn 0 0 -1
vn 0 0 -1
vn 0 0.3282078 -0.9446055
vn 0 0.3282078 -0.9446055
vn -0.5331821 0.1164902 0.837942
vn -0.913327 0.06062451 0.4026889
vn -0.9795732 0.02993626 0.1988469
vn -0.6008112 0.1115937 0.7915635
vn -1 0 0
vn -1 0 0
vn -1 0 0
vn -1 0 0
vn -1 0 0
vn -1 0 0
vn 0 0.1328108 0.9911414
vn 0 0.1328108 0.9911414
vn 0 0.9999954 -0.003055164
vn 0 0.9999954 -0.003055164
vn 0 0.9999954 -0.003055164
vn 0 0.9999954 -0.003055164
vn 0 0.07549441 0.9971462
vn 0 0.07549441 0.9971462
vn 0 0.3000226 0.9539321
vn 0 0.3000226 0.9539321
vn 0 0.5088655 0.860846
vn 0 0.5088655 0.860846
vn 0 0.9920868 0.1255534
vn 0 0.9920868 0.1255534
vn 0 0.9940249 0.1091533
vn 0 0.9940249 0.1091533
vn 0 0.9999552 -0.009466843
vn 0 -0.9447116 -0.3279026
vn 0 -0.9447116 -0.3279026
vn 0 -0.9858867 -0.1674141
vn 0 -0.9858867 -0.1674141
vn 0 -1 -1.600005E-07
vn 0 -1 -1.600005E-07
vn 0 -0.9466347 -0.3223083
vn 0 -0.9466347 -0.3223083
vn 0 -0.9506462 -0.3102771
vn 0.9795732 0.02993626 0.1988469
vn 0.913327 0.06062451 0.4026889
vn 0.5331821 0.1164902 0.837942
vn 0.6008112 0.1115937 0.7915635
vn 1 0 0
vn 1 0 0
vn 1 0 0
vn 1 0 0
vn 1 0 0
vn 1 0 0
vn 0 0.1328108 0.9911414
vn 0 0.1328108 0.9911414
vn 0 0.6200538 -0.7845592
vn 0 0.3282078 -0.9446055
vn 0 0.3282078 -0.9446055
vn 0 0.6200538 -0.7845592
g scope_all_belomo_pk_06_LOD1_0
f 3/3/3 2/2/2 1/1/1
f 4/4/4 3/3/3 1/1/1
f 7/7/7 6/6/6 5/5/5
f 8/8/8 7/7/7 5/5/5
f 7/7/7 9/9/9 6/6/6
f 9/9/9 10/10/10 6/6/6
f 10/10/10 9/9/9 11/11/11
f 9/9/9 12/12/12 11/11/11
f 9/9/9 13/13/13 12/12/12
f 13/13/13 14/14/14 12/12/12
f 15/15/15 8/8/8 5/5/5
f 16/16/16 15/15/15 5/5/5
f 19/19/19 18/18/18 17/17/17
f 20/20/20 19/19/19 17/17/17
f 23/23/23 22/22/22 21/21/21
f 24/24/24 23/23/23 21/21/21
f 25/25/25 23/23/23 24/24/24
f 26/26/26 25/25/25 24/24/24
f 29/29/29 28/28/28 27/27/27
f 30/30/30 29/29/29 27/27/27
f 31/31/31 29/29/29 30/30/30
f 34/34/34 33/33/33 32/32/32
f 35/35/35 34/34/34 32/32/32
f 35/35/35 36/36/36 34/34/34
f 36/36/36 37/37/37 34/34/34
f 32/32/32 33/33/33 38/38/38
f 33/33/33 39/39/39 38/38/38
f 40/40/40 38/38/38 39/39/39
f 43/43/43 42/42/42 41/41/41
f 44/44/44 43/43/43 41/41/41
f 41/41/41 42/42/42 45/45/45
f 42/42/42 46/46/46 45/45/45
f 46/46/46 47/47/47 45/45/45
f 47/47/47 48/48/48 45/45/45
f 49/49/49 45/45/45 48/48/48
f 50/50/50 49/49/49 48/48/48
f 44/44/44 51/51/51 43/43/43
f 51/51/51 52/52/52 43/43/43
f 55/55/55 54/54/54 53/53/53
f 56/56/56 55/55/55 53/53/53
