g scope_base_aimpoint_micro_t1_LOD1
v 0.006181663 0.02431571 0
v -0.006566908 -0.02598002 0
v 0.006181658 -0.02598002 0
v -0.006566904 0.02431571 0
v 0.01153839 0.02412074 0.002258774
v 0.01151372 -0.02360816 0.002083655
v -0.01530186 -0.02145448 0.00218282
v -0.01530185 0.02164229 0.00218282
v -0.007059564 -0.02598002 0.02987001
v -0.0155184 -0.007680516 0.0293739
v -0.004049048 0.0230732 0.03244121
v -0.01750517 0.02404425 0.01977612
v -0.01530186 -0.02598002 0.0208525
v 0.006208457 -0.02598002 0.02987001
v 0.003852166 0.02316508 0.03235747
v -0.01530186 -0.02145448 0.00218282
v -0.01530186 -0.02598002 0.01151766
v -0.006566908 -0.02598002 0
v 0.01153839 0.02412074 0.002258774
v 0.01400131 -0.02598002 0.01123424
v 0.01400131 0.02560795 0.01126101
v 0.01151372 -0.02360816 0.002083655
v 0.01400131 -0.02598002 0.01961779
v 0.01400131 0.02560795 0.02128986
v 0.006208457 -0.02598002 0.02987001
v 0.003852166 0.02316508 0.03235747
v 0.003755416 0.02567445 0.02862406
v 0.01400131 0.02560795 0.01126101
v 0.01400131 0.02560795 0.02128986
v 0.002724446 0.02563126 0.002407371
v -0.004121203 0.02552598 0.02824562
v -0.00569667 0.02557879 0.002873106
v -0.01640351 0.0248261 0.01097947
v -0.01750517 0.02404425 0.01977612
v -0.004049048 0.0230732 0.03244121
v 0.003852166 0.02316508 0.03235747
v 0.01153839 0.02412074 0.002258774
v 0.006181663 0.02431571 0
v -0.006566904 0.02431571 0
v -0.01530185 0.02164229 0.00218282
v -0.01530186 -0.02145448 0.00218282
v -0.01640351 0.0248261 0.01097947
v -0.01530186 -0.02598002 0.01151766
v -0.01530185 0.02164229 0.00218282
v -0.01530186 -0.02598002 0.0208525
v -0.0155184 -0.007680516 0.0293739
v -0.01750517 0.02404425 0.01977612
v -0.007059564 -0.02598002 0.02987001
v -0.01530186 -0.02598002 0.01151766
v -0.01530186 -0.02598002 0.0208525
v 0.01400131 -0.02598002 0.01961779
v 0.006181658 -0.02598002 0
v -0.006566908 -0.02598002 0
v 0.01400131 -0.02598002 0.01123424
v 0.006208457 -0.02598002 0.02987001
v 0.006181658 -0.02598002 0
v 0.01400131 -0.02598002 0.01123424
v 0.01151372 -0.02360816 0.002083655
v 0.01413206 -0.03327252 0.0153254
v 0.009991757 -0.02567044 0.005329835
v 0.009991757 -0.03327252 0.005329836
v 0.01413206 -0.02567044 0.0153254
v -3.811739E-06 -0.02567044 0.001189536
v -3.811739E-06 -0.03327252 0.001189536
v 0.009991756 -0.03327252 0.02532097
v 0.009991756 -0.02567044 0.02532097
v -3.810952E-06 -0.03327252 0.02946127
v -3.810952E-06 -0.02567044 0.02946127
v -0.009999378 -0.03327252 0.02532097
v -0.009999378 -0.02567044 0.02532097
v -0.01413968 -0.03327252 0.01532541
v -0.01413968 -0.02567044 0.01532541
v -0.00999938 -0.03327252 0.005329836
v -0.00999938 -0.02567044 0.005329835
v -3.811739E-06 -0.03327252 0.001189536
v -3.811739E-06 -0.02567044 0.001189536
v -3.810952E-06 -0.03327252 0.02946127
v -0.01413968 -0.03327252 0.01532541
v -0.009999378 -0.03327252 0.02532097
v 0.01413206 -0.03327252 0.0153254
v -3.811739E-06 -0.03327252 0.001189536
v -0.00999938 -0.03327252 0.005329836
v 0.009991757 -0.03327252 0.005329836
v 0.009991756 -0.03327252 0.02532097
v -0.02636458 -0.0072057 0.001014146
v -0.01839065 0.003070248 0.005270582
v -0.02636458 0.003070248 0.005270582
v -0.01839065 -0.0072057 0.001014146
v -0.01839065 0.007326685 0.01554653
v -0.02636458 0.007326685 0.01554653
v -0.02636458 -0.01748165 0.005270584
v -0.01839065 -0.01748165 0.005270584
v -0.02636458 -0.02173809 0.01554653
v -0.01839065 -0.02173809 0.01554653
v -0.02636458 -0.01748165 0.02582248
v -0.01839065 -0.01748165 0.02582248
v -0.02636458 -0.007205701 0.03007892
v -0.01839065 -0.007205701 0.03007892
v -0.02636458 0.003070248 0.02582248
v -0.01839065 0.003070248 0.02582248
v -0.02636458 0.007326685 0.01554653
v -0.01839065 0.007326685 0.01554653
v -0.0151573 0.002132988 0.02488522
v -0.0151573 0.006001198 0.01554653
v -0.01515729 -0.007205701 0.02875343
v -0.0151573 -0.01654439 0.02488521
v -0.0151573 -0.0204126 0.01554653
v -0.0151573 -0.01654439 0.006207843
v -0.0151573 -0.0072057 0.002339632
v -0.0151573 0.002132988 0.006207842
v -0.0151573 0.006001198 0.01554653
v -0.02636458 -0.02173809 0.01554653
v -0.02636458 -0.007205701 0.03007892
v -0.02636458 -0.01748165 0.02582248
v -0.02636458 -0.0072057 0.001014146
v -0.02636458 0.007326685 0.01554653
v -0.02636458 0.003070248 0.02582248
v -0.02636458 0.003070248 0.005270582
v -0.02636458 -0.01748165 0.005270584
v -0.02066645 0.01465961 0.02168354
v -0.01604047 0.009802085 0.01967149
v -0.02066645 0.009802086 0.01967149
v -0.01604047 0.01465961 0.02168354
v -0.01604047 0.007790032 0.01481396
v -0.02066645 0.007790032 0.01481396
v -0.02066645 0.01951714 0.01967149
v -0.01604047 0.01951714 0.01967149
v -0.02066645 0.02152919 0.01481396
v -0.01604047 0.02152919 0.01481396
v -0.02066645 0.01951714 0.009956436
v -0.01604047 0.01951714 0.009956436
v -0.02066645 0.01465961 0.007944381
v -0.01604047 0.01465961 0.007944381
v -0.02066645 0.009802086 0.009956434
v -0.01604047 0.009802085 0.009956434
v -0.02066645 0.007790032 0.01481396
v -0.01604047 0.007790032 0.01481396
v -0.02066645 0.02152919 0.01481396
v -0.02066645 0.01465961 0.007944381
v -0.02066645 0.01951714 0.009956436
v -0.02066645 0.01465961 0.02168354
v -0.02066645 0.007790032 0.01481396
v -0.02066645 0.009802086 0.009956434
v -0.02066645 0.009802086 0.01967149
v -0.02066645 0.01951714 0.01967149
v 0.006503521 0.01400319 0.03555135
v 0.004491467 0.009145661 0.03092537
v 0.004491467 0.009145661 0.03555135
v 0.006503521 0.01400319 0.03092537
v -0.0003660606 0.007133607 0.03092537
v -0.0003660606 0.007133608 0.03555135
v 0.004491466 0.01886072 0.03555135
v 0.004491466 0.01886071 0.03092537
v -0.0003660603 0.02087277 0.03555135
v -0.0003660603 0.02087277 0.03092537
v -0.005223586 0.01886072 0.03555135
v -0.005223586 0.01886071 0.03092537
v -0.007235641 0.01400319 0.03555135
v -0.007235641 0.01400319 0.03092537
v -0.005223587 0.009145661 0.03555135
v -0.005223587 0.009145661 0.03092537
v -0.0003660606 0.007133608 0.03555135
v -0.0003660606 0.007133607 0.03092537
v -0.0003660603 0.02087277 0.03555135
v -0.007235641 0.01400319 0.03555135
v -0.005223586 0.01886072 0.03555135
v 0.006503521 0.01400319 0.03555135
v -0.0003660606 0.007133608 0.03555135
v -0.005223587 0.009145661 0.03555135
v 0.004491467 0.009145661 0.03555135
v 0.004491466 0.01886072 0.03555135
v 0.01408552 0.02803006 0.01528945
v 0.009959966 0.02551435 0.02524941
v 0.009959966 0.02803006 0.02524941
v 0.01408552 0.02551435 0.01528945
v -1.295446E-09 0.02551435 0.02937497
v -1.295446E-09 0.02803006 0.02937497
v 0.009959965 0.02803006 0.005329478
v 0.009959965 0.02551436 0.005329478
v -5.117803E-10 0.02803006 0.001203926
v -5.117803E-10 0.02551436 0.001203926
v -0.009959966 0.02803006 0.005329478
v -0.009959966 0.02551436 0.005329478
v -0.01408552 0.02803006 0.01528944
v -0.01408552 0.02551435 0.01528944
v -0.009959968 0.02803006 0.02524941
v -0.009959968 0.02551435 0.02524941
v -1.295446E-09 0.02803006 0.02937497
v -1.295446E-09 0.02551435 0.02937497
v -5.117803E-10 0.02803006 0.001203926
v -0.01408552 0.02803006 0.01528944
v -0.009959966 0.02803006 0.005329478
v 0.01408552 0.02803006 0.01528945
v -1.295446E-09 0.02803006 0.02937497
v -0.009959968 0.02803006 0.02524941
v 0.009959966 0.02803006 0.02524941
v 0.009959965 0.02803006 0.005329478
vt 0.9588091 0.007626326
vt 0.886538 0.5306791
vt 0.9588091 0.530679
vt 0.8865383 0.007626388
vt 0.9917623 0.009652863
vt 0.9912594 0.5060136
vt 0.8354976 0.4836157
vt 0.8354977 0.03542859
vt 0.4845367 0.5289049
vt 0.5583611 0.3437464
vt 0.4578892 0.02968688
vt 0.6459725 0.02257674
vt 0.6251732 0.532339
vt 0.3521869 0.5276721
vt 0.3761234 0.02998887
vt 0.822847 0.485311
vt 0.728274 0.5306073
vt 0.8668258 0.5772445
vt 0.02857133 0.02918897
vt 0.1373639 0.5329844
vt 0.1224941 0.01141564
vt 0.04079668 0.511786
vt 0.2221229 0.5305143
vt 0.2238865 0.008482089
vt 0.3521869 0.5276721
vt 0.3761234 0.02998887
vt 0.9086092 0.97387
vt 0.8602291 0.9061013
vt 0.8637786 0.9480018
vt 0.9037458 0.8659621
vt 0.940241 0.9697439
vt 0.9384511 0.8650418
vt 0.9852386 0.8948464
vt 0.992839 0.9309715
vt 0.9428541 0.989479
vt 0.9092833 0.9922129
vt 0.8669715 0.8672501
vt 0.8885754 0.8560664
vt 0.9414225 0.8520593
vt 0.9803208 0.8560737
vt 0.822847 0.485311
vt 0.7362075 0.01667555
vt 0.728274 0.5306073
vt 0.8254908 0.04947748
vt 0.6251732 0.532339
vt 0.5583611 0.3437464
vt 0.6459725 0.02257674
vt 0.92933 0.8204817
vt 0.8506969 0.8559743
vt 0.890727 0.8558992
vt 0.8851967 0.7302502
vt 0.8011337 0.7639404
vt 0.8012362 0.8186094
vt 0.8492459 0.7303175
vt 0.9292233 0.7635853
vt 0.001744672 0.5608073
vt 0.1373639 0.5329844
vt 0.04079668 0.511786
vt 0.4971897 0.5337059
vt 0.5197761 0.7143975
vt 0.5197761 0.5337059
vt 0.4971897 0.7143975
vt 0.5423626 0.7143975
vt 0.5423626 0.5337059
vt 0.4746032 0.5337059
vt 0.4746032 0.7143975
vt 0.4520168 0.5337059
vt 0.4520168 0.7143975
vt 0.4294304 0.5337059
vt 0.4294304 0.7143975
vt 0.4068439 0.5337059
vt 0.4068439 0.7143975
vt 0.3842574 0.5337059
vt 0.3842574 0.7143975
vt 0.361671 0.5337059
vt 0.361671 0.7143975
vt 0.6070589 0.8058127
vt 0.4231323 0.7299975
vt 0.5307972 0.729813
vt 0.5312437 0.9897392
vt 0.347317 0.913924
vt 0.3471325 0.8062591
vt 0.4235787 0.9899239
vt 0.6072435 0.9134778
vt 0.2538529 0.674271
vt 0.2937055 0.8336813
vt 0.2937055 0.674271
vt 0.2538529 0.8336813
vt 0.3335578 0.8336813
vt 0.3335578 0.674271
vt 0.2140004 0.674271
vt 0.2140004 0.8336813
vt 0.1741478 0.674271
vt 0.1741478 0.8336813
vt 0.1342952 0.674271
vt 0.1342952 0.8336813
vt 0.09444303 0.674271
vt 0.09444303 0.8336813
vt 0.05459017 0.674271
vt 0.05459017 0.8336813
vt 0.01473791 0.674271
vt 0.01473791 0.8336813
vt 0.05459017 0.9930914
vt 0.01473791 0.9930914
vt 0.09444303 0.9930914
vt 0.1342952 0.9930914
vt 0.1741478 0.9930914
vt 0.2140004 0.9930914
vt 0.2538529 0.9930914
vt 0.2937055 0.9930914
vt 0.3335578 0.9930914
vt 0.8132585 0.61644
vt 0.621299 0.5393013
vt 0.7332547 0.5381147
vt 0.7361195 0.8083994
vt 0.5441605 0.7312608
vt 0.5429741 0.6193049
vt 0.6241646 0.8095859
vt 0.8144449 0.7283956
vt 0.7509737 0.8137894
vt 0.7737802 0.9962454
vt 0.7737802 0.8137894
vt 0.7509737 0.9962454
vt 0.7965875 0.9962454
vt 0.7965875 0.8137894
vt 0.7281671 0.8137894
vt 0.7281671 0.9962454
vt 0.7053599 0.8137894
vt 0.7053599 0.9962454
vt 0.6825524 0.8137894
vt 0.6825524 0.9962454
vt 0.6597462 0.8137894
vt 0.6597462 0.9962454
vt 0.6369389 0.8137894
vt 0.6369389 0.9962454
vt 0.6141317 0.8137894
vt 0.6141317 0.9962454
vt 0.1117431 0.5875099
vt 0.03825905 0.5579801
vt 0.0811167 0.5575259
vt 0.08221377 0.6609941
vt 0.008729745 0.6314642
vt 0.008275047 0.5886065
vt 0.03935573 0.6614483
vt 0.1121974 0.6303677
vt 0.9364832 0.5865151
vt 0.9536024 0.7269822
vt 0.9540346 0.5865691
vt 0.9360507 0.7269283
vt 0.971154 0.7270364
vt 0.9715863 0.5866233
vt 0.9189315 0.5864609
vt 0.9184994 0.7268745
vt 0.9013799 0.5864071
vt 0.9009474 0.7268202
vt 0.8838282 0.5863529
vt 0.8833959 0.7267663
vt 0.8662762 0.5862989
vt 0.865844 0.726712
vt 0.8487247 0.5862449
vt 0.8482923 0.7266582
vt 0.8311734 0.5861909
vt 0.830741 0.7266044
vt 0.2175515 0.5871009
vt 0.1440676 0.5575712
vt 0.1869255 0.5571171
vt 0.1880221 0.660585
vt 0.114538 0.6310555
vt 0.1140837 0.5881975
vt 0.1451643 0.6610392
vt 0.2180061 0.6299586
vt 0.3200682 0.5381503
vt 0.3361844 0.6670801
vt 0.3361844 0.5381503
vt 0.3200682 0.6670801
vt 0.3523006 0.6670801
vt 0.3523006 0.5381503
vt 0.3039519 0.5381503
vt 0.3039519 0.6670801
vt 0.2878356 0.5381503
vt 0.2878356 0.6670801
vt 0.2717193 0.5381503
vt 0.2717193 0.6670801
vt 0.255603 0.5381503
vt 0.255603 0.6670801
vt 0.2394869 0.5381503
vt 0.2394869 0.6670801
vt 0.2233706 0.5381503
vt 0.2233706 0.6670801
vt 0.6060094 0.805093
vt 0.4199527 0.7303265
vt 0.5284656 0.7291762
vt 0.5312425 0.9911496
vt 0.345186 0.9163831
vt 0.3440357 0.80787
vt 0.4227297 0.9922999
vt 0.6071597 0.913606
vn 0.1960635 0 -0.9805912
vn -0.1008511 0 -0.9949015
vn 0.1592577 0.001263619 -0.9872363
vn -0.1097679 0 -0.9939573
vn 0.3867152 0.0002384187 -0.9221992
vn 0.3627299 0.003242492 -0.9318886
vn -0.242436 0 -0.9701673
vn -0.242436 0 -0.9701673
vn -0.3196843 -0.1622442 0.9335302
vn -0.3485179 -0.05652867 0.935596
vn -0.2661068 0.4513295 0.8517563
vn -0.4252175 0.8123837 0.3990273
vn -0.7024043 -0.3072736 0.6420367
vn 0.001156332 -0.05209453 0.9986414
vn 0.091982 0.5370147 0.8385431
vn -0.4986094 -0.7799936 -0.3781517
vn -0.1228089 -0.9880503 -0.09313784
vn -0.1382061 -0.9848415 -0.1048159
vn 0.9645965 0.0001668934 -0.2637304
vn 0.9926251 0.0001907358 -0.1212246
vn 0.9920251 7.152566E-05 -0.1260401
vn 0.965009 0.0004529943 -0.2622166
vn 0.9495896 -0.01015668 0.3133311
vn 0.9394259 -0.001263615 0.3427495
vn 0.7860125 -0.0159502 0.6180049
vn 0.7369096 0.001120571 0.6759903
vn 0.1226047 0.9355141 0.3313329
vn 0.0401852 0.9980617 -0.04751653
vn 0.04687312 0.9973054 0.0564337
vn 0.01829871 0.9634062 -0.2674204
vn -0.1633737 0.9408732 0.2967602
vn -0.1191381 0.9680539 -0.2206302
vn -0.1620784 0.9835091 -0.0802524
vn -0.4252175 0.8123837 0.3990273
vn -0.2661068 0.4513295 0.8517563
vn 0.091982 0.5370147 0.8385431
vn 0.1611241 0.9618809 -0.2209615
vn 0.1148229 0.934581 -0.3367108
vn -0.2002108 0.9178105 -0.3428405
vn -0.3344913 0.8767657 -0.3455391
vn -0.9995796 -0.01976486 -0.02121026
vn -0.9946531 -0.04200912 -0.09434172
vn -0.9997546 -0.02172006 -0.004351164
vn -0.992249 0 -0.1242651
vn -0.9997734 -0.02076628 0.004673008
vn -0.9996477 -0.026512 0.00123977
vn -0.9859351 -0.1018289 -0.1325253
vn 0 -1 0
vn -0.1228089 -0.9880503 -0.09313784
vn 0 -1 0
vn 0 -1 0
vn 0.1231847 -0.9886728 -0.08574213
vn -0.1382061 -0.9848415 -0.1048159
vn 0.07121538 -0.9962287 -0.04956705
vn 0 -1 0
vn 0.1231847 -0.9886728 -0.08574213
vn 0.07121538 -0.9962287 -0.04956705
vn 0.4901209 -0.8021179 -0.3411573
vn 1 0 0
vn 0.7071068 0 -0.7071068
vn 0.7071068 0 -0.7071068
vn 1 0 0
vn 0 0 -1
vn 0 0 -1
vn 0.7071097 0 0.7071038
vn 0.7071097 0 0.7071038
vn 0 0 1
vn 0 0 1
vn -0.7071068 0 0.7071068
vn -0.7071068 0 0.7071068
vn -1 0 0
vn -1 0 0
vn -0.7071068 0 -0.7071068
vn -0.7071068 0 -0.7071068
vn 0 0 -1
vn 0 0 -1
vn 0 -1 0
vn 0 -1 0
vn 0 -1 0
vn 0 -1 0
vn 0 -1 0
vn 0 -1 0
vn 0 -1 0
vn 0 -1 0
vn 0 0 -1
vn 0.1849173 0.6949121 -0.6949121
vn 0 0.7071068 -0.7071068
vn 0.1849175 0 -0.9827541
vn 0.1849172 0.9827541 0
vn 0 1 0
vn 0 -0.7071038 -0.7071097
vn 0.1849181 -0.694909 -0.6949149
vn 0 -1 0
vn 0.1849161 -0.9827543 0
vn 0 -0.7071068 0.7071068
vn 0.1849173 -0.6949061 0.694918
vn 0 0 1
vn 0.1849161 0 0.9827543
vn 0 0.7071112 0.7071023
vn 0.1849169 0.6949077 0.6949166
vn 0 1 0
vn 0.1849172 0.9827541 0
vn 0.3793114 0.6542611 0.654267
vn 0.3793127 0.9252685 0
vn 0.3793086 0 0.9252702
vn 0.3793098 -0.6542645 0.6542645
vn 0.3793086 -0.9252702 0
vn 0.3793114 -0.654267 -0.6542611
vn 0.3793117 0 -0.925269
vn 0.3793121 0.6542653 -0.6542624
vn 0.3793127 0.9252685 0
vn -1 0 0
vn -1 0 0
vn -1 0 0
vn -1 0 0
vn -1 0 0
vn -1 0 0
vn -1 0 0
vn -1 0 0
vn 0 0 1
vn 0 -0.7071097 0.7071038
vn 0 -0.7071097 0.7071038
vn 0 0 1
vn 0 -1 0
vn 0 -1 0
vn 0 0.7071068 0.7071068
vn 0 0.7071068 0.7071068
vn 0 1 0
vn 0 1 0
vn 0 0.7071038 -0.7071097
vn 0 0.7071038 -0.7071097
vn 0 0 -1
vn 0 0 -1
vn 0 -0.7071068 -0.7071068
vn 0 -0.7071068 -0.7071068
vn 0 -1 0
vn 0 -1 0
vn -1 0 0
vn -1 0 0
vn -1 0 0
vn -1 0 0
vn -1 0 0
vn -1 0 0
vn -1 0 0
vn -1 0 0
vn 1 0 0
vn 0.7071068 -0.7071068 0
vn 0.7071068 -0.7071068 0
vn 1 0 0
vn 0 -1 0
vn 0 -1 0
vn 0.7071112 0.7071023 0
vn 0.7071112 0.7071023 0
vn 0 1 0
vn 0 1 0
vn -0.7071097 0.7071038 0
vn -0.7071097 0.7071038 0
vn -1 0 0
vn -1 0 0
vn -0.7071068 -0.7071068 0
vn -0.7071068 -0.7071068 0
vn 0 -1 0
vn 0 -1 0
vn 0 0 1
vn 0 0 1
vn 0 0 1
vn 0 0 1
vn 0 0 1
vn 0 0 1
vn 0 0 1
vn 0 0 1
vn 1 0 0
vn 0.7071097 0 0.7071038
vn 0.7071097 0 0.7071038
vn 1 0 0
vn 0 0 1
vn 0 0 1
vn 0.7071068 0 -0.7071068
vn 0.7071068 0 -0.7071068
vn 0 0 -1
vn 0 0 -1
vn -0.7071038 0 -0.7071097
vn -0.7071038 0 -0.7071097
vn -1 0 0
vn -1 0 0
vn -0.7071097 0 0.7071038
vn -0.7071097 0 0.7071038
vn 0 0 1
vn 0 0 1
vn 0 1 0
vn 0 1 0
vn 0 1 0
vn 0 1 0
vn 0 1 0
vn 0 1 0
vn 0 1 0
vn 0 1 0
g scope_base_aimpoint_micro_t1_LOD1_0
f 3/3/3 2/2/2 1/1/1
f 4/4/4 1/1/1 2/2/2
f 1/1/1 5/5/5 3/3/3
f 6/6/6 3/3/3 5/5/5
f 2/2/2 7/7/7 4/4/4
f 8/8/8 4/4/4 7/7/7
f 11/11/11 10/10/10 9/9/9
f 12/12/12 10/10/10 11/11/11
f 13/13/13 9/9/9 10/10/10
f 9/9/9 14/14/14 11/11/11
f 15/15/15 11/11/11 14/14/14
f 18/18/18 17/17/17 16/16/16
f 21/21/21 20/20/20 19/19/19
f 22/22/22 19/19/19 20/20/20
f 20/20/20 21/21/21 23/23/23
f 24/24/24 23/23/23 21/21/21
f 23/23/23 24/24/24 25/25/25
f 26/26/26 25/25/25 24/24/24
f 29/29/29 28/28/28 27/27/27
f 30/30/30 27/27/27 28/28/28
f 27/27/27 30/30/30 31/31/31
f 32/32/32 31/31/31 30/30/30
f 32/32/32 33/33/33 31/31/31
f 34/34/34 31/31/31 33/33/33
f 35/35/35 31/31/31 34/34/34
f 31/31/31 35/35/35 27/27/27
f 29/29/29 27/27/27 36/36/36
f 36/36/36 27/27/27 35/35/35
f 37/37/37 30/30/30 28/28/28
f 30/30/30 38/38/38 32/32/32
f 38/38/38 30/30/30 37/37/37
f 39/39/39 32/32/32 38/38/38
f 40/40/40 33/33/33 32/32/32
f 39/39/39 40/40/40 32/32/32
f 43/43/43 42/42/42 41/41/41
f 44/44/44 41/41/41 42/42/42
f 45/45/45 42/42/42 43/43/43
f 46/46/46 42/42/42 45/45/45
f 47/47/47 42/42/42 46/46/46
f 50/50/50 49/49/49 48/48/48
f 49/49/49 51/51/51 48/48/48
f 52/52/52 51/51/51 49/49/49
f 53/53/53 52/52/52 49/49/49
f 54/54/54 51/51/51 52/52/52
f 48/48/48 51/51/51 55/55/55
f 58/58/58 57/57/57 56/56/56
f 61/61/61 60/60/60 59/59/59
f 62/62/62 59/59/59 60/60/60
f 60/60/60 61/61/61 63/63/63
f 64/64/64 63/63/63 61/61/61
f 59/59/59 62/62/62 65/65/65
f 66/66/66 65/65/65 62/62/62
f 65/65/65 66/66/66 67/67/67
f 68/68/68 67/67/67 66/66/66
f 67/67/67 68/68/68 69/69/69
f 70/70/70 69/69/69 68/68/68
f 69/69/69 70/70/70 71/71/71
f 72/72/72 71/71/71 70/70/70
f 71/71/71 72/72/72 73/73/73
f 74/74/74 73/73/73 72/72/72
f 73/73/73 74/74/74 75/75/75
f 76/76/76 75/75/75 74/74/74
f 79/79/79 78/78/78 77/77/77
f 78/78/78 80/80/80 77/77/77
f 81/81/81 80/80/80 78/78/78
f 82/82/82 81/81/81 78/78/78
f 83/83/83 80/80/80 81/81/81
f 77/77/77 80/80/80 84/84/84
f 87/87/87 86/86/86 85/85/85
f 88/88/88 85/85/85 86/86/86
f 86/86/86 87/87/87 89/89/89
f 90/90/90 89/89/89 87/87/87
f 85/85/85 88/88/88 91/91/91
f 92/92/92 91/91/91 88/88/88
f 91/91/91 92/92/92 93/93/93
f 94/94/94 93/93/93 92/92/92
f 93/93/93 94/94/94 95/95/95
f 96/96/96 95/95/95 94/94/94
f 95/95/95 96/96/96 97/97/97
f 98/98/98 97/97/97 96/96/96
f 97/97/97 98/98/98 99/99/99
f 100/100/100 99/99/99 98/98/98
f 99/99/99 100/100/100 101/101/101
f 102/102/102 101/101/101 100/100/100
f 100/100/100 103/103/103 102/102/102
f 104/104/104 102/102/102 103/103/103
f 98/98/98 105/105/105 100/100/100
f 103/103/103 100/100/100 105/105/105
f 96/96/96 106/106/106 98/98/98
f 105/105/105 98/98/98 106/106/106
f 94/94/94 107/107/107 96/96/96
f 106/106/106 96/96/96 107/107/107
f 92/92/92 108/108/108 94/94/94
f 107/107/107 94/94/94 108/108/108
f 108/108/108 92/92/92 109/109/109
f 88/88/88 109/109/109 92/92/92
f 109/109/109 88/88/88 110/110/110
f 86/86/86 110/110/110 88/88/88
f 110/110/110 86/86/86 111/111/111
f 89/89/89 111/111/111 86/86/86
f 114/114/114 113/113/113 112/112/112
f 113/113/113 115/115/115 112/112/112
f 116/116/116 115/115/115 113/113/113
f 117/117/117 116/116/116 113/113/113
f 118/118/118 115/115/115 116/116/116
f 112/112/112 115/115/115 119/119/119
f 122/122/122 121/121/121 120/120/120
f 123/123/123 120/120/120 121/121/121
f 121/121/121 122/122/122 124/124/124
f 125/125/125 124/124/124 122/122/122
f 120/120/120 123/123/123 126/126/126
f 127/127/127 126/126/126 123/123/123
f 126/126/126 127/127/127 128/128/128
f 129/129/129 128/128/128 127/127/127
f 128/128/128 129/129/129 130/130/130
f 131/131/131 130/130/130 129/129/129
f 130/130/130 131/131/131 132/132/132
f 133/133/133 132/132/132 131/131/131
f 132/132/132 133/133/133 134/134/134
f 135/135/135 134/134/134 133/133/133
f 134/134/134 135/135/135 136/136/136
f 137/137/137 136/136/136 135/135/135
f 140/140/140 139/139/139 138/138/138
f 139/139/139 141/141/141 138/138/138
f 142/142/142 141/141/141 139/139/139
f 143/143/143 142/142/142 139/139/139
f 144/144/144 141/141/141 142/142/142
f 138/138/138 141/141/141 145/145/145
f 148/148/148 147/147/147 146/146/146
f 149/149/149 146/146/146 147/147/147
f 147/147/147 148/148/148 150/150/150
f 151/151/151 150/150/150 148/148/148
f 146/146/146 149/149/149 152/152/152
f 153/153/153 152/152/152 149/149/149
f 152/152/152 153/153/153 154/154/154
f 155/155/155 154/154/154 153/153/153
f 154/154/154 155/155/155 156/156/156
f 157/157/157 156/156/156 155/155/155
f 156/156/156 157/157/157 158/158/158
f 159/159/159 158/158/158 157/157/157
f 158/158/158 159/159/159 160/160/160
f 161/161/161 160/160/160 159/159/159
f 160/160/160 161/161/161 162/162/162
f 163/163/163 162/162/162 161/161/161
f 166/166/166 165/165/165 164/164/164
f 165/165/165 167/167/167 164/164/164
f 168/168/168 167/167/167 165/165/165
f 169/169/169 168/168/168 165/165/165
f 170/170/170 167/167/167 168/168/168
f 164/164/164 167/167/167 171/171/171
f 174/174/174 173/173/173 172/172/172
f 175/175/175 172/172/172 173/173/173
f 173/173/173 174/174/174 176/176/176
f 177/177/177 176/176/176 174/174/174
f 172/172/172 175/175/175 178/178/178
f 179/179/179 178/178/178 175/175/175
f 178/178/178 179/179/179 180/180/180
f 181/181/181 180/180/180 179/179/179
f 180/180/180 181/181/181 182/182/182
f 183/183/183 182/182/182 181/181/181
f 182/182/182 183/183/183 184/184/184
f 185/185/185 184/184/184 183/183/183
f 184/184/184 185/185/185 186/186/186
f 187/187/187 186/186/186 185/185/185
f 186/186/186 187/187/187 188/188/188
f 189/189/189 188/188/188 187/187/187
f 192/192/192 191/191/191 190/190/190
f 191/191/191 193/193/193 190/190/190
f 194/194/194 193/193/193 191/191/191
f 195/195/195 194/194/194 191/191/191
f 196/196/196 193/193/193 194/194/194
f 190/190/190 193/193/193 197/197/197
