g scope_all_walther_mrs_LOD1
v -0.01603121 -0.02968931 -0.005840261
v 0.01602781 0.03192833 -0.005840262
v -0.01603121 0.03192833 -0.005840262
v 0.01602781 -0.02968931 -0.005840261
v 0.01378946 -0.02342757 0.04845419
v -0.01379287 -0.01294662 0.04845419
v 0.01378946 -0.01294662 0.04845419
v -0.01379287 -0.02342757 0.04845419
v -0.01603121 -0.02968931 -0.005840261
v 0.01602781 -0.02968931 0.009613046
v 0.01602781 -0.02968931 -0.005840261
v -0.01603121 -0.02968931 0.009613046
v 0.01602781 -0.02836424 0.01803935
v -0.01603121 -0.02836424 0.01803935
v -0.01379286 -0.0276017 0.02273736
v 0.01378946 -0.0276017 0.02273736
v 0.01378946 -0.02342757 0.04845419
v -0.01379287 -0.02342757 0.04845419
v 0.01818438 -0.02645401 0.02981216
v 0.01818438 -0.02476391 0.04019661
v -0.01818779 -0.02476391 0.04019661
v -0.01818778 -0.02645401 0.02981216
v 0.01602781 -0.02968931 -0.005840261
v 0.01602781 0.03192833 0.009613046
v 0.01602781 0.03192833 -0.005840262
v 0.01602781 0.02306765 0.009613046
v 0.01602781 -0.01294663 0.009613046
v 0.01602781 -0.02968931 0.009613046
v 0.01602781 -0.02836424 0.01803935
v 0.01602781 -0.01294662 0.01821618
v 0.01602781 0.0235487 0.01821618
v 0.01378946 -0.0276017 0.02273736
v 0.01378946 -0.01294662 0.02274384
v 0.0151712 0.03024834 0.02241764
v 0.01558638 0.0353734 0.02193918
v 0.01185821 0.05625616 0.01259911
v 0.01185821 0.05625616 0.0239804
v 0.01602781 0.03192833 -0.005840262
v -0.01603121 0.03192833 0.009613046
v -0.01603121 0.03192833 -0.005840262
v 0.01602781 0.03192833 0.009613046
v -0.01603121 0.03192833 -0.005840262
v -0.01603121 -0.02968931 0.009613046
v -0.01603121 -0.02968931 -0.005840261
v -0.01603121 -0.01294662 0.009613045
v -0.01603121 0.02306765 0.009613046
v -0.01603121 0.03192833 0.009613046
v -0.01558978 0.0353734 0.02193918
v -0.01603121 0.0235487 0.01821618
v -0.0151746 0.03024835 0.02241764
v -0.01186161 0.05625616 0.0239804
v -0.01186161 0.05625616 0.01259911
v -0.01603121 -0.01294662 0.01821618
v -0.01603121 -0.02836424 0.01803935
v -0.01379286 -0.0276017 0.02273736
v -0.01379286 -0.01294662 0.02274384
v -0.01186161 0.05625616 0.01259911
v -0.00649534 0.05625616 0.02715018
v -0.01186161 0.05625616 0.0239804
v 0.01185821 0.05625616 0.01259911
v 0.01185821 0.05625616 0.0239804
v 0.006491936 0.05625616 0.02715018
v 0.01602781 0.03192833 0.009613046
v -0.01186161 0.05625616 0.01259911
v -0.01603121 0.03192833 0.009613046
v 0.01185821 0.05625616 0.01259911
v -0.007454616 0.03781639 0.0271486
v 0.006491936 0.05625616 0.02715018
v 0.007451212 0.03781639 0.0271486
v -0.00649534 0.05625616 0.02715018
v 0.01602781 0.0235487 0.01821618
v -0.01603121 -0.01294662 0.01821618
v -0.01603121 0.0235487 0.01821618
v 0.01602781 -0.01294662 0.01821618
v -0.01603121 -0.01294662 0.01821618
v 0.01378946 -0.01294662 0.02274384
v -0.01379286 -0.01294662 0.02274384
v 0.01602781 -0.01294662 0.01821618
v -0.01379287 -0.01294662 0.04845419
v 0.01378946 -0.01294662 0.04845419
v 0.01818438 -0.01294662 0.04019661
v 0.01818438 -0.01294662 0.02981378
v -0.01818779 -0.01294662 0.02981378
v -0.01818779 -0.01294662 0.04019661
v 0.01602781 0.0235487 0.01821618
v 0.007451212 0.03781639 0.0271486
v 0.0151712 0.03024834 0.02241764
v -0.01603121 0.0235487 0.01821618
v -0.0151746 0.03024835 0.02241764
v -0.007454616 0.03781639 0.0271486
v 0.01558638 0.0353734 0.02193918
v 0.0151712 0.03024834 0.02241764
v 0.007451212 0.03781639 0.0271486
v 0.01185821 0.05625616 0.0239804
v 0.006491936 0.05625616 0.02715018
v -0.01558978 0.0353734 0.02193918
v -0.007454616 0.03781639 0.0271486
v -0.0151746 0.03024835 0.02241764
v -0.00649534 0.05625616 0.02715018
v -0.01186161 0.05625616 0.0239804
v 0.01818438 -0.01294662 0.02981378
v 0.01818438 -0.02476391 0.04019661
v 0.01818438 -0.01294662 0.04019661
v 0.01818438 -0.02645401 0.02981216
v -0.01818779 -0.02476391 0.04019661
v -0.01818779 -0.01294662 0.02981378
v -0.01818779 -0.01294662 0.04019661
v -0.01818778 -0.02645401 0.02981216
v 0.01378946 -0.01294662 0.04845419
v 0.01818438 -0.02476391 0.04019661
v 0.01378946 -0.02342757 0.04845419
v 0.01818438 -0.01294662 0.04019661
v 0.01378946 -0.0276017 0.02273736
v 0.01818438 -0.01294662 0.02981378
v 0.01378946 -0.01294662 0.02274384
v 0.01818438 -0.02645401 0.02981216
v -0.01379287 -0.02342757 0.04845419
v -0.01818779 -0.01294662 0.04019661
v -0.01379287 -0.01294662 0.04845419
v -0.01818779 -0.02476391 0.04019661
v -0.01379286 -0.01294662 0.02274384
v -0.01818778 -0.02645401 0.02981216
v -0.01379286 -0.0276017 0.02273736
v -0.01818779 -0.01294662 0.02981378
v 0.01465664 -0.002271658 0.02520685
v 0.01036381 -0.01263547 0.01809652
v 0.01036381 -0.01263547 0.02520685
v 0.01465664 -0.002271659 0.01809652
v -6.406622E-10 -0.0169283 0.01809653
v -6.406622E-10 -0.0169283 0.02520685
v 0.01036381 0.008092156 0.02520684
v 0.01036381 0.008092154 0.01809652
v 1.747787E-10 0.01238499 0.02520684
v 1.747787E-10 0.01238498 0.01809652
v -0.01036381 0.008092156 0.02520684
v -0.01036381 0.008092154 0.01809652
v -0.01465664 -0.002271656 0.02520685
v -0.01465664 -0.002271658 0.01809652
v -0.01036381 -0.01263547 0.02520685
v -0.01036381 -0.01263547 0.01809652
v -6.406622E-10 -0.0169283 0.02520685
v -6.406622E-10 -0.0169283 0.01809653
v 1.747787E-10 0.01238499 0.02520684
v -0.01465664 -0.002271656 0.02520685
v -0.01036381 0.008092156 0.02520684
v 0.01465664 -0.002271658 0.02520685
v -6.406622E-10 -0.0169283 0.02520685
v -0.01036381 -0.01263547 0.02520685
v 0.01036381 -0.01263547 0.02520685
v 0.01036381 0.008092156 0.02520684
v 0.01052411 0.04140952 0.0002223476
v 0.008092733 0.04912087 0.01243861
v 0.008092733 0.04912087 0.0002223476
v 0.01052412 0.04140951 0.01125377
v 0.0009207381 0.05285437 0.01246877
v 0.0009207386 0.05285437 0.0002223476
v 0.006790608 0.03423752 0.0002223476
v 0.006790608 0.03423752 0.01033715
v -0.0009207421 0.03180614 0.0002223476
v -0.0009207425 0.03180614 0.009804646
v -0.001906037 0.05736079 0.0002223476
v -0.0067117 0.05590667 0.01246877
v -0.0067117 0.05590667 0.0002223476
v -0.001906037 0.05736079 0.01246877
v -0.006790612 0.05042299 0.0002223476
v -0.01052412 0.043251 0.01132775
v -0.01052412 0.043251 0.0002223476
v -0.006790612 0.05042299 0.01243861
v -0.008092737 0.03553965 0.01033715
v -0.008092735 0.03553965 0.0002223476
v -0.0009207425 0.03180614 0.009804646
v -0.0009207421 0.03180614 0.0002223476
v -0.0009207421 0.03180614 0.0002223476
v -0.01052412 0.043251 0.0002223476
v -0.008092735 0.03553965 0.0002223476
v 0.01052411 0.04140952 0.0002223476
v 0.0009207386 0.05285437 0.0002223476
v -0.006790612 0.05042299 0.0002223476
v 0.008092733 0.04912087 0.0002223476
v 0.006790608 0.03423752 0.0002223476
v -0.0067117 0.05590667 0.0002223476
v -0.001906037 0.05736079 0.0002223476
v 0.0009207381 0.05285437 0.01246877
v -0.001906037 0.05736079 0.0002223476
v 0.0009207386 0.05285437 0.0002223476
v -0.001906037 0.05736079 0.01246877
v -0.006790612 0.05042299 0.0002223476
v -0.0067117 0.05590667 0.01246877
v -0.006790612 0.05042299 0.01243861
v -0.0067117 0.05590667 0.0002223476
v -0.006790612 0.05042299 0.01243861
v -0.001906037 0.05736079 0.01246877
v 0.0009207381 0.05285437 0.01246877
v -0.0067117 0.05590667 0.01246877
vt 0.2391006 0.1663305
vt 0.007294902 0.5140604
vt 0.2400074 0.5136943
vt 0.006388096 0.1666966
vt 0.7256637 0.8322948
vt 0.6506745 0.6349491
vt 0.6506745 0.8322948
vt 0.7256637 0.6349491
vt 0.7433969 0.4697168
vt 0.9727727 0.5802832
vt 0.972773 0.4697178
vt 0.7433962 0.5802818
vt 0.9727717 0.6413139
vt 0.7433956 0.6413102
vt 0.7594083 0.6753612
vt 0.9567542 0.6753691
vt 0.9567469 0.8617765
vt 0.759401 0.8617674
vt 0.9881966 0.7266511
vt 0.9881943 0.8019279
vt 0.7279587 0.8019162
vt 0.7279609 0.7266399
vt 0.4734215 0.9924082
vt 0.5843452 0.551462
vt 0.4736226 0.5514655
vt 0.584259 0.6148021
vt 0.5838209 0.8726081
vt 0.5838618 0.9924381
vt 0.6440518 0.9829497
vt 0.6451026 0.8726443
vt 0.6460501 0.6115991
vt 0.6812571 0.9775025
vt 0.6812721 0.8726397
vt 0.6766143 0.5636335
vt 0.6727152 0.5268139
vt 0.6059664 0.3749034
vt 0.6874687 0.3749917
vt 0.007294902 0.5140604
vt 0.2402347 0.6008103
vt 0.2400074 0.5136943
vt 0.007522136 0.6011757
vt 0.4609695 0.5484757
vt 0.3503018 0.9892571
vt 0.4608986 0.9892449
vt 0.3502602 0.8694987
vt 0.3503577 0.6118827
vt 0.3504851 0.5484681
vt 0.2623294 0.523537
vt 0.2887039 0.6084428
vt 0.2584031 0.560222
vt 0.2479337 0.3718006
vt 0.3291893 0.3718792
vt 0.288725 0.8695061
vt 0.2899908 0.9797863
vt 0.2527288 0.9743642
vt 0.2526294 0.8695375
vt 0.04151738 0.7495861
vt 0.0799123 0.8536962
vt 0.04151738 0.831017
vt 0.2112275 0.7495861
vt 0.2112275 0.831017
vt 0.1728336 0.8536962
vt 0.007522136 0.6011757
vt 0.2103262 0.7390321
vt 0.2402347 0.6008103
vt 0.03814699 0.7393019
vt 0.6343541 0.1813063
vt 0.7642986 0.07756522
vt 0.6333196 0.07842101
vt 0.7670563 0.1735068
vt 0.5177317 0.01533033
vt 0.2539889 0.243136
vt 0.516939 0.246732
vt 0.2562873 0.01245623
vt 0.9775451 0.2397087
vt 0.7641439 0.2718239
vt 0.9614884 0.2720884
vt 0.7481719 0.2394145
vt 0.9612381 0.4560409
vt 0.7638899 0.4557705
vt 0.7325251 0.3966461
vt 0.7326278 0.3223612
vt 0.9928672 0.3227162
vt 0.9927663 0.3970039
vt 0.5177317 0.01533033
vt 0.6333196 0.07842101
vt 0.5728053 0.02190274
vt 0.516939 0.246732
vt 0.575021 0.2406497
vt 0.6343541 0.1813063
vt 0.6086979 0.01329453
vt 0.5728053 0.02190274
vt 0.6333196 0.07842101
vt 0.761085 0.03090772
vt 0.7642986 0.07756522
vt 0.6132169 0.2476105
vt 0.6343541 0.1813063
vt 0.575021 0.2406497
vt 0.7670563 0.1735068
vt 0.7654375 0.2200259
vt 0.7408501 0.8726422
vt 0.8151519 0.9572068
vt 0.81515 0.8726443
vt 0.7408458 0.9692968
vt 0.1188433 0.9541
vt 0.1930972 0.869553
vt 0.118834 0.8695628
vt 0.1931333 0.9661789
vt 0.8820893 0.8726459
vt 0.8151519 0.9572068
vt 0.8820893 0.9476461
vt 0.81515 0.8726443
vt 0.6812571 0.9775025
vt 0.7408501 0.8726422
vt 0.6812721 0.8726397
vt 0.7408458 0.9692968
vt 0.05192761 0.9445437
vt 0.118834 0.8695628
vt 0.05192348 0.8695674
vt 0.1188433 0.9541
vt 0.2526294 0.8695375
vt 0.1931333 0.9661789
vt 0.2527288 0.9743642
vt 0.1930972 0.869553
vt 0.5102625 0.3594958
vt 0.5328544 0.5402297
vt 0.5328544 0.3594958
vt 0.5102625 0.5402297
vt 0.555446 0.5402297
vt 0.555446 0.3594958
vt 0.4876708 0.3594958
vt 0.4876708 0.5402297
vt 0.4650789 0.3594958
vt 0.4650789 0.5402297
vt 0.4424872 0.3594958
vt 0.4424872 0.5402297
vt 0.4198955 0.3594958
vt 0.4198955 0.5402297
vt 0.3973038 0.3594958
vt 0.3973038 0.5402297
vt 0.3747121 0.3594958
vt 0.3747121 0.5402297
vt 0.9845065 0.1259956
vt 0.879641 0.02113018
vt 0.9537923 0.05184443
vt 0.879641 0.230861
vt 0.7747759 0.1259956
vt 0.8054906 0.05184443
vt 0.8054906 0.2001465
vt 0.9537923 0.2001465
vt 0.3467913 0.2549568
vt 0.39629 0.347508
vt 0.3962927 0.2549586
vt 0.34679 0.33853
vt 0.4457903 0.3477392
vt 0.4457948 0.2549611
vt 0.2972903 0.2549559
vt 0.2972893 0.331585
vt 0.247789 0.2549552
vt 0.2477884 0.32755
vt 0.4783632 0.254964
vt 0.5090945 0.3477457
vt 0.5091022 0.2549676
vt 0.4783572 0.3477421
vt 0.5426784 0.2549725
vt 0.5921702 0.3391148
vt 0.5921802 0.2549811
vt 0.5426691 0.3475222
vt 0.641672 0.3316194
vt 0.6416813 0.2549904
vt 0.6911736 0.3275946
vt 0.6911826 0.2549997
vt 0.03600779 0.1140905
vt 0.1352669 0.1537635
vt 0.07742073 0.1544843
vt 0.0756807 0.01483108
vt 0.17494 0.05450406
vt 0.1756606 0.1123504
vt 0.1335269 0.0141101
vt 0.03528687 0.05624427
vt 0.2127531 0.0995505
vt 0.2118886 0.06363763
vt 0.4457903 0.3477392
vt 0.4783632 0.254964
vt 0.4457948 0.2549611
vt 0.4783572 0.3477421
vt 0.5426784 0.2549725
vt 0.5090945 0.3477457
vt 0.5426691 0.3475222
vt 0.5091022 0.2549676
vt 0.1752287 0.01516555
vt 0.2233129 0.05222397
vt 0.233079 0.01543729
vt 0.1873904 0.05247219
vn 0 0 -1
vn 0 0 -1
vn 0 0 -1
vn 0 0 -1
vn 0 0 1
vn 0 0 1
vn 0 0 1
vn 0 0 1
vn 0 -1 0
vn 0 -0.9969603 0.07790949
vn 0 -1 0
vn 0 -0.9969603 0.07790949
vn 0 -0.9875374 0.1573844
vn 0 -0.9875374 0.1573844
vn 0 -0.9870821 0.1602146
vn 0 -0.9870821 0.1602146
vn 0 -0.9870822 0.1602145
vn 0 -0.9870822 0.1602145
vn -0.0001423452 -0.9870822 0.1602144
vn 0.001708886 -0.9870117 0.1606394
vn -0.0008889221 -0.9870818 0.1602144
vn 0.0008448727 -0.9870128 0.1606396
vn 1 0 0
vn 0.9987551 0.04825059 0.01265817
vn 1 0 0
vn 1 0 -2.381487E-07
vn 1 0 0
vn 1 0 0
vn 0.9801706 -0.002272496 0.1981424
vn 0.9884844 -0.0004196827 0.1513219
vn 0.9991794 0.02901452 0.02826068
vn 0.9013007 -0.004023241 0.4331753
vn 0.896436 -0.0001958193 0.4431733
vn 0.9977995 -0.004653376 0.06614073
vn 0.9974432 0.06900913 0.01857319
vn 0.984728 0.174056 -0.003903725
vn 0.9844349 0.1757497 1.031111E-07
vn 0 1 0
vn 0 1 0
vn 0 1 0
vn 0 1 0
vn -1 0 0
vn -1 0 0
vn -1 0 0
vn -1 0 -1.210269E-07
vn -0.9999814 0.004406328 0.004234056
vn -0.9989241 0.04478899 0.01202087
vn -0.9942205 0.1026033 0.03159367
vn -0.9996939 0.01612483 0.01876752
vn -0.9591675 -0.05174197 0.2780653
vn -0.9852071 0.1713175 -0.004166877
vn -0.9856282 0.1689289 0
vn -0.9884844 -0.0004196942 0.151322
vn -0.9801706 -0.002272615 0.1981425
vn -0.9013007 -0.004023298 0.4331753
vn -0.8964358 -0.0001958193 0.4431734
vn 0 1 0
vn 0 1 0
vn 0 1 0
vn 0 1 0
vn 0 1 0
vn 0 1 0
vn 0 0.1218283 -0.9925512
vn 0 0.1218283 -0.9925512
vn 0 0.1218283 -0.9925512
vn 0 0.1218283 -0.9925512
vn 0 -8.624035E-05 1
vn 0 -8.624035E-05 1
vn 0 -8.624034E-05 1
vn 0 -8.624035E-05 1
vn 0 0 1
vn 0 0 1
vn 0 0 1
vn 0 0 1
vn 0 1 0
vn 0 1 0
vn 0 1 0
vn 0 1 0
vn 0 1 0
vn 0 1 0
vn 0 1 0
vn -2.712434E-07 1 0
vn 1.220681E-07 1 0
vn -2.712434E-07 1 0
vn -0.0004706788 -0.5308475 0.8474672
vn -0.0001370661 -0.5307125 0.8475519
vn -0.001894951 -0.5314615 0.8470803
vn 0.0003396107 -0.531046 0.847343
vn 0.0004785415 -0.5311018 0.8473079
vn 0 -0.5300732 0.8479519
vn 0.5446638 0.02626845 0.838243
vn 0.5461566 0.03389692 0.836997
vn 0.5383105 0.02010518 0.8425066
vn 0.5178078 0.02317867 0.8551829
vn 0.5084105 0.02637435 0.8607108
vn -0.5423651 0.02963976 0.8396199
vn -0.5452755 0.02937341 0.8377421
vn -0.5461567 0.03389693 0.836997
vn -0.5187545 0.01260638 0.8548303
vn -0.5085762 0.006636282 0.8609915
vn 1 1.496692E-07 0
vn 1 1.354996E-07 0
vn 1 2.017541E-07 0
vn 1 0 -1.291622E-07
vn -1 -1.354835E-07 -1.542014E-07
vn -1 -1.496566E-07 -1.703325E-07
vn -1 -2.017541E-07 -2.296276E-07
vn -1 0 -1.004341E-07
vn 0.8827574 2.00808E-07 0.469829
vn 0.8827575 2.00808E-07 0.4698289
vn 0.8827575 2.00808E-07 0.469829
vn 0.8827574 1.781E-07 0.469829
vn 0.8492804 0.000233275 -0.5279421
vn 0.8492804 0.000233275 -0.5279421
vn 0.8492803 0.000233275 -0.5279421
vn 0.8494383 6.322528E-05 -0.527688
vn -0.8827575 -2.00808E-07 0.4698289
vn -0.8827575 -2.00808E-07 0.4698289
vn -0.8827575 -2.00808E-07 0.4698289
vn -0.8827575 -1.781E-07 0.469829
vn -0.8494259 0.0002331715 -0.5277078
vn -0.849426 0.0002331715 -0.5277078
vn -0.849426 0.0002331715 -0.5277078
vn -0.8492803 6.310582E-05 -0.5279424
vn 1 0 0
vn 0.7071068 -0.7071068 1.169901E-07
vn 0.7071068 -0.7071068 1.185511E-07
vn 1 0 0
vn 0 -1 1.676566E-07
vn 0 -1 1.676566E-07
vn 0.7071068 0.7071068 -1.169901E-07
vn 0.7071068 0.7071068 -1.185511E-07
vn 0 1 -1.676566E-07
vn 0 1 -1.676566E-07
vn -0.7071066 0.7071069 -1.185511E-07
vn -0.7071068 0.7071068 -1.185511E-07
vn -1 1.129478E-07 0
vn -1 1.232157E-07 0
vn -0.7071068 -0.7071068 1.185511E-07
vn -0.7071068 -0.7071068 1.185511E-07
vn 0 -1 1.676566E-07
vn 0 -1 1.676566E-07
vn 0 2.010108E-07 1
vn 0 2.010108E-07 1
vn -1.150246E-07 2.776939E-07 1
vn 0 2.010108E-07 1
vn 0 2.010108E-07 1
vn 1.150246E-07 2.776938E-07 1
vn -1.150245E-07 2.776938E-07 1
vn 1.150245E-07 2.776938E-07 1
vn 0.9961947 -0.08715552 -2.271079E-07
vn 0.7526394 0.658433 0
vn 0.7660444 0.6427876 0
vn 0.998566 -0.05353628 -1.288852E-07
vn 0.4617488 0.8870108 0
vn 0.4617488 0.8870108 0
vn 0.6427875 -0.7660445 -1.264974E-07
vn 0.6603866 -0.7509257 -1.98038E-07
vn -0.08715566 -0.9961947 -5.293242E-07
vn -0.08715557 -0.9961947 -5.538347E-07
vn -0.2896167 0.9571427 0
vn -0.2896166 0.9571428 0
vn -0.2896166 0.9571427 0
vn -0.2896166 0.9571427 0
vn -0.8870108 0.4617487 0
vn -0.9926679 0.1208741 0
vn -0.9961947 0.08715574 0
vn -0.8870108 0.4617487 0
vn -0.7814397 -0.6239808 0
vn -0.7660445 -0.6427876 -2.767171E-07
vn -0.08715557 -0.9961947 -5.538347E-07
vn -0.08715566 -0.9961947 -5.293242E-07
vn 0 0 -1
vn 0 0 -1
vn 0 0 -1
vn 0 0 -1
vn 0 0 -1
vn 0 0 -1
vn 0 0 -1
vn 0 0 -1
vn 0 0 -1
vn 0 0 -1
vn 0.84713 0.5313859 0
vn 0.84713 0.5313858 0
vn 0.84713 0.5313859 0
vn 0.84713 0.5313859 0
vn -0.9998965 0.01438881 0
vn -0.9998965 0.01438881 0
vn -0.9998965 0.01438881 0
vn -0.9998965 0.01438892 0
vn -0.003265792 -0.002048559 0.9999926
vn -0.003265792 -0.002048559 0.9999926
vn -0.003265792 -0.002048559 0.9999926
vn 0.001671714 -0.005524782 0.9999834
g scope_all_walther_mrs_LOD1_0
f 3/3/3 2/2/2 1/1/1
f 4/4/4 1/1/1 2/2/2
f 7/7/7 6/6/6 5/5/5
f 8/8/8 5/5/5 6/6/6
f 11/11/11 10/10/10 9/9/9
f 12/12/12 9/9/9 10/10/10
f 10/10/10 13/13/13 12/12/12
f 14/14/14 12/12/12 13/13/13
f 14/14/14 13/13/13 15/15/15
f 16/16/16 15/15/15 13/13/13
f 16/16/16 17/17/17 15/15/15
f 18/18/18 15/15/15 17/17/17
f 16/16/16 19/19/19 17/17/17
f 20/20/20 17/17/17 19/19/19
f 18/18/18 21/21/21 15/15/15
f 22/22/22 15/15/15 21/21/21
f 25/25/25 24/24/24 23/23/23
f 24/24/24 26/26/26 23/23/23
f 26/26/26 27/27/27 23/23/23
f 27/27/27 28/28/28 23/23/23
f 28/28/28 27/27/27 29/29/29
f 30/30/30 29/29/29 27/27/27
f 27/27/27 26/26/26 30/30/30
f 31/31/31 30/30/30 26/26/26
f 24/24/24 31/31/31 26/26/26
f 29/29/29 30/30/30 32/32/32
f 33/33/33 32/32/32 30/30/30
f 34/34/34 31/31/31 24/24/24
f 35/35/35 34/34/34 24/24/24
f 24/24/24 36/36/36 35/35/35
f 37/37/37 35/35/35 36/36/36
f 40/40/40 39/39/39 38/38/38
f 41/41/41 38/38/38 39/39/39
f 44/44/44 43/43/43 42/42/42
f 43/43/43 45/45/45 42/42/42
f 45/45/45 46/46/46 42/42/42
f 46/46/46 47/47/47 42/42/42
f 46/46/46 48/48/48 47/47/47
f 49/49/49 48/48/48 46/46/46
f 46/46/46 45/45/45 49/49/49
f 50/50/50 48/48/48 49/49/49
f 48/48/48 51/51/51 47/47/47
f 52/52/52 47/47/47 51/51/51
f 45/45/45 43/43/43 53/53/53
f 53/53/53 49/49/49 45/45/45
f 54/54/54 53/53/53 43/43/43
f 54/54/54 55/55/55 53/53/53
f 56/56/56 53/53/53 55/55/55
f 59/59/59 58/58/58 57/57/57
f 57/57/57 58/58/58 60/60/60
f 58/58/58 61/61/61 60/60/60
f 62/62/62 61/61/61 58/58/58
f 65/65/65 64/64/64 63/63/63
f 66/66/66 63/63/63 64/64/64
f 69/69/69 68/68/68 67/67/67
f 70/70/70 67/67/67 68/68/68
f 73/73/73 72/72/72 71/71/71
f 74/74/74 71/71/71 72/72/72
f 77/77/77 76/76/76 75/75/75
f 78/78/78 75/75/75 76/76/76
f 77/77/77 79/79/79 76/76/76
f 80/80/80 76/76/76 79/79/79
f 80/80/80 81/81/81 76/76/76
f 82/82/82 76/76/76 81/81/81
f 77/77/77 83/83/83 79/79/79
f 84/84/84 79/79/79 83/83/83
f 87/87/87 86/86/86 85/85/85
f 86/86/86 88/88/88 85/85/85
f 89/89/89 88/88/88 86/86/86
f 90/90/90 89/89/89 86/86/86
f 93/93/93 92/92/92 91/91/91
f 91/91/91 94/94/94 93/93/93
f 95/95/95 93/93/93 94/94/94
f 98/98/98 97/97/97 96/96/96
f 97/97/97 99/99/99 96/96/96
f 100/100/100 96/96/96 99/99/99
f 103/103/103 102/102/102 101/101/101
f 104/104/104 101/101/101 102/102/102
f 107/107/107 106/106/106 105/105/105
f 108/108/108 105/105/105 106/106/106
f 111/111/111 110/110/110 109/109/109
f 112/112/112 109/109/109 110/110/110
f 115/115/115 114/114/114 113/113/113
f 116/116/116 113/113/113 114/114/114
f 119/119/119 118/118/118 117/117/117
f 120/120/120 117/117/117 118/118/118
f 123/123/123 122/122/122 121/121/121
f 124/124/124 121/121/121 122/122/122
f 127/127/127 126/126/126 125/125/125
f 128/128/128 125/125/125 126/126/126
f 126/126/126 127/127/127 129/129/129
f 130/130/130 129/129/129 127/127/127
f 125/125/125 128/128/128 131/131/131
f 132/132/132 131/131/131 128/128/128
f 131/131/131 132/132/132 133/133/133
f 134/134/134 133/133/133 132/132/132
f 133/133/133 134/134/134 135/135/135
f 136/136/136 135/135/135 134/134/134
f 135/135/135 136/136/136 137/137/137
f 138/138/138 137/137/137 136/136/136
f 137/137/137 138/138/138 139/139/139
f 140/140/140 139/139/139 138/138/138
f 139/139/139 140/140/140 141/141/141
f 142/142/142 141/141/141 140/140/140
f 145/145/145 144/144/144 143/143/143
f 144/144/144 146/146/146 143/143/143
f 147/147/147 146/146/146 144/144/144
f 148/148/148 147/147/147 144/144/144
f 149/149/149 146/146/146 147/147/147
f 143/143/143 146/146/146 150/150/150
f 153/153/153 152/152/152 151/151/151
f 154/154/154 151/151/151 152/152/152
f 152/152/152 153/153/153 155/155/155
f 156/156/156 155/155/155 153/153/153
f 151/151/151 154/154/154 157/157/157
f 158/158/158 157/157/157 154/154/154
f 157/157/157 158/158/158 159/159/159
f 160/160/160 159/159/159 158/158/158
f 163/163/163 162/162/162 161/161/161
f 164/164/164 161/161/161 162/162/162
f 167/167/167 166/166/166 165/165/165
f 168/168/168 165/165/165 166/166/166
f 166/166/166 167/167/167 169/169/169
f 170/170/170 169/169/169 167/167/167
f 169/169/169 170/170/170 171/171/171
f 172/172/172 171/171/171 170/170/170
f 175/175/175 174/174/174 173/173/173
f 174/174/174 176/176/176 173/173/173
f 177/177/177 176/176/176 174/174/174
f 178/178/178 177/177/177 174/174/174
f 179/179/179 176/176/176 177/177/177
f 173/173/173 176/176/176 180/180/180
f 178/178/178 181/181/181 177/177/177
f 182/182/182 177/177/177 181/181/181
f 185/185/185 184/184/184 183/183/183
f 186/186/186 183/183/183 184/184/184
f 189/189/189 188/188/188 187/187/187
f 190/190/190 187/187/187 188/188/188
f 193/193/193 192/192/192 191/191/191
f 194/194/194 191/191/191 192/192/192
