g scope_all_eotech_g33_LOD1
v -0.0101895 0.03566151 0.01382511
v -0.006711497 0.03566151 0.005674114
v -0.006711498 0.05014051 0.005674114
v -0.0101895 0.05014051 0.01382511
v -0.006711497 0.03566151 0.005674114
v 0.008313502 0.03566151 0.01227211
v 0.008313502 0.05014051 0.01227211
v -0.006711498 0.05014051 0.005674114
v 0.008313502 0.05014051 0.01227211
v -0.0101895 0.05014051 0.01382511
v -0.006711498 0.05014051 0.005674114
v -0.006711497 0.03566151 0.005674114
v -0.0101895 0.03566151 0.01382511
v 0.008313502 0.03566151 0.01227211
v 0.0229195 0.06112051 -0.008651886
v 0.0229195 0.02608651 -0.008651886
v 0.0229195 0.02608651 0.005597115
v 0.0229195 0.06112051 0.005597115
v -0.006629499 0.06112051 0.005597115
v -0.006629497 0.02608651 0.005597115
v -0.0112065 0.02608651 0.01774311
v -0.0112065 0.06112051 0.01774311
v -0.0184795 0.02608651 0.02052811
v -0.0184795 0.06112051 0.02052811
v -0.0245265 0.02608651 0.0156221
v -0.0245265 0.06112051 0.0156221
v -0.0112065 0.06112051 0.01774311
v -0.0245265 0.06112051 0.0156221
v -0.006629499 0.06112051 0.005597115
v -0.0184795 0.06112051 0.02052811
v -0.0211455 0.06112051 -0.008524895
v 0.0229195 0.06112051 -0.008651886
v 0.0229195 0.06112051 0.005597115
v -0.0245265 0.02608651 0.0156221
v -0.0184795 0.02608651 0.02052811
v -0.0211455 0.02608651 -0.008524895
v -0.006629497 0.02608651 0.005597115
v -0.0112065 0.02608651 0.01774311
v 0.0229195 0.02608651 -0.008651886
v 0.0229195 0.02608651 0.005597115
v -0.0245265 0.02608651 0.0156221
v -0.0211455 0.02608651 -0.008524895
v -0.0211455 0.06112051 -0.008524895
v -0.0245265 0.06112051 0.0156221
v -0.006629499 0.06112051 0.005597115
v 0.0229195 0.06112051 0.005597115
v 0.0229195 0.02608651 0.005597115
v -0.006629497 0.02608651 0.005597115
v -0.0211455 0.02608651 -0.008524895
v 0.0229195 0.02608651 -0.008651886
v 0.0229195 0.06112051 -0.008651886
v -0.0211455 0.06112051 -0.008524895
v -0.009274496 0.02114651 0.02835611
v -0.009274498 0.06513151 0.02835611
v -0.0161835 0.05089551 0.04228512
v -0.0161835 0.02114651 0.04228512
v -0.008296498 0.05089551 0.05643711
v -0.008296496 0.02114651 0.05643711
v 0.007903501 0.05089551 0.0566831
v 0.007903503 0.02114651 0.0566831
v 0.0162165 0.05089551 0.04277611
v 0.0162165 0.02114651 0.04277611
v 0.009733502 0.06513151 0.02864511
v 0.009733504 0.02114651 0.02864511
v 0.009981504 0.02114651 0.01224312
v 0.009981502 0.06513151 0.01224312
v -0.009025498 0.06513151 0.01195412
v -0.009025496 0.02114651 0.01195412
v -0.0161835 0.02114651 0.04228512
v -0.008296496 0.02114651 0.05643711
v -0.009274496 0.02114651 0.02835611
v 0.009733504 0.02114651 0.02864511
v 0.0162165 0.02114651 0.04277611
v 0.007903503 0.02114651 0.0566831
v -0.009025496 0.02114651 0.01195412
v 0.009981504 0.02114651 0.01224312
v -0.009274496 0.02114651 0.02835611
v -0.009025496 0.02114651 0.01195412
v -0.009025498 0.06513151 0.01195412
v -0.009274498 0.06513151 0.02835611
v -0.009274498 0.06513151 0.02835611
v -0.009025498 0.06513151 0.01195412
v 0.009981502 0.06513151 0.01224312
v 0.009733502 0.06513151 0.02864511
v 0.009733502 0.06513151 0.02864511
v 0.009981502 0.06513151 0.01224312
v 0.009981504 0.02114651 0.01224312
v 0.009733504 0.02114651 0.02864511
v -0.0204475 0.04985251 0.05139511
v -0.0204475 0.1110525 0.05139511
v -0.0085565 0.1110525 0.06342211
v -0.008556497 0.04985251 0.06342211
v 0.008356499 0.1110525 0.0635181
v 0.008356502 0.04985251 0.0635181
v 0.0203845 0.1110525 0.0516271
v 0.0203845 0.04985251 0.0516271
v 0.0204805 0.1110525 0.03471411
v 0.0204805 0.04985251 0.03471411
v 0.008589499 0.1110525 0.02268711
v 0.008589501 0.04985251 0.02268711
v -0.008323501 0.1110525 0.02259111
v -0.008323497 0.04985251 0.02259111
v -0.0203515 0.04985251 0.03448212
v -0.0203515 0.1110525 0.03448212
v -0.008323497 0.04985251 0.02259111
v -0.008323501 0.1110525 0.02259111
v -0.008556497 0.04985251 0.06342211
v 0.0203845 0.04985251 0.0516271
v -0.0204475 0.04985251 0.05139511
v 0.008356502 0.04985251 0.0635181
v -0.0203515 0.04985251 0.03448212
v -0.008323497 0.04985251 0.02259111
v 0.008589501 0.04985251 0.02268711
v 0.0204805 0.04985251 0.03471411
v -0.0204475 0.1110525 0.05139511
v -0.008323501 0.1110525 0.02259111
v -0.0085565 0.1110525 0.06342211
v 0.008356499 0.1110525 0.0635181
v 0.0203845 0.1110525 0.0516271
v 0.0204805 0.1110525 0.03471411
v 0.008589499 0.1110525 0.02268711
v -0.0203515 0.1110525 0.03448212
v 0.008215501 0.06516451 0.06903411
v 0.008215501 0.06516451 0.0631401
v 0.005065501 0.05546951 0.0631401
v 0.005065501 0.05546951 0.06903411
v -0.005129498 0.05546951 0.0631401
v -0.005129498 0.05546951 0.06903411
v -0.008279498 0.06516451 0.0631401
v -0.008279498 0.06516451 0.06903411
v -3.249897E-05 0.07115651 0.06903411
v -3.249897E-05 0.07115651 0.0631401
v -0.008279498 0.06516451 0.06903411
v -0.008279498 0.06516451 0.0631401
v 0.005065501 0.05546951 0.06903411
v -0.008279498 0.06516451 0.06903411
v 0.008215501 0.06516451 0.06903411
v -0.005129498 0.05546951 0.06903411
v -3.249897E-05 0.07115651 0.06903411
v -0.0259455 0.06516451 0.05188911
v -0.0197305 0.06516451 0.05188911
v -0.0197305 0.05494151 0.04856711
v -0.0259455 0.05494151 0.04856711
v -0.0197305 0.05494151 0.03781811
v -0.0259455 0.05494151 0.03781811
v -0.0197305 0.06516451 0.03449612
v -0.0259455 0.06516451 0.03449612
v -0.0259455 0.07148251 0.04319212
v -0.0197305 0.07148251 0.04319212
v -0.0259455 0.06516451 0.03449612
v -0.0197305 0.06516451 0.03449612
v -0.0259455 0.05494151 0.04856711
v -0.0259455 0.06516451 0.03449612
v -0.0259455 0.06516451 0.05188911
v -0.0259455 0.05494151 0.03781811
v -0.0259455 0.07148251 0.04319212
v -0.0122475 0.1101945 0.03085312
v -0.0122475 0.1222965 0.03085312
v -0.0173275 0.1222965 0.0431171
v -0.0173275 0.1101945 0.0431171
v -0.0122475 0.1222965 0.0553811
v -0.0122475 0.1101945 0.0553811
v 1.649879E-05 0.1222965 0.06046211
v 1.649932E-05 0.1101945 0.06046211
v 0.0122805 0.1222965 0.0553811
v 0.0122805 0.1101945 0.0553811
v 0.0173605 0.1222965 0.0431171
v 0.0173605 0.1101945 0.0431171
v 0.0122805 0.1222965 0.03085312
v 0.0122805 0.1101945 0.03085312
v 1.649879E-05 0.1222965 0.0257731
v 1.649932E-05 0.1101945 0.0257731
v 1.649932E-05 0.1101945 0.0257731
v 1.649879E-05 0.1222965 0.0257731
v -0.0122475 0.1222965 0.03085312
v 1.649879E-05 0.1222965 0.0257731
v -0.0173275 0.1222965 0.0431171
v -0.0122475 0.1222965 0.0553811
v 1.649879E-05 0.1222965 0.06046211
v 0.0122805 0.1222965 0.0553811
v 0.0173605 0.1222965 0.0431171
v 0.0122805 0.1222965 0.03085312
v 0.0217575 0.06116351 -0.006763897
v 0.0217575 0.06116351 0.005496101
v 0.0264535 0.07047451 0.005496101
v 0.0264535 0.07047451 -0.006763897
v 0.0260525 0.07655651 -0.006763897
v 0.0260525 0.07655651 0.005496101
v 0.0217575 0.06116351 0.005496101
v 0.0172025 0.06116351 0.005496101
v 0.0219645 0.07047451 0.005496101
v 0.0264535 0.07047451 0.005496101
v 0.0260525 0.07655651 0.005496101
v 0.0223975 0.0765755 0.005496101
v 0.0172025 0.06116351 0.005496101
v 0.0172025 0.06116351 -0.006763897
v 0.0219645 0.07047451 -0.006763897
v 0.0219645 0.07047451 0.005496101
v 0.0223975 0.0765755 0.005496101
v 0.0223975 0.0765755 -0.006763897
v 0.0172025 0.06116351 -0.006763897
v 0.0217575 0.06116351 -0.006763897
v 0.0264535 0.07047451 -0.006763897
v 0.0219645 0.07047451 -0.006763897
v 0.0223975 0.0765755 -0.006763897
v 0.0260525 0.07655651 -0.006763897
v 0.0260525 0.07655651 -0.006763897
v 0.0260525 0.07655651 0.005496101
v 0.0223975 0.0765755 0.005496101
v 0.0223975 0.0765755 -0.006763897
vt 0.7922 0.3475
vt 0.8445 0.3475
vt 0.8445 0.2621
vt 0.7922 0.2621
vt 0.407 0.5829
vt 0.4999 0.5829
vt 0.4999 0.5009
vt 0.407 0.5009
vt 0.1275 0.9412
vt 0.2383 0.9971
vt 0.2372 0.9379
vt 0.0971 0.9934
vt 0.1253 0.9417
vt 0.002 0.9402
vt 0.592 0.1695
vt 0.4044 0.1695
vt 0.4044 0.2457
vt 0.592 0.2457
vt 0.5986 0.2958
vt 0.7861 0.2958
vt 0.7861 0.2263
vt 0.5986 0.2263
vt 0.7861 0.1846
vt 0.5986 0.1846
vt 0.7861 0.143
vt 0.5986 0.143
vt 0.3844 0.7984
vt 0.3727 0.7272
vt 0.3195 0.8232
vt 0.3991 0.7594
vt 0.2435 0.7457
vt 0.2435 0.9815
vt 0.3195 0.9815
vt 0.4077 0.5957
vt 0.3799 0.6297
vt 0.5438 0.6153
vt 0.4637 0.6969
vt 0.3954 0.6708
vt 0.5438 0.8635
vt 0.4637 0.8635
vt 0.5999 0.0059
vt 0.5999 0.1364
vt 0.7874 0.1364
vt 0.7874 0.0059
vt 0.4058 0.0047
vt 0.4058 0.1629
vt 0.5934 0.1629
vt 0.5934 0.0047
vt 0.7957 0.0059
vt 0.7957 0.2563
vt 0.9947 0.2563
vt 0.9947 0.0059
vt 0.9918 0.5652
vt 0.7563 0.5653
vt 0.8326 0.6485
vt 0.9918 0.6484
vt 0.8326 0.7352
vt 0.9918 0.7352
vt 0.8326 0.8219
vt 0.9918 0.8219
vt 0.8325 0.9086
vt 0.9918 0.9087
vt 0.7563 0.9918
vt 0.9918 0.9919
vt 0.0026 0.9329
vt 0.238 0.9329
vt 0.238 0.8311
vt 0.0026 0.8311
vt 0.8206 0.3545
vt 0.7399 0.3996
vt 0.9001 0.3939
vt 0.8986 0.5024
vt 0.8179 0.5395
vt 0.7385 0.4921
vt 0.9937 0.3952
vt 0.9922 0.5037
vt 0.4053 0.4894
vt 0.4932 0.4894
vt 0.4932 0.2539
vt 0.4053 0.2539
vt 0.5898 0.2541
vt 0.5005 0.2541
vt 0.5005 0.3575
vt 0.5898 0.3575
vt 0.0023 0.7349
vt 0.0023 0.8227
vt 0.2378 0.8227
vt 0.2378 0.7349
vt 0.3299 0.1855
vt 0.0023 0.1855
vt 0.0023 0.2761
vt 0.3299 0.2761
vt 0.0023 0.3666
vt 0.3299 0.3666
vt 0.0023 0.4572
vt 0.3299 0.4572
vt 0.0023 0.5477
vt 0.3299 0.5477
vt 0.0023 0.6383
vt 0.3299 0.6383
vt 0.0023 0.7288
vt 0.3299 0.7288
vt 0.3299 0.095
vt 0.0023 0.095
vt 0.3299 0.0044
vt 0.0023 0.0044
vt 0.5067 0.4307
vt 0.5716 0.5897
vt 0.5728 0.3654
vt 0.5062 0.5236
vt 0.6657 0.3659
vt 0.7311 0.432
vt 0.7306 0.5249
vt 0.6645 0.5902
vt 0.7057 0.7793
vt 0.5515 0.8442
vt 0.7701 0.843
vt 0.7706 0.9335
vt 0.707 0.9979
vt 0.6164 0.9984
vt 0.552 0.9348
vt 0.6152 0.7798
vt 0.7758 0.8051
vt 0.8099 0.8051
vt 0.8099 0.7461
vt 0.7758 0.7461
vt 0.8099 0.6871
vt 0.7758 0.6871
vt 0.8099 0.6281
vt 0.7758 0.6281
vt 0.7758 0.8641
vt 0.8099 0.8641
vt 0.7758 0.9231
vt 0.8099 0.9231
vt 0.4112 0.9812
vt 0.3593 0.9098
vt 0.3593 0.9981
vt 0.4112 0.9266
vt 0.3272 0.9539
vt 0.4538 0.8241
vt 0.4206 0.8241
vt 0.4206 0.8816
vt 0.4538 0.8816
vt 0.4206 0.9392
vt 0.4538 0.9392
vt 0.4206 0.9967
vt 0.4538 0.9967
vt 0.4538 0.7665
vt 0.4206 0.7665
vt 0.4538 0.709
vt 0.4206 0.709
vt 0.351 0.8138
vt 0.3615 0.9063
vt 0.4074 0.8253
vt 0.3226 0.8639
vt 0.4139 0.8825
vt 0.4003 0.0758
vt 0.3356 0.0758
vt 0.3356 0.1469
vt 0.4003 0.1469
vt 0.3356 0.218
vt 0.4003 0.218
vt 0.3356 0.289
vt 0.4003 0.289
vt 0.3356 0.3601
vt 0.4003 0.3601
vt 0.3356 0.4312
vt 0.4003 0.4312
vt 0.3356 0.5022
vt 0.4003 0.5022
vt 0.3356 0.5733
vt 0.4003 0.5733
vt 0.4003 0.0047
vt 0.3356 0.0047
vt 0.6102 0.6182
vt 0.583 0.6839
vt 0.6759 0.591
vt 0.7415 0.6182
vt 0.7687 0.6839
vt 0.7415 0.7495
vt 0.6759 0.7767
vt 0.6102 0.7495
vt 0.9182 0.2629
vt 0.8526 0.2629
vt 0.8526 0.3188
vt 0.9182 0.3188
vt 0.9182 0.3514
vt 0.8526 0.3514
vt 0.743 0.3267
vt 0.75 0.3034
vt 0.695 0.3134
vt 0.688 0.3364
vt 0.6575 0.325
vt 0.663 0.3062
vt 0.992 0.2623
vt 0.9264 0.2623
vt 0.9264 0.3183
vt 0.992 0.3183
vt 0.992 0.351
vt 0.9264 0.351
vt 0.8826 0.5323
vt 0.8826 0.5589
vt 0.9483 0.5589
vt 0.9483 0.5323
vt 0.9867 0.5323
vt 0.9867 0.5589
vt 0.4679 0.9906
vt 0.5643 0.9906
vt 0.5643 0.9619
vt 0.4679 0.9619
vn -0.9197683 0 -0.3924617
vn -0.9197683 0 -0.3924617
vn -0.9197683 0 -0.3924617
vn -0.9197683 0 -0.3924617
vn 0.4020746 0 -0.915607
vn 0.4020745 0 -0.915607
vn 0.4020746 0 -0.915607
vn 0.4020745 0 -0.915607
vn 0 1 0
vn 0 1 0
vn 0 1 0
vn 0 -1 0
vn 0 -1 0
vn 0 -1 0
vn 1 0 0
vn 1 0 0
vn 1 0 0
vn 1 0 0
vn 0.9357644 0 0.352626
vn 0.9357644 0 0.352626
vn 0.7089862 0 0.7052224
vn 0.708986 0 0.7052225
vn -0.1572952 0 0.9875516
vn -0.1572952 0 0.9875516
vn -0.630037 0 0.7765651
vn -0.6300369 0 0.7765652
vn 0 1 0
vn 0 1 0
vn 0 1 0
vn 0 1 0
vn 0 1 0
vn 0 1 0
vn 0 1 0
vn 0 -1 0
vn 0 -1 0
vn 0 -1 0
vn 0 -1 0
vn 0 -1 0
vn 0 -1 0
vn 0 -1 0
vn -0.9903393 0 -0.1386648
vn -0.9903393 0 -0.1386648
vn -0.9903393 0 -0.1386648
vn -0.9903393 0 -0.1386648
vn 0 0 1
vn 0 0 1
vn 0 0 1
vn 0 0 1
vn -0.002881896 0 -0.9999958
vn -0.002881896 0 -0.9999958
vn -0.002881896 0 -0.9999958
vn -0.002881896 0 -0.9999958
vn -0.8958505 0 -0.4443556
vn -0.8958505 0 -0.4443555
vn -0.9971016 0 -0.07608025
vn -0.9997122 0 0.02398811
vn -0.5130824 0 0.8583394
vn -0.5130824 0 0.8583394
vn 0.4867996 0 0.8735137
vn 0.4867996 0 0.8735136
vn 0.9989501 0 -0.0458143
vn 0.9985251 0 0.05429235
vn 0.9089114 0 -0.4169893
vn 0.9089114 0 -0.4169893
vn 0.01520325 0 -0.9998845
vn 0.01520325 0 -0.9998845
vn 0.01520325 0 -0.9998845
vn 0.01520325 0 -0.9998845
vn 0 -1 0
vn 0 -1 0
vn 0 -1 0
vn 0 -1 0
vn 0 -1 0
vn 0 -1 0
vn 0 -1 0
vn 0 -1 0
vn -0.9998848 0 -0.0151793
vn -0.9998848 0 -0.0151793
vn -0.9998848 0 -0.0151793
vn -0.9998848 0 -0.0151793
vn 0 1 0
vn 0 1 0
vn 0 1 0
vn 0 1 0
vn 0.9998857 0 0.01511838
vn 0.9998857 0 0.01511838
vn 0.9998857 0 0.01511838
vn 0.9998857 0 0.01511838
vn -0.9260386 0 0.3774288
vn -0.9260386 0 0.3774288
vn -0.3879256 0 0.9216906
vn -0.3879256 0 0.9216906
vn 0.3774096 0 0.9260464
vn 0.3774096 0 0.9260464
vn 0.9216825 0 0.387945
vn 0.9216825 0 0.387945
vn 0.9260386 0 -0.3774287
vn 0.9260386 0 -0.3774287
vn 0.3879256 0 -0.9216906
vn 0.3879256 0 -0.9216906
vn -0.3774095 0 -0.9260465
vn -0.3774095 0 -0.9260465
vn -0.9216825 0 -0.387945
vn -0.9216825 0 -0.387945
vn -0.3774095 0 -0.9260465
vn -0.3774095 0 -0.9260465
vn 0 -1 0
vn 0 -1 0
vn 0 -1 0
vn 0 -1 0
vn 0 -1 0
vn 0 -1 0
vn 0 -1 0
vn 0 -1 0
vn 0 1 0
vn 0 1 0
vn 0 1 0
vn 0 1 0
vn 0 1 0
vn 0 1 0
vn 0 1 0
vn 0 1 0
vn 0.9510488 0.3090409 0
vn 0.9510488 0.3090409 0
vn 0.5877889 -0.8090143 0
vn 0.5877889 -0.8090143 0
vn -0.5877889 -0.8090143 0
vn -0.5877889 -0.8090143 0
vn -0.9510576 0.3090134 0
vn -0.9510576 0.3090134 0
vn -2.884521E-05 1 0
vn -2.884521E-05 1 0
vn -0.9510576 0.3090134 0
vn -0.9510576 0.3090134 0
vn 0 0 1
vn 0 0 1
vn 0 0 1
vn 0 0 1
vn 0 0 1
vn 0 0.3090283 0.9510528
vn 0 0.3090283 0.9510528
vn 0 -0.8090262 0.5877724
vn 0 -0.8090262 0.5877724
vn 0 -0.8090258 -0.5877731
vn 0 -0.8090258 -0.5877731
vn 0 0.3090033 -0.951061
vn 0 0.3090033 -0.951061
vn 0 1 -2.71095E-05
vn 0 1 -2.71095E-05
vn 0 0.3090033 -0.951061
vn 0 0.3090033 -0.951061
vn -1 0 0
vn -1 0 0
vn -1 0 0
vn -1 0 0
vn -1 0 0
vn -0.7071069 0 -0.7071066
vn -0.7071069 0 -0.7071066
vn -1 -1.003994E-07 -2.669681E-07
vn -1 -1.003994E-07 -2.669681E-07
vn -0.7071316 0 0.707082
vn -0.7071316 0 0.707082
vn 0 0 1
vn 0 0 1
vn 0.7071316 0 0.707082
vn 0.7071316 0 0.707082
vn 1 1.003994E-07 -2.87504E-07
vn 1 1.003994E-07 -2.87504E-07
vn 0.7071069 0 -0.7071066
vn 0.7071069 0 -0.7071066
vn 0 0 -1
vn 0 0 -1
vn 0 0 -1
vn 0 0 -1
vn 0 1 0
vn 0 1 0
vn 0 1 0
vn 0 1 0
vn 0 1 0
vn 0 1 0
vn 0 1 0
vn 0 1 0
vn 0.8928683 -0.4503179 0
vn 0.8928683 -0.4503179 0
vn 0.9799387 -0.1992988 0
vn 0.9799387 -0.1992988 0
vn 0.9978335 0.06578919 0
vn 0.9978335 0.06578919 0
vn 0 0 1
vn 0 0 1
vn 0 0 1
vn 0 0 1
vn 0 0 1
vn 0 0 1
vn -0.8903167 0.4553418 0
vn -0.8903167 0.4553418 0
vn -0.9632879 0.2684704 0
vn -0.9632879 0.2684704 0
vn -0.997491 0.07079418 0
vn -0.997491 0.07079418 0
vn 0 0 -1
vn 0 0 -1
vn 0 0 -1
vn 0 0 -1
vn 0 0 -1
vn 0 0 -1
vn 0.005197521 0.9999865 0
vn 0.005197521 0.9999865 0
vn 0.005197521 0.9999865 0
vn 0.005197521 0.9999865 0
g scope_all_eotech_g33_LOD1_0
f 3/3/3 2/2/2 1/1/1
f 4/4/4 3/3/3 1/1/1
f 7/7/7 6/6/6 5/5/5
f 8/8/8 7/7/7 5/5/5
f 11/11/11 10/10/10 9/9/9
f 14/14/14 13/13/13 12/12/12
f 17/17/17 16/16/16 15/15/15
f 18/18/18 17/17/17 15/15/15
f 21/21/21 20/20/20 19/19/19
f 22/22/22 21/21/21 19/19/19
f 23/23/23 21/21/21 22/22/22
f 24/24/24 23/23/23 22/22/22
f 25/25/25 23/23/23 24/24/24
f 26/26/26 25/25/25 24/24/24
f 29/29/29 28/28/28 27/27/27
f 27/27/27 28/28/28 30/30/30
f 31/31/31 28/28/28 29/29/29
f 31/31/31 29/29/29 32/32/32
f 29/29/29 33/33/33 32/32/32
f 36/36/36 35/35/35 34/34/34
f 37/37/37 35/35/35 36/36/36
f 38/38/38 35/35/35 37/37/37
f 36/36/36 39/39/39 37/37/37
f 39/39/39 40/40/40 37/37/37
f 43/43/43 42/42/42 41/41/41
f 44/44/44 43/43/43 41/41/41
f 47/47/47 46/46/46 45/45/45
f 48/48/48 47/47/47 45/45/45
f 51/51/51 50/50/50 49/49/49
f 52/52/52 51/51/51 49/49/49
f 55/55/55 54/54/54 53/53/53
f 56/56/56 55/55/55 53/53/53
f 57/57/57 55/55/55 56/56/56
f 58/58/58 57/57/57 56/56/56
f 59/59/59 57/57/57 58/58/58
f 60/60/60 59/59/59 58/58/58
f 61/61/61 59/59/59 60/60/60
f 62/62/62 61/61/61 60/60/60
f 63/63/63 61/61/61 62/62/62
f 64/64/64 63/63/63 62/62/62
f 67/67/67 66/66/66 65/65/65
f 68/68/68 67/67/67 65/65/65
f 71/71/71 70/70/70 69/69/69
f 72/72/72 70/70/70 71/71/71
f 73/73/73 70/70/70 72/72/72
f 74/74/74 70/70/70 73/73/73
f 71/71/71 75/75/75 72/72/72
f 75/75/75 76/76/76 72/72/72
f 79/79/79 78/78/78 77/77/77
f 80/80/80 79/79/79 77/77/77
f 83/83/83 82/82/82 81/81/81
f 84/84/84 83/83/83 81/81/81
f 87/87/87 86/86/86 85/85/85
f 88/88/88 87/87/87 85/85/85
f 91/91/91 90/90/90 89/89/89
f 92/92/92 91/91/91 89/89/89
f 93/93/93 91/91/91 92/92/92
f 94/94/94 93/93/93 92/92/92
f 95/95/95 93/93/93 94/94/94
f 96/96/96 95/95/95 94/94/94
f 97/97/97 95/95/95 96/96/96
f 98/98/98 97/97/97 96/96/96
f 99/99/99 97/97/97 98/98/98
f 100/100/100 99/99/99 98/98/98
f 101/101/101 99/99/99 100/100/100
f 102/102/102 101/101/101 100/100/100
f 89/89/89 90/90/90 103/103/103
f 90/90/90 104/104/104 103/103/103
f 103/103/103 104/104/104 105/105/105
f 104/104/104 106/106/106 105/105/105
f 109/109/109 108/108/108 107/107/107
f 107/107/107 108/108/108 110/110/110
f 111/111/111 108/108/108 109/109/109
f 112/112/112 108/108/108 111/111/111
f 113/113/113 108/108/108 112/112/112
f 114/114/114 108/108/108 113/113/113
f 117/117/117 116/116/116 115/115/115
f 118/118/118 116/116/116 117/117/117
f 119/119/119 116/116/116 118/118/118
f 120/120/120 116/116/116 119/119/119
f 121/121/121 116/116/116 120/120/120
f 115/115/115 116/116/116 122/122/122
f 125/125/125 124/124/124 123/123/123
f 126/126/126 125/125/125 123/123/123
f 127/127/127 125/125/125 126/126/126
f 128/128/128 127/127/127 126/126/126
f 129/129/129 127/127/127 128/128/128
f 130/130/130 129/129/129 128/128/128
f 123/123/123 124/124/124 131/131/131
f 124/124/124 132/132/132 131/131/131
f 131/131/131 132/132/132 133/133/133
f 132/132/132 134/134/134 133/133/133
f 137/137/137 136/136/136 135/135/135
f 135/135/135 136/136/136 138/138/138
f 139/139/139 136/136/136 137/137/137
f 142/142/142 141/141/141 140/140/140
f 143/143/143 142/142/142 140/140/140
f 144/144/144 142/142/142 143/143/143
f 145/145/145 144/144/144 143/143/143
f 146/146/146 144/144/144 145/145/145
f 147/147/147 146/146/146 145/145/145
f 140/140/140 141/141/141 148/148/148
f 141/141/141 149/149/149 148/148/148
f 148/148/148 149/149/149 150/150/150
f 149/149/149 151/151/151 150/150/150
f 154/154/154 153/153/153 152/152/152
f 152/152/152 153/153/153 155/155/155
f 156/156/156 153/153/153 154/154/154
f 159/159/159 158/158/158 157/157/157
f 160/160/160 159/159/159 157/157/157
f 161/161/161 159/159/159 160/160/160
f 162/162/162 161/161/161 160/160/160
f 163/163/163 161/161/161 162/162/162
f 164/164/164 163/163/163 162/162/162
f 165/165/165 163/163/163 164/164/164
f 166/166/166 165/165/165 164/164/164
f 167/167/167 165/165/165 166/166/166
f 168/168/168 167/167/167 166/166/166
f 169/169/169 167/167/167 168/168/168
f 170/170/170 169/169/169 168/168/168
f 171/171/171 169/169/169 170/170/170
f 172/172/172 171/171/171 170/170/170
f 157/157/157 158/158/158 173/173/173
f 158/158/158 174/174/174 173/173/173
f 177/177/177 176/176/176 175/175/175
f 178/178/178 176/176/176 177/177/177
f 179/179/179 176/176/176 178/178/178
f 180/180/180 176/176/176 179/179/179
f 181/181/181 176/176/176 180/180/180
f 182/182/182 176/176/176 181/181/181
f 185/185/185 184/184/184 183/183/183
f 186/186/186 185/185/185 183/183/183
f 186/186/186 187/187/187 185/185/185
f 187/187/187 188/188/188 185/185/185
f 191/191/191 190/190/190 189/189/189
f 192/192/192 191/191/191 189/189/189
f 192/192/192 193/193/193 191/191/191
f 193/193/193 194/194/194 191/191/191
f 197/197/197 196/196/196 195/195/195
f 198/198/198 197/197/197 195/195/195
f 198/198/198 199/199/199 197/197/197
f 199/199/199 200/200/200 197/197/197
f 203/203/203 202/202/202 201/201/201
f 204/204/204 203/203/203 201/201/201
f 204/204/204 205/205/205 203/203/203
f 205/205/205 206/206/206 203/203/203
f 209/209/209 208/208/208 207/207/207
f 210/210/210 209/209/209 207/207/207
