g scope_ags_npz_pag17_linza_LOD0
v 0.03912719 0.05512548 0.08132919
v 0.03980756 0.05584722 0.07790928
v 0.04182586 0.05584722 0.07813522
v 0.04182586 0.05512548 0.08163128
v 0.03652423 0.05512548 0.08056351
v 0.03786084 0.05584722 0.07733665
v 0.03414226 0.05512548 0.07926434
v 0.0360794 0.05584726 0.07636501
v 0.03202039 0.05512548 0.07756973
v 0.03449249 0.05584726 0.07509761
v 0.03032577 0.05512552 0.07544784
v 0.0332251 0.05584726 0.0735107
v 0.02902659 0.05512552 0.07306587
v 0.03225346 0.05584726 0.07172928
v 0.02826094 0.05512552 0.07046291
v 0.03168084 0.05584726 0.06978256
v 0.02795882 0.05512552 0.06776424
v 0.03145489 0.05584726 0.06776424
v 0.02826094 0.05512552 0.06506557
v 0.03168084 0.05584726 0.06574596
v 0.02902659 0.05512552 0.06246261
v 0.03225346 0.05584726 0.06379925
v 0.03032577 0.05512552 0.06008064
v 0.0332251 0.05584726 0.06201778
v 0.03202039 0.05512552 0.05795879
v 0.03449249 0.05584726 0.06043087
v 0.03414226 0.05512552 0.05626415
v 0.0360794 0.05584726 0.05916347
v 0.03652423 0.05512552 0.05496498
v 0.03786084 0.05584726 0.05819187
v 0.03912719 0.05512552 0.05419933
v 0.03980756 0.05584726 0.05761925
v 0.04182586 0.05512552 0.05389721
v 0.04182586 0.05584726 0.0573933
v 0.04452452 0.05512552 0.05419933
v 0.04384416 0.05584726 0.05761925
v 0.04712749 0.05512552 0.05496498
v 0.04579087 0.05584726 0.05819187
v 0.04950946 0.05512552 0.05626415
v 0.04757231 0.05584726 0.05916347
v 0.05163132 0.05512552 0.05795879
v 0.04915923 0.05584726 0.06043087
v 0.05332595 0.05512552 0.06008064
v 0.05042662 0.05584726 0.06201778
v 0.05462513 0.05512552 0.06246261
v 0.05139826 0.05584726 0.06379925
v 0.05539078 0.05512552 0.06506557
v 0.05197087 0.05584726 0.06574596
v 0.05569289 0.05512552 0.06776424
v 0.05219683 0.05584726 0.06776424
v 0.05539078 0.05512552 0.07046291
v 0.05197087 0.05584726 0.06978256
v 0.05462513 0.05512552 0.07306587
v 0.05139826 0.05584726 0.07172928
v 0.05332595 0.05512552 0.07544784
v 0.05042662 0.05584726 0.0735107
v 0.05163134 0.05512548 0.07756973
v 0.04915924 0.05584726 0.07509761
v 0.04950946 0.05512548 0.07926434
v 0.04757231 0.05584726 0.07636501
v 0.04712749 0.05512548 0.08056351
v 0.04579087 0.05584722 0.07733665
v 0.04452452 0.05512548 0.08132919
v 0.04384416 0.05584722 0.07790928
v 0.04395549 0.05614721 0.07478222
v 0.04182586 0.05614721 0.07514686
v 0.03969624 0.05614721 0.07478222
v 0.03773522 0.05614721 0.07388675
v 0.03615447 0.05614721 0.07241974
v 0.03501171 0.05614721 0.07058678
v 0.03455047 0.05614721 0.06776424
v 0.03501171 0.05614721 0.06494175
v 0.03615447 0.05614721 0.06310879
v 0.03773522 0.05614721 0.06164177
v 0.03969624 0.05614721 0.0607463
v 0.04182586 0.05614721 0.06038162
v 0.04395549 0.05614721 0.0607463
v 0.0459165 0.05614721 0.06164177
v 0.04749725 0.05614721 0.06310879
v 0.04864001 0.05614721 0.06494175
v 0.04910125 0.05614721 0.06776424
v 0.04864001 0.05614721 0.07058678
v 0.04749725 0.05614721 0.07241974
v 0.0459165 0.05614721 0.07388675
v 0.0438851 0.05633951 0.07211445
v 0.04182586 0.05633951 0.07265235
v 0.04182586 0.05644644 0.06776424
v 0.03976661 0.05633951 0.07211445
v 0.03807078 0.05633963 0.07084667
v 0.03716589 0.05633951 0.06905536
v 0.03701763 0.05633951 0.06705078
v 0.03769246 0.0563394 0.06528862
v 0.0391174 0.05633951 0.06371048
v 0.04041582 0.05633951 0.0631176
v 0.04253088 0.05633951 0.06299686
v 0.04558094 0.05633963 0.07084667
v 0.04648583 0.05633951 0.06905536
v 0.04663409 0.05633951 0.06705078
v 0.04595926 0.05633951 0.06528862
v 0.04453431 0.05633963 0.06371048
vt 0.5951051 0.9763644
vt 0.5707456 0.8543484
vt 0.5002437 0.8623134
vt 0.5003291 0.9869224
vt 0.6864702 0.9493177
vt 0.6387503 0.8343322
vt 0.7701374 0.9037245
vt 0.7009432 0.8003116
vt 0.844541 0.8440739
vt 0.7563722 0.7560235
vt 0.9040906 0.7695882
vt 0.8005873 0.7005372
vt 0.949564 0.6858576
vt 0.8345139 0.6382946
vt 0.9764919 0.5944595
vt 0.8544436 0.5702637
vt 0.9869211 0.4996724
vt 0.8623123 0.499755
vt 0.9763628 0.4048962
vt 0.8543472 0.4292572
vt 0.9493134 0.3135339
vt 0.8343264 0.3612551
vt 0.9037274 0.2298653
vt 0.8003174 0.2990552
vt 0.8440753 0.1554607
vt 0.7560251 0.2436293
vt 0.7695894 0.09591085
vt 0.700536 0.1994183
vt 0.6858619 0.050432
vt 0.6382991 0.1654819
vt 0.5944609 0.02350634
vt 0.5702665 0.145555
vt 0.499671 0.01307756
vt 0.4997565 0.1376866
vt 0.4048947 0.02363572
vt 0.4292545 0.1456513
vt 0.3135297 0.05068249
vt 0.3612495 0.1656677
vt 0.2298625 0.09627548
vt 0.2990566 0.1996884
vt 0.1554593 0.1559259
vt 0.2436281 0.2439749
vt 0.09590665 0.2304116
vt 0.199413 0.2994628
vt 0.05043328 0.3141422
vt 0.1654861 0.3617053
vt 0.02350768 0.4055405
vt 0.1455564 0.4297362
vt 0.01307893 0.5003291
vt 0.1376879 0.5002452
vt 0.02363709 0.5951037
vt 0.1456526 0.570743
vt 0.05068663 0.686466
vt 0.1656734 0.6387461
vt 0.09627274 0.7701335
vt 0.1996855 0.7009432
vt 0.1559246 0.8445393
vt 0.2439749 0.7563707
vt 0.2304102 0.9040892
vt 0.2994639 0.8005829
vt 0.3141383 0.949568
vt 0.3617039 0.8345193
vt 0.4055391 0.9764936
vt 0.4297334 0.8544452
vt 0.4258597 0.7449053
vt 0.5001749 0.7575707
vt 0.5744704 0.7448046
vt 0.6428635 0.7135142
vt 0.6979785 0.6622937
vt 0.7378104 0.5983167
vt 0.753853 0.4998294
vt 0.7376783 0.4013625
vt 0.6977637 0.3374366
vt 0.6425744 0.286296
vt 0.5741401 0.2550961
vt 0.4998279 0.2424236
vt 0.4255295 0.2551953
vt 0.3571365 0.2864898
vt 0.3020189 0.3377035
vt 0.2621896 0.4016833
vt 0.2461443 0.500172
vt 0.2623245 0.5986389
vt 0.3022419 0.6625609
vt 0.3574228 0.7137066
vt 0.4283294 0.6516722
vt 0.5001142 0.6703684
vt 0.5000014 0.5
vt 0.5718769 0.6515732
vt 0.6309537 0.607347
vt 0.6624495 0.5448895
vt 0.6675674 0.4750208
vt 0.6440061 0.4136181
vt 0.5943038 0.3586464
vt 0.5490344 0.3380147
vt 0.4753141 0.3338547
vt 0.3691922 0.6075231
vt 0.3376111 0.54511
vt 0.3323997 0.4752467
vt 0.3558754 0.4138135
vt 0.4055033 0.358776
vn -0.04000216 0.9792432 0.1987025
vn -0.03062839 0.9880632 0.1509735
vn 0 0.9880865 0.1539
vn 0 0.9793483 0.2021803
vn -0.07744047 0.9793094 0.186965
vn -0.0588349 0.988017 0.1426912
vn -0.1122194 0.9792415 0.1687979
vn -0.08486259 0.9881841 0.127634
vn -0.1429653 0.9793467 0.1429714
vn -0.1093121 0.9880183 0.1089533
vn -0.1687889 0.9792427 0.1122232
vn -0.1281835 0.988064 0.08543174
vn -0.1869609 0.9793102 0.07744192
vn -0.1419187 0.9881877 0.05782764
vn -0.1987027 0.9792432 0.04000182
vn -0.1500226 0.9882513 0.02920032
vn -0.20218 0.9793484 -1.79732E-07
vn -0.1532319 0.9881903 -1.541896E-07
vn -0.1987025 0.9792432 -0.04000217
vn -0.1500224 0.9882513 -0.02920051
vn -0.1869606 0.9793102 -0.07744144
vn -0.1419184 0.9881878 -0.05782707
vn -0.1687894 0.9792432 -0.1122185
vn -0.1281838 0.9880642 -0.08542908
vn -0.1429633 0.9793483 -0.1429632
vn -0.1093106 0.9880189 -0.1089487
vn -0.1122183 0.9792432 -0.1687897
vn -0.08486293 0.988185 -0.1276272
vn -0.07744099 0.9793103 -0.1869606
vn -0.05883537 0.9880182 -0.1426833
vn -0.04000201 0.9792433 -0.1987017
vn -0.0306274 0.9880642 -0.1509675
vn 0 0.9793485 -0.202179
vn 0 0.9880874 -0.153894
vn 0.04000199 0.9792433 -0.1987016
vn 0.03062738 0.9880642 -0.1509675
vn 0.07744091 0.9793102 -0.1869606
vn 0.05883532 0.9880182 -0.1426833
vn 0.1122183 0.9792432 -0.1687896
vn 0.08486299 0.988185 -0.1276272
vn 0.1429635 0.9793483 -0.1429631
vn 0.1093107 0.9880189 -0.1089487
vn 0.1687893 0.9792432 -0.1122186
vn 0.1281837 0.9880642 -0.0854292
vn 0.1869605 0.9793102 -0.07744148
vn 0.1419185 0.9881878 -0.05782713
vn 0.1987024 0.9792433 -0.04000206
vn 0.1500224 0.9882513 -0.02920045
vn 0.2021801 0.9793484 0
vn 0.153232 0.9881903 0
vn 0.1987028 0.9792432 0.04000195
vn 0.1500226 0.9882513 0.02920044
vn 0.1869609 0.9793102 0.07744191
vn 0.1419187 0.9881877 0.05782765
vn 0.1687891 0.9792427 0.112223
vn 0.1281837 0.988064 0.0854315
vn 0.1429654 0.9793467 0.1429712
vn 0.1093122 0.9880183 0.1089533
vn 0.1122193 0.9792415 0.168798
vn 0.08486249 0.9881841 0.127634
vn 0.0774404 0.9793096 0.1869649
vn 0.05883482 0.988017 0.1426912
vn 0.04000209 0.9792432 0.1987025
vn 0.03062833 0.9880632 0.1509735
vn 0.02602087 0.9961169 0.08410811
vn 0 0.9961845 0.08727191
vn -0.02602086 0.9961169 0.08410809
vn -0.04857706 0.996137 0.07315286
vn -0.06706163 0.9962025 0.05552632
vn -0.08195136 0.996134 0.03163761
vn -0.08715757 0.9961942 -0.000744215
vn -0.0820722 0.9961134 -0.0319724
vn -0.0679026 0.9961242 -0.05590773
vn -0.04920138 0.9961417 -0.0726691
vn -0.02500963 0.9961462 -0.08406719
vn 0.000129824 0.9961315 -0.0878751
vn 0.02583721 0.9961166 -0.08416766
vn 0.04832834 0.9961957 -0.07251646
vn 0.06791858 0.9961224 -0.05592088
vn 0.08208467 0.9961124 -0.0319718
vn 0.08716132 0.9961939 -0.0007405982
vn 0.0819514 0.996134 0.03163764
vn 0.06706168 0.9962025 0.05552628
vn 0.04857705 0.996137 0.07315283
vn 0.02231916 0.9986707 0.0464626
vn 0 0.998635 0.05223059
vn 6.457753E-06 1 2.116671E-05
vn -0.02231917 0.9986707 0.04646263
vn -0.03987741 0.9986498 0.03329462
vn -0.05046069 0.9986258 0.01414938
vn -0.05263503 0.9985905 -0.006806063
vn -0.04475315 0.9986606 -0.02596512
vn -0.03016168 0.998633 -0.04269067
vn -0.01363629 0.9986494 -0.05013404
vn 0.007371292 0.9986722 -0.05098487
vn 0.0398774 0.9986498 0.0332946
vn 0.0504607 0.9986258 0.01414942
vn 0.05264432 0.9985903 -0.006785828
vn 0.04476767 0.9986602 -0.02595373
vn 0.0289928 0.9986362 -0.04341713
g scope_ags_npz_pag17_linza_LOD0_0
f 3/3/3 2/2/2 1/1/1
f 4/4/4 3/3/3 1/1/1
f 1/1/1 2/2/2 5/5/5
f 2/2/2 6/6/6 5/5/5
f 5/5/5 6/6/6 7/7/7
f 6/6/6 8/8/8 7/7/7
f 7/7/7 8/8/8 9/9/9
f 8/8/8 10/10/10 9/9/9
f 9/9/9 10/10/10 11/11/11
f 10/10/10 12/12/12 11/11/11
f 11/11/11 12/12/12 13/13/13
f 12/12/12 14/14/14 13/13/13
f 13/13/13 14/14/14 15/15/15
f 14/14/14 16/16/16 15/15/15
f 15/15/15 16/16/16 17/17/17
f 16/16/16 18/18/18 17/17/17
f 17/17/17 18/18/18 19/19/19
f 18/18/18 20/20/20 19/19/19
f 19/19/19 20/20/20 21/21/21
f 20/20/20 22/22/22 21/21/21
f 21/21/21 22/22/22 23/23/23
f 22/22/22 24/24/24 23/23/23
f 23/23/23 24/24/24 25/25/25
f 24/24/24 26/26/26 25/25/25
f 25/25/25 26/26/26 27/27/27
f 26/26/26 28/28/28 27/27/27
f 27/27/27 28/28/28 29/29/29
f 28/28/28 30/30/30 29/29/29
f 29/29/29 30/30/30 31/31/31
f 30/30/30 32/32/32 31/31/31
f 31/31/31 32/32/32 33/33/33
f 32/32/32 34/34/34 33/33/33
f 33/33/33 34/34/34 35/35/35
f 34/34/34 36/36/36 35/35/35
f 35/35/35 36/36/36 37/37/37
f 36/36/36 38/38/38 37/37/37
f 37/37/37 38/38/38 39/39/39
f 38/38/38 40/40/40 39/39/39
f 39/39/39 40/40/40 41/41/41
f 40/40/40 42/42/42 41/41/41
f 41/41/41 42/42/42 43/43/43
f 42/42/42 44/44/44 43/43/43
f 43/43/43 44/44/44 45/45/45
f 44/44/44 46/46/46 45/45/45
f 45/45/45 46/46/46 47/47/47
f 46/46/46 48/48/48 47/47/47
f 47/47/47 48/48/48 49/49/49
f 48/48/48 50/50/50 49/49/49
f 49/49/49 50/50/50 51/51/51
f 50/50/50 52/52/52 51/51/51
f 51/51/51 52/52/52 53/53/53
f 52/52/52 54/54/54 53/53/53
f 53/53/53 54/54/54 55/55/55
f 54/54/54 56/56/56 55/55/55
f 55/55/55 56/56/56 57/57/57
f 56/56/56 58/58/58 57/57/57
f 57/57/57 58/58/58 59/59/59
f 58/58/58 60/60/60 59/59/59
f 59/59/59 60/60/60 61/61/61
f 60/60/60 62/62/62 61/61/61
f 61/61/61 62/62/62 63/63/63
f 62/62/62 64/64/64 63/63/63
f 63/63/63 64/64/64 4/4/4
f 64/64/64 3/3/3 4/4/4
f 64/64/64 65/65/65 3/3/3
f 62/62/62 65/65/65 64/64/64
f 65/65/65 66/66/66 3/3/3
f 3/3/3 66/66/66 2/2/2
f 66/66/66 67/67/67 2/2/2
f 2/2/2 67/67/67 6/6/6
f 6/6/6 67/67/67 8/8/8
f 67/67/67 68/68/68 8/8/8
f 8/8/8 68/68/68 10/10/10
f 68/68/68 69/69/69 10/10/10
f 10/10/10 69/69/69 12/12/12
f 12/12/12 69/69/69 14/14/14
f 69/69/69 70/70/70 14/14/14
f 14/14/14 70/70/70 16/16/16
f 70/70/70 71/71/71 16/16/16
f 16/16/16 71/71/71 18/18/18
f 18/18/18 71/71/71 20/20/20
f 20/20/20 71/71/71 22/22/22
f 71/71/71 72/72/72 22/22/22
f 22/22/22 72/72/72 24/24/24
f 72/72/72 73/73/73 24/24/24
f 24/24/24 73/73/73 26/26/26
f 26/26/26 73/73/73 28/28/28
f 73/73/73 74/74/74 28/28/28
f 28/28/28 74/74/74 30/30/30
f 74/74/74 75/75/75 30/30/30
f 30/30/30 75/75/75 32/32/32
f 32/32/32 75/75/75 34/34/34
f 75/75/75 76/76/76 34/34/34
f 34/34/34 76/76/76 36/36/36
f 76/76/76 77/77/77 36/36/36
f 36/36/36 77/77/77 38/38/38
f 38/38/38 77/77/77 40/40/40
f 77/77/77 78/78/78 40/40/40
f 40/40/40 78/78/78 42/42/42
f 78/78/78 79/79/79 42/42/42
f 42/42/42 79/79/79 44/44/44
f 44/44/44 79/79/79 46/46/46
f 79/79/79 80/80/80 46/46/46
f 46/46/46 80/80/80 48/48/48
f 80/80/80 81/81/81 48/48/48
f 48/48/48 81/81/81 50/50/50
f 50/50/50 81/81/81 52/52/52
f 52/52/52 81/81/81 54/54/54
f 81/81/81 82/82/82 54/54/54
f 54/54/54 82/82/82 56/56/56
f 82/82/82 83/83/83 56/56/56
f 56/56/56 83/83/83 58/58/58
f 58/58/58 83/83/83 60/60/60
f 83/83/83 84/84/84 60/60/60
f 60/60/60 84/84/84 62/62/62
f 84/84/84 65/65/65 62/62/62
f 84/84/84 85/85/85 65/65/65
f 65/65/65 85/85/85 66/66/66
f 85/85/85 86/86/86 66/66/66
f 85/85/85 87/87/87 86/86/86
f 86/86/86 87/87/87 88/88/88
f 88/88/88 87/87/87 89/89/89
f 89/89/89 87/87/87 90/90/90
f 90/90/90 87/87/87 91/91/91
f 91/91/91 87/87/87 92/92/92
f 92/92/92 87/87/87 93/93/93
f 93/93/93 87/87/87 94/94/94
f 94/94/94 87/87/87 95/95/95
f 96/96/96 87/87/87 85/85/85
f 96/96/96 85/85/85 84/84/84
f 97/97/97 87/87/87 96/96/96
f 98/98/98 87/87/87 97/97/97
f 99/99/99 87/87/87 98/98/98
f 100/100/100 87/87/87 99/99/99
f 95/95/95 87/87/87 100/100/100
f 86/86/86 88/88/88 67/67/67
f 66/66/66 86/86/86 67/67/67
f 67/67/67 88/88/88 68/68/68
f 88/88/88 89/89/89 69/69/69
f 68/68/68 88/88/88 69/69/69
f 71/71/71 90/90/90 91/91/91
f 91/91/91 92/92/92 72/72/72
f 71/71/71 91/91/91 72/72/72
f 93/93/93 94/94/94 75/75/75
f 74/74/74 93/93/93 75/75/75
f 92/92/92 93/93/93 74/74/74
f 72/72/72 92/92/92 73/73/73
f 73/73/73 92/92/92 74/74/74
f 99/99/99 98/98/98 81/81/81
f 98/98/98 97/97/97 81/81/81
f 81/81/81 97/97/97 82/82/82
f 82/82/82 97/97/97 83/83/83
f 97/97/97 96/96/96 83/83/83
f 83/83/83 96/96/96 84/84/84
f 80/80/80 99/99/99 81/81/81
f 79/79/79 99/99/99 80/80/80
f 100/100/100 99/99/99 79/79/79
f 78/78/78 100/100/100 79/79/79
f 95/95/95 100/100/100 78/78/78
f 77/77/77 95/95/95 78/78/78
f 76/76/76 95/95/95 77/77/77
f 94/94/94 95/95/95 76/76/76
f 75/75/75 94/94/94 76/76/76
f 89/89/89 90/90/90 70/70/70
f 69/69/69 89/89/89 70/70/70
f 70/70/70 90/90/90 71/71/71
