g charge_ak_zenit_rp1_LOD1
v 0.01029047 2.22126E-05 0.006783159
v -0.01756713 0.003656482 0.005809354
v 0.01029047 0.003656482 0.005809359
v -0.01756713 2.22126E-05 0.006783154
v -0.01756713 0.006316954 0.003148885
v 0.01029047 0.006316953 0.003148888
v -0.01756713 0.007290752 -0.0004853857
v 0.01029047 0.007290752 -0.0004853812
v -0.01756713 0.006316952 -0.004119656
v 0.01029047 0.006316952 -0.004119651
v -0.01756713 0.003656483 -0.006780125
v 0.01029047 0.003656483 -0.006780121
v -0.01756713 2.22137E-05 -0.007753926
v 0.01029047 2.22137E-05 -0.00775392
v 0.01029047 2.22137E-05 -0.00775392
v -0.01756713 -0.003612056 -0.006780127
v 0.01029047 -0.003612056 -0.006780122
v -0.01756713 2.22137E-05 -0.007753926
v -0.01756713 -0.006272526 -0.004119658
v 0.01029047 -0.006272526 -0.004119653
v 0.01029047 -0.006272526 -0.004119653
v -0.01756713 -0.007246327 -0.0004853887
v 0.01029047 -0.007246327 -0.0004853843
v -0.01756713 -0.006272526 -0.004119658
v -0.01756713 -0.006272529 0.003148881
v 0.01029047 -0.006272529 0.003148885
v 0.01029047 -0.006272529 0.003148885
v -0.01756713 -0.003612061 0.005809352
v 0.01029047 -0.003612061 0.005809356
v -0.01756713 -0.006272529 0.003148881
v -0.01756713 2.22126E-05 0.006783154
v 0.01029047 2.22126E-05 0.006783159
v -0.01756713 0.003656482 0.005809354
v -0.01756713 0.007290752 -0.0004853857
v -0.01756713 0.006316954 0.003148885
v -0.01756713 -0.003612061 0.005809352
v -0.01756713 -0.003612056 -0.006780127
v -0.01756713 0.003656483 -0.006780125
v -0.01756713 0.006316952 -0.004119656
v -0.01756713 2.22137E-05 -0.007753926
v -0.01756713 -0.007246327 -0.0004853887
v -0.01756713 -0.006272526 -0.004119658
v -0.01756713 -0.006272529 0.003148881
v -0.01756713 2.22126E-05 0.006783154
v 0.01029047 -0.003612061 0.005809356
v 0.01029047 -0.007246327 -0.0004853843
v 0.01029047 -0.006272529 0.003148885
v 0.01029047 0.003656482 0.005809359
v 0.01029047 0.003656483 -0.006780121
v 0.01029047 -0.003612056 -0.006780122
v 0.01029047 -0.006272526 -0.004119653
v 0.01029047 2.22137E-05 -0.00775392
v 0.01029047 0.007290752 -0.0004853812
v 0.01029047 0.006316952 -0.004119651
v 0.01029047 0.006316953 0.003148888
v 0.01029047 2.22126E-05 0.006783159
vt 0.5613623 0.9999928
vt 5.568722E-06 0.938825
vt 0.5613623 0.938825
vt 5.568722E-06 0.9999928
vt 5.568722E-06 0.8774546
vt 0.5613623 0.8774546
vt 5.568722E-06 0.8146814
vt 0.5613623 0.8146814
vt 5.568722E-06 0.7518746
vt 0.5613623 0.7518746
vt 5.568722E-06 0.6904937
vt 0.5613623 0.6904937
vt 5.568722E-06 0.6293429
vt 0.5613623 0.6293429
vt 0.5613621 0.6293429
vt 5.594805E-06 0.6904938
vt 0.5613621 0.6904938
vt 5.594805E-06 0.6293429
vt 5.594805E-06 0.7518746
vt 0.5613621 0.7518746
vt 0.5613621 0.5003942
vt 5.594805E-06 0.5632011
vt 0.5613621 0.5632011
vt 5.594805E-06 0.5003942
vt 5.594805E-06 0.6259741
vt 0.5613621 0.6259741
vt 0.5613621 0.8774546
vt 5.594805E-06 0.938825
vt 0.5613621 0.938825
vt 5.594805E-06 0.8774546
vt 5.594805E-06 0.9999927
vt 0.5613621 0.9999927
vt 0.6445162 0.9799986
vt 0.5672837 0.8577127
vt 0.5879781 0.9283146
vt 0.7989811 0.9799985
vt 0.7989808 0.7354268
vt 0.6445161 0.7354269
vt 0.5879782 0.787111
vt 0.7217484 0.7165092
vt 0.8762131 0.8577127
vt 0.8555187 0.787111
vt 0.8555188 0.9283145
vt 0.7217484 0.9989163
vt 0.744744 0.6845463
vt 0.7447441 0.563952
vt 0.7267272 0.6242492
vt 0.8612069 0.7448435
vt 0.9776698 0.563952
vt 0.8612069 0.5036548
vt 0.793967 0.5198115
vt 0.9284467 0.5198115
vt 0.9776698 0.6845463
vt 0.9956865 0.6242491
vt 0.9284468 0.7286869
vt 0.7939671 0.728687
vn -1.711695E-07 -1.276732E-07 1
vn -1.482372E-07 0.4999999 0.8660255
vn -1.339127E-07 0.5 0.8660254
vn -1.711695E-07 -1.669573E-07 1
vn 0 0.8660254 0.5
vn 0 0.8660254 0.5
vn 0 1 -1.473152E-07
vn 0 1 0
vn 0 0.8660254 -0.5
vn 0 0.8660254 -0.5
vn 1.44656E-07 0.5000002 -0.8660253
vn 1.580209E-07 0.5 -0.8660254
vn 1.827819E-07 2.160624E-07 -1
vn 1.840927E-07 1.411771E-07 -1
vn 1.840927E-07 1.411771E-07 -1
vn 1.620592E-07 -0.4999999 -0.8660255
vn 1.500051E-07 -0.4999997 -0.8660255
vn 1.827819E-07 2.160624E-07 -1
vn 0 -0.8660253 -0.5000003
vn 0 -0.8660253 -0.5000002
vn 0 -0.8660253 -0.5000002
vn 0 -1 -5.401559E-07
vn 0 -1 -4.554496E-07
vn 0 -0.8660253 -0.5000003
vn 0 -0.8660257 0.4999995
vn 0 -0.8660257 0.4999995
vn 0 -0.8660257 0.4999995
vn -1.44656E-07 -0.5000004 0.8660251
vn -1.482371E-07 -0.5000004 0.8660253
vn 0 -0.8660257 0.4999995
vn -1.711695E-07 -1.669573E-07 1
vn -1.711695E-07 -1.276732E-07 1
vn -1 0 0
vn -1 0 0
vn -1 0 0
vn -1 0 0
vn -1 0 0
vn -1 0 0
vn -1 0 0
vn -1 0 0
vn -1 0 0
vn -1 0 0
vn -1 0 0
vn -1 0 0
vn 1 0 1.629207E-07
vn 1 0 1.629207E-07
vn 1 0 1.629207E-07
vn 1 0 1.629207E-07
vn 1 0 1.629207E-07
vn 1 0 1.629207E-07
vn 1 0 1.629207E-07
vn 1 0 1.629206E-07
vn 1 0 1.629207E-07
vn 1 0 1.629207E-07
vn 1 0 1.629207E-07
vn 1 0 1.629207E-07
g charge_ak_zenit_rp1_LOD1_0
f 3/3/3 2/2/2 1/1/1
f 4/4/4 1/1/1 2/2/2
f 2/2/2 3/3/3 5/5/5
f 6/6/6 5/5/5 3/3/3
f 5/5/5 6/6/6 7/7/7
f 8/8/8 7/7/7 6/6/6
f 7/7/7 8/8/8 9/9/9
f 10/10/10 9/9/9 8/8/8
f 9/9/9 10/10/10 11/11/11
f 12/12/12 11/11/11 10/10/10
f 11/11/11 12/12/12 13/13/13
f 14/14/14 13/13/13 12/12/12
f 17/17/17 16/16/16 15/15/15
f 18/18/18 15/15/15 16/16/16
f 16/16/16 17/17/17 19/19/19
f 20/20/20 19/19/19 17/17/17
f 23/23/23 22/22/22 21/21/21
f 24/24/24 21/21/21 22/22/22
f 22/22/22 23/23/23 25/25/25
f 26/26/26 25/25/25 23/23/23
f 29/29/29 28/28/28 27/27/27
f 30/30/30 27/27/27 28/28/28
f 28/28/28 29/29/29 31/31/31
f 32/32/32 31/31/31 29/29/29
f 35/35/35 34/34/34 33/33/33
f 34/34/34 36/36/36 33/33/33
f 37/37/37 36/36/36 34/34/34
f 38/38/38 37/37/37 34/34/34
f 39/39/39 38/38/38 34/34/34
f 40/40/40 37/37/37 38/38/38
f 41/41/41 36/36/36 37/37/37
f 42/42/42 41/41/41 37/37/37
f 43/43/43 36/36/36 41/41/41
f 33/33/33 36/36/36 44/44/44
f 47/47/47 46/46/46 45/45/45
f 46/46/46 48/48/48 45/45/45
f 49/49/49 48/48/48 46/46/46
f 50/50/50 49/49/49 46/46/46
f 51/51/51 50/50/50 46/46/46
f 52/52/52 49/49/49 50/50/50
f 53/53/53 48/48/48 49/49/49
f 54/54/54 53/53/53 49/49/49
f 55/55/55 48/48/48 53/53/53
f 45/45/45 48/48/48 56/56/56
