g charge_mpx_geissele_sch_LOD1
v -0.009426489 -0.009386179 -0.001652534
v 0.009224651 -0.003955424 -0.001655922
v -0.009432394 -0.003955424 -0.001655922
v -0.005634962 -0.0201784 -0.001659537
v 0.005427214 -0.0201784 -0.001659537
v 0.009218738 -0.009386179 -0.001652534
v 0.01631327 0.0186438 -0.001665477
v -0.016521 0.0186438 -0.001665477
v -0.0136401 -0.003955422 -0.001656333
v -0.01731294 -0.001260343 -0.001657742
v -0.02370267 -0.0001554426 -0.001658164
v -0.03118342 0.005543751 -0.001660479
v -0.03009241 -0.001260343 -0.001657742
v -0.03485198 0.0005805105 -0.001658585
v -0.03554641 -0.00438273 -0.001656691
v 0.01343236 -0.003955422 -0.001656333
v 0.0171052 -0.001260343 -0.001657742
v 0.02349494 -0.0001554426 -0.001658164
v 0.02988468 -0.001260343 -0.001657742
v 0.03097568 0.005543751 -0.001660479
v 0.03464425 0.0005805105 -0.001658585
v 0.03515771 -0.00438273 -0.001656691
v -0.009537333 -0.009458001 0.006236323
v -0.009543424 -0.004003026 0.006240177
v 0.009335682 -0.004003026 0.006240177
v -0.005427553 -0.02180341 0.006231589
v 0.005219805 -0.02180341 0.006231589
v 0.009329584 -0.009458001 0.006236323
v 0.005122622 -0.1443295 0.006188048
v -0.005330371 -0.1443295 0.006188048
v 0.005122622 -0.1443295 -0.0005437355
v -0.005330371 -0.1443295 -0.0005437355
v -0.005330371 -0.1443295 0.006188048
v 0.005122622 -0.1443295 0.006188048
v 0.009218738 -0.009386179 -0.001652534
v 0.009329584 -0.009458001 0.006236323
v 0.009335682 -0.004003026 0.006240177
v 0.009224651 -0.003955424 -0.001655922
v 0.005219805 -0.02180341 0.006231589
v 0.004959275 -0.0218034 0.001587315
v 0.005122622 -0.136823 0.001590275
v 0.005122622 -0.1443295 0.006188048
v 0.005122622 -0.1443295 -0.0005437355
v 0.005122622 -0.136823 -0.0005465616
v -0.009432394 -0.003955424 -0.001655922
v -0.009543424 -0.004003026 0.006240177
v -0.009537333 -0.009458001 0.006236323
v -0.009426489 -0.009386179 -0.001652534
v -0.005167024 -0.0218034 0.001587315
v -0.005427553 -0.02180341 0.006231589
v -0.005330371 -0.1443295 0.006188048
v -0.005330371 -0.136823 0.001590275
v -0.005330371 -0.1443295 -0.0005437355
v -0.005330371 -0.136823 -0.0005465616
v -0.005634962 -0.0201784 -0.001659537
v 0.009218738 -0.009386179 -0.001652534
v 0.005427214 -0.0201784 -0.001659537
v 0.004959275 -0.0218034 0.001587315
v 0.03464425 0.0005805105 -0.001658585
v 0.03515771 -0.00438273 -0.001656691
v 0.03515771 -0.004382735 0.009665493
v 0.03464425 0.0005805075 0.009665493
v 0.03097568 0.005543751 -0.001660479
v 0.03097568 0.005543749 0.009665493
v 0.01631327 0.0186438 -0.001665477
v 0.01631327 0.01864379 0.009665493
v 0.01631327 0.0186438 -0.001665477
v 0.01631327 0.01864379 0.009665493
v -0.016521 0.01864379 0.009665493
v -0.016521 0.0186438 -0.001665477
v -0.03118342 0.005543751 -0.001660479
v -0.016521 0.0186438 -0.001665477
v -0.016521 0.01864379 0.009665493
v -0.03118342 0.005543749 0.009665493
v -0.03485198 0.0005805105 -0.001658585
v -0.03485198 0.0005805075 0.009665493
v -0.03554641 -0.00438273 -0.001656691
v -0.03554641 -0.004382735 0.009665493
v -0.02370267 -0.0001554426 -0.001658164
v -0.03009241 -0.001260343 -0.001657742
v -0.03009241 -0.001260348 0.009665493
v -0.02370267 -0.0001554472 0.009665493
v -0.01731294 -0.001260343 -0.001657742
v -0.01731294 -0.001260348 0.009665493
v -0.0136401 -0.003955422 -0.001656333
v -0.0136401 -0.004023674 0.00966544
v -0.03554641 -0.004382735 0.009665493
v -0.03554641 -0.00438273 -0.001656691
v 0.02349494 -0.0001554472 0.009665493
v 0.02988468 -0.001260348 0.009665493
v 0.02988468 -0.001260343 -0.001657742
v 0.02349494 -0.0001554426 -0.001658164
v 0.0171052 -0.001260348 0.009665493
v 0.0171052 -0.001260343 -0.001657742
v 0.01343236 -0.004023674 0.00966544
v 0.01343236 -0.003955422 -0.001656333
v 0.03515771 -0.00438273 -0.001656691
v 0.03515771 -0.004382735 0.009665493
v -0.016521 0.01864379 0.009665493
v 0.01631327 0.01864379 0.009665493
v 0.01343236 -0.004023674 0.00966544
v -0.0136401 -0.004023674 0.00966544
v 0.0171052 -0.001260348 0.009665493
v -0.01731294 -0.001260348 0.009665493
v 0.02349494 -0.0001554472 0.009665493
v -0.02370267 -0.0001554472 0.009665493
v 0.03097568 0.005543749 0.009665493
v 0.02988468 -0.001260348 0.009665493
v 0.03464425 0.0005805075 0.009665493
v 0.03515771 -0.004382735 0.009665493
v -0.03009241 -0.001260348 0.009665493
v -0.03118342 0.005543749 0.009665493
v -0.03485198 0.0005805075 0.009665493
v -0.03554641 -0.004382735 0.009665493
v 0.01343236 -0.004023674 0.00966544
v 0.009335682 -0.004003026 0.006240177
v -0.009543424 -0.004003026 0.006240177
v -0.0136401 -0.004023674 0.00966544
v -0.009432394 -0.003955424 -0.001655922
v -0.0136401 -0.003955422 -0.001656333
v 0.01343236 -0.003955422 -0.001656333
v 0.009224651 -0.003955424 -0.001655922
v 0.005122622 -0.1443295 -0.0005437355
v 0.005122622 -0.136823 -0.0005465616
v -0.005330371 -0.136823 -0.0005465616
v -0.005330371 -0.1443295 -0.0005437355
v -0.005167024 -0.0218034 0.001587315
v -0.005330371 -0.136823 0.001590275
v 0.005122622 -0.136823 0.001590275
v 0.004959275 -0.0218034 0.001587315
v -0.005167024 -0.0218034 0.001587315
v 0.004959275 -0.0218034 0.001587315
v 0.005427214 -0.0201784 -0.001659537
v -0.005634962 -0.0201784 -0.001659537
v -0.005330371 -0.136823 0.001590275
v -0.005330371 -0.136823 -0.0005465616
v 0.005122622 -0.136823 -0.0005465616
v 0.005122622 -0.136823 0.001590275
vt 0.1711728 0.3948211
vt 0.2921429 0.3206432
vt 0.1711346 0.3206432
vt 0.1957644 0.54223
vt 0.267513 0.54223
vt 0.2921046 0.3948211
vt 0.3381191 0.01196437
vt 0.1251583 0.01196437
vt 0.1438437 0.3206431
vt 0.1200218 0.2838316
vt 0.07857846 0.26874
vt 0.03005887 0.1908956
vt 0.03713514 0.2838316
vt 0.006264857 0.2586876
vt 0.001760879 0.3264796
vt 0.3194337 0.3206431
vt 0.3432555 0.2838316
vt 0.3846989 0.26874
vt 0.4261424 0.2838316
vt 0.4332186 0.1908955
vt 0.4570126 0.2586876
vt 0.4603429 0.3264795
vt 0.8792726 0.8969039
vt 0.9146531 0.8969871
vt 0.9146531 0.6391207
vt 0.7992012 0.8401055
vt 0.7992012 0.6960026
vt 0.8792726 0.639204
vt 0.004505083 0.6960026
vt 0.004505083 0.8401055
vt 0.9604142 0.3899008
vt 0.8543624 0.3899008
vt 0.8543624 0.5139633
vt 0.9604142 0.5139633
vt 0.03899326 0.5173973
vt 0.03945916 0.62515
vt 0.004078496 0.6252024
vt 0.003769815 0.5173512
vt 0.1195306 0.6250851
vt 0.1195306 0.5616497
vt 0.8655394 0.5616902
vt 0.9142267 0.6244904
vt 0.9142267 0.5325423
vt 0.8655394 0.5325034
vt 1.003726 0.517282
vt 1.004035 0.6251335
vt 1.039415 0.6250807
vt 1.038949 0.5173284
vt 1.119487 0.5615808
vt 1.119487 0.6250162
vt 1.914182 0.6244212
vt 1.865495 0.5616211
vt 1.914182 0.5324731
vt 1.865495 0.5324343
vt 1.108947 0.5172329
vt 0.03899326 0.5173973
vt 0.108991 0.5173017
vt 0.1195306 0.5616497
vt 0.8048256 0.5307235
vt 0.8365444 0.5306979
vt 0.8365444 0.3783207
vt 0.8048256 0.3783207
vt 0.773107 0.5307491
vt 0.773107 0.3783207
vt 0.6794035 0.5308163
vt 0.6794035 0.3783207
vt 0.6794035 0.5308163
vt 0.6794035 0.3783207
vt 0.4695695 0.3783207
vt 0.4695695 0.5308163
vt 0.3758662 0.5307491
vt 0.4695695 0.5308163
vt 0.4695695 0.3783207
vt 0.3758662 0.3783207
vt 0.3441477 0.5307236
vt 0.3441476 0.3783207
vt 0.312429 0.5306981
vt 0.312429 0.3783207
vt 0.9239508 0.8135841
vt 0.9239535 0.899579
vt 0.9963173 0.899579
vt 0.9963173 0.8135841
vt 0.9239537 0.727589
vt 0.9963173 0.727589
vt 0.9239628 0.6781589
vt 0.9963168 0.6781589
vt 0.9963173 0.9729803
vt 0.9239603 0.9729803
vt 0.9963173 0.1783843
vt 0.9963173 0.09238937
vt 0.9239537 0.09238937
vt 0.9239508 0.1783845
vt 0.9963173 0.2643794
vt 0.9239537 0.2643794
vt 0.9963168 0.3138096
vt 0.9239628 0.3138096
vt 0.9239603 0.02142324
vt 0.9963173 0.02142324
vt 0.5324836 0.342182
vt 0.7454444 0.342182
vt 0.7267591 0.03257084
vt 0.5511688 0.03257084
vt 0.7505808 0.07031486
vt 0.5273472 0.07031498
vt 0.7920242 0.08540629
vt 0.4859039 0.08540641
vt 0.8405439 0.1632509
vt 0.8334677 0.07031486
vt 0.864338 0.0954587
vt 0.8676683 0.02766661
vt 0.4444605 0.07031498
vt 0.4373844 0.163251
vt 0.4135903 0.09545884
vt 0.4090863 0.02766674
vt 0.9963168 0.3138096
vt 0.974427 0.369691
vt 0.974427 0.6222774
vt 0.9963168 0.6781589
vt 0.9239652 0.6222774
vt 0.9239628 0.6781589
vt 0.9239628 0.3138096
vt 0.9239652 0.369691
vt 0.1295999 0.4706026
vt 0.1295999 0.3358292
vt 0.02628376 0.3358292
vt 0.02628376 0.4706026
vt 0.005576094 0.9892316
vt 0.751585 0.9892316
vt 0.751585 0.8486872
vt 0.005576094 0.8486872
vt 0.910948 0.2799492
vt 0.7927399 0.2799492
vt 0.7872776 0.3487979
vt 0.9164106 0.3487979
vt 0.9003242 0.9726883
vt 0.9003242 0.9262467
vt 0.7752572 0.9262467
vt 0.7752572 0.9726883
vn -0.0001798498 0 -1
vn 0.0001094738 -0.0002580454 -1
vn 2.345866E-05 -0.0004848124 -0.9999999
vn -0.0001915795 0.0004066177 -0.9999999
vn 0.0002033089 0.0001720306 -1
vn 0.003636098 -0.0006255652 -0.9999932
vn 0 -0.0004066177 -1
vn 1.563914E-05 -0.0004066177 -1
vn 9.383485E-05 -0.0003909786 -1
vn 4.691734E-05 -0.0003909778 -1
vn 0 -0.0003909778 -1
vn 3.127822E-05 -0.0003909778 -1
vn 3.127822E-05 -0.0003909778 -1
vn 0 -0.0003909786 -1
vn 3.127822E-05 -0.0003909778 -1
vn -9.383485E-05 -0.0003909786 -1
vn -6.255645E-05 -0.0003909778 -1
vn 0 -0.0003909778 -1
vn -3.127822E-05 -0.0003909778 -1
vn -3.127822E-05 -0.0003909778 -1
vn -3.127829E-05 -0.0003909786 -1
vn -3.127822E-05 -0.0003909778 -1
vn -4.691751E-05 -0.000547371 0.9999999
vn 0 -0.0007037625 0.9999998
vn 0.0001094742 -0.0005317318 0.9999999
vn -2.345876E-05 -0.0004066186 1
vn 2.345876E-05 -0.0004378968 0.9999999
vn 0.000969628 -0.0007115818 0.9999993
vn 0 -0.0003753402 1
vn 0 -0.0003753402 1
vn 0 -1 0
vn 0 -1 0
vn 0 -1 0
vn 0 -1 0
vn 0.9884303 -0.1501354 -0.02156437
vn 0.9860111 -0.165181 -0.02230147
vn 0.9999006 -0.001102564 -0.01405965
vn 0.9999005 -0.001102564 -0.01406356
vn 0.9858876 -0.1648203 -0.02932327
vn 0.9841743 -0.1747516 -0.02937419
vn 0.9998817 0.0001251132 -0.0153772
vn 0.9999522 0 -0.009782293
vn 1 0 0
vn 1 0 0
vn -0.9999005 -0.001102564 -0.01406356
vn -0.9999006 -0.001102564 -0.01405965
vn -0.9860126 -0.1651721 -0.02230133
vn -0.9861275 -0.1644927 -0.0222428
vn -0.9778752 -0.2070925 -0.02954218
vn -0.9858876 -0.1648203 -0.02932327
vn -0.9999522 0 -0.009782293
vn -0.9998817 0.0001251132 -0.0153772
vn -1 0 0
vn -1 0 0
vn -0.9430519 -0.3312996 -0.02989422
vn 0.9430548 -0.3312913 -0.02989418
vn 0.9430519 -0.3312996 -0.02989422
vn 0.9430524 -0.3312984 -0.02989411
vn 0.9323781 0.3614846 0
vn 0.994691 0.1029066 0
vn 0.994691 0.1029066 0
vn 0.9324032 0.3614196 0
vn 0.739074 0.6736243 0
vn 0.739096 0.6736001 0
vn 0.6662595 0.7457201 0
vn 0.6662595 0.7457201 0
vn 0 1 0
vn 0 1 0
vn 0 1 0
vn 0 1 0
vn -0.739074 0.6736243 0
vn -0.6662507 0.7457278 0
vn -0.6662507 0.7457278 0
vn -0.739096 0.6736001 0
vn -0.9257371 0.3781676 0
vn -0.9257581 0.3781165 0
vn -0.9903532 0.1385656 0
vn -0.9903532 0.1385656 0
vn 0 -1 -1.954897E-06
vn 0.3387427 -0.9408791 -1.954887E-06
vn 0.3387453 -0.9408782 0
vn 0 -1 0
vn -0.3941218 -0.9190573 -0.001243311
vn -0.394154 -0.9190436 -0.001235494
vn -0.5964329 -0.8026593 -0.002418214
vn -0.5964291 -0.8026622 -0.002416244
vn 0.4968495 -0.8678367 0
vn 0.4968495 -0.8678367 0
vn 0 -1 0
vn -0.3456253 -0.9383726 0
vn -0.3456253 -0.9383726 -1.954894E-06
vn 0 -1 -1.954897E-06
vn 0.394154 -0.9190436 -0.001235494
vn 0.3941218 -0.9190573 -0.001243311
vn 0.5964392 -0.8026547 -0.002416221
vn 0.5964429 -0.8026519 -0.002418192
vn -0.5095229 -0.8604572 0
vn -0.5095229 -0.8604572 0
vn 0 0 1
vn 0 0 1
vn 0 0 1
vn 0 0 1
vn 0 0 1
vn 0 0 1
vn 0 0 1
vn 0 0 1
vn 0 0 1
vn 0 0 1
vn 0 0 1
vn 0 0 1
vn 0 0 1
vn 0 0 1
vn 0 0 1
vn 0 0 1
vn 0 -0.9999819 -0.006028885
vn 0 -0.9999819 -0.006028885
vn 0 -0.9999819 -0.006028885
vn 0 -0.9999819 -0.006028885
vn 0 -0.9999819 -0.006028885
vn 0 -0.9999819 -0.006026931
vn 0 -0.9999819 -0.006026931
vn 0 -0.9999819 -0.006028885
vn 0 -0.0003753387 -1
vn 0 -0.0003753387 -1
vn 0 -0.0003753387 -1
vn 0 -0.0003753387 -1
vn 0 -3.127835E-05 -1
vn 0 0 -1
vn 0 0 -1
vn 0 -3.127835E-05 -1
vn 0 -0.8942536 -0.4475608
vn 0 -0.8942519 -0.4475639
vn 0 -0.8942527 -0.4475623
vn 0 -0.8942527 -0.4475623
vn 0 1 0
vn 0 1 0
vn 0 1 0
vn 0 1 0
g charge_mpx_geissele_sch_LOD1_0
f 3/3/3 2/2/2 1/1/1
f 2/2/2 4/4/4 1/1/1
f 2/2/2 5/5/5 4/4/4
f 6/6/6 5/5/5 2/2/2
f 7/7/7 2/2/2 3/3/3
f 8/8/8 7/7/7 3/3/3
f 9/9/9 8/8/8 3/3/3
f 10/10/10 8/8/8 9/9/9
f 11/11/11 8/8/8 10/10/10
f 12/12/12 8/8/8 11/11/11
f 13/13/13 12/12/12 11/11/11
f 14/14/14 12/12/12 13/13/13
f 15/15/15 14/14/14 13/13/13
f 16/16/16 2/2/2 7/7/7
f 17/17/17 16/16/16 7/7/7
f 18/18/18 17/17/17 7/7/7
f 19/19/19 18/18/18 7/7/7
f 20/20/20 19/19/19 7/7/7
f 19/19/19 20/20/20 21/21/21
f 22/22/22 19/19/19 21/21/21
f 25/25/25 24/24/24 23/23/23
f 23/23/23 26/26/26 25/25/25
f 25/25/25 26/26/26 27/27/27
f 25/25/25 27/27/27 28/28/28
f 29/29/29 27/27/27 26/26/26
f 30/30/30 29/29/29 26/26/26
f 33/33/33 32/32/32 31/31/31
f 34/34/34 33/33/33 31/31/31
f 37/37/37 36/36/36 35/35/35
f 38/38/38 37/37/37 35/35/35
f 36/36/36 39/39/39 35/35/35
f 39/39/39 40/40/40 35/35/35
f 41/41/41 40/40/40 39/39/39
f 42/42/42 41/41/41 39/39/39
f 41/41/41 42/42/42 43/43/43
f 44/44/44 41/41/41 43/43/43
f 47/47/47 46/46/46 45/45/45
f 48/48/48 47/47/47 45/45/45
f 48/48/48 49/49/49 47/47/47
f 49/49/49 50/50/50 47/47/47
f 51/51/51 50/50/50 49/49/49
f 52/52/52 51/51/51 49/49/49
f 51/51/51 52/52/52 53/53/53
f 52/52/52 54/54/54 53/53/53
f 55/55/55 49/49/49 48/48/48
f 58/58/58 57/57/57 56/56/56
f 61/61/61 60/60/60 59/59/59
f 62/62/62 61/61/61 59/59/59
f 62/62/62 59/59/59 63/63/63
f 64/64/64 62/62/62 63/63/63
f 64/64/64 63/63/63 65/65/65
f 66/66/66 64/64/64 65/65/65
f 69/69/69 68/68/68 67/67/67
f 70/70/70 69/69/69 67/67/67
f 73/73/73 72/72/72 71/71/71
f 74/74/74 73/73/73 71/71/71
f 74/74/74 71/71/71 75/75/75
f 76/76/76 74/74/74 75/75/75
f 76/76/76 75/75/75 77/77/77
f 78/78/78 76/76/76 77/77/77
f 81/81/81 80/80/80 79/79/79
f 82/82/82 81/81/81 79/79/79
f 82/82/82 79/79/79 83/83/83
f 84/84/84 82/82/82 83/83/83
f 84/84/84 83/83/83 85/85/85
f 86/86/86 84/84/84 85/85/85
f 80/80/80 81/81/81 87/87/87
f 88/88/88 80/80/80 87/87/87
f 91/91/91 90/90/90 89/89/89
f 92/92/92 91/91/91 89/89/89
f 92/92/92 89/89/89 93/93/93
f 94/94/94 92/92/92 93/93/93
f 94/94/94 93/93/93 95/95/95
f 96/96/96 94/94/94 95/95/95
f 90/90/90 91/91/91 97/97/97
f 98/98/98 90/90/90 97/97/97
f 101/101/101 100/100/100 99/99/99
f 102/102/102 101/101/101 99/99/99
f 103/103/103 100/100/100 101/101/101
f 104/104/104 102/102/102 99/99/99
f 105/105/105 100/100/100 103/103/103
f 106/106/106 104/104/104 99/99/99
f 107/107/107 100/100/100 105/105/105
f 108/108/108 107/107/107 105/105/105
f 109/109/109 107/107/107 108/108/108
f 110/110/110 109/109/109 108/108/108
f 111/111/111 106/106/106 99/99/99
f 112/112/112 111/111/111 99/99/99
f 111/111/111 112/112/112 113/113/113
f 114/114/114 111/111/111 113/113/113
f 117/117/117 116/116/116 115/115/115
f 118/118/118 117/117/117 115/115/115
f 119/119/119 117/117/117 118/118/118
f 120/120/120 119/119/119 118/118/118
f 115/115/115 116/116/116 121/121/121
f 116/116/116 122/122/122 121/121/121
f 125/125/125 124/124/124 123/123/123
f 126/126/126 125/125/125 123/123/123
f 129/129/129 128/128/128 127/127/127
f 130/130/130 129/129/129 127/127/127
f 133/133/133 132/132/132 131/131/131
f 134/134/134 133/133/133 131/131/131
f 137/137/137 136/136/136 135/135/135
f 138/138/138 137/137/137 135/135/135
