g release_LOD0
v -0.009499336 -0.002104786 -0.00508163
v -0.01158422 -0.002104785 -0.00508163
v -0.01158422 -0.00388911 -0.003889365
v -0.009499337 -0.00388911 -0.003889365
v -0.01158422 -0.005081364 -0.00210504
v -0.009499337 -0.005081364 -0.00210504
v -0.01158422 -0.005500027 -2.805957E-07
v -0.009499337 -0.005500027 -2.805957E-07
v -0.01158422 -0.005081363 0.002104478
v -0.009499337 -0.005081364 0.002104478
v -0.01158422 -0.003889117 0.003888803
v -0.009499337 -0.003889118 0.003888803
v -0.01158422 -0.002104783 0.005081048
v -0.009499336 -0.002104783 0.005081048
v -0.01158422 -2.348156E-08 0.00549971
v -0.009499336 -2.386157E-08 0.00549971
v -0.01158422 0.002104736 0.005081047
v -0.009499335 0.002104735 0.005081047
v -0.01158422 0.00388906 0.003888801
v -0.009499335 0.003889059 0.003888801
v -0.01158422 0.005081314 0.002104476
v -0.009499335 0.005081314 0.002104476
v -0.01158422 0.005499977 -2.835252E-07
v -0.009499335 0.005499977 -2.835252E-07
v -0.01158422 0.005081313 -0.002105043
v -0.009499335 0.005081313 -0.002105043
v -0.01158422 0.003889058 -0.003889367
v -0.009499335 0.003889058 -0.003889367
v -0.01158422 0.002104733 -0.005081612
v -0.009499335 0.002104732 -0.005081612
v -0.01158422 -2.641104E-08 -0.005500274
v -0.009499336 -2.679104E-08 -0.005500274
v -0.009499336 -2.679104E-08 -0.005500274
v -0.01158422 -2.641104E-08 -0.005500274
v -0.01161073 -2.494147E-08 -2.820604E-07
v -0.01158422 -0.00388911 -0.003889365
v -0.01158422 -0.002104785 -0.00508163
v -0.01158422 -0.005081364 -0.00210504
v -0.01158422 -0.005500027 -2.805957E-07
v -0.01158422 -0.005081363 0.002104478
v -0.01158422 -0.003889117 0.003888803
v -0.01158422 -0.002104783 0.005081048
v -0.01158422 -2.348156E-08 0.00549971
v -0.01158422 0.002104736 0.005081047
v -0.01158422 0.00388906 0.003888801
v -0.01158422 0.005081314 0.002104476
v -0.01158422 0.005499977 -2.835252E-07
v -0.01158422 0.005081313 -0.002105043
v -0.01158422 0.003889058 -0.003889367
v -0.01158422 0.002104733 -0.005081612
v -0.01158422 -2.641104E-08 -0.005500274
v 0.01068537 0.006334267 0.001262782
v 0.01068537 0.005955982 0.002319033
v 0.01009446 0.005955982 0.002319033
v 0.01009446 0.006334267 0.001262782
v 0.01141869 0.005278015 0.0008844783
v 0.01141869 0.00489973 0.00194073
v 0.01068537 0.005955982 0.002319033
v 0.01141869 0.00489973 0.00194073
v 0.01009446 0.004899731 0.00194073
v 0.01009446 0.005955982 0.002319033
v 0.01141869 0.005278015 0.0008844783
v 0.01068537 0.006334267 0.001262782
v 0.01009446 0.006334267 0.001262782
v 0.01009446 0.005278015 0.0008844783
v 0.009499478 0.00210471 -0.005081631
v 0.01158436 0.00210471 -0.005081631
v 0.01158436 0.003889035 -0.003889367
v 0.009499478 0.003889035 -0.003889367
v 0.01158436 0.00508129 -0.002105043
v 0.009499479 0.00508129 -0.002105043
v 0.01158436 0.005499953 -2.835252E-07
v 0.009499479 0.005499954 -2.835252E-07
v 0.01158436 0.005081291 0.002104476
v 0.009499479 0.005081292 0.002104476
v 0.01158436 0.003889046 0.003888801
v 0.009499478 0.003889047 0.003888801
v 0.01158436 0.002104712 0.005081047
v 0.009499478 0.002104713 0.005081047
v 0.01158436 -4.677792E-08 0.00549971
v 0.009499477 -4.639791E-08 0.00549971
v 0.01158436 -0.002104806 0.005081048
v 0.009499477 -0.002104806 0.005081048
v 0.01158436 -0.003889131 0.003888803
v 0.009499477 -0.003889131 0.003888803
v 0.01158436 -0.005081386 0.002104478
v 0.009499477 -0.005081386 0.002104478
v 0.01158436 -0.00550005 -2.805957E-07
v 0.009499476 -0.005500049 -2.805957E-07
v 0.01158436 -0.005081388 -0.00210504
v 0.009499477 -0.005081387 -0.00210504
v 0.01158436 -0.003889133 -0.003889365
v 0.009499477 -0.003889133 -0.003889365
v 0.01158436 -0.002104809 -0.005081611
v 0.009499477 -0.002104808 -0.005081611
v 0.01158436 -4.970739E-08 -0.005500274
v 0.009499477 -4.932739E-08 -0.005500274
v 0.009499477 -4.932739E-08 -0.005500274
v 0.01158436 -4.970739E-08 -0.005500274
v 0.01161087 -4.824749E-08 -2.820604E-07
v 0.01158436 0.003889035 -0.003889367
v 0.01158436 0.00210471 -0.005081631
v 0.01158436 0.00508129 -0.002105043
v 0.01158436 0.005499953 -2.835252E-07
v 0.01158436 0.005081291 0.002104476
v 0.01158436 0.003889046 0.003888801
v 0.01158436 0.002104712 0.005081047
v 0.01158436 -4.677792E-08 0.00549971
v 0.01158436 -0.002104806 0.005081048
v 0.01158436 -0.003889131 0.003888803
v 0.01158436 -0.005081386 0.002104478
v 0.01158436 -0.00550005 -2.805957E-07
v 0.01158436 -0.005081388 -0.00210504
v 0.01158436 -0.003889133 -0.003889365
v 0.01158436 -0.002104809 -0.005081611
v 0.01158436 -4.970739E-08 -0.005500274
vt 0.9468673 0.6684995
vt 0.9404798 0.6684992
vt 0.9404802 0.6750739
vt 0.9468671 0.6750735
vt 0.9404802 0.6816488
vt 0.9468673 0.6816484
vt 0.9404802 0.6882229
vt 0.9468678 0.6882231
vt 0.9404807 0.6947978
vt 0.9468678 0.6947975
vt 0.9404807 0.7013724
vt 0.9468681 0.701372
vt 0.9404807 0.7079468
vt 0.9468678 0.7079467
vt 0.9404809 0.7145211
vt 0.9468681 0.7145211
vt 0.9404811 0.7210954
vt 0.9468685 0.7210953
vt 0.9404814 0.7276701
vt 0.9468685 0.7276697
vt 0.9404811 0.7342446
vt 0.9468688 0.7342445
vt 0.9404818 0.7408194
vt 0.9468687 0.7408194
vt 0.9404818 0.7473938
vt 0.9468688 0.7473937
vt 0.9404818 0.7539681
vt 0.9468689 0.7539679
vt 0.940482 0.7605424
vt 0.9468694 0.7605425
vt 0.9404823 0.7671171
vt 0.9468693 0.7671168
vt 0.9468671 0.6619245
vt 0.9404798 0.661925
vt 0.2114359 0.809692
vt 0.2233504 0.8216067
vt 0.2270032 0.8161402
vt 0.2178839 0.8252593
vt 0.2114359 0.8265414
vt 0.2049878 0.8252589
vt 0.1995213 0.8216065
vt 0.1958687 0.8161399
vt 0.1945861 0.809692
vt 0.1958686 0.8032436
vt 0.1995215 0.7977774
vt 0.204988 0.7941247
vt 0.2114361 0.792842
vt 0.2178842 0.7941247
vt 0.2233506 0.7977774
vt 0.2270034 0.8032439
vt 0.2282859 0.8096921
vt 0.397375 0.7351695
vt 0.3973761 0.7394844
vt 0.3996488 0.7394839
vt 0.3996476 0.7351689
vt 0.39222 0.7351709
vt 0.3922213 0.7394859
vt 0.3949503 0.7454641
vt 0.3927116 0.7488883
vt 0.3967535 0.7488888
vt 0.3967539 0.7454644
vt 0.4042515 0.7488428
vt 0.4020129 0.7454185
vt 0.4002094 0.7454188
vt 0.4002097 0.7488432
vt 0.8655991 0.7368873
vt 0.8592125 0.7368868
vt 0.8592122 0.7434614
vt 0.8655991 0.7434617
vt 0.8592122 0.7500359
vt 0.8655991 0.750036
vt 0.859212 0.7566106
vt 0.865599 0.7566105
vt 0.859212 0.7631848
vt 0.8655986 0.7631852
vt 0.859212 0.7697595
vt 0.865599 0.7697596
vt 0.8592121 0.7763339
vt 0.8655989 0.7763342
vt 0.8592122 0.7829087
vt 0.865599 0.7829087
vt 0.859212 0.7894828
vt 0.8655987 0.7894827
vt 0.8592116 0.7960572
vt 0.8655987 0.7960573
vt 0.8592119 0.8026318
vt 0.8655983 0.8026318
vt 0.8592115 0.8092059
vt 0.8655984 0.8092058
vt 0.8592114 0.8157805
vt 0.8655981 0.8157805
vt 0.8592116 0.8223546
vt 0.8655979 0.8223551
vt 0.8592111 0.8289291
vt 0.8655984 0.8289289
vt 0.8592113 0.8355036
vt 0.8655981 0.8355038
vt 0.8655996 0.7303125
vt 0.8592125 0.7303123
vt 0.07124786 0.7629885
vt 0.05933349 0.7749033
vt 0.06479971 0.778556
vt 0.05568074 0.7694369
vt 0.05439775 0.7629889
vt 0.05568038 0.7565406
vt 0.05933292 0.7510741
vt 0.06479983 0.7474213
vt 0.07124792 0.7461386
vt 0.07769616 0.7474213
vt 0.08316259 0.7510737
vt 0.08681498 0.7565401
vt 0.0880978 0.7629887
vt 0.08681528 0.7694368
vt 0.08316259 0.7749031
vt 0.0776964 0.7785556
vt 0.0712481 0.7798384
vn 0 -0.3826827 -0.9238798
vn 0 -0.3826827 -0.9238798
vn -1.288825E-07 -0.7071083 -0.7071053
vn -1.288825E-07 -0.7071083 -0.7071053
vn -1.683927E-07 -0.923879 -0.3826846
vn -1.683927E-07 -0.923879 -0.3826846
vn -1.822671E-07 -1 2.663161E-07
vn -1.822671E-07 -1 2.663161E-07
vn -1.683928E-07 -0.9238795 0.3826833
vn -1.683928E-07 -0.9238795 0.3826833
vn -1.288821E-07 -0.7071057 0.7071078
vn -1.288821E-07 -0.7071057 0.7071078
vn 0 -0.3826818 0.9238802
vn 0 -0.3826818 0.9238802
vn 0 2.663161E-07 1
vn 0 2.663161E-07 1
vn 0 0.3826833 0.9238795
vn 0 0.3826833 0.9238795
vn 1.288821E-07 0.7071056 0.7071079
vn 1.288821E-07 0.7071056 0.7071079
vn 1.683927E-07 0.923879 0.3826846
vn 1.683927E-07 0.923879 0.3826846
vn 1.822671E-07 1 -2.663161E-07
vn 1.822671E-07 1 -2.663161E-07
vn 1.683927E-07 0.9238788 -0.382685
vn 1.683927E-07 0.9238788 -0.382685
vn 1.28882E-07 0.7071053 -0.7071083
vn 1.28882E-07 0.7071053 -0.7071083
vn 0 0.3826829 -0.9238797
vn 0 0.3826829 -0.9238797
vn 0 4.095853E-06 -1
vn 0 4.095853E-06 -1
vn 0 4.095853E-06 -1
vn 0 4.095853E-06 -1
vn -1 1.832028E-07 0
vn -0.9999884 -0.003408319 -0.003408487
vn -0.9999884 -0.001844473 -0.004453401
vn -0.9999884 -0.004453223 -0.001844666
vn -0.9999884 -0.00482015 0
vn -0.9999884 -0.004453225 0.001844661
vn -0.9999884 -0.003408304 0.003408494
vn -0.9999884 -0.001844475 0.004453417
vn -0.9999884 1.835487E-07 0.00482034
vn -0.9999884 0.001844847 0.004453414
vn -0.9999884 0.003408672 0.003408499
vn -0.9999884 0.004453587 0.001844666
vn -0.9999884 0.004820514 0
vn -0.9999884 0.004453586 -0.001844669
vn -0.9999884 0.00340867 -0.0034085
vn -0.9999884 0.001844845 -0.004453415
vn -0.9999884 1.997845E-07 -0.00482034
vn 0.4758646 0.8280181 0.296545
vn 0.4758605 0.8280201 0.2965457
vn 1.715944E-07 0.9414448 0.3371674
vn 1.715944E-07 0.9414448 0.3371674
vn 0.8370609 0.5150735 0.1844676
vn 0.8370609 0.5150735 0.1844676
vn 0 -0.3371825 0.9414393
vn 0 -0.3371826 0.9414393
vn 0 -0.3371825 0.9414393
vn 0 -0.3371825 0.9414393
vn 0 0.3371825 -0.9414393
vn 0 0.3371825 -0.9414393
vn 0 0.3371825 -0.9414393
vn 0 0.3371825 -0.9414393
vn 0 0.3826823 -0.92388
vn 0 0.3826823 -0.92388
vn 1.288825E-07 0.7071079 -0.7071056
vn 1.288825E-07 0.7071079 -0.7071056
vn 1.683927E-07 0.9238788 -0.382685
vn 1.683927E-07 0.9238788 -0.382685
vn 1.822671E-07 1 -2.663161E-07
vn 1.822671E-07 1 -2.663161E-07
vn 1.683928E-07 0.9238797 0.3826829
vn 1.683928E-07 0.9238797 0.3826829
vn 1.288822E-07 0.7071061 0.7071074
vn 1.288822E-07 0.7071061 0.7071074
vn 0 0.3826823 0.92388
vn 0 0.3826823 0.92388
vn 0 2.663161E-07 1
vn 0 2.663161E-07 1
vn 0 -0.3826829 0.9238797
vn 0 -0.3826829 0.9238797
vn -1.28882E-07 -0.7071053 0.7071083
vn -1.28882E-07 -0.7071053 0.7071083
vn -1.683927E-07 -0.9238788 0.382685
vn -1.683927E-07 -0.9238788 0.382685
vn -1.822671E-07 -1 2.663161E-07
vn -1.822671E-07 -1 2.663161E-07
vn -1.683927E-07 -0.923879 -0.3826846
vn -1.683927E-07 -0.923879 -0.3826846
vn -1.288821E-07 -0.7071056 -0.7071079
vn -1.288821E-07 -0.7071056 -0.7071079
vn 0 -0.3826833 -0.9238795
vn 0 -0.3826833 -0.9238795
vn 0 -4.628484E-06 -1
vn 0 -4.628484E-06 -1
vn 0 -4.628484E-06 -1
vn 0 -4.628484E-06 -1
vn 1 -1.832028E-07 0
vn 0.9999884 0.003408317 -0.003408489
vn 0.9999884 0.001844471 -0.004453402
vn 0.9999884 0.004453222 -0.001844669
vn 0.9999884 0.00482015 0
vn 0.9999884 0.004453226 0.001844659
vn 0.9999884 0.003408306 0.003408492
vn 0.9999884 0.001844478 0.004453416
vn 0.9999884 -1.809812E-07 0.00482034
vn 0.9999884 -0.001844845 0.004453415
vn 0.9999884 -0.00340867 0.0034085
vn 0.9999884 -0.004453586 0.001844669
vn 0.9999884 -0.004820514 0
vn 0.9999884 -0.004453587 -0.001844666
vn 0.9999884 -0.003408672 -0.003408499
vn 0.9999884 -0.001844847 -0.004453414
vn 0.9999884 -2.02352E-07 -0.00482034
g release_LOD0_0
f 3/3/3 2/2/2 1/1/1
f 4/4/4 3/3/3 1/1/1
f 5/5/5 3/3/3 4/4/4
f 6/6/6 5/5/5 4/4/4
f 7/7/7 5/5/5 6/6/6
f 8/8/8 7/7/7 6/6/6
f 9/9/9 7/7/7 8/8/8
f 10/10/10 9/9/9 8/8/8
f 11/11/11 9/9/9 10/10/10
f 12/12/12 11/11/11 10/10/10
f 13/13/13 11/11/11 12/12/12
f 14/14/14 13/13/13 12/12/12
f 15/15/15 13/13/13 14/14/14
f 16/16/16 15/15/15 14/14/14
f 17/17/17 15/15/15 16/16/16
f 18/18/18 17/17/17 16/16/16
f 19/19/19 17/17/17 18/18/18
f 20/20/20 19/19/19 18/18/18
f 21/21/21 19/19/19 20/20/20
f 22/22/22 21/21/21 20/20/20
f 23/23/23 21/21/21 22/22/22
f 24/24/24 23/23/23 22/22/22
f 25/25/25 23/23/23 24/24/24
f 26/26/26 25/25/25 24/24/24
f 27/27/27 25/25/25 26/26/26
f 28/28/28 27/27/27 26/26/26
f 29/29/29 27/27/27 28/28/28
f 30/30/30 29/29/29 28/28/28
f 31/31/31 29/29/29 30/30/30
f 32/32/32 31/31/31 30/30/30
f 2/2/2 34/34/34 33/33/33
f 1/1/1 2/2/2 33/33/33
f 37/37/37 36/36/36 35/35/35
f 36/36/36 38/38/38 35/35/35
f 38/38/38 39/39/39 35/35/35
f 39/39/39 40/40/40 35/35/35
f 40/40/40 41/41/41 35/35/35
f 41/41/41 42/42/42 35/35/35
f 42/42/42 43/43/43 35/35/35
f 43/43/43 44/44/44 35/35/35
f 44/44/44 45/45/45 35/35/35
f 45/45/45 46/46/46 35/35/35
f 46/46/46 47/47/47 35/35/35
f 47/47/47 48/48/48 35/35/35
f 48/48/48 49/49/49 35/35/35
f 49/49/49 50/50/50 35/35/35
f 35/35/35 50/50/50 51/51/51
f 37/37/37 35/35/35 51/51/51
f 54/54/54 53/53/53 52/52/52
f 55/55/55 54/54/54 52/52/52
f 52/52/52 53/53/53 56/56/56
f 53/53/53 57/57/57 56/56/56
f 60/60/60 59/59/59 58/58/58
f 61/61/61 60/60/60 58/58/58
f 64/64/64 63/63/63 62/62/62
f 65/65/65 64/64/64 62/62/62
f 68/68/68 67/67/67 66/66/66
f 69/69/69 68/68/68 66/66/66
f 70/70/70 68/68/68 69/69/69
f 71/71/71 70/70/70 69/69/69
f 72/72/72 70/70/70 71/71/71
f 73/73/73 72/72/72 71/71/71
f 74/74/74 72/72/72 73/73/73
f 75/75/75 74/74/74 73/73/73
f 76/76/76 74/74/74 75/75/75
f 77/77/77 76/76/76 75/75/75
f 78/78/78 76/76/76 77/77/77
f 79/79/79 78/78/78 77/77/77
f 80/80/80 78/78/78 79/79/79
f 81/81/81 80/80/80 79/79/79
f 82/82/82 80/80/80 81/81/81
f 83/83/83 82/82/82 81/81/81
f 84/84/84 82/82/82 83/83/83
f 85/85/85 84/84/84 83/83/83
f 86/86/86 84/84/84 85/85/85
f 87/87/87 86/86/86 85/85/85
f 88/88/88 86/86/86 87/87/87
f 89/89/89 88/88/88 87/87/87
f 90/90/90 88/88/88 89/89/89
f 91/91/91 90/90/90 89/89/89
f 92/92/92 90/90/90 91/91/91
f 93/93/93 92/92/92 91/91/91
f 94/94/94 92/92/92 93/93/93
f 95/95/95 94/94/94 93/93/93
f 96/96/96 94/94/94 95/95/95
f 97/97/97 96/96/96 95/95/95
f 67/67/67 99/99/99 98/98/98
f 66/66/66 67/67/67 98/98/98
f 102/102/102 101/101/101 100/100/100
f 101/101/101 103/103/103 100/100/100
f 103/103/103 104/104/104 100/100/100
f 104/104/104 105/105/105 100/100/100
f 105/105/105 106/106/106 100/100/100
f 106/106/106 107/107/107 100/100/100
f 107/107/107 108/108/108 100/100/100
f 108/108/108 109/109/109 100/100/100
f 109/109/109 110/110/110 100/100/100
f 110/110/110 111/111/111 100/100/100
f 111/111/111 112/112/112 100/100/100
f 112/112/112 113/113/113 100/100/100
f 113/113/113 114/114/114 100/100/100
f 114/114/114 115/115/115 100/100/100
f 100/100/100 115/115/115 116/116/116
f 102/102/102 100/100/100 116/116/116
