g mag_m700_promag_aa70_762x51_10_LOD1
v -0.007219239 -0.01099696 0.03756756
v -0.005946145 0.02053187 0.04799474
v -0.005835879 -0.005071807 0.04664115
v -0.006433357 0.0207549 0.04498304
v -0.01356656 0.02402027 0.0008891214
v -0.01351747 -0.01202099 -0.001676193
v -0.005606226 0.03920831 0.001691775
v -0.005460191 0.03920832 0.03305702
v -0.005460192 0.03628592 0.03305702
v -0.005606227 0.03628591 0.001691776
v -0.01157252 -0.03628549 0.03563673
v -0.01351747 -0.01202099 -0.001676193
v -0.0134062 -0.01202098 0.03563673
v -0.01157252 -0.03628552 -0.05491597
v -0.01340818 -0.012021 -0.05646876
v -0.005740671 -0.0417967 -0.05456289
v -0.009219284 -0.04091012 -0.05461964
v -0.009219283 -0.04088463 0.03563672
v -0.005740671 -0.04179518 0.03563674
v -0.01088662 -0.03917194 -0.05473011
v -0.01088661 -0.03917094 0.03563673
v -0.01157252 -0.03628552 -0.05491597
v -0.01157252 -0.03628549 0.03563673
v -0.005740671 -0.0417967 -0.05456289
v -0.01088662 -0.03917194 -0.05473011
v -0.009219284 -0.04091012 -0.05461964
v -3.546105E-06 -0.04179698 -0.05456288
v -0.01157252 -0.03628552 -0.05491597
v -0.01340818 -0.012021 -0.05646876
v -3.51567E-06 0.0363586 -0.05953971
v -0.01375417 0.0363586 -0.05953971
v 0.01340111 -0.01202101 -0.05646876
v 0.01156543 -0.03628552 -0.05491597
v 0.01087952 -0.03917194 -0.05473011
v 0.005733579 -0.0417967 -0.05456289
v 0.009212192 -0.04091012 -0.05461964
v 0.01374714 0.03635859 -0.05953971
v -0.01375417 0.03635862 0.03900702
v -0.01356656 0.02402027 0.0008891214
v -0.01375417 0.0363586 -0.05953971
v -0.01366543 0.02464654 0.03900702
v -0.01340818 -0.012021 -0.05646876
v -0.01351747 -0.01202099 -0.001676193
v -0.01157252 -0.03628549 0.03563673
v -0.005740671 -0.04179518 0.03563674
v -0.009219283 -0.04088463 0.03563672
v -0.01088661 -0.03917094 0.03563673
v -3.546105E-06 -0.04179631 0.03563674
v -0.0134062 -0.01202098 0.03563673
v 0.01339913 -0.01202099 0.03563673
v 0.01156543 -0.0362855 0.03563673
v 0.005733579 -0.04179519 0.03563674
v 0.009212191 -0.04088464 0.03563672
v 0.01087952 -0.03917095 0.03563673
v -0.01356656 0.02402027 0.0008891214
v -0.01366543 0.02464654 0.03900702
v -0.006433357 0.0207549 0.04498304
v -0.01351747 -0.01202099 -0.001676193
v -0.007219239 -0.01099696 0.03756756
v -0.0134062 -0.01202098 0.03563673
v -0.007219239 -0.01099696 0.03756756
v 0.007212171 -0.01099696 0.03756756
v 0.01339913 -0.01202099 0.03563673
v -0.0134062 -0.01202098 0.03563673
v -0.005946145 0.02053187 0.04799474
v 0.005939101 0.02053186 0.04799474
v 0.005828816 -0.005071811 0.04664115
v -0.005835879 -0.005071807 0.04664115
v -3.546105E-06 -0.04179631 0.03563674
v -3.546105E-06 -0.04179698 -0.05456288
v -0.005740671 -0.0417967 -0.05456289
v -0.005740671 -0.04179518 0.03563674
v 0.005733579 -0.0417967 -0.05456289
v 0.005733579 -0.04179519 0.03563674
v -3.51567E-06 0.0363586 -0.05953971
v -3.51567E-06 0.03635861 0.03900702
v -0.01375417 0.03635862 0.03900702
v -0.01375417 0.0363586 -0.05953971
v -3.51567E-06 0.03635861 0.03900702
v 0.01365838 0.02464652 0.03900702
v -0.01366543 0.02464654 0.03900702
v 0.01374714 0.03635861 0.03900702
v -0.01375417 0.03635862 0.03900702
v -0.006433357 0.0207549 0.04498304
v 0.006426313 0.02075489 0.04498304
v 0.005939101 0.02053186 0.04799474
v -0.005946145 0.02053187 0.04799474
v -0.01366543 0.02464654 0.03900702
v 0.01365838 0.02464652 0.03900702
v 0.006426313 0.02075489 0.04498304
v -0.006433357 0.0207549 0.04498304
v -0.005835879 -0.005071807 0.04664115
v 0.005828816 -0.005071811 0.04664115
v 0.007212171 -0.01099696 0.03756756
v -0.007219239 -0.01099696 0.03756756
v 0.007212171 -0.01099696 0.03756756
v 0.005828816 -0.005071811 0.04664115
v 0.005939101 0.02053186 0.04799474
v 0.006426313 0.02075489 0.04498304
v 0.01355952 0.02402026 0.0008891214
v 0.0135104 -0.012021 -0.001676193
v -0.005606226 0.03920831 0.001691775
v -0.005606227 0.03628591 0.001691776
v 0.005599196 0.03628591 0.001691776
v 0.005599197 0.0392083 0.001691775
v -0.005460192 0.03628592 0.03305702
v -0.005460191 0.03920832 0.03305702
v 0.005453162 0.03920831 0.03305702
v 0.005453161 0.03628591 0.03305702
v -0.005460191 0.03920832 0.03305702
v -0.005606226 0.03920831 0.001691775
v 0.005599197 0.0392083 0.001691775
v 0.005453162 0.03920831 0.03305702
v 0.005599197 0.0392083 0.001691775
v 0.005599196 0.03628591 0.001691776
v 0.005453161 0.03628591 0.03305702
v 0.005453162 0.03920831 0.03305702
v 0.01156543 -0.0362855 0.03563673
v 0.01339913 -0.01202099 0.03563673
v 0.0135104 -0.012021 -0.001676193
v 0.01156543 -0.03628552 -0.05491597
v 0.01340111 -0.01202101 -0.05646876
v 0.005733579 -0.0417967 -0.05456289
v 0.005733579 -0.04179519 0.03563674
v 0.009212191 -0.04088464 0.03563672
v 0.009212192 -0.04091012 -0.05461964
v 0.01087952 -0.03917194 -0.05473011
v 0.01087952 -0.03917095 0.03563673
v 0.01156543 -0.03628552 -0.05491597
v 0.01156543 -0.0362855 0.03563673
v 0.01374714 0.03635861 0.03900702
v 0.01374714 0.03635859 -0.05953971
v 0.01355952 0.02402026 0.0008891214
v 0.01365838 0.02464652 0.03900702
v 0.01340111 -0.01202101 -0.05646876
v 0.0135104 -0.012021 -0.001676193
v 0.01355952 0.02402026 0.0008891214
v 0.006426313 0.02075489 0.04498304
v 0.01365838 0.02464652 0.03900702
v 0.0135104 -0.012021 -0.001676193
v 0.01339913 -0.01202099 0.03563673
v 0.007212171 -0.01099696 0.03756756
v -3.51567E-06 0.0363586 -0.05953971
v 0.01374714 0.03635859 -0.05953971
v 0.01374714 0.03635861 0.03900702
v -3.51567E-06 0.03635861 0.03900702
vt 0.7564352 0.3387506
vt 0.8180358 0.09893306
vt 0.8215651 0.2899307
vt 0.7952447 0.09886384
vt 0.4615624 0.09784871
vt 0.4615625 0.3670562
vt 0.8061885 0.5592238
vt 0.8061884 0.3255325
vt 0.7844149 0.3255326
vt 0.7844151 0.5592238
vt 0.001828264 0.3725002
vt 0.2798729 0.5537997
vt 0.001869102 0.5538001
vt 0.6764973 0.3723434
vt 0.6881094 0.5536417
vt 0.6744834 0.879028
vt 0.6749098 0.905774
vt 0.002450298 0.9059118
vt 0.002446364 0.8791209
vt 0.6757329 0.923719
vt 0.002450298 0.9237257
vt 0.6771175 0.9458237
vt 0.002450179 0.9458233
vt 0.5742421 0.7077756
vt 0.5550219 0.745378
vt 0.5677494 0.7331948
vt 0.5742456 0.6620901
vt 0.5338864 0.7503901
vt 0.3562152 0.7638037
vt 0.001979069 0.662089
vt 0.001978957 0.7663318
vt 0.3562156 0.5603758
vt 0.5338868 0.57379
vt 0.5550222 0.5788022
vt 0.5742423 0.6164048
vt 0.5677497 0.5909855
vt 0.00197939 0.5578462
vt 0.7362216 0.001867488
vt 0.4522227 0.09380549
vt 0.00199405 0.001867763
vt 0.736223 0.08913118
vt 0.02487207 0.3623318
vt 0.4331077 0.362333
vt 0.7604351 0.5733883
vt 0.8014835 0.6168357
vt 0.7946995 0.5909199
vt 0.7819325 0.5784982
vt 0.8014922 0.6595792
vt 0.5796607 0.5597278
vt 0.5796613 0.7594326
vt 0.760436 0.7457703
vt 0.8014843 0.7023215
vt 0.7947007 0.7282377
vt 0.781933 0.7406587
vt 0.594757 0.984246
vt 0.8739087 0.9317793
vt 0.928441 0.984246
vt 0.6161568 0.9508289
vt 0.3199285 0.950829
vt 0.3416263 0.9946377
vt 0.2593445 0.9571905
vt 0.1518223 0.9571905
vt 0.105726 0.9734741
vt 0.3054408 0.9734741
vt 0.9979942 0.7743171
vt 0.9979942 0.686587
vt 0.8069661 0.686587
vt 0.8069661 0.7743171
vt 0.8820392 0.005751371
vt 0.8820395 0.6777899
vt 0.9247847 0.6777899
vt 0.9247842 0.005751371
vt 0.8392948 0.67779
vt 0.8392944 0.005751371
vt 0.002071959 0.7703975
vt 0.7229287 0.7703977
vt 0.7229286 0.8747486
vt 0.002071959 0.8747483
vt 0.7796237 0.453126
vt 0.692362 0.351337
vt 0.6923618 0.5549151
vt 0.7796237 0.3506757
vt 0.7796236 0.5555763
vt 0.09868788 0.9507162
vt 0.002875911 0.9507164
vt 0.006505834 0.9732168
vt 0.09505796 0.9732168
vt 0.7081363 0.9208779
vt 0.9117141 0.9208781
vt 0.8578311 0.8677447
vt 0.7620193 0.8677447
vt 0.9170317 0.8774498
vt 0.9170316 0.9643583
vt 0.9977724 0.9746651
vt 0.9977724 0.8671431
vt 0.7564352 0.3387506
vt 0.8215651 0.2899307
vt 0.8180358 0.09893306
vt 0.7952447 0.09886384
vt 0.4615624 0.09784871
vt 0.4615625 0.3670562
vt 0.8259529 0.06239747
vt 0.8259528 0.04062421
vt 0.7424662 0.04062421
vt 0.7424662 0.06239747
vt 0.7432727 0.005279109
vt 0.7432727 0.02705248
vt 0.8245834 0.02705248
vt 0.8245833 0.005279109
vt 0.9977834 0.7798085
vt 0.7640969 0.7798085
vt 0.7640969 0.8622062
vt 0.9977834 0.8622062
vt 0.8340811 0.5592238
vt 0.8123077 0.5592238
vt 0.8123074 0.3255322
vt 0.8340809 0.3255323
vt 0.001828264 0.3725002
vt 0.001869102 0.5538001
vt 0.2798729 0.5537997
vt 0.6764973 0.3723434
vt 0.6881095 0.5536417
vt 0.930315 0.008499503
vt 0.930408 0.6805366
vt 0.9571989 0.6805328
vt 0.9570611 0.008072972
vt 0.975006 0.007249951
vt 0.9750128 0.6805329
vt 0.9971107 0.005865216
vt 0.9971104 0.6805329
vt 0.7362216 0.001867488
vt 0.00199405 0.001867763
vt 0.4522227 0.09380549
vt 0.736223 0.08913118
vt 0.02487207 0.3623318
vt 0.4331077 0.362333
vt 0.594757 0.984246
vt 0.928441 0.984246
vt 0.8739087 0.9317793
vt 0.6161568 0.9508289
vt 0.3416263 0.9946377
vt 0.3199285 0.950829
vt 0.002071959 0.7703975
vt 0.002071959 0.8747483
vt 0.7229286 0.8747486
vt 0.7229287 0.7703977
vn -0.9872358 -0.01263624 0.1587636
vn -0.987232 -0.01263619 0.1587868
vn -0.987232 -0.01263619 0.1587868
vn -0.987232 -0.01263619 0.1587868
vn -0.9872343 -0.01263622 0.1587723
vn -0.9872343 -0.01263622 0.1587723
vn -0.9999892 0 0.004655878
vn -0.9999893 0 0.004649173
vn -0.9999893 0 0.004649173
vn -0.9999892 0 0.004655878
vn -0.987978 -0.1545917 0.0009536812
vn -0.9985856 -0.05316762 0.0002414
vn -0.9971534 -0.07534054 0.002980242
vn -0.9884803 -0.1513476 -0.0007629371
vn -0.9992498 -0.03871924 -0.0008583084
vn -0.1267515 -0.9919344 9.536913E-05
vn -0.5082895 -0.8611863 0.0001430542
vn -0.5035968 -0.8639388 0.00011921
vn -0.1261179 -0.9920152 7.152581E-05
vn -0.8817133 -0.4717857 4.768402E-05
vn -0.877225 -0.4800795 4.768369E-05
vn -0.9884803 -0.1513476 -0.0007629371
vn -0.987978 -0.1545917 0.0009536812
vn 1.192096E-05 -0.06361023 -0.9979748
vn -0.0001192116 -0.06408815 -0.9979442
vn 0.0001490146 -0.06332526 -0.9979929
vn 0 -0.06380019 -0.9979627
vn -2.384134E-05 -0.06399014 -0.9979506
vn 0.0003933939 -0.06351524 -0.9979808
vn 0 -0.06346775 -0.9979839
vn 0.0004410794 -0.06346774 -0.9979838
vn -0.0003933939 -0.06351524 -0.9979808
vn 2.384134E-05 -0.06399014 -0.9979506
vn 0.0001192116 -0.06408815 -0.9979442
vn -1.192096E-05 -0.06361023 -0.9979748
vn -0.0001490146 -0.06332526 -0.9979929
vn -0.0004410794 -0.06346774 -0.9979838
vn -0.9999567 -0.009095716 -0.001978884
vn -0.9999412 -0.01084807 -9.238736E-05
vn -0.9999815 -0.006079639 0.0001430503
vn -0.9999682 -0.007581748 -0.002479565
vn -0.9992498 -0.03871924 -0.0008583084
vn -0.9985856 -0.05316762 0.0002414
vn 0 0 1
vn 0 0 1
vn 0 0 1
vn 0 0 1
vn 0 0 1
vn 0 0 1
vn 0 0 1
vn 0 0 1
vn 0 0 1
vn 0 0 1
vn 0 0 1
vn -0.4822158 -0.875954 0.0131414
vn -0.4822158 -0.875954 0.01313693
vn -0.4822202 -0.8759512 0.01316073
vn -0.1634323 0.9865544 0.0004887474
vn -0.1634382 0.9865535 0.0004768262
vn -0.1634323 0.9865544 0.0004768267
vn 0 -0.8685525 0.4955971
vn 0 -0.8685525 0.4955971
vn 0 -0.8834409 0.4685427
vn 0 -0.8834409 0.4685427
vn 0 -0.05278658 0.9986058
vn 0 -0.05278658 0.9986058
vn 0 -0.05278658 0.9986058
vn 0 -0.05278658 0.9986058
vn -3.893912E-07 -1 2.384131E-05
vn -3.89414E-07 -1 0
vn -0.1267515 -0.9919344 9.536913E-05
vn -0.1261179 -0.9920152 7.152581E-05
vn 0.1267515 -0.9919344 9.536913E-05
vn 0.1261179 -0.9920152 7.152581E-05
vn 3.894119E-07 1 0
vn 3.894119E-07 1 0
vn 0 1 0
vn 0 1 0
vn 0 0 1
vn 0 0 1
vn 0 0 1
vn 0 0 1
vn 0 0 1
vn 5.96039E-06 0.9972686 0.07386115
vn 5.96039E-06 0.9972686 0.07386115
vn 0 0.9972686 0.07386115
vn 0 0.9972686 0.07386115
vn 0 0.8379808 0.5456997
vn 0 0.8379808 0.5456997
vn 5.960542E-06 0.8379808 0.5456997
vn 5.960542E-06 0.8379808 0.5456997
vn 0 -0.8372946 0.546752
vn 0 -0.8372946 0.546752
vn 0 -0.8685525 0.4955971
vn 0 -0.8685525 0.4955971
vn 0.9872358 -0.01263624 0.1587636
vn 0.987232 -0.01263619 0.1587868
vn 0.987232 -0.01263619 0.1587868
vn 0.987232 -0.01263619 0.1587868
vn 0.9872343 -0.01263622 0.1587723
vn 0.9872343 -0.01263622 0.1587723
vn 0 0 -1
vn 0 0 -1
vn 0 0 -1
vn 0 0 -1
vn 0 0 1
vn 0 0 1
vn 0 0 1
vn 0 0 1
vn 0 1 0
vn 0 1 0
vn 0 1 0
vn 0 1 0
vn 0.9999892 0 0.004655878
vn 0.9999892 0 0.004655878
vn 0.9999893 0 0.004649173
vn 0.9999893 0 0.004649173
vn 0.987978 -0.1545917 0.0009536812
vn 0.9971534 -0.07534054 0.002980242
vn 0.9985856 -0.05316762 0.0002414
vn 0.9884803 -0.1513476 -0.0007629371
vn 0.9992498 -0.03871924 -0.0008583084
vn 0.1267515 -0.9919344 9.536913E-05
vn 0.1261179 -0.9920152 7.152581E-05
vn 0.5035968 -0.8639388 0.00011921
vn 0.5082895 -0.8611863 0.0001430542
vn 0.8817133 -0.4717857 4.768402E-05
vn 0.877225 -0.4800795 4.768369E-05
vn 0.9884803 -0.1513476 -0.0007629371
vn 0.987978 -0.1545917 0.0009536812
vn 0.9999567 -0.009095716 -0.001978884
vn 0.9999815 -0.006079639 0.0001430503
vn 0.9999412 -0.01084807 -9.238736E-05
vn 0.9999682 -0.007581748 -0.002479565
vn 0.9992498 -0.03871924 -0.0008583084
vn 0.9985856 -0.05316762 0.0002414
vn 0.4822158 -0.875954 0.0131414
vn 0.4822202 -0.8759512 0.01316073
vn 0.4822158 -0.875954 0.01313693
vn 0.1634323 0.9865544 0.0004887474
vn 0.1634323 0.9865544 0.0004768267
vn 0.1634382 0.9865535 0.0004768262
vn 3.894119E-07 1 0
vn 0 1 0
vn 0 1 0
vn 3.894119E-07 1 0
g mag_m700_promag_aa70_762x51_10_LOD1_0
f 3/3/3 2/2/2 1/1/1
f 2/2/2 4/4/4 1/1/1
f 4/4/4 5/5/5 1/1/1
f 5/5/5 6/6/6 1/1/1
f 9/9/9 8/8/8 7/7/7
f 10/10/10 9/9/9 7/7/7
f 13/13/13 12/12/12 11/11/11
f 11/11/11 12/12/12 14/14/14
f 12/12/12 15/15/15 14/14/14
f 18/18/18 17/17/17 16/16/16
f 19/19/19 18/18/18 16/16/16
f 20/20/20 17/17/17 18/18/18
f 21/21/21 20/20/20 18/18/18
f 22/22/22 20/20/20 21/21/21
f 23/23/23 22/22/22 21/21/21
f 26/26/26 25/25/25 24/24/24
f 24/24/24 25/25/25 27/27/27
f 28/28/28 27/27/27 25/25/25
f 29/29/29 27/27/27 28/28/28
f 30/30/30 27/27/27 29/29/29
f 31/31/31 30/30/30 29/29/29
f 27/27/27 30/30/30 32/32/32
f 27/27/27 32/32/32 33/33/33
f 27/27/27 33/33/33 34/34/34
f 34/34/34 35/35/35 27/27/27
f 34/34/34 36/36/36 35/35/35
f 30/30/30 37/37/37 32/32/32
f 40/40/40 39/39/39 38/38/38
f 39/39/39 41/41/41 38/38/38
f 39/39/39 40/40/40 42/42/42
f 43/43/43 39/39/39 42/42/42
f 46/46/46 45/45/45 44/44/44
f 47/47/47 46/46/46 44/44/44
f 45/45/45 48/48/48 44/44/44
f 44/44/44 48/48/48 49/49/49
f 48/48/48 50/50/50 49/49/49
f 48/48/48 51/51/51 50/50/50
f 48/48/48 52/52/52 51/51/51
f 52/52/52 53/53/53 51/51/51
f 53/53/53 54/54/54 51/51/51
f 57/57/57 56/56/56 55/55/55
f 60/60/60 59/59/59 58/58/58
f 63/63/63 62/62/62 61/61/61
f 64/64/64 63/63/63 61/61/61
f 67/67/67 66/66/66 65/65/65
f 68/68/68 67/67/67 65/65/65
f 71/71/71 70/70/70 69/69/69
f 72/72/72 71/71/71 69/69/69
f 70/70/70 73/73/73 69/69/69
f 73/73/73 74/74/74 69/69/69
f 77/77/77 76/76/76 75/75/75
f 78/78/78 77/77/77 75/75/75
f 81/81/81 80/80/80 79/79/79
f 80/80/80 82/82/82 79/79/79
f 83/83/83 81/81/81 79/79/79
f 86/86/86 85/85/85 84/84/84
f 87/87/87 86/86/86 84/84/84
f 90/90/90 89/89/89 88/88/88
f 91/91/91 90/90/90 88/88/88
f 94/94/94 93/93/93 92/92/92
f 95/95/95 94/94/94 92/92/92
f 98/98/98 97/97/97 96/96/96
f 99/99/99 98/98/98 96/96/96
f 100/100/100 99/99/99 96/96/96
f 101/101/101 100/100/100 96/96/96
f 104/104/104 103/103/103 102/102/102
f 105/105/105 104/104/104 102/102/102
f 108/108/108 107/107/107 106/106/106
f 109/109/109 108/108/108 106/106/106
f 112/112/112 111/111/111 110/110/110
f 113/113/113 112/112/112 110/110/110
f 116/116/116 115/115/115 114/114/114
f 117/117/117 116/116/116 114/114/114
f 120/120/120 119/119/119 118/118/118
f 120/120/120 118/118/118 121/121/121
f 122/122/122 120/120/120 121/121/121
f 125/125/125 124/124/124 123/123/123
f 126/126/126 125/125/125 123/123/123
f 126/126/126 127/127/127 125/125/125
f 127/127/127 128/128/128 125/125/125
f 127/127/127 129/129/129 128/128/128
f 129/129/129 130/130/130 128/128/128
f 133/133/133 132/132/132 131/131/131
f 134/134/134 133/133/133 131/131/131
f 132/132/132 133/133/133 135/135/135
f 133/133/133 136/136/136 135/135/135
f 139/139/139 138/138/138 137/137/137
f 142/142/142 141/141/141 140/140/140
f 145/145/145 144/144/144 143/143/143
f 146/146/146 145/145/145 143/143/143
