g mag_mp5_hk_kurtz_std_9x19_20_LOD1
v 0.01082422 -0.0209116 -0.03524088
v 0.01092833 -0.01298428 0.01235874
v 0.01092832 0.01644189 0.009464645
v 0.01082421 0.008284268 -0.04190262
v 0.0108242 -0.0062356 -0.09635339
v 0.01082421 -0.03516087 -0.08793487
v 0.01082421 -0.03516087 -0.08793487
v -0.01092827 -0.03516088 -0.08793487
v -0.01092826 -0.02091161 -0.03524087
v 0.01082422 -0.0209116 -0.03524088
v -0.01082415 -0.01298428 0.01235875
v 0.01092833 -0.01298428 0.01235874
v 0.01092832 0.01644189 0.009464645
v -0.01082416 0.01644189 0.009464655
v -0.01092827 0.008284261 -0.04190261
v 0.01082421 0.008284268 -0.04190262
v -0.01092828 -0.006235607 -0.09635337
v 0.0108242 -0.0062356 -0.09635339
v 0.01092833 -0.01298428 0.01235874
v -0.01082415 -0.01298428 0.01235875
v -0.01082416 0.01644189 0.009464655
v 0.01092832 0.01644189 0.009464645
v -0.01092826 -0.02091161 -0.03524087
v -0.01092827 0.008284261 -0.04190261
v -0.01082416 0.01644189 0.009464655
v -0.01082415 -0.01298428 0.01235875
v -0.01092828 -0.006235607 -0.09635337
v -0.01092827 -0.03516088 -0.08793487
v -0.01092827 -0.03516088 -0.08793487
v 0.01082421 -0.03516087 -0.08793487
v 0.0108242 -0.0062356 -0.09635339
v -0.01092828 -0.006235607 -0.09635337
vt 0.5187187 0.613554
vt 0.5011347 0.9588069
vt 0.7114921 0.9837185
vt 0.733247 0.6117473
vt 0.7152126 0.2084325
vt 0.4998813 0.2229481
vt 0.223684 0.9727963
vt 0.3965901 0.9727933
vt 0.3965845 0.5388936
vt 0.2236754 0.5388966
vt 0.39575 0.1553218
vt 0.2228432 0.1553235
vt 0.0209275 0.9722502
vt 0.193833 0.9722441
vt 0.1946502 0.5588174
vt 0.02173986 0.5588242
vt 0.1946361 0.1108751
vt 0.02172941 0.1108791
vt 0.7082429 0.01134759
vt 0.7082429 0.1828291
vt 0.9413384 0.182829
vt 0.9413384 0.01134754
vt 0.7660819 0.5758777
vt 0.9806103 0.577687
vt 0.9588592 0.2057137
vt 0.7485017 0.2306226
vt 0.9625705 0.981002
vt 0.7472392 0.9664839
vt 0.4167697 0.01869258
vt 0.4167697 0.190174
vt 0.6542586 0.190174
vt 0.6542586 0.01869257
vn 0.9999979 -0.000333803 -0.002049648
vn 0.9999979 -0.000333803 -0.002049648
vn 0.9999979 -0.000333803 -0.002049648
vn 0.9999979 -0.000333803 -0.002049648
vn 1 2.965656E-07 -2.798981E-07
vn 1 2.965656E-07 -2.798981E-07
vn 3.212663E-07 -0.965328 0.2610397
vn 3.212663E-07 -0.965328 0.2610396
vn 3.427483E-07 -0.9770622 0.2129539
vn 3.427774E-07 -0.9770768 0.2128874
vn 3.634185E-07 -0.9864139 0.1642792
vn 3.634184E-07 -0.9864139 0.1642792
vn -3.266389E-07 0.9876233 -0.1568443
vn -3.266389E-07 0.9876233 -0.1568443
vn -3.680553E-07 0.9782226 -0.2075585
vn -3.680031E-07 0.9782363 -0.2074942
vn -4.084416E-07 0.9662364 -0.2576571
vn -4.084416E-07 0.9662364 -0.2576571
vn 4.100723E-07 0.09787886 0.9951984
vn 4.100723E-07 0.09787885 0.9951984
vn 4.100723E-07 0.09787886 0.9951984
vn 4.100723E-07 0.09787886 0.9951984
vn -0.9999979 0.0003337736 0.002049592
vn -0.9999979 0.0003337736 0.002049592
vn -0.9999979 0.0003337736 0.002049592
vn -0.9999979 0.0003337736 0.002049592
vn -1 -3.403125E-07 2.693924E-07
vn -1 -3.403125E-07 2.693924E-07
vn -1.455317E-07 -0.2794486 -0.9601606
vn -1.455317E-07 -0.2794486 -0.9601606
vn -1.455317E-07 -0.2794486 -0.9601606
vn -1.455317E-07 -0.2794486 -0.9601606
g mag_mp5_hk_kurtz_std_9x19_20_LOD1_0
f 3/3/3 2/2/2 1/1/1
f 4/4/4 3/3/3 1/1/1
f 4/4/4 1/1/1 5/5/5
f 1/1/1 6/6/6 5/5/5
f 9/9/9 8/8/8 7/7/7
f 10/10/10 9/9/9 7/7/7
f 11/11/11 9/9/9 10/10/10
f 12/12/12 11/11/11 10/10/10
f 15/15/15 14/14/14 13/13/13
f 16/16/16 15/15/15 13/13/13
f 17/17/17 15/15/15 16/16/16
f 18/18/18 17/17/17 16/16/16
f 21/21/21 20/20/20 19/19/19
f 22/22/22 21/21/21 19/19/19
f 25/25/25 24/24/24 23/23/23
f 26/26/26 25/25/25 23/23/23
f 24/24/24 27/27/27 23/23/23
f 27/27/27 28/28/28 23/23/23
f 31/31/31 30/30/30 29/29/29
f 32/32/32 31/31/31 29/29/29
