g mag_ak_izhmash_ak103_std_762x39_30_LOD1
v 0.01200132 -0.02916385 -0.1025606
v 0.00773203 -0.05163495 -0.1053426
v 0.0081457 -0.03398385 -0.0814596
v 0.01348762 -0.07362195 -0.1394926
v 0.00703402 -0.08226994 -0.1260436
v 0.00743865 -0.01630905 -0.050999
v 0.01200132 0.008721352 -0.04094531
v 0.00773203 -0.005404148 -0.02210551
v 0.01349052 0.01744765 0.01397039
v 0.00955926 -0.001210146 0.01169769
v 0.01200132 -0.01041224 -0.1514626
v 0.01200132 -0.02916385 -0.1025606
v 0.01200132 0.02202365 -0.1124026
v 0.01200132 0.04407115 -0.07022481
v 0.01200132 0.008721352 -0.04094531
v 0.01200132 0.05524797 -0.0342905
v 0.01193232 0.05961062 -0.01314721
v 0.01348762 -0.07362195 -0.1394926
v 0.01348762 -0.04771695 -0.1828606
v 0.01349052 0.01744765 0.01397039
v 0.01349052 0.06065955 0.01702861
v 0.00517415 0.06583726 -0.01601561
v 0.01193232 0.05961062 -0.01314721
v 0.00526769 0.06591778 -0.01151151
v 0.01200132 0.05524797 -0.0342905
v -3.980174E-06 0.0615839 -0.032725
v -3.980174E-06 0.04568945 -0.0706405
v 0.01200132 0.04407115 -0.07022481
v 0.01200132 0.02202365 -0.1124026
v -3.980174E-06 0.02297735 -0.1132426
v 0.01200132 -0.01041224 -0.1514626
v -3.980174E-06 -0.009608946 -0.1525776
v -3.980174E-06 -0.04123495 -0.1848126
v 0.01348762 -0.04771695 -0.1828606
v 0.01349052 0.06065955 0.01702861
v -3.980174E-06 0.06143719 0.01943236
v 0.00526769 0.06591778 -0.01151151
v 0.00500702 0.07047755 -0.01302741
v 0.00517415 0.06583726 -0.01601561
v -0.01200928 -0.01029935 -0.1515166
v -0.01200928 0.02214395 -0.1124236
v -0.01200928 -0.02837074 -0.1031156
v -0.01349558 -0.07381095 -0.1404706
v -0.01349558 -0.04792394 -0.1818266
v -0.01200928 0.04432735 -0.0702264
v -0.01200928 0.008858452 -0.0409377
v -0.01200928 0.05553172 -0.03417511
v -0.01194028 0.05967197 -0.01303301
v -0.01349848 0.01834535 0.01412058
v -0.01349848 0.06076982 0.01714384
v 0.01349052 0.01744765 0.01397039
v 0.00955926 -0.001210146 0.01169769
v -3.980174E-06 0.01818135 0.01605778
v -3.980174E-06 -0.002373447 0.008476893
v -3.980174E-06 -0.04123495 -0.1848126
v -0.01349558 -0.04792394 -0.1818266
v 0.01348762 -0.04771695 -0.1828606
v -3.980174E-06 0.0615839 -0.032725
v 0.00517415 0.06583726 -0.01601561
v -0.00518211 0.06583805 -0.01597751
v -0.00956718 -0.0005448484 0.01180859
v -3.980174E-06 -0.002373447 0.008476893
v -0.00773999 -0.005169349 -0.02206631
v 0.00773203 -0.005404148 -0.02210551
v 0.00955926 -0.001210146 0.01169769
v -0.007446609 -0.01625425 -0.05103431
v 0.00743865 -0.01630905 -0.050999
v 0.0081457 -0.03398385 -0.0814596
v -0.00815365 -0.03358735 -0.0819276
v -0.00773999 -0.05115994 -0.1061496
v 0.00773203 -0.05163495 -0.1053426
v 0.00703402 -0.08226994 -0.1260436
v -0.00704197 -0.08233595 -0.1266196
v -3.980174E-06 0.06143719 0.01943236
v -0.00527565 0.06592433 -0.01147191
v 0.00526769 0.06591778 -0.01151151
v -0.00527565 0.06592433 -0.01147191
v -0.00518211 0.06583805 -0.01597751
v -0.00501498 0.07047755 -0.01299031
v -0.01200928 -0.02837074 -0.1031156
v -0.00815365 -0.03358735 -0.0819276
v -0.00773999 -0.05115994 -0.1061496
v -0.01349558 -0.07381095 -0.1404706
v -0.00704197 -0.08233595 -0.1266196
v -0.007446609 -0.01625425 -0.05103431
v -0.01200928 0.008858452 -0.0409377
v -0.00773999 -0.005169349 -0.02206631
v -0.01349848 0.01834535 0.01412058
v -0.00956718 -0.0005448484 0.01180859
v -0.00518211 0.06583805 -0.01597751
v -0.00527565 0.06592433 -0.01147191
v -0.01194028 0.05967197 -0.01303301
v -0.01200928 0.05553172 -0.03417511
v -3.980174E-06 0.0615839 -0.032725
v -0.01349848 0.06076982 0.01714384
v -3.980174E-06 0.06143719 0.01943236
v -3.980174E-06 0.04568945 -0.0706405
v -0.01200928 0.04432735 -0.0702264
v -0.01200928 0.02214395 -0.1124236
v -3.980174E-06 0.02297735 -0.1132426
v -0.01200928 -0.01029935 -0.1515166
v -3.980174E-06 -0.009608946 -0.1525776
v -3.980174E-06 -0.04123495 -0.1848126
v -0.01349558 -0.04792394 -0.1818266
v -0.01349848 0.01834535 0.01412058
v -3.980174E-06 0.01818135 0.01605778
v -0.00956718 -0.0005448484 0.01180859
v -3.980174E-06 -0.002373447 0.008476893
v 0.01348762 -0.07362195 -0.1394926
v -0.01349558 -0.07381095 -0.1404706
v 0.00703402 -0.08226994 -0.1260436
v -0.00704197 -0.08233595 -0.1266196
v -0.01349558 -0.04792394 -0.1818266
v 0.01348762 -0.04771695 -0.1828606
v -3.980174E-06 0.06143719 0.01943236
v 0.01349052 0.06065955 0.01702861
v -3.980174E-06 0.01818135 0.01605778
v 0.01349052 0.01744765 0.01397039
v 0.00526769 0.06591778 -0.01151151
v -0.00527565 0.06592433 -0.01147191
v 0.00500702 0.07047755 -0.01302741
v -0.00501498 0.07047755 -0.01299031
v 0.00517415 0.06583726 -0.01601561
v 0.00500702 0.07047755 -0.01302741
v -0.00518211 0.06583805 -0.01597751
v -0.00501498 0.07047755 -0.01299031
v -3.980174E-06 0.06143719 0.01943236
v -3.980174E-06 0.01818135 0.01605778
v -0.01349848 0.06076982 0.01714384
v -0.01349848 0.01834535 0.01412058
vt 0.720369 0.490326
vt 0.846766 0.566614
vt 0.846766 0.414218
vt 0.720369 0.717931
vt 0.846766 0.717931
vt 0.846766 0.304617
vt 0.720369 0.216713
vt 0.846766 0.182569
vt 0.720369 0.015555
vt 0.846766 0.015555
vt 0.0245051 0.783327
vt 0.404736 0.672092
vt 0.0245051 0.572372
vt 0.0245051 0.379107
vt 0.404736 0.302455
vt 0.0245051 0.226557
vt 0.0245051 0.137746
vt 0.404736 0.984366
vt 0.0245051 0.984366
vt 0.404736 0.0156509
vt 0.0245051 0.0156509
vt 0.544952 0.841396
vt 0.42656 0.862271
vt 0.544952 0.859466
vt 0.42656 0.77346
vt 0.544952 0.768875
vt 0.544952 0.606608
vt 0.42656 0.620909
vt 0.42656 0.427645
vt 0.544952 0.407777
vt 0.42656 0.216689
vt 0.544952 0.196108
vt 0.544952 0.0156509
vt 0.42656 0.0156509
vt 0.42656 0.984366
vt 0.544952 0.984366
vt 0.972027 0.965999
vt 0.913064 0.985576
vt 0.972027 0.985576
vt 1.02451 0.783327
vt 1.02451 0.572372
vt 1.40474 0.672092
vt 1.40474 0.984366
vt 1.02451 0.984366
vt 1.02451 0.379107
vt 1.40474 0.302455
vt 1.02451 0.226557
vt 1.02451 0.137746
vt 1.40474 0.0156509
vt 1.02451 0.0156509
vt 0.977109 0.543077
vt 0.977109 0.431727
vt 0.868352 0.543077
vt 0.868352 0.431727
vt 0.850244 0.985053
vt 0.975801 0.958222
vt 0.724687 0.958222
vt 0.977109 0.695908
vt 0.875897 0.556945
vt 0.977109 0.556945
vt 0.698083 0.0147785
vt 0.631907 0.0147785
vt 0.698083 0.193675
vt 0.565732 0.193676
vt 0.565732 0.0147785
vt 0.698085 0.373192
vt 0.565734 0.373192
vt 0.565736 0.557847
vt 0.698086 0.557847
vt 0.698088 0.760442
vt 0.565738 0.760443
vt 0.56574 0.983733
vt 0.69809 0.983732
vt 0.868621 0.565861
vt 0.868621 0.717741
vt 0.971662 0.717741
vt 0.71755 0.985925
vt 0.779034 0.985925
vt 0.71755 0.965013
vt 1.72037 0.490326
vt 1.84677 0.414218
vt 1.84677 0.566614
vt 1.72037 0.717931
vt 1.84677 0.717931
vt 1.84677 0.304617
vt 1.72037 0.216713
vt 1.84677 0.182569
vt 1.72037 0.015555
vt 1.84677 0.015555
vt 1.54495 0.841396
vt 1.54495 0.859466
vt 1.42656 0.862271
vt 1.42656 0.77346
vt 1.54495 0.768875
vt 1.42656 0.984366
vt 1.54495 0.984366
vt 1.54495 0.606608
vt 1.42656 0.620909
vt 1.42656 0.427645
vt 1.54495 0.407777
vt 1.42656 0.216689
vt 1.54495 0.196108
vt 1.54495 0.0156509
vt 1.42656 0.0156509
vt 1.97711 0.543077
vt 1.86835 0.543077
vt 1.97711 0.431727
vt 1.86835 0.431727
vt 0.724688 0.781424
vt 0.975802 0.781424
vt 0.724688 0.728588
vt 0.975802 0.728588
vt 0.975801 0.953735
vt 0.724687 0.953734
vt 0.977109 0.0166202
vt 0.868139 0.0166202
vt 0.977109 0.2616
vt 0.868139 0.2616
vt 0.977109 0.41736
vt 0.977109 0.354183
vt 0.870234 0.41736
vt 0.870234 0.354183
vt 0.870234 0.339361
vt 0.977109 0.339361
vt 0.870234 0.274852
vt 0.977109 0.274852
vt 1.97711 0.0166202
vt 1.97711 0.2616
vt 1.86814 0.0166202
vt 1.86814 0.2616
vn 0.9639485 -0.2060361 0.1683812
vn 0.9427538 -0.2123216 0.257167
vn 0.9718753 -0.1941898 0.1332253
vn 0.9280353 -0.2218326 0.2992335
vn 0.9270018 -0.2242619 0.3006234
vn 0.9671591 -0.2223341 0.1231698
vn 0.9704011 -0.2310076 0.07040721
vn 0.9701521 -0.2410853 0.02613399
vn 0.9743964 -0.2244392 -0.01336657
vn 0.9788147 -0.2028604 -0.02774064
vn 0.9998291 0.01663333 0.008073791
vn 0.9999527 0.009091469 0.003486147
vn 1 0 0
vn 1 0 0
vn 0.9999624 0.004524132 -0.007389853
vn 0.9999977 -0.0003028446 0.002117319
vn 0.9995858 0.007513878 -0.02778211
vn 0.9995834 0.02591143 0.01271282
vn 0.9995234 0.02650019 0.01582936
vn 0.9992087 0.01268072 -0.03769914
vn 0.9986562 0.003658603 -0.05169516
vn 0.6433322 0.7527031 -0.1398627
vn 0.690298 0.7178469 -0.0904672
vn 0.6166606 0.787043 -0.01711745
vn 0.4230966 0.8477238 -0.3199275
vn 0.4019069 0.8473131 -0.3471764
vn 0.1629456 0.9084674 -0.3848841
vn 0.1364985 0.9152235 -0.3791228
vn 0.1068806 0.8262509 -0.5530697
vn 0.1047619 0.8251536 -0.5551093
vn 0.1387202 0.7305045 -0.6686702
vn 0.111212 0.7375695 -0.6660504
vn 0.3516387 0.6209909 -0.7005144
vn 0.3900325 0.6019852 -0.69677
vn 0.1953173 0.9729977 0.1229909
vn 0.08465136 0.9839802 0.1568988
vn 0.9985204 0.04989216 -0.02162889
vn 0.9985204 0.04989216 -0.02162889
vn 0.9985204 0.04989216 -0.02162889
vn -0.9998323 0.01644442 0.008055963
vn -1 0 0
vn -0.9999548 0.008904018 0.003324477
vn -0.9995891 0.0256261 0.01284313
vn -0.9995204 0.02624838 0.01643031
vn -1 0 0
vn -0.9999627 0.004529521 -0.007363355
vn -0.9999977 -0.0003061056 0.002112641
vn -0.9995866 0.007623955 -0.02771928
vn -0.9992 0.01277567 -0.03789474
vn -0.9986558 0.003684271 -0.05170024
vn 0.1432166 -0.1493496 0.9783577
vn -0.131387 -0.2787018 0.9513478
vn 0.0176024 -0.2110636 0.9773138
vn -0.2641627 -0.333738 0.9048961
vn -0.03316976 -0.3508597 -0.9358404
vn -0.03316976 -0.3508598 -0.9358404
vn -0.03316975 -0.3508598 -0.9358404
vn -0.0008327297 0.9691576 -0.24644
vn -0.0008327296 0.9691576 -0.24644
vn -0.0008327296 0.9691576 -0.24644
vn -0.1436992 -0.9815359 0.1262453
vn -0.03001634 -0.9923832 0.1194764
vn -0.02662219 -0.9732956 0.2280062
vn -0.003852658 -0.9737386 0.2276363
vn 0.08049955 -0.9896926 0.1184409
vn -0.009938174 -0.903694 0.4280637
vn -0.004342819 -0.9032244 0.4291468
vn -0.03490995 -0.8400113 0.5414448
vn -0.03595205 -0.8413123 0.5393524
vn -0.05234136 -0.6908188 0.7211309
vn -0.05876327 -0.6925147 0.7190066
vn -0.03870969 -0.5513177 0.8333969
vn -0.03160125 -0.549078 0.8351734
vn 0.001154741 0.9896504 0.1434951
vn 0.001154741 0.9896504 0.1434951
vn 0.001154741 0.9896504 0.1434951
vn -0.9985171 0.04993286 -0.02168622
vn -0.9985171 0.04993285 -0.02168622
vn -0.9985171 0.04993285 -0.02168622
vn -0.9647086 -0.2050302 0.1652271
vn -0.9725056 -0.1936999 0.1292791
vn -0.9426768 -0.2113955 0.25821
vn -0.9294459 -0.2165067 0.298756
vn -0.9291301 -0.2172533 0.2991958
vn -0.9679748 -0.2206886 0.1196717
vn -0.9706827 -0.2297226 0.07072939
vn -0.9705089 -0.2393592 0.02863094
vn -0.9749084 -0.2223513 -0.0106524
vn -0.9793231 -0.2006983 -0.02542532
vn -0.6385567 0.7572415 -0.1372243
vn -0.6129621 0.7899032 -0.01817847
vn -0.6869136 0.7213917 -0.08799828
vn -0.4108348 0.8539097 -0.3194575
vn -0.3884972 0.8537172 -0.346752
vn -0.1865308 0.9748452 0.1219971
vn -0.07513512 0.9849234 0.1558224
vn -0.1445582 0.9106203 -0.387135
vn -0.1172011 0.9172699 -0.3806307
vn -0.09699666 0.8272237 -0.5534372
vn -0.0955181 0.8258504 -0.5557405
vn -0.1356484 0.7296996 -0.6701776
vn -0.1013894 0.738296 -0.6668127
vn -0.3914759 0.5994717 -0.6981263
vn -0.437864 0.574436 -0.6915911
vn -0.1422823 -0.1493693 0.9784909
vn -0.0226509 -0.2102142 0.977393
vn 0.1253058 -0.2799655 0.9517971
vn 0.2522686 -0.334838 0.9078788
vn 0.01827036 -0.8490247 -0.5280371
vn 0.02528388 -0.8468519 -0.5312274
vn 0.02539971 -0.8461828 -0.5322871
vn 0.02576356 -0.8459367 -0.5326605
vn -0.001199034 -0.8551686 -0.5183486
vn -0.01306388 -0.8584293 -0.5127655
vn 0.1705696 -0.07663832 0.9823607
vn 0.1664437 -0.07534603 0.9831681
vn 0.1529489 -0.07111622 0.9856719
vn 0.1487855 -0.0698103 0.9864023
vn 0.003760387 0.3156646 0.9488634
vn 0.003583588 0.3160233 0.9487447
vn 0.003693612 0.3158 0.9488185
vn 0.003511968 0.3161685 0.9486965
vn -0.003051906 0.5413383 -0.8407993
vn -0.003070629 0.5413675 -0.8407806
vn -0.00309286 0.541402 -0.8407581
vn -0.003112319 0.5414324 -0.8407385
vn -0.1630186 -0.07673767 0.9836342
vn -0.146638 -0.07162283 0.9865938
vn -0.1591408 -0.07552754 0.9843626
vn -0.1425837 -0.07035567 0.9872791
g mag_ak_izhmash_ak103_std_762x39_30_LOD1_0
f 3/3/3 2/2/2 1/1/1
f 2/2/2 4/4/4 1/1/1
f 4/4/4 2/2/2 5/5/5
f 6/6/6 3/3/3 1/1/1
f 6/6/6 1/1/1 7/7/7
f 8/8/8 6/6/6 7/7/7
f 9/9/9 8/8/8 7/7/7
f 8/8/8 9/9/9 10/10/10
f 13/13/13 12/12/12 11/11/11
f 14/14/14 12/12/12 13/13/13
f 15/15/15 12/12/12 14/14/14
f 16/16/16 15/15/15 14/14/14
f 17/17/17 15/15/15 16/16/16
f 18/18/18 11/11/11 12/12/12
f 11/11/11 18/18/18 19/19/19
f 17/17/17 20/20/20 15/15/15
f 20/20/20 17/17/17 21/21/21
f 24/24/24 23/23/23 22/22/22
f 23/23/23 25/25/25 22/22/22
f 26/26/26 22/22/22 25/25/25
f 25/25/25 27/27/27 26/26/26
f 27/27/27 25/25/25 28/28/28
f 29/29/29 27/27/27 28/28/28
f 27/27/27 29/29/29 30/30/30
f 31/31/31 30/30/30 29/29/29
f 30/30/30 31/31/31 32/32/32
f 31/31/31 33/33/33 32/32/32
f 33/33/33 31/31/31 34/34/34
f 24/24/24 35/35/35 23/23/23
f 35/35/35 24/24/24 36/36/36
f 39/39/39 38/38/38 37/37/37
f 42/42/42 41/41/41 40/40/40
f 40/40/40 43/43/43 42/42/42
f 43/43/43 40/40/40 44/44/44
f 41/41/41 42/42/42 45/45/45
f 42/42/42 46/46/46 45/45/45
f 46/46/46 47/47/47 45/45/45
f 46/46/46 48/48/48 47/47/47
f 49/49/49 48/48/48 46/46/46
f 48/48/48 49/49/49 50/50/50
f 53/53/53 52/52/52 51/51/51
f 52/52/52 53/53/53 54/54/54
f 57/57/57 56/56/56 55/55/55
f 60/60/60 59/59/59 58/58/58
f 63/63/63 62/62/62 61/61/61
f 63/63/63 64/64/64 62/62/62
f 62/62/62 64/64/64 65/65/65
f 66/66/66 64/64/64 63/63/63
f 64/64/64 66/66/66 67/67/67
f 66/66/66 68/68/68 67/67/67
f 68/68/68 66/66/66 69/69/69
f 70/70/70 68/68/68 69/69/69
f 68/68/68 70/70/70 71/71/71
f 70/70/70 72/72/72 71/71/71
f 72/72/72 70/70/70 73/73/73
f 76/76/76 75/75/75 74/74/74
f 79/79/79 78/78/78 77/77/77
f 82/82/82 81/81/81 80/80/80
f 83/83/83 82/82/82 80/80/80
f 82/82/82 83/83/83 84/84/84
f 81/81/81 85/85/85 80/80/80
f 85/85/85 86/86/86 80/80/80
f 85/85/85 87/87/87 86/86/86
f 87/87/87 88/88/88 86/86/86
f 88/88/88 87/87/87 89/89/89
f 92/92/92 91/91/91 90/90/90
f 92/92/92 90/90/90 93/93/93
f 94/94/94 93/93/93 90/90/90
f 95/95/95 91/91/91 92/92/92
f 91/91/91 95/95/95 96/96/96
f 97/97/97 93/93/93 94/94/94
f 93/93/93 97/97/97 98/98/98
f 97/97/97 99/99/99 98/98/98
f 99/99/99 97/97/97 100/100/100
f 100/100/100 101/101/101 99/99/99
f 101/101/101 100/100/100 102/102/102
f 103/103/103 101/101/101 102/102/102
f 101/101/101 103/103/103 104/104/104
f 107/107/107 106/106/106 105/105/105
f 106/106/106 107/107/107 108/108/108
f 111/111/111 110/110/110 109/109/109
f 110/110/110 111/111/111 112/112/112
f 113/113/113 109/109/109 110/110/110
f 109/109/109 113/113/113 114/114/114
f 117/117/117 116/116/116 115/115/115
f 116/116/116 117/117/117 118/118/118
f 121/121/121 120/120/120 119/119/119
f 120/120/120 121/121/121 122/122/122
f 125/125/125 124/124/124 123/123/123
f 124/124/124 125/125/125 126/126/126
f 129/129/129 128/128/128 127/127/127
f 128/128/128 129/129/129 130/130/130
