g mag_vpo215_molot_vpo_215_366tkm_4_LOD1
v 0.007595864 -0.03716373 -0.02715232
v 0.01218003 -0.04314672 -0.02275245
v 0.01216875 0.01762437 -0.02551976
v 0.007595864 0.008885157 -0.0293919
v -0.007782973 0.008885157 -0.0293919
v -0.007782973 -0.03716373 -0.02715232
v 0.007595864 -0.03716373 -0.02715232
v 0.007595864 0.008885157 -0.0293919
v -0.007782973 -0.03716373 -0.02715232
v -0.007782973 0.008885157 -0.0293919
v -0.01235586 0.01762437 -0.02551976
v -0.01236714 -0.04314672 -0.02275245
v -0.01236714 -0.04314672 -0.02275245
v -0.01235586 0.01762437 -0.02551976
v -0.01236714 0.01517104 0.01021648
v -0.01236714 -0.01749315 0.01021647
v -0.008698714 -0.01749315 0.01657388
v -0.008698714 0.01482428 0.0159275
v -0.01236714 -0.04314689 0.01021645
v -0.01236714 0.01762344 0.01021648
v -0.01538943 -0.04225411 -0.01952697
v -0.0119666 -0.0458273 -0.01934347
v -0.0119666 -0.04595562 -0.02248999
v -0.01538943 -0.04227091 -0.02267319
v -0.01538943 0.02388131 -0.02279468
v -0.01538943 0.02386447 -0.02595051
v -0.0119666 0.02757826 -0.02297734
v -0.0119666 0.02757826 -0.02613455
v 0.008511605 0.01482428 0.0159275
v -0.008698714 0.01482428 0.0159275
v -0.01236714 0.01517104 0.01021648
v 0.01218003 0.01517104 0.01021648
v 0.01520232 -0.04225411 -0.01952697
v 0.01520232 0.02388131 -0.02279468
v 0.01520232 0.02386447 -0.02595051
v 0.01520232 -0.04227091 -0.02267319
v 0.01177948 -0.04595562 -0.02248999
v 0.01177948 -0.0458273 -0.01934347
v 0.01177948 0.02757826 -0.02297734
v 0.01177948 0.02757826 -0.02613455
v 0.01218003 0.01517104 0.01021648
v 0.01218003 -0.01749315 0.01021647
v 0.008511605 -0.01749315 0.01657388
v 0.008511605 0.01482428 0.0159275
v 0.01218003 -0.04314672 -0.02275245
v 0.01216875 0.01762437 -0.02551976
v 0.01218003 -0.04314689 0.01021645
v 0.01218003 0.01762344 0.01021648
v -0.008698714 -0.01749315 0.01657388
v -0.008698714 0.01482428 0.0159275
v 0.008511605 0.01482428 0.0159275
v 0.008511605 -0.01749315 0.01657388
v 0.007595864 -0.03716373 -0.02715232
v -0.007782973 -0.03716373 -0.02715232
v -0.01236714 -0.04314672 -0.02275245
v 0.01218003 -0.04314672 -0.02275245
v -0.0119666 -0.0458273 -0.01934347
v 0.01177948 -0.0458273 -0.01934347
v 0.01177948 -0.04595562 -0.02248999
v -0.0119666 -0.04595562 -0.02248999
v -0.01236714 -0.01749315 0.01021647
v -0.008698714 -0.01749315 0.01657388
v 0.008511605 -0.01749315 0.01657388
v 0.01218003 -0.01749315 0.01021647
v 0.01218003 -0.04314689 0.01021645
v 0.01218003 -0.04314672 -0.02275245
v -0.01236714 -0.04314672 -0.02275245
v -0.01236714 -0.04314689 0.01021645
v -0.01236714 -0.04314689 0.01021645
v -0.01236714 -0.01749315 0.01021647
v 0.01218003 -0.01749315 0.01021647
v 0.01218003 -0.04314689 0.01021645
v -0.01235586 0.01762437 -0.02551976
v 0.01216875 0.01762437 -0.02551976
v 0.01218003 0.01762344 0.01021648
v -0.01236714 0.01762344 0.01021648
v -0.01235586 0.01762437 -0.02551976
v -0.007782973 0.008885157 -0.0293919
v 0.007595864 0.008885157 -0.0293919
v 0.01216875 0.01762437 -0.02551976
v -0.0119666 0.02757826 -0.02613455
v 0.01177948 0.02757826 -0.02613455
v 0.01177948 0.02757826 -0.02297734
v -0.0119666 0.02757826 -0.02297734
v -0.01538943 -0.04225411 -0.01952697
v -0.01538943 0.02388131 -0.02279468
v 0.01520232 0.02388131 -0.02279468
v 0.01520232 -0.04225411 -0.01952697
v 0.01177948 0.02757826 -0.02297734
v -0.0119666 0.02757826 -0.02297734
v 0.01177948 -0.0458273 -0.01934347
v -0.0119666 -0.0458273 -0.01934347
v -0.0119666 -0.04595562 -0.02248999
v 0.01177948 -0.04595562 -0.02248999
v 0.01520232 -0.04227091 -0.02267319
v -0.01538943 -0.04227091 -0.02267319
v -0.01538943 0.02386447 -0.02595051
v 0.01520232 0.02386447 -0.02595051
v -0.0119666 0.02757826 -0.02613455
v 0.01177948 0.02757826 -0.02613455
v -0.01236714 0.01517104 0.01021648
v -0.01236714 0.01762344 0.01021648
v 0.01218003 0.01762344 0.01021648
v 0.01218003 0.01517104 0.01021648
vt 0.2184807 0.9062811
vt 0.1785732 0.9462211
vt 0.5714179 0.9462213
vt 0.5161992 0.9062812
vt 0.8738571 0.3450106
vt 0.8738571 0.7070101
vt 0.9946103 0.7070101
vt 0.9946104 0.3450106
vt 0.2184669 0.9921334
vt 0.5161853 0.9921335
vt 0.5714179 0.952314
vt 0.1785726 0.9523139
vt 0.4850698 0.02489196
vt 0.01107896 0.003308463
vt 0.03021404 0.2820368
vt 0.2849819 0.2820368
vt 0.2849954 0.3392849
vt 0.03291861 0.3349783
vt 0.4850708 0.2820369
vt 0.01108624 0.282037
vt 0.04245907 0.8752243
vt 0.003941942 0.8752243
vt 0.003941942 0.899516
vt 0.04245907 0.899516
vt 0.5533944 0.8752243
vt 0.5533944 0.899516
vt 0.5923412 0.8752243
vt 0.5923412 0.899516
vt 0.7178401 0.9503387
vt 0.582751 0.950314
vt 0.553948 0.995219
vt 0.7466268 0.9952544
vt 0.553824 0.8450436
vt 0.04288854 0.8450436
vt 0.04288854 0.8693351
vt 0.553824 0.8693351
vt 0.5923411 0.8693351
vt 0.5923411 0.8450436
vt 0.003941942 0.8450436
vt 0.003941942 0.8693351
vt 0.9501362 0.2820365
vt 0.6953685 0.2820368
vt 0.6953548 0.3392852
vt 0.9474316 0.3349782
vt 0.4952803 0.0248925
vt 0.9692711 0.003308463
vt 0.495279 0.2820369
vt 0.969264 0.2820368
vt 0.9883531 0.9697528
vt 0.9883531 0.715824
vt 0.8531529 0.715824
vt 0.853153 0.9697528
vt 0.6339375 0.2877502
vt 0.5254904 0.2877502
vt 0.4931706 0.3401248
vt 0.6662703 0.3401249
vt 0.483016 0.3210449
vt 0.2965313 0.3210449
vt 0.2965313 0.3457758
vt 0.483016 0.3457758
vt 0.6481369 0.7435412
vt 0.5981896 0.7723625
vt 0.5981896 0.9075763
vt 0.6481369 0.9363974
vt 0.587688 0.7374783
vt 0.84671 0.7374783
vt 0.84671 0.5446221
vt 0.587688 0.5446224
vt 0.8468392 0.9444393
vt 0.8468392 0.7428892
vt 0.6539832 0.7428892
vt 0.6539832 0.9444393
vt 0.587688 0.3456011
vt 0.587688 0.5383686
vt 0.8684515 0.5383686
vt 0.8684515 0.3456011
vt 0.003941942 0.9057906
vt 0.03830795 0.9775913
vt 0.1538378 0.9775913
vt 0.1881773 0.9057906
vt 0.2961276 0.3145412
vt 0.4826895 0.3145412
vt 0.4826895 0.2897364
vt 0.2961276 0.2897364
vt 0.5528333 0.598596
vt 0.03291849 0.5985959
vt 0.03291849 0.8387944
vt 0.5528333 0.8387945
vt 0.003941942 0.8118974
vt 0.003941942 0.6254489
vt 0.5820193 0.8119413
vt 0.5820193 0.6254933
vt 0.003941961 0.3799625
vt 0.003941942 0.5664104
vt 0.03291849 0.5933151
vt 0.03291851 0.3531171
vt 0.5528333 0.3531171
vt 0.5528333 0.5933151
vt 0.5820193 0.380022
vt 0.5820193 0.5664698
vt 0.9511497 0.9952544
vt 0.9511497 0.975987
vt 0.7582934 0.975987
vt 0.7582934 0.9952544
vn 0.6756349 -0.03442786 -0.736432
vn 0.6756349 -0.03442786 -0.736432
vn 0.6756343 -0.03445167 -0.7364314
vn 0.6756343 -0.03445167 -0.7364314
vn 0 -0.04858913 -0.9988188
vn 0 -0.04858913 -0.9988188
vn 0 -0.04858913 -0.9988188
vn 0 -0.04858913 -0.9988188
vn -0.6756317 -0.03442801 -0.7364351
vn -0.6756311 -0.03445182 -0.7364344
vn -0.6756343 -0.03445167 -0.7364314
vn -0.6756349 -0.03442786 -0.736432
vn -1 9.536753E-05 -0.0001430513
vn -1 0.0001192094 -0.0001907351
vn -0.9845819 0.001788133 0.1749152
vn -0.9838507 0.001859673 0.1789816
vn -0.8544044 0.005149815 0.519583
vn -0.8544149 0.00517372 0.5195655
vn -1 0 0
vn -1 0 -0.0003099445
vn -0.9257906 -0.377936 0.008726002
vn -0.7277979 -0.6856089 0.01583128
vn -0.7277979 -0.6856089 0.01583128
vn -0.9329822 -0.359827 0.008297096
vn -0.9347002 0.355436 -0.0009536785
vn -0.9277609 0.3731738 -0.001001361
vn -0.7346103 0.6784869 -0.001811969
vn -0.7346103 0.6784869 -0.001811969
vn 0 0.9981617 0.06060591
vn 0 0.9981617 0.06060591
vn 0 0.9981617 0.06060591
vn 0 0.9981617 0.06060591
vn 0.9257906 -0.377936 0.008726002
vn 0.9347002 0.355436 -0.0009536785
vn 0.9277609 0.3731738 -0.001001361
vn 0.9329822 -0.359827 0.008297096
vn 0.7277979 -0.6856089 0.01583128
vn 0.7277979 -0.6856089 0.01583128
vn 0.7346103 0.6784869 -0.001811969
vn 0.7346103 0.6784869 -0.001811969
vn 0.9845819 0.001788133 0.1749152
vn 0.9838507 0.001859673 0.1789816
vn 0.8544044 0.005149815 0.519583
vn 0.8544149 0.00517372 0.5195655
vn 1 9.536753E-05 -0.0001430513
vn 1 0.0001192094 -0.0001907351
vn 1 0 0
vn 1 0 -0.0003099445
vn 0 0.01997932 0.9998004
vn 0 0.02000363 0.9997999
vn 0 0.02000363 0.9997999
vn 0 0.01997932 0.9998004
vn 0 -0.5924277 -0.8056236
vn 0 -0.5924277 -0.8056236
vn 0 -0.5924277 -0.8056236
vn 0 -0.5924277 -0.8056236
vn 0 -0.9991685 0.04076974
vn 0 -0.9991685 0.04076974
vn 0 -0.9991685 0.04076974
vn 0 -0.9991685 0.04076974
vn 0 -1 -1.192066E-05
vn 0 -1 0
vn 0 -1 0
vn 0 -1 -1.192066E-05
vn 0 -1 0
vn 0 -1 0
vn 0 -1 0
vn 0 -1 0
vn 0 0 1
vn 0 0 1
vn 0 0 1
vn 0 0 1
vn 0 1 4.768376E-05
vn 0 1 4.768376E-05
vn 0 1 2.384188E-05
vn 0 1 2.384188E-05
vn 0 0.4050919 -0.9142759
vn 0 0.4050919 -0.9142759
vn 0 0.4050919 -0.9142759
vn 0 0.4050919 -0.9142759
vn 0 1 0
vn 0 1 0
vn 0 1 0
vn 0 1 0
vn 0 0.04997329 0.9987506
vn 0 0.04935256 0.9987814
vn 0 0.04935256 0.9987814
vn 0 0.04997329 0.9987506
vn 0 0.04935256 0.9987814
vn 0 0.04935256 0.9987814
vn 0 0.05130865 0.9986828
vn 0 0.05130865 0.9986828
vn 0 -0.04968552 -0.9987649
vn 0 -0.04968552 -0.9987649
vn 0 -0.04959039 -0.9987696
vn 0 -0.04959039 -0.9987696
vn 0 -0.04949526 -0.9987743
vn 0 -0.04949526 -0.9987743
vn 0 -0.04949526 -0.9987743
vn 0 -0.04949526 -0.9987743
vn 0 0 1
vn 0 0 1
vn 0 0 1
vn 0 0 1
g mag_vpo215_molot_vpo_215_366tkm_4_LOD1_0
f 3/3/3 2/2/2 1/1/1
f 4/4/4 3/3/3 1/1/1
f 7/7/7 6/6/6 5/5/5
f 8/8/8 7/7/7 5/5/5
f 11/11/11 10/10/10 9/9/9
f 12/12/12 11/11/11 9/9/9
f 15/15/15 14/14/14 13/13/13
f 16/16/16 15/15/15 13/13/13
f 15/15/15 16/16/16 17/17/17
f 18/18/18 15/15/15 17/17/17
f 16/16/16 13/13/13 19/19/19
f 15/15/15 20/20/20 14/14/14
f 23/23/23 22/22/22 21/21/21
f 24/24/24 23/23/23 21/21/21
f 24/24/24 21/21/21 25/25/25
f 26/26/26 24/24/24 25/25/25
f 25/25/25 27/27/27 26/26/26
f 27/27/27 28/28/28 26/26/26
f 31/31/31 30/30/30 29/29/29
f 32/32/32 31/31/31 29/29/29
f 35/35/35 34/34/34 33/33/33
f 36/36/36 35/35/35 33/33/33
f 36/36/36 33/33/33 37/37/37
f 33/33/33 38/38/38 37/37/37
f 34/34/34 35/35/35 39/39/39
f 35/35/35 40/40/40 39/39/39
f 43/43/43 42/42/42 41/41/41
f 44/44/44 43/43/43 41/41/41
f 42/42/42 45/45/45 41/41/41
f 45/45/45 46/46/46 41/41/41
f 42/42/42 47/47/47 45/45/45
f 46/46/46 48/48/48 41/41/41
f 51/51/51 50/50/50 49/49/49
f 52/52/52 51/51/51 49/49/49
f 55/55/55 54/54/54 53/53/53
f 56/56/56 55/55/55 53/53/53
f 59/59/59 58/58/58 57/57/57
f 60/60/60 59/59/59 57/57/57
f 63/63/63 62/62/62 61/61/61
f 64/64/64 63/63/63 61/61/61
f 67/67/67 66/66/66 65/65/65
f 68/68/68 67/67/67 65/65/65
f 71/71/71 70/70/70 69/69/69
f 72/72/72 71/71/71 69/69/69
f 75/75/75 74/74/74 73/73/73
f 76/76/76 75/75/75 73/73/73
f 79/79/79 78/78/78 77/77/77
f 80/80/80 79/79/79 77/77/77
f 83/83/83 82/82/82 81/81/81
f 84/84/84 83/83/83 81/81/81
f 87/87/87 86/86/86 85/85/85
f 88/88/88 87/87/87 85/85/85
f 87/87/87 89/89/89 86/86/86
f 89/89/89 90/90/90 86/86/86
f 91/91/91 88/88/88 85/85/85
f 92/92/92 91/91/91 85/85/85
f 95/95/95 94/94/94 93/93/93
f 96/96/96 95/95/95 93/93/93
f 96/96/96 97/97/97 95/95/95
f 97/97/97 98/98/98 95/95/95
f 97/97/97 99/99/99 98/98/98
f 99/99/99 100/100/100 98/98/98
f 103/103/103 102/102/102 101/101/101
f 104/104/104 103/103/103 101/101/101
