g mag_vss_tochmash_6L24_9x39_10_LOD1
v -0.0119112 -0.02182331 -0.08137472
v 0.0119112 -0.02182331 -0.08137472
v 0.0119112 0.04501878 -0.1003337
v -0.0119112 0.04501878 -0.1003337
v -0.009371319 0.005148326 0.01743953
v -0.009371319 0.07101288 0.009314747
v 0.009371321 0.07101288 0.009314747
v 0.009371319 0.005148326 0.01743953
v -0.0119112 -0.02182331 -0.08137472
v -0.009371319 0.005148326 0.01743953
v 0.009371319 0.005148326 0.01743953
v 0.0119112 -0.02182331 -0.08137472
v 0.0119112 -0.02182331 -0.08137472
v 0.009371319 0.005148326 0.01743953
v 0.009371321 0.07101288 0.009314747
v 0.0119112 0.04501878 -0.1003337
v 0.0119112 0.04501878 -0.1003337
v 0.009371321 0.07101288 0.009314747
v -0.009371319 0.07101288 0.009314747
v -0.0119112 0.04501878 -0.1003337
v -0.0119112 0.04501878 -0.1003337
v -0.009371319 0.07101288 0.009314747
v -0.009371319 0.005148326 0.01743953
v -0.0119112 -0.02182331 -0.08137472
vt 0.007508337 0.8162183
vt 0.007508457 0.9891917
vt 0.5119917 0.9891917
vt 0.5119917 0.8162181
vt 0.538801 0.9834486
vt 0.9898013 0.9834484
vt 0.989801 0.8560758
vt 0.5388009 0.8560759
vt 0.01336623 0.008803403
vt 0.03180841 0.7525377
vt 0.1678979 0.7525375
vt 0.1863399 0.008803314
vt 0.4160993 0.03577373
vt 0.4408323 0.7910933
vt 0.9274529 0.8453274
vt 0.9282495 0.01391692
vt 0.366094 0.7884794
vt 0.3484378 0.005127513
vt 0.2181476 0.005127513
vt 0.2004916 0.7884794
vt 0.9282494 0.01391699
vt 0.9274529 0.8453273
vt 0.4408324 0.7910932
vt 0.4160993 0.03577376
vn 0 -0.272874 -0.9620498
vn 0 -0.272874 -0.9620498
vn 0 -0.272874 -0.9620498
vn 0 -0.272874 -0.9620498
vn 0 0.1224279 0.9924774
vn 0 0.1224279 0.9924774
vn 0 0.1224279 0.9924774
vn 0 0.1224279 0.9924774
vn 0 -0.9647086 0.26332
vn 0 -0.9647086 0.26332
vn 0 -0.9647086 0.26332
vn 0 -0.9647086 0.26332
vn 0.9997205 0.004726641 0.02315994
vn 0.9997205 0.004726641 0.02315994
vn 0.9997205 0.004726641 0.02315994
vn 0.9997205 0.004726641 0.02315994
vn 0 0.9730311 -0.2306742
vn 0 0.9730311 -0.2306742
vn 0 0.9730311 -0.2306742
vn 0 0.9730311 -0.2306742
vn -0.9997205 0.004726656 0.02315995
vn -0.9997205 0.004726655 0.02315995
vn -0.9997205 0.004726655 0.02315995
vn -0.9997205 0.004726655 0.02315995
g mag_vss_tochmash_6L24_9x39_10_LOD1_0
f 3/3/3 2/2/2 1/1/1
f 4/4/4 3/3/3 1/1/1
f 7/7/7 6/6/6 5/5/5
f 8/8/8 7/7/7 5/5/5
f 11/11/11 10/10/10 9/9/9
f 12/12/12 11/11/11 9/9/9
f 15/15/15 14/14/14 13/13/13
f 16/16/16 15/15/15 13/13/13
f 19/19/19 18/18/18 17/17/17
f 20/20/20 19/19/19 17/17/17
f 23/23/23 22/22/22 21/21/21
f 24/24/24 23/23/23 21/21/21
