g mag_sr1mp_tochmash_std_9x21_18_LOD1
v -0.003425157 -0.003007189 -0.08294185
v 0.004594406 -0.003007189 -0.08294185
v 0.01353649 0.004198387 -0.0832977
v -0.01253708 0.004198387 -0.0832977
v 0.01337528 0.04274718 -0.08110473
v -0.01237587 0.04274718 -0.08110473
v 0.00923224 -0.005380589 0.04311679
v -0.008232825 -0.005380589 0.0431168
v -0.009500281 0.001800598 0.04311541
v 0.01049971 0.001828493 0.04311633
v -0.002280603 -0.009081189 0.04311679
v 0.003449877 -0.009081189 0.04311679
v 0.004594406 -0.003007189 -0.08294185
v -0.003425157 -0.003007189 -0.08294185
v -0.002280603 0.006926285 -0.07191499
v 0.003449877 0.006926285 -0.07191499
v 0.01353649 0.004198387 -0.0832977
v 0.009455776 0.01044697 -0.07218266
v -0.01253708 0.004198387 -0.0832977
v -0.008456359 0.01045616 -0.07218321
v 0.01337528 0.04274718 -0.08110473
v 0.01353649 0.004198387 -0.0832977
v 0.009455776 0.01044697 -0.07218266
v 0.01177551 0.0413842 -0.07339516
v 0.01337528 0.04274718 -0.08110473
v 0.01177551 0.0413842 -0.07339516
v -0.01077608 0.0413842 -0.07339516
v -0.01237587 0.04274718 -0.08110473
v -0.009500277 0.02582041 0.04070513
v 0.01049972 0.02582041 0.04070513
v -0.006401197 0.0252775 0.04456775
v 0.007400639 0.0252775 0.04456775
v -0.01253708 0.004198387 -0.0832977
v -0.01237587 0.04274718 -0.08110473
v -0.01077608 0.0413842 -0.07339516
v -0.008456359 0.01045616 -0.07218321
v 0.003449877 0.006926285 -0.07191499
v -0.002280603 0.006926285 -0.07191499
v -0.002280603 -0.009081189 0.04311679
v 0.003449877 -0.009081189 0.04311679
v -0.008232825 -0.005380589 0.0431168
v -0.008456359 0.01045616 -0.07218321
v 0.00923224 -0.005380589 0.04311679
v 0.009455776 0.01044697 -0.07218266
v 0.01177551 0.0413842 -0.07339516
v 0.009455776 0.01044697 -0.07218266
v 0.01049971 0.001828493 0.04311633
v 0.01049972 0.02582041 0.04070513
v 0.00923224 -0.005380589 0.04311679
v -0.008456359 0.01045616 -0.07218321
v -0.01077608 0.0413842 -0.07339516
v -0.009500277 0.02582041 0.04070513
v -0.009500281 0.001800598 0.04311541
v -0.008232825 -0.005380589 0.0431168
v 0.007394989 0.004020113 0.04761222
v -0.006395556 0.004020112 0.04761222
v -0.006401197 0.0252775 0.04456775
v 0.007400639 0.0252775 0.04456775
v -0.009500277 0.02582041 0.04070513
v -0.006401197 0.0252775 0.04456775
v -0.006395556 0.004020112 0.04761222
v -0.009500281 0.001800598 0.04311541
v -0.009500281 0.001800598 0.04311541
v -0.006395556 0.004020112 0.04761222
v 0.007394989 0.004020113 0.04761222
v 0.01049971 0.001828493 0.04311633
v 0.01049971 0.001828493 0.04311633
v 0.007394989 0.004020113 0.04761222
v 0.007400639 0.0252775 0.04456775
v 0.01049972 0.02582041 0.04070513
vt 0.0179641 0.8939947
vt 0.006680493 0.9319413
vt 0.05249352 0.9904562
vt 0.05357129 0.8240706
vt 0.3013022 0.9893147
vt 0.301302 0.8250946
vt 0.3492546 0.8437163
vt 0.3492546 0.970693
vt 0.4021237 0.9799078
vt 0.4023289 0.8345013
vt 0.3220102 0.9274184
vt 0.3219833 0.8857912
vt 0.790301 0.8415406
vt 0.7162896 0.842694
vt 0.7298107 0.9357788
vt 0.7761871 0.9357254
vt 0.8616532 0.8787271
vt 0.8187862 0.9572005
vt 0.643588 0.8791216
vt 0.6861098 0.9573742
vt 0.008357011 0.007090841
vt 0.03196364 0.2887382
vt 0.1059873 0.2326367
vt 0.06634143 0.009412955
vt 0.9917502 0.2412556
vt 0.9347164 0.2529428
vt 0.9347164 0.4176943
vt 0.9917502 0.4293816
vt 0.09062453 0.4083737
vt 0.09062466 0.2622631
vt 0.06204963 0.3857332
vt 0.06204963 0.2849036
vt 0.03174603 0.3798339
vt 0.007560345 0.6613598
vt 0.06554895 0.6591139
vt 0.1054832 0.4360043
vt 0.9273868 0.7662026
vt 0.9274321 0.7175735
vt 0.008117763 0.7181011
vt 0.008232666 0.7656612
vt 0.007560345 0.672329
vt 0.9320458 0.670566
vt 0.007560345 0.8100971
vt 0.9320415 0.8118606
vt 0.06634143 0.009412955
vt 0.1059873 0.2326367
vt 0.9614735 0.1820205
vt 0.9199237 0.01035307
vt 0.9686401 0.2343136
vt 0.1054832 0.4360043
vt 0.06554895 0.6591139
vt 0.9191482 0.6592959
vt 0.9609515 0.4874767
vt 0.9681674 0.4353954
vt 0.4599012 0.8568186
vt 0.4599009 0.9575906
vt 0.6171977 0.9576319
vt 0.6171978 0.8567774
vt 0.9191482 0.6592959
vt 0.948061 0.6591858
vt 0.9917502 0.5080299
vt 0.9609515 0.4874767
vt 0.4147326 0.9839343
vt 0.4496725 0.9601117
vt 0.4496724 0.8542973
vt 0.4147398 0.830475
vt 0.9614735 0.1820205
vt 0.9923203 0.1617115
vt 0.9488358 0.01050118
vt 0.9199237 0.01035307
vn 0 -0.04932449 -0.9987828
vn 0 -0.04932449 -0.9987828
vn 0 0.02474289 -0.9996939
vn 0 0.02504688 -0.9996862
vn 0 0.05679645 -0.9983858
vn 0 0.05679645 -0.9983858
vn -1.815329E-05 9.628435E-05 1
vn -1.826158E-05 9.684347E-05 1
vn -2.427752E-05 0.0001279053 1
vn -2.427752E-05 0.0001279053 1
vn 6.167183E-07 -6.301163E-07 1
vn 6.167182E-07 -6.301163E-07 1
vn 0.2274639 -0.7222656 0.6531406
vn -0.224273 -0.7233205 0.6530766
vn -0.2595663 -0.7166656 0.6473141
vn 0.2643235 -0.7151155 0.6471034
vn 0.7322184 -0.4434596 0.5169137
vn 0.8159739 -0.3388031 0.4684006
vn -0.7289061 -0.446724 0.5187807
vn -0.813526 -0.3419987 0.4703323
vn 0.954351 -0.03383353 0.2967649
vn 0.7322184 -0.4434596 0.5169137
vn 0.8159739 -0.3388031 0.4684006
vn 0.954351 -0.03383353 0.2967648
vn 0 0.9847296 0.1740908
vn 0 0.9877737 0.1558945
vn 0 0.9877737 0.1558945
vn 0 0.9847296 0.1740908
vn 1.127348E-07 0.9906241 0.1366154
vn 1.127348E-07 0.9906241 0.1366154
vn 1.398605E-07 0.9902661 0.1391868
vn 1.398605E-07 0.9902661 0.1391868
vn -0.7289061 -0.446724 0.5187807
vn -0.9543429 -0.03384026 0.2967902
vn -0.9543429 -0.03384026 0.2967902
vn -0.813526 -0.3419987 0.4703323
vn 0.2771628 -0.951748 -0.1317446
vn -0.2710581 -0.9534684 -0.1320059
vn -0.2562753 -0.9574656 -0.132599
vn 0.2617555 -0.9560127 -0.1323768
vn -0.802707 -0.5909359 -0.0803507
vn -0.8795256 -0.4715994 -0.06347259
vn 0.8066224 -0.5856832 -0.07959592
vn 0.8821943 -0.4666829 -0.06277066
vn 0.9990938 -0.04242155 -0.003462116
vn 0.8821943 -0.4666829 -0.06277066
vn 0.993467 -0.1133254 -0.01343516
vn 0.9990938 -0.04242155 -0.003462116
vn 0.8066224 -0.5856832 -0.07959592
vn -0.8795256 -0.4715994 -0.06347259
vn -0.9990944 -0.04240701 -0.003467326
vn -0.9990944 -0.04240701 -0.003467326
vn -0.9934249 -0.1136871 -0.01349571
vn -0.802707 -0.5909359 -0.0803507
vn 0 0.1417728 0.9898992
vn 0 0.1417728 0.9898992
vn 0 0.1417728 0.9898992
vn 0 0.1417728 0.9898992
vn -0.8077356 0.07041625 0.5853245
vn -0.8077356 0.07041625 0.5853245
vn -0.8077356 0.07041626 0.5853245
vn -0.8077355 0.07041625 0.5853245
vn 0.0007292595 -0.897804 0.4403947
vn 0.0007292595 -0.897804 0.4403947
vn 0.0007292595 -0.897804 0.4403947
vn 0.0007292594 -0.897804 0.4403947
vn 0.8075976 0.07049306 0.5855057
vn 0.8075975 0.07049307 0.5855058
vn 0.8075975 0.07049307 0.5855058
vn 0.8075975 0.07049307 0.5855058
g mag_sr1mp_tochmash_std_9x21_18_LOD1_0
f 3/3/3 2/2/2 1/1/1
f 4/4/4 3/3/3 1/1/1
f 5/5/5 3/3/3 4/4/4
f 6/6/6 5/5/5 4/4/4
f 9/9/9 8/8/8 7/7/7
f 10/10/10 9/9/9 7/7/7
f 7/7/7 8/8/8 11/11/11
f 12/12/12 7/7/7 11/11/11
f 15/15/15 14/14/14 13/13/13
f 16/16/16 15/15/15 13/13/13
f 16/16/16 13/13/13 17/17/17
f 18/18/18 16/16/16 17/17/17
f 19/19/19 14/14/14 15/15/15
f 20/20/20 19/19/19 15/15/15
f 23/23/23 22/22/22 21/21/21
f 24/24/24 23/23/23 21/21/21
f 27/27/27 26/26/26 25/25/25
f 28/28/28 27/27/27 25/25/25
f 26/26/26 27/27/27 29/29/29
f 30/30/30 26/26/26 29/29/29
f 29/29/29 31/31/31 30/30/30
f 31/31/31 32/32/32 30/30/30
f 35/35/35 34/34/34 33/33/33
f 36/36/36 35/35/35 33/33/33
f 39/39/39 38/38/38 37/37/37
f 40/40/40 39/39/39 37/37/37
f 38/38/38 39/39/39 41/41/41
f 42/42/42 38/38/38 41/41/41
f 43/43/43 40/40/40 37/37/37
f 44/44/44 43/43/43 37/37/37
f 47/47/47 46/46/46 45/45/45
f 48/48/48 47/47/47 45/45/45
f 49/49/49 46/46/46 47/47/47
f 52/52/52 51/51/51 50/50/50
f 53/53/53 52/52/52 50/50/50
f 54/54/54 53/53/53 50/50/50
f 57/57/57 56/56/56 55/55/55
f 58/58/58 57/57/57 55/55/55
f 61/61/61 60/60/60 59/59/59
f 62/62/62 61/61/61 59/59/59
f 65/65/65 64/64/64 63/63/63
f 66/66/66 65/65/65 63/63/63
f 69/69/69 68/68/68 67/67/67
f 70/70/70 69/69/69 67/67/67
