g mag_toz-106_mc_20-01_sb3_20x70_2_LOD1
v -0.01319604 -0.03394007 -0.02053654
v 0.01320989 -0.03394007 -0.02053655
v 0.01273237 0.03237243 -0.02287738
v -0.01271466 0.03237243 -0.02287738
v 0.01320989 -0.03907743 0.0276352
v -0.01319604 -0.03907743 0.0276352
v -0.01319604 0.03850863 0.0276352
v 0.01320989 0.03850863 0.0276352
v -0.01319604 -0.03907743 -0.0109299
v -0.01319604 -0.03907743 0.0276352
v 0.01320989 -0.03907743 0.0276352
v 0.01320989 -0.03907743 -0.01092991
v 0.01320989 -0.03907743 -0.01092991
v 0.01320989 -0.03907743 0.0276352
v 0.01320989 0.03850863 0.0276352
v 0.01273237 0.03850862 -0.01403271
v 0.01320989 -0.03394007 -0.02053655
v 0.01273237 0.03237243 -0.02287738
v 0.01273237 0.03850862 -0.01403271
v 0.01320989 0.03850863 0.0276352
v -0.01319604 0.03850863 0.0276352
v -0.01271466 0.03850862 -0.01403271
v -0.01271466 0.03850862 -0.01403271
v -0.01319604 0.03850863 0.0276352
v -0.01319604 -0.03907743 0.0276352
v -0.01319604 -0.03907743 -0.0109299
v -0.01271466 0.03237243 -0.02287738
v -0.01319604 -0.03394007 -0.02053654
v -0.01271466 0.03850862 -0.01403271
v -0.01271466 0.03237243 -0.02287738
v 0.01273237 0.03237243 -0.02287738
v 0.01273237 0.03850862 -0.01403271
v 0.01320989 -0.03907743 -0.01092991
v 0.01320989 -0.03394007 -0.02053655
v -0.01319604 -0.03394007 -0.02053654
v -0.01319604 -0.03907743 -0.0109299
vt 0.6396296 0.9475214
vt 0.8320031 0.9475214
vt 0.8320031 0.4551648
vt 0.6396297 0.4551648
vt 0.03853088 0.7872626
vt 0.03853088 0.9831942
vt 0.6142188 0.9831942
vt 0.6142188 0.7872626
vt 0.6975322 0.4293098
vt 0.9836833 0.4293098
vt 0.9836833 0.2333794
vt 0.6975322 0.2333794
vt 0.5961001 0.6974768
vt 0.5961001 0.4072355
vt 0.0202789 0.4072343
vt 0.0202789 0.7123347
vt 0.5559267 0.7734206
vt 0.0635669 0.7734206
vt 0.68485 0.2099324
vt 0.994045 0.2099324
vt 0.994045 0.01874382
vt 0.68485 0.01874382
vt 0.5940508 0.3268363
vt 0.5940508 0.02173599
vt 0.01823191 0.02173599
vt 0.01823191 0.3119772
vt 0.5507662 0.3879211
vt 0.05840518 0.3879211
vt 0.68485 0.01874382
vt 0.604975 0.01874382
vt 0.604975 0.2099324
vt 0.68485 0.2099324
vt 0.6975322 0.2333794
vt 0.6166996 0.2333794
vt 0.6166996 0.4293098
vt 0.6975322 0.4293098
vn 0 -0.03527807 -0.9993775
vn 0 -0.03527807 -0.9993775
vn 0 -0.03527806 -0.9993775
vn 0 -0.03527807 -0.9993775
vn 0 0 1
vn 0 0 1
vn 0 0 1
vn 0 0 1
vn 0 -1 0
vn 0 -1 0
vn 0 -1 0
vn 0 -1 0
vn 0.9999833 0.004396025 -0.003757588
vn 0.9999779 0.002958307 -0.005951582
vn 0.9999779 0.002958307 -0.005951582
vn 0.9999833 0.004410196 -0.003735963
vn 0.9999781 0.006623237 -0.000358668
vn 0.9999781 0.006623237 -0.000358668
vn 0 1 0
vn 0 1 0
vn 0 1 0
vn 0 1 0
vn -0.9999831 0.004445849 -0.003766058
vn -0.9999776 0.002982219 -0.005999688
vn -0.9999776 0.002982219 -0.005999688
vn -0.9999831 0.004431562 -0.003787861
vn -0.9999777 0.006676782 -0.0003613086
vn -0.9999777 0.006676782 -0.0003613086
vn 0 0.8216282 -0.5700239
vn 0 0.8216282 -0.570024
vn 0 0.8216282 -0.5700239
vn 0 0.8216282 -0.570024
vn 0 -0.8818256 -0.4715758
vn 0 -0.8818256 -0.4715757
vn 0 -0.8818256 -0.4715758
vn 0 -0.8818256 -0.4715758
g mag_toz-106_mc_20-01_sb3_20x70_2_LOD1_0
f 3/3/3 2/2/2 1/1/1
f 4/4/4 3/3/3 1/1/1
f 7/7/7 6/6/6 5/5/5
f 8/8/8 7/7/7 5/5/5
f 11/11/11 10/10/10 9/9/9
f 12/12/12 11/11/11 9/9/9
f 15/15/15 14/14/14 13/13/13
f 16/16/16 15/15/15 13/13/13
f 13/13/13 17/17/17 16/16/16
f 17/17/17 18/18/18 16/16/16
f 21/21/21 20/20/20 19/19/19
f 22/22/22 21/21/21 19/19/19
f 25/25/25 24/24/24 23/23/23
f 26/26/26 25/25/25 23/23/23
f 23/23/23 27/27/27 26/26/26
f 27/27/27 28/28/28 26/26/26
f 31/31/31 30/30/30 29/29/29
f 32/32/32 31/31/31 29/29/29
f 35/35/35 34/34/34 33/33/33
f 36/36/36 35/35/35 33/33/33
