g mag_ar10_kac_steel_762x51_20_LOD1
v -0.005092721 0.01555493 -0.1147921
v -0.005092722 0.01798546 0.02413562
v -0.005092721 0.01555546 0.02413562
v -0.005092722 0.01798493 -0.1151792
v -0.008393711 -0.01937893 0.03034187
v -0.0101151 0.01118479 0.02971598
v -0.008393717 0.009783623 0.03034126
v -0.01012808 -0.02144977 0.02970707
v -0.01229056 -0.02371101 0.02805989
v -0.01228972 0.0119238 0.02806148
v -0.01303046 -0.02707863 0.02585965
v -0.01303047 0.01241537 0.02585874
v -0.01291495 0.0136705 0.02413563
v -0.01303321 -0.03037492 0.02435822
v -0.01306574 0.01555493 -0.1147931
v -0.01306575 0.01555546 0.02413562
v -0.01303046 -0.0570448 -0.1032576
v -0.01303046 -0.05704431 0.0241359
v -0.005092721 0.01555546 0.02413562
v -0.01306574 0.01555493 -0.1147931
v -0.005092721 0.01555493 -0.1147921
v -0.01306575 0.01555546 0.02413562
v -0.005092722 0.01798493 -0.1151792
v -4.620914E-05 0.01798546 0.02413562
v -0.005092722 0.01798546 0.02413562
v -4.620914E-05 0.01798196 -0.1151877
v 0.005000304 0.01798493 -0.1151792
v 0.005000304 0.01798546 0.02413562
v -4.619781E-05 -0.0570448 -0.1032573
v -0.01303046 -0.05704431 0.0241359
v -4.619781E-05 -0.05704431 0.0241359
v -0.01303046 -0.0570448 -0.1032576
v 0.01293806 -0.0570443 0.0241359
v 0.01293806 -0.05704479 -0.1032576
v -0.01303321 -0.03037492 0.02435822
v -4.619781E-05 -0.05704431 0.0241359
v -0.01303046 -0.05704431 0.0241359
v -4.620184E-05 -0.03037492 0.02435822
v -0.01303046 -0.02707863 0.02585965
v -4.620233E-05 -0.02707862 0.02585965
v -0.01229056 -0.02371101 0.02805989
v -4.620285E-05 -0.023711 0.02805989
v -0.01012808 -0.02144977 0.02970707
v -4.620319E-05 -0.02144976 0.02970707
v -0.008393711 -0.01937893 0.03034187
v -4.62035E-05 -0.01937893 0.03034187
v -0.008393717 0.009783623 0.03034126
v -4.62079E-05 0.009783626 0.03034126
v 0.0129408 -0.03037491 0.02435822
v 0.01293806 -0.0570443 0.0241359
v 0.008301305 -0.01937893 0.03034187
v 0.01003567 -0.02144976 0.02970707
v 0.01293805 -0.02707862 0.02585965
v 0.008301302 0.009783627 0.03034126
v 0.01219816 -0.023711 0.02805989
v -0.01228972 0.0119238 0.02806148
v -4.620811E-05 0.01118479 0.02971598
v -0.0101151 0.01118479 0.02971598
v -4.620822E-05 0.01192381 0.02806148
v -4.62079E-05 0.009783626 0.03034126
v -0.008393717 0.009783623 0.03034126
v -0.01303047 0.01241537 0.02585874
v -4.62083E-05 0.01241537 0.02585874
v -0.01291495 0.0136705 0.02413563
v -4.620849E-05 0.0136705 0.02413563
v -0.01306575 0.01555546 0.02413562
v -0.005092721 0.01555546 0.02413562
v -0.005092722 0.01798546 0.02413562
v -4.620914E-05 0.01798546 0.02413562
v 0.0121973 0.01192381 0.02806148
v 0.01002268 0.01118479 0.02971598
v 0.008301302 0.009783627 0.03034126
v 0.01282253 0.0136705 0.02413563
v 0.01297333 0.01555546 0.02413562
v 0.005000304 0.01555546 0.02413562
v 0.01293805 0.01241537 0.02585874
v 0.005000304 0.01798546 0.02413562
v -0.005092722 0.01798493 -0.1151792
v -4.619781E-05 -0.0570448 -0.1032573
v -4.620914E-05 0.01798196 -0.1151877
v -0.005092721 0.01555493 -0.1147921
v -0.01303046 -0.0570448 -0.1032576
v -0.01306574 0.01555493 -0.1147931
v 0.005000304 0.01798493 -0.1151792
v 0.005000304 0.01555493 -0.1147921
v 0.01293806 -0.05704479 -0.1032576
v 0.01297332 0.01555493 -0.1147931
v 0.005000304 0.01555493 -0.1147921
v 0.005000304 0.01798546 0.02413562
v 0.005000304 0.01798493 -0.1151792
v 0.005000304 0.01555546 0.02413562
v 0.008301305 -0.01937893 0.03034187
v 0.01002268 0.01118479 0.02971598
v 0.01003567 -0.02144976 0.02970707
v 0.008301302 0.009783627 0.03034126
v 0.01219816 -0.023711 0.02805989
v 0.0121973 0.01192381 0.02806148
v 0.01293805 -0.02707862 0.02585965
v 0.01293805 0.01241537 0.02585874
v 0.01282253 0.0136705 0.02413563
v 0.0129408 -0.03037491 0.02435822
v 0.01297332 0.01555493 -0.1147931
v 0.01297333 0.01555546 0.02413562
v 0.01293806 -0.05704479 -0.1032576
v 0.01293806 -0.0570443 0.0241359
v 0.005000304 0.01555546 0.02413562
v 0.01297332 0.01555493 -0.1147931
v 0.01297333 0.01555546 0.02413562
v 0.005000304 0.01555493 -0.1147921
vt 0.01675247 0.9035775
vt 0.6191091 0.9141133
vt 0.6191091 0.9035775
vt 0.01507422 0.9141133
vt 0.1870032 0.7622411
vt 0.0309359 0.7528908
vt 0.03809081 0.7622424
vt 0.1975773 0.7528101
vt 0.2091239 0.7389293
vt 0.02716226 0.7389384
vt 0.2263199 0.7270737
vt 0.0246523 0.7270743
vt 0.01824489 0.718266
vt 0.2431494 0.7194063
vt 0.008605839 0.008857283
vt 0.00859743 0.7182668
vt 0.37933 0.06776134
vt 0.3793306 0.7182699
vt 0.6290926 0.9954295
vt 0.01507422 0.9601916
vt 0.01507862 0.9954296
vt 0.6290926 0.9601915
vt 0.9483299 0.6200218
vt 0.9705681 0.006113032
vt 0.9483299 0.006113159
vt 0.9705681 0.6200594
vt 0.9928063 0.6200216
vt 0.9928062 0.006113032
vt 0.5759441 0.8257106
vt 0.01721265 0.7687631
vt 0.01721265 0.8257107
vt 0.5759451 0.7687631
vt 0.01721265 0.8826581
vt 0.5759451 0.8826581
vt 0.9489481 0.804915
vt 0.8626281 0.9821836
vt 0.9489301 0.9821836
vt 0.8626279 0.804915
vt 0.9489298 0.7808399
vt 0.8626279 0.78084
vt 0.944012 0.7541024
vt 0.8626279 0.7541025
vt 0.9296387 0.735508
vt 0.8626279 0.7355081
vt 0.918111 0.7211118
vt 0.8626279 0.7211118
vt 0.9181109 0.527278
vt 0.8626277 0.5272782
vt 0.7763077 0.8049151
vt 0.7763261 0.9821837
vt 0.807145 0.7211121
vt 0.795617 0.7355083
vt 0.776326 0.78084
vt 0.8071447 0.5272782
vt 0.781244 0.7541028
vt 0.6856961 0.954617
vt 0.6736534 0.8732469
vt 0.6736534 0.9401645
vt 0.6856961 0.8732469
vt 0.6634561 0.8732469
vt 0.6634561 0.9287242
vt 0.7006955 0.95954
vt 0.7006955 0.8732469
vt 0.7148632 0.9587722
vt 0.7148631 0.8732469
vt 0.7273907 0.9597744
vt 0.7273906 0.9067858
vt 0.7435403 0.9067858
vt 0.7435403 0.8732469
vt 0.6856959 0.7918766
vt 0.6736532 0.8063291
vt 0.6634559 0.8177693
vt 0.714863 0.7877213
vt 0.7273905 0.786719
vt 0.7273906 0.8397077
vt 0.7006952 0.7869536
vt 0.7435403 0.8397079
vt 0.8235574 0.5117996
vt 0.8571021 0.006807901
vt 0.8571023 0.511789
vt 0.8235574 0.4954434
vt 0.7707937 0.006808156
vt 0.7705594 0.4954445
vt 0.8906471 0.5117995
vt 0.8906471 0.4954433
vt 0.9434106 0.006808029
vt 0.9436449 0.4954443
vt 0.01675247 0.8985633
vt 0.6191064 0.8880275
vt 0.01507422 0.8880275
vt 0.6191064 0.8985633
vt 0.5820287 0.7622408
vt 0.7380959 0.7528906
vt 0.5714546 0.7528101
vt 0.7309411 0.7622423
vt 0.5599079 0.7389293
vt 0.7418695 0.7389384
vt 0.5427117 0.7270736
vt 0.7443792 0.7270742
vt 0.7507865 0.718266
vt 0.525882 0.7194062
vt 0.7604254 0.008857283
vt 0.7604339 0.7182668
vt 0.3897015 0.06776132
vt 0.3897009 0.7182699
vt 0.6290929 0.9191544
vt 0.01507422 0.9543925
vt 0.6290929 0.9543924
vt 0.01507875 0.9191545
vn -1 0 0
vn -1 0 0
vn -1 0 0
vn -1 0 0
vn -0.3425752 -4.768503E-05 0.9394904
vn -0.5232013 -2.384202E-05 0.8522092
vn -0.3425752 -4.768503E-05 0.9394904
vn -0.5462648 0 0.8376125
vn -0.8897564 2.384223E-05 0.4564357
vn -0.8390366 0 0.544075
vn -0.999579 0.001096722 0.02899162
vn -0.9948479 0.0008344639 0.1013754
vn -0.999523 -0.02982619 -0.008010871
vn -0.9999915 0.0005006812 -0.004100818
vn -0.9999999 0 0.0004768376
vn -0.9968167 -0.07972722 0
vn -0.9999996 0.0006675724 0.0004768374
vn -1 -9.536753E-05 0
vn 0 1 0
vn 0 1 -9.536525E-05
vn 0 1 -9.536525E-05
vn 0 1 0
vn 0.0002920561 1 0
vn -1.396952E-07 1 0
vn 0.0002920561 1 0
vn -1.396952E-07 1 0
vn -0.0002920561 1 0
vn -0.0002920561 1 0
vn 2.794037E-07 -1 0
vn 0 -1 0
vn 2.793904E-07 -1 0
vn 0 -1 0
vn 0 -1 0
vn 0 -1 0
vn 0 -0.2161024 0.9763707
vn 0 -0.008344964 0.9999652
vn 0 -0.008344965 0.9999652
vn 0 -0.2161478 0.9763607
vn 0 -0.478015 0.8783517
vn 0 -0.4820944 0.8761193
vn 0 -0.5614548 0.8275074
vn 0 -0.5680415 0.8229998
vn 0 -0.5097475 0.8603241
vn 0 -0.4470991 0.8944844
vn 0 -0.1743232 0.9846885
vn 0 -0.1481656 0.9889626
vn 0 2.384131E-05 1
vn 0 2.384131E-05 1
vn 0 -0.2161251 0.9763657
vn 0 -0.008392647 0.9999648
vn 0 -0.1743232 0.9846885
vn 0 -0.5097475 0.8603241
vn 0 -0.478015 0.8783517
vn 0 2.384131E-05 1
vn 0 -0.5614548 0.8275074
vn 0 0.9628637 0.2699881
vn 0 0.7069756 0.7072379
vn 0 0.8357437 0.5491199
vn -1.396977E-07 0.9492825 0.3144248
vn 0 0.4075117 0.9132
vn 0 0.4075117 0.9132
vn 0 0.9029186 0.4298114
vn -1.39701E-07 0.9112291 0.4118997
vn 0 0.4498818 0.8930881
vn 0 0.4534397 0.891287
vn 0 0 1
vn 0 0 1
vn 0 0 1
vn 0 0 1
vn 0 0.9628637 0.2699881
vn 0 0.8357437 0.5491199
vn 0 0.4075117 0.9132
vn 0 0.4498818 0.8930881
vn 0 0 1
vn 0 0 1
vn 0 0.9029186 0.4298114
vn 0 0 1
vn -0.001895354 -0.1570641 -0.9875866
vn 0 -0.1569248 -0.9876106
vn 0 -0.1570643 -0.9875883
vn -0.001215898 -0.1570177 -0.9875951
vn 5.960938E-05 -0.1569396 -0.9876083
vn 5.960376E-05 -0.1569248 -0.9876106
vn 0.001895354 -0.1570641 -0.9875866
vn 0.001215898 -0.1570177 -0.9875951
vn -5.960376E-05 -0.1569248 -0.9876106
vn -5.960376E-05 -0.1569248 -0.9876106
vn 1 0 0
vn 1 0 0
vn 1 0 0
vn 1 0 0
vn 0.3425752 -4.768503E-05 0.9394904
vn 0.5232013 -2.384202E-05 0.8522092
vn 0.5462648 0 0.8376125
vn 0.3425752 -4.768503E-05 0.9394904
vn 0.8897564 0 0.4564357
vn 0.8390366 0 0.544075
vn 0.999579 0.001096722 0.02899162
vn 0.9948479 0.0008344639 0.1013754
vn 0.999523 -0.02982619 -0.008010871
vn 0.9999915 0.0005006812 -0.004100818
vn 0.9999999 0 0.0004768376
vn 0.9968167 -0.07972722 0
vn 0.9999998 0.0006675724 0.00038147
vn 1 -9.536753E-05 0
vn 0 1 0
vn 0 1 0
vn 0 1 0
vn 0 1 -9.536525E-05
g mag_ar10_kac_steel_762x51_20_LOD1_0
f 3/3/3 2/2/2 1/1/1
f 4/4/4 1/1/1 2/2/2
f 7/7/7 6/6/6 5/5/5
f 8/8/8 5/5/5 6/6/6
f 8/8/8 6/6/6 9/9/9
f 10/10/10 9/9/9 6/6/6
f 9/9/9 10/10/10 11/11/11
f 12/12/12 11/11/11 10/10/10
f 12/12/12 13/13/13 11/11/11
f 14/14/14 11/11/11 13/13/13
f 13/13/13 15/15/15 14/14/14
f 15/15/15 13/13/13 16/16/16
f 17/17/17 14/14/14 15/15/15
f 17/17/17 18/18/18 14/14/14
f 21/21/21 20/20/20 19/19/19
f 22/22/22 19/19/19 20/20/20
f 25/25/25 24/24/24 23/23/23
f 26/26/26 23/23/23 24/24/24
f 26/26/26 24/24/24 27/27/27
f 28/28/28 27/27/27 24/24/24
f 31/31/31 30/30/30 29/29/29
f 32/32/32 29/29/29 30/30/30
f 31/31/31 29/29/29 33/33/33
f 34/34/34 33/33/33 29/29/29
f 37/37/37 36/36/36 35/35/35
f 38/38/38 35/35/35 36/36/36
f 35/35/35 38/38/38 39/39/39
f 40/40/40 39/39/39 38/38/38
f 39/39/39 40/40/40 41/41/41
f 42/42/42 41/41/41 40/40/40
f 41/41/41 42/42/42 43/43/43
f 44/44/44 43/43/43 42/42/42
f 43/43/43 44/44/44 45/45/45
f 46/46/46 45/45/45 44/44/44
f 45/45/45 46/46/46 47/47/47
f 48/48/48 47/47/47 46/46/46
f 38/38/38 36/36/36 49/49/49
f 50/50/50 49/49/49 36/36/36
f 46/46/46 44/44/44 51/51/51
f 52/52/52 51/51/51 44/44/44
f 44/44/44 42/42/42 52/52/52
f 40/40/40 38/38/38 53/53/53
f 49/49/49 53/53/53 38/38/38
f 48/48/48 46/46/46 54/54/54
f 51/51/51 54/54/54 46/46/46
f 55/55/55 52/52/52 42/42/42
f 42/42/42 40/40/40 55/55/55
f 53/53/53 55/55/55 40/40/40
f 58/58/58 57/57/57 56/56/56
f 59/59/59 56/56/56 57/57/57
f 57/57/57 58/58/58 60/60/60
f 61/61/61 60/60/60 58/58/58
f 56/56/56 59/59/59 62/62/62
f 63/63/63 62/62/62 59/59/59
f 62/62/62 63/63/63 64/64/64
f 65/65/65 64/64/64 63/63/63
f 64/64/64 65/65/65 66/66/66
f 67/67/67 66/66/66 65/65/65
f 67/67/67 65/65/65 68/68/68
f 69/69/69 68/68/68 65/65/65
f 59/59/59 57/57/57 70/70/70
f 71/71/71 70/70/70 57/57/57
f 57/57/57 60/60/60 71/71/71
f 72/72/72 71/71/71 60/60/60
f 65/65/65 63/63/63 73/73/73
f 73/73/73 74/74/74 65/65/65
f 75/75/75 65/65/65 74/74/74
f 76/76/76 73/73/73 63/63/63
f 63/63/63 59/59/59 76/76/76
f 70/70/70 76/76/76 59/59/59
f 69/69/69 65/65/65 77/77/77
f 75/75/75 77/77/77 65/65/65
f 80/80/80 79/79/79 78/78/78
f 81/81/81 78/78/78 79/79/79
f 79/79/79 82/82/82 81/81/81
f 83/83/83 81/81/81 82/82/82
f 80/80/80 84/84/84 79/79/79
f 85/85/85 79/79/79 84/84/84
f 79/79/79 85/85/85 86/86/86
f 87/87/87 86/86/86 85/85/85
f 90/90/90 89/89/89 88/88/88
f 91/91/91 88/88/88 89/89/89
f 94/94/94 93/93/93 92/92/92
f 95/95/95 92/92/92 93/93/93
f 94/94/94 96/96/96 93/93/93
f 97/97/97 93/93/93 96/96/96
f 96/96/96 98/98/98 97/97/97
f 99/99/99 97/97/97 98/98/98
f 99/99/99 98/98/98 100/100/100
f 101/101/101 100/100/100 98/98/98
f 100/100/100 101/101/101 102/102/102
f 100/100/100 102/102/102 103/103/103
f 104/104/104 102/102/102 101/101/101
f 105/105/105 104/104/104 101/101/101
f 108/108/108 107/107/107 106/106/106
f 109/109/109 106/106/106 107/107/107
