g mag_ak74_magpul_pmag_30_ak74_gen_m3_545x39_30_LOD1
v 0.01210142 0.003133072 0.01010678
v 0.01210143 -0.007040609 -0.04039492
v -0.01260294 -0.007040607 -0.04039492
v -0.01260295 0.003133072 0.01010678
v -0.01260294 -0.007040607 -0.04039492
v -0.01260293 0.04873978 -0.06976762
v -0.01260294 0.06394563 -0.01629891
v -0.01260295 0.003133072 0.01010678
v -0.01260293 0.02474099 -0.1277734
v -0.01260293 -0.0290589 -0.09852976
v -0.01260293 -0.06229488 -0.1520585
v -0.01260292 -0.01146484 -0.1895077
v -0.01260294 0.06320311 0.01778351
v 0.01210146 -0.01146485 -0.1895077
v -0.01260292 -0.01146484 -0.1895077
v -0.01260293 -0.06229488 -0.1520585
v 0.01210144 -0.06229491 -0.1520585
v 0.01210142 0.003133072 0.01010678
v -0.01260295 0.003133072 0.01010678
v -0.01260294 0.06320311 0.01778351
v 0.01210143 0.06320311 0.01778352
v 0.01210144 0.06394563 -0.01629891
v 0.01210143 0.06320311 0.01778352
v -0.01260294 0.06320311 0.01778351
v -0.01260294 0.06394563 -0.01629891
v 0.01210144 0.04873979 -0.06976762
v -0.01260293 0.04873978 -0.06976762
v -0.01260293 0.02474099 -0.1277734
v 0.01210145 0.02474099 -0.1277734
v 0.01210146 -0.01146485 -0.1895077
v -0.01260292 -0.01146484 -0.1895077
v 0.01210143 -0.007040609 -0.04039492
v 0.01210144 0.04873979 -0.06976762
v 0.01210145 0.02474099 -0.1277734
v 0.01210144 -0.02905892 -0.09852976
v 0.01210144 -0.06229491 -0.1520585
v 0.01210146 -0.01146485 -0.1895077
v 0.01210142 0.003133072 0.01010678
v 0.01210144 0.06394563 -0.01629891
v 0.01210143 0.06320311 0.01778352
v -0.01260294 -0.007040607 -0.04039492
v 0.01210143 -0.007040609 -0.04039492
v 0.01210144 -0.02905892 -0.09852976
v -0.01260293 -0.0290589 -0.09852976
v -0.01260293 -0.06229488 -0.1520585
v 0.01210144 -0.06229491 -0.1520585
vt 0.8471375 0.1554006
vt 0.6276109 0.1554007
vt 0.6276109 0.2606736
vt 0.8471375 0.2606735
vt 0.361168 0.3737582
vt 0.6285164 0.400051
vt 0.6026112 0.1645908
vt 0.3201697 0.1580942
vt 0.6270092 0.6675472
vt 0.3676845 0.6385815
vt 0.3225263 0.9032511
vt 0.5833153 0.9693742
vt 0.5449138 0.03127006
vt 0.8484259 0.2863253
vt 0.748176 0.2863253
vt 0.748176 0.5688466
vt 0.8484259 0.5688466
vt 0.7219229 0.01757176
vt 0.7219229 0.1188322
vt 0.9902068 0.1188322
vt 0.9902068 0.01757164
vt 0.9921412 0.3917215
vt 0.9921412 0.203269
vt 0.8644258 0.203269
vt 0.8644257 0.3917215
vt 0.9921412 0.5801742
vt 0.8644257 0.5801742
vt 0.8644257 0.7851591
vt 0.9921411 0.7851591
vt 0.9921411 0.9901441
vt 0.8644257 0.9901441
vt 0.05947426 0.6265678
vt 0.3264607 0.5968229
vt 0.321497 0.3293687
vt 0.06256826 0.3616827
vt 0.01399386 0.09761865
vt 0.2739068 0.02813135
vt 0.02126615 0.8427438
vt 0.3036 0.8325983
vt 0.2476302 0.9666533
vt 0.7094459 0.9900674
vt 0.8491356 0.9900674
vt 0.8491356 0.7890779
vt 0.7094459 0.7890779
vt 0.7094459 0.5880883
vt 0.8491356 0.5880883
vn 0 -0.9803059 0.1974848
vn -2.369978E-07 -0.960939 0.2767601
vn -2.369979E-07 -0.960939 0.2767601
vn 0 -0.9803059 0.1974848
vn -1 0 -1.439284E-07
vn -1 0 -1.401084E-07
vn -1 0 -1.504757E-07
vn -1 0 -1.529688E-07
vn -1 0 -1.244866E-07
vn -1 0 -1.244946E-07
vn -1 0 -1.243226E-07
vn -1 0 -1.243226E-07
vn -1 0 -1.377941E-07
vn -5.502912E-07 -0.5931529 -0.8050898
vn -5.502912E-07 -0.5931529 -0.8050898
vn -5.502911E-07 -0.5931529 -0.8050898
vn -5.502911E-07 -0.5931529 -0.8050898
vn -1.992051E-07 -0.1267654 0.9919327
vn -1.992051E-07 -0.1267654 0.9919327
vn -1.992051E-07 -0.1267654 0.9919327
vn -1.992051E-07 -0.1267654 0.9919327
vn 0 0.9918644 -0.1272988
vn 0 0.9997628 0.02178081
vn 0 0.9997628 0.02178081
vn 0 0.9918644 -0.1272988
vn -1.668019E-07 0.9445154 -0.328467
vn -1.668019E-07 0.9445154 -0.328467
vn 0 0.8954512 -0.4451596
vn 0 0.8954512 -0.4451596
vn 0 0.8625957 -0.5058938
vn 0 0.8625958 -0.5058938
vn 1 -1.959809E-07 1.720209E-07
vn 1 -1.917035E-07 1.821399E-07
vn 1 -1.787384E-07 2.182148E-07
vn 1 -1.785364E-07 2.184409E-07
vn 1 -1.82867E-07 2.135946E-07
vn 1 -1.82867E-07 2.135946E-07
vn 1 -2.12375E-07 1.231856E-07
vn 1 -2.121938E-07 1.194301E-07
vn 1 -2.11272E-07 1.003275E-07
vn -2.369979E-07 -0.960939 0.2767601
vn -2.369978E-07 -0.960939 0.2767601
vn -5.104461E-07 -0.8965632 0.4429156
vn -5.104461E-07 -0.8965632 0.4429156
vn -6.279971E-07 -0.8495599 0.5274922
vn -6.279971E-07 -0.8495599 0.5274922
g mag_ak74_magpul_pmag_30_ak74_gen_m3_545x39_30_LOD1_0
f 3/3/3 2/2/2 1/1/1
f 4/4/4 3/3/3 1/1/1
f 7/7/7 6/6/6 5/5/5
f 8/8/8 7/7/7 5/5/5
f 6/6/6 9/9/9 5/5/5
f 9/9/9 10/10/10 5/5/5
f 11/11/11 10/10/10 9/9/9
f 12/12/12 11/11/11 9/9/9
f 13/13/13 7/7/7 8/8/8
f 16/16/16 15/15/15 14/14/14
f 17/17/17 16/16/16 14/14/14
f 20/20/20 19/19/19 18/18/18
f 21/21/21 20/20/20 18/18/18
f 24/24/24 23/23/23 22/22/22
f 25/25/25 24/24/24 22/22/22
f 25/25/25 22/22/22 26/26/26
f 27/27/27 25/25/25 26/26/26
f 28/28/28 27/27/27 26/26/26
f 29/29/29 28/28/28 26/26/26
f 28/28/28 29/29/29 30/30/30
f 31/31/31 28/28/28 30/30/30
f 34/34/34 33/33/33 32/32/32
f 35/35/35 34/34/34 32/32/32
f 34/34/34 35/35/35 36/36/36
f 37/37/37 34/34/34 36/36/36
f 38/38/38 32/32/32 33/33/33
f 39/39/39 38/38/38 33/33/33
f 40/40/40 38/38/38 39/39/39
f 43/43/43 42/42/42 41/41/41
f 44/44/44 43/43/43 41/41/41
f 43/43/43 44/44/44 45/45/45
f 46/46/46 43/43/43 45/45/45
