g mag_ak74_izhmash_6L23_545x39_30_LOD1
v 0.007736243 -0.03690268 -0.1157661
v -0.007735777 -0.03748168 -0.1149411
v 0.008149914 -0.02489578 -0.08775512
v -0.008149437 -0.02471019 -0.08765612
v -0.007442397 -0.01346259 -0.05501852
v 0.007442863 -0.01375808 -0.05517682
v 0.007736243 -0.005655685 -0.02373842
v -0.007735777 -0.005190882 -0.02377862
v 2.331287E-07 -0.0007836819 0.008730978
v -0.009562966 0.0008668136 0.01071868
v 0.009563473 0.0008668136 0.01071868
v 0.007847592 -0.05949569 -0.1468741
v -0.007847127 -0.05970868 -0.1463281
v 0.01242563 -0.01599908 -0.1083111
v 0.007736243 -0.03690268 -0.1157661
v 0.008149914 -0.02489578 -0.08775512
v 0.01504333 -0.04271169 -0.1592871
v 0.007847592 -0.05949569 -0.1468741
v 0.007442863 -0.01375808 -0.05517682
v 0.01205293 0.006577516 -0.04213342
v 0.007736243 -0.005655685 -0.02373842
v 0.01230453 0.01972631 0.01570863
v 0.009563473 0.0008668136 0.01071868
v 0.005178363 0.06618448 -0.01658412
v 0.01193653 0.05989293 -0.01373562
v 0.005271903 0.06610652 -0.01207812
v 0.01200553 0.0571828 -0.03512152
v 2.331287E-07 0.0617184 -0.03387332
v 2.331287E-07 0.04974312 -0.07140672
v 0.01242563 0.04856381 -0.07111992
v 0.01200553 0.03290021 -0.1139131
v 2.331287E-07 0.03405851 -0.1147011
v 0.01200553 0.01268981 -0.1523701
v 2.331287E-07 0.01447671 -0.1536361
v 2.331287E-07 -0.002258582 -0.1869281
v 0.01504333 -0.008021784 -0.1846091
v 2.331287E-07 0.06226058 0.01840201
v 0.01349473 0.06154149 0.01604495
v 2.331287E-07 -0.002258582 -0.1869281
v -0.01504287 -0.007869782 -0.1844391
v 0.01504333 -0.008021784 -0.1846091
v 2.331287E-07 0.0617184 -0.03387332
v 0.005178363 0.06618448 -0.01658412
v -0.005177897 0.06611893 -0.01658412
v 2.331287E-07 0.06226058 0.01840201
v -0.005271437 0.06607717 -0.01207812
v 0.005271903 0.06610652 -0.01207812
v -0.01242517 -0.01621358 -0.1078601
v -0.008149437 -0.02471019 -0.08765612
v -0.007735777 -0.03748168 -0.1149411
v -0.01504287 -0.04271169 -0.1592871
v -0.007847127 -0.05970868 -0.1463281
v -0.007442397 -0.01346259 -0.05501852
v -0.01205247 0.007231417 -0.04212422
v -0.007735777 -0.005190882 -0.02377862
v -0.01230407 0.01972631 0.01570863
v -0.009562966 0.0008668136 0.01071868
v -0.005177897 0.06611893 -0.01658412
v -0.005271437 0.06607717 -0.01207812
v -0.01193607 0.05981829 -0.01373562
v -0.01200507 0.05684931 -0.03512152
v 2.331287E-07 0.0617184 -0.03387332
v -0.01349427 0.06154149 0.01604495
v 2.331287E-07 0.06226058 0.01840201
v 2.331287E-07 0.04974312 -0.07140672
v -0.01242517 0.04847721 -0.07111172
v -0.01200507 0.03277501 -0.1138611
v 2.331287E-07 0.03405851 -0.1147011
v -0.01200507 0.01266841 -0.1522621
v 2.331287E-07 0.01447671 -0.1536361
v 2.331287E-07 -0.002258582 -0.1869281
v -0.01504287 -0.007869782 -0.1844391
v 0.01504333 -0.04271169 -0.1592871
v -0.01504287 -0.04271169 -0.1592871
v 0.007847592 -0.05949569 -0.1468741
v -0.007847127 -0.05970868 -0.1463281
v -0.01504287 -0.007869782 -0.1844391
v 0.01504333 -0.008021784 -0.1846091
v 0.01200553 0.01268981 -0.1523701
v 0.01242563 -0.01599908 -0.1083111
v 0.01200553 0.03290021 -0.1139131
v 0.01242563 0.04856381 -0.07111992
v 0.01205293 0.006577516 -0.04213342
v 0.01200553 0.0571828 -0.03512152
v 0.01193653 0.05989293 -0.01373562
v 0.01504333 -0.008021784 -0.1846091
v 0.01504333 -0.04271169 -0.1592871
v 0.01349473 0.06154149 0.01604495
v 0.01230453 0.01972631 0.01570863
v -0.01200507 0.01266841 -0.1522621
v -0.01200507 0.03277501 -0.1138611
v -0.01242517 -0.01621358 -0.1078601
v -0.01504287 -0.04271169 -0.1592871
v -0.01504287 -0.007869782 -0.1844391
v -0.01242517 0.04847721 -0.07111172
v -0.01205247 0.007231417 -0.04212422
v -0.01200507 0.05684931 -0.03512152
v -0.01193607 0.05981829 -0.01373562
v -0.01230407 0.01972631 0.01570863
v -0.01349427 0.06154149 0.01604495
v 0.01230453 0.01972631 0.01570863
v 0.009563473 0.0008668136 0.01071868
v 2.331287E-07 0.02024872 0.01776078
v 2.331287E-07 -0.0007836819 0.008730978
v -0.01230407 0.01972631 0.01570863
v 2.331287E-07 0.02024872 0.01776078
v -0.009562966 0.0008668136 0.01071868
v 2.331287E-07 -0.0007836819 0.008730978
v 2.331287E-07 0.06226058 0.01840201
v 0.01349473 0.06154149 0.01604495
v 2.331287E-07 0.02024872 0.01776078
v 0.01230453 0.01972631 0.01570863
v 2.331287E-07 0.06226058 0.01840201
v 2.331287E-07 0.02024872 0.01776078
v -0.01349427 0.06154149 0.01604495
v -0.01230407 0.01972631 0.01570863
v 0.005178363 0.06618448 -0.01658412
v 0.005011233 0.07056581 -0.01359812
v -0.005177897 0.06611893 -0.01658412
v -0.005010767 0.07056581 -0.01359812
v 0.005271903 0.06610652 -0.01207812
v 0.005011233 0.07056581 -0.01359812
v 0.005178363 0.06618448 -0.01658412
v 0.005271903 0.06610652 -0.01207812
v -0.005271437 0.06607717 -0.01207812
v 0.005011233 0.07056581 -0.01359812
v -0.005010767 0.07056581 -0.01359812
v -0.005271437 0.06607717 -0.01207812
v -0.005177897 0.06611893 -0.01658412
v -0.005010767 0.07056581 -0.01359812
vt 0.565738 0.760443
vt 0.698088 0.760442
vt 0.565736 0.557847
vt 0.698086 0.557847
vt 0.698085 0.373192
vt 0.565734 0.373192
vt 0.565732 0.193676
vt 0.698083 0.193675
vt 0.631907 0.0147785
vt 0.698083 0.0147785
vt 0.565732 0.0147785
vt 0.56574 0.983733
vt 0.69809 0.983732
vt 0.720369 0.490326
vt 0.846766 0.566614
vt 0.846766 0.414218
vt 0.720369 0.717931
vt 0.846766 0.717931
vt 0.846766 0.304617
vt 0.720369 0.216713
vt 0.846766 0.182569
vt 0.720369 0.015555
vt 0.846766 0.015555
vt 0.544952 0.841396
vt 0.42656 0.862271
vt 0.544952 0.859466
vt 0.42656 0.77346
vt 0.544952 0.768875
vt 0.544952 0.606608
vt 0.42656 0.620909
vt 0.42656 0.427645
vt 0.544952 0.407777
vt 0.42656 0.216689
vt 0.544952 0.196108
vt 0.544952 0.0156509
vt 0.42656 0.0156509
vt 0.544952 0.984366
vt 0.42656 0.984366
vt 0.850244 0.985053
vt 0.975801 0.958222
vt 0.724687 0.958222
vt 0.977109 0.695908
vt 0.875897 0.556945
vt 0.977109 0.556945
vt 0.868621 0.565861
vt 0.868621 0.717741
vt 0.971662 0.717741
vt 1.72037 0.490326
vt 1.84677 0.414218
vt 1.84677 0.566614
vt 1.72037 0.717931
vt 1.84677 0.717931
vt 1.84677 0.304617
vt 1.72037 0.216713
vt 1.84677 0.182569
vt 1.72037 0.015555
vt 1.84677 0.015555
vt 1.54495 0.841396
vt 1.54495 0.859466
vt 1.42656 0.862271
vt 1.42656 0.77346
vt 1.54495 0.768875
vt 1.42656 0.984366
vt 1.54495 0.984366
vt 1.54495 0.606608
vt 1.42656 0.620909
vt 1.42656 0.427645
vt 1.54495 0.407777
vt 1.42656 0.216689
vt 1.54495 0.196108
vt 1.54495 0.0156509
vt 1.42656 0.0156509
vt 0.724688 0.781424
vt 0.975802 0.781424
vt 0.724688 0.728588
vt 0.975802 0.728588
vt 0.975801 0.953735
vt 0.724687 0.953734
vt 0.0245051 0.783327
vt 0.404736 0.672092
vt 0.0245051 0.572372
vt 0.0245051 0.379107
vt 0.404736 0.302455
vt 0.0245051 0.226557
vt 0.0245051 0.137746
vt 0.0245051 0.984366
vt 0.404736 0.984366
vt 0.0245051 0.0156509
vt 0.404736 0.0156509
vt 1.02451 0.783327
vt 1.02451 0.572372
vt 1.40474 0.672092
vt 1.40474 0.984366
vt 1.02451 0.984366
vt 1.02451 0.379107
vt 1.40474 0.302455
vt 1.02451 0.226557
vt 1.02451 0.137746
vt 1.40474 0.0156509
vt 1.02451 0.0156509
vt 0.977109 0.543077
vt 0.977109 0.431727
vt 0.868352 0.543077
vt 0.868352 0.431727
vt 1.97711 0.543077
vt 1.86835 0.543077
vt 1.97711 0.431727
vt 1.86835 0.431727
vt 0.977109 0.0166202
vt 0.868139 0.0166202
vt 0.977109 0.2616
vt 0.868139 0.2616
vt 1.97711 0.0166202
vt 1.97711 0.2616
vt 1.86814 0.0166202
vt 1.86814 0.2616
vt 0.870234 0.339361
vt 0.977109 0.339361
vt 0.870234 0.274852
vt 0.977109 0.274852
vt 0.972027 0.965999
vt 0.913064 0.985576
vt 0.972027 0.985576
vt 0.977109 0.41736
vt 0.977109 0.354183
vt 0.870234 0.41736
vt 0.870234 0.354183
vt 0.71755 0.985925
vt 0.779034 0.985925
vt 0.71755 0.965013
vn 0.05880857 -0.8673858 0.4941492
vn 0.04494346 -0.8680735 0.494397
vn -0.000181797 -0.9288431 0.370473
vn -0.009848039 -0.9271511 0.3745581
vn -0.0161264 -0.9575046 0.2879668
vn -0.01421755 -0.9575588 0.2878876
vn -0.01368311 -0.9796181 0.2004023
vn -0.03936565 -0.9790719 0.199671
vn -0.005177874 -0.9856793 0.1685509
vn -0.1344641 -0.9771742 0.1644689
vn 0.1313981 -0.9752827 0.1776465
vn 0.03861274 -0.8137997 0.5798613
vn 0.03116335 -0.8157472 0.5775685
vn 0.9583663 -0.2583769 0.1215539
vn 0.9478025 -0.2700964 0.1694651
vn 0.9665169 -0.2369508 0.09848589
vn 0.9439827 -0.266865 0.1941128
vn 0.9454107 -0.2620586 0.1937111
vn 0.958382 -0.2707061 0.09067586
vn 0.9627546 -0.2621058 0.06636275
vn 0.9689344 -0.2431179 0.04538475
vn 0.9841762 -0.1771925 3.7999E-05
vn 0.99023 -0.1368831 -0.0266
vn 0.6276059 0.7717029 -0.1028851
vn 0.5527475 0.8332335 -0.01386865
vn 0.4985402 0.8663266 0.03059509
vn 0.3480438 0.8975879 -0.2705576
vn 0.3083523 0.9005337 -0.3065258
vn 0.121215 0.9483377 -0.2931938
vn 0.09707138 0.9528382 -0.2875349
vn 0.1126664 0.909305 -0.400588
vn 0.1195403 0.9085292 -0.4003558
vn 0.1987588 0.8709465 -0.4493853
vn 0.1774875 0.8792371 -0.4420864
vn 0.3399774 0.8143545 -0.4703638
vn 0.3777203 0.7947896 -0.4750124
vn 0.3344763 0.9408027 0.05491754
vn 0.3344763 0.9408027 0.05491754
vn -0.007171497 -0.3893374 -0.9210674
vn -0.007171497 -0.3893374 -0.9210674
vn -0.007171498 -0.3893374 -0.9210674
vn -0.006131988 0.9686433 -0.2483798
vn -0.006131988 0.9686433 -0.2483798
vn -0.006131988 0.9686433 -0.2483798
vn -0.002761937 0.9921887 0.1247156
vn -0.002761937 0.9921887 0.1247156
vn -0.002761937 0.9921887 0.1247156
vn -0.9588461 -0.2550554 0.1247435
vn -0.9649888 -0.2413377 0.1027262
vn -0.9505013 -0.2628259 0.1657403
vn -0.9467814 -0.2620487 0.1869105
vn -0.9476978 -0.2588756 0.1866873
vn -0.9588978 -0.2680388 0.09311412
vn -0.9634668 -0.259392 0.06668998
vn -0.9692717 -0.2421044 0.04356474
vn -0.984238 -0.1768345 -0.002280829
vn -0.9902458 -0.1363847 -0.02850049
vn -0.6320745 0.7672271 -0.1088313
vn -0.6126505 0.7901301 -0.01880861
vn -0.6860763 0.7236407 -0.07512295
vn -0.3656327 0.8907324 -0.2700157
vn -0.3303168 0.8928825 -0.3060256
vn -0.1887439 0.97668 0.1023323
vn -0.07654015 0.9876229 0.1369041
vn -0.1303034 0.9478616 -0.2908254
vn -0.1038475 0.9529295 -0.2848525
vn -0.1233277 0.9084011 -0.3994968
vn -0.1300919 0.9075744 -0.3992303
vn -0.2035179 0.8702914 -0.4485235
vn -0.182849 0.87836 -0.4416448
vn -0.3388944 0.8157974 -0.4686419
vn -0.3755445 0.7969006 -0.4731975
vn -0.001639796 -0.5903534 -0.8071432
vn -0.003459344 -0.5924968 -0.8055654
vn -0.007665149 -0.6013408 -0.7989559
vn -0.01922638 -0.6113297 -0.7911425
vn -0.004608098 -0.5879198 -0.8089061
vn -0.007542428 -0.58957 -0.8076821
vn 0.9990816 0.03531756 0.02426337
vn 0.9997681 0.01869852 0.01069011
vn 0.9999295 0.007539618 -0.009173127
vn 0.9999901 -0.0001317292 0.004444533
vn 0.999995 -0.0031232 0.0006252026
vn 0.9999783 2.347901E-05 0.006590339
vn 0.9999142 -0.003509062 -0.01262162
vn 0.9979802 0.04979676 0.03944606
vn 0.9979802 0.04979676 0.03944607
vn 0.9997907 -0.005319234 -0.01975187
vn 0.9997907 -0.005319234 -0.01975187
vn -0.9990488 0.03509938 0.0258741
vn -0.9999306 0.007457472 -0.009121889
vn -0.9997975 0.01927547 0.005779442
vn -0.9979022 0.04943591 0.0418025
vn -0.9968382 0.04650785 0.06442519
vn -0.9999902 -0.0001513249 0.004426009
vn -0.9999901 -0.0003529206 0.004451687
vn -0.9999784 2.712212E-05 0.006576495
vn -0.9998218 -0.007050291 -0.01751211
vn -0.9997429 -0.00672701 -0.02165464
vn -0.9983254 -0.02800859 -0.05061441
vn 0.1469809 -0.2729153 0.9507439
vn -0.04222676 -0.3595271 0.9321787
vn 0.0682476 -0.310777 0.9480295
vn -0.1219853 -0.3915604 0.9120308
vn -0.1469809 -0.2729156 0.9507437
vn -0.06824774 -0.310777 0.9480295
vn 0.04222721 -0.3595272 0.9321787
vn 0.1219859 -0.3915604 0.9120306
vn 0.1712662 -0.01503581 0.98511
vn 0.1699374 -0.01459171 0.9853469
vn 0.1654244 -0.01308409 0.9861357
vn 0.1639772 -0.01260084 0.9863837
vn -0.1712662 -0.01503581 0.98511
vn -0.1654244 -0.01308409 0.9861357
vn -0.1699373 -0.01459171 0.9853469
vn -0.1639772 -0.01260084 0.9863837
vn -0.003564561 0.5630769 -0.8263968
vn -0.002487872 0.561385 -0.8275511
vn -0.001112218 0.5592188 -0.8290192
vn 0 0.557464 -0.8302011
vn 0.9984705 0.05160535 -0.01983435
vn 0.9984705 0.05160535 -0.01983435
vn 0.9984705 0.05160535 -0.01983435
vn -0.0008979794 0.3225867 0.9465395
vn -0.0002547131 0.3212653 0.9469892
vn -0.0006594896 0.3220969 0.9467065
vn 0 0.320742 0.9471667
vn -0.9984868 0.05112681 -0.02025382
vn -0.9984868 0.05112681 -0.02025383
vn -0.9984868 0.05112681 -0.02025383
g mag_ak74_izhmash_6L23_545x39_30_LOD1_0
f 3/3/3 2/2/2 1/1/1
f 2/2/2 3/3/3 4/4/4
f 4/4/4 3/3/3 5/5/5
f 3/3/3 6/6/6 5/5/5
f 7/7/7 5/5/5 6/6/6
f 5/5/5 7/7/7 8/8/8
f 8/8/8 7/7/7 9/9/9
f 8/8/8 9/9/9 10/10/10
f 9/9/9 7/7/7 11/11/11
f 2/2/2 12/12/12 1/1/1
f 12/12/12 2/2/2 13/13/13
f 16/16/16 15/15/15 14/14/14
f 15/15/15 17/17/17 14/14/14
f 17/17/17 15/15/15 18/18/18
f 16/16/16 14/14/14 19/19/19
f 19/19/19 14/14/14 20/20/20
f 21/21/21 19/19/19 20/20/20
f 22/22/22 21/21/21 20/20/20
f 21/21/21 22/22/22 23/23/23
f 26/26/26 25/25/25 24/24/24
f 25/25/25 27/27/27 24/24/24
f 28/28/28 24/24/24 27/27/27
f 27/27/27 29/29/29 28/28/28
f 29/29/29 27/27/27 30/30/30
f 31/31/31 29/29/29 30/30/30
f 29/29/29 31/31/31 32/32/32
f 33/33/33 32/32/32 31/31/31
f 32/32/32 33/33/33 34/34/34
f 33/33/33 35/35/35 34/34/34
f 35/35/35 33/33/33 36/36/36
f 25/25/25 26/26/26 37/37/37
f 38/38/38 25/25/25 37/37/37
f 41/41/41 40/40/40 39/39/39
f 44/44/44 43/43/43 42/42/42
f 47/47/47 46/46/46 45/45/45
f 50/50/50 49/49/49 48/48/48
f 51/51/51 50/50/50 48/48/48
f 50/50/50 51/51/51 52/52/52
f 48/48/48 49/49/49 53/53/53
f 53/53/53 54/54/54 48/48/48
f 53/53/53 55/55/55 54/54/54
f 55/55/55 56/56/56 54/54/54
f 56/56/56 55/55/55 57/57/57
f 60/60/60 59/59/59 58/58/58
f 60/60/60 58/58/58 61/61/61
f 62/62/62 61/61/61 58/58/58
f 63/63/63 59/59/59 60/60/60
f 59/59/59 63/63/63 64/64/64
f 65/65/65 61/61/61 62/62/62
f 61/61/61 65/65/65 66/66/66
f 65/65/65 67/67/67 66/66/66
f 67/67/67 65/65/65 68/68/68
f 68/68/68 69/69/69 67/67/67
f 69/69/69 68/68/68 70/70/70
f 71/71/71 69/69/69 70/70/70
f 69/69/69 71/71/71 72/72/72
f 75/75/75 74/74/74 73/73/73
f 74/74/74 75/75/75 76/76/76
f 77/77/77 73/73/73 74/74/74
f 73/73/73 77/77/77 78/78/78
f 81/81/81 80/80/80 79/79/79
f 82/82/82 80/80/80 81/81/81
f 83/83/83 80/80/80 82/82/82
f 84/84/84 83/83/83 82/82/82
f 85/85/85 83/83/83 84/84/84
f 86/86/86 79/79/79 80/80/80
f 87/87/87 86/86/86 80/80/80
f 85/85/85 88/88/88 83/83/83
f 88/88/88 89/89/89 83/83/83
f 92/92/92 91/91/91 90/90/90
f 90/90/90 93/93/93 92/92/92
f 93/93/93 90/90/90 94/94/94
f 91/91/91 92/92/92 95/95/95
f 92/92/92 96/96/96 95/95/95
f 96/96/96 97/97/97 95/95/95
f 96/96/96 98/98/98 97/97/97
f 99/99/99 98/98/98 96/96/96
f 98/98/98 99/99/99 100/100/100
f 103/103/103 102/102/102 101/101/101
f 102/102/102 103/103/103 104/104/104
f 107/107/107 106/106/106 105/105/105
f 106/106/106 107/107/107 108/108/108
f 111/111/111 110/110/110 109/109/109
f 110/110/110 111/111/111 112/112/112
f 115/115/115 114/114/114 113/113/113
f 114/114/114 115/115/115 116/116/116
f 119/119/119 118/118/118 117/117/117
f 118/118/118 119/119/119 120/120/120
f 123/123/123 122/122/122 121/121/121
f 126/126/126 125/125/125 124/124/124
f 125/125/125 126/126/126 127/127/127
f 130/130/130 129/129/129 128/128/128
