g mag_ar10_magpul_pmag_sr_gen_3_762x51_20_LOD1
v -0.01124282 -0.06813189 -0.1213108
v 0.01115066 -0.06813189 -0.1213108
v 0.01385155 -0.04590102 -0.1244256
v -0.01394371 -0.04590102 -0.1244256
v -0.01394371 0.003403907 -0.1320538
v 0.01385155 0.003403907 -0.1320538
v -0.007040712 0.01022574 -0.1331092
v 0.006948549 0.01022574 -0.1331092
v -0.01125013 -0.05881526 0.02530827
v -0.01395278 -0.01975572 0.02993671
v 0.01386062 -0.01975572 0.02993671
v 0.01115796 -0.05881526 0.02530827
v -0.01394534 0.0126789 0.0300984
v 0.01385318 0.0126789 0.0300984
v 0.006948549 0.01862504 0.02383118
v -0.007040712 0.01862504 0.02383118
v 0.01115066 -0.06813189 -0.1213108
v -0.01124282 -0.06813189 -0.1213108
v -0.01124282 -0.05824359 -0.03490222
v 0.01115066 -0.05824359 -0.03490222
v 0.01115796 -0.05881526 0.02530827
v -0.01125013 -0.05881526 0.02530827
v 0.01115066 -0.06813189 -0.1213108
v 0.01115066 -0.05824359 -0.03490222
v 0.01385154 -0.03574029 -0.0393046
v 0.01385155 -0.04590102 -0.1244256
v 0.01385155 0.01242418 -0.04813223
v 0.01385155 0.003403907 -0.1320538
v 0.01386062 -0.01975572 0.02993671
v 0.01115796 -0.05881526 0.02530827
v 0.01385318 0.0126789 0.0300984
v 0.006948549 0.01022574 -0.1331092
v 0.006948549 0.01925324 -0.04913951
v -0.007040712 0.01925324 -0.04913951
v -0.007040712 0.01022574 -0.1331092
v -0.007040712 0.01862504 0.02383118
v 0.006948549 0.01862504 0.02383118
v 0.01385155 0.003403907 -0.1320538
v 0.01385155 0.01242418 -0.04813223
v 0.01385318 0.0126789 0.0300984
v -0.01394371 0.003403907 -0.1320538
v -0.01394371 0.01242418 -0.04813223
v -0.01394534 0.0126789 0.0300984
v -0.01394371 -0.04590102 -0.1244256
v -0.01394371 0.003403907 -0.1320538
v -0.01394371 0.01242418 -0.04813223
v -0.01394371 -0.03574029 -0.0393046
v -0.01124282 -0.05824359 -0.03490222
v -0.01124282 -0.06813189 -0.1213108
v -0.01395278 -0.01975572 0.02993671
v -0.01394534 0.0126789 0.0300984
v -0.01125013 -0.05881526 0.02530827
vt 0.5131789 0.9725373
vt 0.5131789 0.8534954
vt 0.414383 0.8391376
vt 0.414383 0.9868953
vt 0.1952677 0.9868953
vt 0.1952677 0.8391376
vt 0.1649509 0.9501994
vt 0.1649509 0.8758334
vt 0.5316451 0.9744805
vt 0.7072384 0.9890139
vt 0.7072384 0.8394485
vt 0.5316451 0.8539819
vt 0.8487478 0.9889739
vt 0.8487478 0.8394884
vt 0.8797801 0.8766178
vt 0.8797801 0.9518445
vt 0.2621039 0.01678747
vt 0.1629522 0.01678747
vt 0.1629522 0.518664
vt 0.2621039 0.518664
vt 0.2621364 0.7933318
vt 0.1629199 0.7933318
vt 0.9550142 0.01199463
vt 0.536423 0.049481
vt 0.5685228 0.1682736
vt 0.9649491 0.1304513
vt 0.5916278 0.4250334
vt 0.9901739 0.3933211
vt 0.2765453 0.2369101
vt 0.3038395 0.03088243
vt 0.2703577 0.4036884
vt 0.0495116 0.01513217
vt 0.0495116 0.4951113
vt 0.1133144 0.4951113
vt 0.1133144 0.01513217
vt 0.1133144 0.8789173
vt 0.0495116 0.8789173
vt 0.01070399 0.01513217
vt 0.01070399 0.4951113
vt 0.01070399 0.9122913
vt 0.1517871 0.01513217
vt 0.1517871 0.4951113
vt 0.1517871 0.9122913
vt 0.2802851 0.5629115
vt 0.2714589 0.8271832
vt 0.6709257 0.8268653
vt 0.6780176 0.5688591
vt 0.702652 0.4477732
vt 0.2828342 0.4439379
vt 0.9734905 0.6139228
vt 0.9900238 0.7798114
vt 0.9334676 0.41057
vn 0 -0.1387535 -0.9903269
vn 0 -0.1387535 -0.9903269
vn 0 -0.1461087 -0.9892686
vn 0 -0.1461087 -0.9892686
vn 0 -0.1528962 -0.9882422
vn 0 -0.1528962 -0.9882422
vn 0 -0.1528963 -0.9882422
vn 0 -0.1528963 -0.9882422
vn 0 -0.1176737 0.9930524
vn 0 -0.06017144 0.9981881
vn 0 -0.06017144 0.9981881
vn 0 -0.1176737 0.9930524
vn 0 0.281763 0.959484
vn 0 0.281763 0.959484
vn 0 0.7254454 0.6882796
vn 0 0.7254454 0.6882796
vn 0 -0.9935157 0.1136945
vn 0 -0.9935157 0.1136945
vn 0 -0.9986368 0.05219722
vn 0 -0.9986368 0.05219722
vn 0 -0.9999549 -0.009494065
vn 0 -0.9999549 -0.009494065
vn 0.9929667 -0.1175939 0.01374487
vn 0.9947901 -0.1012515 0.01186971
vn 0.998566 -0.05317484 0.006214281
vn 0.998301 -0.05787522 0.006764718
vn 1 3.819984E-05 -3.747622E-05
vn 1 0 0
vn 0.9993646 -0.03540507 0.004121517
vn 0.996114 -0.08746945 0.01028828
vn 1 8.339378E-05 -8.179744E-05
vn 0.378429 0.9203274 -0.09893884
vn 0.3693874 0.9280624 -0.04746529
vn -0.3693874 0.9280624 -0.04746529
vn -0.3784289 0.9203274 -0.09893884
vn -0.4225937 0.9063055 0.004989934
vn 0.4225937 0.9063055 0.004989934
vn 0.7067777 0.7033834 -0.07561146
vn 0.6928037 0.7202576 -0.03538417
vn 0.6786175 0.7344896 0.001806951
vn -0.7067777 0.7033834 -0.07561146
vn -0.6928037 0.7202576 -0.03538417
vn -0.6786175 0.7344896 0.001806951
vn -0.998301 -0.05787521 0.006764719
vn -1 0 0
vn -1 3.819984E-05 -3.747622E-05
vn -0.998566 -0.05317483 0.006214281
vn -0.9947901 -0.1012514 0.01186971
vn -0.9929667 -0.1175939 0.01374487
vn -0.9993646 -0.03540507 0.004121517
vn -1 8.339379E-05 -8.179743E-05
vn -0.996114 -0.08746945 0.01028828
g mag_ar10_magpul_pmag_sr_gen_3_762x51_20_LOD1_0
f 3/3/3 2/2/2 1/1/1
f 4/4/4 3/3/3 1/1/1
f 3/3/3 4/4/4 5/5/5
f 6/6/6 3/3/3 5/5/5
f 6/6/6 5/5/5 7/7/7
f 8/8/8 6/6/6 7/7/7
f 11/11/11 10/10/10 9/9/9
f 12/12/12 11/11/11 9/9/9
f 13/13/13 10/10/10 11/11/11
f 14/14/14 13/13/13 11/11/11
f 13/13/13 14/14/14 15/15/15
f 16/16/16 13/13/13 15/15/15
f 19/19/19 18/18/18 17/17/17
f 20/20/20 19/19/19 17/17/17
f 20/20/20 21/21/21 19/19/19
f 21/21/21 22/22/22 19/19/19
f 25/25/25 24/24/24 23/23/23
f 26/26/26 25/25/25 23/23/23
f 27/27/27 25/25/25 26/26/26
f 28/28/28 27/27/27 26/26/26
f 25/25/25 29/29/29 24/24/24
f 29/29/29 30/30/30 24/24/24
f 31/31/31 29/29/29 25/25/25
f 27/27/27 31/31/31 25/25/25
f 34/34/34 33/33/33 32/32/32
f 35/35/35 34/34/34 32/32/32
f 34/34/34 36/36/36 33/33/33
f 36/36/36 37/37/37 33/33/33
f 32/32/32 33/33/33 38/38/38
f 33/33/33 39/39/39 38/38/38
f 33/33/33 37/37/37 39/39/39
f 37/37/37 40/40/40 39/39/39
f 34/34/34 35/35/35 41/41/41
f 42/42/42 34/34/34 41/41/41
f 43/43/43 36/36/36 34/34/34
f 42/42/42 43/43/43 34/34/34
f 46/46/46 45/45/45 44/44/44
f 47/47/47 46/46/46 44/44/44
f 48/48/48 47/47/47 44/44/44
f 49/49/49 48/48/48 44/44/44
f 47/47/47 50/50/50 46/46/46
f 50/50/50 51/51/51 46/46/46
f 52/52/52 50/50/50 47/47/47
f 48/48/48 52/52/52 47/47/47
