g mag_stanag_hk_gen_2_pm_556x45_30_LOD1
v -0.01216134 7.695675E-05 -0.06904487
v -0.01110989 7.694244E-05 0.005703516
v 0.01110503 7.694244E-05 0.005703516
v 0.01215648 7.695675E-05 -0.06904487
v -0.01216134 -0.004769711 -0.1105472
v 0.01215648 -0.004769711 -0.1105472
v -0.01216134 -0.01865288 -0.1737159
v 0.01215648 -0.01865288 -0.1737159
v -0.01110989 7.694244E-05 0.005703516
v -0.01110989 0.06486651 0.005703526
v 0.01110503 0.06486651 0.005703526
v 0.01110503 7.694244E-05 0.005703516
v -0.01110989 0.06486651 0.005703526
v -0.01216134 0.06532715 -0.07330572
v 0.01215648 0.06532715 -0.07330572
v 0.01110503 0.06486651 0.005703526
v 0.01215648 0.06114098 -0.1196884
v -0.01216134 0.06114098 -0.1196884
v 0.01215648 0.04758197 -0.1909101
v -0.01216134 0.04758197 -0.1909101
v -0.01216134 0.04758197 -0.1909101
v -0.01216134 -0.01865288 -0.1737159
v 0.01215648 -0.01865288 -0.1737159
v 0.01215648 0.04758197 -0.1909101
v 0.01215648 7.695675E-05 -0.06904487
v 0.01110503 7.694244E-05 0.005703516
v 0.01110503 0.06486651 0.005703526
v 0.01215648 0.06532715 -0.07330572
v -0.01216134 0.06532715 -0.07330572
v -0.01110989 0.06486651 0.005703526
v -0.01110989 7.694244E-05 0.005703516
v -0.01216134 7.695675E-05 -0.06904487
v 0.01215648 -0.004769711 -0.1105472
v 0.01215648 7.695675E-05 -0.06904487
v 0.01215648 0.06532715 -0.07330572
v 0.01215648 0.06114098 -0.1196884
v 0.01215648 -0.01865288 -0.1737159
v 0.01215648 0.04758197 -0.1909101
v -0.01216134 0.06114098 -0.1196884
v -0.01216134 0.06532715 -0.07330572
v -0.01216134 7.695675E-05 -0.06904487
v -0.01216134 -0.004769711 -0.1105472
v -0.01216134 0.04758197 -0.1909101
v -0.01216134 -0.01865288 -0.1737159
vt 0.247148 0.378275
vt 0.247148 0.002825
vt 0.127656 0.002825
vt 0.127656 0.378275
vt 0.247148 0.588129
vt 0.127656 0.588129
vt 0.247148 0.912956
vt 0.127656 0.912956
vt 0.577975 0.756349
vt 0.252582 0.756349
vt 0.252582 0.867919
vt 0.577975 0.867919
vt 0.122137 0.997833
vt 0.122137 0.60098
vt 0.002645 0.60098
vt 0.002645 0.997833
vt 0.002645 0.367083
vt 0.122137 0.367083
vt 0.002645 0.00296
vt 0.122137 0.00296
vt 0.596029 0.873144
vt 0.252348 0.873144
vt 0.252348 0.995276
vt 0.596029 0.995276
vt 0.595449 0.689796
vt 0.993031 0.689796
vt 0.993031 0.353218
vt 0.595449 0.353218
vt 0.253078 0.354404
vt 0.253078 0.751987
vt 0.589657 0.751987
vt 0.589657 0.354404
vt 0.481781 0.348578
vt 0.253338 0.348578
vt 0.253338 0.00322
vt 0.481781 0.00322
vt 0.836454 0.348578
vt 0.836454 0.00322
vt 0.481781 0.00322
vt 0.253338 0.00322
vt 0.253338 0.348578
vt 0.481781 0.348578
vt 0.836454 0.00322
vt 0.836454 0.348578
vn 0 -0.9982958 0.05835545
vn 0 -1 -1.913769E-07
vn 0 -1 -1.913769E-07
vn 0 -0.9982958 0.05835545
vn 0 -0.9862045 0.1655316
vn 0 -0.9862045 0.1655316
vn 0 -0.9766897 0.2146564
vn 0 -0.9766897 0.2146564
vn 0 -1.471957E-07 1
vn 0 -1.471957E-07 1
vn 0 -1.471957E-07 1
vn 0 -1.471957E-07 1
vn 0 0.9999831 0.005830213
vn 0 0.9991058 -0.04228078
vn 0 0.9991058 -0.04228078
vn 0 0.9999831 0.005830213
vn 0 0.9903457 -0.1386199
vn 0 0.9903457 -0.1386199
vn 0 0.9823564 -0.1870186
vn 0 0.9823564 -0.1870186
vn 0 -0.2512666 -0.9679179
vn 0 -0.2512666 -0.9679179
vn 0 -0.2512666 -0.9679179
vn 0 -0.2512666 -0.9679179
vn 0.9999764 0.0002250439 0.006868278
vn 0.9999064 0.0004481302 0.01367681
vn 0.9999064 0.0004481302 0.01367681
vn 0.9999774 0.0002206693 0.006734766
vn -0.9999774 0.0002206693 0.006734766
vn -0.9999064 0.0004481302 0.01367681
vn -0.9999064 0.0004481302 0.01367681
vn -0.9999764 0.0002250439 0.006868278
vn 1 0 0
vn 0.9999764 0.0002250439 0.006868278
vn 0.9999774 0.0002206693 0.006734766
vn 1 0 0
vn 1 0 0
vn 1 0 0
vn -1 0 0
vn -0.9999774 0.0002206693 0.006734766
vn -0.9999764 0.0002250439 0.006868278
vn -1 0 0
vn -1 0 0
vn -1 0 0
g mag_stanag_hk_gen_2_pm_556x45_30_LOD1_0
f 3/3/3 2/2/2 1/1/1
f 4/4/4 3/3/3 1/1/1
f 4/4/4 1/1/1 5/5/5
f 6/6/6 4/4/4 5/5/5
f 6/6/6 5/5/5 7/7/7
f 8/8/8 6/6/6 7/7/7
f 11/11/11 10/10/10 9/9/9
f 12/12/12 11/11/11 9/9/9
f 15/15/15 14/14/14 13/13/13
f 16/16/16 15/15/15 13/13/13
f 15/15/15 17/17/17 14/14/14
f 17/17/17 18/18/18 14/14/14
f 17/17/17 19/19/19 18/18/18
f 19/19/19 20/20/20 18/18/18
f 23/23/23 22/22/22 21/21/21
f 24/24/24 23/23/23 21/21/21
f 27/27/27 26/26/26 25/25/25
f 28/28/28 27/27/27 25/25/25
f 31/31/31 30/30/30 29/29/29
f 32/32/32 31/31/31 29/29/29
f 35/35/35 34/34/34 33/33/33
f 36/36/36 35/35/35 33/33/33
f 36/36/36 33/33/33 37/37/37
f 38/38/38 36/36/36 37/37/37
f 41/41/41 40/40/40 39/39/39
f 42/42/42 41/41/41 39/39/39
f 42/42/42 39/39/39 43/43/43
f 44/44/44 42/42/42 43/43/43
