g mag_ak_molot_rpk_drum_762x39_75_LOD1
v 0.01206828 0.03178174 0.02090177
v 0.01265128 0.06059717 0.0195243
v 0.01268348 0.04136806 -0.01324883
v 0.01206828 0.0001582956 -0.008574943
v 0.009327224 -0.0001068544 0.01343917
v 0.01206828 -0.004355235 -0.02062194
v 0.01277448 0.05884929 -0.01207958
v 0.01206828 0.05968582 -0.02159175
v 0.004942114 0.06368428 -0.01321784
v 0.01277448 0.05884929 -0.01207958
v 0.005035654 0.06341156 -0.008560221
v 0.01206828 0.05968582 -0.02159175
v -0.0001482683 0.05629712 -0.03183708
v -0.005414146 0.06361885 -0.01321395
v -0.01254032 0.05968582 -0.02159175
v -0.01324652 0.05877478 -0.01207514
v -0.005507686 0.06338226 -0.008558481
v -0.0002360163 0.06118932 0.01736944
v -0.01304791 0.06059717 0.0195243
v 0.01265128 0.06059717 0.0195243
v -0.0002360163 0.06118932 0.01736944
v -0.0002360163 0.03215944 0.01845421
v -0.01304791 0.06059717 0.0195243
v -0.01254032 0.03178174 0.02090177
v 0.01265128 0.06059717 0.0195243
v 0.01206828 0.03178174 0.02090177
v 0.009327224 -0.0001068544 0.01343917
v -0.0002360163 -0.003681517 0.008117571
v -0.009799216 -0.0001068544 0.01343917
v 0.005035654 0.06341156 -0.008560221
v 0.004774984 0.06892386 -0.009890444
v 0.004942114 0.06368428 -0.01321784
v -0.005507686 0.06338226 -0.008558481
v -0.005414146 0.06361885 -0.01321395
v -0.005247016 0.06892386 -0.009890444
v 0.004942114 0.06368428 -0.01321784
v 0.004774984 0.06892386 -0.009890444
v -0.005414146 0.06361885 -0.01321395
v -0.005247016 0.06892386 -0.009890444
v 0.005035654 0.06341156 -0.008560221
v -0.005507686 0.06338226 -0.008558481
v 0.004774984 0.06892386 -0.009890444
v -0.005247016 0.06892386 -0.009890444
v 0.02112648 -0.05833223 -0.1211612
v 0.0003578617 -0.02570882 -0.0661361
v 0.05473078 -0.04671827 -0.09968506
v 0.06756638 -0.02792611 -0.064937
v 0.05473078 -0.009134045 -0.03018872
v 0.01206828 -0.004355235 -0.02062194
v 0.02112648 0.0001582956 -0.008574943
v 0.01206828 0.0001582956 -0.008574943
v -0.01254032 -0.004355235 -0.02062194
v -0.05401501 -0.009134045 -0.03018872
v -0.06685071 -0.02792611 -0.064937
v -0.05401501 -0.04671827 -0.09968506
v -0.02041072 -0.05833223 -0.1211612
v -0.02041072 0.0001582956 -0.008574943
v -0.01254032 0.0001582956 -0.008574943
v 0.0003578606 -0.05833223 -0.1211612
v 0.02584078 0.05968582 -0.02159175
v 0.02455988 0.04485454 -0.06643247
v 0.06840738 0.04405146 -0.0493363
v -0.0001482683 0.05629712 -0.03183708
v 0.01206828 0.05968582 -0.02159175
v -0.02384412 0.04485454 -0.06643247
v -0.03880182 0.02225248 -0.1065363
v 0.03951748 0.02225248 -0.1065363
v 0.0003578606 0.008283577 -0.1313225
v -0.02512512 0.05968582 -0.02159175
v -0.06769162 0.04405146 -0.0493363
v -0.01254032 0.05968582 -0.02159175
v -0.06769162 -0.004527173 -0.1354619
v -0.08375592 0.01976207 -0.09239946
v -0.02563472 -0.0195388 -0.1620764
v 0.0003578606 -0.0195388 -0.1620764
v 0.02635048 -0.0195388 -0.1620764
v 0.08447168 0.01976207 -0.09239946
v 0.06840738 -0.004527173 -0.1354619
v 0.009327224 -0.0001068544 0.01343917
v 0.01206828 -0.004355235 -0.02062194
v -0.0002360163 -0.003681517 0.008117571
v -0.01254032 -0.004355235 -0.02062194
v -0.009799216 -0.0001068544 0.01343917
v -0.01304791 0.06059717 0.0195243
v -0.01315552 0.04136806 -0.01324883
v -0.01324652 0.05877478 -0.01207514
v -0.01254032 0.03178174 0.02090177
v -0.01254032 0.05968582 -0.02159175
v -0.01254032 0.0001582956 -0.008574943
v -0.009799216 -0.0001068544 0.01343917
v -0.01254032 -0.004355235 -0.02062194
v 0.06707308 -0.01899781 -0.1248708
v 0.02584078 -0.0332483 -0.151221
v 0.05473078 -0.04671827 -0.09968506
v 0.02112648 -0.05833223 -0.1211612
v 0.0003578606 -0.0332483 -0.151221
v 0.0003578606 -0.05833223 -0.1211612
v 0.06756638 -0.02792611 -0.064937
v 0.08282237 0.00405992 -0.08223497
v 0.05473078 -0.009134045 -0.03018872
v 0.06707308 0.02711765 -0.03959932
v 0.02112648 0.0001582956 -0.008574943
v 0.02584078 0.04136806 -0.01324883
v 0.01268348 0.04136806 -0.01324883
v 0.01206828 0.0001582956 -0.008574943
v -0.06635731 0.02711765 -0.03959932
v -0.08210662 0.00405992 -0.08223497
v -0.06769162 0.04405146 -0.0493363
v -0.08375592 0.01976207 -0.09239946
v -0.06635731 -0.01899781 -0.1248708
v -0.06769162 -0.004527173 -0.1354619
v -0.02512512 -0.0332483 -0.151221
v -0.02563472 -0.0195388 -0.1620764
v 0.0003578606 -0.0195388 -0.1620764
v 0.0003578606 -0.0332483 -0.151221
v -0.02512512 0.04136806 -0.01324883
v -0.02512512 0.05968582 -0.02159175
v -0.01315552 0.04136806 -0.01324883
v -0.01254032 0.05968582 -0.02159175
v 0.06707308 0.02711765 -0.03959932
v 0.06840738 0.04405146 -0.0493363
v 0.08282237 0.00405992 -0.08223497
v 0.08447168 0.01976207 -0.09239946
v 0.02584078 0.04136806 -0.01324883
v 0.02584078 0.05968582 -0.02159175
v 0.01268348 0.04136806 -0.01324883
v 0.01206828 0.05968582 -0.02159175
v 0.06707308 -0.01899781 -0.1248708
v 0.06840738 -0.004527173 -0.1354619
v 0.02584078 -0.0332483 -0.151221
v 0.02635048 -0.0195388 -0.1620764
v 0.0003578606 -0.0195388 -0.1620764
v 0.0003578606 -0.0332483 -0.151221
v -0.06635731 -0.01899781 -0.1248708
v -0.05401501 -0.04671827 -0.09968506
v -0.02512512 -0.0332483 -0.151221
v -0.02041072 -0.05833223 -0.1211612
v -0.06685071 -0.02792611 -0.064937
v -0.08210662 0.00405992 -0.08223497
v -0.05401501 -0.009134045 -0.03018872
v -0.06635731 0.02711765 -0.03959932
v -0.02041072 0.0001582956 -0.008574943
v -0.02512512 0.04136806 -0.01324883
v -0.01315552 0.04136806 -0.01324883
v -0.01254032 0.0001582956 -0.008574943
v 0.0003578606 -0.0332483 -0.151221
v 0.0003578606 -0.05833223 -0.1211612
vt 0.181905 0.820713
vt 0.181905 0.957352
vt 0.292058 0.870635
vt 0.279715 0.669138
vt 0.206963 0.669138
vt 0.318737 0.645575
vt 0.286949 0.957352
vt 0.318186 0.957352
vt 0.669662 0.147515
vt 0.698838 0.144771
vt 0.670402 0.131158
vt 0.698838 0.181461
vt 0.653886 0.222519
vt 0.637595 0.147617
vt 0.608396 0.181468
vt 0.608396 0.14478
vt 0.636926 0.131172
vt 0.653657 0.0288159
vt 0.608396 0.0288159
vt 0.698838 0.0288159
vt 0.658198 0.493042
vt 0.659312 0.384865
vt 0.617422 0.493042
vt 0.617422 0.384269
vt 0.699254 0.493042
vt 0.699254 0.385407
vt 0.699254 0.253537
vt 0.66074 0.253537
vt 0.617422 0.253537
vt 0.10011 0.0446311
vt 0.118716 0.0446311
vt 0.10457 0.03
vt 0.649806 0.959973
vt 0.649806 0.975255
vt 0.66774 0.965271
vt 0.725789 0.946905
vt 0.725789 0.926474
vt 0.692391 0.946905
vt 0.692391 0.926474
vt 0.168869 0.03
vt 0.135165 0.03
vt 0.168869 0.0486339
vt 0.135165 0.0486339
vt 0.456735 0.966273
vt 0.525363 0.756882
vt 0.34665 0.886297
vt 0.304598 0.756888
vt 0.346642 0.627478
vt 0.486376 0.592319
vt 0.456615 0.550235
vt 0.486289 0.550174
vt 0.567034 0.592169
vt 0.703003 0.626824
vt 0.745523 0.756075
vt 0.70395 0.885637
vt 0.594163 0.966018
vt 0.592752 0.549984
vt 0.566968 0.550024
vt 0.525363 0.966271
vt 0.562459 0.393785
vt 0.40767 0.386944
vt 0.455976 0.533424
vt 0.52804 0.307075
vt 0.563175 0.348132
vt 0.408385 0.229404
vt 0.258683 0.180108
vt 0.257553 0.434887
vt 0.165577 0.307095
vt 0.563299 0.224
vt 0.460727 0.0814071
vt 0.563581 0.265742
vt 0.131844 0.0825896
vt 0.295291 0.03
vt 0.0306821 0.220707
vt 0.0303409 0.306526
vt 0.03 0.392345
vt 0.292846 0.585239
vt 0.129918 0.531248
vt 0.0426169 0.645286
vt 0.155746 0.645286
vt 0.0610982 0.608483
vt 0.155746 0.57168
vt 0.0426171 0.57168
vt 0.0475275 0.679929
vt 0.155478 0.765264
vt 0.150779 0.679929
vt 0.0475275 0.813296
vt 0.181443 0.679929
vt 0.142607 0.960603
vt 0.0712443 0.98172
vt 0.181443 0.98172
vt 0.760314 0.690592
vt 0.760314 0.891354
vt 0.892992 0.690592
vt 0.892992 0.891354
vt 0.760314 0.991734
vt 0.892992 0.991734
vt 0.892992 0.489831
vt 0.760314 0.489831
vt 0.892992 0.28907
vt 0.760314 0.28907
vt 0.892992 0.0894279
vt 0.760314 0.0894279
vt 0.760314 0.0412133
vt 0.892992 0.0412133
vt 1.90638 0.738222
vt 1.90638 0.539077
vt 1.96997 0.738222
vt 1.96997 0.539077
vt 1.90638 0.339931
vt 1.96997 0.339931
vt 1.90638 0.140786
vt 1.96997 0.140786
vt 1.96997 0.0412133
vt 1.90638 0.0412133
vt 1.90638 0.939642
vt 1.96997 0.939642
vt 1.90638 0.991734
vt 1.96997 0.991734
vt 0.906377 0.738222
vt 0.969975 0.738222
vt 0.906377 0.539077
vt 0.969975 0.539077
vt 0.906377 0.939642
vt 0.969975 0.939642
vt 0.906377 0.991734
vt 0.969975 0.991734
vt 0.906377 0.339931
vt 0.969975 0.339931
vt 0.906377 0.140786
vt 0.969975 0.140786
vt 0.969975 0.0412133
vt 0.906377 0.0412133
vt 1.76031 0.690592
vt 1.89299 0.690592
vt 1.76031 0.891354
vt 1.89299 0.891354
vt 1.89299 0.489831
vt 1.76031 0.489831
vt 1.89299 0.28907
vt 1.76031 0.28907
vt 1.89299 0.0894279
vt 1.76031 0.0894279
vt 1.76031 0.0412133
vt 1.89299 0.0412133
vt 1.76031 0.991734
vt 1.89299 0.991734
vn 0.998855 -0.03443436 0.03321064
vn 0.9998327 -0.01532958 0.009976725
vn 0.9999413 -0.01070825 -0.001632435
vn 0.9720497 -0.2138242 0.09694676
vn 0.9844184 -0.1275554 0.1210373
vn 0.9456594 -0.3044898 0.1140802
vn 0.9994261 -0.002945574 -0.03374491
vn 0.9972538 -0.0002378245 -0.07405882
vn 0.2933763 0.9402156 -0.172988
vn 0.5100876 0.8601091 0.004787682
vn 0.3223672 0.9461843 0.02854069
vn 0.2361258 0.9396175 -0.2477169
vn -0.000311715 0.9257317 -0.378181
vn -0.2965467 0.9392484 -0.1728362
vn -0.2342778 0.9413954 -0.2426699
vn -0.5116867 0.8591487 0.006343395
vn -0.3257402 0.9450936 0.02629605
vn -0.0004829731 0.995914 0.09030442
vn -0.1326444 0.9891919 0.0624874
vn 0.1314909 0.9892827 0.06348137
vn 0.0004575613 0.03734114 0.9993025
vn 7.856396E-05 -0.08754606 0.9961604
vn 0.1716485 0.04029195 0.9843339
vn 0.1967761 -0.07598169 0.9774999
vn -0.1709567 0.04042928 0.9844488
vn -0.1967706 -0.07561611 0.9775293
vn -0.3611342 -0.2468037 0.8992608
vn 5.599039E-07 -0.2771085 0.9608386
vn 0.3611354 -0.2468035 0.8992605
vn 0.9989208 0.04300423 -0.01754353
vn 0.9989208 0.04300423 -0.01754353
vn 0.9989208 0.04300424 -0.01754353
vn -0.9989281 0.04268561 -0.01790166
vn -0.9989281 0.04268561 -0.01790166
vn -0.9989281 0.04268561 -0.01790166
vn -0.003703661 0.5359988 -0.8442107
vn -0.002426569 0.5342448 -0.8453263
vn -0.001313502 0.5327135 -0.8462946
vn 0 0.5309035 -0.8474323
vn -0.0004914188 0.2345634 0.9721007
vn -0.0001624919 0.2339865 0.9722399
vn -0.0003375799 0.2342936 0.9721658
vn 0 0.2337015 0.9723084
vn -0.01158605 -0.8620369 0.5067132
vn -7.139162E-06 -0.882673 0.4699877
vn -0.03032618 -0.8685115 0.4947405
vn -0.03748022 -0.8789898 0.4753654
vn -0.02418598 -0.8991824 0.4369052
vn -0.007612994 -0.9162019 0.4006445
vn -0.01386524 -0.932874 0.3599361
vn 0 -0.9364337 0.3508444
vn 0.008282897 -0.9162794 0.4004542
vn 0.02433021 -0.899166 0.4369305
vn 0.03748017 -0.8789898 0.4753653
vn 0.03032616 -0.8685114 0.4947405
vn 0.01158604 -0.8620369 0.5067132
vn 0.013899 -0.9333262 0.3587605
vn 0 -0.9364337 0.3508444
vn 0 -0.8601823 0.5099867
vn 0.05406028 0.9475654 -0.3149561
vn 0.07362175 0.9138055 -0.3994237
vn 0.1673184 0.906974 -0.3865264
vn 0 0.9494151 -0.3140235
vn 0 0.9494148 -0.3140245
vn -0.07356822 0.9138201 -0.3994003
vn -0.1161355 0.8471568 -0.5184957
vn 0.1161604 0.8471645 -0.5184777
vn 3.905853E-05 0.806644 -0.5910376
vn -0.0540604 0.9475653 -0.3149562
vn -0.1673794 0.9070145 -0.386405
vn 0 0.9494148 -0.3140245
vn -0.1504787 0.7957962 -0.5865703
vn -0.1969951 0.857443 -0.4753782
vn -0.06595369 0.7670491 -0.6381894
vn 0 0.7415669 -0.6708789
vn 0.06596981 0.7671009 -0.6381255
vn 0.1968819 0.8574944 -0.4753324
vn 0.1503929 0.7958148 -0.5865669
vn 0.2769217 -0.9505146 0.1408412
vn 0.06286802 -0.9967543 0.05028194
vn -4.739768E-07 -0.9925297 0.1220031
vn -0.06286809 -0.9967543 0.05028198
vn -0.2769226 -0.9505143 0.1408416
vn -0.999845 -0.01355325 0.01123484
vn -0.9999483 -0.01014065 -0.0007879324
vn -0.9994658 -0.003030777 -0.03254282
vn -0.9988833 -0.0332792 0.03353584
vn -0.9972565 -0.0002222177 -0.07402473
vn -0.9720489 -0.213827 0.09694806
vn -0.9844179 -0.1275573 0.1210391
vn -0.9456579 -0.3044938 0.1140817
vn 0.7460238 -0.5981273 -0.2927323
vn 0.284958 -0.7574735 -0.587395
vn 0.7460252 -0.5981252 -0.292733
vn 0.2849588 -0.7574723 -0.587396
vn 0 -0.7677928 -0.6406984
vn 0 -0.7677928 -0.6406984
vn 0.9221344 -0.340295 0.1840311
vn 0.9221345 -0.3402932 0.1840338
vn 0.7435156 -0.08081885 0.6638168
vn 0.7462417 -0.0822947 0.6605686
vn 0.2816905 0.07598095 0.9564922
vn 0.2836919 0.0759619 0.955902
vn 0 0.1126945 0.9936296
vn 0 0.1126945 0.9936296
vn -0.8011904 0.2495971 0.5438707
vn -0.9961215 -0.06836144 0.05539607
vn -0.8143163 0.2355026 0.5304974
vn -0.9959268 -0.08384551 0.03316085
vn -0.8094804 -0.3931025 -0.4361331
vn -0.7960098 -0.4039485 -0.4507704
vn -0.3099801 -0.5968609 -0.7400469
vn -0.3015883 -0.5987342 -0.7419987
vn 0 -0.6207731 -0.7839903
vn 0 -0.6207732 -0.7839902
vn -0.3175313 0.3969337 0.8611721
vn -0.309594 0.3941247 0.8653423
vn 0 0.4144891 0.9100543
vn 0 0.4144891 0.9100543
vn 0.80119 0.2495973 0.5438711
vn 0.814316 0.2355027 0.5304978
vn 0.9961215 -0.06836145 0.05539602
vn 0.9959268 -0.0838455 0.03316083
vn 0.3175308 0.3969337 0.8611723
vn 0.3095935 0.3941248 0.8653424
vn 0 0.4144891 0.9100543
vn 0 0.4144891 0.9100543
vn 0.80948 -0.3931027 -0.4361335
vn 0.7960095 -0.4039491 -0.4507705
vn 0.3099789 -0.5968621 -0.7400464
vn 0.3015892 -0.5987354 -0.7419972
vn 0 -0.6207732 -0.7839902
vn 0 -0.6207732 -0.7839902
vn -0.746024 -0.5981269 -0.2927326
vn -0.7460247 -0.5981257 -0.2927333
vn -0.2849585 -0.7574736 -0.5873945
vn -0.2849582 -0.7574729 -0.5873956
vn -0.9221351 -0.3402933 0.1840309
vn -0.9221352 -0.3402916 0.1840335
vn -0.7435155 -0.08081809 0.6638171
vn -0.7462417 -0.08229505 0.6605686
vn -0.2816903 0.07598056 0.9564923
vn -0.2836927 0.07596109 0.9559019
vn 0 0.1126945 0.9936296
vn 0 0.1126945 0.9936296
vn 0 -0.7677928 -0.6406984
vn 0 -0.7677927 -0.6406984
g mag_ak_molot_rpk_drum_762x39_75_LOD1_0
f 3/3/3 2/2/2 1/1/1
f 1/1/1 4/4/4 3/3/3
f 4/4/4 1/1/1 5/5/5
f 4/4/4 5/5/5 6/6/6
f 7/7/7 2/2/2 3/3/3
f 8/8/8 7/7/7 3/3/3
f 11/11/11 10/10/10 9/9/9
f 10/10/10 12/12/12 9/9/9
f 13/13/13 9/9/9 12/12/12
f 14/14/14 9/9/9 13/13/13
f 13/13/13 15/15/15 14/14/14
f 16/16/16 14/14/14 15/15/15
f 16/16/16 17/17/17 14/14/14
f 11/11/11 17/17/17 18/18/18
f 17/17/17 19/19/19 18/18/18
f 19/19/19 17/17/17 16/16/16
f 20/20/20 11/11/11 18/18/18
f 11/11/11 20/20/20 10/10/10
f 23/23/23 22/22/22 21/21/21
f 22/22/22 23/23/23 24/24/24
f 22/22/22 25/25/25 21/21/21
f 25/25/25 22/22/22 26/26/26
f 22/22/22 27/27/27 26/26/26
f 27/27/27 22/22/22 28/28/28
f 22/22/22 29/29/29 28/28/28
f 29/29/29 22/22/22 24/24/24
f 32/32/32 31/31/31 30/30/30
f 35/35/35 34/34/34 33/33/33
f 38/38/38 37/37/37 36/36/36
f 37/37/37 38/38/38 39/39/39
f 42/42/42 41/41/41 40/40/40
f 41/41/41 42/42/42 43/43/43
f 46/46/46 45/45/45 44/44/44
f 47/47/47 45/45/45 46/46/46
f 48/48/48 45/45/45 47/47/47
f 49/49/49 45/45/45 48/48/48
f 48/48/48 50/50/50 49/49/49
f 49/49/49 50/50/50 51/51/51
f 49/49/49 52/52/52 45/45/45
f 53/53/53 45/45/45 52/52/52
f 54/54/54 45/45/45 53/53/53
f 55/55/55 45/45/45 54/54/54
f 56/56/56 45/45/45 55/55/55
f 52/52/52 57/57/57 53/53/53
f 58/58/58 57/57/57 52/52/52
f 44/44/44 45/45/45 59/59/59
f 45/45/45 56/56/56 59/59/59
f 62/62/62 61/61/61 60/60/60
f 63/63/63 60/60/60 61/61/61
f 64/64/64 60/60/60 63/63/63
f 61/61/61 65/65/65 63/63/63
f 65/65/65 61/61/61 66/66/66
f 67/67/67 66/66/66 61/61/61
f 66/66/66 67/67/67 68/68/68
f 69/69/69 63/63/63 65/65/65
f 69/69/69 65/65/65 70/70/70
f 66/66/66 70/70/70 65/65/65
f 69/69/69 71/71/71 63/63/63
f 68/68/68 72/72/72 66/66/66
f 73/73/73 66/66/66 72/72/72
f 70/70/70 66/66/66 73/73/73
f 72/72/72 68/68/68 74/74/74
f 74/74/74 68/68/68 75/75/75
f 68/68/68 76/76/76 75/75/75
f 67/67/67 76/76/76 68/68/68
f 77/77/77 61/61/61 62/62/62
f 78/78/78 67/67/67 77/77/77
f 76/76/76 67/67/67 78/78/78
f 61/61/61 77/77/77 67/67/67
f 81/81/81 80/80/80 79/79/79
f 82/82/82 80/80/80 81/81/81
f 82/82/82 81/81/81 83/83/83
f 86/86/86 85/85/85 84/84/84
f 87/87/87 84/84/84 85/85/85
f 88/88/88 85/85/85 86/86/86
f 85/85/85 89/89/89 87/87/87
f 87/87/87 89/89/89 90/90/90
f 91/91/91 90/90/90 89/89/89
f 94/94/94 93/93/93 92/92/92
f 93/93/93 94/94/94 95/95/95
f 95/95/95 96/96/96 93/93/93
f 96/96/96 95/95/95 97/97/97
f 92/92/92 98/98/98 94/94/94
f 98/98/98 92/92/92 99/99/99
f 99/99/99 100/100/100 98/98/98
f 100/100/100 99/99/99 101/101/101
f 101/101/101 102/102/102 100/100/100
f 102/102/102 101/101/101 103/103/103
f 104/104/104 102/102/102 103/103/103
f 102/102/102 104/104/104 105/105/105
f 108/108/108 107/107/107 106/106/106
f 107/107/107 108/108/108 109/109/109
f 109/109/109 110/110/110 107/107/107
f 110/110/110 109/109/109 111/111/111
f 111/111/111 112/112/112 110/110/110
f 112/112/112 111/111/111 113/113/113
f 114/114/114 112/112/112 113/113/113
f 112/112/112 114/114/114 115/115/115
f 116/116/116 108/108/108 106/106/106
f 108/108/108 116/116/116 117/117/117
f 118/118/118 117/117/117 116/116/116
f 117/117/117 118/118/118 119/119/119
f 122/122/122 121/121/121 120/120/120
f 121/121/121 122/122/122 123/123/123
f 121/121/121 124/124/124 120/120/120
f 124/124/124 121/121/121 125/125/125
f 125/125/125 126/126/126 124/124/124
f 126/126/126 125/125/125 127/127/127
f 128/128/128 123/123/123 122/122/122
f 123/123/123 128/128/128 129/129/129
f 130/130/130 129/129/129 128/128/128
f 129/129/129 130/130/130 131/131/131
f 130/130/130 132/132/132 131/131/131
f 132/132/132 130/130/130 133/133/133
f 136/136/136 135/135/135 134/134/134
f 135/135/135 136/136/136 137/137/137
f 138/138/138 134/134/134 135/135/135
f 134/134/134 138/138/138 139/139/139
f 140/140/140 139/139/139 138/138/138
f 139/139/139 140/140/140 141/141/141
f 142/142/142 141/141/141 140/140/140
f 141/141/141 142/142/142 143/143/143
f 142/142/142 144/144/144 143/143/143
f 144/144/144 142/142/142 145/145/145
f 146/146/146 137/137/137 136/136/136
f 137/137/137 146/146/146 147/147/147
