g mag_fal_ds_arms_fal_sa58_762x51_20_LOD1
v -0.012825 -0.03438597 -0.06713615
v -0.005824997 -0.03914774 -0.0661243
v 0.005824995 -0.03914774 -0.0661243
v 0.012825 -0.03438597 -0.06713615
v -0.012825 0.037446 -0.07756606
v 0.012825 0.037446 -0.07756606
v -0.006862206 0.04133184 -0.07756606
v 0.012825 -0.03431266 0.07566332
v -0.012825 -0.03431266 0.07566332
v -0.012825 0.03627959 0.07508218
v 0.012825 0.03627959 0.07508218
v -0.005824998 -0.03914775 0.07367743
v 0.005824996 -0.03914775 0.07367743
v -0.006839044 0.04132763 0.07508218
v -0.005824997 -0.03914774 -0.0661243
v -0.005824998 -0.03914775 0.07367743
v 0.005824996 -0.03914775 0.07367743
v 0.005824995 -0.03914774 -0.0661243
v 0.012825 -0.03431266 0.07566332
v 0.012825 -0.03438597 -0.06713615
v -0.012825 -0.03438597 -0.06713615
v -0.012825 -0.03431266 0.07566332
v 0.012825 -0.03438597 -0.06713615
v 0.012825 -0.03431266 0.07566332
v 0.012825 0.03627959 0.07508218
v 0.012825 0.037446 -0.07756606
v -0.006862206 0.04133184 -0.07756606
v 0.012825 0.037446 -0.07756606
v 0.012825 0.03627959 0.07508218
v -0.006839044 0.04132763 0.07508218
v -0.012825 0.037446 -0.07756606
v -0.012825 0.03627959 0.07508218
v -0.012825 0.037446 -0.07756606
v -0.012825 0.03627959 0.07508218
v -0.012825 -0.03431266 0.07566332
v -0.012825 -0.03438597 -0.06713615
vt 0.8506783 0.5328082
vt 0.8222553 0.5089021
vt 0.7749513 0.5089021
vt 0.7465281 0.5328082
vt 0.8506783 0.8194765
vt 0.7465281 0.8194765
vt 0.8238745 0.8366633
vt 0.7465281 0.4783871
vt 0.8499222 0.4783871
vt 0.8499222 0.1974293
vt 0.7465281 0.1974293
vt 0.8217055 0.5023707
vt 0.7747449 0.5023707
vt 0.8223484 0.1783723
vt 0.7672064 0.05993431
vt 0.01869065 0.05993431
vt 0.01869065 0.1261549
vt 0.7670539 0.1261549
vt 0.006039076 0.1771225
vt 0.7733728 0.1771225
vt 0.7736826 0.007201554
vt 0.006039156 0.007201554
vt 0.7372163 0.9314744
vt 0.7372163 0.1849055
vt 0.3782167 0.1849055
vt 0.3782166 0.9894668
vt 0.9595958 0.007201554
vt 0.8624514 0.007201554
vt 0.8624514 0.7926015
vt 0.9595958 0.7926015
vt 0.9883203 0.007201554
vt 0.9883203 0.7926015
vt 0.3701145 0.9887463
vt 0.3701145 0.1849055
vt 0.006039076 0.1849055
vt 0.006039076 0.9315625
vn 0 -0.1616584 -0.9868467
vn 0 -0.207854 -0.9781598
vn 0 -0.207854 -0.9781598
vn 0 -0.1616584 -0.9868467
vn 0 -0.1052771 -0.9944429
vn 0 -0.1279633 -0.9917789
vn 0 0 -1
vn 0 -0.1060297 0.994363
vn 0 -0.1060296 0.994363
vn 0 0.005692979 0.9999838
vn 0 0.007096802 0.9999748
vn 0 -0.3799278 0.9250162
vn 0 -0.3799278 0.9250162
vn 0 0 1
vn -0.306732 -0.9517959 0.0001160636
vn -0.3160177 -0.9487533 0.0001195778
vn 0.3160178 -0.9487533 0.0001195795
vn 0.306732 -0.9517959 0.0001160653
vn 0.5653925 -0.8248219 0.0002139565
vn 0.5653924 -0.824822 0.0002139565
vn -0.5653923 -0.8248221 0.0002139533
vn -0.5653924 -0.824822 0.0002139533
vn 1 0 0
vn 1 0 0
vn 1 0 0
vn 1 0 0
vn -0.2078965 0.9781436 0.003766323
vn 0.2213937 0.9751775 0.003722383
vn 0.2213937 0.9751775 0.003722383
vn -0.207822 0.9781594 0.003766378
vn -0.5988089 0.8008859 0.003116308
vn -0.5988089 0.8008859 0.003116308
vn -1 0 0
vn -1 0 0
vn -1 0 0
vn -1 0 0
g mag_fal_ds_arms_fal_sa58_762x51_20_LOD1_0
f 3/3/3 2/2/2 1/1/1
f 4/4/4 3/3/3 1/1/1
f 4/4/4 1/1/1 5/5/5
f 6/6/6 4/4/4 5/5/5
f 7/7/7 6/6/6 5/5/5
f 10/10/10 9/9/9 8/8/8
f 11/11/11 10/10/10 8/8/8
f 8/8/8 9/9/9 12/12/12
f 13/13/13 8/8/8 12/12/12
f 14/14/14 10/10/10 11/11/11
f 17/17/17 16/16/16 15/15/15
f 18/18/18 17/17/17 15/15/15
f 19/19/19 17/17/17 18/18/18
f 20/20/20 19/19/19 18/18/18
f 21/21/21 15/15/15 16/16/16
f 22/22/22 21/21/21 16/16/16
f 25/25/25 24/24/24 23/23/23
f 26/26/26 25/25/25 23/23/23
f 29/29/29 28/28/28 27/27/27
f 30/30/30 29/29/29 27/27/27
f 30/30/30 27/27/27 31/31/31
f 32/32/32 30/30/30 31/31/31
f 35/35/35 34/34/34 33/33/33
f 36/36/36 35/35/35 33/33/33
