g mag_m1911_colt_m1911a1_std_1143x23_7_LOD1
v -0.00690288 0.003189266 0.01093166
v -0.005222797 -0.0003119755 0.004262614
v -0.006902874 0.03738792 -0.1000828
v -0.005222785 0.03181217 -0.1009249
v -6.819638E-09 -0.001428707 -0.0001008511
v -1.997716E-09 0.03051175 -0.1011213
v 0.005222782 0.03181217 -0.1009249
v 0.005222783 -0.0003119779 0.004262614
v 0.006902874 0.03738791 -0.1000828
v 0.006902868 0.003189263 0.01093166
v -0.006902879 0.01012615 0.0152837
v -0.00690288 0.003189266 0.01093166
v -0.006838512 0.03199674 0.01046574
v -0.006902879 0.006345517 0.01364295
v -0.006902874 0.03738792 -0.1000828
v -0.00690287 0.06600622 -0.09740701
v -0.006902874 0.03788942 -0.1016535
v -0.006838512 0.03199674 0.01046574
v 0.006838509 0.03199673 0.01046574
v -0.004348874 0.03098232 0.01368162
v 0.004348869 0.03098231 0.01368162
v -0.00690287 0.06600622 -0.09740701
v 0.006902878 0.06600622 -0.09740701
v -0.004348874 0.03098232 0.01368162
v 0.004348869 0.03098231 0.01368162
v -0.006902879 0.01012615 0.0152837
v 0.006902869 0.01012614 0.0152837
v -0.006838512 0.03199674 0.01046574
v -0.006902879 0.006345517 0.01364295
v 0.006902868 0.006345517 0.01364295
v -0.00690288 0.003189266 0.01093166
v 0.006902868 0.003189263 0.01093166
v -0.005222797 -0.0003119755 0.004262614
v 0.005222783 -0.0003119779 0.004262614
v -6.819638E-09 -0.001428707 -0.0001008511
v 0.006838509 0.03199673 0.01046574
v 0.006902869 0.01012614 0.0152837
v 0.006838509 0.03199673 0.01046574
v 0.006902868 0.003189263 0.01093166
v 0.006902868 0.006345517 0.01364295
v 0.006902874 0.03738791 -0.1000828
v 0.006902878 0.06600622 -0.09740701
v 0.006902874 0.03788941 -0.1016535
v 0.006902874 0.03788941 -0.1016535
v 0.006902878 0.06600622 -0.09740701
v -0.006902874 0.03788942 -0.1016535
v -0.00690287 0.06600622 -0.09740701
v -2.591434E-09 0.02656851 -0.1033633
v -0.005222786 0.02864638 -0.1030495
v 0.005222781 0.02864638 -0.1030495
v -0.005222786 0.02816259 -0.1014761
v -0.005222786 0.02864638 -0.1030495
v -0.006902874 0.03738792 -0.1000828
v -0.006902874 0.03788942 -0.1016535
v -2.591434E-09 0.02656851 -0.1033633
v -2.66594E-09 0.0260781 -0.1017909
v 0.005222781 0.02816258 -0.1014761
v 0.005222781 0.02864638 -0.1030495
v 0.006902874 0.03738791 -0.1000828
v 0.006902874 0.03788941 -0.1016535
v -0.005222785 0.03181217 -0.1009249
v -0.005222786 0.02816259 -0.1014761
v -0.006902874 0.03738792 -0.1000828
v -1.997716E-09 0.03051175 -0.1011213
v -2.66594E-09 0.0260781 -0.1017909
v 0.005222781 0.02816258 -0.1014761
v 0.005222782 0.03181217 -0.1009249
v 0.006902874 0.03738791 -0.1000828
vt 0.4875109 0.9367017
vt 0.5307267 0.8953164
vt 0.4883236 0.036044
vt 0.533475 0.04257178
vt 0.5752037 0.8656321
vt 0.5752034 0.04415953
vt 0.6169316 0.04257178
vt 0.6196808 0.8953164
vt 0.6620829 0.03604364
vt 0.6628965 0.9367017
vt 0.1723017 0.983891
vt 0.2335655 0.9672134
vt 0.02087489 0.8989189
vt 0.2040452 0.9802263
vt 0.2296895 0.06656373
vt 0.01133195 0.0220046
vt 0.2295038 0.05378103
vt 0.7915701 0.9194732
vt 0.6855264 0.9194127
vt 0.772252 0.9456074
vt 0.7048147 0.945569
vt 0.7925678 0.04250716
vt 0.6855261 0.04244606
vt 0.8606441 0.5786275
vt 0.9280814 0.5786275
vt 0.840842 0.4164443
vt 0.9478837 0.4164443
vt 0.8301082 0.5897507
vt 0.840842 0.3844902
vt 0.9478837 0.3844902
vt 0.8408418 0.352229
vt 0.9478835 0.352229
vt 0.8538685 0.2938282
vt 0.9348574 0.2938282
vt 0.8943629 0.258906
vt 0.9586177 0.5897507
vt 0.3115144 0.983129
vt 0.4620073 0.8965139
vt 0.2500727 0.9671192
vt 0.2797329 0.97981
vt 0.2441466 0.06648058
vt 0.4620062 0.01954776
vt 0.2441932 0.05369651
vt 0.946989 0.8520849
vt 0.9469892 0.631611
vt 0.8399472 0.8520849
vt 0.8399475 0.631611
vt 0.8934679 0.9408561
vt 0.8529737 0.9245627
vt 0.9339626 0.9245628
vt 0.6054686 0.9552333
vt 0.6055192 0.9679963
vt 0.6782303 0.9656424
vt 0.678416 0.9784253
vt 0.561927 0.9657592
vt 0.5618575 0.9529888
vt 0.5182737 0.9557078
vt 0.5183619 0.9684699
vt 0.4456294 0.9669078
vt 0.4455827 0.9796922
vt 0.8616062 0.2007138
vt 0.8616063 0.1720959
vt 0.8485799 0.2444351
vt 0.9021007 0.1905165
vt 0.9021007 0.1557507
vt 0.9425952 0.1720958
vt 0.9425952 0.2007136
vt 0.9556217 0.244435
vn -0.9534066 -0.2883178 -0.08881808
vn -0.8546046 -0.4964761 -0.1521923
vn -0.9573764 -0.27624 -0.08439045
vn -0.7136881 -0.6684415 -0.2093687
vn 0 -0.9563219 -0.2923157
vn -4.485848E-07 -0.9534762 -0.3014684
vn 0.7136878 -0.668442 -0.2093687
vn 0.8546046 -0.4964762 -0.1521922
vn 0.9573763 -0.2762404 -0.08439045
vn 0.9534065 -0.2883182 -0.08881809
vn -0.9999926 0.002047614 -0.003263496
vn -0.9999977 0.002056712 -0.0005715927
vn -0.9999981 0.001957117 0.0002788201
vn -1 1.258126E-07 0
vn -0.9979661 -0.06080297 -0.01915351
vn -0.9999999 -5.187358E-05 0.0005563677
vn -0.9967243 -0.0770431 -0.02459829
vn 4.32753E-07 0.9537066 0.3007385
vn 4.579524E-07 0.9537066 0.3007386
vn 3.565988E-07 0.953678 0.3008294
vn 5.228357E-07 0.9536778 0.3008299
vn 0 0.9537237 0.3006845
vn 0 0.9537237 0.3006845
vn -0.4323772 0.1215795 0.8934586
vn 0.4323771 0.1215794 0.8934587
vn -0.04580153 -0.1603883 0.9859907
vn 0.04580151 -0.1603884 0.9859907
vn -0.7605895 0.1418073 0.6335568
vn 0 -0.5308337 0.847476
vn 0 -0.5308335 0.8474761
vn 0 -0.7733946 0.633925
vn -1.481067E-07 -0.7733944 0.6339251
vn -1.844962E-07 -0.9141517 0.4053723
vn -2.06556E-07 -0.9141517 0.4053724
vn -2.13788E-07 -0.9687763 0.2479363
vn 0.7605895 0.1418071 0.6335568
vn 0.9999926 0.002047326 -0.003263584
vn 0.9999981 0.001956828 0.000278819
vn 0.9999977 0.002056425 -0.0005716232
vn 1 -1.258129E-07 0
vn 0.9979659 -0.06080327 -0.01915358
vn 0.9999999 -5.216553E-05 0.0005563711
vn 0.9967243 -0.07704341 -0.0245984
vn 0 0.149336 -0.9887865
vn 0 0.1493365 -0.9887865
vn 1.335248E-07 0.149336 -0.9887865
vn 0 0.1493365 -0.9887865
vn 0 0.1493356 -0.9887866
vn 7.813927E-07 0.1493358 -0.9887866
vn -6.251142E-07 0.1493358 -0.9887866
vn -0.7501105 -0.6319866 -0.194749
vn -0.7951183 -0.5796349 -0.1783542
vn -0.9979661 -0.06080297 -0.01915351
vn -0.9967243 -0.0770431 -0.02459829
vn -3.351374E-07 -0.9548589 -0.2970601
vn -3.391072E-07 -0.9546472 -0.2977392
vn 0.7501101 -0.631987 -0.1947491
vn 0.7951179 -0.5796355 -0.1783544
vn 0.9979659 -0.06080327 -0.01915358
vn 0.9967243 -0.07704341 -0.0245984
vn 3.976985E-06 -0.1493359 0.9887866
vn -1.409431E-06 -0.149336 0.9887866
vn 6.848432E-06 -0.1493359 0.9887866
vn 0 -0.149336 0.9887865
vn 0 -0.1493361 0.9887865
vn 1.29074E-06 -0.149336 0.9887866
vn -3.958334E-06 -0.1493359 0.9887866
vn -6.758318E-06 -0.1493359 0.9887866
g mag_m1911_colt_m1911a1_std_1143x23_7_LOD1_0
f 3/3/3 2/2/2 1/1/1
f 3/3/3 4/4/4 2/2/2
f 4/4/4 5/5/5 2/2/2
f 4/4/4 6/6/6 5/5/5
f 7/7/7 5/5/5 6/6/6
f 7/7/7 8/8/8 5/5/5
f 9/9/9 8/8/8 7/7/7
f 9/9/9 10/10/10 8/8/8
f 13/13/13 12/12/12 11/11/11
f 14/14/14 11/11/11 12/12/12
f 13/13/13 15/15/15 12/12/12
f 13/13/13 16/16/16 15/15/15
f 16/16/16 17/17/17 15/15/15
f 20/20/20 19/19/19 18/18/18
f 20/20/20 21/21/21 19/19/19
f 22/22/22 18/18/18 19/19/19
f 22/22/22 19/19/19 23/23/23
f 26/26/26 25/25/25 24/24/24
f 26/26/26 27/27/27 25/25/25
f 24/24/24 28/28/28 26/26/26
f 29/29/29 27/27/27 26/26/26
f 29/29/29 30/30/30 27/27/27
f 31/31/31 30/30/30 29/29/29
f 31/31/31 32/32/32 30/30/30
f 33/33/33 32/32/32 31/31/31
f 33/33/33 34/34/34 32/32/32
f 35/35/35 34/34/34 33/33/33
f 36/36/36 25/25/25 27/27/27
f 39/39/39 38/38/38 37/37/37
f 37/37/37 40/40/40 39/39/39
f 41/41/41 38/38/38 39/39/39
f 41/41/41 42/42/42 38/38/38
f 41/41/41 43/43/43 42/42/42
f 46/46/46 45/45/45 44/44/44
f 46/46/46 47/47/47 45/45/45
f 44/44/44 48/48/48 46/46/46
f 48/48/48 49/49/49 46/46/46
f 44/44/44 50/50/50 48/48/48
f 53/53/53 52/52/52 51/51/51
f 53/53/53 54/54/54 52/52/52
f 51/51/51 52/52/52 55/55/55
f 51/51/51 55/55/55 56/56/56
f 55/55/55 57/57/57 56/56/56
f 55/55/55 58/58/58 57/57/57
f 58/58/58 59/59/59 57/57/57
f 58/58/58 60/60/60 59/59/59
f 63/63/63 62/62/62 61/61/61
f 62/62/62 64/64/64 61/61/61
f 62/62/62 65/65/65 64/64/64
f 64/64/64 65/65/65 66/66/66
f 64/64/64 66/66/66 67/67/67
f 67/67/67 66/66/66 68/68/68
