g mag_p90_fn_p90_std_57x28_50_LOD1
v -0.02511488 0.1016955 -0.006355327
v -0.02511488 0.1016955 0.01322321
v -0.02511491 -0.1303006 0.01322279
v -0.02511491 -0.1303006 -0.006355742
v -0.02511491 -0.1396199 -0.006355758
v -0.02511492 -0.13962 0.01322277
v -0.02455174 -0.1392891 0.01557954
v -0.02455174 -0.1303006 0.01557956
v -0.02201745 -0.1374393 0.01823334
v -0.02201745 -0.134832 0.01823334
v -0.02455173 -0.1303006 -0.008727001
v -0.02455174 -0.1392857 -0.008727018
v -0.02201744 -0.134832 -0.0113808
v -0.02201744 -0.1374392 -0.01138081
v 0.02421312 0.09843818 -0.01836612
v 0.02796115 0.112426 -0.01836609
v 0.02421313 0.1264138 -0.01836607
v 0.01397334 0.1366536 -0.01836605
v 0.01397334 0.08819841 -0.01836614
v -1.447319E-05 0.08445039 -0.01836614
v -1.446474E-05 0.1404016 -0.01836604
v -0.01400227 0.1366536 -0.01836605
v -0.01400228 0.08819841 -0.01836614
v -0.02424207 0.0984382 -0.01836612
v -0.02424206 0.1264138 -0.01836607
v -0.02799009 0.112426 -0.01836609
v 0.01397334 0.08819841 -0.01836614
v 0.01397334 0.08819837 -0.006355349
v 0.02421312 0.09843816 -0.00635533
v 0.02421312 0.09843818 -0.01836612
v -1.447319E-05 0.08445039 -0.01836614
v -1.447376E-05 0.08445036 -0.006355356
v -0.01400228 0.08819841 -0.01836614
v -0.01400228 0.08819839 -0.006355351
v -0.02424207 0.0984382 -0.01836612
v -0.02424207 0.09843817 -0.006355333
v 0.02796115 0.112426 -0.01836609
v 0.02796115 0.1124259 0.01322329
v 0.02421313 0.1264137 0.01322331
v 0.02421313 0.1264138 -0.01836607
v 0.01397334 0.1366535 0.01322333
v 0.01397334 0.1366536 -0.01836605
v -1.446625E-05 0.1404016 0.01322334
v -1.446474E-05 0.1404016 -0.01836604
v -0.01400228 0.1366535 0.01322333
v -0.01400227 0.1366536 -0.01836605
v -0.02424206 0.1264137 0.01322331
v -0.02424206 0.1264138 -0.01836607
v -0.02799009 0.1124259 0.01322329
v -0.02799009 0.112426 -0.01836609
v 0.02557103 0.1035059 -0.006355321
v 0.02557103 0.1035059 0.01322321
v 0.02421312 0.09843818 -0.01836612
v 0.02421312 0.09843816 -0.00635533
v -0.02511488 0.1016955 0.01322321
v -0.02511488 0.1016955 -0.006355327
v -0.02424207 0.09843817 -0.006355333
v -0.02424207 0.0984382 -0.01836612
v 0.02557103 0.1035059 0.01322321
v 0.02557103 0.1035059 -0.006355321
v 0.02557099 -0.1303006 -0.006355739
v 0.02557099 -0.1303006 0.01322279
v 0.02557099 -0.1396199 -0.006355756
v 0.02557099 -0.13962 0.01322278
v 0.02500781 -0.1303006 0.01557956
v 0.02500781 -0.1392891 0.01557954
v 0.02247352 -0.134832 0.01823334
v 0.02247352 -0.1374393 0.01823334
v 0.02500781 -0.1392857 -0.008727015
v 0.02500781 -0.1303006 -0.008726998
v 0.02247352 -0.1374392 -0.01138081
v 0.02247352 -0.134832 -0.0113808
v -0.01400228 0.08819839 -0.006355351
v -0.02424207 0.09843817 -0.006355333
v -0.02511491 -0.1303006 -0.006355742
v -0.01050407 -0.1303006 -0.00635574
v -1.447376E-05 0.08445036 -0.006355356
v 0.01047506 -0.1303006 -0.00635574
v -0.01050407 -0.1396199 -0.006355757
v 0.01047505 -0.1396199 -0.006355757
v 0.01397334 0.08819837 -0.006355349
v 0.02557099 -0.1303006 -0.006355739
v 0.02421312 0.09843816 -0.00635533
v -0.02511488 0.1016955 -0.006355327
v 0.02557103 0.1035059 -0.006355321
v -0.01050407 -0.1303006 0.01322279
v -0.01050407 -0.1303006 0.01557956
v -0.02455174 -0.1303006 0.01557956
v -0.02511491 -0.1303006 0.01322279
v -0.01050407 -0.134832 0.01823334
v -0.02201745 -0.134832 0.01823334
v -0.02455174 -0.1303006 0.01557956
v -0.01050407 -0.1303006 0.01557956
v -0.01050407 -0.1374393 0.01823334
v -0.02201745 -0.1374393 0.01823334
v -0.02455174 -0.1392891 0.01557954
v -0.01050407 -0.1392891 0.01557954
v -0.02511492 -0.13962 0.01322277
v -0.01050407 -0.13962 0.01322278
v -0.01050407 -0.1392891 0.01557954
v -0.01050407 -0.1374393 0.01823334
v -0.01050407 -0.134832 0.01823334
v -0.01050407 -0.1303006 0.01557956
v -0.01050407 -0.13962 0.01322278
v -0.01050407 -0.1303006 0.01322279
v -0.01050407 -0.1396199 -0.006355757
v -0.02511491 -0.1396199 -0.006355758
v -0.02511492 -0.13962 0.01322277
v -0.01050407 -0.13962 0.01322278
v 0.01047505 -0.1396199 -0.006355757
v 0.01047505 -0.13962 0.01322278
v 0.02557099 -0.13962 0.01322278
v 0.02557099 -0.1396199 -0.006355756
v -0.02511491 -0.1303006 -0.006355742
v -0.02455173 -0.1303006 -0.008727001
v -0.01050407 -0.1303006 -0.008727
v -0.01050407 -0.1303006 -0.00635574
v 0.01047505 -0.13962 0.01322278
v -0.01050407 -0.13962 0.01322278
v -0.01050407 -0.1303006 0.01322279
v 0.01047505 -0.1303006 0.01322279
v 0.02557103 0.1035059 0.01322321
v -0.02511488 0.1016955 0.01322321
v -0.02799009 0.1124259 0.01322329
v 0.02796115 0.1124259 0.01322329
v 0.02421313 0.1264137 0.01322331
v -0.02424206 0.1264137 0.01322331
v 0.01397334 0.1366535 0.01322333
v -0.01400228 0.1366535 0.01322333
v -1.446625E-05 0.1404016 0.01322334
v -0.02511491 -0.1303006 0.01322279
v 0.02557099 -0.1303006 0.01322279
v -0.01050407 -0.1303006 -0.008727
v -0.02455173 -0.1303006 -0.008727001
v -0.02201744 -0.134832 -0.0113808
v -0.01050407 -0.134832 -0.0113808
v -0.01050407 -0.1374392 -0.01138081
v -0.02201744 -0.1374392 -0.01138081
v -0.01050407 -0.1392857 -0.008727016
v -0.02455174 -0.1392857 -0.008727018
v -0.01050407 -0.1396199 -0.006355757
v -0.02511491 -0.1396199 -0.006355758
v 0.01047505 -0.1303006 0.01557956
v 0.01047505 -0.134832 0.01823334
v 0.01047505 -0.1374393 0.01823334
v 0.01047505 -0.1392891 0.01557954
v 0.01047505 -0.1303006 0.01322279
v 0.01047505 -0.13962 0.01322278
v -0.01050407 -0.1303006 -0.00635574
v -0.01050407 -0.1303006 -0.008727
v -0.01050407 -0.1392857 -0.008727016
v -0.01050407 -0.1396199 -0.006355757
v -0.01050407 -0.1374392 -0.01138081
v -0.01050407 -0.134832 -0.0113808
v 0.01047505 -0.1303006 0.01557956
v 0.02500781 -0.1303006 0.01557956
v 0.02247352 -0.134832 0.01823334
v 0.01047505 -0.134832 0.01823334
v 0.01047505 -0.1374393 0.01823334
v 0.02247352 -0.1374393 0.01823334
v 0.01047505 -0.1392891 0.01557954
v 0.02500781 -0.1392891 0.01557954
v 0.01047505 -0.13962 0.01322278
v 0.02557099 -0.13962 0.01322278
v 0.02557099 -0.1303006 0.01322279
v 0.02500781 -0.1303006 0.01557956
v 0.01047505 -0.1303006 0.01557956
v 0.01047505 -0.1303006 0.01322279
v 0.01047505 -0.1396199 -0.006355757
v 0.01047505 -0.1392857 -0.008727015
v 0.01047506 -0.1303006 -0.008726999
v 0.01047506 -0.1303006 -0.00635574
v 0.01047506 -0.134832 -0.0113808
v 0.01047506 -0.1374392 -0.01138081
v 0.01047506 -0.1303006 -0.00635574
v 0.01047506 -0.1303006 -0.008726999
v 0.02500781 -0.1303006 -0.008726998
v 0.02557099 -0.1303006 -0.006355739
v 0.01047506 -0.134832 -0.0113808
v 0.02247352 -0.134832 -0.0113808
v 0.02500781 -0.1303006 -0.008726998
v 0.01047506 -0.1303006 -0.008726999
v 0.02247352 -0.1374392 -0.01138081
v 0.01047506 -0.1374392 -0.01138081
v 0.02500781 -0.1392857 -0.008727015
v 0.01047505 -0.1392857 -0.008727015
v 0.02557099 -0.1396199 -0.006355756
v 0.01047505 -0.1396199 -0.006355757
vt 0.1813647 0.04764062
vt 0.1813647 0.1797722
vt 0.9642107 0.1797729
vt 0.9642107 0.04764122
vt 0.9956578 0.04764152
vt 0.9956578 0.1797722
vt 0.9945412 0.1961259
vt 0.9642108 0.1961259
vt 0.9882993 0.2208908
vt 0.9795012 0.2208908
vt 0.9642107 0.03119314
vt 0.99453 0.03119355
vt 0.9795014 0.006428003
vt 0.9882994 0.006429017
vt 0.4081353 0.9242716
vt 0.4180196 0.8587784
vt 0.4102063 0.7921753
vt 0.3867891 0.7423084
vt 0.3832019 0.9711058
vt 0.3499003 0.9867322
vt 0.3540427 0.7225399
vt 0.320741 0.7381662
vt 0.3171537 0.9669636
vt 0.2937364 0.9170971
vt 0.2958076 0.7850008
vt 0.2859232 0.8504941
vt 0.1958563 0.7471817
vt 0.1958562 0.8056968
vt 0.2311316 0.8056967
vt 0.2311318 0.7471811
vt 0.1605808 0.7471818
vt 0.1605808 0.805697
vt 0.125305 0.7471819
vt 0.1253051 0.8056974
vt 0.09002963 0.7471823
vt 0.09002975 0.8056975
vt 0.005627469 0.9055896
vt 0.07561012 0.9055893
vt 0.0756099 0.8414266
vt 0.005627469 0.8414266
vt 0.07561012 0.7772636
vt 0.005627309 0.7772636
vt 0.0756099 0.7131003
vt 0.005627197 0.7131008
vt 0.0756099 0.6489374
vt 0.005627309 0.6489378
vt 0.07560979 0.5847745
vt 0.005627197 0.5847747
vt 0.07560979 0.5206116
vt 0.005627197 0.5206118
vt 0.0322361 0.9465066
vt 0.07560991 0.9465066
vt 0.005627484 0.9697524
vt 0.0322361 0.9697529
vt 0.07560957 0.4713908
vt 0.03223567 0.4713908
vt 0.03223567 0.4564487
vt 0.005627171 0.4564489
vt 0.176395 0.5769756
vt 0.1763952 0.7091073
vt 0.9653509 0.7091057
vt 0.9653509 0.5769743
vt 0.9967982 0.7091056
vt 0.996798 0.5769741
vt 0.9653509 0.5606208
vt 0.9956815 0.5606208
vt 0.9806415 0.5358564
vt 0.9894394 0.5358563
vt 0.9956703 0.7255538
vt 0.9653509 0.725554
vt 0.9894395 0.7503185
vt 0.9806416 0.7503185
vt 0.4397821 0.9160298
vt 0.4155949 0.964404
vt 0.9558932 0.968527
vt 0.9558933 0.8995031
vt 0.4486353 0.8499488
vt 0.9558932 0.8003947
vt 0.9779063 0.8995031
vt 0.9779063 0.8003949
vt 0.4397821 0.7838684
vt 0.9558932 0.729079
vt 0.415595 0.7354943
vt 0.4079008 0.9685272
vt 0.4036245 0.7290792
vt 0.02538313 0.02629852
vt 0.01743253 0.02629852
vt 0.01743437 0.1210779
vt 0.02538498 0.1248764
vt 0.1590648 0.6597801
vt 0.1202143 0.6597799
vt 0.111663 0.6952198
vt 0.1590649 0.6952198
vt 0.1590651 0.6421845
vt 0.1202145 0.6421843
vt 0.111663 0.6203527
vt 0.1590651 0.620353
vt 0.1097626 0.6042917
vt 0.1590649 0.6042917
vt 0.07252693 0.1665686
vt 0.07876867 0.1844776
vt 0.08756649 0.1844781
vt 0.1028555 0.16657
vt 0.07141066 0.1506658
vt 0.1028555 0.1506658
vt 0.140608 0.8500093
vt 0.09216108 0.850009
vt 0.09216108 0.9798468
vt 0.1406078 0.9798468
vt 0.2101709 0.8500093
vt 0.2101707 0.9798468
vt 0.260226 0.979847
vt 0.2602262 0.8500093
vt 0.01907334 0.3176929
vt 0.01106942 0.3214946
vt 0.01107034 0.4163264
vt 0.01907471 0.4163264
vt 0.05138389 0.3075547
vt 0.05138371 0.4491385
vt 0.08283107 0.449139
vt 0.08283107 0.3075549
vt 0.871787 0.2056759
vt 0.8656781 0.5477449
vt 0.9018865 0.5671492
vt 0.9018867 0.1895457
vt 0.9490871 0.2148405
vt 0.9490873 0.5418542
vt 0.9836402 0.2839465
vt 0.9836401 0.4727481
vt 0.9962877 0.3783473
vt 0.08283107 0.5477442
vt 0.08283107 0.2056754
vt 0.05968986 0.2703208
vt 0.05969001 0.1755166
vt 0.04197013 0.1926197
vt 0.04197012 0.2703208
vt 0.03317229 0.2703208
vt 0.03317231 0.1926197
vt 0.02226304 0.2703208
vt 0.02226305 0.1755167
vt 0.01418243 0.2703208
vt 0.01418257 0.171716
vt 0.2621087 0.8016645
vt 0.2710634 0.7710837
vt 0.2710634 0.7534883
vt 0.2621086 0.7410037
vt 0.2541561 0.8016645
vt 0.2541561 0.7387707
vt 0.1562875 0.1803262
vt 0.1562875 0.1643246
vt 0.1259708 0.1643243
vt 0.1248431 0.1803262
vt 0.132201 0.1464161
vt 0.1409979 0.1464159
vt 0.1231571 0.02942669
vt 0.1231571 0.1275049
vt 0.140877 0.110402
vt 0.140877 0.02942669
vt 0.1496749 0.02942669
vt 0.1496747 0.1104015
vt 0.1605906 0.02942669
vt 0.1605905 0.1275049
vt 0.1686213 0.02942669
vt 0.1686212 0.1313051
vt 0.04038813 0.1300412
vt 0.04834079 0.1262403
vt 0.0483408 0.02816314
vt 0.04038814 0.02816266
vt 0.104869 0.6221675
vt 0.09686717 0.6244232
vt 0.09686717 0.6850641
vt 0.104869 0.6850639
vt 0.08791181 0.6544817
vt 0.08791181 0.6368851
vt 0.02938759 0.4191751
vt 0.03739059 0.4191751
vt 0.03739059 0.3210804
vt 0.02938771 0.3172781
vt 0.08582601 0.02432436
vt 0.08582601 0.1052994
vt 0.1035458 0.1224026
vt 0.1035458 0.02432439
vt 0.0770283 0.1052994
vt 0.0770283 0.02432412
vt 0.06611891 0.1224024
vt 0.06611905 0.02432412
vt 0.05803841 0.126203
vt 0.05803844 0.02432436
vn -1 1.438759E-07 -1.217751E-07
vn -1 1.438759E-07 -1.217751E-07
vn -0.9969574 0 0.07794864
vn -0.9969929 3.603482E-07 -0.07749226
vn -0.9938148 4.589326E-07 -0.11105
vn -0.9937389 0 0.1117283
vn -0.9045005 -6.134178E-07 0.4264727
vn -0.9241293 -5.179501E-07 0.3820799
vn -0.7232025 -1.199428E-06 0.6906359
vn -0.7232025 -1.199428E-06 0.690636
vn -0.9245039 9.295806E-07 -0.3811725
vn -0.9048447 1.003805E-06 -0.4257418
vn -0.7232024 1.427468E-06 -0.690636
vn -0.7232024 1.427468E-06 -0.690636
vn 0 1.774962E-06 -1
vn 1.590294E-07 1.747085E-06 -1
vn 0 1.774962E-06 -1
vn 0 1.788235E-06 -1
vn 0 1.788235E-06 -1
vn 0 1.792596E-06 -1
vn 0 1.792596E-06 -1
vn 0 1.788235E-06 -1
vn 0 1.788236E-06 -1
vn 0 1.774963E-06 -1
vn 0 1.774963E-06 -1
vn -1.590317E-07 1.747085E-06 -1
vn 0.4999999 -0.8660255 -2.394764E-06
vn 0.4999997 -0.8660256 -2.394764E-06
vn 0.8660253 -0.5000004 -1.437064E-06
vn 0.8660253 -0.5000002 -1.437064E-06
vn -1.767783E-07 -1 -2.576588E-06
vn -1.669573E-07 -1 -2.576588E-06
vn -0.5000002 -0.8660253 -2.062158E-06
vn -0.5 -0.8660254 -2.062158E-06
vn -0.8660254 -0.5 -1.197894E-06
vn -0.8660253 -0.5000002 -1.197895E-06
vn 1 0 0
vn 1 4.714099E-07 1.086347E-07
vn 0.8660255 0.4999999 1.266307E-06
vn 0.8660254 0.5000001 1.266308E-06
vn 0.4999999 0.8660254 2.043628E-06
vn 0.4999999 0.8660255 2.043629E-06
vn 1.571363E-07 1 2.189481E-06
vn 1.571363E-07 1 2.189481E-06
vn -0.4999998 0.8660256 1.80335E-06
vn -0.4999997 0.8660256 1.80335E-06
vn -0.8660253 0.5000002 9.982077E-07
vn -0.8660253 0.5000002 9.982077E-07
vn -1 5.205148E-07 0
vn -1 1.325837E-07 0
vn 0.9659258 -0.258819 -6.457846E-07
vn 0.9659258 -0.2588188 -4.872221E-07
vn 0.8660253 -0.5000002 -1.437064E-06
vn 0.8660253 -0.5000004 -1.437064E-06
vn -0.9659258 -0.2588189 -6.68481E-07
vn -0.9659258 -0.2588189 -6.520017E-07
vn -0.8660253 -0.5000002 -1.197895E-06
vn -0.8660254 -0.5 -1.197894E-06
vn 1 -1.529591E-07 1.217751E-07
vn 1 -1.529591E-07 1.217751E-07
vn 0.9969929 0 -0.07749211
vn 0.9969574 -3.643445E-07 0.07794883
vn 0.9938148 0 -0.1110499
vn 0.9937388 -4.60336E-07 0.1117285
vn 0.9241292 -9.067521E-07 0.3820803
vn 0.9045002 -9.731216E-07 0.4264731
vn 0.7232018 -1.348263E-06 0.6906368
vn 0.7232018 -1.348263E-06 0.6906368
vn 0.9048446 5.642528E-07 -0.425742
vn 0.9245039 4.722513E-07 -0.3811727
vn 0.7232022 1.129714E-06 -0.6906364
vn 0.7232022 1.129714E-06 -0.6906364
vn 0 1.784322E-06 -1
vn -1.134332E-07 1.787435E-06 -1
vn 0 1.784766E-06 -1
vn 0 1.788522E-06 -1
vn 0 1.787699E-06 -1
vn 0 1.790233E-06 -1
vn 0 1.790816E-06 -1
vn 0 1.790816E-06 -1
vn 0 1.790356E-06 -1
vn 0 1.789601E-06 -1
vn 2.813278E-07 1.789615E-06 -1
vn -1.554951E-07 1.788169E-06 -1
vn 3.441818E-07 1.789619E-06 -1
vn 0 1 0
vn 0 1 0
vn 0 1 0
vn 0 1 0
vn 0 0.2618106 0.9651192
vn 0 0.2944207 0.955676
vn 0 0.5053586 0.8629095
vn 0 0.5053585 0.8629095
vn 0 -0.4626922 0.886519
vn 0 -0.5412354 0.8408712
vn 0 -0.9567586 0.2908831
vn 0 -0.9308321 0.365447
vn 0 -0.9979423 0.06411888
vn 0 -0.9989209 0.04644412
vn 1 -2.407101E-07 0
vn 1 -2.056085E-07 -1.038806E-07
vn 1 -2.056085E-07 -1.038806E-07
vn 1 -2.466221E-07 0
vn 1 -2.604552E-07 0
vn 1 -2.604552E-07 0
vn 0 -0.9989123 -0.046627
vn 0 -0.9979237 -0.06440603
vn 0 -0.9979423 0.06411888
vn 0 -0.9989209 0.04644412
vn 0 -0.9989123 -0.04662702
vn 0 -0.9989209 0.04644411
vn 0 -0.9979423 0.06411888
vn 0 -0.9979237 -0.06440605
vn 0 1 4.021805E-06
vn 0 1 4.021806E-06
vn 0 1 4.021805E-06
vn 0 1 4.021805E-06
vn 0 -1.918736E-06 1
vn 0 -1.918736E-06 1
vn 0 -1.833574E-06 1
vn 0 -1.830764E-06 1
vn 0 -5.235461E-06 1
vn 0 -5.103893E-06 1
vn 0 -4.885997E-06 1
vn 0 -4.885997E-06 1
vn 0 -1.786862E-06 1
vn 0 -1.786862E-06 1
vn 0 -1.972028E-06 1
vn 0 -1.972028E-06 1
vn 0 -1.908356E-06 1
vn -1.631792E-07 -1.793308E-06 1
vn -1.579337E-07 -1.78452E-06 1
vn 0 0.5053585 -0.8629095
vn 0 0.5053585 -0.8629095
vn 0 0.294422 -0.9556755
vn 0 0.2618124 -0.9651188
vn 0 -0.4630643 -0.8863247
vn 0 -0.5416938 -0.8405758
vn 0 -0.9308871 -0.3653072
vn 0 -0.9567184 -0.2910156
vn 0 -0.9989123 -0.046627
vn 0 -0.9979237 -0.06440603
vn -1 0 0
vn -1 0 0
vn -1 0 0
vn -1 0 0
vn -1 1.302276E-07 0
vn -1 1.302276E-07 0
vn 1 -2.605021E-07 0
vn 1 -2.466723E-07 0
vn 1 -2.407544E-07 0
vn 1 -2.605021E-07 0
vn 1 -2.056681E-07 1.040407E-07
vn 1 -2.056681E-07 1.040407E-07
vn 0 0.5053583 0.8629096
vn 0 0.5053584 0.8629096
vn 0 0.2944205 0.955676
vn 0 0.2618105 0.9651194
vn 0 -0.4626921 0.886519
vn 0 -0.5412353 0.8408712
vn 0 -0.9308321 0.365447
vn 0 -0.9567586 0.2908832
vn 0 -0.9989209 0.04644411
vn 0 -0.9979423 0.06411888
vn 0 1 0
vn 0 1 0
vn 0 1 0
vn 0 1 0
vn -1 2.605021E-07 0
vn -1 2.407544E-07 0
vn -1 2.466722E-07 0
vn -1 2.605021E-07 0
vn -1 2.056681E-07 -1.040406E-07
vn -1 2.05668E-07 -1.040406E-07
vn 0 1 4.021806E-06
vn 0 1 4.021806E-06
vn 0 1 4.021806E-06
vn 0 1 4.021806E-06
vn 0 0.2618124 -0.9651188
vn 0 0.294422 -0.9556755
vn 0 0.5053586 -0.8629095
vn 0 0.5053586 -0.8629095
vn 0 -0.5416938 -0.8405758
vn 0 -0.4630644 -0.8863246
vn 0 -0.9567183 -0.2910156
vn 0 -0.9308871 -0.3653071
vn 0 -0.9979237 -0.06440605
vn 0 -0.9989123 -0.04662702
g mag_p90_fn_p90_std_57x28_50_LOD1_0
f 3/3/3 2/2/2 1/1/1
f 4/4/4 3/3/3 1/1/1
f 4/4/4 5/5/5 3/3/3
f 5/5/5 6/6/6 3/3/3
f 6/6/6 7/7/7 3/3/3
f 7/7/7 8/8/8 3/3/3
f 7/7/7 9/9/9 8/8/8
f 9/9/9 10/10/10 8/8/8
f 4/4/4 11/11/11 5/5/5
f 11/11/11 12/12/12 5/5/5
f 11/11/11 13/13/13 12/12/12
f 13/13/13 14/14/14 12/12/12
f 17/17/17 16/16/16 15/15/15
f 17/17/17 15/15/15 18/18/18
f 15/15/15 19/19/19 18/18/18
f 19/19/19 20/20/20 18/18/18
f 20/20/20 21/21/21 18/18/18
f 22/22/22 21/21/21 20/20/20
f 23/23/23 22/22/22 20/20/20
f 23/23/23 24/24/24 22/22/22
f 24/24/24 25/25/25 22/22/22
f 24/24/24 26/26/26 25/25/25
f 29/29/29 28/28/28 27/27/27
f 30/30/30 29/29/29 27/27/27
f 27/27/27 28/28/28 31/31/31
f 28/28/28 32/32/32 31/31/31
f 31/31/31 32/32/32 33/33/33
f 32/32/32 34/34/34 33/33/33
f 33/33/33 34/34/34 35/35/35
f 34/34/34 36/36/36 35/35/35
f 39/39/39 38/38/38 37/37/37
f 40/40/40 39/39/39 37/37/37
f 41/41/41 39/39/39 40/40/40
f 42/42/42 41/41/41 40/40/40
f 43/43/43 41/41/41 42/42/42
f 44/44/44 43/43/43 42/42/42
f 45/45/45 43/43/43 44/44/44
f 46/46/46 45/45/45 44/44/44
f 47/47/47 45/45/45 46/46/46
f 48/48/48 47/47/47 46/46/46
f 49/49/49 47/47/47 48/48/48
f 50/50/50 49/49/49 48/48/48
f 37/37/37 38/38/38 51/51/51
f 38/38/38 52/52/52 51/51/51
f 37/37/37 51/51/51 53/53/53
f 51/51/51 54/54/54 53/53/53
f 55/55/55 49/49/49 50/50/50
f 56/56/56 55/55/55 50/50/50
f 57/57/57 56/56/56 50/50/50
f 58/58/58 57/57/57 50/50/50
f 61/61/61 60/60/60 59/59/59
f 62/62/62 61/61/61 59/59/59
f 61/61/61 62/62/62 63/63/63
f 62/62/62 64/64/64 63/63/63
f 62/62/62 65/65/65 64/64/64
f 65/65/65 66/66/66 64/64/64
f 65/65/65 67/67/67 66/66/66
f 67/67/67 68/68/68 66/66/66
f 63/63/63 69/69/69 61/61/61
f 69/69/69 70/70/70 61/61/61
f 69/69/69 71/71/71 70/70/70
f 71/71/71 72/72/72 70/70/70
f 75/75/75 74/74/74 73/73/73
f 76/76/76 75/75/75 73/73/73
f 76/76/76 73/73/73 77/77/77
f 78/78/78 76/76/76 77/77/77
f 79/79/79 76/76/76 78/78/78
f 80/80/80 79/79/79 78/78/78
f 78/78/78 77/77/77 81/81/81
f 78/78/78 81/81/81 82/82/82
f 81/81/81 83/83/83 82/82/82
f 75/75/75 84/84/84 74/74/74
f 83/83/83 85/85/85 82/82/82
f 88/88/88 87/87/87 86/86/86
f 89/89/89 88/88/88 86/86/86
f 92/92/92 91/91/91 90/90/90
f 93/93/93 92/92/92 90/90/90
f 90/90/90 91/91/91 94/94/94
f 91/91/91 95/95/95 94/94/94
f 94/94/94 95/95/95 96/96/96
f 97/97/97 94/94/94 96/96/96
f 97/97/97 96/96/96 98/98/98
f 99/99/99 97/97/97 98/98/98
f 102/102/102 101/101/101 100/100/100
f 103/103/103 102/102/102 100/100/100
f 103/103/103 100/100/100 104/104/104
f 105/105/105 103/103/103 104/104/104
f 108/108/108 107/107/107 106/106/106
f 109/109/109 108/108/108 106/106/106
f 109/109/109 106/106/106 110/110/110
f 111/111/111 109/109/109 110/110/110
f 111/111/111 110/110/110 112/112/112
f 110/110/110 113/113/113 112/112/112
f 116/116/116 115/115/115 114/114/114
f 117/117/117 116/116/116 114/114/114
f 120/120/120 119/119/119 118/118/118
f 121/121/121 120/120/120 118/118/118
f 120/120/120 121/121/121 122/122/122
f 123/123/123 120/120/120 122/122/122
f 124/124/124 123/123/123 122/122/122
f 125/125/125 124/124/124 122/122/122
f 125/125/125 126/126/126 124/124/124
f 126/126/126 127/127/127 124/124/124
f 126/126/126 128/128/128 127/127/127
f 128/128/128 129/129/129 127/127/127
f 128/128/128 130/130/130 129/129/129
f 123/123/123 131/131/131 120/120/120
f 121/121/121 132/132/132 122/122/122
f 135/135/135 134/134/134 133/133/133
f 136/136/136 135/135/135 133/133/133
f 136/136/136 137/137/137 135/135/135
f 137/137/137 138/138/138 135/135/135
f 138/138/138 137/137/137 139/139/139
f 140/140/140 138/138/138 139/139/139
f 140/140/140 139/139/139 141/141/141
f 142/142/142 140/140/140 141/141/141
f 145/145/145 144/144/144 143/143/143
f 146/146/146 145/145/145 143/143/143
f 146/146/146 143/143/143 147/147/147
f 148/148/148 146/146/146 147/147/147
f 151/151/151 150/150/150 149/149/149
f 152/152/152 151/151/151 149/149/149
f 151/151/151 153/153/153 150/150/150
f 153/153/153 154/154/154 150/150/150
f 157/157/157 156/156/156 155/155/155
f 158/158/158 157/157/157 155/155/155
f 158/158/158 159/159/159 157/157/157
f 159/159/159 160/160/160 157/157/157
f 160/160/160 159/159/159 161/161/161
f 162/162/162 160/160/160 161/161/161
f 162/162/162 161/161/161 163/163/163
f 164/164/164 162/162/162 163/163/163
f 167/167/167 166/166/166 165/165/165
f 168/168/168 167/167/167 165/165/165
f 171/171/171 170/170/170 169/169/169
f 172/172/172 171/171/171 169/169/169
f 171/171/171 173/173/173 170/170/170
f 173/173/173 174/174/174 170/170/170
f 177/177/177 176/176/176 175/175/175
f 178/178/178 177/177/177 175/175/175
f 181/181/181 180/180/180 179/179/179
f 182/182/182 181/181/181 179/179/179
f 179/179/179 180/180/180 183/183/183
f 184/184/184 179/179/179 183/183/183
f 184/184/184 183/183/183 185/185/185
f 186/186/186 184/184/184 185/185/185
f 186/186/186 185/185/185 187/187/187
f 188/188/188 186/186/186 187/187/187
