g mag_stanag_hk_416_steel_maritime_556x45_30_LOD1
v 0.01065737 8.641004E-05 -0.05316624
v -0.01148361 8.641004E-05 -0.05316624
v -0.01148361 8.640051E-05 -0.0006135654
v 0.01065737 8.640051E-05 -0.0006135654
v 0.01065737 -0.001301577 -0.08248824
v -0.01148361 -0.001301577 -0.08248824
v 0.01065737 -0.005876829 -0.1109423
v -0.01148361 -0.005876829 -0.1109423
v 0.01065737 -0.01331869 -0.1412581
v -0.01148361 -0.01331869 -0.1412581
v 0.01065737 -0.02287608 -0.1679876
v -0.01148361 -0.02287608 -0.1679876
v 0.004783857 0.03647634 -0.191402
v -0.005610099 0.03647634 -0.191402
v -0.005610099 0.03281379 -0.1899572
v 0.004783857 0.03281379 -0.1899572
v -0.01148361 -0.02287608 -0.1679876
v 0.01065737 -0.02287608 -0.1679876
v 0.01065737 0.03281379 -0.1899572
v -0.01148361 0.03281379 -0.1899572
v 0.004783857 0.04838655 -0.1582699
v -0.005610099 0.04838655 -0.1582699
v -0.005610099 0.03647634 -0.191402
v 0.004783857 0.03647634 -0.191402
v 0.004783857 0.05765264 -0.1207957
v -0.005610099 0.05765264 -0.1207957
v 0.004783857 0.06235258 -0.08720417
v -0.005610099 0.06235258 -0.08720417
v 0.004783857 0.06353243 -0.05451777
v -0.005610099 0.06353243 -0.05451777
v 0.004783857 0.06353242 -0.01001946
v -0.005610099 0.06353242 -0.01001946
v 0.01065737 8.641004E-05 -0.05316624
v 0.01065737 0.05959854 -0.05443398
v 0.01065737 0.05844587 -0.08691474
v 0.01065737 -0.001301577 -0.08248824
v 0.01065737 0.0537398 -0.1201888
v 0.01065737 -0.005876829 -0.1109423
v 0.01065737 0.04457542 -0.1572192
v 0.01065737 -0.01331869 -0.1412581
v 0.01065737 0.03281379 -0.1899572
v 0.01065737 -0.02287608 -0.1679876
v 0.01065737 0.02521769 0.003524656
v 0.01065737 8.640051E-05 -0.0006135654
v 0.01065737 0.05959853 0.003524647
v 0.01065737 8.640051E-05 -0.0006135654
v -0.01148361 8.640051E-05 -0.0006135654
v -0.01148361 0.02521769 0.003524656
v 0.01065737 0.02521769 0.003524656
v 0.004783857 0.06353243 -0.05451777
v 0.004783857 0.05959854 -0.05443398
v 0.004783857 0.05959853 -0.01001946
v 0.004783857 0.06353242 -0.01001946
v 0.004783857 0.06235258 -0.08720417
v 0.004783857 0.05844587 -0.08691474
v 0.004783857 0.05765264 -0.1207957
v 0.004783857 0.0537398 -0.1201888
v 0.004783857 0.04838655 -0.1582699
v 0.004783857 0.04457542 -0.1572192
v 0.004783857 0.03647634 -0.191402
v 0.004783857 0.03281379 -0.1899572
v 0.01065737 0.05959854 -0.05443398
v 0.004783857 0.05959854 -0.05443398
v 0.004783857 0.05844587 -0.08691474
v 0.01065737 0.05844587 -0.08691474
v 0.004783857 0.0537398 -0.1201888
v 0.01065737 0.0537398 -0.1201888
v 0.004783857 0.04457542 -0.1572192
v 0.01065737 0.04457542 -0.1572192
v 0.004783857 0.03281379 -0.1899572
v 0.01065737 0.03281379 -0.1899572
v 0.004783857 0.05959853 -0.01001946
v 0.01065737 0.05959853 0.003524647
v -0.01148361 0.05959853 0.003524647
v -0.005610099 0.05959853 -0.01001946
v -0.01148361 0.05959854 -0.05443398
v -0.005610099 0.05959854 -0.05443398
v -0.005610099 0.05844587 -0.08691474
v -0.01148361 0.05844587 -0.08691474
v -0.005610099 0.0537398 -0.1201888
v -0.01148361 0.0537398 -0.1201888
v -0.005610099 0.04457542 -0.1572192
v -0.01148361 0.04457542 -0.1572192
v -0.005610099 0.03281379 -0.1899572
v -0.01148361 0.03281379 -0.1899572
v 0.01065737 0.02521769 0.003524656
v -0.01148361 0.02521769 0.003524656
v -0.01148361 0.05959853 0.003524647
v 0.01065737 0.05959853 0.003524647
v 0.004783857 0.05959853 -0.01001946
v -0.005610099 0.05959853 -0.01001946
v -0.005610099 0.06353242 -0.01001946
v 0.004783857 0.06353242 -0.01001946
v -0.01148361 8.641004E-05 -0.05316624
v -0.01148361 -0.001301577 -0.08248824
v -0.01148361 0.05844587 -0.08691474
v -0.01148361 0.05959854 -0.05443398
v -0.01148361 0.0537398 -0.1201888
v -0.01148361 -0.005876829 -0.1109423
v -0.01148361 0.04457542 -0.1572192
v -0.01148361 -0.01331869 -0.1412581
v -0.01148361 0.03281379 -0.1899572
v -0.01148361 -0.02287608 -0.1679876
v -0.01148361 0.02521769 0.003524656
v -0.01148361 8.640051E-05 -0.0006135654
v -0.01148361 0.05959853 0.003524647
v -0.005610099 0.06353243 -0.05451777
v -0.005610099 0.06353242 -0.01001946
v -0.005610099 0.05959853 -0.01001946
v -0.005610099 0.05959854 -0.05443398
v -0.005610099 0.06235258 -0.08720417
v -0.005610099 0.05844587 -0.08691474
v -0.005610099 0.05765264 -0.1207957
v -0.005610099 0.0537398 -0.1201888
v -0.005610099 0.04838655 -0.1582699
v -0.005610099 0.04457542 -0.1572192
v -0.005610099 0.03647634 -0.191402
v -0.005610099 0.03281379 -0.1899572
vt 0.880686 0.5937483
vt 0.773749 0.5937483
vt 0.773749 0.8564041
vt 0.880686 0.8564041
vt 0.880686 0.4470362
vt 0.773749 0.4470362
vt 0.880686 0.3030001
vt 0.773749 0.3030001
vt 0.880686 0.1469863
vt 0.773749 0.1469863
vt 0.880686 0.005109777
vt 0.773749 0.005109777
vt 0.967359 0.004252974
vt 0.917156 0.004252974
vt 0.917156 0.02393048
vt 0.967359 0.02392841
vt 0.888788 0.3231412
vt 0.99573 0.3231412
vt 0.99573 0.02392841
vt 0.888788 0.02393048
vt 0.170381 0.7532772
vt 0.120179 0.7532783
vt 0.12018 0.9292458
vt 0.170382 0.9292458
vt 0.170382 0.5603474
vt 0.120179 0.5603443
vt 0.170381 0.3908245
vt 0.12018 0.3908255
vt 0.170383 0.227352
vt 0.12018 0.2273509
vt 0.170382 0.004953525
vt 0.12018 0.004953525
vt 0.179719 0.6452392
vt 0.468418 0.6505829
vt 0.468419 0.4981733
vt 0.179719 0.4874922
vt 0.468419 0.3427359
vt 0.179719 0.3301518
vt 0.468419 0.1643097
vt 0.179719 0.1614381
vt 0.468419 0.00495663
vt 0.179719 0.00495663
vt 0.299256 0.9343805
vt 0.179719 0.9096397
vt 0.468419 0.9343805
vt 0.994951 0.5120394
vt 0.888011 0.5120394
vt 0.888011 0.6393338
vt 0.994951 0.6393338
vt 0.3306219 0.9910474
vt 0.3306219 0.9713565
vt 0.119917 0.9713565
vt 0.119916 0.9910474
vt 0.4851594 0.9910495
vt 0.4851594 0.9713575
vt 0.6451794 0.9910485
vt 0.6451774 0.9713565
vt 0.8270602 0.9910495
vt 0.8270631 0.9713565
vt 0.9929358 0.9910505
vt 0.9929387 0.9713586
vt 0.004777 0.6998377
vt 0.033144 0.6998377
vt 0.033144 0.5373959
vt 0.004777 0.5373969
vt 0.033144 0.3694386
vt 0.004777 0.3694386
vt 0.033144 0.1787781
vt 0.004777 0.1787791
vt 0.033144 0.004914203
vt 0.004776 0.004915237
vt 0.033144 0.9218243
vt 0.004777 0.989517
vt 0.11173 0.989517
vt 0.083361 0.9218243
vt 0.11173 0.699846
vt 0.083361 0.699845
vt 0.083361 0.5374061
vt 0.11173 0.5374072
vt 0.083361 0.36945
vt 0.11173 0.36945
vt 0.083361 0.1787915
vt 0.11173 0.1787926
vt 0.083361 0.004933863
vt 0.11173 0.004933863
vt 0.995532 0.3319544
vt 0.888594 0.3319544
vt 0.888594 0.503787
vt 0.995532 0.503787
vt 0.94977 0.6569572
vt 0.89957 0.6569572
vt 0.89957 0.6766182
vt 0.94977 0.6766182
vt 0.765631 0.6453831
vt 0.765631 0.4876381
vt 0.476929 0.4983171
vt 0.476929 0.6507257
vt 0.476929 0.3428818
vt 0.765631 0.330306
vt 0.476929 0.1644618
vt 0.765631 0.1615913
vt 0.476929 0.005109777
vt 0.765631 0.005109777
vt 0.646089 0.9345191
vt 0.765631 0.9097794
vt 0.476929 0.9345191
vt 0.7817686 0.9627512
vt 0.9924735 0.9627522
vt 0.9924735 0.9430634
vt 0.7817676 0.9430634
vt 0.6272312 0.9627512
vt 0.6272312 0.9430634
vt 0.4672111 0.9627522
vt 0.4672111 0.9430624
vt 0.2853274 0.9627522
vt 0.2853264 0.9430644
vt 0.1194518 0.9627522
vt 0.1194509 0.9430634
vn 0 -0.9997203 0.02364807
vn 0 -0.9997203 0.02364807
vn 0 -1 -1.814702E-07
vn 0 -1 -1.814702E-07
vn 0 -0.9946626 0.1031812
vn 0 -0.9946626 0.1031812
vn 0 -0.9800519 0.1987419
vn 0 -0.9800519 0.1987419
vn 0 -0.9576541 0.2879215
vn 0 -0.9576541 0.2879215
vn 0 -0.9416177 0.3366838
vn 0 -0.9416177 0.3366838
vn 0 -0.3669721 -0.9302319
vn 0 -0.3669721 -0.9302319
vn 0 -0.3669738 -0.9302313
vn 0 -0.3669738 -0.9302313
vn 0 -0.3669747 -0.930231
vn 0 -0.3669747 -0.930231
vn 0 -0.3669747 -0.930231
vn 0 -0.3669747 -0.930231
vn 0 0.9571655 -0.2895414
vn 0 0.9571655 -0.2895414
vn 0 0.9410445 -0.3382829
vn 0 0.9410445 -0.3382829
vn 0 0.9818703 -0.1895539
vn 0 0.9818703 -0.1895539
vn 0 0.9961702 -0.08743423
vn 0 0.9961702 -0.08743423
vn 0 0.9998373 -0.01803913
vn 0 0.9998373 -0.01803913
vn 0 1 1.071585E-07
vn 0 1 1.071585E-07
vn 1 0 0
vn 1 0 0
vn 1 0 0
vn 1 0 0
vn 1 0 0
vn 1 0 0
vn 1 0 0
vn 1 0 0
vn 1 0 0
vn 1 0 0
vn 1 0 0
vn 1 0 0
vn 1 0 0
vn 0 -0.1624762 0.9867125
vn 0 -0.1624762 0.9867125
vn 0 -0.1624762 0.9867125
vn 0 -0.1624762 0.9867125
vn 1 0 0
vn 1 0 0
vn 1 0 0
vn 1 0 0
vn 1 0 0
vn 1 0 0
vn 1 0 0
vn 1 0 0
vn 1 0 0
vn 1 0 0
vn 1 0 0
vn 1 0 0
vn -1.074249E-07 0.9998428 -0.01773539
vn -1.074249E-07 0.9998428 -0.01773539
vn 0 0.9961317 -0.08787368
vn 0 0.9961317 -0.08787368
vn 0 0.9817093 -0.1903856
vn 0 0.9817093 -0.1903856
vn 0 0.9571629 -0.2895499
vn 0 0.9571629 -0.2895499
vn 0 0.9411076 -0.3381072
vn 0 0.9411076 -0.3381072
vn -1.24558E-07 1 1.080311E-07
vn 0 1 0
vn 0 1 0
vn 1.24558E-07 1 1.080312E-07
vn 1.074249E-07 0.9998428 -0.01773539
vn 1.074249E-07 0.9998428 -0.01773539
vn 0 0.9961317 -0.08787368
vn 0 0.9961317 -0.08787368
vn 0 0.9817093 -0.1903856
vn 0 0.9817093 -0.1903856
vn 0 0.9571629 -0.2895499
vn 0 0.9571629 -0.2895499
vn 0 0.9411076 -0.3381072
vn 0 0.9411076 -0.3381072
vn 0 2.773853E-07 1
vn 0 2.773853E-07 1
vn 0 2.773853E-07 1
vn 0 2.773853E-07 1
vn 0 0 1
vn 0 0 1
vn 0 0 1
vn 0 0 1
vn -1 0 0
vn -1 0 0
vn -1 0 0
vn -1 0 0
vn -1 0 0
vn -1 0 0
vn -1 0 0
vn -1 0 0
vn -1 0 0
vn -1 0 0
vn -1 0 0
vn -1 0 0
vn -1 0 0
vn -1 0 0
vn -1 0 0
vn -1 0 0
vn -1 0 0
vn -1 0 0
vn -1 0 0
vn -1 0 0
vn -1 0 0
vn -1 0 0
vn -1 0 0
vn -1 0 0
vn -1 0 0
g mag_stanag_hk_416_steel_maritime_556x45_30_LOD1_0
f 3/3/3 2/2/2 1/1/1
f 4/4/4 3/3/3 1/1/1
f 1/1/1 2/2/2 5/5/5
f 2/2/2 6/6/6 5/5/5
f 5/5/5 6/6/6 7/7/7
f 6/6/6 8/8/8 7/7/7
f 7/7/7 8/8/8 9/9/9
f 8/8/8 10/10/10 9/9/9
f 9/9/9 10/10/10 11/11/11
f 10/10/10 12/12/12 11/11/11
f 15/15/15 14/14/14 13/13/13
f 16/16/16 15/15/15 13/13/13
f 17/17/17 15/15/15 16/16/16
f 18/18/18 17/17/17 16/16/16
f 19/19/19 18/18/18 16/16/16
f 17/17/17 20/20/20 15/15/15
f 23/23/23 22/22/22 21/21/21
f 24/24/24 23/23/23 21/21/21
f 21/21/21 22/22/22 25/25/25
f 22/22/22 26/26/26 25/25/25
f 25/25/25 26/26/26 27/27/27
f 26/26/26 28/28/28 27/27/27
f 27/27/27 28/28/28 29/29/29
f 28/28/28 30/30/30 29/29/29
f 29/29/29 30/30/30 31/31/31
f 30/30/30 32/32/32 31/31/31
f 35/35/35 34/34/34 33/33/33
f 36/36/36 35/35/35 33/33/33
f 37/37/37 35/35/35 36/36/36
f 38/38/38 37/37/37 36/36/36
f 39/39/39 37/37/37 38/38/38
f 40/40/40 39/39/39 38/38/38
f 41/41/41 39/39/39 40/40/40
f 42/42/42 41/41/41 40/40/40
f 33/33/33 34/34/34 43/43/43
f 43/43/43 44/44/44 33/33/33
f 34/34/34 45/45/45 43/43/43
f 48/48/48 47/47/47 46/46/46
f 49/49/49 48/48/48 46/46/46
f 52/52/52 51/51/51 50/50/50
f 53/53/53 52/52/52 50/50/50
f 50/50/50 51/51/51 54/54/54
f 51/51/51 55/55/55 54/54/54
f 54/54/54 55/55/55 56/56/56
f 55/55/55 57/57/57 56/56/56
f 56/56/56 57/57/57 58/58/58
f 57/57/57 59/59/59 58/58/58
f 58/58/58 59/59/59 60/60/60
f 59/59/59 61/61/61 60/60/60
f 64/64/64 63/63/63 62/62/62
f 65/65/65 64/64/64 62/62/62
f 66/66/66 64/64/64 65/65/65
f 67/67/67 66/66/66 65/65/65
f 68/68/68 66/66/66 67/67/67
f 69/69/69 68/68/68 67/67/67
f 70/70/70 68/68/68 69/69/69
f 71/71/71 70/70/70 69/69/69
f 63/63/63 72/72/72 62/62/62
f 72/72/72 73/73/73 62/62/62
f 74/74/74 73/73/73 72/72/72
f 75/75/75 74/74/74 72/72/72
f 74/74/74 75/75/75 76/76/76
f 75/75/75 77/77/77 76/76/76
f 77/77/77 78/78/78 76/76/76
f 78/78/78 79/79/79 76/76/76
f 78/78/78 80/80/80 79/79/79
f 80/80/80 81/81/81 79/79/79
f 80/80/80 82/82/82 81/81/81
f 82/82/82 83/83/83 81/81/81
f 82/82/82 84/84/84 83/83/83
f 84/84/84 85/85/85 83/83/83
f 88/88/88 87/87/87 86/86/86
f 89/89/89 88/88/88 86/86/86
f 92/92/92 91/91/91 90/90/90
f 93/93/93 92/92/92 90/90/90
f 96/96/96 95/95/95 94/94/94
f 97/97/97 96/96/96 94/94/94
f 96/96/96 98/98/98 95/95/95
f 98/98/98 99/99/99 95/95/95
f 98/98/98 100/100/100 99/99/99
f 100/100/100 101/101/101 99/99/99
f 100/100/100 102/102/102 101/101/101
f 102/102/102 103/103/103 101/101/101
f 97/97/97 94/94/94 104/104/104
f 105/105/105 104/104/104 94/94/94
f 106/106/106 97/97/97 104/104/104
f 109/109/109 108/108/108 107/107/107
f 110/110/110 109/109/109 107/107/107
f 110/110/110 107/107/107 111/111/111
f 112/112/112 110/110/110 111/111/111
f 112/112/112 111/111/111 113/113/113
f 114/114/114 112/112/112 113/113/113
f 114/114/114 113/113/113 115/115/115
f 116/116/116 114/114/114 115/115/115
f 116/116/116 115/115/115 117/117/117
f 118/118/118 116/116/116 117/117/117
