g mag_ak_arsenal_cwp_mag_556x45_30_LOD1
v -0.01216796 -0.009616363 -0.03811511
v 0.01255276 -0.00961636 -0.03811511
v 0.01255276 -0.02197136 -0.09701686
v -0.01216797 -0.02197136 -0.09701686
v 0.01255275 -0.04179682 -0.1625271
v -0.01216797 -0.04179682 -0.1625271
v -0.01216796 -0.002720544 0.01302884
v 0.01255276 -0.002720542 0.01302884
v -0.01216797 -0.04179682 -0.1625271
v 0.01255275 -0.04179682 -0.1625271
v 0.01255275 0.02515004 -0.1886737
v -0.01216797 0.02515004 -0.1886737
v -0.01216797 0.02515004 -0.1886737
v 0.01255275 0.02515004 -0.1886737
v 0.01255276 0.05187132 -0.09241965
v -0.01216797 0.05187132 -0.09241964
v 0.01255276 0.06681225 -0.01943895
v -0.01216797 0.06681225 -0.01943895
v 0.01255276 0.06393899 0.0204993
v -0.01216797 0.06393899 0.0204993
v -0.01216797 0.06393899 0.0204993
v 0.01255276 0.06393899 0.0204993
v 0.01255276 0.03463178 0.02107396
v -0.01216796 0.03463178 0.02107396
v -0.01216796 0.03463178 0.02107396
v 0.01255276 0.03463178 0.02107396
v 0.01255276 -0.002720542 0.01302884
v -0.01216796 -0.002720544 0.01302884
v -0.01216797 -0.04179682 -0.1625271
v -0.01216797 0.02515004 -0.1886737
v -0.01216797 0.05187132 -0.09241964
v -0.01216797 -0.02197136 -0.09701686
v -0.01216796 -0.009616363 -0.03811511
v -0.01216797 0.06681225 -0.01943895
v -0.01216796 0.03463178 0.02107396
v -0.01216797 0.06393899 0.0204993
v -0.01216796 -0.002720544 0.01302884
v 0.01255275 -0.04179682 -0.1625271
v 0.01255276 -0.02197136 -0.09701686
v 0.01255276 0.05187132 -0.09241965
v 0.01255275 0.02515004 -0.1886737
v 0.01255276 -0.00961636 -0.03811511
v 0.01255276 0.06681225 -0.01943895
v 0.01255276 0.03463178 0.02107396
v 0.01255276 0.06393899 0.0204993
v 0.01255276 -0.002720542 0.01302884
vt 0.2617207 0.7745886
vt 0.2617207 0.8564934
vt 0.461121 0.8564934
vt 0.461121 0.7745886
vt 0.6870316 0.8564934
vt 0.6870316 0.7745886
vt 0.09118938 0.7745886
vt 0.09118938 0.8564934
vt 0.6870316 0.7745886
vt 0.6870316 0.8564934
vt 0.9251567 0.8564934
vt 0.9251567 0.7745886
vt 0.03473645 0.8951097
vt 0.03473645 0.9770145
vt 0.3657066 0.9770145
vt 0.3657066 0.8951097
vt 0.6119367 0.9770145
vt 0.6119367 0.8951097
vt 0.7446021 0.9770145
vt 0.7446021 0.8951097
vt 0.7446021 0.8951097
vt 0.7446021 0.9770145
vt 0.8417215 0.9770145
vt 0.8417215 0.8951097
vt 0.8417215 0.8951097
vt 0.8417215 0.9770145
vt 0.9683154 0.9770145
vt 0.9683154 0.8951097
vt 0.2071507 0.4119832
vt 0.1679149 0.6675494
vt 0.5268248 0.6857933
vt 0.4527105 0.4301544
vt 0.6692038 0.4272863
vt 0.7947774 0.6809508
vt 0.9117457 0.5361639
vt 0.9327376 0.6395075
vt 0.8541752 0.4113429
vt 0.7554027 0.05924496
vt 0.5097716 0.07642505
vt 0.4346261 0.3317631
vt 0.7936068 0.3149677
vt 0.2932913 0.07268337
vt 0.1666952 0.3258389
vt 0.05031203 0.1805813
vt 0.02890332 0.2838392
vt 0.1083859 0.05599355
vn 0 -0.9855186 0.1695676
vn 0 -0.9855186 0.1695676
vn 0 -0.9688347 0.2477081
vn 0 -0.9688347 0.2477081
vn 0 -0.9571302 0.2896578
vn 0 -0.9571302 0.2896578
vn 1.027863E-07 -0.9910323 0.1336224
vn 1.027863E-07 -0.9910323 0.1336224
vn 0 -0.3637965 -0.9314784
vn 0 -0.3637965 -0.9314784
vn 0 -0.3637965 -0.9314784
vn 0 -0.3637965 -0.9314784
vn -1.158562E-07 0.9635592 -0.2674955
vn -1.158562E-07 0.9635592 -0.2674955
vn 0 0.972196 -0.2341688
vn 0 0.972196 -0.2341688
vn 0 0.9978845 -0.06501181
vn 0 0.9978845 -0.06501182
vn 0 0.9974222 0.07175695
vn 0 0.9974222 0.07175696
vn 0 0.01960422 0.9998079
vn 0 0.01960422 0.9998079
vn 0 0.01960422 0.9998079
vn 0 0.01960422 0.9998079
vn 0 -0.2105562 0.9775818
vn 0 -0.2105562 0.9775818
vn 0 -0.2105562 0.9775818
vn 0 -0.2105562 0.9775818
vn -1 0 0
vn -1 0 0
vn -1 0 0
vn -1 0 0
vn -1 0 0
vn -1 0 0
vn -1 0 0
vn -1 0 0
vn -1 0 0
vn 1 0 0
vn 1 0 0
vn 1 0 0
vn 1 0 0
vn 1 0 0
vn 1 0 0
vn 1 0 -1.02294E-07
vn 1 1.210275E-07 0
vn 1 0 -1.364633E-07
g mag_ak_arsenal_cwp_mag_556x45_30_LOD1_0
f 3/3/3 2/2/2 1/1/1
f 4/4/4 3/3/3 1/1/1
f 5/5/5 3/3/3 4/4/4
f 6/6/6 5/5/5 4/4/4
f 1/1/1 2/2/2 7/7/7
f 2/2/2 8/8/8 7/7/7
f 11/11/11 10/10/10 9/9/9
f 12/12/12 11/11/11 9/9/9
f 15/15/15 14/14/14 13/13/13
f 16/16/16 15/15/15 13/13/13
f 17/17/17 15/15/15 16/16/16
f 18/18/18 17/17/17 16/16/16
f 19/19/19 17/17/17 18/18/18
f 20/20/20 19/19/19 18/18/18
f 23/23/23 22/22/22 21/21/21
f 24/24/24 23/23/23 21/21/21
f 27/27/27 26/26/26 25/25/25
f 28/28/28 27/27/27 25/25/25
f 31/31/31 30/30/30 29/29/29
f 32/32/32 31/31/31 29/29/29
f 31/31/31 32/32/32 33/33/33
f 34/34/34 31/31/31 33/33/33
f 35/35/35 34/34/34 33/33/33
f 36/36/36 34/34/34 35/35/35
f 37/37/37 35/35/35 33/33/33
f 40/40/40 39/39/39 38/38/38
f 41/41/41 40/40/40 38/38/38
f 42/42/42 39/39/39 40/40/40
f 43/43/43 42/42/42 40/40/40
f 44/44/44 42/42/42 43/43/43
f 45/45/45 44/44/44 43/43/43
f 46/46/46 42/42/42 44/44/44
