g mag_stanag_hk_polymer_mag_556x45_30_LOD1
v -0.01395135 0.06704885 -0.03110556
v -0.01395135 0.06665604 0.004668579
v -0.01395136 0.002042448 -0.0004345703
v -0.01395135 0.0006190896 -0.0327823
v -0.01395134 0.06511807 -0.0737088
v -0.01395135 -0.003028746 -0.06862282
v -0.01395134 0.05967921 -0.1173473
v -0.01395135 -0.008275029 -0.1063135
v -0.01395134 0.05187088 -0.1573484
v -0.01395135 -0.01527184 -0.1426112
v -0.01395134 0.04329946 -0.1995212
v -0.01395135 -0.02423619 -0.1802845
v -0.01395135 0.06665604 0.004668579
v 0.01399395 0.06665604 0.004668579
v 0.01399394 0.002042444 -0.0004345703
v -0.01395136 0.002042448 -0.0004345703
v 0.01399395 0.06665604 0.004668579
v 0.01399395 0.06704885 -0.03110556
v 0.01399394 0.0006190848 -0.0327823
v 0.01399394 0.002042444 -0.0004345703
v 0.01399394 -0.00302875 -0.06862282
v 0.01399395 0.06511807 -0.0737088
v 0.01399395 0.05967921 -0.1173473
v 0.01399394 -0.008275032 -0.1063135
v 0.01399394 -0.01527185 -0.1426112
v 0.01399395 0.05187088 -0.1573484
v 0.01399394 -0.0242362 -0.1802845
v 0.01399396 0.04329946 -0.1995212
v 0.01399396 0.04329946 -0.1995212
v -0.01395134 0.04329946 -0.1995212
v -0.01395135 -0.02423619 -0.1802845
v 0.01399394 -0.0242362 -0.1802845
v -0.01395135 0.0006190896 -0.0327823
v -0.01395136 0.002042448 -0.0004345703
v 0.01399394 0.002042444 -0.0004345703
v 0.01399394 0.0006190848 -0.0327823
v -0.01395135 -0.003028746 -0.06862282
v 0.01399394 -0.00302875 -0.06862282
v 0.01399394 -0.008275032 -0.1063135
v -0.01395135 -0.008275029 -0.1063135
v -0.01395135 -0.01527184 -0.1426112
v 0.01399394 -0.01527185 -0.1426112
v -0.01395135 -0.02423619 -0.1802845
v 0.01399394 -0.0242362 -0.1802845
v 0.01399395 0.06704885 -0.03110556
v 0.01399395 0.06665604 0.004668579
v -0.01395135 0.06665604 0.004668579
v -0.01395135 0.06704885 -0.03110556
v 0.01399395 0.06511807 -0.0737088
v -0.01395134 0.06511807 -0.0737088
v 0.01399395 0.05967921 -0.1173473
v -0.01395134 0.05967921 -0.1173473
v 0.01399395 0.05187088 -0.1573484
v -0.01395134 0.05187088 -0.1573484
v 0.01399396 0.04329946 -0.1995212
v -0.01395134 0.04329946 -0.1995212
vt 0.1342104 0.847085
vt 0.1342104 0.9964172
vt 0.4317611 0.9964172
vt 0.4317611 0.847085
vt 0.1342104 0.6747093
vt 0.4317611 0.6747093
vt 0.1342104 0.4949778
vt 0.4317611 0.4949778
vt 0.1342104 0.3246841
vt 0.4317611 0.3246841
vt 0.1342104 0.1455432
vt 0.4317611 0.1455432
vt 0.9947857 0.3993388
vt 0.8726469 0.3993369
vt 0.8726479 0.682622
vt 0.9947857 0.6826209
vt 0.7360919 0.9959703
vt 0.7360919 0.846638
vt 0.4385411 0.846638
vt 0.4385411 0.9959703
vt 0.4385411 0.6742624
vt 0.7360919 0.6742624
vt 0.7360919 0.4945309
vt 0.4385411 0.4945309
vt 0.4385411 0.3242372
vt 0.7360919 0.3242372
vt 0.4385411 0.1450964
vt 0.7360919 0.1450964
vt 0.8723248 0.9957355
vt 0.9944627 0.9957355
vt 0.9944636 0.6888223
vt 0.8723258 0.6888223
vt 0.7429085 0.8541008
vt 0.7429085 0.9959891
vt 0.8653674 0.9959891
vt 0.8653674 0.8541008
vt 0.7429085 0.6962326
vt 0.8653674 0.6962326
vt 0.8653674 0.5294765
vt 0.7429085 0.5294765
vt 0.7429085 0.367487
vt 0.8653674 0.367487
vt 0.7429085 0.1977897
vt 0.8653674 0.1977897
vt 0.00535 0.839854
vt 0.00535 0.996223
vt 0.1274878 0.996223
vt 0.1274868 0.839854
vt 0.005350991 0.6537072
vt 0.1274858 0.6537072
vt 0.005350991 0.4614175
vt 0.1274858 0.4614175
vt 0.00535 0.2834024
vt 0.1274868 0.2834024
vt 0.00535 0.09528553
vt 0.1274878 0.09528553
vn -1 1.441847E-07 0
vn -1 1.474772E-07 0
vn -1 1.474772E-07 0
vn -1 1.438844E-07 0
vn -1 1.427941E-07 0
vn -1 1.428681E-07 0
vn -1 1.490431E-07 0
vn -1 1.490449E-07 0
vn -1 1.556612E-07 0
vn -1 1.556243E-07 0
vn -1 1.580988E-07 0
vn -1 1.580988E-07 0
vn 0 -0.07873432 0.9968957
vn 0 -0.07873433 0.9968957
vn 0 -0.07873432 0.9968957
vn 0 -0.07873432 0.9968957
vn 1 -1.474772E-07 0
vn 1 -1.441847E-07 0
vn 1 -1.438843E-07 0
vn 1 -1.474772E-07 0
vn 1 -1.428681E-07 0
vn 1 -1.427941E-07 0
vn 1 -1.432853E-07 0
vn 1 -1.432846E-07 0
vn 1 -1.427427E-07 0
vn 1 -1.427588E-07 0
vn 1 -1.438247E-07 0
vn 1 -1.438247E-07 0
vn 0 -0.2739427 -0.961746
vn 0 -0.2739427 -0.961746
vn 0 -0.2739427 -0.961746
vn 0 -0.2739427 -0.961746
vn -1.707294E-07 -0.9973584 0.07263788
vn -1.69623E-07 -0.9990333 0.04395928
vn -1.696231E-07 -0.9990333 0.04395929
vn -1.707294E-07 -0.9973584 0.07263788
vn -1.615415E-07 -0.9928246 0.1195806
vn -1.615415E-07 -0.9928246 0.1195806
vn -1.954588E-07 -0.9865224 0.1636263
vn -1.954588E-07 -0.9865224 0.1636263
vn -2.450855E-07 -0.9776087 0.2104311
vn -2.450855E-07 -0.9776087 0.2104311
vn -2.506053E-07 -0.9728381 0.2314867
vn -2.506053E-07 -0.9728381 0.2314867
vn 0 0.9998529 -0.01715366
vn 0 0.9999398 0.01097959
vn 0 0.9999398 0.01097959
vn 0 0.9998529 -0.01715366
vn 0 0.99642 -0.08454099
vn 0 0.99642 -0.08454098
vn 0 0.987483 -0.1577256
vn 0 0.987483 -0.1577256
vn 0 0.9807273 -0.1953814
vn 0 0.9807273 -0.1953814
vn 0 0.9799643 -0.199173
vn 0 0.9799643 -0.199173
g mag_stanag_hk_polymer_mag_556x45_30_LOD1_0
f 3/3/3 2/2/2 1/1/1
f 4/4/4 3/3/3 1/1/1
f 4/4/4 1/1/1 5/5/5
f 6/6/6 4/4/4 5/5/5
f 5/5/5 7/7/7 6/6/6
f 7/7/7 8/8/8 6/6/6
f 8/8/8 7/7/7 9/9/9
f 10/10/10 8/8/8 9/9/9
f 10/10/10 9/9/9 11/11/11
f 12/12/12 10/10/10 11/11/11
f 15/15/15 14/14/14 13/13/13
f 16/16/16 15/15/15 13/13/13
f 19/19/19 18/18/18 17/17/17
f 20/20/20 19/19/19 17/17/17
f 19/19/19 21/21/21 18/18/18
f 21/21/21 22/22/22 18/18/18
f 22/22/22 21/21/21 23/23/23
f 21/21/21 24/24/24 23/23/23
f 24/24/24 25/25/25 23/23/23
f 25/25/25 26/26/26 23/23/23
f 25/25/25 27/27/27 26/26/26
f 27/27/27 28/28/28 26/26/26
f 31/31/31 30/30/30 29/29/29
f 32/32/32 31/31/31 29/29/29
f 35/35/35 34/34/34 33/33/33
f 36/36/36 35/35/35 33/33/33
f 36/36/36 33/33/33 37/37/37
f 38/38/38 36/36/36 37/37/37
f 38/38/38 37/37/37 39/39/39
f 37/37/37 40/40/40 39/39/39
f 39/39/39 40/40/40 41/41/41
f 42/42/42 39/39/39 41/41/41
f 42/42/42 41/41/41 43/43/43
f 44/44/44 42/42/42 43/43/43
f 47/47/47 46/46/46 45/45/45
f 48/48/48 47/47/47 45/45/45
f 48/48/48 45/45/45 49/49/49
f 50/50/50 48/48/48 49/49/49
f 49/49/49 51/51/51 50/50/50
f 51/51/51 52/52/52 50/50/50
f 52/52/52 51/51/51 53/53/53
f 54/54/54 52/52/52 53/53/53
f 54/54/54 53/53/53 55/55/55
f 56/56/56 54/54/54 55/55/55
