g mag_ak_custom_sawed_off_762x39_10_LOD1
v 0.01172476 0.007722463 -0.04141053
v 0.007162088 -0.01150114 -0.05330224
v 0.007455467 -0.001710634 -0.02315093
v 0.01321396 0.01845486 0.01386291
v 0.009282697 -0.0004046392 0.01155607
v 0.007162088 -0.02203783 -0.07217933
v 0.01172476 -0.01221373 -0.07698573
v 0.01172476 0.04413716 -0.07010103
v 0.01172476 0.007722463 -0.04141053
v 0.01172476 0.05464211 -0.03428403
v 0.01165576 0.05849475 -0.01289823
v 0.01321396 0.06027004 0.01688234
v 0.01321396 0.01845486 0.01386291
v 0.01172476 -0.01221373 -0.07698573
v 0.01172476 0.02987756 -0.09757873
v 0.004897587 0.06465486 -0.01574673
v 0.01165576 0.05849475 -0.01289823
v 0.004991127 0.06474128 -0.01124073
v 0.01172476 0.05464211 -0.03428403
v -0.0002805429 0.06098912 0.0192394
v 0.01321396 0.06027004 0.01688234
v -0.0002805429 0.06072602 -0.03263093
v -0.0002805429 0.04900856 -0.07137943
v 0.01172476 0.04413716 -0.07010103
v 0.01172476 0.02987756 -0.09757873
v 0.0001240882 0.03610096 -0.09623174
v 0.004991127 0.06474128 -0.01124073
v 0.004730457 0.06929436 -0.01276073
v 0.004897587 0.06465486 -0.01574673
v -0.01228584 0.04413716 -0.07010103
v -0.01228584 0.05464211 -0.03428403
v -0.01228584 0.007722463 -0.04141053
v -0.01221684 0.05849475 -0.01289823
v -0.01377504 0.06027004 0.01688234
v -0.01377504 0.01845486 0.01386291
v -0.01228584 -0.01221373 -0.07698573
v -0.01228584 0.02987756 -0.09757873
v 0.01321396 0.01845486 0.01386291
v 0.009282697 -0.0004046392 0.01155607
v -0.0002805429 0.01897727 0.01591506
v -0.0002805429 -0.001815834 0.008293867
v -0.0002805429 0.06072602 -0.03263093
v 0.004897587 0.06465486 -0.01574673
v -0.005458673 0.06465486 -0.01574673
v -0.009843742 -0.0004046392 0.01155607
v -0.0002805429 -0.001815834 0.008293867
v -0.008016552 -0.001710634 -0.02315093
v 0.007455467 -0.001710634 -0.02315093
v 0.009282697 -0.0004046392 0.01155607
v -0.007723162 -0.01150114 -0.05330224
v 0.007162088 -0.01150114 -0.05330224
v 0.007162088 -0.02203783 -0.07217933
v -0.007723162 -0.02203783 -0.07217933
v -0.0002805429 0.06098912 0.0192394
v -0.005552212 0.06474128 -0.01124073
v 0.004991127 0.06474128 -0.01124073
v -0.005552212 0.06474128 -0.01124073
v -0.005458673 0.06465486 -0.01574673
v -0.005291543 0.06929436 -0.01276073
v -0.0002805429 0.06098912 0.0192394
v 0.01321396 0.06027004 0.01688234
v -0.0002805429 0.01897727 0.01591506
v 0.01321396 0.01845486 0.01386291
v 0.004991127 0.06474128 -0.01124073
v -0.005552212 0.06474128 -0.01124073
v 0.004730457 0.06929436 -0.01276073
v -0.005291543 0.06929436 -0.01276073
v 0.004897587 0.06465486 -0.01574673
v 0.004730457 0.06929436 -0.01276073
v -0.005458673 0.06465486 -0.01574673
v -0.005291543 0.06929436 -0.01276073
v 0.01172476 -0.01221373 -0.07698573
v -0.01228584 -0.01221373 -0.07698573
v 0.007162088 -0.02203783 -0.07217933
v -0.01228584 0.02987756 -0.09757873
v 0.01172476 0.02987756 -0.09757873
v -0.007723162 -0.02203783 -0.07217933
v -0.01228584 0.007722463 -0.04141053
v -0.008016552 -0.001710634 -0.02315093
v -0.007723162 -0.01150114 -0.05330224
v -0.01377504 0.01845486 0.01386291
v -0.009843742 -0.0004046392 0.01155607
v -0.007723162 -0.02203783 -0.07217933
v -0.01228584 -0.01221373 -0.07698573
v -0.005458673 0.06465486 -0.01574673
v -0.005552212 0.06474128 -0.01124073
v -0.01221684 0.05849475 -0.01289823
v -0.0002805429 0.06098912 0.0192394
v -0.01377504 0.06027004 0.01688234
v -0.01228584 0.05464211 -0.03428403
v -0.0002805429 0.06072602 -0.03263093
v -0.0002805429 0.04900856 -0.07137943
v -0.01228584 0.04413716 -0.07010103
v -0.01228584 0.02987756 -0.09757873
v 0.0001240882 0.03610096 -0.09623174
v -0.01377504 0.01845486 0.01386291
v -0.0002805429 0.01897727 0.01591506
v -0.009843742 -0.0004046392 0.01155607
v -0.0002805429 -0.001815834 0.008293867
v -0.0002805429 0.06098912 0.0192394
v -0.0002805429 0.01897727 0.01591506
v -0.01377504 0.06027004 0.01688234
v -0.01377504 0.01845486 0.01386291
v 0.0001240882 0.03610096 -0.09623174
v -0.01228584 0.02987756 -0.09757873
v 0.01172476 0.02987756 -0.09757873
vt 0.772152 0.624776
vt 0.889269 0.43197
vt 0.726662 0.43197
vt 0.504145 0.624776
vt 0.504145 0.43197
vt 0.983883 0.43197
vt 0.983883 0.624776
vt 0.48331 0.18227
vt 0.035 0.27581
vt 0.48331 0.368429
vt 0.48331 0.476806
vt 0.48331 0.625801
vt 0.035 0.625801
vt 0.035 0.0251424
vt 0.48331 0.0251424
vt 0.208754 0.976683
vt 0.183299 0.834374
vt 0.186719 0.976683
vt 0.291599 0.834374
vt 0.0344104 0.976683
vt 0.0344104 0.834374
vt 0.29719 0.976683
vt 0.495065 0.976683
vt 0.477626 0.834374
vt 0.64158 0.834374
vt 0.64158 0.976683
vt 0.959852 0.376131
vt 0.936771 0.286189
vt 0.936771 0.376131
vt 1.48331 0.18227
vt 1.48331 0.368429
vt 1.035 0.27581
vt 1.48331 0.476806
vt 1.48331 0.625801
vt 1.035 0.625801
vt 1.035 0.0251424
vt 1.48331 0.0251424
vt 0.660612 0.844102
vt 0.660612 0.979985
vt 0.788712 0.844102
vt 0.788712 0.979985
vt 0.968625 0.653046
vt 0.780205 0.776556
vt 0.780205 0.653046
vt 0.763189 0.811001
vt 0.763189 0.730245
vt 0.492108 0.811001
vt 0.492108 0.649491
vt 0.763189 0.649491
vt 0.220089 0.811003
vt 0.220088 0.649493
vt 0.0345907 0.649495
vt 0.0345914 0.811004
vt 0.779178 0.800995
vt 0.983764 0.800995
vt 0.983764 0.676076
vt 0.940073 0.00804416
vt 0.940073 0.101832
vt 0.964729 0.00804416
vt 0.926047 0.0259177
vt 0.797566 0.0259177
vt 0.926047 0.399608
vt 0.797566 0.399608
vt 0.908679 0.971673
vt 0.983167 0.971673
vt 0.908679 0.841253
vt 0.983167 0.841253
vt 0.817147 0.844102
vt 0.817147 0.974522
vt 0.893129 0.844102
vt 0.893129 0.974522
vt 0.708237 0.0259191
vt 0.708237 0.408967
vt 0.770533 0.0259191
vt 0.505075 0.408966
vt 0.505075 0.0259177
vt 0.770533 0.408967
vt 1.77215 0.624776
vt 1.72666 0.43197
vt 1.88927 0.43197
vt 1.50415 0.624776
vt 1.50415 0.43197
vt 1.98388 0.43197
vt 1.98388 0.624776
vt 1.20875 0.976683
vt 1.18672 0.976683
vt 1.1833 0.834374
vt 1.03441 0.976683
vt 1.03441 0.834374
vt 1.2916 0.834374
vt 1.29719 0.976683
vt 1.49507 0.976683
vt 1.47763 0.834374
vt 1.64158 0.834374
vt 1.64158 0.976683
vt 1.66061 0.844102
vt 1.78871 0.844102
vt 1.66061 0.979985
vt 1.78871 0.979985
vt 1.92605 0.0259177
vt 1.92605 0.399608
vt 1.79757 0.0259177
vt 1.79757 0.399608
vt 0.945123 0.200412
vt 0.976757 0.391937
vt 0.976757 0.00888864
vn 0.9478233 -0.3053726 0.0915342
vn 0.9317731 -0.3234779 0.1648061
vn 0.9503416 -0.3087244 0.0392452
vn 0.9713084 -0.2367938 -0.02210535
vn 0.9790698 -0.1986966 -0.0440686
vn 0.9229982 -0.3357976 0.1879209
vn 0.9229982 -0.3357976 0.1879209
vn 1 0 0
vn 0.9999527 0.003362253 -0.009132725
vn 0.9999979 -0.0003154314 0.002076747
vn 0.9996214 0.00950403 -0.02582166
vn 0.9991924 0.01361882 -0.03780279
vn 0.9991924 0.01361882 -0.03780279
vn 1 0 0
vn 1 0 0
vn 0.6375171 0.7595829 -0.1288632
vn 0.5545809 0.8313276 -0.03653064
vn 0.4966183 0.8678031 0.01697013
vn 0.4439943 0.8562748 -0.2639364
vn 0.3353018 0.9407009 0.05152244
vn 0.3353019 0.9407009 0.05152245
vn 0.3993203 0.8680965 -0.2948756
vn 0.3893211 0.8560185 -0.3400904
vn 0.3870293 0.8550686 -0.3450597
vn 0.384423 0.820537 -0.4230105
vn 0.384423 0.820537 -0.4230105
vn 0.9985175 0.04992699 -0.02168589
vn 0.9985175 0.04992699 -0.02168589
vn 0.9985175 0.04992699 -0.02168589
vn -1 0 0
vn -0.9999979 -0.000315426 0.002076711
vn -0.9999527 0.003362252 -0.009132735
vn -0.9996214 0.009504027 -0.02582169
vn -0.9991924 0.01361881 -0.0378028
vn -0.9991924 0.01361881 -0.0378028
vn -1 0 0
vn -1 0 0
vn 0.142997 -0.1494791 0.97837
vn -0.1305858 -0.2784331 0.9515368
vn 0.02004473 -0.2099509 0.9775064
vn -0.2602162 -0.3322819 0.9065739
vn 0 0.9739789 -0.2266384
vn 0 0.9739789 -0.2266384
vn 0 0.9739789 -0.2266384
vn -0.1358581 -0.9902706 0.03011064
vn -2.690942E-07 -0.99966 0.02607166
vn -0.0128053 -0.9878802 0.1546897
vn 0.01280529 -0.9878802 0.1546897
vn 0.1358576 -0.9902707 0.03011052
vn 0 -0.9166232 0.3997525
vn 0 -0.9166232 0.3997525
vn 0 -0.8731852 0.4873886
vn 0 -0.8731852 0.4873886
vn 0 0.992508 0.1221796
vn 0 0.992508 0.1221796
vn 0 0.992508 0.1221796
vn -0.9985175 0.04992697 -0.02168575
vn -0.9985175 0.04992697 -0.02168575
vn -0.9985175 0.04992697 -0.02168575
vn 0.1675194 -0.07776735 0.9827968
vn 0.1635705 -0.07649478 0.9835615
vn 0.1512765 -0.07253014 0.985827
vn 0.1472666 -0.07123616 0.9865282
vn 0 0.3166597 0.9485393
vn 0 0.3166597 0.9485391
vn 0 0.3166597 0.9485391
vn 0 0.3166597 0.9485393
vn 0 0.5412021 -0.8408926
vn 0 0.541202 -0.8408927
vn 0 0.5412021 -0.8408926
vn 0 0.5412021 -0.8408926
vn 0 -0.4394689 -0.8982579
vn 0 -0.4394689 -0.8982579
vn 0 -0.4394685 -0.898258
vn 0 -0.4394692 -0.8982577
vn 0 -0.4394692 -0.8982577
vn 0 -0.4394684 -0.898258
vn -0.9478232 -0.3053729 0.09153416
vn -0.9503415 -0.3087248 0.03924531
vn -0.9317728 -0.3234784 0.1648064
vn -0.971308 -0.2367955 -0.02210443
vn -0.9790694 -0.1986988 -0.04406737
vn -0.9229979 -0.3357983 0.1879213
vn -0.9229979 -0.3357983 0.1879213
vn -0.6375172 0.759583 -0.1288632
vn -0.4966182 0.8678032 0.01697017
vn -0.5545809 0.8313276 -0.03653065
vn -0.3353018 0.9407009 0.05152244
vn -0.3353019 0.9407009 0.05152244
vn -0.4439943 0.8562748 -0.2639364
vn -0.3993204 0.8680965 -0.2948756
vn -0.3836053 0.8569288 -0.3442673
vn -0.3809906 0.856303 -0.3486995
vn -0.3725348 0.8224582 -0.4298609
vn -0.3725349 0.8224582 -0.4298609
vn -0.142997 -0.1494794 0.97837
vn -0.02004479 -0.2099509 0.9775064
vn 0.1305866 -0.2784331 0.9515367
vn 0.2602172 -0.3322818 0.9065736
vn -0.1675194 -0.07776735 0.9827968
vn -0.1512765 -0.07253014 0.985827
vn -0.1635705 -0.07649478 0.9835615
vn -0.1472666 -0.07123616 0.9865282
vn 0 0.2115425 -0.9773688
vn 0 0.2115425 -0.9773688
vn 0 0.2115425 -0.9773688
g mag_ak_custom_sawed_off_762x39_10_LOD1_0
f 3/3/3 2/2/2 1/1/1
f 4/4/4 3/3/3 1/1/1
f 3/3/3 4/4/4 5/5/5
f 2/2/2 6/6/6 1/1/1
f 6/6/6 7/7/7 1/1/1
f 10/10/10 9/9/9 8/8/8
f 11/11/11 9/9/9 10/10/10
f 11/11/11 12/12/12 9/9/9
f 12/12/12 13/13/13 9/9/9
f 8/8/8 9/9/9 14/14/14
f 15/15/15 8/8/8 14/14/14
f 18/18/18 17/17/17 16/16/16
f 17/17/17 19/19/19 16/16/16
f 17/17/17 18/18/18 20/20/20
f 21/21/21 17/17/17 20/20/20
f 22/22/22 16/16/16 19/19/19
f 19/19/19 23/23/23 22/22/22
f 23/23/23 19/19/19 24/24/24
f 24/24/24 25/25/25 23/23/23
f 25/25/25 26/26/26 23/23/23
f 29/29/29 28/28/28 27/27/27
f 32/32/32 31/31/31 30/30/30
f 32/32/32 33/33/33 31/31/31
f 34/34/34 33/33/33 32/32/32
f 35/35/35 34/34/34 32/32/32
f 32/32/32 30/30/30 36/36/36
f 30/30/30 37/37/37 36/36/36
f 40/40/40 39/39/39 38/38/38
f 39/39/39 40/40/40 41/41/41
f 44/44/44 43/43/43 42/42/42
f 47/47/47 46/46/46 45/45/45
f 47/47/47 48/48/48 46/46/46
f 46/46/46 48/48/48 49/49/49
f 50/50/50 48/48/48 47/47/47
f 48/48/48 50/50/50 51/51/51
f 51/51/51 50/50/50 52/52/52
f 50/50/50 53/53/53 52/52/52
f 56/56/56 55/55/55 54/54/54
f 59/59/59 58/58/58 57/57/57
f 62/62/62 61/61/61 60/60/60
f 61/61/61 62/62/62 63/63/63
f 66/66/66 65/65/65 64/64/64
f 65/65/65 66/66/66 67/67/67
f 70/70/70 69/69/69 68/68/68
f 69/69/69 70/70/70 71/71/71
f 74/74/74 73/73/73 72/72/72
f 75/75/75 72/72/72 73/73/73
f 72/72/72 75/75/75 76/76/76
f 73/73/73 74/74/74 77/77/77
f 80/80/80 79/79/79 78/78/78
f 79/79/79 81/81/81 78/78/78
f 81/81/81 79/79/79 82/82/82
f 83/83/83 80/80/80 78/78/78
f 84/84/84 83/83/83 78/78/78
f 87/87/87 86/86/86 85/85/85
f 86/86/86 87/87/87 88/88/88
f 87/87/87 89/89/89 88/88/88
f 90/90/90 87/87/87 85/85/85
f 85/85/85 91/91/91 90/90/90
f 92/92/92 90/90/90 91/91/91
f 90/90/90 92/92/92 93/93/93
f 94/94/94 93/93/93 92/92/92
f 95/95/95 94/94/94 92/92/92
f 98/98/98 97/97/97 96/96/96
f 97/97/97 98/98/98 99/99/99
f 102/102/102 101/101/101 100/100/100
f 101/101/101 102/102/102 103/103/103
f 106/106/106 105/105/105 104/104/104
