g mag_stanag_magpul_pmag_gen_m3_556x45_40_LOD1
v 0.01118175 0.06304543 -0.07855262
v 0.01118173 -0.001029568 -0.07264343
v 0.01118173 0.0008712172 0.001935654
v 0.01118174 0.06427745 0.007086859
v 0.01118176 0.04996541 -0.1559691
v 0.01118175 -0.01301971 -0.1401965
v 0.01118175 -0.03637637 -0.2131796
v 0.01118177 0.02477146 -0.2363324
v -0.0111544 0.06304543 -0.07855263
v -0.01115442 0.06427745 0.007086854
v -0.01115442 0.0008712172 0.001935649
v -0.01115441 -0.001029572 -0.07264344
v -0.01115439 0.04996541 -0.1559691
v -0.0111544 -0.0130197 -0.1401965
v -0.01115439 -0.03637635 -0.2131795
v -0.01115439 0.02477146 -0.2363324
v 0.01118177 0.02477146 -0.2363324
v -0.01115439 0.02477146 -0.2363324
v -0.01115439 -0.03637635 -0.2131795
v 0.01118175 -0.03637637 -0.2131796
v 0.01118173 -0.001029568 -0.07264343
v -0.01115441 -0.001029572 -0.07264344
v -0.01115442 0.0008712172 0.001935649
v 0.01118173 0.0008712172 0.001935654
v 0.01118175 -0.01301971 -0.1401965
v -0.0111544 -0.0130197 -0.1401965
v -0.01115439 -0.03637635 -0.2131795
v 0.01118175 -0.03637637 -0.2131796
v 0.01118173 0.0008712172 0.001935654
v -0.01115442 0.0008712172 0.001935649
v -0.01115442 0.06427745 0.007086854
v 0.01118174 0.06427745 0.007086859
v 0.01118174 0.06427745 0.007086859
v -0.01115442 0.06427745 0.007086854
v -0.0111544 0.06304543 -0.07855263
v 0.01118175 0.06304543 -0.07855262
v -0.01115439 0.04996541 -0.1559691
v 0.01118176 0.04996541 -0.1559691
v 0.01118177 0.02477146 -0.2363324
v -0.01115439 0.02477146 -0.2363324
vt 0.02475758 0.350467
vt 0.2745723 0.3692323
vt 0.3155219 0.08168425
vt 0.0754298 0.02088931
vt 0.02489094 0.6561404
vt 0.2769024 0.6363338
vt 0.3193572 0.9316347
vt 0.06962498 0.9809634
vt 0.3286099 0.6511533
vt 0.3766751 0.9713904
vt 0.6100453 0.9131838
vt 0.5712761 0.6337968
vt 0.3298004 0.3543068
vt 0.574466 0.3744162
vt 0.6167198 0.08778959
vt 0.3743699 0.03901851
vt 0.918945 0.03303621
vt 0.8397601 0.03303621
vt 0.8397601 0.2561926
vt 0.918945 0.2561926
vt 0.7819409 0.6776137
vt 0.6726611 0.6776137
vt 0.672661 0.9512528
vt 0.7819409 0.9512528
vt 0.7819409 0.5203789
vt 0.6726611 0.5203789
vt 0.6726611 0.363144
vt 0.7819409 0.363144
vt 0.7825214 0.02831046
vt 0.6680924 0.02831046
vt 0.6680924 0.331484
vt 0.7825215 0.331484
vt 0.9276477 0.2827894
vt 0.8169942 0.2827894
vt 0.8169941 0.6093425
vt 0.9276477 0.6093425
vt 0.8169941 0.7869427
vt 0.9276477 0.7869427
vt 0.9276476 0.964543
vt 0.8169941 0.964543
vn 1 -2.071469E-07 1.532336E-07
vn 1 -2.071339E-07 1.534203E-07
vn 1 -2.10028E-07 1.117603E-07
vn 1 -2.10028E-07 1.117603E-07
vn 1 -1.987748E-07 1.914379E-07
vn 1 -1.988192E-07 1.914638E-07
vn 1 -1.933507E-07 1.882704E-07
vn 1 -1.933507E-07 1.882704E-07
vn -1 0 -1.637139E-07
vn -1 1.111388E-07 -1.807431E-07
vn -1 1.111388E-07 -1.807431E-07
vn -1 0 -1.636372E-07
vn -1 0 -1.267195E-07
vn -1 0 -1.268813E-07
vn -1 0 -1.069884E-07
vn -1 0 -1.069884E-07
vn -6.285197E-07 -0.3541033 -0.9352063
vn -6.285197E-07 -0.3541033 -0.9352063
vn -6.285197E-07 -0.3541033 -0.9352063
vn -6.285197E-07 -0.3541032 -0.9352063
vn 0 -0.9949469 0.1004025
vn 0 -0.9949469 0.1004025
vn 1.001548E-07 -0.9996754 0.02547859
vn 1.001548E-07 -0.9996754 0.02547859
vn -1.946366E-07 -0.9706937 0.2403203
vn -1.946365E-07 -0.9706937 0.2403202
vn -4.039567E-07 -0.9524162 0.3048004
vn -4.039567E-07 -0.9524162 0.3048004
vn -2.223245E-07 -0.08097454 0.9967163
vn -2.223244E-07 -0.08097453 0.9967163
vn -2.223244E-07 -0.08097453 0.9967163
vn -2.223244E-07 -0.08097453 0.9967163
vn 0 0.9998965 -0.01438453
vn 0 0.9998965 -0.01438453
vn 0 0.9958733 -0.09075537
vn 0 0.9958733 -0.09075536
vn 0 0.9723777 -0.233413
vn 0 0.9723777 -0.233413
vn 0 0.9542077 -0.2991451
vn 0 0.9542077 -0.299145
g mag_stanag_magpul_pmag_gen_m3_556x45_40_LOD1_0
f 3/3/3 2/2/2 1/1/1
f 4/4/4 3/3/3 1/1/1
f 5/5/5 1/1/1 2/2/2
f 6/6/6 5/5/5 2/2/2
f 5/5/5 6/6/6 7/7/7
f 8/8/8 5/5/5 7/7/7
f 11/11/11 10/10/10 9/9/9
f 12/12/12 11/11/11 9/9/9
f 9/9/9 13/13/13 12/12/12
f 13/13/13 14/14/14 12/12/12
f 15/15/15 14/14/14 13/13/13
f 16/16/16 15/15/15 13/13/13
f 19/19/19 18/18/18 17/17/17
f 20/20/20 19/19/19 17/17/17
f 23/23/23 22/22/22 21/21/21
f 24/24/24 23/23/23 21/21/21
f 25/25/25 21/21/21 22/22/22
f 26/26/26 25/25/25 22/22/22
f 25/25/25 26/26/26 27/27/27
f 28/28/28 25/25/25 27/27/27
f 31/31/31 30/30/30 29/29/29
f 32/32/32 31/31/31 29/29/29
f 35/35/35 34/34/34 33/33/33
f 36/36/36 35/35/35 33/33/33
f 37/37/37 35/35/35 36/36/36
f 38/38/38 37/37/37 36/36/36
f 37/37/37 38/38/38 39/39/39
f 40/40/40 37/37/37 39/39/39
