g mag_ash12_ckib_ash12_std_127x55_10_LOD1
v -0.01684391 -0.00450613 0.01122701
v -0.01684391 0.02095903 0.01389
v 0.01665211 0.02095903 0.01389
v 0.01665211 -0.00450613 0.01122701
v 0.01402411 0.0437842 0.0237809
v -0.01421591 0.0437842 0.0237809
v 0.01402411 0.07406382 0.02378088
v -0.01421591 0.07406382 0.02378088
v -0.01684391 0.07406382 0.01389002
v -0.01873196 0.07161039 -0.03815733
v 0.01854015 0.07161039 -0.03815733
v 0.01665211 0.07406382 0.01389002
v 0.0181855 0.06641927 -0.08622438
v -0.0183773 0.06641927 -0.08622438
v -0.01421591 0.07406382 0.02378088
v 0.01402411 0.07406382 0.02378088
v -0.01684913 0.05824217 -0.132609
v 0.01665732 0.05824217 -0.132609
v 0.01665211 -0.00450613 0.01122701
v 0.01665211 0.02095903 0.01389
v 0.01665211 -0.006632862 -0.03375067
v 0.01854015 0.07161039 -0.03815733
v 0.0181855 0.06641927 -0.08622438
v 0.0163958 -0.01156801 -0.07226923
v 0.01665732 0.05824217 -0.132609
v 0.01665211 -0.0195508 -0.1139801
v 0.01665211 0.07406382 0.01389002
v 0.01402411 0.07406382 0.02378088
v 0.01402411 0.0437842 0.0237809
v -0.01684391 0.02095903 0.01389
v -0.01684391 -0.00450613 0.01122701
v -0.01684391 -0.006632862 -0.03375067
v -0.01873196 0.07161039 -0.03815733
v -0.01684391 0.07406382 0.01389002
v -0.0183773 0.06641927 -0.08622438
v -0.0165876 -0.01156805 -0.07226923
v -0.01421591 0.0437842 0.0237809
v -0.01421591 0.07406382 0.02378088
v -0.01684913 0.05824217 -0.132609
v -0.01684391 -0.01955084 -0.1139801
v -0.01684391 -0.00450613 0.01122701
v 0.01665211 -0.00450613 0.01122701
v 0.01665211 -0.006632862 -0.03375067
v -0.01684391 -0.006632862 -0.03375067
v 0.0163958 -0.01156801 -0.07226923
v -0.0165876 -0.01156805 -0.07226923
v 0.01665211 -0.0195508 -0.1139801
v -0.01684391 -0.01955084 -0.1139801
v -0.01684391 -0.01955084 -0.1139801
v 0.01665211 -0.0195508 -0.1139801
v 0.01665732 0.05824217 -0.132609
v -0.01684913 0.05824217 -0.132609
vt 0.3817818 0.9887714
vt 0.3817558 0.7842793
vt 0.2642895 0.7843564
vt 0.2643158 0.9888489
vt 0.2734804 0.5856717
vt 0.3725144 0.5856063
vt 0.2734498 0.3438358
vt 0.3724838 0.3437705
vt 0.1977715 0.3203439
vt 0.4797491 0.3203446
vt 0.4797491 0.00684983
vt 0.1977715 0.006849263
vt 0.7413861 0.006849234
vt 0.7413864 0.3203447
vt 0.1442448 0.2962233
vt 0.1442447 0.03097016
vt 0.9962773 0.3203444
vt 0.9962772 0.006849263
vt 0.434825 0.9892874
vt 0.4243085 0.7676589
vt 0.6336043 0.9892872
vt 0.6255594 0.3326689
vt 0.8158922 0.3326694
vt 0.8038815 0.9892876
vt 0.9962773 0.3326689
vt 0.9962773 0.9892876
vt 0.4182666 0.3326687
vt 0.3766117 0.3326689
vt 0.3786004 0.5826585
vt 0.4244822 0.7686213
vt 0.4350762 0.9893351
vt 0.633891 0.9893348
vt 0.6254898 0.3326218
vt 0.4183573 0.3326215
vt 0.8156778 0.3326216
vt 0.8042039 0.9893349
vt 0.3787417 0.5837198
vt 0.3767287 0.3326215
vt 0.9962772 0.3326215
vt 0.9962774 0.9893351
vt 0.005285621 0.9906703
vt 0.1351148 0.9906703
vt 0.1351148 0.6390035
vt 0.00528574 0.6390032
vt 0.1351148 0.3357149
vt 0.00528574 0.3357149
vt 0.1351148 0.004042421
vt 0.00528574 0.004042421
vt 0.1392365 0.9888489
vt 0.2599797 0.9888488
vt 0.2599797 0.3322472
vt 0.1392365 0.3322475
vn 0 -0.1041486 0.9945617
vn 0 -0.2487241 0.9685744
vn 0 -0.2487241 0.9685744
vn 0 -0.1041486 0.9945617
vn 0 -0.2094509 0.9778191
vn 0 -0.2094509 0.9778191
vn 0 0 1
vn 0 0 1
vn 0 0.9996636 -0.02593557
vn 0 0.9969833 -0.07761519
vn 0 0.9969833 -0.07761519
vn 0 0.9996636 -0.02593557
vn 0 0.9901279 -0.1401664
vn 0 0.9901279 -0.1401664
vn 0 1 0
vn 0 1 0
vn 0 0.9848258 -0.173546
vn 0 0.9848258 -0.173546
vn 1 0 0
vn 0.9989339 -0.008392198 0.04539416
vn 0.9998428 -0.01678444 0.00572197
vn 0.9997798 -0.01869237 0.009536926
vn 0.9997844 -0.01907349 -0.008201598
vn 0.999786 -0.01907352 -0.008010876
vn 0.9998305 -0.01411436 -0.01182554
vn 0.9998305 -0.01411436 -0.01182554
vn 0.989747 -0.00686629 0.1426663
vn 0.9664814 0 0.2567365
vn 0.9664814 0 0.2567365
vn -0.9989339 -0.008392198 0.04539416
vn -1 0 0
vn -0.9998428 -0.01678444 0.00572197
vn -0.9997798 -0.01869215 0.009536811
vn -0.9897468 -0.006866371 0.1426679
vn -0.9997844 -0.01907349 -0.008201598
vn -0.999786 -0.01907352 -0.008010876
vn -0.9664823 0 0.2567336
vn -0.9664823 0 0.2567336
vn -0.9998305 -0.01411419 -0.0118254
vn -0.9998305 -0.01411419 -0.0118254
vn 0 -0.998881 0.04729334
vn 0 -0.998881 0.04729334
vn 0 -0.9961925 0.08718115
vn 0 -0.9961925 0.08718115
vn 0 -0.9875143 0.1575293
vn 0 -0.9875143 0.1575293
vn 0 -0.9821612 0.188041
vn 0 -0.9821612 0.188041
vn 0 -0.232738 -0.9725395
vn 0 -0.232738 -0.9725395
vn 0 -0.232738 -0.9725395
vn 0 -0.232738 -0.9725395
g mag_ash12_ckib_ash12_std_127x55_10_LOD1_0
f 3/3/3 2/2/2 1/1/1
f 4/4/4 3/3/3 1/1/1
f 3/3/3 5/5/5 2/2/2
f 5/5/5 6/6/6 2/2/2
f 5/5/5 7/7/7 6/6/6
f 7/7/7 8/8/8 6/6/6
f 11/11/11 10/10/10 9/9/9
f 12/12/12 11/11/11 9/9/9
f 11/11/11 13/13/13 10/10/10
f 13/13/13 14/14/14 10/10/10
f 9/9/9 15/15/15 12/12/12
f 15/15/15 16/16/16 12/12/12
f 17/17/17 14/14/14 13/13/13
f 18/18/18 17/17/17 13/13/13
f 21/21/21 20/20/20 19/19/19
f 21/21/21 22/22/22 20/20/20
f 23/23/23 22/22/22 21/21/21
f 24/24/24 23/23/23 21/21/21
f 25/25/25 23/23/23 24/24/24
f 26/26/26 25/25/25 24/24/24
f 22/22/22 27/27/27 20/20/20
f 27/27/27 28/28/28 20/20/20
f 28/28/28 29/29/29 20/20/20
f 32/32/32 31/31/31 30/30/30
f 32/32/32 30/30/30 33/33/33
f 30/30/30 34/34/34 33/33/33
f 32/32/32 33/33/33 35/35/35
f 36/36/36 32/32/32 35/35/35
f 30/30/30 37/37/37 34/34/34
f 37/37/37 38/38/38 34/34/34
f 36/36/36 35/35/35 39/39/39
f 40/40/40 36/36/36 39/39/39
f 43/43/43 42/42/42 41/41/41
f 44/44/44 43/43/43 41/41/41
f 45/45/45 43/43/43 44/44/44
f 46/46/46 45/45/45 44/44/44
f 45/45/45 46/46/46 47/47/47
f 46/46/46 48/48/48 47/47/47
f 51/51/51 50/50/50 49/49/49
f 52/52/52 51/51/51 49/49/49
