g mag_fal_ds_arms_fal_sa58_762x51_30_LOD1
v 0.01230348 -0.0392441 -0.1155792
v 0.01230352 -0.03924409 0.07639872
v 0.01230354 0.04154727 0.07639872
v 0.0123035 0.04154726 -0.1274869
v -0.01334647 0.04154727 0.07639872
v -0.01334648 -0.03924409 0.07639872
v -0.01334652 -0.0392441 -0.1155792
v -0.0133465 0.04154726 -0.1274869
v 0.01230348 -0.0392441 -0.1155792
v -0.01334652 -0.0392441 -0.1155792
v -0.01334648 -0.03924409 0.07639872
v 0.01230352 -0.03924409 0.07639872
v 0.01230352 -0.03924409 0.07639872
v -0.01334648 -0.03924409 0.07639872
v -0.01334647 0.04154727 0.07639872
v 0.01230354 0.04154727 0.07639872
v 0.01230354 0.04154727 0.07639872
v -0.01334647 0.04154727 0.07639872
v -0.0133465 0.04154726 -0.1274869
v 0.0123035 0.04154726 -0.1274869
v 0.0123035 0.04154726 -0.1274869
v -0.0133465 0.04154726 -0.1274869
v -0.01334652 -0.0392441 -0.1155792
v 0.01230348 -0.0392441 -0.1155792
vt 0.3988638 0.7358335
vt 0.3988637 0.008052889
vt 0.9913978 0.008052904
vt 0.9913978 0.7819584
vt 0.9913978 0.008052904
vt 0.3988638 0.008052889
vt 0.3988638 0.7358336
vt 0.9913978 0.7819584
vt 0.1947599 0.008052889
vt 0.006639698 0.008052874
vt 0.006639638 0.7358336
vt 0.1947599 0.7358336
vt 0.3988636 0.7914529
vt 0.3988636 0.8881595
vt 0.9913978 0.8881593
vt 0.9913978 0.7914528
vt 0.3897713 0.008052889
vt 0.2016506 0.008052889
vt 0.2016505 0.7819585
vt 0.3897713 0.7819584
vt 0.3988636 0.8927771
vt 0.3988636 0.9894836
vt 0.9913978 0.9894837
vt 0.9913978 0.8927773
vn 1 -2.583295E-07 -2.01762E-07
vn 1 -2.583295E-07 -2.01762E-07
vn 1 -2.583295E-07 -2.01762E-07
vn 1 -2.583295E-07 -2.01762E-07
vn -1 2.583295E-07 2.01762E-07
vn -1 2.583295E-07 2.01762E-07
vn -1 2.583295E-07 2.01762E-07
vn -1 2.583295E-07 2.01762E-07
vn 0 -1 0
vn 0 -1 0
vn 0 -1 0
vn 0 -1 0
vn 0 0 1
vn 0 0 1
vn 0 0 1
vn 0 0 1
vn 0 1 0
vn 0 1 0
vn 0 1 0
vn 0 1 0
vn 0 -0.1458131 -0.9893121
vn 0 -0.1458132 -0.9893121
vn 0 -0.1458131 -0.9893121
vn 0 -0.1458132 -0.9893121
g mag_fal_ds_arms_fal_sa58_762x51_30_LOD1_0
f 3/3/3 2/2/2 1/1/1
f 4/4/4 3/3/3 1/1/1
f 7/7/7 6/6/6 5/5/5
f 8/8/8 7/7/7 5/5/5
f 11/11/11 10/10/10 9/9/9
f 12/12/12 11/11/11 9/9/9
f 15/15/15 14/14/14 13/13/13
f 16/16/16 15/15/15 13/13/13
f 19/19/19 18/18/18 17/17/17
f 20/20/20 19/19/19 17/17/17
f 23/23/23 22/22/22 21/21/21
f 24/24/24 23/23/23 21/21/21
