g mag_fal_sarco_fal_l1a1_orig_762x51_30_LOD1
v 0.0134752 0.03951665 0.07667652
v 0.01347519 -0.03814008 0.02408647
v 0.01347519 -0.03760646 0.07667652
v 0.01347519 0.03852021 0.02032682
v 0.01347518 -0.04231402 -0.02708806
v 0.01347518 0.03556667 -0.03438267
v 0.01347517 0.02942606 -0.0889262
v 0.01347517 -0.04903445 -0.07787452
v 0.01347516 0.02074061 -0.1429905
v 0.01347516 -0.05882337 -0.1277873
v -0.01253714 0.03951665 0.07667652
v 0.01347519 -0.03760646 0.07667652
v -0.01253715 -0.03760645 0.07667652
v 0.0134752 0.03951665 0.07667652
v -0.01253714 0.03951665 0.07667652
v -0.01253715 -0.03760645 0.07667652
v -0.01253716 -0.03814008 0.02408647
v -0.01253715 0.03852021 0.02032682
v -0.01253717 -0.04231402 -0.02708806
v -0.01253716 0.03556667 -0.03438267
v -0.01253717 0.02942607 -0.0889262
v -0.01253717 -0.04903445 -0.07787452
v -0.01253718 0.02074062 -0.1429905
v -0.01253719 -0.05882337 -0.1277873
v 0.01347516 0.02074061 -0.1429905
v -0.01253719 -0.05882337 -0.1277873
v 0.01347516 -0.05882337 -0.1277873
v -0.01253718 0.02074062 -0.1429905
v 0.0134752 0.03951665 0.07667652
v -0.01253714 0.03951665 0.07667652
v 0.01347519 0.03852021 0.02032682
v -0.01253715 0.03852021 0.02032682
v -0.01253716 0.03556667 -0.03438267
v 0.01347518 0.03556667 -0.03438267
v 0.01347517 0.02942606 -0.0889262
v -0.01253717 0.02942607 -0.0889262
v 0.01347516 0.02074061 -0.1429905
v -0.01253718 0.02074062 -0.1429905
v -0.01253715 -0.03760645 0.07667652
v 0.01347519 -0.03760646 0.07667652
v 0.01347519 -0.03814008 0.02408647
v -0.01253716 -0.03814008 0.02408647
v -0.01253717 -0.04231402 -0.02708806
v 0.01347518 -0.04231402 -0.02708806
v 0.01347517 -0.04903445 -0.07787452
v -0.01253717 -0.04903445 -0.07787452
v 0.01347516 -0.05882337 -0.1277873
v -0.01253719 -0.05882337 -0.1277873
vt 0.009999998 0.3155098
vt 0.2458905 0.03419658
vt 0.0443728 0.01000001
vt 0.226487 0.3364331
vt 0.4439277 0.0404675
vt 0.4377162 0.3474722
vt 0.6491743 0.3507472
vt 0.6416726 0.03594016
vt 0.8600852 0.3423445
vt 0.8372903 0.02016061
vt 0.3518771 0.8802401
vt 0.6493886 0.9839781
vt 0.6493886 0.8802401
vt 0.3518771 0.9839781
vt 0.8643036 0.6790717
vt 0.8426343 0.3723191
vt 0.6402984 0.3875602
vt 0.6471478 0.690379
vt 0.4421833 0.3850463
vt 0.4356551 0.692044
vt 0.2242556 0.6859421
vt 0.244808 0.3717571
vt 0.01388728 0.6681975
vt 0.05002455 0.3473204
vt 0.01838169 0.8802401
vt 0.3253092 0.9839781
vt 0.3253092 0.8802401
vt 0.01838169 0.9839781
vt 0.884748 0.8890471
vt 0.9850937 0.8890471
vt 0.8847481 0.6643225
vt 0.9850938 0.6643225
vt 0.9850938 0.4461393
vt 0.8847481 0.4461393
vt 0.884748 0.228618
vt 0.9850938 0.228618
vt 0.8847481 0.0130078
vt 0.9850938 0.0130078
vt 0.807125 0.8436185
vt 0.807125 0.7398804
vt 0.6042526 0.7398805
vt 0.6042526 0.8436186
vt 0.4068409 0.8436186
vt 0.4068408 0.7398805
vt 0.2109261 0.7398805
vt 0.2109261 0.8436186
vt 0.01838169 0.7398806
vt 0.01838169 0.8436188
vn 1 0 0
vn 1 0 0
vn 1 0 0
vn 1 0 0
vn 1 0 0
vn 1 0 0
vn 1 0 0
vn 1 0 0
vn 1 0 0
vn 1 0 0
vn 0 0 1
vn 0 0 1
vn 0 0 1
vn 0 0 1
vn -1 0 0
vn -1 0 0
vn -1 0 0
vn -1 0 0
vn -1 0 0
vn -1 0 0
vn -1 0 0
vn -1 0 0
vn -1 0 0
vn -1 0 0
vn 0 -0.01938304 -0.9998122
vn 0 -0.01935921 -0.9998127
vn 0 -0.01935921 -0.9998127
vn 0 -0.01938304 -0.9998122
vn 0 0.9746509 -0.223731
vn 0 0.9746509 -0.223731
vn 0 0.9162673 -0.4005674
vn 0 0.9162673 -0.4005674
vn 0 0.7730419 -0.634355
vn 0 0.7730419 -0.634355
vn 0 0.6204758 -0.7842256
vn 0 0.6204758 -0.7842256
vn 0 0.5462481 -0.8376235
vn 0 0.5462481 -0.8376235
vn 0 -0.9999986 0.001716613
vn 0 -0.9999986 0.001716613
vn 0 -0.921014 0.3895295
vn 0 -0.921014 0.3895295
vn 0 -0.6712903 0.7411945
vn 0 -0.6712903 0.7411945
vn 0 -0.518606 0.8550133
vn 0 -0.518606 0.8550133
vn 0 -0.4593789 0.8882405
vn 0 -0.4593789 0.8882405
g mag_fal_sarco_fal_l1a1_orig_762x51_30_LOD1_0
f 3/3/3 2/2/2 1/1/1
f 2/2/2 4/4/4 1/1/1
f 2/2/2 5/5/5 4/4/4
f 5/5/5 6/6/6 4/4/4
f 7/7/7 6/6/6 5/5/5
f 5/5/5 8/8/8 7/7/7
f 9/9/9 7/7/7 8/8/8
f 8/8/8 10/10/10 9/9/9
f 13/13/13 12/12/12 11/11/11
f 12/12/12 14/14/14 11/11/11
f 17/17/17 16/16/16 15/15/15
f 15/15/15 18/18/18 17/17/17
f 19/19/19 17/17/17 18/18/18
f 18/18/18 20/20/20 19/19/19
f 19/19/19 20/20/20 21/21/21
f 21/21/21 22/22/22 19/19/19
f 22/22/22 21/21/21 23/23/23
f 23/23/23 24/24/24 22/22/22
f 27/27/27 26/26/26 25/25/25
f 26/26/26 28/28/28 25/25/25
f 31/31/31 30/30/30 29/29/29
f 31/31/31 32/32/32 30/30/30
f 33/33/33 32/32/32 31/31/31
f 31/31/31 34/34/34 33/33/33
f 35/35/35 33/33/33 34/34/34
f 35/35/35 36/36/36 33/33/33
f 37/37/37 36/36/36 35/35/35
f 37/37/37 38/38/38 36/36/36
f 41/41/41 40/40/40 39/39/39
f 39/39/39 42/42/42 41/41/41
f 43/43/43 41/41/41 42/42/42
f 43/43/43 44/44/44 41/41/41
f 45/45/45 44/44/44 43/43/43
f 43/43/43 46/46/46 45/45/45
f 47/47/47 45/45/45 46/46/46
f 46/46/46 48/48/48 47/47/47
