g mag_m700_magpul_pmag_762_ac_762x51_5_LOD1
v 0.009809487 -0.02406984 0.03767639
v 0.009517668 -0.03704271 0.03736166
v 1.072713E-06 -0.03588479 0.03737068
v 1.072713E-06 -0.02406984 0.03767639
v 0.009517668 -0.03704271 0.03736166
v 1.072713E-06 -0.03790331 0.03489698
v 1.072713E-06 -0.03588479 0.03737068
v 1.072713E-06 0.03728367 0.03926389
v 1.072713E-06 0.03811244 -0.03163916
v 0.01291009 0.03811244 -0.03163916
v 0.01126261 0.03728367 0.03926389
v 0.009517668 -0.03704271 0.03736166
v 0.006707012 -0.03755732 -0.02053015
v 1.072713E-06 -0.0379033 -0.02053015
v 1.072713E-06 -0.03790331 0.03489698
v 0.01117595 -0.03755732 -0.0246258
v 0.01117595 -0.03755732 -0.0246258
v 0.01112504 0.03147512 0.03927371
v 0.01126261 0.03728367 0.03926389
v 0.01291009 0.03811244 -0.03163916
v 0.009809487 -0.02406984 0.03767639
v 0.009517668 -0.03704271 0.03736166
v 0.01115456 -0.03831466 -0.03345456
v 0.01288966 0.03735432 -0.04047532
v 0.006707012 -0.03755732 -0.02053015
v 0.007528033 -0.03988769 -0.02434257
v 1.072713E-06 -0.04016158 -0.02434258
v 1.072713E-06 -0.0379033 -0.02053015
v 1.072713E-06 -0.04092946 -0.03328276
v 0.007524059 -0.04065349 -0.03326038
v 0.01117595 -0.03755732 -0.0246258
v 0.01115456 -0.03831466 -0.03345456
v 0.01291009 0.03811244 -0.03163916
v 1.072713E-06 0.03811244 -0.03163916
v 1.072713E-06 0.03734683 -0.04055696
v 0.01288966 0.03735432 -0.04047532
v 0.009809487 -0.02406984 0.03767639
v 0.007963005 -0.01253999 0.0439273
v 0.008441865 0.02938663 0.04467194
v 0.01112504 0.03147512 0.03927371
v 0.007275233 0.02686496 0.04593214
v 0.006637812 -0.001823621 0.04593214
v 0.009809487 -0.02406984 0.03767639
v 1.072713E-06 -0.02406984 0.03767639
v 1.072713E-06 -0.01253999 0.0439273
v 0.007963005 -0.01253999 0.0439273
v 0.01112504 0.03147512 0.03927371
v 1.072713E-06 0.03147512 0.03927371
v 1.072713E-06 0.03728367 0.03926389
v 0.01126261 0.03728367 0.03926389
v 0.008441865 0.02938663 0.04467194
v 1.072713E-06 0.02938663 0.04467194
v 1.072713E-06 0.03147512 0.03927371
v 0.01112504 0.03147512 0.03927371
v 0.007963005 -0.01253999 0.0439273
v 1.072713E-06 -0.01253999 0.0439273
v 1.072713E-06 -0.001823621 0.04593214
v 0.006637812 -0.001823621 0.04593214
v 1.072713E-06 0.02686496 0.04593214
v 0.007275233 0.02686496 0.04593214
v 1.072713E-06 0.02938663 0.04467194
v 0.008441865 0.02938663 0.04467194
v 0.007524059 -0.04065349 -0.03326038
v 0.01288966 0.03735432 -0.04047532
v 1.072713E-06 0.03734683 -0.04055696
v 1.072713E-06 -0.04092946 -0.03328276
v 0.01115456 -0.03831466 -0.03345456
v -0.009807342 -0.02406984 0.03767639
v 1.072713E-06 -0.02406984 0.03767639
v 1.072713E-06 -0.03588479 0.03737068
v -0.009515522 -0.03704271 0.03736166
v -0.009515522 -0.03704271 0.03736166
v 1.072713E-06 -0.03588479 0.03737068
v 1.072713E-06 -0.03790331 0.03489698
v 1.072713E-06 0.03728367 0.03926389
v -0.01126046 0.03728367 0.03926389
v -0.01290794 0.03811244 -0.03163916
v 1.072713E-06 0.03811244 -0.03163916
v -0.009515522 -0.03704271 0.03736166
v 1.072713E-06 -0.03790331 0.03489698
v 1.072713E-06 -0.0379033 -0.02053015
v -0.006704866 -0.03755732 -0.02053015
v -0.0111738 -0.03755732 -0.0246258
v -0.0111738 -0.03755732 -0.0246258
v -0.01290794 0.03811244 -0.03163916
v -0.01126046 0.03728367 0.03926389
v -0.01112289 0.03147512 0.03927371
v -0.009807342 -0.02406984 0.03767639
v -0.009515522 -0.03704271 0.03736166
v -0.01115241 -0.03831466 -0.03345456
v -0.01288751 0.03735432 -0.04047532
v -0.006704866 -0.03755732 -0.02053015
v 1.072713E-06 -0.0379033 -0.02053015
v 1.072713E-06 -0.04016158 -0.02434258
v -0.007525887 -0.03988769 -0.02434257
v 1.072713E-06 -0.04092946 -0.03328276
v -0.007521913 -0.04065349 -0.03326038
v -0.0111738 -0.03755732 -0.0246258
v -0.01115241 -0.03831466 -0.03345456
v -0.01290794 0.03811244 -0.03163916
v -0.01288751 0.03735432 -0.04047532
v 1.072713E-06 0.03734683 -0.04055696
v 1.072713E-06 0.03811244 -0.03163916
v -0.009807342 -0.02406984 0.03767639
v -0.01112289 0.03147512 0.03927371
v -0.00843972 0.02938663 0.04467194
v -0.00796086 -0.01253999 0.0439273
v -0.007273087 0.02686496 0.04593214
v -0.006635666 -0.001823621 0.04593214
v -0.009807342 -0.02406984 0.03767639
v -0.00796086 -0.01253999 0.0439273
v 1.072713E-06 -0.01253999 0.0439273
v 1.072713E-06 -0.02406984 0.03767639
v -0.01112289 0.03147512 0.03927371
v -0.01126046 0.03728367 0.03926389
v 1.072713E-06 0.03728367 0.03926389
v 1.072713E-06 0.03147512 0.03927371
v -0.00843972 0.02938663 0.04467194
v -0.01112289 0.03147512 0.03927371
v 1.072713E-06 0.03147512 0.03927371
v 1.072713E-06 0.02938663 0.04467194
v -0.00796086 -0.01253999 0.0439273
v -0.006635666 -0.001823621 0.04593214
v 1.072713E-06 -0.001823621 0.04593214
v 1.072713E-06 -0.01253999 0.0439273
v 1.072713E-06 0.02686496 0.04593214
v -0.007273087 0.02686496 0.04593214
v 1.072713E-06 0.02938663 0.04467194
v -0.00843972 0.02938663 0.04467194
v -0.007521913 -0.04065349 -0.03326038
v 1.072713E-06 -0.04092946 -0.03328276
v 1.072713E-06 0.03734683 -0.04055696
v -0.01288751 0.03735432 -0.04047532
v -0.01115241 -0.03831466 -0.03345456
vt 0.6684831 0.8811327
vt 0.7973285 0.8788074
vt 0.7863472 0.7886308
vt 0.6690106 0.7886236
vt 0.7973285 0.8788074
vt 0.818018 0.7886328
vt 0.7863472 0.7886308
vt 0.0009765625 0.0009765625
vt 0.003469057 0.6627537
vt 0.1293527 0.6641239
vt 0.1220492 0.00306914
vt 0.8694435 0.0009765625
vt 0.9108561 0.5374702
vt 0.9754965 0.532018
vt 0.9710059 0.01828837
vt 0.8693674 0.5790241
vt 0.8693674 0.5790241
vt 0.179552 0.001787245
vt 0.1220492 0.00306914
vt 0.1293527 0.6641239
vt 0.7352811 0.001424193
vt 0.8694435 0.0009765625
vt 0.8795125 0.6621996
vt 0.1363645 0.7469465
vt 0.9108561 0.5374702
vt 0.9119028 0.5784572
vt 0.9849623 0.5712868
vt 0.9754965 0.532018
vt 0.9955336 0.6539767
vt 0.9212369 0.6605702
vt 0.8693674 0.5790241
vt 0.8795125 0.6621996
vt 0.1293527 0.6641239
vt 0.003469057 0.6627537
vt 0.003784093 0.746401
vt 0.1363645 0.7469465
vt 0.4401689 0.7750772
vt 0.5564752 0.716624
vt 0.974484 0.7187127
vt 0.9943212 0.7750772
vt 0.9495499 0.7024848
vt 0.6636068 0.6955789
vt 0.6684831 0.8811327
vt 0.6690106 0.7886236
vt 0.5388044 0.7886152
vt 0.5383763 0.8634691
vt 0.05970794 0.8915294
vt 0.06030255 0.7885849
vt 0.002635983 0.7885812
vt 0.002034557 0.8926349
vt 0.1173156 0.8666311
vt 0.1177659 0.7885883
vt 0.06030255 0.7885849
vt 0.05970794 0.8915294
vt 0.5383763 0.8634691
vt 0.5388044 0.7886152
vt 0.4305681 0.7886084
vt 0.4302122 0.8507462
vt 0.1457528 0.7885903
vt 0.1453644 0.8558151
vt 0.1177659 0.7885883
vt 0.1173156 0.8666311
vt 0.8822388 0.9264063
vt 0.1332685 0.8778029
vt 0.1339829 0.9950889
vt 0.8847342 0.9948482
vt 0.8597541 0.893407
vt 0.6684831 0.8811327
vt 0.6690106 0.7886236
vt 0.7863472 0.7886308
vt 0.7973285 0.8788074
vt 0.7973285 0.8788074
vt 0.7863472 0.7886308
vt 0.818018 0.7886328
vt 0.0009765625 0.0009765625
vt 0.1220492 0.00306914
vt 0.1293527 0.6641239
vt 0.003469057 0.6627537
vt 0.8694435 0.0009765625
vt 0.9710059 0.01828837
vt 0.9754965 0.532018
vt 0.9108561 0.5374702
vt 0.8693674 0.5790241
vt 0.8693674 0.5790241
vt 0.1293527 0.6641239
vt 0.1220492 0.00306914
vt 0.179552 0.001787245
vt 0.7352811 0.001424193
vt 0.8694435 0.0009765625
vt 0.8795125 0.6621996
vt 0.1363645 0.7469465
vt 0.9108561 0.5374702
vt 0.9754965 0.532018
vt 0.9849623 0.5712868
vt 0.9119028 0.5784572
vt 0.9955336 0.6539767
vt 0.9212369 0.6605702
vt 0.8693674 0.5790241
vt 0.8795125 0.6621996
vt 0.1293527 0.6641239
vt 0.1363645 0.7469465
vt 0.003784093 0.746401
vt 0.003469057 0.6627537
vt 0.4401689 0.7750772
vt 0.9943212 0.7750772
vt 0.974484 0.7187127
vt 0.5564752 0.716624
vt 0.9495499 0.7024848
vt 0.6636068 0.6955789
vt 0.6684831 0.8811327
vt 0.5383763 0.8634691
vt 0.5388044 0.7886152
vt 0.6690106 0.7886236
vt 0.05970794 0.8915294
vt 0.002034557 0.8926349
vt 0.002635983 0.7885812
vt 0.06030255 0.7885849
vt 0.1173156 0.8666311
vt 0.05970794 0.8915294
vt 0.06030255 0.7885849
vt 0.1177659 0.7885883
vt 0.5383763 0.8634691
vt 0.4302122 0.8507462
vt 0.4305681 0.7886084
vt 0.5388044 0.7886152
vt 0.1457528 0.7885903
vt 0.1453644 0.8558151
vt 0.1177659 0.7885883
vt 0.1173156 0.8666311
vt 0.8822388 0.9264063
vt 0.8847342 0.9948482
vt 0.1339829 0.9950889
vt 0.1332685 0.8778029
vt 0.8597541 0.893407
vn -0.001031158 -0.02501005 0.9996867
vn -0.001031158 -0.02501005 0.9996867
vn 0 -0.02501006 0.9996872
vn 0 -0.02501006 0.9996872
vn -0.09326353 -0.7714045 0.6294737
vn 0 -0.7747916 0.6322168
vn 0 -0.7747916 0.6322168
vn 0 0.9999318 0.01168256
vn 0 0.9999318 0.01168256
vn 0 0.9999318 0.01168256
vn 0 0.9999318 0.01168256
vn 0.07007673 -0.997537 0.003027897
vn 0.03532774 -0.9993572 0.006103527
vn 0 -0.9999963 0.002717964
vn 0 -0.9999964 0.002694123
vn 0.007796335 -0.9999336 0.008487754
vn 0.9996607 -0.02272119 0.01273149
vn 0.9994718 -0.02176756 0.0241279
vn 0.9995108 -0.02098085 0.02319814
vn 0.9996982 -0.02198213 0.01096722
vn 0.9993476 -0.0238895 0.0270843
vn 0.9993702 -0.02312667 0.02691754
vn 0.9997362 -0.0229597 -0.0003814695
vn 0.9997368 -0.02293587 -0.0003814698
vn 0.1831372 -0.8247222 0.5350645
vn 0.2966692 -0.9023637 0.3126134
vn 0 -0.9511732 0.3086574
vn 0 -0.8550408 0.5185606
vn 0 -0.9963341 0.0855472
vn 0.299084 -0.9507652 0.08120533
vn 0.5366936 -0.8099101 0.2366549
vn 0.541886 -0.8374396 0.07109593
vn -2.384156E-05 0.9963386 -0.08549582
vn 0 0.9963386 -0.08549582
vn 0 0.9963386 -0.08549582
vn -2.384156E-05 0.9963386 -0.08549582
vn 0.9243546 -0.02617835 0.3806351
vn 0.91575 -0.02570158 0.4009256
vn 0.8946791 -0.02460467 0.4460312
vn 0.9243645 -0.02615463 0.380613
vn 0.7713434 -0.01890629 0.6361384
vn 0.7713435 -0.01890033 0.6361384
vn 0 -0.4765988 0.8791209
vn 0 -0.4765988 0.8791209
vn 0 -0.476618 0.8791105
vn 0 -0.476618 0.8791105
vn 0 0.001692771 0.9999986
vn 0 0.001692771 0.9999986
vn 0 0.001668929 0.9999987
vn 0 0.001668929 0.9999987
vn 0 0.932636 0.3608189
vn 0 0.932636 0.3608189
vn 0 0.932636 0.3608189
vn 0 0.932636 0.3608189
vn 0 -0.1838912 0.9829466
vn 0 -0.1838912 0.9829466
vn 0 -0.09233917 0.9957277
vn 0 -0.09511454 0.9954662
vn 0 0.2296453 0.9732744
vn 0 0.2566579 0.9665023
vn 0 0.4470229 0.8945225
vn 0 0.4470229 0.8945225
vn 0.006359853 -0.09253079 -0.9956896
vn 0.006353907 -0.09250717 -0.9956918
vn 0 -0.09255191 -0.9957079
vn 0 -0.09250463 -0.9957123
vn 0.006353892 -0.09253079 -0.9956896
vn 0.001031158 -0.02501005 0.9996867
vn 0 -0.02501006 0.9996872
vn 0 -0.02501006 0.9996872
vn 0.001031158 -0.02501005 0.9996867
vn 0.09326353 -0.7714045 0.6294737
vn 0 -0.7747916 0.6322168
vn 0 -0.7747916 0.6322168
vn 0 0.9999318 0.01168256
vn 0 0.9999318 0.01168256
vn 0 0.9999318 0.01168256
vn 0 0.9999318 0.01168256
vn -0.07007673 -0.997537 0.003027897
vn 0 -0.9999964 0.002694123
vn 0 -0.9999963 0.002717964
vn -0.03532774 -0.9993572 0.006103527
vn -0.007796335 -0.9999336 0.008487754
vn -0.9996607 -0.02272119 0.01273149
vn -0.9996982 -0.02198213 0.01096722
vn -0.9995108 -0.02098085 0.02319814
vn -0.9994718 -0.02176756 0.0241279
vn -0.9993476 -0.0238895 0.0270843
vn -0.9993702 -0.02312667 0.02691754
vn -0.9997362 -0.0229597 -0.0003814695
vn -0.9997368 -0.02293587 -0.0003814698
vn -0.1831372 -0.8247222 0.5350645
vn 0 -0.8550408 0.5185606
vn 0 -0.9511732 0.3086574
vn -0.2966692 -0.9023637 0.3126134
vn 0 -0.9963341 0.0855472
vn -0.299084 -0.9507652 0.08120533
vn -0.5366936 -0.8099101 0.2366549
vn -0.541886 -0.8374396 0.07109593
vn 2.384156E-05 0.9963386 -0.08549582
vn 2.384156E-05 0.9963386 -0.08549582
vn 0 0.9963386 -0.08549582
vn 0 0.9963386 -0.08549582
vn -0.9243546 -0.02617835 0.3806351
vn -0.9243645 -0.02615463 0.380613
vn -0.8946791 -0.02460467 0.4460312
vn -0.91575 -0.02570158 0.4009256
vn -0.7713434 -0.01890629 0.6361384
vn -0.7713435 -0.01890033 0.6361384
vn 0 -0.4765988 0.8791209
vn 0 -0.476618 0.8791105
vn 0 -0.476618 0.8791105
vn 0 -0.4765988 0.8791209
vn 0 0.001692771 0.9999986
vn 0 0.001668929 0.9999987
vn 0 0.001668929 0.9999987
vn 0 0.001692771 0.9999986
vn 0 0.932636 0.3608189
vn 0 0.932636 0.3608189
vn 0 0.932636 0.3608189
vn 0 0.932636 0.3608189
vn 0 -0.1838912 0.9829466
vn 0 -0.09511454 0.9954662
vn 0 -0.09233917 0.9957277
vn 0 -0.1838912 0.9829466
vn 0 0.2296453 0.9732744
vn 0 0.2566579 0.9665023
vn 0 0.4470229 0.8945225
vn 0 0.4470229 0.8945225
vn -0.006359853 -0.09253079 -0.9956896
vn 0 -0.09250463 -0.9957123
vn 0 -0.09255191 -0.9957079
vn -0.006353907 -0.09250717 -0.9956918
vn -0.006353892 -0.09253079 -0.9956896
g mag_m700_magpul_pmag_762_ac_762x51_5_LOD1_0
f 3/3/3 2/2/2 1/1/1
f 4/4/4 3/3/3 1/1/1
f 7/7/7 6/6/6 5/5/5
f 10/10/10 9/9/9 8/8/8
f 11/11/11 10/10/10 8/8/8
f 14/14/14 13/13/13 12/12/12
f 15/15/15 14/14/14 12/12/12
f 13/13/13 16/16/16 12/12/12
f 19/19/19 18/18/18 17/17/17
f 20/20/20 19/19/19 17/17/17
f 21/21/21 17/17/17 18/18/18
f 17/17/17 21/21/21 22/22/22
f 17/17/17 23/23/23 20/20/20
f 23/23/23 24/24/24 20/20/20
f 27/27/27 26/26/26 25/25/25
f 28/28/28 27/27/27 25/25/25
f 27/27/27 29/29/29 26/26/26
f 29/29/29 30/30/30 26/26/26
f 26/26/26 31/31/31 25/25/25
f 26/26/26 30/30/30 32/32/32
f 31/31/31 26/26/26 32/32/32
f 35/35/35 34/34/34 33/33/33
f 36/36/36 35/35/35 33/33/33
f 39/39/39 38/38/38 37/37/37
f 40/40/40 39/39/39 37/37/37
f 39/39/39 41/41/41 38/38/38
f 41/41/41 42/42/42 38/38/38
f 45/45/45 44/44/44 43/43/43
f 46/46/46 45/45/45 43/43/43
f 49/49/49 48/48/48 47/47/47
f 50/50/50 49/49/49 47/47/47
f 53/53/53 52/52/52 51/51/51
f 54/54/54 53/53/53 51/51/51
f 57/57/57 56/56/56 55/55/55
f 58/58/58 57/57/57 55/55/55
f 59/59/59 57/57/57 58/58/58
f 60/60/60 59/59/59 58/58/58
f 61/61/61 59/59/59 60/60/60
f 62/62/62 61/61/61 60/60/60
f 65/65/65 64/64/64 63/63/63
f 66/66/66 65/65/65 63/63/63
f 67/67/67 63/63/63 64/64/64
f 70/70/70 69/69/69 68/68/68
f 71/71/71 70/70/70 68/68/68
f 74/74/74 73/73/73 72/72/72
f 77/77/77 76/76/76 75/75/75
f 78/78/78 77/77/77 75/75/75
f 81/81/81 80/80/80 79/79/79
f 82/82/82 81/81/81 79/79/79
f 83/83/83 82/82/82 79/79/79
f 86/86/86 85/85/85 84/84/84
f 87/87/87 86/86/86 84/84/84
f 84/84/84 88/88/88 87/87/87
f 88/88/88 84/84/84 89/89/89
f 90/90/90 84/84/84 85/85/85
f 91/91/91 90/90/90 85/85/85
f 94/94/94 93/93/93 92/92/92
f 95/95/95 94/94/94 92/92/92
f 96/96/96 94/94/94 95/95/95
f 97/97/97 96/96/96 95/95/95
f 98/98/98 95/95/95 92/92/92
f 95/95/95 98/98/98 99/99/99
f 97/97/97 95/95/95 99/99/99
f 102/102/102 101/101/101 100/100/100
f 103/103/103 102/102/102 100/100/100
f 106/106/106 105/105/105 104/104/104
f 107/107/107 106/106/106 104/104/104
f 108/108/108 106/106/106 107/107/107
f 109/109/109 108/108/108 107/107/107
f 112/112/112 111/111/111 110/110/110
f 113/113/113 112/112/112 110/110/110
f 116/116/116 115/115/115 114/114/114
f 117/117/117 116/116/116 114/114/114
f 120/120/120 119/119/119 118/118/118
f 121/121/121 120/120/120 118/118/118
f 124/124/124 123/123/123 122/122/122
f 125/125/125 124/124/124 122/122/122
f 124/124/124 126/126/126 123/123/123
f 126/126/126 127/127/127 123/123/123
f 126/126/126 128/128/128 127/127/127
f 128/128/128 129/129/129 127/127/127
f 132/132/132 131/131/131 130/130/130
f 133/133/133 132/132/132 130/130/130
f 130/130/130 134/134/134 133/133/133
