g mag_mpx_tti_sig_mag_w_base_pad_9x19_41_LOD1
v -0.007274963 -0.001957902 0.02645522
v 0.008311492 0.01822955 0.02413816
v 0.008311492 -0.001957902 0.02645522
v -0.007274963 0.01822955 0.02413816
v 0.01095085 0.01951981 0.0213425
v -0.009914323 0.01961147 0.01827272
v 0.01095085 0.01961147 0.01827272
v -0.009914323 0.01951981 0.0213425
v 0.01095085 0.01558635 -0.009131152
v -0.009914323 0.01558635 -0.009131152
v 0.01095085 0.008663877 -0.04177558
v -0.009914323 0.008663877 -0.04177558
v 0.01095085 -0.0003040493 -0.07391832
v -0.009914324 -0.0003040481 -0.07391832
v 0.01095085 -0.0112817 -0.1054313
v -0.009914324 -0.0112817 -0.1054313
v 0.01095085 -0.02422537 -0.1361891
v -0.009914324 -0.02422537 -0.1361891
v 0.01095085 -0.03955628 -0.1669684
v -0.009914326 -0.03955628 -0.1669684
v -0.007274963 0.01822955 0.02413816
v 0.008311492 0.01822955 0.02413816
v 0.01095085 -0.002910565 0.02424564
v 0.01095085 0.01961147 0.01827272
v 0.01095085 -0.005265421 0.02192667
v 0.01095085 0.01951981 0.0213425
v 0.008311492 -0.001957902 0.02645522
v 0.008311492 0.01822955 0.02413816
v 0.01095085 0.01558635 -0.009131152
v 0.01095085 -0.01758551 -0.003183946
v 0.01095085 -0.02406677 -0.03374771
v 0.01095085 0.008663877 -0.04177558
v 0.01095085 -0.0324631 -0.06384175
v 0.01095085 -0.0003040493 -0.07391832
v 0.01095085 -0.04274108 -0.0933462
v 0.01095085 -0.0112817 -0.1054313
v 0.01095085 -0.05485975 -0.1221436
v 0.01095085 -0.02422537 -0.1361891
v 0.01095085 -0.06924365 -0.1510184
v 0.01095085 -0.03955628 -0.1669684
v 0.01095085 -0.01371494 0.02316775
v -0.009914323 -0.02406677 -0.03374771
v 0.01095085 -0.01758551 -0.003183946
v 0.01095085 -0.02406677 -0.03374771
v -0.009914323 -0.01758551 -0.003183946
v -0.009914323 -0.0324631 -0.06384175
v 0.01095085 -0.0324631 -0.06384175
v -0.009914323 -0.04274108 -0.0933462
v 0.01095085 -0.04274108 -0.0933462
v -0.009914324 -0.05485975 -0.1221436
v 0.01095085 -0.05485975 -0.1221436
v -0.009914323 -0.06924365 -0.1510184
v 0.01095085 -0.06924365 -0.1510184
v 0.01095085 -0.01371494 0.02316775
v -0.009914323 -0.01371494 0.02316775
v -0.009914323 0.008663877 -0.04177558
v -0.009914323 -0.01758551 -0.003183946
v -0.009914323 -0.02406677 -0.03374771
v -0.009914323 0.01558635 -0.009131152
v -0.009914324 -0.0003040481 -0.07391832
v -0.009914323 -0.0324631 -0.06384175
v -0.009914324 -0.0112817 -0.1054313
v -0.009914323 -0.04274108 -0.0933462
v -0.009914324 -0.02422537 -0.1361891
v -0.009914324 -0.05485975 -0.1221436
v -0.009914326 -0.03955628 -0.1669684
v -0.009914323 -0.06924365 -0.1510184
v -0.009914323 -0.005265424 0.02192667
v -0.009914323 0.01961147 0.01827272
v -0.009914323 -0.002910566 0.02424564
v -0.009914323 0.01951981 0.0213425
v -0.007274963 0.01822955 0.02413816
v -0.007274963 -0.001957902 0.02645522
v -0.009914323 -0.01371494 0.02316775
v 0.008311492 -0.001957902 0.02645522
v -0.009914323 -0.002910566 0.02424564
v -0.007274963 -0.001957902 0.02645522
v 0.01095085 -0.002910565 0.02424564
v 0.01095085 -0.005265421 0.02192667
v -0.009914323 -0.005265424 0.02192667
v 0.01095085 -0.005265421 0.02192667
v -0.009914323 -0.01371494 0.02316775
v -0.009914323 -0.005265424 0.02192667
v 0.01095085 -0.01371494 0.02316775
v -0.009283582 -0.04911868 -0.1978235
v 0.01507233 -0.05268271 -0.1959825
v 0.01032011 -0.04911868 -0.1978235
v -0.0140358 -0.08261868 -0.1805194
v 0.01507233 -0.08261868 -0.1805194
v -0.01403581 -0.05268271 -0.1959825
v 0.01032011 -0.08618268 -0.1786785
v -0.00928358 -0.08618268 -0.1786785
v -0.009283582 -0.04911868 -0.1978235
v 0.01032011 -0.03338264 -0.1655922
v -0.009283583 -0.03338264 -0.1655922
v 0.01032011 -0.04911868 -0.1978235
v -0.009329802 -0.03410858 -0.1614843
v 0.01036633 -0.03410858 -0.1614843
v 0.01507233 -0.08261868 -0.1805194
v 0.01507233 -0.06830256 -0.1511989
v 0.01507233 -0.06234558 -0.1541305
v 0.01507233 -0.03701 -0.1638797
v 0.01507233 -0.06115855 -0.1517022
v 0.01507233 -0.05268271 -0.1959825
v 0.01267475 -0.03584757 -0.1605861
v 0.01267475 -0.05952308 -0.1483567
v 0.01032011 -0.08618268 -0.1786785
v -0.009283582 -0.07190172 -0.1494276
v 0.01032011 -0.07190172 -0.1494276
v -0.00928358 -0.08618268 -0.1786785
v -0.0140358 -0.08261868 -0.1805194
v -0.01403581 -0.03701 -0.1638797
v -0.01403581 -0.06234558 -0.1541305
v -0.01403581 -0.05268271 -0.1959825
v -0.01403581 -0.06830256 -0.1511989
v -0.01403581 -0.06115855 -0.1517022
v -0.01163823 -0.03584757 -0.1605861
v -0.01163823 -0.05952308 -0.1483567
v 0.01267475 -0.05952308 -0.1483567
v 0.01036633 -0.03410858 -0.1614843
v 0.01267475 -0.03584757 -0.1605861
v -0.01163823 -0.05952308 -0.1483567
v -0.01163823 -0.03584757 -0.1605861
v -0.009329802 -0.03410858 -0.1614843
v -0.01403581 -0.06115855 -0.1517022
v 0.01267475 -0.05952308 -0.1483567
v 0.01507233 -0.06115855 -0.1517022
v -0.01163823 -0.05952308 -0.1483567
v -0.01403581 -0.06234558 -0.1541305
v 0.01507233 -0.06234558 -0.1541305
v -0.01403581 -0.06234558 -0.1541305
v -0.009283582 -0.07190172 -0.1494276
v -0.01403581 -0.06830256 -0.1511989
v 0.01507233 -0.06234558 -0.1541305
v 0.01507233 -0.06830256 -0.1511989
v 0.01032011 -0.07190172 -0.1494276
v 0.01032011 -0.08618268 -0.1786785
v 0.01507233 -0.06830256 -0.1511989
v 0.01507233 -0.08261868 -0.1805194
v 0.01032011 -0.07190172 -0.1494276
v -0.0140358 -0.08261868 -0.1805194
v -0.009283582 -0.07190172 -0.1494276
v -0.00928358 -0.08618268 -0.1786785
v -0.01403581 -0.06830256 -0.1511989
v -0.009283582 -0.04911868 -0.1978235
v -0.01403581 -0.03701 -0.1638797
v -0.01403581 -0.05268271 -0.1959825
v -0.009283583 -0.03338264 -0.1655922
v -0.01163823 -0.03584757 -0.1605861
v -0.009329802 -0.03410858 -0.1614843
v 0.01507233 -0.05268271 -0.1959825
v 0.01032011 -0.03338264 -0.1655922
v 0.01032011 -0.04911868 -0.1978235
v 0.01507233 -0.03701 -0.1638797
v 0.01036633 -0.03410858 -0.1614843
v 0.01267475 -0.03584757 -0.1605861
vt 0.3884583 0.7837108
vt 0.3030339 0.9175518
vt 0.3884583 0.9175518
vt 0.303034 0.7837108
vt 0.8441142 0.189491
vt 0.8312017 0.0103261
vt 0.831201 0.1894955
vt 0.844112 0.01032167
vt 0.7147588 0.1894939
vt 0.7147616 0.01032311
vt 0.5744696 0.1894955
vt 0.5744731 0.01032454
vt 0.4341795 0.1894852
vt 0.4341853 0.01031593
vt 0.2938939 0.1894778
vt 0.293896 0.01030683
vt 0.1536068 0.1894895
vt 0.1536025 0.01031844
vt 0.00905065 0.1895143
vt 0.009044222 0.010345
vt 0.8570572 0.03298376
vt 0.857058 0.166826
vt 0.03667092 0.4846965
vt 0.03105345 0.6844536
vt 0.04902693 0.4716794
vt 0.0189188 0.6754969
vt 0.02165892 0.4846481
vt 0.004891894 0.6557402
vt 0.1457826 0.7248997
vt 0.1654879 0.4383329
vt 0.2961058 0.4672863
vt 0.2852136 0.7558197
vt 0.4273647 0.4795569
vt 0.4253055 0.7689155
vt 0.5587335 0.4750904
vt 0.5655315 0.7641471
vt 0.6896956 0.4538282
vt 0.7053531 0.7414445
vt 0.8239421 0.4143849
vt 0.8484278 0.6994187
vt 0.05514348 0.3994092
vt 0.5473414 0.3900096
vt 0.6786891 0.2108402
vt 0.5473414 0.2108402
vt 0.6786891 0.3900096
vt 0.4159931 0.3900096
vt 0.4159931 0.2108402
vt 0.2846469 0.3900095
vt 0.2846469 0.2108401
vt 0.1532985 0.3900095
vt 0.1532985 0.2108401
vt 0.01768108 0.3900095
vt 0.01768109 0.2108401
vt 0.7906599 0.2108402
vt 0.7906599 0.3900096
vt 0.2851651 0.7560923
vt 0.1654733 0.4385068
vt 0.2960779 0.467562
vt 0.1457314 0.7250673
vt 0.4252726 0.7691798
vt 0.4273223 0.4798196
vt 0.5654965 0.7643685
vt 0.5586939 0.475312
vt 0.705309 0.7416896
vt 0.6896665 0.4540693
vt 0.848383 0.6997153
vt 0.8239204 0.414674
vt 0.04900842 0.4717997
vt 0.03100811 0.684562
vt 0.03665037 0.4848097
vt 0.01887476 0.6756016
vt 0.004850831 0.6558362
vt 0.02163889 0.4847536
vt 0.05513299 0.3995396
vt 0.2578649 0.8047618
vt 0.2477502 0.9612674
vt 0.2578663 0.9386024
vt 0.2477502 0.7820982
vt 0.2338571 0.7820982
vt 0.2338557 0.9612674
vt 0.1614015 0.9595029
vt 0.1973038 0.7803335
vt 0.1614015 0.7803335
vt 0.1973037 0.9595029
vt 0.8153175 0.9541786
vt 0.8321806 0.7450327
vt 0.8153175 0.7858406
vt 0.9738283 0.9949864
vt 0.9738275 0.7450327
vt 0.8321806 0.9949861
vt 0.9906921 0.7858406
vt 0.9906928 0.9541786
vt 0.6209534 0.8194127
vt 0.7717386 0.9877522
vt 0.7717386 0.819414
vt 0.6209534 0.9877508
vt 0.7892755 0.8190185
vt 0.7892755 0.9881481
vt 0.9933522 0.5229135
vt 0.8648709 0.5278222
vt 0.8648709 0.474318
vt 0.853778 0.2576358
vt 0.853308 0.4737133
vt 0.9937599 0.2516012
vt 0.837931 0.2557796
vt 0.8356613 0.4729462
vt 0.4694864 0.820584
vt 0.6063284 0.9889222
vt 0.6063284 0.820584
vt 0.4694864 0.988922
vt 0.9933522 0.5229135
vt 0.853778 0.2576358
vt 0.8648709 0.474318
vt 0.9937599 0.2516012
vt 0.8648709 0.5276884
vt 0.853308 0.4737133
vt 0.837931 0.2557796
vt 0.8356613 0.4729462
vt 0.1406086 0.9779502
vt 0.02035635 0.9581273
vt 0.02858337 0.9779502
vt 0.1406086 0.7691742
vt 0.02858337 0.7691742
vt 0.02035635 0.7889975
vt 0.866729 0.6465933
vt 0.9790197 0.678564
vt 0.9890986 0.6465932
vt 0.876808 0.6785641
vt 0.866729 0.6233789
vt 0.9890986 0.6233788
vt 0.9885759 0.01346789
vt 0.9685974 0.1049259
vt 0.9885759 0.07048114
vt 0.8662056 0.01346799
vt 0.8662056 0.07048123
vt 0.8861839 0.1049259
vt 0.9934335 0.5752982
vt 0.8648709 0.5278222
vt 0.9933522 0.5229135
vt 0.8648709 0.5752982
vt 0.9933522 0.5229135
vt 0.8648709 0.5752982
vt 0.9934335 0.5752982
vt 0.8648709 0.5276884
vt 0.9932571 0.2012354
vt 0.853778 0.2576358
vt 0.9937599 0.2516012
vt 0.8510404 0.2096909
vt 0.837931 0.2557796
vt 0.8362362 0.2288715
vt 0.9937599 0.2516012
vt 0.8510404 0.2096909
vt 0.9932571 0.2012354
vt 0.853778 0.2576358
vt 0.8362362 0.2288715
vt 0.837931 0.2557796
vn 0 0.1140287 0.9934775
vn 0 0.1140287 0.9934775
vn 0 0.1140287 0.9934775
vn 0 0.1140287 0.9934775
vn 0 0.9852852 0.1709185
vn 0 0.9983188 -0.05796145
vn 0 0.9983188 -0.05796145
vn 0 0.9852852 0.1709186
vn 0 0.9843059 -0.176471
vn 0 0.9843059 -0.176471
vn 0 0.9712136 -0.2382104
vn 0 0.9712136 -0.2382104
vn 0 0.9542529 -0.2990009
vn 0 0.9542529 -0.2990009
vn 0 0.9334911 -0.3586006
vn 0 0.9334911 -0.3586006
vn 0 0.9088719 -0.4170752
vn 0 0.9088719 -0.4170753
vn 0 0.8951094 -0.4458468
vn 0 0.8951094 -0.4458467
vn 0 0.9079646 0.4190469
vn 0 0.9079646 0.419047
vn 0.9494114 0.04030896 0.3114372
vn 1 0 0
vn 1 0 0
vn 0.9509775 0.03590514 0.3071688
vn 0.6637456 0.09503996 0.7418956
vn 0.7058896 0.08076902 0.7037019
vn 1 0 0
vn 1 0 0
vn 1 0 0
vn 1 0 0
vn 1 0 0
vn 1 0 0
vn 1 0 0
vn 1 0 0
vn 1 0 0
vn 1 0 0
vn 1 0 0
vn 1 0 0
vn 1 0 0
vn 0 -0.9712136 0.2382104
vn 0 -0.9843059 0.176471
vn 0 -0.9712136 0.2382104
vn 0 -0.9843059 0.176471
vn 0 -0.9542528 0.299001
vn 0 -0.9542529 0.299001
vn 0 -0.9334911 0.3586005
vn 0 -0.9334911 0.3586005
vn 0 -0.9088628 0.4170952
vn 0 -0.9088628 0.4170952
vn 0 -0.8950895 0.4458864
vn 0 -0.8950895 0.4458864
vn 0 -0.9893844 0.1453222
vn 0 -0.9893844 0.1453221
vn -1 0 0
vn -1 0 0
vn -1 0 0
vn -1 0 0
vn -1 0 0
vn -1 0 0
vn -1 0 0
vn -1 0 0
vn -1 0 0
vn -1 0 0
vn -1 0 0
vn -1 0 0
vn -1 0 0
vn -1 0 0
vn -0.9500513 0.03612554 0.3099959
vn -0.9514876 0.03949415 0.3051419
vn -0.699054 0.09088345 0.7092698
vn -0.6575925 0.08590622 0.7484598
vn -1 0 0
vn 0 -0.9182852 0.3959196
vn 0 -0.7836285 0.6212297
vn 0 -0.918285 0.3959199
vn 0 -0.7836286 0.6212295
vn 0 -0.7016574 0.7125146
vn 0 -0.7016572 0.7125146
vn 0 0.1453223 0.9893844
vn 0 0.1453223 0.9893844
vn 0 0.1453224 0.9893844
vn 0 0.1453223 0.9893844
vn -3.679821E-07 -0.4589315 -0.8884717
vn 1.429508E-07 -0.4589317 -0.8884715
vn 0 -0.4589331 -0.8884708
vn 0 -0.4589302 -0.8884723
vn 0 -0.4589302 -0.8884723
vn -1.861245E-06 -0.4589312 -0.8884718
vn 0 -0.458928 -0.8884735
vn 0 -0.458928 -0.8884735
vn -0.3417414 0.8445208 -0.4123076
vn 0.3151013 0.9378174 -0.1456352
vn -0.3145282 0.9378949 -0.1463734
vn 0.3417377 0.8445194 -0.4123134
vn -0.3283564 0.9307678 0.1607898
vn 0.3328578 0.9296992 0.1576871
vn 1 0 0
vn 1 0 0
vn 1 0 0
vn 0.9580722 0.1290126 0.2558388
vn 0.958281 0.1309186 0.2540823
vn 1 0 0
vn 0.8241276 0.2554923 0.505507
vn 0.8407421 0.2484821 0.4810503
vn 0.3449304 -0.8434656 0.4118116
vn -0.3431669 -0.8440463 0.412095
vn 0.3431739 -0.844049 0.4120837
vn -0.3449232 -0.843473 0.4118025
vn -1 0 0
vn -0.9580718 0.1290131 0.2558403
vn -1 0 0
vn -1 0 0
vn -1 -1.936116E-07 0
vn -0.9582811 0.1309185 0.2540822
vn -0.8241265 0.2554927 0.5055087
vn -0.8407421 0.2484821 0.4810503
vn 2.65753E-07 0.4589314 0.8884717
vn 1.494057E-06 0.4589315 0.8884717
vn 5.183963E-06 0.4589318 0.8884714
vn -2.206535E-07 0.4589316 0.8884717
vn -3.857387E-07 0.4589303 0.8884723
vn 0 0.4589263 0.8884743
vn 0 -0.8983989 0.4391805
vn 0 -0.8983967 0.439185
vn 0 -0.8983989 0.4391805
vn 0 -0.8983967 0.4391849
vn 0 -0.8984002 0.4391777
vn 0 -0.8984002 0.4391777
vn -2.044169E-06 0.4415572 0.8972331
vn -1.258584E-06 0.4415575 0.897233
vn -7.65099E-06 0.4415549 0.8972342
vn 1.101054E-06 0.4415558 0.8972338
vn 1.139423E-06 0.4415569 0.8972332
vn 0 0.4415631 0.8972302
vn 0.3449304 -0.8434656 0.4118116
vn 0.6450183 -0.6866949 0.3352632
vn 0.6449338 -0.6867497 0.3353136
vn 0.3431739 -0.844049 0.4120837
vn -0.6449452 -0.6867505 0.3352903
vn -0.3431669 -0.8440463 0.412095
vn -0.3449232 -0.843473 0.4118025
vn -0.6450301 -0.6866767 0.3352778
vn -0.3417414 0.8445208 -0.4123076
vn -0.6321667 0.7620574 -0.14012
vn -0.6449369 0.6867635 -0.3352795
vn -0.3145282 0.9378949 -0.1463734
vn -0.5678902 0.812311 0.1328597
vn -0.3283564 0.9307678 0.1607898
vn 0.6449428 0.6867541 -0.3352873
vn 0.3151013 0.9378174 -0.1456352
vn 0.3417377 0.8445194 -0.4123134
vn 0.6307797 0.7633204 -0.1394948
vn 0.3328578 0.9296992 0.1576871
vn 0.5657706 0.8151623 0.1241532
g mag_mpx_tti_sig_mag_w_base_pad_9x19_41_LOD1_0
f 3/3/3 2/2/2 1/1/1
f 4/4/4 1/1/1 2/2/2
f 7/7/7 6/6/6 5/5/5
f 8/8/8 5/5/5 6/6/6
f 7/7/7 9/9/9 6/6/6
f 10/10/10 6/6/6 9/9/9
f 9/9/9 11/11/11 10/10/10
f 12/12/12 10/10/10 11/11/11
f 11/11/11 13/13/13 12/12/12
f 14/14/14 12/12/12 13/13/13
f 13/13/13 15/15/15 14/14/14
f 16/16/16 14/14/14 15/15/15
f 15/15/15 17/17/17 16/16/16
f 18/18/18 16/16/16 17/17/17
f 17/17/17 19/19/19 18/18/18
f 20/20/20 18/18/18 19/19/19
f 8/8/8 21/21/21 5/5/5
f 22/22/22 5/5/5 21/21/21
f 25/25/25 24/24/24 23/23/23
f 26/26/26 23/23/23 24/24/24
f 23/23/23 26/26/26 27/27/27
f 28/28/28 27/27/27 26/26/26
f 24/24/24 25/25/25 29/29/29
f 29/29/29 25/25/25 30/30/30
f 30/30/30 31/31/31 29/29/29
f 32/32/32 29/29/29 31/31/31
f 31/31/31 33/33/33 32/32/32
f 34/34/34 32/32/32 33/33/33
f 33/33/33 35/35/35 34/34/34
f 36/36/36 34/34/34 35/35/35
f 35/35/35 37/37/37 36/36/36
f 38/38/38 36/36/36 37/37/37
f 37/37/37 39/39/39 38/38/38
f 40/40/40 38/38/38 39/39/39
f 30/30/30 25/25/25 41/41/41
f 44/44/44 43/43/43 42/42/42
f 45/45/45 42/42/42 43/43/43
f 42/42/42 46/46/46 44/44/44
f 47/47/47 44/44/44 46/46/46
f 46/46/46 48/48/48 47/47/47
f 49/49/49 47/47/47 48/48/48
f 48/48/48 50/50/50 49/49/49
f 51/51/51 49/49/49 50/50/50
f 50/50/50 52/52/52 51/51/51
f 53/53/53 51/51/51 52/52/52
f 43/43/43 54/54/54 45/45/45
f 55/55/55 45/45/45 54/54/54
f 58/58/58 57/57/57 56/56/56
f 59/59/59 56/56/56 57/57/57
f 56/56/56 60/60/60 58/58/58
f 61/61/61 58/58/58 60/60/60
f 60/60/60 62/62/62 61/61/61
f 63/63/63 61/61/61 62/62/62
f 62/62/62 64/64/64 63/63/63
f 65/65/65 63/63/63 64/64/64
f 64/64/64 66/66/66 65/65/65
f 67/67/67 65/65/65 66/66/66
f 57/57/57 68/68/68 59/59/59
f 59/59/59 68/68/68 69/69/69
f 68/68/68 70/70/70 69/69/69
f 71/71/71 69/69/69 70/70/70
f 71/71/71 70/70/70 72/72/72
f 73/73/73 72/72/72 70/70/70
f 74/74/74 68/68/68 57/57/57
f 77/77/77 76/76/76 75/75/75
f 78/78/78 75/75/75 76/76/76
f 78/78/78 76/76/76 79/79/79
f 80/80/80 79/79/79 76/76/76
f 83/83/83 82/82/82 81/81/81
f 84/84/84 81/81/81 82/82/82
f 87/87/87 86/86/86 85/85/85
f 86/86/86 88/88/88 85/85/85
f 89/89/89 88/88/88 86/86/86
f 85/85/85 88/88/88 90/90/90
f 89/89/89 91/91/91 88/88/88
f 92/92/92 88/88/88 91/91/91
f 95/95/95 94/94/94 93/93/93
f 96/96/96 93/93/93 94/94/94
f 95/95/95 97/97/97 94/94/94
f 98/98/98 94/94/94 97/97/97
f 101/101/101 100/100/100 99/99/99
f 101/101/101 99/99/99 102/102/102
f 103/103/103 101/101/101 102/102/102
f 104/104/104 102/102/102 99/99/99
f 102/102/102 105/105/105 103/103/103
f 106/106/106 103/103/103 105/105/105
f 109/109/109 108/108/108 107/107/107
f 110/110/110 107/107/107 108/108/108
f 113/113/113 112/112/112 111/111/111
f 114/114/114 111/111/111 112/112/112
f 115/115/115 113/113/113 111/111/111
f 113/113/113 116/116/116 112/112/112
f 112/112/112 116/116/116 117/117/117
f 118/118/118 117/117/117 116/116/116
f 121/121/121 120/120/120 119/119/119
f 119/119/119 120/120/120 122/122/122
f 122/122/122 120/120/120 123/123/123
f 123/123/123 120/120/120 124/124/124
f 127/127/127 126/126/126 125/125/125
f 128/128/128 125/125/125 126/126/126
f 125/125/125 129/129/129 127/127/127
f 130/130/130 127/127/127 129/129/129
f 133/133/133 132/132/132 131/131/131
f 132/132/132 134/134/134 131/131/131
f 135/135/135 134/134/134 132/132/132
f 136/136/136 135/135/135 132/132/132
f 139/139/139 138/138/138 137/137/137
f 140/140/140 137/137/137 138/138/138
f 143/143/143 142/142/142 141/141/141
f 144/144/144 141/141/141 142/142/142
f 147/147/147 146/146/146 145/145/145
f 148/148/148 145/145/145 146/146/146
f 146/146/146 149/149/149 148/148/148
f 150/150/150 148/148/148 149/149/149
f 153/153/153 152/152/152 151/151/151
f 154/154/154 151/151/151 152/152/152
f 152/152/152 155/155/155 154/154/154
f 156/156/156 154/154/154 155/155/155
