g mag_fal_x_products_x_fal_762x51_50_LOD1
v 0.05752342 0.03939017 -0.0123589
v 0.06225891 0.03939018 -0.03616577
v 0.0622589 -0.03906243 -0.03616578
v 0.05752342 -0.03906243 -0.01235891
v 0.04403792 0.03939016 0.007823582
v 0.04403791 -0.03906243 0.007823572
v 0.02385543 0.03939017 0.02130909
v 0.02385543 -0.03906243 0.02130908
v 0.01248274 0.03939002 0.02352127
v 0.01248273 -0.03906242 0.02352126
v 0.05752343 -0.03906241 -0.05997261
v 0.05752344 0.03939018 -0.05997261
v 0.04403793 -0.03906241 -0.08015511
v 0.04403793 0.03939018 -0.0801551
v 0.02385544 -0.03906241 -0.09364063
v 0.02385544 0.03939019 -0.09364062
v 4.856541E-05 -0.03906239 -0.09837611
v 4.856861E-05 0.03939019 -0.0983761
v -0.04394078 0.03939018 0.007823577
v -0.0237583 0.03939017 0.02130909
v -0.0237583 -0.03906242 0.02130908
v -0.04394079 -0.03906241 0.007823567
v -0.05742629 0.03939019 -0.0123589
v -0.05742629 -0.0390624 -0.01235891
v -0.06216177 0.03939019 -0.03616576
v -0.06216178 -0.03906239 -0.03616577
v -0.0574263 0.0393902 -0.05997263
v -0.0574263 -0.03906239 -0.05997263
v -0.0439408 0.0393902 -0.08015511
v -0.0439408 -0.03906239 -0.08015512
v -0.02375831 0.03939019 -0.09364062
v -0.02375831 -0.03906239 -0.09364063
v 4.856861E-05 0.03939019 -0.0983761
v 4.856541E-05 -0.03906239 -0.09837611
v -0.0123856 -0.0390624 0.02352126
v -0.0123856 0.03939002 0.02352127
v -0.0574263 0.0393902 -0.05997263
v 0.05752344 0.03939018 -0.05997261
v 0.06225891 0.03939018 -0.03616577
v -0.06216177 0.03939019 -0.03616576
v -0.05742629 0.03939019 -0.0123589
v 0.05752342 0.03939017 -0.0123589
v -0.04394078 0.03939018 0.007823577
v 0.04403792 0.03939016 0.007823582
v -0.0237583 0.03939017 0.02130909
v 0.02385543 0.03939017 0.02130909
v -0.0123856 0.03939002 0.02352127
v 0.01248274 0.03939002 0.02352127
v 0.04403793 0.03939018 -0.0801551
v -0.0439408 0.0393902 -0.08015511
v 0.02385544 0.03939019 -0.09364062
v -0.02375831 0.03939019 -0.09364062
v 4.856861E-05 0.03939019 -0.0983761
v -0.0123856 0.03939002 0.02352127
v 0.01248274 0.03939002 0.02352127
v 0.01248275 0.03938985 0.07267584
v -0.01238559 0.03938985 0.07267585
v 0.01248274 0.03939002 0.02352127
v 0.01248273 -0.03906242 0.02352126
v 0.01248274 -0.0390624 0.07267582
v 0.01248275 0.03938985 0.07267584
v 0.01248275 0.03938985 0.07267584
v 0.01248274 -0.0390624 0.07267582
v -0.0123856 -0.0390624 0.07267582
v -0.01238559 0.03938985 0.07267585
v -0.01238559 0.03938985 0.07267585
v -0.0123856 -0.0390624 0.07267582
v -0.0123856 -0.0390624 0.02352126
v -0.0123856 0.03939002 0.02352127
v 0.01248274 -0.0390624 0.07267582
v 0.01248273 -0.03906242 0.02352126
v -0.0123856 -0.0390624 0.02352126
v -0.0123856 -0.0390624 0.07267582
v -0.05742629 -0.0390624 -0.01235891
v 0.05752342 -0.03906243 -0.01235891
v 0.0622589 -0.03906243 -0.03616578
v -0.06216178 -0.03906239 -0.03616577
v -0.0574263 -0.03906239 -0.05997263
v 0.05752343 -0.03906241 -0.05997261
v 0.04403791 -0.03906243 0.007823572
v -0.04394079 -0.03906241 0.007823567
v 0.02385543 -0.03906243 0.02130908
v -0.0237583 -0.03906242 0.02130908
v 0.01248273 -0.03906242 0.02352126
v -0.0123856 -0.0390624 0.02352126
v -0.0439408 -0.03906239 -0.08015512
v 0.04403793 -0.03906241 -0.08015511
v -0.02375831 -0.03906239 -0.09364063
v 0.02385544 -0.03906241 -0.09364063
v 4.856541E-05 -0.03906239 -0.09837611
v 0.04891677 -0.03860448 -0.03078471
v 0.04891674 -0.0556756 -0.03078471
v 0.03645999 -0.0556756 -0.003075685
v 0.03646 -0.03860448 -0.003075673
v 0.01009531 -0.0556756 0.0120195
v 0.01009532 -0.03860448 0.01201952
v -0.02010689 -0.05567559 0.008734984
v -0.02010689 -0.03860447 0.008734984
v -0.0426104 -0.05567559 -0.01167466
v -0.04261041 -0.03860447 -0.01167465
v -0.04881964 -0.05567558 -0.04141363
v -0.04881964 -0.03860446 -0.04141363
v -0.03636287 -0.05567558 -0.06912266
v -0.03636287 -0.03860447 -0.06912266
v -0.009998198 -0.05567558 -0.08421783
v -0.00999819 -0.03860447 -0.08421783
v 0.04270754 -0.03860448 -0.06052367
v 0.02020402 -0.03860447 -0.08093332
v 0.04270752 -0.05567559 -0.06052367
v 0.02020402 -0.05567559 -0.08093331
v -0.00999819 -0.03860447 -0.08421783
v -0.009998198 -0.05567558 -0.08421783
v -0.04881964 -0.05567558 -0.04141363
v 0.04891674 -0.0556756 -0.03078471
v 0.04270752 -0.05567559 -0.06052367
v -0.03636287 -0.05567558 -0.06912266
v 0.03645999 -0.0556756 -0.003075685
v -0.0426104 -0.05567559 -0.01167466
v 0.01009531 -0.0556756 0.0120195
v -0.02010689 -0.05567559 0.008734984
v -0.009998198 -0.05567558 -0.08421783
v 0.02020402 -0.05567559 -0.08093331
vt 0.405991 0.7365935
vt 0.3264032 0.7365935
vt 0.326403 0.9976122
vt 0.405991 0.9976122
vt 0.4855783 0.7365935
vt 0.4855784 0.9976122
vt 0.5651653 0.7365935
vt 0.5651653 0.9976122
vt 0.6031535 0.7365939
vt 0.6031535 0.9976122
vt 0.2468149 0.9976122
vt 0.2468149 0.7365935
vt 0.1672262 0.9976122
vt 0.1672262 0.7365934
vt 0.08763736 0.9976122
vt 0.08763736 0.7365934
vt 0.008048492 0.9976122
vt 0.008048423 0.7365934
vt 0.4883271 0.7312403
vt 0.5679143 0.7312403
vt 0.5679143 0.4702216
vt 0.4883271 0.4702216
vt 0.40874 0.7312403
vt 0.40874 0.4702216
vt 0.329152 0.7312403
vt 0.329152 0.4702218
vt 0.2495636 0.7312405
vt 0.2495636 0.4702218
vt 0.1699748 0.7312405
vt 0.1699748 0.4702218
vt 0.09038597 0.7312403
vt 0.09038597 0.4702218
vt 0.01079703 0.7312403
vt 0.0107971 0.4702218
vt 0.6059023 0.4702216
vt 0.6059023 0.7312399
vt 0.3985603 0.1919872
vt 0.02279793 0.1919872
vt 0.007318022 0.2709545
vt 0.4140401 0.2709547
vt 0.3985603 0.3499219
vt 0.02279801 0.3499219
vt 0.3544771 0.4168671
vt 0.06688111 0.4168671
vt 0.2885021 0.4615985
vt 0.1328562 0.4615985
vt 0.2521467 0.4689363
vt 0.1692115 0.4689363
vt 0.06688111 0.125042
vt 0.3544772 0.125042
vt 0.1328562 0.0803106
vt 0.2885021 0.0803106
vt 0.2106791 0.06460301
vt 0.8227082 0.3307624
vt 0.8227082 0.4149171
vt 0.9903572 0.4149171
vt 0.9903572 0.3307624
vt 0.9945778 0.3222271
vt 0.9945778 0.06121008
vt 0.8334072 0.06121022
vt 0.8334072 0.3222266
vt 0.6109737 0.9899048
vt 0.8682073 0.9899048
vt 0.8682073 0.9071661
vt 0.6109737 0.9071661
vt 0.6139181 0.9027839
vt 0.8682817 0.9027836
vt 0.8682817 0.7373978
vt 0.6139175 0.7373978
vt 0.9562269 0.9032041
vt 0.9562269 0.7396631
vt 0.8746873 0.7396631
vt 0.8746874 0.9032041
vt 0.435073 0.3497788
vt 0.8119764 0.3497786
vt 0.8275033 0.2705714
vt 0.4195462 0.2705715
vt 0.435073 0.1913644
vt 0.8119764 0.1913644
vt 0.7677596 0.4169272
vt 0.4792901 0.4169272
vt 0.701584 0.4617944
vt 0.5454653 0.4617944
vt 0.6642945 0.4691544
vt 0.5827549 0.4691544
vt 0.47929 0.1242157
vt 0.7677596 0.1242157
vt 0.5454653 0.07934856
vt 0.7015842 0.07934848
vt 0.6235247 0.06359319
vt 0.3001249 0.003169053
vt 0.3001249 0.05996557
vt 0.399743 0.05996473
vt 0.3997341 0.003168209
vt 0.499362 0.05993437
vt 0.4993426 0.003137777
vt 0.5989752 0.05989529
vt 0.5989563 0.003098912
vt 0.6985837 0.05986732
vt 0.6985754 0.003070729
vt 0.7981933 0.05986661
vt 0.7981933 0.003070026
vt 0.8978074 0.05986634
vt 0.8978049 0.003069605
vt 0.9974204 0.05985945
vt 0.997416 0.003062858
vt 0.2005106 0.003169685
vt 0.1008958 0.003181984
vt 0.2005139 0.05996613
vt 0.1009043 0.0599785
vt 0.001283049 0.003198852
vt 0.001292746 0.05999551
vt 0.673574 0.5790796
vt 0.9959268 0.5790797
vt 0.9651448 0.4829497
vt 0.7043559 0.4829495
vt 0.9651449 0.6752099
vt 0.7043558 0.6752099
vt 0.8845567 0.7346219
vt 0.7849441 0.7346218
vt 0.7849442 0.4235378
vt 0.8845569 0.4235377
vn 0.9238795 0 0.3826834
vn 1 0 1.547556E-07
vn 1 0 2.031167E-07
vn 0.9238795 0 0.3826835
vn 0.7071068 -1.093028E-07 0.7071068
vn 0.7071068 -1.093028E-07 0.7071068
vn 0.3807284 -1.02314E-07 0.9246869
vn 0.3807277 -1.02314E-07 0.9246872
vn 0.190938 0 0.9816021
vn 0.190938 0 0.9816021
vn 0.9238796 0 -0.3826832
vn 0.9238796 0 -0.3826832
vn 0.707107 0 -0.7071065
vn 0.707107 0 -0.7071065
vn 0.3826835 1.101006E-07 -0.9238795
vn 0.3826835 1.101006E-07 -0.9238795
vn 0 1.212702E-07 -1
vn 0 1.212702E-07 -1
vn -0.7071068 0 0.7071068
vn -0.3807287 0 0.9246868
vn -0.380728 0 0.924687
vn -0.7071068 0 0.7071068
vn -0.9238794 0 0.3826836
vn -0.9238794 0 0.3826837
vn -1 0 1.934444E-07
vn -1 0 2.224611E-07
vn -0.9238796 0 -0.3826832
vn -0.9238796 0 -0.3826832
vn -0.7071068 0 -0.7071068
vn -0.7071068 0 -0.7071068
vn -0.3826833 1.148876E-07 -0.9238796
vn -0.3826832 1.148875E-07 -0.9238796
vn 0 1.212702E-07 -1
vn 0 1.212702E-07 -1
vn -0.1909383 0 0.981602
vn -0.1909383 0 0.981602
vn 1.439727E-07 1 2.1314E-07
vn 1.439727E-07 1 2.1314E-07
vn 1.195228E-07 1 2.00294E-07
vn 1.195228E-07 1 2.002941E-07
vn 1.439727E-07 1 2.1314E-07
vn 1.439727E-07 1 2.1314E-07
vn 1.778435E-07 1 1.856351E-07
vn 1.778435E-07 1 1.856351E-07
vn 1.308217E-07 1 4.828131E-06
vn 1.308218E-07 1 4.828116E-06
vn 0 1 4.622047E-05
vn 0 1 4.622047E-05
vn 1.778435E-07 1 1.85635E-07
vn 1.778435E-07 1 1.85635E-07
vn 1.3062E-07 1 0
vn 1.3062E-07 1 0
vn 0 1 0
vn 0 1 4.622047E-05
vn 0 1 4.622047E-05
vn 0 1 3.492277E-06
vn 0 1 3.492277E-06
vn 1 0 -1.697636E-07
vn 1 0 -1.697636E-07
vn 1 0 -1.697636E-07
vn 1 0 -1.697636E-07
vn 1.917447E-07 -1.823417E-07 1
vn 1.917447E-07 -1.823417E-07 1
vn 1.917447E-07 -1.823417E-07 1
vn 1.917447E-07 -1.823417E-07 1
vn -1 0 1.818895E-07
vn -1 0 1.818895E-07
vn -1 0 1.818896E-07
vn -1 0 1.818896E-07
vn -3.834893E-07 -1 1.940154E-07
vn -3.834893E-07 -1 1.940154E-07
vn -3.834893E-07 -1 1.940154E-07
vn -3.834894E-07 -1 1.940154E-07
vn -2.589662E-07 -1 -3.004409E-07
vn -2.589662E-07 -1 -3.004409E-07
vn -2.589662E-07 -1 -3.004409E-07
vn -2.589662E-07 -1 -3.004409E-07
vn -2.589661E-07 -1 -3.004412E-07
vn -2.589661E-07 -1 -3.004412E-07
vn -2.114802E-07 -1 -3.543945E-07
vn -2.114802E-07 -1 -3.543945E-07
vn -1.758347E-07 -1 0
vn -1.758347E-07 -1 0
vn -3.947212E-07 -1 4.311019E-06
vn -3.947212E-07 -1 4.311019E-06
vn -2.584758E-07 -1 -1.181314E-07
vn -2.584758E-07 -1 -1.181314E-07
vn -3.165023E-07 -1 0
vn -3.165023E-07 -1 0
vn -4.005877E-07 -1 -2.013891E-06
vn 0.9941386 -1.450111E-06 0.1081136
vn 0.9941386 -1.450111E-06 0.1081136
vn 0.7407275 -1.27791E-06 0.6718056
vn 0.7407275 -1.27791E-06 0.6718056
vn 0.2043837 -7.341185E-07 0.9788908
vn 0.2043837 -7.341185E-07 0.9788908
vn -0.4100278 -2.960643E-07 0.912073
vn -0.4100278 -2.960643E-07 0.912073
vn -0.8678225 -2.537694E-07 0.4968744
vn -0.8678225 -2.537694E-07 0.4968744
vn -0.9941386 -1.268847E-07 -0.1081136
vn -0.9941386 -1.268847E-07 -0.1081136
vn -0.7407274 1.027163E-07 -0.6718057
vn -0.7407274 1.027163E-07 -0.6718058
vn -0.2043838 0 -0.9788908
vn -0.2043837 0 -0.9788908
vn 0.8678226 -1.087584E-06 -0.4968741
vn 0.4100278 -5.513444E-07 -0.912073
vn 0.8678225 -1.087584E-06 -0.4968743
vn 0.4100278 -5.513443E-07 -0.912073
vn -0.2043837 0 -0.9788908
vn -0.2043838 0 -0.9788908
vn -1.420826E-07 -1 -1.814582E-07
vn -1.420826E-07 -1 -1.814582E-07
vn -1.496893E-07 -1 -1.407838E-07
vn -1.496893E-07 -1 -1.407838E-07
vn -1.496893E-07 -1 -1.407837E-07
vn -1.496893E-07 -1 -1.407837E-07
vn -1.725094E-07 -1 0
vn -1.725094E-07 -1 0
vn -1.725094E-07 -1 0
vn -1.725094E-07 -1 0
g mag_fal_x_products_x_fal_762x51_50_LOD1_0
f 3/3/3 2/2/2 1/1/1
f 4/4/4 3/3/3 1/1/1
f 4/4/4 1/1/1 5/5/5
f 6/6/6 4/4/4 5/5/5
f 6/6/6 5/5/5 7/7/7
f 8/8/8 6/6/6 7/7/7
f 8/8/8 7/7/7 9/9/9
f 10/10/10 8/8/8 9/9/9
f 3/3/3 11/11/11 2/2/2
f 11/11/11 12/12/12 2/2/2
f 11/11/11 13/13/13 12/12/12
f 13/13/13 14/14/14 12/12/12
f 13/13/13 15/15/15 14/14/14
f 15/15/15 16/16/16 14/14/14
f 15/15/15 17/17/17 16/16/16
f 17/17/17 18/18/18 16/16/16
f 21/21/21 20/20/20 19/19/19
f 22/22/22 21/21/21 19/19/19
f 22/22/22 19/19/19 23/23/23
f 24/24/24 22/22/22 23/23/23
f 24/24/24 23/23/23 25/25/25
f 26/26/26 24/24/24 25/25/25
f 26/26/26 25/25/25 27/27/27
f 28/28/28 26/26/26 27/27/27
f 28/28/28 27/27/27 29/29/29
f 30/30/30 28/28/28 29/29/29
f 30/30/30 29/29/29 31/31/31
f 32/32/32 30/30/30 31/31/31
f 32/32/32 31/31/31 33/33/33
f 34/34/34 32/32/32 33/33/33
f 21/21/21 35/35/35 20/20/20
f 35/35/35 36/36/36 20/20/20
f 39/39/39 38/38/38 37/37/37
f 40/40/40 39/39/39 37/37/37
f 39/39/39 40/40/40 41/41/41
f 42/42/42 39/39/39 41/41/41
f 42/42/42 41/41/41 43/43/43
f 44/44/44 42/42/42 43/43/43
f 44/44/44 43/43/43 45/45/45
f 46/46/46 44/44/44 45/45/45
f 46/46/46 45/45/45 47/47/47
f 48/48/48 46/46/46 47/47/47
f 37/37/37 38/38/38 49/49/49
f 50/50/50 37/37/37 49/49/49
f 50/50/50 49/49/49 51/51/51
f 52/52/52 50/50/50 51/51/51
f 53/53/53 52/52/52 51/51/51
f 56/56/56 55/55/55 54/54/54
f 57/57/57 56/56/56 54/54/54
f 60/60/60 59/59/59 58/58/58
f 61/61/61 60/60/60 58/58/58
f 64/64/64 63/63/63 62/62/62
f 65/65/65 64/64/64 62/62/62
f 68/68/68 67/67/67 66/66/66
f 69/69/69 68/68/68 66/66/66
f 72/72/72 71/71/71 70/70/70
f 73/73/73 72/72/72 70/70/70
f 76/76/76 75/75/75 74/74/74
f 77/77/77 76/76/76 74/74/74
f 76/76/76 77/77/77 78/78/78
f 79/79/79 76/76/76 78/78/78
f 74/74/74 75/75/75 80/80/80
f 81/81/81 74/74/74 80/80/80
f 81/81/81 80/80/80 82/82/82
f 83/83/83 81/81/81 82/82/82
f 83/83/83 82/82/82 84/84/84
f 85/85/85 83/83/83 84/84/84
f 79/79/79 78/78/78 86/86/86
f 87/87/87 79/79/79 86/86/86
f 87/87/87 86/86/86 88/88/88
f 89/89/89 87/87/87 88/88/88
f 90/90/90 89/89/89 88/88/88
f 93/93/93 92/92/92 91/91/91
f 94/94/94 93/93/93 91/91/91
f 95/95/95 93/93/93 94/94/94
f 96/96/96 95/95/95 94/94/94
f 97/97/97 95/95/95 96/96/96
f 98/98/98 97/97/97 96/96/96
f 99/99/99 97/97/97 98/98/98
f 100/100/100 99/99/99 98/98/98
f 101/101/101 99/99/99 100/100/100
f 102/102/102 101/101/101 100/100/100
f 103/103/103 101/101/101 102/102/102
f 104/104/104 103/103/103 102/102/102
f 105/105/105 103/103/103 104/104/104
f 106/106/106 105/105/105 104/104/104
f 91/91/91 92/92/92 107/107/107
f 107/107/107 109/109/109 108/108/108
f 109/109/109 110/110/110 108/108/108
f 108/108/108 110/110/110 111/111/111
f 110/110/110 112/112/112 111/111/111
f 92/92/92 109/109/109 107/107/107
f 115/115/115 114/114/114 113/113/113
f 116/116/116 115/115/115 113/113/113
f 113/113/113 114/114/114 117/117/117
f 118/118/118 113/113/113 117/117/117
f 118/118/118 117/117/117 119/119/119
f 120/120/120 118/118/118 119/119/119
f 115/115/115 116/116/116 121/121/121
f 122/122/122 115/115/115 121/121/121
