g mag_mr153_izhmeh_12g_5_LOD1
v 0.0152441 1.085239E-09 -0.02482739
v 0.01077921 0.01077921 0.0003501415
v 0.01077921 0.01077921 -0.02482739
v 0.0152441 1.085239E-09 0.0003501415
v -6.663409E-10 0.0152441 0.0003501415
v -6.663409E-10 0.0152441 -0.02482739
v 0.01077921 -0.01077921 -0.02482739
v 0.01077921 -0.01077921 0.0003501415
v 1.817841E-10 -0.0152441 -0.02482739
v 1.817841E-10 -0.0152441 0.0003501415
v -0.01077921 -0.01077921 -0.02482739
v -0.01077921 -0.01077921 0.0003501415
v -0.0152441 -2.474424E-10 -0.02482739
v -0.0152441 -2.474424E-10 0.0003501415
v -0.01077921 0.01077921 -0.02482739
v -0.01077921 0.01077921 0.0003501415
v -6.663409E-10 0.0152441 -0.02482739
v -6.663409E-10 0.0152441 0.0003501415
v -6.663409E-10 0.0152441 -0.02482739
v 0.0152441 1.085239E-09 -0.02482739
v 0.01077921 0.01077921 -0.02482739
v 1.817841E-10 -0.0152441 -0.02482739
v 0.01077921 -0.01077921 -0.02482739
v -0.01077921 -0.01077921 -0.02482739
v -0.0152441 -2.474424E-10 -0.02482739
v -0.01077921 0.01077921 -0.02482739
v -6.663409E-10 0.0152441 0.0003501415
v 0.01077921 -0.01077921 0.0003501415
v 1.817841E-10 -0.0152441 0.0003501415
v 0.01077921 0.01077921 0.0003501415
v 0.0152441 1.085239E-09 0.0003501415
v -0.01077921 0.01077921 0.0003501415
v -0.0152441 -2.474424E-10 0.0003501415
v -0.01077921 -0.01077921 0.0003501415
v 0.013374 0.0183863 -0.01094737
v 0.01151218 0.0154074 -0.006611861
v 0.01151218 0.0183863 -0.006611861
v 0.013374 0.0154074 -0.01094737
v 5.006435E-10 0.0154074 -0.005605313
v 5.006435E-10 0.0183863 -0.005605313
v -0.01151217 0.0154074 -0.006611861
v -0.01151217 0.0183863 -0.006611861
v -0.013374 0.0154074 -0.01094737
v -0.013374 0.0183863 -0.01094737
v -0.01151217 0.0154074 -0.01528289
v -0.01151217 0.0183863 -0.01528289
v 1.244723E-09 0.0154074 -0.01628943
v 1.244723E-09 0.0183863 -0.01628943
v 0.01151217 0.0154074 -0.01528289
v 0.01151217 0.0183863 -0.01528289
v 0.013374 0.0154074 -0.01094737
v 0.013374 0.0183863 -0.01094737
v 1.244723E-09 0.0183863 -0.01628943
v -0.013374 0.0183863 -0.01094737
v -0.01151217 0.0183863 -0.01528289
v 0.013374 0.0183863 -0.01094737
v 5.006435E-10 0.0183863 -0.005605313
v -0.01151217 0.0183863 -0.006611861
v 0.01151218 0.0183863 -0.006611861
v 0.01151217 0.0183863 -0.01528289
v 0.01151218 0.0154074 -0.006611861
v -0.01151217 0.0154074 -0.006611861
v 5.006435E-10 0.0154074 -0.005605313
v 0.01151217 0.0154074 -0.01528289
v -0.01151217 0.0154074 -0.01528289
v -0.013374 0.0154074 -0.01094737
v 1.244723E-09 0.0154074 -0.01628943
v 0.013374 0.0154074 -0.01094737
v 1.085239E-09 0.0121297 -0.1347931
v -0.008576992 0.008576998 -0.02456298
v -0.008576992 0.008576998 -0.1347931
v 1.085239E-09 0.0121297 -0.02456298
v -0.0121297 3.746343E-09 -0.02456298
v -0.0121297 3.746343E-09 -0.1347931
v -0.00857699 -0.008576989 -0.02456298
v -0.00857699 -0.008576989 -0.1347931
v 1.085239E-09 -0.0121297 -0.02456298
v 1.085239E-09 -0.0121297 -0.1347931
v -0.0121297 3.746343E-09 -0.1347931
v 1.085239E-09 0.0121297 -0.1347931
v -0.008576992 0.008576998 -0.1347931
v -0.00857699 -0.008576989 -0.1347931
v 1.085239E-09 -0.0121297 -0.1347931
v 0.008576993 -0.008576989 -0.1347931
v 0.0121297 3.746343E-09 -0.1347931
v 0.008576995 0.008576998 -0.1347931
v 1.085239E-09 0.0121297 -0.1347931
v 0.008576995 0.008576998 -0.02456298
v 1.085239E-09 0.0121297 -0.02456298
v 0.008576995 0.008576998 -0.1347931
v 0.0121297 3.746343E-09 -0.02456298
v 0.0121297 3.746343E-09 -0.1347931
v 0.008576993 -0.008576989 -0.02456298
v 0.008576993 -0.008576989 -0.1347931
v 1.085239E-09 -0.0121297 -0.02456298
v 1.085239E-09 -0.0121297 -0.1347931
vt 0.01001314 0.3156872
vt 0.2514929 0.2029293
vt 0.009686131 0.2036341
vt 0.2518199 0.3149846
vt 0.2511658 0.09087463
vt 0.009358723 0.09158053
vt 0.01033879 0.4277392
vt 0.2521459 0.427041
vt 0.01066132 0.5397896
vt 0.2524687 0.5390988
vt 0.01097955 0.6518391
vt 0.2527872 0.6511576
vt 0.01129347 0.7638895
vt 0.2531012 0.7632155
vt 0.01160412 0.8759412
vt 0.2534116 0.8752721
vt 0.01191329 0.9879939
vt 0.2537207 0.9873276
vt 0.3866795 0.3791876
vt 0.5053127 0.4978208
vt 0.4705659 0.4139345
vt 0.3866795 0.6164539
vt 0.4705659 0.5817071
vt 0.3027933 0.5817071
vt 0.2680464 0.4978208
vt 0.3027933 0.4139345
vt 0.4476982 0.6276209
vt 0.5670265 0.9157048
vt 0.4476982 0.9651322
vt 0.5670265 0.6770483
vt 0.6164539 0.7963766
vt 0.3283699 0.6770483
vt 0.2789426 0.7963766
vt 0.32837 0.9157048
vt 0.01741466 0.01617595
vt 0.0505495 0.07800367
vt 0.0505495 0.01617592
vt 0.01741466 0.0780037
vt 0.08626294 0.07800367
vt 0.08626294 0.01617592
vt 0.1219763 0.07800367
vt 0.1219763 0.01617592
vt 0.1551112 0.0780037
vt 0.1551112 0.01617595
vt 0.1882461 0.0780037
vt 0.1882461 0.01617595
vt 0.2239594 0.0780037
vt 0.2239594 0.01617595
vt 0.2596729 0.0780037
vt 0.2596729 0.01617595
vt 0.2928078 0.0780037
vt 0.2928078 0.01617595
vt 0.5179263 0.5005641
vt 0.5692321 0.6290097
vt 0.5275933 0.6111285
vt 0.5692321 0.3721185
vt 0.620538 0.5005641
vt 0.610871 0.6111286
vt 0.610871 0.3899997
vt 0.5275933 0.3899996
vt 0.6110168 0.3898816
vt 0.6110168 0.6110105
vt 0.6206838 0.500446
vt 0.527739 0.3898816
vt 0.527739 0.6110105
vt 0.5693778 0.6288917
vt 0.5180721 0.500446
vt 0.569378 0.3720003
vt 0.6653944 0.01300576
vt 0.7457696 0.9934555
vt 0.7479544 0.01318933
vt 0.6632113 0.9932716
vt 0.8270143 0.9936395
vt 0.8292051 0.01337345
vt 0.9095707 0.9938243
vt 0.9117668 0.01355795
vt 0.99344 0.9940094
vt 0.9956391 0.01374361
vt 0.2571503 0.1970858
vt 0.4476982 0.006537721
vt 0.3129605 0.06234794
vt 0.3129605 0.3318236
vt 0.4476982 0.3876337
vt 0.582436 0.3318236
vt 0.6382463 0.1970858
vt 0.5824361 0.06234794
vt 0.6653944 0.01300576
vt 0.7457696 0.9934555
vt 0.6632113 0.9932716
vt 0.7479544 0.01318933
vt 0.8270143 0.9936395
vt 0.8292051 0.01337345
vt 0.9095707 0.9938243
vt 0.9117668 0.01355795
vt 0.99344 0.9940094
vt 0.9956391 0.01374361
vn 1 0 0
vn 0.7071068 0.7071068 0
vn 0.7071068 0.7071068 0
vn 1 0 0
vn 0 1 0
vn 0 1 0
vn 0.7071068 -0.7071068 0
vn 0.7071068 -0.7071068 0
vn 0 -1 0
vn 0 -1 0
vn -0.7071066 -0.7071069 0
vn -0.7071066 -0.7071068 0
vn -1 -1.334837E-07 0
vn -1 -1.232157E-07 0
vn -0.7071068 0.7071068 0
vn -0.7071068 0.7071068 0
vn 0 1 0
vn 0 1 0
vn 0 0 -1
vn 0 0 -1
vn 0 0 -1
vn 0 0 -1
vn 0 0 -1
vn 0 0 -1
vn 0 0 -1
vn 0 0 -1
vn 0 0 1
vn 0 0 1
vn 0 0 1
vn 0 0 1
vn 0 0 1
vn 0 0 1
vn 0 0 1
vn 0 0 1
vn 1 0 -1.03241E-07
vn 0.5860644 0 0.8102645
vn 0.5860644 0 0.8102645
vn 1 0 -1.342133E-07
vn 0 0 1
vn 0 0 1
vn -0.5860645 0 0.8102645
vn -0.5860644 0 0.8102645
vn -1 0 -4.336122E-07
vn -1 0 -1.755097E-07
vn -0.5860642 0 -0.8102646
vn -0.5860642 0 -0.8102646
vn 0 0 -1
vn 0 0 -1
vn 0.5860642 0 -0.8102646
vn 0.5860643 0 -0.8102645
vn 1 0 -1.342133E-07
vn 1 0 -1.03241E-07
vn 0 1 0
vn 0 1 0
vn 0 1 0
vn 0 1 0
vn 0 1 0
vn 0 1 0
vn 0 1 0
vn 0 1 0
vn 0 -1 0
vn 0 -1 0
vn 0 -1 0
vn 0 -1 0
vn 0 -1 0
vn 0 -1 0
vn 0 -1 0
vn 0 -1 0
vn 0 1 0
vn -0.7071069 0.7071066 0
vn -0.7071066 0.7071068 0
vn 0 1 0
vn -1 -1.848236E-07 0
vn -1 0 0
vn -0.7071066 -0.7071069 0
vn -0.7071068 -0.7071068 0
vn 0 -1 0
vn 0 -1 0
vn 0 0 -1
vn 0 0 -1
vn 0 0 -1
vn 0 0 -1
vn 0 0 -1
vn 0 0 -1
vn 0 0 -1
vn 0 0 -1
vn 0 1 0
vn 0.7071069 0.7071066 0
vn 0 1 0
vn 0.7071068 0.7071068 0
vn 1 -1.848236E-07 0
vn 1 0 0
vn 0.7071066 -0.7071069 0
vn 0.7071066 -0.7071068 0
vn 0 -1 0
vn 0 -1 0
g mag_mr153_izhmeh_12g_5_LOD1_0
f 3/3/3 2/2/2 1/1/1
f 4/4/4 1/1/1 2/2/2
f 2/2/2 3/3/3 5/5/5
f 6/6/6 5/5/5 3/3/3
f 1/1/1 4/4/4 7/7/7
f 8/8/8 7/7/7 4/4/4
f 7/7/7 8/8/8 9/9/9
f 10/10/10 9/9/9 8/8/8
f 9/9/9 10/10/10 11/11/11
f 12/12/12 11/11/11 10/10/10
f 11/11/11 12/12/12 13/13/13
f 14/14/14 13/13/13 12/12/12
f 13/13/13 14/14/14 15/15/15
f 16/16/16 15/15/15 14/14/14
f 15/15/15 16/16/16 17/17/17
f 18/18/18 17/17/17 16/16/16
f 21/21/21 20/20/20 19/19/19
f 19/19/19 20/20/20 22/22/22
f 22/22/22 20/20/20 23/23/23
f 24/24/24 19/19/19 22/22/22
f 25/25/25 19/19/19 24/24/24
f 26/26/26 19/19/19 25/25/25
f 29/29/29 28/28/28 27/27/27
f 27/27/27 28/28/28 30/30/30
f 30/30/30 28/28/28 31/31/31
f 32/32/32 29/29/29 27/27/27
f 33/33/33 29/29/29 32/32/32
f 34/34/34 29/29/29 33/33/33
f 37/37/37 36/36/36 35/35/35
f 38/38/38 35/35/35 36/36/36
f 36/36/36 37/37/37 39/39/39
f 40/40/40 39/39/39 37/37/37
f 39/39/39 40/40/40 41/41/41
f 42/42/42 41/41/41 40/40/40
f 41/41/41 42/42/42 43/43/43
f 44/44/44 43/43/43 42/42/42
f 43/43/43 44/44/44 45/45/45
f 46/46/46 45/45/45 44/44/44
f 45/45/45 46/46/46 47/47/47
f 48/48/48 47/47/47 46/46/46
f 47/47/47 48/48/48 49/49/49
f 50/50/50 49/49/49 48/48/48
f 49/49/49 50/50/50 51/51/51
f 52/52/52 51/51/51 50/50/50
f 55/55/55 54/54/54 53/53/53
f 54/54/54 56/56/56 53/53/53
f 57/57/57 56/56/56 54/54/54
f 58/58/58 57/57/57 54/54/54
f 59/59/59 56/56/56 57/57/57
f 53/53/53 56/56/56 60/60/60
f 63/63/63 62/62/62 61/61/61
f 62/62/62 64/64/64 61/61/61
f 65/65/65 64/64/64 62/62/62
f 66/66/66 65/65/65 62/62/62
f 67/67/67 64/64/64 65/65/65
f 61/61/61 64/64/64 68/68/68
f 71/71/71 70/70/70 69/69/69
f 72/72/72 69/69/69 70/70/70
f 70/70/70 71/71/71 73/73/73
f 74/74/74 73/73/73 71/71/71
f 73/73/73 74/74/74 75/75/75
f 76/76/76 75/75/75 74/74/74
f 75/75/75 76/76/76 77/77/77
f 78/78/78 77/77/77 76/76/76
f 81/81/81 80/80/80 79/79/79
f 79/79/79 80/80/80 82/82/82
f 82/82/82 80/80/80 83/83/83
f 80/80/80 84/84/84 83/83/83
f 85/85/85 84/84/84 80/80/80
f 86/86/86 85/85/85 80/80/80
f 89/89/89 88/88/88 87/87/87
f 90/90/90 87/87/87 88/88/88
f 88/88/88 91/91/91 90/90/90
f 92/92/92 90/90/90 91/91/91
f 91/91/91 93/93/93 92/92/92
f 94/94/94 92/92/92 93/93/93
f 93/93/93 95/95/95 94/94/94
f 96/96/96 94/94/94 95/95/95
