g mag_mp5_x_products_x_5_9x19_50_LOD1
v 0.03531347 -0.02785107 -0.07624832
v 0.0353135 -0.04417144 -0.07364337
v 0.02225005 -0.04123356 -0.05523704
v 0.02225002 -0.0249132 -0.057842
v 0.000725584 -0.04006707 -0.04792853
v 0.0007255554 -0.0237467 -0.05053348
v -0.0210383 -0.04111751 -0.05450943
v -0.02103833 -0.02479715 -0.05711439
v 0.03492611 -0.03143816 -0.09872186
v 0.03492614 -0.04775852 -0.09611692
v 0.02123589 -0.03430431 -0.1166785
v 0.02123592 -0.05062468 -0.1140736
v -0.0005279827 -0.03535476 -0.1232594
v -0.0005279541 -0.05167512 -0.1206545
v -0.02205246 -0.03418826 -0.1159509
v -0.02205243 -0.05050862 -0.113346
v -0.03511589 -0.03125038 -0.09754458
v -0.03511585 -0.04757075 -0.09493963
v -0.03472855 -0.0276633 -0.07507103
v -0.03472851 -0.04398366 -0.07246608
v -0.02103833 -0.02479715 -0.05711439
v -0.0210383 -0.04111751 -0.05450943
v 0.02225005 -0.04123356 -0.05523704
v 0.0353135 -0.04417144 -0.07364337
v 0.03492614 -0.04775852 -0.09611692
v 0.02123592 -0.05062468 -0.1140736
v 0.000725584 -0.04006707 -0.04792853
v -0.0005279541 -0.05167512 -0.1206545
v -0.0210383 -0.04111751 -0.05450943
v -0.02205243 -0.05050862 -0.113346
v -0.03472851 -0.04398366 -0.07246608
v -0.03511585 -0.04757075 -0.09493963
v 0.02225002 -0.0249132 -0.057842
v 0.02781102 -0.0240389 -0.05236444
v 0.044154 -0.02742438 -0.07357514
v 0.03531347 -0.02785107 -0.07624832
v 0.0436694 -0.03191199 -0.1016906
v 0.03492611 -0.03143816 -0.09872186
v 0.0265423 -0.03549768 -0.1241552
v 0.02123589 -0.03430431 -0.1166785
v -0.000685339 -0.03681184 -0.1323882
v -0.0005279827 -0.03535476 -0.1232594
v -0.02761345 -0.0353525 -0.1232449
v -0.02205246 -0.03418826 -0.1159509
v -0.04395645 -0.03167707 -0.1002178
v -0.03511589 -0.03125038 -0.09754458
v -0.04347183 -0.02718946 -0.07210229
v -0.03472855 -0.0276633 -0.07507103
v -0.02634474 -0.02386427 -0.05126969
v -0.02103833 -0.02479715 -0.05711439
v -0.0117622 -0.02240304 -0.04211508
v 0.0007255554 -0.0237467 -0.05053348
v 0.01237336 -0.02257378 -0.0431851
v 0.01246723 -0.01362076 0.0129067
v -0.01166834 -0.01362046 0.01290892
v 0.02781102 -0.0240389 -0.05236444
v 0.02781097 0.007588917 -0.05741266
v 0.04415395 0.00420343 -0.07862338
v 0.044154 -0.02742438 -0.07357514
v 0.04366936 -0.0002841859 -0.1067388
v 0.0436694 -0.03191199 -0.1016906
v 0.02654225 -0.003869867 -0.1292035
v 0.0265423 -0.03549768 -0.1241552
v -0.0006853962 -0.005184029 -0.1374365
v -0.000685339 -0.03681184 -0.1323882
v 0.0123733 0.009054033 -0.04823332
v 0.01237336 -0.02257378 -0.0431851
v -0.0117622 -0.02240304 -0.04211508
v -0.02634474 -0.02386427 -0.05126969
v -0.02634479 0.007763549 -0.05631791
v -0.01176226 0.009224774 -0.04716331
v -0.04347183 -0.02718946 -0.07210229
v -0.04347189 0.004438351 -0.07715052
v -0.04395645 -0.03167707 -0.1002178
v -0.04395651 -4.926222E-05 -0.105266
v -0.02761345 -0.0353525 -0.1232449
v -0.02761351 -0.00372469 -0.1282932
v -0.000685339 -0.03681184 -0.1323882
v -0.0006853962 -0.005184029 -0.1374365
v 0.04415395 0.00420343 -0.07862338
v 0.02781097 0.007588917 -0.05741266
v -0.0006853962 -0.005184029 -0.1374365
v 0.0123733 0.009054033 -0.04823332
v -0.01176226 0.009224774 -0.04716331
v -0.0116684 0.01800735 0.007860701
v 0.01246717 0.01800705 0.007858488
v -0.02634479 0.007763549 -0.05631791
v -0.04347189 0.004438351 -0.07715052
v -0.04395651 -4.926222E-05 -0.105266
v 0.04366936 -0.0002841859 -0.1067388
v 0.02654225 -0.003869867 -0.1292035
v -0.02761351 -0.00372469 -0.1282932
v 0.01246723 -0.01362076 0.0129067
v -0.01166834 -0.01362046 0.01290892
v -0.0116684 0.01800735 0.007860701
v 0.01246717 0.01800705 0.007858488
v 0.01237336 -0.02257378 -0.0431851
v 0.01246723 -0.01362076 0.0129067
v 0.01246717 0.01800705 0.007858488
v 0.0123733 0.009054033 -0.04823332
v -0.01176226 0.009224774 -0.04716331
v -0.0116684 0.01800735 0.007860701
v -0.01166834 -0.01362046 0.01290892
v -0.0117622 -0.02240304 -0.04211508
vt 0.9954358 0.6988825
vt 0.9203721 0.6988825
vt 0.9203721 0.7981799
vt 0.9954358 0.7981799
vt 0.9203721 0.8974771
vt 0.9954358 0.8974771
vt 0.9203721 0.9967746
vt 0.9954358 0.9967746
vt 0.9954358 0.5995855
vt 0.9203721 0.5995855
vt 0.9954358 0.5002881
vt 0.9203721 0.5002881
vt 0.9954358 0.4009907
vt 0.9203721 0.4009908
vt 0.9954358 0.3016935
vt 0.9203721 0.3016934
vt 0.9954358 0.2023962
vt 0.9203721 0.2023962
vt 0.9954358 0.1030989
vt 0.9203721 0.1030989
vt 0.9954358 0.00380157
vt 0.9203721 0.00380157
vt 0.6333939 0.711403
vt 0.6882302 0.6331607
vt 0.6866044 0.5376292
vt 0.6291366 0.4612984
vt 0.5430406 0.7424704
vt 0.5377783 0.4333238
vt 0.4516822 0.7144961
vt 0.4474249 0.4643913
vt 0.3942147 0.6381652
vt 0.3925884 0.5426336
vt 0.4353244 0.4478163
vt 0.4087046 0.4212641
vt 0.3304728 0.5240822
vt 0.3727916 0.5370404
vt 0.3327929 0.6603711
vt 0.3746455 0.6459803
vt 0.4147778 0.7692677
vt 0.4401793 0.7330246
vt 0.5451133 0.809177
vt 0.5443604 0.7649254
vt 0.6740147 0.7648552
vt 0.6473951 0.7294975
vt 0.7522469 0.6532315
vt 0.7099282 0.6402735
vt 0.7499269 0.5169426
vt 0.708074 0.5313335
vt 0.6679417 0.4159574
vt 0.6425404 0.4442893
vt 0.5981368 0.3715805
vt 0.5383594 0.4123885
vt 0.4826028 0.3767674
vt 0.4821534 0.1048641
vt 0.5976874 0.1048533
vt 0.7798943 0.4638463
vt 0.9095655 0.4638463
vt 0.9095655 0.3545732
vt 0.7798943 0.3545732
vt 0.9095655 0.2392852
vt 0.7798943 0.2392852
vt 0.9095655 0.1239971
vt 0.7798943 0.1239971
vt 0.9095655 0.008709123
vt 0.7798943 0.008709183
vt 0.9095655 0.5368044
vt 0.7798943 0.536804
vt 0.0123999 0.4626992
vt 0.0123999 0.5326596
vt 0.1420711 0.5326596
vt 0.1420711 0.4626992
vt 0.0123999 0.6426758
vt 0.1420711 0.6426758
vt 0.0123999 0.7579638
vt 0.1420711 0.7579638
vt 0.0123999 0.8732518
vt 0.1420711 0.8732518
vt 0.0123999 0.9885398
vt 0.1420711 0.9885398
vt 0.01685674 0.3075831
vt 0.0980438 0.4142852
vt 0.2396053 0.01171882
vt 0.1747335 0.4604627
vt 0.2946318 0.4658455
vt 0.2941653 0.7426484
vt 0.1742671 0.7426372
vt 0.3670736 0.4197925
vt 0.4521557 0.3149924
vt 0.4545633 0.1735552
vt 0.01926415 0.166146
vt 0.1043465 0.05313583
vt 0.3733762 0.05771504
vt 0.7462511 0.204825
vt 0.6263534 0.2044287
vt 0.6258271 0.363534
vt 0.7457249 0.3639303
vt 0.4437884 0.8224363
vt 0.161615 0.8215018
vt 0.1610887 0.9806071
vt 0.4432615 0.9815421
vt 0.905587 0.9898434
vt 0.9065035 0.7130415
vt 0.7473982 0.7125151
vt 0.7464817 0.9893164
vn 0.9561778 0.04615019 0.2891267
vn 0.9561778 0.04615017 0.2891266
vn 0.6014684 0.1259218 0.7889103
vn 0.6014684 0.1259218 0.7889103
vn 0.01701853 0.1575956 0.987357
vn 0.01701858 0.1575956 0.987357
vn -0.5739319 0.1290731 0.8086669
vn -0.5739319 0.1290731 0.8086669
vn 0.9456598 -0.05124929 -0.3210934
vn 0.9456598 -0.05124929 -0.3210935
vn 0.5739321 -0.1290734 -0.8086668
vn 0.5739322 -0.1290734 -0.8086667
vn -0.01701843 -0.1575958 -0.987357
vn -0.01701847 -0.1575957 -0.987357
vn -0.6014686 -0.1259219 -0.7889101
vn -0.6014687 -0.1259219 -0.78891
vn -0.9561777 -0.04615064 -0.2891266
vn -0.9561777 -0.04615064 -0.2891267
vn -0.9456599 0.05124874 0.3210931
vn -0.9456599 0.05124874 0.3210932
vn -0.5739319 0.1290731 0.8086669
vn -0.5739319 0.1290731 0.8086669
vn 1.912838E-06 -0.9875001 0.1576185
vn 1.997627E-06 -0.9875001 0.1576185
vn 1.997627E-06 -0.9875001 0.1576185
vn 1.912838E-06 -0.9875001 0.1576185
vn 1.851511E-06 -0.9875001 0.1576185
vn 1.851511E-06 -0.9875001 0.1576185
vn 1.819626E-06 -0.9875001 0.1576184
vn 1.819626E-06 -0.9875001 0.1576184
vn 1.823158E-06 -0.9875001 0.1576185
vn 1.823158E-06 -0.9875001 0.1576185
vn 2.113985E-06 -0.9875001 0.1576186
vn 2.113986E-06 -0.9875001 0.1576186
vn 2.113986E-06 -0.9875001 0.1576186
vn 2.113986E-06 -0.9875001 0.1576186
vn 2.181254E-06 -0.9875001 0.1576182
vn 2.181255E-06 -0.9875001 0.1576182
vn 2.075893E-06 -0.9875003 0.1576181
vn 2.075893E-06 -0.9875003 0.1576181
vn 2.014537E-06 -0.9875001 0.1576185
vn 2.014537E-06 -0.9875001 0.1576185
vn 1.88193E-06 -0.9875001 0.1576185
vn 1.88193E-06 -0.9875001 0.1576185
vn 1.736403E-06 -0.9875001 0.1576184
vn 1.736403E-06 -0.9875001 0.1576184
vn 2.083122E-06 -0.9875001 0.1576183
vn 2.083122E-06 -0.9875001 0.1576182
vn 2.036824E-06 -0.9875003 0.1576179
vn 2.036824E-06 -0.9875003 0.1576179
vn 2.036823E-06 -0.9875003 0.1576179
vn 2.036823E-06 -0.9875003 0.1576179
vn 2.08054E-06 -0.9875001 0.1576185
vn 2.08054E-06 -0.9875001 0.1576185
vn 2.08054E-06 -0.9875001 0.1576185
vn 0.6677477 0.1173302 0.7350827
vn 0.6677477 0.1173302 0.7350827
vn 0.9502674 0.04908947 0.3075421
vn 0.9502674 0.04908948 0.3075421
vn 0.9456599 -0.05124932 -0.3210931
vn 0.9456598 -0.05124933 -0.3210932
vn 0.5739322 -0.1290734 -0.8086667
vn 0.5739321 -0.1290734 -0.8086668
vn -0.01701839 -0.1575957 -0.987357
vn -0.01701849 -0.1575957 -0.987357
vn 0.5158389 0.1350302 0.8459771
vn 0.5158389 0.1350302 0.8459771
vn -0.536492 0.133014 0.8333568
vn -0.6650587 0.1177067 0.7374566
vn -0.6650587 0.1177067 0.7374566
vn -0.536492 0.133014 0.8333568
vn -0.9395533 0.05396723 0.338123
vn -0.9395533 0.05396724 0.338123
vn -0.9561778 -0.04615027 -0.2891267
vn -0.9561778 -0.04615026 -0.2891267
vn -0.6014684 -0.1259219 -0.7889103
vn -0.6014683 -0.1259219 -0.7889103
vn -0.01701849 -0.1575957 -0.987357
vn -0.01701839 -0.1575957 -0.987357
vn -1.89606E-06 0.9875001 -0.1576185
vn -1.89606E-06 0.9875001 -0.1576185
vn -1.89606E-06 0.9875001 -0.1576185
vn -1.940081E-06 0.9875001 -0.1576184
vn -1.940081E-06 0.9875001 -0.1576184
vn -1.940081E-06 0.9875001 -0.1576184
vn -1.940081E-06 0.9875001 -0.1576184
vn -1.926262E-06 0.9875001 -0.1576184
vn -1.786704E-06 0.9875001 -0.1576184
vn -1.796104E-06 0.9875001 -0.1576184
vn -1.566815E-06 0.9875001 -0.1576187
vn -2.401152E-06 0.9875003 -0.1576176
vn -2.313617E-06 0.9875 -0.1576191
vn 9.260866E-05 0.1576181 0.9875001
vn 9.260866E-05 0.1576181 0.9875001
vn 9.260866E-05 0.1576181 0.9875001
vn 9.260866E-05 0.1576181 0.9875001
vn 0.9999987 -0.0002587138 -0.001632213
vn 0.9999987 -0.0002587138 -0.001632213
vn 0.9999987 -0.0002587138 -0.001632213
vn 0.9999987 -0.0002587138 -0.001632213
vn -0.9999986 0.000263742 0.001663713
vn -0.9999986 0.000263742 0.001663713
vn -0.9999986 0.000263742 0.001663713
vn -0.9999986 0.000263742 0.001663713
g mag_mp5_x_products_x_5_9x19_50_LOD1_0
f 3/3/3 2/2/2 1/1/1
f 4/4/4 3/3/3 1/1/1
f 5/5/5 3/3/3 4/4/4
f 6/6/6 5/5/5 4/4/4
f 7/7/7 5/5/5 6/6/6
f 8/8/8 7/7/7 6/6/6
f 1/1/1 2/2/2 9/9/9
f 2/2/2 10/10/10 9/9/9
f 9/9/9 10/10/10 11/11/11
f 10/10/10 12/12/12 11/11/11
f 11/11/11 12/12/12 13/13/13
f 12/12/12 14/14/14 13/13/13
f 13/13/13 14/14/14 15/15/15
f 14/14/14 16/16/16 15/15/15
f 15/15/15 16/16/16 17/17/17
f 16/16/16 18/18/18 17/17/17
f 17/17/17 18/18/18 19/19/19
f 18/18/18 20/20/20 19/19/19
f 19/19/19 20/20/20 21/21/21
f 20/20/20 22/22/22 21/21/21
f 25/25/25 24/24/24 23/23/23
f 26/26/26 25/25/25 23/23/23
f 26/26/26 23/23/23 27/27/27
f 28/28/28 26/26/26 27/27/27
f 28/28/28 27/27/27 29/29/29
f 30/30/30 28/28/28 29/29/29
f 30/30/30 29/29/29 31/31/31
f 32/32/32 30/30/30 31/31/31
f 35/35/35 34/34/34 33/33/33
f 36/36/36 35/35/35 33/33/33
f 37/37/37 35/35/35 36/36/36
f 38/38/38 37/37/37 36/36/36
f 39/39/39 37/37/37 38/38/38
f 40/40/40 39/39/39 38/38/38
f 41/41/41 39/39/39 40/40/40
f 42/42/42 41/41/41 40/40/40
f 43/43/43 41/41/41 42/42/42
f 44/44/44 43/43/43 42/42/42
f 45/45/45 43/43/43 44/44/44
f 46/46/46 45/45/45 44/44/44
f 47/47/47 45/45/45 46/46/46
f 48/48/48 47/47/47 46/46/46
f 49/49/49 47/47/47 48/48/48
f 50/50/50 49/49/49 48/48/48
f 51/51/51 49/49/49 50/50/50
f 52/52/52 51/51/51 50/50/50
f 53/53/53 51/51/51 52/52/52
f 53/53/53 54/54/54 51/51/51
f 54/54/54 55/55/55 51/51/51
f 34/34/34 53/53/53 52/52/52
f 33/33/33 34/34/34 52/52/52
f 58/58/58 57/57/57 56/56/56
f 59/59/59 58/58/58 56/56/56
f 60/60/60 58/58/58 59/59/59
f 61/61/61 60/60/60 59/59/59
f 62/62/62 60/60/60 61/61/61
f 63/63/63 62/62/62 61/61/61
f 64/64/64 62/62/62 63/63/63
f 65/65/65 64/64/64 63/63/63
f 57/57/57 66/66/66 56/56/56
f 66/66/66 67/67/67 56/56/56
f 70/70/70 69/69/69 68/68/68
f 71/71/71 70/70/70 68/68/68
f 69/69/69 70/70/70 72/72/72
f 70/70/70 73/73/73 72/72/72
f 72/72/72 73/73/73 74/74/74
f 73/73/73 75/75/75 74/74/74
f 74/74/74 75/75/75 76/76/76
f 75/75/75 77/77/77 76/76/76
f 76/76/76 77/77/77 78/78/78
f 77/77/77 79/79/79 78/78/78
f 82/82/82 81/81/81 80/80/80
f 83/83/83 81/81/81 82/82/82
f 84/84/84 83/83/83 82/82/82
f 84/84/84 85/85/85 83/83/83
f 85/85/85 86/86/86 83/83/83
f 87/87/87 84/84/84 82/82/82
f 88/88/88 87/87/87 82/82/82
f 89/89/89 88/88/88 82/82/82
f 90/90/90 82/82/82 80/80/80
f 91/91/91 82/82/82 90/90/90
f 92/92/92 89/89/89 82/82/82
f 95/95/95 94/94/94 93/93/93
f 96/96/96 95/95/95 93/93/93
f 99/99/99 98/98/98 97/97/97
f 100/100/100 99/99/99 97/97/97
f 103/103/103 102/102/102 101/101/101
f 104/104/104 103/103/103 101/101/101
