g mag_mr133_izhmeh_12g_8_LOD1
v 0.01455353 3.242493E-07 2.457294E-05
v 0.01259994 -0.01579916 0.007315353
v 0.01259994 3.242493E-07 0.007315359
v 0.01455353 -0.01579916 2.457294E-05
v 0.007262762 -0.01579916 0.01265258
v 0.007262762 3.242493E-07 0.01265258
v -2.800175E-05 -0.01579916 0.01460614
v -2.800175E-05 3.242493E-07 0.01460614
v 0.01259994 3.242493E-07 -0.00726622
v 0.01259994 -0.01579916 -0.00726622
v 0.007262762 3.242493E-07 -0.01260344
v 0.007262762 -0.01579916 -0.01260344
v -2.807805E-05 3.242493E-07 -0.01455699
v -2.807805E-05 -0.01579916 -0.01455699
v -2.800175E-05 3.242493E-07 0.01460614
v -0.007318842 -0.01579916 0.01265258
v -0.007318842 3.242493E-07 0.01265258
v -2.800175E-05 -0.01579916 0.01460614
v -0.01265602 -0.01579916 0.007315354
v -0.01265602 3.242493E-07 0.00731536
v -0.01460961 -0.01579916 2.457532E-05
v -0.01460961 3.242493E-07 2.457532E-05
v -0.01265602 -0.01579916 -0.007266209
v -0.01265602 3.242493E-07 -0.007266209
v -0.007318842 -0.01579916 -0.01260343
v -0.007318842 3.242493E-07 -0.01260343
v -2.807805E-05 -0.01579916 -0.01455699
v -2.807805E-05 3.242493E-07 -0.01455699
v 0.01455353 -0.01579916 2.457294E-05
v 0.009902189 -0.01875002 0.005757786
v 0.01259994 -0.01579916 0.007315353
v 0.01143833 -0.01875002 2.456936E-05
v 0.005705145 -0.01875002 0.009954792
v 0.007262762 -0.01579916 0.01265258
v -2.800175E-05 -0.01875002 0.011491
v -2.800175E-05 -0.01579916 0.01460614
v 0.01259994 -0.01579916 -0.00726622
v 0.009902189 -0.01875002 -0.005708653
v 0.007262762 -0.01579916 -0.01260344
v 0.005705145 -0.01875002 -0.009905652
v -2.807805E-05 -0.01579916 -0.01455699
v -2.807805E-05 -0.01875006 -0.01144187
v -2.800175E-05 -0.01579916 0.01460614
v -0.005761224 -0.01875002 0.009954792
v -0.007318842 -0.01579916 0.01265258
v -2.800175E-05 -0.01875002 0.011491
v -0.009958269 -0.01875002 0.005757786
v -0.01265602 -0.01579916 0.007315354
v -0.01149445 -0.01875002 2.457294E-05
v -0.01460961 -0.01579916 2.457532E-05
v -0.009958269 -0.01875002 -0.005708641
v -0.01265602 -0.01579916 -0.007266209
v -0.005761301 -0.01875006 -0.009905649
v -0.007318842 -0.01579916 -0.01260343
v -2.807805E-05 -0.01875006 -0.01144187
v -2.807805E-05 -0.01579916 -0.01455699
v 0.01163719 -0.1664537 2.455744E-05
v 0.01007438 -0.002924538 0.005857198
v 0.01163719 -0.002924538 2.456817E-05
v 0.01007438 -0.1664537 0.005857187
v 0.005804594 -0.002924538 0.01012697
v 0.005804594 -0.1664537 0.01012696
v -2.802082E-05 -0.002924538 0.01168982
v -2.80399E-05 -0.1664537 0.01168981
v 0.01007438 -0.1664537 -0.005808074
v 0.01007438 -0.002924538 -0.005808064
v 0.005804594 -0.1664537 -0.01007785
v 0.005804594 -0.002924538 -0.01007784
v -2.807805E-05 -0.1664537 -0.01164069
v -2.807805E-05 -0.002924538 -0.01164068
v -2.80399E-05 -0.1664537 0.01168981
v -0.005860674 -0.002924538 0.01012697
v -2.802082E-05 -0.002924538 0.01168982
v -0.005860674 -0.1664537 0.01012696
v -0.01013047 -0.002924538 0.005857198
v -0.01013047 -0.1664537 0.005857189
v -0.01169327 -0.002924538 2.457115E-05
v -0.01169327 -0.1664537 2.456102E-05
v -0.01013047 -0.002924538 -0.005808056
v -0.01013047 -0.1664537 -0.005808067
v -0.005860674 -0.002924538 -0.01007783
v -0.005860674 -0.1664537 -0.01007784
v -2.807805E-05 -0.002924538 -0.01164068
v -2.807805E-05 -0.1664537 -0.01164069
v 0.01259994 3.242493E-07 -0.00726622
v -2.807805E-05 3.242493E-07 -0.01455699
v 0.007262762 3.242493E-07 -0.01260344
v 0.01259994 3.242493E-07 0.007315359
v -0.01265602 3.242493E-07 0.00731536
v -0.01265602 3.242493E-07 -0.007266209
v -0.007318842 3.242493E-07 -0.01260343
v -0.01460961 3.242493E-07 2.457532E-05
v -2.800175E-05 3.242493E-07 0.01460614
v -0.007318842 3.242493E-07 0.01265258
v 0.007262762 3.242493E-07 0.01265258
v 0.01455353 3.242493E-07 2.457294E-05
v -2.807805E-05 -0.3078455 -0.01164071
v 0.01007438 -0.3078455 -0.005808095
v 0.005804594 -0.3078455 -0.01007787
v 0.01163719 -0.3078455 2.453837E-05
v -2.807805E-05 -0.3078455 0.01168979
v 0.01007438 -0.3078455 0.005857166
v 0.005804594 -0.3078455 0.01012694
v -0.01169327 -0.3078455 2.454075E-05
v -0.005860674 -0.3078455 0.01012694
v -0.01013047 -0.3078455 0.00585717
v -0.01013047 -0.3078455 -0.005808083
v -0.005860674 -0.3078455 -0.01007786
v 0.01007438 -0.3078455 0.005857166
v 0.01163719 -0.1664537 2.455744E-05
v 0.01163719 -0.3078455 2.453837E-05
v 0.01007438 -0.1664537 0.005857187
v 0.005804594 -0.3078455 0.01012694
v 0.005804594 -0.1664537 0.01012696
v -2.807805E-05 -0.3078455 0.01168979
v -2.80399E-05 -0.1664537 0.01168981
v 0.01007438 -0.1664537 -0.005808074
v 0.01007438 -0.3078455 -0.005808095
v 0.005804594 -0.1664537 -0.01007785
v 0.005804594 -0.3078455 -0.01007787
v -2.807805E-05 -0.1664537 -0.01164069
v -2.807805E-05 -0.3078455 -0.01164071
v -0.005860674 -0.3078455 0.01012694
v -2.80399E-05 -0.1664537 0.01168981
v -2.807805E-05 -0.3078455 0.01168979
v -0.005860674 -0.1664537 0.01012696
v -0.01013047 -0.3078455 0.00585717
v -0.01013047 -0.1664537 0.005857189
v -0.01169327 -0.3078455 2.454075E-05
v -0.01169327 -0.1664537 2.456102E-05
v -0.01013047 -0.3078455 -0.005808083
v -0.01013047 -0.1664537 -0.005808067
v -0.005860674 -0.3078455 -0.01007786
v -0.005860674 -0.1664537 -0.01007784
v -2.807805E-05 -0.3078455 -0.01164071
v -2.807805E-05 -0.1664537 -0.01164069
vt 0.7860404 0.5022593
vt 0.7545031 0.6680341
vt 0.7860404 0.6680341
vt 0.7545031 0.5022593
vt 0.7545031 0.830676
vt 0.7860404 0.830676
vt 0.7545031 0.9949392
vt 0.7860404 0.9949392
vt 0.7860404 0.3364946
vt 0.7545031 0.3364946
vt 0.7860404 0.1713252
vt 0.7545031 0.1713252
vt 0.7860404 0.0095897
vt 0.7545031 0.0095897
vt 0.7860404 0.9949392
vt 0.7545031 0.830676
vt 0.7860404 0.830676
vt 0.7545031 0.9949392
vt 0.7545031 0.6680341
vt 0.7860404 0.6680341
vt 0.7545031 0.5022593
vt 0.7860404 0.5022593
vt 0.7545031 0.3364946
vt 0.7860404 0.3364946
vt 0.7545031 0.1713252
vt 0.7860404 0.1713252
vt 0.7545031 0.0095897
vt 0.7860404 0.0095897
vt 0.7545031 0.5022593
vt 0.7476202 0.6680341
vt 0.7545031 0.6680341
vt 0.7476202 0.5022593
vt 0.7476202 0.830676
vt 0.7545031 0.830676
vt 0.7476202 0.9949392
vt 0.7545031 0.9949392
vt 0.7545031 0.3364946
vt 0.7476202 0.3364946
vt 0.7545031 0.1713252
vt 0.7476202 0.1713252
vt 0.7545031 0.0095897
vt 0.7476202 0.0095897
vt 0.7545031 0.9949392
vt 0.7476202 0.830676
vt 0.7545031 0.830676
vt 0.7476202 0.9949392
vt 0.7476202 0.6680341
vt 0.7545031 0.6680341
vt 0.7476202 0.5022593
vt 0.7545031 0.5022593
vt 0.7476202 0.3364946
vt 0.7545031 0.3364946
vt 0.7476202 0.1713252
vt 0.7545031 0.1713252
vt 0.7476202 0.0095897
vt 0.7545031 0.0095897
vt 0.726177 0.5004399
vt 0.484882 0.6638376
vt 0.484882 0.5004377
vt 0.726177 0.6638338
vt 0.484882 0.8272414
vt 0.726177 0.8272415
vt 0.4848821 0.9906451
vt 0.7261769 0.9906449
vt 0.726177 0.337034
vt 0.484882 0.3370343
vt 0.726177 0.1736328
vt 0.484882 0.1736334
vt 0.7261769 0.01023033
vt 0.4848821 0.01023027
vt 0.7261769 0.9906437
vt 0.484882 0.8272421
vt 0.4848821 0.9906451
vt 0.726177 0.8272409
vt 0.484882 0.6638396
vt 0.726177 0.6638377
vt 0.484882 0.5004368
vt 0.726177 0.5004362
vt 0.484882 0.3370354
vt 0.726177 0.3370342
vt 0.484882 0.1736345
vt 0.726177 0.1736339
vt 0.4848821 0.01023073
vt 0.7261769 0.01022912
vt 0.7860404 0.3364946
vt 0.7860404 0.0095897
vt 0.7860404 0.1713252
vt 0.7860404 0.6680341
vt 0.7860404 0.6680341
vt 0.7860404 0.3364946
vt 0.7860404 0.1713252
vt 0.7860404 0.5022593
vt 0.7860404 0.9949392
vt 0.7860404 0.830676
vt 0.7860404 0.830676
vt 0.7860404 0.5022593
vt 0.8174932 0.01707181
vt 0.8433974 0.2563646
vt 0.832449 0.08117613
vt 0.847405 0.4956465
vt 0.8174936 0.9742391
vt 0.8433974 0.7349396
vt 0.832449 0.9101159
vt 0.787581 0.4956465
vt 0.8025375 0.9101159
vt 0.7915892 0.7349396
vt 0.7915892 0.2563646
vt 0.8025375 0.08117613
vt 0.7463614 0.6638369
vt 0.5572228 0.5004367
vt 0.7463614 0.5004358
vt 0.5572228 0.6638384
vt 0.7463614 0.8272415
vt 0.5572228 0.8272414
vt 0.7463614 0.9906449
vt 0.5572228 0.9906451
vt 0.5572228 0.3370343
vt 0.7463614 0.3370336
vt 0.5572228 0.1736333
vt 0.7463614 0.1736325
vt 0.5572228 0.01023027
vt 0.7463614 0.01023026
vt 0.7463613 0.8272404
vt 0.5572228 0.9906449
vt 0.7463613 0.9906427
vt 0.5572228 0.8272419
vt 0.7463613 0.6638369
vt 0.5572228 0.6638393
vt 0.7463613 0.5004358
vt 0.5572228 0.5004367
vt 0.7463613 0.3370336
vt 0.5572228 0.3370351
vt 0.7463613 0.1736336
vt 0.5572228 0.1736344
vt 0.7463613 0.01022799
vt 0.5572228 0.01023032
vn 1 0 1.669574E-07
vn 0.8660257 -1.524254E-07 0.4999995
vn 0.8660257 -1.68847E-07 0.4999996
vn 1 0 2.553466E-07
vn 0.5000021 -2.811523E-07 0.8660242
vn 0.500002 -2.34349E-07 0.8660243
vn 1.276732E-06 -2.53376E-07 1
vn 1.279187E-06 -2.53376E-07 1
vn 0.8660256 0 -0.4999996
vn 0.8660256 0 -0.4999996
vn 0.5000004 0 -0.8660253
vn 0.5000004 0 -0.8660253
vn -1.942106E-06 0 -1
vn -1.816888E-06 0 -1
vn 1.279187E-06 -2.53376E-07 1
vn -0.5000008 -2.343492E-07 0.8660249
vn -0.5000007 -2.811525E-07 0.866025
vn 1.276732E-06 -2.53376E-07 1
vn -0.8660256 -1.68847E-07 0.4999996
vn -0.8660255 -1.524255E-07 0.4999997
vn -1 0 0
vn -1 0 0
vn -0.8660257 0 -0.4999995
vn -0.8660256 0 -0.4999996
vn -0.5000021 0 -0.8660242
vn -0.5000021 0 -0.8660242
vn -1.816888E-06 0 -1
vn -1.942106E-06 0 -1
vn 0.6877002 -0.7259948 -2.324724E-06
vn 0.5955707 -0.7259889 0.343854
vn 0.5955711 -0.7259881 0.343855
vn 0.6877002 -0.7259949 -4.033792E-06
vn 0.343852 -0.7259915 0.5955688
vn 0.3438537 -0.7259924 0.5955666
vn 7.748991E-07 -0.7259905 0.6877047
vn 5.92145E-07 -0.7259904 0.6877048
vn 0.5955724 -0.725989 -0.3438511
vn 0.5955746 -0.7259883 -0.3438488
vn 0.3438514 -0.7259917 -0.5955688
vn 0.3438483 -0.7259917 -0.5955706
vn 5.044194E-07 -0.7259862 -0.6877092
vn 1.782273E-06 -0.7259849 -0.6877106
vn 5.92145E-07 -0.7259904 0.6877048
vn -0.343848 -0.7259925 0.5955698
vn -0.3438519 -0.7259915 0.5955688
vn 7.748991E-07 -0.7259905 0.6877047
vn -0.5955734 -0.7259881 0.3438509
vn -0.5955725 -0.7259881 0.3438525
vn -0.6877036 -0.7259915 2.247211E-06
vn -0.6877037 -0.7259915 1.535195E-06
vn -0.5955741 -0.7259881 -0.3438499
vn -0.5955745 -0.725986 -0.3438537
vn -0.3438577 -0.7259848 -0.5955736
vn -0.3438566 -0.7259839 -0.5955753
vn 1.782273E-06 -0.7259849 -0.6877106
vn 5.044194E-07 -0.7259862 -0.6877092
vn 1 0 0
vn 0.8660267 0 0.4999978
vn 1 0 0
vn 0.8660268 0 0.4999977
vn 0.4999995 0 0.8660257
vn 0.4999993 -1.159073E-07 0.8660258
vn 5.401565E-07 0 1
vn 0 -1.299509E-07 1
vn 0.8660268 0 -0.4999977
vn 0.8660268 0 -0.4999977
vn 0.4999982 0 -0.8660264
vn 0.4999982 0 -0.8660264
vn -2.229371E-06 1.013699E-07 -1
vn -1.846353E-06 0 -1
vn 0 -1.299509E-07 1
vn -0.4999987 0 0.866026
vn 5.401565E-07 0 1
vn -0.4999991 0 0.866026
vn -0.8660267 0 0.4999979
vn -0.8660266 0 0.4999979
vn -1 0 -2.651673E-07
vn -1 0 1.374941E-07
vn -0.8660266 0 -0.4999979
vn -0.8660267 0 -0.4999977
vn -0.5000001 0 -0.8660253
vn -0.5000001 0 -0.8660253
vn -1.846353E-06 0 -1
vn -2.229371E-06 1.013699E-07 -1
vn 0 1 0
vn 0 1 0
vn 0 1 0
vn 0 1 0
vn 0 1 0
vn 0 1 0
vn 0 1 0
vn 0 1 0
vn 0 1 0
vn 0 1 0
vn 0 1 0
vn 0 1 0
vn 0 -1 0
vn 0 -1 0
vn 0 -1 0
vn 0 -1 0
vn 0 -1 0
vn 0 -1 0
vn 0 -1 0
vn 0 -1 0
vn 0 -1 0
vn 0 -1 0
vn 0 -1 0
vn 0 -1 0
vn 0.8660268 0 0.4999976
vn 1 0 0
vn 1 0 0
vn 0.8660268 0 0.4999977
vn 0.4999985 -1.299273E-07 0.8660263
vn 0.4999993 -1.159073E-07 0.8660258
vn -1.630289E-06 -1.122663E-07 1
vn 0 -1.299509E-07 1
vn 0.8660268 0 -0.4999977
vn 0.8660268 0 -0.4999976
vn 0.4999982 0 -0.8660264
vn 0.4999979 1.214255E-07 -0.8660267
vn -2.229371E-06 1.013699E-07 -1
vn -2.455253E-06 1.344399E-07 -1
vn -0.4999998 0 0.8660256
vn 0 -1.299509E-07 1
vn -1.630289E-06 -1.122663E-07 1
vn -0.4999991 0 0.866026
vn -0.8660266 0 0.4999979
vn -0.8660266 0 0.4999979
vn -1 0 0
vn -1 0 1.374941E-07
vn -0.8660268 0 -0.4999976
vn -0.8660267 0 -0.4999977
vn -0.4999999 1.194197E-07 -0.8660255
vn -0.5000001 0 -0.8660253
vn -2.455253E-06 1.344399E-07 -1
vn -2.229371E-06 1.013699E-07 -1
g mag_mr133_izhmeh_12g_8_LOD1_0
f 3/3/3 2/2/2 1/1/1
f 4/4/4 1/1/1 2/2/2
f 2/2/2 3/3/3 5/5/5
f 6/6/6 5/5/5 3/3/3
f 5/5/5 6/6/6 7/7/7
f 8/8/8 7/7/7 6/6/6
f 1/1/1 4/4/4 9/9/9
f 10/10/10 9/9/9 4/4/4
f 9/9/9 10/10/10 11/11/11
f 12/12/12 11/11/11 10/10/10
f 11/11/11 12/12/12 13/13/13
f 14/14/14 13/13/13 12/12/12
f 17/17/17 16/16/16 15/15/15
f 18/18/18 15/15/15 16/16/16
f 16/16/16 17/17/17 19/19/19
f 20/20/20 19/19/19 17/17/17
f 19/19/19 20/20/20 21/21/21
f 22/22/22 21/21/21 20/20/20
f 21/21/21 22/22/22 23/23/23
f 24/24/24 23/23/23 22/22/22
f 23/23/23 24/24/24 25/25/25
f 26/26/26 25/25/25 24/24/24
f 25/25/25 26/26/26 27/27/27
f 28/28/28 27/27/27 26/26/26
f 31/31/31 30/30/30 29/29/29
f 32/32/32 29/29/29 30/30/30
f 30/30/30 31/31/31 33/33/33
f 34/34/34 33/33/33 31/31/31
f 33/33/33 34/34/34 35/35/35
f 36/36/36 35/35/35 34/34/34
f 29/29/29 32/32/32 37/37/37
f 38/38/38 37/37/37 32/32/32
f 37/37/37 38/38/38 39/39/39
f 40/40/40 39/39/39 38/38/38
f 39/39/39 40/40/40 41/41/41
f 42/42/42 41/41/41 40/40/40
f 45/45/45 44/44/44 43/43/43
f 46/46/46 43/43/43 44/44/44
f 44/44/44 45/45/45 47/47/47
f 48/48/48 47/47/47 45/45/45
f 47/47/47 48/48/48 49/49/49
f 50/50/50 49/49/49 48/48/48
f 49/49/49 50/50/50 51/51/51
f 52/52/52 51/51/51 50/50/50
f 51/51/51 52/52/52 53/53/53
f 54/54/54 53/53/53 52/52/52
f 53/53/53 54/54/54 55/55/55
f 56/56/56 55/55/55 54/54/54
f 59/59/59 58/58/58 57/57/57
f 60/60/60 57/57/57 58/58/58
f 58/58/58 61/61/61 60/60/60
f 62/62/62 60/60/60 61/61/61
f 61/61/61 63/63/63 62/62/62
f 64/64/64 62/62/62 63/63/63
f 57/57/57 65/65/65 59/59/59
f 66/66/66 59/59/59 65/65/65
f 65/65/65 67/67/67 66/66/66
f 68/68/68 66/66/66 67/67/67
f 67/67/67 69/69/69 68/68/68
f 70/70/70 68/68/68 69/69/69
f 73/73/73 72/72/72 71/71/71
f 74/74/74 71/71/71 72/72/72
f 72/72/72 75/75/75 74/74/74
f 76/76/76 74/74/74 75/75/75
f 75/75/75 77/77/77 76/76/76
f 78/78/78 76/76/76 77/77/77
f 77/77/77 79/79/79 78/78/78
f 80/80/80 78/78/78 79/79/79
f 79/79/79 81/81/81 80/80/80
f 82/82/82 80/80/80 81/81/81
f 81/81/81 83/83/83 82/82/82
f 84/84/84 82/82/82 83/83/83
f 87/87/87 86/86/86 85/85/85
f 86/86/86 88/88/88 85/85/85
f 89/89/89 88/88/88 86/86/86
f 90/90/90 89/89/89 86/86/86
f 91/91/91 90/90/90 86/86/86
f 92/92/92 89/89/89 90/90/90
f 93/93/93 88/88/88 89/89/89
f 94/94/94 93/93/93 89/89/89
f 95/95/95 88/88/88 93/93/93
f 85/85/85 88/88/88 96/96/96
f 99/99/99 98/98/98 97/97/97
f 100/100/100 97/97/97 98/98/98
f 100/100/100 101/101/101 97/97/97
f 100/100/100 102/102/102 101/101/101
f 103/103/103 101/101/101 102/102/102
f 104/104/104 97/97/97 101/101/101
f 101/101/101 105/105/105 104/104/104
f 106/106/106 104/104/104 105/105/105
f 104/104/104 107/107/107 97/97/97
f 108/108/108 97/97/97 107/107/107
f 111/111/111 110/110/110 109/109/109
f 112/112/112 109/109/109 110/110/110
f 109/109/109 112/112/112 113/113/113
f 114/114/114 113/113/113 112/112/112
f 113/113/113 114/114/114 115/115/115
f 116/116/116 115/115/115 114/114/114
f 110/110/110 111/111/111 117/117/117
f 118/118/118 117/117/117 111/111/111
f 117/117/117 118/118/118 119/119/119
f 120/120/120 119/119/119 118/118/118
f 119/119/119 120/120/120 121/121/121
f 122/122/122 121/121/121 120/120/120
f 125/125/125 124/124/124 123/123/123
f 126/126/126 123/123/123 124/124/124
f 123/123/123 126/126/126 127/127/127
f 128/128/128 127/127/127 126/126/126
f 127/127/127 128/128/128 129/129/129
f 130/130/130 129/129/129 128/128/128
f 129/129/129 130/130/130 131/131/131
f 132/132/132 131/131/131 130/130/130
f 131/131/131 132/132/132 133/133/133
f 134/134/134 133/133/133 132/132/132
f 133/133/133 134/134/134 135/135/135
f 136/136/136 135/135/135 134/134/134
