g mag_stanag_magpul_pmag_gen_m3_window_556x45_30_LOD1
v 0.01116973 0.06440826 -0.06114844
v 0.01116971 0.000333252 -0.05523925
v 0.0111697 0.0008113766 0.001529589
v 0.01116972 0.0642176 0.006680794
v 0.01116973 0.05762051 -0.1198483
v 0.01116972 -0.00663846 -0.1077886
v 0.01116973 -0.02164052 -0.1674379
v 0.01116974 0.04217903 -0.185648
v -0.01116643 0.06440826 -0.06114844
v -0.01116644 0.06421761 0.006680789
v -0.01116645 0.0008113766 0.001529584
v -0.01116644 0.000333252 -0.05523926
v -0.01116642 0.05762052 -0.1198483
v -0.01116643 -0.006638451 -0.1077886
v -0.01116642 -0.02164051 -0.1674379
v -0.01116642 0.04217903 -0.185648
v 0.01116974 0.04217903 -0.185648
v -0.01116642 0.04217903 -0.185648
v -0.01116642 -0.02164051 -0.1674379
v 0.01116973 -0.02164052 -0.1674379
v 0.01116971 0.000333252 -0.05523925
v -0.01116644 0.000333252 -0.05523926
v -0.01116645 0.0008113766 0.001529584
v 0.0111697 0.0008113766 0.001529589
v 0.01116972 -0.00663846 -0.1077886
v -0.01116643 -0.006638451 -0.1077886
v -0.01116642 -0.02164051 -0.1674379
v 0.01116973 -0.02164052 -0.1674379
v 0.0111697 0.0008113766 0.001529589
v -0.01116645 0.0008113766 0.001529584
v -0.01116644 0.06421761 0.006680789
v 0.01116972 0.0642176 0.006680794
v 0.01116972 0.0642176 0.006680794
v -0.01116644 0.06421761 0.006680789
v -0.01116643 0.06440826 -0.06114844
v 0.01116973 0.06440826 -0.06114844
v -0.01116642 0.05762052 -0.1198483
v 0.01116973 0.05762051 -0.1198483
v 0.01116974 0.04217903 -0.185648
v -0.01116642 0.04217903 -0.185648
vt 0.3674617 0.3659099
vt 0.6718417 0.3875388
vt 0.7132659 0.1215245
vt 0.4205218 0.04865346
vt 0.354078 0.6458132
vt 0.6640494 0.6388026
vt 0.688374 0.9294659
vt 0.3757285 0.9655953
vt 0.01768917 0.6538852
vt 0.0474443 0.9797048
vt 0.3499036 0.9279962
vt 0.3280643 0.6550341
vt 0.02534486 0.3689624
vt 0.3392188 0.3995848
vt 0.3859384 0.1066083
vt 0.07156058 0.04624768
vt 0.9763008 0.008647235
vt 0.8929482 0.008647235
vt 0.8929482 0.2435487
vt 0.9763008 0.2435487
vt 0.8529381 0.6871499
vt 0.7379068 0.6871499
vt 0.7379066 0.975191
vt 0.8529381 0.975191
vt 0.8529381 0.5216396
vt 0.7379068 0.5216396
vt 0.7379068 0.3561291
vt 0.8529381 0.3561291
vt 0.8535492 0.00367276
vt 0.7330976 0.00367276
vt 0.7330976 0.3228028
vt 0.8535493 0.3228028
vt 0.9854615 0.2715454
vt 0.8689842 0.2715454
vt 0.8689841 0.6152855
vt 0.9854615 0.6152855
vt 0.8689841 0.802233
vt 0.9854615 0.802233
vt 0.9854614 0.9891807
vt 0.8689841 0.9891807
vn 1 -2.220973E-07 1.538875E-07
vn 1 -2.219962E-07 1.528272E-07
vn 1 -2.193029E-07 1.245846E-07
vn 1 -2.193029E-07 1.245846E-07
vn 1 -2.123668E-07 1.911565E-07
vn 1 -2.124426E-07 1.910995E-07
vn 1 -2.001777E-07 2.003233E-07
vn 1 -2.001777E-07 2.003233E-07
vn -1 1.012461E-07 -1.65166E-07
vn -1 1.110742E-07 -1.916064E-07
vn -1 1.110742E-07 -1.916064E-07
vn -1 1.016017E-07 -1.661227E-07
vn -1 0 -1.323793E-07
vn -1 0 -1.324256E-07
vn -1 0 -1.249356E-07
vn -1 0 -1.249356E-07
vn -3.457957E-07 -0.274387 -0.9616194
vn -3.457957E-07 -0.274387 -0.9616194
vn -3.457957E-07 -0.274387 -0.9616194
vn -3.457957E-07 -0.274387 -0.9616194
vn -1.149535E-07 -0.9975398 0.07010318
vn -1.149535E-07 -0.9975398 0.07010319
vn 0 -0.9999646 0.008422011
vn 0 -0.9999646 0.008422011
vn -3.828852E-07 -0.982165 0.188021
vn -3.828851E-07 -0.982165 0.188021
vn -5.379848E-07 -0.9697982 0.2439087
vn -5.379848E-07 -0.9697982 0.2439087
vn -2.223245E-07 -0.08097454 0.9967163
vn -2.223244E-07 -0.08097453 0.9967163
vn -2.223244E-07 -0.08097453 0.9967163
vn -2.223244E-07 -0.08097453 0.9967163
vn 1.062226E-07 0.9999961 0.002810745
vn 1.062226E-07 0.9999961 0.002810745
vn 1.187992E-07 0.9984237 -0.05612681
vn 1.187992E-07 0.9984237 -0.05612681
vn 1.684166E-07 0.985105 -0.1719544
vn 1.684166E-07 0.985105 -0.1719544
vn 2.053099E-07 0.9735516 -0.2284673
vn 2.053099E-07 0.9735516 -0.2284673
g mag_stanag_magpul_pmag_gen_m3_window_556x45_30_LOD1_0
f 3/3/3 2/2/2 1/1/1
f 4/4/4 3/3/3 1/1/1
f 5/5/5 1/1/1 2/2/2
f 6/6/6 5/5/5 2/2/2
f 5/5/5 6/6/6 7/7/7
f 8/8/8 5/5/5 7/7/7
f 11/11/11 10/10/10 9/9/9
f 12/12/12 11/11/11 9/9/9
f 9/9/9 13/13/13 12/12/12
f 13/13/13 14/14/14 12/12/12
f 15/15/15 14/14/14 13/13/13
f 16/16/16 15/15/15 13/13/13
f 19/19/19 18/18/18 17/17/17
f 20/20/20 19/19/19 17/17/17
f 23/23/23 22/22/22 21/21/21
f 24/24/24 23/23/23 21/21/21
f 25/25/25 21/21/21 22/22/22
f 26/26/26 25/25/25 22/22/22
f 25/25/25 26/26/26 27/27/27
f 28/28/28 25/25/25 27/27/27
f 31/31/31 30/30/30 29/29/29
f 32/32/32 31/31/31 29/29/29
f 35/35/35 34/34/34 33/33/33
f 36/36/36 35/35/35 33/33/33
f 37/37/37 35/35/35 36/36/36
f 38/38/38 37/37/37 36/36/36
f 37/37/37 38/38/38 39/39/39
f 40/40/40 37/37/37 39/39/39
