g mag_m700_wyatt_762x51_5_LOD1
v -0.009515068 -0.03814099 -0.03634025
v 0.009515082 -0.03814099 -0.03634025
v 0.00951507 0.03814084 -0.04619624
v -0.00951508 0.03814083 -0.04619624
v -0.009515068 -0.0381409 0.0395776
v 0.009515082 -0.0381409 0.0395776
v 0.009515082 -0.03814099 -0.03634025
v -0.009515068 -0.03814099 -0.03634025
v -0.009515068 -0.03814099 -0.03634025
v -0.00951508 0.03814083 -0.04619624
v -0.00951508 0.03814094 0.03957751
v -0.009515068 -0.0381409 0.0395776
v -0.00951508 0.03814083 -0.04619624
v 0.00951507 0.03814084 -0.04619624
v 0.00951507 0.03814095 0.03957751
v -0.00951508 0.03814094 0.03957751
v 0.009515082 -0.03814099 -0.03634025
v 0.009515082 -0.0381409 0.0395776
v 0.00951507 0.03814095 0.03957751
v 0.00951507 0.03814084 -0.04619624
v -0.009515068 -0.0381409 0.0395776
v -0.00951508 0.03814094 0.03957751
v 0.00951507 0.03814095 0.03957751
v 0.009515082 -0.0381409 0.0395776
vt 0.7865716 0.1529964
vt 0.7865716 0.0172388
vt 0.2412596 0.0172388
vt 0.2412596 0.1529964
vt 0.8321313 0.7841512
vt 0.9695827 0.7841512
vt 0.9695827 0.2379919
vt 0.8321313 0.2379919
vt 0.7783667 0.2664372
vt 0.2319239 0.1958348
vt 0.2307931 0.8126694
vt 0.7794976 0.8126695
vt 0.1832262 0.2018728
vt 0.04577456 0.2018728
vt 0.04577456 0.8187807
vt 0.1832262 0.8187807
vt 1.779498 0.2665834
vt 1.779498 0.8126695
vt 1.230793 0.8126695
vt 1.230793 0.1956887
vt 0.7794976 0.8500165
vt 0.2307931 0.8500165
vt 0.2307931 0.9869026
vt 0.7794976 0.9869026
vn 0 -0.1281506 -0.9917547
vn 0 -0.1281506 -0.9917547
vn 0 -0.1281476 -0.9917551
vn 0 -0.1281476 -0.9917551
vn 0 -1 0
vn 0 -1 0
vn 0 -1 0
vn 0 -1 0
vn -1 0 0
vn -1 0 0
vn -1 0 0
vn -1 0 0
vn 0 1 0
vn 0 1 0
vn 0 1 0
vn 0 1 0
vn 1 0 0
vn 1 0 0
vn 1 0 0
vn 1 0 0
vn 0 0 1
vn 0 0 1
vn 0 0 1
vn 0 0 1
g mag_m700_wyatt_762x51_5_LOD1_0
f 3/3/3 2/2/2 1/1/1
f 4/4/4 3/3/3 1/1/1
f 7/7/7 6/6/6 5/5/5
f 8/8/8 7/7/7 5/5/5
f 11/11/11 10/10/10 9/9/9
f 12/12/12 11/11/11 9/9/9
f 15/15/15 14/14/14 13/13/13
f 16/16/16 15/15/15 13/13/13
f 19/19/19 18/18/18 17/17/17
f 20/20/20 19/19/19 17/17/17
f 23/23/23 22/22/22 21/21/21
f 24/24/24 23/23/23 21/21/21
