g mag_pp-19-01_pufgun_mag_sg-919_30_9x19_30_LOD1
v -0.008309172 -0.005002369 0.01718623
v -0.01240917 -0.000891439 0.01718622
v 0.01247503 -0.0008914378 0.01718622
v 0.008375028 -0.005002369 0.01718623
v -0.008309172 -0.007576175 -0.02905313
v -0.008309172 -0.005002369 0.01718623
v 0.008375028 -0.005002369 0.01718623
v 0.008375028 -0.007576175 -0.02905313
v -0.008309172 -0.0139773 -0.07117888
v 0.008375028 -0.0139773 -0.07117888
v -0.008309172 -0.02508128 -0.1194883
v 0.008375028 -0.02508128 -0.1194883
v -0.008309172 -0.04071544 -0.1664167
v 0.008375028 -0.04071544 -0.1664167
v -0.01055343 -0.04662403 -0.1754441
v 0.01061936 -0.04662403 -0.1754441
v 0.01247503 -0.0008914378 0.01718622
v 0.01247503 -0.003521631 -0.0284443
v -0.01240917 -0.003521631 -0.0284443
v -0.01240917 -0.000891439 0.01718622
v -0.01240917 -0.009942641 -0.07190792
v 0.01247503 -0.009942641 -0.07190792
v -0.01240917 -0.0211348 -0.1205997
v 0.01247503 -0.0211348 -0.1205997
v -0.01240917 -0.03689756 -0.1679113
v 0.01247503 -0.03689756 -0.1679113
v -0.01465341 -0.04281737 -0.176967
v 0.01471934 -0.04281737 -0.176967
v 0.01247503 -0.003521631 -0.0284443
v 0.01247503 -0.0008914378 0.01718622
v 0.01247503 0.03118101 0.02719791
v 0.01247503 0.03088416 -0.02327791
v 0.01247503 0.01239767 0.0271979
v 0.01247503 -0.0008805087 0.0271979
v 0.01247503 0.02239239 -0.07775065
v 0.01247503 -0.009942641 -0.07190792
v 0.01247503 -0.0211348 -0.1205997
v 0.01247503 0.01049344 -0.1295073
v 0.01247503 -0.03689756 -0.1679113
v 0.01247503 -0.00629985 -0.1798892
v 0.01471934 -0.04281737 -0.176967
v 0.01471918 -0.008408908 -0.1907328
v 0.01247503 0.03088416 -0.02327791
v 0.01247503 0.03118101 0.02719791
v -0.01240917 0.03118101 0.02719791
v -0.01240917 0.03088416 -0.02327791
v -0.008002462 0.03118101 0.0305287
v 0.00806829 0.03118101 0.0305287
v 0.01247503 0.02239239 -0.07775065
v -0.01240917 0.02239239 -0.07775065
v 0.01247503 0.01049344 -0.1295073
v -0.01240917 0.01049344 -0.1295073
v 0.01247503 -0.00629985 -0.1798892
v -0.01240917 -0.00629985 -0.1798892
v 0.01471918 -0.008408908 -0.1907328
v -0.01465322 -0.008408908 -0.1907328
v -0.01240917 0.03088416 -0.02327791
v -0.01240917 0.03118101 0.02719791
v -0.01240917 -0.000891439 0.01718622
v -0.01240917 -0.003521631 -0.0284443
v -0.01240917 0.01239767 0.0271979
v -0.01240917 -0.0008805099 0.0271979
v -0.01240917 0.02239239 -0.07775065
v -0.01240917 -0.009942641 -0.07190792
v -0.01240917 0.01049344 -0.1295073
v -0.01240917 -0.0211348 -0.1205997
v -0.01240917 -0.00629985 -0.1798892
v -0.01240917 -0.03689756 -0.1679113
v -0.01465322 -0.008408908 -0.1907328
v -0.01465341 -0.04281737 -0.176967
v -0.01240917 -0.000891439 0.01718622
v -0.01240917 -0.0008805099 0.0271979
v 0.01247503 -0.0008805087 0.0271979
v 0.01247503 -0.0008914378 0.01718622
v 0.01247503 0.01239767 0.0271979
v 0.01247503 -0.0008805087 0.0271979
v -0.01240917 -0.0008805099 0.0271979
v -0.01240917 0.01239767 0.0271979
v 0.01247503 0.01239767 0.0271979
v 0.00806829 0.01239767 0.03052869
v 0.00806829 0.03118101 0.0305287
v 0.01247503 0.03118101 0.02719791
v -0.008002462 0.01239767 0.03052869
v -0.008002462 0.03118101 0.0305287
v -0.01240917 0.03118101 0.02719791
v -0.01240917 0.01239767 0.0271979
v 0.00806829 0.01239767 0.03052869
v 0.01247503 0.01239767 0.0271979
v -0.01240917 0.01239767 0.0271979
v -0.008002462 0.01239767 0.03052869
v 0.01471934 -0.04281737 -0.176967
v 0.01471918 -0.008408908 -0.1907328
v -0.01465322 -0.008408908 -0.1907328
v -0.01465341 -0.04281737 -0.176967
v 0.01061936 -0.04662403 -0.1754441
v -0.01055343 -0.04662403 -0.1754441
vt 0.956027 0.6043031
vt 0.9403577 0.5730479
vt 0.9403577 0.7627473
vt 0.956027 0.7314918
vt 0.3389827 0.6057513
vt 0.1624616 0.6057515
vt 0.1624616 0.73294
vt 0.3389827 0.7329397
vt 0.5013945 0.605752
vt 0.5013945 0.7329402
vt 0.6903348 0.605751
vt 0.6903348 0.7329402
vt 0.8788749 0.6057513
vt 0.878875 0.73294
vt 0.9199992 0.5886426
vt 0.9199994 0.7500491
vt 0.1615907 0.7771659
vt 0.3350865 0.7764232
vt 0.3350866 0.5622678
vt 0.1615908 0.5615258
vt 0.5012448 0.5615678
vt 0.5012448 0.7771244
vt 0.6903467 0.5615745
vt 0.6903467 0.7771168
vt 0.8770498 0.5620174
vt 0.8770502 0.7766738
vt 0.9156532 0.5453033
vt 0.9156535 0.7933881
vt 0.6120391 0.5363493
vt 0.7846751 0.5379694
vt 0.8455046 0.3125737
vt 0.6564412 0.2864318
vt 0.8318164 0.4531231
vt 0.82214 0.5524793
vt 0.4464518 0.2816679
vt 0.4447476 0.532136
vt 0.2544188 0.533828
vt 0.2441413 0.2841816
vt 0.06592339 0.5478501
vt 0.04340768 0.30144
vt 0.02684712 0.5792701
vt 0.000441432 0.3017311
vt 0.6689801 0.9775736
vt 0.8591319 0.9775736
vt 0.8591319 0.787874
vt 0.6689801 0.787874
vt 0.8716798 0.8214679
vt 0.8716798 0.94398
vt 0.4612927 0.9775736
vt 0.4612927 0.787874
vt 0.2612292 0.9775736
vt 0.2612292 0.787874
vt 0.06116557 0.9775736
vt 0.06116557 0.787874
vt 0.01955044 0.9946816
vt 0.01955044 0.770767
vt 0.1883183 0.01355982
vt -0.0007141531 0.04821777
vt 0.06021327 0.2735081
vt 0.2328289 0.2634001
vt 0.01303518 0.1887436
vt 0.02275461 0.2880831
vt 0.3983006 0.00732255
vt 0.4001136 0.2577877
vt 0.6006172 0.01059389
vt 0.5904479 0.2602582
vt 0.8013732 0.02639484
vt 0.7789645 0.2728443
vt 0.8443396 0.02217627
vt 0.8180544 0.2997613
vt 0.1305048 0.7106791
vt 0.1305048 0.634357
vt 0.03565496 0.634357
vt 0.03565496 0.7106791
vt 0.8865132 0.8315024
vt 0.8865132 0.9327259
vt 0.9813631 0.9327259
vt 0.9813631 0.8315024
vt 0.9725246 0.3662105
vt 0.9514694 0.3662105
vt 0.9514694 0.5094016
vt 0.9725244 0.5094016
vt 0.8902133 0.3662105
vt 0.8902133 0.5094016
vt 0.8691583 0.5094016
vt 0.869158 0.3662105
vt 0.9721665 0.73071
vt 0.9848623 0.7643039
vt 0.9848624 0.574604
vt 0.9721665 0.6081977
vt 0.9798708 0.3020291
vt 0.9798702 0.01950979
vt 0.8679128 0.01950979
vt 0.8679121 0.3020291
vt 0.9642432 0.3332844
vt 0.8835399 0.3332844
vn 0 3.479776E-06 1
vn 0 3.479776E-06 1
vn 0 3.479776E-06 1
vn 0 3.479776E-06 1
vn -0.3830693 -0.9186156 0.09697115
vn -0.3850615 -0.9214432 0.05167159
vn 0.3850616 -0.9214432 0.05167159
vn 0.3830694 -0.9186155 0.09697115
vn -0.3833807 -0.9073327 0.17253
vn 0.3833807 -0.9073327 0.17253
vn -0.386855 -0.8878032 0.2492967
vn 0.386855 -0.8878032 0.2492967
vn -0.3687005 -0.8181204 0.4412924
vn 0.3686997 -0.8181201 0.4412934
vn -0.391714 -0.7223436 0.5698946
vn 0.3917147 -0.7223417 0.5698966
vn 0.7035435 -0.7095149 0.0401907
vn 0.7019602 -0.7088338 0.06932981
vn -0.7019601 -0.7088338 0.0693298
vn -0.7035434 -0.7095149 0.04019071
vn -0.7031706 -0.6986281 0.1321734
vn 0.7031706 -0.6986281 0.1321734
vn -0.7070932 -0.6807842 0.1911855
vn 0.7070932 -0.6807842 0.1911855
vn -0.7015589 -0.6060016 0.3749362
vn 0.7015586 -0.6060005 0.3749384
vn -0.6781992 -0.5264716 0.5127121
vn 0.6781982 -0.5264692 0.5127157
vn 1 0 0
vn 1 0 0
vn 1 0 0
vn 1 0 0
vn 1 0 0
vn 1 0 0
vn 1 0 0
vn 1 0 0
vn 1 0 0
vn 1 0 0
vn 0.9942087 0.03956997 0.09991582
vn 0.9939181 0.04054805 0.1023855
vn 0.9788149 0.07538974 0.1903622
vn 0.9788149 0.07538973 0.1903622
vn 0 0.9967806 -0.08017712
vn 0 0.9999913 -0.004164904
vn 0 0.9999913 -0.004164898
vn 0 0.9967806 -0.08017712
vn 0 1 0
vn 0 1 0
vn 0 0.9819456 -0.1891636
vn 0 0.9819456 -0.1891636
vn 0 0.9627351 -0.2704465
vn 0 0.9627351 -0.2704465
vn 0 0.9681593 -0.2503351
vn 0 0.9681593 -0.2503353
vn 0 0.9816056 -0.1909202
vn 0 0.9816056 -0.1909202
vn -1 0 0
vn -1 0 0
vn -1 0 0
vn -1 0 0
vn -1 0 0
vn -1 0 0
vn -1 0 0
vn -1 0 0
vn -1 0 0
vn -1 0 0
vn -0.9939185 0.04054671 0.1023816
vn -0.9942092 0.03956867 0.09991199
vn -0.9788165 0.07538726 0.190355
vn -0.9788165 0.07538726 0.190355
vn 0 -0.9999994 0.001091635
vn 0 -0.9999994 0.001091635
vn 0 -0.9999994 0.001091635
vn 0 -0.9999994 0.001091635
vn 0 -3.591133E-07 1
vn 0 -3.591133E-07 1
vn 0 -3.591133E-07 1
vn 0 -3.591133E-07 1
vn 0.6029775 -4.021234E-07 0.7977582
vn 0.3179951 -4.798303E-07 0.9480923
vn 0.3179951 -4.798304E-07 0.9480923
vn 0.6029775 -4.021234E-07 0.7977582
vn -0.3179967 -4.798315E-07 0.9480919
vn -0.3179966 -4.798315E-07 0.9480919
vn -0.60298 -4.021251E-07 0.7977563
vn -0.60298 -4.021251E-07 0.7977563
vn 0 -1 0
vn 0 -1 0
vn 0 -1 0
vn 0 -1 0
vn 0 -0.3714471 -0.9284541
vn 0 -0.3714473 -0.928454
vn 0 -0.3714473 -0.928454
vn 0 -0.3714472 -0.9284541
vn 0 -0.3714468 -0.9284542
vn 0 -0.3714468 -0.9284542
g mag_pp-19-01_pufgun_mag_sg-919_30_9x19_30_LOD1_0
f 3/3/3 2/2/2 1/1/1
f 4/4/4 3/3/3 1/1/1
f 7/7/7 6/6/6 5/5/5
f 8/8/8 7/7/7 5/5/5
f 5/5/5 9/9/9 8/8/8
f 9/9/9 10/10/10 8/8/8
f 9/9/9 11/11/11 10/10/10
f 11/11/11 12/12/12 10/10/10
f 11/11/11 13/13/13 12/12/12
f 13/13/13 14/14/14 12/12/12
f 13/13/13 15/15/15 14/14/14
f 15/15/15 16/16/16 14/14/14
f 17/17/17 7/7/7 8/8/8
f 18/18/18 17/17/17 8/8/8
f 18/18/18 8/8/8 10/10/10
f 19/19/19 5/5/5 6/6/6
f 20/20/20 19/19/19 6/6/6
f 21/21/21 9/9/9 5/5/5
f 19/19/19 21/21/21 5/5/5
f 22/22/22 18/18/18 10/10/10
f 22/22/22 10/10/10 12/12/12
f 23/23/23 11/11/11 9/9/9
f 21/21/21 23/23/23 9/9/9
f 24/24/24 22/22/22 12/12/12
f 24/24/24 12/12/12 14/14/14
f 25/25/25 13/13/13 11/11/11
f 23/23/23 25/25/25 11/11/11
f 26/26/26 24/24/24 14/14/14
f 26/26/26 14/14/14 16/16/16
f 27/27/27 15/15/15 13/13/13
f 25/25/25 27/27/27 13/13/13
f 28/28/28 26/26/26 16/16/16
f 31/31/31 30/30/30 29/29/29
f 32/32/32 31/31/31 29/29/29
f 31/31/31 33/33/33 30/30/30
f 33/33/33 34/34/34 30/30/30
f 35/35/35 32/32/32 29/29/29
f 36/36/36 35/35/35 29/29/29
f 35/35/35 36/36/36 37/37/37
f 38/38/38 35/35/35 37/37/37
f 38/38/38 37/37/37 39/39/39
f 40/40/40 38/38/38 39/39/39
f 40/40/40 39/39/39 41/41/41
f 42/42/42 40/40/40 41/41/41
f 45/45/45 44/44/44 43/43/43
f 46/46/46 45/45/45 43/43/43
f 44/44/44 45/45/45 47/47/47
f 48/48/48 44/44/44 47/47/47
f 43/43/43 49/49/49 46/46/46
f 49/49/49 50/50/50 46/46/46
f 49/49/49 51/51/51 50/50/50
f 51/51/51 52/52/52 50/50/50
f 51/51/51 53/53/53 52/52/52
f 53/53/53 54/54/54 52/52/52
f 53/53/53 55/55/55 54/54/54
f 55/55/55 56/56/56 54/54/54
f 59/59/59 58/58/58 57/57/57
f 60/60/60 59/59/59 57/57/57
f 59/59/59 61/61/61 58/58/58
f 62/62/62 61/61/61 59/59/59
f 57/57/57 63/63/63 60/60/60
f 63/63/63 64/64/64 60/60/60
f 63/63/63 65/65/65 64/64/64
f 65/65/65 66/66/66 64/64/64
f 65/65/65 67/67/67 66/66/66
f 67/67/67 68/68/68 66/66/66
f 67/67/67 69/69/69 68/68/68
f 69/69/69 70/70/70 68/68/68
f 73/73/73 72/72/72 71/71/71
f 74/74/74 73/73/73 71/71/71
f 77/77/77 76/76/76 75/75/75
f 78/78/78 77/77/77 75/75/75
f 81/81/81 80/80/80 79/79/79
f 82/82/82 81/81/81 79/79/79
f 80/80/80 81/81/81 83/83/83
f 81/81/81 84/84/84 83/83/83
f 83/83/83 84/84/84 85/85/85
f 86/86/86 83/83/83 85/85/85
f 89/89/89 88/88/88 87/87/87
f 90/90/90 89/89/89 87/87/87
f 93/93/93 92/92/92 91/91/91
f 94/94/94 93/93/93 91/91/91
f 94/94/94 91/91/91 95/95/95
f 96/96/96 94/94/94 95/95/95
