g mag_fal_ds_arms_fal_sa58_762x51_10_LOD1
v 0.01287868 -0.03938233 -0.001539242
v 0.0128787 -0.03938232 0.07613175
v 0.01287868 0.04092347 0.07613175
v 0.01287867 0.04092347 -0.01475053
v -0.0128166 0.04092347 0.07613176
v -0.01281659 -0.03938233 0.07613176
v -0.0128166 -0.03938233 -0.00153924
v -0.01281661 0.04092347 -0.01475054
v 0.01287868 -0.03938233 -0.001539242
v -0.0128166 -0.03938233 -0.00153924
v -0.01281659 -0.03938233 0.07613176
v 0.0128787 -0.03938232 0.07613175
v 0.0128787 -0.03938232 0.07613175
v -0.01281659 -0.03938233 0.07613176
v -0.0128166 0.04092347 0.07613176
v 0.01287868 0.04092347 0.07613175
v 0.01287868 0.04092347 0.07613175
v -0.0128166 0.04092347 0.07613176
v -0.01281661 0.04092347 -0.01475054
v 0.01287867 0.04092347 -0.01475053
v 0.01287867 0.04092347 -0.01475053
v -0.01281661 0.04092347 -0.01475054
v -0.0128166 -0.03938233 -0.00153924
v 0.01287868 -0.03938233 -0.001539242
vt 0.4150041 0.003945699
vt 0.755524 0.003945699
vt 0.755524 0.7446541
vt 0.357084 0.7446541
vt 0.005027627 0.003937982
vt 0.005027647 0.7446463
vt 0.3455477 0.7446463
vt 0.4034678 0.003937982
vt 0.8723407 0.003938196
vt 0.7596892 0.003937903
vt 0.7596892 0.720344
vt 0.8723407 0.7203441
vt 0.9901603 0.003937903
vt 0.8775088 0.003937903
vt 0.8775088 0.7446463
vt 0.9901603 0.7446463
vt 0.4024454 0.9963715
vt 0.4024454 0.7593685
vt 0.004005131 0.7593685
vt 0.004005131 0.9963715
vt 0.7657889 0.9957498
vt 0.7657889 0.7587471
vt 0.4137174 0.7587471
vt 0.4137174 0.9957498
vn 1 1.596574E-07 -1.343775E-07
vn 1 1.596574E-07 -1.343775E-07
vn 1 1.596574E-07 -1.343775E-07
vn 1 1.596575E-07 -1.343775E-07
vn -1 -1.516535E-07 1.414499E-07
vn -1 -1.516535E-07 1.414499E-07
vn -1 -1.516535E-07 1.414499E-07
vn -1 -1.516535E-07 1.414499E-07
vn 1.855738E-07 -1 0
vn 1.855738E-07 -1 0
vn 1.855738E-07 -1 0
vn 1.855738E-07 -1 0
vn 2.783607E-07 0 1
vn 2.783607E-07 0 1
vn 2.783607E-07 0 1
vn 2.783607E-07 0 1
vn 0 1 0
vn 0 1 0
vn 0 1 0
vn 0 1 0
vn 1.482123E-07 -0.1623303 -0.9867365
vn 1.482123E-07 -0.1623303 -0.9867365
vn 1.482123E-07 -0.1623303 -0.9867365
vn 1.482123E-07 -0.1623303 -0.9867365
g mag_fal_ds_arms_fal_sa58_762x51_10_LOD1_0
f 3/3/3 2/2/2 1/1/1
f 4/4/4 3/3/3 1/1/1
f 7/7/7 6/6/6 5/5/5
f 8/8/8 7/7/7 5/5/5
f 11/11/11 10/10/10 9/9/9
f 12/12/12 11/11/11 9/9/9
f 15/15/15 14/14/14 13/13/13
f 16/16/16 15/15/15 13/13/13
f 19/19/19 18/18/18 17/17/17
f 20/20/20 19/19/19 17/17/17
f 23/23/23 22/22/22 21/21/21
f 24/24/24 23/23/23 21/21/21
