g mag_ak_izhmash_ak_std_55_762x39_30_LOD1
v 0.01198845 -0.02783254 -0.1039516
v 0.00771916 -0.05102284 -0.1079136
v 0.007425779 -0.02746144 -0.08099065
v 0.01198845 0.007655764 -0.04062445
v 0.007425779 -0.01156784 -0.05251615
v 0.00771916 -0.001777339 -0.02236485
v 0.01347765 0.01838816 0.01464899
v 0.00954639 -0.0004713392 0.01234215
v 0.01347475 -0.07504784 -0.1430606
v 0.007021149 -0.08364784 -0.1300506
v 0.01198845 -0.01142744 -0.1503696
v 0.01198845 -0.02783254 -0.1039516
v 0.01198845 0.02228876 -0.1112876
v 0.01347475 -0.07504784 -0.1430606
v 0.01347475 -0.05132783 -0.1790996
v 0.01198845 0.04407046 -0.06931495
v 0.01198845 0.007655764 -0.04062445
v 0.01198845 0.05457541 -0.03349795
v 0.01191945 0.05842805 -0.01211215
v 0.01347765 0.01838816 0.01464899
v 0.01347765 0.06020334 0.01766842
v 0.005161279 0.06458817 -0.01496065
v 0.01191945 0.05842805 -0.01211215
v 0.005254819 0.06467458 -0.01045465
v 0.01347765 0.06020334 0.01766842
v -1.685046E-05 0.06092242 0.02002548
v 0.01198845 0.05457541 -0.03349795
v -1.685046E-05 0.06065932 -0.03184485
v -1.685046E-05 0.04894186 -0.07059335
v 0.01198845 0.04407046 -0.06931495
v 0.01198845 0.02228876 -0.1112876
v -1.685046E-05 0.02601646 -0.1145806
v 0.01198845 -0.01142744 -0.1503696
v -1.685046E-05 -0.008466039 -0.1545736
v -1.685046E-05 -0.04472784 -0.1812536
v 0.01347475 -0.05132783 -0.1790996
v 0.005254819 0.06467458 -0.01045465
v 0.004994149 0.06922766 -0.01197465
v 0.005161279 0.06458817 -0.01496065
v -0.01202215 -0.01142744 -0.1503696
v -0.01202215 0.02228876 -0.1112876
v -0.01202215 -0.02783254 -0.1039516
v -0.01350845 -0.07504784 -0.1430606
v -0.01350845 -0.05132783 -0.1790996
v -0.01202215 0.04407046 -0.06931495
v -0.01202215 0.007655764 -0.04062445
v -0.01202215 0.05457541 -0.03349795
v -0.01195315 0.05842805 -0.01211215
v -0.01351135 0.01838816 0.01464899
v -0.01351135 0.06020334 0.01766842
v 0.01347765 0.01838816 0.01464899
v 0.00954639 -0.0004713392 0.01234215
v -1.685046E-05 0.01891056 0.01670114
v -1.685046E-05 -0.001882539 0.009079951
v -1.685046E-05 -0.04472784 -0.1812536
v -0.01350845 -0.05132783 -0.1790996
v 0.01347475 -0.05132783 -0.1790996
v -1.685046E-05 0.06065932 -0.03184485
v 0.005161279 0.06458817 -0.01496065
v -0.00519498 0.06458817 -0.01496065
v -0.00958005 -0.0004713392 0.01234215
v -1.685046E-05 -0.001882539 0.009079951
v -0.00775286 -0.001777339 -0.02236485
v 0.00771916 -0.001777339 -0.02236485
v 0.00954639 -0.0004713392 0.01234215
v -0.00745948 -0.01156784 -0.05251615
v 0.007425779 -0.01156784 -0.05251615
v 0.007425779 -0.02746144 -0.08099065
v -0.00745948 -0.02746144 -0.08099065
v -0.00775286 -0.05102284 -0.1079136
v 0.00771916 -0.05102284 -0.1079136
v 0.007021149 -0.08364784 -0.1300506
v -0.00705484 -0.08364784 -0.1300506
v -1.685046E-05 0.06092242 0.02002548
v -0.00528852 0.06467458 -0.01045465
v 0.005254819 0.06467458 -0.01045465
v -0.00528852 0.06467458 -0.01045465
v -0.00519498 0.06458817 -0.01496065
v -0.00502785 0.06922766 -0.01197465
v -0.01202215 -0.02783254 -0.1039516
v -0.00745948 -0.02746144 -0.08099065
v -0.00775286 -0.05102284 -0.1079136
v -0.01202215 0.007655764 -0.04062445
v -0.00745948 -0.01156784 -0.05251615
v -0.00775286 -0.001777339 -0.02236485
v -0.01351135 0.01838816 0.01464899
v -0.00958005 -0.0004713392 0.01234215
v -0.01350845 -0.07504784 -0.1430606
v -0.00705484 -0.08364784 -0.1300506
v -0.00519498 0.06458817 -0.01496065
v -0.00528852 0.06467458 -0.01045465
v -0.01195315 0.05842805 -0.01211215
v -0.01202215 0.05457541 -0.03349795
v -1.685046E-05 0.06065932 -0.03184485
v -0.01351135 0.06020334 0.01766842
v -1.685046E-05 0.06092242 0.02002548
v -1.685046E-05 0.04894186 -0.07059335
v -0.01202215 0.04407046 -0.06931495
v -0.01202215 0.02228876 -0.1112876
v -1.685046E-05 0.02601646 -0.1145806
v -0.01202215 -0.01142744 -0.1503696
v -1.685046E-05 -0.008466039 -0.1545736
v -1.685046E-05 -0.04472784 -0.1812536
v -0.01350845 -0.05132783 -0.1790996
v -0.01351135 0.01838816 0.01464899
v -1.685046E-05 0.01891056 0.01670114
v -0.00958005 -0.0004713392 0.01234215
v -1.685046E-05 -0.001882539 0.009079951
v 0.01347475 -0.07504784 -0.1430606
v -0.01350845 -0.07504784 -0.1430606
v 0.007021149 -0.08364784 -0.1300506
v -0.00705484 -0.08364784 -0.1300506
v -0.01350845 -0.05132783 -0.1790996
v 0.01347475 -0.05132783 -0.1790996
v -1.685046E-05 0.06092242 0.02002548
v 0.01347765 0.06020334 0.01766842
v -1.685046E-05 0.01891056 0.01670114
v 0.01347765 0.01838816 0.01464899
v 0.005254819 0.06467458 -0.01045465
v -0.00528852 0.06467458 -0.01045465
v 0.004994149 0.06922766 -0.01197465
v -0.00502785 0.06922766 -0.01197465
v 0.005161279 0.06458817 -0.01496065
v 0.004994149 0.06922766 -0.01197465
v -0.00519498 0.06458817 -0.01496065
v -0.00502785 0.06922766 -0.01197465
v -1.685046E-05 0.06092242 0.02002548
v -1.685046E-05 0.01891056 0.01670114
v -0.01351135 0.06020334 0.01766842
v -0.01351135 0.01838816 0.01464899
vt 0.720369 0.490326
vt 0.846766 0.566614
vt 0.846766 0.414218
vt 0.720369 0.216713
vt 0.846766 0.304617
vt 0.846766 0.182569
vt 0.720369 0.015555
vt 0.846766 0.015555
vt 0.720369 0.717931
vt 0.846766 0.717931
vt 0.0245051 0.783327
vt 0.404736 0.672092
vt 0.0245051 0.572372
vt 0.404736 0.984366
vt 0.0245051 0.984366
vt 0.0245051 0.379107
vt 0.404736 0.302455
vt 0.0245051 0.226557
vt 0.0245051 0.137746
vt 0.404736 0.0156509
vt 0.0245051 0.0156509
vt 0.544952 0.841396
vt 0.42656 0.862271
vt 0.544952 0.859466
vt 0.42656 0.984366
vt 0.544952 0.984366
vt 0.42656 0.77346
vt 0.544952 0.768875
vt 0.544952 0.606608
vt 0.42656 0.620909
vt 0.42656 0.427645
vt 0.544952 0.407777
vt 0.42656 0.216689
vt 0.544952 0.196108
vt 0.544952 0.0156509
vt 0.42656 0.0156509
vt 0.972027 0.965999
vt 0.913064 0.985576
vt 0.972027 0.985576
vt 1.02451 0.783327
vt 1.02451 0.572372
vt 1.40474 0.672092
vt 1.40474 0.984366
vt 1.02451 0.984366
vt 1.02451 0.379107
vt 1.40474 0.302455
vt 1.02451 0.226557
vt 1.02451 0.137746
vt 1.40474 0.0156509
vt 1.02451 0.0156509
vt 0.977109 0.543077
vt 0.977109 0.431727
vt 0.868352 0.543077
vt 0.868352 0.431727
vt 0.850244 0.985053
vt 0.975801 0.958222
vt 0.724687 0.958222
vt 0.977109 0.695908
vt 0.875897 0.556945
vt 0.977109 0.556945
vt 0.698083 0.0147785
vt 0.631907 0.0147785
vt 0.698083 0.193675
vt 0.565732 0.193676
vt 0.565732 0.0147785
vt 0.698085 0.373192
vt 0.565734 0.373192
vt 0.565736 0.557847
vt 0.698086 0.557847
vt 0.698088 0.760442
vt 0.565738 0.760443
vt 0.56574 0.983733
vt 0.69809 0.983732
vt 0.868621 0.565861
vt 0.868621 0.717741
vt 0.971662 0.717741
vt 0.71755 0.985925
vt 0.779034 0.985925
vt 0.71755 0.965013
vt 1.72037 0.490326
vt 1.84677 0.414218
vt 1.84677 0.566614
vt 1.72037 0.216713
vt 1.84677 0.304617
vt 1.84677 0.182569
vt 1.72037 0.015555
vt 1.84677 0.015555
vt 1.72037 0.717931
vt 1.84677 0.717931
vt 1.54495 0.841396
vt 1.54495 0.859466
vt 1.42656 0.862271
vt 1.42656 0.77346
vt 1.54495 0.768875
vt 1.42656 0.984366
vt 1.54495 0.984366
vt 1.54495 0.606608
vt 1.42656 0.620909
vt 1.42656 0.427645
vt 1.54495 0.407777
vt 1.42656 0.216689
vt 1.54495 0.196108
vt 1.54495 0.0156509
vt 1.42656 0.0156509
vt 1.97711 0.543077
vt 1.86835 0.543077
vt 1.97711 0.431727
vt 1.86835 0.431727
vt 0.724688 0.781424
vt 0.975802 0.781424
vt 0.724688 0.728588
vt 0.975802 0.728588
vt 0.975801 0.953735
vt 0.724687 0.953734
vt 0.977109 0.0166202
vt 0.868139 0.0166202
vt 0.977109 0.2616
vt 0.868139 0.2616
vt 0.977109 0.41736
vt 0.977109 0.354183
vt 0.870234 0.41736
vt 0.870234 0.354183
vt 0.870234 0.339361
vt 0.977109 0.339361
vt 0.870234 0.274852
vt 0.977109 0.274852
vt 1.97711 0.0166202
vt 1.97711 0.2616
vt 1.86814 0.0166202
vt 1.86814 0.2616
vn 0.9474304 -0.2367031 0.2152846
vn 0.933782 -0.220712 0.2816692
vn 0.9316975 -0.3095755 0.1900068
vn 0.9478391 -0.3053393 0.09148168
vn 0.9321893 -0.3226945 0.1639864
vn 0.9503416 -0.3087243 0.03924515
vn 0.9713084 -0.2367938 -0.02210534
vn 0.9790698 -0.1986966 -0.04406856
vn 0.9243456 -0.2271052 0.3066082
vn 0.9238076 -0.2283031 0.3073389
vn 0.9998473 0.01577068 0.007529105
vn 0.9999598 0.008453815 0.002987758
vn 1 0 0
vn 0.9996102 0.024821 0.01277877
vn 0.9995426 0.02526146 0.01662649
vn 1 0 0
vn 0.9999628 0.004584859 -0.00730551
vn 0.9999979 -0.0003154314 0.002076747
vn 0.9995704 0.007897981 -0.02822206
vn 0.9991737 0.01319091 -0.03844198
vn 0.998615 0.00378925 -0.05247617
vn 0.6375172 0.7595829 -0.128863
vn 0.6838291 0.7239155 -0.09123533
vn 0.6099285 0.7919321 -0.02882079
vn 0.1881629 0.9770014 0.1003154
vn 0.07618856 0.9879402 0.1347944
vn 0.4439943 0.8562748 -0.2639365
vn 0.3993204 0.8680965 -0.2948757
vn 0.3861202 0.8565831 -0.3423107
vn 0.3841345 0.8556662 -0.3468083
vn 0.3804097 0.7673018 -0.5162717
vn 0.3803225 0.7635504 -0.5218675
vn 0.3899045 0.627502 -0.6739553
vn 0.3909464 0.6227967 -0.6777059
vn 0.3877055 0.5477887 -0.7413582
vn 0.3866261 0.5483298 -0.7415219
vn 0.9985175 0.04992689 -0.02168571
vn 0.9985175 0.04992689 -0.0216857
vn 0.9985175 0.04992689 -0.0216857
vn -0.9998473 0.01577068 0.007529105
vn -1 0 0
vn -0.9999598 0.008453815 0.002987758
vn -0.9996102 0.024821 0.01277877
vn -0.9995426 0.02526146 0.01662649
vn -1 0 0
vn -0.9999628 0.004584848 -0.007305519
vn -0.9999979 -0.0003154205 0.002076675
vn -0.9995704 0.007897965 -0.02822206
vn -0.9991737 0.01319087 -0.03844194
vn -0.998615 0.003789244 -0.05247609
vn 0.1429971 -0.1494791 0.97837
vn -0.1305857 -0.2784331 0.9515368
vn 0.0200448 -0.2099509 0.9775064
vn -0.2602162 -0.3322819 0.906574
vn 0 -0.3102568 -0.9506528
vn 0 -0.3102568 -0.9506528
vn 0 -0.3102568 -0.9506528
vn 0 0.9739789 -0.2266385
vn 0 0.9739789 -0.2266385
vn 0 0.9739789 -0.2266385
vn -0.1358585 -0.9902706 0.03011075
vn -2.690942E-07 -0.99966 0.02607175
vn -0.01280534 -0.9878802 0.1546897
vn 0.01280532 -0.9878802 0.1546896
vn 0.135858 -0.9902706 0.03011062
vn 0 -0.9166238 0.3997512
vn 0 -0.9166238 0.3997512
vn 0 -0.8171911 0.5763669
vn 0 -0.8171911 0.5763669
vn 0 -0.6627016 0.7488835
vn 0 -0.6627015 0.7488835
vn 0 -0.5614772 0.8274921
vn 0 -0.5614772 0.8274921
vn 0 0.992508 0.1221796
vn 0 0.992508 0.1221796
vn 0 0.992508 0.1221796
vn -0.9985175 0.04992696 -0.02168571
vn -0.9985175 0.04992695 -0.0216857
vn -0.9985175 0.04992696 -0.0216857
vn -0.9474304 -0.2367031 0.2152846
vn -0.9316975 -0.3095755 0.1900068
vn -0.9337819 -0.2207121 0.2816692
vn -0.9478391 -0.3053393 0.09148168
vn -0.9321893 -0.3226945 0.1639864
vn -0.9503415 -0.3087246 0.03924531
vn -0.9713081 -0.2367954 -0.02210443
vn -0.9790694 -0.1986988 -0.04406734
vn -0.9243454 -0.2271056 0.3066084
vn -0.9238074 -0.2283036 0.3073392
vn -0.6375172 0.7595829 -0.1288631
vn -0.6099285 0.7919321 -0.02882077
vn -0.6838291 0.7239156 -0.09123535
vn -0.4439943 0.8562748 -0.2639364
vn -0.3993204 0.8680965 -0.2948757
vn -0.1881629 0.9770014 0.1003154
vn -0.07618856 0.9879402 0.1347944
vn -0.3861202 0.8565831 -0.3423107
vn -0.3841345 0.8556662 -0.3468083
vn -0.3804097 0.7673018 -0.5162717
vn -0.3803225 0.7635504 -0.5218675
vn -0.3899045 0.627502 -0.6739553
vn -0.3909464 0.6227967 -0.6777059
vn -0.3877055 0.5477887 -0.7413582
vn -0.3866261 0.5483298 -0.7415219
vn -0.1429971 -0.1494794 0.97837
vn -0.02004486 -0.2099509 0.9775064
vn 0.1305866 -0.2784331 0.9515367
vn 0.2602172 -0.3322819 0.9065737
vn 0 -0.8348402 -0.5504924
vn 0 -0.8348402 -0.5504924
vn 0 -0.834214 -0.5514408
vn 0 -0.834214 -0.5514407
vn 0 -0.8353093 -0.5497804
vn 0 -0.8353093 -0.5497804
vn 0.1675194 -0.07776736 0.9827968
vn 0.1635706 -0.07649479 0.9835615
vn 0.1512765 -0.07253014 0.9858269
vn 0.1472667 -0.07123617 0.9865282
vn 0 0.3166606 0.948539
vn 0 0.3166606 0.948539
vn 0 0.3166606 0.948539
vn 0 0.3166606 0.948539
vn 0 0.541202 -0.8408927
vn 0 0.541202 -0.8408927
vn 0 0.541202 -0.8408927
vn 0 0.5412021 -0.8408926
vn -0.1675194 -0.07776736 0.9827968
vn -0.1512765 -0.07253014 0.9858269
vn -0.1635706 -0.07649479 0.9835615
vn -0.1472667 -0.07123617 0.9865282
g mag_ak_izhmash_ak_std_55_762x39_30_LOD1_0
f 3/3/3 2/2/2 1/1/1
f 1/1/1 4/4/4 3/3/3
f 5/5/5 3/3/3 4/4/4
f 6/6/6 5/5/5 4/4/4
f 7/7/7 6/6/6 4/4/4
f 6/6/6 7/7/7 8/8/8
f 2/2/2 9/9/9 1/1/1
f 9/9/9 2/2/2 10/10/10
f 13/13/13 12/12/12 11/11/11
f 14/14/14 11/11/11 12/12/12
f 11/11/11 14/14/14 15/15/15
f 16/16/16 12/12/12 13/13/13
f 12/12/12 16/16/16 17/17/17
f 18/18/18 17/17/17 16/16/16
f 19/19/19 17/17/17 18/18/18
f 19/19/19 20/20/20 17/17/17
f 20/20/20 19/19/19 21/21/21
f 24/24/24 23/23/23 22/22/22
f 24/24/24 25/25/25 23/23/23
f 25/25/25 24/24/24 26/26/26
f 23/23/23 27/27/27 22/22/22
f 28/28/28 22/22/22 27/27/27
f 27/27/27 29/29/29 28/28/28
f 29/29/29 27/27/27 30/30/30
f 31/31/31 29/29/29 30/30/30
f 29/29/29 31/31/31 32/32/32
f 33/33/33 32/32/32 31/31/31
f 32/32/32 33/33/33 34/34/34
f 33/33/33 35/35/35 34/34/34
f 35/35/35 33/33/33 36/36/36
f 39/39/39 38/38/38 37/37/37
f 42/42/42 41/41/41 40/40/40
f 40/40/40 43/43/43 42/42/42
f 43/43/43 40/40/40 44/44/44
f 41/41/41 42/42/42 45/45/45
f 46/46/46 45/45/45 42/42/42
f 46/46/46 47/47/47 45/45/45
f 46/46/46 48/48/48 47/47/47
f 49/49/49 48/48/48 46/46/46
f 48/48/48 49/49/49 50/50/50
f 53/53/53 52/52/52 51/51/51
f 52/52/52 53/53/53 54/54/54
f 57/57/57 56/56/56 55/55/55
f 60/60/60 59/59/59 58/58/58
f 63/63/63 62/62/62 61/61/61
f 63/63/63 64/64/64 62/62/62
f 62/62/62 64/64/64 65/65/65
f 66/66/66 64/64/64 63/63/63
f 64/64/64 66/66/66 67/67/67
f 66/66/66 68/68/68 67/67/67
f 68/68/68 66/66/66 69/69/69
f 70/70/70 68/68/68 69/69/69
f 68/68/68 70/70/70 71/71/71
f 70/70/70 72/72/72 71/71/71
f 72/72/72 70/70/70 73/73/73
f 76/76/76 75/75/75 74/74/74
f 79/79/79 78/78/78 77/77/77
f 82/82/82 81/81/81 80/80/80
f 83/83/83 80/80/80 81/81/81
f 81/81/81 84/84/84 83/83/83
f 84/84/84 85/85/85 83/83/83
f 85/85/85 86/86/86 83/83/83
f 86/86/86 85/85/85 87/87/87
f 88/88/88 82/82/82 80/80/80
f 82/82/82 88/88/88 89/89/89
f 92/92/92 91/91/91 90/90/90
f 92/92/92 90/90/90 93/93/93
f 94/94/94 93/93/93 90/90/90
f 95/95/95 91/91/91 92/92/92
f 91/91/91 95/95/95 96/96/96
f 97/97/97 93/93/93 94/94/94
f 93/93/93 97/97/97 98/98/98
f 97/97/97 99/99/99 98/98/98
f 99/99/99 97/97/97 100/100/100
f 100/100/100 101/101/101 99/99/99
f 101/101/101 100/100/100 102/102/102
f 103/103/103 101/101/101 102/102/102
f 101/101/101 103/103/103 104/104/104
f 107/107/107 106/106/106 105/105/105
f 106/106/106 107/107/107 108/108/108
f 111/111/111 110/110/110 109/109/109
f 110/110/110 111/111/111 112/112/112
f 113/113/113 109/109/109 110/110/110
f 109/109/109 113/113/113 114/114/114
f 117/117/117 116/116/116 115/115/115
f 116/116/116 117/117/117 118/118/118
f 121/121/121 120/120/120 119/119/119
f 120/120/120 121/121/121 122/122/122
f 125/125/125 124/124/124 123/123/123
f 124/124/124 125/125/125 126/126/126
f 129/129/129 128/128/128 127/127/127
f 128/128/128 129/129/129 130/130/130
