g mag_m700_ai_aics_762x51_5_LOD1
v -0.006896069 -0.007402737 0.04128578
v -0.007031153 -0.009690118 0.03822781
v -0.007676255 0.02677213 0.03821652
v -0.007397921 0.02657857 0.0412852
v -0.01001268 -0.01517263 -0.01113383
v -0.01105091 0.02922235 -0.01420145
v -0.005567417 -0.005292439 0.04465538
v -0.005850426 0.02592586 0.04465659
v -0.004832506 0.02391132 0.04600595
v -0.004627666 -0.0033344 0.04600636
v -0.01139903 0.03751671 -0.02280981
v -0.01112581 0.03751583 0.03607611
v -0.01085413 0.02945841 0.03618224
v -0.01047303 0.03751583 0.03800736
v -0.009808627 0.02963877 0.03798096
v -0.009523302 -0.03761639 -0.01690888
v -0.009523303 -0.03732441 0.03632641
v -0.01005511 -0.01862215 0.03625072
v -0.008792185 -0.01864215 0.03803384
v -0.008530494 -0.03732442 0.03804825
v -0.006920967 -0.01252483 0.03802554
v -0.01085413 0.02945841 0.03618224
v -0.007676255 0.02677213 0.03821652
v -0.01105091 0.02922235 -0.01420145
v -0.009808627 0.02963877 0.03798096
v -0.01005511 -0.01862215 0.03625072
v -0.006920967 -0.01252483 0.03802554
v -0.008792185 -0.01864215 0.03803384
v -0.01001268 -0.01517263 -0.01113383
v -0.01139903 0.03751671 -0.02280981
v -0.009523302 -0.03761639 -0.01690888
v 0.009523304 -0.03761639 -0.01690888
v 0.01139903 0.03751671 -0.02280981
v -0.007031153 -0.009690118 0.03822781
v -0.006896069 -0.007402737 0.04128578
v 0.006896071 -0.007402737 0.04128578
v 0.007031156 -0.009690115 0.03822781
v -0.005567417 -0.005292439 0.04465538
v 0.005567417 -0.005292439 0.04465538
v 0.004627666 -0.003334399 0.04600636
v -0.004627666 -0.0033344 0.04600636
v 0.004832506 0.02391132 0.04600595
v -0.004832506 0.02391132 0.04600595
v 0.005850427 0.02592586 0.04465659
v -0.005850426 0.02592586 0.04465659
v 0.007397923 0.02657857 0.0412852
v -0.007397921 0.02657857 0.0412852
v -0.007676255 0.02677213 0.03821652
v 0.007676258 0.02677213 0.03821652
v 0.006920969 -0.01252483 0.03802554
v -0.008792185 -0.01864215 0.03803384
v -0.006920967 -0.01252483 0.03802554
v 0.008792185 -0.01864215 0.03803384
v 0.008530497 -0.03732442 0.03804825
v -0.008530494 -0.03732442 0.03804825
v -0.009523303 -0.03732441 0.03632641
v 0.009523306 -0.03732441 0.03632641
v 0.009523304 -0.03761639 -0.01690888
v -0.009523302 -0.03761639 -0.01690888
v -0.008530494 -0.03732442 0.03804825
v 0.008530497 -0.03732442 0.03804825
v 0.006896071 -0.007402737 0.04128578
v 0.007397923 0.02657857 0.0412852
v 0.007676258 0.02677213 0.03821652
v 0.007031156 -0.009690115 0.03822781
v 0.01001268 -0.01517263 -0.01113383
v 0.01105091 0.02922235 -0.01420145
v 0.005567417 -0.005292439 0.04465538
v 0.005850427 0.02592586 0.04465659
v 0.004832506 0.02391132 0.04600595
v 0.004627666 -0.003334399 0.04600636
v 0.01139903 0.03751671 -0.02280981
v 0.01112581 0.03751583 0.03607611
v 0.01085414 0.02945841 0.03618224
v 0.01047303 0.03751583 0.03800736
v 0.009808629 0.02963877 0.03798096
v 0.009523304 -0.03761639 -0.01690888
v 0.009523306 -0.03732441 0.03632641
v 0.01005511 -0.01862215 0.03625072
v 0.008792185 -0.01864215 0.03803384
v 0.008530497 -0.03732442 0.03804825
v 0.006920969 -0.01252483 0.03802554
v 0.01085414 0.02945841 0.03618224
v 0.01105091 0.02922235 -0.01420145
v 0.007676258 0.02677213 0.03821652
v 0.009808629 0.02963877 0.03798096
v 0.01005511 -0.01862215 0.03625072
v 0.008792185 -0.01864215 0.03803384
v 0.006920969 -0.01252483 0.03802554
v 0.01001268 -0.01517263 -0.01113383
v -0.01047303 0.03751583 0.03800736
v 0.01047303 0.03751583 0.03800736
v 0.009808629 0.02963877 0.03798096
v -0.009808627 0.02963877 0.03798096
v 0.007676258 0.02677213 0.03821652
v -0.007676255 0.02677213 0.03821652
v -0.01139903 0.03751671 -0.02280981
v 0.01139903 0.03751671 -0.02280981
v 0.01112581 0.03751583 0.03607611
v -0.01112581 0.03751583 0.03607611
v 0.01047303 0.03751583 0.03800736
v -0.01047303 0.03751583 0.03800736
vt 0.3549895 0.4359775
vt 0.3696308 0.4136394
vt 0.1133732 0.4310159
vt 0.1162985 0.452829
vt 0.3838447 0.06360317
vt 0.07050001 0.06326818
vt 0.3421161 0.4618277
vt 0.1229931 0.4792277
vt 0.1382127 0.4902791
vt 0.3293728 0.4741324
vt 0.008054155 0.006758945
vt 0.03628292 0.4206589
vt 0.09292632 0.4170683
vt 0.03762281 0.4351174
vt 0.09314138 0.4314526
vt 0.5388054 0.01230809
vt 0.5621583 0.3861272
vt 0.4307313 0.395102
vt 0.4323033 0.4106774
vt 0.5634017 0.3997642
vt 0.3896175 0.4108617
vt 0.9455794 0.9604895
vt 0.973647 0.9770814
vt 0.9736469 0.6069243
vt 0.9485378 0.9748892
vt 0.9329224 0.02901963
vt 0.9818932 0.01969506
vt 0.9371928 0.01424221
vt 0.9329224 0.3634607
vt 0.760529 0.01511432
vt 0.7735808 0.5395216
vt 0.9061124 0.5395216
vt 0.9191642 0.01511432
vt 0.6422099 0.6509556
vt 0.6431609 0.6778372
vt 0.7402491 0.6778372
vt 0.7412 0.6509556
vt 0.6525138 0.7058242
vt 0.7308962 0.7058243
vt 0.724281 0.7225695
vt 0.659129 0.7225695
vt 0.7257229 0.9143624
vt 0.6576871 0.9143624
vt 0.7328885 0.9314305
vt 0.6505216 0.9314305
vt 0.7437819 0.9556035
vt 0.6396283 0.9556035
vt 0.637669 0.977248
vt 0.7457412 0.977248
vt 0.7404243 0.6309505
vt 0.6298133 0.5878884
vt 0.6429855 0.6309505
vt 0.7535965 0.5878884
vt 0.7517543 0.4563766
vt 0.6316554 0.4563766
vt 0.7725907 0.9397944
vt 0.9050642 0.9397944
vt 0.9050643 0.5695248
vt 0.7725908 0.5695248
vt 0.7794959 0.9517702
vt 0.898159 0.9517702
vt 0.2158265 0.9348321
vt 0.4545176 0.9516836
vt 0.4574428 0.9298707
vt 0.2011852 0.9124942
vt 0.1869712 0.562458
vt 0.500316 0.562123
vt 0.2287 0.9606822
vt 0.447823 0.9780822
vt 0.4326033 0.9891337
vt 0.2414432 0.972987
vt 0.5627618 0.5056137
vt 0.534533 0.9195138
vt 0.4778896 0.9159231
vt 0.5331929 0.9339721
vt 0.4776744 0.9303074
vt 0.03201052 0.511163
vt 0.008657484 0.8849823
vt 0.1400845 0.8939571
vt 0.1385125 0.9095324
vt 0.007414059 0.8986193
vt 0.1811985 0.9097166
vt 0.929792 0.5634362
vt 0.9313899 0.9181275
vt 0.9590201 0.5489823
vt 0.9338154 0.5492973
vt 0.9371983 0.4819088
vt 0.9393419 0.4971408
vt 0.9843647 0.4980465
vt 0.9843637 0.1508099
vt 0.5672753 0.7629031
vt 0.5672753 0.9103507
vt 0.6227255 0.9056737
vt 0.6227255 0.7675801
vt 0.6429729 0.8906631
vt 0.6429729 0.7825907
vt 0.740564 0.01425368
vt 0.5802196 0.0142538
vt 0.5821414 0.4284138
vt 0.7386427 0.4284137
vt 0.5867326 0.4419968
vt 0.7340515 0.4419967
vn -0.9838502 -0.01474029 0.1783855
vn -0.9974691 -0.02658062 0.06594639
vn -0.9975605 -0.01735696 0.06761587
vn -0.9745497 -0.0140428 0.2237311
vn -0.9995022 -0.02268562 0.02192863
vn -0.9994098 -0.02684579 0.02143372
vn -0.8955296 -0.01002848 0.4448889
vn -0.8923296 -0.00989431 0.4512759
vn -0.8096949 -0.006771276 0.5868121
vn -0.8096713 -0.006762161 0.5868447
vn -0.9995226 -0.02965928 0.008651618
vn -0.9761608 -0.04429834 0.2124794
vn -0.97636 -0.0442505 0.2115727
vn -0.9079641 -0.05130738 0.4158949
vn -0.9079674 -0.05123604 0.4158964
vn -0.9997005 -0.02441405 0.001692771
vn -0.9589221 -0.02143376 0.2828588
vn -0.9620445 -0.02160076 0.2720361
vn -0.8408207 -0.01654605 0.5410606
vn -0.8408207 -0.01654605 0.5410606
vn -0.9969386 -0.04339802 0.06504041
vn -0.6916261 -0.7072546 0.1464387
vn -0.6927692 -0.7051609 0.1510599
vn -0.6478253 -0.7617646 0.006091542
vn -0.7255331 -0.500879 0.4719344
vn -0.8892724 0.3854372 0.2462373
vn -0.8965708 0.4196157 0.1417157
vn -0.7904024 0.2425442 0.5625269
vn -0.8926775 0.4495634 0.03193031
vn 0 -0.07834388 -0.9969264
vn 0 -0.07829671 -0.9969301
vn 0 -0.07829671 -0.9969301
vn 0 -0.07834388 -0.9969264
vn 0 -0.4797871 0.8773849
vn 0 -0.8219011 0.5696301
vn 0 -0.8219011 0.5696301
vn 0 -0.4797871 0.8773849
vn 0 -0.754141 0.6567125
vn 0 -0.754141 0.6567125
vn 0 -0.3283187 0.944567
vn 0 -0.3283187 0.944567
vn 0 0.3239921 0.9460598
vn 0 0.3239921 0.9460598
vn 0 0.8877257 0.4603728
vn 0 0.8877257 0.4603728
vn 0 0.9933528 0.1151091
vn 0 0.9933528 0.1151091
vn 0 0.9980171 0.06294382
vn 0 0.9980171 0.06294382
vn 0 -0.03224706 0.9994799
vn 0 0.001025225 0.9999995
vn 0 -0.03224706 0.9994799
vn 0 0.001025225 0.9999995
vn 0 0.0007629218 0.9999998
vn 0 0.0007629218 0.9999998
vn 0 -0.9999946 0.00329024
vn 0 -0.9999946 0.00329024
vn 0 -0.999985 0.00548355
vn 0 -0.999985 0.00548355
vn 0 -1 -4.768376E-05
vn 0 -1 -4.768376E-05
vn 0.9838502 -0.01474029 0.1783855
vn 0.9745497 -0.0140428 0.2237311
vn 0.9975605 -0.01735696 0.06761587
vn 0.9974691 -0.02658062 0.06594639
vn 0.9995022 -0.02268562 0.02192863
vn 0.9994098 -0.02684579 0.02143372
vn 0.8955296 -0.01002848 0.4448889
vn 0.8923296 -0.00989431 0.4512759
vn 0.8096949 -0.006771276 0.5868121
vn 0.8096713 -0.006762161 0.5868447
vn 0.9995226 -0.02965928 0.008651618
vn 0.9761608 -0.04429834 0.2124794
vn 0.97636 -0.0442505 0.2115727
vn 0.9079641 -0.05130738 0.4158949
vn 0.9079674 -0.05123604 0.4158964
vn 0.9997005 -0.02441405 0.001692771
vn 0.9589221 -0.02143376 0.2828588
vn 0.9620445 -0.02160076 0.2720361
vn 0.8408191 -0.01654614 0.5410634
vn 0.8408191 -0.01654614 0.5410634
vn 0.9969386 -0.04339802 0.06504041
vn 0.6916261 -0.7072546 0.1464387
vn 0.6478253 -0.7617646 0.006091542
vn 0.6927692 -0.7051609 0.1510599
vn 0.7255331 -0.500879 0.4719344
vn 0.8892724 0.3854372 0.2462373
vn 0.7904024 0.2425442 0.5625269
vn 0.8965708 0.4196157 0.1417157
vn 0.8926775 0.4495634 0.03193031
vn 0 -0.003385609 0.9999943
vn 0 -0.003385609 0.9999943
vn 0 0.02741766 0.999624
vn 0 0.02741766 0.999624
vn 0 0.08190095 0.9966404
vn 0 0.08190095 0.9966404
vn 0 1 1.490153E-05
vn 0 1 1.490153E-05
vn 0 1 0
vn 0 1 0
vn 0 1 0
vn 0 1 0
g mag_m700_ai_aics_762x51_5_LOD1_0
f 3/3/3 2/2/2 1/1/1
f 4/4/4 3/3/3 1/1/1
f 2/2/2 3/3/3 5/5/5
f 3/3/3 6/6/6 5/5/5
f 1/1/1 7/7/7 4/4/4
f 7/7/7 8/8/8 4/4/4
f 8/8/8 7/7/7 9/9/9
f 7/7/7 10/10/10 9/9/9
f 6/6/6 11/11/11 5/5/5
f 11/11/11 6/6/6 12/12/12
f 6/6/6 13/13/13 12/12/12
f 12/12/12 13/13/13 14/14/14
f 13/13/13 15/15/15 14/14/14
f 11/11/11 16/16/16 5/5/5
f 5/5/5 16/16/16 17/17/17
f 18/18/18 5/5/5 17/17/17
f 18/18/18 17/17/17 19/19/19
f 17/17/17 20/20/20 19/19/19
f 21/21/21 2/2/2 5/5/5
f 24/24/24 23/23/23 22/22/22
f 22/22/22 23/23/23 25/25/25
f 28/28/28 27/27/27 26/26/26
f 29/29/29 26/26/26 27/27/27
f 32/32/32 31/31/31 30/30/30
f 33/33/33 32/32/32 30/30/30
f 36/36/36 35/35/35 34/34/34
f 37/37/37 36/36/36 34/34/34
f 35/35/35 36/36/36 38/38/38
f 36/36/36 39/39/39 38/38/38
f 39/39/39 40/40/40 38/38/38
f 40/40/40 41/41/41 38/38/38
f 40/40/40 42/42/42 41/41/41
f 42/42/42 43/43/43 41/41/41
f 42/42/42 44/44/44 43/43/43
f 44/44/44 45/45/45 43/43/43
f 44/44/44 46/46/46 45/45/45
f 46/46/46 47/47/47 45/45/45
f 47/47/47 46/46/46 48/48/48
f 46/46/46 49/49/49 48/48/48
f 50/50/50 37/37/37 34/34/34
f 50/50/50 52/52/52 51/51/51
f 53/53/53 50/50/50 51/51/51
f 52/52/52 50/50/50 34/34/34
f 54/54/54 53/53/53 51/51/51
f 55/55/55 54/54/54 51/51/51
f 58/58/58 57/57/57 56/56/56
f 59/59/59 58/58/58 56/56/56
f 56/56/56 57/57/57 60/60/60
f 57/57/57 61/61/61 60/60/60
f 64/64/64 63/63/63 62/62/62
f 65/65/65 64/64/64 62/62/62
f 65/65/65 66/66/66 64/64/64
f 66/66/66 67/67/67 64/64/64
f 68/68/68 62/62/62 63/63/63
f 69/69/69 68/68/68 63/63/63
f 69/69/69 70/70/70 68/68/68
f 70/70/70 71/71/71 68/68/68
f 72/72/72 67/67/67 66/66/66
f 72/72/72 73/73/73 67/67/67
f 73/73/73 74/74/74 67/67/67
f 73/73/73 75/75/75 74/74/74
f 75/75/75 76/76/76 74/74/74
f 77/77/77 72/72/72 66/66/66
f 78/78/78 77/77/77 66/66/66
f 79/79/79 78/78/78 66/66/66
f 78/78/78 79/79/79 80/80/80
f 81/81/81 78/78/78 80/80/80
f 65/65/65 82/82/82 66/66/66
f 85/85/85 84/84/84 83/83/83
f 85/85/85 83/83/83 86/86/86
f 89/89/89 88/88/88 87/87/87
f 87/87/87 90/90/90 89/89/89
f 93/93/93 92/92/92 91/91/91
f 94/94/94 93/93/93 91/91/91
f 95/95/95 93/93/93 94/94/94
f 96/96/96 95/95/95 94/94/94
f 99/99/99 98/98/98 97/97/97
f 100/100/100 99/99/99 97/97/97
f 101/101/101 99/99/99 100/100/100
f 102/102/102 101/101/101 100/100/100
