g mag_ak_magpul_pmag_30_ak_akm_gen_m3_762x39_30_LOD1
v 0.01235149 0.001053471 0.01076087
v 0.01235148 -0.007719343 -0.03293948
v -0.01235288 -0.007719347 -0.03293949
v -0.01235288 0.00105347 0.01076088
v -0.01235288 -0.007719347 -0.03293949
v -0.01235288 0.05139834 -0.05130009
v -0.01235288 0.06231761 -0.01457946
v -0.01235288 0.00105347 0.01076088
v -0.01235288 0.03065421 -0.1024754
v -0.01235288 -0.02340134 -0.07232988
v -0.01235288 -0.002197966 -0.1497619
v -0.01235288 -0.04854859 -0.1085148
v -0.01235288 0.06098038 0.01948481
v -0.01235288 -0.08560801 -0.1402449
v -0.01235289 -0.04760906 -0.19223
v 0.01235149 -0.04760906 -0.19223
v -0.01235289 -0.04760906 -0.19223
v -0.01235288 -0.08560801 -0.1402449
v 0.01235148 -0.08560804 -0.1402449
v 0.01235149 0.001053471 0.01076087
v -0.01235288 0.00105347 0.01076088
v -0.01235288 0.06098038 0.01948481
v 0.0123515 0.06098038 0.01948481
v 0.0123515 0.06231761 -0.01457946
v 0.0123515 0.06098038 0.01948481
v -0.01235288 0.06098038 0.01948481
v -0.01235288 0.06231761 -0.01457946
v 0.0123515 0.05139835 -0.05130009
v -0.01235288 0.05139834 -0.05130009
v -0.01235288 0.03065421 -0.1024754
v 0.0123515 0.03065422 -0.1024754
v 0.0123515 -0.002197969 -0.1497619
v -0.01235288 -0.002197966 -0.1497619
v 0.01235149 -0.04760906 -0.19223
v -0.01235289 -0.04760906 -0.19223
v 0.01235148 -0.007719343 -0.03293948
v 0.0123515 0.05139835 -0.05130009
v 0.0123515 0.03065422 -0.1024754
v 0.01235148 -0.02340136 -0.07232989
v 0.0123515 -0.002197969 -0.1497619
v 0.01235148 -0.04854861 -0.1085148
v 0.01235149 0.001053471 0.01076087
v 0.0123515 0.06231761 -0.01457946
v 0.0123515 0.06098038 0.01948481
v 0.01235148 -0.08560804 -0.1402449
v 0.01235149 -0.04760906 -0.19223
v -0.01235288 -0.007719347 -0.03293949
v 0.01235148 -0.007719343 -0.03293948
v 0.01235148 -0.02340136 -0.07232989
v -0.01235288 -0.02340134 -0.07232988
v -0.01235288 -0.04854859 -0.1085148
v 0.01235148 -0.04854861 -0.1085148
v -0.01235288 -0.08560801 -0.1402449
v 0.01235148 -0.08560804 -0.1402449
vt 0.8541981 0.0339629
vt 0.6805769 0.03396293
vt 0.6805769 0.1301924
vt 0.8541981 0.1301924
vt 0.4183793 0.3539042
vt 0.6564072 0.3153515
vt 0.630771 0.1683453
vt 0.3731458 0.1862785
vt 0.6728665 0.5298144
vt 0.4320428 0.5184896
vt 0.6403587 0.7517278
vt 0.4071397 0.6883217
vt 0.5669999 0.05186927
vt 0.3329661 0.8632897
vt 0.555696 0.9786351
vt 0.8657605 0.1663253
vt 0.7695318 0.1663253
vt 0.7695318 0.4171501
vt 0.8657605 0.4171501
vt 0.01992887 0.8849597
vt 0.01992887 0.9811894
vt 0.2558209 0.9811894
vt 0.2558209 0.8849596
vt 0.9839512 0.1557588
vt 0.9839523 0.02296813
vt 0.8877229 0.02296768
vt 0.8877211 0.1557587
vt 0.9839483 0.3049837
vt 0.8877184 0.3049837
vt 0.8877141 0.5200771
vt 0.9839439 0.5200771
vt 0.9839413 0.7443561
vt 0.8877112 0.744356
vt 0.9839395 0.9865407
vt 0.8877099 0.9865404
vt 0.1106524 0.5906383
vt 0.3277821 0.6245657
vt 0.3416955 0.4290237
vt 0.12227 0.4405691
vt 0.3109401 0.2269404
vt 0.0987097 0.2859154
vt 0.07027667 0.7436396
vt 0.3051623 0.7586752
vt 0.2476337 0.8651538
vt 0.03021791 0.1268313
vt 0.232623 0.02057283
vt 0.7711842 0.9722834
vt 0.8674138 0.9722839
vt 0.8674154 0.8071377
vt 0.7711855 0.8071376
vt 0.7711883 0.6354953
vt 0.8674182 0.6354954
vt 0.77119 0.4454568
vt 0.8674195 0.445457
vn 1.022077E-07 -0.9804391 0.1968224
vn 0 -0.958672 0.2845137
vn 0 -0.958672 0.2845138
vn 1.022077E-07 -0.9804391 0.1968224
vn -1 0 0
vn -1 0 0
vn -1 0 0
vn -1 0 0
vn -1 0 0
vn -1 0 0
vn -1 0 0
vn -1 0 0
vn -1 0 0
vn -1 0 0
vn -1 0 0
vn -7.07005E-07 -0.8073182 -0.5901163
vn -7.07005E-07 -0.8073182 -0.5901163
vn -7.070051E-07 -0.8073182 -0.5901164
vn -7.070051E-07 -0.8073182 -0.5901164
vn 0 -0.1440578 0.9895694
vn 0 -0.1440578 0.9895694
vn 0 -0.1440578 0.9895694
vn 0 -0.1440578 0.9895694
vn -1.12821E-07 0.9922103 -0.1245743
vn 0 0.9992304 0.03922583
vn 0 0.9992304 0.03922583
vn -1.12821E-07 0.9922103 -0.1245743
vn -2.163964E-07 0.9437265 -0.3307266
vn -2.163963E-07 0.9437265 -0.3307266
vn -1.557271E-07 0.8794205 -0.4760458
vn -1.557271E-07 0.8794205 -0.4760458
vn 0 0.756381 -0.6541313
vn 0 0.756381 -0.6541313
vn 0 0.6830436 -0.7303777
vn 0 0.6830437 -0.7303776
vn 1 -1.668161E-07 0
vn 1 -1.670193E-07 0
vn 1 -1.469789E-07 0
vn 1 -1.471037E-07 0
vn 1 -1.380498E-07 0
vn 1 -1.380599E-07 0
vn 1 -1.802451E-07 0
vn 1 -1.806119E-07 0
vn 1 -1.823652E-07 0
vn 1 -1.360805E-07 0
vn 1 -1.360805E-07 0
vn 0 -0.958672 0.2845138
vn 0 -0.958672 0.2845137
vn -3.011172E-07 -0.8808646 0.4733683
vn -3.011172E-07 -0.8808647 0.4733683
vn -2.960829E-07 -0.7418125 0.6706074
vn -2.960828E-07 -0.7418125 0.6706074
vn -2.151827E-07 -0.6503771 0.7596115
vn -2.151827E-07 -0.6503771 0.7596115
g mag_ak_magpul_pmag_30_ak_akm_gen_m3_762x39_30_LOD1_0
f 3/3/3 2/2/2 1/1/1
f 4/4/4 3/3/3 1/1/1
f 7/7/7 6/6/6 5/5/5
f 8/8/8 7/7/7 5/5/5
f 6/6/6 9/9/9 5/5/5
f 9/9/9 10/10/10 5/5/5
f 10/10/10 9/9/9 11/11/11
f 12/12/12 10/10/10 11/11/11
f 13/13/13 7/7/7 8/8/8
f 14/14/14 12/12/12 11/11/11
f 15/15/15 14/14/14 11/11/11
f 18/18/18 17/17/17 16/16/16
f 19/19/19 18/18/18 16/16/16
f 22/22/22 21/21/21 20/20/20
f 23/23/23 22/22/22 20/20/20
f 26/26/26 25/25/25 24/24/24
f 27/27/27 26/26/26 24/24/24
f 27/27/27 24/24/24 28/28/28
f 29/29/29 27/27/27 28/28/28
f 30/30/30 29/29/29 28/28/28
f 31/31/31 30/30/30 28/28/28
f 30/30/30 31/31/31 32/32/32
f 33/33/33 30/30/30 32/32/32
f 33/33/33 32/32/32 34/34/34
f 35/35/35 33/33/33 34/34/34
f 38/38/38 37/37/37 36/36/36
f 39/39/39 38/38/38 36/36/36
f 40/40/40 38/38/38 39/39/39
f 41/41/41 40/40/40 39/39/39
f 42/42/42 36/36/36 37/37/37
f 43/43/43 42/42/42 37/37/37
f 44/44/44 42/42/42 43/43/43
f 40/40/40 41/41/41 45/45/45
f 46/46/46 40/40/40 45/45/45
f 49/49/49 48/48/48 47/47/47
f 50/50/50 49/49/49 47/47/47
f 49/49/49 50/50/50 51/51/51
f 52/52/52 49/49/49 51/51/51
f 52/52/52 51/51/51 53/53/53
f 54/54/54 52/52/52 53/53/53
