g mag_m700_wyatt_762x51_10_LOD1
v -0.009515089 -0.03814128 -0.09918711
v 0.009515063 -0.03814128 -0.09918711
v 0.009515052 0.03814057 -0.1090432
v -0.0095151 0.03814057 -0.1090432
v -0.009515089 -0.03814106 0.03957747
v 0.009515063 -0.03814106 0.03957747
v 0.009515063 -0.03814128 -0.09918711
v -0.009515089 -0.03814128 -0.09918711
v -0.009515089 -0.03814128 -0.09918711
v -0.0095151 0.03814057 -0.1090432
v -0.0095151 0.03814081 0.03957735
v -0.009515089 -0.03814106 0.03957747
v -0.0095151 0.03814057 -0.1090432
v 0.009515052 0.03814057 -0.1090432
v 0.009515052 0.03814081 0.03957735
v -0.0095151 0.03814081 0.03957735
v 0.009515063 -0.03814128 -0.09918711
v 0.009515063 -0.03814106 0.03957747
v 0.009515052 0.03814081 0.03957735
v 0.009515052 0.03814057 -0.1090432
v -0.009515089 -0.03814106 0.03957747
v -0.0095151 0.03814081 0.03957735
v 0.009515052 0.03814081 0.03957735
v 0.009515063 -0.03814106 0.03957747
vt 0.9806348 0.0238663
vt 0.8549883 0.02386618
vt 0.8549874 0.5275173
vt 0.9806341 0.5275174
vt 0.5437534 0.9889061
vt 0.6694001 0.9889061
vt 0.6694002 0.07271272
vt 0.5437536 0.07271272
vt 0.5178737 0.07271272
vt 0.01422247 0.00763908
vt 0.01422235 0.9889061
vt 0.5178736 0.9889061
vt 0.8245415 0.01764329
vt 0.7010382 0.0176432
vt 0.7010381 0.9821723
vt 0.8245414 0.9821723
vt -0.4821264 0.07271272
vt -0.4821264 0.9889061
vt -0.9857775 0.9889061
vt -0.9857775 0.00763914
vt 0.8645266 0.5492088
vt 0.8645265 0.9851337
vt 0.9732775 0.9851338
vt 0.9732772 0.5492088
vn 0 -0.1281536 -0.9917543
vn 0 -0.1281536 -0.9917543
vn 0 -0.1281536 -0.9917543
vn 0 -0.1281536 -0.9917543
vn 0 -1 0
vn 0 -1 0
vn 0 -1 0
vn 0 -1 0
vn -1 0 0
vn -1 0 0
vn -1 0 0
vn -1 0 0
vn 0 1 0
vn 0 1 0
vn 0 1 0
vn 0 1 0
vn 1 0 0
vn 1 0 0
vn 1 0 0
vn 1 0 0
vn 0 0 1
vn 0 0 1
vn 0 0 1
vn 0 0 1
g mag_m700_wyatt_762x51_10_LOD1_0
f 3/3/3 2/2/2 1/1/1
f 4/4/4 3/3/3 1/1/1
f 7/7/7 6/6/6 5/5/5
f 8/8/8 7/7/7 5/5/5
f 11/11/11 10/10/10 9/9/9
f 12/12/12 11/11/11 9/9/9
f 15/15/15 14/14/14 13/13/13
f 16/16/16 15/15/15 13/13/13
f 19/19/19 18/18/18 17/17/17
f 20/20/20 19/19/19 17/17/17
f 23/23/23 22/22/22 21/21/21
f 24/24/24 23/23/23 21/21/21
