g mag_stanag_troy_battlemag_556x45_30_LOD1
v -0.01126319 0.0008612275 -0.03980773
v -0.01126319 -0.001289699 0.001650352
v 0.01127359 -0.001289699 0.001650352
v 0.01127359 0.0008612275 -0.03980773
v -0.01126319 -8.757829E-05 -0.06162896
v 0.01127359 -8.757829E-05 -0.06162896
v -0.01126319 -0.00093292 -0.08107059
v 0.01127359 -0.00093292 -0.08107059
v -0.01126319 -0.007943823 -0.1212019
v 0.01127359 -0.007943823 -0.1212019
v -0.01126319 -0.02042119 -0.1661514
v 0.01127359 -0.02042119 -0.1661514
v -0.01126319 -0.001289699 0.001650352
v -0.01126319 0.05999676 0.005178022
v 0.01127359 0.05999676 0.005178022
v 0.01127359 -0.001289699 0.001650352
v -0.01126319 0.06473779 -0.005820637
v -0.01126319 0.06457452 -0.04450578
v 0.01127359 0.06457452 -0.04450578
v 0.01127359 0.06473779 -0.005820637
v 0.01127359 0.06407087 -0.07845982
v -0.01126319 0.06407087 -0.07845982
v -0.01126319 0.05999676 0.005178022
v 0.01127359 0.05999676 0.005178022
v 0.01127359 0.06385933 -0.09272032
v -0.01126319 0.06385933 -0.09272032
v 0.01127359 0.05549872 -0.1388126
v -0.01126319 0.05549872 -0.1388126
v 0.01127359 0.04302135 -0.1837622
v -0.01126319 0.04302135 -0.1837622
v -0.01126319 0.04302135 -0.1837622
v -0.01126319 -0.02042119 -0.1661514
v 0.01127359 -0.02042119 -0.1661514
v 0.01127359 0.04302135 -0.1837622
v 0.01127359 0.0008612275 -0.03980773
v 0.01127359 -0.001289699 0.001650352
v 0.01127359 0.06473779 -0.005820637
v 0.01127359 0.06457452 -0.04450578
v 0.01127359 0.05999676 0.005178022
v 0.01127359 -8.757829E-05 -0.06162896
v 0.01127359 0.06407087 -0.07845982
v -0.01126319 0.06457452 -0.04450578
v -0.01126319 0.06473779 -0.005820637
v -0.01126319 -0.001289699 0.001650352
v -0.01126319 0.0008612275 -0.03980773
v -0.01126319 0.05999676 0.005178022
v -0.01126319 0.06407087 -0.07845982
v -0.01126319 -8.757829E-05 -0.06162896
v -0.01126319 0.04302135 -0.1837622
v -0.01126319 0.05549872 -0.1388126
v -0.01126319 -0.007943823 -0.1212019
v -0.01126319 -0.02042119 -0.1661514
v -0.01126319 -0.00093292 -0.08107059
v -0.01126319 0.06385933 -0.09272032
v -0.01126319 -8.757829E-05 -0.06162896
v -0.01126319 0.06407087 -0.07845982
v 0.01127359 -0.02042119 -0.1661514
v 0.01127359 -0.007943823 -0.1212019
v 0.01127359 0.05549872 -0.1388126
v 0.01127359 0.04302135 -0.1837622
v 0.01127359 0.06385933 -0.09272032
v 0.01127359 -0.00093292 -0.08107059
v 0.01127359 0.06407087 -0.07845982
v 0.01127359 -8.757829E-05 -0.06162896
vt 0.2211836 0.8686365
vt 0.008715123 0.8686368
vt 0.008715034 0.9924266
vt 0.2211836 0.9924265
vt 0.3329706 0.8686367
vt 0.3329706 0.9924266
vt 0.4325671 0.8686367
vt 0.4325671 0.9924266
vt 0.6410704 0.8686367
vt 0.6410704 0.9924265
vt 0.8798216 0.8686365
vt 0.8798217 0.9924264
vt 0.3358568 0.7198774
vt 0.02167249 0.7198775
vt 0.02167249 0.8436673
vt 0.3358569 0.8436673
vt 0.06658667 0.1299915
vt 0.2645797 0.1299915
vt 0.2645797 0.006201565
vt 0.06658667 0.006201625
vt 0.4383762 0.006201506
vt 0.4383762 0.1299915
vt 0.005288392 0.1299915
vt 0.005288392 0.006201684
vt 0.5113697 0.006201565
vt 0.5113697 0.1299915
vt 0.7511203 0.00620155
vt 0.7511203 0.1299914
vt 0.9898716 0.006201467
vt 0.9898716 0.1299914
vt 0.4117464 0.1417679
vt 0.4117429 0.4787455
vt 0.5355331 0.4787464
vt 0.5355359 0.1417689
vt 0.7270261 0.8551339
vt 0.9393346 0.8639834
vt 0.8967022 0.501873
vt 0.6987387 0.5055356
vt 0.9533046 0.5271257
vt 0.6154173 0.8619055
vt 0.5250096 0.5107297
vt 0.8233988 0.1376395
vt 0.6254244 0.13471
vt 0.583957 0.496976
vt 0.7962358 0.4873405
vt 0.5689036 0.1601723
vt 0.9971433 0.1421897
vt 0.9078655 0.4936984
vt 0.3730394 0.1389337
vt 0.3931334 0.3770265
vt 0.03251779 0.4032906
vt 0.01264811 0.1652052
vt 0.02813625 0.611754
vt 0.3896644 0.6167552
vt 0.01225966 0.7102459
vt 0.3758466 0.688529
vt 0.01264799 0.1652053
vt 0.03251779 0.4032907
vt 0.3931335 0.3770265
vt 0.3730395 0.1389337
vt 0.3896644 0.6167552
vt 0.02813625 0.611754
vt 0.3758468 0.688529
vt 0.01225972 0.7102457
vn 0 -0.9999913 -0.004190977
vn 0 -0.9986569 -0.05181227
vn 0 -0.9986569 -0.05181227
vn 0 -0.9999913 -0.004190977
vn 0 -0.999056 0.04343989
vn 0 -0.999056 0.04343989
vn 0 -0.9941517 0.1079927
vn 0 -0.9941517 0.1079927
vn 0 -0.9754895 0.2200457
vn 0 -0.9754895 0.2200457
vn 0 -0.9635655 0.2674724
vn 0 -0.9635655 0.2674724
vn 0 -0.05746524 0.9983475
vn 0 -0.05746524 0.9983475
vn 0 -0.05746524 0.9983475
vn 0 -0.05746524 0.9983475
vn 0 0.9797906 0.2000256
vn 0 0.9999547 -0.009526193
vn 0 0.9999547 -0.009526193
vn 0 0.9797906 0.2000256
vn 0 0.99989 -0.01483201
vn 0 0.99989 -0.01483201
vn 0 0.9183173 0.3958453
vn 0 0.9183173 0.3958453
vn 0 0.9952862 -0.09698225
vn 0 0.9952862 -0.09698225
vn 0 0.9747711 -0.2232069
vn 0 0.9747711 -0.2232069
vn 0 0.9635655 -0.2674725
vn 0 0.9635655 -0.2674725
vn 0 -0.2674723 -0.9635655
vn 0 -0.2674723 -0.9635655
vn 0 -0.2674723 -0.9635655
vn 0 -0.2674723 -0.9635655
vn 1 0 0
vn 1 0 0
vn 1 0 0
vn 1 0 0
vn 1 0 1.057612E-07
vn 1 0 0
vn 1 0 0
vn -1 0 0
vn -1 0 0
vn -1 0 0
vn -1 0 0
vn -1 0 0
vn -1 0 0
vn -1 0 0
vn -1 0 0
vn -1 0 0
vn -1 0 0
vn -1 0 0
vn -1 0 0
vn -1 0 0
vn -1 0 0
vn -1 0 0
vn 1 0 0
vn 1 0 0
vn 1 0 0
vn 1 0 0
vn 1 0 0
vn 1 0 0
vn 1 0 0
vn 1 0 0
g mag_stanag_troy_battlemag_556x45_30_LOD1_0
f 3/3/3 2/2/2 1/1/1
f 4/4/4 3/3/3 1/1/1
f 4/4/4 1/1/1 5/5/5
f 6/6/6 4/4/4 5/5/5
f 6/6/6 5/5/5 7/7/7
f 8/8/8 6/6/6 7/7/7
f 8/8/8 7/7/7 9/9/9
f 10/10/10 8/8/8 9/9/9
f 10/10/10 9/9/9 11/11/11
f 12/12/12 10/10/10 11/11/11
f 15/15/15 14/14/14 13/13/13
f 16/16/16 15/15/15 13/13/13
f 19/19/19 18/18/18 17/17/17
f 20/20/20 19/19/19 17/17/17
f 19/19/19 21/21/21 18/18/18
f 21/21/21 22/22/22 18/18/18
f 20/20/20 17/17/17 23/23/23
f 24/24/24 20/20/20 23/23/23
f 21/21/21 25/25/25 22/22/22
f 25/25/25 26/26/26 22/22/22
f 25/25/25 27/27/27 26/26/26
f 27/27/27 28/28/28 26/26/26
f 27/27/27 29/29/29 28/28/28
f 29/29/29 30/30/30 28/28/28
f 33/33/33 32/32/32 31/31/31
f 34/34/34 33/33/33 31/31/31
f 37/37/37 36/36/36 35/35/35
f 38/38/38 37/37/37 35/35/35
f 37/37/37 39/39/39 36/36/36
f 38/38/38 35/35/35 40/40/40
f 41/41/41 38/38/38 40/40/40
f 44/44/44 43/43/43 42/42/42
f 45/45/45 44/44/44 42/42/42
f 44/44/44 46/46/46 43/43/43
f 45/45/45 42/42/42 47/47/47
f 48/48/48 45/45/45 47/47/47
f 51/51/51 50/50/50 49/49/49
f 52/52/52 51/51/51 49/49/49
f 51/51/51 53/53/53 50/50/50
f 53/53/53 54/54/54 50/50/50
f 53/53/53 55/55/55 54/54/54
f 55/55/55 56/56/56 54/54/54
f 59/59/59 58/58/58 57/57/57
f 60/60/60 59/59/59 57/57/57
f 59/59/59 61/61/61 58/58/58
f 61/61/61 62/62/62 58/58/58
f 61/61/61 63/63/63 62/62/62
f 63/63/63 64/64/64 62/62/62
