g stock_block
v 0.01659684 0.0003384018 -0.002700038
v 0.007796842 0.001338387 -0.002700038
v 0.01659684 0.0002383804 0.002899964
v 0.007796842 0.001238403 0.002899964
v 0.004796842 -0.001261597 -0.002800038
v 0.004796842 -0.001361618 0.002899964
v 0.002996841 -0.003861618 -0.002800038
v 0.002996841 -0.004061584 0.002799964
v 0.001196842 -0.004861603 0.002799964
v 0.001196842 -0.004661598 -0.002900038
v -0.001203159 -0.004561615 -0.002900038
v -0.001303159 -0.004761581 0.002799964
v -0.003403158 -0.003361587 0.002799964
v -0.003403158 -0.003161583 -0.002800038
v -0.004503158 -0.0007616043 0.002799964
v -0.004503158 -0.0006615829 -0.002800038
v -0.004203157 0.001738396 -0.002700038
v -0.004203157 0.001638412 0.002899964
v -0.002803157 0.003738403 0.002899964
v -0.002803157 0.003738403 -0.002700038
v -0.0006031573 0.004738388 -0.002700038
v -0.0006031573 0.004738388 0.002899964
v 0.005196843 0.005738411 -0.002700038
v 0.005196843 0.005738411 0.002899964
v 0.01589684 -0.004861603 0.002899964
v 0.01749684 -0.00436161 0.002899964
v 0.01589684 -0.004761619 -0.002700038
v 0.01749684 -0.004261589 -0.002700038
v 0.01879684 -0.003461609 0.002899964
v 0.01879684 -0.003361587 -0.002700038
v 0.01989684 -0.00226162 0.002899964
v 0.01989684 -0.002161598 -0.002700038
v 0.02079684 -0.0009616089 0.002899964
v 0.02079684 -0.0007616043 -0.002700038
v 0.02139684 0.0006383896 0.002899964
v 0.02139684 0.0007384109 -0.002700038
v 0.02179684 0.002138405 0.002899964
v 0.02179684 0.002238388 -0.002700038
v 0.02189684 0.003138389 0.002899964
v 0.02189684 0.003238411 -0.002700038
v 0.02159684 0.003638382 0.002899964
v 0.02159684 0.003638382 -0.002700038
v 0.01749684 -0.004261589 -0.002700038
v 0.01659684 0.0003384018 -0.002700038
v 0.01589684 -0.004761619 -0.002700038
v 0.01879684 -0.003361587 -0.002700038
v 0.01989684 -0.002161598 -0.002700038
v 0.02079684 -0.0007616043 -0.002700038
v 0.02139684 0.0007384109 -0.002700038
v 0.02179684 0.002238388 -0.002700038
v 0.02159684 0.003638382 -0.002700038
v 0.007796842 0.001338387 -0.002700038
v 0.005196843 0.005738411 -0.002700038
v 0.02189684 0.003238411 -0.002700038
v 0.004796842 -0.001261597 -0.002800038
v -0.0006031573 0.004738388 -0.002700038
v 0.002996841 -0.003861618 -0.002800038
v -0.002803157 0.003738403 -0.002700038
v -0.004203157 0.001738396 -0.002700038
v -0.004503158 -0.0006615829 -0.002800038
v -0.003403158 -0.003161583 -0.002800038
v -0.001203159 -0.004561615 -0.002900038
v 0.001196842 -0.004661598 -0.002900038
v 0.01659684 0.0002383804 0.002899964
v 0.01749684 -0.00436161 0.002899964
v 0.01589684 -0.004861603 0.002899964
v 0.01879684 -0.003461609 0.002899964
v 0.01989684 -0.00226162 0.002899964
v 0.02079684 -0.0009616089 0.002899964
v 0.02139684 0.0006383896 0.002899964
v 0.02179684 0.002138405 0.002899964
v 0.02159684 0.003638382 0.002899964
v 0.02189684 0.003138389 0.002899964
v 0.005196843 0.005738411 0.002899964
v 0.007796842 0.001238403 0.002899964
v 0.004796842 -0.001361618 0.002899964
v 0.001196842 -0.004861603 0.002799964
v -0.001303159 -0.004761581 0.002799964
v -0.003403158 -0.003361587 0.002799964
v -0.0006031573 0.004738388 0.002899964
v -0.004503158 -0.0007616043 0.002799964
v -0.004203157 0.001638412 0.002899964
v -0.002803157 0.003738403 0.002899964
v 0.002996841 -0.004061584 0.002799964
v 0.01589684 -0.004861603 0.002899964
v 0.01589684 -0.004761619 -0.002700038
v 0.01659684 0.0002383804 0.002899964
v 0.01659684 0.0003384018 -0.002700038
v 0.005196843 0.005738411 -0.002700038
v 0.02159684 0.003638382 -0.002700038
v 0.005196843 0.005738411 0.002899964
v 0.02159684 0.003638382 0.002899964
vt 0.7033 0.4853
vt 0.7033 0.4664
vt 0.6918 0.4853
vt 0.6918 0.4664
vt 0.7033 0.458
vt 0.6918 0.458
vt 0.7033 0.451
vt 0.6918 0.451
vt 0.6918 0.4468
vt 0.7033 0.4468
vt 0.7033 0.4417
vt 0.6918 0.4417
vt 0.6918 0.4362
vt 0.7033 0.4362
vt 0.6918 0.4302
vt 0.7033 0.4302
vt 0.7033 0.4251
vt 0.6918 0.4251
vt 0.6918 0.4197
vt 0.7033 0.4197
vt 0.7033 0.4145
vt 0.6918 0.4145
vt 0.7033 0.4019
vt 0.6918 0.4019
vt 0.5202 0.9729
vt 0.5237 0.9729
vt 0.5205 0.9609
vt 0.5239 0.9609
vt 0.5269 0.9729
vt 0.5272 0.9609
vt 0.5302 0.9729
vt 0.5304 0.9609
vt 0.5335 0.9729
vt 0.5338 0.9609
vt 0.5368 0.9729
vt 0.5371 0.9609
vt 0.5401 0.9729
vt 0.5404 0.9609
vt 0.5421 0.9729
vt 0.5423 0.9609
vt 0.5433 0.9729
vt 0.5433 0.9609
vt 0.5998 0.8408
vt 0.6029 0.8502
vt 0.6029 0.8392
vt 0.5974 0.8431
vt 0.5956 0.8459
vt 0.5942 0.8491
vt 0.5933 0.8525
vt 0.593 0.8558
vt 0.5937 0.8587
vt 0.6209 0.8497
vt 0.6275 0.8583
vt 0.593 0.8579
vt 0.6264 0.8434
vt 0.639 0.8543
vt 0.6293 0.8372
vt 0.6432 0.8517
vt 0.6454 0.8469
vt 0.6454 0.8418
vt 0.6424 0.8367
vt 0.6376 0.8344
vt 0.6327 0.835
vt 0.0237 0.3435
vt 0.0206 0.3529
vt 0.0237 0.3545
vt 0.0182 0.3506
vt 0.0163 0.3478
vt 0.0149 0.3447
vt 0.0141 0.3413
vt 0.0138 0.3379
vt 0.0144 0.3347
vt 0.0138 0.3358
vt 0.0482 0.3351
vt 0.0417 0.344
vt 0.0471 0.3503
vt 0.0535 0.3587
vt 0.0584 0.3593
vt 0.0632 0.357
vt 0.0597 0.3391
vt 0.0662 0.3519
vt 0.0662 0.3467
vt 0.064 0.3417
vt 0.05 0.3566
vt 0.0332 0.9865
vt 0.0332 0.9986
vt 0.0437 0.9868
vt 0.0437 0.9988
vt 0.7032 0.9557
vt 0.737 0.9557
vt 0.7032 0.9437
vt 0.737 0.9437
vn -0.1128902 -0.993449 -0.01774395
vn 0.298162 -0.9543632 -0.01704065
vn -0.1128917 -0.9934489 -0.01774151
vn 0.2972884 -0.954637 -0.01696644
vn 0.7444237 -0.6676036 -0.01178569
vn 0.7482635 -0.6632311 -0.01504408
vn 0.640063 -0.7679603 -0.02358734
vn 0.6436965 -0.7647934 -0.02730945
vn 0.1869181 -0.9817539 -0.03494217
vn 0.185063 -0.9821223 -0.03446122
vn -0.2981068 -0.9538866 -0.03510826
vn -0.3095753 -0.9500845 -0.03876184
vn -0.7650453 -0.6434294 -0.02653824
vn -0.7612943 -0.6480829 -0.02048526
vn -0.9902834 -0.1389724 -0.005043015
vn -0.9893919 -0.1452474 -0.002594256
vn -0.9345652 0.3557831 0.002508143
vn -0.9370032 0.3492654 0.006235833
vn -0.6455365 0.7637199 0.003798897
vn -0.6391149 0.7691113 0
vn -0.2942593 0.9557257 0
vn -0.2942593 0.9557257 0
vn -0.1699107 0.9854595 0
vn -0.1699107 0.9854595 0
vn 0.2982272 -0.9543428 -0.01703897
vn 0.4380259 -0.898819 -0.01605107
vn 0.2982441 -0.9543374 -0.01704417
vn 0.4393853 -0.8981555 -0.01604191
vn 0.6565869 -0.7541301 -0.01346948
vn 0.6578419 -0.7530358 -0.01344994
vn 0.7810634 -0.6243521 -0.01115152
vn 0.7905856 -0.6121685 -0.01496968
vn 0.8862501 -0.4630445 -0.01226622
vn 0.8906134 -0.4545617 -0.01346931
vn 0.9516392 -0.3071114 -0.008094086
vn 0.9492497 -0.3144733 -0.005616057
vn 0.9836529 -0.1800458 -0.0032153
vn 0.983975 -0.1782783 -0.00318331
vn 0.9765655 0.2151857 0.003843743
vn 0.9630988 0.2691472 -0.0006166449
vn 0.8544409 0.5194762 0.008670826
vn 0.7999794 0.6000276 0
vn 0 0 -1
vn 0 0 -1
vn 0 0 -1
vn 0 0 -1
vn 0 0 -1
vn 0 0 -1
vn 0 0 -1
vn 0 0 -1
vn 0 0 -1
vn 0.009724027 0.005745983 -0.9999362
vn 0.003404969 0.009519871 -0.9999489
vn 0 0 -1
vn -0.000948652 0.01027964 -0.9999467
vn -0.004459934 0.01110276 -0.9999285
vn -0.00223552 0.028551 -0.9995899
vn -0.006643855 0.008086829 -0.9999453
vn 0.001077458 0.01923907 -0.9998143
vn 0.01198567 0.0280911 -0.9995335
vn 0.001691439 0.01546381 -0.999879
vn 0.009027752 0.08812918 -0.9960681
vn 0.004730427 0.1135494 -0.993521
vn 0 0 1
vn 0 0 1
vn 0 0 1
vn 0 0 1
vn 0 0 1
vn 0 0 1
vn 0 0 1
vn 0 0 1
vn 0 0 1
vn 0 0 1
vn -0.002981659 -0.003904034 0.999988
vn 0 0 1
vn -0.01921137 -0.002098375 0.9998133
vn -0.0019873 -0.01320519 0.9999108
vn -0.002814976 -0.007780873 0.9999658
vn -0.006686366 -0.007815236 0.9999472
vn 0.003433557 -0.01403747 0.9998956
vn -0.005476841 -0.01429611 0.9998828
vn 0.03606111 -0.04187775 0.9984717
vn 0 0 1
vn 0.02335427 -0.05254589 0.9983454
vn -0.9907086 0.1359804 0.002427813
vn -0.9907086 0.1359798 0.002428292
vn -0.9907086 0.1359799 0.002428242
vn -0.9907087 0.1359794 0.002428721
vn 0.1270134 0.991901 0
vn 0.1270134 0.991901 0
vn 0.1270134 0.991901 0
vn 0.1270134 0.991901 0
g stock_block_0
f 3/3/3 2/2/2 1/1/1
f 2/2/2 3/3/3 4/4/4
f 4/4/4 5/5/5 2/2/2
f 5/5/5 4/4/4 6/6/6
f 6/6/6 7/7/7 5/5/5
f 7/7/7 6/6/6 8/8/8
f 9/9/9 7/7/7 8/8/8
f 7/7/7 9/9/9 10/10/10
f 9/9/9 11/11/11 10/10/10
f 11/11/11 9/9/9 12/12/12
f 13/13/13 11/11/11 12/12/12
f 11/11/11 13/13/13 14/14/14
f 15/15/15 14/14/14 13/13/13
f 14/14/14 15/15/15 16/16/16
f 15/15/15 17/17/17 16/16/16
f 17/17/17 15/15/15 18/18/18
f 19/19/19 17/17/17 18/18/18
f 17/17/17 19/19/19 20/20/20
f 19/19/19 21/21/21 20/20/20
f 21/21/21 19/19/19 22/22/22
f 22/22/22 23/23/23 21/21/21
f 23/23/23 22/22/22 24/24/24
f 27/27/27 26/26/26 25/25/25
f 26/26/26 27/27/27 28/28/28
f 28/28/28 29/29/29 26/26/26
f 29/29/29 28/28/28 30/30/30
f 30/30/30 31/31/31 29/29/29
f 31/31/31 30/30/30 32/32/32
f 32/32/32 33/33/33 31/31/31
f 33/33/33 32/32/32 34/34/34
f 34/34/34 35/35/35 33/33/33
f 35/35/35 34/34/34 36/36/36
f 36/36/36 37/37/37 35/35/35
f 37/37/37 36/36/36 38/38/38
f 38/38/38 39/39/39 37/37/37
f 39/39/39 38/38/38 40/40/40
f 40/40/40 41/41/41 39/39/39
f 41/41/41 40/40/40 42/42/42
f 45/45/45 44/44/44 43/43/43
f 43/43/43 44/44/44 46/46/46
f 46/46/46 44/44/44 47/47/47
f 47/47/47 44/44/44 48/48/48
f 48/48/48 44/44/44 49/49/49
f 49/49/49 44/44/44 50/50/50
f 44/44/44 51/51/51 50/50/50
f 52/52/52 51/51/51 44/44/44
f 53/53/53 51/51/51 52/52/52
f 54/54/54 50/50/50 51/51/51
f 52/52/52 55/55/55 53/53/53
f 53/53/53 55/55/55 56/56/56
f 55/55/55 57/57/57 56/56/56
f 56/56/56 57/57/57 58/58/58
f 58/58/58 57/57/57 59/59/59
f 59/59/59 57/57/57 60/60/60
f 60/60/60 57/57/57 61/61/61
f 61/61/61 57/57/57 62/62/62
f 63/63/63 62/62/62 57/57/57
f 66/66/66 65/65/65 64/64/64
f 65/65/65 67/67/67 64/64/64
f 67/67/67 68/68/68 64/64/64
f 68/68/68 69/69/69 64/64/64
f 69/69/69 70/70/70 64/64/64
f 70/70/70 71/71/71 64/64/64
f 71/71/71 72/72/72 64/64/64
f 73/73/73 72/72/72 71/71/71
f 72/72/72 74/74/74 64/64/64
f 64/64/64 74/74/74 75/75/75
f 75/75/75 74/74/74 76/76/76
f 74/74/74 77/77/77 76/76/76
f 78/78/78 77/77/77 74/74/74
f 79/79/79 78/78/78 74/74/74
f 80/80/80 79/79/79 74/74/74
f 81/81/81 79/79/79 80/80/80
f 82/82/82 81/81/81 80/80/80
f 83/83/83 82/82/82 80/80/80
f 84/84/84 76/76/76 77/77/77
f 87/87/87 86/86/86 85/85/85
f 86/86/86 87/87/87 88/88/88
f 91/91/91 90/90/90 89/89/89
f 90/90/90 91/91/91 92/92/92
