g weapon_bt_mp9_release_LOD0
v 0.01789059 -0.001462974 0.002708037
v 0.01789059 -0.002103949 0.003788731
v 0.01770205 -0.001063938 0.002875154
v 0.01770205 -0.001793117 0.004104552
v 0.01739106 -0.0009023952 0.00294281
v 0.01739106 -0.00166728 0.004232409
v 0.01739106 -8.621216E-05 -0.0001516426
v 0.01770205 -0.0002596664 -0.000174129
v 0.01789059 -0.0006881332 -0.0002296686
v 0.01789059 -0.003086529 0.004350564
v 0.01770205 -0.002972946 0.004779174
v 0.01739106 -0.00292696 0.004952688
v 0.01770205 -0.004354992 0.004777357
v 0.01789059 -0.004241133 0.004349045
v 0.01739106 -0.004401073 0.00495075
v 0.01770205 -0.0002597618 -0.001563982
v 0.01739106 -8.630753E-05 -0.001609713
v 0.01789059 -0.0006882095 -0.001451013
v 0.01770205 -0.0009442043 -0.002771883
v 0.01739106 -0.0008164215 -0.002898221
v 0.01789059 -0.001259832 -0.00245981
v 0.01739106 -0.002098169 -0.003643817
v 0.01770205 -0.002145052 -0.003470424
v 0.01789059 -0.002260866 -0.003042114
v 0.01739106 -0.00358736 -0.003645757
v 0.01770205 -0.003540592 -0.003472242
v 0.01739106 -0.004873772 -0.002895796
v 0.01770205 -0.004747467 -0.002768651
v 0.01739106 -0.005607233 -0.001656656
v 0.01770205 -0.005445747 -0.001588952
v 0.01789059 -0.004435482 -0.002454582
v 0.01789059 -0.005046844 -0.001421713
v 0.01739106 -0.006433783 0.001456273
v 0.01770205 -0.006260271 0.001478735
v 0.01789059 -0.005831699 0.001534219
v 0.01789059 -0.003425083 -0.003043631
v 0.01770205 -0.006257372 0.002894747
v 0.01739106 -0.00643074 0.002942038
v 0.01789059 -0.005829153 0.002777932
v 0.01739106 -0.005680236 0.004221225
v 0.01770205 -0.005554066 0.004093499
v 0.01789059 -0.005242414 0.003777997
v 0.01789059 -0.003371162 -0.00284356
v 0.01789059 -0.004289846 -0.002307979
v 0.01789059 -0.0008882046 -0.001398282
v 0.01789059 -0.001407166 -0.002314136
v 0.01789059 -0.0008881378 -0.0002555931
v 0.01789059 -0.00486064 -0.001343647
v 0.01789059 -0.005631647 0.001560118
v 0.01789059 -0.001649237 0.002630029
v 0.01789059 -0.002249041 0.00364131
v 0.01789059 -0.005629263 0.002723403
v 0.01789059 -0.005096941 0.003630724
v 0.01789059 -0.003139553 0.004150495
v 0.01789059 -0.00231493 -0.002842185
v 0.01789059 -0.004187984 0.004149115
v 0.01739106 -0.00166728 0.004232409
v 0.01354775 -0.00166728 0.004232409
v 0.01739106 -0.0009023952 0.00294281
v 0.01354775 -0.0009023952 0.00294281
v 0.01354775 -0.00292696 0.004952688
v 0.01739106 -0.00292696 0.004952688
v 0.01354775 -0.004401073 0.00495075
v 0.01739106 -0.004401073 0.00495075
v 0.01739106 -8.621216E-05 -0.0001516426
v 0.01354775 -8.621216E-05 -0.0001516485
v 0.01739106 -8.630753E-05 -0.001609713
v 0.01354775 -8.630753E-05 -0.001609719
v 0.01739106 -0.0008164215 -0.002898221
v 0.01354775 -0.0008164215 -0.002898226
v 0.01739106 -0.002098169 -0.003643817
v 0.01354775 -0.002098169 -0.003643823
v 0.01354775 -0.005680236 0.004221225
v 0.01739106 -0.005680236 0.004221225
v 0.01354775 -0.00643074 0.002942038
v 0.01739106 -0.00643074 0.002942038
v 0.01354775 -0.006433783 0.001456267
v 0.01739106 -0.006433783 0.001456273
v 0.01354775 -0.005607233 -0.001656661
v 0.01739106 -0.005607233 -0.001656656
v 0.01354775 -0.004873772 -0.002895802
v 0.01739106 -0.004873772 -0.002895796
v 0.01354775 -0.00358736 -0.003645762
v 0.01739106 -0.00358736 -0.003645757
v 0.01354775 -0.002098169 -0.003643823
v 0.01739106 -0.002098169 -0.003643817
v -0.01599127 0.01085536 -0.002075595
v -0.01599127 0.01114582 -0.002776856
v -0.01246941 0.01085536 -0.002075595
v -0.01246941 0.01114582 -0.002776856
v -0.01246941 0.01015409 -0.001785117
v -0.01599127 0.01015409 -0.001785117
v -0.01599127 0.01114582 -0.006461019
v -0.01246941 0.01114582 -0.006461019
v -0.01599127 0.01085536 -0.007162286
v -0.01246941 0.01085536 -0.007162286
v -0.01599127 0.01015409 -0.007452759
v -0.01246941 0.01015409 -0.007452759
v -0.01246942 -0.002909174 0.005002046
v -0.01599128 -0.002909174 0.005002046
v -0.01246942 -0.00160531 0.004249263
v -0.01599127 -0.00160531 0.004249263
v -0.01599127 -0.0008525371 0.002945406
v -0.01246942 -0.0008525371 0.002945406
v -0.01599127 -0.00441474 0.005002046
v -0.01246942 -0.00441474 0.005002046
v -0.01556972 -0.005718603 0.00424926
v -0.01246942 -0.005718603 0.00424926
v -0.01501166 -0.006471376 0.002945399
v -0.01246942 -0.006471376 0.002945399
v -0.01466237 -0.006486044 0.001435903
v -0.01246942 -0.006486044 0.001435903
v -0.01246942 -0.004639702 -0.005396126
v -0.01480152 -0.004639702 -0.005396126
v -0.01246942 -0.003886909 -0.006699985
v -0.01501166 -0.003886909 -0.006699985
v -0.01246942 -0.002583056 -0.007452765
v -0.01556972 -0.002583056 -0.007452765
v -0.01246942 -0.0009288883 -0.007452765
v -0.01599127 -0.0009288883 -0.007452765
v -0.01599127 0.0004397488 -0.007452762
v -0.01246941 0.01015409 -0.007452759
v -0.01599127 0.01015409 -0.007452759
v -0.01599128 0.0004150104 -0.001785125
v -0.01599127 0.01015409 -0.001785117
v -0.01246942 0.0004150104 -0.001785125
v -0.01246941 0.01015409 -0.001785117
v -0.01501166 -0.006471376 0.002945399
v -0.01501166 -0.003886909 -0.006699985
v -0.01556972 -0.005718603 0.00424926
v -0.01556972 -0.002583056 -0.007452765
v -0.01480152 -0.004639702 -0.005396126
v -0.01466237 -0.006486044 0.001435903
v -0.01599127 -0.00441474 0.005002046
v -0.01599127 -0.0009288883 -0.007452765
v -0.01599128 -0.002909174 0.005002046
v -0.01599127 0.0004397488 -0.007452762
v -0.01599128 0.0004150104 -0.001785125
v -0.01599127 -0.0008525371 0.002945406
v -0.01599127 0.01015409 -0.001785117
v -0.01599127 0.01015409 -0.007452759
v -0.01599127 0.01114582 -0.002776856
v -0.01599127 0.01085536 -0.002075595
v -0.01599127 0.01114582 -0.006461019
v -0.01599127 0.01085536 -0.007162286
v -0.01599127 -0.00160531 0.004249263
v -0.01599128 0.0004150104 -0.001785125
v -0.01246942 0.0004150104 -0.001785125
vt 0.00546495 0.5248707
vt 0.006811419 0.5203279
vt 0.003690758 0.5246083
vt 0.005268194 0.5193767
vt 0.002348164 0.5244181
vt 0.004110732 0.5186529
vt 0.002397457 0.5368269
vt 0.003748217 0.5366334
vt 0.005526522 0.5363682
vt 0.00984756 0.517332
vt 0.008957067 0.5157524
vt 0.008296826 0.5145583
vt 0.01403562 0.5143952
vt 0.01403675 0.5162166
vt 0.01404605 0.513031
vt 0.005246619 0.5417393
vt 0.00408558 0.5424561
vt 0.006797174 0.5408034
vt 0.00897471 0.5454751
vt 0.008307557 0.5466441
vt 0.009874978 0.5438995
vt 0.01406042 0.5482063
vt 0.01407073 0.5468425
vt 0.01406954 0.5450217
vt 0.01985345 0.5466587
vt 0.01918624 0.5454673
vt 0.02410195 0.5424374
vt 0.02294276 0.5417171
vt 0.02579049 0.5368934
vt 0.02444826 0.5367018
vt 0.02139638 0.5407735
vt 0.0226743 0.5364376
vt 0.02576099 0.5244197
vt 0.02440939 0.52461
vt 0.02263127 0.5248714
vt 0.01828752 0.5438901
vt 0.02288709 0.5194126
vt 0.024034 0.5187078
vt 0.02134035 0.5203563
vt 0.01978425 0.5145457
vt 0.01910792 0.5157298
vt 0.01821725 0.5173124
vt 0.01789949 0.543214
vt 0.02073149 0.540374
vt 0.007465044 0.5404086
vt 0.01026289 0.5432236
vt 0.006285766 0.5362566
vt 0.0219144 0.536326
vt 0.0218725 0.5249817
vt 0.006224909 0.5249817
vt 0.0074747 0.5207312
vt 0.02067349 0.5207574
vt 0.01783738 0.5179896
vt 0.01023106 0.5180092
vt 0.014069 0.5442452
vt 0.01403824 0.5169941
vt 0.5129401 0.9460158
vt 0.5129397 0.9574531
vt 0.517406 0.9460161
vt 0.5174037 0.9574534
vt 0.5086191 0.957453
vt 0.508619 0.9460158
vt 0.5042288 0.9574531
vt 0.5042288 0.9460161
vt 0.5269372 0.9460161
vt 0.5269401 0.9574534
vt 0.5312794 0.9460161
vt 0.5312796 0.9574533
vt 0.5356908 0.9460161
vt 0.5356854 0.9574522
vt 0.5401075 0.9460163
vt 0.5400802 0.9574455
vt 0.499843 0.957453
vt 0.4998429 0.9460161
vt 0.4954269 0.957453
vt 0.4954264 0.9460161
vt 0.4910036 0.9574531
vt 0.4910012 0.9460163
vt 0.4814058 0.957453
vt 0.4814086 0.9460161
vt 0.4771201 0.9574529
vt 0.4771199 0.9460161
vt 0.4726906 0.9574519
vt 0.4726855 0.9460161
vt 0.4682765 0.9574453
vt 0.4682498 0.9460163
vt 0.4876188 0.3314734
vt 0.4876188 0.3327145
vt 0.4933776 0.3314734
vt 0.4933776 0.3327145
vt 0.4933776 0.3302322
vt 0.4876188 0.3302322
vt 0.4876188 0.3387386
vt 0.4933776 0.3387386
vt 0.4876188 0.3399798
vt 0.4933776 0.3399798
vt 0.4876188 0.3412209
vt 0.4933776 0.3412209
vt 0.4925845 0.3193404
vt 0.4925858 0.3250982
vt 0.4950469 0.3193398
vt 0.4950482 0.3250988
vt 0.4975097 0.325097
vt 0.4975084 0.3193392
vt 0.4901234 0.3251
vt 0.490122 0.319341
vt 0.4876608 0.3244111
vt 0.4876594 0.3193417
vt 0.4851981 0.3234989
vt 0.4851969 0.3193425
vt 0.482729 0.3229282
vt 0.4827291 0.3193432
vt 0.4711523 0.3193459
vt 0.4711541 0.3231585
vt 0.468691 0.3193462
vt 0.4686917 0.3235027
vt 0.4662287 0.3193467
vt 0.4662295 0.324416
vt 0.4635227 0.3193469
vt 0.4635242 0.3251061
vt 0.4612854 0.3251054
vt 0.445397 0.3193527
vt 0.4453984 0.3251086
vt 0.4778878 0.3279365
vt 0.4778824 0.3438662
vt 0.4836446 0.3279381
vt 0.4836392 0.3438686
vt 0.4347139 0.5960546
vt 0.4258727 0.5630848
vt 0.4316879 0.600634
vt 0.4209614 0.5606341
vt 0.428622 0.5674945
vt 0.4351992 0.5907803
vt 0.4270337 0.6032611
vt 0.4151264 0.5606834
vt 0.4218856 0.6032599
vt 0.4104474 0.5606832
vt 0.4105281 0.5800566
vt 0.4148648 0.5962262
vt 0.3772369 0.5800487
vt 0.3772408 0.5606766
vt 0.3738578 0.5766581
vt 0.3749104 0.5789856
vt 0.3738604 0.564066
vt 0.3749138 0.5617388
vt 0.4174304 0.6006858
vt 0.5055187 0.3250944
vt 0.5055176 0.3193386
vn 0.9752298 0.2040237 0.08544637
vn 0.9729907 0.1619268 0.1645257
vn 0.7284831 0.6318852 0.2646382
vn 0.7235865 0.4841681 0.4919388
vn 0.490697 0.8036926 0.3365929
vn 0.4996707 0.6076117 0.6173632
vn 0.4902028 0.8643765 0.112047
vn 0.7290758 0.678754 0.08798478
vn 0.9754437 0.2184217 0.02831405
vn 0.9729548 0.05917366 0.223288
vn 0.7235338 0.1768279 0.6672562
vn 0.4999003 0.2218624 0.8371838
vn 0.7235717 -0.1773279 0.6670824
vn 0.972984 -0.0593108 0.223124
vn 0.4997075 -0.222522 0.8371239
vn 0.723593 0.6674174 -0.1759747
vn 0.4996443 0.8376055 -0.2208448
vn 0.9729952 0.2231976 -0.05884909
vn 0.7234561 0.4909231 -0.4853925
vn 0.5002953 0.6157117 -0.6087722
vn 0.9728959 0.1644377 -0.1625846
vn 0.5001401 0.2260303 -0.8359247
vn 0.7234817 0.1801958 -0.6664111
vn 0.9729181 0.06033503 -0.2231369
vn 0.5003244 -0.2253154 -0.8360075
vn 0.7234467 -0.1796541 -0.6665953
vn 0.4993 -0.6106221 -0.6146869
vn 0.7236704 -0.4863847 -0.4896235
vn 0.4906242 -0.8036029 -0.3369129
vn 0.7285562 -0.6317135 -0.2648467
vn 0.9730492 -0.1625157 -0.1635968
vn 0.9752575 -0.2038796 -0.08547539
vn 0.490315 -0.8643326 -0.1118939
vn 0.7289727 -0.6788776 -0.08788542
vn 0.975403 -0.218605 -0.02829997
vn 0.9728907 -0.06018214 -0.2232977
vn 0.7234603 -0.6660283 0.1816907
vn 0.5003142 -0.8353205 0.227871
vn 0.972895 -0.2230954 0.06085923
vn 0.4999663 -0.6086165 0.6161327
vn 0.7235232 -0.4851107 0.4911026
vn 0.9729457 -0.1623606 0.1643645
vn 1 0 0
vn 1 -3.395419E-07 4.43908E-07
vn 1 0 0
vn 1 0 0
vn 1 0 0
vn 1 -2.965088E-07 4.39793E-07
vn 1 -1.3905E-07 0
vn 1 -1.23015E-07 0
vn 1 -1.320487E-07 0
vn 1 -1.549695E-07 0
vn 1 -4.01923E-07 -2.836541E-07
vn 1 -1.562568E-07 -3.682264E-07
vn 1 0 0
vn 1 -2.941391E-07 -1.058677E-06
vn 0 0.7014553 0.7127134
vn 0 0.7014554 0.7127134
vn 0 0.9223743 0.3862974
vn -1.109108E-07 0.9223743 0.3862973
vn 0 0.2561661 0.9666327
vn 0 0.2561662 0.9666327
vn 0 -0.2568973 0.9664387
vn 0 -0.2568972 0.9664387
vn 0 0.9917027 0.1285525
vn -1.984676E-07 0.9917027 0.1285521
vn 3.892393E-07 0.9669545 -0.2549491
vn 3.333985E-07 0.9669543 -0.2549497
vn 9.282575E-07 0.7111018 -0.7030891
vn 9.784328E-07 0.7111017 -0.7030892
vn 1.390763E-06 0.2610214 -0.965333
vn 1.374027E-06 0.2610212 -0.965333
vn 0 -0.7027521 0.7114349
vn 0 -0.7027519 0.7114349
vn 0 -0.964747 0.2631795
vn 0 -0.964747 0.2631795
vn 1.969258E-07 -0.9917241 -0.1283875
vn 1.752793E-07 -0.9917242 -0.1283873
vn 4.954495E-07 -0.9222283 -0.3866459
vn 5.401861E-07 -0.9222283 -0.3866458
vn 1.033556E-06 -0.7047569 -0.7094489
vn 9.952779E-07 -0.7047572 -0.7094486
vn 1.304362E-06 -0.2602263 -0.9655477
vn 1.321958E-06 -0.2602262 -0.9655477
vn 1.374027E-06 0.2610212 -0.965333
vn 1.390763E-06 0.2610214 -0.965333
vn 0 0.7071115 0.7071021
vn 0 0.9807866 0.1950835
vn 0 0.7071118 0.7071018
vn 0 0.9807867 0.1950833
vn 0 0.3826831 0.9238797
vn 0 0.3826831 0.9238797
vn 0 0.9807869 -0.1950824
vn 0 0.9807869 -0.1950821
vn 0 0.7071107 -0.7071028
vn 0 0.7071111 -0.7071025
vn 0 0.382679 -0.9238814
vn 0 0.382679 -0.9238814
vn 0 0.2588182 0.9659261
vn 0 0.2588181 0.9659261
vn 0 0.7071078 0.7071056
vn 0 0.7071077 0.7071058
vn 0 0.9238802 0.3826816
vn 0 0.9238802 0.3826817
vn 0 -0.2341108 0.9722099
vn 0 -0.2588187 0.9659258
vn 0 -0.6672132 0.7448668
vn 0 -0.7071089 0.7071046
vn 0 -0.9512835 0.3083173
vn 0 -0.9646579 0.2635056
vn 0 -0.9929667 -0.1183946
vn 0 -0.991932 -0.1267712
vn 0 -0.9234678 -0.3836758
vn 0 -0.9210167 -0.3895232
vn 0 -0.7071049 -0.7071086
vn 0 -0.6787245 -0.7343929
vn 0 -0.2588187 -0.9659259
vn 0 -0.2069937 -0.9783423
vn -1.947415E-07 7.302169E-07 -1
vn 0 1.2754E-06 -1
vn -2.585925E-07 9.109028E-07 -1
vn -1.12873E-07 2.863509E-07 -1
vn 0 2.454296E-07 -1
vn 0 -7.344186E-07 1
vn 0 -7.344186E-07 1
vn 0 -7.344186E-07 1
vn 0 -7.344186E-07 1
vn -0.8713106 -0.4743925 -0.1255779
vn -0.8850663 -0.4496046 -0.1204712
vn -0.9408568 -0.3272602 -0.08768912
vn -0.9458441 -0.3130836 -0.08577611
vn -0.8774515 -0.4633975 -0.1238608
vn -0.7335826 -0.6596801 -0.163337
vn -0.9899899 -0.1362919 -0.03666757
vn -0.994262 -0.1030138 -0.0288316
vn -1 -8.900593E-07 0
vn -1 -4.13769E-07 -3.521455E-07
vn -1 -3.819675E-07 -3.560482E-07
vn -1 2.511518E-06 1.352253E-06
vn -1 1.989847E-07 -3.738612E-07
vn -1 1.518907E-07 2.93141E-07
vn -1 9.088791E-07 -2.931469E-07
vn -1 -8.499549E-07 -2.051974E-06
vn -1 9.088807E-07 2.931448E-07
vn -1 -8.499355E-07 2.051953E-06
vn -1 4.905998E-06 3.74673E-06
vn 0 0.9659256 0.2588201
vn 0 0.9659256 0.2588201
g weapon_bt_mp9_release_LOD0_0
f 3/3/3 2/2/2 1/1/1
f 3/3/3 4/4/4 2/2/2
f 5/5/5 4/4/4 3/3/3
f 5/5/5 6/6/6 4/4/4
f 3/3/3 7/7/7 5/5/5
f 3/3/3 8/8/8 7/7/7
f 1/1/1 8/8/8 3/3/3
f 1/1/1 9/9/9 8/8/8
f 4/4/4 10/10/10 2/2/2
f 4/4/4 11/11/11 10/10/10
f 6/6/6 11/11/11 4/4/4
f 6/6/6 12/12/12 11/11/11
f 13/13/13 10/10/10 11/11/11
f 12/12/12 13/13/13 11/11/11
f 13/13/13 14/14/14 10/10/10
f 12/12/12 15/15/15 13/13/13
f 16/16/16 7/7/7 8/8/8
f 16/16/16 17/17/17 7/7/7
f 18/18/18 8/8/8 9/9/9
f 18/18/18 16/16/16 8/8/8
f 19/19/19 17/17/17 16/16/16
f 19/19/19 20/20/20 17/17/17
f 21/21/21 16/16/16 18/18/18
f 21/21/21 19/19/19 16/16/16
f 19/19/19 22/22/22 20/20/20
f 19/19/19 23/23/23 22/22/22
f 21/21/21 23/23/23 19/19/19
f 21/21/21 24/24/24 23/23/23
f 23/23/23 25/25/25 22/22/22
f 23/23/23 26/26/26 25/25/25
f 27/27/27 25/25/25 26/26/26
f 27/27/27 26/26/26 28/28/28
f 29/29/29 27/27/27 28/28/28
f 29/29/29 28/28/28 30/30/30
f 30/30/30 28/28/28 31/31/31
f 30/30/30 31/31/31 32/32/32
f 30/30/30 33/33/33 29/29/29
f 30/30/30 34/34/34 33/33/33
f 32/32/32 34/34/34 30/30/30
f 32/32/32 35/35/35 34/34/34
f 28/28/28 36/36/36 31/31/31
f 28/28/28 26/26/26 36/36/36
f 36/36/36 23/23/23 24/24/24
f 36/36/36 26/26/26 23/23/23
f 37/37/37 33/33/33 34/34/34
f 37/37/37 38/38/38 33/33/33
f 39/39/39 34/34/34 35/35/35
f 39/39/39 37/37/37 34/34/34
f 37/37/37 40/40/40 38/38/38
f 37/37/37 41/41/41 40/40/40
f 39/39/39 41/41/41 37/37/37
f 39/39/39 42/42/42 41/41/41
f 13/13/13 41/41/41 42/42/42
f 13/13/13 42/42/42 14/14/14
f 15/15/15 41/41/41 13/13/13
f 15/15/15 40/40/40 41/41/41
f 43/43/43 31/31/31 36/36/36
f 43/43/43 44/44/44 31/31/31
f 43/43/43 45/45/45 44/44/44
f 43/43/43 46/46/46 45/45/45
f 44/44/44 45/45/45 47/47/47
f 44/44/44 47/47/47 48/48/48
f 47/47/47 49/49/49 48/48/48
f 47/47/47 50/50/50 49/49/49
f 49/49/49 50/50/50 51/51/51
f 49/49/49 51/51/51 52/52/52
f 53/53/53 52/52/52 51/51/51
f 52/52/52 53/53/53 42/42/42
f 53/53/53 51/51/51 54/54/54
f 18/18/18 45/45/45 46/46/46
f 18/18/18 46/46/46 21/21/21
f 21/21/21 46/46/46 55/55/55
f 43/43/43 55/55/55 46/46/46
f 24/24/24 55/55/55 43/43/43
f 21/21/21 55/55/55 24/24/24
f 24/24/24 43/43/43 36/36/36
f 32/32/32 48/48/48 49/49/49
f 32/32/32 49/49/49 35/35/35
f 35/35/35 49/49/49 52/52/52
f 50/50/50 47/47/47 9/9/9
f 50/50/50 9/9/9 1/1/1
f 51/51/51 50/50/50 1/1/1
f 10/10/10 54/54/54 51/51/51
f 14/14/14 54/54/54 10/10/10
f 14/14/14 56/56/56 54/54/54
f 56/56/56 53/53/53 54/54/54
f 42/42/42 56/56/56 14/14/14
f 42/42/42 53/53/53 56/56/56
f 9/9/9 45/45/45 18/18/18
f 9/9/9 47/47/47 45/45/45
f 52/52/52 42/42/42 39/39/39
f 35/35/35 52/52/52 39/39/39
f 10/10/10 51/51/51 2/2/2
f 51/51/51 1/1/1 2/2/2
f 44/44/44 32/32/32 31/31/31
f 44/44/44 48/48/48 32/32/32
f 59/59/59 58/58/58 57/57/57
f 59/59/59 60/60/60 58/58/58
f 61/61/61 57/57/57 58/58/58
f 61/61/61 62/62/62 57/57/57
f 62/62/62 61/61/61 63/63/63
f 62/62/62 63/63/63 64/64/64
f 65/65/65 60/60/60 59/59/59
f 65/65/65 66/66/66 60/60/60
f 67/67/67 66/66/66 65/65/65
f 67/67/67 68/68/68 66/66/66
f 68/68/68 67/67/67 69/69/69
f 68/68/68 69/69/69 70/70/70
f 71/71/71 70/70/70 69/69/69
f 71/71/71 72/72/72 70/70/70
f 64/64/64 63/63/63 73/73/73
f 64/64/64 73/73/73 74/74/74
f 75/75/75 74/74/74 73/73/73
f 75/75/75 76/76/76 74/74/74
f 76/76/76 75/75/75 77/77/77
f 76/76/76 77/77/77 78/78/78
f 78/78/78 77/77/77 79/79/79
f 78/78/78 79/79/79 80/80/80
f 80/80/80 79/79/79 81/81/81
f 80/80/80 81/81/81 82/82/82
f 83/83/83 82/82/82 81/81/81
f 83/83/83 84/84/84 82/82/82
f 84/84/84 83/83/83 85/85/85
f 84/84/84 85/85/85 86/86/86
f 89/89/89 88/88/88 87/87/87
f 89/89/89 90/90/90 88/88/88
f 91/91/91 89/89/89 87/87/87
f 91/91/91 87/87/87 92/92/92
f 90/90/90 93/93/93 88/88/88
f 90/90/90 94/94/94 93/93/93
f 94/94/94 95/95/95 93/93/93
f 94/94/94 96/96/96 95/95/95
f 96/96/96 97/97/97 95/95/95
f 96/96/96 98/98/98 97/97/97
f 101/101/101 100/100/100 99/99/99
f 101/101/101 102/102/102 100/100/100
f 101/101/101 103/103/103 102/102/102
f 101/101/101 104/104/104 103/103/103
f 99/99/99 100/100/100 105/105/105
f 99/99/99 105/105/105 106/106/106
f 106/106/106 105/105/105 107/107/107
f 106/106/106 107/107/107 108/108/108
f 108/108/108 107/107/107 109/109/109
f 108/108/108 109/109/109 110/110/110
f 110/110/110 109/109/109 111/111/111
f 110/110/110 111/111/111 112/112/112
f 111/111/111 113/113/113 112/112/112
f 111/111/111 114/114/114 113/113/113
f 115/115/115 113/113/113 114/114/114
f 115/115/115 114/114/114 116/116/116
f 116/116/116 117/117/117 115/115/115
f 116/116/116 118/118/118 117/117/117
f 118/118/118 119/119/119 117/117/117
f 118/118/118 120/120/120 119/119/119
f 119/119/119 120/120/120 121/121/121
f 122/122/122 119/119/119 121/121/121
f 122/122/122 121/121/121 123/123/123
f 126/126/126 125/125/125 124/124/124
f 126/126/126 127/127/127 125/125/125
f 130/130/130 129/129/129 128/128/128
f 130/130/130 131/131/131 129/129/129
f 128/128/128 129/129/129 132/132/132
f 128/128/128 132/132/132 133/133/133
f 134/134/134 131/131/131 130/130/130
f 134/134/134 135/135/135 131/131/131
f 136/136/136 135/135/135 134/134/134
f 136/136/136 137/137/137 135/135/135
f 136/136/136 138/138/138 137/137/137
f 136/136/136 139/139/139 138/138/138
f 140/140/140 137/137/137 138/138/138
f 140/140/140 141/141/141 137/137/137
f 141/141/141 140/140/140 142/142/142
f 140/140/140 143/143/143 142/142/142
f 141/141/141 142/142/142 144/144/144
f 145/145/145 141/141/141 144/144/144
f 136/136/136 146/146/146 139/139/139
f 104/104/104 147/147/147 103/103/103
f 104/104/104 148/148/148 147/147/147
