g sight_front_m1911_colt_m1911a1_std_LOD0
v 0.0007112193 0.003089924 2.741814E-07
v 0.0007112194 0.002425413 -0.0007190204
v 0.0007112203 -0.003089981 2.741814E-07
v 0.0007112202 -0.00242547 -0.0007190156
v 0.00071122 -0.001574841 -0.001245589
v 0.0007112195 0.001574774 -0.001245592
v 0.0007112201 -0.00157485 -0.003229403
v 0.0007112196 0.001574764 -0.003229403
v 0.001016021 -0.005283203 2.741814E-07
v -0.001015981 -0.005283203 2.741814E-07
v 0.001016021 -0.005283203 0.0008751106
v -0.001015981 -0.005283203 0.0008751106
v 0.001016021 -0.004445009 0.00143518
v 0.001016021 -0.005283203 2.741814E-07
v 0.001016021 -0.005283203 0.0008751106
v 0.001016021 -0.003402061 0.001949503
v 0.00101602 -0.002300901 0.002323294
v 0.00101602 -0.001160374 0.002550156
v 0.00101602 -4.193305E-05 0.002620575
v 0.001016019 0.005283203 0.0008903336
v 0.001016019 0.005283203 2.741814E-07
v 0.0007112203 -0.003089981 2.741814E-07
v 0.001016021 -0.005283203 2.741814E-07
v 0.0007112193 0.003089924 2.741814E-07
v 0.001016019 0.005283203 2.741814E-07
v -0.0007111813 0.003089933 2.741814E-07
v -0.001015983 0.005283203 2.741814E-07
v -0.001015981 -0.005283203 2.741814E-07
v -0.0007111803 -0.003089971 2.741814E-07
v 0.001016019 0.005283203 2.741814E-07
v 0.001016019 0.005283203 0.0008903336
v -0.001015983 0.005283203 2.741814E-07
v -0.001015983 0.005283203 0.0008903336
v 0.001016019 0.005283203 0.0008903336
v 0.00101602 -4.193305E-05 0.002620575
v -0.001015983 0.005283203 0.0008903336
v -0.001015982 -4.193305E-05 0.002620575
v 0.0007112194 0.002425413 -0.0007190204
v 0.0007112193 0.003089924 2.741814E-07
v -0.0007111811 0.002425432 -0.0007190204
v -0.0007111813 0.003089933 2.741814E-07
v -0.0007111811 0.001574783 -0.001245592
v 0.0007112195 0.001574774 -0.001245592
v 0.00101602 -4.193305E-05 0.002620575
v 0.00101602 -0.001160374 0.002550156
v -0.001015982 -4.193305E-05 0.002620575
v -0.001015982 -0.001160374 0.002550156
v 0.00101602 -0.002300901 0.002323294
v -0.001015982 -0.002300901 0.002323294
v 0.001016021 -0.003402061 0.001949503
v -0.001015981 -0.003402061 0.001949503
v 0.001016021 -0.004445009 0.00143518
v -0.001015981 -0.004445009 0.00143518
v 0.001016021 -0.005283203 0.0008751106
v -0.001015981 -0.005283203 0.0008751106
v 0.0007112196 0.001574764 -0.003229403
v 0.0007112195 0.001574774 -0.001245592
v -0.000711181 0.001574783 -0.003229403
v -0.0007111811 0.001574783 -0.001245592
v 0.0007112202 -0.00242547 -0.0007190156
v 0.00071122 -0.001574841 -0.001245589
v -0.0007111804 -0.002425451 -0.0007190156
v -0.0007111806 -0.001574841 -0.001245589
v -0.0007111803 -0.003089971 2.741814E-07
v 0.0007112203 -0.003089981 2.741814E-07
v 0.0007112201 -0.00157485 -0.003229403
v 0.0007112196 0.001574764 -0.003229403
v -0.0007111805 -0.001574841 -0.003229403
v -0.000711181 0.001574783 -0.003229403
v 0.00071122 -0.001574841 -0.001245589
v 0.0007112201 -0.00157485 -0.003229403
v -0.0007111806 -0.001574841 -0.001245589
v -0.0007111805 -0.001574841 -0.003229403
v -0.001015981 -0.004445009 0.00143518
v -0.001015981 -0.005283203 0.0008751106
v -0.001015981 -0.005283203 2.741814E-07
v -0.001015981 -0.003402061 0.001949503
v -0.001015982 -0.002300901 0.002323294
v -0.001015982 -0.001160374 0.002550156
v -0.001015982 -4.193305E-05 0.002620575
v -0.001015983 0.005283203 0.0008903336
v -0.001015983 0.005283203 2.741814E-07
v -0.0007111813 0.003089933 2.741814E-07
v -0.0007111803 -0.003089971 2.741814E-07
v -0.0007111811 0.002425432 -0.0007190204
v -0.0007111804 -0.002425451 -0.0007190156
v -0.0007111806 -0.001574841 -0.001245589
v -0.0007111811 0.001574783 -0.001245592
v -0.0007111805 -0.001574841 -0.003229403
v -0.000711181 0.001574783 -0.003229403
vt 0.9860585 0.01204944
vt 0.9654295 0.03110921
vt 0.9860564 0.1892865
vt 0.9654268 0.1702291
vt 0.9503261 0.1458342
vt 0.9503275 0.05550486
vt 0.8934327 0.1458324
vt 0.8934321 0.05550319
vt 0.08760445 0.9503816
vt 0.01823728 0.9503816
vt 0.0876054 0.9802459
vt 0.01823763 0.9802468
vt 0.1240881 0.8540214
vt 0.0954738 0.8050374
vt 0.09547452 0.8349022
vt 0.1596917 0.8715788
vt 0.1972831 0.8843397
vt 0.236218 0.8920839
vt 0.2743987 0.8944881
vt 0.4561864 0.8354213
vt 0.4561864 0.8050374
vt 0.06206208 0.04898834
vt 0.008110404 0.05648661
vt 0.2140817 0.04898751
vt 0.2680331 0.05648506
vt 0.2140812 0.01399815
vt 0.2680331 0.006499887
vt 0.008110404 0.006501317
vt 0.06206197 0.01399863
vt 0.08973815 0.9195927
vt 0.08973767 0.8892081
vt 0.02037049 0.9195926
vt 0.02037073 0.8892078
vt 0.9917326 0.9888893
vt 0.9917319 0.740404
vt 0.9015547 0.9888893
vt 0.9015543 0.7404049
vt 0.7598903 0.9544687
vt 0.7598903 0.9826227
vt 0.8007852 0.9544687
vt 0.8007851 0.9826226
vt 0.8007852 0.9257063
vt 0.7598903 0.9257063
vt 0.5536922 0.9894511
vt 0.5919487 0.9894511
vt 0.5536921 0.9200837
vt 0.5919483 0.9200837
vt 0.6316462 0.9894511
vt 0.6316463 0.9200836
vt 0.6713435 0.9894511
vt 0.6713436 0.9200832
vt 0.711041 0.9894506
vt 0.7110412 0.9200835
vt 0.745455 0.9894505
vt 0.745455 0.9200831
vt 0.927237 0.325327
vt 0.9842724 0.3253271
vt 0.927237 0.2844326
vt 0.9842724 0.2844326
vt 0.03266442 0.8387158
vt 0.03266525 0.867479
vt 0.07355869 0.8387156
vt 0.07355917 0.8674781
vt 0.07355869 0.8105615
vt 0.03266382 0.8105621
vt 0.1546847 0.9842898
vt 0.1546847 0.8906418
vt 0.112393 0.9842899
vt 0.112393 0.8906424
vt 0.9870999 0.217527
vt 0.9300653 0.217526
vt 0.9871005 0.2584217
vt 0.9300656 0.258421
vt 0.2064806 0.9365692
vt 0.1778678 0.9556897
vt 0.1778678 0.9855538
vt 0.2420848 0.9190123
vt 0.279676 0.9062514
vt 0.3186105 0.8985074
vt 0.3567918 0.896104
vt 0.5385779 0.9551706
vt 0.5385779 0.9855549
vt 1.986058 0.01204944
vt 1.986056 0.1892865
vt 1.96543 0.03110921
vt 1.965427 0.1702291
vt 1.950326 0.1458342
vt 1.950327 0.05550486
vt 1.893433 0.1458324
vt 1.893432 0.05550319
vn 1 0 0
vn 1 0 0
vn 1 0 0
vn 1 0 0
vn 1 0 0
vn 1 0 0
vn 1 0 0
vn 1 0 0
vn 7.45041E-07 -1 0
vn 7.45041E-07 -1 0
vn 7.45041E-07 -1 0
vn 7.45041E-07 -1 0
vn 1 0 0
vn 1 0 0
vn 1 0 0
vn 1 0 0
vn 1 0 0
vn 1 0 0
vn 1 0 0
vn 1 0 0
vn 1 0 0
vn 0 0 -1
vn 0 0 -1
vn 0 0 -1
vn 0 0 -1
vn 0 0 -1
vn 0 0 -1
vn 0 0 -1
vn 0 0 -1
vn 0 1 0
vn 0 1 0
vn 0 1 0
vn 0 1 0
vn 0 0.3089944 0.9510639
vn 0 0.3089944 0.9510639
vn 0 0.3089944 0.9510639
vn 0 0.3089944 0.9510639
vn 8.195475E-06 0.6362787 -0.7714593
vn 8.195639E-06 0.73452 -0.678587
vn 6.705388E-06 0.6362787 -0.7714593
vn 5.215407E-06 0.73452 -0.678587
vn 6.705559E-06 0.5263358 -0.8502769
vn 6.705559E-06 0.5263358 -0.8502769
vn 0 -0.06284732 0.9980232
vn 0 -0.129224 0.9916154
vn 0 -0.06284732 0.9980232
vn 0 -0.129224 0.9916154
vn 0 -0.2588259 0.965924
vn 0 -0.2588259 0.965924
vn 0 -0.3827084 0.9238693
vn 0 -0.3827084 0.9238693
vn 0 -0.500006 0.8660221
vn 0 -0.500006 0.8660221
vn 0 -0.5556022 0.8314483
vn 0 -0.5556022 0.8314483
vn 1.341074E-05 1 0
vn 1.341074E-05 1 0
vn 1.341074E-05 1 0
vn 1.341074E-05 1 0
vn -6.705388E-06 -0.6362787 -0.7714593
vn -5.960497E-06 -0.5263358 -0.8502769
vn -7.450431E-06 -0.6362787 -0.7714593
vn -3.725311E-06 -0.5263358 -0.8502769
vn -8.195639E-06 -0.73452 -0.678587
vn -5.215407E-06 -0.73452 -0.678587
vn 0 0 -1
vn 0 0 -1
vn 0 0 -1
vn 0 0 -1
vn -6.705369E-06 -1 0
vn -6.705369E-06 -1 0
vn -6.705369E-06 -1 0
vn -6.705369E-06 -1 0
vn -1 0 0
vn -1 0 0
vn -1 0 0
vn -1 0 0
vn -1 0 0
vn -1 0 0
vn -1 0 0
vn -1 0 0
vn -1 0 0
vn -1 0 0
vn -1 0 0
vn -1 0 0
vn -1 0 0
vn -1 0 0
vn -1 0 0
vn -1 0 0
vn -1 0 0
g sight_front_m1911_colt_m1911a1_std_LOD0_0
f 3/3/3 2/2/2 1/1/1
f 3/3/3 4/4/4 2/2/2
f 5/5/5 2/2/2 4/4/4
f 5/5/5 6/6/6 2/2/2
f 7/7/7 6/6/6 5/5/5
f 7/7/7 8/8/8 6/6/6
f 11/11/11 10/10/10 9/9/9
f 11/11/11 12/12/12 10/10/10
f 15/15/15 14/14/14 13/13/13
f 13/13/13 14/14/14 16/16/16
f 17/17/17 16/16/16 14/14/14
f 17/17/17 14/14/14 18/18/18
f 18/18/18 14/14/14 19/19/19
f 19/19/19 14/14/14 20/20/20
f 20/20/20 14/14/14 21/21/21
f 24/24/24 23/23/23 22/22/22
f 24/24/24 25/25/25 23/23/23
f 26/26/26 25/25/25 24/24/24
f 26/26/26 27/27/27 25/25/25
f 28/28/28 22/22/22 23/23/23
f 28/28/28 27/27/27 26/26/26
f 28/28/28 29/29/29 22/22/22
f 28/28/28 26/26/26 29/29/29
f 32/32/32 31/31/31 30/30/30
f 32/32/32 33/33/33 31/31/31
f 36/36/36 35/35/35 34/34/34
f 36/36/36 37/37/37 35/35/35
f 40/40/40 39/39/39 38/38/38
f 40/40/40 41/41/41 39/39/39
f 42/42/42 40/40/40 38/38/38
f 42/42/42 38/38/38 43/43/43
f 46/46/46 45/45/45 44/44/44
f 46/46/46 47/47/47 45/45/45
f 47/47/47 48/48/48 45/45/45
f 47/47/47 49/49/49 48/48/48
f 49/49/49 50/50/50 48/48/48
f 49/49/49 51/51/51 50/50/50
f 51/51/51 52/52/52 50/50/50
f 51/51/51 53/53/53 52/52/52
f 53/53/53 54/54/54 52/52/52
f 53/53/53 55/55/55 54/54/54
f 58/58/58 57/57/57 56/56/56
f 58/58/58 59/59/59 57/57/57
f 62/62/62 61/61/61 60/60/60
f 62/62/62 63/63/63 61/61/61
f 64/64/64 62/62/62 60/60/60
f 64/64/64 60/60/60 65/65/65
f 68/68/68 67/67/67 66/66/66
f 68/68/68 69/69/69 67/67/67
f 72/72/72 71/71/71 70/70/70
f 72/72/72 73/73/73 71/71/71
f 76/76/76 75/75/75 74/74/74
f 76/76/76 74/74/74 77/77/77
f 77/77/77 78/78/78 76/76/76
f 76/76/76 78/78/78 79/79/79
f 76/76/76 79/79/79 80/80/80
f 76/76/76 80/80/80 81/81/81
f 76/76/76 81/81/81 82/82/82
f 85/85/85 84/84/84 83/83/83
f 85/85/85 86/86/86 84/84/84
f 85/85/85 87/87/87 86/86/86
f 85/85/85 88/88/88 87/87/87
f 88/88/88 89/89/89 87/87/87
f 88/88/88 90/90/90 89/89/89
