g sight_front_glock_dead_ringer_snake_eyes_glock_sights_LOD1
v 0.001505893 -0.004329031 -0.0002039741
v 0.001505893 -0.004056056 0.002740641
v 0.00150589 0.01166794 0.003104626
v 0.001505888 0.01193795 -0.0001090644
v 0.001505891 0.01152128 0.00485008
v 0.001505894 -0.003205925 0.003764262
v 0.001505888 0.01193795 -0.0001090644
v -0.001484124 0.01193795 -0.0001090637
v -0.001484119 -0.004329032 -0.0002039732
v 0.001505893 -0.004329031 -0.0002039741
v 0.001505891 0.01152128 0.00485008
v 1.720667E-05 0.01152128 0.004850081
v 0.00150589 0.01166794 0.003104626
v -0.001484122 0.01166424 0.003148584
v -0.001484122 0.01152128 0.004850081
v -7.830322E-05 0.01180635 0.001457244
v 0.001505888 0.01193795 -0.0001090644
v -0.001484124 0.01193795 -0.0001090637
v 0.001505894 -0.003205925 0.003764262
v -0.001484118 -0.003205926 0.003764263
v 1.720667E-05 0.01152128 0.004850081
v 0.001505891 0.01152128 0.00485008
v -0.001484122 0.01152128 0.004850081
v 0.001505893 -0.004329031 -0.0002039741
v -0.001484119 -0.004329032 -0.0002039732
v -0.001484118 -0.004056057 0.002740641
v 0.001505893 -0.004056056 0.002740641
v 0.001505893 -0.004056056 0.002740641
v -0.001484118 -0.004056057 0.002740641
v -0.001484118 -0.003205926 0.003764263
v 0.001505894 -0.003205925 0.003764262
v -0.001484119 -0.004329032 -0.0002039732
v -0.001484124 0.01193795 -0.0001090637
v -0.001484122 0.01166424 0.003148584
v -0.001484118 -0.004056057 0.002740641
v -0.001484122 0.01152128 0.004850081
v -0.001484118 -0.003205926 0.003764263
vt 0.9902019 0.6771163
vt 0.9723062 0.8534533
vt 0.02973179 0.8670679
vt 0.0152249 0.6743214
vt 0.03761093 0.9717546
vt 0.9208215 0.9143585
vt 0.01426821 0.2366021
vt 0.01478224 0.4158082
vt 0.9897588 0.4130134
vt 0.9892452 0.2338071
vt 0.3219298 0.6196717
vt 0.3219298 0.5304471
vt 0.2169471 0.6196717
vt 0.219591 0.4404646
vt 0.3219298 0.4404646
vt 0.117866 0.5247257
vt 0.02365541 0.6196717
vt 0.02365541 0.4404646
vt 0.9104592 0.2002521
vt 0.9104592 0.02104497
vt 0.02538574 0.1110275
vt 0.02538576 0.2002521
vt 0.02538572 0.02104497
vt 0.552253 0.6313391
vt 0.5522535 0.452132
vt 0.3750103 0.452132
vt 0.3750103 0.6313391
vt 0.9902095 0.2002521
vt 0.9902095 0.02104497
vt 0.9104592 0.02104497
vt 0.9104592 0.2002521
vt 0.9929284 0.6758485
vt 0.01795136 0.6786433
vt 0.03377666 0.8739389
vt 0.9760439 0.8522852
vt 0.04204234 0.9759434
vt 0.9249094 0.9134846
vn 1 0 -1.490118E-06
vn 1 0 0
vn 1 0 0
vn 1 0 -1.490118E-06
vn 1 0 0
vn 1 0 -2.980235E-06
vn 0 0.005829337 -0.9999831
vn 0 0.005841257 -0.999983
vn 0 0.005835279 -0.999983
vn -2.980233E-06 0.005835296 -0.999983
vn -2.980216E-06 0.9964888 0.08372619
vn 0 0.9964888 0.08372619
vn 0 0.9964888 0.08372619
vn -1.490126E-06 0.996489 0.08372422
vn 0 0.9964888 0.08372717
vn 0 0.996489 0.08372422
vn 0 0.9964889 0.08372571
vn 0 0.9964889 0.08372471
vn 0 -0.0735283 0.9972931
vn 1.490116E-06 -0.0735283 0.9972931
vn 0 -0.0735283 0.9972931
vn 0 -0.0735283 0.9972931
vn 0 -0.0735283 0.9972931
vn 0 -0.9957306 0.09230666
vn 1.490115E-06 -0.9957306 0.09230666
vn 0 -0.9957306 0.09230666
vn 0 -0.9957306 0.09230666
vn 0 -0.7692877 0.6389025
vn 1.490117E-06 -0.7692877 0.6389025
vn 1.490114E-06 -0.7692862 0.6389042
vn 0 -0.7692862 0.6389042
vn -1 0 0
vn -1 0 0
vn -1 0 0
vn -1 0 0
vn -1 0 0
vn -1 0 0
g sight_front_glock_dead_ringer_snake_eyes_glock_sights_LOD1_0
f 3/3/3 2/2/2 1/1/1
f 4/4/4 3/3/3 1/1/1
f 5/5/5 2/2/2 3/3/3
f 6/6/6 2/2/2 5/5/5
f 9/9/9 8/8/8 7/7/7
f 10/10/10 9/9/9 7/7/7
f 13/13/13 12/12/12 11/11/11
f 15/15/15 12/12/12 14/14/14
f 17/17/17 16/16/16 13/13/13
f 14/14/14 16/16/16 18/18/18
f 18/18/18 16/16/16 17/17/17
f 21/21/21 20/20/20 19/19/19
f 22/22/22 21/21/21 19/19/19
f 23/23/23 20/20/20 21/21/21
f 26/26/26 25/25/25 24/24/24
f 27/27/27 26/26/26 24/24/24
f 30/30/30 29/29/29 28/28/28
f 31/31/31 30/30/30 28/28/28
f 34/34/34 33/33/33 32/32/32
f 35/35/35 34/34/34 32/32/32
f 36/36/36 34/34/34 35/35/35
f 37/37/37 36/36/36 35/35/35
g sight_front_glock_dead_ringer_snake_eyes_glock_sights_LOD1_1
f 12/12/12 13/13/13 16/16/16
f 14/14/14 12/12/12 16/16/16
