g sight_front_m9_beretta_m9a3_std_LOD1
v -0.003708177 -0.002171345 -0.002059212
v -0.003708177 0.00208972 -0.002059207
v -0.001705773 0.001685924 -0.001359305
v -0.001705773 -0.001767521 -0.001359305
v -0.005773792 0.002759304 -0.003219738
v -0.005773791 -0.002840919 -0.003219743
v 0.001705773 0.001685924 -0.001359305
v 0.003708187 0.00208972 -0.002059207
v 0.003708187 -0.002171345 -0.002059212
v 0.001705773 -0.001767521 -0.001359305
v 0.00577379 0.002759313 -0.003219738
v 0.005773791 -0.00284091 -0.003219743
v -0.001705773 -0.001767521 -0.001359305
v 0.001705773 -0.001767521 -0.001359305
v 0.003708187 -0.002171345 -0.002059212
v -0.003708177 -0.002171345 -0.002059212
v -0.005773791 -0.002840919 -0.003219743
v 0.005773791 -0.00284091 -0.003219743
v -0.003708177 0.00208972 -0.002059207
v -0.005773792 0.002759304 -0.003219738
v 0.00577379 0.002759313 -0.003219738
v 0.003708187 0.00208972 -0.002059207
v 0.001705773 0.001685924 -0.001359305
v -0.001705773 0.001685924 -0.001359305
v -0.005773791 -0.002840919 -0.003219743
v 0.005773791 -0.00284091 -0.003219743
v 0.00577379 0.002759313 -0.003219738
v -0.005773792 0.002759304 -0.003219738
v 0.001705774 -0.006094866 0.002234235
v -0.001705772 -0.006094856 0.002234235
v -0.001705774 0.004674005 0.003219752
v 0.001705772 0.004674005 0.003219752
v -0.001705774 0.006094875 -0.001359301
v 0.001705772 0.006094875 -0.001359301
v 0.001705772 0.004674005 0.003219752
v -0.001705774 0.004674005 0.003219752
v -0.001705772 -0.006094866 -0.001359305
v 0.001705774 -0.006094866 -0.001359305
v 0.001705772 0.006094875 -0.001359301
v -0.001705774 0.006094875 -0.001359301
v 0.001705774 -0.006094866 -0.001359305
v -0.001705772 -0.006094866 -0.001359305
v -0.001705772 -0.006094856 0.002234235
v 0.001705774 -0.006094866 0.002234235
v -0.001705772 -0.006094856 0.002234235
v -0.001705772 -0.006094866 -0.001359305
v -0.001705774 0.006094875 -0.001359301
v -0.001705774 0.004674005 0.003219752
v 0.001705772 0.006094875 -0.001359301
v 0.001705774 -0.006094866 -0.001359305
v 0.001705774 -0.006094866 0.002234235
v 0.001705772 0.004674005 0.003219752
vt 0.8178743 0.2895247
vt 0.8178744 0.04715776
vt 0.9314771 0.07012582
vt 0.9314769 0.2665555
vt 0.6909847 0.00907284
vt 0.6909847 0.32761
vt 0.9314771 0.07012612
vt 0.817874 0.04715794
vt 0.817874 0.2895252
vt 0.9314771 0.2665558
vt 0.6909847 0.009072959
vt 0.6909847 0.3276099
vt 0.8045474 0.7640195
vt 0.8045472 0.569973
vt 0.7612714 0.4560769
vt 0.7612714 0.877915
vt 0.6895152 0.995406
vt 0.689515 0.3385863
vt 0.7612716 0.4560774
vt 0.6895155 0.3385864
vt 0.6895157 0.995406
vt 0.7612718 0.8779158
vt 0.8045474 0.7640196
vt 0.8045472 0.569973
vt 0.003854811 0.009754628
vt 0.003950357 0.666574
vt 0.3038742 0.6665248
vt 0.3037786 0.009705156
vt 0.6821185 0.007704198
vt 0.4994109 0.007704496
vt 0.49941 0.6227911
vt 0.6821179 0.6227914
vt 0.9957275 0.517545
vt 0.8130201 0.517545
vt 0.8130201 0.7902499
vt 0.9957275 0.7902499
vt 0.3103126 0.7016526
vt 0.4930203 0.7016526
vt 0.4930203 0.00830698
vt 0.3103126 0.00830698
vt 0.97578 0.3056724
vt 0.7930723 0.3056724
vt 0.7930723 0.5100707
vt 0.97578 0.5100707
vt 0.6543779 0.9156967
vt 0.6543784 0.7112982
vt 0.001547694 0.711298
vt 0.07764316 0.971752
vt 0.001547575 0.7112982
vt 0.6543782 0.7112981
vt 0.6543783 0.915697
vt 0.07764292 0.971752
vn -0.4229439 0 0.9061559
vn -0.4229439 0 0.9061559
vn -0.3299633 0 0.9439937
vn -0.3299633 0 0.9439937
vn -0.489784 0 0.8718439
vn -0.489784 0 0.8718439
vn 0.32996 0 0.9439949
vn 0.4229439 0 0.9061559
vn 0.4229439 0 0.9061559
vn 0.32996 0 0.9439949
vn 0.489784 0 0.8718439
vn 0.489784 0 0.8718439
vn 0 -0.8661332 0.4998133
vn 0 -0.8661332 0.4998133
vn 0 -0.8661332 0.4998133
vn 0 -0.8661332 0.4998133
vn 0 -0.8661937 0.4997085
vn 0 -0.8661937 0.4997085
vn 0 0.8661937 0.4997085
vn 0 0.8661332 0.4998133
vn 0 0.8661332 0.4998133
vn 0 0.8661937 0.4997085
vn 0 0.8661332 0.4998133
vn 0 0.8661332 0.4998133
vn 0 0 -1
vn 0 0 -1
vn 0 0 -1
vn 0 0 -1
vn 0 -0.09108177 0.9958435
vn 0 -0.09108177 0.9958435
vn 0 -0.09108177 0.9958435
vn 0 -0.09108177 0.9958435
vn 0 0.9550215 0.2965364
vn 0 0.9550215 0.2965364
vn 0 0.9550772 0.2963573
vn 0 0.9550772 0.2963573
vn 0 0 -1
vn 0 0 -1
vn 0 0 -1
vn 0 0 -1
vn 0 -1 0
vn 0 -1 0
vn 0 -1 0
vn 0 -1 0
vn -1 0 0
vn -1 0 0
vn -1 0 0
vn -1 0 0
vn 1 0 0
vn 1 0 0
vn 1 0 0
vn 1 0 0
g sight_front_m9_beretta_m9a3_std_LOD1_0
f 3/3/3 2/2/2 1/1/1
f 4/4/4 3/3/3 1/1/1
f 2/2/2 5/5/5 1/1/1
f 5/5/5 6/6/6 1/1/1
f 9/9/9 8/8/8 7/7/7
f 10/10/10 9/9/9 7/7/7
f 8/8/8 9/9/9 11/11/11
f 9/9/9 12/12/12 11/11/11
f 15/15/15 14/14/14 13/13/13
f 16/16/16 15/15/15 13/13/13
f 16/16/16 17/17/17 15/15/15
f 17/17/17 18/18/18 15/15/15
f 21/21/21 20/20/20 19/19/19
f 22/22/22 21/21/21 19/19/19
f 22/22/22 19/19/19 23/23/23
f 19/19/19 24/24/24 23/23/23
f 27/27/27 26/26/26 25/25/25
f 28/28/28 27/27/27 25/25/25
f 31/31/31 30/30/30 29/29/29
f 32/32/32 31/31/31 29/29/29
f 35/35/35 34/34/34 33/33/33
f 36/36/36 35/35/35 33/33/33
f 39/39/39 38/38/38 37/37/37
f 40/40/40 39/39/39 37/37/37
f 43/43/43 42/42/42 41/41/41
f 44/44/44 43/43/43 41/41/41
f 47/47/47 46/46/46 45/45/45
f 48/48/48 47/47/47 45/45/45
f 51/51/51 50/50/50 49/49/49
f 52/52/52 51/51/51 49/49/49
