g sight_front_p226_meprolight_tru_dot_night_sight_LOD1
v -0.001737146 -0.001807489 -0.001054471
v 0.001495029 -0.001807499 -0.001054471
v 0.005169697 -0.001807499 -0.002277906
v -0.005508638 -0.001807489 -0.002277901
v -0.005508638 -0.001807489 -0.001054468
v 0.005169698 -0.001807499 -0.001054473
v -0.005508638 0.002213449 -0.002277901
v 0.005169699 0.00221344 -0.002277906
v 0.001495031 0.00221344 -0.001054471
v -0.001737144 0.002213449 -0.001054471
v -0.005508636 0.002213449 -0.001054468
v 0.005169699 0.00221344 -0.001054473
v -0.005508638 -0.001807489 -0.002277901
v 0.005169697 -0.001807499 -0.002277906
v 0.005169699 0.00221344 -0.002277906
v -0.005508638 0.002213449 -0.002277901
v 0.005169697 -0.001807499 -0.002277906
v 0.005169698 -0.001807499 -0.001054473
v 0.005169699 0.00221344 -0.001054473
v 0.005169699 0.00221344 -0.002277906
v -0.005508638 0.002213449 -0.002277901
v -0.005508636 0.002213449 -0.001054468
v -0.005508638 -0.001807489 -0.001054468
v -0.005508638 -0.001807489 -0.002277901
v -0.005508638 -0.001807489 -0.001054468
v -0.005508636 0.002213449 -0.001054468
v -0.001737144 0.002213449 -0.001054471
v -0.001737146 -0.001807489 -0.001054471
v 0.001495031 0.00221344 -0.001054471
v 0.005169699 0.00221344 -0.001054473
v 0.005169698 -0.001807499 -0.001054473
v 0.001495029 -0.001807499 -0.001054471
v 0.001495031 0.00221344 -0.001054471
v 0.001495031 0.00221344 -0.0006906771
v -0.001737144 0.002213449 -0.0006906771
v -0.001737144 0.002213449 -0.001054471
v -0.001737146 -0.001807489 -0.001054471
v -0.001737146 -0.001807489 -0.0006906771
v 0.001495029 -0.001807499 -0.0006906771
v 0.001495029 -0.001807499 -0.001054471
v -0.001737144 0.002213449 -0.001054471
v -0.001737144 0.002213449 -0.0006906771
v -0.001737146 -0.001807489 -0.0006906771
v -0.001737146 -0.001807489 -0.001054471
v 0.001495029 -0.001807499 -0.001054471
v 0.001495029 -0.001807499 -0.0006906771
v 0.001495031 0.00221344 -0.0006906771
v 0.001495031 0.00221344 -0.001054471
v -0.002559131 -0.003903189 -0.0006527376
v -0.001889856 -0.00345808 0.003557289
v 0.001580799 -0.00345809 0.003557289
v 0.002250067 -0.003903198 -0.0006527376
v -0.001889855 -0.002216921 0.005406616
v 0.001580801 -0.00221693 0.005406616
v -0.001889853 0.0001301956 0.006349439
v 0.001580802 0.0001301861 0.006349439
v 0.001580805 0.005873861 0.00651103
v -0.00188985 0.005873871 0.00651103
v -0.00188985 0.005873871 0.00651103
v -0.002559125 0.008318567 -0.0006527352
v 0.002250073 0.008318557 -0.0006527352
v 0.001580805 0.005873861 0.00651103
v -0.002559125 0.008318567 -0.0006527352
v -0.002559131 -0.003903189 -0.0006527376
v 0.002250067 -0.003903198 -0.0006527376
v 0.002250073 0.008318557 -0.0006527352
v -0.001889853 0.0001301956 0.006349439
v -0.001889856 -0.00345808 0.003557289
v -0.00188985 0.005873871 0.00651103
v -0.002559125 0.008318567 -0.0006527352
v -0.002559131 -0.003903189 -0.0006527376
v -0.001889855 -0.002216921 0.005406616
v 0.001580799 -0.00345809 0.003557289
v 0.001580801 -0.00221693 0.005406616
v 0.001580805 0.005873861 0.00651103
v 0.002250067 -0.003903198 -0.0006527376
v 0.002250073 0.008318557 -0.0006527352
v 0.001580802 0.0001301861 0.006349439
vt 0.384873 0.573409
vt 0.449574 0.573409
vt 0.523134 0.548918
vt 0.309374 0.548918
vt 0.309374 0.573409
vt 0.523134 0.573409
vt 0.324556 0.540142
vt 0.538316 0.540142
vt 0.464756 0.515653
vt 0.400054 0.515653
vt 0.324556 0.515653
vt 0.538316 0.515653
vt 0.629627 0.718579
vt 0.843388 0.718579
vt 0.843388 0.63809
vt 0.629627 0.63809
vt 0.683584 0.396826
vt 0.708074 0.396826
vt 0.708074 0.316337
vt 0.683584 0.316337
vt 0.672991 0.31539
vt 0.648501 0.31539
vt 0.648501 0.39588
vt 0.672991 0.39588
vt 0.403268 0.288999
vt 0.403268 0.208509
vt 0.327771 0.208509
vt 0.327771 0.288999
vt 0.402227 0.117206
vt 0.328669 0.117206
vt 0.328669 0.197697
vt 0.402227 0.197697
vt 0.753359 0.041741
vt 0.753359 0.03446
vt 0.688658 0.03446
vt 0.688658 0.041741
vt 0.388472 0.466595
vt 0.388472 0.473877
vt 0.453173 0.473877
vt 0.453173 0.466595
vt 0.680065 0.014833
vt 0.680065 0.022113
vt 0.760554 0.022112
vt 0.760554 0.014832
vt 0.669824 0.046971
vt 0.669824 0.039689
vt 0.589334 0.03969
vt 0.589334 0.046971
vt 0.888776 0.367816
vt 0.872629 0.265749
vt 0.78895 0.265756
vt 0.772825 0.367831
vt 0.87263 0.212054
vt 0.788951 0.212053
vt 0.872635 0.15107
vt 0.788955 0.151068
vt 0.788958 0.012532
vt 0.872639 0.012532
vt 0.564217 0.006329
vt 0.389787 0.006329
vt 0.389787 0.101358
vt 0.564217 0.101358
vt 0.497841 0.248794
vt 0.742497 0.248794
vt 0.742498 0.152524
vt 0.497843 0.152523
vt 0.692211 0.550319
vt 0.747997 0.622229
vt 0.689143 0.435353
vt 0.833101 0.386384
vt 0.833264 0.631011
vt 0.711012 0.597329
vt 0.196501 0.478008
vt 0.23353 0.453189
vt 0.255683 0.291236
vt 0.11123 0.486652
vt 0.111794 0.242026
vt 0.252419 0.406211
vn -1.23425E-06 -1 0
vn -1.230883E-06 -1 0
vn -2.805464E-07 -1 0
vn -2.738126E-07 -1 0
vn 0 -1 0
vn 0 -1 0
vn 2.738126E-07 1 0
vn 2.805467E-07 1 0
vn 1.230883E-06 1 0
vn 1.23425E-06 1 0
vn 0 1 0
vn 0 1 0
vn -4.465463E-07 0 -1
vn -4.465463E-07 0 -1
vn -4.465463E-07 0 -1
vn -4.465463E-07 0 -1
vn 1 -4.44707E-07 -4.871918E-07
vn 1 -4.44707E-07 -4.871918E-07
vn 1 -4.44707E-07 -4.871918E-07
vn 1 -4.44707E-07 -4.871918E-07
vn -1 4.44707E-07 4.871918E-07
vn -1 4.44707E-07 4.871918E-07
vn -1 4.44707E-07 4.871918E-07
vn -1 4.44707E-07 4.871918E-07
vn 6.321598E-07 0 1
vn 6.321599E-07 0 1
vn 6.321598E-07 0 1
vn 6.321598E-07 0 1
vn 6.488167E-07 0 1
vn 6.488166E-07 0 1
vn 6.488166E-07 0 1
vn 6.488166E-07 0 1
vn 2.950565E-06 1 0
vn 2.950565E-06 1 0
vn 2.950565E-06 1 0
vn 2.950565E-06 1 0
vn -2.950565E-06 -1 0
vn -2.950565E-06 -1 0
vn -2.950565E-06 -1 0
vn -2.950565E-06 -1 0
vn -1 4.817658E-07 4.096051E-07
vn -1 4.817658E-07 4.096051E-07
vn -1 4.817658E-07 4.096051E-07
vn -1 4.817658E-07 4.096051E-07
vn 1 -4.817658E-07 -4.096051E-07
vn 1 -4.817658E-07 -4.096051E-07
vn 1 -4.817658E-07 -4.096051E-07
vn 1 -4.817658E-07 -4.096051E-07
vn -2.290267E-06 -0.9944575 0.1051398
vn -2.352913E-06 -0.9439369 0.3301257
vn -2.352912E-06 -0.9439369 0.3301256
vn -2.290267E-06 -0.9944575 0.1051398
vn -1.724228E-06 -0.6294413 0.7770479
vn -1.724229E-06 -0.6294419 0.7770477
vn -5.564413E-07 -0.2036122 0.9790516
vn -5.564427E-07 -0.2036127 0.9790515
vn 0 -0.02812253 0.9996045
vn 0 -0.02812253 0.9996045
vn 2.187373E-06 0.9464091 0.3229703
vn 2.187373E-06 0.9464091 0.3229703
vn 2.187373E-06 0.9464091 0.3229703
vn 2.187373E-06 0.9464091 0.3229703
vn 0 1.950772E-07 -1
vn 0 1.950772E-07 -1
vn 0 1.950772E-07 -1
vn 0 1.950772E-07 -1
vn -1 4.990539E-07 4.260118E-07
vn -0.9962895 -0.01168479 0.08526881
vn -0.9951704 -0.01332708 0.09725279
vn -0.99334 -0.01564314 0.1141533
vn -0.99334 -0.01564314 0.1141533
vn -1 4.260656E-07 5.19811E-07
vn 0.9962896 -0.01168571 0.08526754
vn 1 -4.89389E-07 -4.625114E-07
vn 0.9951705 -0.013328 0.09725152
vn 0.9933402 -0.01564405 0.1141519
vn 0.9933402 -0.01564405 0.1141519
vn 1 -5.101359E-07 -3.105223E-07
g sight_front_p226_meprolight_tru_dot_night_sight_LOD1_0
f 3/3/3 2/2/2 1/1/1
f 4/4/4 3/3/3 1/1/1
f 1/1/1 5/5/5 4/4/4
f 3/3/3 6/6/6 2/2/2
f 9/9/9 8/8/8 7/7/7
f 10/10/10 9/9/9 7/7/7
f 10/10/10 7/7/7 11/11/11
f 9/9/9 12/12/12 8/8/8
f 15/15/15 14/14/14 13/13/13
f 16/16/16 15/15/15 13/13/13
f 19/19/19 18/18/18 17/17/17
f 20/20/20 19/19/19 17/17/17
f 23/23/23 22/22/22 21/21/21
f 24/24/24 23/23/23 21/21/21
f 27/27/27 26/26/26 25/25/25
f 28/28/28 27/27/27 25/25/25
f 31/31/31 30/30/30 29/29/29
f 32/32/32 31/31/31 29/29/29
f 35/35/35 34/34/34 33/33/33
f 36/36/36 35/35/35 33/33/33
f 39/39/39 38/38/38 37/37/37
f 40/40/40 39/39/39 37/37/37
f 43/43/43 42/42/42 41/41/41
f 44/44/44 43/43/43 41/41/41
f 47/47/47 46/46/46 45/45/45
f 48/48/48 47/47/47 45/45/45
f 51/51/51 50/50/50 49/49/49
f 52/52/52 51/51/51 49/49/49
f 50/50/50 51/51/51 53/53/53
f 51/51/51 54/54/54 53/53/53
f 53/53/53 54/54/54 55/55/55
f 54/54/54 56/56/56 55/55/55
f 56/56/56 57/57/57 55/55/55
f 57/57/57 58/58/58 55/55/55
f 61/61/61 60/60/60 59/59/59
f 62/62/62 61/61/61 59/59/59
f 65/65/65 64/64/64 63/63/63
f 66/66/66 65/65/65 63/63/63
f 69/69/69 68/68/68 67/67/67
f 69/69/69 70/70/70 68/68/68
f 70/70/70 71/71/71 68/68/68
f 68/68/68 72/72/72 67/67/67
f 75/75/75 74/74/74 73/73/73
f 75/75/75 73/73/73 76/76/76
f 77/77/77 75/75/75 76/76/76
f 75/75/75 78/78/78 74/74/74
