g sight_front_mosin_izhmash_mosin_std_LOD1
v -0.000239563 -0.005005226 0.02071664
v 0.008978338 -0.005005226 0.01556384
v -0.000239563 -0.005005226 -0.001402659
v 0.004713538 -0.005005226 -0.001402659
v -0.0002395606 0.005016746 0.02071524
v -0.0002395606 0.005016746 -0.001386256
v 0.00897634 0.005016746 0.01556384
v 0.00471354 0.005016746 -0.001386256
v 0.004713538 -0.005005226 -0.001402659
v 0.00471354 0.005016746 -0.001386256
v -0.000239563 -0.005005226 -0.001402659
v -0.0002395606 0.005016746 -0.001386256
v 0.008978338 -0.005005226 0.01556384
v -0.000239563 -0.005005226 0.02071664
v 0.00897634 0.005016746 0.01556384
v -0.0002395606 0.005016746 0.02071524
v 0.00471354 0.005016746 -0.001386256
v 0.004713538 -0.005005226 -0.001402659
v -0.000239563 -0.005005226 0.02071664
v -0.000239563 -0.005005226 -0.001402659
v -0.009457359 -0.005005226 0.01556384
v -0.005192561 -0.005005226 -0.001402659
v -0.0002395606 0.005016746 0.02071524
v -0.009455361 0.005016746 0.01556384
v -0.0002395606 0.005016746 -0.001386256
v -0.005192559 0.005016746 -0.001386256
v -0.005192561 -0.005005226 -0.001402659
v -0.000239563 -0.005005226 -0.001402659
v -0.005192559 0.005016746 -0.001386256
v -0.0002395606 0.005016746 -0.001386256
v -0.009457359 -0.005005226 0.01556384
v -0.009455361 0.005016746 0.01556384
v -0.000239563 -0.005005226 0.02071664
v -0.0002395606 0.005016746 0.02071524
v -0.005192559 0.005016746 -0.001386256
v -0.005192561 -0.005005226 -0.001402659
vt 0.413473 0.965935
vt 0.657108 0.965935
vt 0.413473 0.045
vt 0.657108 0.045
vt 0.937111 0.747402
vt 0.937111 0.045
vt 0.693512 0.747402
vt 0.693512 0.045
vt 0.938545 0.789438
vt 0.689775 0.789438
vt 0.938545 0.971045
vt 0.689775 0.971045
vt 0.045 0.618056
vt 0.045 0.9641
vt 0.37019 0.618056
vt 0.37019 0.9641
vt 0.37019 0.045
vt 0.045 0.045
vt 1.41347 0.965935
vt 1.41347 0.045
vt 1.65711 0.965935
vt 1.65711 0.045
vt 1.93711 0.747402
vt 1.69351 0.747402
vt 1.93711 0.045
vt 1.69351 0.045
vt 1.93855 0.789438
vt 1.93855 0.971045
vt 1.68977 0.789438
vt 1.68977 0.971045
vt 1.045 0.618056
vt 1.37019 0.618056
vt 1.045 0.9641
vt 1.37019 0.9641
vt 1.37019 0.045
vt 1.045 0.045
vn 0 -1 0
vn 0 -1 0
vn 0 -1 0
vn 0 -1 0
vn 0 1 0
vn 0 1 0
vn 0 1 0
vn 0 1 0
vn 0 0.001525915 -0.9999988
vn 0 0.001525915 -0.9999988
vn 0 0.001525915 -0.9999988
vn 0 0.001525915 -0.9999988
vn 0.9181816 0.000381473 0.3961597
vn 0.4879186 0 0.8728892
vn 0.9181605 0.0003814741 0.3962086
vn 0.4879186 0 0.8728892
vn 0.9698232 0.0003814728 -0.2438088
vn 0.9698359 0.0003814684 -0.2437584
vn 0 -1 0
vn 0 -1 0
vn 0 -1 0
vn 0 -1 0
vn 0 1 0
vn 0 1 0
vn 0 1 0
vn 0 1 0
vn 0 0.001525915 -0.9999988
vn 0 0.001525915 -0.9999988
vn 0 0.001525915 -0.9999988
vn 0 0.001525915 -0.9999988
vn -0.9181853 0.0003814646 0.396151
vn -0.9181605 0 0.3962086
vn -0.4879186 0 0.8728892
vn -0.4879186 0 0.8728892
vn -0.9698232 0.0003814728 -0.2438088
vn -0.9698359 0.0003814684 -0.2437584
g sight_front_mosin_izhmash_mosin_std_LOD1_0
f 3/3/3 2/2/2 1/1/1
f 2/2/2 3/3/3 4/4/4
f 7/7/7 6/6/6 5/5/5
f 6/6/6 7/7/7 8/8/8
f 11/11/11 10/10/10 9/9/9
f 10/10/10 11/11/11 12/12/12
f 15/15/15 14/14/14 13/13/13
f 14/14/14 15/15/15 16/16/16
f 13/13/13 17/17/17 15/15/15
f 17/17/17 13/13/13 18/18/18
f 21/21/21 20/20/20 19/19/19
f 20/20/20 21/21/21 22/22/22
f 25/25/25 24/24/24 23/23/23
f 24/24/24 25/25/25 26/26/26
f 29/29/29 28/28/28 27/27/27
f 28/28/28 29/29/29 30/30/30
f 33/33/33 32/32/32 31/31/31
f 32/32/32 33/33/33 34/34/34
f 35/35/35 31/31/31 32/32/32
f 31/31/31 35/35/35 36/36/36
