g sight_front_all_kac_folding_micro_sight_unfolded_LOD1
v 0.007490779 -0.001457151 0.03124483
v 0.00749078 0.001058244 0.03124483
v 0.007490781 0.002696329 0.03094823
v 0.007490778 -0.003741219 0.03004877
v 0.007490778 -0.004359405 0.02886156
v 0.007490782 0.003794598 0.02992702
v 0.007490784 0.004106339 0.02809858
v 0.007490777 -0.004628181 0.02703493
v 0.007490782 0.004106343 2.55505E-05
v 0.007490777 -0.004628177 -0.004146921
v 0.00749078 -4.22883E-05 -0.00414692
v 0.007490782 0.002899512 -0.002940634
v 0.007490782 0.003808476 -0.001602166
v 0.00749078 0.001574017 -0.003848897
v 0.007490778 -0.002823523 0.03090886
v 0.00749078 0.001058244 0.03124483
v 0.007490779 -0.001457151 0.03124483
v 0.006317588 -0.00145715 0.03124483
v 0.006317589 0.001058244 0.03124483
v 0.007490784 0.004106339 0.02809858
v 0.004580711 0.00410634 0.02809858
v 0.0031613 0.004106341 0.0244732
v 0.007490782 0.004106343 2.55505E-05
v -9.223222E-06 0.004106343 0.02276431
v -0.007509229 0.00410635 2.55505E-05
v -0.003179746 0.004106345 0.0244732
v -0.007509232 0.004106346 0.02809858
v -0.004599157 0.004106345 0.02809858
v 0.007490782 0.003794598 0.02992702
v 0.005278505 0.003794599 0.02992702
v 0.007490784 0.004106339 0.02809858
v 0.004580711 0.00410634 0.02809858
v 0.007490782 0.003794598 0.02992702
v 0.007490781 0.002696329 0.03094823
v 0.005922373 0.002696329 0.03094823
v 0.005278505 0.003794599 0.02992702
v 0.007490781 0.002696329 0.03094823
v 0.006317589 0.001058244 0.03124483
v 0.005922373 0.002696329 0.03094823
v 0.00749078 0.001058244 0.03124483
v 0.006317588 -0.00145715 0.03124483
v 0.007490779 -0.001457151 0.03124483
v 0.007490778 -0.002823523 0.03090886
v 0.005871965 -0.002823523 0.03090886
v 0.005871965 -0.002823523 0.03090886
v 0.007490778 -0.002823523 0.03090886
v 0.007490778 -0.003741219 0.03004877
v 0.005253722 -0.003741218 0.03004877
v 0.005253722 -0.003741218 0.03004877
v 0.007490778 -0.003741219 0.03004877
v 0.007490778 -0.004359405 0.02886156
v 0.004760356 -0.004359404 0.02886156
v 0.004760356 -0.004359404 0.02886156
v 0.007490778 -0.004359405 0.02886156
v 0.007490777 -0.004628181 0.02703493
v 0.004237531 -0.00462818 0.02703493
v 0.007490777 -0.004628181 0.02703493
v 0.00307677 -0.004628177 0.0245268
v 0.004237531 -0.00462818 0.02703493
v 0.007490777 -0.004628177 -0.004146921
v -9.227395E-06 -0.004628177 0.02264996
v -0.007509232 -0.004628169 -0.004146921
v -0.003095225 -0.004628173 0.0245268
v -0.007509232 -0.004628174 0.02703493
v -0.004255986 -0.004628175 0.02703493
v 0.00307677 -0.004628177 0.0245268
v -9.223222E-06 0.004106343 0.02276431
v 0.0031613 0.004106341 0.0244732
v -9.227395E-06 -0.004628177 0.02264996
v 0.0031613 0.004106341 0.0244732
v 0.004580711 0.00410634 0.02809858
v 0.004237531 -0.00462818 0.02703493
v 0.00307677 -0.004628177 0.0245268
v 0.005922373 0.002696329 0.03094823
v 0.006317589 0.001058244 0.03124483
v 0.005871965 -0.002823523 0.03090886
v 0.006317588 -0.00145715 0.03124483
v 0.004580711 0.00410634 0.02809858
v 0.005278505 0.003794599 0.02992702
v 0.004760356 -0.004359404 0.02886156
v 0.004237531 -0.00462818 0.02703493
v 0.005922373 0.002696329 0.03094823
v 0.005253722 -0.003741218 0.03004877
v 0.005278505 0.003794599 0.02992702
v 0.005922373 0.002696329 0.03094823
v 0.005871965 -0.002823523 0.03090886
v 0.005253722 -0.003741218 0.03004877
v 0.005278505 0.003794599 0.02992702
v 0.005253722 -0.003741218 0.03004877
v 0.004760356 -0.004359404 0.02886156
v -0.007509229 0.002899519 -0.002940634
v -0.00750923 0.001574024 -0.003848897
v 0.00749078 0.001574017 -0.003848897
v 0.007490782 0.002899512 -0.002940634
v -0.007509232 -0.001457143 0.03124483
v -0.007509229 0.002696336 0.03094823
v -0.00750923 0.001058251 0.03124483
v -0.007509232 -0.003741212 0.03004877
v -0.007509232 -0.004359398 0.02886156
v -0.007509229 0.003794605 0.02992702
v -0.007509232 0.004106346 0.02809858
v -0.007509232 -0.004628174 0.02703493
v -0.007509229 0.00410635 2.55505E-05
v -0.007509232 -0.004628169 -0.004146921
v -0.00750923 -4.228115E-05 -0.00414692
v -0.007509229 0.002899519 -0.002940634
v -0.00750923 0.001574024 -0.003848897
v -0.007509229 0.003808483 -0.001602166
v -0.007509232 -0.002823516 0.03090886
v -0.00750923 -4.228115E-05 -0.00414692
v -0.007509232 -0.004628169 -0.004146921
v 0.007490777 -0.004628177 -0.004146921
v 0.00749078 -4.22883E-05 -0.00414692
v -0.007509229 0.00410635 2.55505E-05
v 0.007490782 0.003808476 -0.001602166
v 0.007490782 0.004106343 2.55505E-05
v -0.007509229 0.003808483 -0.001602166
v -0.007509229 0.003808483 -0.001602166
v 0.007490782 0.002899512 -0.002940634
v 0.007490782 0.003808476 -0.001602166
v -0.007509229 0.002899519 -0.002940634
v -0.00750923 -4.228115E-05 -0.00414692
v 0.00749078 -4.22883E-05 -0.00414692
v 0.00749078 0.001574017 -0.003848897
v -0.00750923 0.001574024 -0.003848897
v -0.00750923 0.001058251 0.03124483
v -0.006336038 0.00105825 0.03124483
v -0.007509232 -0.001457143 0.03124483
v -0.006336038 -0.001457144 0.03124483
v -0.007509229 0.003794605 0.02992702
v -0.007509232 0.004106346 0.02809858
v -0.005296952 0.003794604 0.02992702
v -0.004599157 0.004106345 0.02809858
v -0.007509229 0.003794605 0.02992702
v -0.005296952 0.003794604 0.02992702
v -0.00594082 0.002696335 0.03094823
v -0.007509229 0.002696336 0.03094823
v -0.007509229 0.002696336 0.03094823
v -0.00594082 0.002696335 0.03094823
v -0.006336038 0.00105825 0.03124483
v -0.00750923 0.001058251 0.03124483
v -0.006336038 -0.001457144 0.03124483
v -0.007509232 -0.002823516 0.03090886
v -0.007509232 -0.001457143 0.03124483
v -0.005890416 -0.002823517 0.03090886
v -0.007509232 -0.003741212 0.03004877
v -0.007509232 -0.002823516 0.03090886
v -0.005890416 -0.002823517 0.03090886
v -0.005272174 -0.003741213 0.03004877
v -0.005272174 -0.003741213 0.03004877
v -0.007509232 -0.004359398 0.02886156
v -0.007509232 -0.003741212 0.03004877
v -0.004778808 -0.004359399 0.02886156
v -0.004778808 -0.004359399 0.02886156
v -0.007509232 -0.004628174 0.02703493
v -0.007509232 -0.004359398 0.02886156
v -0.004255986 -0.004628175 0.02703493
v -0.003179746 0.004106345 0.0244732
v -9.223222E-06 0.004106343 0.02276431
v -0.003095225 -0.004628173 0.0245268
v -9.227395E-06 -0.004628177 0.02264996
v -0.004255986 -0.004628175 0.02703493
v -0.004599157 0.004106345 0.02809858
v -0.003179746 0.004106345 0.0244732
v -0.003095225 -0.004628173 0.0245268
v -0.005890416 -0.002823517 0.03090886
v -0.006336038 -0.001457144 0.03124483
v -0.006336038 0.00105825 0.03124483
v -0.00594082 0.002696335 0.03094823
v -0.004778808 -0.004359399 0.02886156
v -0.005296952 0.003794604 0.02992702
v -0.004599157 0.004106345 0.02809858
v -0.004255986 -0.004628175 0.02703493
v -0.00594082 0.002696335 0.03094823
v -0.005296952 0.003794604 0.02992702
v -0.005272174 -0.003741213 0.03004877
v -0.00594082 0.002696335 0.03094823
v -0.005272174 -0.003741213 0.03004877
v -0.005890416 -0.002823517 0.03090886
v -0.005296952 0.003794604 0.02992702
v -0.004778808 -0.004359399 0.02886156
v -0.005272174 -0.003741213 0.03004877
vt 0.002741914 0.7557365
vt 0.002728109 0.7930045
vt 0.007113259 0.8172752
vt 0.02047566 0.7219024
vt 0.03806707 0.7127473
vt 0.02223685 0.83355
vt 0.04933497 0.8381791
vt 0.06511943 0.7087747
vt 0.4652696 0.8381791
vt 0.527093 0.7087746
vt 0.5270944 0.7767276
vt 0.5092154 0.8203117
vt 0.4893814 0.8337744
vt 0.5226759 0.8006767
vt 0.007727686 0.7354944
vt 0.8707805 0.788546
vt 0.9080483 0.7885458
vt 0.908049 0.7711637
vt 0.8707811 0.7711622
vt 0.002055901 0.5825023
vt 0.04518247 0.5825038
vt 0.0662244 0.5287898
vt 0.002055901 0.1665858
vt 0.1132139 0.5034499
vt 0.2242854 0.1665292
vt 0.1601533 0.5287485
vt 0.2242854 0.5824609
vt 0.1811757 0.5824616
vt 0.8238955 0.7885462
vt 0.8238969 0.7557679
vt 0.7964159 0.7885462
vt 0.7964138 0.7454312
vt 0.8238955 0.7885462
vt 0.8461161 0.7885461
vt 0.846116 0.7653087
vt 0.8238969 0.7557679
vt 0.8461161 0.7885461
vt 0.8707811 0.7711622
vt 0.846116 0.7653087
vt 0.8707805 0.788546
vt 0.8156559 0.5916288
vt 0.8340669 0.5916296
vt 0.8340668 0.5695485
vt 0.8086626 0.5695477
vt 0.8086626 0.5695477
vt 0.8340668 0.5695485
vt 0.8340668 0.5498103
vt 0.7989594 0.549809
vt 0.7989594 0.549809
vt 0.8340668 0.5498103
vt 0.8340668 0.5288068
vt 0.7912177 0.5288005
vt 0.7912177 0.5288005
vt 0.8340668 0.5288068
vt 0.8347251 0.4998342
vt 0.7836758 0.4998241
vt 0.6904605 0.001977498
vt 0.6533067 0.06737625
vt 0.6904664 0.05017192
vt 0.2284761 0.001977463
vt 0.6254983 0.113121
vt 0.228476 0.2242164
vt 0.6533009 0.158841
vt 0.6904649 0.2242165
vt 0.6904605 0.1760286
vt 0.843619 0.452158
vt 0.9899557 0.5125788
vt 0.9899557 0.452158
vt 0.843619 0.5125788
vt 0.9899557 0.452158
vt 0.9898801 0.3869327
vt 0.8435771 0.4058862
vt 0.843619 0.452158
vt 0.9662436 0.3339141
vt 0.9388154 0.3255815
vt 0.8737608 0.3348101
vt 0.8966714 0.3255025
vt 0.9898801 0.3869327
vt 0.9846206 0.3541669
vt 0.848016 0.3740772
vt 0.8435771 0.4058862
vt 0.9662436 0.3339141
vt 0.8583594 0.3525358
vt 0.9846206 0.3541669
vt 0.9662436 0.3339141
vt 0.8737608 0.3348101
vt 0.8583594 0.3525358
vt 0.9846206 0.3541669
vt 0.8583594 0.3525358
vt 0.848016 0.3740772
vt 0.224252 0.1180217
vt 0.2242384 0.09422518
vt 0.002000752 0.09431452
vt 0.002014518 0.1181285
vt 0.2175068 0.656135
vt 0.2218658 0.5945956
vt 0.2174858 0.6188671
vt 0.2352442 0.6899661
vt 0.2528276 0.6991214
vt 0.2369967 0.5783187
vt 0.2640962 0.5736896
vt 0.2798785 0.7030941
vt 0.6800295 0.5736896
vt 0.7418535 0.7030941
vt 0.7418557 0.6351411
vt 0.7239752 0.5915569
vt 0.7374372 0.611192
vt 0.7041419 0.5780943
vt 0.2224948 0.6763757
vt 0.2242266 0.06989049
vt 0.2242158 0.001977463
vt 0.001977463 0.001977463
vt 0.001989064 0.06995077
vt 0.2242854 0.1665292
vt 0.002033391 0.142095
vt 0.002055901 0.1665858
vt 0.2242709 0.1419933
vt 0.2242709 0.1419933
vt 0.002014518 0.1181285
vt 0.002033391 0.142095
vt 0.224252 0.1180217
vt 0.2242266 0.06989049
vt 0.001989064 0.06995077
vt 0.002000752 0.09431452
vt 0.2242384 0.09422518
vt 0.6434256 0.5483028
vt 0.6434249 0.5656852
vt 0.6806936 0.548303
vt 0.680692 0.5656853
vt 0.008256197 0.6742179
vt 0.008256316 0.703326
vt 0.04297304 0.6742209
vt 0.0539217 0.7033293
vt 0.008256197 0.6742179
vt 0.04297304 0.6742209
vt 0.0328697 0.6506851
vt 0.008256197 0.6506835
vt 0.008256197 0.6506835
vt 0.0328697 0.6506851
vt 0.02666736 0.6245616
vt 0.008256197 0.6245609
vt 0.680692 0.5656853
vt 0.7015399 0.5483028
vt 0.6806936 0.548303
vt 0.7015378 0.5722869
vt 0.7201743 0.5483028
vt 0.7015399 0.5483028
vt 0.7015378 0.5722869
vt 0.7201713 0.5814477
vt 0.7201713 0.5814477
vt 0.7400041 0.5483027
vt 0.7201743 0.5483028
vt 0.7400039 0.5887575
vt 0.7400039 0.5887575
vt 0.767357 0.5483027
vt 0.7400041 0.5483027
vt 0.7673599 0.5965016
vt 0.9899557 0.5730023
vt 0.9899557 0.5125788
vt 0.843619 0.5730023
vt 0.843619 0.5125788
vt 0.8436198 0.6193168
vt 0.9899557 0.6382029
vt 0.9899557 0.5730023
vt 0.843619 0.5730023
vt 0.8738554 0.6904349
vt 0.896778 0.699717
vt 0.9389212 0.6995823
vt 0.9663398 0.6912168
vt 0.8480744 0.6511538
vt 0.9846946 0.6709532
vt 0.9899557 0.6382029
vt 0.8436198 0.6193168
vt 0.9663398 0.6912168
vt 0.9846946 0.6709532
vt 0.858434 0.6727156
vt 0.9663398 0.6912168
vt 0.858434 0.6727156
vt 0.8738554 0.6904349
vt 0.9846946 0.6709532
vt 0.8480744 0.6511538
vt 0.858434 0.6727156
vn 1 -4.739194E-07 -6.078166E-07
vn 1 -4.739194E-07 -6.078166E-07
vn 1 -4.739195E-07 -6.078166E-07
vn 1 -4.718675E-07 1.673183E-07
vn 1 -7.164456E-07 6.438746E-07
vn 1 -7.164456E-07 6.438746E-07
vn 1 -6.332077E-07 0
vn 1 -6.332077E-07 0
vn 1 -6.332077E-07 0
vn 1 -6.332076E-07 0
vn 1 -5.825606E-07 1.083674E-07
vn 1 -5.825606E-07 1.083674E-07
vn 1 -5.825606E-07 1.083674E-07
vn 1 -5.825606E-07 1.083673E-07
vn 1 -1.182758E-06 1.261985E-06
vn 0 9.478379E-07 1
vn 0 9.478379E-07 1
vn 0 9.478379E-07 1
vn 0 9.478379E-07 1
vn 5.120544E-07 1 2.105439E-07
vn 5.120544E-07 1 2.105439E-07
vn 5.120544E-07 1 2.105439E-07
vn 5.461252E-07 1 1.69856E-07
vn 4.788582E-07 1 1.579435E-07
vn 4.17575E-07 1 1.69856E-07
vn 4.096433E-07 1 1.60384E-07
vn 4.096433E-07 1 1.60384E-07
vn 4.096434E-07 1 1.60384E-07
vn 5.73434E-07 0.9857751 0.1680699
vn 5.73434E-07 0.9857751 0.1680699
vn 5.73434E-07 0.9857751 0.1680699
vn 5.73434E-07 0.9857751 0.1680699
vn 3.777938E-07 0.6809511 0.7323289
vn 3.777938E-07 0.6809511 0.7323289
vn 3.777938E-07 0.6809511 0.7323289
vn 3.777938E-07 0.6809511 0.7323289
vn 0 0.1781638 0.9840008
vn 0 0.1781638 0.9840008
vn 0 0.1781638 0.9840008
vn 0 0.1781638 0.9840008
vn -1.007527E-07 -0.2387756 0.9710748
vn -1.007527E-07 -0.2387757 0.9710748
vn -1.007527E-07 -0.2387756 0.9710748
vn -1.007527E-07 -0.2387757 0.9710748
vn -3.168628E-07 -0.6838326 0.7296389
vn -3.168628E-07 -0.6838325 0.729639
vn -3.168628E-07 -0.6838325 0.7296389
vn -3.168628E-07 -0.6838325 0.7296389
vn -4.237071E-07 -0.8869612 0.4618441
vn -4.23707E-07 -0.8869612 0.4618441
vn -4.23707E-07 -0.8869612 0.4618441
vn -4.23707E-07 -0.8869612 0.4618441
vn -3.919988E-07 -0.989347 0.1455763
vn -3.919988E-07 -0.989347 0.1455763
vn -3.919988E-07 -0.989347 0.1455763
vn -3.919989E-07 -0.989347 0.1455763
vn -3.664318E-07 -1 -1.256288E-06
vn -3.664318E-07 -1 -1.256288E-06
vn -3.664318E-07 -1 -1.256288E-06
vn 0 -1 0
vn 0 -1 0
vn -1.129024E-06 -1 0
vn -3.664317E-07 -1 -1.120165E-06
vn -3.664317E-07 -1 -1.120165E-06
vn -3.664317E-07 -1 -1.120165E-06
vn -0.497245 -0.0006111764 0.86761
vn -0.4972449 -0.0006111763 0.86761
vn -0.497245 -0.0006111763 0.86761
vn -0.4972449 -0.0006111763 0.86761
vn -0.921762 0.000148657 0.387756
vn -0.921762 0.0001486571 0.387756
vn -0.921762 0.000148657 0.387756
vn -0.9217619 0.000148657 0.387756
vn -0.6012082 -0.0001443868 0.7990925
vn -0.6012082 -0.0001443868 0.7990925
vn -0.6012082 -0.0001443868 0.7990925
vn -0.6012082 -0.0001443868 0.7990924
vn -0.9484435 0.008428856 0.3168344
vn -0.9484435 0.008428856 0.3168344
vn -0.9484435 0.008428856 0.3168344
vn -0.9484435 0.008428856 0.3168343
vn -0.8402113 0.01152246 0.5421365
vn -0.8402113 0.01152246 0.5421366
vn -0.8402113 0.01152246 0.5421366
vn -0.8136415 0.00328272 0.5813575
vn -0.8136415 0.00328272 0.5813575
vn -0.8136415 0.00328272 0.5813575
vn -0.9250824 0.009176377 0.3796554
vn -0.9250824 0.009176377 0.3796554
vn -0.9250824 0.009176377 0.3796554
vn 2.685502E-07 0.565254 -0.824917
vn 2.685502E-07 0.565254 -0.824917
vn 2.685502E-07 0.565254 -0.824917
vn 2.685502E-07 0.565254 -0.824917
vn -1 4.739176E-07 -1.401841E-06
vn -1 4.739176E-07 -1.401841E-06
vn -1 4.739176E-07 -1.40184E-06
vn -1 4.762435E-07 1.03529E-07
vn -1 1.998143E-07 6.546449E-07
vn -1 1.998143E-07 6.546449E-07
vn -1 2.850215E-07 0
vn -1 2.850215E-07 0
vn -1 2.850215E-07 0
vn -1 2.850215E-07 0
vn -1 3.375105E-07 0
vn -1 3.375105E-07 0
vn -1 3.375105E-07 0
vn -1 3.375105E-07 0
vn -1 -4.620213E-07 1.878991E-06
vn 0 1.94961E-07 -1
vn 0 1.94961E-07 -1
vn 0 1.94961E-07 -1
vn 0 1.94961E-07 -1
vn 4.690153E-07 0.9836653 -0.1800077
vn 4.690153E-07 0.9836653 -0.1800077
vn 4.690153E-07 0.9836653 -0.1800077
vn 4.690153E-07 0.9836653 -0.1800077
vn 3.933431E-07 0.8272694 -0.5618055
vn 3.933431E-07 0.8272694 -0.5618055
vn 3.933431E-07 0.8272694 -0.5618054
vn 3.933431E-07 0.8272694 -0.5618054
vn 0 0.181329 -0.9834225
vn 0 0.181329 -0.9834225
vn 0 0.181329 -0.9834225
vn 0 0.181329 -0.9834225
vn 0 9.478379E-07 1
vn 0 9.478379E-07 1
vn 0 9.478379E-07 1
vn 0 9.478379E-07 1
vn 3.455307E-07 0.9857751 0.1680699
vn 3.455306E-07 0.9857751 0.1680699
vn 3.455306E-07 0.9857751 0.1680699
vn 3.455306E-07 0.9857751 0.1680699
vn 2.710258E-07 0.680951 0.732329
vn 2.710258E-07 0.6809511 0.7323289
vn 2.710258E-07 0.680951 0.732329
vn 2.710258E-07 0.6809511 0.7323289
vn 0 0.1781638 0.9840008
vn 0 0.1781638 0.9840008
vn 0 0.1781638 0.9840008
vn 0 0.1781638 0.9840008
vn -1.066791E-07 -0.2387757 0.9710748
vn -1.066791E-07 -0.2387757 0.9710748
vn -1.066791E-07 -0.2387757 0.9710748
vn -1.066791E-07 -0.2387757 0.9710748
vn -3.168622E-07 -0.6838325 0.7296391
vn -3.168622E-07 -0.6838324 0.7296391
vn -3.168622E-07 -0.6838324 0.7296391
vn -3.168622E-07 -0.6838324 0.7296391
vn -4.237066E-07 -0.8869612 0.4618439
vn -4.237066E-07 -0.8869612 0.461844
vn -4.237066E-07 -0.8869612 0.4618439
vn -4.237066E-07 -0.8869612 0.461844
vn -3.962137E-07 -0.989347 0.1455761
vn -3.962137E-07 -0.989347 0.1455761
vn -3.962137E-07 -0.989347 0.1455761
vn -3.962136E-07 -0.989347 0.1455761
vn 0.4972449 -0.0006116524 0.86761
vn 0.4972449 -0.0006116524 0.86761
vn 0.4972449 -0.0006116524 0.86761
vn 0.4972449 -0.0006116524 0.86761
vn 0.921762 0.0001477421 0.3877558
vn 0.9217622 0.0001477421 0.3877558
vn 0.921762 0.0001477421 0.3877558
vn 0.921762 0.0001477421 0.3877558
vn 0.6012074 -0.0001447062 0.799093
vn 0.6012074 -0.0001447062 0.799093
vn 0.6012074 -0.0001447062 0.799093
vn 0.6012075 -0.0001447062 0.7990929
vn 0.9484436 0.0084281 0.3168338
vn 0.9484436 0.0084281 0.3168338
vn 0.9484436 0.008428101 0.3168337
vn 0.9484436 0.0084281 0.3168337
vn 0.8402115 0.01152186 0.5421365
vn 0.8402115 0.01152186 0.5421365
vn 0.8402115 0.01152186 0.5421365
vn 0.8136418 0.003282199 0.5813572
vn 0.8136418 0.003282199 0.5813572
vn 0.8136418 0.003282199 0.5813572
vn 0.9250824 0.009175721 0.3796555
vn 0.9250824 0.009175721 0.3796555
vn 0.9250824 0.009175721 0.3796555
g sight_front_all_kac_folding_micro_sight_unfolded_LOD1_0
f 3/3/3 2/2/2 1/1/1
f 4/4/4 3/3/3 1/1/1
f 3/3/3 4/4/4 5/5/5
f 5/5/5 6/6/6 3/3/3
f 5/5/5 7/7/7 6/6/6
f 7/7/7 5/5/5 8/8/8
f 9/9/9 7/7/7 8/8/8
f 8/8/8 10/10/10 9/9/9
f 11/11/11 9/9/9 10/10/10
f 9/9/9 11/11/11 12/12/12
f 12/12/12 13/13/13 9/9/9
f 11/11/11 14/14/14 12/12/12
f 15/15/15 4/4/4 1/1/1
f 18/18/18 17/17/17 16/16/16
f 16/16/16 19/19/19 18/18/18
f 22/22/22 21/21/21 20/20/20
f 23/23/23 22/22/22 20/20/20
f 24/24/24 22/22/22 23/23/23
f 25/25/25 24/24/24 23/23/23
f 26/26/26 24/24/24 25/25/25
f 26/26/26 25/25/25 27/27/27
f 28/28/28 26/26/26 27/27/27
f 31/31/31 30/30/30 29/29/29
f 31/31/31 32/32/32 30/30/30
f 35/35/35 34/34/34 33/33/33
f 33/33/33 36/36/36 35/35/35
f 39/39/39 38/38/38 37/37/37
f 38/38/38 40/40/40 37/37/37
f 43/43/43 42/42/42 41/41/41
f 41/41/41 44/44/44 43/43/43
f 47/47/47 46/46/46 45/45/45
f 45/45/45 48/48/48 47/47/47
f 51/51/51 50/50/50 49/49/49
f 49/49/49 52/52/52 51/51/51
f 55/55/55 54/54/54 53/53/53
f 53/53/53 56/56/56 55/55/55
f 59/59/59 58/58/58 57/57/57
f 57/57/57 58/58/58 60/60/60
f 58/58/58 61/61/61 60/60/60
f 62/62/62 60/60/60 61/61/61
f 61/61/61 63/63/63 62/62/62
f 63/63/63 64/64/64 62/62/62
f 63/63/63 65/65/65 64/64/64
f 68/68/68 67/67/67 66/66/66
f 69/69/69 66/66/66 67/67/67
f 72/72/72 71/71/71 70/70/70
f 70/70/70 73/73/73 72/72/72
f 76/76/76 75/75/75 74/74/74
f 76/76/76 77/77/77 75/75/75
f 80/80/80 79/79/79 78/78/78
f 78/78/78 81/81/81 80/80/80
f 84/84/84 83/83/83 82/82/82
f 87/87/87 86/86/86 85/85/85
f 90/90/90 89/89/89 88/88/88
f 93/93/93 92/92/92 91/91/91
f 91/91/91 94/94/94 93/93/93
f 97/97/97 96/96/96 95/95/95
f 96/96/96 98/98/98 95/95/95
f 99/99/99 98/98/98 96/96/96
f 96/96/96 100/100/100 99/99/99
f 100/100/100 101/101/101 99/99/99
f 101/101/101 102/102/102 99/99/99
f 102/102/102 101/101/101 103/103/103
f 103/103/103 104/104/104 102/102/102
f 103/103/103 105/105/105 104/104/104
f 103/103/103 106/106/106 105/105/105
f 106/106/106 107/107/107 105/105/105
f 103/103/103 108/108/108 106/106/106
f 98/98/98 109/109/109 95/95/95
f 112/112/112 111/111/111 110/110/110
f 110/110/110 113/113/113 112/112/112
f 116/116/116 115/115/115 114/114/114
f 115/115/115 117/117/117 114/114/114
f 120/120/120 119/119/119 118/118/118
f 119/119/119 121/121/121 118/118/118
f 124/124/124 123/123/123 122/122/122
f 122/122/122 125/125/125 124/124/124
f 128/128/128 127/127/127 126/126/126
f 128/128/128 129/129/129 127/127/127
f 132/132/132 131/131/131 130/130/130
f 133/133/133 131/131/131 132/132/132
f 136/136/136 135/135/135 134/134/134
f 134/134/134 137/137/137 136/136/136
f 140/140/140 139/139/139 138/138/138
f 138/138/138 141/141/141 140/140/140
f 144/144/144 143/143/143 142/142/142
f 145/145/145 142/142/142 143/143/143
f 148/148/148 147/147/147 146/146/146
f 146/146/146 149/149/149 148/148/148
f 152/152/152 151/151/151 150/150/150
f 153/153/153 150/150/150 151/151/151
f 156/156/156 155/155/155 154/154/154
f 157/157/157 154/154/154 155/155/155
f 160/160/160 159/159/159 158/158/158
f 160/160/160 161/161/161 159/159/159
f 164/164/164 163/163/163 162/162/162
f 162/162/162 165/165/165 164/164/164
f 168/168/168 167/167/167 166/166/166
f 169/169/169 168/168/168 166/166/166
f 172/172/172 171/171/171 170/170/170
f 170/170/170 173/173/173 172/172/172
f 176/176/176 175/175/175 174/174/174
f 179/179/179 178/178/178 177/177/177
f 182/182/182 181/181/181 180/180/180
