g sight_front_all_magpul_mbus_gen2_base_LOD1
v -0.01250228 -0.003528457 -0.006136776
v -0.0125023 -0.006088905 6.492555E-05
v -7.853798E-05 -0.003528454 -0.006136776
v 0.01234523 -0.0060889 6.492555E-05
v 0.01234521 -0.003528452 -0.006136776
v -0.0125023 -0.004443238 0.009296252
v 0.01234522 -0.004443233 0.009296252
v 0.01384622 0.01068924 0.01126121
v -0.0140033 0.01068923 0.01126121
v -0.0140033 0.02536661 0.01126121
v 0.01384622 0.02536661 0.01126121
v -0.0140033 0.02800585 0.008621967
v 0.01384621 0.02800585 0.008621967
v -0.01250228 -0.003528457 -0.006136776
v -0.0140033 0.01275286 -0.006136776
v -0.0140033 0.01275286 -0.0002150267
v -0.0125023 -0.006088905 6.492555E-05
v -0.0125023 -0.004443238 0.009296252
v -0.0140033 0.01068923 0.01126121
v -0.0140033 0.02498154 -0.0002150267
v -0.0140033 0.02536661 0.01126121
v -0.0140033 0.02800585 -0.0002150267
v -0.0140033 0.02800585 0.008621967
v -7.854274E-05 0.02800585 -0.0002150267
v -0.01032624 0.02498155 -0.0002150267
v -0.01032624 0.01275286 -0.0002150267
v -7.854044E-05 0.01275286 -0.0002150267
v -0.0140033 0.02800585 -0.0002150267
v -0.0140033 0.02498154 -0.0002150267
v -0.01032624 0.02498155 -0.00430184
v -0.0140033 0.0148327 -0.00430184
v -0.01032623 0.01723072 -0.00430184
v -0.01740184 0.0148327 -0.00430184
v -0.01740184 0.02498154 -0.00430184
v -0.01740184 0.02498154 -0.002173195
v -0.01740184 0.0137494 -0.002173195
v -0.01740184 0.0148327 -0.00430184
v -0.01740184 0.02498154 -0.00430184
v -0.01032624 0.01275286 -0.0002150267
v -0.01032624 0.02498155 -0.0002150267
v -0.01032624 0.02498155 -0.00430184
v -0.01032623 0.01723072 -0.00430184
v -0.01032624 0.01275286 -0.0002150267
v -0.01032623 0.01723072 -0.00430184
v -0.0140033 0.0148327 -0.00430184
v -0.0140033 0.01275286 -0.0002150267
v -0.01740184 0.0137494 -0.002173195
v -0.01740184 0.0148327 -0.00430184
v -0.0140033 0.01275286 -0.0002150267
v -0.01740184 0.0137494 -0.002173195
v -0.01740184 0.02498154 -0.002173195
v -0.0140033 0.02498154 -0.0002150267
v -0.0140033 0.02498154 -0.0002150267
v -0.01740184 0.02498154 -0.002173195
v -0.01740184 0.02498154 -0.00430184
v -0.01032624 0.02498155 -0.00430184
v -0.01032624 0.02498155 -0.0002150267
v -0.01250228 -0.003528457 -0.006136776
v -7.853798E-05 -0.003528454 -0.006136776
v -7.854044E-05 0.01275286 -0.006136776
v -0.0140033 0.01275286 -0.006136776
v -7.854044E-05 0.01275286 -0.006136776
v -7.854044E-05 0.01275286 -0.0002150267
v -0.01032624 0.01275286 -0.0002150267
v -0.0140033 0.01275286 -0.006136776
v -0.0140033 0.01275286 -0.0002150267
v 0.01384622 0.01275286 -0.0002150267
v 0.01384622 0.01275286 -0.006136776
v 0.01234521 -0.003528452 -0.006136776
v 0.01234523 -0.0060889 6.492555E-05
v 0.01234522 -0.004443233 0.009296252
v 0.01384622 0.01068924 0.01126121
v 0.01384622 0.02498155 -0.0002150267
v 0.01384622 0.02536661 0.01126121
v 0.01384621 0.02800585 -0.0002150267
v 0.01384621 0.02800585 0.008621967
v 0.01384621 0.02800585 -0.0002150267
v 0.01384621 0.02800585 0.008621967
v -7.854274E-05 0.02800585 -0.0002150267
v -0.0140033 0.02800585 0.008621967
v -0.0140033 0.02800585 -0.0002150267
v 0.01016915 0.01275286 -0.0002150267
v 0.01016915 0.02498155 -0.0002150267
v -7.854274E-05 0.02800585 -0.0002150267
v -7.854044E-05 0.01275286 -0.0002150267
v 0.01384621 0.02800585 -0.0002150267
v 0.01384622 0.02498155 -0.0002150267
v 0.01016915 0.02498155 -0.00430184
v 0.01016915 0.01723072 -0.00430184
v 0.01384622 0.0148327 -0.00430184
v 0.01724476 0.0148327 -0.00430184
v 0.01724476 0.02498155 -0.00430184
v 0.01724476 0.02498155 -0.002173195
v 0.01724476 0.02498155 -0.00430184
v 0.01724476 0.0148327 -0.00430184
v 0.01724476 0.0137494 -0.002173195
v 0.01016915 0.02498155 -0.00430184
v 0.01016915 0.02498155 -0.0002150267
v 0.01016915 0.01275286 -0.0002150267
v 0.01016915 0.01723072 -0.00430184
v 0.01016915 0.01275286 -0.0002150267
v 0.01384622 0.0148327 -0.00430184
v 0.01016915 0.01723072 -0.00430184
v 0.01384622 0.01275286 -0.0002150267
v 0.01724476 0.0137494 -0.002173195
v 0.01724476 0.0148327 -0.00430184
v 0.01384622 0.01275286 -0.0002150267
v 0.01384622 0.02498155 -0.0002150267
v 0.01724476 0.02498155 -0.002173195
v 0.01724476 0.0137494 -0.002173195
v 0.01384622 0.02498155 -0.0002150267
v 0.01016915 0.02498155 -0.00430184
v 0.01724476 0.02498155 -0.00430184
v 0.01724476 0.02498155 -0.002173195
v 0.01016915 0.02498155 -0.0002150267
v -7.854044E-05 0.01275286 -0.006136776
v -7.853798E-05 -0.003528454 -0.006136776
v 0.01234521 -0.003528452 -0.006136776
v 0.01384622 0.01275286 -0.006136776
v 0.01016915 0.01275286 -0.0002150267
v 0.01384622 0.01275286 -0.006136776
v 0.01384622 0.01275286 -0.0002150267
v -7.854044E-05 0.01275286 -0.006136776
v -7.854044E-05 0.01275286 -0.0002150267
v -0.01281616 0.004605132 -0.005535671
v -0.01600673 0.004605132 -0.005535671
v -0.01600673 0.001043768 -0.004060507
v -0.01281616 0.001043768 -0.004060505
v -0.01600673 -0.0004313969 -0.0004991418
v -0.01281616 -0.0004313969 -0.0004991418
v -0.01600673 0.001043768 0.003062221
v -0.01281616 0.001043768 0.003062222
v -0.01600673 0.004605132 0.004537387
v -0.01281616 0.004605132 0.004537387
v -0.01281616 0.004605132 0.004537387
v -0.01600673 0.004605132 0.004537387
v -0.01600673 0.008166494 0.003062221
v -0.01281616 0.008166494 0.003062221
v -0.01600673 0.00964166 -0.0004991418
v -0.01281616 0.00964166 -0.0004991418
v -0.01600673 0.008166494 -0.004060505
v -0.01281616 0.008166494 -0.004060504
v -0.01600673 0.004605132 -0.005535671
v -0.01281616 0.004605132 -0.005535671
v -0.01600673 0.008166494 0.003062221
v -0.01600673 0.004605132 0.004537387
v -0.01600673 0.004605132 -0.005535671
v -0.01600673 0.008166494 -0.004060505
v -0.01600673 0.00964166 -0.0004991418
v -0.01600673 0.001043768 0.003062221
v -0.01600673 -0.0004313969 -0.0004991418
v -0.01600673 0.001043768 -0.004060507
v -0.01600673 0.004605132 0.004537387
v -0.01600673 0.004605132 -0.005535671
vt 0.5229682 0.6331496
vt 0.5229689 0.5653258
vt 0.3717595 0.6331496
vt 0.2205506 0.5653257
vt 0.2205506 0.6331496
vt 0.5229689 0.4643686
vt 0.2205506 0.4643686
vt 0.2022817 0.2988746
vt 0.5412371 0.2988746
vt 0.5412371 0.1383573
vt 0.2022817 0.1383573
vt 0.5412371 0.1094938
vt 0.2022817 0.1094938
vt 0.5907133 0.2206191
vt 0.7888729 0.2206191
vt 0.7888729 0.2853816
vt 0.5595501 0.2884431
vt 0.5795796 0.3894002
vt 0.7637561 0.4108898
vt 0.9377077 0.2853816
vt 0.9423943 0.4108896
vt 0.9745162 0.2853816
vt 0.9745162 0.382026
vt 0.011993 0.01235702
vt 0.1366591 0.04543185
vt 0.1366591 0.1791692
vt 0.011993 0.1791697
vt 0.181354 0.01235702
vt 0.181354 0.04543185
vt 0.06388432 0.5788516
vt 0.1630926 0.5432395
vt 0.1368044 0.5788516
vt 0.1630926 0.5105604
vt 0.06388432 0.5105604
vt 0.06388432 0.4870445
vt 0.1739231 0.4870445
vt 0.1630926 0.5105604
vt 0.06388432 0.5105604
vt 0.1832651 0.6258899
vt 0.06388432 0.6258899
vt 0.06388432 0.5788516
vt 0.1368044 0.5788516
vt 0.1939202 0.5788516
vt 0.1368044 0.5788516
vt 0.1630926 0.5432395
vt 0.203953 0.5432395
vt 0.184375 0.5105604
vt 0.1630926 0.5105604
vt 0.1838866 0.4524917
vt 0.1739231 0.4870445
vt 0.06388432 0.4870445
vt 0.06388432 0.4524917
vt 0.01817626 0.5501805
vt 0.03817395 0.5105604
vt 0.06388432 0.5105604
vt 0.06388432 0.5788516
vt 0.01817626 0.5788516
vt 0.1631432 0.4219902
vt 0.01199293 0.4219902
vt 0.01199293 0.2439322
vt 0.181412 0.2439316
vt 0.01199293 0.2439322
vt 0.011993 0.1791697
vt 0.1366591 0.1791697
vt 0.181412 0.2439321
vt 0.1813538 0.1791697
vt 0.7868061 0.08217304
vt 0.7868061 0.01741062
vt 0.588647 0.01741062
vt 0.5574837 0.08523459
vt 0.5775131 0.1861916
vt 0.7616898 0.2076813
vt 0.9356413 0.08217304
vt 0.940328 0.207681
vt 0.9724499 0.08217304
vt 0.9724499 0.1788175
vt 0.2022817 0.01284934
vt 0.2022817 0.1094938
vt 0.37176 0.01284934
vt 0.5412371 0.1094938
vt 0.5412371 0.01284934
vt 0.1366591 0.1791697
vt 0.1366591 0.04543185
vt 0.011993 0.01235702
vt 0.011993 0.1791697
vt 0.1814712 0.01235702
vt 0.1814712 0.04543185
vt 0.06388432 0.5788516
vt 0.1368044 0.5788516
vt 0.1630926 0.5432395
vt 0.1630926 0.5105604
vt 0.06388432 0.5105604
vt 0.06388432 0.4870445
vt 0.06388432 0.5105604
vt 0.1630926 0.5105604
vt 0.1739231 0.4870445
vt 0.06388432 0.5788516
vt 0.06388432 0.6258899
vt 0.1832651 0.6258899
vt 0.1368044 0.5788516
vt 0.1939202 0.5788516
vt 0.1630926 0.5432395
vt 0.1368044 0.5788516
vt 0.203953 0.5432395
vt 0.184375 0.5105604
vt 0.1630926 0.5105604
vt 0.1838866 0.4524917
vt 0.06388432 0.4524917
vt 0.06388432 0.4870445
vt 0.1739231 0.4870445
vt 0.01817626 0.5501805
vt 0.06388432 0.5788516
vt 0.06388432 0.5105604
vt 0.03817395 0.5105604
vt 0.01817626 0.5788516
vt 0.01199293 0.2439322
vt 0.01199293 0.4219902
vt 0.1631432 0.4219902
vt 0.181412 0.2439322
vt 0.1366591 0.1791697
vt 0.181412 0.2439322
vt 0.1814707 0.1791697
vt 0.01199293 0.2439322
vt 0.011993 0.1791697
vt 0.976169 0.2287602
vt 0.976169 0.2641259
vt 0.9379002 0.2641259
vt 0.9379002 0.2287602
vt 0.8994316 0.2641259
vt 0.8994316 0.2287602
vt 0.8609633 0.2641259
vt 0.8609633 0.2287602
vt 0.822495 0.2641259
vt 0.822495 0.2287602
vt 0.822495 0.2287602
vt 0.822495 0.2641259
vt 0.8609633 0.2641259
vt 0.8609633 0.2287602
vt 0.8994316 0.2641259
vt 0.8994316 0.2287602
vt 0.9379002 0.2641259
vt 0.9379002 0.2287602
vt 0.976169 0.2641259
vt 0.976169 0.2287602
vt 0.6024361 0.5212904
vt 0.5424092 0.5435176
vt 0.5424092 0.391741
vt 0.6024361 0.4139681
vt 0.6271724 0.4676292
vt 0.6024361 0.5212904
vt 0.6271724 0.4676292
vt 0.6024361 0.4139681
vt 0.5424092 0.5435176
vt 0.5424092 0.391741
vn 1.773822E-07 -0.9243205 -0.381617
vn 1.906622E-07 -0.9942206 -0.1073568
vn 1.77382E-07 -0.9243205 -0.381617
vn 1.906622E-07 -0.9942206 -0.1073568
vn 1.773822E-07 -0.9243205 -0.3816171
vn 1.2997E-07 -0.6739691 0.7387595
vn 1.2997E-07 -0.6739691 0.7387595
vn 0 -0.06244033 0.9980488
vn 0 -0.06244034 0.9980488
vn 0 0.3826833 0.9238795
vn 0 0.3826833 0.9238795
vn -1.110991E-07 0.7071066 0.7071069
vn -1.110991E-07 0.7071066 0.7071069
vn -0.9961934 -0.08528946 -0.01801423
vn -0.9961934 -0.08528945 -0.01801423
vn -0.9984939 -0.05446552 -0.006585695
vn -0.9961894 -0.08673806 -0.009125473
vn -0.996125 -0.08793062 -0.00177461
vn -0.9988795 -0.04731645 -0.0009549143
vn -1 -1.996894E-07 0
vn -1 -2.277404E-07 0
vn -1 -2.277404E-07 0
vn -1 -2.277404E-07 0
vn 0 0 -1
vn 0 0 -1
vn 0 0 -1
vn 0 0 -1
vn 0 0 -1
vn 0 0 -1
vn 0 0 -1
vn 0 0 -1
vn 0 0 -1
vn 0 0 -1
vn 0 0 -1
vn -1 -1.115096E-07 0
vn -1 -1.115096E-07 0
vn -1 -1.115096E-07 0
vn -1 -1.115096E-07 0
vn 1 0 1.785337E-07
vn 1 0 1.785337E-07
vn 1 0 1.785337E-07
vn 1 0 1.785337E-07
vn 0.1907231 -0.7948194 -0.5760962
vn 0.4024559 -0.6171153 -0.6761641
vn 0.1475855 -0.821458 -0.5508405
vn 1.912494E-07 -0.8912265 -0.4535585
vn 0 -0.8912265 -0.4535585
vn 0 -0.8912265 -0.4535585
vn -0.4992383 0 0.8664647
vn -0.4992383 0 0.8664647
vn -0.4992383 0 0.8664647
vn -0.4992383 0 0.8664647
vn -1.673765E-07 1 0
vn -1.698607E-07 1 0
vn -1.698607E-07 1 0
vn -1.662401E-07 1 0
vn -1.620985E-07 1 0
vn 0 0 -1
vn 0 0 -1
vn 0 0 -1
vn 0 0 -1
vn -1.479485E-07 1 0
vn -1.479485E-07 1 0
vn -2.048984E-07 1 0
vn -2.102972E-07 1 0
vn -3.24197E-07 1 0
vn 0.9984939 -0.05446527 -0.006585801
vn 0.9961934 -0.08528913 -0.01801436
vn 0.9961934 -0.08528913 -0.01801436
vn 0.9961894 -0.08673777 -0.009125527
vn 0.996125 -0.08793035 -0.001774607
vn 0.9988795 -0.04731616 -0.0009549566
vn 1 1.996894E-07 0
vn 1 2.277404E-07 0
vn 1 2.277404E-07 0
vn 1 2.277404E-07 0
vn -1.712192E-07 1 0
vn -1.712192E-07 1 0
vn -1.712192E-07 1 0
vn -1.712192E-07 1 0
vn -1.712192E-07 1 0
vn 0 0 -1
vn 0 0 -1
vn 0 0 -1
vn 0 0 -1
vn 0 0 -1
vn 0 0 -1
vn 0 0 -1
vn 0 0 -1
vn 0 0 -1
vn 0 0 -1
vn 0 0 -1
vn 1 1.115096E-07 0
vn 1 1.115096E-07 0
vn 1 1.115096E-07 0
vn 1 1.115096E-07 0
vn -1 -1.789973E-07 0
vn -1 -1.789973E-07 0
vn -1 -1.789974E-07 0
vn -1 -1.789974E-07 0
vn -0.1907227 -0.7948194 -0.5760963
vn -0.1475853 -0.821458 -0.5508406
vn -0.4024557 -0.6171153 -0.6761643
vn 1.62264E-07 -0.8912265 -0.4535584
vn 0 -0.8912265 -0.4535586
vn 0 -0.8912264 -0.4535585
vn 0.4992383 0 0.8664647
vn 0.4992382 0 0.8664648
vn 0.4992383 0 0.8664647
vn 0.4992383 0 0.8664647
vn -1.673765E-07 1 0
vn -1.662401E-07 1 0
vn -1.698607E-07 1 0
vn -1.698607E-07 1 0
vn -1.620985E-07 1 0
vn 0 0 -1
vn 0 0 -1
vn 0 0 -1
vn 0 0 -1
vn -2.048984E-07 1 0
vn -2.102972E-07 1 0
vn -3.24197E-07 1 0
vn -1.479485E-07 1 0
vn -1.479485E-07 1 0
vn 1.864647E-07 2.464314E-07 -1
vn 1.864647E-07 3.285753E-07 -1
vn 1.331891E-07 -0.7071066 -0.7071069
vn 1.33189E-07 -0.7071068 -0.7071066
vn 0 -1 1.437517E-07
vn 0 -1 1.026798E-07
vn -1.311399E-07 -0.7071068 0.7071068
vn -1.311399E-07 -0.7071068 0.7071068
vn -1.3114E-07 2.258955E-07 1
vn -1.3114E-07 1.642876E-07 1
vn -1.3114E-07 1.642876E-07 1
vn -1.3114E-07 2.258955E-07 1
vn 0 0.7071068 0.7071066
vn 0 0.7071068 0.7071066
vn 0 1 0
vn 0 1 0
vn 1.290909E-07 0.7071068 -0.7071068
vn 1.290909E-07 0.7071068 -0.7071068
vn 1.864647E-07 3.285753E-07 -1
vn 1.864647E-07 2.464314E-07 -1
vn -1 0 0
vn -1 -1.428546E-07 0
vn -1 -1.428547E-07 0
vn -1 0 0
vn -1 0 0
vn -1 -3.693916E-07 0
vn -1 -3.693916E-07 0
vn -1 -3.693916E-07 0
vn -1 -1.428546E-07 0
vn -1 -1.428547E-07 0
g sight_front_all_magpul_mbus_gen2_base_LOD1_0
f 3/3/3 2/2/2 1/1/1
f 2/2/2 3/3/3 4/4/4
f 4/4/4 3/3/3 5/5/5
f 2/2/2 4/4/4 6/6/6
f 4/4/4 7/7/7 6/6/6
f 6/6/6 7/7/7 8/8/8
f 9/9/9 6/6/6 8/8/8
f 10/10/10 9/9/9 8/8/8
f 11/11/11 10/10/10 8/8/8
f 10/10/10 11/11/11 12/12/12
f 11/11/11 13/13/13 12/12/12
f 16/16/16 15/15/15 14/14/14
f 17/17/17 16/16/16 14/14/14
f 16/16/16 17/17/17 18/18/18
f 19/19/19 16/16/16 18/18/18
f 19/19/19 20/20/20 16/16/16
f 20/20/20 19/19/19 21/21/21
f 21/21/21 22/22/22 20/20/20
f 21/21/21 23/23/23 22/22/22
f 26/26/26 25/25/25 24/24/24
f 27/27/27 26/26/26 24/24/24
f 28/28/28 24/24/24 25/25/25
f 28/28/28 25/25/25 29/29/29
f 32/32/32 31/31/31 30/30/30
f 31/31/31 33/33/33 30/30/30
f 33/33/33 34/34/34 30/30/30
f 37/37/37 36/36/36 35/35/35
f 38/38/38 37/37/37 35/35/35
f 41/41/41 40/40/40 39/39/39
f 42/42/42 41/41/41 39/39/39
f 45/45/45 44/44/44 43/43/43
f 46/46/46 45/45/45 43/43/43
f 46/46/46 47/47/47 45/45/45
f 47/47/47 48/48/48 45/45/45
f 51/51/51 50/50/50 49/49/49
f 52/52/52 51/51/51 49/49/49
f 55/55/55 54/54/54 53/53/53
f 56/56/56 55/55/55 53/53/53
f 53/53/53 57/57/57 56/56/56
f 60/60/60 59/59/59 58/58/58
f 61/61/61 60/60/60 58/58/58
f 64/64/64 63/63/63 62/62/62
f 65/65/65 64/64/64 62/62/62
f 66/66/66 64/64/64 65/65/65
f 69/69/69 68/68/68 67/67/67
f 70/70/70 69/69/69 67/67/67
f 71/71/71 70/70/70 67/67/67
f 72/72/72 71/71/71 67/67/67
f 73/73/73 72/72/72 67/67/67
f 74/74/74 72/72/72 73/73/73
f 73/73/73 75/75/75 74/74/74
f 75/75/75 76/76/76 74/74/74
f 79/79/79 78/78/78 77/77/77
f 80/80/80 78/78/78 79/79/79
f 81/81/81 80/80/80 79/79/79
f 84/84/84 83/83/83 82/82/82
f 85/85/85 84/84/84 82/82/82
f 84/84/84 86/86/86 83/83/83
f 83/83/83 86/86/86 87/87/87
f 90/90/90 89/89/89 88/88/88
f 91/91/91 90/90/90 88/88/88
f 92/92/92 91/91/91 88/88/88
f 95/95/95 94/94/94 93/93/93
f 96/96/96 95/95/95 93/93/93
f 99/99/99 98/98/98 97/97/97
f 100/100/100 99/99/99 97/97/97
f 103/103/103 102/102/102 101/101/101
f 102/102/102 104/104/104 101/101/101
f 105/105/105 104/104/104 102/102/102
f 106/106/106 105/105/105 102/102/102
f 109/109/109 108/108/108 107/107/107
f 110/110/110 109/109/109 107/107/107
f 113/113/113 112/112/112 111/111/111
f 114/114/114 113/113/113 111/111/111
f 115/115/115 111/111/111 112/112/112
f 118/118/118 117/117/117 116/116/116
f 119/119/119 118/118/118 116/116/116
f 122/122/122 121/121/121 120/120/120
f 120/120/120 121/121/121 123/123/123
f 124/124/124 120/120/120 123/123/123
f 127/127/127 126/126/126 125/125/125
f 128/128/128 127/127/127 125/125/125
f 129/129/129 127/127/127 128/128/128
f 130/130/130 129/129/129 128/128/128
f 131/131/131 129/129/129 130/130/130
f 132/132/132 131/131/131 130/130/130
f 133/133/133 131/131/131 132/132/132
f 134/134/134 133/133/133 132/132/132
f 137/137/137 136/136/136 135/135/135
f 138/138/138 137/137/137 135/135/135
f 139/139/139 137/137/137 138/138/138
f 140/140/140 139/139/139 138/138/138
f 141/141/141 139/139/139 140/140/140
f 142/142/142 141/141/141 140/140/140
f 143/143/143 141/141/141 142/142/142
f 144/144/144 143/143/143 142/142/142
f 147/147/147 146/146/146 145/145/145
f 145/145/145 148/148/148 147/147/147
f 145/145/145 149/149/149 148/148/148
f 152/152/152 151/151/151 150/150/150
f 150/150/150 153/153/153 152/152/152
f 153/153/153 154/154/154 152/152/152
