g sight_front_m1a_springfield_armory_national_match_062_blade_LOD1
v -0.005833313 0.008554209 -3.935933E-05
v 0.005819328 0.008554206 0.01043206
v -0.005833313 0.008554206 0.01043206
v 0.005819328 0.008554209 -3.935933E-05
v -0.005833311 -0.008921168 -3.936172E-05
v 0.00581933 -0.008921169 0.01043206
v 0.00581933 -0.008921168 -3.936172E-05
v -0.005833311 -0.008921169 0.01043206
v -0.005833313 0.008554209 -3.935933E-05
v 0.00581933 -0.008921168 -3.936172E-05
v 0.005819328 0.008554209 -3.935933E-05
v -0.005833311 -0.008921168 -3.936172E-05
v 0.005819328 0.008554209 -3.935933E-05
v 0.005819328 0.005569862 0.01043206
v 0.005819328 0.008554206 0.01043206
v 0.00581933 -0.006177177 0.01043206
v 0.00581933 -0.008921169 0.01043206
v 0.00581933 -0.008921168 -3.936172E-05
v -0.005833313 0.008554206 0.01043206
v -0.004056223 0.005569862 0.01043206
v -0.005833313 0.005569862 0.01043206
v 0.0004241761 0.005569862 0.01043206
v -0.0006844876 0.005569863 0.01043206
v 0.003795606 0.005569863 0.01043206
v 0.005819328 0.005569862 0.01043206
v 0.005819328 0.008554206 0.01043206
v 0.0006629312 -0.004253762 0.01043206
v 0.003795607 -0.004253761 0.01043206
v -0.0009232454 -0.004253762 0.01043206
v 0.003795607 -0.006177176 0.01043206
v -0.004056222 -0.004253763 0.01043206
v -0.004056222 -0.006177178 0.01043206
v -0.005833311 -0.008921169 0.01043206
v 0.00581933 -0.006177177 0.01043206
v 0.00581933 -0.008921169 0.01043206
v -0.005833311 -0.006177178 0.01043206
v -0.005833313 0.008554206 0.01043206
v -0.005833311 -0.008921168 -3.936172E-05
v -0.005833313 0.008554209 -3.935933E-05
v -0.005833313 0.005569862 0.01043206
v -0.005833311 -0.006177178 0.01043206
v -0.005833311 -0.008921169 0.01043206
v -0.006120869 -0.006177179 0.01643082
v -0.00612087 0.005569861 0.01643082
v -0.007485331 0.004896995 0.02099101
v -0.007485328 -0.005504309 0.02099101
v -0.008198244 -0.003084224 0.02301251
v -0.008198245 0.002476935 0.02301251
v -0.008198244 -0.003084224 0.02301251
v -0.006421155 0.002476934 0.02301252
v -0.006421153 -0.003084225 0.02301251
v -0.008198245 0.002476935 0.02301251
v 0.00840594 -0.003084223 0.02301251
v 0.006382215 0.002476938 0.02301252
v 0.008405937 0.002476938 0.02301251
v 0.006382217 -0.003084223 0.02301251
v -0.005833311 -0.006177178 0.01043206
v -0.004343779 -0.006177179 0.01643082
v -0.004056222 -0.006177178 0.01043206
v -0.006120869 -0.006177179 0.01643082
v -0.005708239 -0.00550431 0.02099101
v -0.007485328 -0.005504309 0.02099101
v -0.006421153 -0.003084225 0.02301251
v -0.008198244 -0.003084224 0.02301251
v -0.004056222 -0.004253763 0.01043206
v -0.00434378 0.005569861 0.01643082
v -0.004056223 0.005569862 0.01043206
v -0.004056222 -0.006177178 0.01043206
v -0.004343779 -0.006177179 0.01643082
v -0.005708239 -0.00550431 0.02099101
v -0.00570824 0.004896994 0.02099101
v -0.006421155 0.002476934 0.02301252
v -0.006421153 -0.003084225 0.02301251
v -0.004056223 0.005569862 0.01043206
v -0.00612087 0.005569861 0.01643082
v -0.005833313 0.005569862 0.01043206
v -0.00434378 0.005569861 0.01643082
v -0.00570824 0.004896994 0.02099101
v -0.007485331 0.004896995 0.02099101
v -0.006421155 0.002476934 0.02301252
v -0.008198245 0.002476935 0.02301251
v 0.00581933 -0.006177177 0.01043206
v 0.006317815 0.005569861 0.01643082
v 0.005819328 0.005569862 0.01043206
v 0.006317816 -0.006177179 0.01643082
v 0.007570988 -0.005504309 0.02099101
v 0.007570987 0.004896997 0.02099101
v 0.008405937 0.002476938 0.02301251
v 0.00840594 -0.003084223 0.02301251
v 0.005819328 0.005569862 0.01043206
v 0.004294093 0.005569862 0.01643082
v 0.003795606 0.005569863 0.01043206
v 0.006317815 0.005569861 0.01643082
v 0.005547266 0.004896998 0.02099101
v 0.007570987 0.004896997 0.02099101
v 0.006382215 0.002476938 0.02301252
v 0.008405937 0.002476938 0.02301251
v 0.003795607 -0.004253761 0.01043206
v 0.004294094 -0.006177177 0.01643082
v 0.003795607 -0.006177176 0.01043206
v 0.003795606 0.005569863 0.01043206
v 0.004294093 0.005569862 0.01643082
v 0.005547266 0.004896998 0.02099101
v 0.005547266 -0.005504305 0.02099101
v 0.006382217 -0.003084223 0.02301251
v 0.006382215 0.002476938 0.02301252
v 0.003795607 -0.006177176 0.01043206
v 0.006317816 -0.006177179 0.01643082
v 0.00581933 -0.006177177 0.01043206
v 0.004294094 -0.006177177 0.01643082
v 0.005547266 -0.005504305 0.02099101
v 0.007570988 -0.005504309 0.02099101
v 0.006382217 -0.003084223 0.02301251
v 0.00840594 -0.003084223 0.02301251
v 0.0004241761 0.005569859 0.01721882
v -0.0009232453 -0.004253764 0.01721882
v -0.0006844876 0.005569859 0.01721882
v 0.0006629312 -0.004253764 0.01721882
v 0.0006629312 -0.004253762 0.01043206
v 0.0004241761 0.005569859 0.01721882
v 0.0004241761 0.005569862 0.01043206
v 0.0006629312 -0.004253764 0.01721882
v 0.0004241761 0.005569862 0.01043206
v -0.0006844876 0.005569859 0.01721882
v -0.0006844876 0.005569863 0.01043206
v 0.0004241761 0.005569859 0.01721882
v -0.0006844876 0.005569863 0.01043206
v -0.0009232453 -0.004253764 0.01721882
v -0.0009232454 -0.004253762 0.01043206
v -0.0006844876 0.005569859 0.01721882
v -0.0009232454 -0.004253762 0.01043206
v 0.0006629312 -0.004253764 0.01721882
v 0.0006629312 -0.004253762 0.01043206
v -0.0009232453 -0.004253764 0.01721882
vt 0.7263209 0.9867076
vt 0.9875547 0.751955
vt 0.7263209 0.751955
vt 0.9875547 0.9867076
vt 0.2831832 0.4625665
vt 0.5444169 0.6973193
vt 0.5444169 0.4625665
vt 0.2831832 0.6973192
vt 0.3034866 0.9849215
vt 0.695257 0.7236874
vt 0.3034866 0.7236877
vt 0.6952569 0.9849215
vt 0.01241089 0.01224109
vt 0.2472518 0.07917052
vt 0.2472518 0.01224109
vt 0.2472518 0.3426194
vt 0.2472518 0.4041585
vt 0.01241089 0.4041585
vt 0.2721591 0.4310196
vt 0.2323194 0.4979238
vt 0.2721591 0.4979238
vt 0.1318759 0.4979238
vt 0.1567306 0.4979238
vt 0.05629393 0.4979238
vt 0.01092524 0.4979238
vt 0.01092524 0.4310196
vt 0.1265235 0.7181538
vt 0.05629393 0.7181538
vt 0.1620831 0.7181538
vt 0.05629393 0.7612739
vt 0.2323194 0.718154
vt 0.2323194 0.7612739
vt 0.2721591 0.8227898
vt 0.01092524 0.7612739
vt 0.01092524 0.8227898
vt 0.2721591 0.7612739
vt 0.248748 0.01231315
vt 0.01395863 0.4041446
vt 0.01395863 0.01231315
vt 0.248748 0.07922786
vt 0.248748 0.342619
vt 0.248748 0.4041446
vt 0.3832518 0.342619
vt 0.3832518 0.07922786
vt 0.4899788 0.09431478
vt 0.4899788 0.3275319
vt 0.5379849 0.273269
vt 0.5379849 0.1485772
vt 0.8071802 0.4262925
vt 0.8446623 0.3089976
vt 0.8446623 0.4262925
vt 0.8071802 0.3089976
vt 0.879455 0.4262929
vt 0.922139 0.3089979
vt 0.879455 0.3089979
vt 0.9221389 0.4262929
vt 0.8570601 0.7165499
vt 0.8884775 0.5900254
vt 0.8945422 0.7165501
vt 0.8509954 0.5900253
vt 0.859699 0.4928013
vt 0.8222169 0.4928012
vt 0.8446623 0.4262925
vt 0.8071802 0.4262925
vt 0.606589 0.7030486
vt 0.7982028 0.585906
vt 0.7982028 0.7030487
vt 0.569072 0.7030486
vt 0.569072 0.585906
vt 0.5821965 0.4930615
vt 0.7850783 0.4930613
vt 0.737874 0.4512998
vt 0.629401 0.4512998
vt 0.894543 0.01874056
vt 0.8509958 0.1452652
vt 0.857061 0.01874056
vt 0.8884779 0.1452653
vt 0.859699 0.2424893
vt 0.8222168 0.2424892
vt 0.8446623 0.3089976
vt 0.8071802 0.3089976
vt 0.2472518 0.3426194
vt 0.381785 0.07917052
vt 0.2472518 0.07917052
vt 0.381785 0.3426194
vt 0.4878469 0.3275291
vt 0.4878469 0.0942607
vt 0.5368978 0.1485349
vt 0.5368978 0.2732542
vt 0.93401 0.01874063
vt 0.9661808 0.1452652
vt 0.9766939 0.01874034
vt 0.9234968 0.1452655
vt 0.9397495 0.2424895
vt 0.8970656 0.2424896
vt 0.922139 0.3089979
vt 0.879455 0.3089979
vt 0.6059927 0.7035576
vt 0.5684785 0.5861546
vt 0.5684785 0.7035576
vt 0.7975931 0.7035577
vt 0.7975931 0.5861545
vt 0.7844695 0.4939152
vt 0.5816023 0.4939152
vt 0.6288036 0.4512571
vt 0.7372687 0.4512571
vt 0.9766972 0.7165499
vt 0.9234982 0.5900255
vt 0.9340132 0.7165502
vt 0.966182 0.5900252
vt 0.9397497 0.4928016
vt 0.8970658 0.4928018
vt 0.9221389 0.4262929
vt 0.879455 0.4262929
vt 0.9555566 0.2504199
vt 0.9857638 0.47065
vt 0.9804111 0.2504199
vt 0.9502041 0.47065
vt 0.6403515 0.399115
vt 0.7924996 0.17882
vt 0.6403515 0.1788199
vt 0.7924996 0.399115
vt 0.574437 0.007655827
vt 0.5992915 0.159804
vt 0.5992915 0.007655827
vt 0.574437 0.159804
vt 0.5992915 0.007655827
vt 0.8195866 0.1598042
vt 0.8195866 0.007655827
vt 0.5992915 0.159804
vt 0.6403515 0.4346746
vt 0.7924996 0.399115
vt 0.6403515 0.399115
vt 0.7924996 0.4346746
vn 0 1 2.27685E-07
vn 0 1 2.27685E-07
vn 0 1 2.27685E-07
vn 0 1 2.27685E-07
vn 0 -1 -1.138425E-07
vn 0 -1 -1.138425E-07
vn 0 -1 -1.138425E-07
vn 0 -1 -1.138425E-07
vn 0 1.364312E-07 -1
vn 0 1.364312E-07 -1
vn 0 1.364312E-07 -1
vn 0 1.364312E-07 -1
vn 1 1.005974E-07 0
vn 1 0 0
vn 1 0 0
vn 1 0 -1.28641E-07
vn 1 0 0
vn 1 1.023234E-07 0
vn -1.389362E-07 1.524748E-07 1
vn -1.804263E-07 0 1
vn -3.354058E-07 0 1
vn 1.47403E-07 1.806746E-05 1
vn 0 0.448709 -0.8936779
vn 2.361942E-07 6.666776E-07 1
vn 0 1.835583E-07 1
vn 0 0 1
vn 0 -1.99884E-07 -1
vn 0 -2.45957E-07 1
vn 0 -2.707944E-07 1
vn 0 -2.481088E-07 1
vn 0 -2.45957E-07 1
vn 0 -2.481091E-07 1
vn 0 -2.172188E-07 1
vn 0 -2.172187E-07 1
vn 0 -2.172187E-07 1
vn 0 -2.172188E-07 1
vn -1 0 0
vn -1 -1.01912E-07 0
vn -1 -1.023234E-07 0
vn -1 0 -1.288059E-07
vn -1 0 0
vn -1 0 0
vn -0.9866462 -1.568353E-07 -0.1628779
vn -0.9866462 -1.336588E-07 -0.1628781
vn -0.9538146 -1.761151E-07 -0.300396
vn -0.9538146 -1.842049E-07 -0.3003956
vn -0.943072 -1.948776E-07 -0.3325887
vn -0.9430718 -3.330207E-07 -0.3325891
vn -2.641731E-07 -5.586641E-07 1
vn -1.077451E-06 -2.987784E-07 1
vn 0 -6.430815E-07 1
vn -1.341623E-06 -2.14361E-07 1
vn 2.617598E-07 -5.478262E-07 1
vn 9.163599E-07 -3.09615E-07 1
vn 1.17812E-06 -2.143598E-07 1
vn 0 -6.430814E-07 1
vn 0 -1 -1.340556E-07
vn -3.009443E-07 -0.9979039 0.06471378
vn 0 -1 -1.490424E-07
vn -3.714177E-07 -0.996759 0.08044521
vn -5.623172E-07 -0.9003894 0.4350848
vn -5.633668E-07 -0.8398283 0.5428522
vn -4.300418E-07 -0.6410766 0.7674769
vn -4.300417E-07 -0.6410766 0.7674769
vn 0.9988531 0 0.04788125
vn 0.9866462 0 0.162878
vn 0.9988531 1.427975E-07 0.04788103
vn 0.9988531 0 0.04788117
vn 0.9866462 0 0.162878
vn 0.9538146 0 0.3003958
vn 0.9538146 0 0.3003959
vn 0.943072 0 0.3325887
vn 0.9430721 0 0.3325885
vn 0 1 1.987232E-07
vn 0 0.996759 0.08044507
vn 0 1 1.987232E-07
vn 0 0.9979039 0.06471378
vn 0 0.9003904 0.4350829
vn -1.649314E-07 0.83983 0.5428493
vn -5.996164E-07 0.6410805 0.7674737
vn -5.996164E-07 0.6410805 0.7674737
vn 0.9965652 1.26046E-07 -0.08281288
vn 0.985386 1.42941E-07 -0.1703364
vn 0.9965652 1.643034E-07 -0.08281296
vn 0.985386 1.17283E-07 -0.1703363
vn 0.9537715 2.168941E-07 -0.3005331
vn 0.9537715 1.437557E-07 -0.3005329
vn 0.9242647 1.97189E-07 -0.3817523
vn 0.9242641 5.771469E-07 -0.3817535
vn 3.536406E-07 1 0
vn 5.927404E-07 0.9979135 0.06456411
vn 2.945299E-07 1 0
vn 6.838229E-07 0.9967264 0.08084859
vn 1.251043E-06 0.9016213 0.4325264
vn 1.222512E-06 0.8395408 0.5432966
vn 9.710301E-07 0.6410806 0.7674736
vn 7.153581E-07 0.6410807 0.7674735
vn -0.9965652 -1.537027E-07 0.08281286
vn -0.985386 -1.366455E-07 0.1703364
vn -0.9965652 -1.800755E-07 0.08281285
vn -0.9965652 -1.05725E-07 0.08281292
vn -0.985386 -1.095695E-07 0.1703365
vn -0.9537715 -2.162891E-07 0.300533
vn -0.9537715 -1.579881E-07 0.3005331
vn -0.9242645 -2.240609E-07 0.3817528
vn -0.9242649 -5.426861E-07 0.3817517
vn -5.353584E-07 -1 -2.220331E-07
vn -9.144791E-07 -0.9967263 0.08084968
vn -4.417947E-07 -1 -2.613724E-07
vn -8.817458E-07 -0.9979135 0.06456493
vn -1.242544E-06 -0.9016197 0.4325296
vn -1.017221E-06 -0.8395388 0.5432999
vn -2.571368E-07 -0.6410764 0.7674772
vn 0 -0.6410763 0.7674772
vn 0 0 1
vn 0 0 1
vn 0 0 1
vn 0 0 1
vn 0.9997048 0.024297 0
vn 0.9997048 0.024297 0
vn 0.9997048 0.02429701 0
vn 0.9997048 0.02429701 0
vn 5.376259E-07 1 4.391249E-07
vn 5.37626E-07 1 4.391249E-07
vn 5.37626E-07 1 4.391249E-07
vn 0 1 3.512999E-07
vn -0.9997048 0.02429727 0
vn -0.9997048 0.02429727 0
vn -0.9997048 0.02429727 0
vn -0.9997048 0.02429726 0
vn 1.878878E-07 -1 -2.854311E-07
vn 1.878878E-07 -1 -2.854311E-07
vn 1.878878E-07 -1 -2.854311E-07
vn 0 -1 -2.415186E-07
g sight_front_m1a_springfield_armory_national_match_062_blade_LOD1_0
f 3/3/3 2/2/2 1/1/1
f 4/4/4 1/1/1 2/2/2
f 7/7/7 6/6/6 5/5/5
f 8/8/8 5/5/5 6/6/6
f 11/11/11 10/10/10 9/9/9
f 12/12/12 9/9/9 10/10/10
f 15/15/15 14/14/14 13/13/13
f 14/14/14 16/16/16 13/13/13
f 16/16/16 17/17/17 13/13/13
f 17/17/17 18/18/18 13/13/13
f 21/21/21 20/20/20 19/19/19
f 20/20/20 22/22/22 19/19/19
f 23/23/23 22/22/22 20/20/20
f 22/22/22 24/24/24 19/19/19
f 24/24/24 25/25/25 19/19/19
f 19/19/19 25/25/25 26/26/26
f 22/22/22 27/27/27 24/24/24
f 28/28/28 24/24/24 27/27/27
f 27/27/27 29/29/29 28/28/28
f 23/23/23 20/20/20 29/29/29
f 28/28/28 29/29/29 30/30/30
f 29/29/29 31/31/31 30/30/30
f 31/31/31 29/29/29 20/20/20
f 30/30/30 31/31/31 32/32/32
f 30/30/30 32/32/32 33/33/33
f 34/34/34 30/30/30 33/33/33
f 35/35/35 34/34/34 33/33/33
f 33/33/33 32/32/32 36/36/36
f 39/39/39 38/38/38 37/37/37
f 38/38/38 40/40/40 37/37/37
f 41/41/41 40/40/40 38/38/38
f 42/42/42 41/41/41 38/38/38
f 41/41/41 43/43/43 40/40/40
f 44/44/44 40/40/40 43/43/43
f 44/44/44 43/43/43 45/45/45
f 46/46/46 45/45/45 43/43/43
f 46/46/46 47/47/47 45/45/45
f 48/48/48 45/45/45 47/47/47
f 51/51/51 50/50/50 49/49/49
f 52/52/52 49/49/49 50/50/50
f 55/55/55 54/54/54 53/53/53
f 56/56/56 53/53/53 54/54/54
f 59/59/59 58/58/58 57/57/57
f 60/60/60 57/57/57 58/58/58
f 58/58/58 61/61/61 60/60/60
f 62/62/62 60/60/60 61/61/61
f 61/61/61 63/63/63 62/62/62
f 64/64/64 62/62/62 63/63/63
f 67/67/67 66/66/66 65/65/65
f 65/65/65 66/66/66 68/68/68
f 66/66/66 69/69/69 68/68/68
f 69/69/69 66/66/66 70/70/70
f 71/71/71 70/70/70 66/66/66
f 71/71/71 72/72/72 70/70/70
f 73/73/73 70/70/70 72/72/72
f 76/76/76 75/75/75 74/74/74
f 77/77/77 74/74/74 75/75/75
f 77/77/77 75/75/75 78/78/78
f 79/79/79 78/78/78 75/75/75
f 78/78/78 79/79/79 80/80/80
f 81/81/81 80/80/80 79/79/79
f 84/84/84 83/83/83 82/82/82
f 85/85/85 82/82/82 83/83/83
f 85/85/85 83/83/83 86/86/86
f 87/87/87 86/86/86 83/83/83
f 87/87/87 88/88/88 86/86/86
f 89/89/89 86/86/86 88/88/88
f 92/92/92 91/91/91 90/90/90
f 93/93/93 90/90/90 91/91/91
f 91/91/91 94/94/94 93/93/93
f 95/95/95 93/93/93 94/94/94
f 94/94/94 96/96/96 95/95/95
f 97/97/97 95/95/95 96/96/96
f 100/100/100 99/99/99 98/98/98
f 98/98/98 99/99/99 101/101/101
f 99/99/99 102/102/102 101/101/101
f 102/102/102 99/99/99 103/103/103
f 104/104/104 103/103/103 99/99/99
f 104/104/104 105/105/105 103/103/103
f 106/106/106 103/103/103 105/105/105
f 109/109/109 108/108/108 107/107/107
f 110/110/110 107/107/107 108/108/108
f 110/110/110 108/108/108 111/111/111
f 112/112/112 111/111/111 108/108/108
f 111/111/111 112/112/112 113/113/113
f 114/114/114 113/113/113 112/112/112
f 117/117/117 116/116/116 115/115/115
f 118/118/118 115/115/115 116/116/116
f 121/121/121 120/120/120 119/119/119
f 122/122/122 119/119/119 120/120/120
f 125/125/125 124/124/124 123/123/123
f 126/126/126 123/123/123 124/124/124
f 129/129/129 128/128/128 127/127/127
f 130/130/130 127/127/127 128/128/128
f 133/133/133 132/132/132 131/131/131
f 134/134/134 131/131/131 132/132/132
