g hammer_LOD0
v 0.002842075 0.03138962 0.005212116
v 0.002759803 0.03246216 0.005542181
v 0.002942407 0.03259357 0.004409458
v 0.001430268 0.02757706 0.001098579
v 0.007657916 0.02757706 0.001098579
v 0.007657916 0.03078262 0.001900213
v 0.001430268 0.02506882 0.00240285
v 0.007657916 0.02506882 0.00240285
v -0.002014182 0.02757706 0.001098579
v -0.008241829 0.03078262 0.001900213
v -0.008241829 0.02757706 0.001098579
v -0.008241829 0.02506882 0.00240285
v -0.002014182 0.02506882 0.00240285
v -0.00352632 0.03259357 0.004409458
v -0.008246611 0.03259357 0.004409458
v 0.002942407 0.03259357 0.004409458
v -0.003343717 0.03246216 0.005542181
v 0.002759803 0.03246216 0.005542181
v 0.007657916 0.03259357 0.004409458
v -0.002014182 0.02346355 0.0136398
v 0.001430268 0.01573814 0.01273683
v -0.002014182 0.01573814 0.01273683
v 0.001430268 0.02346355 0.0136398
v -0.002014182 0.02827938 0.01042923
v 0.001430268 0.02827938 0.01042923
v -0.002014182 0.03018566 0.004911119
v 0.001430268 0.03018566 0.004911119
v 0.001430268 0.006909103 0.009626598
v -0.002014182 0.006909103 0.009626598
v -0.002014182 -0.008341065 0.007920994
v 0.001430268 -0.004729156 0.009325609
v 0.001430268 -0.008341065 0.007920994
v -0.002014182 -0.004729156 0.009325609
v 0.001430268 -0.0003146362 0.009124954
v -0.002014182 -0.0003146362 0.009124954
v -0.002014182 0.002093277 0.007118348
v 0.001430268 0.002093277 0.007118348
v -0.002014182 0.00369854 0.006516374
v 0.001430268 0.00369854 0.006516374
v -0.002014182 0.005203476 0.006717029
v 0.001430268 0.005203476 0.006717029
v -0.002014182 0.006307106 0.007620001
v 0.001430268 0.006307106 0.007620001
v -0.002014182 0.006909103 0.009626598
v 0.001430268 0.006909103 0.009626598
v 0.001430268 -0.006133804 0.00641603
v -0.002014182 -0.006936416 0.006917692
v 0.001430268 -0.006936416 0.006917692
v -0.002014182 -0.006133804 0.00641603
v 0.001430268 -0.005832786 0.005513059
v -0.002014182 -0.005832786 0.005513059
v 0.001430268 -0.006033478 0.00471043
v -0.002014182 -0.006033478 0.00471043
v 0.001430268 -0.008236694 0.001511901
v -0.002014182 -0.008236694 0.001511901
v 0.001430268 -0.00714714 -0.003327003
v -0.002014182 -0.00714714 -0.003327003
v 0.001430268 -0.002243996 -0.005005524
v -0.002014182 -0.002243996 -0.005005524
v 0.001430268 0.02757706 0.001098579
v -0.002014182 0.02757706 0.001098579
v -0.002014182 -0.00793972 0.007319001
v 0.001430268 -0.00793972 0.007319001
v -0.002014182 -0.008341065 0.007920994
v 0.001430268 -0.008341065 0.007920994
v 0.001430268 0.005203476 0.006717029
v 0.001430268 -0.000615654 0.002804165
v 0.001430268 0.00369854 0.006516374
v 0.001430268 0.02506882 0.00240285
v 0.001430268 0.02757706 0.001098579
v 0.001430268 0.000287323 -0.001008375
v 0.001430268 0.006307106 0.007620001
v 0.001430268 0.01573814 0.01273683
v 0.001430268 0.02567081 0.003606818
v 0.001430268 0.006909103 0.009626598
v 0.001430268 0.002093277 0.007118348
v 0.001430268 -0.004428177 0.003957957
v 0.001430268 -0.0003146362 0.009124954
v 0.001430268 -0.00257206 -0.003767446
v 0.001430268 -0.002243996 -0.005005524
v 0.001430268 -0.00714714 -0.003327003
v 0.001430268 -0.006334457 -0.002663819
v 0.001430268 -0.007287597 0.001198887
v 0.001430268 -0.008236694 0.001511901
v 0.001430268 -0.006033478 0.00471043
v 0.001430268 -0.005832786 0.005513059
v 0.001430268 -0.006133804 0.00641603
v 0.001430268 0.02346355 0.0136398
v 0.001430268 0.02827938 0.01042923
v 0.001430268 0.03018566 0.004911119
v 0.001430268 -0.004729156 0.009325609
v 0.001430268 -0.006936416 0.006917692
v 0.001430268 -0.00793972 0.007319001
v 0.001430268 -0.008341065 0.007920994
v 0.003013207 0.000287323 -0.001008375
v 0.001430268 -0.00257206 -0.003767446
v 0.003013207 -0.00257206 -0.003767446
v 0.001430268 0.000287323 -0.001008375
v 0.003013207 -0.000615654 0.002804165
v 0.001430268 -0.000615654 0.002804165
v 0.003013207 -0.004428177 0.003957957
v 0.001430268 -0.004428177 0.003957957
v 0.003013207 -0.007287597 0.001198887
v 0.001430268 -0.007287597 0.001198887
v 0.003013207 -0.006334457 -0.002663819
v 0.001430268 -0.006334457 -0.002663819
v 0.001430268 -0.006334457 -0.002663819
v 0.003013207 -0.006334457 -0.002663819
v 0.007657916 0.03138962 0.005212116
v 0.002942407 0.03259357 0.004409458
v 0.007657916 0.03259357 0.004409458
v 0.002842075 0.03138962 0.005212116
v 0.001430268 0.02567081 0.003606818
v 0.007657916 0.02506882 0.00240285
v 0.001430268 0.02506882 0.00240285
v 0.007657916 0.02567081 0.003606818
v 0.001430268 0.03018566 0.004911119
v 0.002842075 0.03138962 0.005212116
v 0.007657916 0.03138962 0.005212116
v -0.003425989 0.03138962 0.005212116
v -0.002014182 0.03018566 0.004911119
v -0.003343717 0.03246216 0.005542181
v 0.002759803 0.03246216 0.005542181
v -0.008246611 0.03138962 0.005212116
v -0.002014182 0.02567081 0.003606818
v -0.008241829 0.02567081 0.003606818
v 0.007657916 0.02567081 0.003606818
v 0.001430268 0.02567081 0.003606818
v 0.007657916 0.02506882 0.00240285
v 0.007657916 0.03078262 0.001900213
v 0.007657916 0.02757706 0.001098579
v 0.007657916 0.03259357 0.004409458
v 0.007657916 0.02567081 0.003606818
v 0.007657916 0.03138962 0.005212116
v -0.008241829 0.02567081 0.003606818
v -0.002014182 0.02506882 0.00240285
v -0.008241829 0.02506882 0.00240285
v -0.002014182 0.02567081 0.003606818
v -0.003425989 0.03138962 0.005212116
v -0.00352632 0.03259357 0.004409458
v -0.003343717 0.03246216 0.005542181
v -0.002014182 0.01573814 0.01273683
v -0.002014182 0.02506882 0.00240285
v -0.002014182 0.02567081 0.003606818
v -0.002014182 0.005203476 0.006717029
v -0.002014182 0.00369854 0.006516374
v -0.002021355 0.000287323 -0.001008375
v -0.002014182 0.02757706 0.001098579
v -0.002021355 -0.000615654 0.002804165
v -0.002014182 0.006307106 0.007620001
v -0.002014182 0.006909103 0.009626598
v -0.002014182 0.002093277 0.007118348
v -0.002021355 -0.004428177 0.003957957
v -0.002014182 -0.0003146362 0.009124954
v -0.002021355 -0.00257206 -0.003767446
v -0.002014182 -0.002243996 -0.005005524
v -0.002014182 -0.00714714 -0.003327003
v -0.002021355 -0.006334457 -0.002663819
v -0.002021355 -0.007287597 0.001198887
v -0.002014182 -0.008236694 0.001511901
v -0.002014182 -0.006033478 0.00471043
v -0.002014182 -0.005832786 0.005513059
v -0.002014182 -0.006133804 0.00641603
v -0.002014182 -0.004729156 0.009325609
v -0.002014182 -0.006936416 0.006917692
v -0.002014182 -0.00793972 0.007319001
v -0.002014182 -0.008341065 0.007920994
v -0.003604293 0.000287323 -0.001008375
v -0.002021355 -0.00257206 -0.003767446
v -0.002021355 0.000287323 -0.001008375
v -0.003604293 -0.00257206 -0.003767446
v -0.003604293 -0.000615654 0.002804165
v -0.002021355 -0.000615654 0.002804165
v -0.003604293 -0.004428177 0.003957957
v -0.002021355 -0.004428177 0.003957957
v -0.003604293 -0.007287597 0.001198887
v -0.002021355 -0.007287597 0.001198887
v -0.003604293 -0.006334457 -0.002663819
v -0.002021355 -0.006334457 -0.002663819
v -0.002021355 -0.006334457 -0.002663819
v -0.003604293 -0.006334457 -0.002663819
v -0.008246611 0.03138962 0.005212116
v -0.00352632 0.03259357 0.004409458
v -0.003425989 0.03138962 0.005212116
v -0.008246611 0.03259357 0.004409458
v -0.002014182 0.02346355 0.0136398
v -0.002014182 0.02827938 0.01042923
v -0.002014182 0.03018566 0.004911119
v -0.008241829 0.02506882 0.00240285
v -0.008241829 0.03078262 0.001900213
v -0.008246611 0.03259357 0.004409458
v -0.008241829 0.02757706 0.001098579
v -0.008241829 0.02567081 0.003606818
v -0.008246611 0.03138962 0.005212116
vt 0.7337202 0.001914951
vt 0.7314048 0.001464844
vt 0.7314048 0.003885818
vt 0.02168069 0.06833845
vt 0.03472543 0.06833755
vt 0.03472543 0.06141618
vt 0.02168069 0.07426028
vt 0.03472598 0.0742594
vt 0.01451067 0.06833894
vt 0.001465388 0.06141851
vt 0.001465388 0.06833988
vt 0.001465932 0.07426173
vt 0.01451121 0.07426079
vt 0.01134247 0.05493584
vt 0.001464844 0.05493651
vt 0.02484678 0.05493494
vt 0.01172451 0.05254715
vt 0.02446419 0.05254636
vt 0.03472434 0.05493427
vt 0.9827287 0.7917272
vt 0.9755625 0.8080227
vt 0.982733 0.808021
vt 0.9755576 0.7917292
vt 0.9827254 0.7796024
vt 0.9755549 0.7796044
vt 0.9827216 0.7673725
vt 0.9755511 0.7673744
vt 0.9755678 0.8276324
vt 0.9827378 0.8276304
vt 0.8962595 0.4603284
vt 0.8890883 0.4522092
vt 0.8890879 0.4603283
vt 0.8962595 0.4522096
vt 0.8890889 0.4429512
vt 0.8962595 0.4429515
vt 0.89626 0.4363848
vt 0.8890889 0.4363845
vt 0.89626 0.432793
vt 0.8890895 0.4327928
vt 0.8962605 0.4296122
vt 0.8890895 0.4296121
vt 0.8962605 0.4266248
vt 0.8890895 0.4266246
vt 0.8962605 0.4222358
vt 0.8890895 0.4222356
vt 0.9693049 0.2180834
vt 0.9764738 0.2161002
vt 0.9693044 0.2161007
vt 0.9764749 0.2180827
vt 0.9693049 0.2200771
vt 0.9764749 0.2200765
vt 0.9693049 0.22181
vt 0.9764749 0.2218094
vt 0.9693054 0.2299455
vt 0.9764754 0.2299449
vt 0.969306 0.240335
vt 0.9764765 0.2403345
vt 0.9693075 0.2511906
vt 0.9764776 0.2511899
vt 0.9693129 0.3149501
vt 0.9764829 0.3149495
vt 0.9764738 0.2138366
vt 0.9693038 0.2138373
vt 0.9764738 0.2123213
vt 0.9693038 0.2123219
vt 0.9208434 0.2562508
vt 0.9264373 0.2426675
vt 0.9206249 0.2530777
vt 0.9380201 0.295219
vt 0.9417479 0.299821
vt 0.9346415 0.2429239
vt 0.9194524 0.2588945
vt 0.9129001 0.2803957
vt 0.9358004 0.2969589
vt 0.9155858 0.2609705
vt 0.9187169 0.2500349
vt 0.9224721 0.2353252
vt 0.9135889 0.2459331
vt 0.9391065 0.235899
vt 0.941785 0.2360537
vt 0.9362859 0.2266928
vt 0.9352651 0.2286386
vt 0.9269372 0.2283002
vt 0.9258975 0.2264832
vt 0.9202547 0.2323455
vt 0.9186916 0.2330936
vt 0.916712 0.232854
vt 0.914283 0.2966311
vt 0.9228902 0.305171
vt 0.9350148 0.3067724
vt 0.9113284 0.2369558
vt 0.9153458 0.2314167
vt 0.9141023 0.2295254
vt 0.9126984 0.2289538
vt 0.1054635 0.1685869
vt 0.09714048 0.1652719
vt 0.09714048 0.1685875
vt 0.1054635 0.1652712
vt 0.1136705 0.1685861
vt 0.1136705 0.1652704
vt 0.122014 0.1685855
vt 0.122014 0.1652698
vt 0.1303376 0.1685847
vt 0.1303365 0.165269
vt 0.1386708 0.1685841
vt 0.1386708 0.1652684
vt 0.08892769 0.1652725
vt 0.08892825 0.1685882
vt 0.67318 0.4496577
vt 0.676209 0.4595294
vt 0.6762095 0.4496578
vt 0.6731796 0.4597392
vt 0.3016629 0.8010757
vt 0.2988386 0.7880248
vt 0.2988423 0.8010764
vt 0.3016598 0.7880242
vt 0.1221023 0.9749104
vt 0.1247877 0.9718561
vt 0.1247894 0.961435
vt 0.124786 0.9853726
vt 0.1221006 0.9823173
vt 0.1272146 0.985195
vt 0.1272162 0.9720343
vt 0.1247844 0.9957935
vt 0.1119317 0.9823167
vt 0.1119311 0.9957924
vt 0.1119367 0.9614322
vt 0.1119334 0.9749078
vt 0.06648958 0.3218543
vt 0.07056989 0.3331563
vt 0.07047518 0.3262347
vt 0.06645945 0.3381692
vt 0.06437384 0.3237188
vt 0.0641882 0.3361611
vt 0.7976974 0.7873847
vt 0.794879 0.7743399
vt 0.7948779 0.7873845
vt 0.797699 0.7743402
vt 0.7337203 0.001914951
vt 0.7314048 0.003885818
vt 0.7314048 0.001464844
vt 0.9129002 0.2803957
vt 0.93802 0.295219
vt 0.9358006 0.2969589
vt 0.9208434 0.2562508
vt 0.920625 0.2530777
vt 0.9346414 0.2429239
vt 0.9417479 0.299821
vt 0.9264374 0.2426675
vt 0.9194524 0.2588945
vt 0.9155858 0.2609705
vt 0.9187169 0.2500349
vt 0.922472 0.2353252
vt 0.913589 0.2459331
vt 0.9391065 0.235899
vt 0.9417851 0.2360537
vt 0.936286 0.2266928
vt 0.9352651 0.2286386
vt 0.9269371 0.2283002
vt 0.9258976 0.2264832
vt 0.9202547 0.2323455
vt 0.9186916 0.2330936
vt 0.916712 0.232854
vt 0.9113283 0.2369558
vt 0.9153457 0.2314167
vt 0.9141023 0.2295254
vt 0.9126985 0.2289538
vt 0.1054635 0.1685869
vt 0.09714031 0.1652719
vt 0.1054635 0.1652712
vt 0.09714031 0.1685875
vt 0.1136703 0.1685861
vt 0.1136703 0.1652704
vt 0.122014 0.1685855
vt 0.122014 0.1652698
vt 0.1303377 0.1685847
vt 0.1303365 0.165269
vt 0.1386709 0.1685841
vt 0.1386709 0.1652684
vt 0.08892775 0.1652725
vt 0.08892822 0.1685882
vt 0.6731801 0.4496577
vt 0.676209 0.4595294
vt 0.6731796 0.4597392
vt 0.6762094 0.4496578
vt 0.914283 0.2966311
vt 0.9228902 0.305171
vt 0.9350147 0.3067724
vt 0.0664897 0.3218543
vt 0.07056999 0.3331563
vt 0.06645942 0.3381692
vt 0.0704751 0.3262347
vt 0.06437397 0.3237188
vt 0.06418824 0.3361611
vn 0.9864503 0.02580881 0.1620181
vn 0.9864503 0.02580881 0.1620181
vn 0.9864503 0.02580881 0.1620181
vn 0 0.008438521 -0.9999645
vn 0 -0.1169642 -0.9931362
vn 0 0.5607972 -0.8279532
vn 0 -0.4613489 -0.8872188
vn 0 -0.4613489 -0.8872188
vn 0 0.008438513 -0.9999645
vn 0 0.560946 -0.8278524
vn 0 -0.1169642 -0.9931362
vn 0 -0.4613489 -0.8872188
vn 0 -0.4613489 -0.8872188
vn 0 0.9205806 -0.3905527
vn 0 0.8108757 -0.5852184
vn 0 0.9205806 -0.3905528
vn 0 0.9933372 0.115245
vn 0 0.9933372 0.115245
vn 0 0.8108757 -0.5852184
vn 0 0.2336455 0.9723219
vn 0 -0.225569 0.9742272
vn 0 -0.225569 0.9742272
vn 0 0.2336455 0.9723219
vn 0 0.791396 0.6113037
vn 0 0.791396 0.6113037
vn 0 0.945189 0.3265239
vn 0 0.945189 0.3265239
vn 0 -0.3322599 0.943188
vn 0 -0.3322599 0.943188
vn 0 -0.3624424 0.9320061
vn 0 -0.1620153 0.9867883
vn 0 -0.3624424 0.9320061
vn 0 -0.1620153 0.9867883
vn 0 0.3616915 0.9322978
vn 0 0.3616915 0.9322978
vn 0 0.5027319 0.8644424
vn 0 0.5027319 0.8644424
vn 0 0.1128696 0.9936098
vn 0 0.1128696 0.9936098
vn 0 -0.3978205 0.9174633
vn 0 -0.3978205 0.9174633
vn 0 -0.8319044 0.5549189
vn 0 -0.8319044 0.5549189
vn 0 -0.9578239 0.2873558
vn 0 -0.9578239 0.2873558
vn 0 -0.7856969 -0.6186118
vn 0 -0.4524946 -0.8917671
vn 0 -0.4524946 -0.8917672
vn 0 -0.7856969 -0.6186117
vn 0 -0.9992636 -0.03837027
vn 0 -0.9992636 -0.03837026
vn 0 -0.9114088 0.4115019
vn 0 -0.9114088 0.4115019
vn 0 -0.9818422 0.1896997
vn 0 -0.9818422 0.1896997
vn 0 -0.744361 -0.6677773
vn 0 -0.744361 -0.6677773
vn 0 -0.06392068 -0.997955
vn 0 -0.06392064 -0.997955
vn 0 0.2005332 -0.979687
vn 0 0.2005332 -0.979687
vn 0 -0.6300644 -0.7765428
vn 0 -0.6300644 -0.7765428
vn 0 -0.8320405 -0.5547148
vn 0 -0.8320405 -0.5547149
vn 1 0 0
vn 1 0 0
vn 1 0 0
vn 1 0 0
vn 1 0 0
vn 1 0 0
vn 1 0 0
vn 1 0 0
vn 1 0 0
vn 1 0 0
vn 1 0 0
vn 1 0 0
vn 1 0 0
vn 1 0 0
vn 1 0 0
vn 1 0 0
vn 1 0 0
vn 1 0 0
vn 1 0 0
vn 1 0 0
vn 1 0 0
vn 1 0 0
vn 1 0 0
vn 1 0 0
vn 1 0 0
vn 1 0 0
vn 1 0 0
vn 1 0 0
vn 1 0 0
vn 0 0.9595644 -0.2814893
vn 0 0.2387803 -0.9710736
vn 0 0.2387803 -0.9710736
vn 0 0.9595644 -0.2814893
vn 0 0.7284479 0.6851012
vn 0 0.7284479 0.6851012
vn 0 -0.234627 0.9720855
vn 0 -0.2346269 0.9720855
vn 0 -0.9608707 0.2769972
vn 0 -0.9608707 0.2769971
vn 0 -0.7222851 -0.6915954
vn 0 -0.7222852 -0.6915954
vn 0 -0.7222852 -0.6915954
vn 0 -0.7222851 -0.6915954
vn 0 0.5547099 0.8320439
vn 0 0.5547099 0.8320439
vn 0 0.5547099 0.8320439
vn 0 0.5547099 0.8320439
vn 0 -0.8944232 0.4472215
vn 0 -0.8944232 0.4472215
vn 0 -0.8944232 0.4472215
vn 0 -0.8944232 0.4472215
vn 0.001022364 -0.2543982 0.967099
vn 0 -0.259276 0.9658033
vn 0.004998652 -0.2667974 0.9637397
vn 0 -0.2592761 0.9658033
vn -0.002706758 -0.2557058 0.9667508
vn 0 -0.2941289 0.9557658
vn 0 -0.2941289 0.9557658
vn -0.002596618 -0.2694255 0.9630178
vn -0.003718709 -0.2740122 0.961719
vn 0 -0.2702595 0.9627875
vn 0.003362452 -0.2732568 0.9619352
vn 0 -0.277542 0.9607134
vn 1 0 0
vn 1 0 0
vn 1 0 0
vn 1 0 0
vn 1 0 0
vn 1 0 0
vn 0 -0.8944232 0.4472215
vn 0 -0.8944232 0.4472215
vn 0 -0.8944232 0.4472215
vn 0 -0.8944232 0.4472215
vn -0.9864503 0.02580896 0.1620176
vn -0.9864503 0.02580896 0.1620176
vn -0.9864503 0.02580896 0.1620176
vn -1 0 0
vn -1 0.0001348097 0.0002976948
vn -1 0 0
vn -1 0 0
vn -0.9999995 0.0003976984 0.0008711762
vn -0.9999999 0.0004292712 9.574019E-05
vn -1 0.0002908676 -1.43618E-05
vn -0.9999993 0.0008977504 0.0008697768
vn -1 0 0
vn -1 0 0
vn -0.9999992 0.0005544001 0.001185581
vn -0.9999957 -0.00193941 0.002233329
vn -0.9999996 0.0001893392 0.0008893871
vn -0.9999859 -0.0006707176 -0.005255785
vn -0.9999831 -0.000119015 -0.005825195
vn -0.999977 -0.005007329 -0.004576746
vn -0.9999763 -0.004745401 -0.005000794
vn -0.9999745 -0.006879946 0.001931353
vn -0.9999781 -0.006372612 0.001821554
vn -0.9999919 -0.003691197 0.001657974
vn -0.9999975 -0.001780926 0.001370874
vn -1 0 0
vn -1 0 0
vn -1 0 0
vn -1 0 0
vn -1 0 0
vn 0 0.9595644 -0.2814892
vn 0 0.2387803 -0.9710736
vn 0 0.9595644 -0.2814893
vn 0 0.2387803 -0.9710736
vn 0 0.7284479 0.6851012
vn 0 0.7284479 0.6851012
vn 0 -0.2346269 0.9720855
vn 0 -0.2346269 0.9720855
vn 0 -0.9608707 0.2769972
vn 0 -0.9608707 0.2769972
vn 0 -0.7222852 -0.6915954
vn 0 -0.7222852 -0.6915954
vn 0 -0.7222852 -0.6915954
vn 0 -0.7222852 -0.6915954
vn 0 0.5547099 0.8320439
vn 0 0.5547099 0.8320438
vn 0 0.5547099 0.8320439
vn 0 0.5547099 0.8320439
vn -1 0 0
vn -1 0 0
vn -1 0 0
vn -0.9999999 -0.0004257913 -0.0001977858
vn -0.9999988 -0.0001361321 -0.001547504
vn -0.9999993 -0.0004096747 -0.001170427
vn -1 0 0
vn -0.9999998 -0.0007232666 0.0002809701
vn -0.9999995 -0.0005883676 -0.0008825295
g hammer_LOD0_0
f 3/3/3 2/2/2 1/1/1
f 6/6/6 5/5/5 4/4/4
f 4/4/4 5/5/5 7/7/7
f 8/8/8 7/7/7 5/5/5
f 4/4/4 9/9/9 6/6/6
f 10/10/10 6/6/6 9/9/9
f 11/11/11 10/10/10 9/9/9
f 11/11/11 9/9/9 12/12/12
f 13/13/13 12/12/12 9/9/9
f 10/10/10 14/14/14 6/6/6
f 10/10/10 15/15/15 14/14/14
f 16/16/16 6/6/6 14/14/14
f 14/14/14 17/17/17 16/16/16
f 18/18/18 16/16/16 17/17/17
f 19/19/19 6/6/6 16/16/16
f 22/22/22 21/21/21 20/20/20
f 23/23/23 20/20/20 21/21/21
f 20/20/20 23/23/23 24/24/24
f 25/25/25 24/24/24 23/23/23
f 24/24/24 25/25/25 26/26/26
f 27/27/27 26/26/26 25/25/25
f 21/21/21 22/22/22 28/28/28
f 29/29/29 28/28/28 22/22/22
f 32/32/32 31/31/31 30/30/30
f 33/33/33 30/30/30 31/31/31
f 31/31/31 34/34/34 33/33/33
f 35/35/35 33/33/33 34/34/34
f 35/35/35 34/34/34 36/36/36
f 37/37/37 36/36/36 34/34/34
f 36/36/36 37/37/37 38/38/38
f 39/39/39 38/38/38 37/37/37
f 38/38/38 39/39/39 40/40/40
f 41/41/41 40/40/40 39/39/39
f 40/40/40 41/41/41 42/42/42
f 43/43/43 42/42/42 41/41/41
f 42/42/42 43/43/43 44/44/44
f 45/45/45 44/44/44 43/43/43
f 48/48/48 47/47/47 46/46/46
f 49/49/49 46/46/46 47/47/47
f 46/46/46 49/49/49 50/50/50
f 51/51/51 50/50/50 49/49/49
f 50/50/50 51/51/51 52/52/52
f 53/53/53 52/52/52 51/51/51
f 52/52/52 53/53/53 54/54/54
f 55/55/55 54/54/54 53/53/53
f 54/54/54 55/55/55 56/56/56
f 57/57/57 56/56/56 55/55/55
f 56/56/56 57/57/57 58/58/58
f 59/59/59 58/58/58 57/57/57
f 58/58/58 59/59/59 60/60/60
f 61/61/61 60/60/60 59/59/59
f 47/47/47 48/48/48 62/62/62
f 63/63/63 62/62/62 48/48/48
f 62/62/62 63/63/63 64/64/64
f 65/65/65 64/64/64 63/63/63
f 68/68/68 67/67/67 66/66/66
f 67/67/67 69/69/69 66/66/66
f 70/70/70 69/69/69 67/67/67
f 71/71/71 70/70/70 67/67/67
f 69/69/69 72/72/72 66/66/66
f 73/73/73 72/72/72 69/69/69
f 74/74/74 73/73/73 69/69/69
f 75/75/75 72/72/72 73/73/73
f 76/76/76 67/67/67 68/68/68
f 67/67/67 76/76/76 77/77/77
f 78/78/78 77/77/77 76/76/76
f 71/71/71 79/79/79 70/70/70
f 80/80/80 70/70/70 79/79/79
f 80/80/80 79/79/79 81/81/81
f 82/82/82 81/81/81 79/79/79
f 82/82/82 83/83/83 81/81/81
f 84/84/84 81/81/81 83/83/83
f 83/83/83 77/77/77 84/84/84
f 85/85/85 84/84/84 77/77/77
f 77/77/77 78/78/78 86/86/86
f 85/85/85 77/77/77 86/86/86
f 87/87/87 86/86/86 78/78/78
f 73/73/73 74/74/74 88/88/88
f 89/89/89 88/88/88 74/74/74
f 90/90/90 89/89/89 74/74/74
f 91/91/91 87/87/87 78/78/78
f 87/87/87 91/91/91 92/92/92
f 93/93/93 92/92/92 91/91/91
f 94/94/94 93/93/93 91/91/91
f 97/97/97 96/96/96 95/95/95
f 98/98/98 95/95/95 96/96/96
f 95/95/95 98/98/98 99/99/99
f 100/100/100 99/99/99 98/98/98
f 99/99/99 100/100/100 101/101/101
f 102/102/102 101/101/101 100/100/100
f 101/101/101 102/102/102 103/103/103
f 104/104/104 103/103/103 102/102/102
f 103/103/103 104/104/104 105/105/105
f 106/106/106 105/105/105 104/104/104
f 96/96/96 97/97/97 107/107/107
f 108/108/108 107/107/107 97/97/97
f 111/111/111 110/110/110 109/109/109
f 112/112/112 109/109/109 110/110/110
f 115/115/115 114/114/114 113/113/113
f 116/116/116 113/113/113 114/114/114
f 119/119/119 118/118/118 117/117/117
f 118/118/118 120/120/120 117/117/117
f 121/121/121 117/117/117 120/120/120
f 120/120/120 118/118/118 122/122/122
f 123/123/123 122/122/122 118/118/118
f 120/120/120 124/124/124 121/121/121
f 121/121/121 124/124/124 125/125/125
f 126/126/126 125/125/125 124/124/124
f 119/119/119 117/117/117 127/127/127
f 128/128/128 127/127/127 117/117/117
f 131/131/131 130/130/130 129/129/129
f 132/132/132 129/129/129 130/130/130
f 129/129/129 132/132/132 133/133/133
f 134/134/134 133/133/133 132/132/132
f 137/137/137 136/136/136 135/135/135
f 138/138/138 135/135/135 136/136/136
f 141/141/141 140/140/140 139/139/139
f 144/144/144 143/143/143 142/142/142
f 143/143/143 145/145/145 142/142/142
f 146/146/146 145/145/145 143/143/143
f 147/147/147 146/146/146 143/143/143
f 148/148/148 147/147/147 143/143/143
f 149/149/149 146/146/146 147/147/147
f 145/145/145 150/150/150 142/142/142
f 150/150/150 151/151/151 142/142/142
f 149/149/149 152/152/152 146/146/146
f 149/149/149 153/153/153 152/152/152
f 154/154/154 152/152/152 153/153/153
f 147/147/147 148/148/148 155/155/155
f 156/156/156 155/155/155 148/148/148
f 156/156/156 157/157/157 155/155/155
f 158/158/158 155/155/155 157/157/157
f 158/158/158 157/157/157 159/159/159
f 160/160/160 159/159/159 157/157/157
f 159/159/159 160/160/160 153/153/153
f 161/161/161 153/153/153 160/160/160
f 153/153/153 162/162/162 154/154/154
f 153/153/153 161/161/161 162/162/162
f 163/163/163 154/154/154 162/162/162
f 163/163/163 164/164/164 154/154/154
f 163/163/163 165/165/165 164/164/164
f 166/166/166 164/164/164 165/165/165
f 166/166/166 167/167/167 164/164/164
f 170/170/170 169/169/169 168/168/168
f 171/171/171 168/168/168 169/169/169
f 168/168/168 172/172/172 170/170/170
f 173/173/173 170/170/170 172/172/172
f 172/172/172 174/174/174 173/173/173
f 175/175/175 173/173/173 174/174/174
f 174/174/174 176/176/176 175/175/175
f 177/177/177 175/175/175 176/176/176
f 176/176/176 178/178/178 177/177/177
f 179/179/179 177/177/177 178/178/178
f 169/169/169 180/180/180 171/171/171
f 181/181/181 171/171/171 180/180/180
f 184/184/184 183/183/183 182/182/182
f 185/185/185 182/182/182 183/183/183
f 187/187/187 144/144/144 186/186/186
f 142/142/142 186/186/186 144/144/144
f 187/187/187 188/188/188 144/144/144
f 191/191/191 190/190/190 189/189/189
f 192/192/192 189/189/189 190/190/190
f 189/189/189 193/193/193 191/191/191
f 194/194/194 191/191/191 193/193/193
