g sight_rear_ak_izhmash_ak74m_std_LOD1
v 0.01068786 0.05325112 0.003930117
v 0.01068786 0.05219901 -0.003384893
v 0.01068786 0.04877519 0.001769197
v 0.01068786 0.04850284 -0.003186124
v -0.01087414 0.05325112 0.003930117
v -0.01087414 0.04877519 0.001769197
v -0.01087414 0.05219901 -0.003384893
v -0.01087414 0.04850284 -0.003186124
v 0.01068786 0.05219901 -0.003384893
v 0.01068786 0.05325112 0.003930117
v -0.01087414 0.05219901 -0.003384893
v -0.01087414 0.05325112 0.003930117
v -0.01087414 0.05325112 0.003930117
v 0.01068786 0.05325112 0.003930117
v -0.01087414 0.04877519 0.001769197
v 0.01068786 0.04877519 0.001769197
v 0.01585175 0.04791001 0.002345469
v 0.01585175 0.04743509 -0.006295183
v 0.01585175 0.03950634 0.002656324
v 0.01585175 0.03903154 -0.005984332
v -0.01463274 0.04791001 0.002345469
v -0.01463274 0.04743509 -0.006295183
v 0.01585175 0.04791001 0.002345469
v 0.01585175 0.04743509 -0.006295183
v -0.01463274 0.04743509 -0.006295183
v -0.01463274 0.03903154 -0.005984332
v 0.01585175 0.04743509 -0.006295183
v 0.01585175 0.03903154 -0.005984332
v -0.01463274 0.03903154 -0.005984332
v -0.01463274 0.03950634 0.002656324
v 0.01585175 0.03903154 -0.005984332
v 0.01585175 0.03950634 0.002656324
v -0.01463274 0.03950634 0.002656324
v -0.01463274 0.04791001 0.002345469
v 0.01585175 0.03950634 0.002656324
v 0.01585175 0.04791001 0.002345469
v -0.01463274 0.04791001 0.002345469
v -0.01463274 0.03950634 0.002656324
v -0.01463274 0.04743509 -0.006295183
v -0.01463274 0.03903154 -0.005984332
v 0.01068786 0.04850284 -0.003186124
v 0.01068786 0.05219901 -0.003384893
v 0.005914855 0.04850284 -0.003186124
v -0.006101144 0.04850284 -0.003186124
v -0.01087414 0.05219901 -0.003384893
v -0.01087414 0.04850284 -0.003186124
v -0.005066485 -0.004975438 0.001285255
v 0.004880205 -0.004975438 0.001285255
v -0.01087414 0.04877519 0.001769197
v -0.006101144 0.04870182 0.000489032
v -0.01087414 0.04850284 -0.003186124
v -0.006101144 0.04850284 -0.003186124
v 0.005914855 0.04870182 0.000489032
v 0.01068786 0.04877519 0.001769197
v 0.01068786 0.04850284 -0.003186124
v 0.005914855 0.04850284 -0.003186124
v 0.005914855 0.04870182 0.000489032
v 0.004880205 -0.004975438 0.001285255
v -0.006101144 0.04870182 0.000489032
v -0.005066485 -0.004975438 0.001285255
v 0.005914855 0.04870182 0.000489032
v 0.005914855 0.04850284 -0.003186124
v 0.004880205 -0.004975438 0.001285255
v -0.006101144 0.04870182 0.000489032
v -0.005066485 -0.004975438 0.001285255
v -0.006101144 0.04850284 -0.003186124
vt 0.901917 0.681594
vt 0.901917 0.753519
vt 0.95 0.681594
vt 0.95 0.753519
vt 0.637529 0.356936
vt 0.685612 0.356936
vt 0.637529 0.285012
vt 0.685612 0.285012
vt 0.894131 0.152637
vt 0.894131 0.0646882
vt 0.637529 0.152637
vt 0.637529 0.0646882
vt 0.894131 0.182194
vt 0.637529 0.182194
vt 0.894131 0.241344
vt 0.637529 0.241344
vt 0.928537 0.534878
vt 0.928537 0.431894
vt 0.828476 0.534878
vt 0.828476 0.431894
vt 0.490647 0.427475
vt 0.593631 0.427475
vt 0.490647 0.0646882
vt 0.593631 0.0646883
vt 0.590724 0.46127
vt 0.490647 0.46127
vt 0.590724 0.824057
vt 0.490647 0.824057
vt 0.412787 0.843331
vt 0.412787 0.740347
vt 0.05 0.843331
vt 0.05 0.740347
vt 0.722918 0.46127
vt 0.622841 0.46127
vt 0.722918 0.824057
vt 0.622841 0.824057
vt 0.828476 0.387996
vt 0.928537 0.387996
vt 0.828476 0.285012
vt 0.928537 0.285012
vt 0.05 0.663424
vt 0.05 0.705754
vt 0.104583 0.663424
vt 0.241994 0.663424
vt 0.296576 0.705754
vt 0.296576 0.663424
vt 0.241994 0.05
vt 0.104583 0.0500003
vt 0.828476 0.578776
vt 0.843736 0.635579
vt 0.887537 0.578776
vt 0.887537 0.635578
vt 0.843736 0.778578
vt 0.828476 0.83538
vt 0.887534 0.835381
vt 0.887536 0.77858
vt 0.329076 0.0646883
vt 0.329076 0.703094
vt 0.459762 0.0646882
vt 0.459762 0.703094
vt 0.688509 0.928215
vt 0.688484 0.887229
vt 0.0500107 0.928215
vt 0.755035 0.285012
vt 0.755035 0.923511
vt 0.796021 0.285036
vn 1 0 0
vn 1 0 0
vn 1 0 0
vn 1 0 0
vn -1 0 0
vn -1 0 0
vn -1 0 0
vn -1 0 0
vn 0 0.9898144 -0.1423636
vn 0 0.9898144 -0.1423636
vn 0 0.9898144 -0.1423636
vn 0 0.9898144 -0.1423636
vn 0 -0.4347696 0.9005417
vn 0 -0.4347696 0.9005417
vn 0 -0.4347696 0.9005417
vn 0 -0.4347696 0.9005417
vn 1 0 0
vn 1 0 0
vn 1 0 0
vn 1 0 0
vn 0 0.998493 -0.05488065
vn 0 0.998493 -0.05488065
vn 0 0.998493 -0.05488065
vn 0 0.998493 -0.05488065
vn 0 -0.03696506 -0.9993166
vn 0 -0.03696506 -0.9993166
vn 0 -0.03696506 -0.9993166
vn 0 -0.03696506 -0.9993166
vn 0 -0.9984937 0.05486744
vn 0 -0.9984937 0.05486744
vn 0 -0.9984937 0.05486744
vn 0 -0.9984937 0.05486744
vn 0 0.03696512 0.9993166
vn 0 0.03696512 0.9993166
vn 0 0.03696512 0.9993166
vn 0 0.03696512 0.9993166
vn -1 0 0
vn -1 0 0
vn -1 0 0
vn -1 0 0
vn 0 -0.05369952 -0.9985572
vn 0 -0.05369952 -0.9985572
vn 0 -0.06349821 -0.9979819
vn 0 -0.06349821 -0.9979819
vn 0 -0.05369951 -0.9985572
vn 0 -0.05369952 -0.9985572
vn 0 -0.08332039 -0.9965229
vn 0 -0.08332039 -0.9965229
vn -0.0005239119 -0.9984713 0.05526896
vn -0.0001227122 -0.9984224 0.05614872
vn -0.0003659684 -0.9985116 0.05453776
vn 0 -0.9985374 0.05406386
vn 0.0001227122 -0.9984224 0.05614872
vn 0.0005239121 -0.9984713 0.05526896
vn 0.0003659683 -0.9985116 0.05453776
vn 0 -0.9985374 0.05406387
vn 0 0.01483189 0.99989
vn 0 0.01483189 0.99989
vn 0 0.01483189 0.99989
vn 0 0.01483189 0.99989
vn 0.9998141 -0.01925634 0.001042597
vn 0.9998141 -0.01925634 0.001042597
vn 0.9998141 -0.01925634 0.001042597
vn -0.9998141 -0.01925652 0.001042607
vn -0.9998141 -0.01925652 0.001042607
vn -0.9998141 -0.01925652 0.001042607
g sight_rear_ak_izhmash_ak74m_std_LOD1_0
f 3/3/3 2/2/2 1/1/1
f 2/2/2 3/3/3 4/4/4
f 7/7/7 6/6/6 5/5/5
f 6/6/6 7/7/7 8/8/8
f 11/11/11 10/10/10 9/9/9
f 10/10/10 11/11/11 12/12/12
f 15/15/15 14/14/14 13/13/13
f 14/14/14 15/15/15 16/16/16
f 19/19/19 18/18/18 17/17/17
f 18/18/18 19/19/19 20/20/20
f 23/23/23 22/22/22 21/21/21
f 22/22/22 23/23/23 24/24/24
f 27/27/27 26/26/26 25/25/25
f 26/26/26 27/27/27 28/28/28
f 31/31/31 30/30/30 29/29/29
f 30/30/30 31/31/31 32/32/32
f 35/35/35 34/34/34 33/33/33
f 34/34/34 35/35/35 36/36/36
f 39/39/39 38/38/38 37/37/37
f 38/38/38 39/39/39 40/40/40
f 43/43/43 42/42/42 41/41/41
f 44/44/44 42/42/42 43/43/43
f 42/42/42 44/44/44 45/45/45
f 46/46/46 45/45/45 44/44/44
f 43/43/43 47/47/47 44/44/44
f 47/47/47 43/43/43 48/48/48
f 51/51/51 50/50/50 49/49/49
f 50/50/50 51/51/51 52/52/52
f 53/53/53 49/49/49 50/50/50
f 49/49/49 53/53/53 54/54/54
f 53/53/53 55/55/55 54/54/54
f 55/55/55 53/53/53 56/56/56
f 59/59/59 58/58/58 57/57/57
f 58/58/58 59/59/59 60/60/60
f 63/63/63 62/62/62 61/61/61
f 66/66/66 65/65/65 64/64/64
