g sight_rear_all_magpul_mbus_gen2_base_LOD1
v -0.01299314 -0.00286423 -0.006349483
v -0.01299316 -0.005547099 0.0001487374
v 2.461138E-05 -0.002864227 -0.006349483
v 0.01304239 -0.005547094 0.0001487374
v 0.01304237 -0.002864225 -0.006349483
v -0.01299316 -0.003822746 0.009821436
v 0.01304238 -0.003822741 0.009821436
v 0.01461514 0.01203325 0.01188034
v -0.01456593 0.01203324 0.01188034
v -0.01456593 0.02741238 0.01188034
v 0.01461514 0.02741238 0.01188034
v -0.01456593 0.03017781 0.009114913
v 0.01461514 0.03017781 0.009114913
v -0.01299314 -0.00286423 -0.006349483
v -0.01456593 0.01419554 -0.006349483
v -0.01456593 0.01419554 -0.0001445997
v -0.01299316 -0.005547099 0.0001487374
v -0.01299316 -0.003822746 0.009821436
v -0.01456593 0.01203324 0.01188034
v -0.01456593 0.0270089 -0.0001445997
v -0.01456593 0.02741238 0.01188034
v -0.01456593 0.03017781 -0.0001445997
v -0.01456593 0.03017781 0.009114913
v 2.460639E-05 0.03017781 -0.0001445997
v -0.01071305 0.0270089 -0.0001445997
v -0.01071305 0.01419554 -0.0001445997
v 2.46088E-05 0.01419554 -0.0001445997
v -0.01456593 0.03017781 -0.0001445997
v -0.01456593 0.0270089 -0.0001445997
v -0.01071305 0.0270089 -0.004426813
v -0.01456593 0.01637482 -0.004426813
v -0.01071305 0.0188875 -0.004426813
v -0.01812696 0.01637482 -0.004426813
v -0.01812696 0.0270089 -0.004426813
v -0.01812696 0.0270089 -0.002196392
v -0.01812696 0.01523972 -0.002196392
v -0.01812696 0.01637482 -0.004426813
v -0.01812696 0.0270089 -0.004426813
v -0.01071305 0.01419554 -0.0001445997
v -0.01071305 0.0270089 -0.0001445997
v -0.01071305 0.0270089 -0.004426813
v -0.01071305 0.0188875 -0.004426813
v -0.01071305 0.01419554 -0.0001445997
v -0.01071305 0.0188875 -0.004426813
v -0.01456593 0.01637482 -0.004426813
v -0.01456593 0.01419554 -0.0001445997
v -0.01812696 0.01523972 -0.002196392
v -0.01812696 0.01637482 -0.004426813
v -0.01456593 0.01419554 -0.0001445997
v -0.01812696 0.01523972 -0.002196392
v -0.01812696 0.0270089 -0.002196392
v -0.01456593 0.0270089 -0.0001445997
v -0.01456593 0.0270089 -0.0001445997
v -0.01812696 0.0270089 -0.002196392
v -0.01812696 0.0270089 -0.004426813
v -0.01071305 0.0270089 -0.004426813
v -0.01071305 0.0270089 -0.0001445997
v -0.01299314 -0.00286423 -0.006349483
v 2.461138E-05 -0.002864227 -0.006349483
v 2.46088E-05 0.01419554 -0.006349483
v -0.01456593 0.01419554 -0.006349483
v 2.46088E-05 0.01419554 -0.006349483
v 2.46088E-05 0.01419554 -0.0001445997
v -0.01071305 0.01419554 -0.0001445997
v -0.01456593 0.01419554 -0.006349483
v -0.01456593 0.01419554 -0.0001445997
v 0.01461514 0.01419554 -0.0001445997
v 0.01461514 0.01419554 -0.006349483
v 0.01304237 -0.002864225 -0.006349483
v 0.01304239 -0.005547094 0.0001487374
v 0.01304238 -0.003822741 0.009821436
v 0.01461514 0.01203325 0.01188034
v 0.01461514 0.02700891 -0.0001445997
v 0.01461514 0.02741238 0.01188034
v 0.01461514 0.03017781 -0.0001445997
v 0.01461514 0.03017781 0.009114913
v 0.01461514 0.03017781 -0.0001445997
v 0.01461514 0.03017781 0.009114913
v 2.460639E-05 0.03017781 -0.0001445997
v -0.01456593 0.03017781 0.009114913
v -0.01456593 0.03017781 -0.0001445997
v 0.01076227 0.01419554 -0.0001445997
v 0.01076227 0.02700891 -0.0001445997
v 2.460639E-05 0.03017781 -0.0001445997
v 2.46088E-05 0.01419554 -0.0001445997
v 0.01461514 0.03017781 -0.0001445997
v 0.01461514 0.02700891 -0.0001445997
v 0.01076227 0.02700891 -0.004426813
v 0.01076227 0.0188875 -0.004426813
v 0.01461514 0.01637482 -0.004426813
v 0.01817618 0.01637483 -0.004426813
v 0.01817618 0.02700891 -0.004426813
v 0.01817618 0.02700891 -0.002196392
v 0.01817618 0.02700891 -0.004426813
v 0.01817618 0.01637483 -0.004426813
v 0.01817618 0.01523973 -0.002196392
v 0.01076227 0.02700891 -0.004426813
v 0.01076227 0.02700891 -0.0001445997
v 0.01076227 0.01419554 -0.0001445997
v 0.01076227 0.0188875 -0.004426813
v 0.01076227 0.01419554 -0.0001445997
v 0.01461514 0.01637482 -0.004426813
v 0.01076227 0.0188875 -0.004426813
v 0.01461514 0.01419554 -0.0001445997
v 0.01817618 0.01523973 -0.002196392
v 0.01817618 0.01637483 -0.004426813
v 0.01461514 0.01419554 -0.0001445997
v 0.01461514 0.02700891 -0.0001445997
v 0.01817618 0.02700891 -0.002196392
v 0.01817618 0.01523973 -0.002196392
v 0.01461514 0.02700891 -0.0001445997
v 0.01076227 0.02700891 -0.004426813
v 0.01817618 0.02700891 -0.004426813
v 0.01817618 0.02700891 -0.002196392
v 0.01076227 0.02700891 -0.0001445997
v 2.46088E-05 0.01419554 -0.006349483
v 2.461138E-05 -0.002864227 -0.006349483
v 0.01304237 -0.002864225 -0.006349483
v 0.01461514 0.01419554 -0.006349483
v 0.01076227 0.01419554 -0.0001445997
v 0.01461514 0.01419554 -0.006349483
v 0.01461514 0.01419554 -0.0001445997
v 2.46088E-05 0.01419554 -0.006349483
v 2.46088E-05 0.01419554 -0.0001445997
v -0.01332203 0.005658248 -0.005719637
v -0.01666515 0.005658248 -0.005719637
v -0.01666515 0.001926606 -0.004173941
v -0.01332203 0.001926606 -0.004173941
v -0.01666515 0.0003809094 -0.0004422987
v -0.01332203 0.0003809094 -0.0004422987
v -0.01666515 0.001926606 0.003289341
v -0.01332203 0.001926606 0.003289342
v -0.01666515 0.005658248 0.004835038
v -0.01332203 0.005658248 0.004835038
v -0.01332203 0.005658248 0.004835038
v -0.01666515 0.005658248 0.004835038
v -0.01666515 0.009389888 0.003289341
v -0.01332203 0.009389888 0.003289341
v -0.01666515 0.01093558 -0.0004422992
v -0.01332203 0.01093558 -0.0004422987
v -0.01666515 0.009389888 -0.004173941
v -0.01332203 0.009389888 -0.004173939
v -0.01666515 0.005658248 -0.005719637
v -0.01332203 0.005658248 -0.005719637
v -0.01666515 0.009389888 0.003289341
v -0.01666515 0.005658248 0.004835038
v -0.01666515 0.005658248 -0.005719637
v -0.01666515 0.009389888 -0.004173941
v -0.01666515 0.01093558 -0.0004422992
v -0.01666515 0.001926606 0.003289341
v -0.01666515 0.0003809094 -0.0004422987
v -0.01666515 0.001926606 -0.004173941
v -0.01666515 0.005658248 0.004835038
v -0.01666515 0.005658248 -0.005719637
vt 0.4256363 0.5926617
vt 0.4256368 0.5289273
vt 0.2997296 0.5926617
vt 0.1738228 0.5289271
vt 0.1738228 0.5926616
vt 0.4256368 0.4340575
vt 0.1738228 0.4340575
vt 0.1586109 0.2785419
vt 0.4408482 0.2785419
vt 0.4408482 0.1277031
vt 0.1586109 0.1277031
vt 0.4408482 0.10058
vt 0.1586109 0.10058
vt 0.475231 0.2050049
vt 0.6402321 0.2050049
vt 0.6402321 0.2658625
vt 0.4492823 0.2687394
vt 0.4659602 0.3636092
vt 0.6193182 0.3838032
vt 0.7641621 0.2658625
vt 0.7680645 0.383803
vt 0.7948114 0.2658625
vt 0.7948114 0.3566797
vt 0.009249464 0.009300078
vt 0.1130549 0.04038066
vt 0.1130549 0.1660542
vt 0.009249464 0.1660547
vt 0.1502709 0.009300078
vt 0.1502709 0.04038066
vt 0.482284 0.5283697
vt 0.5828446 0.4923722
vt 0.5561981 0.5283697
vt 0.5828446 0.4593396
vt 0.482284 0.4593396
vt 0.482284 0.4355692
vt 0.5938228 0.4355692
vt 0.5828446 0.4593396
vt 0.482284 0.4593396
vt 0.6032921 0.5759168
vt 0.482284 0.5759168
vt 0.482284 0.5283697
vt 0.5561981 0.5283697
vt 0.6140925 0.5283697
vt 0.5561981 0.5283697
vt 0.5828446 0.4923722
vt 0.6242622 0.4923722
vt 0.6044174 0.4593396
vt 0.5828446 0.4593396
vt 0.6039222 0.4006426
vt 0.5938228 0.4355692
vt 0.482284 0.4355692
vt 0.482284 0.4006426
vt 0.4359527 0.4993883
vt 0.4562232 0.4593396
vt 0.482284 0.4593396
vt 0.482284 0.5283697
vt 0.4359527 0.5283697
vt 0.1351074 0.3942342
vt 0.009249406 0.3942342
vt 0.009249406 0.2269123
vt 0.1503192 0.2269118
vt 0.009249406 0.2269123
vt 0.009249464 0.1660547
vt 0.1130549 0.1660547
vt 0.1503192 0.2269122
vt 0.1502708 0.1660547
vt 0.6385111 0.07490651
vt 0.6385111 0.01404898
vt 0.4735104 0.01404898
vt 0.4475618 0.07778347
vt 0.4642397 0.1726533
vt 0.6175977 0.1928471
vt 0.7624416 0.07490651
vt 0.7663439 0.1928469
vt 0.7930908 0.07490651
vt 0.7930908 0.1657238
vt 0.1586109 0.009762729
vt 0.1586109 0.10058
vt 0.29973 0.009762729
vt 0.4408482 0.10058
vt 0.4408482 0.009762729
vt 0.1130549 0.1660547
vt 0.1130549 0.04038066
vt 0.009249464 0.009300078
vt 0.009249464 0.1660547
vt 0.1503685 0.009300078
vt 0.1503685 0.04038066
vt 0.482284 0.5283697
vt 0.5561981 0.5283697
vt 0.5828446 0.4923722
vt 0.5828446 0.4593396
vt 0.482284 0.4593396
vt 0.482284 0.4355692
vt 0.482284 0.4593396
vt 0.5828446 0.4593396
vt 0.5938228 0.4355692
vt 0.482284 0.5283697
vt 0.482284 0.5759168
vt 0.6032921 0.5759168
vt 0.5561981 0.5283697
vt 0.6140925 0.5283697
vt 0.5828446 0.4923722
vt 0.5561981 0.5283697
vt 0.6242622 0.4923722
vt 0.6044174 0.4593396
vt 0.5828446 0.4593396
vt 0.6039222 0.4006426
vt 0.482284 0.4006426
vt 0.482284 0.4355692
vt 0.5938228 0.4355692
vt 0.4359527 0.4993883
vt 0.482284 0.5283697
vt 0.482284 0.4593396
vt 0.4562232 0.4593396
vt 0.4359527 0.5283697
vt 0.009249406 0.2269123
vt 0.009249406 0.3942342
vt 0.1351074 0.3942342
vt 0.1503192 0.2269123
vt 0.1130549 0.1660547
vt 0.1503192 0.2269123
vt 0.1503681 0.1660547
vt 0.009249406 0.2269123
vt 0.009249464 0.1660547
vt 0.1221431 0.5899702
vt 0.16014 0.5899702
vt 0.16014 0.547184
vt 0.1221431 0.547184
vt 0.16014 0.5041743
vt 0.1221431 0.5041743
vt 0.16014 0.4611648
vt 0.1221431 0.4611648
vt 0.16014 0.4181552
vt 0.1221431 0.4181552
vt 0.1221431 0.4181552
vt 0.16014 0.4181552
vt 0.16014 0.4611648
vt 0.1221431 0.4611648
vt 0.16014 0.5041743
vt 0.1221431 0.5041743
vt 0.16014 0.547184
vt 0.1221431 0.547184
vt 0.16014 0.5899702
vt 0.1221431 0.5899702
vt 0.07429305 0.5654072
vt 0.01236318 0.5912868
vt 0.01236318 0.4145698
vt 0.07429305 0.4404493
vt 0.09981345 0.5029282
vt 0.07429305 0.5654072
vt 0.09981345 0.5029282
vt 0.07429305 0.4404493
vt 0.01236318 0.5912868
vt 0.01236318 0.4145698
vn 1.692881E-07 -0.9243205 -0.381617
vn 1.822338E-07 -0.9942206 -0.1073566
vn 1.69288E-07 -0.9243205 -0.381617
vn 1.822338E-07 -0.9942206 -0.1073567
vn 1.692882E-07 -0.9243205 -0.381617
vn 1.236314E-07 -0.673969 0.7387595
vn 1.236314E-07 -0.673969 0.7387595
vn 0 -0.06244034 0.9980488
vn 0 -0.06244034 0.9980488
vn 0 0.3826834 0.9238795
vn 0 0.3826833 0.9238796
vn 0 0.7071066 0.7071069
vn 0 0.7071066 0.7071069
vn -0.9961934 -0.08528944 -0.01801435
vn -0.9961934 -0.08528944 -0.01801435
vn -0.9984939 -0.05446552 -0.006585707
vn -0.9961894 -0.08673805 -0.009125469
vn -0.996125 -0.08793062 -0.001774506
vn -0.9988795 -0.04731645 -0.0009548592
vn -1 -1.905774E-07 0
vn -1 -2.173484E-07 0
vn -1 -2.173484E-07 0
vn -1 -2.173484E-07 0
vn 0 0 -1
vn 0 0 -1
vn 0 0 -1
vn 0 0 -1
vn 0 0 -1
vn 0 0 -1
vn 0 0 -1
vn 0 0 -1
vn 0 0 -1
vn 0 0 -1
vn 0 0 -1
vn -1 -1.064213E-07 0
vn -1 -1.064213E-07 0
vn -1 -1.064213E-07 0
vn -1 -1.064213E-07 0
vn 1 0 1.703871E-07
vn 1 0 1.703871E-07
vn 1 0 1.703871E-07
vn 1 0 1.703871E-07
vn 0.1907231 -0.7948194 -0.5760962
vn 0.4024558 -0.6171153 -0.6761643
vn 0.1475855 -0.821458 -0.5508405
vn 2.492822E-07 -0.8912265 -0.4535586
vn 2.075788E-07 -0.8912265 -0.4535584
vn 2.075788E-07 -0.8912265 -0.4535585
vn -0.4992383 0 0.8664647
vn -0.4992382 0 0.8664648
vn -0.4992383 0 0.8664647
vn -0.4992382 0 0.8664648
vn 0 1 0
vn 0 1 0
vn 0 1 0
vn 0 1 0
vn 0 1 0
vn 0 0 -1
vn 0 0 -1
vn 0 0 -1
vn 0 0 -1
vn -1.411975E-07 1 0
vn -1.411975E-07 1 0
vn -1.955488E-07 1 0
vn -2.007012E-07 1 0
vn -3.094036E-07 1 0
vn 0.9984939 -0.05446525 -0.006585838
vn 0.9961934 -0.08528911 -0.01801447
vn 0.9961934 -0.08528912 -0.01801448
vn 0.9961894 -0.08673771 -0.009125577
vn 0.996125 -0.08793029 -0.001774606
vn 0.9988795 -0.04731614 -0.0009549549
vn 1 1.905774E-07 0
vn 1 2.173484E-07 0
vn 1 2.173484E-07 0
vn 1 2.173484E-07 0
vn 0 1 -2.57485E-07
vn 0 1 -1.647898E-07
vn -1.634063E-07 1 0
vn -2.67986E-07 1 -1.647898E-07
vn -3.268127E-07 1 -2.57485E-07
vn 0 0 -1
vn 0 0 -1
vn 0 0 -1
vn 0 0 -1
vn 0 0 -1
vn 0 0 -1
vn 0 0 -1
vn 0 0 -1
vn 0 0 -1
vn 0 0 -1
vn 0 0 -1
vn 1 1.064214E-07 0
vn 1 1.064214E-07 0
vn 1 1.064214E-07 0
vn 1 1.064214E-07 0
vn -1 -1.708295E-07 0
vn -1 -1.708295E-07 0
vn -1 -1.708296E-07 0
vn -1 -1.708296E-07 0
vn -0.1907227 -0.7948194 -0.5760964
vn -0.1475852 -0.821458 -0.5508407
vn -0.4024556 -0.6171153 -0.6761644
vn 1.666069E-07 -0.8912264 -0.4535587
vn 0 -0.8912264 -0.4535588
vn 0 -0.8912264 -0.4535588
vn 0.4992382 0 0.8664648
vn 0.4992383 0 0.8664647
vn 0.4992383 0 0.8664647
vn 0.4992382 0 0.8664648
vn 0 1 0
vn 0 1 0
vn 0 1 0
vn 0 1 0
vn 0 1 0
vn 0 0 -1
vn 0 0 -1
vn 0 0 -1
vn 0 0 -1
vn -1.955488E-07 1 0
vn -2.007012E-07 1 0
vn -3.094036E-07 1 0
vn -1.411975E-07 1 0
vn -1.411975E-07 1 0
vn 1.791675E-07 2.053595E-07 -1
vn 1.791675E-07 2.669675E-07 -1
vn 1.269103E-07 -0.7071066 -0.7071068
vn 1.269103E-07 -0.7071068 -0.7071066
vn 0 -1 1.437517E-07
vn 0 -1 0
vn -1.269103E-07 -0.7071068 0.7071068
vn -1.269103E-07 -0.7071068 0.7071068
vn -1.343756E-07 1.232157E-07 1
vn -1.343756E-07 0 1
vn -1.343756E-07 0 1
vn -1.343756E-07 1.232157E-07 1
vn 0 0.7071068 0.7071066
vn 0 0.7071068 0.7071068
vn 0 1 0
vn 0 1 0
vn 1.455736E-07 0.7071068 -0.7071066
vn 1.455736E-07 0.7071068 -0.7071066
vn 1.791675E-07 2.669675E-07 -1
vn 1.791675E-07 2.053595E-07 -1
vn -1 0 0
vn -1 -1.363361E-07 0
vn -1 -1.363361E-07 0
vn -1 0 0
vn -1 0 0
vn -1 -3.525361E-07 0
vn -1 -3.525361E-07 0
vn -1 -3.525361E-07 0
vn -1 -1.363361E-07 0
vn -1 -1.363361E-07 0
g sight_rear_all_magpul_mbus_gen2_base_LOD1_0
f 3/3/3 2/2/2 1/1/1
f 2/2/2 3/3/3 4/4/4
f 4/4/4 3/3/3 5/5/5
f 2/2/2 4/4/4 6/6/6
f 4/4/4 7/7/7 6/6/6
f 6/6/6 7/7/7 8/8/8
f 9/9/9 6/6/6 8/8/8
f 10/10/10 9/9/9 8/8/8
f 11/11/11 10/10/10 8/8/8
f 10/10/10 11/11/11 12/12/12
f 11/11/11 13/13/13 12/12/12
f 16/16/16 15/15/15 14/14/14
f 17/17/17 16/16/16 14/14/14
f 16/16/16 17/17/17 18/18/18
f 19/19/19 16/16/16 18/18/18
f 19/19/19 20/20/20 16/16/16
f 20/20/20 19/19/19 21/21/21
f 21/21/21 22/22/22 20/20/20
f 21/21/21 23/23/23 22/22/22
f 26/26/26 25/25/25 24/24/24
f 27/27/27 26/26/26 24/24/24
f 28/28/28 24/24/24 25/25/25
f 28/28/28 25/25/25 29/29/29
f 32/32/32 31/31/31 30/30/30
f 31/31/31 33/33/33 30/30/30
f 33/33/33 34/34/34 30/30/30
f 37/37/37 36/36/36 35/35/35
f 38/38/38 37/37/37 35/35/35
f 41/41/41 40/40/40 39/39/39
f 42/42/42 41/41/41 39/39/39
f 45/45/45 44/44/44 43/43/43
f 46/46/46 45/45/45 43/43/43
f 46/46/46 47/47/47 45/45/45
f 47/47/47 48/48/48 45/45/45
f 51/51/51 50/50/50 49/49/49
f 52/52/52 51/51/51 49/49/49
f 55/55/55 54/54/54 53/53/53
f 56/56/56 55/55/55 53/53/53
f 53/53/53 57/57/57 56/56/56
f 60/60/60 59/59/59 58/58/58
f 61/61/61 60/60/60 58/58/58
f 64/64/64 63/63/63 62/62/62
f 65/65/65 64/64/64 62/62/62
f 66/66/66 64/64/64 65/65/65
f 69/69/69 68/68/68 67/67/67
f 70/70/70 69/69/69 67/67/67
f 71/71/71 70/70/70 67/67/67
f 72/72/72 71/71/71 67/67/67
f 73/73/73 72/72/72 67/67/67
f 74/74/74 72/72/72 73/73/73
f 73/73/73 75/75/75 74/74/74
f 75/75/75 76/76/76 74/74/74
f 79/79/79 78/78/78 77/77/77
f 80/80/80 78/78/78 79/79/79
f 81/81/81 80/80/80 79/79/79
f 84/84/84 83/83/83 82/82/82
f 85/85/85 84/84/84 82/82/82
f 84/84/84 86/86/86 83/83/83
f 83/83/83 86/86/86 87/87/87
f 90/90/90 89/89/89 88/88/88
f 91/91/91 90/90/90 88/88/88
f 92/92/92 91/91/91 88/88/88
f 95/95/95 94/94/94 93/93/93
f 96/96/96 95/95/95 93/93/93
f 99/99/99 98/98/98 97/97/97
f 100/100/100 99/99/99 97/97/97
f 103/103/103 102/102/102 101/101/101
f 102/102/102 104/104/104 101/101/101
f 105/105/105 104/104/104 102/102/102
f 106/106/106 105/105/105 102/102/102
f 109/109/109 108/108/108 107/107/107
f 110/110/110 109/109/109 107/107/107
f 113/113/113 112/112/112 111/111/111
f 114/114/114 113/113/113 111/111/111
f 115/115/115 111/111/111 112/112/112
f 118/118/118 117/117/117 116/116/116
f 119/119/119 118/118/118 116/116/116
f 122/122/122 121/121/121 120/120/120
f 120/120/120 121/121/121 123/123/123
f 124/124/124 120/120/120 123/123/123
f 127/127/127 126/126/126 125/125/125
f 128/128/128 127/127/127 125/125/125
f 129/129/129 127/127/127 128/128/128
f 130/130/130 129/129/129 128/128/128
f 131/131/131 129/129/129 130/130/130
f 132/132/132 131/131/131 130/130/130
f 133/133/133 131/131/131 132/132/132
f 134/134/134 133/133/133 132/132/132
f 137/137/137 136/136/136 135/135/135
f 138/138/138 137/137/137 135/135/135
f 139/139/139 137/137/137 138/138/138
f 140/140/140 139/139/139 138/138/138
f 141/141/141 139/139/139 140/140/140
f 142/142/142 141/141/141 140/140/140
f 143/143/143 141/141/141 142/142/142
f 144/144/144 143/143/143 142/142/142
f 147/147/147 146/146/146 145/145/145
f 145/145/145 148/148/148 147/147/147
f 145/145/145 149/149/149 148/148/148
f 152/152/152 151/151/151 150/150/150
f 150/150/150 153/153/153 152/152/152
f 153/153/153 154/154/154 152/152/152
