g sight_rear_acog_trijicon_acog_backup_rear_sight_LOD1
v 0.01522257 -0.00432641 -0.007170777
v 0.02225057 -0.00432641 -0.007170777
v 0.02225057 0.004571581 -0.007170777
v 0.01522257 0.004571581 -0.007170777
v 0.02225057 -0.00432641 -0.007170777
v 0.01522257 -0.00432641 -0.007170777
v 0.01522257 -0.00432641 -0.001206865
v 0.02225057 -0.00432641 -0.001206868
v 0.01522257 -0.00432641 0.001289225
v 0.02225057 -0.00432641 0.003960223
v 0.01471557 -0.00432641 0.009138227
v 0.01061757 -0.00432641 0.007733226
v 0.002625569 -0.00432641 0.01220422
v 0.00718057 -0.00432641 0.01431622
v -0.00262843 -0.00432641 0.01220422
v -0.007183431 -0.00432641 0.01431622
v -0.01471843 -0.00432641 0.009138227
v -0.01062043 -0.00432641 0.007733226
v -0.01522543 -0.00432641 0.001289225
v -0.02225343 -0.00432641 0.003960223
v -0.00451243 -0.001920414 0.02860922
v 0.004509569 -0.001920414 0.02860922
v -0.00277043 -0.001568413 0.03069622
v 0.002767569 -0.001568413 0.03069622
v -1.430511E-06 -0.001420412 0.03157723
v -0.02225343 -0.00432641 -0.001206868
v -0.01522543 -0.00432641 -0.001206868
v -0.02225343 -0.00432641 -0.007170777
v -0.01522543 -0.00432641 -0.007170777
v 0.02225057 0.004571581 -0.007170777
v 0.02225057 -0.00432641 -0.007170777
v 0.02225057 -0.00432641 -0.001206868
v 0.02225057 0.004571581 -0.001206868
v 0.02225057 0.004571581 0.003960223
v 0.02225057 -0.00432641 0.003960223
v 0.01522257 0.004571581 -0.007170777
v 0.02225057 0.004571581 -0.007170777
v 0.02225057 0.004571581 -0.001206868
v 0.01522257 0.00457159 -0.001206868
v 0.01522257 0.004571581 0.001289225
v 0.02225057 0.004571581 0.003960223
v 0.01061757 0.004571581 0.007733226
v 0.01471557 0.004571581 0.009138227
v 0.00718057 0.004571581 0.01431622
v 0.002625569 0.004571581 0.01220422
v -0.007183431 0.004571581 0.01431622
v -0.00262843 0.004571581 0.01220422
v -0.01062043 0.004571581 0.007733226
v -0.01471843 0.004571581 0.009138227
v -0.02225343 0.004571581 0.003960223
v -0.01522543 0.004571581 0.001289225
v 0.004509569 0.002164583 0.02860922
v -0.00451243 0.002164583 0.02860922
v -0.00277043 0.001813593 0.03069622
v 0.002767569 0.001813593 0.03069622
v -1.430511E-06 0.001665583 0.03157723
v -0.02225343 0.00457159 -0.001206868
v -0.01522543 0.004571581 -0.001206865
v -0.01522543 0.004571581 -0.007170777
v -0.02225343 0.004571581 -0.007170777
v 0.01522257 -0.00432641 -0.007170777
v 0.01522257 0.004571581 -0.007170777
v 0.01522257 0.00457159 -0.001206868
v 0.01522257 -0.00432641 -0.001206865
v 0.01522257 -0.00432641 0.001289225
v 0.01522257 0.004571581 0.001289225
v 0.01061757 -0.00432641 0.007733226
v 0.01061757 0.004571581 0.007733226
v 0.002625569 0.004571581 0.01220422
v 0.002625569 -0.00432641 0.01220422
v -0.00262843 0.004571581 0.01220422
v -0.00262843 -0.00432641 0.01220422
v -0.01062043 -0.00432641 0.007733226
v -0.01062043 0.004571581 0.007733226
v -0.01522543 0.004571581 0.001289225
v -0.01522543 -0.00432641 0.001289225
v -0.01522543 -0.00432641 -0.001206868
v -0.01522543 0.004571581 -0.001206865
v -0.01522543 -0.00432641 -0.007170777
v -0.01522543 0.004571581 -0.007170777
v -0.01522543 -0.00432641 -0.007170777
v -0.01522543 0.004571581 -0.007170777
v -0.02225343 0.004571581 -0.007170777
v -0.02225343 -0.00432641 -0.007170777
v -0.02225343 -0.00432641 -0.001206868
v -0.02225343 -0.00432641 -0.007170777
v -0.02225343 0.004571581 -0.007170777
v -0.02225343 0.00457159 -0.001206868
v -0.02225343 -0.00432641 0.003960223
v -0.02225343 0.004571581 0.003960223
v 0.02225057 0.004571581 -0.001206868
v 0.02225057 -0.00432641 -0.001206868
v 0.01522257 -0.00432641 -0.001206865
v 0.01522257 0.00457159 -0.001206868
v -0.01522543 0.004571581 -0.001206865
v -0.01522543 -0.00432641 -0.001206868
v -0.02225343 -0.00432641 -0.001206868
v -0.02225343 0.00457159 -0.001206868
v 0.02225057 -0.00432641 0.003960223
v 0.01471557 -0.00432641 0.009138227
v 0.01471557 0.004571581 0.009138227
v 0.02225057 0.004571581 0.003960223
v 0.00718057 -0.00432641 0.01431622
v 0.00718057 0.004571581 0.01431622
v 0.00718057 -0.00432641 0.01431622
v 0.004509569 -0.001920414 0.02860922
v 0.004509569 0.002164583 0.02860922
v 0.00718057 0.004571581 0.01431622
v 0.002767569 0.001813593 0.03069622
v 0.002767569 -0.001568413 0.03069622
v -1.430511E-06 0.001665583 0.03157723
v -1.430511E-06 -0.001420412 0.03157723
v -0.00277043 -0.001568413 0.03069622
v -0.00277043 0.001813593 0.03069622
v -0.00451243 -0.001920414 0.02860922
v -0.00451243 0.002164583 0.02860922
v -0.007183431 -0.00432641 0.01431622
v -0.007183431 0.004571581 0.01431622
v -0.02225343 -0.00432641 0.003960223
v -0.02225343 0.004571581 0.003960223
v -0.01471843 0.004571581 0.009138227
v -0.01471843 -0.00432641 0.009138227
v -0.007183431 -0.00432641 0.01431622
v -0.007183431 0.004571581 0.01431622
v 0.01522257 0.00457159 -0.001206868
v 0.01522257 -0.00432641 -0.001206865
v 0.02225057 -0.00432641 -0.001206868
v 0.02225057 0.004571581 -0.001206868
v -0.02225343 0.00457159 -0.001206868
v -0.02225343 -0.00432641 -0.001206868
v -0.01522543 -0.00432641 -0.001206868
v -0.01522543 0.004571581 -0.001206865
vt 0.5766075 0.6964774
vt 0.6103051 0.6964774
vt 0.6103051 0.6538115
vt 0.5766075 0.6538115
vt 0.8784396 0.806267
vt 0.8447408 0.806079
vt 0.8445789 0.8346793
vt 0.8782808 0.8348607
vt 0.8445111 0.8466495
vt 0.8781431 0.8596342
vt 0.8418952 0.8842663
vt 0.8222706 0.8774562
vt 0.7838833 0.8988248
vt 0.8057136 0.9089795
vt 0.7586743 0.8988236
vt 0.7368428 0.9089772
vt 0.7006626 0.8842639
vt 0.720287 0.8774552
vt 0.6980466 0.8466472
vt 0.6644145 0.8596342
vt 0.7496427 0.9784778
vt 0.7929036 0.9784778
vt 0.7579972 0.988628
vt 0.7845512 0.9886236
vt 0.7712761 0.99291
vt 0.6642759 0.8348608
vt 0.6979781 0.834677
vt 0.6641158 0.806267
vt 0.6978145 0.8060766
vt 0.8095046 0.292808
vt 0.8095046 0.335474
vt 0.7809085 0.335474
vt 0.7809085 0.292808
vt 0.756133 0.292808
vt 0.756133 0.335474
vt 0.2914841 0.6055015
vt 0.2577856 0.6056919
vt 0.2579462 0.634285
vt 0.2916477 0.6341019
vt 0.2917162 0.6460721
vt 0.2580853 0.659058
vt 0.3139578 0.6768788
vt 0.2943332 0.6836889
vt 0.3305148 0.708401
vt 0.3523462 0.6982473
vt 0.3993855 0.7084055
vt 0.3775552 0.6982496
vt 0.4159436 0.6768856
vt 0.4355683 0.6836967
vt 0.4718162 0.6590624
vt 0.438183 0.64608
vt 0.3433146 0.7779026
vt 0.3865755 0.7779015
vt 0.3782244 0.7880461
vt 0.3516703 0.7880518
vt 0.364949 0.7923327
vt 0.4719517 0.634289
vt 0.4382497 0.6341098
vt 0.4384093 0.6055093
vt 0.472108 0.6056952
vt 0.7487698 0.3370785
vt 0.7487698 0.2944136
vt 0.7201734 0.2944136
vt 0.7201734 0.3370785
vt 0.7082049 0.3370785
vt 0.7082049 0.2944136
vt 0.6702265 0.3370785
vt 0.6702265 0.2944136
vt 0.6263145 0.2944136
vt 0.6263145 0.3370785
vt 0.6011237 0.2944136
vt 0.6011237 0.3370785
vt 0.5572117 0.3370785
vt 0.5572117 0.2944136
vt 0.5192333 0.2944136
vt 0.5192333 0.3370785
vt 0.5072649 0.3370785
vt 0.5072649 0.2944136
vt 0.4786684 0.3370785
vt 0.4786684 0.2944136
vt 0.7972059 0.8009402
vt 0.7972059 0.7582741
vt 0.7635072 0.7582741
vt 0.7635072 0.8009402
vt 0.8055675 0.8365096
vt 0.8055675 0.8079134
vt 0.7629013 0.8079134
vt 0.7629013 0.8365096
vt 0.8055675 0.861285
vt 0.7629013 0.861285
vt 0.9938691 0.89737
vt 0.9627271 0.8971916
vt 0.9625861 0.921789
vt 0.9937283 0.9219674
vt 0.9625861 0.921789
vt 0.9937283 0.9219674
vt 0.9938691 0.89737
vt 0.9627271 0.8971916
vt 0.007633966 0.9713597
vt 0.0514727 0.9713597
vt 0.0514727 0.928695
vt 0.007633966 0.928695
vt 0.09531144 0.9713597
vt 0.09531144 0.928695
vt 0.1980469 0.8788288
vt 0.1283236 0.8903639
vt 0.1283248 0.9099514
vt 0.1980469 0.9214939
vt 0.1152885 0.9082701
vt 0.1152868 0.8920534
vt 0.1013533 0.907563
vt 0.1013514 0.8927656
vt 0.08741777 0.8920584
vt 0.08742052 0.9082749
vt 0.07438152 0.8903725
vt 0.07438271 0.90996
vt 0.00465959 0.8788368
vt 0.004660782 0.9215028
vt 0.3435544 0.9491905
vt 0.3435544 0.9918566
vt 0.387393 0.9918566
vt 0.387393 0.9491905
vt 0.4312319 0.9491905
vt 0.4312319 0.9918566
vt 0.7668973 0.7503744
vt 0.8035832 0.7492876
vt 0.8027248 0.7203116
vt 0.766039 0.7213985
vt 0.802725 0.7203116
vt 0.766039 0.7213985
vt 0.7668973 0.7503744
vt 0.8035832 0.7492876
vn 0 0 -1
vn 0 0 -1
vn 0 0 -1
vn 0 0 -1
vn 0 -1 0
vn 0 -1 0
vn 0 -1 0
vn 0 -1 0
vn 0 -1 0
vn 0 -1 0
vn 0 -1 0
vn 0 -1 0
vn 0 -1 0
vn 0 -0.9982659 0.05886675
vn 0 -1 0
vn 0 -0.9982659 0.05886675
vn 0 -1 0
vn 0 -1 0
vn 0 -1 0
vn 0 -1 0
vn 0 -0.9861081 0.1661042
vn 0 -0.9861081 0.1661042
vn 0 -0.986086 0.1662364
vn 0 -0.986086 0.1662364
vn 0 -0.9861812 0.1656704
vn 0 -1 0
vn 0 -1 0
vn 0 -1 0
vn 0 -1 0
vn 1 0 0
vn 1 0 0
vn 1 0 0
vn 1 0 0
vn 1 0 0
vn 1 0 0
vn 6.784822E-07 1 -7.995379E-07
vn 6.784822E-07 1 -7.995379E-07
vn 6.784822E-07 1 -7.995379E-07
vn 6.784822E-07 1 -7.995379E-07
vn 2.272206E-07 1 6.397624E-07
vn 2.45646E-07 1 6.916412E-07
vn 0 1 0
vn 0 1 0
vn 0 0.9982645 0.0588908
vn 0 1 0
vn 0 0.9982645 0.0588908
vn 0 1 0
vn 0 1 0
vn 0 1 0
vn 5.085049E-07 1 6.916413E-07
vn 4.703627E-07 1 6.397624E-07
vn 0 0.9861269 0.1659935
vn 0 0.9861269 0.1659935
vn 0 0.9861544 0.1658295
vn 0 0.9861544 0.1658295
vn 0 0.9861794 0.1656807
vn 6.784822E-07 1 -7.995375E-07
vn 6.784823E-07 1 -7.995375E-07
vn 6.784823E-07 1 -7.995375E-07
vn 6.784822E-07 1 -7.995375E-07
vn -1 0 0
vn -1 0 0
vn -1 0 0
vn -1 0 0
vn -0.9522619 0 -0.3052823
vn -0.952262 0 -0.3052819
vn -0.6670127 0 -0.7450463
vn -0.6670127 0 -0.7450463
vn -0.2522732 0 -0.9676561
vn -0.2522732 0 -0.9676561
vn 0.2522732 0 -0.9676561
vn 0.2522732 0 -0.9676561
vn 0.6670127 0 -0.7450463
vn 0.6670127 0 -0.7450463
vn 0.9522619 0 -0.3052823
vn 0.9522619 0 -0.3052823
vn 1 0 0
vn 1 0 0
vn 1 0 0
vn 1 0 0
vn 0 0 -1
vn 0 0 -1
vn 0 0 -1
vn 0 0 -1
vn -1 0 -3.997689E-07
vn -1 0 -3.997689E-07
vn -1 0 -3.99769E-07
vn -1 0 -3.997689E-07
vn -1 0 4.614174E-07
vn -1 0 4.614174E-07
vn 1.696206E-07 1.339732E-07 1
vn 1.696206E-07 1.339732E-07 1
vn 1.696206E-07 1.339732E-07 1
vn 1.696206E-07 1.339732E-07 1
vn -1.696206E-07 -1.339732E-07 1
vn -1.696206E-07 -1.339732E-07 1
vn -1.696206E-07 -1.339732E-07 1
vn -1.696206E-07 -1.339732E-07 1
vn 0.5663573 0 0.8241599
vn 0.566357 0 0.82416
vn 0.566357 0 0.82416
vn 0.5663573 0 0.8241599
vn 0.825622 0 0.5642237
vn 0.8256164 0 0.5642318
vn 0.825622 0 0.5642237
vn 0.9146784 0 0.4041823
vn 0.9146671 0 0.4042078
vn 0.8256164 0 0.5642318
vn 0.5711287 0 0.8208606
vn 0.5711541 0 0.8208429
vn 0 0 1
vn 0 0 1
vn -0.5711541 0 0.8208429
vn -0.5711287 0 0.8208605
vn -0.9146784 0 0.4041823
vn -0.9146671 0 0.4042078
vn -0.825622 0 0.5642237
vn -0.8256164 0 0.5642318
vn -0.5663573 0 0.8241599
vn -0.5663573 0 0.8241599
vn -0.566357 0 0.82416
vn -0.566357 0 0.82416
vn -0.825622 0 0.5642237
vn -0.8256164 0 0.5642318
vn -1.696206E-07 -1.339732E-07 -1
vn -1.696206E-07 -1.339732E-07 -1
vn -1.696206E-07 -1.339732E-07 -1
vn -1.696206E-07 -1.339732E-07 -1
vn 1.696206E-07 1.339732E-07 -1
vn 1.696206E-07 1.339732E-07 -1
vn 1.696206E-07 1.339732E-07 -1
vn 1.696206E-07 1.339732E-07 -1
g sight_rear_acog_trijicon_acog_backup_rear_sight_LOD1_0
f 3/3/3 2/2/2 1/1/1
f 4/4/4 3/3/3 1/1/1
f 7/7/7 6/6/6 5/5/5
f 8/8/8 7/7/7 5/5/5
f 9/9/9 7/7/7 8/8/8
f 10/10/10 9/9/9 8/8/8
f 10/10/10 11/11/11 9/9/9
f 11/11/11 12/12/12 9/9/9
f 13/13/13 12/12/12 11/11/11
f 14/14/14 13/13/13 11/11/11
f 13/13/13 14/14/14 15/15/15
f 14/14/14 16/16/16 15/15/15
f 15/15/15 16/16/16 17/17/17
f 18/18/18 15/15/15 17/17/17
f 18/18/18 17/17/17 19/19/19
f 17/17/17 20/20/20 19/19/19
f 21/21/21 16/16/16 14/14/14
f 22/22/22 21/21/21 14/14/14
f 23/23/23 21/21/21 22/22/22
f 24/24/24 23/23/23 22/22/22
f 25/25/25 23/23/23 24/24/24
f 20/20/20 26/26/26 19/19/19
f 26/26/26 27/27/27 19/19/19
f 26/26/26 28/28/28 27/27/27
f 28/28/28 29/29/29 27/27/27
f 32/32/32 31/31/31 30/30/30
f 33/33/33 32/32/32 30/30/30
f 32/32/32 33/33/33 34/34/34
f 35/35/35 32/32/32 34/34/34
f 38/38/38 37/37/37 36/36/36
f 39/39/39 38/38/38 36/36/36
f 38/38/38 39/39/39 40/40/40
f 41/41/41 38/38/38 40/40/40
f 40/40/40 42/42/42 41/41/41
f 42/42/42 43/43/43 41/41/41
f 44/44/44 43/43/43 42/42/42
f 45/45/45 44/44/44 42/42/42
f 46/46/46 44/44/44 45/45/45
f 47/47/47 46/46/46 45/45/45
f 46/46/46 47/47/47 48/48/48
f 49/49/49 46/46/46 48/48/48
f 49/49/49 48/48/48 50/50/50
f 48/48/48 51/51/51 50/50/50
f 52/52/52 44/44/44 46/46/46
f 53/53/53 52/52/52 46/46/46
f 53/53/53 54/54/54 52/52/52
f 54/54/54 55/55/55 52/52/52
f 56/56/56 55/55/55 54/54/54
f 50/50/50 51/51/51 57/57/57
f 51/51/51 58/58/58 57/57/57
f 58/58/58 59/59/59 57/57/57
f 59/59/59 60/60/60 57/57/57
f 63/63/63 62/62/62 61/61/61
f 64/64/64 63/63/63 61/61/61
f 63/63/63 64/64/64 65/65/65
f 66/66/66 63/63/63 65/65/65
f 65/65/65 67/67/67 66/66/66
f 67/67/67 68/68/68 66/66/66
f 69/69/69 68/68/68 67/67/67
f 70/70/70 69/69/69 67/67/67
f 71/71/71 69/69/69 70/70/70
f 72/72/72 71/71/71 70/70/70
f 71/71/71 72/72/72 73/73/73
f 74/74/74 71/71/71 73/73/73
f 74/74/74 73/73/73 75/75/75
f 73/73/73 76/76/76 75/75/75
f 76/76/76 77/77/77 75/75/75
f 77/77/77 78/78/78 75/75/75
f 77/77/77 79/79/79 78/78/78
f 79/79/79 80/80/80 78/78/78
f 83/83/83 82/82/82 81/81/81
f 84/84/84 83/83/83 81/81/81
f 87/87/87 86/86/86 85/85/85
f 88/88/88 87/87/87 85/85/85
f 88/88/88 85/85/85 89/89/89
f 90/90/90 88/88/88 89/89/89
f 93/93/93 92/92/92 91/91/91
f 94/94/94 93/93/93 91/91/91
f 97/97/97 96/96/96 95/95/95
f 98/98/98 97/97/97 95/95/95
f 101/101/101 100/100/100 99/99/99
f 102/102/102 101/101/101 99/99/99
f 103/103/103 100/100/100 101/101/101
f 104/104/104 103/103/103 101/101/101
f 107/107/107 106/106/106 105/105/105
f 108/108/108 107/107/107 105/105/105
f 107/107/107 109/109/109 106/106/106
f 109/109/109 110/110/110 106/106/106
f 109/109/109 111/111/111 110/110/110
f 111/111/111 112/112/112 110/110/110
f 112/112/112 111/111/111 113/113/113
f 111/111/111 114/114/114 113/113/113
f 113/113/113 114/114/114 115/115/115
f 114/114/114 116/116/116 115/115/115
f 115/115/115 116/116/116 117/117/117
f 116/116/116 118/118/118 117/117/117
f 121/121/121 120/120/120 119/119/119
f 122/122/122 121/121/121 119/119/119
f 122/122/122 123/123/123 121/121/121
f 123/123/123 124/124/124 121/121/121
f 127/127/127 126/126/126 125/125/125
f 128/128/128 127/127/127 125/125/125
f 131/131/131 130/130/130 129/129/129
f 132/132/132 131/131/131 129/129/129
