g sight_rear_m1911_colt_m1911a1_std_LOD1
v -0.007828308 -0.002055721 0.003236363
v -0.007471183 -0.003059788 0.002973421
v -0.007709506 -0.002414189 -4.054904E-06
v -0.007058091 -0.003845186 -4.054904E-06
v -0.006862981 -0.004203754 0.0005461007
v -0.008083337 1.854758E-06 -4.054904E-06
v -0.008083333 1.854758E-06 0.003236363
v -0.007828307 0.0020715 0.003236363
v -0.007976392 0.001111374 0.004045394
v -0.008043006 1.854758E-06 0.004045394
v -0.007836557 0.0007787512 0.00493845
v -0.007709368 0.002417893 -4.054904E-06
v -0.007471227 0.003081775 0.002973597
v -0.007058091 0.003848371 -4.054904E-06
v -0.006862982 0.004203696 0.0005460983
v -0.007976393 -0.001155977 0.004045394
v -0.007836557 -0.0007750512 0.004938446
v -0.007396296 -0.000769725 0.005577815
v -0.00718696 0.0007734249 0.005780292
v -0.006772971 -0.0007644035 0.006062606
v -0.006268906 0.0007681082 0.00633283
v -0.007058091 0.003848371 -4.054904E-06
v 0.007058052 0.003848371 -4.054904E-06
v -0.006862982 0.004203696 0.0005460983
v 0.006862943 0.004203696 0.0005460983
v -0.007471227 0.003081775 0.002973597
v 0.007471186 0.003081775 0.002973597
v -0.007058091 -0.003845186 -4.054904E-06
v 0.007058048 -0.003845186 -4.054904E-06
v -0.007058091 0.003848371 -4.054904E-06
v 0.007058052 0.003848371 -4.054904E-06
v -0.007709506 -0.002414189 -4.054904E-06
v -0.007709368 0.002417893 -4.054904E-06
v -0.008083337 1.854758E-06 -4.054904E-06
v 0.007709463 -0.002414189 -4.054904E-06
v 0.007709327 0.002417893 -4.054904E-06
v 0.008083295 1.854758E-06 -4.054904E-06
v -0.006862981 -0.004203754 0.0005461007
v 0.006862938 -0.004203754 0.0005461007
v -0.007058091 -0.003845186 -4.054904E-06
v 0.007058048 -0.003845186 -4.054904E-06
v 0.00747114 -0.003059788 0.002973421
v -0.007471183 -0.003059788 0.002973421
v -0.007828308 -0.002055721 0.003236363
v 0.007828265 -0.002055721 0.003236363
v -0.007471183 -0.003059788 0.002973421
v 0.00747114 -0.003059788 0.002973421
v 0.00797635 -0.001155977 0.004045394
v -0.007976393 -0.001155977 0.004045394
v 0.007836514 -0.0007750512 0.004938446
v -0.007836557 -0.0007750512 0.004938446
v -0.007396296 -0.000769725 0.005577815
v 0.007396254 -0.000769725 0.005577815
v -0.006772971 -0.0007644035 0.006062606
v 0.006772929 -0.0007644035 0.006062606
v -0.006268906 0.0007681082 0.00633283
v 0.006268865 0.0007681082 0.00633283
v -0.006772971 -0.0007644035 0.006062606
v 0.006772929 -0.0007644035 0.006062606
v -0.007836557 0.0007787512 0.00493845
v 0.007836516 0.0007787512 0.00493845
v -0.00718696 0.0007734249 0.005780292
v 0.007186919 0.0007734249 0.005780292
v -0.006268906 0.0007681082 0.00633283
v 0.006268865 0.0007681082 0.00633283
v 0.00797635 0.001111374 0.004045394
v -0.007976392 0.001111374 0.004045394
v 0.007828265 0.0020715 0.003236363
v -0.007828307 0.0020715 0.003236363
v 0.007471186 0.003081775 0.002973597
v -0.007471227 0.003081775 0.002973597
v 0.007828265 -0.002055721 0.003236363
v 0.007709463 -0.002414189 -4.054904E-06
v 0.00747114 -0.003059788 0.002973421
v 0.007058048 -0.003845186 -4.054904E-06
v 0.006862938 -0.004203754 0.0005461007
v 0.008083295 1.854758E-06 -4.054904E-06
v 0.008083292 1.854758E-06 0.003236363
v 0.007828265 0.0020715 0.003236363
v 0.00797635 0.001111374 0.004045394
v 0.008042965 1.854758E-06 0.004045394
v 0.007836516 0.0007787512 0.00493845
v 0.007709327 0.002417893 -4.054904E-06
v 0.007471186 0.003081775 0.002973597
v 0.007058052 0.003848371 -4.054904E-06
v 0.006862943 0.004203696 0.0005460983
v 0.00797635 -0.001155977 0.004045394
v 0.007836514 -0.0007750512 0.004938446
v 0.007396254 -0.000769725 0.005577815
v 0.007186919 0.0007734249 0.005780292
v 0.006772929 -0.0007644035 0.006062606
v 0.006268865 0.0007681082 0.00633283
vt 0.1872119 0.7345133
vt 0.1502962 0.7436734
vt 0.1742824 0.846854
vt 0.1197871 0.8469452
vt 0.1055958 0.8279068
vt 0.2590413 0.8469174
vt 0.2590413 0.7346719
vt 0.3312851 0.7345128
vt 0.2975272 0.7064852
vt 0.2590449 0.706681
vt 0.2860069 0.6750289
vt 0.3438008 0.8468546
vt 0.3684016 0.7436743
vt 0.3982772 0.8469677
vt 0.4123805 0.8279385
vt 0.2188929 0.7064713
vt 0.2320985 0.6750155
vt 0.2323077 0.6481113
vt 0.2858382 0.6381768
vt 0.2325497 0.6207452
vt 0.2857172 0.6010422
vt 0.04402951 0.9807696
vt 0.5332495 0.9807694
vt 0.05079116 0.9580719
vt 0.5264872 0.9580722
vt 0.0297117 0.8653923
vt 0.547567 0.8653922
vt 0.00390642 0.03943798
vt 0.00390625 0.5286574
vt 0.27054 0.03943798
vt 0.27054 0.5286574
vt 0.05350029 0.016862
vt 0.2209645 0.01686696
vt 0.1372325 0.00390625
vt 0.05350013 0.5512333
vt 0.2209641 0.5512283
vt 0.1372325 0.564189
vt 0.8825092 0.6978802
vt 0.8825098 0.2221843
vt 0.8597512 0.7046425
vt 0.8597507 0.2154223
vt 0.9755073 0.2011063
vt 0.9755068 0.7189583
vt 0.3286092 0.5545365
vt 0.3286095 0.01193121
vt 0.2926375 0.5421597
vt 0.2926382 0.02430807
vt 0.3705439 0.006799183
vt 0.3705429 0.559669
vt 0.4041917 0.01164532
vt 0.4041914 0.5548226
vt 0.4263509 0.5395646
vt 0.4263509 0.02690342
vt 0.4431527 0.5179622
vt 0.4431534 0.04850571
vt 0.5389066 0.8103228
vt 0.9734244 0.8103232
vt 0.521437 0.7563921
vt 0.9908935 0.7563916
vt 0.5718183 0.01774677
vt 0.5718183 0.5609242
vt 0.6009946 0.04025978
vt 0.6009946 0.5384113
vt 0.6201445 0.07207639
vt 0.6201445 0.5065944
vt 0.5387909 0.5657706
vt 0.5387909 0.01290046
vt 0.4952783 0.5606383
vt 0.4952783 0.01803282
vt 0.4591005 0.5482633
vt 0.4591005 0.03040787
vt 0.384067 0.6904202
vt 0.3711362 0.5780808
vt 0.3471511 0.6812608
vt 0.316642 0.5779896
vt 0.3024501 0.5970267
vt 0.4558959 0.578016
vt 0.4558959 0.6902615
vt 0.5281401 0.6904209
vt 0.4943828 0.7184488
vt 0.4559005 0.7182525
vt 0.4828625 0.7499049
vt 0.5406555 0.5780789
vt 0.5652561 0.6812593
vt 0.595131 0.5779657
vt 0.6092355 0.596995
vt 0.4157473 0.718462
vt 0.4289538 0.7499181
vt 0.4291628 0.7768219
vt 0.4826939 0.786756
vt 0.4294044 0.8041883
vt 0.4825715 0.8238913
vn -0.9795547 -0.2008306 -0.01181368
vn -0.9306594 -0.3658826 -0.001751738
vn -0.9577856 -0.2870347 -0.0160607
vn -0.8980675 -0.4397736 -0.008593466
vn -0.8803049 -0.4743987 0.003004326
vn -0.9999204 -0.0001370015 -0.01262147
vn -0.999975 0.0003338769 0.007076552
vn -0.9796028 0.2006672 -0.01053856
vn -0.9946337 0.09087756 0.04944847
vn -0.9922343 0.0009647086 0.1243784
vn -0.9217082 0.0271216 0.3869346
vn -0.9579233 0.2864823 -0.0176277
vn -0.9310551 0.3648615 -0.003547003
vn -0.8970941 0.4417089 -0.0107496
vn -0.8776188 0.4793563 0.001644823
vn -0.9948979 -0.09049008 0.04460663
vn -0.9291584 -0.01801692 0.3692423
vn -0.7324529 -0.003334251 0.6808096
vn -0.6631578 0.01642589 0.7482994
vn -0.5806537 -0.00685794 0.8141218
vn -0.5154986 0.0184968 0.8566906
vn 0 0.8400273 -0.5425443
vn 0 0.8400273 -0.5425443
vn 0 0.9967864 -0.08010577
vn 0 0.9967865 -0.08010537
vn 0 0.9077405 0.4195319
vn 0 0.9077405 0.419532
vn 0 0 -1
vn 0 0 -1
vn 0 0 -1
vn 0 0 -1
vn 0 0 -1
vn 0 0 -1
vn 0 0 -1
vn 0 0 -1
vn 0 0 -1
vn 0 0 -1
vn 0 -0.9969074 -0.07858453
vn 0 -0.9969074 -0.07858465
vn 0 -0.8377707 -0.5460221
vn 0 -0.8377707 -0.5460221
vn 0 -0.9045748 0.4263148
vn 0 -0.9045749 0.4263148
vn 0 -0.5070348 0.8619255
vn 0 -0.5070348 0.8619256
vn 0 -0.2533346 0.9673787
vn 0 -0.2533346 0.9673787
vn 0 -0.8124576 0.5830202
vn 0 -0.8124576 0.5830201
vn 0 -0.9660429 0.2583818
vn 0 -0.9660429 0.2583817
vn 0 -0.9999599 0.008947243
vn 0 -0.9999599 0.008947244
vn 0 -0.9999398 0.01097625
vn 0 -0.9999398 0.01097624
vn 0 -0.1736484 0.9848077
vn 0 -0.1736484 0.9848077
vn 0 -0.1736484 0.9848077
vn 0 -0.1736484 0.9848077
vn 0 0.9724241 0.2332193
vn 0 0.9724241 0.2332193
vn 0 0.9999757 0.006971376
vn 0 0.9999757 0.006971376
vn 0 0.9999537 0.009621951
vn 0 0.9999537 0.009621952
vn 0 0.8161094 0.5778974
vn 0 0.8161093 0.5778976
vn 0 0.4898311 0.8718174
vn 0 0.4898311 0.8718174
vn 0 0.2517186 0.9678005
vn 0 0.2517186 0.9678005
vn 0.9795547 -0.2008309 -0.01181346
vn 0.9577855 -0.2870349 -0.01606063
vn 0.9306595 -0.3658822 -0.00175171
vn 0.8980676 -0.4397735 -0.008593673
vn 0.8803053 -0.474398 0.003003945
vn 0.9999204 -0.0001372483 -0.01262142
vn 0.999975 0.0003335185 0.007076587
vn 0.9796028 0.2006671 -0.01053847
vn 0.9946337 0.09087794 0.04944848
vn 0.9922343 0.000964152 0.1243784
vn 0.9217083 0.02712129 0.3869347
vn 0.9579235 0.2864819 -0.01762754
vn 0.9310553 0.364861 -0.003546885
vn 0.8970944 0.4417081 -0.01074952
vn 0.8776194 0.4793552 0.001644811
vn 0.9948978 -0.09049127 0.04460711
vn 0.9291584 -0.01801787 0.3692424
vn 0.7324528 -0.00333482 0.6808096
vn 0.6631578 0.01642537 0.7482994
vn 0.5806537 -0.006858382 0.8141217
vn 0.5154987 0.0184964 0.8566906
g sight_rear_m1911_colt_m1911a1_std_LOD1_0
f 3/3/3 2/2/2 1/1/1
f 4/4/4 2/2/2 3/3/3
f 5/5/5 2/2/2 4/4/4
f 1/1/1 6/6/6 3/3/3
f 1/1/1 7/7/7 6/6/6
f 8/8/8 6/6/6 7/7/7
f 9/9/9 8/8/8 7/7/7
f 9/9/9 7/7/7 10/10/10
f 9/9/9 10/10/10 11/11/11
f 8/8/8 12/12/12 6/6/6
f 13/13/13 12/12/12 8/8/8
f 13/13/13 14/14/14 12/12/12
f 14/14/14 13/13/13 15/15/15
f 16/16/16 7/7/7 1/1/1
f 16/16/16 10/10/10 7/7/7
f 17/17/17 10/10/10 16/16/16
f 11/11/11 10/10/10 17/17/17
f 18/18/18 11/11/11 17/17/17
f 18/18/18 19/19/19 11/11/11
f 20/20/20 19/19/19 18/18/18
f 20/20/20 21/21/21 19/19/19
f 24/24/24 23/23/23 22/22/22
f 24/24/24 25/25/25 23/23/23
f 26/26/26 25/25/25 24/24/24
f 26/26/26 27/27/27 25/25/25
f 30/30/30 29/29/29 28/28/28
f 30/30/30 31/31/31 29/29/29
f 32/32/32 30/30/30 28/28/28
f 32/32/32 33/33/33 30/30/30
f 34/34/34 33/33/33 32/32/32
f 31/31/31 35/35/35 29/29/29
f 31/31/31 36/36/36 35/35/35
f 36/36/36 37/37/37 35/35/35
f 40/40/40 39/39/39 38/38/38
f 40/40/40 41/41/41 39/39/39
f 38/38/38 39/39/39 42/42/42
f 38/38/38 42/42/42 43/43/43
f 46/46/46 45/45/45 44/44/44
f 46/46/46 47/47/47 45/45/45
f 44/44/44 45/45/45 48/48/48
f 44/44/44 48/48/48 49/49/49
f 49/49/49 48/48/48 50/50/50
f 49/49/49 50/50/50 51/51/51
f 50/50/50 52/52/52 51/51/51
f 53/53/53 52/52/52 50/50/50
f 53/53/53 54/54/54 52/52/52
f 53/53/53 55/55/55 54/54/54
f 58/58/58 57/57/57 56/56/56
f 58/58/58 59/59/59 57/57/57
f 62/62/62 61/61/61 60/60/60
f 62/62/62 63/63/63 61/61/61
f 64/64/64 63/63/63 62/62/62
f 65/65/65 63/63/63 64/64/64
f 60/60/60 61/61/61 66/66/66
f 60/60/60 66/66/66 67/67/67
f 67/67/67 66/66/66 68/68/68
f 67/67/67 68/68/68 69/69/69
f 69/69/69 68/68/68 70/70/70
f 69/69/69 70/70/70 71/71/71
f 74/74/74 73/73/73 72/72/72
f 74/74/74 75/75/75 73/73/73
f 76/76/76 75/75/75 74/74/74
f 72/72/72 73/73/73 77/77/77
f 72/72/72 77/77/77 78/78/78
f 79/79/79 78/78/78 77/77/77
f 78/78/78 79/79/79 80/80/80
f 78/78/78 80/80/80 81/81/81
f 81/81/81 80/80/80 82/82/82
f 79/79/79 77/77/77 83/83/83
f 83/83/83 84/84/84 79/79/79
f 85/85/85 84/84/84 83/83/83
f 84/84/84 85/85/85 86/86/86
f 78/78/78 87/87/87 72/72/72
f 78/78/78 81/81/81 87/87/87
f 81/81/81 88/88/88 87/87/87
f 81/81/81 82/82/82 88/88/88
f 82/82/82 89/89/89 88/88/88
f 82/82/82 90/90/90 89/89/89
f 90/90/90 91/91/91 89/89/89
f 90/90/90 92/92/92 91/91/91
