g sight_rear_vepr_molot_vpo-101_std_LOD1
v -0.0108375 0.05114289 0.002464597
v -0.01083759 0.05008902 0.002525828
v -0.01083647 0.04967884 -0.004533864
v -0.01083735 0.04754654 0.00136914
v -0.01083647 0.04721187 -0.004390527
v -0.01083647 0.04967884 -0.004533864
v -0.01083647 0.04721187 -0.004390527
v -0.006080973 0.04721187 -0.004390526
v 0.005951806 0.04721187 -0.004390524
v 0.01072548 0.0496788 -0.004533837
v 0.01072548 0.04721187 -0.004390519
v 0.005951748 0.006287732 -0.002011605
v -0.006080945 0.006287732 -0.002011606
v -0.004535636 0.005700402 -0.001977479
v 0.004406909 0.005700402 -0.001977477
v -0.004099991 -0.0005840517 -0.001612328
v 0.003971347 -0.0005840731 -0.001612326
v -0.01083647 0.04721187 -0.004390527
v -0.01083735 0.04754654 0.00136914
v -0.006080973 0.04721187 -0.004390526
v -0.006080945 0.04742696 -0.0006888561
v 0.01072309 0.04754654 0.001369234
v 0.005951746 0.04742696 -0.000688852
v 0.005951806 0.04721187 -0.004390524
v 0.01072548 0.04721187 -0.004390519
v 0.005951746 0.04742696 -0.000688852
v 0.01072309 0.04754654 0.001369234
v 0.01072437 0.05008899 0.002525827
v 0.01072548 0.0496788 -0.004533837
v 0.01072548 0.04721187 -0.004390519
v 0.01072447 0.05114285 0.002464596
v 0.01072437 0.05008899 0.002525827
v -0.01083759 0.05008902 0.002525828
v -0.0108375 0.05114289 0.002464597
v 0.01072447 0.05114285 0.002464596
v 0.005951748 0.006287732 -0.002011605
v 0.005951803 0.006473785 0.001190891
v 0.005951746 0.04742696 -0.000688852
v 0.005951806 0.04721187 -0.004390524
v -0.006080945 0.04742696 -0.0006888561
v 0.005951746 0.04742696 -0.000688852
v 0.005951803 0.006473785 0.001190891
v -0.006080973 0.0064738 0.001190886
v -0.004535632 0.005886474 0.001225013
v 0.004406346 0.005886474 0.001225013
v 0.003970811 -0.004362643 0.001820523
v -0.00410001 -0.004362643 0.001820522
v 0.005951803 0.006473785 0.001190891
v 0.005951748 0.006287732 -0.002011605
v 0.004406909 0.005700402 -0.001977477
v 0.004406346 0.005886474 0.001225013
v 0.004406909 0.005700402 -0.001977477
v 0.003970811 -0.004362643 0.001820523
v 0.004406346 0.005886474 0.001225013
v 0.003971347 -0.0005840731 -0.001612326
v 0.003971346 -0.004474795 -0.000109632
v -0.004099991 -0.004474785 -0.0001096341
v -0.00410001 -0.004362643 0.001820522
v 0.003970811 -0.004362643 0.001820523
v 0.003971346 -0.004474795 -0.000109632
v -0.004099991 -0.004474785 -0.0001096341
v 0.003971346 -0.004474795 -0.000109632
v 0.003971347 -0.0005840731 -0.001612326
v -0.004099991 -0.0005840517 -0.001612328
v -0.01083735 0.04754654 0.00136914
v -0.01083759 0.05008902 0.002525828
v 0.01072437 0.05008899 0.002525827
v 0.01072309 0.04754654 0.001369234
v 0.01072447 0.05114285 0.002464596
v -0.0108375 0.05114289 0.002464597
v -0.01083647 0.04967884 -0.004533864
v 0.01072548 0.0496788 -0.004533837
v -0.01555327 0.03414832 -0.007236017
v 0.01602381 0.03414832 -0.007236018
v 0.01602381 0.03751298 -0.005842333
v -0.01555327 0.03751298 -0.005842329
v 0.01602381 0.03890667 -0.00247767
v -0.01555327 0.03890667 -0.002477668
v 0.01602381 0.03751298 0.0008869877
v -0.01555327 0.03751298 0.0008869895
v 0.01602381 0.03414832 0.002280672
v -0.01555327 0.03414832 0.002280676
v 0.01602381 0.03078366 0.0008869866
v -0.01555327 0.03078366 0.0008869883
v 0.01602381 0.02938997 -0.002477671
v -0.01555327 0.02938997 -0.00247767
v 0.01602381 0.03078366 -0.005842329
v -0.01555327 0.03078366 -0.005842327
v 0.01602381 0.03414832 -0.007236018
v -0.01555327 0.03414832 -0.007236017
v 0.01602381 0.03414832 -0.007236018
v 0.01602381 0.03078366 -0.005842329
v 0.01602381 0.03751298 -0.005842333
v 0.01602381 0.03890667 -0.00247767
v 0.01602381 0.02938997 -0.002477671
v 0.01602381 0.03751298 0.0008869877
v 0.01602381 0.03078366 0.0008869866
v 0.01602381 0.03414832 0.002280672
v -0.006080945 0.006287732 -0.002011606
v -0.006080973 0.04721187 -0.004390526
v -0.006080945 0.04742696 -0.0006888561
v -0.006080973 0.0064738 0.001190886
v -0.006080973 0.0064738 0.001190886
v -0.004535632 0.005886474 0.001225013
v -0.004535636 0.005700402 -0.001977479
v -0.006080945 0.006287732 -0.002011606
v -0.004535636 0.005700402 -0.001977479
v -0.004535632 0.005886474 0.001225013
v -0.00410001 -0.004362643 0.001820522
v -0.004099991 -0.0005840517 -0.001612328
v -0.004099991 -0.004474785 -0.0001096341
v -0.01555327 0.03414832 -0.007236017
v -0.01555327 0.03751298 -0.005842329
v -0.01555327 0.03078366 -0.005842327
v -0.01555327 0.03890667 -0.002477668
v -0.01555327 0.02938997 -0.00247767
v -0.01555327 0.03751298 0.0008869895
v -0.01555327 0.03078366 0.0008869883
v -0.01555327 0.03414832 0.002280676
vt 0.642112 0.995272
vt 0.661386 0.995272
vt 0.661386 0.86616
vt 0.706504 0.971497
vt 0.706504 0.86616
vt 0.599723 0.007381
vt 0.599721 0.052602
vt 0.687061 0.052602
vt 0.906955 0.052598
vt 0.994316 0.007379
vt 0.994319 0.052599
vt 0.906955 0.8028
vt 0.687061 0.802801
vt 0.715351 0.81357
vt 0.878687 0.813569
vt 0.723326 0.928772
vt 0.870716 0.928772
vt 0.6795 0.857152
vt 0.679505 0.751571
vt 0.592156 0.857162
vt 0.592153 0.7893
vt 0.284938 0.751566
vt 0.372252 0.7893
vt 0.372232 0.857164
vt 0.284866 0.857141
vt 0.372252 0.7893
vt 0.003978 0.831508
vt 0.049205 0.855338
vt 0.049201 0.725921
vt 0.003978 0.72592
vt 0.068522 0.855337
vt 0.023117 0.614933
vt 0.023117 0.220339
vt 0.003799 0.22034
vt 0.003799 0.614933
vt 0.928585 0.99397
vt 0.991865 0.993969
vt 0.991865 0.243748
vt 0.928586 0.243748
vt 0.678359 0.744258
vt 0.678359 0.601815
vt 0.192369 0.601815
vt 0.192368 0.744256
vt 0.185392 0.725939
vt 0.185392 0.620133
vt 0.063691 0.6253
vt 0.063691 0.720774
vt 0.032903 0.717454
vt 0.032903 0.658749
vt 0.002645 0.658749
vt 0.002645 0.717454
vt 0.919335 0.935769
vt 0.731288 0.994486
vt 0.919335 0.994486
vt 0.803855 0.935647
vt 0.731223 0.959108
vt 0.952295 0.224894
vt 0.987678 0.224904
vt 0.987676 0.077511
vt 0.952293 0.077502
vt 0.080012 0.212069
vt 0.080012 0.064679
vt 0.003685 0.064678
vt 0.003685 0.212069
vt 0.002456 0.004571
vt 0.002456 0.055687
vt 0.397036 0.055687
vt 0.397036 0.004571
vt 0.003346 0.994312
vt 0.397938 0.994312
vt 0.397938 0.863465
vt 0.003346 0.863465
vt 0.101481 0.593324
vt 0.679356 0.593324
vt 0.679356 0.526676
vt 0.101481 0.526676
vt 0.679356 0.460027
vt 0.101481 0.460027
vt 0.679356 0.39338
vt 0.101481 0.39338
vt 0.679356 0.326732
vt 0.101481 0.326732
vt 0.679356 0.260084
vt 0.101481 0.260084
vt 0.679356 0.193435
vt 0.101481 0.193435
vt 0.679356 0.126788
vt 0.101481 0.126788
vt 0.679356 0.06014
vt 0.101481 0.06014
vt 0.496283 0.820596
vt 0.434708 0.846101
vt 0.557857 0.846101
vt 0.583362 0.907676
vt 0.409202 0.907676
vt 0.557857 0.969251
vt 0.434708 0.969252
vt 0.496283 0.994757
vt 0.928585 0.99397
vt 0.928586 0.243748
vt 0.991865 0.243748
vt 0.991865 0.993969
vt 0.032903 0.717454
vt 0.002645 0.717454
vt 0.002645 0.658749
vt 0.032903 0.658749
vt 0.919335 0.935769
vt 0.919335 0.994486
vt 0.731288 0.994486
vt 0.803855 0.935647
vt 0.731223 0.959108
vt 0.496283 0.820596
vt 0.557857 0.846101
vt 0.434708 0.846101
vt 0.583362 0.907676
vt 0.409202 0.907676
vt 0.557857 0.969251
vt 0.434708 0.969252
vt 0.496283 0.994757
vn -1 9.536753E-05 -0.0001639129
vn -1 4.768376E-05 -0.0001609327
vn -1 0 -0.0001609327
vn -1 -4.768376E-05 -0.0001549722
vn -1 -4.768376E-05 -0.0001549722
vn 0 -0.05803122 -0.9983147
vn 0 -0.05803106 -0.9983147
vn 0 -0.05803106 -0.9983147
vn 0 -0.05803106 -0.9983147
vn 0 -0.05803122 -0.9983147
vn 0 -0.05803106 -0.9983147
vn 0 -0.05803106 -0.9983147
vn 0 -0.05803106 -0.9983147
vn 0 -0.0580073 -0.9983162
vn 0 -0.05800721 -0.9983162
vn 0 -0.05800721 -0.9983162
vn 0 -0.05800721 -0.9983162
vn 0 -0.9983162 0.05800781
vn 0 -0.9983162 0.05800781
vn 0 -0.9983162 0.05800781
vn 0 -0.9983162 0.05800633
vn 0 -0.9983162 0.05800781
vn 0 -0.9983162 0.05800781
vn 0 -0.9983162 0.05800781
vn 0 -0.9983162 0.05800781
vn 0 -0.7489615 0.6626134
vn 0.9999999 -0.0003337863 0.000292063
vn 1 -0.0001430513 0.0002145769
vn 1 -0.0002861026 0.0002801421
vn 0.9999999 -0.0003337863 0.000292063
vn 1 -4.768376E-05 0.0001609327
vn 0 0.05803106 0.9983147
vn 0 0.05803106 0.9983147
vn 0 0.05803106 0.9983147
vn 0 0.05803106 0.9983147
vn 1 0 0
vn 1 0 0
vn 1 0 0
vn 1 0 0
vn 0 0.04582408 0.9989496
vn 0 -0.7489615 0.6626134
vn 0 0.04813676 0.9988407
vn 0 0.04813676 0.9988407
vn 0 0.0580073 0.9983162
vn 0 0.0580073 0.9983162
vn 0 0.05800721 0.9983162
vn 0 0.05800721 0.9983162
vn 0.3558268 -0.9329769 0.05423411
vn 0.3558269 -0.9329771 0.05423114
vn 0.3558268 -0.9329769 0.05423411
vn 0.3558268 -0.9329769 0.05423411
vn 0.998738 -0.04837511 -0.01350492
vn 0.9994893 -0.02582073 -0.01882612
vn 0.9991012 -0.04230734 0.002634523
vn 0.9954689 -0.06401537 -0.0703126
vn 1 9.536753E-05 0.0002712014
vn 0 -0.9983163 0.05800506
vn 0 -0.9983163 0.05800432
vn 0 -0.9983163 0.05800432
vn 0 -0.9983163 0.05800506
vn 0 -0.3602979 -0.9328372
vn 0 -0.3602979 -0.9328372
vn 0 -0.3602969 -0.9328377
vn 0 -0.3602969 -0.9328377
vn 0 -0.4140856 0.9102379
vn 0 -0.4140856 0.9102379
vn 0 -0.4140856 0.9102379
vn 0 -0.4140856 0.9102379
vn 0 0.978811 -0.2047658
vn 0 0.9788128 -0.2047573
vn 0 0.9788107 -0.2047673
vn 0 0.9788107 -0.2047673
vn 0 0 -1
vn 0 0 -1
vn 0 0.7071007 -0.7071127
vn 0 0.7071038 -0.7071097
vn 0 1 0
vn 0 1 0
vn 0 0.7071031 0.7071105
vn 0 0.7071031 0.7071105
vn 0 0 1
vn 0 0 1
vn 0 -0.7071031 0.7071105
vn 0 -0.7071031 0.7071105
vn 0 -1 0
vn 0 -1 0
vn 0 -0.7071216 -0.7070919
vn 0 -0.7071216 -0.7070919
vn 0 0 -1
vn 0 0 -1
vn 1 0 0
vn 1 0 0
vn 1 0 0
vn 1 0 0
vn 1 0 0
vn 1 0 0
vn 1 0 0
vn 1 0 0
vn -1 0 0
vn -1 0 0
vn -1 0 0
vn -1 0 0
vn -0.3557973 -0.9329898 0.05420734
vn -0.3557973 -0.9329898 0.05420734
vn -0.3557974 -0.9329899 0.05420586
vn -0.3557974 -0.9329899 0.05420437
vn -0.9987344 -0.04839892 -0.01368074
vn -0.9991012 -0.04231926 0.00246167
vn -0.9994829 -0.02589224 -0.01906453
vn -0.9954517 -0.06406311 -0.07051084
vn -1 0 -1.043082E-05
vn -1 0 0
vn -1 0 0
vn -1 0 0
vn -1 0 0
vn -1 0 0
vn -1 0 0
vn -1 0 0
vn -1 0 0
g sight_rear_vepr_molot_vpo-101_std_LOD1_0
f 3/3/3 2/2/2 1/1/1
f 2/2/2 3/3/3 4/4/4
f 3/3/3 5/5/5 4/4/4
f 8/8/8 7/7/7 6/6/6
f 9/9/9 8/8/8 6/6/6
f 10/10/10 9/9/9 6/6/6
f 11/11/11 9/9/9 10/10/10
f 9/9/9 12/12/12 8/8/8
f 12/12/12 13/13/13 8/8/8
f 13/13/13 12/12/12 14/14/14
f 12/12/12 15/15/15 14/14/14
f 16/16/16 14/14/14 15/15/15
f 17/17/17 16/16/16 15/15/15
f 20/20/20 19/19/19 18/18/18
f 21/21/21 19/19/19 20/20/20
f 22/22/22 19/19/19 21/21/21
f 23/23/23 22/22/22 21/21/21
f 25/25/25 22/22/22 24/24/24
f 26/26/26 24/24/24 22/22/22
f 29/29/29 28/28/28 27/27/27
f 30/30/30 29/29/29 27/27/27
f 28/28/28 29/29/29 31/31/31
f 34/34/34 33/33/33 32/32/32
f 35/35/35 34/34/34 32/32/32
f 38/38/38 37/37/37 36/36/36
f 39/39/39 38/38/38 36/36/36
f 42/42/42 41/41/41 40/40/40
f 43/43/43 42/42/42 40/40/40
f 42/42/42 43/43/43 44/44/44
f 45/45/45 42/42/42 44/44/44
f 46/46/46 45/45/45 44/44/44
f 47/47/47 46/46/46 44/44/44
f 50/50/50 49/49/49 48/48/48
f 51/51/51 50/50/50 48/48/48
f 54/54/54 53/53/53 52/52/52
f 53/53/53 55/55/55 52/52/52
f 53/53/53 56/56/56 55/55/55
f 59/59/59 58/58/58 57/57/57
f 60/60/60 59/59/59 57/57/57
f 63/63/63 62/62/62 61/61/61
f 64/64/64 63/63/63 61/61/61
f 67/67/67 66/66/66 65/65/65
f 68/68/68 67/67/67 65/65/65
f 71/71/71 70/70/70 69/69/69
f 72/72/72 71/71/71 69/69/69
f 75/75/75 74/74/74 73/73/73
f 76/76/76 75/75/75 73/73/73
f 77/77/77 75/75/75 76/76/76
f 78/78/78 77/77/77 76/76/76
f 79/79/79 77/77/77 78/78/78
f 80/80/80 79/79/79 78/78/78
f 81/81/81 79/79/79 80/80/80
f 82/82/82 81/81/81 80/80/80
f 83/83/83 81/81/81 82/82/82
f 84/84/84 83/83/83 82/82/82
f 85/85/85 83/83/83 84/84/84
f 86/86/86 85/85/85 84/84/84
f 87/87/87 85/85/85 86/86/86
f 88/88/88 87/87/87 86/86/86
f 89/89/89 87/87/87 88/88/88
f 90/90/90 89/89/89 88/88/88
f 93/93/93 92/92/92 91/91/91
f 92/92/92 93/93/93 94/94/94
f 95/95/95 92/92/92 94/94/94
f 95/95/95 94/94/94 96/96/96
f 97/97/97 95/95/95 96/96/96
f 98/98/98 97/97/97 96/96/96
f 101/101/101 100/100/100 99/99/99
f 102/102/102 101/101/101 99/99/99
f 105/105/105 104/104/104 103/103/103
f 106/106/106 105/105/105 103/103/103
f 109/109/109 108/108/108 107/107/107
f 110/110/110 109/109/109 107/107/107
f 111/111/111 109/109/109 110/110/110
f 114/114/114 113/113/113 112/112/112
f 113/113/113 114/114/114 115/115/115
f 114/114/114 116/116/116 115/115/115
f 115/115/115 116/116/116 117/117/117
f 116/116/116 118/118/118 117/117/117
f 118/118/118 119/119/119 117/117/117
