g sight_rear_mosin_izhmash_mosin_std_LOD1
v -0.006441405 0.059141 0.003112464
v -0.006453316 -0.004691329 0.002115755
v -0.006441405 0.059141 -0.001691732
v -0.006454317 -0.004691329 -0.002538443
v 0.0142977 0.07261977 0.005190768
v 0.01042269 0.07284957 0.003280473
v 0.0142249 0.07261977 -0.00322793
v 0.0104227 0.07299347 -0.00143723
v -0.0107713 0.07284958 0.003280473
v -0.0142398 0.07261977 0.005190868
v -0.0145257 0.07261977 -0.00322793
v -0.0107713 0.07299348 -0.00143723
v 0.01422489 0.05914099 -0.003342133
v 0.006104495 0.05914099 -0.001691732
v 0.01429769 0.05914099 0.004969764
v 0.006104495 0.05914099 0.003112364
v -0.01423981 0.059141 0.004969964
v -0.006441405 0.059141 0.003112464
v -0.01452571 0.059141 -0.003342133
v -0.006441405 0.059141 -0.001691732
v -0.0107713 0.07878457 -4.053116E-05
v 0.0104227 0.07878457 -4.053116E-05
v -0.0107713 0.08137247 0.00697607
v 0.0104227 0.08137247 0.00697607
v 0.0142977 0.07261977 0.005190768
v 0.0142249 0.07261977 -0.00322793
v 0.01429769 0.05914099 0.004969764
v 0.01422489 0.05914099 -0.003342133
v -0.0107713 0.08137247 0.00697607
v -0.0107713 0.07284958 0.003280473
v -0.0107713 0.07878457 -4.053116E-05
v -0.0107713 0.07299348 -0.00143723
v -0.006454317 -0.004691329 -0.002538443
v 0.006104583 -0.004691329 -0.002538443
v -0.006441405 0.059141 -0.001691732
v 0.006104495 0.05914099 -0.001691732
v -0.0142398 0.07261977 0.005190868
v -0.01423981 0.059141 0.004969964
v -0.0145257 0.07261977 -0.00322793
v -0.01452571 0.059141 -0.003342133
v 0.0104227 0.07299347 -0.00143723
v 0.01042269 0.07284957 0.003280473
v 0.0104227 0.07878457 -4.053116E-05
v 0.0104227 0.08137247 0.00697607
v -0.006453316 -0.004691329 0.002115755
v -0.006441405 0.059141 0.003112464
v 0.006105683 -0.004691329 0.002115755
v 0.006104495 0.05914099 0.003112364
v 0.01429769 0.05914099 0.004969764
v -0.01423981 0.059141 0.004969964
v 0.0142977 0.07261977 0.005190768
v -0.0142398 0.07261977 0.005190868
v 0.01042269 0.07284957 0.003280473
v -0.0107713 0.07284958 0.003280473
v 0.0104227 0.08137247 0.00697607
v -0.0107713 0.08137247 0.00697607
v -0.006454317 -0.004691329 -0.002538443
v -0.006453316 -0.004691329 0.002115755
v 0.006104583 -0.004691329 -0.002538443
v 0.006105683 -0.004691329 0.002115755
v -0.01452571 0.059141 -0.003342133
v 0.01422489 0.05914099 -0.003342133
v -0.0145257 0.07261977 -0.00322793
v 0.0142249 0.07261977 -0.00322793
v -0.0107713 0.07299348 -0.00143723
v 0.0104227 0.07299347 -0.00143723
v -0.0107713 0.07878457 -4.053116E-05
v 0.0104227 0.07878457 -4.053116E-05
v 0.006104495 0.05914099 0.003112364
v 0.006104495 0.05914099 -0.001691732
v 0.006105683 -0.004691329 0.002115755
v 0.006104583 -0.004691329 -0.002538443
vt 0.750821 0.650309
vt 0.750821 0.0335972
vt 0.696889 0.650309
vt 0.696889 0.0335972
vt 0.973164 0.964545
vt 0.951222 0.898275
vt 0.876717 0.964545
vt 0.897534 0.898275
vt 0.951223 0.5324
vt 0.973164 0.470234
vt 0.876706 0.470234
vt 0.897526 0.53277
vt 0.707978 0.68859
vt 0.720414 0.767392
vt 0.770612 0.68859
vt 0.756616 0.767392
vt 0.770612 0.965318
vt 0.756616 0.888598
vt 0.707977 0.965318
vt 0.720414 0.888597
vt 0.961996 0.400711
vt 0.961996 0.0353794
vt 0.876706 0.400711
vt 0.876706 0.0353794
vt 0.37411 0.968508
vt 0.37411 0.884864
vt 0.243887 0.968508
vt 0.243887 0.884864
vt 0.243712 0.680517
vt 0.340705 0.680517
vt 0.243712 0.616663
vt 0.340705 0.616663
vt 0.517073 0.650331
vt 0.660228 0.650331
vt 0.517073 0.0335972
vt 0.660228 0.0335972
vt 0.412133 0.968559
vt 0.542361 0.968559
vt 0.412133 0.884864
vt 0.542361 0.884864
vt 0.321313 0.490302
vt 0.243712 0.490302
vt 0.321313 0.570113
vt 0.243712 0.570113
vt 0.208871 0.968695
vt 0.208871 0.0335254
vt 0.0355464 0.968695
vt 0.0355464 0.0335254
vt 0.247348 0.0335254
vt 0.247348 0.45156
vt 0.472578 0.0335254
vt 0.472578 0.45156
vt 0.543852 0.711443
vt 0.243887 0.711443
vt 0.543852 0.847524
vt 0.243887 0.847524
vt 0.397276 0.634101
vt 0.462032 0.634089
vt 0.397276 0.490315
vt 0.462032 0.490302
vt 0.577283 0.68859
vt 0.577283 0.966347
vt 0.678856 0.68859
vt 0.678856 0.966347
vt 0.847917 0.967229
vt 0.847917 0.688764
vt 0.803027 0.967229
vt 0.803027 0.688764
vt 0.840729 0.0335972
vt 0.786797 0.0335972
vt 0.840729 0.650309
vt 0.786797 0.650309
vn -1 0.0001907351 0
vn -1 0.0001907351 0.0001907351
vn -1 0.0001907351 0
vn -1 0.0001907351 0.0002384188
vn 0.04203365 0.9985079 0.03485718
vn 0.03163889 0.996947 0.07138421
vn 0.06296661 0.9969277 -0.04658719
vn 0.04816059 0.9933003 -0.1050473
vn -0.02179221 0.9965284 0.08034982
vn -0.05044872 0.9974828 0.04982885
vn -0.07157207 0.9957625 -0.05774402
vn -0.03810097 0.9928189 -0.1133969
vn 0 -1 0
vn 0 -1 0
vn 0 -1 0
vn 0 -1 0
vn 0 -1 0
vn 0 -1 0
vn 0 -1 0
vn 0 -1 0
vn 0 0.9382201 -0.346039
vn 0 0.9382201 -0.346039
vn 0 0.9382201 -0.346039
vn 0 0.9382201 -0.346039
vn 0.9999628 0.0001430511 -0.008630748
vn 0.9999623 9.536734E-05 -0.008678428
vn 0.999962 9.536731E-05 -0.008726109
vn 0.9999615 4.768363E-05 -0.008773787
vn -1 0 0
vn -1 0 0
vn -1 0 0
vn -1 0 0
vn 0 0.01325587 -0.9999121
vn 0 0.01325587 -0.9999121
vn 0 0.01325587 -0.9999121
vn 0 0.01325587 -0.9999121
vn -0.9994234 -0.0005245316 0.0339515
vn -0.9994136 -0.0003814738 0.03423727
vn -0.9994185 -0.0004291601 0.03409439
vn -0.9994087 -0.0002861039 0.03438016
vn 1 -4.768376E-05 0
vn 1 -4.768376E-05 0
vn 1 0 0
vn 1 0 0
vn 0 -0.01559255 0.9998784
vn 0 -0.01564022 0.9998777
vn 0 -0.01559255 0.9998784
vn 0 -0.01559255 0.9998784
vn 1.192076E-05 -0.01640296 0.9998654
vn 0 -0.01640296 0.9998654
vn 1.192076E-05 -0.01640296 0.9998654
vn 0 -0.01635529 0.9998662
vn 0 -0.3978175 0.9174646
vn 0 -0.3978577 0.9174472
vn 0 -0.3978577 0.9174472
vn 0 -0.3977773 0.917482
vn 0 -1 0
vn 0 -1 0
vn 0 -1 0
vn 0 -1 0
vn 0 0.008487606 -0.999964
vn 0 0.008487606 -0.999964
vn 0 0.008439925 -0.9999644
vn 0 0.008487606 -0.999964
vn 0 0.2344152 -0.9721366
vn 0 0.2344603 -0.9721257
vn 0 0.2344603 -0.9721257
vn 0 0.2345054 -0.9721148
vn 1 4.768376E-05 0
vn 1 4.768376E-05 0
vn 1 0 -0.0002384188
vn 1 0 -0.0002384188
g sight_rear_mosin_izhmash_mosin_std_LOD1_0
f 3/3/3 2/2/2 1/1/1
f 2/2/2 3/3/3 4/4/4
f 7/7/7 6/6/6 5/5/5
f 6/6/6 7/7/7 8/8/8
f 9/9/9 5/5/5 6/6/6
f 5/5/5 9/9/9 10/10/10
f 11/11/11 8/8/8 7/7/7
f 8/8/8 11/11/11 12/12/12
f 10/10/10 12/12/12 11/11/11
f 12/12/12 10/10/10 9/9/9
f 15/15/15 14/14/14 13/13/13
f 14/14/14 15/15/15 16/16/16
f 17/17/17 16/16/16 15/15/15
f 16/16/16 17/17/17 18/18/18
f 19/19/19 18/18/18 17/17/17
f 14/14/14 19/19/19 13/13/13
f 18/18/18 19/19/19 20/20/20
f 19/19/19 14/14/14 20/20/20
f 23/23/23 22/22/22 21/21/21
f 22/22/22 23/23/23 24/24/24
f 27/27/27 26/26/26 25/25/25
f 26/26/26 27/27/27 28/28/28
f 31/31/31 30/30/30 29/29/29
f 30/30/30 31/31/31 32/32/32
f 35/35/35 34/34/34 33/33/33
f 34/34/34 35/35/35 36/36/36
f 39/39/39 38/38/38 37/37/37
f 38/38/38 39/39/39 40/40/40
f 43/43/43 42/42/42 41/41/41
f 42/42/42 43/43/43 44/44/44
f 47/47/47 46/46/46 45/45/45
f 46/46/46 47/47/47 48/48/48
f 51/51/51 50/50/50 49/49/49
f 50/50/50 51/51/51 52/52/52
f 55/55/55 54/54/54 53/53/53
f 54/54/54 55/55/55 56/56/56
f 59/59/59 58/58/58 57/57/57
f 58/58/58 59/59/59 60/60/60
f 63/63/63 62/62/62 61/61/61
f 62/62/62 63/63/63 64/64/64
f 67/67/67 66/66/66 65/65/65
f 66/66/66 67/67/67 68/68/68
f 71/71/71 70/70/70 69/69/69
f 70/70/70 71/71/71 72/72/72
