g sight_rear_mp5_hk_drum_LOD1
v 0.007778537 -0.01962773 -0.0004039955
v 0.00882223 -0.01278506 -0.00215992
v 0.007778509 -0.01961668 -0.002161522
v 0.008822256 -0.01279682 0.001948852
v 0.00777851 -0.008103675 -0.002158852
v 0.007778534 -0.008116169 0.003561077
v 0.00777851 -0.008103675 -0.002158852
v 0.007778534 -0.008116169 0.003561077
v 0.007778532 -0.002354784 0.005297031
v 0.00777851 0.003843632 -0.002156124
v 0.00777853 0.003829727 0.003781548
v 0.00777853 0.00320343 0.006148758
v 0.00777853 0.00146368 0.008147984
v 0.00777853 -0.0008681774 0.009288482
v 0.00777853 -0.002398434 0.009442596
v 0.00777853 0.003829727 0.003781548
v 0.006389638 0.003829689 0.003763618
v 0.00777851 0.003843632 -0.002156124
v -0.007527275 0.003843641 -0.00212595
v -0.006138404 0.003829689 0.003763618
v -0.007527295 0.003829727 0.003781548
v 0.007778534 -0.008116169 0.003561077
v 0.005195436 -0.007088385 0.005330868
v 0.006584326 -0.007088385 0.005330906
v 0.006389644 -0.008116169 0.003561058
v 0.00777853 0.00320343 0.006148758
v 0.006389638 0.001463671 0.008147964
v 0.006389638 0.003203421 0.00614872
v 0.00777853 0.00146368 0.008147984
v 0.00777853 -0.0008681774 0.009288482
v 0.006389638 -0.0008681774 0.009288464
v 0.00638964 -0.002398434 0.009442577
v 0.00777853 -0.002398434 0.009442596
v 0.005547337 -0.006275205 0.009404659
v 0.006936227 -0.006275205 0.009404678
v 0.006584325 -0.007088404 0.008516026
v 0.005195435 -0.007088413 0.008516006
v 0.00777853 0.003829727 0.003781548
v 0.006389638 0.003829689 0.003763618
v 0.006584326 -0.007088385 0.005330906
v 0.005195435 -0.007088413 0.008516006
v 0.006584325 -0.007088404 0.008516026
v 0.005195436 -0.007088385 0.005330868
v 0.006936227 -0.006275205 0.009404678
v 0.006584326 -0.007088385 0.005330906
v 0.006584325 -0.007088404 0.008516026
v 0.006936227 -0.006275205 0.009404678
v 0.007778532 -0.002354784 0.005297031
v 0.006584326 -0.007088385 0.005330906
v 0.00777853 -0.002398434 0.009442596
v 0.007778532 -0.002354784 0.005297031
v 0.007778534 -0.008116169 0.003561077
v 0.006584326 -0.007088385 0.005330906
v 0.005547337 -0.006275205 0.009404659
v 0.00638964 -0.002398443 0.003751163
v 0.00638964 -0.002398434 0.009442577
v 0.005547337 -0.005935459 0.003767643
v 0.006389638 0.003829689 0.003763618
v 0.006389638 -0.0008681774 0.009288464
v 0.006389638 0.003203421 0.00614872
v 0.006389638 0.001463671 0.008147964
v 0.005195436 -0.007088385 0.005330868
v 0.005195435 -0.007088413 0.008516006
v 0.005547337 -0.005935459 0.003767643
v 0.005183511 -0.00708477 0.003767624
v 0.005195436 -0.007088385 0.005330868
v 0.006389644 -0.008116169 0.003561058
v 0.005183511 -0.00708477 0.003767624
v 0.008822256 -0.01279682 0.001948852
v 0.006389644 -0.008116169 0.003561058
v 0.007778534 -0.008116169 0.003561077
v 0.007778537 -0.01962773 -0.0004039955
v -0.006138407 -0.008116169 0.003561058
v -0.007527299 -0.01962773 -0.0004039955
v -0.008571019 -0.01279682 0.001948852
v -0.007527297 -0.008116169 0.003561077
v 0.005183511 -0.00708477 0.003767624
v -0.007527299 -0.01962773 -0.0004039955
v -0.008570992 -0.01278506 -0.002159939
v -0.008571019 -0.01279682 0.001948852
v -0.007527272 -0.01961668 -0.002161541
v -0.007527274 -0.008103675 -0.002158852
v -0.007527297 -0.008116169 0.003561077
v -0.007527274 -0.008103675 -0.002158852
v -0.007527275 0.003843641 -0.00212595
v -0.007527296 -0.002354784 0.005297031
v -0.007527295 0.003829727 0.003781548
v -0.007527295 0.00320343 0.006148758
v -0.007527295 0.00146368 0.008147984
v -0.007527294 -0.0008681774 0.009288482
v -0.007527295 -0.002398434 0.009442596
v -0.007527297 -0.008116169 0.003561077
v -0.007527297 -0.008116169 0.003561077
v -0.004944201 -0.007088385 0.005330868
v -0.006138407 -0.008116169 0.003561058
v -0.006333091 -0.007088385 0.005330906
v -0.007527295 0.00320343 0.006148758
v -0.006138404 0.001463671 0.008147964
v -0.007527295 0.00146368 0.008147984
v -0.006138404 0.003203421 0.00614872
v -0.007527294 -0.0008681774 0.009288482
v -0.006138403 -0.0008681774 0.009288464
v -0.006138404 -0.002398434 0.009442577
v -0.007527295 -0.002398434 0.009442596
v -0.005296101 -0.006275205 0.009404659
v -0.006684992 -0.006275205 0.009404678
v -0.00633309 -0.007088404 0.008516026
v -0.004944199 -0.007088413 0.008516006
v -0.007527295 0.003829727 0.003781548
v -0.006138404 0.003829689 0.003763618
v -0.006333091 -0.007088385 0.005330906
v -0.004944199 -0.007088413 0.008516006
v -0.004944201 -0.007088385 0.005330868
v -0.00633309 -0.007088404 0.008516026
v -0.006333091 -0.007088385 0.005330906
v -0.006684992 -0.006275205 0.009404678
v -0.00633309 -0.007088404 0.008516026
v -0.007527296 -0.002354784 0.005297031
v -0.006684992 -0.006275205 0.009404678
v -0.006333091 -0.007088385 0.005330906
v -0.007527295 -0.002398434 0.009442596
v -0.007527296 -0.002354784 0.005297031
v -0.006333091 -0.007088385 0.005330906
v -0.007527297 -0.008116169 0.003561077
v -0.005296101 -0.006275205 0.009404659
v -0.006138404 -0.002398443 0.003751163
v -0.005296101 -0.005935459 0.003767643
v -0.006138404 -0.002398434 0.009442577
v -0.006138404 0.003829689 0.003763618
v -0.006138403 -0.0008681774 0.009288464
v -0.006138404 0.003203421 0.00614872
v -0.006138404 0.001463671 0.008147964
v -0.004944201 -0.007088385 0.005330868
v -0.004944199 -0.007088413 0.008516006
v -0.005296101 -0.005935459 0.003767643
v -0.004932276 -0.00708477 0.003767624
v -0.004944201 -0.007088385 0.005330868
v -0.004932276 -0.00708477 0.003767624
v -0.006138407 -0.008116169 0.003561058
v 0.005547337 -0.005935459 0.003767643
v -0.006138404 -0.002398443 0.003751163
v 0.00638964 -0.002398443 0.003751163
v -0.005296101 -0.005935459 0.003767643
v -0.004932276 -0.00708477 0.003767624
v 0.005183511 -0.00708477 0.003767624
v 0.006389638 0.003829689 0.003763618
v -0.006138404 0.003829689 0.003763618
v -0.007527299 -0.01962773 -0.0004039955
v 0.007778509 -0.01961668 -0.002161522
v -0.007527272 -0.01961668 -0.002161541
v 0.007778537 -0.01962773 -0.0004039955
v 0.005183511 -0.00708477 0.003767624
v -0.006138407 -0.008116169 0.003561058
v -0.004932276 -0.00708477 0.003767624
v 0.006389644 -0.008116169 0.003561058
v 0.007778537 -0.01962773 -0.0004039955
v 0.005183511 -0.00708477 0.003767624
v 0.005409499 -0.009427051 0.01059372
v 0.00767587 -0.01467424 0.009043121
v 0.005409494 -0.01992145 0.007492542
v -6.201386E-05 -0.0215572 0.006899433
v -6.201148E-05 -0.00725358 0.01123598
v -0.005533521 -0.009427051 0.01059372
v -0.005533525 -0.01992145 0.007492542
v -0.007799896 -0.01467424 0.00904314
v 0.005409493 -0.007034998 0.002499008
v -6.201148E-05 -0.00725358 0.01123598
v -6.201446E-05 -0.004861526 0.003141289
v 0.005409499 -0.009427051 0.01059372
v -0.005533521 -0.009427051 0.01059372
v -0.005533526 -0.007034988 0.002499008
v -0.007799896 -0.01467424 0.00904314
v -0.0077999 -0.0122822 0.0009484291
v -0.005533525 -0.01992145 0.007492542
v -0.005533528 -0.01752939 -0.0006021499
v 0.007675868 -0.0122822 0.0009484291
v 0.00767587 -0.01467424 0.009043121
v 0.00540949 -0.01752939 -0.000602169
v 0.005409494 -0.01992145 0.007492542
v -6.201863E-05 -0.01916514 -0.001195278
v -6.201386E-05 -0.0215572 0.006899433
v -0.005533528 -0.01752939 -0.0006021499
v -0.005533525 -0.01992145 0.007492542
v -0.007527272 -0.01961668 -0.002161541
v 0.00882223 -0.01278506 -0.00215992
v -0.008570992 -0.01278506 -0.002159939
v 0.007778509 -0.01961668 -0.002161522
v -0.007527274 -0.008103675 -0.002158852
v 0.00777851 -0.008103675 -0.002158852
v -0.007527275 0.003843641 -0.00212595
v 0.00777851 0.003843632 -0.002156124
v 0.001216119 0.003271389 0.003674202
v 0.001216119 -0.000552845 0.005332336
v -0.002095766 0.001359272 0.003674202
v -0.002095765 -0.002464962 0.003674221
v 0.00121612 -0.004377069 0.003674221
v 0.004528004 -0.002464962 0.003674221
v 0.004528004 0.001359272 0.003674202
vt 0.4458687 0.3501422
vt 0.5991582 0.3107345
vt 0.4459865 0.311188
vt 0.5991911 0.4018014
vt 0.7054629 0.3104232
vt 0.7055941 0.4371994
vt 0.6177403 0.4312092
vt 0.6176114 0.5560833
vt 0.4917088 0.5935754
vt 0.3569145 0.4304259
vt 0.3567994 0.5600537
vt 0.3703057 0.6117774
vt 0.4081456 0.6555463
vt 0.4589727 0.6806091
vt 0.4923753 0.6840755
vt 0.005934983 0.1361753
vt 0.03671785 0.1357832
vt 0.00593549 0.004574846
vt 0.3451674 0.005243681
vt 0.3143846 0.1357832
vt 0.3451676 0.1361753
vt 0.3522181 0.714764
vt 0.4094701 0.6694038
vt 0.3786868 0.6694028
vt 0.3830012 0.7147645
vt 0.005939581 0.1904467
vt 0.0367236 0.2491846
vt 0.0367227 0.1904444
vt 0.005940728 0.2491853
vt 0.005942643 0.3067179
vt 0.03672501 0.3067153
vt 0.03672986 0.3408013
vt 0.00594686 0.3408055
vt 0.05541031 0.4267285
vt 0.02462719 0.4267304
vt 0.03242661 0.453428
vt 0.06320961 0.4534286
vt 0.005934983 0.1361753
vt 0.03671785 0.1357832
vt 0.02724722 0.5433947
vt 0.05803072 0.4728009
vt 0.02724722 0.4728003
vt 0.05803072 0.5433957
vt 0.1808431 0.5484977
vt 0.1612001 0.4581498
vt 0.1613966 0.5287848
vt 0.1808431 0.5484977
vt 0.2694808 0.4571009
vt 0.1612001 0.4581498
vt 0.2688038 0.5490482
vt 0.03136295 0.7958834
vt 0.07999723 0.6717016
vt 0.02997044 0.6876872
vt 0.5655786 0.1112606
vt 0.4976238 0.01375694
vt 0.4973074 0.1116935
vt 0.5601828 0.01423361
vt 0.3904484 0.01362381
vt 0.4709829 0.1089577
vt 0.401093 0.05470216
vt 0.4309197 0.08920248
vt 0.5808699 0.04116785
vt 0.5808144 0.09597343
vt 0.5601828 0.01423361
vt 0.5809089 0.01426581
vt 0.5808699 0.04116785
vt 0.6082481 0.01095033
vt 0.5809089 0.01426581
vt 0.9970406 0.1658083
vt 0.9431064 0.2755567
vt 0.9738978 0.2755582
vt 0.9739082 0.005637774
vt 0.6653661 0.2755464
vt 0.6345849 0.005625003
vt 0.6114401 0.1657937
vt 0.6345749 0.2755452
vt 0.9163665 0.2986664
vt 0.2897708 0.1859351
vt 0.1487437 0.1496795
vt 0.1487137 0.2334617
vt 0.2896624 0.1500967
vt 0.05094429 0.1493936
vt 0.05082381 0.266028
vt 0.348666 0.563473
vt 0.09190743 0.5633506
vt 0.2246015 0.723307
vt 0.09179628 0.6903082
vt 0.1050917 0.7412251
vt 0.1423415 0.7843112
vt 0.1923759 0.8089833
vt 0.2252575 0.8123957
vt 0.3485389 0.6863997
vt 0.2954638 0.2735834
vt 0.2382122 0.2282232
vt 0.2646806 0.2735839
vt 0.2689955 0.2282222
vt 0.3451627 0.1904467
vt 0.3143789 0.2491846
vt 0.3451619 0.2491853
vt 0.3143802 0.1904444
vt 0.3451602 0.3067179
vt 0.3143772 0.3067153
vt 0.314373 0.3408013
vt 0.345156 0.3408055
vt 0.2956926 0.4267285
vt 0.3264752 0.4267304
vt 0.3186759 0.453428
vt 0.2878932 0.4534286
vt 0.3451676 0.1361753
vt 0.3143846 0.1357832
vt 0.3217915 0.5433951
vt 0.2910084 0.4728005
vt 0.2910084 0.5433961
vt 0.3217912 0.4727999
vt 0.6197151 0.5997733
vt 0.6004648 0.6883142
vt 0.6195223 0.6689957
vt 0.5135999 0.5987455
vt 0.6004648 0.6883142
vt 0.6197151 0.5997733
vt 0.5142634 0.6888537
vt 0.4809988 0.4121492
vt 0.4054771 0.3346582
vt 0.3587996 0.3587292
vt 0.5655786 0.1112606
vt 0.4976238 0.01375694
vt 0.5601828 0.01423361
vt 0.4973074 0.1116935
vt 0.3904484 0.01362381
vt 0.4709829 0.1089577
vt 0.401093 0.05470216
vt 0.4309197 0.08920248
vt 0.5808699 0.04116785
vt 0.5808144 0.09597343
vt 0.5601828 0.01423361
vt 0.5809089 0.01426581
vt 0.5808699 0.04116785
vt 0.5809089 0.01426581
vt 0.6082481 0.01095033
vt 0.9669164 0.3391677
vt 0.7195685 0.4140351
vt 0.9847454 0.4140352
vt 0.7373976 0.3391677
vt 0.7450982 0.3148369
vt 0.9592157 0.314841
vt 0.9847454 0.5458616
vt 0.7195685 0.5458615
vt 0.2624017 0.7741238
vt 0.6016388 0.7351694
vt 0.2624022 0.735169
vt 0.6016395 0.7741238
vt 0.9163665 0.2986664
vt 0.6653661 0.2755464
vt 0.6921045 0.2986622
vt 0.9431064 0.2755567
vt 0.9739082 0.005637774
vt 0.9163665 0.2986664
vt 0.2250833 0.4190308
vt 0.2553568 0.3459449
vt 0.2250829 0.2728592
vt 0.1519967 0.2496554
vt 0.1519973 0.4493042
vt 0.07891093 0.4190312
vt 0.07891041 0.2728595
vt 0.04863721 0.3459454
vt 0.4963143 0.8235353
vt 0.6208759 0.9949949
vt 0.6204945 0.8235353
vt 0.4966956 0.9949949
vt 0.7450571 0.9949949
vt 0.7446761 0.8235353
vt 0.8692386 0.9949949
vt 0.8688572 0.8235353
vt 0.99342 0.9949949
vt 0.9930392 0.8235353
vt 0.372133 0.8235353
vt 0.3725139 0.9949949
vt 0.2479518 0.8235353
vt 0.248333 0.9949949
vt 0.1275775 0.8235353
vt 0.1279588 0.9949949
vt 0.007212838 0.8235353
vt 0.007594511 0.9949949
vt 0.9796878 0.7985655
vt 0.8820711 0.5649197
vt 0.8820602 0.8134763
vt 0.9796974 0.579839
vt 0.8151619 0.7985581
vt 0.8151715 0.5798317
vt 0.6444291 0.7985507
vt 0.6444392 0.5798242
vt 0.4294956 0.1110343
vt 0.4319016 0.2006367
vt 0.5082969 0.1537517
vt 0.510703 0.2433542
vt 0.4343079 0.2902389
vt 0.3555067 0.247522
vt 0.3531004 0.1579194
vn 0.9885358 -0.150985 -0.0008046505
vn 0.9994137 0.03423693 4.918502E-05
vn 0.9885294 -0.1510253 -0.0009652193
vn 0.9973691 0.07249086 0.0001525601
vn 0.976051 0.2175413 0.0005365825
vn 0.9760633 0.2174866 0.000470953
vn 1 6.995859E-07 -3.417371E-06
vn 1 1.66864E-06 -4.164565E-06
vn 1 3.537327E-07 -1.787464E-06
vn 1 -1.767605E-07 -3.026008E-06
vn 1 0 -1.979045E-06
vn 1 3.99574E-07 1.916905E-07
vn 1 3.259627E-07 3.996941E-07
vn 1 5.120797E-07 4.066002E-07
vn 1 8.088333E-07 2.96075E-07
vn -5.769524E-05 0.9999973 0.002341748
vn -2.241095E-05 0.9999973 0.002351764
vn -3.98024E-06 0.9999973 0.002354351
vn 9.869153E-06 0.9999973 0.002363777
vn 2.480505E-05 0.9999973 0.002363122
vn 5.787039E-05 0.9999973 0.002355324
vn -9.360831E-06 -0.8647601 0.5021852
vn -1.132848E-05 -0.8647614 0.5021831
vn -1.379278E-05 -0.864763 0.5021803
vn -6.896493E-06 -0.8647585 0.5021879
vn -1.750727E-05 0.8835629 0.4683126
vn -1.600618E-05 0.6089897 0.7931781
vn -0.0005739786 0.8837094 0.4680356
vn -1.507423E-05 0.6089884 0.7931792
vn -1.368632E-05 0.2740763 0.9617079
vn -1.320703E-05 0.2740774 0.9617076
vn -1.372091E-05 0.04177053 0.9991272
vn -1.371619E-05 0.04930611 0.9987838
vn -1.042888E-05 -0.4680144 0.8837209
vn -1.290329E-05 -0.3423015 0.9395901
vn -6.922532E-06 -0.7377297 0.6750962
vn -4.205476E-06 -0.7377281 0.675098
vn -0.002232394 0.9670561 0.2545539
vn -0.003304975 0.9672078 0.2539648
vn 6.866528E-06 -1 -5.988308E-06
vn 6.866528E-06 -1 -5.988309E-06
vn 6.866528E-06 -1 -5.988308E-06
vn 0 -1 -8.982413E-06
vn 0.9177555 -0.397146 -2.034746E-06
vn 0.9177555 -0.397146 -2.034746E-06
vn 0.9177555 -0.397146 -2.034746E-06
vn 0.9689711 -0.244704 -0.03485559
vn 0.9689711 -0.2447041 -0.03485559
vn 0.9689711 -0.244704 -0.03485559
vn 0.9772032 -0.2122943 -0.002235012
vn 0.7603664 -0.187377 0.6218785
vn 0.7603664 -0.187377 0.6218785
vn 0.7603664 -0.187377 0.6218785
vn -0.9616759 0.2741339 0.005465579
vn -0.9936195 0.1127026 0.004279015
vn -0.9939354 0.1099655 -3.378205E-07
vn -0.9669913 0.2543479 0.0153297
vn -1 -1.899124E-07 0
vn -1 -7.262666E-07 -6.175563E-07
vn -1 0 0
vn -1 0 0
vn -0.9464065 0.3225102 0.0173752
vn -0.9177577 0.397141 3.223798E-06
vn -0.9533412 0.3017893 0.007969915
vn -0.9533414 0.3017893 0.007969915
vn -0.6495889 -0.7602788 0.003197235
vn -0.649589 -0.7602788 0.003197234
vn -0.649589 -0.7602788 0.003197234
vn -1.298422E-05 -0.3256695 0.9454837
vn -1.298423E-05 -0.3256695 0.9454837
vn -1.298422E-05 -0.3256694 0.9454837
vn -1.375975E-06 -0.3256641 0.9454856
vn 1.298423E-05 -0.3256695 0.9454837
vn 1.310452E-06 -0.3256641 0.9454856
vn 1.298422E-05 -0.3256695 0.9454837
vn 1.298422E-05 -0.3256694 0.9454837
vn 0.011233 -0.3134767 0.9495295
vn -0.9885357 -0.1509851 -0.0008046423
vn -0.9994137 0.03423664 4.918391E-05
vn -0.9973691 0.07249082 0.00015256
vn -0.9885294 -0.1510253 -0.0009652093
vn -0.976051 0.2175412 0.0005365813
vn -0.9760633 0.2174866 0.000470953
vn -1 5.313729E-07 -3.447555E-06
vn -1 -3.007971E-07 -3.061586E-06
vn -1 2.195506E-07 -1.80618E-06
vn -1 -2.008709E-07 -1.999644E-06
vn -1 2.996805E-07 1.437679E-07
vn -1 1.827239E-07 3.824738E-07
vn -1 3.978472E-07 4.491458E-07
vn -1 8.088333E-07 2.96075E-07
vn -1 1.461866E-06 -4.165016E-06
vn 9.36083E-06 -0.8647601 0.5021852
vn 1.132848E-05 -0.8647614 0.5021831
vn 6.896493E-06 -0.8647585 0.5021879
vn 1.379278E-05 -0.864763 0.5021803
vn 1.750727E-05 0.8835629 0.4683126
vn 1.600618E-05 0.6089898 0.7931781
vn 1.507423E-05 0.6089885 0.7931791
vn 0.0005739786 0.8837094 0.4680357
vn 1.368632E-05 0.2740763 0.9617079
vn 1.320703E-05 0.2740774 0.9617077
vn 1.372091E-05 0.04177053 0.9991272
vn 1.371619E-05 0.04930611 0.9987838
vn 1.042888E-05 -0.4680144 0.8837209
vn 1.290329E-05 -0.3423015 0.9395901
vn 6.922532E-06 -0.7377297 0.6750962
vn 4.205476E-06 -0.7377281 0.675098
vn 0.002232394 0.9670561 0.2545539
vn 0.003304975 0.9672078 0.2539648
vn 0 -1 -8.982413E-06
vn 0 -1 -8.982413E-06
vn 0 -1 -8.982413E-06
vn -6.866528E-06 -1 -5.988308E-06
vn -0.9177555 -0.397146 -2.034746E-06
vn -0.9177555 -0.397146 -2.034746E-06
vn -0.9177555 -0.397146 -2.034746E-06
vn -0.9689711 -0.2447041 -0.03485559
vn -0.9689711 -0.244704 -0.03485559
vn -0.9689711 -0.244704 -0.03485559
vn -0.9772032 -0.2122943 -0.002235017
vn -0.7603666 -0.187377 0.6218781
vn -0.7603666 -0.187377 0.6218782
vn -0.7603666 -0.1873771 0.6218781
vn 0.9616759 0.2741339 0.005465579
vn 0.9936195 0.1127027 0.004279015
vn 0.9669913 0.2543479 0.0153297
vn 0.9939354 0.1099655 -3.628302E-07
vn 1 0 0
vn 1 -6.903622E-07 -6.864504E-07
vn 1 2.02839E-07 0
vn 1 4.450161E-07 3.872547E-07
vn 0.9464065 0.3225102 0.0173752
vn 0.9177577 0.397141 3.223798E-06
vn 0.9533412 0.3017893 0.007969915
vn 0.9533414 0.3017893 0.007969915
vn 0.6495894 -0.7602785 0.003197231
vn 0.6495894 -0.7602785 0.00319723
vn 0.6495894 -0.7602785 0.00319723
vn 0 0.002732916 0.9999963
vn 0 0.00106198 0.9999995
vn 0 0.00106198 0.9999995
vn 0 0.002732914 0.9999963
vn 0 -1.659558E-05 1
vn 0 -1.659558E-05 1
vn 0 -0.001999791 0.999998
vn 0 -0.001999791 0.999998
vn 0 -0.9999802 -0.006288808
vn 0 -0.9999802 -0.006288808
vn 0 -0.9999802 -0.006288808
vn 0 -0.9999802 -0.006288877
vn 0 -0.1963776 0.9805283
vn 0 -0.1963777 0.9805283
vn 0 -0.1963776 0.9805283
vn -0.1282254 -0.3367703 0.9328151
vn -0.1282254 -0.3367703 0.9328151
vn -0.1282254 -0.3367703 0.9328151
vn -0.005252107 -0.2878449 0.9576627
vn 4.626389E-06 -0.2833932 0.9590037
vn -0.01590355 -0.2833574 0.9588825
vn 0 -0.2855695 0.958358
vn 0 -0.2901372 0.956985
vn 0.005253449 -0.2878448 0.9576627
vn 0.01590493 -0.2833574 0.9588825
vn 3.424731E-06 -0.2833933 0.9590037
vn 0.707107 0.6781179 0.2003891
vn 2.258952E-07 0.9590036 0.2833939
vn 5.647389E-07 0.9590035 0.2833942
vn 0.7071074 0.6781176 0.2003888
vn -0.7071072 0.6781174 0.2003903
vn -0.7071066 0.6781179 0.2003903
vn -1 4.312554E-07 9.497886E-07
vn -1 0 2.464314E-07
vn -0.6783096 -0.7046532 -0.2082307
vn -0.6743114 -0.7081735 -0.209271
vn 1 -3.285749E-07 -4.594914E-07
vn 1 -1.848234E-07 -4.466566E-07
vn 0.6743109 -0.7081739 -0.2092714
vn 0.6783093 -0.7046534 -0.2082312
vn -1.963715E-07 -0.9590037 -0.2833934
vn 0 -0.9590036 -0.2833937
vn -0.6743114 -0.7081735 -0.209271
vn -0.6783096 -0.7046532 -0.2082307
vn 1.096605E-06 0.0002346908 -1
vn 1.096605E-06 0.0002346907 -1
vn 1.096605E-06 0.0002346907 -1
vn 1.246162E-06 0.0002343328 -1
vn 0 0.002753894 -0.9999962
vn -0.001971424 0.0002282944 -0.9999981
vn -0.001971424 0.0002282944 -0.9999981
vn -0.001971424 0.0002282944 -0.9999981
vn 0 0.3978026 0.917471
vn 0 2.424394E-06 1
vn -0.3445058 0.1989037 0.917471
vn -0.344505 -0.1988973 0.9174727
vn 0 -0.3977996 0.9174723
vn 0.344505 -0.1988972 0.9174728
vn 0.3445057 0.1989037 0.9174711
g sight_rear_mp5_hk_drum_LOD1_0
f 3/3/3 2/2/2 1/1/1
f 4/4/4 1/1/1 2/2/2
f 2/2/2 5/5/5 4/4/4
f 6/6/6 4/4/4 5/5/5
f 9/9/9 8/8/8 7/7/7
f 10/10/10 9/9/9 7/7/7
f 11/11/11 9/9/9 10/10/10
f 11/11/11 12/12/12 9/9/9
f 13/13/13 9/9/9 12/12/12
f 13/13/13 14/14/14 9/9/9
f 15/15/15 9/9/9 14/14/14
f 18/18/18 17/17/17 16/16/16
f 18/18/18 19/19/19 17/17/17
f 20/20/20 17/17/17 19/19/19
f 20/20/20 19/19/19 21/21/21
f 24/24/24 23/23/23 22/22/22
f 25/25/25 22/22/22 23/23/23
f 28/28/28 27/27/27 26/26/26
f 29/29/29 26/26/26 27/27/27
f 29/29/29 27/27/27 30/30/30
f 31/31/31 30/30/30 27/27/27
f 31/31/31 32/32/32 30/30/30
f 33/33/33 30/30/30 32/32/32
f 32/32/32 34/34/34 33/33/33
f 35/35/35 33/33/33 34/34/34
f 35/35/35 34/34/34 36/36/36
f 37/37/37 36/36/36 34/34/34
f 26/26/26 38/38/38 28/28/28
f 39/39/39 28/28/28 38/38/38
f 42/42/42 41/41/41 40/40/40
f 43/43/43 40/40/40 41/41/41
f 46/46/46 45/45/45 44/44/44
f 49/49/49 48/48/48 47/47/47
f 47/47/47 48/48/48 50/50/50
f 53/53/53 52/52/52 51/51/51
f 56/56/56 55/55/55 54/54/54
f 57/57/57 54/54/54 55/55/55
f 56/56/56 58/58/58 55/55/55
f 59/59/59 58/58/58 56/56/56
f 58/58/58 59/59/59 60/60/60
f 61/61/61 60/60/60 59/59/59
f 57/57/57 62/62/62 54/54/54
f 63/63/63 54/54/54 62/62/62
f 65/65/65 62/62/62 64/64/64
f 68/68/68 67/67/67 66/66/66
f 71/71/71 70/70/70 69/69/69
f 70/70/70 72/72/72 69/69/69
f 74/74/74 72/72/72 73/73/73
f 74/74/74 73/73/73 75/75/75
f 73/73/73 76/76/76 75/75/75
f 73/73/73 72/72/72 77/77/77
f 80/80/80 79/79/79 78/78/78
f 81/81/81 78/78/78 79/79/79
f 79/79/79 80/80/80 82/82/82
f 83/83/83 82/82/82 80/80/80
f 86/86/86 85/85/85 84/84/84
f 87/87/87 85/85/85 86/86/86
f 87/87/87 86/86/86 88/88/88
f 89/89/89 88/88/88 86/86/86
f 89/89/89 86/86/86 90/90/90
f 91/91/91 90/90/90 86/86/86
f 92/92/92 86/86/86 84/84/84
f 95/95/95 94/94/94 93/93/93
f 96/96/96 93/93/93 94/94/94
f 99/99/99 98/98/98 97/97/97
f 100/100/100 97/97/97 98/98/98
f 99/99/99 101/101/101 98/98/98
f 102/102/102 98/98/98 101/101/101
f 102/102/102 101/101/101 103/103/103
f 104/104/104 103/103/103 101/101/101
f 103/103/103 104/104/104 105/105/105
f 106/106/106 105/105/105 104/104/104
f 106/106/106 107/107/107 105/105/105
f 108/108/108 105/105/105 107/107/107
f 97/97/97 100/100/100 109/109/109
f 110/110/110 109/109/109 100/100/100
f 113/113/113 112/112/112 111/111/111
f 114/114/114 111/111/111 112/112/112
f 117/117/117 116/116/116 115/115/115
f 120/120/120 119/119/119 118/118/118
f 118/118/118 119/119/119 121/121/121
f 124/124/124 123/123/123 122/122/122
f 127/127/127 126/126/126 125/125/125
f 128/128/128 125/125/125 126/126/126
f 129/129/129 128/128/128 126/126/126
f 129/129/129 130/130/130 128/128/128
f 129/129/129 131/131/131 130/130/130
f 132/132/132 130/130/130 131/131/131
f 127/127/127 125/125/125 133/133/133
f 134/134/134 133/133/133 125/125/125
f 133/133/133 136/136/136 135/135/135
f 139/139/139 138/138/138 137/137/137
f 142/142/142 141/141/141 140/140/140
f 143/143/143 140/140/140 141/141/141
f 143/143/143 144/144/144 140/140/140
f 145/145/145 140/140/140 144/144/144
f 142/142/142 146/146/146 141/141/141
f 147/147/147 141/141/141 146/146/146
f 150/150/150 149/149/149 148/148/148
f 151/151/151 148/148/148 149/149/149
f 154/154/154 153/153/153 152/152/152
f 157/157/157 156/156/156 155/155/155
f 160/160/160 159/159/159 158/158/158
f 160/160/160 158/158/158 161/161/161
f 162/162/162 161/161/161 158/158/158
f 162/162/162 163/163/163 161/161/161
f 164/164/164 161/161/161 163/163/163
f 165/165/165 164/164/164 163/163/163
f 168/168/168 167/167/167 166/166/166
f 169/169/169 166/166/166 167/167/167
f 167/167/167 168/168/168 170/170/170
f 171/171/171 170/170/170 168/168/168
f 170/170/170 171/171/171 172/172/172
f 173/173/173 172/172/172 171/171/171
f 172/172/172 173/173/173 174/174/174
f 175/175/175 174/174/174 173/173/173
f 166/166/166 169/169/169 176/176/176
f 177/177/177 176/176/176 169/169/169
f 176/176/176 177/177/177 178/178/178
f 179/179/179 178/178/178 177/177/177
f 178/178/178 179/179/179 180/180/180
f 181/181/181 180/180/180 179/179/179
f 180/180/180 181/181/181 182/182/182
f 183/183/183 182/182/182 181/181/181
f 186/186/186 185/185/185 184/184/184
f 187/187/187 184/184/184 185/185/185
f 186/186/186 188/188/188 185/185/185
f 189/189/189 185/185/185 188/188/188
f 188/188/188 190/190/190 189/189/189
f 191/191/191 189/189/189 190/190/190
f 194/194/194 193/193/193 192/192/192
f 195/195/195 193/193/193 194/194/194
f 196/196/196 193/193/193 195/195/195
f 197/197/197 193/193/193 196/196/196
f 198/198/198 193/193/193 197/197/197
f 192/192/192 193/193/193 198/198/198
