g sight_rear_aps_molot_apb_std_LOD1
v -0.05948453 0.00743927 -0.004652767
v 0.01016049 -0.007378044 -0.004652767
v 0.01016049 0.00743927 -0.004652767
v -0.05948453 -0.007378044 -0.004652767
v 0.01016049 0.00743927 -0.004652767
v 0.01016049 -0.007378044 -0.01160086
v 0.01016049 0.00743927 -0.01160086
v 0.01016049 -0.007378044 -0.004652767
v 0.05948453 0.01881241 -0.00113945
v 0.05948453 -0.01875118 -0.006098728
v 0.05948453 -0.01875118 -0.00113945
v 0.05948453 0.01881241 -0.006098728
v 0.05551635 0.01881241 0.001793651
v 0.05948453 -0.01875118 -0.00113945
v 0.05551635 -0.01875118 0.001793651
v 0.05948453 0.01881241 -0.00113945
v 0.05948453 -0.01875118 -0.006098728
v 0.04292789 -0.01875118 -0.00113945
v 0.04918073 -0.01875118 -0.00113945
v 0.04292789 -0.01875118 -0.006108169
v 0.05948453 -0.01875118 -0.00113945
v 0.05551635 -0.01875118 0.001793651
v 0.05177319 -0.01875118 0.001896954
v 0.05551635 -0.01875118 0.001793651
v 0.05177319 -0.01875118 0.01470076
v 0.05551635 -0.01875118 0.01470076
v 0.05177319 -0.01875118 0.001896954
v 0.01016049 -0.007378044 -0.01160086
v 0.04292789 -0.007378044 -0.006108169
v 0.05571354 -0.007378044 -0.01160086
v 0.01421628 -0.007378044 -0.008587551
v 0.01421628 -0.007378044 0.000293293
v 0.01016049 -0.007378044 -0.004652767
v -0.05948453 -0.007378044 -0.004652767
v -0.05948453 -0.007378044 0.000293293
v 0.05571354 -0.007378044 -0.006108169
v 0.04292789 -0.007378044 -0.006108169
v 0.01421628 0.00743927 -0.008587551
v 0.04292789 0.00743927 -0.006108169
v 0.01421628 -0.007378044 -0.008587551
v 0.05571354 0.00743927 -0.01160086
v 0.01016049 -0.007378044 -0.01160086
v 0.05571354 -0.007378044 -0.01160086
v 0.01016049 0.00743927 -0.01160086
v 0.05551635 0.01881241 0.01470076
v 0.05551635 -0.01875118 0.001793651
v 0.05551635 -0.01875118 0.01470076
v 0.05551635 0.01881241 0.001793651
v 0.05948453 0.01881241 -0.006098728
v 0.05948453 0.01881241 -0.00113945
v 0.04918073 0.01881241 -0.00113945
v 0.05551635 0.01881241 0.001793651
v 0.05177319 0.01881241 0.001896954
v 0.04292789 0.01881241 -0.00113945
v 0.04292789 0.01881241 -0.006108169
v 0.05551635 0.01881241 0.001793651
v 0.05177319 0.01881241 0.01470076
v 0.05177319 0.01881241 0.001896954
v 0.05551635 0.01881241 0.01470076
v 0.01016049 0.00743927 -0.01160086
v 0.04292789 0.00743927 -0.006108169
v 0.01421628 0.00743927 -0.008587551
v 0.05571354 0.00743927 -0.01160086
v 0.01421628 0.00743927 0.000293293
v 0.01016049 0.00743927 -0.004652767
v -0.05948453 0.00743927 -0.004652767
v -0.05948453 0.00743927 0.000293293
v 0.05571354 0.00743927 -0.006108169
v -0.05948453 0.00743927 -0.004652767
v -0.05948453 -0.007378044 0.000293293
v -0.05948453 -0.007378044 -0.004652767
v -0.05948453 0.00743927 0.000293293
v -0.05948453 -0.007378044 0.000293293
v 0.01421628 0.00743927 0.000293293
v 0.01421628 -0.007378044 0.000293293
v -0.05948453 0.00743927 0.000293293
v 0.04292789 -0.01875118 -0.00113945
v 0.04918073 0.01881241 -0.00113945
v 0.04918073 -0.01875118 -0.00113945
v 0.04292789 0.01881241 -0.00113945
v 0.04918073 -0.01875118 -0.00113945
v 0.05177319 0.01881241 0.001896954
v 0.05177319 -0.01875118 0.001896954
v 0.04918073 0.01881241 -0.00113945
v 0.05177319 -0.01875118 0.001896954
v 0.05177319 0.01881241 0.01470076
v 0.05177319 -0.01875118 0.01470076
v 0.05177319 0.01881241 0.001896954
v 0.04292789 0.01881241 -0.006108169
v 0.04292789 0.01881241 -0.00113945
v 0.04292789 0.00743927 -0.006108169
v 0.04292789 -0.01875118 -0.00113945
v 0.04292789 -0.007378044 -0.006108169
v 0.04292789 -0.01875118 -0.006108169
v 0.01421628 -0.007378044 0.000293293
v 0.01421628 0.00743927 -0.008587551
v 0.01421628 -0.007378044 -0.008587551
v 0.01421628 0.00743927 0.000293293
v 0.05551635 0.01881241 0.01470076
v 0.05177319 -0.01875118 0.01470076
v 0.05177319 0.01881241 0.01470076
v 0.05551635 -0.01875118 0.01470076
v 0.02826114 0.01884882 -0.01589609
v 0.04202755 -0.01884882 -0.007948036
v 0.04202754 0.01884882 -0.007948036
v 0.02826114 -0.01884882 -0.01589609
v 0.01449472 0.01884882 -0.007948036
v 0.01449472 -0.01884882 -0.007948036
v 0.01449472 0.01884882 0.007948036
v 0.01449472 -0.01884878 0.007948036
v 0.04202754 0.01884882 -0.007948036
v 0.04202755 -0.01884878 0.007948036
v 0.04202754 0.01884882 0.007948036
v 0.04202755 -0.01884882 -0.007948036
v 0.02826114 -0.01884878 0.01589609
v 0.02826114 0.01884882 0.01589609
v 0.01449472 -0.01884878 0.007948036
v 0.01449472 0.01884882 0.007948036
v 0.01449472 0.01884882 0.007948036
v 0.04202754 0.01884882 0.007948036
v 0.02826114 0.01884882 0.01589609
v 0.02826114 0.01884882 -0.01589609
v 0.04202754 0.01884882 -0.007948036
v 0.01449472 0.01884882 -0.007948036
v 0.04202755 -0.01884882 -0.007948036
v 0.02826114 -0.01884878 0.01589609
v 0.04202755 -0.01884878 0.007948036
v 0.01449472 -0.01884882 -0.007948036
v 0.01449472 -0.01884878 0.007948036
v 0.02826114 -0.01884882 -0.01589609
v 0.05571354 0.00743927 -0.006108169
v 0.05571354 -0.007378044 -0.01160086
v 0.05571354 -0.007378044 -0.006108169
v 0.05571354 0.00743927 -0.01160086
v 0.05571354 0.00743927 -0.006108169
v 0.04292789 0.01881241 -0.006108169
v 0.04292789 0.00743927 -0.006108169
v 0.05948453 0.01881241 -0.006098728
v 0.05948453 -0.01875118 -0.006098728
v 0.05571354 -0.007378044 -0.006108169
v 0.04292789 -0.01875118 -0.006108169
v 0.04292789 -0.007378044 -0.006108169
vt 0.6879992 0.7031299
vt 0.3262067 0.6261564
vt 0.3262067 0.7031299
vt 0.6879992 0.6261568
vt 0.3262067 0.7031299
vt 0.2901126 0.6261564
vt 0.2901126 0.7031299
vt 0.3262067 0.6261564
vt 0.8530204 0.9337444
vt 0.8787829 0.7385961
vt 0.8530204 0.7386084
vt 0.8787829 0.9337566
vt 0.8324064 0.9337444
vt 0.8530204 0.7386084
vt 0.8324064 0.7386084
vt 0.8530204 0.9337444
vt 0.8787829 0.7385961
vt 0.9647915 0.7128214
vt 0.9323093 0.7128214
vt 0.9647915 0.7386205
vt 0.8787829 0.7128214
vt 0.8993968 0.6975844
vt 0.9188418 0.6970476
vt 0.8324064 0.7386084
vt 0.7653565 0.7191629
vt 0.7653565 0.7386084
vt 0.8318697 0.7191634
vt 0.3889755 0.7359022
vt 0.5390964 0.7644358
vt 0.5976726 0.7359022
vt 0.4075569 0.7515557
vt 0.4100446 0.7976902
vt 0.3889755 0.7719961
vt 0.02718292 0.7719961
vt 0.02718292 0.7976902
vt 0.5976726 0.7644358
vt 0.6053305 0.7976897
vt 0.456179 0.874663
vt 0.6053305 0.874663
vt 0.456179 0.7976897
vt 0.05347271 0.7031299
vt 0.2901126 0.6261564
vt 0.05347271 0.6261564
vt 0.2901126 0.7031299
vt 0.7653565 0.9337444
vt 0.8324064 0.7386084
vt 0.7653565 0.7386084
vt 0.8324064 0.9337444
vt 0.8787829 0.9337566
vt 0.8787829 0.9595313
vt 0.9323093 0.9595313
vt 0.8993968 0.9747683
vt 0.9188418 0.9753047
vt 0.9647915 0.9595313
vt 0.9647915 0.933732
vt 0.8324064 0.9337444
vt 0.7653565 0.9531893
vt 0.8318697 0.9531893
vt 0.7653565 0.9337444
vt 0.3889755 0.9364507
vt 0.5390964 0.9079175
vt 0.4075569 0.9207973
vt 0.5976728 0.9364507
vt 0.4100446 0.874663
vt 0.3889755 0.9003568
vt 0.02718292 0.9003568
vt 0.02718292 0.874663
vt 0.5976728 0.9079175
vt 0.6879992 0.7031299
vt 0.713693 0.6261568
vt 0.6879992 0.6261568
vt 0.713693 0.7031299
vt 0.02718292 0.7976902
vt 0.4100446 0.874663
vt 0.4100446 0.7976902
vt 0.02718292 0.874663
vt 0.6311421 0.7386079
vt 0.6636244 0.9337444
vt 0.6636244 0.7386084
vt 0.6311421 0.9337444
vt 0.6636244 0.7386084
vt 0.6793979 0.9337444
vt 0.6793979 0.7386084
vt 0.6636244 0.9337444
vt 0.6793979 0.7386084
vt 0.7459114 0.9337444
vt 0.7459114 0.7386084
vt 0.6793979 0.9337444
vt 0.6053305 0.9337444
vt 0.6311421 0.9337444
vt 0.6053305 0.874663
vt 0.6311421 0.7386079
vt 0.6053305 0.7976897
vt 0.6053305 0.7386079
vt 0.4100446 0.7976902
vt 0.456179 0.874663
vt 0.456179 0.7976897
vt 0.4100446 0.874663
vt 0.7653565 0.9337444
vt 0.7459114 0.7386084
vt 0.7459114 0.9337444
vt 0.7653565 0.7386084
vt 0.2688641 0.223726
vt 0.1946762 0.02789402
vt 0.1946762 0.223726
vt 0.2688641 0.02789402
vt 0.3403782 0.223726
vt 0.3403782 0.02789402
vt 0.4174234 0.223726
vt 0.4174234 0.02789402
vt 0.1946762 0.223726
vt 0.2688641 0.02789402
vt 0.2688641 0.223726
vt 0.1946762 0.02789402
vt 0.3403782 0.02789402
vt 0.3403782 0.223726
vt 0.4174234 0.02789402
vt 0.4174234 0.223726
vt 0.168919 0.1527492
vt 0.02589143 0.1527492
vt 0.09740513 0.1940376
vt 0.09740513 0.02888369
vt 0.02589143 0.07017209
vt 0.168919 0.07017209
vt 0.168919 0.07017209
vt 0.09740513 0.1940376
vt 0.168919 0.1527492
vt 0.02589143 0.07017209
vt 0.02589143 0.1527492
vt 0.09740513 0.02888369
vt 0.02493925 0.7031299
vt 0.05347271 0.6261564
vt 0.02493925 0.6261564
vt 0.05347271 0.7031299
vt 0.8983724 0.874663
vt 0.9647915 0.933732
vt 0.9647915 0.874663
vt 0.8787829 0.9337566
vt 0.8787829 0.7385961
vt 0.8983724 0.7976897
vt 0.9647915 0.7386205
vt 0.9647915 0.7976897
vn 0 0 -1
vn 0 0 -1
vn 0 0 -1
vn 0 0 -1
vn -1 0 0
vn -1 0 0
vn -1 0 0
vn -1 0 0
vn 1 0 0
vn 1 0 0
vn 1 0 0
vn 1 0 0
vn 0.5944039 0 0.8041666
vn 0.5944038 0 0.8041666
vn 0.5944038 0 0.8041666
vn 0.5944038 0 0.8041666
vn 0 -1 0
vn 0 -1 0
vn 0 -1 0
vn 0 -1 0
vn 0 -1 0
vn 0 -1 0
vn 0 -1 0
vn 0 -1 0
vn 0 -1 0
vn 0 -1 0
vn 0 -1 0
vn 0 -1 0
vn 0 -1 0
vn 0 -1 0
vn 0 -1 0
vn 0 -1 0
vn 0 -1 0
vn 0 -1 0
vn 0 -1 0
vn 0 -1 0
vn -0.08603448 0 0.9962922
vn -0.08603448 0 0.9962922
vn -0.08603447 0 0.9962922
vn -0.08603447 0 0.9962922
vn 0 0 -1
vn 0 0 -1
vn 0 0 -1
vn 0 0 -1
vn 1 0 0
vn 1 0 0
vn 1 0 0
vn 1 0 0
vn 0 1 0
vn 0 1 0
vn 0 1 0
vn 0 1 0
vn 0 1 0
vn 0 1 0
vn 0 1 0
vn 0 1 0
vn 0 1 0
vn 0 1 0
vn 0 1 0
vn 0 1 0
vn 0 1 0
vn 0 1 0
vn 0 1 0
vn 0 1 0
vn 0 1 0
vn 0 1 0
vn 0 1 0
vn 0 1 0
vn -1 0 0
vn -1 0 0
vn -1 0 0
vn -1 0 0
vn 0 0 1
vn 0 0 1
vn 0 0 1
vn 0 0 1
vn 0 0 1
vn 0 0 1
vn 0 0 1
vn 0 0 1
vn -0.7605129 0 0.6493227
vn -0.760513 0 0.6493227
vn -0.7605129 0 0.6493227
vn -0.7605129 0 0.6493227
vn -1 0 0
vn -1 0 0
vn -1 0 0
vn -1 0 0
vn -1 0 0
vn -1 0 0
vn -1 0 0
vn -1 0 0
vn -1 0 0
vn -1 0 0
vn 1 0 0
vn 1 0 0
vn 1 0 0
vn 1 0 0
vn 0 0 1
vn 0 0 1
vn 0 0 1
vn 0 0 1
vn 1.752628E-07 0 -1
vn 0.8660253 1.646104E-07 -0.5000001
vn 0.8660256 2.190872E-07 -0.4999997
vn 0 0 -1
vn -0.8660256 0 -0.4999997
vn -0.8660253 0 -0.5000001
vn -0.8660256 0 0.4999997
vn -0.8660258 0 0.4999993
vn 0.8660256 2.190872E-07 -0.4999997
vn 0.8660258 2.190872E-07 0.4999993
vn 0.8660256 1.646106E-07 0.4999996
vn 0.8660253 1.646104E-07 -0.5000001
vn 0 0 1
vn 2.026476E-07 0 1
vn -0.8660258 0 0.4999993
vn -0.8660256 0 0.4999997
vn 0 1 0
vn 0 1 0
vn 0 1 0
vn 0 1 0
vn 0 1 0
vn 0 1 0
vn 3.463779E-07 -1 1.399867E-06
vn 0 -1 1.99981E-06
vn 1.385512E-06 -1 2.399773E-06
vn -3.463779E-07 -1 1.399867E-06
vn -1.385512E-06 -1 2.399773E-06
vn 0 -1 0
vn 1 0 0
vn 1 0 0
vn 1 0 0
vn 1 0 0
vn 0.0003510102 0.0003946045 -0.9999999
vn 0.0002639222 0.0002967005 -1
vn 0 0 -1
vn 0.000570247 0.0006410699 -0.9999996
vn 0.002503678 0 -0.9999969
vn 0.002503678 0 -0.9999969
vn 0.0002639222 -0.0002967005 -1
vn 0 0 -1
g sight_rear_aps_molot_apb_std_LOD1_0
f 3/3/3 2/2/2 1/1/1
f 4/4/4 1/1/1 2/2/2
f 7/7/7 6/6/6 5/5/5
f 8/8/8 5/5/5 6/6/6
f 11/11/11 10/10/10 9/9/9
f 12/12/12 9/9/9 10/10/10
f 15/15/15 14/14/14 13/13/13
f 16/16/16 13/13/13 14/14/14
f 19/19/19 18/18/18 17/17/17
f 18/18/18 20/20/20 17/17/17
f 21/21/21 19/19/19 17/17/17
f 21/21/21 22/22/22 19/19/19
f 23/23/23 19/19/19 22/22/22
f 26/26/26 25/25/25 24/24/24
f 27/27/27 24/24/24 25/25/25
f 30/30/30 29/29/29 28/28/28
f 31/31/31 28/28/28 29/29/29
f 31/31/31 32/32/32 28/28/28
f 33/33/33 28/28/28 32/32/32
f 33/33/33 32/32/32 34/34/34
f 35/35/35 34/34/34 32/32/32
f 30/30/30 36/36/36 29/29/29
f 39/39/39 38/38/38 37/37/37
f 40/40/40 37/37/37 38/38/38
f 43/43/43 42/42/42 41/41/41
f 44/44/44 41/41/41 42/42/42
f 47/47/47 46/46/46 45/45/45
f 48/48/48 45/45/45 46/46/46
f 51/51/51 50/50/50 49/49/49
f 50/50/50 51/51/51 52/52/52
f 53/53/53 52/52/52 51/51/51
f 54/54/54 51/51/51 49/49/49
f 54/54/54 49/49/49 55/55/55
f 58/58/58 57/57/57 56/56/56
f 59/59/59 56/56/56 57/57/57
f 62/62/62 61/61/61 60/60/60
f 63/63/63 60/60/60 61/61/61
f 62/62/62 60/60/60 64/64/64
f 65/65/65 64/64/64 60/60/60
f 65/65/65 66/66/66 64/64/64
f 67/67/67 64/64/64 66/66/66
f 68/68/68 63/63/63 61/61/61
f 71/71/71 70/70/70 69/69/69
f 72/72/72 69/69/69 70/70/70
f 75/75/75 74/74/74 73/73/73
f 76/76/76 73/73/73 74/74/74
f 79/79/79 78/78/78 77/77/77
f 80/80/80 77/77/77 78/78/78
f 83/83/83 82/82/82 81/81/81
f 84/84/84 81/81/81 82/82/82
f 87/87/87 86/86/86 85/85/85
f 88/88/88 85/85/85 86/86/86
f 91/91/91 90/90/90 89/89/89
f 90/90/90 91/91/91 92/92/92
f 93/93/93 92/92/92 91/91/91
f 94/94/94 92/92/92 93/93/93
f 97/97/97 96/96/96 95/95/95
f 98/98/98 95/95/95 96/96/96
f 101/101/101 100/100/100 99/99/99
f 102/102/102 99/99/99 100/100/100
f 105/105/105 104/104/104 103/103/103
f 106/106/106 103/103/103 104/104/104
f 103/103/103 106/106/106 107/107/107
f 108/108/108 107/107/107 106/106/106
f 107/107/107 108/108/108 109/109/109
f 110/110/110 109/109/109 108/108/108
f 113/113/113 112/112/112 111/111/111
f 114/114/114 111/111/111 112/112/112
f 112/112/112 113/113/113 115/115/115
f 116/116/116 115/115/115 113/113/113
f 115/115/115 116/116/116 117/117/117
f 118/118/118 117/117/117 116/116/116
f 121/121/121 120/120/120 119/119/119
f 120/120/120 122/122/122 119/119/119
f 123/123/123 122/122/122 120/120/120
f 119/119/119 122/122/122 124/124/124
f 127/127/127 126/126/126 125/125/125
f 126/126/126 128/128/128 125/125/125
f 129/129/129 128/128/128 126/126/126
f 125/125/125 128/128/128 130/130/130
f 133/133/133 132/132/132 131/131/131
f 134/134/134 131/131/131 132/132/132
f 137/137/137 136/136/136 135/135/135
f 138/138/138 135/135/135 136/136/136
f 138/138/138 139/139/139 135/135/135
f 140/140/140 135/135/135 139/139/139
f 139/139/139 141/141/141 140/140/140
f 142/142/142 140/140/140 141/141/141
