g sight_rear_glock_zev_tech_LOD1
v -0.008186273 -0.004250078 -0.001600935
v -0.008186276 0.003954029 -0.001600935
v -0.008186272 0.003938236 0.004842058
v -0.00818627 -0.004250078 0.004842058
v 0.008628714 -0.004250078 -0.001600941
v 0.008628715 -0.004250078 0.004842053
v 0.008628714 0.003938236 0.004842054
v 0.008628711 0.003954029 -0.001600941
v -0.008186276 0.003954029 -0.001600935
v -0.005178289 0.003938236 0.007944227
v -0.008186272 0.003938236 0.004842058
v 0.005362476 0.003938236 0.007944225
v 0.008628711 0.003954029 -0.001600941
v 0.008628714 0.003938236 0.004842054
v -0.00818627 -0.004250078 0.004842058
v -0.008186272 0.003938236 0.004842058
v -0.005178289 0.003938236 0.007944227
v -0.005178286 -0.004250078 0.007944227
v -0.00818627 -0.004250078 0.004842058
v -0.005178286 -0.004250078 0.007944227
v -0.008186273 -0.004250078 -0.001600935
v 0.008628714 -0.004250078 -0.001600941
v 0.005362479 -0.004250078 0.007944224
v 0.008628715 -0.004250078 0.004842053
v 0.008628715 -0.004250078 0.004842053
v 0.005362479 -0.004250078 0.007944224
v 0.005362476 0.003938236 0.007944225
v 0.008628714 0.003938236 0.004842054
v 0.008628711 0.003954029 -0.001600941
v -0.008186276 0.003954029 -0.001600935
v -0.008186273 -0.004250078 -0.001600935
v 0.008628714 -0.004250078 -0.001600941
v 0.005362479 -0.004250078 0.007944224
v -0.005178286 -0.004250078 0.007944227
v -0.005178289 0.003938236 0.007944227
v 0.005362476 0.003938236 0.007944225
vt 0.9879435 0.01927939
vt 0.74357 0.01927939
vt 0.7440405 0.2111949
vt 0.9879435 0.2111949
vt 0.9879435 0.9799725
vt 0.9879435 0.7880571
vt 0.7440405 0.7880571
vt 0.74357 0.9799725
vt 0.4024038 0.769386
vt 0.3316212 0.9939988
vt 0.4024038 0.9209999
vt 0.0835816 0.9939988
vt 0.006722696 0.7693862
vt 0.006722696 0.9210001
vt 0.9879435 0.2111949
vt 0.7440405 0.2111949
vt 0.7440405 0.3399047
vt 0.9879435 0.3399047
vt 0.009491522 0.6792794
vt 0.08027381 0.752278
vt 0.009491473 0.5276661
vt 0.4051731 0.5276661
vt 0.3283137 0.752278
vt 0.405173 0.6792794
vt 0.9879435 0.7880571
vt 0.9879435 0.653879
vt 0.7440405 0.653879
vt 0.7440405 0.7880571
vt 0.02136511 0.2619301
vt 0.5222281 0.2619301
vt 0.5222281 0.01755652
vt 0.02136517 0.01755652
vt 0.9879435 0.653879
vt 0.9879435 0.3399047
vt 0.7440405 0.3399047
vt 0.7440405 0.653879
vn -1 0 0
vn -1 0 0
vn -1 0 0
vn -1 0 0
vn 1 0 0
vn 1 0 0
vn 1 0 0
vn 1 0 0
vn -0.000488746 0.9999982 0.001811936
vn -0.0005006667 0.9999982 0.001811936
vn -0.002527164 0.9999938 0.00245266
vn 0.0004768254 0.9999983 0.001811937
vn 0.000488746 0.9999982 0.001823857
vn 0.002324515 0.9999943 0.002452661
vn -0.7179229 0 0.6961226
vn -0.7179229 0 0.6961226
vn -0.7179216 0 0.6961241
vn -0.7179216 0 0.6961241
vn 0 -1 0
vn 0 -1 0
vn 0 -1 0
vn 0 -1 0
vn 0 -1 0
vn 0 -1 0
vn 0.6886615 0 0.725083
vn 0.68866 0 0.7250844
vn 0.688663 0 0.7250816
vn 0.68866 0 0.7250844
vn 0 0 -1
vn 0 0 -1
vn 0 0 -1
vn 0 0 -1
vn 0 0 1
vn 0 0 1
vn 5.96047E-06 0 1
vn 0 0 1
g sight_rear_glock_zev_tech_LOD1_0
f 3/3/3 2/2/2 1/1/1
f 4/4/4 3/3/3 1/1/1
f 7/7/7 6/6/6 5/5/5
f 8/8/8 7/7/7 5/5/5
f 11/11/11 10/10/10 9/9/9
f 9/9/9 10/10/10 12/12/12
f 13/13/13 9/9/9 12/12/12
f 14/14/14 13/13/13 12/12/12
f 17/17/17 16/16/16 15/15/15
f 18/18/18 17/17/17 15/15/15
f 21/21/21 20/20/20 19/19/19
f 20/20/20 21/21/21 22/22/22
f 23/23/23 20/20/20 22/22/22
f 24/24/24 23/23/23 22/22/22
f 27/27/27 26/26/26 25/25/25
f 28/28/28 27/27/27 25/25/25
f 31/31/31 30/30/30 29/29/29
f 32/32/32 31/31/31 29/29/29
f 35/35/35 34/34/34 33/33/33
f 36/36/36 35/35/35 33/33/33
