g sight_rear_ak_izhmash_akm_std_LOD1
v 0.0107174 0.0487764 -0.002630997
v 0.0107174 0.0524774 -0.002693
v 0.005944402 0.0487764 -0.002630997
v -0.006071598 0.0487764 -0.002630997
v -0.0108446 0.0524774 -0.002693
v -0.0108446 0.0487764 -0.002630997
v -0.005036938 -0.004830608 -0.0001394987
v 0.004909752 -0.004830608 -0.0001394987
v -0.0108446 0.04886539 0.002331004
v -0.006071598 0.0488394 0.001049004
v -0.0108446 0.0487764 -0.002630997
v -0.006071598 0.0487764 -0.002630997
v 0.005944402 0.0488394 0.001049004
v 0.0107174 0.04886539 0.002331004
v 0.0107174 0.0487764 -0.002630997
v 0.005944402 0.0487764 -0.002630997
v 0.0107174 0.05325839 0.0046559
v 0.0107174 0.0524774 -0.002693
v 0.0107174 0.04886539 0.002331004
v 0.0107174 0.0487764 -0.002630997
v -0.0108446 0.05325839 0.0046559
v -0.0108446 0.04886539 0.002331004
v -0.0108446 0.0524774 -0.002693
v -0.0108446 0.0487764 -0.002630997
v 0.0107174 0.0524774 -0.002693
v 0.0107174 0.05325839 0.0046559
v -0.0108446 0.0524774 -0.002693
v -0.0108446 0.05325839 0.0046559
v -0.0108446 0.05325839 0.0046559
v 0.0107174 0.05325839 0.0046559
v -0.0108446 0.04886539 0.002331004
v 0.0107174 0.04886539 0.002331004
v 0.0158813 0.0479795 0.002874904
v 0.0158813 0.0478243 -0.005777397
v 0.0158813 0.03957009 0.002874904
v 0.0158813 0.03941499 -0.005777397
v -0.0146032 0.0479795 0.002874904
v -0.0146032 0.0478243 -0.005777397
v 0.0158813 0.0479795 0.002874904
v 0.0158813 0.0478243 -0.005777397
v -0.0146032 0.0478243 -0.005777397
v -0.0146032 0.03941499 -0.005777397
v 0.0158813 0.0478243 -0.005777397
v 0.0158813 0.03941499 -0.005777397
v -0.0146032 0.03941499 -0.005777397
v -0.0146032 0.03957009 0.002874904
v 0.0158813 0.03941499 -0.005777397
v 0.0158813 0.03957009 0.002874904
v -0.0146032 0.03957009 0.002874904
v -0.0146032 0.0479795 0.002874904
v 0.0158813 0.03957009 0.002874904
v 0.0158813 0.0479795 0.002874904
v -0.0146032 0.0479795 0.002874904
v -0.0146032 0.03957009 0.002874904
v -0.0146032 0.0478243 -0.005777397
v -0.0146032 0.03941499 -0.005777397
v 0.005944402 0.0488394 0.001049004
v 0.004909752 -0.004830608 -0.0001394987
v -0.006071598 0.0488394 0.001049004
v -0.005036938 -0.004830608 -0.0001394987
v 0.005944402 0.0488394 0.001049004
v 0.005944402 0.0487764 -0.002630997
v 0.004909752 -0.004830608 -0.0001394987
v -0.006071598 0.0488394 0.001049004
v -0.005036938 -0.004830608 -0.0001394987
v -0.006071598 0.0487764 -0.002630997
vt 0.05 0.663424
vt 0.05 0.705754
vt 0.104583 0.663424
vt 0.241994 0.663424
vt 0.296576 0.705754
vt 0.296576 0.663424
vt 0.241994 0.05
vt 0.104583 0.0500003
vt 0.828476 0.578776
vt 0.843736 0.635579
vt 0.887537 0.578776
vt 0.887537 0.635578
vt 0.843736 0.778578
vt 0.828476 0.83538
vt 0.887534 0.835381
vt 0.887536 0.77858
vt 0.901917 0.681594
vt 0.901917 0.753519
vt 0.95 0.681594
vt 0.95 0.753519
vt 0.637529 0.356936
vt 0.685612 0.356936
vt 0.637529 0.285012
vt 0.685612 0.285012
vt 0.894131 0.152637
vt 0.894131 0.0646882
vt 0.637529 0.152637
vt 0.637529 0.0646882
vt 0.894131 0.182194
vt 0.637529 0.182194
vt 0.894131 0.241344
vt 0.637529 0.241344
vt 0.928537 0.534878
vt 0.928537 0.431894
vt 0.828476 0.534878
vt 0.828476 0.431894
vt 0.490647 0.427475
vt 0.593631 0.427475
vt 0.490647 0.0646882
vt 0.593631 0.0646883
vt 0.590724 0.46127
vt 0.490647 0.46127
vt 0.590724 0.824057
vt 0.490647 0.824057
vt 0.412787 0.843331
vt 0.412787 0.740347
vt 0.05 0.843331
vt 0.05 0.740347
vt 0.722918 0.46127
vt 0.622841 0.46127
vt 0.722918 0.824057
vt 0.622841 0.824057
vt 0.828476 0.387996
vt 0.928537 0.387996
vt 0.828476 0.285012
vt 0.928537 0.285012
vt 0.329076 0.0646883
vt 0.329076 0.703094
vt 0.459762 0.0646882
vt 0.459762 0.703094
vt 0.688509 0.928215
vt 0.688484 0.887229
vt 0.0500107 0.928215
vt 0.755035 0.285012
vt 0.755035 0.923511
vt 0.796021 0.285036
vn 0 -0.01675072 -0.9998597
vn 0 -0.01675072 -0.9998597
vn 0 -0.02656413 -0.9996471
vn 0 -0.02656414 -0.9996471
vn 0 -0.01675072 -0.9998597
vn 0 -0.01675072 -0.9998597
vn 0 -0.04642698 -0.9989218
vn 0 -0.04642698 -0.9989218
vn -0.0005240632 -0.9998319 0.01832404
vn -0.0001227475 -0.9998156 0.01920527
vn -0.0003660735 -0.9998451 0.01759164
vn 0 -0.9998535 0.01711698
vn 0.0001227475 -0.9998156 0.01920526
vn 0.000524063 -0.9998319 0.01832405
vn 0.0003660735 -0.9998451 0.01759164
vn 0 -0.9998535 0.01711698
vn 1 0 0
vn 1 0 0
vn 1 0 0
vn 1 0 0
vn -1 0 0
vn -1 0 0
vn -1 0 0
vn -1 0 0
vn 0 0.9944004 -0.1056783
vn 0 0.9944004 -0.1056783
vn 0 0.9944004 -0.1056783
vn 0 0.9944004 -0.1056783
vn 0 -0.4677607 0.8838551
vn 0 -0.4677607 0.8838551
vn 0 -0.4677607 0.8838551
vn 0 -0.4677607 0.8838551
vn 1 0 0
vn 1 0 0
vn 1 0 0
vn 1 0 0
vn 0 0.9998392 -0.01793465
vn 0 0.9998392 -0.01793465
vn 0 0.9998392 -0.01793465
vn 0 0.9998392 -0.01793465
vn 0 0 -1
vn 0 0 -1
vn 0 0 -1
vn 0 0 -1
vn 0 -0.9998394 0.01792254
vn 0 -0.9998394 0.01792253
vn 0 -0.9998394 0.01792253
vn 0 -0.9998394 0.01792254
vn 0 0 1
vn 0 0 1
vn 0 0 1
vn 0 0 1
vn -1 0 0
vn -1 0 0
vn -1 0 0
vn -1 0 0
vn 0 -0.0221392 0.9997548
vn 0 -0.0221392 0.9997548
vn 0 -0.0221392 0.9997548
vn 0 -0.0221392 0.9997548
vn 0.9998141 -0.01928172 0.0003300932
vn 0.9998141 -0.01928172 0.0003300932
vn 0.9998141 -0.01928172 0.0003300933
vn -0.9998141 -0.0192819 0.0003300963
vn -0.9998141 -0.0192819 0.0003300963
vn -0.9998141 -0.0192819 0.0003300962
g sight_rear_ak_izhmash_akm_std_LOD1_0
f 3/3/3 2/2/2 1/1/1
f 4/4/4 2/2/2 3/3/3
f 2/2/2 4/4/4 5/5/5
f 6/6/6 5/5/5 4/4/4
f 3/3/3 7/7/7 4/4/4
f 7/7/7 3/3/3 8/8/8
f 11/11/11 10/10/10 9/9/9
f 10/10/10 11/11/11 12/12/12
f 13/13/13 9/9/9 10/10/10
f 9/9/9 13/13/13 14/14/14
f 13/13/13 15/15/15 14/14/14
f 15/15/15 13/13/13 16/16/16
f 19/19/19 18/18/18 17/17/17
f 18/18/18 19/19/19 20/20/20
f 23/23/23 22/22/22 21/21/21
f 22/22/22 23/23/23 24/24/24
f 27/27/27 26/26/26 25/25/25
f 26/26/26 27/27/27 28/28/28
f 31/31/31 30/30/30 29/29/29
f 30/30/30 31/31/31 32/32/32
f 35/35/35 34/34/34 33/33/33
f 34/34/34 35/35/35 36/36/36
f 39/39/39 38/38/38 37/37/37
f 38/38/38 39/39/39 40/40/40
f 43/43/43 42/42/42 41/41/41
f 42/42/42 43/43/43 44/44/44
f 47/47/47 46/46/46 45/45/45
f 46/46/46 47/47/47 48/48/48
f 51/51/51 50/50/50 49/49/49
f 50/50/50 51/51/51 52/52/52
f 55/55/55 54/54/54 53/53/53
f 54/54/54 55/55/55 56/56/56
f 59/59/59 58/58/58 57/57/57
f 58/58/58 59/59/59 60/60/60
f 63/63/63 62/62/62 61/61/61
f 66/66/66 65/65/65 64/64/64
