g sight_rear_glock_dead_ringer_snake_eyes_glock_sights_LOD1
v 0.01054262 -0.003686699 -0.001693979
v 0.01054262 -0.001953788 0.002009233
v 0.01054262 0.002664198 0.002009233
v 0.01054262 0.007680561 -0.001741452
v 0.01054262 0.002664198 0.005172289
v 0.01054262 0.007680561 0.005172289
v 0.004920087 0.001270235 0.0119132
v -5.748525E-05 0.001270234 0.01364111
v -5.748749E-05 0.007680559 0.01364111
v 0.004920085 0.00768056 0.0119132
v 0.007866118 0.001270235 0.00767858
v 0.007866116 0.00768056 0.007678579
v -0.005035058 0.001270233 0.01191321
v -0.00503506 0.007680557 0.01191321
v -0.007981093 0.001270232 0.007678587
v -0.007981095 0.007680557 0.007678586
v 0.007866116 0.001270235 0.002009234
v 0.007866118 0.001270235 0.00767858
v 0.009625465 0.002090271 0.007052138
v 0.01054262 0.002664198 0.005172289
v 0.01054262 0.002664198 0.002009233
v 0.009625462 0.00768056 0.007052138
v 0.01054262 0.007680561 0.005172289
v 0.01054262 0.002664198 0.005172289
v 0.009625465 0.002090271 0.007052138
v 0.007866116 0.00768056 0.007678579
v 0.007866118 0.001270235 0.00767858
v -0.0106576 0.002664193 0.002009243
v -0.0106576 -0.001953792 0.002009243
v -0.0106576 -0.003686704 -0.001693969
v -0.0106576 0.007680556 -0.001741442
v -0.0106576 0.002664193 0.005172299
v -0.0106576 0.007680556 0.005172298
v 0.01054262 -0.001953788 0.002009233
v -0.0106576 -0.001953792 0.002009243
v -0.007981094 0.001270232 0.002009242
v 0.007866116 0.001270235 0.002009234
v -0.0106576 0.002664193 0.002009243
v 0.01054262 0.002664198 0.002009233
v 0.01054262 -0.001953788 0.002009233
v 0.01054262 -0.003686699 -0.001693979
v -0.0106576 -0.003686704 -0.001693969
v -0.0106576 -0.001953792 0.002009243
v 0.01054262 -0.003686699 -0.001693979
v 0.01054262 0.007680561 -0.001741452
v -0.0106576 0.007680556 -0.001741442
v -0.0106576 -0.003686704 -0.001693969
v -5.748749E-05 0.007680559 0.01364111
v -0.00503506 0.007680557 0.01191321
v 0.004920085 0.00768056 0.0119132
v 0.007866116 0.00768056 0.007678579
v -0.007981095 0.007680557 0.007678586
v 0.006517351 0.00768056 0.007052139
v -0.006636071 0.007680557 0.007052145
v -0.006640184 0.007680557 0.005172296
v 0.006530122 0.00768056 0.005172291
v 0.01054262 0.007680561 -0.001741452
v 0.008004061 0.00768056 0.004070414
v 0.009665938 0.00768056 0.005172289
v 0.01054262 0.007680561 0.005172289
v 0.009625462 0.00768056 0.007052138
v -0.0106576 0.007680556 -0.001741442
v -0.008085209 0.007680557 0.004148771
v -0.009785703 0.007680556 0.005172298
v -0.0106576 0.007680556 0.005172298
v -0.00974044 0.007680556 0.007052147
v -0.007981094 0.001270232 0.002009242
v -0.009740439 0.002090267 0.007052147
v -0.007981093 0.001270232 0.007678587
v -0.0106576 0.002664193 0.005172299
v -0.0106576 0.002664193 0.002009243
v -0.0106576 0.002664193 0.005172299
v -0.0106576 0.007680556 0.005172298
v -0.00974044 0.007680556 0.007052147
v -0.009740439 0.002090267 0.007052147
v -0.007981095 0.007680557 0.007678586
v -0.007981093 0.001270232 0.007678587
v -0.007981093 0.001270232 0.007678587
v 0.007866118 0.001270235 0.00767858
v 0.007866116 0.001270235 0.002009234
v -0.007981094 0.001270232 0.002009242
v 0.004920087 0.001270235 0.0119132
v -0.005035058 0.001270233 0.01191321
v -5.748525E-05 0.001270234 0.01364111
vt 0.007879049 0.2709064
vt 0.09344873 0.2308645
vt 0.09344873 0.1241575
vt 0.006782323 0.008245589
vt 0.1665368 0.1241575
vt 0.1665368 0.008245589
vt 0.3772198 0.1563678
vt 0.4989686 0.1563678
vt 0.4989686 0.008245589
vt 0.3772198 0.008245589
vt 0.2580211 0.1563678
vt 0.2580211 0.008245589
vt 0.620717 0.1563678
vt 0.620717 0.008245589
vt 0.7399158 0.1563678
vt 0.7399158 0.008245589
vt 0.1634836 0.9049262
vt 0.03240028 0.9049262
vt 0.04688445 0.9498067
vt 0.09034929 0.9746335
vt 0.1634836 0.9746335
vt 0.2148681 0.008245589
vt 0.1665368 0.008245589
vt 0.1665368 0.1241575
vt 0.2148681 0.1374195
vt 0.2580211 0.008245589
vt 0.2580211 0.1563678
vt 0.9044881 0.1241575
vt 0.9044883 0.2308645
vt 0.9900577 0.2709064
vt 0.9911544 0.008245589
vt 0.8313999 0.1241575
vt 0.8313999 0.008245589
vt 0.8924994 0.9910469
vt 0.8924994 0.5011775
vt 0.8180027 0.563023
vt 0.8180026 0.9292014
vt 0.7857926 0.5011775
vt 0.7857927 0.9910469
vt 0.8924994 0.9910469
vt 0.9869742 0.9910469
vt 0.9869742 0.5011775
vt 0.8924994 0.5011775
vt 0.02969185 0.2870848
vt 0.02969185 0.5497479
vt 0.5195611 0.5497479
vt 0.5195611 0.2870848
vt 0.2746263 0.9051894
vt 0.3896421 0.865263
vt 0.1596105 0.865263
vt 0.09153741 0.7674146
vt 0.4577156 0.7674146
vt 0.1227027 0.7529396
vt 0.4266365 0.7529396
vt 0.4267314 0.7095022
vt 0.1224079 0.7095022
vt 0.02969185 0.5497479
vt 0.08834983 0.6840414
vt 0.04994921 0.7095022
vt 0.02969185 0.7095022
vt 0.05088418 0.7529396
vt 0.5195611 0.5497479
vt 0.4601213 0.6858518
vt 0.4994143 0.7095022
vt 0.5195611 0.7095022
vt 0.4983686 0.7529396
vt 0.2466836 0.2599999
vt 0.1300845 0.2151197
vt 0.1156003 0.2599999
vt 0.1735493 0.1902929
vt 0.2466836 0.1902929
vt 0.8313999 0.1241575
vt 0.8313999 0.008245589
vt 0.7830687 0.008245589
vt 0.7830687 0.1374195
vt 0.7399158 0.008245589
vt 0.7399158 0.1563678
vt 0.6870023 0.563023
vt 0.6870022 0.9292013
vt 0.8180026 0.9292014
vt 0.8180027 0.563023
vt 0.5891537 0.8611278
vt 0.5891538 0.6310965
vt 0.5492275 0.746112
vn 1 0 0
vn 1 0 0
vn 1 0 0
vn 1 0 0
vn 1 0 0
vn 1 0 0
vn 0.6040226 0 0.7969673
vn 1.490118E-06 0 1
vn 0 0 1
vn 0.6040226 0 0.7969673
vn 0.8208873 0 0.5710902
vn 0.8208846 0 0.5710942
vn -0.6040245 0 0.7969657
vn -0.6040245 0 0.7969657
vn -0.8208873 0 0.5710902
vn -0.8208846 0 0.5710942
vn 0.4594088 -0.8881963 -0.007125736
vn 0.4224658 -0.9063789 0
vn 0.4469518 -0.8944967 -0.01047255
vn 0.4804125 -0.8768124 -0.02009865
vn 0.4619227 -0.8869203 0
vn 0.6664773 0 0.7455253
vn 0.8987383 0 0.4384854
vn 0.8987383 0 0.4384854
vn 0.6012676 0 0.7990477
vn 0.3354369 0 0.9420627
vn 0.3354369 0 0.9420627
vn -1 0 0
vn -1 0 0
vn -1 0 0
vn -1 0 0
vn -1 0 0
vn -1 0 0
vn 0 0 1
vn 0 0 1
vn 0 0 1
vn 0 0 1
vn 0 0 1
vn 0 0 1
vn 0 -0.9057373 0.4238397
vn 0 -0.9057389 0.4238361
vn 0 -0.9057389 0.4238361
vn 0 -0.9057373 0.4238397
vn 0 -0.004178279 -0.9999913
vn -1.192091E-05 -0.004178279 -0.9999913
vn 0 -0.004178279 -0.9999913
vn 0 -0.004178279 -0.9999913
vn 0 1 0
vn 0 1 0
vn -5.96047E-06 1 0
vn 0 1 0
vn 0 1 0
vn 0 1 0
vn 0 1 0
vn 0 1 0
vn 0 1 0
vn -1.192094E-05 1 0
vn 0 1 0
vn 0 1 0
vn 0 1 0
vn 0 1 0
vn 0 1 0
vn 0 1 0
vn 0 1 0
vn 0 1 0
vn 0 1 0
vn -0.4594082 -0.8881966 -0.007125726
vn -0.4469518 -0.8944967 -0.01047255
vn -0.4224658 -0.9063789 0
vn -0.4804125 -0.8768124 -0.02009865
vn -0.4619227 -0.8869203 0
vn -0.8987383 0 0.4384854
vn -0.8987361 0 0.4384901
vn -0.6664773 0 0.7455253
vn -0.6012676 0 0.7990477
vn -0.3354369 0 0.9420627
vn -0.3354369 0 0.9420627
vn 0 -1 0
vn 0 -1 0
vn 0 -1 0
vn 0 -1 0
vn 0 -1 0
vn 0 -1 0
vn 1.490115E-06 -1 0
g sight_rear_glock_dead_ringer_snake_eyes_glock_sights_LOD1_0
f 3/3/3 2/2/2 1/1/1
f 4/4/4 3/3/3 1/1/1
f 5/5/5 3/3/3 4/4/4
f 6/6/6 5/5/5 4/4/4
f 9/9/9 8/8/8 7/7/7
f 10/10/10 9/9/9 7/7/7
f 7/7/7 11/11/11 10/10/10
f 11/11/11 12/12/12 10/10/10
f 13/13/13 8/8/8 9/9/9
f 14/14/14 13/13/13 9/9/9
f 13/13/13 14/14/14 15/15/15
f 14/14/14 16/16/16 15/15/15
f 19/19/19 18/18/18 17/17/17
f 20/20/20 19/19/19 17/17/17
f 21/21/21 20/20/20 17/17/17
f 24/24/24 23/23/23 22/22/22
f 25/25/25 24/24/24 22/22/22
f 25/25/25 22/22/22 26/26/26
f 27/27/27 25/25/25 26/26/26
f 30/30/30 29/29/29 28/28/28
f 31/31/31 30/30/30 28/28/28
f 28/28/28 32/32/32 31/31/31
f 32/32/32 33/33/33 31/31/31
f 36/36/36 35/35/35 34/34/34
f 37/37/37 36/36/36 34/34/34
f 38/38/38 35/35/35 36/36/36
f 39/39/39 37/37/37 34/34/34
f 42/42/42 41/41/41 40/40/40
f 43/43/43 42/42/42 40/40/40
f 46/46/46 45/45/45 44/44/44
f 47/47/47 46/46/46 44/44/44
f 50/50/50 49/49/49 48/48/48
f 49/49/49 50/50/50 51/51/51
f 52/52/52 49/49/49 51/51/51
f 51/51/51 53/53/53 52/52/52
f 53/53/53 54/54/54 52/52/52
f 55/55/55 54/54/54 53/53/53
f 56/56/56 55/55/55 53/53/53
f 56/56/56 57/57/57 55/55/55
f 58/58/58 57/57/57 56/56/56
f 59/59/59 57/57/57 58/58/58
f 60/60/60 57/57/57 59/59/59
f 60/60/60 59/59/59 61/61/61
f 57/57/57 62/62/62 55/55/55
f 62/62/62 63/63/63 55/55/55
f 64/64/64 63/63/63 62/62/62
f 65/65/65 64/64/64 62/62/62
f 65/65/65 66/66/66 64/64/64
f 69/69/69 68/68/68 67/67/67
f 68/68/68 70/70/70 67/67/67
f 70/70/70 71/71/71 67/67/67
f 74/74/74 73/73/73 72/72/72
f 75/75/75 74/74/74 72/72/72
f 76/76/76 74/74/74 75/75/75
f 77/77/77 76/76/76 75/75/75
g sight_rear_glock_dead_ringer_snake_eyes_glock_sights_LOD1_1
f 66/66/66 52/52/52 54/54/54
f 54/54/54 55/55/55 66/66/66
f 55/55/55 64/64/64 66/66/66
f 64/64/64 55/55/55 63/63/63
f 61/61/61 53/53/53 51/51/51
f 53/53/53 61/61/61 56/56/56
f 61/61/61 59/59/59 56/56/56
f 56/56/56 59/59/59 58/58/58
g sight_rear_glock_dead_ringer_snake_eyes_glock_sights_LOD1_2
f 80/80/80 79/79/79 78/78/78
f 81/81/81 80/80/80 78/78/78
f 78/78/78 79/79/79 82/82/82
f 83/83/83 78/78/78 82/82/82
f 84/84/84 83/83/83 82/82/82
