g sight_rear_ak_izhmash_ak74_std_LOD1
v 0.01058225 0.05308701 0.004238357
v 0.01058225 0.05239717 -0.003119654
v 0.01058225 0.04872316 0.001859193
v 0.01058225 0.04869568 -0.003103528
v -0.01097975 0.05308701 0.004238357
v -0.01097975 0.04872316 0.001859193
v -0.01097975 0.05239717 -0.003119654
v -0.01097975 0.04869568 -0.003103528
v 0.01058225 0.05239717 -0.003119654
v 0.01058225 0.05308701 0.004238357
v -0.01097975 0.05239717 -0.003119654
v -0.01097975 0.05308701 0.004238357
v -0.01097975 0.05308701 0.004238357
v 0.01058225 0.05308701 0.004238357
v -0.01097975 0.04872316 0.001859193
v 0.01058225 0.04872316 0.001859193
v 0.01574615 0.0478306 0.002392068
v 0.01574615 0.04778265 -0.006261487
v 0.01574615 0.03942185 0.002287836
v 0.01574615 0.039374 -0.006365719
v -0.01473835 0.0478306 0.002392068
v -0.01473835 0.04778265 -0.006261487
v 0.01574615 0.0478306 0.002392068
v 0.01574615 0.04778265 -0.006261487
v -0.01473835 0.04778265 -0.006261487
v -0.01473835 0.039374 -0.006365719
v 0.01574615 0.04778265 -0.006261487
v 0.01574615 0.039374 -0.006365719
v -0.01473835 0.039374 -0.006365719
v -0.01473835 0.03942185 0.002287836
v 0.01574615 0.039374 -0.006365719
v 0.01574615 0.03942185 0.002287836
v -0.01473835 0.03942185 0.002287836
v -0.01473835 0.0478306 0.002392068
v 0.01574615 0.03942185 0.002287836
v 0.01574615 0.0478306 0.002392068
v -0.01473835 0.0478306 0.002392068
v -0.01473835 0.03942185 0.002287836
v -0.01473835 0.04778265 -0.006261487
v -0.01473835 0.039374 -0.006365719
v 0.01058225 0.04869568 -0.003103528
v 0.01058225 0.05239717 -0.003119654
v 0.005809247 0.04869568 -0.003103528
v -0.006206752 0.04869568 -0.003103528
v -0.01097975 0.05239717 -0.003119654
v -0.01097975 0.04869568 -0.003103528
v -0.005172093 -0.004938087 -0.00127666
v 0.004774597 -0.004938087 -0.00127666
v -0.01097975 0.04872316 0.001859193
v -0.006206752 0.04871306 0.0005769682
v -0.01097975 0.04869568 -0.003103528
v -0.006206752 0.04869568 -0.003103528
v 0.005809247 0.04871306 0.0005769682
v 0.01058225 0.04872316 0.001859193
v 0.01058225 0.04869568 -0.003103528
v 0.005809247 0.04869568 -0.003103528
v 0.005809247 0.04871306 0.0005769682
v 0.004774597 -0.004938087 -0.00127666
v -0.006206752 0.04871306 0.0005769682
v -0.005172093 -0.004938087 -0.00127666
v 0.005809247 0.04871306 0.0005769682
v 0.005809247 0.04869568 -0.003103528
v 0.004774597 -0.004938087 -0.00127666
v -0.006206752 0.04871306 0.0005769682
v -0.005172093 -0.004938087 -0.00127666
v -0.006206752 0.04869568 -0.003103528
vt 0.901917 0.681594
vt 0.901917 0.753519
vt 0.95 0.681594
vt 0.95 0.753519
vt 0.637529 0.356936
vt 0.685612 0.356936
vt 0.637529 0.285012
vt 0.685612 0.285012
vt 0.894131 0.152637
vt 0.894131 0.0646882
vt 0.637529 0.152637
vt 0.637529 0.0646882
vt 0.894131 0.182194
vt 0.637529 0.182194
vt 0.894131 0.241344
vt 0.637529 0.241344
vt 0.928537 0.534878
vt 0.928537 0.431894
vt 0.828476 0.534878
vt 0.828476 0.431894
vt 0.490647 0.427475
vt 0.593631 0.427475
vt 0.490647 0.0646882
vt 0.593631 0.0646883
vt 0.590724 0.46127
vt 0.490647 0.46127
vt 0.590724 0.824057
vt 0.490647 0.824057
vt 0.412787 0.843331
vt 0.412787 0.740347
vt 0.05 0.843331
vt 0.05 0.740347
vt 0.722918 0.46127
vt 0.622841 0.46127
vt 0.722918 0.824057
vt 0.622841 0.824057
vt 0.828476 0.387996
vt 0.928537 0.387996
vt 0.828476 0.285012
vt 0.928537 0.285012
vt 0.05 0.663424
vt 0.05 0.705754
vt 0.104583 0.663424
vt 0.241994 0.663424
vt 0.296576 0.705754
vt 0.296576 0.663424
vt 0.241994 0.05
vt 0.104583 0.0500003
vt 0.828476 0.578776
vt 0.843736 0.635579
vt 0.887537 0.578776
vt 0.887537 0.635578
vt 0.843736 0.778578
vt 0.828476 0.83538
vt 0.887534 0.835381
vt 0.887536 0.77858
vt 0.329076 0.0646883
vt 0.329076 0.703094
vt 0.459762 0.0646882
vt 0.459762 0.703094
vt 0.688509 0.928215
vt 0.688484 0.887229
vt 0.0500107 0.928215
vt 0.755035 0.285012
vt 0.755035 0.923511
vt 0.796021 0.285036
vn 1 0 0
vn 1 0 0
vn 1 0 0
vn 1 0 0
vn -1 0 0
vn -1 0 0
vn -1 0 0
vn -1 0 0
vn 0 0.9956338 -0.09334556
vn 0 0.9956338 -0.09334558
vn 0 0.9956338 -0.09334558
vn 0 0.9956338 -0.09334556
vn 0 -0.4786788 0.8779901
vn 0 -0.4786787 0.8779901
vn 0 -0.4786787 0.8779901
vn 0 -0.4786788 0.8779901
vn 1 0 0
vn 1 0 0
vn 1 0 0
vn 1 0 0
vn 0 0.9999846 -0.005541076
vn 0 0.9999846 -0.005541077
vn 0 0.9999846 -0.005541077
vn 0 0.9999846 -0.005541076
vn 0 0.01239483 -0.9999232
vn 0 0.01239483 -0.9999232
vn 0 0.01239483 -0.9999232
vn 0 0.01239483 -0.9999232
vn 0 -0.9999847 0.005528955
vn 0 -0.9999847 0.005528954
vn 0 -0.9999847 0.005528954
vn 0 -0.9999847 0.005528955
vn 0 -0.01239468 0.9999232
vn 0 -0.01239468 0.9999232
vn 0 -0.01239468 0.9999232
vn 0 -0.01239468 0.9999232
vn -1 0 0
vn -1 0 0
vn -1 0 0
vn -1 0 0
vn 0 -0.004356758 -0.9999906
vn 0 -0.004356758 -0.9999906
vn 0 -0.01417198 -0.9998996
vn 0 -0.01417198 -0.9998996
vn 0 -0.004356758 -0.9999906
vn 0 -0.004356758 -0.9999906
vn 0 -0.03404216 -0.9994204
vn 0 -0.03404216 -0.9994204
vn -0.000523179 -0.9999824 0.005928835
vn -0.0001225405 -0.9999769 0.006808699
vn -0.0003654563 -0.9999864 0.005197551
vn 0 -0.9999889 0.004723627
vn 0.0001225405 -0.9999769 0.0068087
vn 0.0005231792 -0.9999824 0.005928834
vn 0.0003654563 -0.9999864 0.005197551
vn 0 -0.9999889 0.004723627
vn 0 -0.03452905 0.9994037
vn 0 -0.03452905 0.9994037
vn 0 -0.03452905 0.9994037
vn 0 -0.03452905 0.9994037
vn 0.9998141 -0.01928433 9.109299E-05
vn 0.9998141 -0.01928433 9.109299E-05
vn 0.9998141 -0.01928433 9.109298E-05
vn -0.9998141 -0.0192845 9.109379E-05
vn -0.9998141 -0.0192845 9.109379E-05
vn -0.9998141 -0.0192845 9.109379E-05
g sight_rear_ak_izhmash_ak74_std_LOD1_0
f 3/3/3 2/2/2 1/1/1
f 2/2/2 3/3/3 4/4/4
f 7/7/7 6/6/6 5/5/5
f 6/6/6 7/7/7 8/8/8
f 11/11/11 10/10/10 9/9/9
f 10/10/10 11/11/11 12/12/12
f 15/15/15 14/14/14 13/13/13
f 14/14/14 15/15/15 16/16/16
f 19/19/19 18/18/18 17/17/17
f 18/18/18 19/19/19 20/20/20
f 23/23/23 22/22/22 21/21/21
f 22/22/22 23/23/23 24/24/24
f 27/27/27 26/26/26 25/25/25
f 26/26/26 27/27/27 28/28/28
f 31/31/31 30/30/30 29/29/29
f 30/30/30 31/31/31 32/32/32
f 35/35/35 34/34/34 33/33/33
f 34/34/34 35/35/35 36/36/36
f 39/39/39 38/38/38 37/37/37
f 38/38/38 39/39/39 40/40/40
f 43/43/43 42/42/42 41/41/41
f 44/44/44 42/42/42 43/43/43
f 42/42/42 44/44/44 45/45/45
f 46/46/46 45/45/45 44/44/44
f 43/43/43 47/47/47 44/44/44
f 47/47/47 43/43/43 48/48/48
f 51/51/51 50/50/50 49/49/49
f 50/50/50 51/51/51 52/52/52
f 53/53/53 49/49/49 50/50/50
f 49/49/49 53/53/53 54/54/54
f 53/53/53 55/55/55 54/54/54
f 55/55/55 53/53/53 56/56/56
f 59/59/59 58/58/58 57/57/57
f 58/58/58 59/59/59 60/60/60
f 63/63/63 62/62/62 61/61/61
f 66/66/66 65/65/65 64/64/64
