g sight_rear_sv-98_izhmash_std_LOD1
v 0.01381322 0.03232148 -0.005006614
v 0.01381365 -0.01297063 -0.005006604
v 0.01381356 -0.01297063 0.003029394
v 0.01381364 -0.006960327 0.007099337
v 0.01381338 0.02710281 0.007099328
v 0.01381328 0.03232148 0.007099357
v 0.01381322 0.03232148 0.0139391
v 0.0138133 0.02710281 0.01393911
v 0.01206459 0.03407016 0.007099328
v 0.01206448 0.03407015 -0.005006614
v 0.0120645 0.03407016 0.01393913
v -8.761045E-05 -0.006960335 0.007099337
v 0.01381364 -0.006960327 0.007099337
v 0.01381356 -0.01297063 0.003029394
v -8.771013E-05 -0.01297066 0.003028722
v 0.01206459 0.03407016 0.007099328
v 0.01040733 0.03407016 0.007099328
v 0.01206448 0.03407015 -0.005006614
v 0.01040728 0.03407016 0.01393913
v 0.0120645 0.03407016 0.01393913
v -8.780658E-05 0.0340701 -0.005006642
v -8.776069E-05 0.03407011 0.007099328
v -0.01047217 0.03407006 0.007099328
v -0.0121295 0.03407005 -0.005006614
v -0.01212945 0.03407005 0.007099328
v -0.01047221 0.03407006 0.01393913
v -0.01212951 0.03407005 0.01393913
v -8.776069E-05 0.03407011 0.007099328
v 0.01040733 0.03407016 0.007099328
v 0.01040739 0.02710284 0.007099328
v -8.761045E-05 -0.006960335 0.007099337
v 0.01381364 -0.006960327 0.007099337
v 0.01381338 0.02710281 0.007099328
v 0.01040731 0.02710282 0.01393914
v 0.01040728 0.03407016 0.01393913
v 0.01381322 0.03232148 0.0139391
v 0.0138133 0.02710281 0.01393911
v 0.0120645 0.03407016 0.01393913
v 0.01040733 0.03407016 0.007099328
v 0.01040728 0.03407016 0.01393913
v 0.01040731 0.02710282 0.01393914
v 0.01040739 0.02710284 0.007099328
v 0.01040739 0.02710284 0.007099328
v 0.01040731 0.02710282 0.01393914
v 0.0138133 0.02710281 0.01393911
v 0.01381338 0.02710281 0.007099328
v -8.766424E-05 -0.01297065 -0.005006633
v 0.01381365 -0.01297063 -0.005006604
v 0.01381322 0.03232148 -0.005006614
v 0.01206448 0.03407015 -0.005006614
v -8.780658E-05 0.0340701 -0.005006642
v 0.01055056 0.03174963 0.006942162
v -0.01072615 0.03174952 0.006942162
v -0.01072614 0.03174952 0.009134173
v 0.01055056 0.03174964 0.009134173
v -0.01387819 -0.006960442 0.007099337
v -0.01387824 -0.01297073 0.003029366
v -0.01387821 -0.01297071 -0.005006604
v -0.01387818 0.03232137 -0.005006614
v -0.01387818 0.02710273 0.007099328
v -0.01387816 0.03232137 0.007099328
v -0.01387821 0.03232136 0.01393913
v -0.01387824 0.02710272 0.01393911
v -0.01212945 0.03407005 0.007099328
v -0.0121295 0.03407005 -0.005006614
v -0.01212951 0.03407005 0.01393913
v -0.01387824 -0.01297073 0.003029366
v -0.01387819 -0.006960442 0.007099337
v -8.761045E-05 -0.006960335 0.007099337
v -8.771013E-05 -0.01297066 0.003028722
v -0.01047208 0.02710273 0.007099328
v -0.01047217 0.03407006 0.007099328
v -8.776069E-05 0.03407011 0.007099328
v -8.761045E-05 -0.006960335 0.007099337
v -0.01387819 -0.006960442 0.007099337
v -0.01387818 0.02710273 0.007099328
v -0.01047214 0.02710273 0.01393911
v -0.01387824 0.02710272 0.01393911
v -0.01387821 0.03232136 0.01393913
v -0.01047221 0.03407006 0.01393913
v -0.01212951 0.03407005 0.01393913
v -0.01047217 0.03407006 0.007099328
v -0.01047208 0.02710273 0.007099328
v -0.01047214 0.02710273 0.01393911
v -0.01047221 0.03407006 0.01393913
v -0.01047208 0.02710273 0.007099328
v -0.01387818 0.02710273 0.007099328
v -0.01387824 0.02710272 0.01393911
v -0.01047214 0.02710273 0.01393911
v -0.01072611 0.03280742 0.006942162
v 0.0105504 0.03280754 0.006942129
v 0.01055043 0.03280755 0.009134145
v -0.01072611 0.03280743 0.009134173
v -0.01387821 -0.01297071 -0.005006604
v -8.766424E-05 -0.01297065 -0.005006633
v -8.780658E-05 0.0340701 -0.005006642
v -0.0121295 0.03407005 -0.005006614
v -0.01387818 0.03232137 -0.005006614
v 0.01055056 0.03174964 0.009134173
v -0.01072614 0.03174952 0.009134173
v -0.01072611 0.03280743 0.009134173
v 0.01055043 0.03280755 0.009134145
v -0.01387821 -0.01297071 -0.005006604
v -0.01387824 -0.01297073 0.003029366
v -8.771013E-05 -0.01297066 0.003028722
v -8.766424E-05 -0.01297065 -0.005006633
v 0.01381365 -0.01297063 -0.005006604
v -8.766424E-05 -0.01297065 -0.005006633
v -8.771013E-05 -0.01297066 0.003028722
v 0.01381356 -0.01297063 0.003029394
v -0.02179421 0.006008197 0.002230263
v -0.015286 0.006008212 0.002230263
v -0.01528602 0.002915485 0.007586942
v -0.0217942 0.002915483 0.007586908
v -0.015286 -0.003269851 0.007586946
v -0.02179418 -0.003269867 0.007586913
v -0.02179424 0.002915483 -0.003126483
v -0.01528591 0.002915485 -0.003126454
v -0.02179422 -0.003269867 -0.003126478
v -0.01528589 -0.003269851 -0.003126449
v -0.02179418 -0.003269867 0.007586913
v -0.015286 -0.003269851 0.007586946
v -0.01528595 -0.006362522 0.002230268
v -0.02179418 -0.006362518 0.002230268
v -0.01528589 -0.003269851 -0.003126449
v -0.02179422 -0.003269867 -0.003126478
v -0.02179422 -0.003269867 -0.003126478
v -0.02179424 0.002915483 -0.003126483
v -0.02179421 0.006008197 0.002230263
v -0.02179418 -0.006362518 0.002230268
v -0.02179418 -0.003269867 0.007586913
v -0.0217942 0.002915483 0.007586908
v -0.01528595 -0.006362522 0.002230268
v -0.015286 0.006008212 0.002230263
v -0.01528591 0.002915485 -0.003126454
v -0.01528589 -0.003269851 -0.003126449
v -0.01528602 0.002915485 0.007586942
v -0.015286 -0.003269851 0.007586946
v -0.01549244 0.002400367 0.002267494
v -0.01383101 0.002400386 0.002267494
v -0.01383099 -0.0001544261 0.004822273
v -0.01549241 -0.000154436 0.004822273
v -0.0154924 -0.000154436 -0.0002873135
v -0.01383099 -0.0001544261 -0.0002873421
v -0.01549241 -0.000154436 0.004822273
v -0.01383099 -0.0001544261 0.004822273
v -0.013831 -0.002709229 0.002267499
v -0.01549242 -0.002709239 0.002267499
v -0.01383099 -0.0001544261 -0.0002873421
v -0.0154924 -0.000154436 -0.0002873135
vt 0.04924863 0.003903192
vt 0.8128129 0.003903192
vt 0.8128129 0.1316548
vt 0.7100498 0.1890663
vt 0.1457323 0.1890663
vt 0.04924863 0.1889956
vt 0.04924863 0.3013188
vt 0.1457304 0.3013216
vt 0.007099673 0.1889956
vt 0.007105328 0.003903192
vt 0.007097125 0.3013166
vt 0.2788846 0.745801
vt 0.2788846 0.5209937
vt 0.1550108 0.5209936
vt 0.1550064 0.745801
vt 0.986863 0.3180124
vt 0.9579085 0.3180085
vt 0.9868849 0.509141
vt 0.957968 0.2021215
vt 0.9869204 0.2021363
vt 0.8110153 0.5091655
vt 0.8109812 0.3180324
vt 0.6640507 0.3180603
vt 0.6351382 0.5092031
vt 0.6350983 0.3180722
vt 0.663964 0.2021739
vt 0.6350114 0.202196
vt 0.9838555 0.745801
vt 0.9838555 0.5800999
vt 0.8551037 0.5800999
vt 0.2788846 0.745801
vt 0.2788846 0.5209937
vt 0.8551042 0.5209937
vt 0.2036957 0.3013279
vt 0.3299028 0.3013301
vt 0.3002667 0.353256
vt 0.2036957 0.3532538
vt 0.3299028 0.3265954
vt 0.3299028 0.1890663
vt 0.3299028 0.3013301
vt 0.2036957 0.3013279
vt 0.2036957 0.1890663
vt 0.2036957 0.1890663
vt 0.2036957 0.3013279
vt 0.1457304 0.3013216
vt 0.1457323 0.1890663
vt 0.9900756 0.9905775
vt 0.9900756 0.7633381
vt 0.2018753 0.763338
vt 0.1719721 0.7939411
vt 0.1719721 0.9905775
vt 0.9417463 0.2609697
vt 0.6826799 0.2609697
vt 0.6826799 0.2117899
vt 0.9417463 0.2117864
vt 0.7100605 0.1890663
vt 0.8128255 0.1316526
vt 0.8128255 0.003897842
vt 0.04923669 0.003897842
vt 0.1455689 0.1890663
vt 0.04923669 0.1891263
vt 0.04923669 0.3013238
vt 0.1455658 0.3013238
vt 0.007088371 0.1891241
vt 0.007092111 0.003897842
vt 0.007085182 0.3013216
vt 0.1564181 0.5209936
vt 0.2797795 0.5209937
vt 0.2797817 0.745801
vt 0.1564115 0.745801
vt 0.8551037 0.5803187
vt 0.9838555 0.5803187
vt 0.9838555 0.745801
vt 0.2797817 0.745801
vt 0.2797795 0.5209937
vt 0.8551042 0.5209937
vt 0.2036895 0.3013279
vt 0.2036895 0.3531998
vt 0.2999262 0.3531998
vt 0.3299002 0.3013301
vt 0.3299002 0.3265715
vt 0.3299002 0.1890663
vt 0.2036895 0.1890663
vt 0.2036895 0.3013279
vt 0.3299002 0.3013301
vt 0.2036895 0.1890663
vt 0.1455689 0.1890663
vt 0.1455658 0.3013238
vt 0.2036895 0.3013279
vt 0.6831133 0.2118477
vt 0.9408912 0.2118477
vt 0.9408912 0.2617182
vt 0.6831133 0.2617182
vt 0.9900756 0.7633381
vt 0.9900756 0.9905775
vt 0.1719721 0.9905775
vt 0.1719721 0.7942
vt 0.2035337 0.763338
vt 0.9408912 0.280111
vt 0.6831133 0.280111
vt 0.6831133 0.2617182
vt 0.9408912 0.2617182
vt 0.009950537 0.5209936
vt 0.1564181 0.5209936
vt 0.1564115 0.745801
vt 0.009950479 0.745801
vt 0.009950537 0.5209936
vt 0.009950479 0.745801
vt 0.1550064 0.745801
vt 0.1550108 0.5209936
vt 0.3960713 0.3906245
vt 0.3960713 0.5020876
vt 0.2930064 0.5020876
vt 0.2930064 0.3906245
vt 0.1899413 0.5020876
vt 0.1899413 0.3906245
vt 0.4991408 0.3906245
vt 0.4991408 0.5020876
vt 0.6022017 0.3906245
vt 0.6022017 0.5020876
vt 0.1580739 0.9896306
vt 0.03546528 0.9896305
vt 0.03546528 0.8762615
vt 0.1580739 0.8762615
vt 0.03546528 0.7628896
vt 0.1580739 0.7628896
vt 0.490466 0.2075633
vt 0.396218 0.2075633
vt 0.349092 0.2891855
vt 0.5375921 0.2891855
vt 0.490466 0.3708109
vt 0.396218 0.3708109
vt 0.08844744 0.4982046
vt 0.08844744 0.3228183
vt 0.01250518 0.3666642
vt 0.01250518 0.4543571
vt 0.164395 0.3666658
vt 0.164395 0.4543608
vt 0.5744522 0.2935218
vt 0.6099312 0.2935218
vt 0.6099312 0.370689
vt 0.5744522 0.370689
vt 0.5744522 0.2163531
vt 0.6099312 0.2163531
vt 0.5744522 0.370689
vt 0.6099312 0.370689
vt 0.6099312 0.2935218
vt 0.5744522 0.2935218
vt 0.6099312 0.2163531
vt 0.5744522 0.2163531
vn 0.9238861 0.3826677 0
vn 1 0 0
vn 1 0 0
vn 1 0 0
vn 1 0 0
vn 0.9238861 0.3826677 0
vn 0.9238861 0.3826677 0
vn 1 0 0
vn 0.3827694 0.9238439 0
vn 0.3826677 0.9238861 0
vn 0.3827694 0.9238439 0
vn -1.955859E-05 -0.5607243 0.8280026
vn 0 -0.5607243 0.8280026
vn 0 -0.5607513 0.8279843
vn -1.955746E-05 -0.5607513 0.8279843
vn 0.3827694 0.9238439 0
vn 0 1 0
vn 0.3826677 0.9238861 0
vn 0 1 0
vn 0.3827694 0.9238439 0
vn -4.65695E-06 1 0
vn -4.65695E-06 1 0
vn 0 1 0
vn -0.3827694 0.9238439 0
vn -0.3826677 0.9238861 0
vn 0 1 0
vn -0.3826677 0.9238861 0
vn 0 0 1
vn 0 0 1
vn 0 0 1
vn 0 0 1
vn 0 0 1
vn 0 0 1
vn 0 0 1
vn 0 0 1
vn 0 0 1
vn 0 0 1
vn 0 0 1
vn -1 0 0
vn -1 0 0
vn -1 0 0
vn -1 0 0
vn 0 -1 0
vn 0 -1 0
vn 0 -1 0
vn 0 -1 0
vn 1.862558E-06 0 -1
vn 0 0 -1
vn 0 0 -1
vn 0 0 -1
vn 1.862558E-06 0 -1
vn 0 -1 0
vn 0 -1 0
vn 0 -1 0
vn 0 -1 0
vn -1 0 0
vn -1 0 0
vn -1 0 0
vn -0.9238861 0.3826677 0
vn -1 0 0
vn -0.9239035 0.3826255 0
vn -0.9239035 0.3826255 0
vn -1 0 0
vn -0.3826677 0.9238861 0
vn -0.3827694 0.9238439 0
vn -0.3826677 0.9238861 0
vn 0 -0.5607513 0.8279843
vn 0 -0.5607243 0.8280026
vn 2.235267E-05 -0.5607243 0.8280026
vn 2.235138E-05 -0.5607513 0.8279843
vn 0 0 1
vn 0 0 1
vn 0 0 1
vn 0 0 1
vn 0 0 1
vn 0 0 1
vn 0 0 1
vn 0 0 1
vn 0 0 1
vn 0 0 1
vn 0 0 1
vn 1 0 0
vn 1 0 0
vn 1 0 0
vn 1 0 0
vn 0 -1 0
vn 0 -1 0
vn 0 -1 0
vn 0 -1 0
vn 0 1 0
vn 0 1 0
vn 0 1 0
vn 0 1 0
vn 0 0 -1
vn -2.793837E-06 0 -1
vn -2.793837E-06 0 -1
vn 0 0 -1
vn 0 0 -1
vn 0 0 1
vn 0 0 1
vn 0 0 1
vn 0 0 1
vn 0 -1 0
vn 0 -1 0
vn 2.793837E-06 -1 0
vn 2.793837E-06 -1 0
vn 0 -1 0
vn 2.793837E-06 -1 0
vn 2.793837E-06 -1 0
vn 0 -1 0
vn 0 1 0
vn 0 1 0
vn 0 0.4999821 0.8660357
vn 0 0.4999821 0.8660357
vn 0 -0.5000045 0.8660228
vn 0 -0.5000045 0.8660228
vn 0 0.4999951 -0.8660283
vn 0 0.4999951 -0.8660283
vn 0 -0.5000174 -0.8660154
vn 0 -0.5000174 -0.8660154
vn 0 -0.5000045 0.8660228
vn 0 -0.5000045 0.8660228
vn 0 -1 0
vn 0 -1 0
vn 0 -0.5000174 -0.8660154
vn 0 -0.5000174 -0.8660154
vn -1 0 0
vn -1 0 0
vn -1 0 0
vn -1 0 0
vn -1 0 0
vn -1 0 0
vn 1 0 0
vn 1 0 0
vn 1 0 2.980448E-05
vn 1 0 2.980093E-05
vn 1 0 0
vn 1 0 0
vn 0 1 0
vn 0 1 0
vn 0 9.313069E-07 1
vn 0 -1.862614E-06 1
vn 0 -1.862645E-06 -1
vn 0 0 -1
vn 0 -1.862614E-06 1
vn 0 9.313069E-07 1
vn 0 -1 0
vn 0 -1 0
vn 0 0 -1
vn 0 -1.862645E-06 -1
g sight_rear_sv-98_izhmash_std_LOD1_0
f 3/3/3 2/2/2 1/1/1
f 1/1/1 4/4/4 3/3/3
f 1/1/1 5/5/5 4/4/4
f 6/6/6 5/5/5 1/1/1
f 6/6/6 7/7/7 5/5/5
f 7/7/7 8/8/8 5/5/5
f 9/9/9 6/6/6 1/1/1
f 10/10/10 9/9/9 1/1/1
f 11/11/11 7/7/7 6/6/6
f 9/9/9 11/11/11 6/6/6
f 14/14/14 13/13/13 12/12/12
f 15/15/15 14/14/14 12/12/12
f 18/18/18 17/17/17 16/16/16
f 17/17/17 19/19/19 16/16/16
f 19/19/19 20/20/20 16/16/16
f 21/21/21 17/17/17 18/18/18
f 17/17/17 21/21/21 22/22/22
f 21/21/21 23/23/23 22/22/22
f 21/21/21 24/24/24 23/23/23
f 23/23/23 24/24/24 25/25/25
f 26/26/26 23/23/23 25/25/25
f 27/27/27 26/26/26 25/25/25
f 30/30/30 29/29/29 28/28/28
f 31/31/31 30/30/30 28/28/28
f 30/30/30 31/31/31 32/32/32
f 33/33/33 30/30/30 32/32/32
f 36/36/36 35/35/35 34/34/34
f 37/37/37 36/36/36 34/34/34
f 38/38/38 35/35/35 36/36/36
f 41/41/41 40/40/40 39/39/39
f 42/42/42 41/41/41 39/39/39
f 45/45/45 44/44/44 43/43/43
f 46/46/46 45/45/45 43/43/43
f 49/49/49 48/48/48 47/47/47
f 47/47/47 50/50/50 49/49/49
f 47/47/47 51/51/51 50/50/50
f 54/54/54 53/53/53 52/52/52
f 55/55/55 54/54/54 52/52/52
f 58/58/58 57/57/57 56/56/56
f 56/56/56 59/59/59 58/58/58
f 56/56/56 60/60/60 59/59/59
f 60/60/60 61/61/61 59/59/59
f 62/62/62 61/61/61 60/60/60
f 63/63/63 62/62/62 60/60/60
f 61/61/61 64/64/64 59/59/59
f 64/64/64 65/65/65 59/59/59
f 66/66/66 64/64/64 61/61/61
f 62/62/62 66/66/66 61/61/61
f 69/69/69 68/68/68 67/67/67
f 70/70/70 69/69/69 67/67/67
f 73/73/73 72/72/72 71/71/71
f 74/74/74 73/73/73 71/71/71
f 75/75/75 74/74/74 71/71/71
f 76/76/76 75/75/75 71/71/71
f 79/79/79 78/78/78 77/77/77
f 80/80/80 79/79/79 77/77/77
f 81/81/81 79/79/79 80/80/80
f 84/84/84 83/83/83 82/82/82
f 85/85/85 84/84/84 82/82/82
f 88/88/88 87/87/87 86/86/86
f 89/89/89 88/88/88 86/86/86
f 92/92/92 91/91/91 90/90/90
f 93/93/93 92/92/92 90/90/90
f 96/96/96 95/95/95 94/94/94
f 94/94/94 97/97/97 96/96/96
f 94/94/94 98/98/98 97/97/97
f 101/101/101 100/100/100 99/99/99
f 102/102/102 101/101/101 99/99/99
f 105/105/105 104/104/104 103/103/103
f 106/106/106 105/105/105 103/103/103
f 109/109/109 108/108/108 107/107/107
f 110/110/110 109/109/109 107/107/107
f 113/113/113 112/112/112 111/111/111
f 114/114/114 113/113/113 111/111/111
f 115/115/115 113/113/113 114/114/114
f 116/116/116 115/115/115 114/114/114
f 111/111/111 112/112/112 117/117/117
f 112/112/112 118/118/118 117/117/117
f 117/117/117 118/118/118 119/119/119
f 118/118/118 120/120/120 119/119/119
f 123/123/123 122/122/122 121/121/121
f 124/124/124 123/123/123 121/121/121
f 125/125/125 123/123/123 124/124/124
f 126/126/126 125/125/125 124/124/124
f 129/129/129 128/128/128 127/127/127
f 130/130/130 129/129/129 127/127/127
f 129/129/129 130/130/130 131/131/131
f 132/132/132 129/129/129 131/131/131
f 135/135/135 134/134/134 133/133/133
f 136/136/136 135/135/135 133/133/133
f 133/133/133 134/134/134 137/137/137
f 138/138/138 133/133/133 137/137/137
f 141/141/141 140/140/140 139/139/139
f 142/142/142 141/141/141 139/139/139
f 139/139/139 140/140/140 143/143/143
f 140/140/140 144/144/144 143/143/143
f 147/147/147 146/146/146 145/145/145
f 148/148/148 147/147/147 145/145/145
f 149/149/149 147/147/147 148/148/148
f 150/150/150 149/149/149 148/148/148
