g sight_rear_mosin_izhmash_mosin_carabine_LOD1
v -0.006256739 0.03659162 0.004859524
v -0.006268646 -0.003160925 0.002125721
v -0.006256739 0.03685058 6.232262E-05
v -0.006269647 -0.002855725 -0.002566976
v 0.01448236 0.04993877 0.007661324
v 0.01060736 0.05027117 0.00576622
v 0.01440956 0.05039257 -0.0007450771
v 0.01060736 0.05066917 0.001063123
v -0.01058664 0.05027118 0.00576622
v -0.01405514 0.04993877 0.007661424
v -0.01434104 0.05039257 -0.0007450771
v -0.01058664 0.05066917 0.001063123
v 0.01440956 0.03693955 -0.001585679
v 0.006289161 0.03685058 6.232262E-05
v 0.01448236 0.0364915 0.00671412
v 0.006289161 0.03659162 0.004859424
v -0.01405514 0.03649149 0.00671422
v -0.006256739 0.03659162 0.004859524
v -0.01434104 0.03693955 -0.001585679
v -0.006256739 0.03685058 6.232262E-05
v -0.01058664 0.05637657 0.002770023
v 0.01060736 0.05637657 0.002770023
v -0.01058664 0.05858247 0.009915924
v 0.01060736 0.05858247 0.009915924
v 0.01448236 0.04993877 0.007661324
v 0.01440956 0.05039257 -0.0007450771
v 0.01448236 0.0364915 0.00671412
v 0.01440956 0.03693955 -0.001585679
v -0.01058664 0.05858247 0.009915924
v -0.01058664 0.05027118 0.00576622
v -0.01058664 0.05637657 0.002770023
v -0.01058664 0.05066917 0.001063123
v -0.006269647 -0.002855725 -0.002566976
v 0.006289253 -0.002855728 -0.002566976
v -0.006256739 0.03685058 6.232262E-05
v 0.006289161 0.03685058 6.232262E-05
v -0.01405514 0.04993877 0.007661424
v -0.01405514 0.03649149 0.00671422
v -0.01434104 0.05039257 -0.0007450771
v -0.01434104 0.03693955 -0.001585679
v 0.01060736 0.05066917 0.001063123
v 0.01060736 0.05027117 0.00576622
v 0.01060736 0.05637657 0.002770023
v 0.01060736 0.05858247 0.009915924
v -0.006268646 -0.003160925 0.002125721
v -0.006256739 0.03659162 0.004859524
v 0.006290353 -0.003160927 0.002125721
v 0.006289161 0.03659162 0.004859424
v 0.01448236 0.0364915 0.00671412
v -0.01405514 0.03649149 0.00671422
v 0.01448236 0.04993877 0.007661324
v -0.01405514 0.04993877 0.007661424
v 0.01060736 0.05027117 0.00576622
v -0.01058664 0.05027118 0.00576622
v 0.01060736 0.05858247 0.009915924
v -0.01058664 0.05858247 0.009915924
v -0.006269647 -0.002855725 -0.002566976
v -0.006268646 -0.003160925 0.002125721
v 0.006289253 -0.002855728 -0.002566976
v 0.006290353 -0.003160927 0.002125721
v -0.01434104 0.03693955 -0.001585679
v 0.01440956 0.03693955 -0.001585679
v -0.01434104 0.05039257 -0.0007450771
v 0.01440956 0.05039257 -0.0007450771
v -0.01058664 0.05066917 0.001063123
v 0.01060736 0.05066917 0.001063123
v -0.01058664 0.05637657 0.002770023
v 0.01060736 0.05637657 0.002770023
v 0.006289161 0.03659162 0.004859424
v 0.006289161 0.03685058 6.232262E-05
v 0.006290353 -0.003160927 0.002125721
v 0.006289253 -0.002855728 -0.002566976
vt 0.750821 0.650309
vt 0.750821 0.0335972
vt 0.696889 0.650309
vt 0.696889 0.0335972
vt 0.973164 0.964545
vt 0.951222 0.898275
vt 0.876717 0.964545
vt 0.897534 0.898275
vt 0.951223 0.5324
vt 0.973164 0.470234
vt 0.876706 0.470234
vt 0.897526 0.53277
vt 0.707978 0.68859
vt 0.720414 0.767392
vt 0.770612 0.68859
vt 0.756616 0.767392
vt 0.770612 0.965318
vt 0.756616 0.888598
vt 0.707977 0.965318
vt 0.720414 0.888597
vt 0.961996 0.400711
vt 0.961996 0.0353794
vt 0.876706 0.400711
vt 0.876706 0.0353794
vt 0.37411 0.968508
vt 0.37411 0.884864
vt 0.243887 0.968508
vt 0.243887 0.884864
vt 0.243712 0.680517
vt 0.340705 0.680517
vt 0.243712 0.616663
vt 0.340705 0.616663
vt 0.517073 0.650331
vt 0.660228 0.650331
vt 0.517073 0.0335972
vt 0.660228 0.0335972
vt 0.412133 0.968559
vt 0.542361 0.968559
vt 0.412133 0.884864
vt 0.542361 0.884864
vt 0.321313 0.490302
vt 0.243712 0.490302
vt 0.321313 0.570113
vt 0.243712 0.570113
vt 0.208871 0.968695
vt 0.208871 0.0335254
vt 0.0355464 0.968695
vt 0.0355464 0.0335254
vt 0.247348 0.0335254
vt 0.247348 0.45156
vt 0.472578 0.0335254
vt 0.472578 0.45156
vt 0.543852 0.711443
vt 0.243887 0.711443
vt 0.543852 0.847524
vt 0.243887 0.847524
vt 0.397276 0.634101
vt 0.462032 0.634089
vt 0.397276 0.490315
vt 0.462032 0.490302
vt 0.577283 0.68859
vt 0.577283 0.966347
vt 0.678856 0.68859
vt 0.678856 0.966347
vt 0.847917 0.967229
vt 0.847917 0.688764
vt 0.803027 0.967229
vt 0.803027 0.688764
vt 0.840729 0.0335972
vt 0.786797 0.0335972
vt 0.840729 0.650309
vt 0.786797 0.650309
vn -1 0.0002984107 1.610869E-05
vn -1 0.0003087669 0.0002169275
vn -1 0.000299244 3.226676E-05
vn -1 0.0003096228 0.0002335234
vn 0.04202445 0.9951781 0.08862582
vn 0.0316186 0.9916517 0.1250089
vn 0.06296604 0.9979894 0.007244654
vn 0.04816068 0.9975201 -0.05132243
vn -0.02177247 0.9907525 0.1339232
vn -0.05044335 0.9933454 0.1035394
vn -0.07155748 0.9974285 -0.004002247
vn -0.038076 0.9974904 -0.05969311
vn 3.770132E-07 -0.9985461 -0.0539052
vn 0 -0.998546 -0.0539066
vn 2.576618E-07 -0.9985461 -0.05390455
vn 0 -0.9985461 -0.05390429
vn 4.975566E-07 -0.998546 -0.05390573
vn -4.656351E-07 -0.9985459 -0.05390819
vn 0 -0.9985461 -0.05390497
vn -5.291617E-07 -0.998546 -0.0539059
vn 0 0.9555094 -0.2949606
vn 1.685512E-07 0.9555095 -0.2949601
vn 0 0.9555094 -0.2949605
vn 2.149771E-07 0.9555096 -0.2949601
vn 0.9999627 0.0006074904 -0.008626941
vn 0.9999623 0.0005858939 -0.008667185
vn 0.999962 0.0005678226 -0.008700861
vn 0.9999616 0.0005460273 -0.008741476
vn -1 0 0
vn -1 0 0
vn -1 0 0
vn -1 0 0
vn 0 0.06607397 -0.9978148
vn 0 0.06607398 -0.9978148
vn 0 0.06607398 -0.9978148
vn 0 0.06607397 -0.9978148
vn -0.9994237 -0.002384778 0.0338613
vn -0.9994142 -0.0022291 0.03415105
vn -0.9994185 -0.002299963 0.03401916
vn -0.999409 -0.002143505 0.03431037
vn 1 0 0
vn 1 0 0
vn 1 0 0
vn 1 0 0
vn 0 -0.06860846 0.9976436
vn 6.402083E-06 -0.06860644 0.9976438
vn 1.53326E-06 -0.06860797 0.9976436
vn 7.949711E-06 -0.06860594 0.9976438
vn 3.511987E-06 -0.07026425 0.9975284
vn 3.495104E-06 -0.07026422 0.9975284
vn 3.50539E-06 -0.07026424 0.9975284
vn 3.488507E-06 -0.07026421 0.9975284
vn -1.00502E-07 -0.4467016 0.894683
vn -1.00502E-07 -0.4467017 0.8946829
vn -1.00502E-07 -0.4467017 0.8946829
vn -1.00502E-07 -0.4467016 0.894683
vn -1.894401E-07 -0.9978918 -0.06490004
vn -1.894398E-07 -0.9978918 -0.06490004
vn -1.89439E-07 -0.9978918 -0.06490004
vn -1.894387E-07 -0.9978918 -0.06490004
vn 0 0.06236264 -0.9980536
vn 0 0.06236263 -0.9980536
vn 0 0.06236264 -0.9980536
vn 0 0.06236263 -0.9980536
vn 0 0.2865287 -0.9580716
vn 0 0.2865287 -0.9580716
vn 0 0.2865287 -0.9580716
vn 0 0.2865287 -0.9580716
vn 1 2.987693E-05 1.612839E-06
vn 1 2.89775E-05 -1.582806E-05
vn 1 1.869854E-05 -0.000215148
vn 1 1.777476E-05 -0.000233061
g sight_rear_mosin_izhmash_mosin_carabine_LOD1_0
f 3/3/3 2/2/2 1/1/1
f 2/2/2 3/3/3 4/4/4
f 7/7/7 6/6/6 5/5/5
f 6/6/6 7/7/7 8/8/8
f 9/9/9 5/5/5 6/6/6
f 5/5/5 9/9/9 10/10/10
f 11/11/11 8/8/8 7/7/7
f 8/8/8 11/11/11 12/12/12
f 10/10/10 12/12/12 11/11/11
f 12/12/12 10/10/10 9/9/9
f 15/15/15 14/14/14 13/13/13
f 14/14/14 15/15/15 16/16/16
f 17/17/17 16/16/16 15/15/15
f 16/16/16 17/17/17 18/18/18
f 19/19/19 18/18/18 17/17/17
f 14/14/14 19/19/19 13/13/13
f 18/18/18 19/19/19 20/20/20
f 19/19/19 14/14/14 20/20/20
f 23/23/23 22/22/22 21/21/21
f 22/22/22 23/23/23 24/24/24
f 27/27/27 26/26/26 25/25/25
f 26/26/26 27/27/27 28/28/28
f 31/31/31 30/30/30 29/29/29
f 30/30/30 31/31/31 32/32/32
f 35/35/35 34/34/34 33/33/33
f 34/34/34 35/35/35 36/36/36
f 39/39/39 38/38/38 37/37/37
f 38/38/38 39/39/39 40/40/40
f 43/43/43 42/42/42 41/41/41
f 42/42/42 43/43/43 44/44/44
f 47/47/47 46/46/46 45/45/45
f 46/46/46 47/47/47 48/48/48
f 51/51/51 50/50/50 49/49/49
f 50/50/50 51/51/51 52/52/52
f 55/55/55 54/54/54 53/53/53
f 54/54/54 55/55/55 56/56/56
f 59/59/59 58/58/58 57/57/57
f 58/58/58 59/59/59 60/60/60
f 63/63/63 62/62/62 61/61/61
f 62/62/62 63/63/63 64/64/64
f 67/67/67 66/66/66 65/65/65
f 66/66/66 67/67/67 68/68/68
f 71/71/71 70/70/70 69/69/69
f 70/70/70 71/71/71 72/72/72
