g sight_rear_all_kac_folding_sight_folded_LOD1
v 0.005589156 0.0302192 0.007586333
v 0.005589151 0.05630197 0.00112911
v 0.005589158 0.0302192 0.00112911
v 0.005589149 0.05630197 0.007586333
v 0.005589158 0.0302192 0.00112911
v -2.966523E-06 0.05630197 -0.002099502
v -2.960563E-06 0.0302192 -0.002099502
v 0.005589151 0.05630197 0.00112911
v -2.960563E-06 0.0302192 -0.002099502
v -0.005595087 0.05630197 0.00112911
v -0.00559508 0.03021919 0.00112911
v -2.966523E-06 0.05630197 -0.002099502
v -0.00559508 0.03021919 0.00112911
v -0.005595088 0.05630197 0.007586333
v -0.005595082 0.03021919 0.007586333
v -0.005595087 0.05630197 0.00112911
v -0.005595082 0.03021919 0.007586333
v -2.969503E-06 0.05630197 0.01081495
v -2.963543E-06 0.0302192 0.01081495
v -0.005595088 0.05630197 0.007586333
v -2.963543E-06 0.0302192 0.01081495
v 0.005589149 0.05630197 0.007586333
v 0.005589156 0.0302192 0.007586333
v -2.969503E-06 0.05630197 0.01081495
v -2.969503E-06 0.05630197 0.01081495
v 0.005589151 0.05630197 0.00112911
v 0.005589149 0.05630197 0.007586333
v -2.966523E-06 0.05630197 -0.002099502
v -0.005595087 0.05630197 0.00112911
v -0.005595088 0.05630197 0.007586333
vt 0.160297 0.320712
vt 0.0816 0.002827
vt 0.0816 0.320712
vt 0.160298 0.002828
vt 0.0816 0.320712
vt 0.002905 0.002827
vt 0.002904 0.320712
vt 0.0816 0.002827
vt 0.475085 0.320712
vt 0.396387 0.002829
vt 0.396385 0.320712
vt 0.475085 0.002829
vt 0.396385 0.320712
vt 0.317691 0.002828
vt 0.317691 0.320712
vt 0.396387 0.002829
vt 0.317691 0.320712
vt 0.238994 0.002828
vt 0.238992 0.320712
vt 0.317691 0.002828
vt 0.238992 0.320712
vt 0.160298 0.002828
vt 0.160297 0.320712
vt 0.238994 0.002828
vt 0.613752 0.909847
vt 0.731801 0.841694
vt 0.6531 0.841694
vt 0.771148 0.909847
vt 0.731801 0.978004
vt 0.6531 0.978004
vn 1 2.742254E-07 3.692277E-07
vn 1 2.742254E-07 3.692277E-07
vn 1 2.742254E-07 3.692277E-07
vn 1 2.742254E-07 3.692277E-07
vn 0.5000001 1.142606E-07 -0.8660253
vn 0.5000001 1.142606E-07 -0.8660253
vn 0.5000001 1.142606E-07 -0.8660253
vn 0.5000001 1.371127E-07 -0.8660253
vn -0.5000001 -1.256866E-07 -0.8660254
vn -0.5 -1.256866E-07 -0.8660254
vn -0.5 -1.256866E-07 -0.8660254
vn -0.5 -1.142606E-07 -0.8660254
vn -1 -2.285212E-07 -2.769208E-07
vn -1 -2.285211E-07 -2.769207E-07
vn -1 -2.285211E-07 -2.769208E-07
vn -1 -2.513733E-07 -1.846138E-07
vn -0.5000001 -1.142606E-07 0.8660253
vn -0.5000002 -1.142606E-07 0.8660253
vn -0.5000001 -1.142606E-07 0.8660253
vn -0.5000001 -1.142606E-07 0.8660253
vn 0.5 1.371127E-07 0.8660254
vn 0.5 1.371127E-07 0.8660254
vn 0.5 1.371127E-07 0.8660254
vn 0.5000001 1.142606E-07 0.8660253
vn 0 1 0
vn 0 1 0
vn 0 1 0
vn 0 1 0
vn 0 1 0
vn 0 1 0
g sight_rear_all_kac_folding_sight_folded_LOD1_0
f 3/3/3 2/2/2 1/1/1
f 4/4/4 1/1/1 2/2/2
f 7/7/7 6/6/6 5/5/5
f 8/8/8 5/5/5 6/6/6
f 11/11/11 10/10/10 9/9/9
f 12/12/12 9/9/9 10/10/10
f 15/15/15 14/14/14 13/13/13
f 16/16/16 13/13/13 14/14/14
f 19/19/19 18/18/18 17/17/17
f 20/20/20 17/17/17 18/18/18
f 23/23/23 22/22/22 21/21/21
f 24/24/24 21/21/21 22/22/22
f 27/27/27 26/26/26 25/25/25
f 28/28/28 25/25/25 26/26/26
f 28/28/28 29/29/29 25/25/25
f 30/30/30 25/25/25 29/29/29
