g sight_rear_glock_zev_tech_LOD0
v 0.008383745 -0.00368609 -0.001646428
v 0.008383745 -0.002938323 -2.02167E-05
v 0.008383744 0.002631669 -2.02167E-05
v 0.008383744 0.003213696 -0.001646428
v 0.008383744 0.003930278 0.005046783
v 0.008383745 -0.004240722 0.005046783
v 0.008383745 -0.004240722 -2.02167E-05
v 0.008383744 0.003930278 -2.02167E-05
v 0.008383744 0.003213696 -0.001646428
v -0.008122254 0.003213696 -0.001646428
v -0.008122254 -0.00368609 -0.001646428
v 0.008383745 -0.00368609 -0.001646428
v 0.008383744 0.003930278 0.005046783
v 0.005412745 0.003930278 0.008016783
v 0.002201745 0.003930278 0.005056783
v 0.008383744 0.003930278 -2.02167E-05
v -0.008122254 0.003930278 -2.02167E-05
v -0.001940255 0.003930278 0.005056783
v 0.002201745 0.003930278 0.008016783
v -0.008122254 0.003930278 0.005046783
v -0.005151255 0.003930278 0.008016783
v -0.001940255 0.003930278 0.008016783
v 0.008383744 0.003930278 0.005046783
v 0.008383745 -0.004240722 0.005046783
v 0.006571745 -0.004240722 0.006858783
v 0.005412745 -0.003081727 0.008016783
v 0.005412745 0.003930278 0.008016783
v -0.006310254 -0.004240722 0.006858783
v -0.003257255 -0.004240722 0.006858783
v -0.003257255 -0.004240722 0.005056783
v -0.008122254 -0.004240722 0.005046783
v -0.008122254 -0.004240722 -2.02167E-05
v 0.008383745 -0.004240722 -2.02167E-05
v 0.003518745 -0.004240722 0.005056783
v 0.008383745 -0.004240722 0.005046783
v 0.006571745 -0.004240722 0.006858783
v 0.003518745 -0.004240722 0.006858783
v 0.002201745 0.001994276 0.008016783
v 0.002201745 0.001994276 0.005056783
v 0.002201745 0.003930278 0.005056783
v 0.002201745 0.003930278 0.008016783
v 0.002726745 0.001463275 0.008016783
v 0.002726745 0.001463275 0.005056783
v 0.003129745 0.000895276 0.008016783
v 0.003129745 0.000895276 0.005056783
v 0.003419745 0.0001432753 0.008016783
v 0.003419745 0.0001432753 0.005056783
v 0.003518745 -0.0004657268 0.008016783
v 0.003518745 -0.0004657268 0.005056783
v 0.003518745 -0.003081727 0.008016783
v 0.003518745 -0.004240722 0.006858783
v 0.003518745 -0.004240722 0.005056783
v 0.003518745 -0.003081727 0.008016783
v 0.003518745 -0.0004657268 0.008016783
v 0.005412745 -0.003081727 0.008016783
v 0.005412745 0.003930278 0.008016783
v 0.003419745 0.0001432753 0.008016783
v 0.003129745 0.000895276 0.008016783
v 0.002726745 0.001463275 0.008016783
v 0.002201745 0.001994276 0.008016783
v 0.002201745 0.003930278 0.008016783
v 0.003518745 -0.004240722 0.006858783
v 0.003518745 -0.003081727 0.008016783
v 0.005412745 -0.003081727 0.008016783
v 0.006571745 -0.004240722 0.006858783
v 0.008383744 0.002631669 -2.02167E-05
v -0.008122254 0.002631669 -2.02167E-05
v -0.008122254 0.003213696 -0.001646428
v 0.008383744 0.003213696 -0.001646428
v 0.008383744 0.003930278 -2.02167E-05
v -0.008122254 0.003930278 -2.02167E-05
v -0.008122254 0.002631669 -2.02167E-05
v 0.008383744 0.002631669 -2.02167E-05
v 0.008383745 -0.002938323 -2.02167E-05
v -0.008122254 -0.002938323 -2.02167E-05
v -0.008122254 -0.004240722 -2.02167E-05
v 0.008383745 -0.004240722 -2.02167E-05
v 0.008383745 -0.00368609 -0.001646428
v -0.008122254 -0.00368609 -0.001646428
v -0.008122254 -0.002938323 -2.02167E-05
v 0.008383745 -0.002938323 -2.02167E-05
v -0.008122254 -0.00368609 -0.001646428
v -0.008122254 0.003213696 -0.001646428
v -0.008122254 0.002631669 -2.02167E-05
v -0.008122254 -0.002938323 -2.02167E-05
v -0.008122254 0.003930278 0.005046783
v -0.008122254 -0.004240722 0.005046783
v -0.008122254 -0.004240722 -2.02167E-05
v -0.008122254 0.003930278 -2.02167E-05
v -0.008122254 0.003930278 0.005046783
v -0.006310254 -0.004240722 0.006858783
v -0.008122254 -0.004240722 0.005046783
v -0.005151254 -0.003081727 0.008016783
v -0.005151255 0.003930278 0.008016783
v -0.001940255 0.001994276 0.008016783
v -0.001940255 0.003930278 0.008016783
v -0.001940255 0.003930278 0.005056783
v -0.001940255 0.001994276 0.005056783
v -0.002465255 0.001463275 0.008016783
v -0.002465255 0.001463275 0.005056783
v -0.002868255 0.000895276 0.008016783
v -0.002868255 0.000895276 0.005056783
v -0.003158255 0.0001432753 0.008016783
v -0.003158255 0.0001432753 0.005056783
v -0.003257255 -0.0004657268 0.008016783
v -0.003257255 -0.0004657268 0.005056783
v -0.003257255 -0.003081727 0.008016783
v -0.003257255 -0.004240722 0.006858783
v -0.003257255 -0.004240722 0.005056783
v -0.003257255 -0.003081727 0.008016783
v -0.005151254 -0.003081727 0.008016783
v -0.003257255 -0.0004657268 0.008016783
v -0.005151255 0.003930278 0.008016783
v -0.003158255 0.0001432753 0.008016783
v -0.002868255 0.000895276 0.008016783
v -0.002465255 0.001463275 0.008016783
v -0.001940255 0.001994276 0.008016783
v -0.001940255 0.003930278 0.008016783
v -0.003257255 -0.004240722 0.006858783
v -0.006310254 -0.004240722 0.006858783
v -0.005151254 -0.003081727 0.008016783
v -0.003257255 -0.003081727 0.008016783
v -0.001940255 0.001994276 0.005056783
v -0.001940255 0.003930278 0.005056783
v 0.002201745 0.003930278 0.005056783
v 0.002201745 0.001994276 0.005056783
v 0.002726745 0.001463275 0.005056783
v -0.002465255 0.001463275 0.005056783
v 0.003129745 0.000895276 0.005056783
v -0.002868255 0.000895276 0.005056783
v 0.003419745 0.0001432753 0.005056783
v -0.003158255 0.0001432753 0.005056783
v 0.003518745 -0.0004657268 0.005056783
v -0.003257255 -0.0004657268 0.005056783
v 0.003518745 -0.004240722 0.005056783
v -0.003257255 -0.004240722 0.005056783
vt 0.4194 0.4774
vt 0.4685 0.4454
vt 0.4685 0.2971
vt 0.4195 0.265
vt 0.6313 0.24
vt 0.6313 0.5025
vt 0.4685 0.5025
vt 0.4685 0.24
vt 0.9935 0.3902
vt 0.9935 0.1477
vt 0.8964 0.1477
vt 0.8964 0.3902
vt 0.0012 0.903
vt 0.0966 0.9985
vt 0.1998 0.9034
vt 0.0012 0.7403
vt 0.5314 0.7403
vt 0.3328 0.9034
vt 0.1998 0.9985
vt 0.5314 0.903
vt 0.436 0.9985
vt 0.3328 0.9985
vt 0.9958 0.0043
vt 0.7333 0.0043
vt 0.7333 0.0866
vt 0.7706 0.1393
vt 0.9958 0.1393
vt 0.0594 0.2222
vt 0.1575 0.2222
vt 0.1575 0.1643
vt 0.0012 0.164
vt 0.0012 0.0012
vt 0.5315 0.0012
vt 0.3751 0.1643
vt 0.5315 0.164
vt 0.4732 0.2222
vt 0.3751 0.2222
vt 0.0656 0.6124
vt 0.0656 0.5173
vt 0.0034 0.5173
vt 0.0034 0.6124
vt 0.0896 0.6124
vt 0.0896 0.5173
vt 0.1119 0.6124
vt 0.1119 0.5173
vt 0.1378 0.6125
vt 0.1378 0.5173
vt 0.1576 0.6125
vt 0.1576 0.5173
vt 0.2417 0.6125
vt 0.2789 0.5753
vt 0.2789 0.5174
vt 0.6593 0.2287
vt 0.6593 0.1447
vt 0.7201 0.2287
vt 0.7201 0.0034
vt 0.6561 0.1251
vt 0.6468 0.1009
vt 0.6338 0.0827
vt 0.6169 0.0656
vt 0.6169 0.0034
vt 0.8066 0.4059
vt 0.8066 0.4586
vt 0.8675 0.4586
vt 0.9047 0.4059
vt -0.1304 0.9974
vt -0.1304 0.4672
vt -0.0718 0.4672
vt -0.0718 0.9974
vt 0.998 0.9978
vt 0.998 0.4675
vt 0.941 0.4675
vt 0.941 0.9978
vt -0.059 0.9978
vt -0.059 0.4675
vt -0.002 0.4675
vt -0.002 0.9978
vt 0.9282 0.9974
vt 0.9282 0.4672
vt 0.8696 0.4672
vt 0.8696 0.9974
vt -0.5805 0.4774
vt -0.5806 0.265
vt -0.5315 0.2971
vt -0.5315 0.4454
vt -0.3687 0.24
vt -0.3687 0.5025
vt -0.5315 0.5025
vt -0.5315 0.24
vt 0.8566 0.7286
vt 0.7743 0.4662
vt 0.8566 0.4662
vt 0.7217 0.5034
vt 0.7217 0.7286
vt 0.7355 0.3017
vt 0.7355 0.2395
vt 0.6403 0.2396
vt 0.6403 0.3017
vt 0.7355 0.3257
vt 0.6403 0.3258
vt 0.7355 0.3481
vt 0.6403 0.3481
vt 0.7355 0.374
vt 0.6403 0.374
vt 0.7355 0.3938
vt 0.6403 0.3938
vt 0.7355 0.4778
vt 0.6983 0.5151
vt 0.6403 0.5151
vt 0.6064 0.004
vt 0.5456 0.004
vt 0.6064 0.088
vt 0.5456 0.2291
vt 0.6096 0.1076
vt 0.6189 0.1317
vt 0.6318 0.1499
vt 0.6486 0.167
vt 0.6486 0.2291
vt 0.9905 0.457
vt 0.8924 0.457
vt 0.9296 0.4044
vt 0.9905 0.4044
vt 0.5543 0.6862
vt 0.6165 0.6862
vt 0.6165 0.5531
vt 0.5543 0.5531
vt 0.5373 0.5363
vt 0.5373 0.7031
vt 0.5191 0.5233
vt 0.5191 0.716
vt 0.4949 0.514
vt 0.4949 0.7253
vt 0.4753 0.5108
vt 0.4753 0.7285
vt 0.3541 0.5108
vt 0.3541 0.7285
vn 1 0 0
vn 1 0 0
vn 1 0 0
vn 1 0 0
vn 1 0 0
vn 1 0 0
vn 1 0 0
vn 1 0 0
vn 0 0 -1
vn 0 0 -1
vn 0 0 -1
vn 0 0 -1
vn 0 1 0
vn 0 1 0
vn 0 1 0
vn 0 1 0
vn 0 1 0
vn 0 1 0
vn 0 1 0
vn 0 1 0
vn 0 1 0
vn 0 1 0
vn 0.7069905 0 0.707223
vn 0.7071097 0 0.7071038
vn 0.7069816 4.768365E-05 0.7072319
vn 0.7068863 9.536729E-05 0.7073273
vn 0.7069905 0 0.707223
vn 0 -1 0
vn 0 -1 0
vn 0 -1 0
vn 0 -1 0
vn 0 -1 0
vn 0 -1 0
vn 0 -1 0
vn 0 -1 0
vn 0 -1 0
vn 0 -1 0
vn -0.9249693 -0.3800419 0
vn -0.9249693 -0.3800419 0
vn -1 0 0
vn -1 0 0
vn -0.7658859 -0.6429764 0
vn -0.7658859 -0.6429764 0
vn -0.8811257 -0.4728822 0
vn -0.8811257 -0.4728822 0
vn -0.9651915 -0.261544 0
vn -0.9651915 -0.261544 0
vn -0.9967554 -0.08049002 0
vn -0.9967554 -0.08049002 0
vn -1 0 0
vn -1 0 0
vn -1 0 0
vn 0 0 1
vn 0 0 1
vn 0 0 1
vn 0 0 1
vn 0 0 1
vn 0 0 1
vn 0 0 1
vn 0 0 1
vn 0 0 1
vn 0 -0.7068087 0.7074047
vn 0 -0.7068087 0.7074047
vn 0 -0.7068087 0.7074047
vn 0 -0.7068087 0.7074047
vn 0 0.9415157 0.3369692
vn 0 0.9415157 0.3369692
vn 0 0.9415157 0.3369692
vn 0 0.9415157 0.3369692
vn 0 0 -1
vn 0 0 -1
vn 0 0 -1
vn 0 0 -1
vn 0 0 -1
vn 0 0 -1
vn 0 0 -1
vn 0 0 -1
vn 0 -0.9085554 0.4177643
vn 0 -0.9085554 0.4177643
vn 0 -0.9085554 0.4177643
vn 0 -0.9085554 0.4177643
vn -1 0 0
vn -1 0 0
vn -1 0 0
vn -1 0 0
vn -1 0 0
vn -1 0 0
vn -1 0 0
vn -1 0 0
vn -0.7069905 0 0.707223
vn -0.7069816 4.768365E-05 0.7072319
vn -0.7071097 0 0.7071038
vn -0.7068863 9.536729E-05 0.7073273
vn -0.7069905 0 0.707223
vn 0.9249693 -0.3800419 0
vn 1 0 0
vn 1 0 0
vn 0.9249693 -0.3800419 0
vn 0.7658859 -0.6429764 0
vn 0.7658859 -0.6429764 0
vn 0.8811257 -0.4728822 0
vn 0.8811257 -0.4728822 0
vn 0.9651915 -0.261544 0
vn 0.9651915 -0.261544 0
vn 0.9967554 -0.08049002 0
vn 0.9967554 -0.08049002 0
vn 1 0 0
vn 1 0 0
vn 1 0 0
vn 0 0 1
vn 0 0 1
vn 0 0 1
vn 0 0 1
vn 0 0 1
vn 0 0 1
vn 0 0 1
vn 0 0 1
vn 0 0 1
vn 0 -0.7068087 0.7074047
vn 0 -0.7068087 0.7074047
vn 0 -0.7068087 0.7074047
vn 0 -0.7068087 0.7074047
vn 0 0 1
vn 0 0 1
vn 0 0 1
vn 0 0 1
vn 0 0 1
vn 0 0 1
vn 0 0 1
vn 0 0 1
vn 0 0 1
vn 0 0 1
vn 0 0 1
vn 0 0 1
vn 0 0 1
vn 0 0 1
g sight_rear_glock_zev_tech_LOD0_0
f 3/3/3 2/2/2 1/1/1
f 4/4/4 3/3/3 1/1/1
f 3/3/3 5/5/5 2/2/2
f 5/5/5 6/6/6 2/2/2
f 6/6/6 7/7/7 2/2/2
f 3/3/3 8/8/8 5/5/5
f 11/11/11 10/10/10 9/9/9
f 12/12/12 11/11/11 9/9/9
f 15/15/15 14/14/14 13/13/13
f 15/15/15 13/13/13 16/16/16
f 16/16/16 17/17/17 15/15/15
f 17/17/17 18/18/18 15/15/15
f 15/15/15 19/19/19 14/14/14
f 20/20/20 18/18/18 17/17/17
f 21/21/21 18/18/18 20/20/20
f 22/22/22 18/18/18 21/21/21
f 25/25/25 24/24/24 23/23/23
f 25/25/25 23/23/23 26/26/26
f 23/23/23 27/27/27 26/26/26
f 30/30/30 29/29/29 28/28/28
f 30/30/30 28/28/28 31/31/31
f 30/30/30 31/31/31 32/32/32
f 30/30/30 32/32/32 33/33/33
f 34/34/34 30/30/30 33/33/33
f 35/35/35 34/34/34 33/33/33
f 35/35/35 36/36/36 34/34/34
f 36/36/36 37/37/37 34/34/34
f 40/40/40 39/39/39 38/38/38
f 41/41/41 40/40/40 38/38/38
f 38/38/38 39/39/39 42/42/42
f 39/39/39 43/43/43 42/42/42
f 42/42/42 43/43/43 44/44/44
f 43/43/43 45/45/45 44/44/44
f 44/44/44 45/45/45 46/46/46
f 45/45/45 47/47/47 46/46/46
f 46/46/46 47/47/47 48/48/48
f 47/47/47 49/49/49 48/48/48
f 50/50/50 48/48/48 49/49/49
f 51/51/51 50/50/50 49/49/49
f 51/51/51 49/49/49 52/52/52
f 55/55/55 54/54/54 53/53/53
f 55/55/55 56/56/56 54/54/54
f 56/56/56 57/57/57 54/54/54
f 56/56/56 58/58/58 57/57/57
f 56/56/56 59/59/59 58/58/58
f 56/56/56 60/60/60 59/59/59
f 56/56/56 61/61/61 60/60/60
f 64/64/64 63/63/63 62/62/62
f 65/65/65 64/64/64 62/62/62
f 68/68/68 67/67/67 66/66/66
f 69/69/69 68/68/68 66/66/66
f 72/72/72 71/71/71 70/70/70
f 73/73/73 72/72/72 70/70/70
f 76/76/76 75/75/75 74/74/74
f 77/77/77 76/76/76 74/74/74
f 80/80/80 79/79/79 78/78/78
f 81/81/81 80/80/80 78/78/78
f 84/84/84 83/83/83 82/82/82
f 85/85/85 84/84/84 82/82/82
f 86/86/86 84/84/84 85/85/85
f 87/87/87 86/86/86 85/85/85
f 88/88/88 87/87/87 85/85/85
f 89/89/89 84/84/84 86/86/86
f 92/92/92 91/91/91 90/90/90
f 90/90/90 91/91/91 93/93/93
f 94/94/94 90/90/90 93/93/93
f 97/97/97 96/96/96 95/95/95
f 98/98/98 97/97/97 95/95/95
f 98/98/98 95/95/95 99/99/99
f 100/100/100 98/98/98 99/99/99
f 100/100/100 99/99/99 101/101/101
f 102/102/102 100/100/100 101/101/101
f 102/102/102 101/101/101 103/103/103
f 104/104/104 102/102/102 103/103/103
f 104/104/104 103/103/103 105/105/105
f 106/106/106 104/104/104 105/105/105
f 105/105/105 107/107/107 106/106/106
f 107/107/107 108/108/108 106/106/106
f 106/106/106 108/108/108 109/109/109
f 112/112/112 111/111/111 110/110/110
f 113/113/113 111/111/111 112/112/112
f 114/114/114 113/113/113 112/112/112
f 115/115/115 113/113/113 114/114/114
f 116/116/116 113/113/113 115/115/115
f 117/117/117 113/113/113 116/116/116
f 118/118/118 113/113/113 117/117/117
f 121/121/121 120/120/120 119/119/119
f 122/122/122 121/121/121 119/119/119
f 125/125/125 124/124/124 123/123/123
f 126/126/126 125/125/125 123/123/123
f 126/126/126 123/123/123 127/127/127
f 123/123/123 128/128/128 127/127/127
f 127/127/127 128/128/128 129/129/129
f 128/128/128 130/130/130 129/129/129
f 129/129/129 130/130/130 131/131/131
f 130/130/130 132/132/132 131/131/131
f 131/131/131 132/132/132 133/133/133
f 132/132/132 134/134/134 133/133/133
f 133/133/133 134/134/134 135/135/135
f 134/134/134 136/136/136 135/135/135
