g sight_rear_ak_izhmash_akmb_LOD1
v 0.01905025 0.03501945 0.006893997
v 0.01905025 0.03409304 0.004053697
v 0.01905025 0.03123404 0.003178096
v 0.01905025 0.04220675 0.004053697
v 0.01905025 0.04107044 0.006893997
v 0.01905025 0.04503324 0.003178096
v 0.01905025 0.04491585 -0.003178005
v 0.01905025 0.04205704 -0.004053602
v 0.01905025 0.04107044 -0.006894002
v 0.01905025 0.03394335 -0.004053602
v 0.01905025 0.03476484 -0.006894002
v 0.01905025 0.03111705 -0.003178005
v -0.01898675 0.04107044 0.006893997
v -0.01898675 0.04207724 0.003926496
v -0.01898675 0.04503324 0.003178096
v -0.01898675 0.03421794 0.003926496
v -0.01898675 0.03501945 0.006893997
v -0.01898675 0.03123404 0.003178096
v -0.01898675 0.04491585 -0.003178005
v -0.01898675 0.04193214 -0.003926501
v -0.01898675 0.04107044 -0.006894002
v -0.01898675 0.03476484 -0.006894002
v -0.01898675 0.03407285 -0.003926501
v -0.01898675 0.03111705 -0.003178005
v 0.006018847 0.05009914 0.001751594
v 0.006018847 0.05003614 -0.001928401
v 0.006018847 -0.00484396 0.001443996
v -0.005997153 0.05009914 0.001751594
v -0.005997153 -0.00484396 0.001443996
v -0.005997153 0.05003614 -0.001928401
v 0.01905025 0.03123404 0.003178096
v -0.01898675 0.03123404 0.003178096
v 0.01905025 0.03501945 0.006893997
v -0.01898675 0.03501945 0.006893997
v -0.01898675 0.03111705 -0.003178005
v 0.01905025 0.03111705 -0.003178005
v -0.01898675 0.03476484 -0.006894002
v 0.01905025 0.03476484 -0.006894002
v 0.01905025 0.04107044 0.006893997
v -0.01898675 0.04107044 0.006893997
v 0.01905025 0.04503324 0.003178096
v -0.01898675 0.04503324 0.003178096
v 0.01905025 0.04491585 -0.003178005
v -0.01898675 0.04491585 -0.003178005
v 0.01905025 0.04107044 -0.006894002
v -0.01898675 0.04107044 -0.006894002
v 0.01905025 0.03476484 -0.006894002
v -0.01898675 0.03476484 -0.006894002
v 0.02612175 0.04045074 0.002330894
v 0.02612175 0.04036465 -0.002330804
v 0.02612175 0.03578534 0.002330894
v 0.02612175 0.03569924 -0.002330804
v -0.02370895 0.03407285 -0.003926501
v -0.02370895 0.04193214 -0.003926501
v -0.02370895 0.03421794 0.003926496
v -0.02370895 0.04207724 0.003926496
v -0.02328815 0.05450434 0.005819497
v 0.01672615 0.05450434 0.005819497
v -0.02328815 0.04876704 8.219718E-05
v 0.01672615 0.04876704 8.219718E-05
v -0.02328815 0.05425055 -0.005613103
v 0.01672615 0.05425055 -0.005613103
v 0.01672615 0.05998784 0.000124197
v -0.02328815 0.05998784 0.000124197
v 0.01672615 0.05425055 -0.005613103
v -0.02328815 0.05425055 -0.005613103
v 0.01905025 0.04205704 -0.004053602
v 0.02376665 0.04205704 -0.004053602
v 0.01905025 0.04220675 0.004053697
v 0.02376665 0.04220675 0.004053697
v 0.02376665 0.03394335 -0.004053602
v 0.01905025 0.03394335 -0.004053602
v 0.01905025 0.03409304 0.004053697
v 0.02376665 0.03409304 0.004053697
v 0.01905025 0.03394335 -0.004053602
v 0.02376665 0.03394335 -0.004053602
v 0.006018847 0.05009914 0.001751594
v 0.006018847 -0.00484396 0.001443996
v -0.005997153 0.05009914 0.001751594
v -0.005997153 -0.00484396 0.001443996
v 0.02376665 0.03409304 0.004053697
v 0.02612175 0.03578534 0.002330894
v 0.02376665 0.03394335 -0.004053602
v 0.02612175 0.03569924 -0.002330804
v 0.02612175 0.04045074 0.002330894
v 0.02376665 0.04220675 0.004053697
v 0.02612175 0.04036465 -0.002330804
v 0.02376665 0.04205704 -0.004053602
v 0.02612175 0.03569924 -0.002330804
v 0.02376665 0.03394335 -0.004053602
v -0.02328815 0.05450434 0.005819497
v -0.02328815 0.04876704 8.219718E-05
v -0.02328815 0.05998784 0.000124197
v -0.02328815 0.05425055 -0.005613103
v -0.01898675 0.03407285 -0.003926501
v -0.02370895 0.03407285 -0.003926501
v -0.01898675 0.03421794 0.003926496
v -0.02370895 0.03421794 0.003926496
v -0.02370895 0.04193214 -0.003926501
v -0.01898675 0.04193214 -0.003926501
v -0.01898675 0.04207724 0.003926496
v -0.02370895 0.04207724 0.003926496
v -0.01898675 0.04193214 -0.003926501
v -0.02370895 0.04193214 -0.003926501
v 0.01672615 0.05425055 -0.005613103
v 0.01672615 0.04876704 8.219718E-05
v 0.01672615 0.05998784 0.000124197
v 0.01672615 0.05450434 0.005819497
v -0.005997153 0.05003614 -0.001928401
v -0.005997153 -0.00484396 0.001443996
v 0.006018847 0.05003614 -0.001928401
v 0.006018847 -0.00484396 0.001443996
vt 0.836768 0.397314
vt 0.828299 0.369822
vt 0.800767 0.36011
vt 0.90688 0.369822
vt 0.895375 0.397314
vt 0.934409 0.362565
vt 0.934409 0.300991
vt 0.90688 0.291277
vt 0.897829 0.263755
vt 0.828299 0.291277
vt 0.836764 0.263755
vt 0.800767 0.298525
vt 0.835706 0.04
vt 0.845979 0.0687231
vt 0.874741 0.0747473
vt 0.769863 0.0687231
vt 0.777098 0.04
vt 0.741099 0.0772048
vt 0.874741 0.136323
vt 0.845979 0.144805
vt 0.838159 0.173559
vt 0.777094 0.173559
vt 0.769863 0.144805
vt 0.741099 0.138786
vt 0.777422 0.413233
vt 0.74178 0.413233
vt 0.74178 0.945518
vt 0.8215 0.96
vt 0.8215 0.427842
vt 0.78585 0.96
vt 0.408434 0.152017
vt 0.04 0.152016
vt 0.408434 0.203396
vt 0.04 0.203396
vt 0.0400001 0.0904396
vt 0.408435 0.09044
vt 0.0400001 0.04
vt 0.408435 0.0400003
vt 0.408434 0.262007
vt 0.04 0.262007
vt 0.408434 0.314628
vt 0.04 0.314628
vt 0.408434 0.376204
vt 0.04 0.376204
vt 0.408434 0.428001
vt 0.04 0.428001
vt 0.408434 0.489079
vt 0.04 0.489079
vt 0.607281 0.652004
vt 0.607281 0.606846
vt 0.562095 0.652004
vt 0.562095 0.606846
vt 0.638215 0.696348
vt 0.562095 0.696348
vt 0.638215 0.772421
vt 0.562095 0.772421
vt 0.195171 0.919849
vt 0.195171 0.532261
vt 0.116579 0.919849
vt 0.116579 0.532261
vt 0.04 0.919849
vt 0.04 0.532261
vt 0.27175 0.532261
vt 0.27175 0.919849
vt 0.350341 0.532261
vt 0.350341 0.919849
vt 0.428775 0.685437
vt 0.383091 0.685437
vt 0.428775 0.763979
vt 0.383091 0.763979
vt 0.383091 0.606846
vt 0.428776 0.606846
vt 0.428775 0.842571
vt 0.383091 0.842571
vt 0.428775 0.921113
vt 0.383091 0.921113
vt 0.591929 0.04
vt 0.591929 0.572248
vt 0.698287 0.04
vt 0.698287 0.572248
vt 0.860435 0.485235
vt 0.890899 0.485235
vt 0.860435 0.427842
vt 0.890899 0.427842
vt 0.890899 0.542663
vt 0.860435 0.542663
vt 0.890899 0.600056
vt 0.860435 0.600056
vt 0.890899 0.657484
vt 0.860435 0.657484
vt 0.860435 0.815684
vt 0.860435 0.894268
vt 0.937007 0.815684
vt 0.937007 0.894268
vt 0.472593 0.835131
vt 0.518333 0.835131
vt 0.472593 0.759052
vt 0.518333 0.759052
vt 0.518333 0.911258
vt 0.472593 0.911258
vt 0.472593 0.682925
vt 0.518333 0.682925
vt 0.472593 0.606846
vt 0.518333 0.606846
vt 0.937007 0.696348
vt 0.860435 0.696348
vt 0.937007 0.774932
vt 0.860435 0.774932
vt 0.442759 0.04
vt 0.442759 0.572632
vt 0.549117 0.04
vt 0.549117 0.572632
vn 1 0 0
vn 1 0 0
vn 1 0 0
vn 1 0 0
vn 1 0 0
vn 1 0 0
vn 1 0 0
vn 1 0 0
vn 1 0 0
vn 1 0 0
vn 1 0 0
vn 1 0 0
vn -1 0 0
vn -1 0 0
vn -1 0 0
vn -1 0 0
vn -1 0 0
vn -1 0 0
vn -1 0 0
vn -1 0 0
vn -1 0 0
vn -1 0 0
vn -1 0 0
vn -1 0 0
vn 1 0 0
vn 1 0 0
vn 1 0 0
vn -1 0 0
vn -1 0 0
vn -1 0 0
vn 0 -0.918497 0.395428
vn 0 -0.918497 0.3954282
vn 0 -0.3783997 0.9256424
vn 0 -0.3783996 0.9256424
vn 0 -0.9290848 -0.3698669
vn 0 -0.9290847 -0.3698671
vn 0 -0.3869577 -0.9220974
vn 0 -0.3869575 -0.9220975
vn 0 0.3677864 0.9299102
vn 0 0.3677866 0.9299102
vn 0 0.9212413 0.3889916
vn 0 0.9212415 0.3889915
vn 0 0.9169257 -0.399058
vn 0 0.9169257 -0.3990581
vn 0 0.3747645 -0.92712
vn 0 0.3747644 -0.9271201
vn 0 -0.3869575 -0.9220975
vn 0 -0.3869577 -0.9220974
vn 1 0 0
vn 1 0 0
vn 1 0 0
vn 1 0 0
vn -1 0 0
vn -1 0 0
vn -1 0 0
vn -1 0 0
vn 0 0.009471829 0.9999552
vn 0 0.009471726 0.9999552
vn 0 -0.9999552 0.009472011
vn 0 -0.9999552 0.009471904
vn 0 -0.009471829 -0.9999552
vn 0 -0.009471726 -0.9999552
vn 0 0.9999552 -0.009471904
vn 0 0.9999552 -0.009472011
vn 0 -0.009471726 -0.9999552
vn 0 -0.009471829 -0.9999552
vn 0 0.7005492 -0.713604
vn 0 0.7005492 -0.713604
vn 0 0.7136041 0.7005492
vn 0 0.7136041 0.7005492
vn 0 -0.7136041 -0.7005492
vn 0 -0.7136041 -0.7005492
vn 0 -0.7005492 0.713604
vn 0 -0.7005492 0.713604
vn 0 -0.7136041 -0.7005492
vn 0 -0.7136041 -0.7005492
vn 0 -0.005598397 0.9999844
vn 0 -0.005598397 0.9999844
vn 0 -0.005598397 0.9999844
vn 0 -0.005598397 0.9999844
vn 0.7159202 -0.4891434 0.4981937
vn 0.7159194 -0.4890202 0.4983157
vn 0.7223296 -0.493523 -0.4844327
vn 0.7223287 -0.4934061 -0.4845532
vn 0.7223397 0.493389 0.4845542
vn 0.7223405 0.4935179 0.4844215
vn 0.7159296 0.489003 -0.4983181
vn 0.7159304 0.4891396 -0.4981828
vn 0.7223287 -0.4934061 -0.4845532
vn 0.7223296 -0.493523 -0.4844327
vn -1 0 0
vn -1 0 0
vn -1 0 0
vn -1 0 0
vn 0 -0.7136081 -0.7005451
vn 0 -0.7136081 -0.7005451
vn 0 -0.7005453 0.713608
vn 0 -0.7005453 0.713608
vn 0 0.7005447 -0.7136084
vn 0 0.7005447 -0.7136084
vn 0 0.7136084 0.7005447
vn 0 0.7136084 0.7005448
vn 0 0.7005447 -0.7136084
vn 0 0.7005447 -0.7136084
vn 1 0 0
vn 1 0 0
vn 1 0 0
vn 1 0 0
vn 0 -0.06133458 -0.9981172
vn 0 -0.06133458 -0.9981172
vn 0 -0.06133458 -0.9981172
vn 0 -0.06133458 -0.9981172
g sight_rear_ak_izhmash_akmb_LOD1_0
f 3/3/3 2/2/2 1/1/1
f 4/4/4 1/1/1 2/2/2
f 1/1/1 4/4/4 5/5/5
f 5/5/5 4/4/4 6/6/6
f 4/4/4 7/7/7 6/6/6
f 7/7/7 4/4/4 8/8/8
f 7/7/7 8/8/8 9/9/9
f 10/10/10 9/9/9 8/8/8
f 9/9/9 10/10/10 11/11/11
f 11/11/11 10/10/10 12/12/12
f 2/2/2 12/12/12 10/10/10
f 12/12/12 2/2/2 3/3/3
f 15/15/15 14/14/14 13/13/13
f 16/16/16 13/13/13 14/14/14
f 13/13/13 16/16/16 17/17/17
f 17/17/17 16/16/16 18/18/18
f 19/19/19 14/14/14 15/15/15
f 14/14/14 19/19/19 20/20/20
f 21/21/21 20/20/20 19/19/19
f 22/22/22 20/20/20 21/21/21
f 20/20/20 22/22/22 23/23/23
f 24/24/24 23/23/23 22/22/22
f 24/24/24 16/16/16 23/23/23
f 16/16/16 24/24/24 18/18/18
f 27/27/27 26/26/26 25/25/25
f 30/30/30 29/29/29 28/28/28
f 33/33/33 32/32/32 31/31/31
f 32/32/32 33/33/33 34/34/34
f 35/35/35 31/31/31 32/32/32
f 31/31/31 35/35/35 36/36/36
f 37/37/37 36/36/36 35/35/35
f 36/36/36 37/37/37 38/38/38
f 39/39/39 34/34/34 33/33/33
f 34/34/34 39/39/39 40/40/40
f 41/41/41 40/40/40 39/39/39
f 40/40/40 41/41/41 42/42/42
f 43/43/43 42/42/42 41/41/41
f 42/42/42 43/43/43 44/44/44
f 45/45/45 44/44/44 43/43/43
f 44/44/44 45/45/45 46/46/46
f 47/47/47 46/46/46 45/45/45
f 46/46/46 47/47/47 48/48/48
f 51/51/51 50/50/50 49/49/49
f 50/50/50 51/51/51 52/52/52
f 55/55/55 54/54/54 53/53/53
f 54/54/54 55/55/55 56/56/56
f 59/59/59 58/58/58 57/57/57
f 58/58/58 59/59/59 60/60/60
f 61/61/61 60/60/60 59/59/59
f 60/60/60 61/61/61 62/62/62
f 63/63/63 57/57/57 58/58/58
f 57/57/57 63/63/63 64/64/64
f 65/65/65 64/64/64 63/63/63
f 64/64/64 65/65/65 66/66/66
f 69/69/69 68/68/68 67/67/67
f 68/68/68 69/69/69 70/70/70
f 71/71/71 67/67/67 68/68/68
f 67/67/67 71/71/71 72/72/72
f 73/73/73 70/70/70 69/69/69
f 70/70/70 73/73/73 74/74/74
f 75/75/75 74/74/74 73/73/73
f 74/74/74 75/75/75 76/76/76
f 79/79/79 78/78/78 77/77/77
f 78/78/78 79/79/79 80/80/80
f 83/83/83 82/82/82 81/81/81
f 82/82/82 83/83/83 84/84/84
f 85/85/85 81/81/81 82/82/82
f 81/81/81 85/85/85 86/86/86
f 87/87/87 86/86/86 85/85/85
f 86/86/86 87/87/87 88/88/88
f 89/89/89 88/88/88 87/87/87
f 88/88/88 89/89/89 90/90/90
f 93/93/93 92/92/92 91/91/91
f 92/92/92 93/93/93 94/94/94
f 97/97/97 96/96/96 95/95/95
f 96/96/96 97/97/97 98/98/98
f 99/99/99 95/95/95 96/96/96
f 95/95/95 99/99/99 100/100/100
f 101/101/101 98/98/98 97/97/97
f 98/98/98 101/101/101 102/102/102
f 103/103/103 102/102/102 101/101/101
f 102/102/102 103/103/103 104/104/104
f 107/107/107 106/106/106 105/105/105
f 106/106/106 107/107/107 108/108/108
f 111/111/111 110/110/110 109/109/109
f 110/110/110 111/111/111 112/112/112
