g weapon_molot_vpo_215_hammer_LOD0
v 0.003094056 0.01044869 -0.001036854
v 0.003258078 0.01044868 -1.223285E-06
v 0.002420323 0.01118938 -1.222844E-06
v 0.002297299 0.01118939 -0.0007779715
v 0.002618029 0.01044869 -0.001971109
v 0.001940272 0.01118939 -0.001478686
v 0.001876595 0.0104487 -0.002712538
v 0.001384175 0.01118939 -0.002034776
v 0.000942347 0.0104487 -0.003188565
v 0.0006834626 0.01118939 -0.002391808
v -9.328603E-05 0.0104487 -0.003352592
v -9.328603E-05 0.01118939 -0.002514834
v -0.001128919 0.0104487 -0.003188563
v -0.0008700347 0.01118939 -0.002391808
v -0.002063167 0.0104487 -0.002712536
v -0.001570747 0.01118939 -0.002034776
v -0.002804601 0.01044869 -0.001971107
v -0.002126844 0.01118939 -0.001478686
v -0.003280628 0.01044869 -0.001036854
v -0.002483871 0.01118939 -0.0007779691
v -0.00344465 0.01044868 -1.223285E-06
v -0.002606895 0.01118938 -1.22046E-06
v -0.003280628 0.01044868 0.001034405
v -0.002483871 0.01118938 0.0007755281
v -0.002804601 0.01044868 0.00196866
v -0.002126844 0.01118938 0.001476243
v -0.002063167 0.01044867 0.002710089
v -0.001570747 0.01118938 0.002032333
v -0.001128919 0.01044867 0.003186113
v -0.0008700347 0.01118938 0.002389364
v -9.328603E-05 0.01044867 0.003350141
v -9.328603E-05 0.01118938 0.002512391
v 0.000942347 0.01044867 0.003186113
v 0.0006834626 0.01118938 0.002389364
v 0.001876595 0.01044867 0.002710087
v 0.001384175 0.01118938 0.002032333
v 0.002618029 0.01044868 0.00196866
v 0.001940272 0.01118938 0.001476243
v 0.003094056 0.01044868 0.001034405
v 0.002297299 0.01118938 0.0007755281
v 0.003094056 0.008355736 -0.001036862
v 0.003094056 0.01044869 -0.001036854
v 0.002618029 0.01044869 -0.001971109
v 0.002618029 0.00835574 -0.001971117
v 0.001876595 0.0104487 -0.002712538
v 0.001876595 0.008355742 -0.002712546
v 0.000942347 0.0104487 -0.003188565
v 0.000942347 0.008355743 -0.003188573
v -9.328603E-05 0.0104487 -0.003352592
v -9.328603E-05 0.008355744 -0.0033526
v 0.003258078 0.008355732 -1.231269E-06
v 0.003258078 0.01044868 -1.223285E-06
v 0.003094056 0.008355727 0.001034397
v 0.003094056 0.01044868 0.001034405
v 0.002618029 0.008355724 0.001968652
v 0.002618029 0.01044868 0.00196866
v 0.001876595 0.008355722 0.002710079
v 0.001876595 0.01044867 0.002710087
v 0.000942347 0.00835572 0.003186106
v 0.000942347 0.01044867 0.003186113
v -9.328603E-05 0.008355719 0.003350133
v -9.328603E-05 0.01044867 0.003350141
v -0.001128919 0.00835572 0.003186106
v -0.001128919 0.01044867 0.003186113
v -0.002063167 0.008355722 0.002710079
v -0.002063167 0.01044867 0.002710089
v -0.002804601 0.008355724 0.001968652
v -0.002804601 0.01044868 0.00196866
v -0.003280628 0.008355727 0.001034397
v -0.003280628 0.01044868 0.001034405
v -0.00344465 0.008355732 -1.231269E-06
v -0.00344465 0.01044868 -1.223285E-06
v -0.003280628 0.008355736 -0.001036862
v -0.003280628 0.01044869 -0.001036854
v -0.002804601 0.00835574 -0.001971117
v -0.002804601 0.01044869 -0.001971107
v -0.002063167 0.008355742 -0.002712544
v -0.002063167 0.0104487 -0.002712536
v -0.001128919 0.008355743 -0.003188573
v -0.001128919 0.0104487 -0.003188563
v -9.328603E-05 0.008355744 -0.0033526
v -9.328603E-05 0.0104487 -0.003352592
v 0.002420323 0.01118938 -1.222844E-06
v -9.328603E-05 0.01118938 0.002512391
v -9.328603E-05 0.01118939 -0.002514834
v -0.002606895 0.01118938 -1.22046E-06
v -0.0008700347 0.01118939 -0.002391808
v -0.002483871 0.01118939 -0.0007779691
v -0.002483871 0.01118938 0.0007755281
v -0.0008700347 0.01118938 0.002389364
v 0.0006834626 0.01118938 0.002389364
v 0.002297299 0.01118938 0.0007755281
v 0.0006834626 0.01118939 -0.002391808
v 0.002297299 0.01118939 -0.0007779715
v 0.001940272 0.01118939 -0.001478686
v 0.001384175 0.01118939 -0.002034776
v -0.001570747 0.01118939 -0.002034776
v -0.002126844 0.01118939 -0.001478686
v -0.002126844 0.01118938 0.001476243
v -0.001570747 0.01118938 0.002032333
v 0.001384175 0.01118938 0.002032333
v 0.001940272 0.01118938 0.001476243
vt 0.2687409 0.5406597
vt 0.2765372 0.5419678
vt 0.2765372 0.5341748
vt 0.2712338 0.533244
vt 0.2617562 0.5370104
vt 0.266376 0.530692
vt 0.2561721 0.531465
vt 0.2624681 0.5268086
vt 0.2524818 0.5244927
vt 0.2598908 0.5219731
vt 0.2511525 0.5166841
vt 0.2589347 0.5166841
vt 0.2524818 0.5088726
vt 0.2598908 0.5113969
vt 0.2561721 0.5019032
vt 0.2624702 0.5065596
vt 0.2617562 0.4963536
vt 0.266376 0.5026772
vt 0.268746 0.4927082
vt 0.2712388 0.5001251
vt 0.2765413 0.4914022
vt 0.2765392 0.4991975
vt 0.2843376 0.4927102
vt 0.2818426 0.5001272
vt 0.2913222 0.4963628
vt 0.2866973 0.5026813
vt 0.2969023 0.5019103
vt 0.2906061 0.5065647
vt 0.3005903 0.5088827
vt 0.2931857 0.511402
vt 0.3019239 0.5166892
vt 0.2941417 0.5166861
vt 0.3005903 0.5245008
vt 0.2931836 0.5219731
vt 0.2968971 0.531465
vt 0.2906041 0.5268117
vt 0.2913202 0.5370154
vt 0.2866973 0.530692
vt 0.2843325 0.5406628
vt 0.2818405 0.533246
vt 0.9347138 0.8321837
vt 0.9347138 0.8470566
vt 0.9421642 0.8470566
vt 0.9421663 0.8321858
vt 0.9496138 0.8470566
vt 0.9496149 0.8321837
vt 0.9570694 0.8470566
vt 0.9570704 0.8321858
vt 0.9645178 0.8470566
vt 0.9645199 0.8321858
vt 0.9272642 0.8321858
vt 0.9272612 0.8470566
vt 0.9198098 0.8321858
vt 0.9198098 0.8470566
vt 0.9123592 0.8321858
vt 0.9123582 0.8470566
vt 0.9049089 0.8321858
vt 0.9049079 0.8470566
vt 0.8974571 0.8321858
vt 0.8974571 0.8470566
vt 0.8900015 0.8321858
vt 0.8900015 0.8470566
vt 0.882552 0.8321858
vt 0.882552 0.8470566
vt 0.8751006 0.8321858
vt 0.8751006 0.8470566
vt 0.8676469 0.8321858
vt 0.8676469 0.8470566
vt 0.8601964 0.8321858
vt 0.8601964 0.8470566
vt 0.8527429 0.8321858
vt 0.852746 0.8470566
vt 0.8452957 0.8321858
vt 0.8452957 0.8470566
vt 0.8378408 0.8321858
vt 0.8378419 0.8470566
vt 0.8303883 0.8321858
vt 0.8303883 0.8470566
vt 0.822938 0.8321858
vt 0.822938 0.8470566
vt 0.8154842 0.8321858
vt 0.8154842 0.8470566
vt 0.2051282 0.7191589
vt 0.2234875 0.7009197
vt 0.186775 0.7009197
vt 0.2051323 0.6826845
vt 0.1877718 0.6954091
vt 0.1996011 0.6836529
vt 0.2106614 0.6836529
vt 0.2224907 0.6954091
vt 0.2224856 0.7064347
vt 0.2106594 0.7181907
vt 0.1877718 0.7064347
vt 0.1996011 0.7181897
vt 0.1945348 0.7155247
vt 0.1904581 0.7114756
vt 0.1904601 0.6903588
vt 0.1945348 0.6863137
vt 0.2157217 0.6863146
vt 0.2197973 0.6903641
vt 0.2197953 0.7114797
vt 0.2157217 0.7155247
vn 0.6299584 0.7491716 -0.204681
vn 0.6623769 0.7491708 2.991887E-06
vn 0.6623768 0.7491709 2.702556E-06
vn 0.6299584 0.7491716 -0.204681
vn 0.5358738 0.7491722 -0.3893331
vn 0.5358738 0.7491722 -0.3893331
vn 0.3893349 0.7491726 -0.5358719
vn 0.3893349 0.7491726 -0.5358719
vn 0.2046865 0.7491733 -0.6299545
vn 0.2046863 0.7491733 -0.6299546
vn -4.020613E-07 0.749173 -0.6623744
vn -4.659204E-07 0.749173 -0.6623744
vn -0.2046872 0.7491727 -0.6299551
vn -0.2046869 0.7491727 -0.6299552
vn -0.3893354 0.7491718 -0.5358726
vn -0.3893353 0.7491718 -0.5358726
vn -0.5358742 0.7491718 -0.3893332
vn -0.5358741 0.7491719 -0.3893335
vn -0.6299582 0.7491717 -0.2046811
vn -0.6299582 0.7491717 -0.2046808
vn -0.6623767 0.749171 2.919712E-06
vn -0.6623768 0.7491709 2.928854E-06
vn -0.6299583 0.7491701 0.2046867
vn -0.6299583 0.7491701 0.2046867
vn -0.5358738 0.7491692 0.3893388
vn -0.5358738 0.7491692 0.3893388
vn -0.3893348 0.7491683 0.535878
vn -0.3893347 0.7491683 0.5358781
vn -0.2046864 0.7491679 0.629961
vn -0.2046861 0.7491678 0.6299613
vn 0 0.7491673 0.6623809
vn 0 0.7491673 0.6623809
vn 0.2046869 0.7491677 0.6299612
vn 0.2046866 0.7491677 0.6299613
vn 0.3893351 0.7491679 0.5358783
vn 0.3893349 0.7491679 0.5358784
vn 0.5358737 0.7491691 0.3893391
vn 0.5358737 0.7491691 0.3893392
vn 0.6299583 0.7491701 0.2046867
vn 0.6299583 0.7491702 0.2046867
vn 0.9510573 1.178797E-06 -0.3090145
vn 0.9510573 1.178797E-06 -0.3090145
vn 0.8090161 2.242228E-06 -0.5877865
vn 0.8090161 2.242228E-06 -0.5877865
vn 0.5877851 3.086155E-06 -0.8090171
vn 0.5877851 3.086155E-06 -0.8090171
vn 0.309018 3.627992E-06 -0.9510562
vn 0.309018 3.627992E-06 -0.9510562
vn -5.522585E-07 4.099353E-06 -1
vn -5.522585E-07 4.099353E-06 -1
vn 1 0 1.728904E-07
vn 1 0 1.728904E-07
vn 0.9510573 -1.178798E-06 0.3090147
vn 0.9510573 -1.178798E-06 0.3090147
vn 0.8090156 -2.24223E-06 0.5877871
vn 0.8090156 -2.24223E-06 0.5877871
vn 0.5877845 -3.086157E-06 0.8090176
vn 0.5877845 -3.086157E-06 0.8090176
vn 0.309018 -3.627992E-06 0.9510562
vn 0.309018 -3.627992E-06 0.9510562
vn 0 -3.814697E-06 1
vn 0 -3.814697E-06 1
vn -0.3090175 -3.885797E-06 0.9510564
vn -0.3090175 -3.885797E-06 0.9510564
vn -0.5877845 -3.548055E-06 0.8090176
vn -0.5877843 -3.548055E-06 0.8090177
vn -0.8090159 -2.446322E-06 0.5877869
vn -0.8090159 -2.446322E-06 0.5877869
vn -0.9510573 -1.178798E-06 0.3090147
vn -0.9510573 -1.178798E-06 0.3090147
vn -1 0 1.584689E-07
vn -1 0 1.584689E-07
vn -0.9510572 1.307699E-06 -0.3090147
vn -0.9510572 1.307699E-06 -0.3090147
vn -0.8090158 2.575225E-06 -0.5877872
vn -0.8090158 2.575224E-06 -0.587787
vn -0.5877852 3.545367E-06 -0.8090171
vn -0.5877852 3.545367E-06 -0.8090171
vn -0.3090189 4.167765E-06 -0.9510559
vn -0.309019 4.167765E-06 -0.9510559
vn -5.522585E-07 4.099353E-06 -1
vn -5.522585E-07 4.099353E-06 -1
vn 0 1 3.814697E-06
vn 0 1 3.814697E-06
vn 0 1 3.814697E-06
vn 0 1 3.814697E-06
vn 0 1 3.814697E-06
vn 0 1 3.814697E-06
vn 0 1 3.814697E-06
vn 0 1 3.814697E-06
vn 0 1 3.814697E-06
vn 0 1 3.814697E-06
vn 0 1 3.814697E-06
vn 0 1 3.814697E-06
vn 0 1 3.814697E-06
vn 0 1 3.814697E-06
vn 0 1 3.814697E-06
vn 0 1 3.814697E-06
vn 0 1 3.814697E-06
vn 0 1 3.814697E-06
vn 0 1 3.814697E-06
vn 0 1 3.814697E-06
g weapon_molot_vpo_215_hammer_LOD0_0
f 3/3/3 2/2/2 1/1/1
f 4/4/4 3/3/3 1/1/1
f 1/1/1 5/5/5 4/4/4
f 5/5/5 6/6/6 4/4/4
f 5/5/5 7/7/7 6/6/6
f 7/7/7 8/8/8 6/6/6
f 7/7/7 9/9/9 8/8/8
f 9/9/9 10/10/10 8/8/8
f 9/9/9 11/11/11 10/10/10
f 11/11/11 12/12/12 10/10/10
f 11/11/11 13/13/13 12/12/12
f 13/13/13 14/14/14 12/12/12
f 13/13/13 15/15/15 14/14/14
f 15/15/15 16/16/16 14/14/14
f 15/15/15 17/17/17 16/16/16
f 17/17/17 18/18/18 16/16/16
f 17/17/17 19/19/19 18/18/18
f 19/19/19 20/20/20 18/18/18
f 19/19/19 21/21/21 20/20/20
f 21/21/21 22/22/22 20/20/20
f 21/21/21 23/23/23 22/22/22
f 23/23/23 24/24/24 22/22/22
f 23/23/23 25/25/25 24/24/24
f 25/25/25 26/26/26 24/24/24
f 25/25/25 27/27/27 26/26/26
f 27/27/27 28/28/28 26/26/26
f 27/27/27 29/29/29 28/28/28
f 29/29/29 30/30/30 28/28/28
f 29/29/29 31/31/31 30/30/30
f 31/31/31 32/32/32 30/30/30
f 31/31/31 33/33/33 32/32/32
f 33/33/33 34/34/34 32/32/32
f 33/33/33 35/35/35 34/34/34
f 35/35/35 36/36/36 34/34/34
f 35/35/35 37/37/37 36/36/36
f 37/37/37 38/38/38 36/36/36
f 37/37/37 39/39/39 38/38/38
f 39/39/39 40/40/40 38/38/38
f 39/39/39 2/2/2 40/40/40
f 2/2/2 3/3/3 40/40/40
f 43/43/43 42/42/42 41/41/41
f 44/44/44 43/43/43 41/41/41
f 45/45/45 43/43/43 44/44/44
f 46/46/46 45/45/45 44/44/44
f 47/47/47 45/45/45 46/46/46
f 48/48/48 47/47/47 46/46/46
f 49/49/49 47/47/47 48/48/48
f 50/50/50 49/49/49 48/48/48
f 41/41/41 42/42/42 51/51/51
f 42/42/42 52/52/52 51/51/51
f 51/51/51 52/52/52 53/53/53
f 52/52/52 54/54/54 53/53/53
f 53/53/53 54/54/54 55/55/55
f 54/54/54 56/56/56 55/55/55
f 55/55/55 56/56/56 57/57/57
f 56/56/56 58/58/58 57/57/57
f 57/57/57 58/58/58 59/59/59
f 58/58/58 60/60/60 59/59/59
f 59/59/59 60/60/60 61/61/61
f 60/60/60 62/62/62 61/61/61
f 61/61/61 62/62/62 63/63/63
f 62/62/62 64/64/64 63/63/63
f 63/63/63 64/64/64 65/65/65
f 64/64/64 66/66/66 65/65/65
f 65/65/65 66/66/66 67/67/67
f 66/66/66 68/68/68 67/67/67
f 67/67/67 68/68/68 69/69/69
f 68/68/68 70/70/70 69/69/69
f 69/69/69 70/70/70 71/71/71
f 70/70/70 72/72/72 71/71/71
f 71/71/71 72/72/72 73/73/73
f 72/72/72 74/74/74 73/73/73
f 73/73/73 74/74/74 75/75/75
f 74/74/74 76/76/76 75/75/75
f 75/75/75 76/76/76 77/77/77
f 76/76/76 78/78/78 77/77/77
f 77/77/77 78/78/78 79/79/79
f 78/78/78 80/80/80 79/79/79
f 79/79/79 80/80/80 81/81/81
f 80/80/80 82/82/82 81/81/81
f 85/85/85 84/84/84 83/83/83
f 85/85/85 86/86/86 84/84/84
f 85/85/85 87/87/87 86/86/86
f 87/87/87 88/88/88 86/86/86
f 86/86/86 89/89/89 84/84/84
f 89/89/89 90/90/90 84/84/84
f 84/84/84 91/91/91 83/83/83
f 91/91/91 92/92/92 83/83/83
f 85/85/85 83/83/83 93/93/93
f 83/83/83 94/94/94 93/93/93
f 94/94/94 95/95/95 93/93/93
f 95/95/95 96/96/96 93/93/93
f 87/87/87 97/97/97 88/88/88
f 97/97/97 98/98/98 88/88/88
f 89/89/89 99/99/99 90/90/90
f 99/99/99 100/100/100 90/90/90
f 91/91/91 101/101/101 92/92/92
f 101/101/101 102/102/102 92/92/92
