g tactical_all_surefire_xc1_LOD1
v 0.01322202 -0.008083372 -0.001289201
v 0.01322202 -0.008066615 -0.01223655
v 3.946841E-05 -0.008049855 -0.01896498
v 3.94702E-05 -0.008069548 -0.01105914
v -0.004624795 -0.008083375 -0.005508106
v 0.009013867 -0.008083372 -0.001169629
v 0.01228647 -0.008058235 -0.01618061
v 0.007649178 -0.008049857 -0.01896498
v -0.00892821 -0.008083371 -0.001169625
v -0.01314307 -0.008083373 -0.005508103
v -0.01314307 -0.008083371 -0.001289191
v -0.00484483 -0.01034506 -0.01221618
v -0.003551083 -0.01034506 -0.008999622
v -0.001652896 -0.01034506 -0.01238377
v -0.003551084 -0.01034506 -0.0155462
v -0.006270673 -0.01034506 -0.01766554
v -0.01314308 -0.01034506 -0.0117805
v -0.01314308 -0.01034506 -0.008999618
v -0.01215555 -0.01034506 -0.01622632
v 0.01124488 0.02886095 -0.005762848
v 0.006655611 0.02886095 -0.003689631
v 0.006960782 0.04057206 -0.003689636
v 0.01124487 0.04057205 -0.005762853
v 0.01322201 0.04057205 -0.01132732
v 0.01322201 0.02585565 -0.01159674
v 0.01322202 0.02573313 -0.001725654
v 0.006655611 0.02886095 -0.003689631
v 0.01124488 0.02886095 -0.005762848
v 0.01322201 0.02585565 -0.01159674
v -0.01314307 0.02202341 0.004529973
v -0.01314308 0.02573314 -0.001725645
v -0.00892821 0.02573314 -0.001606079
v -0.008928209 0.02202341 0.004529971
v -0.006336004 0.02886095 -0.003689626
v 0.006655611 0.02886095 -0.003689631
v 0.009013868 0.02573314 -0.001606083
v 0.01322202 0.02573313 -0.001725654
v 0.01322202 0.02202341 0.004529965
v 0.00901387 0.02202341 0.004529966
v -0.01314307 -0.005908677 0.004529985
v -0.01314307 0.02202341 0.004529973
v -0.008928209 0.02202341 0.004529971
v -0.008928207 -0.005908677 0.004529983
v -0.01314307 -0.008083371 -0.001289191
v -0.01314307 -0.005908677 0.004529985
v -0.008928207 -0.005908677 0.004529983
v -0.00892821 -0.008083371 -0.001169625
v -0.01314307 -0.008083373 -0.005508103
v -0.01314307 -0.009247199 -0.005508103
v -0.01314308 -0.01034506 -0.008999618
v -0.01314308 -0.01034506 -0.0117805
v -0.01314308 0.02573314 -0.001725645
v -0.01314307 -0.008083371 -0.001289191
v -0.01314308 0.02573477 -0.01178051
v -0.01314307 0.02202341 0.004529973
v -0.01314307 -0.005908677 0.004529985
v 0.01322202 -0.008083372 -0.001289201
v 0.01322202 -0.00590868 0.004529977
v 0.01322202 0.02202341 0.004529965
v 0.01322202 0.02573313 -0.001725654
v 0.01322202 -0.008066615 -0.01223655
v 0.01322201 0.02585565 -0.01159674
v 0.01228647 -0.008058235 -0.01618061
v 0.01322202 -0.008066615 -0.01223655
v 0.01322201 0.02585565 -0.01159674
v 0.01228647 0.04057205 -0.01572601
v 0.007649178 -0.008049857 -0.01896498
v 0.007649174 0.04057205 -0.018965
v 0.01322201 0.04057205 -0.01132732
v -0.007271524 -0.008049853 -0.01896497
v -0.01215555 -0.01034506 -0.01622632
v -0.006270673 -0.01034506 -0.01766554
v -0.003551084 -0.01034506 -0.0155462
v 3.946841E-05 -0.008049855 -0.01896498
v 3.946841E-05 -0.008049855 -0.01896498
v 0.007649178 -0.008049857 -0.01896498
v 0.007649174 0.04057205 -0.018965
v -0.007271525 0.04057205 -0.01896499
v -0.007271524 -0.008049853 -0.01896497
v -0.01274012 0.0429279 -0.01266794
v -0.01154116 0.04456061 -0.01564458
v -0.01120788 0.04456062 -0.008875359
v -0.008824475 0.04822568 -0.01752506
v -0.008313049 0.04822569 -0.007198037
v -0.01203689 0.04057205 -0.01618346
v -0.01215555 -0.01034506 -0.01622632
v -0.007271524 -0.008049853 -0.01896497
v -0.007271525 0.04057205 -0.01896499
v -0.01314308 0.02573477 -0.01178051
v -0.01314308 -0.01034506 -0.0117805
v -0.01314308 0.04057206 -0.01178052
v -0.006496749 0.04057205 -0.003689631
v 0.006960782 0.04057206 -0.003689636
v 0.006655611 0.02886095 -0.003689631
v -0.006336004 0.02886095 -0.003689626
v -0.01314307 -0.008083373 -0.005508103
v -0.004624795 -0.008083375 -0.005508106
v -0.004591241 -0.009247201 -0.005508105
v -0.01314307 -0.009247199 -0.005508103
v -0.002315669 -0.009967317 -0.007798285
v -0.003551083 -0.01034506 -0.008999622
v -0.01314308 -0.01034506 -0.008999618
v -0.01314307 -0.009247199 -0.005508103
v -0.004591241 -0.009247201 -0.005508105
v -0.003551083 -0.01034506 -0.008999622
v -0.002315669 -0.009967317 -0.007798285
v 3.94702E-05 -0.008069548 -0.01105914
v -0.001652896 -0.01034506 -0.01238377
v -0.004624795 -0.008083375 -0.005508106
v 3.94702E-05 -0.008069548 -0.01105914
v -0.002315669 -0.009967317 -0.007798285
v -0.004591241 -0.009247201 -0.005508105
v -0.006496749 0.04057205 -0.003689631
v -0.006336004 0.02886095 -0.003689626
v -0.011532 0.02886095 -0.00617066
v -0.011532 0.04057206 -0.006170665
v -0.01314308 0.02573477 -0.01178051
v -0.01314308 0.04057206 -0.01178052
v -0.006336004 0.02886095 -0.003689626
v -0.01314308 0.02573314 -0.001725645
v -0.011532 0.02886095 -0.00617066
v -0.01314308 0.02573477 -0.01178051
v 0.01322202 -0.00590868 0.004529977
v 0.009013873 -0.00590868 0.004529978
v 0.00901387 0.02202341 0.004529966
v 0.01322202 0.02202341 0.004529965
v 0.01322202 -0.008083372 -0.001289201
v 0.009013867 -0.008083372 -0.001169629
v 0.009013873 -0.00590868 0.004529978
v 0.01322202 -0.00590868 0.004529977
v -0.00892821 -0.008083371 -0.001169625
v -0.00892821 0.02573314 -0.001606079
v 0.009013868 0.02573314 -0.001606083
v 0.009013867 -0.008083372 -0.001169629
v -0.008928209 0.02202341 0.004529971
v -0.00892821 0.02573314 -0.001606079
v -0.00892821 -0.008083371 -0.001169625
v -0.008928207 -0.005908677 0.004529983
v 0.009013867 -0.008083372 -0.001169629
v 0.009013868 0.02573314 -0.001606083
v 0.00901387 0.02202341 0.004529966
v 0.009013873 -0.00590868 0.004529978
v 0.00843243 0.04822569 -0.007096989
v 0.008484976 0.04822568 -0.01742402
v 0.01174697 0.04467317 -0.01523427
v 0.01105942 0.04467318 -0.008498602
v 0.01236451 0.04327314 -0.01193106
v 0.006960782 0.04057206 -0.003689636
v -0.006496749 0.04057205 -0.003689631
v -0.007271525 0.04057205 -0.01896499
v 0.007649174 0.04057205 -0.018965
v -0.001652896 -0.01034506 -0.01238377
v 3.94702E-05 -0.008069548 -0.01105914
v 3.946841E-05 -0.008049855 -0.01896498
v -0.001652896 -0.01034506 -0.01238377
v 3.946841E-05 -0.008049855 -0.01896498
v -0.003551084 -0.01034506 -0.0155462
v -0.011532 0.04057206 -0.006170665
v -0.01120788 0.04456062 -0.008875359
v -0.008313049 0.04822569 -0.007198037
v -0.006496749 0.04057205 -0.003689631
v -0.01314308 0.04057206 -0.01178052
v -0.01274012 0.0429279 -0.01266794
v -0.01203689 0.04057205 -0.01618346
v -0.01154116 0.04456061 -0.01564458
v -0.007271525 0.04057205 -0.01896499
v -0.008824475 0.04822568 -0.01752506
v -0.006496749 0.04057205 -0.003689631
v -0.008313049 0.04822569 -0.007198037
v -0.008824475 0.04822568 -0.01752506
v -0.007271525 0.04057205 -0.01896499
v 0.01124487 0.04057205 -0.005762853
v 0.01105942 0.04467318 -0.008498602
v 0.01236451 0.04327314 -0.01193106
v 0.01322201 0.04057205 -0.01132732
v 0.01174697 0.04467317 -0.01523427
v 0.01228647 0.04057205 -0.01572601
v 0.008484976 0.04822568 -0.01742402
v 0.007649174 0.04057205 -0.018965
v 0.006960782 0.04057206 -0.003689636
v 0.00843243 0.04822569 -0.007096989
v 0.007649174 0.04057205 -0.018965
v 0.008484976 0.04822568 -0.01742402
v 0.00843243 0.04822569 -0.007096989
v 0.006960782 0.04057206 -0.003689636
vt 0.9795765 0.3546678
vt 0.9795765 0.2357057
vt 0.8363257 0.16259
vt 0.8363257 0.2485003
vt 0.7856405 0.3088223
vt 0.9338483 0.3559673
vt 0.9694102 0.1928465
vt 0.9190181 0.16259
vt 0.7388766 0.3559673
vt 0.6930749 0.3088223
vt 0.6930754 0.3546673
vt 0.5183898 0.8836833
vt 0.5315861 0.8475809
vt 0.4897763 0.8608732
vt 0.4793763 0.8996239
vt 0.4878334 0.9356941
vt 0.5878548 0.9486426
vt 0.6105059 0.9229355
vt 0.5407246 0.9772321
vt 0.07609179 0.8463408
vt 0.01447691 0.8555749
vt 0.03008713 0.9834914
vt 0.07535829 0.9794647
vt 0.1311544 0.9867168
vt 0.1569131 0.8321065
vt 0.05890693 0.7834186
vt 0.01447691 0.8555749
vt 0.07609179 0.8463408
vt 0.1569131 0.8321065
vt 0.6917301 0.7303624
vt 0.6914442 0.8093935
vt 0.7372288 0.8084437
vt 0.7375309 0.7305267
vt 0.7655219 0.8491483
vt 0.906677 0.8484905
vt 0.93212 0.8075364
vt 0.9778637 0.8080596
vt 0.9768388 0.7290342
vt 0.9311145 0.7296262
vt 0.6928193 0.4268345
vt 0.6917301 0.7303624
vt 0.7375309 0.7305267
vt 0.7386202 0.4269986
vt 0.6930754 0.3546673
vt 0.6928193 0.4268345
vt 0.7386202 0.4269986
vt 0.7388766 0.3559673
vt 0.03669205 0.1305794
vt 0.02355704 0.1305794
vt 0.0111668 0.1699844
vt 0.01116713 0.2013695
vt 0.4299209 0.08789064
vt 0.03669205 0.08296502
vt 0.4299394 0.2013693
vt 0.388053 0.01729017
vt 0.07281357 0.01729017
vt 0.03827813 0.7146161
vt 0.07481182 0.7800623
vt 0.3900453 0.7780795
vt 0.4314682 0.707217
vt 0.03769033 0.5910662
vt 0.43215 0.5958056
vt 0.03751888 0.5453213
vt 0.03769033 0.5910662
vt 0.43215 0.5958056
vt 0.5979534 0.5470527
vt 0.03750389 0.4843034
vt 0.5978226 0.4832516
vt 0.5982537 0.5978003
vt 0.4726929 0.9628319
vt 0.5407246 0.9772321
vt 0.4878334 0.9356941
vt 0.4793763 0.8996239
vt 0.4186636 0.8992857
vt 0.03734209 0.3984108
vt 0.03750389 0.4843034
vt 0.5978226 0.4832516
vt 0.5975093 0.3148578
vt 0.03718879 0.3159041
vt 0.854363 0.5266864
vt 0.8868825 0.5029469
vt 0.8110943 0.5031617
vt 0.9062452 0.4513076
vt 0.7906222 0.4516144
vt 0.5973928 0.2525925
vt 0.0111663 0.2527645
vt 0.03718879 0.3159041
vt 0.5975093 0.3148578
vt 0.4299394 0.2013693
vt 0.01116713 0.2013695
vt 0.5973918 0.2013691
vt 0.7643486 0.9764159
vt 0.910586 0.9757349
vt 0.906677 0.8484905
vt 0.7655219 0.8491483
vt 0.7491395 0.4391715
vt 0.7491395 0.5317744
vt 0.7617571 0.532138
vt 0.7617916 0.4391715
vt 0.5294092 0.8262117
vt 0.5315861 0.8475809
vt 0.6105059 0.9229355
vt 0.6382082 0.8930088
vt 0.5680821 0.8244771
vt 0.5315861 0.8475809
vt 0.5294092 0.8262117
vt 0.476983 0.8299137
vt 0.4897763 0.8608732
vt 0.7491395 0.5317744
vt 0.7480478 0.6105764
vt 0.7694376 0.5672346
vt 0.7617571 0.532138
vt 0.1800069 0.9466721
vt 0.3038177 0.9610807
vt 0.3197847 0.8946728
vt 0.1855441 0.8917009
vt 0.3465173 0.8195021
vt 0.1822469 0.8320447
vt 0.3038177 0.9610807
vt 0.3771175 0.926717
vt 0.3197847 0.8946728
vt 0.3465173 0.8195021
vt 0.9763724 0.4261824
vt 0.9306462 0.4265603
vt 0.9311145 0.7296262
vt 0.9768388 0.7290342
vt 0.9795765 0.3546678
vt 0.9338483 0.3559673
vt 0.9306462 0.4265603
vt 0.9763724 0.4261824
vt 0.6591136 0.6596879
vt 0.4491201 0.6596879
vt 0.4491201 0.7678154
vt 0.6591136 0.7678154
vt 0.4719382 0.6229921
vt 0.4491201 0.6596879
vt 0.6591136 0.6596879
vt 0.6402568 0.6251005
vt 0.6591136 0.7678154
vt 0.4491201 0.7678154
vt 0.4719382 0.804511
vt 0.6402568 0.8024027
vt 0.7925829 0.7057076
vt 0.9049436 0.7076396
vt 0.8823097 0.6547228
vt 0.8087175 0.6580132
vt 0.8464703 0.6378905
vt 0.5998201 0.02288052
vt 0.458576 0.02288052
vt 0.4504444 0.1832041
vt 0.6070451 0.1832041
vt 0.4897763 0.8608732
vt 0.476983 0.8299137
vt 0.4186636 0.8992857
vt 0.4897763 0.8608732
vt 0.4186636 0.8992857
vt 0.4793763 0.8996239
vt 0.6453946 0.07843901
vt 0.6930941 0.1247679
vt 0.7581077 0.106699
vt 0.6852736 0.01262673
vt 0.6273615 0.157474
vt 0.6580768 0.1750409
vt 0.6188816 0.2199251
vt 0.6750373 0.221985
vt 0.6185919 0.2963952
vt 0.7251474 0.26836
vt 0.7502008 0.3641906
vt 0.7906222 0.4516144
vt 0.9062452 0.4513076
vt 0.9212365 0.3637795
vt 0.7274048 0.1529879
vt 0.796092 0.1795561
vt 0.8266452 0.129501
vt 0.796666 0.09841575
vt 0.8805629 0.1230707
vt 0.855534 0.06617594
vt 0.9547377 0.1504547
vt 0.9340301 0.03503315
vt 0.6870643 0.2103012
vt 0.8083956 0.2461458
vt 0.9203051 0.7916796
vt 0.9049436 0.7076396
vt 0.7925829 0.7057076
vt 0.7538868 0.7897862
vn 7.152555E-05 -0.9999988 -0.001597404
vn -0.0003814695 -0.9999985 -0.001764297
vn 0.0001385806 -0.9999976 -0.002169606
vn 0.0006675707 -0.9999971 -0.002312656
vn 0.0001311303 -0.9999999 -0.0005722051
vn 0 -1 5.96047E-06
vn -0.0001430509 -0.9999973 -0.002372261
vn -0.0001430509 -0.9999973 -0.002372261
vn 0 -1 5.96047E-06
vn 0 -1 0
vn 0 -1 0
vn 0 -1 0
vn 0 -1 0
vn 0 -1 0
vn 0 -1 0
vn 0 -1 0
vn 0 -1 0
vn 0 -1 0
vn 0 -1 0
vn 0.7769567 -0.004649151 0.6295368
vn 0.2133965 -0.002789497 0.9769617
vn 0.2202511 -0.002861024 0.9754391
vn 0.7423524 -0.004816058 0.6699923
vn 0.9444838 -0.003337862 0.328541
vn 0.9444838 -0.003361704 0.328541
vn 0.25473 0.8232948 0.5072457
vn 0.06016527 0.6316937 0.7728799
vn 0.6175132 0.7387843 0.2699541
vn 0.8413346 0.540473 0.006711507
vn -0.00728368 0.8579484 0.5136842
vn -0.2559777 0.8202779 0.5114876
vn -0.01341695 0.6771296 0.7357415
vn -0.00728368 0.8579484 0.5136842
vn -0.06083886 0.6359142 0.769358
vn 0.06016527 0.6316937 0.7728799
vn 0.01323232 0.676541 0.736286
vn 0.25473 0.8232948 0.5072457
vn 0.007295452 0.8579546 0.5136737
vn 0.007295452 0.8579546 0.5136737
vn 0 1.192094E-05 1
vn 0 2.384188E-05 1
vn 5.96047E-06 2.384188E-05 1
vn 0 1.192094E-05 1
vn -0.006890296 -0.8740783 0.4857361
vn -0.00689035 -0.874073 0.4857458
vn -0.00689035 -0.874073 0.4857458
vn -0.006890277 -0.8740757 0.4857407
vn -1 0 0
vn -1 0 5.96047E-06
vn -1 0 0
vn -1 0 0
vn -1 0 0
vn -1 0 0
vn -1 0 0
vn -1 0 0
vn -1 0 0
vn 1 -1.192094E-05 -2.980235E-06
vn 1 -1.192094E-05 0
vn 1 0 0
vn 1 -2.384188E-05 -2.980235E-06
vn 1 -1.192094E-05 0
vn 1 -2.384188E-05 0
vn 0.8196268 0.003612056 -0.5728865
vn 0.9753097 0.002849099 -0.220823
vn 0.9755814 0.002932538 -0.2196185
vn 0.82447 0.004053148 -0.565891
vn 0.5446604 0.003838533 -0.8386478
vn 0.5446603 0.003862374 -0.8386478
vn 0.978112 0.003814697 -0.208044
vn -0.04015563 -0.6565925 -0.7531759
vn -0.1988668 -0.5470685 -0.8131223
vn 0.009661878 -0.6852722 -0.728223
vn 0.1375258 -0.7466077 -0.6508945
vn 0.1375258 -0.7466077 -0.6508945
vn -1.490118E-06 0 -1
vn 0 0 -1
vn 0 0 -1
vn 0 0 -1
vn 0 0 -1
vn -0.771152 0.635518 0.03796753
vn -0.7876615 0.61488 0.03888597
vn -0.7885438 0.6137449 0.03893425
vn -0.7929148 0.608072 0.03917277
vn -0.7929148 0.608072 0.03917277
vn -0.7977613 0.0006675727 -0.6029731
vn -0.8371039 0.001311309 -0.5470423
vn -0.496733 0.0009417531 -0.8679029
vn -0.496733 0.000953674 -0.8679029
vn -0.9733074 0.001287459 -0.2295016
vn -0.9736572 0.001406675 -0.2280124
vn -0.96986 0 -0.2436631
vn -0.2257228 -0.001573563 0.9741904
vn 0.2202511 -0.002861024 0.9754391
vn 0.2133965 -0.002789497 0.9769617
vn -0.2220039 -0.001525882 0.9750446
vn 0 0 1
vn 0 0 1
vn 0 0 1
vn 0 0 1
vn 1.490138E-06 -0.9539503 0.2999647
vn 0 -0.9539514 0.2999613
vn 0 -0.9539531 0.2999559
vn 0 -0.9539514 0.2999613
vn 0 -0.9539531 0.2999559
vn 0.5893742 -0.793704 0.1505726
vn 0.5893747 -0.7937046 0.1505668
vn 0.5893742 -0.793704 0.1505726
vn 0.5893742 -0.793704 0.1505726
vn 0.7484786 0.1259087 0.6510966
vn 0.748478 0.1259089 0.6510974
vn 0.7484775 0.1259205 0.6510957
vn 0.7484815 0.1259092 0.6510932
vn -0.2257228 -0.001573563 0.9741904
vn -0.2220039 -0.001525882 0.9750446
vn -0.802625 -0.001406671 0.5964822
vn -0.7651973 -0.001668941 0.6437939
vn -0.9611524 0 0.2760182
vn -0.9611493 0 0.2760293
vn -0.06083886 0.6359142 0.769358
vn -0.2559777 0.8202779 0.5114876
vn -0.675521 0.6955839 0.2446107
vn -0.8889521 0.4580003 7.152529E-05
vn 0 1.192094E-05 1
vn 0 1.192094E-05 1
vn 0 0 1
vn 0 0 1
vn 0.006902217 -0.8740782 0.4857361
vn 0.006902197 -0.8740757 0.4857407
vn 0.00690227 -0.8740729 0.4857458
vn 0.00690227 -0.8740729 0.4857458
vn 0 0.0125289 0.9999216
vn 0 0.01254081 0.9999213
vn 0 0.01251698 0.9999217
vn 0 0.0125289 0.9999216
vn 1 0 0
vn 1 0 0
vn 1 0 0
vn 1 0 0
vn -1 0 0
vn -1 0 0
vn -1 0 0
vn -1 0 0
vn 0.7677025 0.6399408 0.03329647
vn 0.7676556 0.6399971 0.03329444
vn 0.7795428 0.6248358 0.04351058
vn 0.7787645 0.6258537 0.04281435
vn 0.8232509 0.5614222 0.08404168
vn 0 1 0
vn 0 1 0
vn 0 1 0
vn 0 1 0
vn 0.8028234 -0.5962152 -0.0014782
vn 0.8028239 -0.5962144 -0.001478198
vn 0.8028238 -0.5962144 -0.00150204
vn 0.3675032 -0.9034844 -0.2205842
vn 0.3675032 -0.9034844 -0.2205842
vn 0.3675032 -0.9034844 -0.2205842
vn -0.7262056 0.3215818 0.607627
vn -0.7637622 0.3153324 0.5632342
vn -0.5544142 0.3354082 0.7616602
vn -0.5544142 0.3354082 0.7616602
vn -0.9755063 0.2118121 0.0593546
vn -0.9815878 0.1829137 -0.05502671
vn -0.8002902 0.1112941 -0.5891937
vn -0.7268597 0.1052387 -0.678675
vn -0.5579385 0.08959726 -0.8250315
vn -0.5579408 0.08954997 -0.825035
vn 0.9768167 0.2083774 -0.0490724
vn 0.9768167 0.2083774 -0.0490724
vn 0.9768164 0.2083773 -0.04907834
vn 0.9768164 0.2083773 -0.04907834
vn 0.7175885 0.3305895 0.6130067
vn 0.7529442 0.3265834 0.5713302
vn 0.9693596 0.241562 0.04460744
vn 0.963221 0.251245 0.09529572
vn 0.778616 0.1581193 -0.6072525
vn 0.8388882 0.170231 -0.5169991
vn 0.5987924 0.121785 -0.7915909
vn 0.5987924 0.121785 -0.7915909
vn 0.5553784 0.3366031 0.7604296
vn 0.5553707 0.3366462 0.7604162
vn -0.9889256 0.1456254 -0.02862201
vn -0.9889259 0.1456245 -0.02862185
vn -0.9889396 0.1455312 -0.02862224
vn -0.9889396 0.145532 -0.02861645
g tactical_all_surefire_xc1_LOD1_0
f 3/3/3 2/2/2 1/1/1
f 4/4/4 3/3/3 1/1/1
f 5/5/5 4/4/4 1/1/1
f 6/6/6 5/5/5 1/1/1
f 7/7/7 2/2/2 3/3/3
f 8/8/8 7/7/7 3/3/3
f 9/9/9 5/5/5 6/6/6
f 10/10/10 5/5/5 9/9/9
f 11/11/11 10/10/10 9/9/9
f 14/14/14 13/13/13 12/12/12
f 14/14/14 12/12/12 15/15/15
f 12/12/12 16/16/16 15/15/15
f 17/17/17 12/12/12 13/13/13
f 16/16/16 12/12/12 17/17/17
f 18/18/18 17/17/17 13/13/13
f 19/19/19 16/16/16 17/17/17
f 22/22/22 21/21/21 20/20/20
f 23/23/23 22/22/22 20/20/20
f 23/23/23 20/20/20 24/24/24
f 20/20/20 25/25/25 24/24/24
f 28/28/28 27/27/27 26/26/26
f 28/28/28 26/26/26 29/29/29
f 32/32/32 31/31/31 30/30/30
f 33/33/33 32/32/32 30/30/30
f 31/31/31 32/32/32 34/34/34
f 34/34/34 32/32/32 35/35/35
f 32/32/32 36/36/36 35/35/35
f 36/36/36 37/37/37 35/35/35
f 37/37/37 36/36/36 38/38/38
f 36/36/36 39/39/39 38/38/38
f 42/42/42 41/41/41 40/40/40
f 43/43/43 42/42/42 40/40/40
f 46/46/46 45/45/45 44/44/44
f 47/47/47 46/46/46 44/44/44
f 50/50/50 49/49/49 48/48/48
f 51/51/51 50/50/50 48/48/48
f 52/52/52 51/51/51 48/48/48
f 53/53/53 52/52/52 48/48/48
f 51/51/51 52/52/52 54/54/54
f 55/55/55 52/52/52 53/53/53
f 56/56/56 55/55/55 53/53/53
f 59/59/59 58/58/58 57/57/57
f 60/60/60 59/59/59 57/57/57
f 57/57/57 61/61/61 60/60/60
f 61/61/61 62/62/62 60/60/60
f 65/65/65 64/64/64 63/63/63
f 66/66/66 65/65/65 63/63/63
f 66/66/66 63/63/63 67/67/67
f 68/68/68 66/66/66 67/67/67
f 69/69/69 65/65/65 66/66/66
f 72/72/72 71/71/71 70/70/70
f 73/73/73 72/72/72 70/70/70
f 74/74/74 73/73/73 70/70/70
f 77/77/77 76/76/76 75/75/75
f 75/75/75 78/78/78 77/77/77
f 75/75/75 79/79/79 78/78/78
f 82/82/82 81/81/81 80/80/80
f 83/83/83 81/81/81 82/82/82
f 84/84/84 83/83/83 82/82/82
f 87/87/87 86/86/86 85/85/85
f 88/88/88 87/87/87 85/85/85
f 89/89/89 85/85/85 86/86/86
f 90/90/90 89/89/89 86/86/86
f 91/91/91 85/85/85 89/89/89
f 94/94/94 93/93/93 92/92/92
f 95/95/95 94/94/94 92/92/92
f 98/98/98 97/97/97 96/96/96
f 99/99/99 98/98/98 96/96/96
f 102/102/102 101/101/101 100/100/100
f 100/100/100 103/103/103 102/102/102
f 100/100/100 104/104/104 103/103/103
f 107/107/107 106/106/106 105/105/105
f 108/108/108 107/107/107 105/105/105
f 111/111/111 110/110/110 109/109/109
f 112/112/112 111/111/111 109/109/109
f 115/115/115 114/114/114 113/113/113
f 116/116/116 115/115/115 113/113/113
f 117/117/117 115/115/115 116/116/116
f 118/118/118 117/117/117 116/116/116
f 121/121/121 120/120/120 119/119/119
f 121/121/121 122/122/122 120/120/120
f 125/125/125 124/124/124 123/123/123
f 126/126/126 125/125/125 123/123/123
f 129/129/129 128/128/128 127/127/127
f 130/130/130 129/129/129 127/127/127
f 133/133/133 132/132/132 131/131/131
f 134/134/134 133/133/133 131/131/131
f 137/137/137 136/136/136 135/135/135
f 138/138/138 137/137/137 135/135/135
f 141/141/141 140/140/140 139/139/139
f 142/142/142 141/141/141 139/139/139
f 145/145/145 144/144/144 143/143/143
f 146/146/146 145/145/145 143/143/143
f 147/147/147 145/145/145 146/146/146
f 150/150/150 149/149/149 148/148/148
f 151/151/151 150/150/150 148/148/148
f 154/154/154 153/153/153 152/152/152
f 157/157/157 156/156/156 155/155/155
f 160/160/160 159/159/159 158/158/158
f 161/161/161 160/160/160 158/158/158
f 158/158/158 159/159/159 162/162/162
f 159/159/159 163/163/163 162/162/162
f 162/162/162 163/163/163 164/164/164
f 163/163/163 165/165/165 164/164/164
f 164/164/164 165/165/165 166/166/166
f 165/165/165 167/167/167 166/166/166
f 170/170/170 169/169/169 168/168/168
f 171/171/171 170/170/170 168/168/168
f 174/174/174 173/173/173 172/172/172
f 175/175/175 174/174/174 172/172/172
f 176/176/176 174/174/174 175/175/175
f 177/177/177 176/176/176 175/175/175
f 178/178/178 176/176/176 177/177/177
f 179/179/179 178/178/178 177/177/177
f 172/172/172 173/173/173 180/180/180
f 173/173/173 181/181/181 180/180/180
f 184/184/184 183/183/183 182/182/182
f 185/185/185 184/184/184 182/182/182
