g tactical_870_fab_defence_agr_870_cap_LOD1
v 0.009176519 -0.002946524 0.0163233
v 0.008624236 0.004453235 0.01539553
v 0.01445059 -0.002938635 0.01105422
v 0.01495074 0.004462688 0.009075036
v 0.01588909 -0.002936451 0.009617114
v 0.01726944 0.004453706 0.0004380894
v 0.0183493 -0.002945897 0.000453105
v 0.01495905 0.004428794 -0.008201051
v 0.01589791 -0.002972328 -0.008713236
v 0.01442257 -0.002980404 -0.01019
v 0.00863863 0.004394548 -0.01452754
v 0.009191791 -0.003008658 -0.01542579
v 1.735766E-06 0.004360186 -0.0168462
v 2.78363E-05 -0.003045241 -0.01788592
v 1.020221E-05 -0.002973445 0.01877475
v -1.488374E-05 0.004427741 0.01770598
v 0.01446108 -0.005973319 0.01106017
v 0.01589958 -0.005971056 0.009623055
v 0.0159084 -0.006006933 -0.008707294
v 0.01443306 -0.006014933 -0.01018405
v 0.01835979 -0.005980502 0.0004590416
v -2.194028E-05 0.008025776 0.006350441
v -1.623781E-05 0.008002562 -0.005504823
v 0.005115801 0.008026231 -0.002538557
v 0.00511295 0.008037725 0.003389048
v 0.00655136 0.007777255 0.01181467
v 0.01136688 0.007784618 0.007003741
v -2.443959E-05 0.007757956 0.01357332
v 0.01313179 0.007777685 0.0004295874
v 0.01137321 0.007758718 -0.006146207
v 0.006562316 0.007732677 -0.01096172
v -1.178964E-05 0.007706617 -0.01272659
v -0.006587589 0.007687205 -0.01096795
v -0.005151125 0.007990726 -0.002543425
v -0.01140311 0.007679956 -0.006157012
v -0.01316802 0.007686739 0.0004171133
v -0.005153976 0.008002221 0.00338418
v -0.01140944 0.007705855 0.006992936
v -0.006598545 0.007731782 0.01180843
v 0.008624236 0.004453235 0.01539553
v 0.01495074 0.004462688 0.009075036
v 0.01726944 0.004453706 0.0004380894
v 0.01495905 0.004428794 -0.008201051
v 0.00863863 0.004394548 -0.01452754
v 1.735766E-06 0.004360186 -0.0168462
v -0.008637384 0.004334806 -0.01453573
v -0.0149639 0.004325316 -0.008215246
v -0.01728259 0.004334221 0.0004217052
v -0.0149722 0.004359211 0.009060845
v -0.008651778 0.004393493 0.01538734
v -1.488374E-05 0.004427741 0.01770598
v 0.01835979 -0.005980502 0.0004590416
v 0.0159084 -0.006006933 -0.008707294
v 0.01183546 -0.00602041 -0.008391127
v 0.01476336 -0.005992976 0.0004382276
v 0.01589958 -0.005971056 0.009623055
v 0.01185831 -0.005985748 0.009264789
v 0.01446108 -0.005973319 0.01106017
v 0.01443306 -0.006014933 -0.01018405
v 0.01184782 -0.002951143 0.009258847
v 0.01475287 -0.00295837 0.0004322767
v 0.01182497 -0.002985805 -0.008397069
v 1.020221E-05 -0.002973445 0.01877475
v 0.01445059 -0.002938635 0.01105422
v 0.009176519 -0.002946524 0.0163233
v 2.78363E-05 -0.003045241 -0.01788592
v 0.009191791 -0.003008658 -0.01542579
v 0.01442257 -0.002980404 -0.01019
v 0.01445059 -0.002938635 0.01105422
v 0.01446108 -0.005973319 0.01106017
v 0.01185831 -0.005985748 0.009264789
v 0.01184782 -0.002951143 0.009258847
v 0.01476336 -0.005992976 0.0004382276
v 0.01475287 -0.00295837 0.0004322767
v 0.01182497 -0.002985805 -0.008397069
v 0.01183546 -0.00602041 -0.008391127
v 0.01443306 -0.006014933 -0.01018405
v 0.01442257 -0.002980404 -0.01019
v -0.009153753 -0.003009912 0.01631461
v -0.01442275 -0.003038481 0.01104053
v -0.008651778 0.004393493 0.01538734
v -0.0149722 0.004359211 0.009060845
v -0.01585987 -0.003046241 0.009602055
v -0.01728259 0.004334221 0.0004217052
v -0.01831127 -0.003072673 0.0004357195
v -0.0149639 0.004325316 -0.008215246
v -0.01585106 -0.003082118 -0.008728295
v -0.01437429 -0.003079986 -0.01020365
v -0.008637384 0.004334806 -0.01453573
v -0.009138481 -0.003072046 -0.01543448
v 1.735766E-06 0.004360186 -0.0168462
v 2.78363E-05 -0.003045241 -0.01788592
v 1.020221E-05 -0.002973445 0.01877475
v -1.488374E-05 0.004427741 0.01770598
v -0.01441226 -0.006073165 0.01104647
v -0.01584938 -0.006080847 0.009607997
v -0.01584056 -0.006116724 -0.008722353
v -0.0143638 -0.006114515 -0.01019771
v -0.01830078 -0.006107278 0.0004416561
v -0.01830078 -0.006107278 0.0004416561
v -0.01470432 -0.006094878 0.0004242515
v -0.01176793 -0.006102032 -0.008402314
v -0.01584056 -0.006116724 -0.008722353
v -0.01584938 -0.006080847 0.009607997
v -0.01180777 -0.006067588 0.009253563
v -0.01441226 -0.006073165 0.01104647
v -0.0143638 -0.006114515 -0.01019771
v -0.01181826 -0.003032983 0.009247618
v -0.01177842 -0.003067428 -0.008408261
v -0.01471481 -0.003060272 0.0004183006
v 1.020221E-05 -0.002973445 0.01877475
v -0.01442275 -0.003038481 0.01104053
v -0.009153753 -0.003009912 0.01631461
v 2.78363E-05 -0.003045241 -0.01788592
v -0.009138481 -0.003072046 -0.01543448
v -0.01437429 -0.003079986 -0.01020365
v -0.01442275 -0.003038481 0.01104053
v -0.01181826 -0.003032983 0.009247618
v -0.01180777 -0.006067588 0.009253563
v -0.01441226 -0.006073165 0.01104647
v -0.01470432 -0.006094878 0.0004242515
v -0.01471481 -0.003060272 0.0004183006
v -0.01177842 -0.003067428 -0.008408261
v -0.01176793 -0.006102032 -0.008402314
v -0.0143638 -0.006114515 -0.01019771
v -0.01437429 -0.003079986 -0.01020365
vt 0.455689 0.9370296
vt 0.4557569 0.9959658
vt 0.5080416 0.9370296
vt 0.5223211 0.9959662
vt 0.5225 0.93703
vt 0.589169 0.9959658
vt 0.5892357 0.9370296
vt 0.6559732 0.9959658
vt 0.6559215 0.9370296
vt 0.6707454 0.93703
vt 0.7223895 0.9959658
vt 0.7225548 0.9370296
vt 0.7885979 0.9959661
vt 0.7885979 0.9370296
vt 0.3893369 0.93703
vt 0.3893369 0.9959658
vt 0.5077929 0.9133741
vt 0.5222149 0.9133741
vt 0.6562873 0.9133741
vt 0.6707454 0.9133741
vt 0.5892729 0.9133741
vt 0.8440237 0.8711694
vt 0.8440237 0.8073543
vt 0.8185766 0.8237853
vt 0.8189154 0.8545641
vt 0.8115736 0.8964219
vt 0.7878267 0.8722044
vt 0.8440229 0.9054246
vt 0.779038 0.8392702
vt 0.7876205 0.8062688
vt 0.8114002 0.7819461
vt 0.8440237 0.7729064
vt 0.8766479 0.7819442
vt 0.8694737 0.8237867
vt 0.9004297 0.806267
vt 0.9090134 0.8392713
vt 0.8691325 0.8545641
vt 0.9002234 0.8722066
vt 0.8764734 0.8964245
vt 0.7924879 0.9306115
vt 0.7540718 0.8924232
vt 0.7396163 0.8401264
vt 0.7529906 0.7874655
vt 0.7908524 0.7484339
vt 0.8432243 0.7337234
vt 0.8958496 0.7476441
vt 0.9343122 0.7861376
vt 0.9484518 0.8386275
vt 0.9347396 0.8911364
vt 0.8968894 0.929854
vt 0.8448091 0.9444122
vt 0.7194592 0.6005499
vt 0.7062103 0.5511036
vt 0.6842371 0.5528196
vt 0.7000566 0.6004468
vt 0.7062103 0.6499965
vt 0.6844062 0.648074
vt 0.6984531 0.6577538
vt 0.6982466 0.5431403
vt 0.9588816 0.9489611
vt 0.9239929 0.937497
vt 0.889104 0.9490849
vt 0.996511 0.9957259
vt 0.9659721 0.9386715
vt 0.9868056 0.9595048
vt 0.8516257 0.9957259
vt 0.8613312 0.9595048
vt 0.8820136 0.9388226
vt 0.6590623 0.401308
vt 0.6368967 0.401308
vt 0.6368972 0.4139073
vt 0.659062 0.4139071
vt 0.6368972 0.4509349
vt 0.6590623 0.4509349
vt 0.6590623 0.4880005
vt 0.6368972 0.4880005
vt 0.6368972 0.5005789
vt 0.6590616 0.5005776
vt 0.455689 0.9370296
vt 0.5080416 0.9370296
vt 0.4557569 0.9959658
vt 0.5223211 0.9959662
vt 0.5225 0.93703
vt 0.589169 0.9959658
vt 0.5892357 0.9370296
vt 0.6559732 0.9959658
vt 0.6559215 0.9370296
vt 0.6707454 0.93703
vt 0.7223895 0.9959658
vt 0.7225548 0.9370296
vt 0.7885979 0.9959661
vt 0.7885979 0.9370296
vt 0.3893369 0.93703
vt 0.3893369 0.9959658
vt 0.5077929 0.9133741
vt 0.5222149 0.9133741
vt 0.6562873 0.9133741
vt 0.6707454 0.9133741
vt 0.5892729 0.9133741
vt 0.7194592 0.6005499
vt 0.7000566 0.6004468
vt 0.6842371 0.5528196
vt 0.7062103 0.5511036
vt 0.7062103 0.6499965
vt 0.6844062 0.648074
vt 0.6984531 0.6577538
vt 0.6982466 0.5431403
vt 0.9588816 0.9489611
vt 0.889104 0.9490849
vt 0.9239929 0.937497
vt 0.996511 0.9957259
vt 0.9659721 0.9386715
vt 0.9868056 0.9595048
vt 0.8516257 0.9957259
vt 0.8613312 0.9595048
vt 0.8820136 0.9388226
vt 0.6590623 0.401308
vt 0.659062 0.4139071
vt 0.6368972 0.4139073
vt 0.6368967 0.401308
vt 0.6368972 0.4509349
vt 0.6590623 0.4509349
vt 0.6590623 0.4880005
vt 0.6368972 0.4880005
vt 0.6368972 0.5005789
vt 0.6590616 0.5005776
vn 0.4941036 0.1443689 0.8573326
vn 0.4941041 0.1443685 0.8573323
vn 0.703509 0.09484525 0.7043291
vn 0.8566446 0.1449127 0.4951369
vn 0.86342 0.07382359 0.499055
vn 0.9895188 0.1444044 0.0001934816
vn 0.9973092 0.07330971 0.0003364635
vn 0.8571209 0.1429757 -0.4948755
vn 0.8639018 0.0718719 -0.4985059
vn 0.7041894 0.09208848 -0.7040148
vn 0.4949278 0.1410115 -0.857416
vn 0.4949288 0.141012 -0.8574154
vn -1.120305E-05 0.1390392 -0.9902869
vn -1.125374E-05 0.1390392 -0.9902869
vn -0.0009635888 0.1429173 0.9897342
vn -0.0009635345 0.1429173 0.9897342
vn 0.7067559 0.003829079 0.7074471
vn 0.8657749 0.003973165 0.5004178
vn 0.8662599 0.002016408 -0.4995895
vn 0.707442 0.00106112 -0.7067707
vn 0.9999939 0.003458216 0.0004738249
vn -0.003467229 0.999779 0.0207326
vn -0.003445368 0.9996903 -0.0246459
vn 0.01619796 0.9997805 -0.01329318
vn 0.01618082 0.9998249 0.009397585
vn 0.1945297 0.9197043 0.341031
vn 0.3398066 0.9197523 0.1964365
vn -0.003364769 0.9189501 0.3943593
vn 0.3925847 0.9197145 -0.001617108
vn 0.34001 0.9189701 -0.1997181
vn 0.1948732 0.9183595 -0.344442
vn -0.002983685 0.9174015 -0.3979518
vn -0.2008932 0.9169909 -0.3446296
vn -0.02309954 0.9996445 -0.01331173
vn -0.3461676 0.9165973 -0.2000434
vn -0.3989342 0.9169773 -0.001992517
vn -0.02310423 0.9996891 0.009378912
vn -0.3463457 0.9173795 0.1961109
vn -0.2012092 0.9183358 0.3408433
vn 0.3115301 0.7795727 0.5433373
vn 0.5418715 0.7799156 0.3132201
vn 0.6262903 0.7795891 -0.001230198
vn 0.5421718 0.7786844 -0.3157533
vn 0.3120667 0.7774349 -0.5460854
vn -0.002385105 0.7761815 -0.630505
vn -0.316918 0.7752598 -0.5463837
vn -0.5472445 0.7749174 -0.3162697
vn -0.6316653 0.7752391 -0.00182667
vn -0.5475493 0.7761484 0.3127033
vn -0.3174295 0.7773976 0.5430391
vn -0.002990139 0.7786498 0.6274516
vn 0.003459344 -0.9999921 0.001958866
vn 0.003459589 -0.9999921 0.001959275
vn 0.003459509 -0.9999921 0.001959261
vn 0.003459342 -0.9999921 0.001958868
vn 0.003462271 -0.9999921 0.001937839
vn 0.003461835 -0.9999921 0.001941318
vn 0.003467472 -0.9999923 0.001896437
vn 0.003460748 -0.9999921 0.00195949
vn 0.003460365 -0.9999921 0.001960561
vn 0.003463352 -0.9999921 0.001958657
vn 0.003459967 -0.9999921 0.001957883
vn 0.003457135 -0.9999921 0.001960383
vn 0.003459573 -0.9999921 0.00196206
vn 0.003459573 -0.9999921 0.00196206
vn 0.003457135 -0.9999921 0.001958338
vn 0.003458628 -0.9999921 0.001955685
vn 0.003458628 -0.9999921 0.001955685
vn -0.5678091 -0.0003507985 0.8231602
vn -0.5678091 -0.0003507985 0.8231602
vn -0.9478042 -0.002652513 0.3188419
vn -0.9478065 -0.002652535 0.318835
vn -0.9999934 -0.003455002 0.001125557
vn -0.9999934 -0.003455 0.001126488
vn -0.9482091 -0.003900203 -0.3176228
vn -0.9482072 -0.003900208 -0.3176284
vn -0.5680408 -0.003576012 -0.8229926
vn -0.5680408 -0.003576012 -0.8229926
vn -0.4959032 0.1409456 0.8568631
vn -0.7048155 0.08997526 0.7036615
vn -0.4959037 0.1409451 0.8568629
vn -0.8580955 0.1389834 0.4943236
vn -0.8643827 0.0678489 0.4982359
vn -0.9904935 0.137558 -0.000745372
vn -0.9977922 0.06641065 -0.0006096833
vn -0.8576193 0.1370462 -0.4956889
vn -0.8639051 0.06589701 -0.4993252
vn -0.7041413 0.08721837 -0.7046829
vn -0.4950774 0.1375882 -0.8578857
vn -0.4950785 0.1375886 -0.8578849
vn -1.120305E-05 0.1390392 -0.9902869
vn -1.125374E-05 0.1390392 -0.9902869
vn -0.0009635888 0.1429173 0.9897342
vn -0.0009635345 0.1429173 0.9897342
vn -0.7074355 -0.001061477 0.706777
vn -0.8662558 -0.002016583 0.4995967
vn -0.865779 -0.003973292 -0.5004109
vn -0.7067619 -0.003829335 -0.7074412
vn -0.9999939 -0.003458219 -0.0004746892
vn 0.003454843 -0.9999921 0.001958867
vn 0.003454845 -0.9999921 0.00195887
vn 0.003454626 -0.9999921 0.001959228
vn 0.003454543 -0.9999921 0.00195924
vn 0.00345196 -0.9999923 0.001937931
vn 0.003452394 -0.9999921 0.001941396
vn 0.003446789 -0.9999923 0.001896684
vn 0.003453329 -0.9999921 0.001959405
vn 0.003453885 -0.9999921 0.001960579
vn 0.003454282 -0.9999921 0.001957844
vn 0.00345079 -0.9999921 0.001958675
vn 0.003457135 -0.9999921 0.001960383
vn 0.003454638 -0.9999921 0.001962092
vn 0.003454638 -0.9999921 0.001962093
vn 0.003457135 -0.9999921 0.001958338
vn 0.003455585 -0.9999921 0.001955584
vn 0.003455585 -0.9999921 0.001955584
vn 0.5670175 0.003574314 0.8236979
vn 0.9474996 0.003902128 0.3197331
vn 0.947497 0.003902134 0.319741
vn 0.5670176 0.003574315 0.8236979
vn 0.9999919 0.003461255 0.002074158
vn 0.9999919 0.003461257 0.002075103
vn 0.9485144 0.002658415 -0.3167228
vn 0.9485129 0.002658401 -0.3167275
vn 0.5688338 0.0003545485 -0.8224524
vn 0.5688338 0.0003545485 -0.8224524
g tactical_870_fab_defence_agr_870_cap_LOD1_0
f 3/3/3 2/2/2 1/1/1
f 4/4/4 2/2/2 3/3/3
f 4/4/4 3/3/3 5/5/5
f 6/6/6 4/4/4 5/5/5
f 7/7/7 6/6/6 5/5/5
f 8/8/8 6/6/6 7/7/7
f 9/9/9 8/8/8 7/7/7
f 10/10/10 8/8/8 9/9/9
f 10/10/10 11/11/11 8/8/8
f 12/12/12 11/11/11 10/10/10
f 13/13/13 11/11/11 12/12/12
f 14/14/14 13/13/13 12/12/12
f 1/1/1 2/2/2 15/15/15
f 2/2/2 16/16/16 15/15/15
f 3/3/3 17/17/17 5/5/5
f 17/17/17 18/18/18 5/5/5
f 5/5/5 18/18/18 7/7/7
f 9/9/9 19/19/19 10/10/10
f 19/19/19 20/20/20 10/10/10
f 21/21/21 19/19/19 9/9/9
f 7/7/7 21/21/21 9/9/9
f 18/18/18 21/21/21 7/7/7
f 24/24/24 23/23/23 22/22/22
f 25/25/25 24/24/24 22/22/22
f 25/25/25 22/22/22 26/26/26
f 26/26/26 27/27/27 25/25/25
f 28/28/28 26/26/26 22/22/22
f 24/24/24 25/25/25 29/29/29
f 27/27/27 29/29/29 25/25/25
f 29/29/29 30/30/30 24/24/24
f 23/23/23 24/24/24 31/31/31
f 30/30/30 31/31/31 24/24/24
f 31/31/31 32/32/32 23/23/23
f 32/32/32 33/33/33 23/23/23
f 34/34/34 23/23/23 33/33/33
f 23/23/23 34/34/34 22/22/22
f 33/33/33 35/35/35 34/34/34
f 35/35/35 36/36/36 34/34/34
f 37/37/37 34/34/34 36/36/36
f 34/34/34 37/37/37 22/22/22
f 36/36/36 38/38/38 37/37/37
f 38/38/38 39/39/39 37/37/37
f 39/39/39 28/28/28 22/22/22
f 22/22/22 37/37/37 39/39/39
f 27/27/27 26/26/26 40/40/40
f 41/41/41 27/27/27 40/40/40
f 29/29/29 27/27/27 41/41/41
f 42/42/42 29/29/29 41/41/41
f 30/30/30 29/29/29 42/42/42
f 43/43/43 30/30/30 42/42/42
f 31/31/31 30/30/30 43/43/43
f 44/44/44 31/31/31 43/43/43
f 32/32/32 31/31/31 44/44/44
f 45/45/45 32/32/32 44/44/44
f 33/33/33 32/32/32 45/45/45
f 46/46/46 33/33/33 45/45/45
f 35/35/35 33/33/33 46/46/46
f 47/47/47 35/35/35 46/46/46
f 36/36/36 35/35/35 47/47/47
f 48/48/48 36/36/36 47/47/47
f 38/38/38 36/36/36 48/48/48
f 49/49/49 38/38/38 48/48/48
f 39/39/39 38/38/38 49/49/49
f 50/50/50 39/39/39 49/49/49
f 28/28/28 39/39/39 50/50/50
f 51/51/51 28/28/28 50/50/50
f 26/26/26 28/28/28 51/51/51
f 40/40/40 26/26/26 51/51/51
f 54/54/54 53/53/53 52/52/52
f 55/55/55 54/54/54 52/52/52
f 55/55/55 52/52/52 56/56/56
f 57/57/57 55/55/55 56/56/56
f 58/58/58 57/57/57 56/56/56
f 54/54/54 59/59/59 53/53/53
f 62/62/62 61/61/61 60/60/60
f 62/62/62 60/60/60 63/63/63
f 60/60/60 64/64/64 63/63/63
f 64/64/64 65/65/65 63/63/63
f 66/66/66 62/62/62 63/63/63
f 66/66/66 67/67/67 62/62/62
f 67/67/67 68/68/68 62/62/62
f 71/71/71 70/70/70 69/69/69
f 72/72/72 71/71/71 69/69/69
f 73/73/73 71/71/71 72/72/72
f 74/74/74 73/73/73 72/72/72
f 74/74/74 75/75/75 73/73/73
f 75/75/75 76/76/76 73/73/73
f 77/77/77 76/76/76 75/75/75
f 78/78/78 77/77/77 75/75/75
f 81/81/81 80/80/80 79/79/79
f 81/81/81 82/82/82 80/80/80
f 80/80/80 82/82/82 83/83/83
f 82/82/82 84/84/84 83/83/83
f 84/84/84 85/85/85 83/83/83
f 84/84/84 86/86/86 85/85/85
f 86/86/86 87/87/87 85/85/85
f 86/86/86 88/88/88 87/87/87
f 89/89/89 88/88/88 86/86/86
f 89/89/89 90/90/90 88/88/88
f 89/89/89 91/91/91 90/90/90
f 91/91/91 92/92/92 90/90/90
f 81/81/81 79/79/79 93/93/93
f 94/94/94 81/81/81 93/93/93
f 95/95/95 80/80/80 83/83/83
f 96/96/96 95/95/95 83/83/83
f 96/96/96 83/83/83 85/85/85
f 97/97/97 87/87/87 88/88/88
f 98/98/98 97/97/97 88/88/88
f 99/99/99 85/85/85 87/87/87
f 97/97/97 99/99/99 87/87/87
f 99/99/99 96/96/96 85/85/85
f 102/102/102 101/101/101 100/100/100
f 103/103/103 102/102/102 100/100/100
f 100/100/100 101/101/101 104/104/104
f 101/101/101 105/105/105 104/104/104
f 105/105/105 106/106/106 104/104/104
f 107/107/107 102/102/102 103/103/103
f 110/110/110 109/109/109 108/108/108
f 108/108/108 109/109/109 111/111/111
f 112/112/112 108/108/108 111/111/111
f 113/113/113 112/112/112 111/111/111
f 109/109/109 114/114/114 111/111/111
f 115/115/115 114/114/114 109/109/109
f 116/116/116 115/115/115 109/109/109
f 119/119/119 118/118/118 117/117/117
f 120/120/120 119/119/119 117/117/117
f 119/119/119 121/121/121 118/118/118
f 121/121/121 122/122/122 118/118/118
f 123/123/123 122/122/122 121/121/121
f 124/124/124 123/123/123 121/121/121
f 124/124/124 125/125/125 123/123/123
f 125/125/125 126/126/126 123/123/123
