g tactical_nspum_npz_eyecup_LOD1
v -0.02784737 0.04208073 -0.0006248188
v 0.0253478 0.04549053 -0.0006248188
v -0.02276769 0.0455999 0.0150095
v 0.0202682 0.04768053 0.0150095
v -0.02360575 0.04208073 -0.01625811
v 0.0202682 0.04651188 -0.01625811
v -0.01030693 0.04523828 -0.02592024
v 0.006969308 0.04644926 -0.02592024
v 0.006969308 0.04600561 0.02383215
v -0.009468885 0.0455999 0.02383215
v -0.01646966 -0.008839788 -0.01182517
v 0.01654104 -0.008839788 -0.01182517
v -0.006268804 -0.008839788 -0.01923653
v 0.006340178 -0.008839788 -0.01923653
v 0.02043745 -0.008839788 0.0001663208
v -0.02036605 -0.008839788 0.0001663208
v -0.01646966 -0.008839788 0.01215887
v 0.01654104 -0.008839788 0.01215887
v 0.0001715601 -0.008567257 0.02504754
v -0.01501638 -0.008839788 0.01478106
v 0.006893371 -0.008567257 0.02203111
v 0.01588739 -0.003386373 0.01168348
v 0.02043745 -0.008839788 0.0001663208
v 0.01654104 -0.008839788 0.01215887
v 0.01260996 0.02119409 0.001549301
v 0.01654104 -0.008839788 -0.01182517
v 0.008919414 0.02119409 -0.008811903
v 0.006340178 -0.008839788 -0.01923653
v 0.006810199 0.02119409 0.01089498
v 0.00588348 -0.001145229 0.01816441
v -0.004112578 0.02119409 0.0121871
v -0.005935055 -0.002477045 0.01854279
v -0.01581598 -0.003386373 0.01168348
v -0.01193326 0.02119409 0.004453726
v -0.02036605 -0.008839788 0.0001663208
v -0.01646966 -0.008839788 0.01215887
v -0.01076269 0.02119409 -0.006483068
v -0.01646966 -0.008839788 -0.01182517
v -0.001482366 0.02119409 -0.01238674
v -0.006268804 -0.008839788 -0.01923653
v -0.006268804 -0.008839788 -0.01923653
v -0.001482366 0.02119409 -0.01238674
v 0.01588739 -0.003386373 0.01168348
v 0.006893371 -0.003113851 0.02203111
v 0.00588348 -0.001145229 0.01816441
v 0.0001715601 -0.004188118 0.0247706
v -0.005935055 -0.002477045 0.01854279
v -0.01501494 -0.004938707 0.01477577
v -0.01581598 -0.003386373 0.01168348
v -0.02100156 0.03025398 0.0001663208
v -0.01698381 0.03025398 0.01253197
v -0.01193326 0.02119409 0.004453726
v -0.004112578 0.02119409 0.0121871
v -0.006465136 0.03025398 0.02017449
v -0.01076269 0.02119409 -0.006483068
v -0.01698381 0.03025398 -0.0121987
v 0.006536599 0.03025398 0.02017449
v 0.006810199 0.02119409 0.01089498
v 0.01705524 0.03025398 0.01253197
v 0.01260996 0.02119409 0.001549301
v 0.02107302 0.03025398 0.0001663208
v 0.01705524 0.03025398 -0.0121987
v 0.008919414 0.02119409 -0.008811903
v 0.006536599 0.03025398 -0.01984096
v -0.001482366 0.02119409 -0.01238674
v -0.006465136 0.03025398 -0.01984096
v -0.001482366 0.02119409 -0.01238674
v -0.006465136 0.03025398 -0.01984096
v -0.01102858 0.03244751 0.002518616
v -0.02784737 0.04208073 -0.0006248188
v -0.02276769 0.0455999 0.0150095
v -0.02360575 0.04208073 -0.01625811
v -0.003459721 0.03244751 0.01092408
v -0.009468885 0.0455999 0.02383215
v 0.006969308 0.04600561 0.02383215
v 0.007604526 0.03244751 0.008572673
v 0.0202682 0.04768053 0.0150095
v 0.01109998 0.03244751 -0.002185087
v 0.0253478 0.04549053 -0.0006248188
v 0.0202682 0.04651188 -0.01625811
v 0.003531097 0.03244751 -0.01059116
v 0.006969308 0.04644926 -0.02592024
v -0.007533142 0.03244751 -0.008239393
v -0.01030693 0.04523828 -0.02592024
v -0.007533142 0.03244751 -0.008239393
v -0.01030693 0.04523828 -0.02592024
v -0.02100156 0.03025398 0.0001663208
v -0.01102858 0.03244751 0.002518616
v -0.01698381 0.03025398 0.01253197
v -0.003459721 0.03244751 0.01092408
v -0.006465136 0.03025398 0.02017449
v -0.007533142 0.03244751 -0.008239393
v 0.006536599 0.03025398 0.02017449
v 0.007604526 0.03244751 0.008572673
v 0.01705524 0.03025398 0.01253197
v 0.02107302 0.03025398 0.0001663208
v 0.01109998 0.03244751 -0.002185087
v 0.01705524 0.03025398 -0.0121987
v 0.003531097 0.03244751 -0.01059116
v 0.006536599 0.03025398 -0.01984096
v -0.01698381 0.03025398 -0.0121987
v -0.006465136 0.03025398 -0.01984096
v -0.006465136 0.03025398 -0.01984096
v -0.007533142 0.03244751 -0.008239393
v 0.01654104 -0.008839788 0.01215887
v 0.006893371 -0.008567257 0.02203111
v 0.01588739 -0.003386373 0.01168348
v 0.006893371 -0.003113851 0.02203111
v 0.0001715601 -0.004188118 0.0247706
v 0.0001715601 -0.008567257 0.02504754
v -0.01581598 -0.003386373 0.01168348
v -0.01501494 -0.004938707 0.01477577
v -0.01646966 -0.008839788 0.01215887
v -0.01501638 -0.008839788 0.01478106
v 0.0001715601 -0.004188118 0.0247706
v 0.0001715601 -0.008567257 0.02504754
v -0.01501494 -0.004938707 0.01477577
v -0.01501638 -0.008839788 0.01478106
vt 0.489323 0.183295
vt 0.850682 0.281112
vt 0.554495 0.0848532
vt 0.846363 0.16473
vt 0.489323 0.297057
vt 0.788146 0.378416
vt 0.562999 0.388659
vt 0.680492 0.420118
vt 0.772304 0.0797843
vt 0.66086 0.0495
vt 0.775722 0.609089
vt 0.583661 0.738935
vt 0.745524 0.692334
vt 0.672163 0.741931
vt 0.513822 0.684491
vt 0.751222 0.523993
vt 0.681383 0.469549
vt 0.489323 0.599395
vt 0.533854 0.460001
vt 0.662615 0.460001
vt 0.506601 0.503985
vt 0.226382 0.475717
vt 0.264926 0.54636
vt 0.264926 0.475717
vt 0.0495 0.52222
vt 0.264926 0.622779
vt 0.0495 0.638277
vt 0.264926 0.689835
vt 0.0495 0.410103
vt 0.226382 0.406032
vt 0.0495 0.337386
vt 0.226382 0.34404
vt 0.226382 0.279499
vt 0.0495 0.238437
vt 0.264926 0.205665
vt 0.264926 0.279499
vt 0.0495 0.143407
vt 0.264926 0.132708
vt 0.0495 0.755674
vt 0.264926 0.755674
vt 0.264926 0.0495
vt 0.0495 0.0495
vt 0.797198 0.921659
vt 0.825898 0.837684
vt 0.797198 0.84257
vt 0.825898 0.790002
vt 0.797198 0.735426
vt 0.825898 0.665252
vt 0.797198 0.665252
vt 0.621089 0.855841
vt 0.549641 0.855841
vt 0.559848 0.943828
vt 0.457778 0.943828
vt 0.478192 0.855841
vt 0.661917 0.943828
vt 0.692538 0.855841
vt 0.406743 0.855841
vt 0.355709 0.943828
vt 0.335295 0.855841
vt 0.253639 0.943828
vt 0.263846 0.855841
vt 0.192397 0.855841
vt 0.15157 0.943828
vt 0.120949 0.855841
vt 0.763987 0.943828
vt 0.763987 0.855841
vt 0.0495 0.943828
vt 0.0495 0.855841
vt 0.298733 0.696298
vt 0.445368 0.670727
vt 0.445368 0.591654
vt 0.445368 0.746923
vt 0.298733 0.566939
vt 0.445368 0.516585
vt 0.445368 0.43924
vt 0.298733 0.437579
vt 0.445368 0.363759
vt 0.298733 0.308219
vt 0.445368 0.285755
vt 0.445368 0.208284
vt 0.298733 0.17886
vt 0.445368 0.130963
vt 0.298733 0.0495
vt 0.445368 0.0495
vt 0.298733 0.825658
vt 0.445368 0.825658
vt 0.949145 0.397215
vt 0.870502 0.508929
vt 0.949145 0.466376
vt 0.870502 0.597243
vt 0.949145 0.535536
vt 0.870502 0.420615
vt 0.949145 0.604697
vt 0.870502 0.685557
vt 0.949145 0.673857
vt 0.949145 0.743018
vt 0.870502 0.773872
vt 0.949145 0.812179
vt 0.870502 0.862186
vt 0.949145 0.881339
vt 0.949145 0.328054
vt 0.870502 0.328054
vt 0.949145 0.9505
vt 0.870502 0.9505
vt 0.642371 0.782538
vt 0.542625 0.782538
vt 0.642371 0.818426
vt 0.542625 0.818426
vt 0.489323 0.818426
vt 0.489323 0.782538
vt 0.257419 0.819453
vt 0.257419 0.797198
vt 0.225429 0.819453
vt 0.225429 0.797198
vt 0.0641608 0.797198
vt 0.0641608 0.826304
vt 0.192418 0.797198
vt 0.192418 0.826304
vn -0.06360136 0.9922226 -0.1070006
vn -0.07188092 0.9962234 -0.04870365
vn -0.05484289 0.9900973 -0.1292275
vn -0.04809381 0.9947747 -0.09005718
vn -0.07767218 0.9958014 0.04844169
vn -0.09598467 0.9896199 0.1069548
vn -0.09526306 0.9804417 0.1722183
vn -0.06964319 0.9935564 0.08941737
vn -0.04534475 0.9932069 0.1071629
vn -0.0246565 0.9990049 0.03716593
vn 0 -1 0
vn 0 -1 0
vn 0 -1 0
vn 0 -1 0
vn 0 -1 0
vn 0 -1 0
vn 0.003946531 -0.999989 0.002536647
vn 0.001068572 -0.9999703 0.007639743
vn 0.00341696 -0.9997239 0.0232461
vn 0.02867806 -0.9994623 -0.01589402
vn 0.02203251 -0.998551 0.04909717
vn 0.8656253 0.2239786 0.447802
vn 0.9704202 0.2404526 -0.02161275
vn 0.9417549 0.1395524 0.3059787
vn 0.9497226 0.3016486 0.0838761
vn 0.7880729 0.252097 -0.5615942
vn 0.6782874 0.2925736 -0.6740378
vn 0.3005443 0.2408082 -0.9228676
vn 0.5049962 0.3229128 0.8004412
vn 0.2950145 0.2641781 0.9182463
vn -0.3077442 0.3154663 0.8976495
vn -0.3142031 0.2686721 0.9105447
vn -0.8573851 0.2266214 0.4620969
vn -0.8985342 0.3095395 0.3111615
vn -0.9728963 0.2307332 -0.01532682
vn -0.9417549 0.139557 0.3059766
vn -0.810441 0.2902727 -0.5088488
vn -0.7800075 0.250234 -0.5735601
vn -0.1189643 0.2946267 -0.9481786
vn -0.3066745 0.2489791 -0.9186731
vn -0.3066745 0.2489791 -0.9186731
vn -0.1189643 0.2946267 -0.9481786
vn 0.4042818 0.8534449 0.3289194
vn 0.1787101 0.8948933 0.408936
vn 0.1970832 0.9065951 0.3731535
vn -0.1146868 0.9030998 0.4138329
vn -0.3588565 0.7542188 0.5498872
vn -0.4150242 0.7558235 0.5064443
vn -0.4119959 0.7670695 0.4917963
vn -0.7366707 -0.6762133 -0.00720511
vn -0.5896958 -0.6766554 0.4409042
vn -0.6519712 -0.7210425 0.2345876
vn -0.2260338 -0.7140537 0.662598
vn -0.225392 -0.6765726 0.7010335
vn -0.5878317 -0.7088335 -0.3898831
vn -0.5755833 -0.6890088 -0.4404211
vn 0.2160002 -0.6784294 0.7021948
vn 0.3675852 -0.7214131 0.5868937
vn 0.5983053 -0.6771765 0.4283255
vn 0.6945465 -0.7166561 0.06331799
vn 0.7296854 -0.6836528 -0.01334423
vn 0.5982829 -0.6850113 -0.4157129
vn 0.4965288 -0.7195113 -0.4855539
vn 0.2282171 -0.678427 -0.6983221
vn -0.1026088 -0.7166798 -0.6898127
vn -0.2444181 -0.6927077 -0.6785394
vn -0.1026088 -0.7166798 -0.6898127
vn -0.2444181 -0.6927077 -0.6785394
vn -0.4871466 -0.8562523 0.1718141
vn -0.5075755 -0.8569304 0.08965077
vn -0.4534183 -0.7718465 0.4457183
vn -0.356113 -0.8692977 -0.3427902
vn -0.1628792 -0.7769967 0.6080678
vn -0.1980979 -0.7311756 0.6527936
vn 0.2443103 -0.7006182 0.6704078
vn 0.4785511 -0.732021 0.4849063
vn 0.5814294 -0.690799 0.4298098
vn 0.6412078 -0.7609097 -0.0993427
vn 0.6720407 -0.7392638 0.04301551
vn 0.534206 -0.7286286 -0.4286308
vn 0.1764739 -0.7690213 -0.6143803
vn 0.2014183 -0.7682198 -0.6076751
vn -0.2654795 -0.8591975 -0.4373789
vn -0.05562877 -0.8130857 -0.5794799
vn -0.2654795 -0.8591975 -0.4373789
vn -0.05562877 -0.8130857 -0.5794799
vn -0.2131348 0.9769945 -0.007432146
vn -0.1927095 0.9805821 0.03635713
vn -0.1715433 0.976789 0.1282818
vn -0.06061001 0.9805778 0.18653
vn -0.0679839 0.9755003 0.2092303
vn -0.1345388 0.9805819 -0.1426825
vn 0.06337719 0.9767903 0.2046069
vn 0.1345367 0.9805827 0.14268
vn 0.1767973 0.9769948 0.1192644
vn 0.2131339 0.9769948 0.007427699
vn 0.1927098 0.9805823 -0.03635077
vn 0.1715432 0.9767889 -0.1282822
vn 0.06060914 0.9805767 -0.1865369
vn 0.06798717 0.9754976 -0.2092419
vn -0.1767969 0.9769945 -0.1192676
vn -0.06337984 0.9767886 -0.2046141
vn -0.06337984 0.9767886 -0.2046141
vn -0.1345388 0.9805819 -0.1426825
vn 0.7096195 0.1451584 0.6894702
vn 0.5823481 0.02828413 0.8124473
vn 0.7219046 0.1109792 0.6830354
vn 0.5902119 0 0.8072485
vn 0.3965535 0.03481926 0.917351
vn 0.4087387 0.05760117 0.9108319
vn -0.9392126 0.1399112 0.3135355
vn -0.9238148 0.09586014 0.3706439
vn -0.9081771 0.06085147 0.4141393
vn -0.8746514 0.0009819049 0.4847516
vn -0.5508113 0.05267691 0.8329659
vn -0.5521508 0.04572198 0.8324896
vn -0.5587761 0.008881791 0.829271
vn -0.5600363 0.001331632 0.828467
g tactical_nspum_npz_eyecup_LOD1_0
f 3/3/3 2/2/2 1/1/1
f 2/2/2 3/3/3 4/4/4
f 2/2/2 5/5/5 1/1/1
f 5/5/5 2/2/2 6/6/6
f 6/6/6 7/7/7 5/5/5
f 7/7/7 6/6/6 8/8/8
f 4/4/4 3/3/3 9/9/9
f 10/10/10 9/9/9 3/3/3
f 13/13/13 12/12/12 11/11/11
f 12/12/12 13/13/13 14/14/14
f 15/15/15 11/11/11 12/12/12
f 11/11/11 15/15/15 16/16/16
f 15/15/15 17/17/17 16/16/16
f 17/17/17 15/15/15 18/18/18
f 18/18/18 19/19/19 17/17/17
f 19/19/19 20/20/20 17/17/17
f 19/19/19 18/18/18 21/21/21
f 24/24/24 23/23/23 22/22/22
f 23/23/23 25/25/25 22/22/22
f 26/26/26 25/25/25 23/23/23
f 25/25/25 26/26/26 27/27/27
f 28/28/28 27/27/27 26/26/26
f 29/29/29 22/22/22 25/25/25
f 22/22/22 29/29/29 30/30/30
f 31/31/31 30/30/30 29/29/29
f 30/30/30 31/31/31 32/32/32
f 31/31/31 33/33/33 32/32/32
f 33/33/33 31/31/31 34/34/34
f 33/33/33 34/34/34 35/35/35
f 36/36/36 33/33/33 35/35/35
f 37/37/37 35/35/35 34/34/34
f 35/35/35 37/37/37 38/38/38
f 28/28/28 39/39/39 27/27/27
f 39/39/39 28/28/28 40/40/40
f 37/37/37 41/41/41 38/38/38
f 41/41/41 37/37/37 42/42/42
f 45/45/45 44/44/44 43/43/43
f 45/45/45 46/46/46 44/44/44
f 46/46/46 45/45/45 47/47/47
f 47/47/47 48/48/48 46/46/46
f 48/48/48 47/47/47 49/49/49
f 52/52/52 51/51/51 50/50/50
f 53/53/53 51/51/51 52/52/52
f 51/51/51 53/53/53 54/54/54
f 50/50/50 55/55/55 52/52/52
f 55/55/55 50/50/50 56/56/56
f 53/53/53 57/57/57 54/54/54
f 57/57/57 53/53/53 58/58/58
f 58/58/58 59/59/59 57/57/57
f 59/59/59 58/58/58 60/60/60
f 60/60/60 61/61/61 59/59/59
f 60/60/60 62/62/62 61/61/61
f 62/62/62 60/60/60 63/63/63
f 63/63/63 64/64/64 62/62/62
f 56/56/56 65/65/65 55/55/55
f 65/65/65 56/56/56 66/66/66
f 67/67/67 64/64/64 63/63/63
f 64/64/64 67/67/67 68/68/68
f 71/71/71 70/70/70 69/69/69
f 72/72/72 69/69/69 70/70/70
f 73/73/73 71/71/71 69/69/69
f 71/71/71 73/73/73 74/74/74
f 73/73/73 75/75/75 74/74/74
f 75/75/75 73/73/73 76/76/76
f 77/77/77 75/75/75 76/76/76
f 78/78/78 77/77/77 76/76/76
f 77/77/77 78/78/78 79/79/79
f 80/80/80 79/79/79 78/78/78
f 81/81/81 80/80/80 78/78/78
f 80/80/80 81/81/81 82/82/82
f 83/83/83 82/82/82 81/81/81
f 82/82/82 83/83/83 84/84/84
f 72/72/72 85/85/85 69/69/69
f 85/85/85 72/72/72 86/86/86
f 89/89/89 88/88/88 87/87/87
f 89/89/89 90/90/90 88/88/88
f 90/90/90 89/89/89 91/91/91
f 92/92/92 87/87/87 88/88/88
f 93/93/93 90/90/90 91/91/91
f 90/90/90 93/93/93 94/94/94
f 95/95/95 94/94/94 93/93/93
f 96/96/96 94/94/94 95/95/95
f 94/94/94 96/96/96 97/97/97
f 98/98/98 97/97/97 96/96/96
f 98/98/98 99/99/99 97/97/97
f 99/99/99 98/98/98 100/100/100
f 92/92/92 101/101/101 87/87/87
f 101/101/101 92/92/92 102/102/102
f 103/103/103 99/99/99 100/100/100
f 99/99/99 103/103/103 104/104/104
f 107/107/107 106/106/106 105/105/105
f 106/106/106 107/107/107 108/108/108
f 109/109/109 106/106/106 108/108/108
f 106/106/106 109/109/109 110/110/110
f 113/113/113 112/112/112 111/111/111
f 112/112/112 113/113/113 114/114/114
f 117/117/117 116/116/116 115/115/115
f 116/116/116 117/117/117 118/118/118
