g tactical_1p59_kmz_eyecup_LOD1
v -0.01132794 0.05702381 0.02275381
v -0.01042054 -0.02642964 0.02086962
v -0.01877722 -0.02642964 0.0142054
v -0.02041228 0.05702381 0.01550929
v -0.02341489 -0.02642964 0.004575311
v -0.0254537 0.05702381 0.005040675
v 3.397465E-08 0.05702381 0.02533934
v 3.755093E-08 -0.02642964 0.02324806
v 0.01132802 0.05702381 0.02275381
v 0.01042063 -0.02642964 0.02086962
v 0.02041235 0.05702381 0.01550929
v 0.01877734 -0.02642964 0.01420539
v 0.02545377 0.05702381 0.005040661
v 0.02341497 -0.02642964 0.004575294
v 0.02545376 0.05702381 -0.00657864
v 0.02341496 -0.02642964 -0.006113268
v 0.02041234 0.05702381 -0.01704726
v 0.01877729 -0.02642964 -0.01574337
v 0.011328 0.05702381 -0.02429178
v 0.01042063 -0.02642964 -0.02240758
v 2.086163E-08 0.05702381 -0.02687731
v 2.563E-08 -0.02642964 -0.02478603
v -0.01132796 0.05702381 -0.02429177
v -0.01042057 -0.02642964 -0.02240758
v -0.02041229 0.05702381 -0.01704725
v -0.01877723 -0.02642964 -0.01574336
v -0.02545371 0.05702381 -0.006578621
v -0.0234149 -0.02642964 -0.006113259
v -0.0254537 0.05702381 0.005040675
v -0.02341489 -0.02642964 0.004575311
v -0.02041228 0.05702381 0.01550929
v 3.397465E-08 0.05702381 0.02533934
v -0.01132794 0.05702381 0.02275381
v -0.0254537 0.05702381 0.005040675
v -0.02545371 0.05702381 -0.006578621
v -0.02041229 0.05702381 -0.01704725
v -0.01132796 0.05702381 -0.02429177
v 2.086163E-08 0.05702381 -0.02687731
v 0.011328 0.05702381 -0.02429178
v 0.02041234 0.05702381 -0.01704726
v 0.02545376 0.05702381 -0.00657864
v 0.02545377 0.05702381 0.005040661
v 0.02041235 0.05702381 0.01550929
v 0.01132802 0.05702381 0.02275381
v -0.01877722 -0.02642964 0.0142054
v -0.01042054 -0.02642964 0.02086962
v -0.02341489 -0.02642964 0.004575311
v -0.01877723 -0.02642964 -0.01574336
v -0.0234149 -0.02642964 -0.006113259
v 0.01877729 -0.02642964 -0.01574337
v 2.563E-08 -0.02642964 -0.02478603
v -0.01042057 -0.02642964 -0.02240758
v 0.01042063 -0.02642964 -0.02240758
v 0.01042063 -0.02642964 0.02086962
v 0.02341497 -0.02642964 0.004575294
v 0.02341496 -0.02642964 -0.006113268
v 0.01877734 -0.02642964 0.01420539
v 3.755093E-08 -0.02642964 0.02324806
vt 0.03494685 0.1615537
vt 0.5252621 0.1880271
vt 0.5290015 0.1252683
vt 0.03901202 0.09332962
vt 0.5334405 0.06255496
vt 0.04383761 0.02515522
vt 0.03164264 0.2298187
vt 0.5222225 0.2508239
vt 0.02909965 0.2981164
vt 0.5198832 0.3136508
vt 0.02731828 0.3664382
vt 0.5182445 0.3765002
vt 0.02629872 0.4347757
vt 0.5173066 0.4393636
vt 0.0260412 0.5031201
vt 0.5170698 0.5022334
vt 0.02654557 0.5714633
vt 0.5175337 0.5651026
vt 0.02781186 0.6397966
vt 0.5186986 0.6279625
vt 0.02983979 0.7081115
vt 0.5205641 0.690806
vt 0.03262921 0.7763994
vt 0.5231302 0.7536241
vt 0.03617975 0.8446522
vt 0.5263963 0.8164098
vt 0.04049103 0.9128612
vt 0.5303621 0.8791553
vt 0.04556252 0.9810177
vt 0.5350274 0.9418522
vt 0.6054292 0.5926504
vt 0.7565253 0.5030696
vt 0.6707541 0.5306166
vt 0.573489 0.6768842
vt 0.5812595 0.7666347
vt 0.6272017 0.8441255
vt 0.7022163 0.894009
vt 0.7914456 0.9064046
vt 0.8772168 0.8788575
vt 0.9425418 0.816824
vt 0.9744821 0.73259
vt 0.9667116 0.6428396
vt 0.9207693 0.5653485
vt 0.8457548 0.5154652
vt 0.5772125 0.2089469
vt 0.5798208 0.2941111
vt 0.6118138 0.1310836
vt 0.7592214 0.05445158
vt 0.6767719 0.07594505
vt 0.9529517 0.2826832
vt 0.911042 0.1219195
vt 0.8428311 0.07085949
vt 0.9503435 0.1975186
vt 0.687333 0.4207702
vt 0.8533925 0.4156848
vt 0.9183505 0.3605462
vt 0.7709432 0.4371785
vt 0.6191222 0.3697102
vn -0.4337478 -0.02505158 0.900686
vn -0.4337478 -0.02505158 0.900686
vn -0.7815851 -0.02505148 0.6232955
vn -0.7815851 -0.02505148 0.6232954
vn -0.9746216 -0.02505113 0.2224527
vn -0.9746216 -0.02505113 0.2224528
vn 0 -0.02505152 0.9996861
vn 0 -0.02505151 0.9996861
vn 0.4337474 -0.02505148 0.9006863
vn 0.4337474 -0.02505148 0.9006863
vn 0.7815856 -0.02505125 0.6232947
vn 0.7815856 -0.02505125 0.6232946
vn 0.974622 -0.02505092 0.2224512
vn 0.974622 -0.02505092 0.2224511
vn 0.9746216 -0.02505106 -0.2224527
vn 0.9746216 -0.02505105 -0.2224526
vn 0.7815853 -0.02505141 -0.6232952
vn 0.7815853 -0.02505141 -0.6232952
vn 0.4337476 -0.0250515 -0.9006861
vn 0.4337477 -0.0250515 -0.900686
vn -3.320044E-07 -0.02505145 -0.9996861
vn -3.296563E-07 -0.02505146 -0.9996861
vn -0.4337484 -0.02505152 -0.9006858
vn -0.4337483 -0.02505152 -0.9006858
vn -0.7815856 -0.02505148 -0.6232947
vn -0.7815856 -0.02505148 -0.6232947
vn -0.9746217 -0.02505115 -0.222452
vn -0.9746217 -0.02505115 -0.222452
vn -0.9746216 -0.02505113 0.2224528
vn -0.9746216 -0.02505113 0.2224527
vn 0 1 0
vn 0 1 0
vn 0 1 0
vn 0 1 0
vn 0 1 0
vn 0 1 0
vn 0 1 0
vn 0 1 0
vn 0 1 0
vn 0 1 0
vn 0 1 0
vn 0 1 0
vn 0 1 0
vn 0 1 0
vn 0 -1 0
vn 0 -1 0
vn 0 -1 0
vn 0 -1 0
vn 0 -1 0
vn 0 -1 0
vn 0 -1 0
vn 0 -1 0
vn 0 -1 0
vn 0 -1 0
vn 0 -1 0
vn 0 -1 0
vn 0 -1 0
vn 0 -1 0
g tactical_1p59_kmz_eyecup_LOD1_0
f 3/3/3 2/2/2 1/1/1
f 4/4/4 3/3/3 1/1/1
f 5/5/5 3/3/3 4/4/4
f 6/6/6 5/5/5 4/4/4
f 1/1/1 2/2/2 7/7/7
f 2/2/2 8/8/8 7/7/7
f 7/7/7 8/8/8 9/9/9
f 8/8/8 10/10/10 9/9/9
f 9/9/9 10/10/10 11/11/11
f 10/10/10 12/12/12 11/11/11
f 11/11/11 12/12/12 13/13/13
f 12/12/12 14/14/14 13/13/13
f 13/13/13 14/14/14 15/15/15
f 14/14/14 16/16/16 15/15/15
f 15/15/15 16/16/16 17/17/17
f 16/16/16 18/18/18 17/17/17
f 17/17/17 18/18/18 19/19/19
f 18/18/18 20/20/20 19/19/19
f 19/19/19 20/20/20 21/21/21
f 20/20/20 22/22/22 21/21/21
f 21/21/21 22/22/22 23/23/23
f 22/22/22 24/24/24 23/23/23
f 23/23/23 24/24/24 25/25/25
f 24/24/24 26/26/26 25/25/25
f 25/25/25 26/26/26 27/27/27
f 26/26/26 28/28/28 27/27/27
f 27/27/27 28/28/28 29/29/29
f 28/28/28 30/30/30 29/29/29
f 33/33/33 32/32/32 31/31/31
f 31/31/31 32/32/32 34/34/34
f 34/34/34 32/32/32 35/35/35
f 35/35/35 32/32/32 36/36/36
f 36/36/36 32/32/32 37/37/37
f 37/37/37 32/32/32 38/38/38
f 38/38/38 32/32/32 39/39/39
f 39/39/39 32/32/32 40/40/40
f 40/40/40 32/32/32 41/41/41
f 41/41/41 32/32/32 42/42/42
f 42/42/42 32/32/32 43/43/43
f 43/43/43 32/32/32 44/44/44
f 47/47/47 46/46/46 45/45/45
f 48/48/48 46/46/46 47/47/47
f 49/49/49 48/48/48 47/47/47
f 50/50/50 46/46/46 48/48/48
f 51/51/51 50/50/50 48/48/48
f 52/52/52 51/51/51 48/48/48
f 53/53/53 50/50/50 51/51/51
f 54/54/54 46/46/46 50/50/50
f 55/55/55 54/54/54 50/50/50
f 56/56/56 55/55/55 50/50/50
f 57/57/57 54/54/54 55/55/55
f 58/58/58 46/46/46 54/54/54
