g tactical_urx_kac_panel_long_LOD1
v -0.007716827 0.06956581 -0.005018238
v 0.00766731 0.06956581 -0.00489077
v 0.007667309 0.06956581 0.004100653
v -0.007716828 0.06956581 0.004100653
v -0.01560708 0.06956583 -0.008175924
v -0.01560708 0.06956583 -0.0008671366
v 0.009456534 0.06956583 -6.587381E-05
v 0.009456535 0.06956583 -0.003688883
v 0.009456535 0.06956583 -0.003688883
v 0.009456542 -0.06954324 -0.003688868
v 0.009456541 -0.06954324 -6.58595E-05
v 0.009456534 0.06956583 -6.587381E-05
v 0.007667309 0.06956581 0.004100653
v 0.007667318 -0.06954324 0.004100667
v 0.007667319 -0.06954324 -0.004890755
v 0.00766731 0.06956581 -0.00489077
v 0.007667319 -0.06954324 -0.004890755
v -0.007716816 -0.06954324 -0.005018214
v -0.007716818 -0.06954324 0.004100667
v 0.007667318 -0.06954324 0.004100667
v -0.01560707 -0.06954324 -0.0008671223
v -0.01560707 -0.06954324 -0.00817591
v 0.009456542 -0.06954324 -0.003688868
v 0.009456541 -0.06954324 -6.58595E-05
v -0.01560707 -0.06954324 -0.00817591
v -0.01560708 0.06956583 -0.008175924
v -0.01560708 0.06956583 -0.0008671366
v -0.01560707 -0.06954324 -0.0008671223
v -0.007716818 -0.06954324 0.004100667
v -0.007716828 0.06956581 0.004100653
v 0.007667318 -0.06954324 0.004100667
v 0.007667309 0.06956581 0.004100653
v -0.007716816 -0.06954324 -0.005018214
v 0.007667319 -0.06954324 -0.004890755
v 0.00766731 0.06956581 -0.00489077
v -0.007716827 0.06956581 -0.005018238
v -0.01560707 -0.06954324 -0.00817591
v -0.01560708 0.06956583 -0.008175924
vt 0.096658 0.81069
vt 0.096658 0.673994
vt 0.016533 0.671321
vt 0.00996 0.803156
vt 0.096661 0.881792
vt 0.040561 0.88179
vt 0.053091 0.657491
vt 0.08495 0.657491
vt 0.977671 0.994743
vt 0.977671 0.006284
vt 0.951927 0.006284
vt 0.951927 0.994743
vt 0.919707 0.994743
vt 0.919707 0.006284
vt 0.992985 0.006284
vt 0.992985 0.994743
vt 0.014049 0.416181
vt 0.014049 0.554376
vt 0.101699 0.546757
vt 0.095054 0.413481
vt 0.07076 0.626255
vt 0.014049 0.626255
vt 0.025889 0.399498
vt 0.058093 0.399498
vt 0.692207 0.006284
vt 0.692207 0.994743
vt 0.744141 0.994743
vt 0.744141 0.006284
vt 0.810392 0.006284
vt 0.810392 0.994743
vt 0.919707 0.006284
vt 0.919707 0.994743
vt 0.622597 0.004947
vt 0.513279 0.004947
vt 0.513279 0.993406
vt 0.622597 0.993406
vt 0.682986 0.004947
vt 0.682986 0.993406
vn 1.342463E-06 1 0
vn -4.080502E-06 1 0
vn -2.187773E-06 1 0
vn 9.454005E-07 1 0
vn 2.417349E-06 1 0
vn 2.417349E-06 1 0
vn -1.06602E-05 1 0
vn -1.06602E-05 1 0
vn 0.8825002 0 -0.4703121
vn 0.8824992 0 -0.4703141
vn 0.9795049 0 0.2014205
vn 0.979505 0 0.2014201
vn 0.9188598 0 0.3945844
vn 0.9188598 0 0.3945844
vn 0.2954193 0 -0.9553677
vn 0.2954205 0 -0.9553674
vn 2.040252E-06 -1 0
vn -5.016186E-07 -1 3.223941E-07
vn -3.532539E-07 -1 2.27039E-07
vn 1.093887E-06 -1 0
vn -9.032552E-07 -1 5.80529E-07
vn -9.032552E-07 -1 5.80529E-07
vn 5.330103E-06 -1 0
vn 5.330103E-06 -1 0
vn -1 0 -3.262081E-07
vn -1 0 -3.262081E-07
vn -0.8754436 0 0.4833204
vn -0.8754434 0 0.4833207
vn -0.2772724 0 0.9607913
vn -0.2772727 0 0.9607913
vn 0 1.028338E-07 1
vn 0 1.028338E-07 1
vn 0.1932591 -1.220482E-07 -0.9811478
vn 0.2954193 0 -0.9553677
vn 0.2954205 0 -0.9553674
vn 0.1932592 -1.220482E-07 -0.9811477
vn 0.3715522 -1.033543E-07 -0.9284121
vn 0.3715521 -1.033543E-07 -0.9284121
g tactical_urx_kac_panel_long_LOD1_0
f 3/3/3 2/2/2 1/1/1
f 4/4/4 3/3/3 1/1/1
f 4/4/4 1/1/1 5/5/5
f 6/6/6 4/4/4 5/5/5
f 3/3/3 7/7/7 2/2/2
f 7/7/7 8/8/8 2/2/2
f 11/11/11 10/10/10 9/9/9
f 12/12/12 11/11/11 9/9/9
f 11/11/11 12/12/12 13/13/13
f 14/14/14 11/11/11 13/13/13
f 9/9/9 10/10/10 15/15/15
f 16/16/16 9/9/9 15/15/15
f 19/19/19 18/18/18 17/17/17
f 20/20/20 19/19/19 17/17/17
f 19/19/19 21/21/21 18/18/18
f 21/21/21 22/22/22 18/18/18
f 20/20/20 17/17/17 23/23/23
f 24/24/24 20/20/20 23/23/23
f 27/27/27 26/26/26 25/25/25
f 28/28/28 27/27/27 25/25/25
f 28/28/28 29/29/29 27/27/27
f 29/29/29 30/30/30 27/27/27
f 29/29/29 31/31/31 30/30/30
f 31/31/31 32/32/32 30/30/30
f 35/35/35 34/34/34 33/33/33
f 36/36/36 35/35/35 33/33/33
f 36/36/36 33/33/33 37/37/37
f 38/38/38 36/36/36 37/37/37
