g tactical_all_steiner_las_tac_2_LOD1
v -0.02022326 0.03364278 0.01644264
v -0.01709339 -0.01166684 0.008886458
v -0.01709338 0.03364277 0.00888645
v -0.02022326 -0.01166684 0.01644265
v -0.01331528 0.03364277 0.007321511
v -0.01331529 -0.01166684 0.007321519
v -0.01709338 0.03364278 0.02399884
v -0.01709339 -0.01166684 0.02399884
v -0.009537192 0.01098797 0.02712872
v -0.009537188 0.03364278 0.02712871
v -0.009537196 -0.01166684 0.02712872
v 0.01250213 0.01529922 -0.0044547
v -0.01331528 0.03364277 -0.004454702
v -0.01331875 0.01529923 -0.0044547
v 0.01250213 0.03364277 -0.004454702
v 0.01250213 -0.005153918 -0.004454696
v -0.01331875 -0.005153921 -0.004454696
v 0.01250213 -0.01166684 -0.004454695
v -0.01331529 -0.01166684 -0.004454695
v 0.01628023 0.03364277 0.00888645
v 0.0194101 -0.01166685 0.01644265
v 0.01941011 0.03364277 0.01644264
v 0.01628022 -0.01166684 0.008886458
v 0.01628022 -0.01166684 0.02399885
v 0.01628023 0.03364277 0.02399884
v 0.008724031 0.01098796 0.02712872
v 0.01250213 -0.01166684 0.00732152
v 0.01250213 0.03364277 0.007321511
v 0.008724034 0.03364277 0.02712871
v 0.008724027 -0.01166684 0.02712872
v 0.008724036 0.03859762 0.02480593
v -0.01709338 0.03859763 0.02237691
v 0.01628023 0.03859762 0.02237691
v -0.009537187 0.03859763 0.02480593
v 0.01772533 0.03859762 0.01953708
v -0.01853848 0.03859763 0.01953708
v -0.009537192 0.01098797 0.02712872
v 0.008724033 0.02773248 0.03151796
v 0.008724031 0.01098796 0.02712872
v -0.00953719 0.02773248 0.03151796
v -0.009537196 -0.01166684 0.02712872
v 0.01628022 -0.01166684 0.02399885
v -0.01709339 -0.01166684 0.02399884
v 0.008724027 -0.01166684 0.02712872
v -0.02022326 -0.01166684 0.01644265
v 0.0194101 -0.01166685 0.01644265
v -0.01709339 -0.01166684 0.008886458
v 0.01628022 -0.01166684 0.008886458
v -0.01331529 -0.01166684 0.007321519
v 0.01250213 -0.01166684 0.00732152
v -0.01331529 -0.01166684 -0.004454695
v 0.01250213 -0.01166684 -0.004454695
v -0.01331529 -0.01166684 0.007321519
v -0.01331529 -0.01166684 -0.004454695
v -0.01331529 -0.005153914 0.004224266
v -0.01331875 -0.005153921 -0.004454696
v -0.01331529 0.01529924 0.004224262
v -0.01331528 0.03364277 0.007321511
v -0.01331528 0.03364277 -0.004454702
v -0.01331875 0.01529923 -0.0044547
v 0.01250213 0.03364277 0.007321511
v -0.01331528 0.03364277 -0.004454702
v 0.01250213 0.03364277 -0.004454702
v -0.01331528 0.03364277 0.007321511
v 0.01250213 0.03364277 0.007321511
v 0.01250213 0.03364277 -0.004454702
v 0.01250213 0.01529923 0.004224263
v 0.01250213 0.01529922 -0.0044547
v 0.01250213 -0.01166684 0.00732152
v 0.01250213 -0.005153916 0.004224267
v 0.01250213 -0.01166684 -0.004454695
v 0.01250213 -0.005153918 -0.004454696
v -0.01709338 0.03364277 0.00888645
v -0.01853848 0.03859763 0.01412418
v -0.02022326 0.03364278 0.01644264
v -0.01709338 0.03859763 0.01064855
v -0.01331528 0.03364277 0.007321511
v -0.01331528 0.03859763 0.009434039
v -0.01853848 0.03859763 0.01953708
v -0.01709338 0.03859763 0.02237691
v -0.01709338 0.03364278 0.02399884
v -0.009537187 0.03859763 0.02480593
v -0.009537188 0.03364278 0.02712871
v 0.008724036 0.03859762 0.02480593
v 0.008724034 0.03364277 0.02712871
v 0.01628023 0.03859762 0.02237691
v 0.01628023 0.03364277 0.02399884
v 0.01772533 0.03859762 0.01953708
v 0.01941011 0.03364277 0.01644264
v 0.01772533 0.03859763 0.01412418
v 0.01628023 0.03859763 0.01064855
v 0.01628023 0.03364277 0.00888645
v 0.01250213 0.03859763 0.00943404
v 0.01250213 0.03364277 0.007321511
v 0.01250213 0.03364277 0.007321511
v -0.01331528 0.03859763 0.009434039
v -0.01331528 0.03364277 0.007321511
v 0.01250213 0.03859763 0.00943404
v 0.01628023 0.03859763 0.01064855
v -0.01853848 0.03859763 0.01412418
v -0.01709338 0.03859763 0.01064855
v 0.01772533 0.03859763 0.01412418
v 0.01250213 0.03859763 0.00943404
v -0.01331528 0.03859763 0.009434039
v 0.01772534 0.04706575 0.01412419
v -0.01853848 0.04706574 0.01953708
v -0.01853848 0.04706575 0.01412418
v 0.01772534 0.04706574 0.01953708
v -0.01853848 0.03859763 0.01412418
v -0.01853848 0.04706574 0.01953708
v -0.01853848 0.03859763 0.01953708
v -0.01853848 0.04706575 0.01412418
v -0.01853848 0.03859763 0.01953708
v 0.01772534 0.04706574 0.01953708
v 0.01772533 0.03859762 0.01953708
v -0.01853848 0.04706574 0.01953708
v 0.01772533 0.03859762 0.01953708
v 0.01772534 0.04706575 0.01412419
v 0.01772533 0.03859763 0.01412418
v 0.01772534 0.04706574 0.01953708
v 0.01772533 0.03859763 0.01412418
v -0.01853848 0.04706575 0.01412418
v -0.01853848 0.03859763 0.01412418
v 0.01772534 0.04706575 0.01412419
v -0.009537196 -0.01166684 0.02712872
v 0.008724031 0.01098796 0.02712872
v 0.008724027 -0.01166684 0.02712872
v -0.009537192 0.01098797 0.02712872
v -0.009537188 0.03364278 0.02712871
v -0.00953719 0.02773248 0.03151796
v -0.009537192 0.01098797 0.02712872
v 0.008724031 0.01098796 0.02712872
v 0.008724033 0.02773248 0.03151796
v 0.008724034 0.03364277 0.02712871
v 0.008724034 0.03364277 0.02712871
v -0.00953719 0.02773248 0.03151796
v -0.009537188 0.03364278 0.02712871
v 0.008724033 0.02773248 0.03151796
v 0.01250213 0.01529922 -0.0044547
v 0.01773084 -0.005153918 0.004224267
v 0.01773084 0.01529923 0.004224263
v 0.01250213 -0.005153918 -0.004454696
v -0.01331875 -0.005153921 -0.004454696
v -0.01768358 0.01529924 0.004224261
v -0.01768359 -0.005153911 0.004224265
v -0.01331875 0.01529923 -0.0044547
v -0.01331875 -0.005153921 -0.004454696
v -0.01768359 -0.005153911 0.004224265
v -0.01331529 -0.005153914 0.004224266
v -0.01331529 -0.005153914 0.004224266
v -0.01768358 0.01529924 0.004224261
v -0.01331529 0.01529924 0.004224262
v -0.01768359 -0.005153911 0.004224265
v -0.01331529 0.01529924 0.004224262
v -0.01768358 0.01529924 0.004224261
v -0.01331875 0.01529923 -0.0044547
v 0.01250213 0.01529923 0.004224263
v 0.01773084 -0.005153918 0.004224267
v 0.01250213 -0.005153916 0.004224267
v 0.01773084 0.01529923 0.004224263
v 0.01250213 -0.005153916 0.004224267
v 0.01773084 -0.005153918 0.004224267
v 0.01250213 -0.005153918 -0.004454696
v 0.01250213 0.01529922 -0.0044547
v 0.01773084 0.01529923 0.004224263
v 0.01250213 0.01529923 0.004224263
v -0.01280836 -0.01171227 0.01550333
v -0.009043562 -0.04252271 0.006414289
v -0.009043556 -0.01171227 0.006414284
v -0.01280837 -0.0425227 0.01550334
v 4.548525E-05 -0.04252271 0.002649484
v 4.549095E-05 -0.01171228 0.002649477
v 0.00913453 -0.04252271 0.006414289
v 0.009134537 -0.01171228 0.006414284
v 0.01289934 -0.04252271 0.01550334
v 0.01289934 -0.01171227 0.01550333
v 0.009134528 -0.0425227 0.02459238
v 0.009134535 -0.01171227 0.02459238
v 4.548454E-05 -0.0425227 0.02835719
v 4.549024E-05 -0.01171227 0.02835718
v -0.009043561 -0.0425227 0.02459238
v -0.009043555 -0.01171227 0.02459238
v -0.009043555 -0.01171227 0.02459238
v -0.009043561 -0.0425227 0.02459238
v -0.009043562 -0.04252271 0.006414289
v 0.00913453 -0.04252271 0.006414289
v 4.548525E-05 -0.04252271 0.002649484
v -0.009043561 -0.0425227 0.02459238
v 0.009134528 -0.0425227 0.02459238
v 0.01289934 -0.04252271 0.01550334
v 4.548454E-05 -0.0425227 0.02835719
v -0.01280837 -0.0425227 0.01550334
vt 0.1309941 0.01466899
vt 0.1891371 0.3367759
vt 0.1891371 0.01466899
vt 0.1309943 0.3367759
vt 0.2182086 0.01466899
vt 0.2182086 0.3367759
vt 0.07285117 0.01466899
vt 0.07285117 0.3367759
vt 0.01470825 0.1757224
vt 0.01470825 0.01466899
vt 0.01470825 0.3367759
vt 0.4855581 0.1451632
vt 0.3020056 0.01466899
vt 0.3019615 0.1450736
vt 0.4856218 0.01475864
vt 0.485487 0.290565
vt 0.3019261 0.2904754
vt 0.4854643 0.3368655
vt 0.3019271 0.3367759
vt 0.5984105 0.0148137
vt 0.6563961 0.3369489
vt 0.6565536 0.01484213
vt 0.5982532 0.3369206
vt 0.7145393 0.3369774
vt 0.7146967 0.01487057
vt 0.7727609 0.1759523
vt 0.5691818 0.3369064
vt 0.569339 0.0147995
vt 0.7728396 0.01489895
vt 0.7726822 0.3370058
vt 0.9280869 0.6715814
vt 0.7445433 0.68885
vt 0.9818063 0.68885
vt 0.7982625 0.6715814
vt 0.9920797 0.7090394
vt 0.7342697 0.7090392
vt 0.3175749 0.9927409
vt 0.1877312 0.869659
vt 0.1877312 0.9927409
vt 0.3175749 0.869659
vt 0.8161922 0.36941
vt 0.6418257 0.3905487
vt 0.8672253 0.3905487
vt 0.692859 0.36941
vt 0.8883641 0.441582
vt 0.6206871 0.441582
vt 0.8672253 0.4926154
vt 0.6418257 0.4926154
vt 0.841709 0.5031848
vt 0.667342 0.5031848
vt 0.841709 0.5827193
vt 0.667342 0.5827193
vt 0.2182086 0.3367759
vt 0.3019271 0.3367759
vt 0.240227 0.2904754
vt 0.3019261 0.2904754
vt 0.240227 0.1450735
vt 0.2182086 0.01466899
vt 0.3020056 0.01466899
vt 0.3019615 0.1450736
vt 0.9547354 0.910131
vt 0.7711918 0.9938515
vt 0.9547354 0.9938517
vt 0.7711918 0.910131
vt 0.569339 0.0147995
vt 0.4856218 0.01475864
vt 0.547257 0.1451933
vt 0.4855581 0.1451632
vt 0.5691818 0.3369064
vt 0.5471858 0.2905951
vt 0.4854643 0.3368655
vt 0.485487 0.290565
vt 0.4809103 0.761135
vt 0.4301972 0.748409
vt 0.4299264 0.789108
vt 0.4536652 0.7355365
vt 0.5033807 0.7427136
vt 0.4749646 0.7170591
vt 0.3949122 0.7637688
vt 0.37347 0.7709773
vt 0.3749327 0.8079756
vt 0.3175749 0.7784342
vt 0.3175749 0.8173135
vt 0.1877312 0.7784343
vt 0.1877308 0.8173135
vt 0.1318357 0.7709773
vt 0.130373 0.8079757
vt 0.1103935 0.763769
vt 0.07537982 0.789108
vt 0.0751085 0.748409
vt 0.05164072 0.7355363
vt 0.02439519 0.761135
vt 0.03034135 0.7170591
vt 0.00192472 0.7427135
vt 0.9547354 0.910131
vt 0.7711918 0.8718376
vt 0.7711918 0.910131
vt 0.9547354 0.8718376
vt 0.981595 0.8632032
vt 0.7340586 0.8384939
vt 0.7443322 0.8632032
vt 0.9918687 0.8384939
vt 0.9547354 0.8718376
vt 0.7711918 0.8718376
vt 0.07665613 0.6059434
vt 0.3344662 0.6444253
vt 0.3344662 0.6059434
vt 0.07665613 0.6444253
vt 0.3946686 0.6059434
vt 0.3344662 0.6444253
vt 0.3946686 0.6444253
vt 0.3344662 0.6059434
vt 0.7342697 0.7090392
vt 0.9920797 0.7692416
vt 0.9920797 0.7090394
vt 0.7342696 0.7692416
vt 0.01645401 0.6444253
vt 0.07665613 0.6059434
vt 0.01645401 0.6059434
vt 0.07665613 0.6444253
vt 0.9918687 0.8384939
vt 0.7340586 0.7782913
vt 0.7340586 0.8384939
vt 0.9918687 0.7782914
vt 0.1452672 0.9873781
vt 0.01542345 0.8262939
vt 0.01542345 0.9873781
vt 0.1452672 0.8262939
vt 0.7191435 0.771194
vt 0.6879391 0.813212
vt 0.7191435 0.9322538
vt 0.635428 0.9932063
vt 0.6666323 0.8741646
vt 0.635428 0.8321466
vt 0.1877308 0.8173135
vt 0.3175749 0.869659
vt 0.3175749 0.8173135
vt 0.1877312 0.869659
vt 0.371062 0.9865532
vt 0.5164691 0.9145195
vt 0.3710615 0.9145195
vt 0.5164691 0.9865532
vt 0.986717 0.5677071
vt 0.9176524 0.4222992
vt 0.9176524 0.5677071
vt 0.986717 0.4222992
vt 0.986717 0.5677071
vt 0.9176524 0.5677071
vt 0.9316059 0.5954512
vt 0.9316059 0.5954512
vt 0.7877484 0.6330383
vt 0.8017014 0.6607826
vt 0.9176524 0.5677071
vt 0.9316059 0.3945552
vt 0.9176524 0.4222992
vt 0.986717 0.4222992
vt 0.6233464 0.8091514
vt 0.5164691 0.9145195
vt 0.5483099 0.9337022
vt 0.5915056 0.789969
vt 0.5483099 0.9337022
vt 0.5164691 0.9145195
vt 0.5164691 0.9865532
vt 0.371062 0.9865532
vt 0.3710615 0.9145195
vt 0.3392211 0.9337022
vt 0.08194577 0.3476781
vt 0.1518865 0.5930129
vt 0.1518865 0.3476781
vt 0.08194589 0.5930129
vt 0.2218271 0.5930129
vt 0.2218271 0.3476781
vt 0.2917676 0.5930129
vt 0.291768 0.3476781
vt 0.3617085 0.5930129
vt 0.3617086 0.3476781
vt 0.431649 0.5930129
vt 0.431649 0.3476781
vt 0.5015898 0.5930129
vt 0.5015898 0.3476781
vt 0.5715303 0.5930129
vt 0.5715303 0.3476781
vt 0.01200517 0.3476781
vt 0.01200517 0.5930129
vt 0.6973655 0.7520167
vt 0.5681324 0.7520167
vt 0.6327491 0.7787818
vt 0.6973655 0.6227831
vt 0.5681324 0.6227831
vt 0.5413671 0.6874
vt 0.6327491 0.5960183
vt 0.7241309 0.6874
vn -1 1.602743E-07 -1.232157E-07
vn -0.7071068 0 -0.7071068
vn -0.7071068 0 -0.7071066
vn -1 1.530301E-07 0
vn -0.3826837 0 -0.9238794
vn -0.3826836 -1.097402E-07 -0.9238794
vn -0.7071066 2.428453E-07 0.7071069
vn -0.7071068 2.437542E-07 0.7071068
vn -0.3826832 2.154757E-07 0.9238796
vn -0.3826831 2.412646E-07 0.9238797
vn -0.3826833 2.548679E-07 0.9238796
vn 0 -1.524132E-07 -1
vn 0 -1.299741E-07 -1
vn 0 -1.524146E-07 -1
vn 0 -1.299741E-07 -1
vn 0 -1.789436E-07 -1
vn 0 -1.789429E-07 -1
vn 0 -1.830349E-07 -1
vn 0 -1.83035E-07 -1
vn 0.7071066 -2.651699E-07 -0.7071069
vn 1 -1.871607E-07 1.026798E-07
vn 1 -1.823313E-07 0
vn 0.7071068 -2.418512E-07 -0.7071068
vn 0.7071066 0 0.7071069
vn 0.7071066 0 0.7071069
vn 0.382683 1.34104E-07 0.9238797
vn 0.3826835 -2.305607E-07 -0.9238795
vn 0.3826835 -2.305607E-07 -0.9238795
vn 0.3826829 1.441159E-07 0.9238797
vn 0.3826829 1.340476E-07 0.9238797
vn 2.85757E-07 1 8.889325E-07
vn 2.85757E-07 1 8.889325E-07
vn 2.85757E-07 1 8.889325E-07
vn 5.222404E-07 1 -1.624586E-06
vn 2.629823E-07 1 -1.338238E-07
vn 2.629823E-07 1 -1.338238E-07
vn -1.32421E-07 -0.2535634 0.9673188
vn -1.32421E-07 -0.2535634 0.9673188
vn -1.32421E-07 -0.2535634 0.9673188
vn 0 -0.2535635 0.9673188
vn -1.423379E-07 -1 3.493989E-07
vn -1.246057E-07 -1 3.000769E-07
vn -1.428785E-07 -1 3.697479E-07
vn -1.3056E-07 -1 4.465513E-07
vn -1.296404E-07 -1 0
vn -1.001095E-07 -1 -1.474322E-07
vn -1.079327E-07 -1 0
vn 0 -1 -2.190105E-07
vn 0 -1 9.38204E-07
vn 0 -1 1.131433E-06
vn 0 -1 1.473007E-07
vn 0 -1 0
vn -1 1.830348E-07 0
vn -1 1.830348E-07 0
vn -1 1.830348E-07 0
vn -0.9999998 -0.0005313504 0.0003988773
vn -0.9999999 0.0001889174 0.0003988766
vn -1 1.949613E-07 0
vn -0.9999999 0.0001889174 0.0003988767
vn -0.9999999 0.0001889174 0.0003988767
vn 0 1 -4.049156E-07
vn 0 1 -4.049155E-07
vn 0 1 -4.049156E-07
vn 0 1 -4.049156E-07
vn 1 -1.949612E-07 0
vn 1 -1.949612E-07 0
vn 1 -1.949612E-07 0
vn 1 -1.949612E-07 0
vn 1 -1.830349E-07 0
vn 1 -1.830349E-07 0
vn 1 -1.830349E-07 0
vn 1 -1.830349E-07 0
vn -0.645909 0.255555 -0.71937
vn -0.9463268 0.2055982 -0.2493888
vn -0.9815378 0.1911873 -0.005559443
vn -0.7131458 0.2503094 -0.6548039
vn -0.1593214 0.3723378 -0.9143201
vn -0.1485441 0.3878449 -0.9096763
vn -0.9402537 0.1209413 0.3182705
vn -0.6969362 0.1986189 0.6890795
vn -0.6275628 0.2674762 0.7311782
vn -0.1745207 0.3979449 0.9006566
vn -0.1686616 0.4183821 0.8924739
vn 0.1467645 0.4198663 0.8956409
vn 0.1498754 0.4010358 0.9037188
vn 0.6843974 0.2467649 0.6860811
vn 0.6454384 0.2242324 0.730157
vn 0.9425932 0.1769281 0.2832215
vn 0.9825214 0.1856477 -0.01366221
vn 0.946342 0.2048099 -0.2499797
vn 0.7049831 0.2372266 -0.6683729
vn 0.6297268 0.2804291 -0.7244334
vn 0.1669139 0.370026 -0.913904
vn 0.1718933 0.3863584 -0.9061897
vn 0.1718933 0.3863584 -0.9061897
vn -0.1485441 0.3878449 -0.9096763
vn -0.1593214 0.3723378 -0.9143201
vn 0.1669139 0.370026 -0.913904
vn 0 1 0
vn 0 1 0
vn 0 1 0
vn 0 1 0
vn 0 1 0
vn 0 1 0
vn 0 1 1.761857E-06
vn 0 1 1.761857E-06
vn 0 1 1.761857E-06
vn 0 1 1.761857E-06
vn -1 1.407744E-07 0
vn -1 1.407744E-07 0
vn -1 1.407744E-07 0
vn -1 1.407741E-07 0
vn 0 -1.407742E-07 1
vn 0 -1.407742E-07 1
vn 0 -1.407742E-07 1
vn 0 -1.407744E-07 1
vn 1 -1.407741E-07 0
vn 1 -1.407741E-07 0
vn 1 -1.407741E-07 0
vn 1 -1.407742E-07 0
vn 0 0 -1
vn 0 0 -1
vn 0 0 -1
vn 0 2.815483E-07 -1
vn 0 2.104795E-07 1
vn 0 2.104795E-07 1
vn 0 2.104795E-07 1
vn 0 2.104794E-07 1
vn -1 1.315497E-07 0
vn -1 1.315497E-07 0
vn -1 1.315497E-07 0
vn 1 -1.315496E-07 2.302543E-07
vn 1 -1.315496E-07 2.302543E-07
vn 1 -1.315496E-07 2.302543E-07
vn 3.113669E-07 0.5962141 0.8028254
vn 3.113669E-07 0.5962141 0.8028254
vn 3.11367E-07 0.5962141 0.8028255
vn 1.556836E-07 0.5962145 0.8028251
vn 0.8565624 -1.900792E-07 -0.5160433
vn 0.8565624 -1.900792E-07 -0.5160434
vn 0.8565624 -1.900792E-07 -0.5160433
vn 0.8565624 -1.900793E-07 -0.5160434
vn -0.8933808 0 -0.4493002
vn -0.8933808 0 -0.4493002
vn -0.8933808 0 -0.4493002
vn -0.8933808 0 -0.4493002
vn -5.457933E-07 -1 8.243436E-07
vn -5.457934E-07 -1 8.243436E-07
vn -5.457934E-07 -1 8.243436E-07
vn -2.728966E-07 1.748522E-07 1
vn -2.728966E-07 1.748523E-07 1
vn -2.728966E-07 1.748522E-07 1
vn -2.728965E-07 1.748523E-07 1
vn 0 1 -1.098835E-06
vn 0 1 -1.098835E-06
vn 0 1 -1.098835E-06
vn 0 1.748522E-07 1
vn 0 1.748522E-07 1
vn 0 1.748522E-07 1
vn 0 1.748522E-07 1
vn -4.559793E-07 -1 2.747086E-07
vn -4.559793E-07 -1 2.747086E-07
vn -4.559793E-07 -1 2.747086E-07
vn 0 1 -1.098834E-06
vn 0 1 -1.098834E-06
vn 0 1 -1.098834E-06
vn -1 1.645762E-07 0
vn -0.7071068 0 -0.7071068
vn -0.7071068 0 -0.7071068
vn -1 1.549215E-07 0
vn 0 -2.041872E-07 -1
vn 0 -2.1349E-07 -1
vn 0.7071066 -2.922455E-07 -0.7071069
vn 0.7071068 -2.443951E-07 -0.7071068
vn 1 -1.452667E-07 0
vn 1 -1.549215E-07 1.206487E-07
vn 0.7071066 0 0.7071069
vn 0.7071066 0 0.7071069
vn 0 2.274958E-07 1
vn 0 2.367987E-07 1
vn -0.7071068 3.09975E-07 0.7071068
vn -0.7071066 2.757785E-07 0.7071069
vn -0.7071066 2.757785E-07 0.7071069
vn -0.7071068 3.09975E-07 0.7071068
vn -3.241423E-07 -1 3.241422E-07
vn -1.311571E-07 -1 4.552993E-07
vn -2.623142E-07 -1 6.332825E-07
vn -1.929852E-07 -1 3.060332E-07
vn 0 -1 4.371903E-07
vn 0 -1 5.246283E-07
vn 0 -1 0
vn -6.332829E-07 -1 2.623142E-07
g tactical_all_steiner_las_tac_2_LOD1_0
f 3/3/3 2/2/2 1/1/1
f 4/4/4 1/1/1 2/2/2
f 3/3/3 5/5/5 2/2/2
f 6/6/6 2/2/2 5/5/5
f 1/1/1 4/4/4 7/7/7
f 8/8/8 7/7/7 4/4/4
f 8/8/8 9/9/9 7/7/7
f 7/7/7 9/9/9 10/10/10
f 11/11/11 9/9/9 8/8/8
f 14/14/14 13/13/13 12/12/12
f 15/15/15 12/12/12 13/13/13
f 12/12/12 16/16/16 14/14/14
f 17/17/17 14/14/14 16/16/16
f 16/16/16 18/18/18 17/17/17
f 19/19/19 17/17/17 18/18/18
f 22/22/22 21/21/21 20/20/20
f 23/23/23 20/20/20 21/21/21
f 21/21/21 22/22/22 24/24/24
f 25/25/25 24/24/24 22/22/22
f 26/26/26 24/24/24 25/25/25
f 23/23/23 27/27/27 20/20/20
f 28/28/28 20/20/20 27/27/27
f 29/29/29 26/26/26 25/25/25
f 30/30/30 24/24/24 26/26/26
f 33/33/33 32/32/32 31/31/31
f 34/34/34 31/31/31 32/32/32
f 33/33/33 35/35/35 32/32/32
f 36/36/36 32/32/32 35/35/35
f 39/39/39 38/38/38 37/37/37
f 40/40/40 37/37/37 38/38/38
f 43/43/43 42/42/42 41/41/41
f 44/44/44 41/41/41 42/42/42
f 43/43/43 45/45/45 42/42/42
f 46/46/46 42/42/42 45/45/45
f 45/45/45 47/47/47 46/46/46
f 48/48/48 46/46/46 47/47/47
f 47/47/47 49/49/49 48/48/48
f 50/50/50 48/48/48 49/49/49
f 49/49/49 51/51/51 50/50/50
f 52/52/52 50/50/50 51/51/51
f 55/55/55 54/54/54 53/53/53
f 54/54/54 55/55/55 56/56/56
f 55/55/55 53/53/53 57/57/57
f 58/58/58 57/57/57 53/53/53
f 59/59/59 57/57/57 58/58/58
f 60/60/60 57/57/57 59/59/59
f 63/63/63 62/62/62 61/61/61
f 64/64/64 61/61/61 62/62/62
f 67/67/67 66/66/66 65/65/65
f 66/66/66 67/67/67 68/68/68
f 65/65/65 69/69/69 67/67/67
f 70/70/70 67/67/67 69/69/69
f 71/71/71 70/70/70 69/69/69
f 72/72/72 70/70/70 71/71/71
f 75/75/75 74/74/74 73/73/73
f 76/76/76 73/73/73 74/74/74
f 73/73/73 76/76/76 77/77/77
f 78/78/78 77/77/77 76/76/76
f 79/79/79 74/74/74 75/75/75
f 79/79/79 75/75/75 80/80/80
f 81/81/81 80/80/80 75/75/75
f 80/80/80 81/81/81 82/82/82
f 83/83/83 82/82/82 81/81/81
f 82/82/82 83/83/83 84/84/84
f 85/85/85 84/84/84 83/83/83
f 84/84/84 85/85/85 86/86/86
f 87/87/87 86/86/86 85/85/85
f 86/86/86 87/87/87 88/88/88
f 89/89/89 88/88/88 87/87/87
f 90/90/90 88/88/88 89/89/89
f 90/90/90 89/89/89 91/91/91
f 92/92/92 91/91/91 89/89/89
f 91/91/91 92/92/92 93/93/93
f 94/94/94 93/93/93 92/92/92
f 97/97/97 96/96/96 95/95/95
f 98/98/98 95/95/95 96/96/96
f 101/101/101 100/100/100 99/99/99
f 102/102/102 99/99/99 100/100/100
f 99/99/99 103/103/103 101/101/101
f 104/104/104 101/101/101 103/103/103
f 107/107/107 106/106/106 105/105/105
f 108/108/108 105/105/105 106/106/106
f 111/111/111 110/110/110 109/109/109
f 112/112/112 109/109/109 110/110/110
f 115/115/115 114/114/114 113/113/113
f 116/116/116 113/113/113 114/114/114
f 119/119/119 118/118/118 117/117/117
f 120/120/120 117/117/117 118/118/118
f 123/123/123 122/122/122 121/121/121
f 124/124/124 121/121/121 122/122/122
f 127/127/127 126/126/126 125/125/125
f 128/128/128 125/125/125 126/126/126
f 131/131/131 130/130/130 129/129/129
f 134/134/134 133/133/133 132/132/132
f 137/137/137 136/136/136 135/135/135
f 138/138/138 135/135/135 136/136/136
f 141/141/141 140/140/140 139/139/139
f 142/142/142 139/139/139 140/140/140
f 145/145/145 144/144/144 143/143/143
f 146/146/146 143/143/143 144/144/144
f 149/149/149 148/148/148 147/147/147
f 152/152/152 151/151/151 150/150/150
f 153/153/153 150/150/150 151/151/151
f 156/156/156 155/155/155 154/154/154
f 159/159/159 158/158/158 157/157/157
f 160/160/160 157/157/157 158/158/158
f 163/163/163 162/162/162 161/161/161
f 166/166/166 165/165/165 164/164/164
f 169/169/169 168/168/168 167/167/167
f 170/170/170 167/167/167 168/168/168
f 168/168/168 169/169/169 171/171/171
f 172/172/172 171/171/171 169/169/169
f 171/171/171 172/172/172 173/173/173
f 174/174/174 173/173/173 172/172/172
f 173/173/173 174/174/174 175/175/175
f 176/176/176 175/175/175 174/174/174
f 175/175/175 176/176/176 177/177/177
f 178/178/178 177/177/177 176/176/176
f 177/177/177 178/178/178 179/179/179
f 180/180/180 179/179/179 178/178/178
f 179/179/179 180/180/180 181/181/181
f 182/182/182 181/181/181 180/180/180
f 167/167/167 170/170/170 183/183/183
f 184/184/184 183/183/183 170/170/170
f 187/187/187 186/186/186 185/185/185
f 186/186/186 188/188/188 185/185/185
f 189/189/189 188/188/188 186/186/186
f 190/190/190 189/189/189 186/186/186
f 191/191/191 188/188/188 189/189/189
f 185/185/185 188/188/188 192/192/192
