g tactical_pso_belomo_eyecup_LOD1
v 0.01884322 0.04412897 -0.01846601
v 0.02646402 0.04381098 -6.783114E-05
v 0.01660022 0.04457102 -0.00814791
v 0.01024392 0.04493998 0.01754406
v -0.008367771 0.044667 -0.01412261
v -0.01474143 0.04552699 0.01220632
v 0.01884322 0.04390597 0.01833035
v 0.0004450686 0.04505701 0.02595109
v -0.01795308 0.045161 0.01833034
v -0.02557388 0.04434099 -6.783114E-05
v -0.01795308 0.04333903 -0.01846601
v 0.0004450782 0.04426203 -0.02608681
v -0.01795308 0.045161 0.01833034
v 0.0004450686 0.04505701 0.02595109
v -0.01795308 0.04312403 0.01833034
v 0.0004450686 0.04301997 0.02595109
v -0.02557388 0.04434099 -6.783114E-05
v -0.02557388 0.04230402 -6.783114E-05
v -0.01795308 0.04333903 -0.01846601
v -0.01795308 0.04130198 -0.01846601
v 0.0004450782 0.04222498 -0.02608681
v 0.0004450782 0.04426203 -0.02608681
v 0.01884322 0.04412897 -0.01846601
v 0.01884322 0.042092 -0.01846601
v 0.02646402 0.04381098 -6.783114E-05
v 0.02646402 0.04177401 -6.783114E-05
v 0.01884322 0.041869 0.01833035
v 0.01884322 0.04390597 0.01833035
v 0.0004450686 0.04301997 0.02595109
v 0.0004450686 0.04505701 0.02595109
v 0.01884322 0.041869 0.01833035
v 0.01379342 0.04384699 0.01398355
v 0.0004450686 0.04301997 0.02595109
v -0.0002579515 0.04472597 0.01980379
v 0.02646402 0.04177401 -6.783114E-05
v 0.01961372 0.04349902 -6.783114E-05
v 0.01884322 0.042092 -0.01846601
v 0.01379342 0.04374102 -0.01411921
v 0.0004450782 0.04222498 -0.02608681
v -0.0002579515 0.04366999 -0.01993951
v -0.01430932 0.04331797 -0.01411921
v -0.01795308 0.04130198 -0.01846601
v -0.02012958 0.04439799 -6.783114E-05
v -0.02557388 0.04230402 -6.783114E-05
v -0.01795308 0.04312403 0.01833034
v -0.01430933 0.04432803 0.01398354
v -0.0002579515 0.04472597 0.01980379
v 0.0004450686 0.04301997 0.02595109
v 0.02102891 -0.02065198 -6.783114E-05
v 0.01961372 0.04349902 -6.783114E-05
v 0.01479411 -0.02065198 -0.01511991
v 0.01379342 0.04374102 -0.01411921
v -0.0002579515 0.04366999 -0.01993951
v -0.000257961 -0.02065198 -0.02135471
v -0.01430932 0.04331797 -0.01411921
v -0.01531004 -0.02065198 -0.01511991
v -0.02154479 -0.02065198 -6.783114E-05
v -0.02012958 0.04439799 -6.783114E-05
v -0.01430933 0.04432803 0.01398354
v -0.01531004 -0.02065198 0.01498425
v -0.000257961 -0.02065198 0.02121899
v -0.0002579515 0.04472597 0.01980379
v 0.01479411 -0.02065198 0.01498426
v 0.01379342 0.04384699 0.01398355
v -0.000257961 -0.02065198 0.02121899
v -0.0002579515 0.04472597 0.01980379
v 0.01479411 -0.02065198 0.01498426
v 0.02102891 -0.02065198 -6.783114E-05
v -0.000257961 -0.02065198 0.02121899
v 0.01479411 -0.02065198 -0.01511991
v -0.01531004 -0.02065198 0.01498425
v -0.000257961 -0.02065198 -0.02135471
v -0.02154479 -0.02065198 -6.783114E-05
v -0.01531004 -0.02065198 -0.01511991
vt 0.836003 0.809923
vt 0.880205 0.644331
vt 0.822993 0.717056
vt 0.786125 0.485815
vt 0.678172 0.770831
vt 0.641203 0.533858
vt 0.836003 0.478738
vt 0.729289 0.410148
vt 0.622575 0.478738
vt 0.578373 0.644331
vt 0.622575 0.809923
vt 0.729289 0.878514
vt 0.171105 0.924723
vt 0.0623646 0.924723
vt 0.171105 0.941973
vt 0.0623646 0.941973
vt 0.279907 0.924723
vt 0.279907 0.941973
vt 0.388959 0.924723
vt 0.388959 0.941973
vt 0.497806 0.941973
vt 0.497806 0.924723
vt 0.606521 0.924723
vt 0.606521 0.941973
vt 0.715256 0.924723
vt 0.715256 0.941973
vt 0.82399 0.941973
vt 0.82399 0.924723
vt 0.933015 0.941973
vt 0.933015 0.924723
vt 0.908247 0.160788
vt 0.945 0.160788
vt 0.908247 0.0580269
vt 0.945 0.0580269
vt 0.908247 0.263275
vt 0.945 0.263275
vt 0.908247 0.365762
vt 0.945 0.365762
vt 0.908247 0.468231
vt 0.945 0.468231
vt 0.945 0.570824
vt 0.908247 0.570824
vt 0.945 0.67361
vt 0.908247 0.67361
vt 0.908247 0.776161
vt 0.945 0.776161
vt 0.945 0.878654
vt 0.908247 0.878654
vt 0.549792 0.282837
vt 0.055 0.282837
vt 0.549792 0.385073
vt 0.055 0.385073
vt 0.055 0.487299
vt 0.549792 0.487299
vt 0.055 0.589547
vt 0.549792 0.589547
vt 0.549792 0.691987
vt 0.055 0.691987
vt 0.055 0.794212
vt 0.549792 0.794212
vt 0.549792 0.896467
vt 0.055 0.896467
vt 0.549792 0.18059
vt 0.055 0.18059
vt 0.549792 0.0782224
vt 0.055 0.0782224
vt 0.63246 0.327168
vt 0.58952 0.218844
vt 0.736124 0.372038
vt 0.63246 0.110521
vt 0.839789 0.327168
vt 0.736124 0.0656514
vt 0.882728 0.218844
vt 0.839789 0.110521
vn 0.04147933 0.9985687 -0.0337636
vn 0.08436227 0.9964258 0.004296438
vn 0.05016995 0.9985811 -0.01785403
vn 0.07106159 0.9964468 0.04521157
vn -0.04231814 0.9973232 -0.05963017
vn -0.03712783 0.9993098 -0.001235413
vn 0.1140372 0.9918321 0.05713725
vn 0.02768794 0.9991499 0.03054123
vn -0.05108488 0.9981535 0.03286071
vn -0.07237954 0.9961461 -0.04953985
vn -0.09379662 0.9909539 -0.09598237
vn -0.01105884 0.9988849 -0.04589918
vn -0.7036976 8.23647E-07 0.7104995
vn -0.008442005 0 0.9999644
vn -0.7103996 8.159817E-07 0.7037985
vn 0.008163907 0 0.9999667
vn -0.9999269 1.17037E-06 0.01208877
vn -0.9999278 1.132406E-06 -0.01201919
vn -0.7074646 0 -0.7067488
vn -0.706726 0 -0.7074874
vn -0.005139516 0 -0.9999868
vn 0.005315613 0 -0.9999859
vn 0.7049862 0 -0.709221
vn 0.7092089 0 -0.7049984
vn 0.9999989 0 -0.001466709
vn 0.9999989 0 0.001486159
vn 0.713008 0 0.7011558
vn 0.7013521 0 0.712815
vn 0.008163907 0 0.9999667
vn -0.008442005 0 0.9999644
vn -0.2251292 -0.9585487 -0.1746454
vn -0.2155221 -0.9599181 -0.1791856
vn -0.03992711 -0.9639801 -0.2629605
vn -0.01886722 -0.9660246 -0.2577607
vn -0.2496123 -0.9683446 -0.001553704
vn -0.244176 -0.9697243 0.003566409
vn -0.1803879 -0.9707053 0.1587177
vn -0.1715604 -0.9713171 0.1646513
vn 0.01265365 -0.9705552 0.2405458
vn 0.0248947 -0.9725275 0.231453
vn 0.2294669 -0.9438845 0.2375436
vn 0.2339016 -0.9400389 0.2482279
vn 0.343334 -0.9381462 0.04475979
vn 0.3585768 -0.932299 0.04734252
vn 0.173741 -0.9722836 -0.1564565
vn 0.1602413 -0.9776004 -0.1364559
vn -0.01886722 -0.9660246 -0.2577607
vn -0.03992711 -0.9639801 -0.2629605
vn 0.9997568 0.02205494 0
vn 0.9997584 0.02196378 0.0008417608
vn 0.7069473 0.02201771 -0.7069234
vn 0.7059668 0.02197217 -0.707904
vn 0.003394129 0.02198535 -0.9997526
vn -3.459525E-05 0.02204802 -0.9997569
vn -0.7109282 0.02189426 -0.7029238
vn -0.7069349 0.02211774 -0.7069327
vn -0.9997599 0.02191684 -9.847686E-05
vn -0.9997293 0.02174985 0.008255129
vn -0.7050887 0.02170294 0.708787
vn -0.7069389 0.02177412 0.7069393
vn 4.621669E-05 0.02182362 0.9997619
vn -0.003945897 0.02164121 0.9997581
vn 0.7069585 0.02198677 0.7069131
vn 0.7000296 0.02179782 0.7137811
vn 4.621669E-05 0.02182362 0.9997619
vn -0.003945897 0.02164121 0.9997581
vn 0 -1 0
vn 0 -1 0
vn 0 -1 0
vn 0 -1 0
vn 0 -1 0
vn 0 -1 0
vn 0 -1 0
vn 0 -1 0
g tactical_pso_belomo_eyecup_LOD1_0
f 3/3/3 2/2/2 1/1/1
f 4/4/4 2/2/2 3/3/3
f 5/5/5 4/4/4 3/3/3
f 4/4/4 5/5/5 6/6/6
f 2/2/2 4/4/4 7/7/7
f 4/4/4 8/8/8 7/7/7
f 6/6/6 8/8/8 4/4/4
f 8/8/8 6/6/6 9/9/9
f 10/10/10 6/6/6 5/5/5
f 6/6/6 10/10/10 9/9/9
f 5/5/5 11/11/11 10/10/10
f 5/5/5 12/12/12 11/11/11
f 3/3/3 12/12/12 5/5/5
f 12/12/12 3/3/3 1/1/1
f 15/15/15 14/14/14 13/13/13
f 14/14/14 15/15/15 16/16/16
f 17/17/17 15/15/15 13/13/13
f 15/15/15 17/17/17 18/18/18
f 19/19/19 18/18/18 17/17/17
f 18/18/18 19/19/19 20/20/20
f 19/19/19 21/21/21 20/20/20
f 21/21/21 19/19/19 22/22/22
f 23/23/23 21/21/21 22/22/22
f 21/21/21 23/23/23 24/24/24
f 25/25/25 24/24/24 23/23/23
f 24/24/24 25/25/25 26/26/26
f 25/25/25 27/27/27 26/26/26
f 27/27/27 25/25/25 28/28/28
f 28/28/28 29/29/29 27/27/27
f 29/29/29 28/28/28 30/30/30
f 33/33/33 32/32/32 31/31/31
f 32/32/32 33/33/33 34/34/34
f 32/32/32 35/35/35 31/31/31
f 35/35/35 32/32/32 36/36/36
f 36/36/36 37/37/37 35/35/35
f 37/37/37 36/36/36 38/38/38
f 38/38/38 39/39/39 37/37/37
f 39/39/39 38/38/38 40/40/40
f 41/41/41 39/39/39 40/40/40
f 39/39/39 41/41/41 42/42/42
f 43/43/43 42/42/42 41/41/41
f 42/42/42 43/43/43 44/44/44
f 43/43/43 45/45/45 44/44/44
f 45/45/45 43/43/43 46/46/46
f 47/47/47 45/45/45 46/46/46
f 45/45/45 47/47/47 48/48/48
f 51/51/51 50/50/50 49/49/49
f 50/50/50 51/51/51 52/52/52
f 51/51/51 53/53/53 52/52/52
f 53/53/53 51/51/51 54/54/54
f 54/54/54 55/55/55 53/53/53
f 55/55/55 54/54/54 56/56/56
f 57/57/57 55/55/55 56/56/56
f 55/55/55 57/57/57 58/58/58
f 57/57/57 59/59/59 58/58/58
f 59/59/59 57/57/57 60/60/60
f 61/61/61 59/59/59 60/60/60
f 59/59/59 61/61/61 62/62/62
f 50/50/50 63/63/63 49/49/49
f 63/63/63 50/50/50 64/64/64
f 64/64/64 65/65/65 63/63/63
f 65/65/65 64/64/64 66/66/66
f 69/69/69 68/68/68 67/67/67
f 68/68/68 69/69/69 70/70/70
f 71/71/71 70/70/70 69/69/69
f 70/70/70 71/71/71 72/72/72
f 73/73/73 72/72/72 71/71/71
f 72/72/72 73/73/73 74/74/74
