g tactical_sv98_izhmash_silencer_heat_shield_std_LOD1
v -0.0118593 0.166917 0.007196548
v -0.02023673 0.163447 0.007196546
v -0.02370678 0.1550695 0.007196542
v -9.457041E-06 0.166917 0.007196549
v -9.43408E-06 0.01485012 0.007196476
v -0.02370675 0.01485012 0.007196475
v 0.02191614 0.1559357 0.01693509
v 0.02368787 0.1550695 0.007196544
v 0.02368789 0.01485012 0.007196478
v 0.02191616 0.01485012 0.01693503
v 0.01281582 0.01485012 0.0234428
v 0.0128158 0.1559403 0.02344287
v 0.01898925 0.1626532 0.0169351
v 0.02021782 0.163447 0.007196548
v 0.01192312 0.1654356 0.0169351
v 0.01184039 0.166917 0.00719655
v 0.009781358 0.1597848 0.02344287
v -9.457364E-06 0.1654356 0.0169351
v -9.456877E-06 0.1597848 0.02344287
v -9.457041E-06 0.166917 0.007196549
v -9.456877E-06 0.1597848 0.02344287
v -0.009800272 0.1597848 0.02344287
v -0.01194203 0.1654356 0.0169351
v -9.457364E-06 0.1654356 0.0169351
v -9.457041E-06 0.166917 0.007196549
v -0.0118593 0.166917 0.007196548
v -0.01900817 0.1626532 0.0169351
v -0.01283472 0.1559403 0.02344287
v -0.02023673 0.163447 0.007196546
v -0.02193505 0.1559357 0.01693509
v -0.02193503 0.01485011 0.01693502
v -0.0128347 0.01485011 0.0234428
v -0.02370675 0.01485012 0.007196475
v -0.02370678 0.1550695 0.007196542
v -9.411259E-06 -0.1362835 0.007196404
v -0.01185926 -0.1362835 0.007196404
v -0.01194199 -0.1332421 0.01693496
v -9.412266E-06 -0.1332421 0.01693496
v -0.009800228 -0.1259321 0.02344274
v -9.413735E-06 -0.1259321 0.02344274
v -0.02023669 -0.1328134 0.007196405
v -0.01900812 -0.1304596 0.01693496
v -0.01283467 -0.1220876 0.02344274
v -0.02193501 -0.1237421 0.01693496
v -0.02370673 -0.124436 0.007196409
v -0.02370675 0.01485012 0.007196475
v -0.02193503 0.01485011 0.01693502
v -0.0128347 0.01485011 0.0234428
v -9.456877E-06 0.1597848 0.02344287
v 0.009781358 0.1597848 0.02344287
v 0.0128158 0.1559403 0.02344287
v -0.01283472 0.1559403 0.02344287
v 0.01281582 0.01485012 0.0234428
v -0.0128347 0.01485011 0.0234428
v -0.009800272 0.1597848 0.02344287
v 0.02191618 -0.1237421 0.01693496
v 0.02368791 -0.124436 0.007196411
v 0.02021786 -0.1328134 0.007196407
v 0.01898929 -0.1304596 0.01693496
v 0.01281584 -0.1220876 0.02344274
v 0.009781402 -0.1259321 0.02344274
v 0.01192316 -0.1332421 0.01693496
v 0.01184043 -0.1362835 0.007196405
v -9.411259E-06 -0.1362835 0.007196404
v -9.412266E-06 -0.1332421 0.01693496
v -9.413735E-06 -0.1259321 0.02344274
v 0.02191616 0.01485012 0.01693503
v 0.01281582 0.01485012 0.0234428
v 0.02368789 0.01485012 0.007196478
v -9.413735E-06 -0.1259321 0.02344274
v -0.009800228 -0.1259321 0.02344274
v -0.01283467 -0.1220876 0.02344274
v 0.01281584 -0.1220876 0.02344274
v 0.009781402 -0.1259321 0.02344274
v 0.01281582 0.01485012 0.0234428
v -0.0128347 0.01485011 0.0234428
v -9.411259E-06 -0.1362835 0.007196404
v 0.01184043 -0.1362835 0.007196405
v 0.02368791 -0.124436 0.007196411
v 0.02021786 -0.1328134 0.007196407
v -9.43408E-06 0.01485012 0.007196476
v 0.02368789 0.01485012 0.007196478
v -0.02370673 -0.124436 0.007196409
v -0.02023669 -0.1328134 0.007196405
v -0.01185926 -0.1362835 0.007196404
v -9.411259E-06 -0.1362835 0.007196404
v -9.43408E-06 0.01485012 0.007196476
v -0.02370675 0.01485012 0.007196475
v 0.02368787 0.1550695 0.007196544
v 0.02021782 0.163447 0.007196548
v 0.01184039 0.166917 0.00719655
v -9.457041E-06 0.166917 0.007196549
v 0.02368789 0.01485012 0.007196478
v -9.43408E-06 0.01485012 0.007196476
vt 0.9853089 0.252399
vt 0.9628514 0.195333
vt 0.9086151 0.1716868
vt 0.9853117 0.3331123
vt 0.003786892 0.3331123
vt 0.003786411 0.1716868
vt 0.8378968 0.7865177
vt 0.8317098 0.8539082
vt 0.003510714 0.8539082
vt 0.003510892 0.7865171
vt 0.003511012 0.7184777
vt 0.855369 0.7184777
vt 0.8765665 0.7865164
vt 0.8782421 0.8539071
vt 0.9165778 0.7865164
vt 0.9256278 0.8539082
vt 0.9089127 0.7184777
vt 0.9862088 0.7865164
vt 0.9762644 0.7184777
vt 0.9933996 0.8539071
vt 0.9762644 0.7184777
vt 0.9089147 0.7184777
vt 0.9165787 0.7865177
vt 0.9862116 0.7865177
vt 0.9933983 0.853906
vt 0.9256257 0.853906
vt 0.8765683 0.7865177
vt 0.8553712 0.7184777
vt 0.87824 0.853906
vt 0.8378946 0.7865177
vt 0.003509343 0.7865177
vt 0.003509521 0.7184777
vt 0.003509164 0.853906
vt 0.8317087 0.853906
vt 0.9923636 0.9955704
vt 0.9258382 0.9955704
vt 0.9131863 0.9281821
vt 0.9826167 0.9281821
vt 0.9001755 0.8601422
vt 0.9688909 0.8601422
vt 0.8809985 0.9955704
vt 0.8732963 0.9281821
vt 0.8440175 0.8601422
vt 0.8345735 0.9281821
vt 0.8364125 0.9955704
vt 0.003501773 0.9955703
vt 0.003501534 0.928182
vt 0.003501415 0.8601421
vt 0.005303649 0.4317462
vt 0.005303649 0.5015966
vt 0.03137462 0.5232438
vt 0.03137462 0.3402448
vt 0.9740545 0.5232438
vt 0.9740518 0.3402448
vt 0.005303649 0.3618958
vt 0.8345787 0.9281788
vt 0.8364167 0.9955704
vt 0.8810015 0.9955704
vt 0.8733044 0.9281788
vt 0.8440216 0.86014
vt 0.9001786 0.86014
vt 0.9131852 0.9281788
vt 0.9258412 0.9955693
vt 0.9923636 0.9955704
vt 0.9826168 0.9281788
vt 0.9688931 0.86014
vt 0.003509164 0.9281794
vt 0.003508985 0.86014
vt 0.003509402 0.9955704
vt 0.9727759 0.6200255
vt 0.9727736 0.5501765
vt 0.9467025 0.5285292
vt 0.9467082 0.7115278
vt 0.9727793 0.689877
vt 0.004028365 0.7115278
vt 0.004025543 0.5285292
vt 0.005278056 0.1658419
vt 0.005272732 0.08513081
vt 0.08196944 0.004417419
vt 0.02773215 0.02806234
vt 0.9868045 0.1658419
vt 0.9868018 0.004417419
vt 0.08197534 0.004416406
vt 0.02774132 0.02806246
vt 0.005282931 0.08513081
vt 0.005279595 0.165842
vt 0.9868045 0.165842
vt 0.9868039 0.004416406
vt 0.9086168 0.171688
vt 0.962854 0.1953297
vt 0.985319 0.2523945
vt 0.9853133 0.3331124
vt 0.003784238 0.171688
vt 0.003786892 0.3331124
vn 0 4.967931E-07 -1
vn 0 4.588941E-07 -1
vn 0 4.776073E-07 -1
vn 0 4.848341E-07 -1
vn 0 4.766669E-07 -1
vn 0 4.766668E-07 -1
vn 0.8460373 0.1767738 0.5029631
vn 0.9695832 0.1819203 0.1637483
vn 0.9838508 0 0.1789909
vn 0.8445994 -1.238995E-07 0.5353988
vn 0.3054383 -4.030154E-07 0.9522119
vn 0.3153084 0.1666988 0.9342334
vn 0.6340172 0.6176057 0.4653873
vn 0.6993107 0.699944 0.1450619
vn 0.2082026 0.8720462 0.4429302
vn 0.1849663 0.9723351 0.1426604
vn 0.1266135 0.4422075 0.887931
vn -1.09372E-07 0.907713 0.4195915
vn -1.093427E-07 0.4149441 0.909847
vn 0 0.9886275 0.1503852
vn -1.093427E-07 0.4149441 0.909847
vn -0.1266136 0.4422072 0.8879312
vn -0.2082027 0.8720461 0.4429303
vn -1.09372E-07 0.907713 0.4195915
vn 0 0.9886275 0.1503852
vn -0.1849663 0.9723351 0.1426603
vn -0.6340174 0.6176054 0.4653873
vn -0.3153085 0.1666986 0.9342334
vn -0.699311 0.6999437 0.1450618
vn -0.8460375 0.1767733 0.502963
vn -0.8445994 -3.822072E-07 0.5353987
vn -0.3054385 -4.958115E-07 0.9522118
vn -0.9838508 -2.358387E-07 0.1789909
vn -0.9695833 0.1819198 0.1637482
vn 1.658153E-07 -0.9545335 0.2981037
vn -0.1759803 -0.9410462 0.2888997
vn -0.1923099 -0.8128908 0.5497504
vn 2.169437E-07 -0.8402516 0.5421967
vn -0.1159416 -0.3855874 0.9153578
vn 1.349866E-07 -0.3557366 0.9345863
vn -0.6665987 -0.7008936 0.25376
vn -0.6135044 -0.5815359 0.5342551
vn -0.3057594 -0.1402764 0.9417185
vn -0.8354897 -0.1680259 0.5231866
vn -0.9607983 -0.1991807 0.1928567
vn -0.9838508 -2.358387E-07 0.1789909
vn -0.8445994 -3.822072E-07 0.5353987
vn -0.3054385 -4.958115E-07 0.9522118
vn -1.093427E-07 0.4149441 0.909847
vn 0.1266135 0.4422075 0.887931
vn 0.3153084 0.1666988 0.9342334
vn -0.3153085 0.1666986 0.9342334
vn 0.3054383 -4.030154E-07 0.9522119
vn -0.3054385 -4.958115E-07 0.9522118
vn -0.1266136 0.4422072 0.8879312
vn 0.8354896 -0.1680257 0.5231867
vn 0.9607983 -0.1991805 0.1928569
vn 0.6665986 -0.7008935 0.2537606
vn 0.6135043 -0.5815356 0.5342554
vn 0.3057593 -0.1402762 0.9417185
vn 0.1159418 -0.3855872 0.9153579
vn 0.1923101 -0.8128904 0.5497507
vn 0.1759805 -0.941046 0.2889003
vn 1.658153E-07 -0.9545335 0.2981037
vn 2.169437E-07 -0.8402516 0.5421967
vn 1.349866E-07 -0.3557366 0.9345863
vn 0.8445994 -1.238995E-07 0.5353988
vn 0.3054383 -4.030154E-07 0.9522119
vn 0.9838508 0 0.1789909
vn 1.349866E-07 -0.3557366 0.9345863
vn -0.1159416 -0.3855874 0.9153578
vn -0.3057594 -0.1402764 0.9417185
vn 0.3057593 -0.1402762 0.9417185
vn 0.1159418 -0.3855872 0.9153579
vn 0.3054383 -4.030154E-07 0.9522119
vn -0.3054385 -4.958115E-07 0.9522118
vn 0 4.841028E-07 -1
vn 0 4.967939E-07 -1
vn 0 4.768395E-07 -1
vn 0 4.588945E-07 -1
vn 0 4.766669E-07 -1
vn 0 4.766669E-07 -1
vn 0 4.870014E-07 -1
vn 0 5.300444E-07 -1
vn 0 5.069411E-07 -1
vn 0 4.841028E-07 -1
vn 0 4.766669E-07 -1
vn 0 4.766668E-07 -1
vn 0 4.877694E-07 -1
vn 0 5.30044E-07 -1
vn 0 5.069405E-07 -1
vn 0 4.848341E-07 -1
vn 0 4.766669E-07 -1
vn 0 4.766669E-07 -1
g tactical_sv98_izhmash_silencer_heat_shield_std_LOD1_0
f 3/3/3 2/2/2 1/1/1
f 3/3/3 1/1/1 4/4/4
f 3/3/3 4/4/4 5/5/5
f 6/6/6 3/3/3 5/5/5
f 9/9/9 8/8/8 7/7/7
f 10/10/10 9/9/9 7/7/7
f 11/11/11 10/10/10 7/7/7
f 12/12/12 11/11/11 7/7/7
f 7/7/7 13/13/13 12/12/12
f 7/7/7 8/8/8 13/13/13
f 8/8/8 14/14/14 13/13/13
f 13/13/13 14/14/14 15/15/15
f 12/12/12 13/13/13 15/15/15
f 14/14/14 16/16/16 15/15/15
f 17/17/17 12/12/12 15/15/15
f 15/15/15 18/18/18 17/17/17
f 18/18/18 19/19/19 17/17/17
f 15/15/15 16/16/16 20/20/20
f 18/18/18 15/15/15 20/20/20
f 23/23/23 22/22/22 21/21/21
f 24/24/24 23/23/23 21/21/21
f 24/24/24 25/25/25 23/23/23
f 25/25/25 26/26/26 23/23/23
f 23/23/23 27/27/27 22/22/22
f 23/23/23 26/26/26 27/27/27
f 27/27/27 28/28/28 22/22/22
f 26/26/26 29/29/29 27/27/27
f 27/27/27 29/29/29 30/30/30
f 28/28/28 27/27/27 30/30/30
f 30/30/30 31/31/31 28/28/28
f 31/31/31 32/32/32 28/28/28
f 31/31/31 30/30/30 33/33/33
f 30/30/30 34/34/34 33/33/33
f 29/29/29 34/34/34 30/30/30
f 37/37/37 36/36/36 35/35/35
f 38/38/38 37/37/37 35/35/35
f 39/39/39 37/37/37 38/38/38
f 40/40/40 39/39/39 38/38/38
f 41/41/41 36/36/36 37/37/37
f 42/42/42 41/41/41 37/37/37
f 43/43/43 42/42/42 37/37/37
f 39/39/39 43/43/43 37/37/37
f 44/44/44 42/42/42 43/43/43
f 45/45/45 41/41/41 42/42/42
f 44/44/44 45/45/45 42/42/42
f 46/46/46 45/45/45 44/44/44
f 47/47/47 46/46/46 44/44/44
f 44/44/44 43/43/43 48/48/48
f 47/47/47 44/44/44 48/48/48
f 51/51/51 50/50/50 49/49/49
f 52/52/52 51/51/51 49/49/49
f 53/53/53 51/51/51 52/52/52
f 54/54/54 53/53/53 52/52/52
f 55/55/55 52/52/52 49/49/49
f 58/58/58 57/57/57 56/56/56
f 59/59/59 58/58/58 56/56/56
f 60/60/60 59/59/59 56/56/56
f 59/59/59 60/60/60 61/61/61
f 62/62/62 59/59/59 61/61/61
f 63/63/63 58/58/58 59/59/59
f 62/62/62 63/63/63 59/59/59
f 64/64/64 63/63/63 62/62/62
f 65/65/65 64/64/64 62/62/62
f 66/66/66 65/65/65 62/62/62
f 61/61/61 66/66/66 62/62/62
f 60/60/60 56/56/56 67/67/67
f 68/68/68 60/60/60 67/67/67
f 56/56/56 57/57/57 69/69/69
f 67/67/67 56/56/56 69/69/69
f 72/72/72 71/71/71 70/70/70
f 72/72/72 70/70/70 73/73/73
f 70/70/70 74/74/74 73/73/73
f 72/72/72 73/73/73 75/75/75
f 76/76/76 72/72/72 75/75/75
f 79/79/79 78/78/78 77/77/77
f 79/79/79 80/80/80 78/78/78
f 77/77/77 81/81/81 79/79/79
f 81/81/81 82/82/82 79/79/79
f 85/85/85 84/84/84 83/83/83
f 86/86/86 85/85/85 83/83/83
f 87/87/87 86/86/86 83/83/83
f 88/88/88 87/87/87 83/83/83
f 91/91/91 90/90/90 89/89/89
f 92/92/92 91/91/91 89/89/89
f 92/92/92 89/89/89 93/93/93
f 94/94/94 92/92/92 93/93/93
