g foregrip_all_stark_se_5_express_grip_LOD1
v -0.01541827 0.05266976 0.003244128
v -0.0006961335 0.05266975 0.003244123
v -0.0006961341 0.04514501 0.006013217
v -0.01073788 0.02442055 0.008286073
v -0.01073788 0.02442055 0.008286073
v -0.0006961341 0.04514501 0.006013217
v -0.0006961341 0.0398036 0.0125416
v -0.01032094 0.03693319 0.02095521
v -0.0006961329 0.03945214 0.01976334
v -0.008733907 0.06016408 0.04494044
v -0.0006961251 0.06303971 0.04382701
v -0.01390598 0.04773294 0.0512884
v -0.013287 0.04964622 0.05484363
v -0.01255924 0.0340381 0.05795767
v -0.013765 0.01475424 0.0131288
v -0.01215109 -0.009997578 0.01361933
v -0.0006961281 0.02765723 0.05951099
v -0.008677587 0.03094339 0.06840093
v -0.0006961264 0.02925655 0.07126874
v -0.000696143 -0.01637468 0.01517174
v -0.01019963 -0.02086552 0.007351584
v -0.000696146 -0.02784001 0.007626772
v -0.01581797 0.00135603 0.01143245
v -0.01245673 0.03617528 0.06589283
v -0.01313584 0.05110161 0.05847628
v -0.01062942 0.04485586 0.064109
v -0.01563749 0.02002598 0.003168139
v -0.01541827 0.05266976 0.003244128
v -0.008733907 0.06016408 0.04494044
v -0.0006961251 0.06303971 0.04382701
v -0.000696124 0.05264495 0.05996719
v -0.01313584 0.05110161 0.05847628
v -0.01062942 0.04485586 0.064109
v -0.0006961251 0.03782989 0.06941783
v -0.01245673 0.03617528 0.06589283
v -0.01062942 0.04485586 0.064109
v -0.0006961251 0.03782989 0.06941783
v -0.0006961257 0.03617528 0.06589283
v -0.008677587 0.03094339 0.06840093
v -0.01245673 0.03617528 0.06589283
v -0.0006961257 0.03617528 0.06589283
v -0.0006961264 0.02925655 0.07126874
v -0.01390055 -0.03782282 0.002292411
v -0.01019963 -0.02086552 0.007351584
v -0.000696146 -0.02784001 0.007626772
v -0.0006961478 -0.03782282 0.005615041
v -0.01581797 0.00135603 0.01143245
v -0.01390055 -0.03782282 0.002292411
v -0.0006961478 -0.03782282 0.005615041
v -0.0006961502 -0.03797415 -0.00719733
v -0.01541829 -0.03797415 -0.007197327
v -0.01541828 0.05236711 -0.00719732
v -0.01541829 -0.03797415 -0.007197327
v -0.0006961502 -0.03797415 -0.00719733
v -0.0006961353 0.05236711 -0.007197323
v -0.01541827 0.05266976 0.003244128
v -0.01541828 0.05236711 -0.00719732
v -0.0006961353 0.05236711 -0.007197323
v -0.0006961335 0.05266975 0.003244123
v -0.01390055 -0.03782282 0.002292411
v -0.01541829 -0.03797415 -0.007197327
v -0.01581797 0.00135603 0.01143245
v -0.01563749 0.02002598 0.003168139
v -0.01541828 0.05236711 -0.00719732
v -0.01541827 0.05266976 0.003244128
v 0.014026 0.05266975 0.003244123
v 0.009345603 0.02442055 0.008286071
v -0.0006961341 0.04514501 0.006013217
v -0.0006961335 0.05266975 0.003244123
v 0.009345603 0.02442055 0.008286071
v -0.0006961341 0.0398036 0.0125416
v -0.0006961341 0.04514501 0.006013217
v 0.008928671 0.03693318 0.02095521
v -0.0006961329 0.03945214 0.01976334
v 0.007341658 0.06016408 0.04494044
v -0.0006961251 0.06303971 0.04382701
v 0.01251372 0.04773294 0.0512884
v 0.01189475 0.04964622 0.05484363
v 0.01116698 0.0340381 0.05795767
v 0.01237272 0.01475423 0.0131288
v 0.0107588 -0.009997578 0.01361933
v -0.0006961281 0.02765723 0.05951099
v 0.007285335 0.03094339 0.06840093
v -0.0006961264 0.02925655 0.07126874
v -0.000696143 -0.01637468 0.01517174
v 0.008807342 -0.02086553 0.007351582
v -0.000696146 -0.02784001 0.007626772
v 0.01442569 0.001356025 0.01143245
v 0.01106447 0.03617528 0.06589282
v 0.01174359 0.05110161 0.05847628
v 0.009237175 0.04485586 0.064109
v 0.01424521 0.02002597 0.003168135
v 0.014026 0.05266975 0.003244123
v 0.007341658 0.06016408 0.04494044
v 0.01174359 0.05110161 0.05847628
v -0.000696124 0.05264495 0.05996719
v -0.0006961251 0.06303971 0.04382701
v 0.009237175 0.04485586 0.064109
v -0.0006961251 0.03782989 0.06941783
v -0.0006961251 0.03782989 0.06941783
v 0.009237175 0.04485586 0.064109
v 0.01106447 0.03617528 0.06589282
v -0.0006961257 0.03617528 0.06589283
v -0.0006961257 0.03617528 0.06589283
v 0.01106447 0.03617528 0.06589282
v 0.007285335 0.03094339 0.06840093
v -0.0006961264 0.02925655 0.07126874
v -0.000696146 -0.02784001 0.007626772
v 0.008807342 -0.02086553 0.007351582
v 0.01250825 -0.03782283 0.002292409
v -0.0006961478 -0.03782282 0.005615041
v 0.01442569 0.001356025 0.01143245
v 0.01250825 -0.03782283 0.002292409
v 0.01402599 -0.03797415 -0.007197332
v -0.0006961502 -0.03797415 -0.00719733
v -0.0006961478 -0.03782282 0.005615041
v -0.0006961502 -0.03797415 -0.00719733
v 0.01402599 -0.03797415 -0.007197332
v 0.014026 0.0523671 -0.007197325
v -0.0006961353 0.05236711 -0.007197323
v -0.0006961353 0.05236711 -0.007197323
v 0.014026 0.0523671 -0.007197325
v 0.014026 0.05266975 0.003244123
v -0.0006961335 0.05266975 0.003244123
v 0.01250825 -0.03782283 0.002292409
v 0.01442569 0.001356025 0.01143245
v 0.01402599 -0.03797415 -0.007197332
v 0.01424521 0.02002597 0.003168135
v 0.014026 0.0523671 -0.007197325
v 0.014026 0.05266975 0.003244123
vt 0.9505193 0.6430243
vt 0.9282035 0.5430588
vt 0.8807217 0.5675722
vt 0.6923493 0.6033866
vt 0.6923493 0.6033866
vt 0.8807217 0.5675722
vt 0.8425428 0.5365049
vt 0.7550191 0.4568235
vt 0.8509474 0.4808565
vt 0.8891084 0.2026573
vt 0.9492241 0.2096085
vt 0.7706865 0.1756456
vt 0.7788757 0.1391142
vt 0.6479696 0.1432638
vt 0.5875214 0.5805237
vt 0.3667254 0.6162406
vt 0.5437174 0.118242
vt 0.6102693 0.04317036
vt 0.5489291 0.01572053
vt 0.2500573 0.5679836
vt 0.2780935 0.6837525
vt 0.1752225 0.6477669
vt 0.4813801 0.6364544
vt 0.6570085 0.06302278
vt 0.7873646 0.1024337
vt 0.7299216 0.06057613
vt 0.6626533 0.6818816
vt 0.9505193 0.6430243
vt 0.3165672 0.04752057
vt 0.2442453 0.01882398
vt 0.2297189 0.191802
vt 0.3436066 0.1976756
vt 0.3186328 0.2726981
vt 0.2287716 0.349484
vt 0.3420269 0.3456365
vt 0.3186328 0.2726981
vt 0.2287716 0.349484
vt 0.2397271 0.3654829
vt 0.3189482 0.4032494
vt 0.3420269 0.3456365
vt 0.2397271 0.3654829
vt 0.2523057 0.4433068
vt 0.162011 0.7902028
vt 0.2780935 0.6837525
vt 0.1752225 0.6477669
vt 0.1043025 0.6919862
vt 0.4813801 0.6364544
vt 0.168409 0.5436761
vt 0.1798552 0.3848804
vt 0.03231013 0.4108971
vt 0.0622021 0.5804229
vt 0.2468708 0.8721684
vt 0.9860044 0.8721697
vt 0.9860044 0.9926201
vt 0.2468708 0.9926201
vt 0.2085764 0.9626984
vt 0.2085764 0.8405587
vt 0.03643531 0.8405587
vt 0.03643531 0.9626984
vt 0.9853721 0.7935348
vt 0.9860044 0.8721697
vt 0.6642223 0.7197126
vt 0.5114724 0.7873432
vt 0.2468708 0.8721684
vt 0.244395 0.7867596
vt 0.9505193 0.6430243
vt 0.6923493 0.6033866
vt 0.8807217 0.5675722
vt 0.9282035 0.5430588
vt 0.6923493 0.6033866
vt 0.8425428 0.5365049
vt 0.8807217 0.5675722
vt 0.7550191 0.4568235
vt 0.8509474 0.4808565
vt 0.8891084 0.2026573
vt 0.9492241 0.2096085
vt 0.7706865 0.1756456
vt 0.7788757 0.1391142
vt 0.6479696 0.1432638
vt 0.5875214 0.5805237
vt 0.3667254 0.6162406
vt 0.5437174 0.118242
vt 0.6102693 0.04317036
vt 0.5489291 0.01572053
vt 0.2500573 0.5679836
vt 0.2780935 0.6837525
vt 0.1752225 0.6477669
vt 0.4813801 0.6364544
vt 0.6570085 0.06302278
vt 0.7873646 0.1024337
vt 0.7299216 0.06057613
vt 0.6626533 0.6818816
vt 0.9505193 0.6430243
vt 0.3165672 0.04752057
vt 0.3436066 0.1976756
vt 0.2297189 0.191802
vt 0.2442453 0.01882398
vt 0.3186328 0.2726981
vt 0.2287716 0.349484
vt 0.2287716 0.349484
vt 0.3186328 0.2726981
vt 0.3420269 0.3456365
vt 0.2397271 0.3654829
vt 0.2397271 0.3654829
vt 0.3420269 0.3456365
vt 0.3189482 0.4032494
vt 0.2523057 0.4433068
vt 0.1752225 0.6477669
vt 0.2780935 0.6837525
vt 0.162011 0.7902028
vt 0.1043025 0.6919862
vt 0.4813801 0.6364544
vt 0.168409 0.5436761
vt 0.0622021 0.5804229
vt 0.03231013 0.4108971
vt 0.1798552 0.3848804
vt 0.9860044 0.9926201
vt 0.9860044 0.8721697
vt 0.2468708 0.8721684
vt 0.2468708 0.9926201
vt 0.03643531 0.8405587
vt 0.2085764 0.8405587
vt 0.2085764 0.9626984
vt 0.03643531 0.9626984
vt 0.9853721 0.7935348
vt 0.6642223 0.7197126
vt 0.9860044 0.8721697
vt 0.5114724 0.7873432
vt 0.2468708 0.8721684
vt 0.244395 0.7867596
vn -0.08000311 0.202633 0.9759813
vn -0.08000311 0.202633 0.9759812
vn -0.08000311 0.202633 0.9759812
vn -0.08000311 0.202633 0.9759813
vn -0.9368019 0.2588319 0.2353901
vn 3.014802E-07 0.7739572 0.6332379
vn 1.147017E-07 0.9997584 -0.02197948
vn -0.7635189 0.5103727 -0.3956749
vn 0 0.7911335 -0.6116435
vn -0.7016715 0.5419079 -0.4625936
vn 0 0.721328 -0.6925936
vn -0.9893692 0.1407511 -0.03657678
vn -0.9786788 0.1984061 0.05313156
vn -0.8933659 -0.4007509 0.2032147
vn -0.9916126 0.09681229 -0.08562712
vn -0.7770926 -0.4219335 0.4670108
vn 0 -0.9169109 0.399092
vn -0.5122443 -0.8577569 0.04311635
vn 0 -0.9999925 0.003874798
vn 0 -0.6190841 0.7853248
vn -0.4858654 -0.4979111 0.7183448
vn 0 -0.552587 0.8334552
vn -0.7032567 -0.004941385 0.7109188
vn -0.9485974 -0.271632 0.1624164
vn -0.9617649 0.196115 0.191173
vn -0.9355206 0.122143 0.3314846
vn -0.7790323 0.1637007 0.6052361
vn -0.7237365 0.003253729 0.6900687
vn -0.1894854 0.8337787 0.5185639
vn 0 0.8491625 0.5281317
vn 0 0.7255732 0.688145
vn -0.1524236 0.7190984 0.6779856
vn -0.1077149 0.5703656 0.8142976
vn 0 0.5737035 0.8190631
vn -0.2706159 -0.1132136 0.9560071
vn -0.2706159 -0.1132136 0.9560071
vn 1.187983E-07 -0.1176017 0.9930608
vn 1.083946E-07 -0.1176017 0.9930608
vn -0.07817965 0.5254225 0.8472421
vn -0.07817965 0.5254226 0.8472421
vn 1.189437E-07 0.5270356 0.8498431
vn 1.178212E-07 0.5270356 0.8498431
vn -0.2201248 -0.221649 0.9499562
vn -0.2264719 -0.2280593 0.9469422
vn 0 -0.2250331 0.974351
vn 0 -0.2250331 0.9743512
vn -0.2301354 -0.2317592 0.945159
vn -0.001627596 -0.9999051 0.01367987
vn -0.001627596 -0.9999051 0.01367987
vn -0.001627596 -0.9999051 0.01367987
vn -0.001627596 -0.9999051 0.01367987
vn -1.619456E-07 0 -1
vn -1.619456E-07 0 -1
vn -1.619456E-07 0 -1
vn -1.619456E-07 0 -1
vn 1.544281E-07 0.9995802 -0.02897336
vn 1.544281E-07 0.9995802 -0.02897336
vn 1.544281E-07 0.9995802 -0.02897337
vn 1.544281E-07 0.9995802 -0.02897337
vn -0.9836511 -0.08515817 0.1586781
vn -0.9921913 -0.06107387 0.1087495
vn -0.9999552 -0.007309777 -0.006020994
vn -0.9998616 0.001507839 -0.01656844
vn -0.9998775 0.001791935 -0.01555446
vn -0.9998775 0.001791935 -0.01555446
vn 0.08000348 0.202633 0.9759812
vn 0.08000348 0.202633 0.9759812
vn 0.08000348 0.2026329 0.9759812
vn 0.08000348 0.202633 0.9759812
vn 0.936802 0.2588317 0.2353898
vn 1.147017E-07 0.9997584 -0.02197948
vn 3.014802E-07 0.7739572 0.6332379
vn 0.763519 0.5103724 -0.3956752
vn 0 0.7911335 -0.6116435
vn 0.7016718 0.5419074 -0.4625938
vn 0 0.721328 -0.6925936
vn 0.9893692 0.1407507 -0.03657701
vn 0.9786789 0.1984053 0.05313104
vn 0.8933657 -0.4007512 0.2032143
vn 0.9916126 0.09681197 -0.08562728
vn 0.7770926 -0.4219338 0.4670107
vn 0 -0.9169109 0.399092
vn 0.5122441 -0.8577569 0.04311613
vn 0 -0.9999925 0.003874798
vn 0 -0.6190841 0.7853248
vn 0.4858655 -0.4979112 0.7183447
vn 0 -0.552587 0.8334552
vn 0.7032569 -0.004941628 0.7109185
vn 0.9485974 -0.2716323 0.1624161
vn 0.9617653 0.1961141 0.191172
vn 0.9355211 0.1221423 0.331484
vn 0.7790326 0.1637005 0.6052358
vn 0.7237368 0.003253573 0.6900685
vn 0.1894855 0.8337787 0.5185637
vn 0.1524237 0.7190985 0.6779855
vn 0 0.7255732 0.688145
vn 0 0.8491625 0.5281317
vn 0.1077151 0.5703657 0.8142976
vn 0 0.5737035 0.8190631
vn 1.187983E-07 -0.1176017 0.9930608
vn 0.2706161 -0.1132137 0.9560071
vn 0.2706161 -0.1132137 0.9560071
vn 1.083946E-07 -0.1176017 0.9930608
vn 1.189437E-07 0.5270356 0.8498431
vn 0.07817989 0.5254225 0.8472421
vn 0.07817989 0.5254226 0.847242
vn 1.178212E-07 0.5270356 0.8498431
vn 0 -0.2250331 0.974351
vn 0.2264721 -0.2280594 0.9469422
vn 0.2201249 -0.221649 0.9499562
vn 0 -0.2250331 0.9743512
vn 0.2301354 -0.2317592 0.9451588
vn 0.001627255 -0.9999051 0.01367985
vn 0.001627255 -0.9999051 0.01367985
vn 0.001627255 -0.9999051 0.01367985
vn 0.001627255 -0.9999051 0.01367985
vn -1.619456E-07 0 -1
vn -1.619456E-07 0 -1
vn -1.619456E-07 0 -1
vn -1.619456E-07 0 -1
vn 1.598785E-07 0.9995802 -0.02897337
vn 1.598785E-07 0.9995802 -0.02897336
vn 1.598785E-07 0.9995802 -0.02897337
vn 1.598785E-07 0.9995802 -0.02897337
vn 0.9836511 -0.08515842 0.1586775
vn 0.9999552 -0.007310166 -0.006021323
vn 0.9921914 -0.06107416 0.1087489
vn 0.9998616 0.001507515 -0.01656892
vn 0.9998775 0.001791625 -0.01555497
vn 0.9998775 0.001791624 -0.01555497
g foregrip_all_stark_se_5_express_grip_LOD1_0
f 3/3/3 2/2/2 1/1/1
f 4/4/4 3/3/3 1/1/1
f 7/7/7 6/6/6 5/5/5
f 7/7/7 5/5/5 8/8/8
f 9/9/9 7/7/7 8/8/8
f 9/9/9 8/8/8 10/10/10
f 11/11/11 9/9/9 10/10/10
f 10/10/10 8/8/8 12/12/12
f 10/10/10 12/12/12 13/13/13
f 13/13/13 12/12/12 14/14/14
f 12/12/12 15/15/15 14/14/14
f 8/8/8 15/15/15 12/12/12
f 8/8/8 5/5/5 15/15/15
f 15/15/15 16/16/16 14/14/14
f 17/17/17 14/14/14 16/16/16
f 14/14/14 17/17/17 18/18/18
f 17/17/17 19/19/19 18/18/18
f 20/20/20 17/17/17 16/16/16
f 20/20/20 16/16/16 21/21/21
f 22/22/22 20/20/20 21/21/21
f 16/16/16 23/23/23 21/21/21
f 15/15/15 23/23/23 16/16/16
f 24/24/24 13/13/13 14/14/14
f 18/18/18 24/24/24 14/14/14
f 25/25/25 13/13/13 24/24/24
f 10/10/10 13/13/13 25/25/25
f 26/26/26 25/25/25 24/24/24
f 5/5/5 23/23/23 15/15/15
f 5/5/5 27/27/27 23/23/23
f 28/28/28 27/27/27 5/5/5
f 31/31/31 30/30/30 29/29/29
f 32/32/32 31/31/31 29/29/29
f 31/31/31 32/32/32 33/33/33
f 34/34/34 31/31/31 33/33/33
f 37/37/37 36/36/36 35/35/35
f 38/38/38 37/37/37 35/35/35
f 41/41/41 40/40/40 39/39/39
f 42/42/42 41/41/41 39/39/39
f 45/45/45 44/44/44 43/43/43
f 46/46/46 45/45/45 43/43/43
f 44/44/44 47/47/47 43/43/43
f 50/50/50 49/49/49 48/48/48
f 51/51/51 50/50/50 48/48/48
f 54/54/54 53/53/53 52/52/52
f 55/55/55 54/54/54 52/52/52
f 58/58/58 57/57/57 56/56/56
f 59/59/59 58/58/58 56/56/56
f 62/62/62 61/61/61 60/60/60
f 63/63/63 61/61/61 62/62/62
f 64/64/64 61/61/61 63/63/63
f 65/65/65 64/64/64 63/63/63
f 68/68/68 67/67/67 66/66/66
f 69/69/69 68/68/68 66/66/66
f 72/72/72 71/71/71 70/70/70
f 73/73/73 70/70/70 71/71/71
f 74/74/74 73/73/73 71/71/71
f 75/75/75 73/73/73 74/74/74
f 76/76/76 75/75/75 74/74/74
f 73/73/73 75/75/75 77/77/77
f 77/77/77 75/75/75 78/78/78
f 77/77/77 78/78/78 79/79/79
f 77/77/77 79/79/79 80/80/80
f 80/80/80 73/73/73 77/77/77
f 70/70/70 73/73/73 80/80/80
f 79/79/79 81/81/81 80/80/80
f 81/81/81 79/79/79 82/82/82
f 82/82/82 79/79/79 83/83/83
f 84/84/84 82/82/82 83/83/83
f 85/85/85 81/81/81 82/82/82
f 86/86/86 81/81/81 85/85/85
f 87/87/87 86/86/86 85/85/85
f 88/88/88 81/81/81 86/86/86
f 88/88/88 80/80/80 81/81/81
f 78/78/78 89/89/89 79/79/79
f 89/89/89 83/83/83 79/79/79
f 78/78/78 90/90/90 89/89/89
f 78/78/78 75/75/75 90/90/90
f 90/90/90 91/91/91 89/89/89
f 88/88/88 70/70/70 80/80/80
f 92/92/92 70/70/70 88/88/88
f 92/92/92 93/93/93 70/70/70
f 96/96/96 95/95/95 94/94/94
f 97/97/97 96/96/96 94/94/94
f 98/98/98 95/95/95 96/96/96
f 99/99/99 98/98/98 96/96/96
f 102/102/102 101/101/101 100/100/100
f 103/103/103 102/102/102 100/100/100
f 106/106/106 105/105/105 104/104/104
f 107/107/107 106/106/106 104/104/104
f 110/110/110 109/109/109 108/108/108
f 111/111/111 110/110/110 108/108/108
f 112/112/112 109/109/109 110/110/110
f 115/115/115 114/114/114 113/113/113
f 116/116/116 115/115/115 113/113/113
f 119/119/119 118/118/118 117/117/117
f 120/120/120 119/119/119 117/117/117
f 123/123/123 122/122/122 121/121/121
f 124/124/124 123/123/123 121/121/121
f 127/127/127 126/126/126 125/125/125
f 127/127/127 128/128/128 126/126/126
f 127/127/127 129/129/129 128/128/128
f 129/129/129 130/130/130 128/128/128
