g foregrip_all_zenit_rk_6_LOD1
v 0.0001138637 0.02231424 0.03899261
v 0.01299064 0.0169805 0.02485861
v 0.01299064 0.01698051 0.04244488
v 0.0001138712 0.02231424 -0.002912835
v 0.01832437 0.004103733 0.02485862
v 0.01832437 0.004103734 0.05077939
v 0.01299064 -0.008773035 0.02485861
v 0.01299063 -0.008773035 0.0591139
v 0.000113867 -0.01410677 0.02485861
v 0.0001138618 -0.01410677 0.06256618
v 0.01299064 0.0169805 -0.002912835
v 0.0001138618 -0.01410677 0.06256618
v -0.0127629 -0.008773037 0.02485861
v -0.01276291 -0.008773035 0.0591139
v 0.000113867 -0.01410677 0.02485861
v -0.01809664 0.004103732 0.02485861
v -0.01809664 0.004103735 0.05077938
v -0.01276291 0.0169805 0.02485861
v -0.01276291 0.0169805 0.04244487
v 0.0001138712 0.02231424 -0.002912835
v 0.0001138637 0.02231424 0.03899261
v -0.0127629 0.0169805 -0.002912835
v -0.01809664 0.004103735 0.05077938
v 0.0001138618 -0.01410677 0.06256618
v -0.01276291 -0.008773035 0.0591139
v 0.0001138637 0.02231424 0.03899261
v 0.01832437 0.004103734 0.05077939
v 0.01299063 -0.008773035 0.0591139
v 0.01299064 0.01698051 0.04244488
v -0.01276291 0.0169805 0.04244487
v 0.01299064 -0.01921695 -0.002912835
v -0.0127629 -0.01921695 -0.002912835
v 0.0001138717 -0.02455069 -0.002912835
v -0.0127629 0.0169805 -0.002912835
v 0.01299064 0.0169805 -0.002912835
v 0.0001138712 0.02231424 -0.002912835
v -0.0127629 -0.008773037 0.02485861
v -0.01276291 0.0169805 0.02485861
v -0.01809664 0.004103732 0.02485861
v 0.01299064 0.0169805 0.02485861
v 0.01299064 -0.008773035 0.02485861
v 0.01832437 0.004103733 0.02485862
v 0.01299064 -0.008773035 0.02485861
v 0.01299064 0.0169805 -0.002912835
v 0.01299064 -0.01921695 0.01535632
v 0.01299064 0.0169805 0.02485861
v 0.01299064 -0.01921695 -0.002912835
v 0.000113867 -0.01410677 0.02485861
v 0.01299064 -0.01921695 0.01535632
v 0.0001138689 -0.02455069 0.01535632
v 0.01299064 -0.008773035 0.02485861
v -0.0127629 -0.008773037 0.02485861
v -0.0127629 -0.01921695 0.01535632
v -0.0127629 -0.008773037 0.02485861
v -0.0127629 0.0169805 -0.002912835
v -0.01276291 0.0169805 0.02485861
v -0.0127629 -0.01921695 0.01535632
v -0.0127629 -0.01921695 -0.002912835
v 0.0001138717 -0.02455069 -0.002912835
v 0.01299064 -0.01921695 0.01535632
v 0.01299064 -0.01921695 -0.002912835
v 0.0001138689 -0.02455069 0.01535632
v -0.0127629 -0.01921695 -0.002912835
v -0.0127629 -0.01921695 0.01535632
vt 0.9673744 0.02218331
vt 0.8414473 0.5335548
vt 0.8414473 0.02218331
vt 0.9673744 0.7789087
vt 0.71552 0.5335548
vt 0.71552 0.02218331
vt 0.5895931 0.5335548
vt 0.5895931 0.02218331
vt 0.4636658 0.5335548
vt 0.463666 0.02218331
vt 0.8414473 0.7789087
vt 0.4634476 0.02218316
vt 0.5893748 0.5335548
vt 0.5893748 0.02218316
vt 0.4634476 0.5335548
vt 0.7153019 0.5335548
vt 0.7153019 0.02218316
vt 0.841229 0.5335548
vt 0.841229 0.02218316
vt 0.967156 0.7789088
vt 0.967156 0.02218316
vt 0.841229 0.7789088
vt 0.7619661 0.7437236
vt 0.5974342 0.5791919
vt 0.713776 0.6273822
vt 0.5974342 0.9082552
vt 0.4329029 0.7437236
vt 0.481093 0.6273822
vt 0.481093 0.860065
vt 0.7137755 0.860065
vt 0.06730783 0.6862473
vt 0.06730783 0.4535644
vt 0.01911759 0.5699058
vt 0.3943514 0.4535644
vt 0.3943514 0.6862473
vt 0.4425416 0.5699058
vt 0.1616685 0.2082107
vt 0.3943514 0.2082107
vt 0.27801 0.1600204
vt 0.3943514 0.931601
vt 0.1616684 0.931601
vt 0.27801 0.9797911
vt 0.1616684 0.931601
vt 0.3943514 0.6862473
vt 0.06730783 0.8457478
vt 0.3943514 0.931601
vt 0.06730783 0.6862473
vt 0.1596314 0.1601741
vt 0.2163882 0.0194035
vt 0.09437523 0.05055528
vt 0.2816443 0.1290223
vt 0.07408391 0.2525828
vt 0.008827738 0.1429636
vt 0.1616685 0.2082107
vt 0.3943514 0.4535644
vt 0.3943514 0.2082107
vt 0.06730783 0.2940638
vt 0.06730783 0.4535644
vt 0.8695897 0.9883193
vt 0.7524776 0.8399837
vt 0.7524776 0.9883193
vt 0.8695897 0.8399837
vt 0.9867021 0.9883193
vt 0.9867021 0.8399837
vn 0 1 -1.585092E-07
vn 0.603748 0.7971752 0
vn 0.7703013 0.6376801 0
vn 0 1 0
vn 1 0 1.265124E-07
vn 0.990052 -0.1407015 1.620921E-07
vn 0.7071068 -0.7071068 1.201473E-07
vn 0.6226211 -0.7825234 1.037667E-07
vn 1.026798E-07 -1 0
vn -1.214534E-07 -1 0
vn 0.3826835 0.9238794 0
vn -1.214534E-07 -1 0
vn -0.7071068 -0.7071068 0
vn -0.6226212 -0.7825234 0
vn 1.026798E-07 -1 0
vn -1 0 -1.541504E-07
vn -0.990052 -0.1407016 -1.322905E-07
vn -0.6037483 0.7971749 -2.146606E-07
vn -0.7703015 0.6376799 -1.957497E-07
vn 0 1 0
vn 0 1 -1.585092E-07
vn -0.3826836 0.9238794 0
vn -1.918236E-07 0.5433655 0.8394962
vn -1.827639E-07 0.5433655 0.8394962
vn 0 0.5433657 0.8394961
vn -2.370003E-07 0.5433655 0.8394962
vn -2.34834E-07 0.5433655 0.8394962
vn -2.185656E-07 0.5433655 0.8394962
vn -3.642758E-07 0.5433654 0.8394963
vn -1.457104E-07 0.5433655 0.8394962
vn 0 0 -1
vn 0 0 -1
vn 0 0 -1
vn 0 0 -1
vn 0 0 -1
vn 0 0 -1
vn 4.470014E-07 0 -1
vn 4.470014E-07 0 -1
vn 4.470014E-07 0 -1
vn 8.940023E-07 0 -1
vn 8.940022E-07 0 -1
vn 8.940022E-07 0 -1
vn 1 0 0
vn 1 0 0
vn 1 0 0
vn 1 0 1.287754E-07
vn 1 0 1.305033E-07
vn 1.332283E-07 -0.6729759 0.7396645
vn 0.3475974 -0.839173 0.4182879
vn 0 -0.9282904 0.3718563
vn 0.2685186 -0.6482607 0.7124997
vn -0.2685187 -0.6482607 0.7124997
vn -0.3475976 -0.839173 0.4182877
vn -1 0 -1.717005E-07
vn -1 0 -1.717005E-07
vn -1 0 -1.717005E-07
vn -1 0 -1.613834E-07
vn -1 0 -1.305033E-07
vn 1.232157E-07 -1 -2.794433E-07
vn 0.3475974 -0.839173 0.4182879
vn 0.3826838 -0.9238794 0
vn 0 -0.9282904 0.3718563
vn -0.382684 -0.9238793 -2.661453E-07
vn -0.3475976 -0.839173 0.4182877
g foregrip_all_zenit_rk_6_LOD1_0
f 3/3/3 2/2/2 1/1/1
f 4/4/4 1/1/1 2/2/2
f 2/2/2 3/3/3 5/5/5
f 6/6/6 5/5/5 3/3/3
f 5/5/5 6/6/6 7/7/7
f 8/8/8 7/7/7 6/6/6
f 7/7/7 8/8/8 9/9/9
f 10/10/10 9/9/9 8/8/8
f 2/2/2 11/11/11 4/4/4
f 14/14/14 13/13/13 12/12/12
f 15/15/15 12/12/12 13/13/13
f 13/13/13 14/14/14 16/16/16
f 17/17/17 16/16/16 14/14/14
f 16/16/16 17/17/17 18/18/18
f 19/19/19 18/18/18 17/17/17
f 18/18/18 19/19/19 20/20/20
f 21/21/21 20/20/20 19/19/19
f 20/20/20 22/22/22 18/18/18
f 25/25/25 24/24/24 23/23/23
f 24/24/24 26/26/26 23/23/23
f 27/27/27 26/26/26 24/24/24
f 28/28/28 27/27/27 24/24/24
f 29/29/29 26/26/26 27/27/27
f 23/23/23 26/26/26 30/30/30
f 33/33/33 32/32/32 31/31/31
f 32/32/32 34/34/34 31/31/31
f 31/31/31 34/34/34 35/35/35
f 35/35/35 34/34/34 36/36/36
f 39/39/39 38/38/38 37/37/37
f 42/42/42 41/41/41 40/40/40
f 45/45/45 44/44/44 43/43/43
f 46/46/46 43/43/43 44/44/44
f 47/47/47 44/44/44 45/45/45
f 50/50/50 49/49/49 48/48/48
f 51/51/51 48/48/48 49/49/49
f 48/48/48 52/52/52 50/50/50
f 53/53/53 50/50/50 52/52/52
f 56/56/56 55/55/55 54/54/54
f 57/57/57 54/54/54 55/55/55
f 58/58/58 57/57/57 55/55/55
f 61/61/61 60/60/60 59/59/59
f 62/62/62 59/59/59 60/60/60
f 59/59/59 62/62/62 63/63/63
f 64/64/64 63/63/63 62/62/62
