g foregrip_all_magpul_rvg_LOD1
v 0.01530834 -0.006836216 0.05540762
v 0.00963704 -0.01858797 0.0007682265
v 0.00963704 -0.01858798 0.05540761
v 0.01530834 -0.006836208 0.0007682283
v -1.394724E-09 -0.02034668 0.0007682263
v -1.394723E-09 -0.02034669 0.05540761
v 0.01530834 0.0068362 0.05540762
v 0.01530834 0.006836209 0.0007682304
v 0.009637039 0.01858797 0.05540762
v 0.009637039 0.01858798 0.0007682322
v 3.873208E-10 0.02034667 0.05540762
v 3.873197E-10 0.02034668 0.0007682324
v 0.00741671 -0.01655959 -0.01474275
v 0.01178137 -0.006090216 -0.01474275
v -1.087119E-09 -0.01812638 -0.01474275
v 0.007416709 0.0165596 -0.01474275
v 2.843487E-10 0.01812639 -0.01474275
v 0.01178137 0.006090222 -0.01474275
v 0.01181886 -0.02199413 -0.02494311
v 0.01497871 -0.0162265 -0.02494311
v 2.346603E-08 -0.02446641 -0.02494312
v 0.01181886 0.02199414 -0.02494311
v 2.483752E-08 0.02446642 -0.02494311
v 0.01497871 0.0162265 -0.02494311
v 0.01181893 -0.02199413 -0.03377307
v 0.01497877 -0.0162265 -0.03377306
v 8.746079E-08 -0.02446641 -0.03377308
v 0.01181893 0.02199414 -0.03377306
v 8.883227E-08 0.02446642 -0.03377307
v 0.01497877 0.01622651 -0.03377305
v -1.394723E-09 -0.02034669 0.05540761
v -0.00963704 -0.01858797 0.0007682265
v -0.00963704 -0.01858798 0.05540761
v -1.394724E-09 -0.02034668 0.0007682263
v -0.01530834 -0.006836206 0.0007682283
v -0.01530834 -0.006836215 0.05540762
v -0.01530834 0.00683621 0.0007682304
v -0.01530834 0.006836202 0.05540762
v -0.009637039 0.01858798 0.0007682322
v -0.009637039 0.01858797 0.05540762
v 3.873197E-10 0.02034668 0.0007682324
v 3.873208E-10 0.02034667 0.05540762
v -0.00741671 -0.01655959 -0.01474275
v -1.087119E-09 -0.01812638 -0.01474275
v -0.01178137 -0.006090214 -0.01474275
v -0.007416709 0.0165596 -0.01474275
v -0.01178136 0.006090224 -0.01474275
v 2.843487E-10 0.01812639 -0.01474275
v -0.01181881 -0.02199413 -0.02494312
v 2.346603E-08 -0.02446641 -0.02494312
v -0.01497866 -0.01622649 -0.02494312
v -0.01181881 0.02199414 -0.02494312
v -0.01497866 0.01622651 -0.02494312
v 2.483752E-08 0.02446642 -0.02494311
v -0.01181875 -0.02199413 -0.03377307
v 8.746079E-08 -0.02446641 -0.03377308
v -0.0149786 -0.01622649 -0.03377308
v -0.01181875 0.02199414 -0.03377306
v -0.01497859 0.01622651 -0.03377307
v 8.883227E-08 0.02446642 -0.03377307
v 3.873208E-10 0.02034667 0.05540762
v 0.00963704 -0.01858798 0.05540761
v -1.394723E-09 -0.02034669 0.05540761
v 0.01530834 0.0068362 0.05540762
v 0.01530834 -0.006836216 0.05540762
v 0.009637039 0.01858797 0.05540762
v 0.01181893 0.02199414 -0.03377306
v 0.01497877 -0.0162265 -0.03377306
v 0.01497877 0.01622651 -0.03377305
v 0.01181893 -0.02199413 -0.03377307
v 8.746079E-08 -0.02446641 -0.03377308
v 8.883227E-08 0.02446642 -0.03377307
v -0.01181875 -0.02199413 -0.03377307
v 8.883227E-08 0.02446642 -0.03377307
v -0.01181875 0.02199414 -0.03377306
v 8.746079E-08 -0.02446641 -0.03377308
v -0.0149786 -0.01622649 -0.03377308
v -0.01497859 0.01622651 -0.03377307
v -0.009637039 0.01858797 0.05540762
v -0.01530834 -0.006836215 0.05540762
v -0.01530834 0.006836202 0.05540762
v -1.394723E-09 -0.02034669 0.05540761
v -0.00963704 -0.01858798 0.05540761
v 3.873208E-10 0.02034667 0.05540762
vt 0.3123215 0.1811498
vt 0.4074229 0.6635636
vt 0.4074229 0.1811498
vt 0.3123215 0.6635636
vt 0.4798976 0.6635636
vt 0.4798976 0.1811498
vt 0.2117633 0.1811498
vt 0.2117633 0.6635636
vt 0.1166626 0.1811498
vt 0.1166626 0.6635636
vt 0.04418829 0.1811498
vt 0.04418829 0.6635636
vt 0.4074229 0.8005085
vt 0.3123215 0.8005085
vt 0.4672787 0.8005085
vt 0.1166626 0.8005085
vt 0.0568072 0.8005085
vt 0.2117633 0.8005085
vt 0.4231198 0.9120668
vt 0.3805897 0.9114127
vt 0.5062785 0.8837928
vt 0.1009654 0.9120666
vt 0.01780724 0.8837922
vt 0.143495 0.9114127
vt 0.4344684 0.9866539
vt 0.383629 0.9907722
vt 0.5239275 0.9604554
vt 0.08961608 0.9866537
vt 0.0001577172 0.9604545
vt 0.1404554 0.9907722
vt 0.5186731 0.01854979
vt 0.5911492 0.5009636
vt 0.5911492 0.01854979
vt 0.5186731 0.5009636
vt 0.6862005 0.5009636
vt 0.6862005 0.01854979
vt 0.7868226 0.5009636
vt 0.7868226 0.01854979
vt 0.8819287 0.5009636
vt 0.8819287 0.01854979
vt 0.9544048 0.5009636
vt 0.9544048 0.01854979
vt 0.5911057 0.6379088
vt 0.5312914 0.6379088
vt 0.6862005 0.6379088
vt 0.8819287 0.6379088
vt 0.7868226 0.6379088
vt 0.9417867 0.6379088
vt 0.5754532 0.7494671
vt 0.4922928 0.7211966
vt 0.6179876 0.7488126
vt 0.8976246 0.749467
vt 0.8550904 0.7488126
vt 0.9807851 0.7211965
vt 0.5641074 0.8240547
vt 0.474646 0.7978605
vt 0.6149493 0.8281721
vt 0.9089707 0.8240547
vt 0.8581287 0.8281721
vt 0.9984317 0.7978605
vt 0.03436724 0.1593079
vt 0.3565181 0.0654098
vt 0.37107 0.1593079
vt 0.1461548 0.01011826
vt 0.2592824 0.01011826
vt 0.048919 0.06540977
vt 0.9336358 0.8704404
vt 0.6173926 0.839634
vt 0.8859135 0.839634
vt 0.5696704 0.8704404
vt 0.5492143 0.98535
vt 0.9540917 0.9853499
vt 0.5696704 0.8704404
vt 0.9540917 0.9853499
vt 0.9336357 0.8704404
vt 0.5492143 0.98535
vt 0.6173926 0.839634
vt 0.8859134 0.839634
vt 0.048919 0.06540977
vt 0.2592824 0.01011826
vt 0.1461549 0.01011826
vt 0.37107 0.1593079
vt 0.3565181 0.0654098
vt 0.03436724 0.1593079
vn 0.9748361 -0.222923 0
vn 0.6082832 -0.7886612 -0.08947112
vn 0.6058553 -0.7955748 -1.32181E-07
vn 0.9704396 -0.2165653 -0.1065202
vn -0.001901838 -0.9973444 -0.07280538
vn 0 -1 -1.64863E-07
vn 0.9748361 0.222923 0
vn 0.9687422 0.2212807 -0.1121311
vn 0.605855 0.7955751 1.21502E-07
vn 0.6101775 0.7861642 -0.09812974
vn 0 1 1.64863E-07
vn 0.00190183 0.9973444 -0.07280505
vn 0.6142752 -0.7566332 0.2239917
vn 0.9842494 -0.1552757 0.0845146
vn -0.00234021 -0.9771487 0.2125444
vn 0.6059065 0.7565111 0.2461062
vn 0.002339887 0.9771485 0.2125448
vn 0.9831775 0.1569987 0.093345
vn 0.5787911 -0.7639827 0.2851863
vn 0.9229839 -0.2771453 0.2670038
vn 0.0001364176 -0.9640735 0.2656356
vn 0.5742598 0.7709058 0.2755539
vn -0.0001373675 0.9640734 0.2656358
vn 0.9316743 0.2695981 0.2435156
vn 0.5955133 -0.8033454 4.320315E-06
vn 0.9687641 -0.2479839 7.029106E-06
vn 9.013285E-07 -1 0
vn 0.5955134 0.8033454 4.339528E-06
vn 9.304033E-07 1 0
vn 0.9687641 0.2479837 7.076227E-06
vn 0 -1 -1.64863E-07
vn -0.6101777 -0.7861639 -0.09813
vn -0.6058552 -0.7955749 -1.21502E-07
vn -0.001901838 -0.9973444 -0.07280538
vn -0.9687422 -0.2212807 -0.1121312
vn -0.9748361 -0.2229229 0
vn -0.9704396 0.2165653 -0.1065201
vn -0.9748361 0.2229229 0
vn -0.608283 0.7886613 -0.08947089
vn -0.605855 0.7955751 1.321811E-07
vn 0.00190183 0.9973444 -0.07280505
vn 0 1 1.64863E-07
vn -0.6059073 -0.756511 0.2461044
vn -0.00234021 -0.9771487 0.2125444
vn -0.9831778 -0.1569987 0.09334257
vn -0.6142758 0.756633 0.2239906
vn -0.9842495 0.1552757 0.08451224
vn 0.002339887 0.9771485 0.2125448
vn -0.574262 -0.770906 0.2755485
vn 0.0001364176 -0.9640735 0.2656356
vn -0.9316763 -0.2695987 0.2435069
vn -0.5787933 0.7639829 0.285181
vn -0.9229863 0.2771455 0.2669954
vn -0.0001373675 0.9640734 0.2656358
vn -0.5955114 -0.8033469 -4.339518E-06
vn 9.013285E-07 -1 0
vn -0.9687641 -0.2479841 -7.076223E-06
vn -0.5955114 0.8033469 -4.3203E-06
vn -0.9687641 0.2479841 -7.029098E-06
vn 9.304033E-07 1 0
vn 0 -2.711842E-07 1
vn 0 -2.057345E-07 1
vn 0 -2.711842E-07 1
vn 0 -2.312868E-07 1
vn -8.407902E-07 0 1
vn 0 -4.44944E-07 1
vn 1.247121E-06 1.734905E-07 -1
vn 2.8348E-06 1.096047E-07 -1
vn 3.286295E-06 1.469316E-07 -1
vn 1.389498E-06 1.08401E-07 -1
vn 0 1.595423E-07 -1
vn 0 1.595423E-07 -1
vn 0 1.664089E-07 -1
vn 0 1.595423E-07 -1
vn 1.321142E-07 1.154825E-07 -1
vn 0 1.595423E-07 -1
vn 3.201407E-06 1.096046E-07 -1
vn 2.749912E-06 1.469314E-07 -1
vn 0 -2.057345E-07 1
vn 0 -2.312869E-07 1
vn -8.407904E-07 0 1
vn 0 -2.711842E-07 1
vn 0 -4.449442E-07 1
vn 0 -2.711842E-07 1
g foregrip_all_magpul_rvg_LOD1_0
f 3/3/3 2/2/2 1/1/1
f 4/4/4 1/1/1 2/2/2
f 2/2/2 3/3/3 5/5/5
f 6/6/6 5/5/5 3/3/3
f 1/1/1 4/4/4 7/7/7
f 8/8/8 7/7/7 4/4/4
f 7/7/7 8/8/8 9/9/9
f 10/10/10 9/9/9 8/8/8
f 9/9/9 10/10/10 11/11/11
f 12/12/12 11/11/11 10/10/10
f 2/2/2 13/13/13 4/4/4
f 14/14/14 4/4/4 13/13/13
f 4/4/4 14/14/14 8/8/8
f 5/5/5 15/15/15 2/2/2
f 13/13/13 2/2/2 15/15/15
f 10/10/10 16/16/16 12/12/12
f 17/17/17 12/12/12 16/16/16
f 8/8/8 18/18/18 10/10/10
f 16/16/16 10/10/10 18/18/18
f 18/18/18 8/8/8 14/14/14
f 13/13/13 19/19/19 14/14/14
f 20/20/20 14/14/14 19/19/19
f 14/14/14 20/20/20 18/18/18
f 15/15/15 21/21/21 13/13/13
f 19/19/19 13/13/13 21/21/21
f 16/16/16 22/22/22 17/17/17
f 23/23/23 17/17/17 22/22/22
f 18/18/18 24/24/24 16/16/16
f 22/22/22 16/16/16 24/24/24
f 24/24/24 18/18/18 20/20/20
f 19/19/19 25/25/25 20/20/20
f 26/26/26 20/20/20 25/25/25
f 20/20/20 26/26/26 24/24/24
f 21/21/21 27/27/27 19/19/19
f 25/25/25 19/19/19 27/27/27
f 22/22/22 28/28/28 23/23/23
f 29/29/29 23/23/23 28/28/28
f 24/24/24 30/30/30 22/22/22
f 28/28/28 22/22/22 30/30/30
f 30/30/30 24/24/24 26/26/26
f 33/33/33 32/32/32 31/31/31
f 34/34/34 31/31/31 32/32/32
f 32/32/32 33/33/33 35/35/35
f 36/36/36 35/35/35 33/33/33
f 35/35/35 36/36/36 37/37/37
f 38/38/38 37/37/37 36/36/36
f 37/37/37 38/38/38 39/39/39
f 40/40/40 39/39/39 38/38/38
f 39/39/39 40/40/40 41/41/41
f 42/42/42 41/41/41 40/40/40
f 32/32/32 43/43/43 34/34/34
f 44/44/44 34/34/34 43/43/43
f 35/35/35 45/45/45 32/32/32
f 43/43/43 32/32/32 45/45/45
f 39/39/39 46/46/46 37/37/37
f 47/47/47 37/37/37 46/46/46
f 37/37/37 47/47/47 35/35/35
f 45/45/45 35/35/35 47/47/47
f 41/41/41 48/48/48 39/39/39
f 46/46/46 39/39/39 48/48/48
f 43/43/43 49/49/49 44/44/44
f 50/50/50 44/44/44 49/49/49
f 45/45/45 51/51/51 43/43/43
f 49/49/49 43/43/43 51/51/51
f 46/46/46 52/52/52 47/47/47
f 53/53/53 47/47/47 52/52/52
f 47/47/47 53/53/53 45/45/45
f 51/51/51 45/45/45 53/53/53
f 48/48/48 54/54/54 46/46/46
f 52/52/52 46/46/46 54/54/54
f 49/49/49 55/55/55 50/50/50
f 56/56/56 50/50/50 55/55/55
f 51/51/51 57/57/57 49/49/49
f 55/55/55 49/49/49 57/57/57
f 52/52/52 58/58/58 53/53/53
f 59/59/59 53/53/53 58/58/58
f 53/53/53 59/59/59 51/51/51
f 57/57/57 51/51/51 59/59/59
f 54/54/54 60/60/60 52/52/52
f 58/58/58 52/52/52 60/60/60
f 63/63/63 62/62/62 61/61/61
f 62/62/62 64/64/64 61/61/61
f 65/65/65 64/64/64 62/62/62
f 61/61/61 64/64/64 66/66/66
f 69/69/69 68/68/68 67/67/67
f 70/70/70 67/67/67 68/68/68
f 70/70/70 71/71/71 67/67/67
f 72/72/72 67/67/67 71/71/71
f 75/75/75 74/74/74 73/73/73
f 76/76/76 73/73/73 74/74/74
f 73/73/73 77/77/77 75/75/75
f 78/78/78 75/75/75 77/77/77
f 81/81/81 80/80/80 79/79/79
f 80/80/80 82/82/82 79/79/79
f 83/83/83 82/82/82 80/80/80
f 79/79/79 82/82/82 84/84/84
