g foregrip_m-lok_magpul_m-lok_afg_LOD1
v -0.01003019 0.07359625 0.04521376
v -0.01003019 0.06697162 0.04521375
v -0.01314962 0.06697162 0.03374791
v -0.01314963 0.07676282 0.02819384
v -0.01314964 0.07676283 -3.250526E-06
v -0.01314963 0.01895744 0.01091716
v -0.01314963 -0.02950886 -3.269107E-06
v -0.01045582 -0.01917397 0.008171148
v -0.007244785 -0.0225636 0.01785373
v -0.007244783 -0.02950886 0.01785373
v -0.01003019 0.07359625 0.04521376
v 0.009804015 0.07359625 0.04521375
v 0.009804016 0.06697162 0.04521375
v -0.01003019 0.06697162 0.04521375
v -0.01314963 0.07676282 0.02819384
v 0.01292344 0.07676282 0.02819384
v 0.009804015 0.07359625 0.04521375
v -0.01003019 0.07359625 0.04521376
v 0.01292343 0.07676283 -3.2553E-06
v -0.01314964 0.07676283 -3.250526E-06
v -0.01314963 -0.02950886 -3.269107E-06
v -0.007244783 -0.02950886 0.01785373
v 0.007018613 -0.02950887 0.01785373
v 0.01292344 -0.02950887 -3.273881E-06
v -0.01314964 0.07676283 -3.250526E-06
v -0.01314963 -0.02950886 -3.269107E-06
v 0.01292344 -0.02950887 -3.273881E-06
v 0.01292343 0.07676283 -3.2553E-06
v 0.009804016 0.06697162 0.04521375
v 0.01292344 0.06697162 0.03374791
v -0.01314962 0.06697162 0.03374791
v -0.01003019 0.06697162 0.04521375
v 0.01022606 -0.01917397 0.008171146
v 0.007018612 -0.0225636 0.01785373
v -0.007244785 -0.0225636 0.01785373
v -0.01045582 -0.01917397 0.008171148
v 0.007018613 -0.02950887 0.01785373
v -0.007244783 -0.02950886 0.01785373
v -0.007244785 -0.0225636 0.01785373
v 0.007018612 -0.0225636 0.01785373
v 0.01022606 -0.01917397 0.008171146
v -0.01045582 -0.01917397 0.008171148
v -0.01314963 0.01895744 0.01091716
v 0.01292344 0.01895744 0.01091716
v 0.01292344 0.06697162 0.03374791
v 0.01292344 0.01895744 0.01091716
v -0.01314963 0.01895744 0.01091716
v -0.01314962 0.06697162 0.03374791
v 0.01292344 0.06697162 0.03374791
v 0.009804016 0.06697162 0.04521375
v 0.009804015 0.07359625 0.04521375
v 0.01292344 0.07676282 0.02819384
v 0.01292343 0.07676283 -3.2553E-06
v 0.01292344 0.01895744 0.01091716
v 0.01292344 -0.02950887 -3.273881E-06
v 0.01022606 -0.01917397 0.008171146
v 0.007018612 -0.0225636 0.01785373
v 0.007018613 -0.02950887 0.01785373
vt 0.9711154 0.002
vt 0.9092178 0.002
vt 0.9066869 0.1127414
vt 0.9979999 0.1650431
vt 0.9979999 0.4290707
vt 0.4563228 0.3263277
vt 0.002 0.4290715
vt 0.0986445 0.3495461
vt 0.06717378 0.2533516
vt 0.002 0.2533516
vt 0.4310721 0.2604293
vt 0.2451818 0.2604293
vt 0.2451818 0.3225167
vt 0.4310721 0.3225167
vt 0.6997229 0.9842147
vt 0.699723 0.6939123
vt 0.5244914 0.7286445
vt 0.5244914 0.9494823
vt 0.9851331 0.6939124
vt 0.985133 0.9842147
vt 0.4942611 0.2735755
vt 0.6783564 0.2126999
vt 0.6783563 0.06565254
vt 0.494261 0.004776956
vt 0.998 0.4412053
vt 0.002 0.4412053
vt 0.002 0.6855674
vt 0.998 0.6855675
vt 0.4826695 0.0386739
vt 0.3752094 0.009437876
vt 0.3752095 0.2538001
vt 0.4826697 0.2245641
vt 0.6663908 0.004996688
vt 0.7024235 0.1203732
vt 0.862839 0.1203732
vt 0.8989524 0.004996688
vt 0.09592162 0.3220686
vt 0.229601 0.3220686
vt 0.229601 0.2569761
vt 0.09592162 0.2569761
vt 0.005250451 0.03363523
vt 0.00525057 0.2274365
vt 0.3635514 0.2526831
vt 0.3635511 0.008320925
vt 0.005308433 0.9846689
vt 0.5035894 0.9846686
vt 0.5035894 0.7012083
vt 0.005308373 0.7012087
vt 0.9066869 1.112741
vt 0.9092178 1.002
vt 0.9711154 1.002
vt 0.9979999 1.165043
vt 0.9979999 1.429071
vt 0.4563229 1.326328
vt 0.001999974 1.429071
vt 0.0986445 1.349546
vt 0.06717372 1.253352
vt 0.001999974 1.253352
vn -0.9723322 0.07486688 0.22128
vn -0.9723322 0.07486688 0.22128
vn -0.9934301 0.03667686 0.1084041
vn -0.9975523 0.02240998 0.0662363
vn -0.9999398 -0.002412676 0.01070769
vn -0.997128 -0.01664743 0.07388345
vn -0.9762374 -0.009377742 0.2165007
vn -0.9817925 -0.01173808 0.1895936
vn -0.9493656 -0.0006234148 0.3141728
vn -0.9493656 -0.0006234148 0.3141729
vn 2.404115E-07 -7.197937E-07 1
vn 2.404115E-07 -7.197937E-07 1
vn 2.404115E-07 -7.197937E-07 1
vn 2.404115E-07 -7.197937E-07 1
vn 0 0.9962677 0.0863173
vn 0 0.9962677 0.08631732
vn 0 0.9831294 0.1829116
vn 0 0.9831294 0.1829116
vn 0 1 1.691086E-07
vn 0 1 1.691086E-07
vn -2.364298E-07 -1 -1.335154E-07
vn -2.364298E-07 -1 -1.335154E-07
vn -2.364298E-07 -1 -1.335154E-07
vn -2.364298E-07 -1 -1.335154E-07
vn -1.831193E-07 1.748448E-07 -1
vn -1.831194E-07 1.748448E-07 -1
vn -1.831194E-07 1.748448E-07 -1
vn -1.831194E-07 1.748448E-07 -1
vn 0 -1 -4.158765E-07
vn 0 -1 -4.158765E-07
vn 0 -1 -4.158765E-07
vn 0 -1 -4.158765E-07
vn 0 0.9438363 0.3304132
vn 0 0.9438363 0.3304131
vn 0 0.9438363 0.3304132
vn 0 0.9438363 0.3304131
vn 1.253656E-07 0 1
vn 1.253656E-07 0 1
vn 1.253656E-07 0 1
vn 1.253656E-07 0 1
vn 1.817368E-07 -0.07182842 0.997417
vn 1.817368E-07 -0.07182842 0.997417
vn 1.817368E-07 -0.07182843 0.997417
vn 1.817368E-07 -0.07182842 0.997417
vn 1.97794E-07 -0.4294253 0.9031023
vn 1.97794E-07 -0.4294253 0.9031023
vn 1.97794E-07 -0.4294253 0.9031023
vn 1.97794E-07 -0.4294253 0.9031023
vn 0.9934302 0.03667708 0.1084035
vn 0.9723324 0.07486708 0.2212795
vn 0.9723324 0.07486708 0.2212795
vn 0.9975523 0.02241017 0.06623562
vn 0.9999397 -0.00241563 0.01072111
vn 0.9971204 -0.01666916 0.07398014
vn 0.97624 -0.009254719 0.216494
vn 0.9817876 -0.01164601 0.1896247
vn 0.9493939 -0.0003820492 0.3140877
vn 0.9493939 -0.0003820492 0.3140877
g foregrip_m-lok_magpul_m-lok_afg_LOD1_0
f 3/3/3 2/2/2 1/1/1
f 4/4/4 3/3/3 1/1/1
f 5/5/5 3/3/3 4/4/4
f 5/5/5 6/6/6 3/3/3
f 6/6/6 5/5/5 7/7/7
f 8/8/8 6/6/6 7/7/7
f 9/9/9 8/8/8 7/7/7
f 10/10/10 9/9/9 7/7/7
f 13/13/13 12/12/12 11/11/11
f 14/14/14 13/13/13 11/11/11
f 17/17/17 16/16/16 15/15/15
f 18/18/18 17/17/17 15/15/15
f 16/16/16 19/19/19 15/15/15
f 19/19/19 20/20/20 15/15/15
f 23/23/23 22/22/22 21/21/21
f 24/24/24 23/23/23 21/21/21
f 27/27/27 26/26/26 25/25/25
f 28/28/28 27/27/27 25/25/25
f 31/31/31 30/30/30 29/29/29
f 32/32/32 31/31/31 29/29/29
f 35/35/35 34/34/34 33/33/33
f 36/36/36 35/35/35 33/33/33
f 39/39/39 38/38/38 37/37/37
f 40/40/40 39/39/39 37/37/37
f 43/43/43 42/42/42 41/41/41
f 44/44/44 43/43/43 41/41/41
f 47/47/47 46/46/46 45/45/45
f 48/48/48 47/47/47 45/45/45
f 51/51/51 50/50/50 49/49/49
f 52/52/52 51/51/51 49/49/49
f 49/49/49 53/53/53 52/52/52
f 54/54/54 53/53/53 49/49/49
f 55/55/55 53/53/53 54/54/54
f 56/56/56 55/55/55 54/54/54
f 56/56/56 57/57/57 55/55/55
f 57/57/57 58/58/58 55/55/55
