g foregrip_t5000_orsis_t5000m_pad_std_LOD1
v 0.02622315 -0.05461191 -0.004383835
v 0.02622315 0.08739724 -0.008492182
v 0.02272802 0.08655284 -0.01634785
v 0.0228609 -0.05461191 -0.01226761
v 0.02205266 -0.06254143 -0.01103994
v 0.01399438 -0.05463096 -0.01537221
v 0.02468911 -0.06371506 -0.003727593
v 0.0143452 -0.06230699 -0.01295135
v 0.01635995 -0.06961102 -0.008403593
v 0.01800267 -0.07064798 -0.003360393
v 0.01800389 -0.07106657 0.0005076695
v 0.009324901 -0.07401437 -0.003979868
v 0.008298974 -0.07272365 -0.006936971
v -2.656945E-05 -0.07422295 -0.005454275
v -2.656945E-05 -0.07327244 -0.006942367
v -2.656945E-05 -0.07118227 -0.008724608
v -2.656945E-05 -0.05463096 -0.01537221
v 0.02445842 -0.06338155 0.006569007
v 0.02622314 -0.05461189 0.009558145
v 0.02622315 0.006318221 0.009558016
v 0.01083903 0.05520813 -0.01854502
v -2.656945E-05 0.05520848 -0.01854503
v 0.02619653 0.08890664 0.01141734
v 0.02622314 0.01005406 0.01136655
v -0.008352113 -0.07272365 -0.006936971
v -0.009378039 -0.07401437 -0.003979868
v -0.01641309 -0.06961102 -0.008403593
v -0.01439834 -0.06230699 -0.01295135
v -0.0221058 -0.06254143 -0.01103994
v -0.01805581 -0.07064798 -0.003360393
v -0.01805703 -0.07106657 0.0005076695
v -0.02474225 -0.06371506 -0.003727593
v -0.02627629 -0.05461191 -0.004383835
v -0.01404752 -0.05463096 -0.01537221
v -0.02291404 -0.05461191 -0.01226761
v -0.02278116 0.08655284 -0.01634785
v -0.02627629 0.08739724 -0.008492182
v -0.02627628 -0.05461189 0.009558145
v -0.02627629 0.006318221 0.009558016
v -0.02451156 -0.06338155 0.006569007
v -0.01089217 0.05520813 -0.01854502
v -0.01428252 0.05958612 -0.01867148
v -0.01433789 0.08649705 -0.01944884
v -0.02624967 0.08890664 0.01141734
v -0.02627628 0.01005406 0.01136655
v 0.01422939 0.05958612 -0.01867148
v 0.01428476 0.08649705 -0.01944884
v 0.02006987 0.01218681 0.01823696
v 0.02622314 0.01005406 0.01136655
v 0.01989254 0.01005407 0.01136655
v 0.01995335 0.006318216 0.009558014
v 0.02622315 0.006318221 0.009558016
v 0.01459159 0.08966485 -0.01227626
v 0.02272802 0.08655284 -0.01634785
v 0.02622315 0.08739724 -0.008492182
v 0.02619653 0.08890664 0.01141734
v 0.02007586 0.09217183 0.01823687
v 0.01428476 0.08649705 -0.01944884
v 0.009324901 -0.07401437 -0.003979868
v -2.656945E-05 -0.07422295 -0.005454275
v -2.656945E-05 0.006318212 -0.005414178
v 0.01747334 0.006318212 0.0008264756
v 0.01800389 -0.07106657 0.0005076695
v 0.02622315 0.006318221 0.009558016
v 0.02622314 -0.05461189 0.009558145
v 0.01083903 0.05520814 -0.01076608
v -2.656945E-05 0.05520849 -0.0107661
v 0.02445842 -0.06338155 0.006569007
v 0.0148225 0.06035201 -0.01099153
v -0.009378039 -0.07401437 -0.003979868
v -0.01752648 0.006318212 0.0008264756
v -0.01805703 -0.07106657 0.0005076695
v -0.02627629 0.006318221 0.009558016
v -0.02627628 -0.05461189 0.009558145
v -0.01089216 0.05520814 -0.01076608
v -0.02451156 -0.06338155 0.006569007
v -0.01487564 0.06035201 -0.01099153
v 0.01747334 0.006318212 0.0008264756
v 0.01995335 0.006318216 0.009558014
v 0.02622315 0.006318221 0.009558016
v 0.01083903 0.05520814 -0.01076608
v 0.01083903 0.05520813 -0.01854502
v 0.01422939 0.05958612 -0.01867148
v 0.0148225 0.06035201 -0.01099153
v -2.656945E-05 0.05520848 -0.01854503
v -2.656945E-05 0.05520849 -0.0107661
v 0.01428476 0.08649705 -0.01944884
v 0.0148225 0.06035201 -0.01099153
v 0.01422939 0.05958612 -0.01867148
v 0.01459159 0.08966485 -0.01227626
v 0.02007586 0.09217183 0.01823687
v 0.01989254 0.01005407 0.01136655
v 0.02006987 0.01218681 0.01823696
v 0.01747334 0.006318212 0.0008264756
v 0.01995335 0.006318216 0.009558014
v 0.02619653 0.08890664 0.01141734
v 0.02622314 0.01005406 0.01136655
v 0.02006987 0.01218681 0.01823696
v 0.02007586 0.09217183 0.01823687
v -0.020123 0.01218681 0.01823696
v -0.01994568 0.01005407 0.01136655
v -0.02627628 0.01005406 0.01136655
v -0.02000649 0.006318216 0.009558014
v -0.02627629 0.006318221 0.009558016
v -0.01464473 0.08966485 -0.01227626
v -0.02627629 0.08739724 -0.008492182
v -0.02278116 0.08655284 -0.01634785
v -0.02624967 0.08890664 0.01141734
v -0.020129 0.09217183 0.01823687
v -0.01433789 0.08649705 -0.01944884
v -0.01752648 0.006318212 0.0008264756
v -0.02627629 0.006318221 0.009558016
v -0.02000649 0.006318216 0.009558014
v -0.01089216 0.05520814 -0.01076608
v -0.01487564 0.06035201 -0.01099153
v -0.01428252 0.05958612 -0.01867148
v -0.01089217 0.05520813 -0.01854502
v -2.656945E-05 0.05520848 -0.01854503
v -2.656945E-05 0.05520849 -0.0107661
v -0.01433789 0.08649705 -0.01944884
v -0.01428252 0.05958612 -0.01867148
v -0.01487564 0.06035201 -0.01099153
v -0.01464473 0.08966485 -0.01227626
v -0.020129 0.09217183 0.01823687
v -0.01994568 0.01005407 0.01136655
v -0.020123 0.01218681 0.01823696
v -0.01752648 0.006318212 0.0008264756
v -0.02000649 0.006318216 0.009558014
v -0.020123 0.01218681 0.01823696
v -0.02627628 0.01005406 0.01136655
v -0.02624967 0.08890664 0.01141734
v -0.020129 0.09217183 0.01823687
v -0.002107178 -0.03288961 0.01145411
v 0.002106047 -0.03288961 0.01145411
v 0.002106047 -0.02867638 0.01145411
v -0.002107178 -0.02867638 0.01145411
v -0.002107178 -0.03288963 -0.005482985
v 0.002106047 -0.03288963 -0.005482985
v 0.002106047 -0.03288961 0.01145411
v -0.002107178 -0.03288961 0.01145411
v 0.002106047 -0.02867638 0.01145411
v 0.002106047 -0.0286764 -0.005482991
v -0.002107178 -0.02867638 0.01145411
v -0.002107178 -0.0286764 -0.005482991
v -0.002107178 -0.0286764 -0.005482991
v -0.002107178 -0.02867638 0.01145411
vt 0.4722791 0.1154626
vt 0.4873126 0.8200696
vt 0.4434271 0.817615
vt 0.4318695 0.1240367
vt 0.4278301 0.08924182
vt 0.3893332 0.125729
vt 0.4585082 0.07193772
vt 0.3928398 0.08953655
vt 0.4086824 0.05174196
vt 0.4285945 0.03383375
vt 0.4427437 0.01575739
vt 0.3812873 0.01019007
vt 0.3712695 0.02738672
vt 0.3258744 0.009289801
vt 0.3258268 0.01955819
vt 0.3257599 0.03399524
vt 0.3253457 0.1236199
vt 0.5070584 0.04847176
vt 0.5434746 0.09097871
vt 0.5595597 0.4141485
vt 0.3775725 0.6575239
vt 0.322877 0.6573764
vt 0.5863669 0.8233156
vt 0.5694147 0.4322449
vt 0.2803134 0.02696638
vt 0.2704549 0.009677844
vt 0.242677 0.05097494
vt 0.2581696 0.0889143
vt 0.2231836 0.08829603
vt 0.2229313 0.0328835
vt 0.2089498 0.01467726
vt 0.1926668 0.07070918
vt 0.1784943 0.1141048
vt 0.2613415 0.1251375
vt 0.2188227 0.123052
vt 0.2008502 0.8164912
vt 0.1569438 0.8185395
vt 0.1075286 0.08896373
vt 0.08845522 0.4119696
vt 0.144336 0.04679563
vt 0.2681826 0.6570175
vt 0.2509927 0.6784931
vt 0.2473849 0.8177813
vt 0.05786413 0.8208689
vt 0.07843345 0.429974
vt 0.394563 0.6791581
vt 0.396882 0.8184746
vt 0.6150584 0.4438139
vt 0.5694147 0.4322449
vt 0.5959387 0.4151071
vt 0.5852716 0.3985769
vt 0.5595597 0.4141485
vt 0.1868063 0.9336286
vt 0.2023032 0.9787178
vt 0.1608693 0.9895915
vt 0.0628589 0.9756242
vt 0.03264977 0.938023
vt 0.2251206 0.9403976
vt 0.7049821 0.008993689
vt 0.7512264 0.007134993
vt 0.7593365 0.4078032
vt 0.6666684 0.4074222
vt 0.6569529 0.02460076
vt 0.6055169 0.4088646
vt 0.5984075 0.1074404
vt 0.7104758 0.6549679
vt 0.7643176 0.6538615
vt 0.6138003 0.06338003
vt 0.6908026 0.6809341
vt 0.797508 0.007120889
vt 0.851913 0.4036725
vt 0.8461293 0.02077168
vt 0.9130727 0.402639
vt 0.9079788 0.1011745
vt 0.8181602 0.6527877
vt 0.8908158 0.05777298
vt 0.8388681 0.6779359
vt 0.5737563 0.3566105
vt 0.5852716 0.3985769
vt 0.5595597 0.4141485
vt 0.8892937 0.9358281
vt 0.889294 0.9743984
vt 0.8618387 0.9750257
vt 0.8570352 0.9369463
vt 0.9431688 0.974398
vt 0.9431685 0.9358277
vt 0.7758048 0.8036066
vt 0.6460824 0.8453531
vt 0.6423639 0.8071526
vt 0.7914392 0.8392347
vt 0.8034951 0.9929816
vt 0.3963793 0.9583398
vt 0.4069067 0.9924311
vt 0.3780032 0.9046695
vt 0.3777102 0.9496742
vt 0.5863669 0.8233156
vt 0.5694147 0.4322449
vt 0.6150584 0.4438139
vt 0.6321589 0.8374224
vt 0.03268487 0.4411202
vt 0.05206924 0.4125918
vt 0.07843345 0.429974
vt 0.06288866 0.3961612
vt 0.08845522 0.4119696
vt 0.3459542 0.7122294
vt 0.2897723 0.7376888
vt 0.3009986 0.6963491
vt 0.3029045 0.8358145
vt 0.3402471 0.8663428
vt 0.3395121 0.673859
vt 0.07479113 0.3543034
vt 0.08845522 0.4119696
vt 0.06288866 0.3961612
vt 0.1112724 0.9066675
vt 0.07899588 0.9063874
vt 0.08280871 0.8681961
vt 0.1102712 0.8681102
vt 0.1641278 0.8667116
vt 0.1651291 0.9052688
vt 0.8019047 0.8711643
vt 0.804954 0.7377111
vt 0.8431681 0.7412875
vt 0.8375906 0.886666
vt 0.9913815 0.8981501
vt 0.9552256 0.491166
vt 0.9893558 0.5015665
vt 0.9014872 0.4729894
vt 0.9464911 0.4725293
vt 0.03268487 0.4411202
vt 0.07843345 0.429974
vt 0.05786413 0.8208689
vt 0.01194359 0.834551
vt 0.2197967 0.8829767
vt 0.1989062 0.8829767
vt 0.1989062 0.903867
vt 0.2197967 0.9038669
vt 0.2699699 0.9812152
vt 0.2908602 0.9812152
vt 0.2908602 0.8972361
vt 0.2699699 0.8972361
vt 0.3117506 0.8972361
vt 0.3117506 0.9812152
vt 0.332641 0.8972361
vt 0.3326411 0.9812152
vt 0.2490795 0.9812152
vt 0.2490796 0.8972361
vn 0.9763144 -0.08687887 -0.1981477
vn 0.9807101 -0.00531673 -0.1953958
vn 0.6919127 -0.0209331 -0.7216777
vn 0.6792765 -0.09851429 -0.7272402
vn 0.6185726 -0.3983469 -0.6772649
vn 0.1524452 -0.1488689 -0.9770356
vn 0.8774848 -0.4474564 -0.172636
vn 0.1053444 -0.388333 -0.9154781
vn 0.3613578 -0.7055258 -0.6096342
vn 0.5534548 -0.8071145 -0.2055577
vn 0.6147772 -0.786991 -0.05190498
vn 0.2265348 -0.890237 -0.3951708
vn 0.1189036 -0.7610214 -0.6377369
vn 0 -0.8856843 -0.4642881
vn 0 -0.7845928 -0.6200114
vn 0 -0.5373124 -0.8433834
vn 0 -0.1917837 -0.9814372
vn 0.9265267 -0.3747877 0.03290121
vn 0.9965146 -0.08316012 0.006556488
vn 1 4.768376E-05 0
vn 0 -0.02887246 -0.9995831
vn 0 -0.02887246 -0.9995831
vn 0.9999992 0.0002980233 0.001287461
vn 0.9999998 0.0003337862 -0.0006914143
vn -0.1189036 -0.7610214 -0.6377369
vn -0.2265348 -0.890237 -0.3951708
vn -0.3613578 -0.7055258 -0.6096342
vn -0.1053444 -0.388333 -0.9154781
vn -0.6185726 -0.3983469 -0.6772649
vn -0.5534548 -0.8071145 -0.2055577
vn -0.6147772 -0.786991 -0.05190498
vn -0.8774848 -0.4474564 -0.172636
vn -0.9763144 -0.08687887 -0.1981477
vn -0.1524452 -0.1488689 -0.9770356
vn -0.6792765 -0.09851429 -0.7272402
vn -0.6919127 -0.0209331 -0.7216777
vn -0.9807101 -0.00531673 -0.1953958
vn -0.9965146 -0.08316012 0.006556488
vn -1 4.768376E-05 0
vn -0.9265267 -0.3747877 0.03290121
vn 0 -0.02887246 -0.9995831
vn -0.2815478 -0.02787107 -0.9591423
vn -0.3447883 -0.02781147 -0.9382684
vn -0.9999992 0.0002980233 0.001287461
vn -0.9999998 0.0003337862 -0.0006914143
vn 0.2815478 -0.02787107 -0.9591423
vn 0.3447883 -0.02781147 -0.9382684
vn 0 -0.9550425 0.2964689
vn 0 -0.6704388 0.7419649
vn 0 -0.7571371 0.653256
vn 0 -0.4357329 0.900076
vn 0 -0.4357329 0.900076
vn 0.225445 0.9428587 -0.2453406
vn 0.2141474 0.9340158 -0.2859292
vn 0.2713912 0.9520743 -0.1410719
vn 0.2792603 0.9543201 -0.1062395
vn 0.2792571 0.9543211 -0.1062383
vn 0.1427646 0.9031149 -0.4049713
vn -0.351209 -0.01173021 0.9362236
vn 0 -0.0155447 0.9998792
vn 0 0.07238392 0.9973769
vn -0.4284206 0.04444064 0.9024858
vn -0.5341317 -0.01907358 0.845186
vn -0.7214237 -0.004386859 0.69248
vn -0.7078677 -0.02021798 0.7060557
vn -0.2073274 0.1799571 0.9615773
vn 0 0.1564137 0.9876916
vn -0.5666349 -0.1613643 0.8080138
vn -0.2035616 0.1996515 0.9584894
vn 0.351209 -0.01173021 0.9362236
vn 0.4284206 0.04444064 0.9024858
vn 0.5341317 -0.01907358 0.845186
vn 0.7214237 -0.004386859 0.69248
vn 0.7078677 -0.02021798 0.7060557
vn 0.2073274 0.1799571 0.9615773
vn 0.5666349 -0.1613643 0.8080138
vn 0.2035616 0.1996515 0.9584894
vn 0 -1 0
vn 0 -1 0
vn 0 -1 0
vn -0.4353634 0.9002548 0
vn -0.443457 0.8962957 -7.724993E-07
vn -0.7906407 0.6122804 -7.450553E-07
vn -0.7906407 0.6122804 0
vn 0 1 -7.237766E-07
vn 0 1 0
vn -0.9987454 -0.004410735 0.04988005
vn -0.9889573 -0.004959092 0.1481171
vn -0.9970547 0.004267693 0.07657596
vn -0.9926576 -0.002515321 0.1209321
vn -0.9845318 -0.006198922 0.1750957
vn -0.9847809 -0.03123299 0.1709708
vn -0.9996678 9.536768E-05 0.02577311
vn -0.9722071 -0.02665508 0.2326001
vn -0.9515976 -0.146341 0.2702706
vn 0.74454 -0.0001192103 0.6675778
vn 0.74454 -9.536827E-05 0.6675778
vn 0.74454 -9.536827E-05 0.6675778
vn 0.74454 -0.0001192103 0.6675778
vn 0 -0.9550425 0.2964689
vn 0 -0.7571371 0.653256
vn 0 -0.6704388 0.7419649
vn 0 -0.4357329 0.900076
vn 0 -0.4357329 0.900076
vn -0.225445 0.9428587 -0.2453406
vn -0.2713912 0.9520743 -0.1410719
vn -0.2141474 0.9340158 -0.2859292
vn -0.2792603 0.9543201 -0.1062395
vn -0.2792571 0.9543211 -0.1062383
vn -0.1427646 0.9031149 -0.4049713
vn 0 -1 0
vn 0 -1 0
vn 0 -1 0
vn 0.4353634 0.9002548 0
vn 0.7906407 0.6122804 0
vn 0.7906407 0.6122804 -7.450553E-07
vn 0.443457 0.8962957 -7.724993E-07
vn 0 1 -7.237766E-07
vn 0 1 0
vn 0.9987454 -0.004410735 0.04988005
vn 0.9970547 0.004267693 0.07657596
vn 0.9889573 -0.004959092 0.1481171
vn 0.9926576 -0.002515321 0.1209321
vn 0.9845318 -0.006198922 0.1750957
vn 0.9847809 -0.03123299 0.1709708
vn 0.9996678 9.536768E-05 0.02577311
vn 0.9722071 -0.02665508 0.2326001
vn 0.9515976 -0.146341 0.2702706
vn -0.74454 -9.536827E-05 0.6675778
vn -0.74454 -9.536827E-05 0.6675778
vn -0.74454 -0.0001192103 0.6675778
vn -0.74454 -0.0001192103 0.6675778
vn 0 0 -1
vn 0 0 -1
vn 0 0 -1
vn 0 0 -1
vn 0.7070851 0.7071284 0
vn -0.7070851 0.7071284 0
vn -0.7070851 0.7071284 0
vn 0.7070851 0.7071284 0
vn -0.7070851 -0.7071284 0
vn -0.7070851 -0.7071284 0
vn 0.7070851 -0.7071284 0
vn 0.7070851 -0.7071284 0
vn 0.7070851 -0.7071284 0
vn 0.7070851 -0.7071284 0
g foregrip_t5000_orsis_t5000m_pad_std_LOD1_0
f 3/3/3 2/2/2 1/1/1
f 4/4/4 3/3/3 1/1/1
f 4/4/4 1/1/1 5/5/5
f 4/4/4 5/5/5 6/6/6
f 5/5/5 1/1/1 7/7/7
f 8/8/8 6/6/6 5/5/5
f 9/9/9 8/8/8 5/5/5
f 9/9/9 5/5/5 10/10/10
f 7/7/7 10/10/10 5/5/5
f 10/10/10 7/7/7 11/11/11
f 10/10/10 11/11/11 12/12/12
f 10/10/10 12/12/12 9/9/9
f 13/13/13 9/9/9 12/12/12
f 13/13/13 12/12/12 14/14/14
f 15/15/15 13/13/13 14/14/14
f 15/15/15 16/16/16 13/13/13
f 13/13/13 16/16/16 9/9/9
f 8/8/8 9/9/9 16/16/16
f 17/17/17 8/8/8 16/16/16
f 6/6/6 8/8/8 17/17/17
f 18/18/18 11/11/11 7/7/7
f 18/18/18 7/7/7 19/19/19
f 1/1/1 19/19/19 7/7/7
f 19/19/19 1/1/1 20/20/20
f 21/21/21 6/6/6 17/17/17
f 22/22/22 21/21/21 17/17/17
f 1/1/1 2/2/2 20/20/20
f 23/23/23 20/20/20 2/2/2
f 23/23/23 24/24/24 20/20/20
f 16/16/16 15/15/15 25/25/25
f 25/25/25 15/15/15 14/14/14
f 26/26/26 25/25/25 14/14/14
f 27/27/27 25/25/25 26/26/26
f 16/16/16 25/25/25 27/27/27
f 28/28/28 17/17/17 16/16/16
f 27/27/27 28/28/28 16/16/16
f 28/28/28 27/27/27 29/29/29
f 29/29/29 27/27/27 30/30/30
f 26/26/26 30/30/30 27/27/27
f 31/31/31 30/30/30 26/26/26
f 32/32/32 30/30/30 31/31/31
f 30/30/30 32/32/32 29/29/29
f 33/33/33 29/29/29 32/32/32
f 34/34/34 28/28/28 29/29/29
f 29/29/29 35/35/35 34/34/34
f 33/33/33 35/35/35 29/29/29
f 36/36/36 35/35/35 33/33/33
f 37/37/37 36/36/36 33/33/33
f 38/38/38 33/33/33 32/32/32
f 33/33/33 38/38/38 39/39/39
f 37/37/37 33/33/33 39/39/39
f 32/32/32 40/40/40 38/38/38
f 31/31/31 40/40/40 32/32/32
f 28/28/28 34/34/34 17/17/17
f 17/17/17 34/34/34 41/41/41
f 22/22/22 17/17/17 41/41/41
f 41/41/41 34/34/34 42/42/42
f 35/35/35 36/36/36 42/42/42
f 34/34/34 35/35/35 42/42/42
f 36/36/36 43/43/43 42/42/42
f 39/39/39 44/44/44 37/37/37
f 45/45/45 44/44/44 39/39/39
f 47/47/47 3/3/3 46/46/46
f 46/46/46 3/3/3 4/4/4
f 6/6/6 46/46/46 4/4/4
f 6/6/6 21/21/21 46/46/46
f 50/50/50 49/49/49 48/48/48
f 50/50/50 51/51/51 49/49/49
f 51/51/51 52/52/52 49/49/49
f 55/55/55 54/54/54 53/53/53
f 55/55/55 53/53/53 56/56/56
f 53/53/53 57/57/57 56/56/56
f 58/58/58 53/53/53 54/54/54
f 61/61/61 60/60/60 59/59/59
f 62/62/62 61/61/61 59/59/59
f 63/63/63 62/62/62 59/59/59
f 64/64/64 62/62/62 63/63/63
f 65/65/65 64/64/64 63/63/63
f 61/61/61 62/62/62 66/66/66
f 67/67/67 61/61/61 66/66/66
f 63/63/63 68/68/68 65/65/65
f 62/62/62 69/69/69 66/66/66
f 70/70/70 60/60/60 61/61/61
f 71/71/71 70/70/70 61/61/61
f 71/71/71 72/72/72 70/70/70
f 71/71/71 73/73/73 72/72/72
f 73/73/73 74/74/74 72/72/72
f 75/75/75 71/71/71 61/61/61
f 67/67/67 75/75/75 61/61/61
f 76/76/76 72/72/72 74/74/74
f 77/77/77 71/71/71 75/75/75
f 80/80/80 79/79/79 78/78/78
f 83/83/83 82/82/82 81/81/81
f 84/84/84 83/83/83 81/81/81
f 82/82/82 85/85/85 81/81/81
f 85/85/85 86/86/86 81/81/81
f 89/89/89 88/88/88 87/87/87
f 87/87/87 88/88/88 90/90/90
f 91/91/91 90/90/90 88/88/88
f 92/92/92 91/91/91 88/88/88
f 92/92/92 93/93/93 91/91/91
f 88/88/88 94/94/94 92/92/92
f 95/95/95 92/92/92 94/94/94
f 98/98/98 97/97/97 96/96/96
f 99/99/99 98/98/98 96/96/96
f 102/102/102 101/101/101 100/100/100
f 103/103/103 101/101/101 102/102/102
f 104/104/104 103/103/103 102/102/102
f 107/107/107 106/106/106 105/105/105
f 106/106/106 108/108/108 105/105/105
f 108/108/108 109/109/109 105/105/105
f 105/105/105 110/110/110 107/107/107
f 113/113/113 112/112/112 111/111/111
f 116/116/116 115/115/115 114/114/114
f 117/117/117 116/116/116 114/114/114
f 117/117/117 114/114/114 118/118/118
f 114/114/114 119/119/119 118/118/118
f 122/122/122 121/121/121 120/120/120
f 122/122/122 120/120/120 123/123/123
f 123/123/123 124/124/124 122/122/122
f 124/124/124 125/125/125 122/122/122
f 126/126/126 125/125/125 124/124/124
f 127/127/127 122/122/122 125/125/125
f 125/125/125 128/128/128 127/127/127
f 131/131/131 130/130/130 129/129/129
f 132/132/132 131/131/131 129/129/129
f 135/135/135 134/134/134 133/133/133
f 136/136/136 135/135/135 133/133/133
f 139/139/139 138/138/138 137/137/137
f 140/140/140 139/139/139 137/137/137
f 139/139/139 141/141/141 138/138/138
f 141/141/141 142/142/142 138/138/138
f 141/141/141 143/143/143 142/142/142
f 143/143/143 144/144/144 142/142/142
f 140/140/140 137/137/137 145/145/145
f 146/146/146 140/140/140 145/145/145
