g foregrip_all_vtac_uvg_LOD1
v 0.01596626 0.01743922 -0.006637312
v 0.01596626 -0.01743552 -0.006637312
v 0.01596626 -0.01743836 0.005286258
v 0.01596626 0.01743714 0.005286258
v -0.01559833 -0.01743132 -0.006637312
v -0.01559833 0.01743478 -0.006637312
v -0.01559833 0.01743687 0.005286258
v -0.01559833 -0.01742847 0.005286258
v 0.01596626 -0.01743836 0.005286258
v 0.01101839 -0.01855126 0.005286258
v 0.01101839 0.01855485 0.005286258
v 0.01596626 0.01743714 0.005286258
v -0.0111138 0.01855485 0.005286258
v -0.0111138 0.0191698 0.0123467
v -0.0111138 -0.01916621 0.01234669
v -0.0111138 -0.01855126 0.005286258
v -0.01006026 -0.01919932 0.0194717
v -0.01006026 0.0192029 0.0194717
v -0.0102991 -0.01903856 0.0777799
v -0.0102991 0.01904215 0.0777799
v 0.01101839 -0.01855126 0.005286258
v 0.01101839 -0.01916621 0.01234669
v 0.01101839 0.0191698 0.0123467
v 0.01101839 0.01855485 0.005286258
v 0.009932343 0.0192029 0.0194717
v 0.009932343 -0.01919932 0.0194717
v 0.01017118 0.01904215 0.0777799
v 0.01017118 -0.01903856 0.0777799
v -0.0111138 -0.01855126 0.005286258
v -0.0111138 -0.01916621 0.01234669
v 0.01101839 -0.01916621 0.01234669
v 0.01101839 -0.01855126 0.005286258
v 0.009932343 -0.01919932 0.0194717
v -0.01006026 -0.01919932 0.0194717
v 0.01017118 -0.01903856 0.0777799
v -0.0102991 -0.01903856 0.0777799
v 0.01101839 0.01855485 0.005286258
v 0.01101839 0.0191698 0.0123467
v -0.0111138 0.0191698 0.0123467
v -0.0111138 0.01855485 0.005286258
v -0.01006026 0.0192029 0.0194717
v 0.009932343 0.0192029 0.0194717
v -0.0102991 0.01904215 0.0777799
v 0.01017118 0.01904215 0.0777799
v -0.01536835 -0.00527184 -0.0007881927
v -0.02646611 -0.005130274 -0.000808531
v -0.02646611 -0.003624118 0.00282765
v -0.01536835 -0.003724221 0.002948089
v -0.02646611 1.206234E-05 0.004333804
v -0.01536835 1.206027E-05 0.004495707
v -0.02646611 0.003648243 0.00282765
v -0.01536835 0.003748341 0.002948089
v -0.02646611 0.005154397 -0.0008085317
v -0.01536835 0.00529596 -0.0007881933
v -0.02646611 0.003648242 -0.004444713
v -0.01536835 0.003748341 -0.004524475
v -0.02646611 1.206205E-05 -0.005950867
v -0.01536835 1.205998E-05 -0.006072092
v -0.01536835 -0.003724221 -0.004524475
v -0.02646611 -0.003624118 -0.004444713
v -0.01536835 1.205998E-05 -0.006072092
v -0.02646611 1.206205E-05 -0.005950867
v 0.01101839 -0.01855126 0.005286258
v 0.01105282 -0.01855126 -0.006637312
v -0.01114823 -0.01855126 -0.006637312
v -0.0111138 -0.01855126 0.005286258
v 0.01596626 -0.01743836 0.005286258
v 0.01596626 -0.01743552 -0.006637312
v -0.01559833 -0.01743132 -0.006637312
v -0.01559833 -0.01742847 0.005286258
v -0.0111138 0.01855485 0.005286258
v -0.01114823 0.01855485 -0.006637312
v 0.01105282 0.01855485 -0.006637312
v 0.01101839 0.01855485 0.005286258
v 0.01596626 0.01743922 -0.006637312
v 0.01596626 0.01743714 0.005286258
v -0.01559833 0.01743687 0.005286258
v -0.01559833 0.01743478 -0.006637312
v 0.01105282 0.01855485 -0.006637312
v 0.01105282 -0.01855126 -0.006637312
v 0.01596626 -0.01743552 -0.006637312
v 0.01596626 0.01743922 -0.006637312
v -0.01114823 -0.01855126 -0.006637312
v -0.01114823 0.01855485 -0.006637312
v -0.01559833 -0.01743132 -0.006637312
v -0.01559833 0.01743478 -0.006637312
v -0.0111138 -0.01855126 0.005286258
v -0.01559833 -0.01742847 0.005286258
v -0.01559833 0.01743687 0.005286258
v -0.0111138 0.01855485 0.005286258
v -0.02646611 -0.005130274 -0.000808531
v -0.02646611 1.206205E-05 -0.005950867
v -0.02646611 -0.003624118 0.00282765
v -0.02646611 1.206234E-05 0.004333804
v -0.02646611 0.003648243 0.00282765
v -0.02646611 0.005154397 -0.0008085317
v -0.02646611 0.003648242 -0.004444713
v -0.02646611 -0.003624118 -0.004444713
v -0.0102991 -0.01903856 0.0777799
v -0.0102991 0.01904215 0.0777799
v 0.01017118 0.01904215 0.0777799
v 0.01017118 -0.01903856 0.0777799
vt 0.7861975 0.6141939
vt 0.5175566 0.6141939
vt 0.5175348 0.7137158
vt 0.7861814 0.7137158
vt 0.8987449 0.6203611
vt 0.8987449 0.9144306
vt 0.9896383 0.9144483
vt 0.9896383 0.620385
vt 0.4212411 0.6242771
vt 0.4593548 0.6149881
vt 0.4593548 0.9246984
vt 0.4212411 0.9153693
vt 0.3290001 0.004059713
vt 0.3242631 0.0629904
vt 0.6195661 0.06299035
vt 0.6148291 0.004059713
vt 0.6198211 0.1231066
vt 0.3240081 0.1231066
vt 0.6185828 0.609786
vt 0.3252465 0.609786
vt 0.01080122 0.004044728
vt 0.006064263 0.06297535
vt 0.301367 0.06297539
vt 0.2966301 0.004044728
vt 0.3016221 0.1231318
vt 0.005809259 0.1231318
vt 0.3003838 0.6098112
vt 0.007047587 0.6098112
vt 0.6389958 0.004142158
vt 0.638995 0.06329593
vt 0.80948 0.0632977
vt 0.8094807 0.004144043
vt 0.8011133 0.1227677
vt 0.6471097 0.1227665
vt 0.8029507 0.6094446
vt 0.6452674 0.6094435
vt 0.8254564 0.004144497
vt 0.8254572 0.06329818
vt 0.9959421 0.06329627
vt 0.9959413 0.004142437
vt 0.9878274 0.1227668
vt 0.8338238 0.122768
vt 0.9896698 0.6094439
vt 0.8319865 0.6094449
vt 0.79659 0.8330251
vt 0.8874344 0.8331932
vt 0.8874516 0.7974264
vt 0.7966055 0.7972867
vt 0.8874862 0.7616301
vt 0.7966395 0.7615783
vt 0.8875288 0.7258098
vt 0.7966828 0.7258947
vt 0.8875443 0.690016
vt 0.796699 0.6901841
vt 0.8875532 0.6545057
vt 0.7967091 0.6541765
vt 0.8878445 0.6192377
vt 0.7970087 0.617929
vt 0.7965803 0.8690206
vt 0.8874244 0.8687153
vt 0.7968618 0.905259
vt 0.887698 0.9039917
vt 0.7234501 0.8217538
vt 0.7237148 0.7222322
vt 0.5526985 0.7222325
vt 0.5529636 0.8217542
vt 0.7625166 0.8217559
vt 0.7625271 0.7222345
vt 0.5173503 0.7222354
vt 0.5173526 0.821757
vt 0.7271186 0.9296648
vt 0.7273835 0.8301432
vt 0.5563679 0.8301436
vt 0.556633 0.929665
vt 0.5175561 0.8301461
vt 0.5175587 0.9296675
vt 0.7627208 0.9296674
vt 0.7627321 0.830146
vt 0.2096507 0.6190356
vt 0.2096507 0.9287459
vt 0.247499 0.9194332
vt 0.2474989 0.6283474
vt 0.03863565 0.9287459
vt 0.03863562 0.6190356
vt 0.004356542 0.9193981
vt 0.004356512 0.6283844
vt 0.4993805 0.6150661
vt 0.4651947 0.624536
vt 0.4651947 0.9185993
vt 0.4993806 0.9280286
vt 0.8620039 0.9527398
vt 0.822392 0.9098184
vt 0.850402 0.9830897
vt 0.822392 0.9956608
vt 0.794382 0.9830895
vt 0.7827801 0.9527398
vt 0.7943819 0.9223897
vt 0.8504019 0.9223895
vt 0.2576724 0.6190268
vt 0.2576724 0.9368716
vt 0.4153554 0.9368716
vt 0.4153554 0.6190268
vn 1 0 0
vn 1 0 0
vn 1 0 0
vn 1 0 0
vn -1 0 0
vn -1 0 0
vn -1 0 0
vn -1 0 0
vn 0 0 1
vn 0 0 1
vn 0 0 1
vn 0 0 1
vn -1 0 1.688412E-07
vn -0.9971437 0 0.07552768
vn -0.9971437 0 0.07552767
vn -1 0 1.688412E-07
vn -0.9974586 0 0.07124808
vn -0.9974586 0 0.07124808
vn -0.9999917 0 -0.004096079
vn -0.9999917 0 -0.004096079
vn 1 0 1.688412E-07
vn 0.9969675 0 0.07781885
vn 0.9969675 0 0.07781888
vn 1 0 1.688412E-07
vn 0.9972972 0 0.07347194
vn 0.9972972 0 0.07347194
vn 0.9999917 0 -0.004096089
vn 0.9999917 0 -0.004096089
vn 0 -0.9962285 -0.08676926
vn 0 -0.9988588 -0.04776093
vn 0 -0.9988557 -0.04782525
vn 0 -0.9962285 -0.08676926
vn 0 -0.9999994 -0.001109975
vn 0 -0.9999994 -0.001105182
vn 0 -0.9999962 0.002757058
vn 0 -0.9999962 0.002757058
vn 0 0.9962285 -0.0867692
vn 0 0.9988557 -0.04782522
vn 0 0.9988588 -0.0477609
vn 0 0.9962285 -0.0867692
vn 0 0.9999994 -0.001105183
vn 0 0.9999994 -0.001109976
vn 0 0.9999962 0.002757058
vn 0 0.9999962 0.002757058
vn -0.01275606 -0.9999186 0.0004443566
vn -0.01275442 -0.9999186 -0.0004484617
vn -0.01405032 -0.7072611 0.7068129
vn -0.01405114 -0.7068148 0.7072592
vn -0.01458721 0 0.9998937
vn -0.01458721 0 0.9998937
vn -0.01405004 0.7072613 0.7068126
vn -0.01405086 0.7068149 0.7072589
vn -0.01275404 0.9999186 -0.0004485642
vn -0.01275568 0.9999186 0.000444233
vn -0.01145891 0.706836 -0.7072845
vn -0.01145973 0.7072825 -0.7068381
vn -0.01092279 0 -0.9999404
vn -0.01092279 0 -0.9999404
vn -0.01146001 -0.7072825 -0.7068381
vn -0.01145919 -0.706836 -0.7072846
vn -0.01092279 0 -0.9999404
vn -0.01092279 0 -0.9999404
vn 0.1107029 -0.9938536 0.000101504
vn 0.1111057 -0.9938086 0.0001018732
vn -0.1228802 -0.9924216 0.0002357019
vn -0.122436 -0.9924764 0.0002348499
vn 0.2204403 -0.9754005 0.0002021226
vn 0.2204403 -0.9754005 0.0002021226
vn -0.2434638 -0.9699099 0.0004669988
vn -0.2434638 -0.9699099 0.0004669988
vn -0.1221914 0.9925066 0.0001337682
vn -0.1226347 0.9924518 0.0001342535
vn 0.1113308 0.9937834 0.0002037164
vn 0.1109273 0.9938285 0.000202978
vn 0.2208815 0.9753006 0.0004041752
vn 0.2208815 0.9753006 0.0004041752
vn -0.2429849 0.97003 0.000266006
vn -0.2429849 0.97003 0.000266006
vn 0 0 -1
vn 0 0 -1
vn 0 0 -1
vn 0 0 -1
vn 0 0 -1
vn 0 0 -1
vn 0 0 -1
vn 0 0 -1
vn 0 0 1
vn 0 0 1
vn 0 0 1
vn 0 0 1
vn -1 0 0
vn -1 0 0
vn -1 0 0
vn -1 0 0
vn -1 0 0
vn -1 0 0
vn -1 0 0
vn -1 0 0
vn 0 0 1
vn 0 0 1
vn 0 0 1
vn 0 0 1
g foregrip_all_vtac_uvg_LOD1_0
f 3/3/3 2/2/2 1/1/1
f 4/4/4 3/3/3 1/1/1
f 7/7/7 6/6/6 5/5/5
f 8/8/8 7/7/7 5/5/5
f 11/11/11 10/10/10 9/9/9
f 12/12/12 11/11/11 9/9/9
f 15/15/15 14/14/14 13/13/13
f 16/16/16 15/15/15 13/13/13
f 14/14/14 15/15/15 17/17/17
f 18/18/18 14/14/14 17/17/17
f 18/18/18 17/17/17 19/19/19
f 20/20/20 18/18/18 19/19/19
f 23/23/23 22/22/22 21/21/21
f 24/24/24 23/23/23 21/21/21
f 23/23/23 25/25/25 22/22/22
f 25/25/25 26/26/26 22/22/22
f 26/26/26 25/25/25 27/27/27
f 28/28/28 26/26/26 27/27/27
f 31/31/31 30/30/30 29/29/29
f 32/32/32 31/31/31 29/29/29
f 31/31/31 33/33/33 30/30/30
f 33/33/33 34/34/34 30/30/30
f 34/34/34 33/33/33 35/35/35
f 36/36/36 34/34/34 35/35/35
f 39/39/39 38/38/38 37/37/37
f 40/40/40 39/39/39 37/37/37
f 39/39/39 41/41/41 38/38/38
f 41/41/41 42/42/42 38/38/38
f 42/42/42 41/41/41 43/43/43
f 44/44/44 42/42/42 43/43/43
f 47/47/47 46/46/46 45/45/45
f 48/48/48 47/47/47 45/45/45
f 49/49/49 47/47/47 48/48/48
f 50/50/50 49/49/49 48/48/48
f 51/51/51 49/49/49 50/50/50
f 52/52/52 51/51/51 50/50/50
f 53/53/53 51/51/51 52/52/52
f 54/54/54 53/53/53 52/52/52
f 55/55/55 53/53/53 54/54/54
f 56/56/56 55/55/55 54/54/54
f 57/57/57 55/55/55 56/56/56
f 58/58/58 57/57/57 56/56/56
f 45/45/45 46/46/46 59/59/59
f 46/46/46 60/60/60 59/59/59
f 59/59/59 60/60/60 61/61/61
f 60/60/60 62/62/62 61/61/61
f 65/65/65 64/64/64 63/63/63
f 66/66/66 65/65/65 63/63/63
f 63/63/63 64/64/64 67/67/67
f 64/64/64 68/68/68 67/67/67
f 65/65/65 66/66/66 69/69/69
f 66/66/66 70/70/70 69/69/69
f 73/73/73 72/72/72 71/71/71
f 74/74/74 73/73/73 71/71/71
f 73/73/73 74/74/74 75/75/75
f 74/74/74 76/76/76 75/75/75
f 71/71/71 72/72/72 77/77/77
f 72/72/72 78/78/78 77/77/77
f 81/81/81 80/80/80 79/79/79
f 82/82/82 81/81/81 79/79/79
f 79/79/79 80/80/80 83/83/83
f 84/84/84 79/79/79 83/83/83
f 84/84/84 83/83/83 85/85/85
f 86/86/86 84/84/84 85/85/85
f 89/89/89 88/88/88 87/87/87
f 90/90/90 89/89/89 87/87/87
f 93/93/93 92/92/92 91/91/91
f 94/94/94 92/92/92 93/93/93
f 95/95/95 92/92/92 94/94/94
f 96/96/96 92/92/92 95/95/95
f 97/97/97 92/92/92 96/96/96
f 91/91/91 92/92/92 98/98/98
f 101/101/101 100/100/100 99/99/99
f 102/102/102 101/101/101 99/99/99
