g muzzle_fal_ds_arms_austrian_style_muzzle_brake_long_762x51_LOD1
v 0.009401527 -0.002362695 -0.003894228
v 0.009401489 -0.09684213 -0.003894239
v 0.009401489 -0.09684213 0.003894231
v 0.009401528 -0.002362695 0.003894242
v 0.003894209 -0.09684213 0.00940151
v 0.003894248 -0.002362695 0.009401521
v -0.00389426 -0.09684213 0.00940151
v -0.003894222 -0.00236269 0.009401521
v 0.003894246 -0.00236269 -0.009401508
v 0.003894208 -0.09684213 -0.009401519
v -0.003894221 -0.002362685 -0.009401508
v -0.003894259 -0.09684213 -0.009401518
v -0.0094015 -0.002362685 -0.003894229
v -0.009401538 -0.09684213 -0.00389424
v -0.009401501 -0.002362685 0.00389424
v -0.00940154 -0.09684213 0.00389423
v -0.003894222 -0.00236269 0.009401521
v -0.00389426 -0.09684213 0.00940151
v -0.003316626 -1.427174E-05 -0.008007074
v 0.003316655 -1.426697E-05 -0.008007075
v 0.008007096 -1.427174E-05 -0.003316634
v -0.008007064 -1.427174E-05 -0.003316636
v -0.008007066 -1.427174E-05 0.003316648
v 0.008007096 -1.427174E-05 0.003316648
v -0.003316626 -1.42765E-05 0.008007088
v 0.003316656 -1.427174E-05 0.008007088
v -0.008020977 -0.1231906 -0.00332239
v 0.008020901 -0.1231907 -0.003322389
v 0.003322342 -0.1231906 -0.008020947
v -0.00332242 -0.1231906 -0.008020947
v 0.0080209 -0.1231907 0.003322375
v -0.008020977 -0.1231906 0.003322374
v -0.00332242 -0.1231907 0.008020932
v 0.003322343 -0.1231907 0.008020931
v 0.009401528 -0.002362695 0.003894242
v 0.008007096 -1.427174E-05 0.003316648
v 0.008007096 -1.427174E-05 -0.003316634
v 0.009401527 -0.002362695 -0.003894228
v 0.003316655 -1.426697E-05 -0.008007075
v 0.003894246 -0.00236269 -0.009401508
v 0.003894248 -0.002362695 0.009401521
v 0.003316656 -1.427174E-05 0.008007088
v -0.003894222 -0.00236269 0.009401521
v -0.003316626 -1.42765E-05 0.008007088
v -0.009401501 -0.002362685 0.00389424
v -0.008007066 -1.427174E-05 0.003316648
v -0.0094015 -0.002362685 -0.003894229
v -0.008007064 -1.427174E-05 -0.003316636
v -0.003894221 -0.002362685 -0.009401508
v -0.003316626 -1.427174E-05 -0.008007074
v 0.003894246 -0.00236269 -0.009401508
v 0.003316655 -1.426697E-05 -0.008007075
v 0.009401489 -0.09684213 -0.003894239
v 0.008020901 -0.1231907 -0.003322389
v 0.0080209 -0.1231907 0.003322375
v 0.009401489 -0.09684213 0.003894231
v 0.003322343 -0.1231907 0.008020931
v 0.003894209 -0.09684213 0.00940151
v -0.00332242 -0.1231907 0.008020932
v -0.00389426 -0.09684213 0.00940151
v 0.003894208 -0.09684213 -0.009401519
v 0.003322342 -0.1231906 -0.008020947
v -0.003894259 -0.09684213 -0.009401518
v -0.00332242 -0.1231906 -0.008020947
v -0.009401538 -0.09684213 -0.00389424
v -0.008020977 -0.1231906 -0.00332239
v -0.00940154 -0.09684213 0.00389423
v -0.008020977 -0.1231906 0.003322374
v -0.00389426 -0.09684213 0.00940151
v -0.00332242 -0.1231907 0.008020932
vt 0.4056032 0.02477658
vt 0.4056032 0.9773765
vt 0.4841313 0.9773765
vt 0.4841313 0.02477658
vt 0.5626594 0.9773765
vt 0.5626594 0.02477658
vt 0.6411874 0.9773765
vt 0.6411876 0.02477658
vt 0.3270751 0.02477658
vt 0.3270752 0.9773765
vt 0.2485469 0.02477658
vt 0.248547 0.9773765
vt 0.1700187 0.02477658
vt 0.1700188 0.9773765
vt 0.09149058 0.02477658
vt 0.09149051 0.9773765
vt 0.01296242 0.02477658
vt 0.01296232 0.9773765
vt 0.8818742 0.1624574
vt 0.8818742 0.1072058
vt 0.8428057 0.06813703
vt 0.8428057 0.2015262
vt 0.7875541 0.2015262
vt 0.7875541 0.06813703
vt 0.7484852 0.1624574
vt 0.7484852 0.1072058
vt 0.6707216 0.2849738
vt 0.7994394 0.2316571
vt 0.7461228 0.2095726
vt 0.6928062 0.2316571
vt 0.821524 0.2849738
vt 0.6928062 0.3382905
vt 0.7461228 0.360375
vt 0.7994394 0.3382905
vt 0.963371 0.2339778
vt 0.937358 0.2281311
vt 0.9109774 0.2857298
vt 0.9323962 0.3016075
vt 0.8635364 0.3277171
vt 0.8766934 0.3509068
vt 0.9643139 0.1595983
vt 0.938161 0.1647837
vt 0.9350636 0.09120505
vt 0.9132491 0.1065344
vt 0.8806283 0.04050962
vt 0.8668878 0.06335826
vt 0.8103296 0.01619296
vt 0.8070158 0.04264793
vt 0.736205 0.02241858
vt 0.7438853 0.04795036
vt 0.6709473 0.05812076
vt 0.6883066 0.07835715
vt 0.9717556 0.7508446
vt 0.7039011 0.739987
vt 0.6997065 0.8073533
vt 0.9668391 0.8298064
vt 0.6925972 0.8744742
vt 0.9585064 0.9084799
vt 0.6825863 0.9412245
vt 0.9467726 0.9867191
vt 0.9732466 0.6717446
vt 0.705173 0.672502
vt 0.9713086 0.5926542
vt 0.7035196 0.6050262
vt 0.9659458 0.5137221
vt 0.6989444 0.5376845
vt 0.9571682 0.4350964
vt 0.6914555 0.4706046
vt 0.9449924 0.3569247
vt 0.6810675 0.4039122
vn 0.9238795 -3.35694E-07 -0.3826835
vn 0.9238795 -3.356939E-07 -0.3826834
vn 0.9238795 -4.230949E-07 0.3826833
vn 0.9238795 -4.230949E-07 0.3826834
vn 0.3826834 -2.57503E-07 0.9238795
vn 0.3826834 -2.575029E-07 0.9238795
vn -0.3826835 0 0.9238795
vn -0.3826835 0 0.9238795
vn 0.3826833 0 -0.9238795
vn 0.3826834 0 -0.9238795
vn -0.3826834 2.564703E-07 -0.9238795
vn -0.3826834 2.564703E-07 -0.9238795
vn -0.9238794 4.186479E-07 -0.3826835
vn -0.9238794 4.186479E-07 -0.3826836
vn -0.9238796 3.389185E-07 0.3826832
vn -0.9238796 3.389185E-07 0.3826833
vn -0.3826835 0 0.9238795
vn -0.3826835 0 0.9238795
vn -2.105479E-07 1 5.083077E-07
vn -2.105479E-07 1 5.083077E-07
vn 0 1 1.694359E-07
vn 0 1 1.694359E-07
vn 0 1 1.694359E-07
vn 0 1 1.694358E-07
vn -2.105479E-07 1 5.083075E-07
vn -2.105479E-07 1 5.083075E-07
vn -5.364497E-07 -1 -3.382862E-07
vn -5.364497E-07 -1 -3.382862E-07
vn -4.203682E-07 -1 -1.014859E-06
vn -4.203682E-07 -1 -1.014859E-06
vn -5.364497E-07 -1 0
vn -5.364497E-07 -1 0
vn -4.203682E-07 -1 0
vn -4.203682E-07 -1 0
vn 0.7772045 0.5406618 0.3219287
vn 0.7772045 0.5406617 0.3219286
vn 0.7772046 0.5406617 -0.3219285
vn 0.7772046 0.5406617 -0.3219286
vn 0.3219288 0.5406623 -0.777204
vn 0.3219287 0.5406624 -0.7772041
vn 0.3219286 0.5406623 0.7772041
vn 0.3219287 0.5406623 0.777204
vn -0.321928 0.5406634 0.7772036
vn -0.3219279 0.5406634 0.7772037
vn -0.7772031 0.540664 0.3219281
vn -0.7772031 0.540664 0.3219282
vn -0.7772031 0.5406641 -0.3219281
vn -0.7772031 0.5406641 -0.3219282
vn -0.3219281 0.5406635 -0.7772036
vn -0.321928 0.5406635 -0.7772036
vn 0.3219287 0.5406624 -0.7772041
vn 0.3219288 0.5406623 -0.777204
vn 0.9223973 -0.05662318 -0.3820696
vn 0.9223974 -0.05662318 -0.3820694
vn 0.9223973 -0.05662328 0.3820695
vn 0.9223973 -0.05662328 0.3820696
vn 0.3820694 -0.0566231 0.9223974
vn 0.3820694 -0.05662309 0.9223974
vn -0.3820696 -0.05662272 0.9223973
vn -0.3820695 -0.05662272 0.9223973
vn 0.3820693 -0.05662283 -0.9223974
vn 0.3820694 -0.05662283 -0.9223974
vn -0.3820696 -0.05662245 -0.9223974
vn -0.3820696 -0.05662244 -0.9223973
vn -0.9223973 -0.05662224 -0.3820696
vn -0.9223973 -0.05662224 -0.3820696
vn -0.9223974 -0.05662236 0.3820693
vn -0.9223974 -0.05662237 0.3820694
vn -0.3820695 -0.05662272 0.9223973
vn -0.3820696 -0.05662272 0.9223973
g muzzle_fal_ds_arms_austrian_style_muzzle_brake_long_762x51_LOD1_0
f 3/3/3 2/2/2 1/1/1
f 4/4/4 3/3/3 1/1/1
f 5/5/5 3/3/3 4/4/4
f 6/6/6 5/5/5 4/4/4
f 7/7/7 5/5/5 6/6/6
f 8/8/8 7/7/7 6/6/6
f 1/1/1 2/2/2 9/9/9
f 2/2/2 10/10/10 9/9/9
f 9/9/9 10/10/10 11/11/11
f 10/10/10 12/12/12 11/11/11
f 11/11/11 12/12/12 13/13/13
f 12/12/12 14/14/14 13/13/13
f 13/13/13 14/14/14 15/15/15
f 14/14/14 16/16/16 15/15/15
f 15/15/15 16/16/16 17/17/17
f 16/16/16 18/18/18 17/17/17
f 21/21/21 20/20/20 19/19/19
f 22/22/22 21/21/21 19/19/19
f 21/21/21 22/22/22 23/23/23
f 24/24/24 21/21/21 23/23/23
f 24/24/24 23/23/23 25/25/25
f 26/26/26 24/24/24 25/25/25
f 29/29/29 28/28/28 27/27/27
f 30/30/30 29/29/29 27/27/27
f 27/27/27 28/28/28 31/31/31
f 32/32/32 27/27/27 31/31/31
f 33/33/33 32/32/32 31/31/31
f 34/34/34 33/33/33 31/31/31
f 37/37/37 36/36/36 35/35/35
f 38/38/38 37/37/37 35/35/35
f 39/39/39 37/37/37 38/38/38
f 40/40/40 39/39/39 38/38/38
f 35/35/35 36/36/36 41/41/41
f 36/36/36 42/42/42 41/41/41
f 41/41/41 42/42/42 43/43/43
f 42/42/42 44/44/44 43/43/43
f 43/43/43 44/44/44 45/45/45
f 44/44/44 46/46/46 45/45/45
f 45/45/45 46/46/46 47/47/47
f 46/46/46 48/48/48 47/47/47
f 47/47/47 48/48/48 49/49/49
f 48/48/48 50/50/50 49/49/49
f 49/49/49 50/50/50 51/51/51
f 50/50/50 52/52/52 51/51/51
f 55/55/55 54/54/54 53/53/53
f 56/56/56 55/55/55 53/53/53
f 57/57/57 55/55/55 56/56/56
f 58/58/58 57/57/57 56/56/56
f 59/59/59 57/57/57 58/58/58
f 60/60/60 59/59/59 58/58/58
f 53/53/53 54/54/54 61/61/61
f 54/54/54 62/62/62 61/61/61
f 61/61/61 62/62/62 63/63/63
f 62/62/62 64/64/64 63/63/63
f 63/63/63 64/64/64 65/65/65
f 64/64/64 66/66/66 65/65/65
f 65/65/65 66/66/66 67/67/67
f 66/66/66 68/68/68 67/67/67
f 67/67/67 68/68/68 69/69/69
f 68/68/68 70/70/70 69/69/69
