g muzzle_sv98_izhmash_thread_muzzle_adapter_762x54_LOD1
v -0.01697314 -2.037048E-05 0.00965232
v 3.627646E-05 -2.037048E-05 0.01947271
v -0.009784118 -2.038002E-05 0.01684135
v -0.01960451 -2.037048E-05 -0.0001680742
v -0.01697314 -2.037048E-05 -0.009988469
v -0.009784118 -2.038956E-05 -0.01717749
v 3.627646E-05 -2.037048E-05 -0.01980886
v 0.00985667 -2.037048E-05 0.01684135
v 3.627646E-05 -2.037048E-05 0.01947271
v 0.0170457 -2.037048E-05 0.00965232
v 0.01967707 -2.037048E-05 -0.0001680742
v 0.0170457 -2.037048E-05 -0.009988469
v 0.00985667 -2.038002E-05 -0.01717749
v 3.627646E-05 -2.037048E-05 -0.01980886
v -0.009784118 -2.038002E-05 0.01684135
v -0.009321326 -0.004777813 0.01603977
v -0.01617157 -0.004777813 0.009189528
v -0.01697314 -2.037048E-05 0.00965232
v 3.627646E-05 -2.037048E-05 0.01947271
v 3.627718E-05 -0.004777813 0.01854713
v 0.00985667 -2.037048E-05 0.01684135
v 0.009393881 -0.004777813 0.01603977
v 0.0170457 -2.037048E-05 0.00965232
v 0.01624412 -0.004777813 0.009189528
v 0.01967707 -2.037048E-05 -0.0001680742
v 0.01875149 -0.004777813 -0.0001680751
v 0.0170457 -2.037048E-05 -0.009988469
v 0.01624412 -0.004777813 -0.009525678
v 0.00985667 -2.038002E-05 -0.01717749
v 0.009393881 -0.004777832 -0.01637592
v 3.627646E-05 -2.037048E-05 -0.01980886
v 3.627718E-05 -0.004777813 -0.01888328
v -0.01867893 -0.004777813 -0.0001680751
v -0.01960451 -2.037048E-05 -0.0001680742
v -0.01617157 -0.004777813 -0.009525678
v -0.01697314 -2.037048E-05 -0.009988469
v -0.009321326 -0.004777832 -0.01637592
v -0.009784118 -2.038956E-05 -0.01717749
v 3.627718E-05 -0.004777813 -0.01888328
v 3.627646E-05 -2.037048E-05 -0.01980886
v 0.01874242 -0.03945173 -0.0001680819
v 0.01623627 -0.03945173 0.009184989
v 0.01623627 -0.03945173 -0.009521152
v 0.009389353 -0.03945173 -0.01636807
v 3.628241E-05 -0.03945173 -0.01887422
v 3.628241E-05 -0.03945173 -0.01887422
v -0.009316789 -0.03945173 -0.01636807
v -0.01616371 -0.03945173 -0.009521152
v -0.01866986 -0.03945173 -0.0001680819
v 0.009389353 -0.03945173 0.01603191
v 3.628241E-05 -0.03945173 0.01853806
v -0.009316789 -0.03945173 0.01603191
v -0.01616371 -0.03945173 0.009184989
v -0.009316789 -0.03945173 0.01603191
v 3.628241E-05 -0.03945173 0.01853806
v -0.01616371 -0.03945173 0.009184989
v -0.01866986 -0.03945173 -0.0001680819
v -0.01616371 -0.03945173 -0.009521152
v -0.009316789 -0.03945173 -0.01636807
v 3.628241E-05 -0.03945173 -0.01887422
v 3.628241E-05 -0.03945173 0.01853806
v 0.009389353 -0.03945173 0.01603191
v 0.01623627 -0.03945173 0.009184989
v 0.01874242 -0.03945173 -0.0001680819
v 0.01623627 -0.03945173 -0.009521152
v 0.009389353 -0.03945173 -0.01636807
v 3.628241E-05 -0.03945173 -0.01887422
vt 0.5361116 0.05179495
vt 0.6168183 0.3314397
vt 0.5952015 0.1699945
vt 0.4553895 0.008521497
vt 0.3746608 0.05178702
vt 0.3155626 0.1699896
vt 0.2939309 0.3314617
vt 0.3089353 0.1718214
vt 0.3305532 0.01036811
vt 0.2498514 0.2900199
vt 0.1691347 0.3333113
vt 0.08840269 0.2900557
vt 0.0293029 0.1718651
vt 0.007666171 0.010391
vt 0.4205092 0.992468
vt 0.4205092 0.9127876
vt 0.3379982 0.9127876
vt 0.3379982 0.992468
vt 0.5030172 0.992468
vt 0.5030172 0.9127876
vt 0.5855247 0.992468
vt 0.5855247 0.9127876
vt 0.6680343 0.992468
vt 0.6680343 0.9127876
vt 0.7505448 0.992468
vt 0.7505448 0.9127876
vt 0.8330564 0.992468
vt 0.8330564 0.9127876
vt 0.9155654 0.992468
vt 0.9155654 0.9127876
vt 0.9980745 0.992468
vt 0.9980745 0.9127876
vt 0.2554891 0.9127876
vt 0.2554891 0.992468
vt 0.1729796 0.9127876
vt 0.1729796 0.992468
vt 0.09046906 0.9127876
vt 0.09046906 0.992468
vt 0.007957995 0.9127876
vt 0.007957995 0.992468
vt 0.7505448 0.3427661
vt 0.6680343 0.3427661
vt 0.8330564 0.3427661
vt 0.9155654 0.3427661
vt 0.9980745 0.3427661
vt 0.007957995 0.3427661
vt 0.09046906 0.3427661
vt 0.1729796 0.3427661
vt 0.2554891 0.3427661
vt 0.5855247 0.3427661
vt 0.5030172 0.3427661
vt 0.4205092 0.3427661
vt 0.3379982 0.3427661
vt 0.8679553 0.1681168
vt 0.8885414 0.01434362
vt 0.8116822 0.2806919
vt 0.734807 0.3219209
vt 0.6579234 0.2807496
vt 0.6016279 0.1681805
vt 0.5810208 0.01430976
vt 0.8885414 0.01434362
vt 0.8679553 0.1681168
vt 0.8116742 0.280677
vt 0.734807 0.3219209
vt 0.6579233 0.2807496
vt 0.6016279 0.1681805
vt 0.5810208 0.01430976
vn -1.812126E-07 1 3.138693E-07
vn -1.942231E-07 1 1.68202E-07
vn -1.812129E-06 1 3.138698E-06
vn 0 1 0
vn 1.177416E-06 1 -6.797815E-07
vn -4.925296E-07 1 -3.884467E-07
vn -4.85558E-07 1 0
vn 0 1 0
vn -1.942231E-07 1 1.68202E-07
vn 0 1 0
vn 0 1 0
vn -5.887081E-07 1 -3.398907E-07
vn 2.46265E-07 1 -1.942233E-07
vn -4.85558E-07 1 0
vn -0.4907978 -0.1909742 0.8500862
vn -0.4976127 -0.0976047 0.8618903
vn -0.8618904 -0.09760462 0.4976127
vn -0.8500863 -0.190974 0.4907975
vn 0 -0.1909741 0.9815952
vn 0 -0.09760463 0.9952253
vn 0.4907975 -0.1909737 0.8500863
vn 0.4976127 -0.09760442 0.8618903
vn 0.8500863 -0.1909735 0.4907978
vn 0.8618903 -0.09760424 0.4976127
vn 0.9815953 -0.1909734 0
vn 0.9952253 -0.09760413 0
vn 0.8500865 -0.1909732 -0.4907977
vn 0.8618903 -0.09760404 -0.4976127
vn 0.4907975 -0.190973 -0.8500865
vn 0.4976126 -0.09760372 -0.8618904
vn 1.114062E-07 -0.1909731 -0.9815953
vn 0 -0.09760399 -0.9952253
vn -0.9952253 -0.09760452 0
vn -0.9815952 -0.1909739 0
vn -0.8618903 -0.09760442 -0.4976127
vn -0.8500865 -0.1909737 -0.4907975
vn -0.4976126 -0.09760401 -0.8618904
vn -0.4907976 -0.1909734 -0.8500865
vn 0 -0.09760399 -0.9952253
vn 1.114062E-07 -0.1909731 -0.9815953
vn 1 -0.0002613384 0
vn 0.8660253 -0.0002614521 0.5
vn 0.8660253 -0.0002612495 -0.5000002
vn 0.5 -0.0002611869 -0.8660254
vn 0 -0.0002612007 -1
vn 0 -0.0002612007 -1
vn -0.5 -0.000261327 -0.8660253
vn -0.8660253 -0.0002614875 -0.5000002
vn -1 -0.0002616123 0
vn 0.5 -0.0002615609 0.8660253
vn 0 -0.0002616467 1
vn -0.5000001 -0.000261701 0.8660253
vn -0.8660253 -0.0002616901 0.5
vn 0 -1 0
vn 0 -1 0
vn 0 -1 0
vn 0 -1 0
vn 0 -1 0
vn 0 -1 0
vn 0 -1 0
vn 0 -1 0
vn 0 -1 0
vn 0 -1 0
vn 0 -1 0
vn 0 -1 0
vn 0 -1 0
vn 0 -1 0
g muzzle_sv98_izhmash_thread_muzzle_adapter_762x54_LOD1_0
f 3/3/3 2/2/2 1/1/1
f 1/1/1 2/2/2 4/4/4
f 4/4/4 2/2/2 5/5/5
f 5/5/5 2/2/2 6/6/6
f 6/6/6 2/2/2 7/7/7
f 10/10/10 9/9/9 8/8/8
f 11/11/11 9/9/9 10/10/10
f 12/12/12 9/9/9 11/11/11
f 13/13/13 9/9/9 12/12/12
f 14/14/14 9/9/9 13/13/13
f 17/17/17 16/16/16 15/15/15
f 18/18/18 17/17/17 15/15/15
f 15/15/15 16/16/16 19/19/19
f 16/16/16 20/20/20 19/19/19
f 19/19/19 20/20/20 21/21/21
f 20/20/20 22/22/22 21/21/21
f 21/21/21 22/22/22 23/23/23
f 22/22/22 24/24/24 23/23/23
f 23/23/23 24/24/24 25/25/25
f 24/24/24 26/26/26 25/25/25
f 25/25/25 26/26/26 27/27/27
f 26/26/26 28/28/28 27/27/27
f 27/27/27 28/28/28 29/29/29
f 28/28/28 30/30/30 29/29/29
f 29/29/29 30/30/30 31/31/31
f 30/30/30 32/32/32 31/31/31
f 33/33/33 17/17/17 18/18/18
f 34/34/34 33/33/33 18/18/18
f 35/35/35 33/33/33 34/34/34
f 36/36/36 35/35/35 34/34/34
f 37/37/37 35/35/35 36/36/36
f 38/38/38 37/37/37 36/36/36
f 39/39/39 37/37/37 38/38/38
f 40/40/40 39/39/39 38/38/38
f 26/26/26 41/41/41 28/28/28
f 42/42/42 41/41/41 26/26/26
f 41/41/41 43/43/43 28/28/28
f 28/28/28 43/43/43 30/30/30
f 43/43/43 44/44/44 30/30/30
f 30/30/30 44/44/44 32/32/32
f 44/44/44 45/45/45 32/32/32
f 39/39/39 46/46/46 37/37/37
f 46/46/46 47/47/47 37/37/37
f 37/37/37 47/47/47 35/35/35
f 47/47/47 48/48/48 35/35/35
f 35/35/35 48/48/48 33/33/33
f 48/48/48 49/49/49 33/33/33
f 50/50/50 42/42/42 24/24/24
f 22/22/22 50/50/50 24/24/24
f 51/51/51 50/50/50 22/22/22
f 20/20/20 51/51/51 22/22/22
f 24/24/24 42/42/42 26/26/26
f 52/52/52 51/51/51 20/20/20
f 16/16/16 52/52/52 20/20/20
f 53/53/53 52/52/52 16/16/16
f 49/49/49 53/53/53 17/17/17
f 17/17/17 53/53/53 16/16/16
f 33/33/33 49/49/49 17/17/17
f 56/56/56 55/55/55 54/54/54
f 56/56/56 57/57/57 55/55/55
f 57/57/57 58/58/58 55/55/55
f 58/58/58 59/59/59 55/55/55
f 59/59/59 60/60/60 55/55/55
f 63/63/63 62/62/62 61/61/61
f 64/64/64 63/63/63 61/61/61
f 65/65/65 64/64/64 61/61/61
f 66/66/66 65/65/65 61/61/61
f 67/67/67 66/66/66 61/61/61
