g muzzle_m700_remington_stainless_thread_protector_762x51_LOD1
v -0.006077264 5.012512E-05 -0.008364507
v -0.006077266 -0.015135 -0.008364507
v -8.32209E-08 -0.01513493 -0.01033909
v -8.092801E-08 5.016327E-05 -0.01033909
v -0.009833116 5.016327E-05 -0.003194978
v -0.009833118 -0.01513493 -0.003194978
v -0.009833136 5.016327E-05 0.003194911
v -0.009833138 -0.01513493 0.003194911
v -0.006077243 5.016327E-05 0.008364451
v -0.006077245 -0.01513493 0.008364452
v 1.886453E-05 5.016327E-05 0.01034518
v 1.886176E-05 -0.01513493 0.01034518
v 0.006077034 5.016327E-05 0.008364428
v 0.006077032 -0.01513493 0.008364428
v 0.009832927 5.016327E-05 0.003194911
v 0.009832925 -0.01513493 0.003194911
v 0.009832954 5.012512E-05 -0.003194965
v 0.009832952 -0.015135 -0.003194965
v 0.006077036 5.016327E-05 -0.008364502
v 0.006077034 -0.01513493 -0.008364503
v -8.092801E-08 5.016327E-05 -0.01033909
v -8.32209E-08 -0.01513493 -0.01033909
v 0.006077036 5.016327E-05 -0.008364502
v 0.006077034 5.016327E-05 0.008364428
v 1.886453E-05 5.016327E-05 0.01034518
v -8.092801E-08 5.016327E-05 -0.01033909
v 0.009832927 5.016327E-05 0.003194911
v 0.009832954 5.012512E-05 -0.003194965
v -0.006077264 5.012512E-05 -0.008364507
v -0.006077243 5.016327E-05 0.008364451
v -0.009833116 5.016327E-05 -0.003194978
v -0.009833136 5.016327E-05 0.003194911
v -0.009833118 -0.01513493 -0.003194978
v -0.009833138 -0.01513493 0.003194911
v -0.006077245 -0.01513493 0.008364452
v -0.006077266 -0.015135 -0.008364507
v -8.32209E-08 -0.01513493 -0.01033909
v 1.886176E-05 -0.01513493 0.01034518
v 0.006077034 -0.01513493 -0.008364503
v 0.006077032 -0.01513493 0.008364428
v 0.009832952 -0.015135 -0.003194965
v 0.009832925 -0.01513493 0.003194911
vt 0.8976275 0.004056017
vt 0.8976275 0.444325
vt 0.9965537 0.444325
vt 0.9965537 0.004056017
vt 0.7986609 0.004056017
vt 0.7986609 0.444325
vt 0.6996632 0.004056017
vt 0.6996632 0.444325
vt 0.6006311 0.004056017
vt 0.6006311 0.444325
vt 0.5015731 0.004056022
vt 0.5015731 0.444325
vt 0.4024678 0.004056028
vt 0.4024678 0.444325
vt 0.3032362 0.004056028
vt 0.3032362 0.444325
vt 0.2038286 0.004056028
vt 0.2038286 0.444325
vt 0.1042142 0.004056028
vt 0.1042142 0.444325
vt 0.004189734 0.004056028
vt 0.004189734 0.444325
vt 0.40215 0.451298
vt 0.3317167 0.8848143
vt 0.402145 0.9871569
vt 0.4892055 0.4513008
vt 0.3048165 0.7192233
vt 0.3317197 0.5536355
vt 0.5596339 0.5536435
vt 0.4892006 0.9871597
vt 0.5865341 0.7192334
vt 0.559631 0.884822
vt 0.008495916 0.7192352
vt 0.03539912 0.884824
vt 0.1058298 0.987161
vt 0.03539517 0.5536452
vt 0.1058235 0.4513018
vt 0.1928855 0.9871567
vt 0.192879 0.451298
vt 0.2633137 0.8848132
vt 0.2633097 0.5536345
vt 0.290213 0.7192224
vn -0.5877863 0 -0.8090163
vn -0.5877863 0 -0.8090163
vn 6.084462E-07 0 -1
vn 2.533545E-06 0 -1
vn -0.9510568 1.103504E-07 -0.309016
vn -0.9510562 1.103503E-07 -0.3090178
vn -0.951057 1.345714E-07 0.3090157
vn -0.951057 1.345714E-07 0.3090156
vn -0.5877842 1.385612E-07 0.8090178
vn -0.5877842 1.385612E-07 0.8090178
vn 0.0009214265 0 0.9999996
vn 0.0009213467 0 0.9999996
vn 0.5885285 0 0.8084766
vn 0.5885285 0 0.8084766
vn 0.9510553 -1.143871E-07 0.3090207
vn 0.9510559 -1.143872E-07 0.3090189
vn 0.9510565 -1.002581E-07 -0.3090168
vn 0.9510565 -1.002581E-07 -0.3090168
vn 0.5877842 0 -0.8090178
vn 0.5877857 0 -0.8090166
vn 2.533545E-06 0 -1
vn 6.084462E-07 0 -1
vn 1.269572E-06 1 -4.125102E-07
vn 1.268642E-06 1 -4.12208E-07
vn -1.566581E-06 1 -5.090139E-07
vn -1.567718E-06 1 -5.093836E-07
vn 5.07827E-06 1 -1.650035E-06
vn 5.078271E-06 1 -1.650035E-06
vn -1.080286E-06 1 -1.176027E-06
vn -1.080284E-06 1 -1.176027E-06
vn 5.078313E-06 1 -1.650038E-06
vn 5.078313E-06 1 -1.650038E-06
vn -1.015663E-05 -1 3.300076E-06
vn -1.015663E-05 -1 3.300077E-06
vn 2.160568E-06 -1 2.352054E-06
vn 2.160574E-06 -1 2.352054E-06
vn 3.135436E-06 -1 1.018767E-06
vn 3.133162E-06 -1 1.018028E-06
vn -2.539145E-06 -1 8.250202E-07
vn -2.537284E-06 -1 8.244158E-07
vn -1.015654E-05 -1 3.300069E-06
vn -1.015654E-05 -1 3.300069E-06
g muzzle_m700_remington_stainless_thread_protector_762x51_LOD1_0
f 3/3/3 2/2/2 1/1/1
f 4/4/4 3/3/3 1/1/1
f 1/1/1 2/2/2 5/5/5
f 2/2/2 6/6/6 5/5/5
f 5/5/5 6/6/6 7/7/7
f 6/6/6 8/8/8 7/7/7
f 7/7/7 8/8/8 9/9/9
f 8/8/8 10/10/10 9/9/9
f 9/9/9 10/10/10 11/11/11
f 10/10/10 12/12/12 11/11/11
f 11/11/11 12/12/12 13/13/13
f 12/12/12 14/14/14 13/13/13
f 13/13/13 14/14/14 15/15/15
f 14/14/14 16/16/16 15/15/15
f 15/15/15 16/16/16 17/17/17
f 16/16/16 18/18/18 17/17/17
f 17/17/17 18/18/18 19/19/19
f 18/18/18 20/20/20 19/19/19
f 19/19/19 20/20/20 21/21/21
f 20/20/20 22/22/22 21/21/21
f 25/25/25 24/24/24 23/23/23
f 26/26/26 25/25/25 23/23/23
f 23/23/23 24/24/24 27/27/27
f 28/28/28 23/23/23 27/27/27
f 25/25/25 26/26/26 29/29/29
f 30/30/30 25/25/25 29/29/29
f 30/30/30 29/29/29 31/31/31
f 32/32/32 30/30/30 31/31/31
f 35/35/35 34/34/34 33/33/33
f 36/36/36 35/35/35 33/33/33
f 35/35/35 36/36/36 37/37/37
f 38/38/38 35/35/35 37/37/37
f 38/38/38 37/37/37 39/39/39
f 40/40/40 38/38/38 39/39/39
f 40/40/40 39/39/39 41/41/41
f 42/42/42 40/40/40 41/41/41
