g muzzle_glock_strike_industries_g4_slide_compensator_9x19_LOD1
v -0.01234842 -0.03275389 -0.006711954
v -0.01234845 0.0007216501 -0.006711955
v -0.01234844 0.0007216501 0.005407983
v -0.01234842 -0.03275389 0.005407985
v 0.01259174 -0.03275387 -0.006711966
v 0.01259175 -0.03275387 0.004707051
v 0.01259172 0.0007216692 0.00470705
v 0.01259171 0.0007216692 -0.006711968
v -0.01234845 0.0007216501 -0.006711955
v -0.01234842 -0.03275389 -0.006711954
v -0.007691151 -0.03798004 -0.01055717
v -0.007691182 0.0007216537 -0.01055717
v 0.01259171 0.0007216692 -0.006711968
v -0.01234845 0.0007216501 -0.006711955
v -0.007691182 0.0007216537 -0.01055717
v 0.007934438 0.0007216656 -0.01055718
v 0.01259172 0.0007216692 0.00470705
v -0.01234844 0.0007216501 0.005407983
v -0.008106663 0.0007216537 0.009254714
v 0.008742343 0.0007216668 0.009254709
v -0.01234842 -0.03275389 0.005407985
v -0.01234844 0.0007216501 0.005407983
v -0.008106663 0.0007216537 0.009254714
v -0.008106634 -0.03798004 0.009254717
v -0.01234842 -0.03275389 -0.006711954
v -0.01234842 -0.03275389 0.005407985
v -0.008106634 -0.03798004 0.009254717
v -0.007691151 -0.03798004 -0.01055717
v 0.008742371 -0.03798003 0.009254711
v -0.008106634 -0.03798004 0.009254717
v -0.008106663 0.0007216537 0.009254714
v 0.008742343 0.0007216668 0.009254709
v 0.01259175 -0.03275387 0.004707051
v 0.008742371 -0.03798003 0.009254711
v 0.008742343 0.0007216668 0.009254709
v 0.01259172 0.0007216692 0.00470705
v 0.01259171 0.0007216692 -0.006711968
v 0.007934438 0.0007216656 -0.01055718
v 0.007934468 -0.03798003 -0.01055718
v 0.01259174 -0.03275387 -0.006711966
v 0.007934433 0.006350599 -0.01055718
v -0.007691186 0.006350588 -0.01055717
v -0.007691188 0.006350588 -0.01568876
v 0.007934432 0.006350599 -0.01568877
v 0.004981101 0.006350597 -0.02029754
v -0.004737858 0.00635059 -0.02029754
v 0.0001216203 0.006350592 -0.02217553
v -0.007691151 -0.03798004 -0.01055717
v 0.007934468 -0.03798003 -0.01055718
v 0.007934464 -0.03435581 -0.01568877
v -0.007691156 -0.03435582 -0.01568876
v -0.004737829 -0.03163595 -0.02029754
v 0.004981129 -0.03163594 -0.02029754
v 0.0001216485 -0.03058655 -0.02217553
v 0.007934468 -0.03798003 -0.01055718
v -0.007691151 -0.03798004 -0.01055717
v -0.008106634 -0.03798004 0.009254717
v 0.008742371 -0.03798003 0.009254711
v 0.007934468 -0.03798003 -0.01055718
v 0.008742371 -0.03798003 0.009254711
v 0.01259175 -0.03275387 0.004707051
v 0.01259174 -0.03275387 -0.006711966
v -0.007691182 0.0007216537 -0.01055717
v -0.007691186 0.006350588 -0.01055717
v 0.007934433 0.006350599 -0.01055718
v 0.007934438 0.0007216656 -0.01055718
v 0.007934438 0.0007216656 -0.01055718
v 0.007934433 0.006350599 -0.01055718
v 0.007934432 0.006350599 -0.01568877
v 0.007934464 -0.03435581 -0.01568877
v 0.007934468 -0.03798003 -0.01055718
v 0.004981129 -0.03163594 -0.02029754
v 0.007934464 -0.03435581 -0.01568877
v 0.007934432 0.006350599 -0.01568877
v 0.004981101 0.006350597 -0.02029754
v 0.0001216485 -0.03058655 -0.02217553
v 0.0001216203 0.006350592 -0.02217553
v -0.004737829 -0.03163595 -0.02029754
v -0.004737858 0.00635059 -0.02029754
v -0.007691156 -0.03435582 -0.01568876
v -0.007691188 0.006350588 -0.01568876
v -0.007691151 -0.03798004 -0.01055717
v -0.007691156 -0.03435582 -0.01568876
v -0.007691188 0.006350588 -0.01568876
v -0.007691182 0.0007216537 -0.01055717
v -0.007691186 0.006350588 -0.01055717
vt 0.08156002 0.6037368
vt 0.08230605 0.992665
vt 0.2231191 0.9923949
vt 0.2223727 0.6034666
vt 0.6872537 0.6027902
vt 0.5538816 0.6028306
vt 0.5546276 0.9917589
vt 0.6879998 0.9917187
vt 0.08230605 0.992665
vt 0.08156002 0.6037368
vt 0.01127464 0.5431522
vt 0.01213725 0.9927995
vt 0.9025137 0.2134978
vt 0.5823343 0.2134978
vt 0.6421239 0.2628623
vt 0.842724 0.2628623
vt 0.9025138 0.06690142
vt 0.5823343 0.0579031
vt 0.6367897 0.008519121
vt 0.8530958 0.008519121
vt 0.2223727 0.6034666
vt 0.2231191 0.9923949
vt 0.2896483 0.9922674
vt 0.2887857 0.5426199
vt 0.8880742 0.3565803
vt 0.8862636 0.5121924
vt 0.9720901 0.5626099
vt 0.9785086 0.3082355
vt 0.4845423 0.5422444
vt 0.2887857 0.5426199
vt 0.2896483 0.9922674
vt 0.4854048 0.9918917
vt 0.5538816 0.6028306
vt 0.4845423 0.5422444
vt 0.4854048 0.9918917
vt 0.5546276 0.9917589
vt 0.6879998 0.9917187
vt 0.7588715 0.991798
vt 0.7580085 0.5421508
vt 0.6872537 0.6027902
vt 0.842724 0.335126
vt 0.6421239 0.335126
vt 0.6421239 0.4010049
vt 0.842724 0.4010049
vt 0.8048095 0.4601718
vt 0.6800386 0.4601718
vt 0.742424 0.4842813
vt 0.781397 0.7376878
vt 0.9780282 0.738525
vt 0.9783649 0.6594682
vt 0.7817335 0.6586311
vt 0.8191836 0.5916716
vt 0.9414862 0.5921922
vt 0.8804502 0.5648602
vt 0.9780282 0.738525
vt 0.781397 0.7376878
vt 0.7751069 0.9869746
vt 0.9871333 0.9878712
vt 0.2769843 0.4533041
vt 0.02254933 0.462595
vt 0.0819152 0.5452076
vt 0.2285071 0.5436328
vt 0.6421239 0.2628623
vt 0.6421239 0.335126
vt 0.842724 0.335126
vt 0.842724 0.2628623
vt 0.082155 0.009266905
vt 0.009891309 0.009405605
vt 0.01001784 0.07528426
vt 0.5326018 0.07428161
vt 0.5790025 0.008313473
vt 0.4978193 0.1446211
vt 0.5326018 0.07428161
vt 0.01001784 0.07528426
vt 0.01015256 0.1455568
vt 0.4844755 0.211529
vt 0.01028097 0.2124388
vt 0.498076 0.2783852
vt 0.01040917 0.2793209
vt 0.5331281 0.3485908
vt 0.010544 0.3495934
vt 0.579782 0.4143803
vt 0.5331281 0.3485908
vt 0.010544 0.3495934
vt 0.08293406 0.4153336
vt 0.01067042 0.4154722
vn -1 0 0
vn -1 0 0
vn -1 0 0
vn -1 0 0
vn 1 0 0
vn 1 0 0
vn 1 0 0
vn 1 0 0
vn -0.6366754 0 -0.771132
vn -0.6366754 0 -0.771132
vn -0.6366754 0 -0.771132
vn -0.6366754 0 -0.771132
vn 0 1 0
vn 0 1 0
vn 0 1 0
vn 0 1 0
vn 0 1 0
vn 0 1 0
vn 0 1 0
vn 0 1 0
vn -0.6717621 0 0.7407669
vn -0.6717686 0 0.740761
vn -0.6717656 1.192088E-05 0.7407637
vn -0.6717656 0 0.7407637
vn -0.7613761 -0.6482347 -0.009906269
vn -0.761371 -0.6482406 -0.009906358
vn -0.7613643 -0.6482486 -0.009906117
vn -0.7613643 -0.6482486 -0.009906117
vn 1.192094E-05 2.384188E-05 1
vn 0 0 1
vn 0 1.19208E-05 1
vn 0 1.192094E-05 1
vn 0.7632719 0 0.6460774
vn 0.7632828 2.384178E-05 0.6460646
vn 0.7632778 1.1921E-05 0.6460705
vn 0.7632719 0 0.6460774
vn 0.6366754 0 -0.771132
vn 0.6366754 0 -0.771132
vn 0.6366754 0 -0.771132
vn 0.6366754 0 -0.771132
vn 0 1 0
vn 0 1 0
vn 0 1 0
vn 0 1 0
vn 0 1 0
vn 0 1 0
vn 0 1 0
vn 0 -0.8168222 -0.5768896
vn 0 -0.8168222 -0.5768896
vn 0 -0.8354548 -0.5495591
vn 0 -0.8354404 -0.5495811
vn 0 -0.8632137 -0.5048387
vn 0 -0.8632197 -0.5048283
vn 1.490094E-06 -0.8729569 -0.4877973
vn 0 -1 0
vn 0 -1 0
vn 0 -1 0
vn 1.192094E-05 -1 0
vn 0.7747852 -0.6319065 -0.02005106
vn 0.7747924 -0.6318978 -0.02004483
vn 0.7747877 -0.6319037 -0.02004501
vn 0.7747877 -0.6319037 -0.02004501
vn 0 0 1
vn 0 0 1
vn 0 0 1
vn 0 0 1
vn 1 0 0
vn 1 0 0
vn 1 0 0
vn 1 0 0
vn 1 0 0
vn 0.6802893 0 -0.7329438
vn 0.8419658 0 -0.5395309
vn 0.8419658 0 -0.5395309
vn 0.6325608 0 -0.7745107
vn 0 0 -1
vn 0 0 -1
vn -0.6802893 0 -0.7329438
vn -0.6325491 0 -0.7745202
vn -0.8419658 0 -0.5395309
vn -0.8419658 0 -0.5395309
vn -1 0 0
vn -1 0 0
vn -1 0 0
vn -1 0 0
vn -1 0 0
g muzzle_glock_strike_industries_g4_slide_compensator_9x19_LOD1_0
f 3/3/3 2/2/2 1/1/1
f 4/4/4 3/3/3 1/1/1
f 7/7/7 6/6/6 5/5/5
f 8/8/8 7/7/7 5/5/5
f 11/11/11 10/10/10 9/9/9
f 12/12/12 11/11/11 9/9/9
f 15/15/15 14/14/14 13/13/13
f 16/16/16 15/15/15 13/13/13
f 17/17/17 13/13/13 14/14/14
f 18/18/18 17/17/17 14/14/14
f 17/17/17 18/18/18 19/19/19
f 20/20/20 17/17/17 19/19/19
f 23/23/23 22/22/22 21/21/21
f 24/24/24 23/23/23 21/21/21
f 27/27/27 26/26/26 25/25/25
f 28/28/28 27/27/27 25/25/25
f 31/31/31 30/30/30 29/29/29
f 32/32/32 31/31/31 29/29/29
f 35/35/35 34/34/34 33/33/33
f 36/36/36 35/35/35 33/33/33
f 39/39/39 38/38/38 37/37/37
f 40/40/40 39/39/39 37/37/37
f 43/43/43 42/42/42 41/41/41
f 44/44/44 43/43/43 41/41/41
f 43/43/43 44/44/44 45/45/45
f 46/46/46 43/43/43 45/45/45
f 47/47/47 46/46/46 45/45/45
f 50/50/50 49/49/49 48/48/48
f 51/51/51 50/50/50 48/48/48
f 50/50/50 51/51/51 52/52/52
f 53/53/53 50/50/50 52/52/52
f 54/54/54 53/53/53 52/52/52
f 57/57/57 56/56/56 55/55/55
f 58/58/58 57/57/57 55/55/55
f 61/61/61 60/60/60 59/59/59
f 62/62/62 61/61/61 59/59/59
f 65/65/65 64/64/64 63/63/63
f 66/66/66 65/65/65 63/63/63
f 69/69/69 68/68/68 67/67/67
f 70/70/70 69/69/69 67/67/67
f 71/71/71 70/70/70 67/67/67
f 74/74/74 73/73/73 72/72/72
f 75/75/75 74/74/74 72/72/72
f 75/75/75 72/72/72 76/76/76
f 77/77/77 75/75/75 76/76/76
f 77/77/77 76/76/76 78/78/78
f 79/79/79 77/77/77 78/78/78
f 79/79/79 78/78/78 80/80/80
f 81/81/81 79/79/79 80/80/80
f 84/84/84 83/83/83 82/82/82
f 85/85/85 84/84/84 82/82/82
f 86/86/86 84/84/84 85/85/85
