g muzzle_ar10_aac_blackout_51t_flash_hider_762x51_LOD1
v 0.004219356 -0.05510758 0.009156214
v 0.006428036 0.0058233 0.01448844
v 0.01488976 0.0058233 0.006026724
v 0.009557526 -0.05510758 0.003818043
v 0.01488975 0.0058233 -0.005939956
v 0.009557526 -0.05510758 -0.003731276
v 0.006428036 0.0058233 -0.01440168
v 0.004219356 -0.05510758 -0.009069446
v -0.005538644 0.0058233 -0.01440168
v -0.003329964 -0.05510758 -0.009069446
v -0.003329964 -0.05510758 0.009156214
v -0.005538644 0.0058233 0.01448844
v -0.008668134 -0.05510758 0.003818043
v -0.01400036 0.0058233 0.006026724
v -0.008668134 -0.05510758 -0.003731276
v -0.01400036 0.0058233 -0.005939956
v -0.003329964 -0.05510758 -0.009069446
v -0.005538644 0.0058233 -0.01440168
v 0.004219356 -0.05510758 -0.009069446
v -0.003329964 -0.05510758 -0.009069446
v -0.008668134 -0.05510758 -0.003731276
v 0.009557526 -0.05510758 -0.003731276
v 0.009557526 -0.05510758 0.003818043
v -0.008668134 -0.05510758 0.003818043
v 0.004219356 -0.05510758 0.009156214
v -0.003329964 -0.05510758 0.009156214
v 0.01220915 0.013708 -0.004829607
v -0.01131975 0.013708 -0.004829607
v -0.004428304 0.013708 -0.01172107
v 0.005317696 0.013708 -0.01172107
v -0.01131975 0.013708 0.004916383
v 0.01220915 0.013708 0.004916383
v -0.004428304 0.013708 0.01180783
v 0.005317696 0.013708 0.01180783
v -0.005538644 0.0058233 0.01448844
v -0.004428304 0.013708 0.01180783
v 0.005317696 0.013708 0.01180783
v 0.006428036 0.0058233 0.01448844
v -0.01400036 0.0058233 0.006026724
v -0.01131975 0.013708 0.004916383
v -0.01400036 0.0058233 -0.005939956
v -0.01131975 0.013708 -0.004829607
v -0.005538644 0.0058233 -0.01440168
v -0.004428304 0.013708 -0.01172107
v 0.01220915 0.013708 0.004916383
v 0.01488976 0.0058233 0.006026724
v 0.01220915 0.013708 -0.004829607
v 0.01488975 0.0058233 -0.005939956
v 0.005317696 0.013708 -0.01172107
v 0.006428036 0.0058233 -0.01440168
v -0.004428304 0.013708 -0.01172107
v -0.005538644 0.0058233 -0.01440168
vt 0.491897 0.697718
vt 0.495044 0.115802
vt 0.384718 0.115802
vt 0.413073 0.699824
vt 0.272566 0.115802
vt 0.334158 0.706291
vt 0.156255 0.115802
vt 0.255096 0.7174
vt 0.028643 0.115802
vt 0.179307 0.733259
vt 0.570562 0.69985
vt 0.604236 0.115802
vt 0.648984 0.706171
vt 0.712712 0.115802
vt 0.727139 0.716704
vt 0.822082 0.115802
vt 0.805131 0.731643
vt 0.940009 0.115802
vt 0.589016 0.760244
vt 0.536028 0.813231
vt 0.536028 0.888167
vt 0.663952 0.760244
vt 0.71694 0.813231
vt 0.589016 0.941155
vt 0.71694 0.888167
vt 0.663952 0.941155
vt 0.390064 0.972121
vt 0.224918 0.806975
vt 0.224918 0.903715
vt 0.293324 0.972121
vt 0.293324 0.738569
vt 0.45847 0.903715
vt 0.390064 0.738569
vt 0.45847 0.806975
vt 0.604236 0.115802
vt 0.608275 0.028614
vt 0.496124 0.028614
vt 0.495044 0.115802
vt 0.712712 0.115802
vt 0.718081 0.028614
vt 0.822082 0.115802
vt 0.824458 0.028614
vt 0.940009 0.115802
vt 0.927159 0.028614
vt 0.382759 0.028614
vt 0.384718 0.115802
vt 0.268988 0.028614
vt 0.272566 0.115802
vt 0.155029 0.028614
vt 0.156255 0.115802
vt 0.040162 0.028614
vt 0.028643 0.115802
vn 0.3809782 -0.09430102 0.9197624
vn 0.3809782 -0.09430102 0.9197624
vn 0.9197626 -0.09430099 0.3809778
vn 0.9197626 -0.09430099 0.3809778
vn 0.9197624 -0.09430094 -0.3809783
vn 0.9197624 -0.09430093 -0.3809781
vn 0.3809783 -0.094301 -0.9197624
vn 0.3809783 -0.094301 -0.9197624
vn -0.3809782 -0.09430102 -0.9197624
vn -0.3809782 -0.09430102 -0.9197624
vn -0.380978 -0.09430101 0.9197624
vn -0.380978 -0.094301 0.9197624
vn -0.9197624 -0.09430102 0.3809782
vn -0.9197624 -0.09430102 0.3809782
vn -0.9197624 -0.09430101 -0.380978
vn -0.9197626 -0.09430101 -0.380978
vn -0.3809782 -0.09430102 -0.9197624
vn -0.3809782 -0.09430102 -0.9197624
vn 0 -1 0
vn 0 -1 0
vn 0 -1 0
vn 0 -1 0
vn 0 -1 0
vn 0 -1 0
vn 0 -1 0
vn 0 -1 0
vn 0 1 0
vn 0 1 0
vn 0 1 0
vn 0 1 0
vn 0 1 0
vn 0 1 0
vn 0 1 0
vn 0 1 0
vn -0.3591388 0.3453469 0.867038
vn -0.359139 0.3453469 0.8670379
vn 0.359139 0.3453469 0.8670379
vn 0.3591388 0.3453469 0.867038
vn -0.867038 0.3453469 0.3591388
vn -0.8670379 0.3453469 0.359139
vn -0.8670379 0.3453471 -0.3591388
vn -0.867038 0.3453471 -0.3591385
vn -0.3591388 0.3453472 -0.8670378
vn -0.3591391 0.3453472 -0.8670377
vn 0.8670381 0.3453466 0.3591388
vn 0.8670381 0.3453467 0.3591386
vn 0.8670381 0.3453465 -0.3591386
vn 0.867038 0.3453465 -0.3591391
vn 0.3591393 0.3453469 -0.8670377
vn 0.3591391 0.345347 -0.8670379
vn -0.3591391 0.3453472 -0.8670377
vn -0.3591388 0.3453472 -0.8670378
g muzzle_ar10_aac_blackout_51t_flash_hider_762x51_LOD1_0
f 3/3/3 2/2/2 1/1/1
f 4/4/4 3/3/3 1/1/1
f 5/5/5 3/3/3 4/4/4
f 6/6/6 5/5/5 4/4/4
f 7/7/7 5/5/5 6/6/6
f 8/8/8 7/7/7 6/6/6
f 9/9/9 7/7/7 8/8/8
f 10/10/10 9/9/9 8/8/8
f 1/1/1 2/2/2 11/11/11
f 2/2/2 12/12/12 11/11/11
f 11/11/11 12/12/12 13/13/13
f 12/12/12 14/14/14 13/13/13
f 13/13/13 14/14/14 15/15/15
f 14/14/14 16/16/16 15/15/15
f 15/15/15 16/16/16 17/17/17
f 16/16/16 18/18/18 17/17/17
f 21/21/21 20/20/20 19/19/19
f 22/22/22 21/21/21 19/19/19
f 21/21/21 22/22/22 23/23/23
f 24/24/24 21/21/21 23/23/23
f 24/24/24 23/23/23 25/25/25
f 26/26/26 24/24/24 25/25/25
f 29/29/29 28/28/28 27/27/27
f 30/30/30 29/29/29 27/27/27
f 27/27/27 28/28/28 31/31/31
f 32/32/32 27/27/27 31/31/31
f 32/32/32 31/31/31 33/33/33
f 34/34/34 32/32/32 33/33/33
f 37/37/37 36/36/36 35/35/35
f 38/38/38 37/37/37 35/35/35
f 35/35/35 36/36/36 39/39/39
f 36/36/36 40/40/40 39/39/39
f 39/39/39 40/40/40 41/41/41
f 40/40/40 42/42/42 41/41/41
f 41/41/41 42/42/42 43/43/43
f 42/42/42 44/44/44 43/43/43
f 45/45/45 37/37/37 38/38/38
f 46/46/46 45/45/45 38/38/38
f 47/47/47 45/45/45 46/46/46
f 48/48/48 47/47/47 46/46/46
f 49/49/49 47/47/47 48/48/48
f 50/50/50 49/49/49 48/48/48
f 51/51/51 49/49/49 50/50/50
f 52/52/52 51/51/51 50/50/50
