g muzzle_p226_sig_thread_protector_std_9x19_LOD1
v 0.005226455 3.900528E-06 0.005226053
v 0.005226455 -0.01096185 0.005226051
v 3.58303E-07 -0.01096185 0.007390772
v 3.58303E-07 3.899932E-06 0.007390773
v 0.007391176 3.901124E-06 -4.462925E-08
v 0.007391176 -0.01096185 -4.64158E-08
v 0.005226456 3.90172E-06 -0.005226142
v 0.005226456 -0.01096185 -0.005226144
v 3.58303E-07 3.902316E-06 -0.007390861
v 3.58303E-07 -0.01096185 -0.007390863
v 3.58303E-07 3.899932E-06 0.007390773
v 3.58303E-07 -0.01096185 0.007390772
v -0.005225739 -0.01096185 0.005226051
v -0.005225739 3.900528E-06 0.005226053
v -0.007390459 -0.01096185 -4.64158E-08
v -0.007390459 3.901124E-06 -4.462925E-08
v -0.005225739 -0.01096185 -0.005226143
v -0.005225739 3.90172E-06 -0.005226141
v 3.58303E-07 -0.01096185 -0.007390863
v 3.58303E-07 3.902316E-06 -0.007390861
v 3.58303E-07 3.899932E-06 0.007390773
v -0.005225739 3.900528E-06 0.005226053
v 0.005226455 3.900528E-06 0.005226053
v -0.007390459 3.901124E-06 -4.462925E-08
v 0.007391176 3.901124E-06 -4.462925E-08
v -0.005225739 3.90172E-06 -0.005226141
v 0.005226456 3.90172E-06 -0.005226142
v 3.58303E-07 3.902316E-06 -0.007390861
v -0.007390459 -0.01096185 -4.64158E-08
v 0.007391176 -0.01096185 -4.64158E-08
v 0.005226456 -0.01096185 -0.005226144
v -0.005225739 -0.01096185 -0.005226143
v 0.005226455 -0.01096185 0.005226051
v -0.005225739 -0.01096185 0.005226051
v 3.58303E-07 -0.01096185 0.007390772
v 3.58303E-07 -0.01096185 -0.007390863
vt 0.746904 0.518418
vt 0.746908 0.994549
vt 0.992525 0.994551
vt 0.992518 0.518417
vt 0.501297 0.518417
vt 0.501297 0.994549
vt 0.255687 0.51842
vt 0.25569 0.994551
vt 0.010072 0.518418
vt 0.010075 0.994547
vt 0.992518 0.518417
vt 0.992525 0.994551
vt 0.746908 0.994549
vt 0.746904 0.518418
vt 0.501297 0.994549
vt 0.501297 0.518417
vt 0.25569 0.994551
vt 0.255687 0.51842
vt 0.010075 0.994547
vt 0.010072 0.518418
vt 0.147293 0.012675
vt 0.004871 0.155156
vt 0.348743 0.012675
vt 0.004871 0.356618
vt 0.49121 0.155073
vt 0.147351 0.499016
vt 0.49121 0.356526
vt 0.348796 0.499016
vt 0.506386 0.154863
vt 0.992726 0.356462
vt 0.992726 0.155001
vt 0.648877 0.012498
vt 0.850235 0.498827
vt 0.506386 0.356323
vt 0.648793 0.498827
vt 0.850322 0.012498
vn 0.7071068 -1.170083E-07 0.7071068
vn 0.7071068 -1.170083E-07 0.7071068
vn 0 -1.657618E-07 1
vn 0 -1.657618E-07 1
vn 1 0 0
vn 1 0 0
vn 0.7071068 1.137581E-07 -0.7071068
vn 0.7071068 1.137581E-07 -0.7071068
vn 0 1.641367E-07 -1
vn 0 1.641367E-07 -1
vn 0 -1.657618E-07 1
vn 0 -1.657618E-07 1
vn -0.7071068 -1.153832E-07 0.7071068
vn -0.7071068 -1.153832E-07 0.7071068
vn -1 0 0
vn -1 0 0
vn -0.7071068 1.170084E-07 -0.7071068
vn -0.7071068 1.170084E-07 -0.7071068
vn 0 1.641367E-07 -1
vn 0 1.641367E-07 -1
vn 0 1 2.753457E-07
vn 0 1 1.409342E-07
vn 0 1 1.409342E-07
vn 0 1 1.140519E-07
vn 0 1 1.140519E-07
vn 0 1 1.409342E-07
vn 0 1 1.409342E-07
vn 0 1 2.753457E-07
vn 0 -1 -2.281038E-07
vn 0 -1 -2.281038E-07
vn 0 -1 -1.900866E-07
vn 0 -1 -1.900866E-07
vn 0 -1 -1.900865E-07
vn 0 -1 -1.900865E-07
vn 0 -1 0
vn 0 -1 0
g muzzle_p226_sig_thread_protector_std_9x19_LOD1_0
f 3/3/3 2/2/2 1/1/1
f 4/4/4 3/3/3 1/1/1
f 1/1/1 2/2/2 5/5/5
f 2/2/2 6/6/6 5/5/5
f 5/5/5 6/6/6 7/7/7
f 6/6/6 8/8/8 7/7/7
f 7/7/7 8/8/8 9/9/9
f 8/8/8 10/10/10 9/9/9
f 13/13/13 12/12/12 11/11/11
f 14/14/14 13/13/13 11/11/11
f 15/15/15 13/13/13 14/14/14
f 16/16/16 15/15/15 14/14/14
f 17/17/17 15/15/15 16/16/16
f 18/18/18 17/17/17 16/16/16
f 19/19/19 17/17/17 18/18/18
f 20/20/20 19/19/19 18/18/18
f 23/23/23 22/22/22 21/21/21
f 24/24/24 22/22/22 23/23/23
f 25/25/25 24/24/24 23/23/23
f 24/24/24 25/25/25 26/26/26
f 25/25/25 27/27/27 26/26/26
f 27/27/27 28/28/28 26/26/26
f 31/31/31 30/30/30 29/29/29
f 32/32/32 31/31/31 29/29/29
f 30/30/30 33/33/33 29/29/29
f 33/33/33 34/34/34 29/29/29
f 33/33/33 35/35/35 34/34/34
f 32/32/32 36/36/36 31/31/31
