g muzzle_sv-98_srw_dtk_jet_mk2_762x54r_LOD1
v 0.01720878 -0.1320591 -7.901534E-05
v 0.0172088 0.000404222 -7.897898E-05
v 0.01488313 0.0004042244 -0.00875848
v 0.01488311 -0.1320591 -0.008758516
v 0.008529288 0.0004042268 -0.01511231
v 0.008529268 -0.1320591 -0.01511235
v -0.0001502131 0.000404228 -0.01743798
v -0.0001502326 -0.1320591 -0.01743801
v -0.008829716 0.0004042268 -0.01511231
v -0.008829733 -0.1320591 -0.01511234
v -0.01518355 0.000404216 -0.008758471
v -0.01518357 -0.1320591 -0.008758508
v -0.01750921 0.0004042137 -7.897028E-05
v -0.01750923 -0.1320591 -7.900664E-05
v -0.01518354 0.0004042113 0.008600528
v -0.01518356 -0.1320591 0.008600492
v -0.00882971 0.0004042089 0.01495436
v -0.008829729 -0.1320591 0.01495433
v -0.0001502091 0.000404216 0.01728003
v -0.0001502286 -0.1320591 0.01728
v 0.00852929 0.0004042172 0.01495436
v 0.00852927 -0.1320591 0.01495433
v 0.01488313 0.0004042196 0.008600532
v 0.01488311 -0.1320591 0.008600496
v 0.0172088 0.000404222 -7.897898E-05
v 0.01720878 -0.1320591 -7.901534E-05
v 0.01488311 -0.1320591 0.008600496
v 0.01720878 -0.1320591 -7.901534E-05
v 0.01488311 -0.1320591 -0.008758516
v 0.00852927 -0.1320591 0.01495433
v 0.008529268 -0.1320591 -0.01511235
v -0.0001502286 -0.1320591 0.01728
v -0.0001502326 -0.1320591 -0.01743801
v 0.0172088 0.000404222 -7.897898E-05
v 0.01488313 0.0004042196 0.008600532
v 0.01488313 0.0004042244 -0.00875848
v 0.008529288 0.0004042268 -0.01511231
v 0.00852929 0.0004042172 0.01495436
v -0.0001502131 0.000404228 -0.01743798
v -0.0001502091 0.000404216 0.01728003
v -0.008829729 -0.1320591 0.01495433
v -0.0001502286 -0.1320591 0.01728
v -0.0001502326 -0.1320591 -0.01743801
v -0.008829733 -0.1320591 -0.01511234
v -0.01518356 -0.1320591 0.008600492
v -0.01518357 -0.1320591 -0.008758508
v -0.01750923 -0.1320591 -7.900664E-05
v -0.008829716 0.0004042268 -0.01511231
v -0.0001502131 0.000404228 -0.01743798
v -0.0001502091 0.000404216 0.01728003
v -0.00882971 0.0004042089 0.01495436
v -0.01518355 0.000404216 -0.008758471
v -0.01518354 0.0004042113 0.008600528
v -0.01750921 0.0004042137 -7.897028E-05
vt 0.2248544 0.01284953
vt 0.2248544 0.9441243
vt 0.2880276 0.9441243
vt 0.2880276 0.01284953
vt 0.3512008 0.9441243
vt 0.351201 0.01284953
vt 0.414374 0.9441243
vt 0.4143742 0.01284953
vt 0.4775473 0.9441243
vt 0.4775474 0.01284953
vt 0.5407206 0.9441242
vt 0.5407207 0.01284953
vt 0.6038939 0.9441242
vt 0.6038939 0.01284953
vt 0.6670672 0.9441242
vt 0.6670672 0.01284953
vt 0.7302405 0.9441242
vt 0.7302404 0.01284953
vt 0.7934139 0.9441243
vt 0.7934137 0.01284953
vt 0.8565869 0.9441243
vt 0.8565869 0.01284953
vt 0.9197602 0.9441243
vt 0.9197601 0.01284953
vt 0.9829336 0.9441243
vt 0.9829335 0.01284953
vt 0.1223608 0.8019426
vt 0.1387113 0.8629635
vt 0.1223608 0.9239841
vt 0.0776906 0.7572725
vt 0.0776906 0.9686544
vt 0.01666987 0.740922
vt 0.01666993 0.9850048
vt 0.1564184 0.1493558
vt 0.1400679 0.08833492
vt 0.140068 0.2103765
vt 0.09539777 0.2550467
vt 0.09539771 0.04366481
vt 0.03437698 0.2713972
vt 0.03437704 0.02731439
vt 0.129973 0.5373868
vt 0.1909937 0.5210363
vt 0.1909937 0.7651191
vt 0.129973 0.7487687
vt 0.08530277 0.5820571
vt 0.08530277 0.7040984
vt 0.06895238 0.6430778
vt 0.1338134 0.4709705
vt 0.1948341 0.487321
vt 0.1948342 0.2432382
vt 0.1338135 0.2595886
vt 0.08914322 0.4263003
vt 0.08914322 0.3042589
vt 0.07279283 0.3652796
vn 1 -1.505064E-07 -1.374942E-07
vn 1 -1.505064E-07 0
vn 0.8660251 0 -0.5000005
vn 0.8660251 0 -0.5000005
vn 0.4999995 1.474284E-07 -0.8660257
vn 0.4999996 1.474284E-07 -0.8660257
vn -2.258834E-07 2.422848E-07 -1
vn -2.651673E-07 2.422848E-07 -1
vn -0.5000002 2.894295E-07 -0.8660253
vn -0.5000003 2.894296E-07 -0.8660253
vn -0.8660256 2.62617E-07 -0.4999997
vn -0.8660256 2.62617E-07 -0.4999996
vn -1 1.531798E-07 1.669573E-07
vn -1 1.531798E-07 1.178522E-07
vn -0.8660253 0 0.5000001
vn -0.8660254 0 0.4999999
vn -0.5 -1.518837E-07 0.8660254
vn -0.5000001 -1.518837E-07 0.8660253
vn 0 -2.520054E-07 1
vn -2.160625E-07 -2.520054E-07 1
vn 0.4999998 -2.945328E-07 0.8660255
vn 0.4999998 -2.945328E-07 0.8660256
vn 0.8660253 -2.600247E-07 0.5000003
vn 0.8660253 -2.600247E-07 0.5000003
vn 1 -1.505064E-07 0
vn 1 -1.505064E-07 -1.374942E-07
vn 0 -1 0
vn 0 -1 0
vn 0 -1 0
vn 0 -1 -2.060894E-07
vn 0 -1 -2.060894E-07
vn 0 -1 -2.944135E-07
vn 0 -1 -2.944135E-07
vn 0 1 2.746914E-07
vn 0 1 2.989381E-07
vn 0 1 2.989381E-07
vn 0 1 3.223403E-07
vn 0 1 3.223403E-07
vn -2.403551E-07 1 3.956182E-07
vn -2.403551E-07 1 3.956182E-07
vn 0 -1 -2.060895E-07
vn 0 -1 -2.944135E-07
vn 0 -1 -2.944135E-07
vn 0 -1 -2.060895E-07
vn 0 -1 0
vn 0 -1 0
vn 0 -1 0
vn -5.334959E-07 1 4.652903E-07
vn -2.403551E-07 1 3.956182E-07
vn -2.403551E-07 1 3.956182E-07
vn -5.334959E-07 1 4.652903E-07
vn -5.909963E-07 1 4.572953E-07
vn -5.909964E-07 1 4.572954E-07
vn 0 1 2.746916E-07
g muzzle_sv-98_srw_dtk_jet_mk2_762x54r_LOD1_0
f 3/3/3 2/2/2 1/1/1
f 4/4/4 3/3/3 1/1/1
f 5/5/5 3/3/3 4/4/4
f 6/6/6 5/5/5 4/4/4
f 7/7/7 5/5/5 6/6/6
f 8/8/8 7/7/7 6/6/6
f 9/9/9 7/7/7 8/8/8
f 10/10/10 9/9/9 8/8/8
f 11/11/11 9/9/9 10/10/10
f 12/12/12 11/11/11 10/10/10
f 13/13/13 11/11/11 12/12/12
f 14/14/14 13/13/13 12/12/12
f 15/15/15 13/13/13 14/14/14
f 16/16/16 15/15/15 14/14/14
f 17/17/17 15/15/15 16/16/16
f 18/18/18 17/17/17 16/16/16
f 19/19/19 17/17/17 18/18/18
f 20/20/20 19/19/19 18/18/18
f 21/21/21 19/19/19 20/20/20
f 22/22/22 21/21/21 20/20/20
f 23/23/23 21/21/21 22/22/22
f 24/24/24 23/23/23 22/22/22
f 25/25/25 23/23/23 24/24/24
f 26/26/26 25/25/25 24/24/24
f 29/29/29 28/28/28 27/27/27
f 29/29/29 27/27/27 30/30/30
f 31/31/31 29/29/29 30/30/30
f 31/31/31 30/30/30 32/32/32
f 33/33/33 31/31/31 32/32/32
f 36/36/36 35/35/35 34/34/34
f 35/35/35 36/36/36 37/37/37
f 38/38/38 35/35/35 37/37/37
f 38/38/38 37/37/37 39/39/39
f 40/40/40 38/38/38 39/39/39
f 43/43/43 42/42/42 41/41/41
f 44/44/44 43/43/43 41/41/41
f 44/44/44 41/41/41 45/45/45
f 46/46/46 44/44/44 45/45/45
f 47/47/47 46/46/46 45/45/45
f 50/50/50 49/49/49 48/48/48
f 51/51/51 50/50/50 48/48/48
f 51/51/51 48/48/48 52/52/52
f 53/53/53 51/51/51 52/52/52
f 54/54/54 53/53/53 52/52/52
