g muzzle_p90_fn_p90_std_57x28_LOD1
v -0.008979259 -0.0636582 0.005167062
v -0.008979252 -0.01424794 0.005167246
v -0.005190305 -0.01424796 0.008956193
v -0.005190313 -0.06272317 0.00895601
v -1.450855E-05 -0.01424796 0.01034304
v -1.451582E-05 -0.06238495 0.01034286
v 0.005161288 -0.01424796 0.008956194
v 0.005161281 -0.06272317 0.00895601
v 0.008950234 -0.01424794 0.005167248
v 0.008950227 -0.0636582 0.005167063
v 0.01033708 -0.01424792 -8.548738E-06
v 0.01033708 -0.06493144 -8.739697E-06
v 0.008950235 -0.0142479 -0.005184346
v 0.008950227 -0.06619029 -0.005184539
v 0.00516129 -0.01424789 -0.008973294
v 0.006594325 -0.06686677 -0.008077206
v -1.450703E-05 -0.01424788 -0.01036014
v -1.451498E-05 -0.06686676 -0.01036034
v -1.451498E-05 -0.06686676 -0.01036034
v -1.450703E-05 -0.01424788 -0.01036014
v -0.005190304 -0.01424789 -0.008973294
v -0.006623356 -0.06686677 -0.008077206
v -0.008979251 -0.0142479 -0.005184347
v -0.008979258 -0.06619029 -0.00518454
v -0.0103661 -0.01424792 -8.550526E-06
v -0.01036611 -0.06493144 -8.741485E-06
v 0.006594325 -0.06686677 -0.008077206
v -0.006623356 -0.06686677 -0.008077206
v -0.008979258 -0.06619029 -0.00518454
v 0.008950227 -0.06619029 -0.005184539
v -0.01036611 -0.06493144 -8.741485E-06
v 0.01033708 -0.06493144 -8.739697E-06
v -0.008979259 -0.0636582 0.005167062
v 0.008950227 -0.0636582 0.005167063
v -0.005190313 -0.06272317 0.00895601
v 0.005161281 -0.06272317 0.00895601
v -1.451582E-05 -0.06238495 0.01034286
v -1.451498E-05 -0.06686676 -0.01036034
v -0.003853129 -1.470327E-05 0.006640193
v -0.006663195 -1.469135E-05 0.003830126
v -1.450623E-05 -1.470566E-05 0.007668749
v 0.003824116 -1.470327E-05 0.006640194
v 0.006634183 -1.469135E-05 0.003830127
v 0.007662739 -1.467705E-05 -8.495635E-06
v 0.006634184 -1.466274E-05 -0.003847118
v 0.003824117 -1.465082E-05 -0.006657187
v -1.45051E-05 -1.464844E-05 -0.00768574
v -0.003853128 -1.465082E-05 -0.006657187
v -0.006663195 -1.466274E-05 -0.003847119
v -0.007691751 -1.467705E-05 -8.496826E-06
v -0.005190305 -0.01424796 0.008956193
v -0.003853131 -0.01424795 0.00664014
v -1.450838E-05 -0.01424795 0.007668695
v -1.450855E-05 -0.01424796 0.01034304
v 0.003824114 -0.01424795 0.00664014
v 0.005161288 -0.01424796 0.008956194
v 0.006634181 -0.01424794 0.003830073
v 0.008950234 -0.01424794 0.005167248
v 0.007662737 -0.01424792 -8.549036E-06
v 0.01033708 -0.01424792 -8.548738E-06
v 0.006634181 -0.01424791 -0.003847172
v 0.008950235 -0.0142479 -0.005184346
v 0.003824115 -0.0142479 -0.00665724
v 0.00516129 -0.01424789 -0.008973294
v -1.450725E-05 -0.01424789 -0.007685793
v -1.450703E-05 -0.01424788 -0.01036014
v -0.00385313 -0.0142479 -0.00665724
v -0.005190304 -0.01424789 -0.008973294
v -0.006663197 -0.01424791 -0.003847173
v -0.008979251 -0.0142479 -0.005184347
v -0.007691754 -0.01424792 -8.550228E-06
v -0.0103661 -0.01424792 -8.550526E-06
v -0.006663198 -0.01424794 0.003830072
v -0.008979252 -0.01424794 0.005167246
v -0.003853131 -0.01424795 0.00664014
v -0.003853129 -1.470327E-05 0.006640193
v -1.450623E-05 -1.470566E-05 0.007668749
v -1.450838E-05 -0.01424795 0.007668695
v 0.003824116 -1.470327E-05 0.006640194
v 0.003824114 -0.01424795 0.00664014
v 0.006634183 -1.469135E-05 0.003830127
v 0.006634181 -0.01424794 0.003830073
v 0.007662739 -1.467705E-05 -8.495635E-06
v 0.007662737 -0.01424792 -8.549036E-06
v 0.006634184 -1.466274E-05 -0.003847118
v 0.006634181 -0.01424791 -0.003847172
v 0.003824117 -1.465082E-05 -0.006657187
v 0.003824115 -0.0142479 -0.00665724
v -1.45051E-05 -1.464844E-05 -0.00768574
v -1.450725E-05 -0.01424789 -0.007685793
v -0.006663198 -0.01424794 0.003830072
v -0.007691754 -0.01424792 -8.550228E-06
v -0.006663195 -1.469135E-05 0.003830126
v -0.007691751 -1.467705E-05 -8.496826E-06
v -0.006663197 -0.01424791 -0.003847173
v -0.006663195 -1.466274E-05 -0.003847119
v -0.00385313 -0.0142479 -0.00665724
v -0.003853128 -1.465082E-05 -0.006657187
v -1.450725E-05 -0.01424789 -0.007685793
v -1.45051E-05 -1.464844E-05 -0.00768574
vt 0.6102576 0.2765515
vt 0.01051623 0.2765509
vt 0.01051599 0.3415902
vt 0.598908 0.3415907
vt 0.01051599 0.4066292
vt 0.5948029 0.4066297
vt 0.01051599 0.4716684
vt 0.5989079 0.4716689
vt 0.01051599 0.5367077
vt 0.6102574 0.5367084
vt 0.01051599 0.601747
vt 0.6257119 0.6017477
vt 0.01051575 0.6667861
vt 0.6409922 0.6667866
vt 0.01051575 0.7318254
vt 0.6492267 0.7120647
vt 0.01051575 0.7968647
vt 0.6491959 0.7969335
vt 0.6491967 0.01632619
vt 0.01051623 0.01639408
vt 0.01051623 0.08143324
vt 0.6492271 0.1011953
vt 0.01051623 0.1464724
vt 0.6409927 0.1464729
vt 0.01051623 0.2115118
vt 0.6257123 0.2115122
vt 0.7682244 0.9399393
vt 0.9286814 0.9394921
vt 0.95718 0.9033496
vt 0.7395244 0.9039557
vt 0.9738359 0.838639
vt 0.7225088 0.839339
vt 0.95682 0.7739806
vt 0.7391644 0.7745869
vt 0.9106923 0.7267329
vt 0.7850282 0.7270826
vt 0.8478117 0.7095785
vt 0.8485302 0.967432
vt 0.8733506 0.2249187
vt 0.9074631 0.1908059
vt 0.8267504 0.2374056
vt 0.7801516 0.2249187
vt 0.7460378 0.1908059
vt 0.7335511 0.1442066
vt 0.7460378 0.09760672
vt 0.7801516 0.06349337
vt 0.8267504 0.05100679
vt 0.8733506 0.06349337
vt 0.9074631 0.09760672
vt 0.9199491 0.1442066
vt 0.9383069 0.4017354
vt 0.9101921 0.4179675
vt 0.9226781 0.4645649
vt 0.9551421 0.4645649
vt 0.9101921 0.5111622
vt 0.9383069 0.5273944
vt 0.8760806 0.545274
vt 0.8923128 0.5733886
vt 0.8294834 0.5577593
vt 0.8294834 0.5902237
vt 0.7828859 0.545274
vt 0.7666534 0.5733886
vt 0.7487741 0.5111622
vt 0.7206596 0.5273947
vt 0.7362888 0.4645649
vt 0.703824 0.4645649
vt 0.7487741 0.4179675
vt 0.7206596 0.4017354
vt 0.7828859 0.3838558
vt 0.7666534 0.355741
vt 0.8294834 0.3713699
vt 0.8294834 0.338906
vt 0.8760806 0.3838558
vt 0.8923128 0.355741
vt 0.3479223 0.9905896
vt 0.3479226 0.8178023
vt 0.2996789 0.8178024
vt 0.2996792 0.9905896
vt 0.2514355 0.8178026
vt 0.2514352 0.9905898
vt 0.2031919 0.8178026
vt 0.2031919 0.9905893
vt 0.1549487 0.8178026
vt 0.1549485 0.9905898
vt 0.1067048 0.8178026
vt 0.1067055 0.9905894
vt 0.05846101 0.8178027
vt 0.0584619 0.9905896
vt 0.01021808 0.8178028
vt 0.01021832 0.9905896
vt 0.396166 0.9905893
vt 0.4444093 0.9905896
vt 0.3961667 0.8178026
vt 0.444409 0.8178023
vt 0.4926533 0.9905896
vt 0.4926527 0.8178025
vt 0.5408966 0.9905892
vt 0.5408964 0.8178026
vt 0.5891401 0.9905894
vt 0.5891401 0.8178023
vn -0.8825052 -1.633894E-06 0.4703026
vn -0.8660254 -1.748091E-06 0.5
vn -0.4999999 -3.194623E-06 0.8660254
vn -0.5167316 -3.153892E-06 0.8561475
vn 0 -3.785298E-06 1
vn 0 -3.785298E-06 1
vn 0.4999999 -3.339962E-06 0.8660255
vn 0.5167315 -3.30434E-06 0.8561475
vn 0.8660254 -2.004669E-06 0.5000001
vn 0.8825052 -1.895445E-06 0.4703027
vn 1 -1.474649E-07 0
vn 0.9992164 0 -0.03957988
vn 0.8762129 0.002205562 -0.4819193
vn 0.8600316 0.00249684 -0.5102347
vn 0.5304224 1.998871E-05 -0.8477334
vn 0.5258586 -6.660623E-05 -0.850572
vn 0 -0.004272282 -0.9999909
vn 0 -0.004272281 -0.9999909
vn 0 -0.004272281 -0.9999909
vn 0 -0.004272282 -0.9999909
vn -0.5304223 2.014514E-05 -0.8477336
vn -0.5258586 -6.644976E-05 -0.850572
vn -0.8762127 0.002205818 -0.4819196
vn -0.8600314 0.002497091 -0.5102349
vn -1 1.463764E-07 -1.767783E-07
vn -0.9992164 2.941768E-07 -0.03958007
vn 0 -0.9800251 0.1988736
vn 0 -0.9800251 0.1988736
vn 0 -0.9723603 0.2334852
vn 0 -0.9723603 0.2334851
vn 0 -0.9713621 0.237604
vn 0 -0.9713621 0.2376041
vn 0 -0.9709961 0.2390953
vn 0 -0.9709961 0.2390953
vn 0 -0.9709418 0.2393158
vn 0 -0.9709418 0.2393158
vn 0 -0.9715257 0.2369341
vn 0 -1 -4.17704E-06
vn -7.043172E-07 1 4.946539E-06
vn 0 1 3.895121E-06
vn 1.615861E-07 1 3.446751E-06
vn 0 1 4.0498E-06
vn 0 1 3.881306E-06
vn 0 1 3.726627E-06
vn 0 1 3.890063E-06
vn 0 1 3.847263E-06
vn 0 1 3.671862E-06
vn 2.540934E-07 1 3.932864E-06
vn -4.640348E-07 1 3.726627E-06
vn 0 1 3.726627E-06
vn 0 1 3.924158E-06
vn 0 1 3.924159E-06
vn 0 1 3.830492E-06
vn 0 1 3.830492E-06
vn 0 1 3.924159E-06
vn 0 1 3.924158E-06
vn 1.899247E-07 1 3.947283E-06
vn 1.899248E-07 1 3.947283E-06
vn 0 1 3.876741E-06
vn 0 1 3.876741E-06
vn -1.899259E-07 1 3.947282E-06
vn -1.899259E-07 1 3.947282E-06
vn 0 1 3.924157E-06
vn 0 1 3.924158E-06
vn 0 1 3.830492E-06
vn 0 1 3.830492E-06
vn 0 1 3.924158E-06
vn 0 1 3.924159E-06
vn 1.899253E-07 1 3.947282E-06
vn 1.899253E-07 1 3.947282E-06
vn 0 1 3.876741E-06
vn 0 1 3.876741E-06
vn -1.899255E-07 1 3.947283E-06
vn -1.899255E-07 1 3.947283E-06
vn -0.5000001 -3.167561E-06 0.8660253
vn -0.5 -3.167561E-06 0.8660254
vn 0 -3.759055E-06 1
vn 0 -3.759055E-06 1
vn 0.4999999 -3.341003E-06 0.8660254
vn 0.4999999 -3.341003E-06 0.8660254
vn 0.8660254 -2.023352E-06 0.5
vn 0.8660253 -2.023352E-06 0.5000001
vn 1 -1.69181E-07 1.080312E-07
vn 1 -1.69181E-07 1.080312E-07
vn 0.8660255 1.728031E-06 -0.4999998
vn 0.8660256 1.728031E-06 -0.4999998
vn 0.4999999 3.15435E-06 -0.8660255
vn 0.4999999 3.15435E-06 -0.8660255
vn 0 3.726241E-06 -1
vn 0 3.726241E-06 -1
vn -0.8660254 -1.732719E-06 0.4999999
vn -1 1.661978E-07 0
vn -0.8660254 -1.732719E-06 0.5
vn -1 1.661978E-07 0
vn -0.8660254 2.010567E-06 -0.5
vn -0.8660253 2.010568E-06 -0.5000001
vn -0.4999998 3.306911E-06 -0.8660256
vn -0.4999997 3.306912E-06 -0.8660256
vn 0 3.726241E-06 -1
vn 0 3.726241E-06 -1
g muzzle_p90_fn_p90_std_57x28_LOD1_0
f 3/3/3 2/2/2 1/1/1
f 4/4/4 3/3/3 1/1/1
f 5/5/5 3/3/3 4/4/4
f 6/6/6 5/5/5 4/4/4
f 7/7/7 5/5/5 6/6/6
f 8/8/8 7/7/7 6/6/6
f 9/9/9 7/7/7 8/8/8
f 10/10/10 9/9/9 8/8/8
f 11/11/11 9/9/9 10/10/10
f 12/12/12 11/11/11 10/10/10
f 13/13/13 11/11/11 12/12/12
f 14/14/14 13/13/13 12/12/12
f 15/15/15 13/13/13 14/14/14
f 16/16/16 15/15/15 14/14/14
f 17/17/17 15/15/15 16/16/16
f 18/18/18 17/17/17 16/16/16
f 21/21/21 20/20/20 19/19/19
f 22/22/22 21/21/21 19/19/19
f 23/23/23 21/21/21 22/22/22
f 24/24/24 23/23/23 22/22/22
f 25/25/25 23/23/23 24/24/24
f 26/26/26 25/25/25 24/24/24
f 2/2/2 25/25/25 26/26/26
f 1/1/1 2/2/2 26/26/26
f 29/29/29 28/28/28 27/27/27
f 30/30/30 29/29/29 27/27/27
f 29/29/29 30/30/30 31/31/31
f 30/30/30 32/32/32 31/31/31
f 31/31/31 32/32/32 33/33/33
f 32/32/32 34/34/34 33/33/33
f 33/33/33 34/34/34 35/35/35
f 34/34/34 36/36/36 35/35/35
f 35/35/35 36/36/36 37/37/37
f 27/27/27 28/28/28 38/38/38
f 41/41/41 40/40/40 39/39/39
f 42/42/42 40/40/40 41/41/41
f 43/43/43 40/40/40 42/42/42
f 44/44/44 40/40/40 43/43/43
f 45/45/45 40/40/40 44/44/44
f 46/46/46 40/40/40 45/45/45
f 47/47/47 40/40/40 46/46/46
f 48/48/48 40/40/40 47/47/47
f 49/49/49 40/40/40 48/48/48
f 50/50/50 40/40/40 49/49/49
f 53/53/53 52/52/52 51/51/51
f 54/54/54 53/53/53 51/51/51
f 55/55/55 53/53/53 54/54/54
f 56/56/56 55/55/55 54/54/54
f 57/57/57 55/55/55 56/56/56
f 58/58/58 57/57/57 56/56/56
f 59/59/59 57/57/57 58/58/58
f 60/60/60 59/59/59 58/58/58
f 61/61/61 59/59/59 60/60/60
f 62/62/62 61/61/61 60/60/60
f 63/63/63 61/61/61 62/62/62
f 64/64/64 63/63/63 62/62/62
f 65/65/65 63/63/63 64/64/64
f 66/66/66 65/65/65 64/64/64
f 67/67/67 65/65/65 66/66/66
f 68/68/68 67/67/67 66/66/66
f 69/69/69 67/67/67 68/68/68
f 70/70/70 69/69/69 68/68/68
f 71/71/71 69/69/69 70/70/70
f 72/72/72 71/71/71 70/70/70
f 73/73/73 71/71/71 72/72/72
f 74/74/74 73/73/73 72/72/72
f 52/52/52 73/73/73 74/74/74
f 51/51/51 52/52/52 74/74/74
f 77/77/77 76/76/76 75/75/75
f 78/78/78 77/77/77 75/75/75
f 79/79/79 77/77/77 78/78/78
f 80/80/80 79/79/79 78/78/78
f 81/81/81 79/79/79 80/80/80
f 82/82/82 81/81/81 80/80/80
f 83/83/83 81/81/81 82/82/82
f 84/84/84 83/83/83 82/82/82
f 85/85/85 83/83/83 84/84/84
f 86/86/86 85/85/85 84/84/84
f 87/87/87 85/85/85 86/86/86
f 88/88/88 87/87/87 86/86/86
f 89/89/89 87/87/87 88/88/88
f 90/90/90 89/89/89 88/88/88
f 75/75/75 76/76/76 91/91/91
f 91/91/91 93/93/93 92/92/92
f 93/93/93 94/94/94 92/92/92
f 92/92/92 94/94/94 95/95/95
f 94/94/94 96/96/96 95/95/95
f 95/95/95 96/96/96 97/97/97
f 96/96/96 98/98/98 97/97/97
f 97/97/97 98/98/98 99/99/99
f 98/98/98 100/100/100 99/99/99
f 76/76/76 93/93/93 91/91/91
