g muzzle_all_gemtech_direct_mount_multi_LOD1
v 0.01938898 0 0.005195261
v 0.01419372 0 0.01419372
v 0.01938898 0 -0.005195263
v 0.01419372 0 -0.01419372
v 0.005195258 0 -0.01938898
v -0.00519527 0 -0.01938898
v -0.01419372 0 -0.01419372
v -0.01938898 0 -0.005195262
v -0.01938898 0 0.005195263
v -0.01419372 0 0.01419372
v -0.005195261 0 0.01938898
v 0.005195258 0 0.01938898
v 0.01938898 0 0.005195261
v 0.01938898 -0.01173614 0.005195261
v 0.01419372 -0.01173614 0.01419372
v 0.01419372 0 0.01419372
v 0.00519526 -0.01173614 0.01938898
v 0.005195258 0 0.01938898
v -0.005195259 -0.01173614 0.01938898
v -0.005195261 0 0.01938898
v 0.01938898 0 -0.005195263
v 0.01938898 -0.01173614 -0.005195263
v 0.01419372 0 -0.01419372
v 0.01419372 -0.01173614 -0.01419372
v 0.005195258 0 -0.01938898
v 0.00519526 -0.01173614 -0.01938898
v -0.00519527 0 -0.01938898
v -0.005195268 -0.01173614 -0.01938898
v 0.00519526 -0.01173614 -0.01938898
v 0.005195258 0 -0.01938898
v -0.01419372 0 -0.01419372
v -0.01419372 -0.01173614 -0.01419372
v -0.01938898 0 -0.005195262
v -0.01938898 -0.01173614 -0.005195262
v -0.01938898 0 0.005195263
v -0.01938898 -0.01173614 0.005195263
v -0.01419372 0 0.01419372
v -0.01419372 -0.01173614 0.01419372
v -0.005195261 0 0.01938898
v -0.005195259 -0.01173614 0.01938898
v 0.008099545 -0.06539585 -0.008099533
v 0.002964644 -0.06539585 -0.01106417
v -0.002964631 -0.06539585 -0.01106417
v -0.008099526 -0.06539585 -0.008099533
v 0.01106418 -0.06539585 -0.002964633
v -0.01106416 -0.06539585 -0.002964632
v 0.01106418 -0.06539585 0.002964637
v -0.01106416 -0.06539585 0.002964639
v 0.008099545 -0.06539585 0.008099538
v -0.008099526 -0.06539585 0.008099538
v 0.002964644 -0.06539585 0.01106418
v -0.002964625 -0.06539585 0.01106418
v -0.005195259 -0.01173614 0.01938898
v -0.002964633 -0.01173614 0.01106418
v -0.008099535 -0.01173614 0.008099535
v -0.01419372 -0.01173614 0.01419372
v -0.01106417 -0.01173614 0.002964637
v -0.01938898 -0.01173614 0.005195263
v -0.01106417 -0.01173614 -0.002964635
v -0.01938898 -0.01173614 -0.005195262
v -0.008099535 -0.01173614 -0.008099535
v -0.01419372 -0.01173614 -0.01419372
v -0.002964639 -0.01173614 -0.01106417
v -0.005195268 -0.01173614 -0.01938898
v 0.002964636 -0.01173614 -0.01106417
v 0.00519526 -0.01173614 -0.01938898
v 0.008099537 -0.01173614 -0.008099535
v 0.01419372 -0.01173614 -0.01419372
v 0.01106418 -0.01173614 -0.002964635
v 0.01938898 -0.01173614 -0.005195263
v 0.01106418 -0.01173614 0.002964635
v 0.01938898 -0.01173614 0.005195261
v 0.008099537 -0.01173614 0.008099535
v 0.01419372 -0.01173614 0.01419372
v 0.002964636 -0.01173614 0.01106418
v 0.00519526 -0.01173614 0.01938898
v -0.002964633 -0.01173614 0.01106418
v -0.002964625 -0.06539585 0.01106418
v -0.008099526 -0.06539585 0.008099538
v -0.008099535 -0.01173614 0.008099535
v -0.01106416 -0.06539585 0.002964639
v -0.01106417 -0.01173614 0.002964637
v -0.01106416 -0.06539585 -0.002964632
v -0.01106417 -0.01173614 -0.002964635
v -0.008099526 -0.06539585 -0.008099533
v -0.008099535 -0.01173614 -0.008099535
v -0.002964631 -0.06539585 -0.01106417
v -0.002964639 -0.01173614 -0.01106417
v 0.002964644 -0.06539585 -0.01106417
v 0.002964636 -0.01173614 -0.01106417
v 0.008099545 -0.06539585 -0.008099533
v 0.008099537 -0.01173614 -0.008099535
v 0.01106418 -0.06539585 -0.002964633
v 0.01106418 -0.01173614 -0.002964635
v 0.01106418 -0.06539585 0.002964637
v 0.01106418 -0.01173614 0.002964635
v 0.008099545 -0.06539585 0.008099538
v 0.008099537 -0.01173614 0.008099535
v 0.002964644 -0.06539585 0.01106418
v 0.002964636 -0.01173614 0.01106418
v -0.002964625 -0.06539585 0.01106418
v -0.002964633 -0.01173614 0.01106418
vt 0.0121361 0.2777104
vt 0.06614244 0.3712522
vt 0.0121361 0.1696979
vt 0.0661428 0.07615614
vt 0.1596843 0.02214968
vt 0.2676972 0.02214974
vt 0.3612392 0.07615608
vt 0.4152454 0.1696979
vt 0.4152454 0.2777104
vt 0.3612392 0.3712522
vt 0.267697 0.4252586
vt 0.1596843 0.4252586
vt 0.8510298 0.6759164
vt 0.7346655 0.6759164
vt 0.7346655 0.7789394
vt 0.8510298 0.7789394
vt 0.7346655 0.8819624
vt 0.8510298 0.8819622
vt 0.7346655 0.9849856
vt 0.8510298 0.9849856
vt 0.8510298 0.5728937
vt 0.7346655 0.5728937
vt 0.8510298 0.4698708
vt 0.7346655 0.4698708
vt 0.8510298 0.366848
vt 0.7346655 0.3668482
vt 0.9880958 0.8803545
vt 0.8717315 0.880355
vt 0.8717318 0.983378
vt 0.988096 0.9833778
vt 0.9880955 0.7773323
vt 0.8717313 0.7773327
vt 0.9880949 0.67431
vt 0.8717307 0.6743106
vt 0.9880947 0.5712867
vt 0.8717305 0.5712873
vt 0.9880944 0.4682643
vt 0.8717302 0.4682646
vt 0.988094 0.3652416
vt 0.87173 0.3652419
vt 0.5582252 0.2620432
vt 0.596732 0.2842752
vt 0.6411958 0.2842752
vt 0.6797027 0.2620432
vt 0.535993 0.2235364
vt 0.7019346 0.2235364
vt 0.535993 0.1790726
vt 0.7019346 0.1790726
vt 0.5582252 0.1405654
vt 0.6797027 0.1405654
vt 0.596732 0.1183335
vt 0.6411958 0.1183335
vt 0.6672475 0.02110875
vt 0.6465166 0.09847724
vt 0.6942389 0.1260296
vt 0.7508763 0.06939191
vt 0.7217913 0.1737518
vt 0.7991591 0.1530212
vt 0.7217913 0.2288572
vt 0.7991591 0.2495874
vt 0.6942389 0.2765791
vt 0.7508763 0.3332163
vt 0.6465164 0.3041315
vt 0.6672475 0.3814999
vt 0.5914114 0.3041319
vt 0.570681 0.3814999
vt 0.5436895 0.2765791
vt 0.4870518 0.3332163
vt 0.5161372 0.2288572
vt 0.4407964 0.2495874
vt 0.5161372 0.1737518
vt 0.4387686 0.1530212
vt 0.5436895 0.1260296
vt 0.4870517 0.06939191
vt 0.5914114 0.09847724
vt 0.570681 0.02110875
vt 0.009188354 0.4491979
vt 0.009188348 0.9812371
vt 0.0679776 0.9812371
vt 0.06797761 0.4491979
vt 0.1267662 0.9812371
vt 0.1267661 0.4491979
vt 0.1855557 0.9812371
vt 0.1855556 0.4491979
vt 0.2443443 0.9812371
vt 0.2443443 0.4491979
vt 0.3031333 0.9812372
vt 0.3031335 0.4491979
vt 0.3619228 0.9812372
vt 0.3619226 0.4491979
vt 0.4207115 0.9812372
vt 0.4207115 0.4491979
vt 0.4795011 0.9812372
vt 0.4795011 0.4491979
vt 0.5382898 0.9812371
vt 0.5382898 0.4491979
vt 0.597079 0.9812371
vt 0.597079 0.4491978
vt 0.6558678 0.9812371
vt 0.6558679 0.4491978
vt 0.7146572 0.9812371
vt 0.7146572 0.4491978
vn 0 1 0
vn 0 1 0
vn 0 1 0
vn 0 1 0
vn 0 1 0
vn 0 1 0
vn 0 1 0
vn 0 1 0
vn 0 1 0
vn 0 1 0
vn 0 1 0
vn 0 1 0
vn 0.9659258 2.095256E-07 0.258819
vn 0.9659258 2.095256E-07 0.258819
vn 0.7071068 1.992479E-07 0.7071068
vn 0.7071068 1.992479E-07 0.7071068
vn 0.2588191 1.474588E-07 0.9659258
vn 0.2588191 1.474588E-07 0.9659258
vn -0.258819 0 0.9659258
vn -0.2588191 0 0.9659258
vn 0.9659257 1.810616E-07 -0.2588192
vn 0.9659257 1.810616E-07 -0.2588191
vn 0.7071066 0 -0.7071069
vn 0.7071066 0 -0.7071068
vn 0.2588188 0 -0.9659258
vn 0.2588188 0 -0.9659258
vn -0.2588193 -1.442962E-07 -0.9659257
vn -0.2588193 -1.442962E-07 -0.9659257
vn 0.2588188 0 -0.9659258
vn 0.2588188 0 -0.9659258
vn -0.7071069 -1.99248E-07 -0.7071066
vn -0.7071069 -1.992481E-07 -0.7071066
vn -0.9659258 -2.126883E-07 -0.2588189
vn -0.9659258 -2.126883E-07 -0.2588189
vn -0.9659258 -1.858057E-07 0.2588189
vn -0.9659258 -1.858057E-07 0.2588189
vn -0.7071069 0 0.7071066
vn -0.7071069 0 0.7071066
vn -0.2588191 0 0.9659258
vn -0.258819 0 0.9659258
vn 0 -1 0
vn 0 -1 0
vn 0 -1 0
vn 0 -1 0
vn 0 -1 0
vn 0 -1 0
vn 0 -1 0
vn 0 -1 0
vn 0 -1 0
vn 0 -1 0
vn 0 -1 0
vn 0 -1 0
vn 0 -1 0
vn 0 -1 0
vn 0 -1 0
vn 0 -1 0
vn 0 -1 0
vn 0 -1 0
vn 0 -1 0
vn 0 -1 0
vn 0 -1 0
vn 0 -1 0
vn 0 -1 0
vn 0 -1 0
vn 0 -1 0
vn 0 -1 0
vn 0 -1 0
vn 0 -1 0
vn 0 -1 0
vn 0 -1 0
vn 0 -1 0
vn 0 -1 0
vn 0 -1 0
vn 0 -1 0
vn 0 -1 0
vn 0 -1 0
vn -0.2588193 0 0.9659257
vn -0.2588192 0 0.9659257
vn -0.7071069 0 0.7071066
vn -0.7071069 0 0.7071066
vn -0.9659257 -1.359554E-07 0.2588192
vn -0.9659257 -1.359554E-07 0.2588192
vn -0.9659258 -1.592898E-07 -0.2588191
vn -0.9659258 -1.592898E-07 -0.2588191
vn -0.7071068 -1.375823E-07 -0.7071068
vn -0.7071068 -1.375823E-07 -0.7071068
vn -0.2588193 0 -0.9659257
vn -0.2588194 0 -0.9659257
vn 0.2588189 0 -0.9659258
vn 0.2588189 0 -0.9659258
vn 0.7071066 0 -0.7071069
vn 0.7071066 0 -0.7071069
vn 0.9659257 1.362584E-07 -0.2588193
vn 0.9659257 1.362584E-07 -0.2588193
vn 0.9659257 1.592898E-07 0.2588192
vn 0.9659257 1.592898E-07 0.2588192
vn 0.7071068 1.3637E-07 0.7071068
vn 0.7071068 1.3637E-07 0.7071068
vn 0.2588193 0 0.9659257
vn 0.2588192 0 0.9659257
vn -0.2588192 0 0.9659257
vn -0.2588193 0 0.9659257
g muzzle_all_gemtech_direct_mount_multi_LOD1_0
f 3/3/3 2/2/2 1/1/1
f 4/4/4 2/2/2 3/3/3
f 5/5/5 2/2/2 4/4/4
f 6/6/6 2/2/2 5/5/5
f 7/7/7 2/2/2 6/6/6
f 8/8/8 2/2/2 7/7/7
f 9/9/9 2/2/2 8/8/8
f 10/10/10 2/2/2 9/9/9
f 11/11/11 2/2/2 10/10/10
f 12/12/12 2/2/2 11/11/11
f 15/15/15 14/14/14 13/13/13
f 16/16/16 15/15/15 13/13/13
f 17/17/17 15/15/15 16/16/16
f 18/18/18 17/17/17 16/16/16
f 19/19/19 17/17/17 18/18/18
f 20/20/20 19/19/19 18/18/18
f 13/13/13 14/14/14 21/21/21
f 14/14/14 22/22/22 21/21/21
f 21/21/21 22/22/22 23/23/23
f 22/22/22 24/24/24 23/23/23
f 23/23/23 24/24/24 25/25/25
f 24/24/24 26/26/26 25/25/25
f 29/29/29 28/28/28 27/27/27
f 30/30/30 29/29/29 27/27/27
f 27/27/27 28/28/28 31/31/31
f 28/28/28 32/32/32 31/31/31
f 31/31/31 32/32/32 33/33/33
f 32/32/32 34/34/34 33/33/33
f 33/33/33 34/34/34 35/35/35
f 34/34/34 36/36/36 35/35/35
f 35/35/35 36/36/36 37/37/37
f 36/36/36 38/38/38 37/37/37
f 37/37/37 38/38/38 39/39/39
f 38/38/38 40/40/40 39/39/39
f 43/43/43 42/42/42 41/41/41
f 41/41/41 44/44/44 43/43/43
f 41/41/41 45/45/45 44/44/44
f 45/45/45 46/46/46 44/44/44
f 45/45/45 47/47/47 46/46/46
f 47/47/47 48/48/48 46/46/46
f 47/47/47 49/49/49 48/48/48
f 49/49/49 50/50/50 48/48/48
f 49/49/49 51/51/51 50/50/50
f 51/51/51 52/52/52 50/50/50
f 55/55/55 54/54/54 53/53/53
f 56/56/56 55/55/55 53/53/53
f 57/57/57 55/55/55 56/56/56
f 58/58/58 57/57/57 56/56/56
f 59/59/59 57/57/57 58/58/58
f 60/60/60 59/59/59 58/58/58
f 61/61/61 59/59/59 60/60/60
f 62/62/62 61/61/61 60/60/60
f 63/63/63 61/61/61 62/62/62
f 64/64/64 63/63/63 62/62/62
f 65/65/65 63/63/63 64/64/64
f 66/66/66 65/65/65 64/64/64
f 67/67/67 65/65/65 66/66/66
f 68/68/68 67/67/67 66/66/66
f 69/69/69 67/67/67 68/68/68
f 70/70/70 69/69/69 68/68/68
f 71/71/71 69/69/69 70/70/70
f 72/72/72 71/71/71 70/70/70
f 73/73/73 71/71/71 72/72/72
f 74/74/74 73/73/73 72/72/72
f 75/75/75 73/73/73 74/74/74
f 76/76/76 75/75/75 74/74/74
f 54/54/54 75/75/75 76/76/76
f 53/53/53 54/54/54 76/76/76
f 79/79/79 78/78/78 77/77/77
f 80/80/80 79/79/79 77/77/77
f 81/81/81 79/79/79 80/80/80
f 82/82/82 81/81/81 80/80/80
f 83/83/83 81/81/81 82/82/82
f 84/84/84 83/83/83 82/82/82
f 85/85/85 83/83/83 84/84/84
f 86/86/86 85/85/85 84/84/84
f 87/87/87 85/85/85 86/86/86
f 88/88/88 87/87/87 86/86/86
f 89/89/89 87/87/87 88/88/88
f 90/90/90 89/89/89 88/88/88
f 91/91/91 89/89/89 90/90/90
f 92/92/92 91/91/91 90/90/90
f 93/93/93 91/91/91 92/92/92
f 94/94/94 93/93/93 92/92/92
f 95/95/95 93/93/93 94/94/94
f 96/96/96 95/95/95 94/94/94
f 97/97/97 95/95/95 96/96/96
f 98/98/98 97/97/97 96/96/96
f 99/99/99 97/97/97 98/98/98
f 100/100/100 99/99/99 98/98/98
f 101/101/101 99/99/99 100/100/100
f 102/102/102 101/101/101 100/100/100
