g muzzle_ak74_izhmash_ak101_std_556x45_LOD1
v 0.0001760086 -0.0812286 0.009572158
v 0.0001760086 -0.07355659 0.009603958
v 0.007082603 -0.0812286 0.006711408
v 0.007105074 -0.07355659 0.006733878
v -0.006753056 -0.07355659 0.006733878
v -0.006730586 -0.0812286 0.006711408
v -0.009623136 -0.07355659 -0.0001951541
v -0.009591336 -0.0812286 -0.0001951881
v -0.006753056 -0.07355659 -0.007124312
v -0.006730586 -0.0812286 -0.007101782
v 0.0001760086 -0.07355659 -0.009994402
v 0.0001760086 -0.0812286 -0.009962622
v 0.009943374 -0.0812286 -0.0001951881
v 0.009975174 -0.07355659 -0.0001951541
v 0.007082603 -0.0812286 -0.007101782
v 0.007105074 -0.07355659 -0.007124312
v 0.0001760086 -0.0812286 -0.009962622
v 0.0001760086 -0.07355659 -0.009994402
v 0.01049181 -0.0001465988 -0.01051097
v -0.01441274 -0.0001465988 -0.0001951701
v 0.0001760086 -0.0001465988 -0.01478394
v -0.01013984 -0.0001465988 -0.01051097
v -0.01013984 -0.0001465988 0.01012066
v 0.01476476 -0.0001465988 -0.0001951701
v 0.0001760086 -0.0001465988 0.01439356
v 0.01049181 -0.0001465988 0.01012066
v -0.01013984 -0.0001465988 -0.01051097
v -0.009602036 -0.0726276 -0.009973181
v 0.0001760086 -0.0001465988 -0.01478394
v 0.0001760086 -0.0726276 -0.01402334
v -0.01365214 -0.0726276 -0.0001951701
v -0.01441274 -0.0001465988 -0.0001951701
v -0.009602036 -0.0726276 0.009582858
v -0.01013984 -0.0001465988 0.01012066
v 0.0001760086 -0.0726276 0.01363306
v 0.0001760086 -0.0001465988 0.01439356
v 0.009954014 -0.0726276 0.009582858
v 0.01049181 -0.0001465988 0.01012066
v 0.01400416 -0.0726276 -0.0001951701
v 0.01476476 -0.0001465988 -0.0001951701
v 0.009954014 -0.0726276 -0.009973181
v 0.01049181 -0.0001465988 -0.01051097
v 0.0001760086 -0.0001465988 -0.01478394
v 0.0001760086 -0.0726276 -0.01402334
v -0.006730586 -0.0812286 -0.007101782
v -0.009591336 -0.0812286 -0.0001951881
v 0.0001760095 -0.0812286 -0.0001951881
v -0.006730586 -0.0812286 0.006711408
v 0.0001760086 -0.0812286 0.009572158
v 0.007082603 -0.0812286 0.006711408
v 0.009943374 -0.0812286 -0.0001951881
v 0.007082603 -0.0812286 -0.007101782
v 0.0001760086 -0.0812286 -0.009962622
v 0.01400416 -0.0726276 -0.0001951701
v 0.009954014 -0.0726276 -0.009973181
v 0.007105074 -0.07355659 -0.007124312
v 0.009975174 -0.07355659 -0.0001951541
v 0.0001760086 -0.07355659 -0.009994402
v 0.0001760086 -0.0726276 -0.01402334
v 0.007105074 -0.07355659 0.006733878
v 0.009954014 -0.0726276 0.009582858
v 0.0001760086 -0.0726276 0.01363306
v 0.0001760086 -0.07355659 0.009603958
v -0.009602036 -0.0726276 0.009582858
v -0.006753056 -0.07355659 0.006733878
v -0.009623136 -0.07355659 -0.0001951541
v -0.01365214 -0.0726276 -0.0001951701
v -0.006753056 -0.07355659 -0.007124312
v -0.009602036 -0.0726276 -0.009973181
v 0.0001760086 -0.07355659 -0.009994402
v 0.0001760086 -0.0726276 -0.01402334
vt 0.380805 0.00801351
vt 0.380805 0.280729
vt 0.473506 0.00801351
vt 0.473506 0.280729
vt 0.288104 0.280729
vt 0.288104 0.00801351
vt 0.195402 0.280729
vt 0.195402 0.00801351
vt 0.102701 0.280729
vt 0.102701 0.00801351
vt 0.01 0.280729
vt 0.01 0.00801351
vt 0.566207 0.00801351
vt 0.566207 0.280729
vt 0.658908 0.00801351
vt 0.658908 0.280729
vt 0.75161 0.00801351
vt 0.75161 0.280729
vt 0.850893 0.000397819
vt 0.922034 0.0742833
vt 0.892566 0.000397819
vt 0.922034 0.0310022
vt 0.892566 0.104888
vt 0.821425 0.0310022
vt 0.850892 0.104888
vt 0.821425 0.0742832
vt 0.132036 0.997883
vt 0.132036 0.381082
vt 0.008593 0.997883
vt 0.008593 0.381082
vt 0.25548 0.381082
vt 0.25548 0.997883
vt 0.378923 0.381082
vt 0.378923 0.997883
vt 0.502366 0.381082
vt 0.502366 0.997883
vt 0.625809 0.381082
vt 0.625809 0.997883
vt 0.749253 0.381082
vt 0.749253 0.997883
vt 0.872696 0.381082
vt 0.872696 0.997883
vt 0.996139 0.997883
vt 0.996139 0.381082
vt 0.825523 0.370127
vt 0.924835 0.370127
vt 0.87518 0.24045
vt 0.99506 0.294164
vt 0.99506 0.186736
vt 0.924836 0.110773
vt 0.825523 0.110773
vt 0.755298 0.186736
vt 0.755298 0.294164
vt 0.566207 0.375679
vt 0.658908 0.375679
vt 0.658908 0.285773
vt 0.566207 0.285773
vt 0.75161 0.285773
vt 0.75161 0.375679
vt 0.473506 0.285773
vt 0.473506 0.375679
vt 0.380805 0.375679
vt 0.380805 0.285773
vt 0.288104 0.375679
vt 0.288104 0.285773
vt 0.195402 0.285773
vt 0.195402 0.375679
vt 0.102701 0.285773
vt 0.102701 0.375679
vt 0.01 0.285773
vt 0.01 0.375679
vn -7.590608E-07 -0.004144165 0.9999914
vn -7.194827E-07 -0.004144175 0.9999914
vn 0.7071003 -0.004142735 0.7071011
vn 0.7071 -0.004143164 0.7071013
vn -0.7070996 -0.004142684 0.7071018
vn -0.7071 -0.004143151 0.7071015
vn -0.9999914 -0.004143701 3.145164E-06
vn -0.9999914 -0.004145464 -6.667424E-07
vn -0.7071015 -0.004146991 -0.7070999
vn -0.7071044 -0.004145583 -0.707097
vn -1.808986E-06 -0.004144157 -0.9999914
vn -1.825857E-06 -0.00414417 -0.9999914
vn 0.9999914 -0.004143665 0
vn 0.9999914 -0.004145428 3.802983E-06
vn 0.707105 -0.004147003 -0.7070963
vn 0.7071022 -0.004145629 -0.7070992
vn -1.825857E-06 -0.00414417 -0.9999914
vn -1.808986E-06 -0.004144157 -0.9999914
vn 0 1 0
vn 0 1 0
vn 0 1 0
vn 0 1 0
vn 0 1 0
vn 0 1 0
vn 0 1 0
vn 0 1 0
vn -0.7070695 -0.01049288 -0.7070661
vn -0.7070694 -0.01049291 -0.7070662
vn 7.772132E-07 -0.01049263 -0.9999449
vn 7.16919E-07 -0.01049321 -0.9999449
vn -0.9999449 -0.01049293 -5.530507E-07
vn -0.9999449 -0.01049296 -6.176516E-07
vn -0.7070706 -0.01049296 0.707065
vn -0.7070677 -0.01049232 0.707068
vn 8.910294E-07 -0.01049222 0.9999449
vn 1.029419E-06 -0.0104922 0.9999449
vn 0.7070695 -0.0104923 0.7070662
vn 0.7070668 -0.01049293 0.7070689
vn 0.9999449 -0.01049296 -1.600265E-07
vn 0.9999449 -0.01049295 -3.088263E-07
vn 0.7070683 -0.01049317 -0.7070675
vn 0.7070684 -0.0104926 -0.7070673
vn 7.772132E-07 -0.01049263 -0.9999449
vn 7.16919E-07 -0.01049321 -0.9999449
vn 0 -1 0
vn 0 -1 0
vn 0 -1 0
vn 0 -1 0
vn 0 -1 0
vn 0 -1 0
vn 0 -1 0
vn 0 -1 0
vn 0 -1 0
vn 0.2246818 -0.9744322 -1.888528E-07
vn 0.1588752 -0.9744319 -0.1588744
vn 0.1588742 -0.9744319 -0.1588754
vn 0.2246818 -0.9744322 4.253048E-07
vn 1.839156E-07 -0.9744316 -0.2246845
vn 1.290495E-07 -0.9744315 -0.2246845
vn 0.1588729 -0.9744329 0.1588713
vn 0.1588722 -0.9744329 0.158872
vn 1.321974E-07 -0.9744332 0.2246772
vn 1.839156E-07 -0.9744332 0.2246772
vn -0.1588719 -0.9744331 0.1588708
vn -0.158872 -0.9744331 0.1588706
vn -0.2246808 -0.9744324 4.099789E-07
vn -0.2246808 -0.9744324 -2.014422E-07
vn -0.1588734 -0.9744322 -0.1588747
vn -0.1588748 -0.9744322 -0.1588732
vn 1.839156E-07 -0.9744316 -0.2246845
vn 1.290495E-07 -0.9744315 -0.2246845
g muzzle_ak74_izhmash_ak101_std_556x45_LOD1_0
f 3/3/3 2/2/2 1/1/1
f 2/2/2 3/3/3 4/4/4
f 5/5/5 1/1/1 2/2/2
f 1/1/1 5/5/5 6/6/6
f 7/7/7 6/6/6 5/5/5
f 6/6/6 7/7/7 8/8/8
f 9/9/9 8/8/8 7/7/7
f 8/8/8 9/9/9 10/10/10
f 11/11/11 10/10/10 9/9/9
f 11/11/11 12/12/12 10/10/10
f 4/4/4 3/3/3 13/13/13
f 4/4/4 13/13/13 14/14/14
f 15/15/15 14/14/14 13/13/13
f 14/14/14 15/15/15 16/16/16
f 17/17/17 16/16/16 15/15/15
f 16/16/16 17/17/17 18/18/18
f 21/21/21 20/20/20 19/19/19
f 20/20/20 21/21/21 22/22/22
f 23/23/23 19/19/19 20/20/20
f 19/19/19 23/23/23 24/24/24
f 25/25/25 24/24/24 23/23/23
f 24/24/24 25/25/25 26/26/26
f 29/29/29 28/28/28 27/27/27
f 28/28/28 29/29/29 30/30/30
f 31/31/31 27/27/27 28/28/28
f 27/27/27 31/31/31 32/32/32
f 33/33/33 32/32/32 31/31/31
f 32/32/32 33/33/33 34/34/34
f 35/35/35 34/34/34 33/33/33
f 34/34/34 35/35/35 36/36/36
f 37/37/37 36/36/36 35/35/35
f 36/36/36 37/37/37 38/38/38
f 39/39/39 38/38/38 37/37/37
f 38/38/38 39/39/39 40/40/40
f 41/41/41 40/40/40 39/39/39
f 40/40/40 41/41/41 42/42/42
f 41/41/41 43/43/43 42/42/42
f 43/43/43 41/41/41 44/44/44
f 47/47/47 46/46/46 45/45/45
f 48/48/48 46/46/46 47/47/47
f 49/49/49 48/48/48 47/47/47
f 49/49/49 47/47/47 50/50/50
f 47/47/47 51/51/51 50/50/50
f 47/47/47 52/52/52 51/51/51
f 52/52/52 47/47/47 53/53/53
f 47/47/47 45/45/45 53/53/53
f 56/56/56 55/55/55 54/54/54
f 57/57/57 56/56/56 54/54/54
f 56/56/56 58/58/58 55/55/55
f 58/58/58 59/59/59 55/55/55
f 60/60/60 57/57/57 54/54/54
f 61/61/61 60/60/60 54/54/54
f 60/60/60 61/61/61 62/62/62
f 63/63/63 60/60/60 62/62/62
f 63/63/63 62/62/62 64/64/64
f 65/65/65 63/63/63 64/64/64
f 66/66/66 65/65/65 64/64/64
f 67/67/67 66/66/66 64/64/64
f 68/68/68 66/66/66 67/67/67
f 69/69/69 68/68/68 67/67/67
f 70/70/70 68/68/68 69/69/69
f 71/71/71 70/70/70 69/69/69
