g muzzle_glock_double_diamond_9x19_LOD1
v -0.01232895 0.002277648 -0.007287544
v -0.009825583 0.002277646 -0.009979743
v 0.009826003 0.00227764 -0.009979743
v 0.01256509 0.002277641 -0.007287544
v 0.01256509 0.002277653 0.006548023
v -0.01232895 0.00227766 0.007287719
v 0.009268125 0.002277655 0.01011006
v -0.009205382 0.002277662 0.01011006
v -0.01232896 -0.03168574 -0.007287511
v -0.01232896 -0.03168572 0.007287752
v 0.01256508 -0.03168573 0.006548055
v 0.01256508 -0.03168575 -0.007287511
v 0.009825995 -0.03168575 -0.009979709
v -0.00982559 -0.03168574 -0.009979709
v 0.009268117 -0.03168573 0.0101101
v -0.00920539 -0.03168572 0.0101101
v -0.009825583 0.002277646 -0.009979743
v -0.00982559 -0.03168574 -0.009979709
v 0.009825995 -0.03168575 -0.009979709
v 0.009826003 0.00227764 -0.009979743
v 0.01256509 0.002277641 -0.007287544
v 0.01256508 -0.03168575 -0.007287511
v 0.01256508 -0.03168573 0.006548055
v 0.01256509 0.002277653 0.006548023
v 0.009268125 0.002277655 0.01011006
v 0.009268117 -0.03168573 0.0101101
v -0.00920539 -0.03168572 0.0101101
v -0.009205382 0.002277662 0.01011006
v -0.01232895 0.00227766 0.007287719
v -0.01232896 -0.03168572 0.007287752
v -0.01232896 -0.03168574 -0.007287511
v -0.01232895 0.002277648 -0.007287544
v 0.009826003 0.00227764 -0.009979743
v 0.009825995 -0.03168575 -0.009979709
v 0.01256508 -0.03168575 -0.007287511
v 0.01256509 0.002277641 -0.007287544
v -0.00982559 -0.03168574 -0.009979709
v -0.009825583 0.002277646 -0.009979743
v -0.01232895 0.002277648 -0.007287544
v -0.01232896 -0.03168574 -0.007287511
v 0.01256509 0.002277653 0.006548023
v 0.01256508 -0.03168573 0.006548055
v 0.009268117 -0.03168573 0.0101101
v 0.009268125 0.002277655 0.01011006
v -0.009205382 0.002277662 0.01011006
v -0.00920539 -0.03168572 0.0101101
v -0.01232896 -0.03168572 0.007287752
v -0.01232895 0.00227766 0.007287719
vt 0.6327552 0.9871116
vt 0.6721517 0.9509048
vt 0.673821 0.6648833
vt 0.6348698 0.6247885
vt 0.4334982 0.6236132
vt 0.4206178 0.9858736
vt 0.3813742 0.6712968
vt 0.3798052 0.9401718
vt 0.9417059 0.6228513
vt 0.7295657 0.6222428
vt 0.7392928 0.9846016
vt 0.940667 0.9851793
vt 0.9799658 0.9454247
vt 0.980786 0.6593996
vt 0.6875855 0.9364663
vt 0.6883566 0.6675877
vt 0.06105705 0.5535308
vt 0.06105705 0.9881722
vt 0.3125453 0.9881722
vt 0.3125453 0.5535308
vt 0.6141086 0.009977711
vt 0.6141086 0.5043107
vt 0.8154836 0.5043107
vt 0.8154836 0.009977769
vt 0.5876452 0.5050955
vt 0.5876455 0.01076248
vt 0.3187657 0.01076242
vt 0.3187657 0.5050955
vt 0.01704801 0.01195872
vt 0.01704806 0.5062916
vt 0.2291892 0.5062916
vt 0.2291891 0.01195872
vt 0.3125453 0.5535308
vt 0.3125453 0.9881722
vt 0.3616953 0.9881722
vt 0.3616953 0.5535308
vt 0.06105705 0.9881722
vt 0.06105705 0.5535308
vt 0.01401089 0.5535308
vt 0.01401089 0.9881722
vt 0.8154836 0.009977769
vt 0.8154836 0.5043107
vt 0.8861279 0.5043107
vt 0.8861281 0.009977769
vt 0.3187657 0.5050955
vt 0.3187657 0.01076242
vt 0.2574932 0.01076242
vt 0.257493 0.5050955
vn 2.700708E-07 1 -8.014403E-07
vn 2.776471E-07 1 -7.593722E-07
vn 2.776471E-07 1 -7.593722E-07
vn 2.699257E-07 1 -8.022459E-07
vn 2.803156E-07 1 -7.56561E-07
vn 2.803113E-07 1 -7.565814E-07
vn 3.089441E-07 1 -6.217896E-07
vn 3.089441E-07 1 -6.217896E-07
vn -3.197322E-07 -1 7.210762E-07
vn -3.387747E-07 -1 8.496185E-07
vn -3.387808E-07 -1 8.495446E-07
vn -3.197054E-07 -1 7.34617E-07
vn -3.211341E-07 -1 0
vn -3.21134E-07 -1 0
vn -3.786398E-07 -1 3.631567E-07
vn -3.786398E-07 -1 3.631567E-07
vn 0 -9.82782E-07 -1
vn 0 -9.82782E-07 -1
vn 0 -9.82782E-07 -1
vn 0 -9.82782E-07 -1
vn 1 -3.334439E-07 0
vn 1 -3.334438E-07 0
vn 1 -3.334438E-07 0
vn 1 -3.334438E-07 0
vn 0 1.017881E-06 1
vn 0 1.017881E-06 1
vn 0 1.017881E-06 1
vn 0 1.017881E-06 1
vn -1 3.158942E-07 0
vn -1 3.158942E-07 0
vn -1 3.158942E-07 0
vn -1 3.158942E-07 0
vn 0.7009766 -8.910458E-07 -0.7131843
vn 0.7009766 -8.910458E-07 -0.7131843
vn 0.7009766 -8.910459E-07 -0.7131842
vn 0.7009766 -8.910458E-07 -0.7131843
vn -0.7323233 -4.699216E-07 -0.6809572
vn -0.7323233 -4.699216E-07 -0.6809571
vn -0.7323233 -4.699216E-07 -0.6809572
vn -0.7323233 -4.699216E-07 -0.6809571
vn 0.7338863 4.621388E-07 0.6792724
vn 0.7338863 4.621387E-07 0.6792724
vn 0.7338863 4.621388E-07 0.6792724
vn 0.7338863 4.621387E-07 0.6792724
vn -0.6704249 9.18435E-07 0.7419774
vn -0.6704249 9.18435E-07 0.7419774
vn -0.6704249 9.184351E-07 0.7419774
vn -0.6704249 9.18435E-07 0.7419774
g muzzle_glock_double_diamond_9x19_LOD1_0
f 3/3/3 2/2/2 1/1/1
f 4/4/4 3/3/3 1/1/1
f 5/5/5 4/4/4 1/1/1
f 6/6/6 5/5/5 1/1/1
f 7/7/7 5/5/5 6/6/6
f 8/8/8 7/7/7 6/6/6
f 11/11/11 10/10/10 9/9/9
f 12/12/12 11/11/11 9/9/9
f 13/13/13 12/12/12 9/9/9
f 14/14/14 13/13/13 9/9/9
f 10/10/10 11/11/11 15/15/15
f 16/16/16 10/10/10 15/15/15
f 19/19/19 18/18/18 17/17/17
f 20/20/20 19/19/19 17/17/17
f 23/23/23 22/22/22 21/21/21
f 24/24/24 23/23/23 21/21/21
f 27/27/27 26/26/26 25/25/25
f 28/28/28 27/27/27 25/25/25
f 31/31/31 30/30/30 29/29/29
f 32/32/32 31/31/31 29/29/29
f 35/35/35 34/34/34 33/33/33
f 36/36/36 35/35/35 33/33/33
f 39/39/39 38/38/38 37/37/37
f 40/40/40 39/39/39 37/37/37
f 43/43/43 42/42/42 41/41/41
f 44/44/44 43/43/43 41/41/41
f 47/47/47 46/46/46 45/45/45
f 48/48/48 47/47/47 45/45/45
