g muzzle_ar10_fortis_red_brake_762x51_LOD1
v -0.008187057 -0.08236164 0.01114555
v -0.008187057 -3.194809E-07 0.01114557
v 0.008186985 -3.194809E-07 0.01114557
v 0.008186986 -0.08236164 0.01114555
v -0.01345982 -0.08236164 0.005021431
v -0.01345982 -3.194809E-07 0.005021445
v -0.008187057 -3.194809E-07 0.01114557
v -0.008187057 -0.08236164 0.01114555
v -0.01345982 -0.08236164 -0.005021441
v -0.01345982 -3.194809E-07 -0.005021428
v -0.008187061 -0.08236164 -0.01114556
v -0.008187057 -3.194809E-07 -0.01114555
v 0.008186989 -0.08236164 -0.01114556
v 0.008186989 -3.194809E-07 -0.01114555
v -0.008187057 -3.194809E-07 -0.01114555
v -0.008187061 -0.08236164 -0.01114556
v 0.01345976 -0.08236164 -0.005021441
v 0.01345976 -3.194809E-07 -0.005021428
v 0.008186989 -3.194809E-07 -0.01114555
v 0.008186989 -0.08236164 -0.01114556
v 0.01345976 -0.08236164 0.005021432
v 0.01345976 -3.194809E-07 0.005021445
v 0.008186985 -3.194809E-07 0.01114557
v 0.008186986 -0.08236164 0.01114555
v -0.008187057 -3.194809E-07 0.01114557
v -0.01345982 -3.194809E-07 0.005021445
v -0.01345982 -3.194809E-07 -0.005021428
v -0.008187057 -3.194809E-07 -0.01114555
v 0.008186985 -3.194809E-07 0.01114557
v 0.008186989 -3.194809E-07 -0.01114555
v 0.01345976 -3.194809E-07 -0.005021428
v 0.01345976 -3.194809E-07 0.005021445
v 0.01345976 -0.08236164 0.005021432
v 0.01345976 -0.08236164 -0.005021441
v 0.008186989 -0.08236164 -0.01114556
v 0.008186986 -0.08236164 0.01114555
v -0.008187057 -0.08236164 0.01114555
v -0.008187061 -0.08236164 -0.01114556
v -0.01345982 -0.08236164 0.005021431
v -0.01345982 -0.08236164 -0.005021441
vt 0.01846278 0.7013197
vt 0.9891073 0.7013197
vt 0.9891073 0.5303801
vt 0.01846278 0.5303801
vt 0.01803786 0.2250652
vt 0.9886824 0.2250652
vt 0.9886824 0.3148934
vt 0.01803786 0.3148934
vt 0.01803786 0.1086562
vt 0.9886824 0.1086562
vt 0.01803786 0.01882812
vt 0.9886824 0.01882812
vt 0.9887431 0.337133
vt 0.01810011 0.337133
vt 0.01810011 0.508074
vt 0.9887431 0.508074
vt 0.01803786 0.1086562
vt 0.9886824 0.1086562
vt 0.9886824 0.01882812
vt 0.01803786 0.01882812
vt 0.01803786 0.2250652
vt 0.9886824 0.2250652
vt 0.9886824 0.3148934
vt 0.01803786 0.3148934
vt 0.08414984 0.9903906
vt 0.02356013 0.9154415
vt 0.02356157 0.7925362
vt 0.0841499 0.7175903
vt 0.2722979 0.9903906
vt 0.272298 0.7175903
vt 0.3328848 0.7925362
vt 0.3328848 0.9154415
vt 0.6686487 0.9127802
vt 0.6686504 0.7898749
vt 0.608062 0.7149259
vt 0.6080605 0.9877262
vt 0.4199123 0.9877262
vt 0.4199139 0.7149259
vt 0.3593241 0.9127786
vt 0.3593255 0.7898733
vn 0 -1.447394E-07 1
vn 0 -1.447394E-07 1
vn 0 -1.447394E-07 1
vn 0 -1.447394E-07 1
vn -0.9375011 0 0.3479823
vn -0.9375011 0 0.3479824
vn -0.7578166 -1.057837E-07 0.6524677
vn -0.7578166 -1.057838E-07 0.6524677
vn -0.9375011 0 -0.3479824
vn -0.9375011 0 -0.3479823
vn -0.7578166 1.203361E-07 -0.6524676
vn -0.7578166 1.203361E-07 -0.6524677
vn -1.456076E-07 1.592133E-07 -1
vn -1.456076E-07 1.592133E-07 -1
vn -1.456076E-07 1.592133E-07 -1
vn -1.456076E-07 1.592133E-07 -1
vn 0.9375011 0 -0.3479824
vn 0.9375011 0 -0.3479823
vn 0.7578166 1.063435E-07 -0.6524675
vn 0.7578166 1.063435E-07 -0.6524676
vn 0.937501 0 0.3479825
vn 0.937501 0 0.3479826
vn 0.7578164 0 0.6524679
vn 0.7578164 0 0.6524679
vn 0 1 0
vn 0 1 0
vn 0 1 0
vn 0 1 0
vn 0 1 0
vn 0 1 0
vn 0 1 0
vn 0 1 0
vn 0 -1 0
vn 0 -1 0
vn 0 -1 0
vn 0 -1 0
vn 0 -1 0
vn 0 -1 0
vn 0 -1 0
vn 0 -1 0
g muzzle_ar10_fortis_red_brake_762x51_LOD1_0
f 3/3/3 2/2/2 1/1/1
f 4/4/4 3/3/3 1/1/1
f 7/7/7 6/6/6 5/5/5
f 8/8/8 7/7/7 5/5/5
f 5/5/5 6/6/6 9/9/9
f 6/6/6 10/10/10 9/9/9
f 9/9/9 10/10/10 11/11/11
f 10/10/10 12/12/12 11/11/11
f 15/15/15 14/14/14 13/13/13
f 16/16/16 15/15/15 13/13/13
f 19/19/19 18/18/18 17/17/17
f 20/20/20 19/19/19 17/17/17
f 17/17/17 18/18/18 21/21/21
f 18/18/18 22/22/22 21/21/21
f 21/21/21 22/22/22 23/23/23
f 24/24/24 21/21/21 23/23/23
f 27/27/27 26/26/26 25/25/25
f 28/28/28 27/27/27 25/25/25
f 28/28/28 25/25/25 29/29/29
f 30/30/30 28/28/28 29/29/29
f 30/30/30 29/29/29 31/31/31
f 29/29/29 32/32/32 31/31/31
f 35/35/35 34/34/34 33/33/33
f 36/36/36 35/35/35 33/33/33
f 36/36/36 37/37/37 35/35/35
f 37/37/37 38/38/38 35/35/35
f 37/37/37 39/39/39 38/38/38
f 39/39/39 40/40/40 38/38/38
