g muzzle_mp5_hk_navy_style_3_lug_supressor_adapter_9x19_LOD1
v -0.009317464 -0.007690172 0.006622864
v -0.009317464 -0.00190978 0.009960094
v -0.003391523 -0.001339102 0.010067
v -0.003391523 -0.008068018 0.006182037
v -0.02441673 -0.007774067 -1.44127E-05
v -0.01280827 -0.006733167 0.003870168
v -0.003391523 -0.006733217 0.003870175
v 0.004509668 -0.007774067 -1.44127E-05
v -0.01280817 -0.006733305 -0.003899017
v -0.02441677 -0.005956325 -0.005008442
v -0.0128082 -4.723072E-06 -0.007783733
v -0.02441677 -0.001353855 -0.007665703
v -0.003391523 -0.006733408 -0.003898966
v -0.02441673 -0.005956397 0.004979574
v -0.0244168 -0.001353893 0.007636859
v -0.01280823 -4.630089E-06 0.007754928
v -0.02441677 0.003879833 0.00671397
v 0.004509668 0.003879871 0.006713931
v -0.003391523 0.006723633 0.003870247
v -0.0128082 0.006723671 0.003870254
v -0.003391523 -4.630089E-06 0.007754972
v -0.02441677 0.007296009 0.002642848
v -0.02441673 0.007296047 -0.002671673
v -0.01280823 0.006723735 -0.003899344
v -0.02441677 0.003879986 -0.006742861
v 0.004509668 0.003879948 -0.00674288
v -0.003391536 -4.696846E-06 -0.007783727
v -0.0128082 -4.723072E-06 -0.007783733
v -0.003391511 0.006723671 -0.003899341
v -0.02441677 -0.001353855 -0.007665703
v 0.004509592 0.007295971 -0.002671626
v 0.004509668 -0.001353855 0.00763684
v 0.004509668 -0.001353855 -0.007665694
v 0.004509668 0.007296009 0.002642848
v 0.004509668 -0.005956402 0.004979589
v 0.004509668 -0.005956325 -0.005008471
v 0.004509668 -0.001353855 -0.007665694
v -0.003391536 -4.696846E-06 -0.007783727
v -0.003391523 -0.008068361 -0.006210695
v -0.003391485 -0.001339426 -0.01009561
v -0.009317426 -0.001910067 -0.009988789
v -0.009317502 -0.007690477 -0.006651483
v -0.003391523 0.009393087 -0.003899537
v -0.003391523 0.009393096 0.003870315
v -0.009317502 0.009585967 0.003322677
v -0.009317502 0.009585919 -0.00335188
v -0.01280817 -0.006733305 -0.003899017
v -0.003391523 -0.006733408 -0.003898966
v -0.003391523 -0.008068361 -0.006210695
v -0.009317502 -0.007690477 -0.006651483
v -0.003391523 -0.008068018 0.006182037
v -0.003391523 -0.006733217 0.003870175
v -0.01280827 -0.006733167 0.003870168
v -0.009317464 -0.007690172 0.006622864
v -0.01280823 0.006723735 -0.003899344
v -0.003391511 0.006723671 -0.003899341
v -0.003391523 0.009393087 -0.003899537
v -0.009317502 0.009585919 -0.00335188
v -0.003391485 -0.001339426 -0.01009561
v -0.003391536 -4.696846E-06 -0.007783727
v -0.0128082 -4.723072E-06 -0.007783733
v -0.009317426 -0.001910067 -0.009988789
v -0.01280823 -4.630089E-06 0.007754928
v -0.003391523 -4.630089E-06 0.007754972
v -0.003391523 -0.001339102 0.010067
v -0.009317464 -0.00190978 0.009960094
v -0.003391523 0.009393096 0.003870315
v -0.003391523 0.006723633 0.003870247
v -0.0128082 0.006723671 0.003870254
v -0.009317502 0.009585967 0.003322677
v -0.01280823 0.006723735 -0.003899344
v -0.009317502 0.009585919 -0.00335188
v -0.009317502 0.009585967 0.003322677
v -0.0128082 0.006723671 0.003870254
v -0.01280823 -4.630089E-06 0.007754928
v -0.009317464 -0.00190978 0.009960094
v -0.009317464 -0.007690172 0.006622864
v -0.01280827 -0.006733167 0.003870168
v -0.01280817 -0.006733305 -0.003899017
v -0.009317502 -0.007690477 -0.006651483
v -0.009317426 -0.001910067 -0.009988789
v -0.0128082 -4.723072E-06 -0.007783733
v -0.02441673 -0.005956397 0.004979574
v -0.02441673 -0.007774067 -1.44127E-05
v -0.02441677 -0.001353855 -0.007665703
v -0.0244168 -0.001353893 0.007636859
v -0.02441677 0.003879833 0.00671397
v -0.02441677 0.007296009 0.002642848
v -0.02441677 -0.005956325 -0.005008442
v -0.02441673 0.007296047 -0.002671673
v -0.02441677 0.003879986 -0.006742861
v -0.003391523 -0.006733217 0.003870175
v -0.003391523 -0.008068018 0.006182037
v -0.003391523 -0.001339102 0.010067
v -0.003391523 -4.630089E-06 0.007754972
v -0.003391523 0.006723633 0.003870247
v -0.003391523 0.009393096 0.003870315
v -0.003391523 0.009393087 -0.003899537
v -0.003391511 0.006723671 -0.003899341
v -0.003391536 -4.696846E-06 -0.007783727
v -0.003391485 -0.001339426 -0.01009561
v -0.003391523 -0.008068361 -0.006210695
v -0.003391523 -0.006733408 -0.003898966
v -0.03418452 -0.004665656 0.003896534
v -0.03418448 -0.006089115 -1.440316E-05
v -0.03418452 -0.001061268 -0.006006386
v -0.03418452 -0.001061382 0.005977542
v -0.03418456 0.003037395 0.005254819
v -0.03418452 0.005712681 0.002066581
v -0.03418448 -0.004665584 -0.003925374
v -0.03418452 0.005712719 -0.002095368
v -0.03418452 0.003037472 -0.005283673
v -0.03418452 -0.001061382 0.005977542
v -0.02319849 -0.001061382 0.005977542
v -0.02319849 -0.004665656 0.003896534
v -0.03418452 -0.004665656 0.003896534
v -0.03418456 0.003037395 0.005254819
v -0.02319853 0.003037395 0.005254819
v -0.03418452 0.005712681 0.002066581
v -0.02319849 0.005712681 0.002066581
v -0.03418452 0.005712719 -0.002095368
v -0.02319849 0.005712719 -0.002095368
v -0.03418452 0.003037472 -0.005283673
v -0.02319849 0.003037472 -0.005283673
v -0.03418452 -0.001061268 -0.006006386
v -0.02319849 -0.001061268 -0.006006386
v -0.02319845 -0.006089115 -1.440316E-05
v -0.03418448 -0.006089115 -1.440316E-05
v -0.02319845 -0.004665584 -0.003925374
v -0.03418448 -0.004665584 -0.003925374
v -0.02319849 -0.001061268 -0.006006386
v -0.03418452 -0.001061268 -0.006006386
v 0.004509668 -0.005956325 -0.005008471
v 0.004509668 -0.007774067 -1.44127E-05
v 0.004509668 -0.001353855 -0.007665694
v 0.004509668 -0.005956402 0.004979589
v 0.004509668 -0.001353855 0.00763684
v 0.004509668 0.003879871 0.006713931
v 0.004509668 0.007296009 0.002642848
v 0.004509592 0.007295971 -0.002671626
v 0.004509668 0.003879948 -0.00674288
vt 0.4262924 0.8844847
vt 0.2979743 0.8844847
vt 0.2979743 0.9902727
vt 0.4262924 0.9902727
vt 0.5226452 0.6545516
vt 0.3137991 0.5709654
vt 0.1451726 0.5709654
vt 0.00224803 0.6545516
vt 0.3137991 0.7381455
vt 0.5226452 0.7551665
vt 0.3137991 0.8553032
vt 0.5226452 0.8382821
vt 0.1451726 0.7381455
vt 0.5226452 0.5534269
vt 0.5226452 0.471352
vt 0.3137991 0.4538135
vt 0.5226452 0.3702359
vt 0.00224803 0.3702359
vt 0.1451726 0.286645
vt 0.3137991 0.286645
vt 0.1451726 0.4538135
vt 0.5226452 0.2692627
vt 0.5226452 0.1868857
vt 0.3137991 0.1695035
vt 0.5226452 0.08590877
vt 0.00224803 0.08590877
vt 0.1451726 0.002330217
vt 0.3137991 0.002330217
vt 0.1451726 0.1695035
vt 0.5226452 0.002330217
vt 0.00224803 0.18666
vt 0.00224803 0.4709699
vt 0.00224803 0.002330217
vt 0.00224803 0.2694885
vt 0.00224803 0.5538089
vt 0.00224803 0.7542862
vt 0.00224803 0.8391625
vt 0.1451726 0.8553032
vt 0.1540284 0.9900112
vt 0.2823402 0.9900112
vt 0.2823402 0.8842234
vt 0.1540284 0.8842234
vt 0.1389566 0.8838409
vt 0.01064504 0.8838409
vt 0.01064504 0.9896272
vt 0.1389566 0.9896272
vt 0.6927262 0.8464448
vt 0.6927262 0.6788774
vt 0.6437204 0.6788774
vt 0.6437204 0.783988
vt 0.7500115 0.6778584
vt 0.700995 0.6778584
vt 0.700995 0.8454258
vt 0.7500115 0.78297
vt 0.6331204 0.8458129
vt 0.6331204 0.6786043
vt 0.5836499 0.678566
vt 0.5836499 0.7841166
vt 0.7005973 0.9840522
vt 0.7495902 0.9840522
vt 0.7495902 0.8164725
vt 0.7005973 0.878954
vt 0.6411477 0.816036
vt 0.6411477 0.9828563
vt 0.6911069 0.9828563
vt 0.6911069 0.8768916
vt 0.5779503 0.6778029
vt 0.5284777 0.677842
vt 0.5284777 0.8450534
vt 0.5779503 0.7833552
vt 0.2917132 0.8474568
vt 0.2917132 0.7666677
vt 0.1633999 0.7666677
vt 0.1633999 0.8474568
vt 0.6244109 0.8573327
vt 0.5436189 0.8573327
vt 0.5436189 0.9856527
vt 0.6244109 0.9856527
vt 0.4483007 0.9921013
vt 0.5290938 0.9921013
vt 0.5290938 0.8637837
vt 0.4483007 0.8637837
vt 0.9655098 0.2269228
vt 0.9978054 0.1381955
vt 0.8837243 0.002245164
vt 0.883731 0.2741324
vt 0.7907562 0.2577368
vt 0.7300609 0.1854094
vt 0.965505 0.04946718
vt 0.7300581 0.09097562
vt 0.7907494 0.01864657
vt 0.7721197 0.7794676
vt 0.7721197 0.8268869
vt 0.910131 0.8268869
vt 0.910131 0.7794676
vt 0.9087111 0.9539053
vt 0.9087111 0.906468
vt 0.7706779 0.9064691
vt 0.7706779 0.9539053
vt 0.7704692 0.8411301
vt 0.7704692 0.8885404
vt 0.9084701 0.8885405
vt 0.9084701 0.8411303
vt 0.95639 0.7270849
vt 0.9816903 0.6575986
vt 0.8923559 0.5511425
vt 0.8923579 0.7640602
vt 0.8195307 0.7512155
vt 0.7720035 0.6945754
vt 0.9563862 0.5881122
vt 0.7720064 0.6206339
vt 0.8195298 0.563973
vt 0.7239729 0.3749014
vt 0.5272498 0.3749014
vt 0.5272498 0.4494194
vt 0.7239729 0.4494194
vt 0.7239729 0.3003726
vt 0.5272498 0.3003726
vt 0.7239729 0.2258545
vt 0.5272498 0.2258545
vt 0.7239729 0.1513287
vt 0.5272498 0.1513287
vt 0.7239729 0.07679526
vt 0.5272498 0.07679526
vt 0.7239729 0.002265609
vt 0.5272498 0.002265609
vt 0.5272498 0.5239482
vt 0.7239729 0.5239482
vt 0.5272498 0.5984779
vt 0.7239729 0.5984779
vt 0.5272498 0.6729988
vt 0.7239729 0.6729988
vt 0.7608189 0.3189759
vt 0.7285184 0.4077026
vt 0.8425987 0.2717533
vt 0.7608179 0.4964318
vt 0.8425978 0.5436385
vt 0.9355735 0.5272378
vt 0.9962698 0.4549071
vt 0.9962641 0.3604953
vt 0.9355754 0.2881507
vn 0.03251765 -0.4997327 0.8655692
vn 0.03251765 -0.4997327 0.8655692
vn 0.03251765 -0.4997327 0.8655692
vn 0.03251765 -0.4997327 0.8655692
vn -0.0251612 -0.9996834 -6.116915E-07
vn 0.01329937 -0.8739825 0.4857753
vn -0.01678829 -0.8763592 0.4813656
vn 0.03278548 -0.9994624 2.210142E-06
vn 0.01329535 -0.8739944 -0.4857543
vn 0.01307316 -0.7496021 -0.6617596
vn 0.01329809 0.01629109 -0.9997789
vn 0.01307933 -0.1982919 -0.9800556
vn -0.01678451 -0.8763711 -0.481344
vn 0.01308343 -0.749608 0.6617528
vn 0.01307939 -0.1982904 0.980056
vn 0.01329906 0.01632256 0.9997783
vn -0.02515983 0.4998401 0.8657522
vn 0.03278077 0.4997333 0.8655589
vn -0.01678751 0.8550479 0.518277
vn 0.0132985 0.8576773 0.5140163
vn -0.01678567 0.02132942 0.9996316
vn 0.01307777 0.9478949 0.3183146
vn 0.01307153 0.947903 -0.3182907
vn 0.0132975 0.8576733 -0.5140229
vn -0.02516283 0.4998393 -0.8657525
vn 0.032785 0.4997286 -0.8655613
vn -0.01678788 0.0213 -0.9996321
vn 0.01329809 0.01629109 -0.9997789
vn -0.01678248 0.8550422 -0.5182868
vn 0.01307933 -0.1982919 -0.9800556
vn -0.02116168 0.9513738 -0.3073112
vn -0.02116593 -0.2095277 0.9775736
vn -0.02117344 -0.2095308 -0.9775728
vn -0.02117334 0.9513655 0.3073362
vn -0.02117264 -0.7418382 0.6702446
vn -0.02116108 -0.7418287 -0.6702554
vn -0.02117344 -0.2095308 -0.9775728
vn -0.01678788 0.0213 -0.9996321
vn 0.0325178 -0.4997329 -0.8655689
vn 0.0325178 -0.4997329 -0.8655689
vn 0.03251781 -0.4997329 -0.865569
vn 0.0325178 -0.4997329 -0.8655689
vn 0.03252626 0.9994709 -3.958871E-06
vn 0.03252627 0.9994709 -3.958871E-06
vn 0.03252627 0.9994709 -3.958871E-06
vn 0.03252626 0.9994709 -3.958871E-06
vn -0.03392354 -0.919081 0.3926058
vn -0.03392354 -0.919081 0.3926058
vn -0.03392354 -0.919081 0.3926058
vn -0.03392354 -0.919081 0.3926058
vn -0.03391624 -0.9191105 -0.3925372
vn -0.03391624 -0.9191105 -0.3925372
vn -0.03391624 -0.9191105 -0.3925372
vn -0.03391624 -0.9191105 -0.3925373
vn -0.0339147 0.1195696 -0.9922464
vn -0.0339147 0.1195696 -0.9922464
vn -0.0339147 0.1195696 -0.9922464
vn -0.0339147 0.1195696 -0.9922464
vn -0.03391254 0.7995023 -0.5997049
vn -0.03391254 0.7995023 -0.5997049
vn -0.03391254 0.7995023 -0.5997049
vn -0.03391254 0.7995023 -0.5997048
vn -0.03391987 0.7995554 0.5996338
vn -0.03391987 0.7995554 0.5996338
vn -0.03391987 0.7995554 0.5996338
vn -0.03391987 0.7995554 0.5996338
vn -0.03391259 0.1196075 0.9922419
vn -0.0339126 0.1196075 0.9922419
vn -0.03391259 0.1196075 0.9922419
vn -0.03391259 0.1196075 0.9922419
vn -0.6340602 0.7732837 2.019676E-06
vn -0.6340601 0.7732837 2.019676E-06
vn -0.6340602 0.7732837 2.019676E-06
vn -0.6340602 0.7732837 2.019676E-06
vn -0.634068 -0.3866355 0.6696796
vn -0.634068 -0.3866355 0.6696796
vn -0.6340681 -0.3866355 0.6696796
vn -0.634068 -0.3866355 0.6696796
vn -0.6340674 -0.3866355 -0.6696802
vn -0.6340673 -0.3866355 -0.6696802
vn -0.6340674 -0.3866355 -0.6696802
vn -0.6340674 -0.3866355 -0.6696802
vn -1 -1.199641E-05 -1.349674E-06
vn -1 -2.754501E-06 2.674384E-06
vn -1 0 1.430371E-06
vn -1 -2.573681E-06 -2.492855E-06
vn -1 3.913778E-06 -1.424476E-06
vn -1 2.444088E-06 -2.050824E-06
vn -1 5.583495E-06 9.670812E-06
vn -1 7.05515E-06 -4.581346E-06
vn -1 -1.93901E-06 1.099698E-05
vn 1 0 0
vn 1 0 0
vn 1 0 0
vn 1 0 0
vn 1 2.344515E-06 8.055015E-07
vn 1 2.344515E-06 8.055015E-07
vn 1 2.344515E-06 8.055015E-07
vn 1 2.344515E-06 8.055015E-07
vn 1 3.31631E-06 9.042813E-06
vn 1 3.31631E-06 9.042813E-06
vn 1 3.31631E-06 9.042813E-06
vn 1 3.31631E-06 9.042813E-06
vn -1 -3.828359E-06 -1.393416E-06
vn -1 -1.339938E-05 -4.877023E-06
vn -1 -4.139424E-06 -2.248086E-06
vn -1 -5.318246E-06 0
vn -1 -2.262718E-06 -2.563922E-06
vn -1 5.092564E-06 -4.273121E-06
vn -1 -1.339966E-05 -4.877261E-06
vn -1 0 0
vn -1 0 0
vn 0 -0.1736556 0.9848065
vn 0 -0.1736577 0.9848061
vn 0 -0.7660509 0.6427799
vn 0 -0.7660496 0.6427816
vn 0 0.499997 0.8660271
vn 0 0.499997 0.8660271
vn 0 0.9396896 0.3420286
vn 0 0.9396904 0.3420265
vn 0 0.939696 -0.3420108
vn 0 0.939696 -0.3420108
vn 0 0.5000041 -0.866023
vn 0 0.5000041 -0.866023
vn 0 -0.1736538 -0.9848068
vn 0 -0.1736559 -0.9848064
vn 0 -1 -7.753142E-06
vn 0 -1 -5.633109E-06
vn 0 -0.7660452 -0.6427867
vn 0 -0.7660439 -0.6427883
vn 0 -0.1736559 -0.9848064
vn 0 -0.1736538 -0.9848068
vn 1 0 0
vn 1 0 0
vn 1 1.890072E-06 1.091234E-06
vn 1 0 0
vn 1 0 0
vn 1 0 0
vn 1 4.88823E-06 -4.101698E-06
vn 1 1.411068E-05 -9.163062E-06
vn 1 -3.87783E-06 2.199339E-05
g muzzle_mp5_hk_navy_style_3_lug_supressor_adapter_9x19_LOD1_0
f 3/3/3 2/2/2 1/1/1
f 4/4/4 3/3/3 1/1/1
f 7/7/7 6/6/6 5/5/5
f 8/8/8 7/7/7 5/5/5
f 8/8/8 5/5/5 9/9/9
f 5/5/5 10/10/10 9/9/9
f 9/9/9 10/10/10 11/11/11
f 10/10/10 12/12/12 11/11/11
f 13/13/13 8/8/8 9/9/9
f 6/6/6 14/14/14 5/5/5
f 15/15/15 14/14/14 6/6/6
f 16/16/16 15/15/15 6/6/6
f 17/17/17 15/15/15 16/16/16
f 18/18/18 17/17/17 16/16/16
f 18/18/18 19/19/19 17/17/17
f 19/19/19 20/20/20 17/17/17
f 21/21/21 18/18/18 16/16/16
f 20/20/20 22/22/22 17/17/17
f 23/23/23 22/22/22 20/20/20
f 24/24/24 23/23/23 20/20/20
f 25/25/25 23/23/23 24/24/24
f 26/26/26 25/25/25 24/24/24
f 26/26/26 27/27/27 25/25/25
f 27/27/27 28/28/28 25/25/25
f 29/29/29 26/26/26 24/24/24
f 28/28/28 30/30/30 25/25/25
f 29/29/29 31/31/31 26/26/26
f 21/21/21 32/32/32 18/18/18
f 26/26/26 33/33/33 27/27/27
f 18/18/18 34/34/34 19/19/19
f 34/34/34 31/31/31 29/29/29
f 35/35/35 32/32/32 21/21/21
f 7/7/7 35/35/35 21/21/21
f 8/8/8 35/35/35 7/7/7
f 19/19/19 34/34/34 29/29/29
f 13/13/13 36/36/36 8/8/8
f 37/37/37 36/36/36 13/13/13
f 38/38/38 37/37/37 13/13/13
f 41/41/41 40/40/40 39/39/39
f 42/42/42 41/41/41 39/39/39
f 45/45/45 44/44/44 43/43/43
f 46/46/46 45/45/45 43/43/43
f 49/49/49 48/48/48 47/47/47
f 50/50/50 49/49/49 47/47/47
f 53/53/53 52/52/52 51/51/51
f 54/54/54 53/53/53 51/51/51
f 57/57/57 56/56/56 55/55/55
f 58/58/58 57/57/57 55/55/55
f 61/61/61 60/60/60 59/59/59
f 62/62/62 61/61/61 59/59/59
f 65/65/65 64/64/64 63/63/63
f 66/66/66 65/65/65 63/63/63
f 69/69/69 68/68/68 67/67/67
f 70/70/70 69/69/69 67/67/67
f 73/73/73 72/72/72 71/71/71
f 74/74/74 73/73/73 71/71/71
f 77/77/77 76/76/76 75/75/75
f 78/78/78 77/77/77 75/75/75
f 81/81/81 80/80/80 79/79/79
f 82/82/82 81/81/81 79/79/79
f 85/85/85 84/84/84 83/83/83
f 86/86/86 85/85/85 83/83/83
f 87/87/87 85/85/85 86/86/86
f 88/88/88 85/85/85 87/87/87
f 89/89/89 84/84/84 85/85/85
f 90/90/90 85/85/85 88/88/88
f 91/91/91 85/85/85 90/90/90
f 94/94/94 93/93/93 92/92/92
f 95/95/95 94/94/94 92/92/92
f 98/98/98 97/97/97 96/96/96
f 99/99/99 98/98/98 96/96/96
f 102/102/102 101/101/101 100/100/100
f 103/103/103 102/102/102 100/100/100
f 106/106/106 105/105/105 104/104/104
f 107/107/107 106/106/106 104/104/104
f 108/108/108 106/106/106 107/107/107
f 109/109/109 106/106/106 108/108/108
f 110/110/110 105/105/105 106/106/106
f 111/111/111 106/106/106 109/109/109
f 112/112/112 106/106/106 111/111/111
f 115/115/115 114/114/114 113/113/113
f 116/116/116 115/115/115 113/113/113
f 113/113/113 114/114/114 117/117/117
f 114/114/114 118/118/118 117/117/117
f 117/117/117 118/118/118 119/119/119
f 118/118/118 120/120/120 119/119/119
f 119/119/119 120/120/120 121/121/121
f 120/120/120 122/122/122 121/121/121
f 121/121/121 122/122/122 123/123/123
f 122/122/122 124/124/124 123/123/123
f 123/123/123 124/124/124 125/125/125
f 124/124/124 126/126/126 125/125/125
f 127/127/127 115/115/115 116/116/116
f 128/128/128 127/127/127 116/116/116
f 129/129/129 127/127/127 128/128/128
f 130/130/130 129/129/129 128/128/128
f 131/131/131 129/129/129 130/130/130
f 132/132/132 131/131/131 130/130/130
f 135/135/135 134/134/134 133/133/133
f 136/136/136 134/134/134 135/135/135
f 137/137/137 136/136/136 135/135/135
f 138/138/138 137/137/137 135/135/135
f 139/139/139 138/138/138 135/135/135
f 140/140/140 139/139/139 135/135/135
f 141/141/141 140/140/140 135/135/135
