g muzzle_dvl-10_lobaev_dvl-10_std_308_LOD1
v 2.85916E-09 -7.058222E-05 -0.02106327
v 0.01489266 -7.132081E-05 -0.01489452
v 0.01489266 0.02702868 -0.01489128
v 2.85916E-09 0.02702942 -0.02106002
v 0.02106141 0.0270269 1.384468E-06
v 0.02106141 -7.31039E-05 -1.86021E-06
v 0.01489266 0.02702511 0.01489405
v 0.01489266 -7.4887E-05 0.0148908
v 2.85916E-09 0.02702438 0.02106279
v 2.85916E-09 -7.562558E-05 0.02105954
v 0.01489266 -7.132081E-05 -0.01489452
v 2.85916E-09 -7.058222E-05 -0.02106327
v 2.85916E-09 -7.05818E-05 -0.02486021
v 0.01757751 -7.132062E-05 -0.01757937
v 0.02106141 -7.31039E-05 -1.86021E-06
v 0.02485835 -7.31039E-05 -1.860037E-06
v 0.01489266 -7.4887E-05 0.0148908
v 0.0175775 -7.488718E-05 0.01757565
v 2.85916E-09 -7.562558E-05 0.02105954
v 2.85916E-09 -7.562601E-05 0.02485649
v 0.01757751 -7.132062E-05 -0.01757937
v 2.85916E-09 -7.05818E-05 -0.02486021
v 2.85916E-09 -0.005106856 -0.02486021
v 0.01757751 -0.005107593 -0.01757937
v 0.02485835 -7.31039E-05 -1.860037E-06
v 0.02485835 -0.005109377 -1.860637E-06
v 0.0175775 -7.488718E-05 0.01757565
v 0.0175775 -0.00511116 0.01757565
v 2.85916E-09 -7.562601E-05 0.02485649
v 2.85916E-09 -0.0051119 0.02485648
v 0.01757751 -0.005107593 -0.01757937
v 2.85916E-09 -0.005106856 -0.02486021
v 2.845478E-09 -0.00798001 -0.01468185
v 0.01049179 -0.007980748 -0.01033601
v 0.02485835 -0.005109377 -1.860637E-06
v 0.01483763 -0.007982529 0.0001557705
v 0.0175775 -0.00511116 0.01757565
v 0.01049179 -0.007984312 0.01064755
v 2.85916E-09 -0.0051119 0.02485648
v 2.845478E-09 -0.007985051 0.0149934
v 2.85916E-09 0.02702942 -0.02106002
v 0.02106141 0.0270269 1.384468E-06
v 0.01489266 0.02702511 0.01489405
v 2.85916E-09 0.02702438 0.02106279
v 0.01489266 0.02702868 -0.01489128
v 2.85916E-09 -7.058222E-05 -0.02106327
v 2.85916E-09 0.02702942 -0.02106002
v -0.01489266 0.02702868 -0.01489128
v -0.01489266 -7.132081E-05 -0.01489452
v -0.0210614 0.0270269 1.384468E-06
v -0.0210614 -7.31039E-05 -1.86021E-06
v -0.01489266 0.02702511 0.01489405
v -0.01489266 -7.4887E-05 0.0148908
v 2.85916E-09 0.02702438 0.02106279
v 2.85916E-09 -7.562558E-05 0.02105954
v -0.01489266 -7.132081E-05 -0.01489452
v -0.0175775 -7.132062E-05 -0.01757937
v 2.85916E-09 -7.05818E-05 -0.02486021
v 2.85916E-09 -7.058222E-05 -0.02106327
v -0.0210614 -7.31039E-05 -1.86021E-06
v -0.02485835 -7.31039E-05 -1.860037E-06
v -0.01489266 -7.4887E-05 0.0148908
v -0.0175775 -7.488718E-05 0.01757565
v 2.85916E-09 -7.562558E-05 0.02105954
v 2.85916E-09 -7.562601E-05 0.02485649
v -0.0175775 -7.132062E-05 -0.01757937
v -0.0175775 -0.005107593 -0.01757937
v 2.85916E-09 -0.005106856 -0.02486021
v 2.85916E-09 -7.05818E-05 -0.02486021
v -0.02485835 -7.31039E-05 -1.860037E-06
v -0.02485835 -0.005109377 -1.860637E-06
v -0.0175775 -7.488718E-05 0.01757565
v -0.0175775 -0.00511116 0.01757565
v 2.85916E-09 -7.562601E-05 0.02485649
v 2.85916E-09 -0.0051119 0.02485648
v -0.0175775 -0.005107593 -0.01757937
v -0.01049178 -0.007980748 -0.01033601
v 2.845478E-09 -0.00798001 -0.01468185
v 2.85916E-09 -0.005106856 -0.02486021
v -0.02485835 -0.005109377 -1.860637E-06
v -0.01483762 -0.007982529 0.0001557705
v -0.0175775 -0.00511116 0.01757565
v -0.01049178 -0.007984312 0.01064755
v 2.85916E-09 -0.0051119 0.02485648
v 2.845478E-09 -0.007985051 0.0149934
v -0.01489266 0.02702511 0.01489405
v -0.0210614 0.0270269 1.384468E-06
v 2.85916E-09 0.02702942 -0.02106002
v 2.85916E-09 0.02702438 0.02106279
v -0.01489266 0.02702868 -0.01489128
vt 0.5295199 0.3502888
vt 0.3982154 0.3502745
vt 0.398204 0.8541549
vt 0.5295098 0.8541693
vt 0.2668973 0.8541373
vt 0.2669098 0.3502566
vt 0.1355923 0.8541192
vt 0.1356034 0.3502386
vt 0.004288241 0.8541048
vt 0.004298387 0.3502243
vt 0.6245404 0.1965404
vt 0.7503465 0.07759086
vt 0.7503465 0.004375922
vt 0.6018603 0.1447698
vt 0.5724298 0.4837102
vt 0.5403551 0.4837102
vt 0.6245404 0.7708794
vt 0.6018603 0.8226504
vt 0.7503465 0.8898291
vt 0.7503465 0.9630438
vt 0.1614403 0.8888509
vt 0.006465425 0.8888201
vt 0.006463464 0.9824633
vt 0.1614393 0.9824944
vt 0.3164146 0.8888848
vt 0.3164146 0.982528
vt 0.471389 0.8889189
vt 0.471388 0.9825619
vt 0.6263644 0.8889495
vt 0.6263623 0.9825929
vt 0.9335614 0.1645551
vt 0.7827791 0.0219907
vt 0.7827791 0.2398104
vt 0.8660861 0.3185768
vt 0.9960175 0.5087366
vt 0.900593 0.5087366
vt 0.9335613 0.8529172
vt 0.866086 0.6988958
vt 0.7827792 0.9954817
vt 0.7827792 0.7776623
vt 0.7701314 0.07881609
vt 0.5922148 0.4849351
vt 0.6443253 0.7721047
vt 0.7701314 0.891054
vt 0.6443253 0.1977656
vt 0.5295199 0.3502888
vt 0.5295098 0.8541693
vt 0.398204 0.8541549
vt 0.3982154 0.3502745
vt 0.2668973 0.8541373
vt 0.2669098 0.3502566
vt 0.1355923 0.8541192
vt 0.1356034 0.3502386
vt 0.004288241 0.8541048
vt 0.004298387 0.3502243
vt 0.6245404 0.1965404
vt 0.6018603 0.1447698
vt 0.7503465 0.004375922
vt 0.7503465 0.07759086
vt 0.5724298 0.4837102
vt 0.5403551 0.4837102
vt 0.6245404 0.7708794
vt 0.6018603 0.8226504
vt 0.7503465 0.8898291
vt 0.7503465 0.9630438
vt 0.1614403 0.8888509
vt 0.1614393 0.9824944
vt 0.006463464 0.9824633
vt 0.006465425 0.8888201
vt 0.3164146 0.8888848
vt 0.3164146 0.982528
vt 0.471389 0.8889189
vt 0.471388 0.9825619
vt 0.6263644 0.8889495
vt 0.6263623 0.9825929
vt 0.9335614 0.1645551
vt 0.8660861 0.3185768
vt 0.7827791 0.2398104
vt 0.7827791 0.0219907
vt 0.9960175 0.5087366
vt 0.900593 0.5087366
vt 0.9335613 0.8529172
vt 0.866086 0.6988958
vt 0.7827792 0.9954817
vt 0.7827792 0.7776623
vt 0.6443253 0.7721047
vt 0.5922148 0.4849351
vt 0.7701314 0.07881609
vt 0.7701314 0.891054
vt 0.6443253 0.1977656
vn 0 0.0001197399 -1
vn 0.7071068 8.467005E-05 -0.7071068
vn 0.7071068 8.467005E-05 -0.7071068
vn 0 0.0001197399 -1
vn 1 0 0
vn 1 0 0
vn 0.7071068 -8.466544E-05 0.7071068
vn 0.7071068 -8.466544E-05 0.7071068
vn 0 -0.0001197362 1
vn 0 -0.0001197362 1
vn 3.880589E-05 1 5.496387E-05
vn 0 1 1.616707E-05
vn 0 1 1.616707E-05
vn 3.880589E-05 1 5.496386E-05
vn 0 1 9.376065E-05
vn 0 1 9.376064E-05
vn -3.88059E-05 1 5.496386E-05
vn -3.880589E-05 1 5.496384E-05
vn 0 1 1.616707E-05
vn 0 1 1.616707E-05
vn 0.7070945 2.861607E-07 -0.707119
vn 0 4.124009E-07 -1
vn 0 4.124009E-07 -1
vn 0.7071192 2.861507E-07 -0.7070944
vn 1 0 -2.460207E-05
vn 1 0 2.476636E-05
vn 0.707119 -1.346573E-07 0.7070945
vn 0.7070943 -1.346658E-07 0.7071192
vn 0 -2.356577E-07 1
vn 0 -2.356577E-07 1
vn 0.1924853 -0.9620661 -0.1933345
vn 0 -0.9623874 -0.271681
vn 0 -0.9853628 -0.1704709
vn 0.1214574 -0.9852396 -0.1206276
vn 0.2756026 -0.9612713 -0.0008646615
vn 0.1729076 -0.9849377 0.0008495389
vn 0.19734 -0.9604481 0.1964593
vn 0.1230663 -0.9846292 0.1239363
vn 0 -0.9600986 0.2796617
vn 0 -0.9844994 0.1753885
vn 0 1 0.0001197528
vn 0 1 0.0001197573
vn 0 1 0.0001197618
vn 0 1 0.0001197618
vn 0 1 0.0001197348
vn 0 0.0001197399 -1
vn 0 0.0001197399 -1
vn -0.7071068 8.467004E-05 -0.7071068
vn -0.7071068 8.467004E-05 -0.7071068
vn -1 0 0
vn -1 0 0
vn -0.7071068 -8.466544E-05 0.7071068
vn -0.7071068 -8.466544E-05 0.7071068
vn 0 -0.0001197362 1
vn 0 -0.0001197362 1
vn -3.880589E-05 1 5.496386E-05
vn -3.880588E-05 1 5.496385E-05
vn 0 1 1.616707E-05
vn 0 1 1.616707E-05
vn 0 1 9.376065E-05
vn 0 1 9.376064E-05
vn 3.88059E-05 1 5.496387E-05
vn 3.880589E-05 1 5.496384E-05
vn 0 1 1.616707E-05
vn 0 1 1.616707E-05
vn -0.7070944 2.945774E-07 -0.7071191
vn -0.7071191 2.945667E-07 -0.7070944
vn 0 4.124009E-07 -1
vn 0 4.124009E-07 -1
vn -1 0 -2.460207E-05
vn -1 0 2.476636E-05
vn -0.707119 -1.346573E-07 0.7070945
vn -0.7070943 -1.346658E-07 0.7071192
vn 0 -2.356577E-07 1
vn 0 -2.356577E-07 1
vn -0.1924853 -0.9620661 -0.1933345
vn -0.1214574 -0.9852396 -0.1206276
vn 0 -0.9853628 -0.1704709
vn 0 -0.9623874 -0.271681
vn -0.2756025 -0.9612713 -0.0008646488
vn -0.1729075 -0.9849377 0.0008495459
vn -0.19734 -0.9604481 0.1964593
vn -0.1230664 -0.9846292 0.1239363
vn 0 -0.9600986 0.2796617
vn 0 -0.9844994 0.1753885
vn 0 1 0.0001197618
vn 0 1 0.0001197573
vn 0 1 0.0001197528
vn 0 1 0.0001197618
vn 0 1 0.0001197348
g muzzle_dvl-10_lobaev_dvl-10_std_308_LOD1_0
f 3/3/3 2/2/2 1/1/1
f 4/4/4 3/3/3 1/1/1
f 3/3/3 5/5/5 2/2/2
f 5/5/5 6/6/6 2/2/2
f 5/5/5 7/7/7 6/6/6
f 7/7/7 8/8/8 6/6/6
f 7/7/7 9/9/9 8/8/8
f 9/9/9 10/10/10 8/8/8
f 13/13/13 12/12/12 11/11/11
f 14/14/14 13/13/13 11/11/11
f 14/14/14 11/11/11 15/15/15
f 16/16/16 14/14/14 15/15/15
f 16/16/16 15/15/15 17/17/17
f 18/18/18 16/16/16 17/17/17
f 18/18/18 17/17/17 19/19/19
f 20/20/20 18/18/18 19/19/19
f 23/23/23 22/22/22 21/21/21
f 24/24/24 23/23/23 21/21/21
f 24/24/24 21/21/21 25/25/25
f 26/26/26 24/24/24 25/25/25
f 26/26/26 25/25/25 27/27/27
f 28/28/28 26/26/26 27/27/27
f 28/28/28 27/27/27 29/29/29
f 30/30/30 28/28/28 29/29/29
f 33/33/33 32/32/32 31/31/31
f 34/34/34 33/33/33 31/31/31
f 34/34/34 31/31/31 35/35/35
f 36/36/36 34/34/34 35/35/35
f 33/33/33 34/34/34 36/36/36
f 36/36/36 35/35/35 37/37/37
f 38/38/38 36/36/36 37/37/37
f 36/36/36 38/38/38 33/33/33
f 38/38/38 37/37/37 39/39/39
f 40/40/40 38/38/38 39/39/39
f 38/38/38 40/40/40 33/33/33
f 43/43/43 42/42/42 41/41/41
f 44/44/44 43/43/43 41/41/41
f 42/42/42 45/45/45 41/41/41
f 48/48/48 47/47/47 46/46/46
f 49/49/49 48/48/48 46/46/46
f 50/50/50 48/48/48 49/49/49
f 51/51/51 50/50/50 49/49/49
f 52/52/52 50/50/50 51/51/51
f 53/53/53 52/52/52 51/51/51
f 54/54/54 52/52/52 53/53/53
f 55/55/55 54/54/54 53/53/53
f 58/58/58 57/57/57 56/56/56
f 59/59/59 58/58/58 56/56/56
f 56/56/56 57/57/57 60/60/60
f 57/57/57 61/61/61 60/60/60
f 60/60/60 61/61/61 62/62/62
f 61/61/61 63/63/63 62/62/62
f 62/62/62 63/63/63 64/64/64
f 63/63/63 65/65/65 64/64/64
f 68/68/68 67/67/67 66/66/66
f 69/69/69 68/68/68 66/66/66
f 66/66/66 67/67/67 70/70/70
f 67/67/67 71/71/71 70/70/70
f 70/70/70 71/71/71 72/72/72
f 71/71/71 73/73/73 72/72/72
f 72/72/72 73/73/73 74/74/74
f 73/73/73 75/75/75 74/74/74
f 78/78/78 77/77/77 76/76/76
f 79/79/79 78/78/78 76/76/76
f 76/76/76 77/77/77 80/80/80
f 77/77/77 81/81/81 80/80/80
f 77/77/77 78/78/78 81/81/81
f 80/80/80 81/81/81 82/82/82
f 81/81/81 83/83/83 82/82/82
f 81/81/81 78/78/78 83/83/83
f 82/82/82 83/83/83 84/84/84
f 83/83/83 85/85/85 84/84/84
f 78/78/78 85/85/85 83/83/83
f 88/88/88 87/87/87 86/86/86
f 89/89/89 88/88/88 86/86/86
f 90/90/90 87/87/87 88/88/88
