g muzzle_ar15_troy_claymore_muzzle_brake_556_556x45_LOD1
v -6.875789E-08 -0.01761925 -0.01160489
v -6.875789E-08 -0.05411249 -0.01160489
v 0.008235523 -0.05411249 -0.008193591
v 0.008235523 -0.01761925 -0.008193595
v -0.008235662 -0.01761925 -0.008193597
v -0.008235662 -0.05411249 -0.008193593
v -0.01164696 -0.01761925 4.199488E-05
v -0.01164696 -0.05411249 4.200034E-05
v -0.008235665 -0.01761925 0.008277588
v -0.008235665 -0.05411249 0.008277592
v -7.298315E-08 -0.01761925 0.01168888
v -7.298315E-08 -0.05411249 0.01168889
v 0.008235521 -0.01761925 0.008277591
v 0.008235521 -0.05411249 0.008277596
v 0.01164682 -0.01761925 4.199874E-05
v 0.01164682 -0.05411249 4.200419E-05
v 0.008235523 -0.01761925 -0.008193595
v 0.008235523 -0.05411249 -0.008193591
v -6.875789E-08 -0.05411249 -0.01160489
v -0.008235665 -0.05411249 0.008277592
v -7.298315E-08 -0.05411249 0.01168889
v 0.008235521 -0.05411249 0.008277596
v 0.01164682 -0.05411249 4.200419E-05
v 0.008235523 -0.05411249 -0.008193591
v -0.01164696 -0.05411249 4.200034E-05
v -0.008235662 -0.05411249 -0.008193593
v 0.008235523 -0.01761925 -0.008193595
v 0.006740273 0.0001262665 -0.006698347
v -6.907482E-08 0.0001262641 -0.009490289
v -6.875789E-08 -0.01761925 -0.01160489
v -0.006740412 0.0001262665 -0.006698349
v -0.008235662 -0.01761925 -0.008193597
v -0.009532353 0.0001262665 4.199207E-05
v -0.01164696 -0.01761925 4.199488E-05
v -0.006740415 0.0001262665 0.006782334
v -0.008235665 -0.01761925 0.008277588
v -7.253294E-08 0.0001262689 0.009574277
v -7.298315E-08 -0.01761925 0.01168888
v 0.00674027 0.0001262665 0.006782337
v 0.008235521 -0.01761925 0.008277591
v 0.009532211 0.0001262665 4.199522E-05
v 0.01164682 -0.01761925 4.199874E-05
v 0.006740273 0.0001262665 -0.006698347
v 0.008235523 -0.01761925 -0.008193595
v 0.00674027 0.0001262665 0.006782337
v -6.907482E-08 0.0001262641 -0.009490289
v 0.009532211 0.0001262665 4.199522E-05
v -7.253294E-08 0.0001262689 0.009574277
v -0.006740415 0.0001262665 0.006782334
v -0.009532353 0.0001262665 4.199207E-05
v -0.006740412 0.0001262665 -0.006698349
v 0.006740273 0.0001262665 -0.006698347
vt 0.1264544 0.4748553
vt 0.1264544 0.002086982
vt 0.00249893 0.002086982
vt 0.00249893 0.4748553
vt 0.2504087 0.4748553
vt 0.2504087 0.002086982
vt 0.3743631 0.4748553
vt 0.3743631 0.002086982
vt 0.4983174 0.4748553
vt 0.4983174 0.002086982
vt 0.6222719 0.4748553
vt 0.6222719 0.002086982
vt 0.7462261 0.4748553
vt 0.7462261 0.002086982
vt 0.8701805 0.4748553
vt 0.8701805 0.002086982
vt 0.9941359 0.4748553
vt 0.9941359 0.002086982
vt 0.5494578 0.9948918
vt 0.5489235 0.7160933
vt 0.4334415 0.7160933
vt 0.3520504 0.7980182
vt 0.3520504 0.9135014
vt 0.4339757 0.9948918
vt 0.6308495 0.7974838
vt 0.6308495 0.9129659
vt 0.00247657 0.4803522
vt 0.00247657 0.7118691
vt 0.1264551 0.7118691
vt 0.1264551 0.4803522
vt 0.2504348 0.7118691
vt 0.2504348 0.4803522
vt 0.3744145 0.7118691
vt 0.3744145 0.4803522
vt 0.4983929 0.7118691
vt 0.4983929 0.4803522
vt 0.6223714 0.7118691
vt 0.6223714 0.4803522
vt 0.7463512 0.7118691
vt 0.7463512 0.4803522
vt 0.8703309 0.7118691
vt 0.8703309 0.4803522
vt 0.9943091 0.7118691
vt 0.9943091 0.4803522
vt 0.2654208 0.7161134
vt 0.2653097 0.9918003
vt 0.346105 0.79691
vt 0.1512371 0.7161134
vt 0.07044055 0.7967976
vt 0.07044055 0.9109814
vt 0.1511247 0.991753
vt 0.346105 0.9110937
vn 1.026798E-07 -1.475026E-07 -1
vn 0 -1.475026E-07 -1
vn 0.7071068 -1.034997E-07 -0.7071066
vn 0.7071069 -1.034997E-07 -0.7071066
vn -0.7071068 -1.034998E-07 -0.7071068
vn -0.7071066 -1.034997E-07 -0.7071068
vn -1 0 -1.437517E-07
vn -1 0 0
vn -0.7071069 1.0288E-07 0.7071066
vn -0.7071069 1.0288E-07 0.7071066
vn -2.053595E-07 1.481224E-07 1
vn -2.053595E-07 1.481224E-07 1
vn 0.7071066 1.041195E-07 0.7071068
vn 0.7071066 1.041195E-07 0.7071069
vn 1 0 1.848236E-07
vn 1 0 2.258955E-07
vn 0.7071069 -1.034997E-07 -0.7071066
vn 0.7071068 -1.034997E-07 -0.7071066
vn 0 -1 0
vn 0 -1 1.564562E-07
vn 0 -1 2.047058E-07
vn 0 -1 1.564562E-07
vn 1.788665E-07 -1 0
vn 3.494548E-07 -1 -1.447489E-07
vn -1.788665E-07 -1 0
vn -3.494546E-07 -1 -1.447489E-07
vn 0.7021394 0.1183255 -0.7021391
vn 0.7021394 0.1183255 -0.7021391
vn 1.595191E-07 0.1183255 -0.9929749
vn 1.689923E-07 0.1183255 -0.9929749
vn -0.7021393 0.1183255 -0.7021393
vn -0.7021393 0.1183255 -0.7021393
vn -0.9929749 0.1183256 -1.993989E-07
vn -0.9929749 0.1183256 -1.689923E-07
vn -0.7021394 0.1183257 0.702139
vn -0.7021394 0.1183257 0.702139
vn -2.592186E-07 0.1183257 0.9929748
vn -2.534885E-07 0.1183257 0.9929748
vn 0.7021391 0.1183257 0.7021393
vn 0.7021391 0.1183257 0.7021393
vn 0.9929749 0.1183256 0
vn 0.9929749 0.1183256 1.478683E-07
vn 0.7021394 0.1183255 -0.7021391
vn 0.7021394 0.1183255 -0.7021391
vn 1.077915E-07 1 -1.911638E-07
vn 0 1 0
vn -2.185456E-07 1 0
vn 0 1 -2.50117E-07
vn -1.077915E-07 1 -1.911639E-07
vn 2.185456E-07 1 0
vn 4.269763E-07 1 1.768594E-07
vn -4.269764E-07 1 1.768593E-07
g muzzle_ar15_troy_claymore_muzzle_brake_556_556x45_LOD1_0
f 3/3/3 2/2/2 1/1/1
f 4/4/4 3/3/3 1/1/1
f 1/1/1 2/2/2 5/5/5
f 2/2/2 6/6/6 5/5/5
f 5/5/5 6/6/6 7/7/7
f 6/6/6 8/8/8 7/7/7
f 7/7/7 8/8/8 9/9/9
f 8/8/8 10/10/10 9/9/9
f 9/9/9 10/10/10 11/11/11
f 10/10/10 12/12/12 11/11/11
f 11/11/11 12/12/12 13/13/13
f 12/12/12 14/14/14 13/13/13
f 13/13/13 14/14/14 15/15/15
f 14/14/14 16/16/16 15/15/15
f 15/15/15 16/16/16 17/17/17
f 16/16/16 18/18/18 17/17/17
f 21/21/21 20/20/20 19/19/19
f 21/21/21 19/19/19 22/22/22
f 22/22/22 19/19/19 23/23/23
f 24/24/24 23/23/23 19/19/19
f 25/25/25 19/19/19 20/20/20
f 25/25/25 26/26/26 19/19/19
f 29/29/29 28/28/28 27/27/27
f 30/30/30 29/29/29 27/27/27
f 31/31/31 29/29/29 30/30/30
f 32/32/32 31/31/31 30/30/30
f 33/33/33 31/31/31 32/32/32
f 34/34/34 33/33/33 32/32/32
f 35/35/35 33/33/33 34/34/34
f 36/36/36 35/35/35 34/34/34
f 37/37/37 35/35/35 36/36/36
f 38/38/38 37/37/37 36/36/36
f 39/39/39 37/37/37 38/38/38
f 40/40/40 39/39/39 38/38/38
f 41/41/41 39/39/39 40/40/40
f 42/42/42 41/41/41 40/40/40
f 43/43/43 41/41/41 42/42/42
f 44/44/44 43/43/43 42/42/42
f 47/47/47 46/46/46 45/45/45
f 48/48/48 45/45/45 46/46/46
f 49/49/49 48/48/48 46/46/46
f 49/49/49 46/46/46 50/50/50
f 51/51/51 50/50/50 46/46/46
f 52/52/52 46/46/46 47/47/47
