g muzzle_m14_smith_enterprise_vortex_dc_flash_eliminator_762x51_LOD1
v -0.007709727 -5.813706E-06 -0.007786865
v -0.0008623217 -5.812775E-06 -0.01091549
v 0.006395 -5.812775E-06 -0.008911326
v -0.01094324 -5.81515E-06 -0.0009893612
v 0.01066646 -5.813706E-06 -0.002712136
v -0.009049862 -5.816407E-06 0.00629639
v -0.002915529 -5.81691E-06 0.01066131
v 0.009953383 -5.815148E-06 0.004781409
v 0.00458944 -5.816407E-06 0.01006299
v -0.01094324 -5.81515E-06 -0.0009893612
v -0.01094324 -0.07642729 -0.0009893612
v -0.007709727 -0.07642729 -0.007786865
v -0.007709727 -5.813706E-06 -0.007786865
v -0.009049862 -5.816407E-06 0.00629639
v -0.009049862 -0.07642729 0.00629639
v -0.002915529 -5.81691E-06 0.01066131
v -0.002915529 -0.07642729 0.01066131
v -0.0008623217 -0.07642729 -0.01091549
v -0.0008623217 -5.812775E-06 -0.01091549
v 0.006395 -0.07642729 -0.008911326
v 0.006395 -5.812775E-06 -0.008911326
v 0.01066646 -0.07642729 -0.002712136
v 0.01066646 -5.813706E-06 -0.002712136
v 0.009953383 -0.07642729 0.004781409
v 0.009953383 -5.815148E-06 0.004781409
v 0.00458944 -0.07642729 0.01006299
v 0.00458944 -5.816407E-06 0.01006299
v -0.002915529 -0.07642729 0.01066131
v -0.002915529 -5.81691E-06 0.01066131
v -0.007709727 -0.07642729 -0.007786865
v -0.01094324 -0.07642729 -0.0009893612
v -0.0008623217 -0.07642729 -0.01091549
v -0.009049862 -0.07642729 0.00629639
v 0.006395 -0.07642729 -0.008911326
v 0.01066646 -0.07642729 -0.002712136
v -0.002915529 -0.07642729 0.01066131
v 0.009953383 -0.07642729 0.004781409
v 0.00458944 -0.07642729 0.01006299
vt 0.1025158 0.7784495
vt 0.04047573 0.8274894
vt 0.02450669 0.9026225
vt 0.1815974 0.7784497
vt 0.06207991 0.9686936
vt 0.2407166 0.8274896
vt 0.2522123 0.9026226
vt 0.1356153 0.994787
vt 0.2107046 0.9686936
vt 0.9834002 0.1696005
vt 0.01583896 0.1696005
vt 0.01583896 0.2546942
vt 0.9834002 0.2546941
vt 0.9834002 0.0851965
vt 0.01583896 0.08519661
vt 0.9834002 0.001454353
vt 0.0158389 0.001454473
vt 0.01583896 0.3402892
vt 0.9834002 0.340289
vt 0.01583896 0.4261958
vt 0.9834002 0.4261957
vt 0.01583896 0.5122451
vt 0.9834001 0.5122451
vt 0.01583902 0.5983447
vt 0.9834002 0.5983446
vt 0.01583896 0.6845001
vt 0.9834002 0.6845
vt 0.01583902 0.7708328
vt 0.9834003 0.7708327
vt 0.3834296 0.779155
vt 0.3114944 0.8053678
vt 0.4553914 0.8053221
vt 0.2732447 0.871695
vt 0.4937078 0.8716252
vt 0.4804503 0.9470404
vt 0.2865783 0.9471018
vt 0.4218222 0.99628
vt 0.345256 0.9963042
vn 0 1 1.878001E-07
vn 0 1 1.855375E-07
vn 0 1 1.862872E-07
vn 0 1 1.86676E-07
vn 0 1 1.866661E-07
vn 0 1 1.866207E-07
vn 0 1 1.871117E-07
vn 0 1 1.872461E-07
vn 0 1 1.855367E-07
vn -0.9955022 0 -0.09473882
vn -0.9955022 0 -0.09473877
vn -0.7016307 0 -0.7125408
vn -0.7016307 0 -0.7125409
vn -0.8234658 0 0.5673659
vn -0.8234658 0 0.5673659
vn -0.2661941 0 0.9639194
vn -0.2661941 0 0.9639194
vn -0.07948631 0 -0.9968359
vn -0.0794863 0 -0.9968359
vn 0.5797771 0 -0.814775
vn 0.5797771 0 -0.814775
vn 0.9678578 0 -0.2514984
vn 0.9678578 0 -0.2514984
vn 0.9030392 0 0.4295582
vn 0.9030392 0 0.4295582
vn 0.4156051 0 0.9095452
vn 0.4156051 0 0.9095451
vn -0.2661941 0 0.9639194
vn -0.2661941 0 0.9639194
vn 0 -1 0
vn 0 -1 0
vn 0 -1 0
vn 0 -1 0
vn 0 -1 0
vn 0 -1 0
vn 0 -1 0
vn 0 -1 0
vn 0 -1 0
g muzzle_m14_smith_enterprise_vortex_dc_flash_eliminator_762x51_LOD1_0
f 3/3/3 2/2/2 1/1/1
f 3/3/3 1/1/1 4/4/4
f 4/4/4 5/5/5 3/3/3
f 4/4/4 6/6/6 5/5/5
f 6/6/6 7/7/7 5/5/5
f 7/7/7 8/8/8 5/5/5
f 7/7/7 9/9/9 8/8/8
f 12/12/12 11/11/11 10/10/10
f 13/13/13 12/12/12 10/10/10
f 10/10/10 11/11/11 14/14/14
f 11/11/11 15/15/15 14/14/14
f 14/14/14 15/15/15 16/16/16
f 15/15/15 17/17/17 16/16/16
f 18/18/18 12/12/12 13/13/13
f 19/19/19 18/18/18 13/13/13
f 20/20/20 18/18/18 19/19/19
f 21/21/21 20/20/20 19/19/19
f 22/22/22 20/20/20 21/21/21
f 23/23/23 22/22/22 21/21/21
f 24/24/24 22/22/22 23/23/23
f 25/25/25 24/24/24 23/23/23
f 26/26/26 24/24/24 25/25/25
f 27/27/27 26/26/26 25/25/25
f 28/28/28 26/26/26 27/27/27
f 29/29/29 28/28/28 27/27/27
f 32/32/32 31/31/31 30/30/30
f 32/32/32 33/33/33 31/31/31
f 34/34/34 33/33/33 32/32/32
f 35/35/35 33/33/33 34/34/34
f 35/35/35 36/36/36 33/33/33
f 37/37/37 36/36/36 35/35/35
f 38/38/38 36/36/36 37/37/37
