g muzzle_ar15_surefire_sf3p_flash_hider_556x45_LOD1
v 0.002793679 -2.25706E-07 0.008596629
v -0.002792697 -2.25706E-07 0.008596628
v 0.007313154 -2.251752E-07 0.00531304
v 0.009039438 -2.24309E-07 7.944024E-08
v 0.007313153 -2.234429E-07 -0.00531288
v 0.002793681 -2.22912E-07 -0.008596469
v -0.009038454 -2.24309E-07 7.890147E-08
v -0.002792697 -2.25706E-07 0.008596628
v -0.007312169 -2.251752E-07 0.005313038
v -0.007312169 -2.234429E-07 -0.005312881
v -0.002792695 -2.22912E-07 -0.008596469
v 0.002793681 -2.22912E-07 -0.008596469
v 0.006290113 -0.004819158 0.01089402
v 0.01089443 -0.004819157 0.006289699
v 0.008900535 -0.0679255 0.00513851
v 0.005138934 -0.0679255 0.008900112
v 4.924208E-07 -0.004819158 0.01257932
v 4.924208E-07 -0.0679255 0.01027695
v -0.006289128 -0.004819158 0.01089402
v -0.005137949 -0.0679255 0.008900112
v -0.01089345 -0.004819157 0.006289699
v -0.008899551 -0.0679255 0.00513851
v -0.01257875 -0.004819156 7.865513E-08
v -0.01027639 -0.0679255 6.837381E-08
v -0.01089345 -0.004819155 -0.006289542
v -0.008899551 -0.0679255 -0.005138374
v -0.006289128 -0.004819154 -0.01089386
v -0.005137949 -0.0679255 -0.008899976
v 4.924208E-07 -0.004819153 -0.01257916
v 4.924208E-07 -0.0679255 -0.01027681
v 0.01027738 -0.0679255 6.837381E-08
v 0.01257973 -0.004819156 7.865513E-08
v 0.008900535 -0.0679255 -0.005138374
v 0.01089443 -0.004819155 -0.006289542
v 0.005138934 -0.0679255 -0.008899976
v 0.006290113 -0.004819154 -0.01089386
v 4.924208E-07 -0.0679255 -0.01027681
v 4.924208E-07 -0.004819153 -0.01257916
v 0.008900535 -0.0679255 0.00513851
v 4.924208E-07 -0.0679255 0.01027695
v 0.005138934 -0.0679255 0.008900112
v 0.01027738 -0.0679255 6.837381E-08
v 0.008900535 -0.0679255 -0.005138374
v 0.005138934 -0.0679255 -0.008899976
v 4.924208E-07 -0.0679255 -0.01027681
v -0.005137949 -0.0679255 0.008900112
v 4.924208E-07 -0.0679255 0.01027695
v -0.008899551 -0.0679255 0.00513851
v -0.01027639 -0.0679255 6.837381E-08
v -0.008899551 -0.0679255 -0.005138374
v -0.005137949 -0.0679255 -0.008899976
v 4.924208E-07 -0.0679255 -0.01027681
v -0.009038454 -2.24309E-07 7.890147E-08
v -0.007312169 -2.251752E-07 0.005313038
v -0.01089345 -0.004819157 0.006289699
v -0.01257875 -0.004819156 7.865513E-08
v -0.006289128 -0.004819158 0.01089402
v -0.002792697 -2.25706E-07 0.008596628
v 4.924208E-07 -0.004819158 0.01257932
v -0.007312169 -2.234429E-07 -0.005312881
v -0.01089345 -0.004819155 -0.006289542
v -0.002792695 -2.22912E-07 -0.008596469
v -0.006289128 -0.004819154 -0.01089386
v 0.002793679 -2.25706E-07 0.008596629
v 0.006290113 -0.004819158 0.01089402
v 0.01089443 -0.004819157 0.006289699
v 0.007313154 -2.251752E-07 0.00531304
v 0.01257973 -0.004819156 7.865513E-08
v 0.009039438 -2.24309E-07 7.944024E-08
v 0.01089443 -0.004819155 -0.006289542
v 0.007313153 -2.234429E-07 -0.00531288
v 0.006290113 -0.004819154 -0.01089386
v 0.002793681 -2.22912E-07 -0.008596469
v 4.924208E-07 -0.004819153 -0.01257916
v 4.924208E-07 -0.004819153 -0.01257916
v 0.002793681 -2.22912E-07 -0.008596469
vt 0.249301 0.864356
vt 0.22543 0.937869
vt 0.311821 0.818912
vt 0.389118 0.818903
vt 0.451659 0.864343
vt 0.475552 0.937869
vt 0.09134 0.937681
vt 0.004941 0.818727
vt 0.028819 0.892244
vt 0.168629 0.937693
vt 0.231173 0.892261
vt 0.255065 0.818727
vt 0.532864 0.810313
vt 0.60832 0.810313
vt 0.60832 0.004812
vt 0.532864 0.004812
vt 0.457402 0.810313
vt 0.457402 0.004812
vt 0.381948 0.810313
vt 0.381948 0.004812
vt 0.30649 0.810313
vt 0.30649 0.004812
vt 0.231032 0.810313
vt 0.231032 0.004812
vt 0.155573 0.810313
vt 0.155573 0.004812
vt 0.08012 0.810313
vt 0.08012 0.004812
vt 0.004659 0.810313
vt 0.004659 0.004812
vt 0.683777 0.004812
vt 0.683777 0.810313
vt 0.759233 0.004812
vt 0.759233 0.810313
vt 0.834693 0.004812
vt 0.834693 0.810313
vt 0.910149 0.004812
vt 0.910149 0.810313
vt 0.521691 0.94262
vt 0.450605 0.819472
vt 0.46965 0.890567
vt 0.592778 0.961678
vt 0.663883 0.942633
vt 0.71593 0.890576
vt 0.734983 0.819474
vt 0.725343 0.889886
vt 0.706308 0.960985
vt 0.777377 0.837832
vt 0.848473 0.818774
vt 0.919577 0.837819
vt 0.971635 0.889869
vt 0.99069 0.960986
vt 0.918338 0.244242
vt 0.918338 0.327569
vt 0.994601 0.312676
vt 0.994601 0.243268
vt 0.994601 0.381601
vt 0.918338 0.410677
vt 0.994601 0.450945
vt 0.918338 0.160869
vt 0.994601 0.173424
vt 0.918338 0.079179
vt 0.994601 0.10168
vt 0.918338 0.493046
vt 0.994601 0.5199
vt 0.994601 0.589089
vt 0.918338 0.576036
vt 0.994601 0.658571
vt 0.918338 0.659345
vt 0.994601 0.728753
vt 0.918338 0.742362
vt 0.994601 0.802002
vt 0.918338 0.822213
vt 0.994601 0.881491
vt 0.994601 0.023766
vt 0.918338 0.004207
vn 0 1 1.616687E-07
vn 0 1 1.626791E-07
vn 0 1 1.629927E-07
vn 0 1 1.62988E-07
vn 0 1 1.625622E-07
vn 0 1 1.624254E-07
vn 0 1 1.629347E-07
vn 0 1 1.626791E-07
vn 0 1 1.634404E-07
vn 0 1 1.625945E-07
vn 0 1 1.625052E-07
vn 0 1 1.624254E-07
vn 0.4996676 -0.03645965 0.8654497
vn 0.8654497 -0.03645959 0.4996676
vn 0.8654497 -0.03645958 0.4996675
vn 0.4996676 -0.03645964 0.8654495
vn 0 -0.03645966 0.9993351
vn 0 -0.03645966 0.9993351
vn -0.4996676 -0.03645964 0.8654497
vn -0.4996676 -0.03645964 0.8654495
vn -0.8654497 -0.03645959 0.4996675
vn -0.8654497 -0.03645958 0.4996675
vn -0.9993351 -0.03645949 0
vn -0.9993351 -0.03645949 0
vn -0.8654497 -0.03645942 -0.4996675
vn -0.8654497 -0.03645942 -0.4996676
vn -0.4996675 -0.03645935 -0.8654497
vn -0.4996675 -0.03645935 -0.8654497
vn 0 -0.03645933 -0.9993351
vn 0 -0.03645933 -0.9993351
vn 0.9993351 -0.03645949 0
vn 0.9993351 -0.0364595 0
vn 0.8654497 -0.03645942 -0.4996676
vn 0.8654497 -0.03645942 -0.4996675
vn 0.4996675 -0.03645935 -0.8654497
vn 0.4996675 -0.03645935 -0.8654497
vn 0 -0.03645933 -0.9993351
vn 0 -0.03645933 -0.9993351
vn 0 -1 0
vn 0 -1 0
vn 0 -1 0
vn 0 -1 0
vn 0 -1 0
vn 0 -1 0
vn 0 -1 0
vn 0 -1 0
vn 0 -1 0
vn 0 -1 0
vn 0 -1 0
vn 0 -1 0
vn 0 -1 0
vn 0 -1 0
vn -0.7928224 0.6094528 0
vn -0.6512591 0.6091473 0.4525498
vn -0.680045 0.609208 0.4079269
vn -0.7928224 0.6094528 0
vn -0.4106693 0.583584 0.7005574
vn -0.2365207 0.6040189 0.7610645
vn -0.003811225 0.5832741 0.8122665
vn -0.6512591 0.6091473 -0.4525496
vn -0.680045 0.6092082 -0.4079267
vn -0.2784242 0.6082938 -0.7432756
vn -0.3718244 0.6085361 -0.7010211
vn 0.2784241 0.6082935 0.7432759
vn 0.3718243 0.6085358 0.7010214
vn 0.680045 0.6092081 0.4079269
vn 0.6512589 0.6091472 0.4525498
vn 0.7928224 0.6094528 0
vn 0.7928224 0.6094528 0
vn 0.680045 0.6092083 -0.4079266
vn 0.6512589 0.6091474 -0.4525495
vn 0.4106694 0.5835842 -0.7005571
vn 0.2365207 0.6040192 -0.7610643
vn 0.003811166 0.5832745 -0.8122662
vn 0.003811166 0.5832745 -0.8122662
vn 0.2365207 0.6040192 -0.7610643
g muzzle_ar15_surefire_sf3p_flash_hider_556x45_LOD1_0
f 3/3/3 2/2/2 1/1/1
f 4/4/4 2/2/2 3/3/3
f 5/5/5 2/2/2 4/4/4
f 6/6/6 2/2/2 5/5/5
f 9/9/9 8/8/8 7/7/7
f 7/7/7 8/8/8 10/10/10
f 10/10/10 8/8/8 11/11/11
f 11/11/11 8/8/8 12/12/12
f 15/15/15 14/14/14 13/13/13
f 16/16/16 15/15/15 13/13/13
f 16/16/16 13/13/13 17/17/17
f 18/18/18 16/16/16 17/17/17
f 18/18/18 17/17/17 19/19/19
f 20/20/20 18/18/18 19/19/19
f 20/20/20 19/19/19 21/21/21
f 22/22/22 20/20/20 21/21/21
f 22/22/22 21/21/21 23/23/23
f 24/24/24 22/22/22 23/23/23
f 24/24/24 23/23/23 25/25/25
f 26/26/26 24/24/24 25/25/25
f 26/26/26 25/25/25 27/27/27
f 28/28/28 26/26/26 27/27/27
f 28/28/28 27/27/27 29/29/29
f 30/30/30 28/28/28 29/29/29
f 15/15/15 31/31/31 14/14/14
f 31/31/31 32/32/32 14/14/14
f 31/31/31 33/33/33 32/32/32
f 33/33/33 34/34/34 32/32/32
f 33/33/33 35/35/35 34/34/34
f 35/35/35 36/36/36 34/34/34
f 35/35/35 37/37/37 36/36/36
f 37/37/37 38/38/38 36/36/36
f 41/41/41 40/40/40 39/39/39
f 39/39/39 40/40/40 42/42/42
f 42/42/42 40/40/40 43/43/43
f 43/43/43 40/40/40 44/44/44
f 44/44/44 40/40/40 45/45/45
f 48/48/48 47/47/47 46/46/46
f 49/49/49 47/47/47 48/48/48
f 50/50/50 47/47/47 49/49/49
f 51/51/51 47/47/47 50/50/50
f 52/52/52 47/47/47 51/51/51
f 55/55/55 54/54/54 53/53/53
f 56/56/56 55/55/55 53/53/53
f 55/55/55 57/57/57 54/54/54
f 57/57/57 58/58/58 54/54/54
f 58/58/58 57/57/57 59/59/59
f 56/56/56 53/53/53 60/60/60
f 61/61/61 56/56/56 60/60/60
f 61/61/61 60/60/60 62/62/62
f 63/63/63 61/61/61 62/62/62
f 58/58/58 59/59/59 64/64/64
f 59/59/59 65/65/65 64/64/64
f 65/65/65 66/66/66 64/64/64
f 66/66/66 67/67/67 64/64/64
f 66/66/66 68/68/68 67/67/67
f 68/68/68 69/69/69 67/67/67
f 68/68/68 70/70/70 69/69/69
f 70/70/70 71/71/71 69/69/69
f 70/70/70 72/72/72 71/71/71
f 72/72/72 73/73/73 71/71/71
f 73/73/73 72/72/72 74/74/74
f 63/63/63 62/62/62 75/75/75
f 62/62/62 76/76/76 75/75/75
