g muzzle_ar10_keeno_arms_shrewd_muzzle_brake_762x51_LOD1
v -0.007423524 3.418445E-05 -0.007385484
v -0.007423535 -0.07225351 -0.007385484
v -2.750612E-05 -0.07225351 -0.01044902
v -2.74952E-05 3.418445E-05 -0.01044902
v -0.01048706 3.418445E-05 1.054429E-05
v -0.01048707 -0.07225351 1.054429E-05
v -0.007423525 3.418445E-05 0.007406573
v -0.007423535 -0.07225351 0.007406573
v -2.74952E-05 3.418445E-05 0.01047011
v -2.750612E-05 -0.07225351 0.01047011
v 0.007368533 3.418445E-05 0.007406572
v 0.007368522 -0.07225351 0.007406572
v 0.01043207 3.418445E-05 1.054429E-05
v 0.01043206 -0.07225351 1.054429E-05
v 0.007368533 3.418445E-05 -0.007385484
v 0.007368522 -0.07225351 -0.007385484
v -2.74952E-05 3.418445E-05 -0.01044902
v -2.750612E-05 -0.07225351 -0.01044902
v 0.007368533 3.418445E-05 -0.007385484
v -0.007423524 3.418445E-05 -0.007385484
v -2.74952E-05 3.418445E-05 -0.01044902
v 0.01043207 3.418445E-05 1.054429E-05
v -0.01048706 3.418445E-05 1.054429E-05
v -0.007423525 3.418445E-05 0.007406573
v 0.007368533 3.418445E-05 0.007406572
v -2.74952E-05 3.418445E-05 0.01047011
v -2.750612E-05 -0.07225351 0.01047011
v 0.007368522 -0.07225351 0.007406572
v -0.007423535 -0.07225351 0.007406573
v -0.01048707 -0.07225351 1.054429E-05
v 0.01043206 -0.07225351 1.054429E-05
v -0.007423535 -0.07225351 -0.007385484
v 0.007368522 -0.07225351 -0.007385484
v -2.750612E-05 -0.07225351 -0.01044902
vt 0.9105023 0.105486
vt 0.9105002 0.8766633
vt 0.995891 0.8766626
vt 0.9958934 0.1054861
vt 0.8250982 0.1054859
vt 0.8250981 0.8766633
vt 0.7396944 0.1054859
vt 0.7396944 0.8766633
vt 0.6542913 0.1054859
vt 0.6542913 0.8766633
vt 0.5688882 0.1054859
vt 0.5688882 0.8766633
vt 0.4834849 0.1054859
vt 0.4834851 0.8766633
vt 0.3980808 0.105486
vt 0.3980832 0.8766633
vt 0.3126895 0.1054861
vt 0.3126919 0.8766626
vt 0.005003184 0.09607396
vt 0.2166533 0.006311785
vt 0.09198487 0.006746796
vt 0.005817711 0.2204255
vt 0.3054876 0.09333698
vt 0.3063022 0.2176886
vt 0.09465203 0.3074507
vt 0.2193205 0.3070156
vt 0.09265843 0.9908938
vt 0.2158029 0.9910179
vt 0.005583346 0.903794
vt 0.005659401 0.7806233
vt 0.3029521 0.903986
vt 0.09280771 0.693599
vt 0.3030166 0.7808334
vt 0.215953 0.6937652
vn -0.7071068 1.048657E-07 -0.7071068
vn -0.7071066 1.048657E-07 -0.7071068
vn 0 0 -1
vn 0 0 -1
vn -1 1.477179E-07 0
vn -1 1.477179E-07 0
vn -0.7071068 1.048657E-07 0.7071068
vn -0.7071066 1.048657E-07 0.7071068
vn 0 0 1
vn 0 0 1
vn 0.7071068 -1.048657E-07 0.7071068
vn 0.7071068 -1.048657E-07 0.7071068
vn 1 -1.477178E-07 0
vn 1 -1.477178E-07 0
vn 0.7071068 -1.048657E-07 -0.7071068
vn 0.7071068 -1.048658E-07 -0.7071068
vn 0 0 -1
vn 0 0 -1
vn 0 1 0
vn 0 1 0
vn 0 1 0
vn 0 1 0
vn 0 1 0
vn 0 1 0
vn 0 1 0
vn 0 1 0
vn 0 -1 0
vn -1.112717E-07 -1 0
vn -1.112716E-07 -1 0
vn -1.33526E-07 -1 0
vn -1.33526E-07 -1 0
vn -1.112717E-07 -1 0
vn -1.112717E-07 -1 0
vn 0 -1 0
g muzzle_ar10_keeno_arms_shrewd_muzzle_brake_762x51_LOD1_0
f 3/3/3 2/2/2 1/1/1
f 4/4/4 3/3/3 1/1/1
f 1/1/1 2/2/2 5/5/5
f 2/2/2 6/6/6 5/5/5
f 5/5/5 6/6/6 7/7/7
f 6/6/6 8/8/8 7/7/7
f 7/7/7 8/8/8 9/9/9
f 8/8/8 10/10/10 9/9/9
f 9/9/9 10/10/10 11/11/11
f 10/10/10 12/12/12 11/11/11
f 11/11/11 12/12/12 13/13/13
f 12/12/12 14/14/14 13/13/13
f 13/13/13 14/14/14 15/15/15
f 14/14/14 16/16/16 15/15/15
f 15/15/15 16/16/16 17/17/17
f 16/16/16 18/18/18 17/17/17
f 21/21/21 20/20/20 19/19/19
f 22/22/22 19/19/19 20/20/20
f 23/23/23 22/22/22 20/20/20
f 22/22/22 23/23/23 24/24/24
f 25/25/25 22/22/22 24/24/24
f 26/26/26 25/25/25 24/24/24
f 29/29/29 28/28/28 27/27/27
f 29/29/29 30/30/30 28/28/28
f 30/30/30 31/31/31 28/28/28
f 30/30/30 32/32/32 31/31/31
f 32/32/32 33/33/33 31/31/31
f 32/32/32 34/34/34 33/33/33
