g muzzle_tt_pm_laser_dtk_tt_LOD1
v 0.005572161 0.002101522 -0.01876291
v 0.006467896 -0.02118386 -0.01646547
v 0.006467896 0.002101522 -0.01646547
v 0.005572162 -0.02118386 -0.01876291
v 0.007023816 0.002101523 -0.01374975
v 0.007023816 -0.02118386 -0.01374975
v 0.007142811 -0.02118386 -0.01100093
v 0.007142811 0.002101523 -0.01100093
v 0.009845103 -0.0211837 -0.003370493
v 0.009845103 0.002101523 -0.003370494
v 0.009845104 -0.0211986 0.003028598
v 0.009845103 0.002101523 0.0030286
v 0.002893606 -0.02118386 -0.02089998
v 0.002893605 0.002101522 -0.02089998
v 1.57388E-05 -0.02118386 -0.02159934
v 1.573778E-05 0.002101522 -0.02159934
v 0.008922587 0.002101522 0.005525244
v 0.008922596 -0.02119329 0.005525244
v 0.00664336 0.002101521 0.007883039
v 0.006643371 -0.02118725 0.007883039
v 0.00359681 0.002101521 0.00959368
v 0.003596818 -0.02118335 0.009593679
v 1.573883E-05 -0.02118338 0.01021562
v 1.573781E-05 0.002101521 0.01021563
v -0.006992342 0.002101522 -0.01374975
v -0.006436418 -0.02118386 -0.01646547
v -0.00643642 0.002101522 -0.01646547
v -0.006992338 -0.02118386 -0.01374975
v -0.007111337 0.002101522 -0.01100093
v -0.007111333 -0.02118386 -0.01100093
v -0.009813626 -0.0211837 -0.003370493
v -0.009813628 0.002101522 -0.003370494
v -0.009813627 -0.0211986 0.003028598
v -0.009813628 0.002101522 0.0030286
v -0.0088943 0.002101521 0.005527224
v -0.008894307 -0.02119324 0.005527224
v -0.005540686 0.002101522 -0.0187629
v -0.005540684 -0.02118386 -0.0187629
v -0.00281117 0.002101522 -0.02090551
v -0.002811169 -0.02118386 -0.02090551
v 1.57388E-05 -0.02118386 -0.02159934
v 1.573778E-05 0.002101522 -0.02159934
v -0.006618867 -0.02118701 0.007885057
v -0.006618858 0.002101521 0.007885057
v -0.00356157 -0.02118302 0.009597663
v -0.003561563 0.002101521 0.009597663
v 1.573883E-05 -0.02118338 0.01021562
v 1.573781E-05 0.002101521 0.01021563
v 0.005572162 -0.02118386 -0.01876291
v -0.002811169 -0.02118386 -0.02090551
v -0.005540684 -0.02118386 -0.0187629
v 0.002893606 -0.02118386 -0.02089998
v 0.006467896 -0.02118386 -0.01646547
v -0.006436418 -0.02118386 -0.01646547
v 0.007023816 -0.02118386 -0.01374975
v -0.006992338 -0.02118386 -0.01374975
v 0.007142811 -0.02118386 -0.01100093
v -0.007111333 -0.02118386 -0.01100093
v 0.009845103 -0.0211837 -0.003370493
v -0.009813626 -0.0211837 -0.003370493
v 0.009845104 -0.0211986 0.003028598
v -0.009813627 -0.0211986 0.003028598
v 0.008922596 -0.02119329 0.005525244
v -0.008894307 -0.02119324 0.005527224
v 0.006643371 -0.02118725 0.007883039
v -0.006618867 -0.02118701 0.007885057
v 0.003596818 -0.02118335 0.009593679
v -0.00356157 -0.02118302 0.009597663
v 1.573883E-05 -0.02118338 0.01021562
v 1.573778E-05 0.002101522 -0.02159934
v 0.002893605 0.002101522 -0.02089998
v -0.00281117 0.002101522 -0.02090551
v -0.005540686 0.002101522 -0.0187629
v 0.005572161 0.002101522 -0.01876291
v -0.00643642 0.002101522 -0.01646547
v 0.006467896 0.002101522 -0.01646547
v -0.006992342 0.002101522 -0.01374975
v 0.007023816 0.002101523 -0.01374975
v -0.007111337 0.002101522 -0.01100093
v 0.007142811 0.002101523 -0.01100093
v 0.009845103 0.002101523 -0.003370494
v -0.009813628 0.002101522 -0.003370494
v -0.009813628 0.002101522 0.0030286
v 0.009845103 0.002101523 0.0030286
v 0.008922587 0.002101522 0.005525244
v 0.00664336 0.002101521 0.007883039
v 0.00359681 0.002101521 0.00959368
v -0.0088943 0.002101521 0.005527224
v -0.006618858 0.002101521 0.007885057
v -0.003561563 0.002101521 0.009597663
v 1.573781E-05 0.002101521 0.01021563
v 1.57388E-05 -0.02118386 -0.02159934
v 1.574E-05 0.002101521 0.007794451
v 0.003552827 0.01080527 0.006848154
v 0.003552829 0.002101521 0.006848154
v 1.573962E-05 0.01080527 0.007794451
v 0.006397449 0.01080527 0.004542807
v 0.00639745 0.002101521 0.004542807
v 0.007710929 0.01080527 0.001125019
v 0.007710929 0.002101522 0.001125019
v 0.007517888 0.01080527 -0.002531377
v 0.007517888 0.002101522 -0.002531377
v 0.00552488 0.01080527 -0.005602928
v 0.005524881 0.002101521 -0.005602928
v 0.003022854 0.01080527 -0.007305742
v 0.003022855 0.002101521 -0.007305742
v -0.003521348 0.01080527 0.006848154
v -0.003521349 0.002101521 0.006848154
v -0.00636597 0.01080527 0.004542809
v -0.006365971 0.002101521 0.004542809
v -0.007679452 0.01080527 0.001125021
v -0.007679452 0.002101521 0.001125022
v -0.007486412 0.01080527 -0.002531375
v -0.007486412 0.002101521 -0.002531374
v -0.005493405 0.01080527 -0.005602926
v -0.005493407 0.002101521 -0.005602926
v -0.00299138 0.01080527 -0.007305741
v -0.002991381 0.002101521 -0.007305741
v 0.003552827 0.01080527 0.006848154
v 1.573962E-05 0.01080527 0.007794451
v -0.003521348 0.01080527 0.006848154
v 0.006397449 0.01080527 0.004542807
v -0.00636597 0.01080527 0.004542809
v 0.007710929 0.01080527 0.001125019
v -0.007679452 0.01080527 0.001125021
v 0.007517888 0.01080527 -0.002531377
v -0.007486412 0.01080527 -0.002531375
v 0.00552488 0.01080527 -0.005602928
v -0.005493405 0.01080527 -0.005602926
v 0.003022854 0.01080527 -0.007305742
v -0.00299138 0.01080527 -0.007305741
v -0.00299138 0.01080527 -0.007305741
v 0.003022855 0.002101521 -0.007305742
v 0.003022854 0.01080527 -0.007305742
v -0.002991381 0.002101521 -0.007305741
vt 0.577364 0.8268622
vt 0.5372166 0.4174249
vt 0.5372098 0.8268622
vt 0.5773706 0.4174249
vt 0.4918117 0.8268622
vt 0.4918184 0.4174249
vt 0.4466517 0.4174249
vt 0.4466447 0.8268622
vt 0.314667 0.4174249
vt 0.3146601 0.8268622
vt 0.2096068 0.4174249
vt 0.2096002 0.8268622
vt 0.6314697 0.4174249
vt 0.6314628 0.8268622
vt 0.6771773 0.4174249
vt 0.6771703 0.8268622
vt 0.1662267 0.8268622
vt 0.1662326 0.4174249
vt 0.1140136 0.8268622
vt 0.1140192 0.4174249
vt 0.05940334 0.8268622
vt 0.05940834 0.4174249
vt 0.003416297 0.4174249
vt 0.003412266 0.8268622
vt 0.1882387 0.412165
vt 0.1428378 0.002727746
vt 0.1428396 0.412165
vt 0.1882373 0.002727746
vt 0.2334068 0.412165
vt 0.2334055 0.002727746
vt 0.3653927 0.002727746
vt 0.3653935 0.412165
vt 0.4704551 0.002727746
vt 0.4704552 0.412165
vt 0.5138439 0.4121649
vt 0.5138448 0.002727746
vt 0.1026844 0.412165
vt 0.1026825 0.002727746
vt 0.04792729 0.412165
vt 0.04792536 0.002727746
vt 0.002997799 0.002727746
vt 0.002999735 0.412165
vt 0.5660205 0.002727746
vt 0.5660188 0.4121649
vt 0.6207904 0.002727746
vt 0.6207878 0.4121649
vt 0.6767144 0.002727702
vt 0.6767102 0.4121649
vt 0.7519337 0.9318767
vt 0.8821526 0.9674198
vt 0.9245504 0.9318768
vt 0.7935401 0.967328
vt 0.7380204 0.8937652
vt 0.9384638 0.8937654
vt 0.7293851 0.8487149
vt 0.947099 0.8487149
vt 0.727537 0.8031153
vt 0.9489475 0.8031155
vt 0.685562 0.6765358
vt 0.9909226 0.6765361
vt 0.6855621 0.5703828
vt 0.9909226 0.5703825
vt 0.6998913 0.5289662
vt 0.9766428 0.528933
vt 0.7352944 0.4898531
vt 0.9412981 0.4898195
vt 0.7826167 0.4614754
vt 0.8938087 0.4614091
vt 0.8382417 0.4511578
vt 0.8083674 0.4438256
vt 0.8455823 0.4341668
vt 0.7718111 0.4342435
vt 0.7365143 0.4046532
vt 0.8802196 0.4046528
vt 0.724931 0.3729247
vt 0.8918025 0.3729245
vt 0.7177421 0.3354194
vt 0.8989911 0.3354194
vt 0.7162036 0.2974573
vt 0.9005297 0.2974575
vt 0.935474 0.1920793
vt 0.6812595 0.192079
vt 0.68126 0.103706
vt 0.935474 0.1037066
vt 0.9235446 0.06922737
vt 0.8940712 0.03666578
vt 0.8546753 0.01304169
vt 0.6931485 0.0691997
vt 0.722573 0.03663789
vt 0.7621082 0.01298655
vt 0.8083673 0.004452551
vt 0.838242 0.9789291
vt 0.3442139 0.9882008
vt 0.2876602 0.8351737
vt 0.2876615 0.9882016
vt 0.3442136 0.8351737
vt 0.2298231 0.8351743
vt 0.2298253 0.9882026
vt 0.1701858 0.8351752
vt 0.1701885 0.9882041
vt 0.1100799 0.8351764
vt 0.1100832 0.9882056
vt 0.05107161 0.835178
vt 0.051075 0.9882072
vt 0.003519592 0.8351792
vt 0.00352314 0.9882085
vt 0.4007666 0.8351742
vt 0.4007662 0.9882004
vt 0.4586025 0.835175
vt 0.4586015 0.9882004
vt 0.5182382 0.8351762
vt 0.5182366 0.9882007
vt 0.5783419 0.8351772
vt 0.5783398 0.9882014
vt 0.6373479 0.8351784
vt 0.6373456 0.9882024
vt 0.6848981 0.8351793
vt 0.6848959 0.9882033
vt 0.8513486 0.06481524
vt 0.8101879 0.05303651
vt 0.7690176 0.06478129
vt 0.8844431 0.09348266
vt 0.7358994 0.09342137
vt 0.8997124 0.1359695
vt 0.7205953 0.1358954
vt 0.8974468 0.1814147
vt 0.7228231 0.1813425
vt 0.8742357 0.2195821
vt 0.7460023 0.2195291
vt 0.8451077 0.2407348
vt 0.7751127 0.2407057
vt 0.9086834 0.3367066
vt 0.9848207 0.4543801
vt 0.9848207 0.3367066
vt 0.9086834 0.4543801
vn 0.8380378 0 -0.5456122
vn 0.9680904 0 -0.2506012
vn 0.9680904 0 -0.2506012
vn 0.8380378 0 -0.5456122
vn 0.9942073 0 -0.1074795
vn 0.9942074 0 -0.1074789
vn 0.9857372 0 -0.1682922
vn 0.9857373 0 -0.1682913
vn 0.9887776 0 -0.1493948
vn 0.9887611 0 -0.1495038
vn 0.9878342 0 0.1555109
vn 0.9878368 0 0.1554941
vn 0.4857628 0 -0.8740907
vn 0.4857628 0 -0.8740907
vn -0.001295099 0 -0.9999992
vn -0.001295144 0 -0.9999992
vn 0.8746777 0 0.484705
vn 0.874798 0 0.4844878
vn 0.6594459 0 0.7517521
vn 0.6595634 0 0.7516488
vn 0.3747165 0 0.9271394
vn 0.3747815 0 0.9271132
vn 0.0005192852 0 0.9999999
vn 0.0005129947 0 0.9999999
vn -0.9942073 0 -0.1074795
vn -0.9680904 0 -0.2506012
vn -0.9680904 0 -0.2506012
vn -0.9942074 0 -0.1074789
vn -0.9857373 0 -0.1682913
vn -0.9857372 0 -0.1682922
vn -0.9887776 0 -0.1493948
vn -0.9887611 0 -0.1495038
vn -0.9879305 0 0.1548982
vn -0.9879323 0 0.1548867
vn -0.8751825 0 0.483793
vn -0.8753085 0 0.4835648
vn -0.8358966 0 -0.5488871
vn -0.8358966 0 -0.5488871
vn -0.4832295 0 -0.8754937
vn -0.4832295 0 -0.8754937
vn -0.001295099 0 -0.9999992
vn -0.001295144 0 -0.9999992
vn -0.6594874 0 0.7517155
vn -0.6593786 0 0.751811
vn -0.3738001 0 0.9275092
vn -0.3737361 0 0.9275351
vn 0.0005192852 0 0.9999999
vn 0.0005129947 0 0.9999999
vn 0 -1 0
vn 0 -1 0
vn 0 -1 0
vn 0 -1 0
vn 0 -1 0
vn 0 -1 0
vn 0 -1 0
vn 0 -1 0
vn 0 -1 2.325473E-05
vn 0 -1 2.325473E-05
vn 0 -0.9999973 -0.002331281
vn 0 -0.9999973 -0.002331281
vn 0 -0.9999973 -0.002331226
vn 0 -0.9999973 -0.002331226
vn -5.813535E-06 -0.9999977 0.002139381
vn -5.81367E-06 -0.9999977 0.00213943
vn -1.744058E-05 -0.9999965 0.002662596
vn -1.744058E-05 -0.9999965 0.002650969
vn -4.941502E-05 -0.9999971 0.002406802
vn -5.232299E-05 -0.9999971 0.002406858
vn -5.311799E-05 -1 -0.0003023115
vn 0 1 0
vn 0 1 0
vn 0 1 0
vn 0 1 0
vn 0 1 0
vn 0 1 0
vn 0 1 0
vn 0 1 0
vn 0 1 0
vn 0 1 0
vn 0 1 0
vn 0 1 0
vn 0 1 0
vn 0 1 0
vn 0 1 0
vn 0 1 0
vn 0 1 0
vn 0 1 0
vn 0 1 0
vn 0 1 0
vn 0 1 0
vn 0 1 0
vn 0 -1 0
vn 0 0 1
vn 0.5002312 0 0.8658919
vn 0.5002291 0 0.8658931
vn 0 0 1
vn 0.8413088 0 0.5405549
vn 0.8413088 0 0.5405549
vn 0.9903941 0 0.1382735
vn 0.9903941 0 0.1382735
vn 0.9611275 0 -0.276105
vn 0.9611275 0 -0.276105
vn 0.7574002 0 -0.6529511
vn 0.7573974 0 -0.6529543
vn 0.6131781 0 -0.7899447
vn 0.6131753 0 -0.7899469
vn -0.5002312 0 0.8658919
vn -0.5002291 0 0.8658931
vn -0.8413088 0 0.5405549
vn -0.8413088 0 0.5405549
vn -0.9903939 0 0.1382743
vn -0.9903939 0 0.1382743
vn -0.9611279 0 -0.2761036
vn -0.9611275 0 -0.276105
vn -0.7574002 0 -0.6529511
vn -0.7573974 0 -0.6529543
vn -0.6131781 0 -0.7899447
vn -0.6131798 0 -0.7899434
vn 0 1 0
vn 0 1 0
vn 0 1 0
vn 0 1 0
vn 0 1 0
vn 0 1 0
vn 0 1 0
vn 0 1 0
vn 0 1 0
vn 0 1 0
vn 0 1 0
vn 0 1 0
vn 0 1 0
vn 0 0 -1
vn 0 0 -1
vn 0 0 -1
vn 0 0 -1
g muzzle_tt_pm_laser_dtk_tt_LOD1_0
f 3/3/3 2/2/2 1/1/1
f 4/4/4 1/1/1 2/2/2
f 3/3/3 5/5/5 2/2/2
f 6/6/6 2/2/2 5/5/5
f 6/6/6 5/5/5 7/7/7
f 8/8/8 7/7/7 5/5/5
f 7/7/7 8/8/8 9/9/9
f 10/10/10 9/9/9 8/8/8
f 9/9/9 10/10/10 11/11/11
f 12/12/12 11/11/11 10/10/10
f 4/4/4 13/13/13 1/1/1
f 14/14/14 1/1/1 13/13/13
f 13/13/13 15/15/15 14/14/14
f 16/16/16 14/14/14 15/15/15
f 12/12/12 17/17/17 11/11/11
f 18/18/18 11/11/11 17/17/17
f 17/17/17 19/19/19 18/18/18
f 20/20/20 18/18/18 19/19/19
f 19/19/19 21/21/21 20/20/20
f 22/22/22 20/20/20 21/21/21
f 22/22/22 21/21/21 23/23/23
f 24/24/24 23/23/23 21/21/21
f 27/27/27 26/26/26 25/25/25
f 28/28/28 25/25/25 26/26/26
f 25/25/25 28/28/28 29/29/29
f 30/30/30 29/29/29 28/28/28
f 30/30/30 31/31/31 29/29/29
f 32/32/32 29/29/29 31/31/31
f 31/31/31 33/33/33 32/32/32
f 34/34/34 32/32/32 33/33/33
f 34/34/34 33/33/33 35/35/35
f 36/36/36 35/35/35 33/33/33
f 27/27/27 37/37/37 26/26/26
f 38/38/38 26/26/26 37/37/37
f 37/37/37 39/39/39 38/38/38
f 40/40/40 38/38/38 39/39/39
f 40/40/40 39/39/39 41/41/41
f 42/42/42 41/41/41 39/39/39
f 36/36/36 43/43/43 35/35/35
f 44/44/44 35/35/35 43/43/43
f 43/43/43 45/45/45 44/44/44
f 46/46/46 44/44/44 45/45/45
f 45/45/45 47/47/47 46/46/46
f 48/48/48 46/46/46 47/47/47
f 51/51/51 50/50/50 49/49/49
f 52/52/52 49/49/49 50/50/50
f 49/49/49 53/53/53 51/51/51
f 54/54/54 51/51/51 53/53/53
f 53/53/53 55/55/55 54/54/54
f 56/56/56 54/54/54 55/55/55
f 55/55/55 57/57/57 56/56/56
f 58/58/58 56/56/56 57/57/57
f 57/57/57 59/59/59 58/58/58
f 60/60/60 58/58/58 59/59/59
f 59/59/59 61/61/61 60/60/60
f 62/62/62 60/60/60 61/61/61
f 61/61/61 63/63/63 62/62/62
f 64/64/64 62/62/62 63/63/63
f 63/63/63 65/65/65 64/64/64
f 66/66/66 64/64/64 65/65/65
f 65/65/65 67/67/67 66/66/66
f 68/68/68 66/66/66 67/67/67
f 69/69/69 68/68/68 67/67/67
f 72/72/72 71/71/71 70/70/70
f 72/72/72 73/73/73 71/71/71
f 74/74/74 71/71/71 73/73/73
f 73/73/73 75/75/75 74/74/74
f 76/76/76 74/74/74 75/75/75
f 75/75/75 77/77/77 76/76/76
f 78/78/78 76/76/76 77/77/77
f 77/77/77 79/79/79 78/78/78
f 80/80/80 78/78/78 79/79/79
f 80/80/80 79/79/79 81/81/81
f 82/82/82 81/81/81 79/79/79
f 82/82/82 83/83/83 81/81/81
f 84/84/84 81/81/81 83/83/83
f 85/85/85 84/84/84 83/83/83
f 86/86/86 85/85/85 83/83/83
f 87/87/87 86/86/86 83/83/83
f 88/88/88 87/87/87 83/83/83
f 89/89/89 87/87/87 88/88/88
f 90/90/90 87/87/87 89/89/89
f 91/91/91 87/87/87 90/90/90
f 92/92/92 52/52/52 50/50/50
f 95/95/95 94/94/94 93/93/93
f 96/96/96 93/93/93 94/94/94
f 94/94/94 95/95/95 97/97/97
f 98/98/98 97/97/97 95/95/95
f 97/97/97 98/98/98 99/99/99
f 100/100/100 99/99/99 98/98/98
f 99/99/99 100/100/100 101/101/101
f 102/102/102 101/101/101 100/100/100
f 101/101/101 102/102/102 103/103/103
f 104/104/104 103/103/103 102/102/102
f 103/103/103 104/104/104 105/105/105
f 106/106/106 105/105/105 104/104/104
f 96/96/96 107/107/107 93/93/93
f 108/108/108 93/93/93 107/107/107
f 107/107/107 109/109/109 108/108/108
f 110/110/110 108/108/108 109/109/109
f 109/109/109 111/111/111 110/110/110
f 112/112/112 110/110/110 111/111/111
f 111/111/111 113/113/113 112/112/112
f 114/114/114 112/112/112 113/113/113
f 113/113/113 115/115/115 114/114/114
f 116/116/116 114/114/114 115/115/115
f 115/115/115 117/117/117 116/116/116
f 118/118/118 116/116/116 117/117/117
f 121/121/121 120/120/120 119/119/119
f 119/119/119 122/122/122 121/121/121
f 123/123/123 121/121/121 122/122/122
f 122/122/122 124/124/124 123/123/123
f 125/125/125 123/123/123 124/124/124
f 124/124/124 126/126/126 125/125/125
f 127/127/127 125/125/125 126/126/126
f 126/126/126 128/128/128 127/127/127
f 129/129/129 127/127/127 128/128/128
f 128/128/128 130/130/130 129/129/129
f 131/131/131 129/129/129 130/130/130
f 134/134/134 133/133/133 132/132/132
f 135/135/135 132/132/132 133/133/133
