g muzzle_glock_lone_wolf_compensator_9_9x19_LOD1
v 0.01131915 -0.0199046 0.003954167
v 0.009586344 -0.0251373 0.002901047
v 0.007445205 -0.0251194 0.006786792
v 0.007415889 -0.01977347 0.008937895
v 0.007318565 -0.002025651 0.008937895
v 0.01131915 -0.00202565 0.00395417
v 0.004725212 -0.0251194 0.008937895
v 0.009586344 -0.0251373 -0.002850243
v 0.01131915 -0.0199046 -0.003903368
v 0.007445205 -0.0251194 -0.006735989
v 0.007415889 -0.01977347 -0.008887092
v 0.007318565 -0.002025651 -0.008887092
v 0.01131915 -0.00202565 -0.00390337
v 0.004725212 -0.0251194 -0.008887092
v 0.007445205 -0.0251194 0.006786792
v 0.009586344 -0.0251373 0.002901047
v 0.009586344 -0.0251373 -0.002850243
v 0.007445205 -0.0251194 -0.006735989
v 0.004725212 -0.0251194 -0.008887092
v 0.004725212 -0.0251194 0.008937895
v -0.004692604 -0.0251194 -0.008887092
v -0.004692604 -0.0251194 0.008937895
v -0.007412598 -0.0251194 0.006786792
v -0.007412598 -0.0251194 -0.006735989
v -0.009553737 -0.0251373 -0.002850243
v -0.009553737 -0.0251373 0.002901047
v 0.006478617 -0.0008895385 0.006403146
v 0.006478617 0.002415199 0.006403145
v 0.009102078 0.002415199 6.953701E-05
v 0.00910208 -0.0008895385 6.953701E-05
v 0.00647861 0.002415199 -0.006264067
v 0.006478611 -0.0008895385 -0.006264068
v 0.00231723 -0.0008860099 -0.008873999
v 0.002341587 0.002415199 -0.008860906
v 0.002266498 0.002415199 0.008946195
v 0.002279685 -0.0008860099 0.008942046
v 0.00231723 -0.0008860099 -0.008873999
v 0.007415889 -0.01977347 -0.008887092
v 0.007318565 -0.002025651 -0.008887092
v -0.007383282 -0.01977347 -0.008887092
v -0.004692604 -0.0251194 -0.008887092
v 0.004725212 -0.0251194 -0.008887092
v -0.002284624 -0.0008860099 -0.008873999
v -0.00728596 -0.002025652 -0.008887092
v 0.002341587 0.002415199 -0.008860906
v -0.002308982 0.002415199 -0.008860906
v 0.01131915 -0.00202565 0.00395417
v 0.007318565 -0.002025651 0.008937895
v 0.006478617 -0.0008895385 0.006403146
v 0.00910208 -0.0008895385 6.953701E-05
v 0.01131915 -0.00202565 -0.00390337
v 0.006478611 -0.0008895385 -0.006264068
v 0.007318565 -0.002025651 -0.008887092
v 0.00231723 -0.0008860099 -0.008873999
v 0.002279685 -0.0008860099 0.008942046
v -0.01128654 -0.0199046 0.003954167
v -0.007412598 -0.0251194 0.006786792
v -0.009553737 -0.0251373 0.002901047
v -0.01128654 -0.0199046 0.003954167
v -0.01128654 -0.002025651 0.00395417
v -0.00728596 -0.002025652 0.008937895
v -0.007383282 -0.01977347 0.008937895
v -0.007383282 -0.01977347 0.008937895
v -0.004692604 -0.0251194 0.008937895
v -0.007412598 -0.0251194 0.006786792
v -0.01128654 -0.0199046 0.003954167
v -0.007383282 -0.01977347 0.008937895
v -0.007412598 -0.0251194 0.006786792
v -0.01128654 -0.0199046 -0.003903368
v -0.009553737 -0.0251373 -0.002850243
v -0.007412598 -0.0251194 -0.006735989
v -0.009553737 -0.0251373 -0.002850243
v -0.01128654 -0.0199046 -0.003903368
v -0.01128654 -0.0199046 0.003954167
v -0.009553737 -0.0251373 0.002901047
v -0.01128654 -0.0199046 -0.003903368
v -0.007383282 -0.01977347 -0.008887092
v -0.00728596 -0.002025652 -0.008887092
v -0.01128654 -0.002025651 -0.00390337
v -0.007383282 -0.01977347 -0.008887092
v -0.007412598 -0.0251194 -0.006735989
v -0.004692604 -0.0251194 -0.008887092
v -0.01128654 -0.0199046 -0.003903368
v -0.007412598 -0.0251194 -0.006735989
v -0.007383282 -0.01977347 -0.008887092
v -0.01128654 -0.002025651 -0.00390337
v -0.01128654 -0.002025651 0.00395417
v -0.01128654 -0.0199046 0.003954167
v -0.01128654 -0.0199046 -0.003903368
v -0.006446012 -0.0008895385 0.006403146
v -0.009069474 -0.0008895385 6.953701E-05
v -0.009069473 0.002415199 6.953701E-05
v -0.006446011 0.002415199 0.006403145
v -0.006446006 0.002415199 -0.006264067
v -0.006446006 -0.0008895385 -0.006264068
v -0.002284624 -0.0008860099 -0.008873999
v -0.002308982 0.002415199 -0.008860906
v -0.002233893 0.002415199 0.008946195
v -0.002247079 -0.0008860099 0.008942046
v 0.002341587 0.002415199 -0.008860906
v 0.002266498 0.002415199 0.008946195
v -0.002233893 0.002415199 0.008946195
v -0.002308982 0.002415199 -0.008860906
v 0.006478617 0.002415199 0.006403145
v 0.00647861 0.002415199 -0.006264067
v 0.009102078 0.002415199 6.953701E-05
v -0.006446006 0.002415199 -0.006264067
v -0.006446011 0.002415199 0.006403145
v -0.009069473 0.002415199 6.953701E-05
v -0.01128654 -0.002025651 0.00395417
v -0.009069474 -0.0008895385 6.953701E-05
v -0.006446012 -0.0008895385 0.006403146
v -0.00728596 -0.002025652 0.008937895
v -0.01128654 -0.002025651 -0.00390337
v -0.006446006 -0.0008895385 -0.006264068
v -0.00728596 -0.002025652 -0.008887092
v -0.002284624 -0.0008860099 -0.008873999
v -0.002247079 -0.0008860099 0.008942046
v 0.002279685 -0.0008860099 0.008942046
v 0.007318565 -0.002025651 0.008937895
v 0.007415889 -0.01977347 0.008937895
v -0.002247079 -0.0008860099 0.008942046
v 0.002266498 0.002415199 0.008946195
v -0.002233893 0.002415199 0.008946195
v -0.007383282 -0.01977347 0.008937895
v 0.004725212 -0.0251194 0.008937895
v -0.004692604 -0.0251194 0.008937895
v -0.00728596 -0.002025652 0.008937895
vt 0.1159087 0.4888783
vt 0.03025127 0.4788246
vt 0.02571906 0.5503039
vt 0.1102669 0.5834521
vt 0.3900676 0.5957669
vt 0.3946108 0.4918003
vt 0.01815164 0.6041577
vt 0.02827484 0.3862205
vt 0.1149089 0.3737065
vt 0.02353241 0.3131259
vt 0.1086 0.2787361
vt 0.3867812 0.2620354
vt 0.3925529 0.3638708
vt 0.01721042 0.2580017
vt 0.7763258 0.6561859
vt 0.8219715 0.5733506
vt 0.8219715 0.4507462
vt 0.7763258 0.3679111
vt 0.7183442 0.3220546
vt 0.7183442 0.7020424
vt 0.5175847 0.3220546
vt 0.5175847 0.7020424
vt 0.4596026 0.6561859
vt 0.4596026 0.3679111
vt 0.4139632 0.4507462
vt 0.4139632 0.5733506
vt 0.8452308 0.6742551
vt 0.8997063 0.6742558
vt 0.8997063 0.5612489
vt 0.8452308 0.5612489
vt 0.8997063 0.4482438
vt 0.8452308 0.4482426
vt 0.845292 0.3672707
vt 0.8997096 0.3677277
vt 0.8997039 0.755363
vt 0.8452865 0.7551403
vt 0.05980163 0.08826634
vt 0.3388633 0.014573
vt 0.07701964 0.014573
vt 0.3376662 0.2329061
vt 0.4167525 0.1936429
vt 0.4175147 0.05470126
vt 0.05942949 0.1561578
vt 0.07583813 0.2300345
vt 0.01110064 0.08764043
vt 0.01072445 0.1562506
vt 0.4409121 0.2256677
vt 0.5006746 0.306689
vt 0.5189624 0.2649281
vt 0.4797674 0.1642139
vt 0.440212 0.1018079
vt 0.5179042 0.06320249
vt 0.4991753 0.02029387
vt 0.5799657 0.01695446
vt 0.5819963 0.309756
vt 0.11707 0.7493676
vt 0.02132316 0.6903161
vt 0.02862828 0.7649845
vt 0.11707 0.7493676
vt 0.4015171 0.7306512
vt 0.3923885 0.6262988
vt 0.107472 0.6521208
vt 0.107472 0.6521208
vt 0.0129718 0.6338766
vt 0.02132316 0.6903161
vt 0.11707 0.7493676
vt 0.107472 0.6521208
vt 0.02132316 0.6903161
vt 0.121641 0.8675576
vt 0.03345642 0.8599176
vt 0.03102535 0.9333947
vt 0.03345642 0.8599176
vt 0.121641 0.8675576
vt 0.11707 0.7493676
vt 0.02862828 0.7649845
vt 0.121641 0.8675576
vt 0.1187884 0.9647707
vt 0.4061974 0.9686803
vt 0.4076141 0.8618835
vt 0.1187884 0.9647707
vt 0.03102535 0.9333947
vt 0.02494037 0.9888834
vt 0.121641 0.8675576
vt 0.03102535 0.9333947
vt 0.1187884 0.9647707
vt 0.4076141 0.8618835
vt 0.4015171 0.7306512
vt 0.11707 0.7493676
vt 0.121641 0.8675576
vt 0.9866995 0.9032966
vt 0.9866995 0.7902907
vt 0.9322242 0.7902907
vt 0.9322242 0.9032973
vt 0.9322242 0.6772848
vt 0.9866995 0.6772838
vt 0.9866382 0.596311
vt 0.9322208 0.596768
vt 0.9322263 0.9844042
vt 0.9866437 0.9841813
vt 0.7187588 0.02297208
vt 0.7199345 0.3018302
vt 0.7904103 0.3018302
vt 0.7915862 0.02297208
vt 0.6539731 0.2620061
vt 0.6539733 0.06363848
vt 0.6128898 0.1628224
vt 0.8563716 0.06363848
vt 0.8563718 0.2620061
vt 0.897455 0.1628224
vt 0.9850877 0.2550528
vt 0.9398546 0.183634
vt 0.8942316 0.3005535
vt 0.9155029 0.3491276
vt 0.985844 0.1110772
vt 0.8954869 0.06610833
vt 0.9172713 0.01619934
vt 0.8233687 0.01215855
vt 0.8208417 0.35253
vt 0.8366826 0.8218044
vt 0.8174413 0.738847
vt 0.5248793 0.738847
vt 0.8370916 0.896423
vt 0.8911002 0.8217234
vt 0.8915073 0.8959073
vt 0.526217 0.9827949
vt 0.4370008 0.7836831
vt 0.4378521 0.9389253
vt 0.8187613 0.9795864
vn 0.9357349 -0.1557115 0.3164714
vn 0.9126363 -0.3460169 0.2176404
vn 0.7171569 -0.301218 0.6284533
vn 0.7516615 -0.1390218 0.6447309
vn 0.7835638 0.00213981 0.6213078
vn 0.9443416 0.00113249 0.3289645
vn 0.5921203 -0.2980226 0.7487162
vn 0.9126357 -0.3460166 -0.2176432
vn 0.9357349 -0.1557115 -0.3164714
vn 0.7171569 -0.301218 -0.6284533
vn 0.7516615 -0.1390218 -0.6447309
vn 0.7835638 0.00213981 -0.6213078
vn 0.9443416 0.00113249 -0.3289645
vn 0.5921203 -0.2980226 -0.7487162
vn -0.008356686 -0.9999651 0
vn -0.008356487 -0.9999651 0
vn -0.008356487 -0.9999651 0
vn -0.008356686 -0.9999651 0
vn 0 -1 0
vn 0 -1 0
vn 0 -1 0
vn 0 -1 0
vn 0.008356686 -0.9999651 0
vn 0.008356686 -0.9999651 0
vn 0.008356487 -0.9999651 0
vn 0.008356487 -0.9999651 0
vn 0.7584128 0.0002622595 0.6517745
vn 0.7583635 0.000262261 0.6518319
vn 1 0 0
vn 1 0 0
vn 0.7638263 -0.0001430509 -0.6454219
vn 0.7638755 -0.0001430512 -0.6453635
vn 0.5314865 -0.0002861027 -0.8470667
vn 0.5314865 -0.0002861027 -0.8470667
vn 0.5171378 0.0005006809 0.8559021
vn 0.5171378 0.0005006809 0.8559021
vn -0.002621108 -1.19209E-05 -0.9999965
vn -0.002622598 0 -0.9999965
vn -0.002622598 -1.19209E-05 -0.9999965
vn 0.002622598 -2.38418E-05 -0.9999965
vn 0 0 -1
vn 0 0 -1
vn 0.002621108 -1.19209E-05 -0.9999965
vn 0.002622598 -1.19209E-05 -0.9999965
vn 0 0.003969666 -0.9999921
vn 0 0.003969666 -0.9999921
vn 0.3457661 0.9276199 0.1413046
vn 0.2570872 0.9283441 0.2684837
vn 0.2740933 0.9307551 0.242008
vn 0.3896425 0.9209656 0.001044574
vn 0.3420109 0.9291812 -0.140181
vn 0.2723979 0.9328678 -0.2357054
vn 0.2553044 0.9305887 -0.2623437
vn 0.2087734 0.920018 -0.331633
vn 0.2075637 0.9164903 0.3419985
vn -0.8160498 -0.3610622 0.4513278
vn -0.8160498 -0.3610622 0.4513278
vn -0.8160498 -0.3610622 0.4513278
vn -0.7835637 0.00214577 0.6213077
vn -0.7835638 0.00213981 0.6213078
vn -0.7835638 0.00213981 0.6213078
vn -0.7835638 0.00213385 0.6213078
vn -0.5921184 -0.2980232 0.7487176
vn -0.5921203 -0.2980226 0.7487162
vn -0.5921184 -0.2980232 0.7487176
vn -0.7615373 -0.2383365 0.6027078
vn -0.7615349 -0.2383458 0.6027071
vn -0.7615419 -0.2383242 0.6027068
vn -0.8160509 -0.3610627 -0.4513254
vn -0.8160498 -0.3610622 -0.4513278
vn -0.8160498 -0.3610622 -0.4513278
vn -0.9492984 -0.3143764 0
vn -0.9493049 -0.3143567 0
vn -0.9493049 -0.3143567 0
vn -0.9492984 -0.3143764 0
vn -0.7835637 0.00214577 -0.6213077
vn -0.7835638 0.00213385 -0.6213078
vn -0.7835638 0.00213981 -0.6213078
vn -0.7835638 0.00213981 -0.6213078
vn -0.5921184 -0.2980232 -0.7487176
vn -0.5921184 -0.2980232 -0.7487176
vn -0.5921203 -0.2980226 -0.7487162
vn -0.7615373 -0.2383365 -0.6027078
vn -0.7615392 -0.2383234 -0.6027106
vn -0.7615376 -0.2383467 -0.6027034
vn -1 0 0
vn -1 0 0
vn -1 0 0
vn -1 0 0
vn -0.7584128 0.0002622595 0.6517745
vn -1 0 0
vn -1 0 0
vn -0.7583635 0.000262261 0.6518319
vn -0.7638263 -0.0001430509 -0.6454219
vn -0.7638755 -0.0001430512 -0.6453635
vn -0.5314865 -0.0002861027 -0.8470667
vn -0.5314865 -0.0002861027 -0.8470667
vn -0.5171378 0.0005006809 0.8559021
vn -0.5171378 0.0005006809 0.8559021
vn 0 1 0
vn 0 1 0
vn 0 1 0
vn 0 1 0
vn 0 1 0
vn 0 1 0
vn 0 1 0
vn 0 1 0
vn 0 1 0
vn 0 1 0
vn -0.3457661 0.9276199 0.1413046
vn -0.3896425 0.9209656 0.001044574
vn -0.2740933 0.9307551 0.242008
vn -0.2570872 0.9283441 0.2684837
vn -0.3420109 0.9291812 -0.140181
vn -0.2723979 0.9328678 -0.2357054
vn -0.2553044 0.9305887 -0.2623437
vn -0.2087734 0.920018 -0.331633
vn -0.2075637 0.9164903 0.3419985
vn 0.0008255248 0 0.9999996
vn 0.0008225446 5.960468E-06 0.9999996
vn 0.0008225446 1.192094E-05 0.9999996
vn 0 -0.001251698 0.9999993
vn 0 -0.001251698 0.9999993
vn 0 -0.001251698 0.9999993
vn 0 0 1
vn 0 0 1
vn 0 0 1
vn -0.0008225446 5.960468E-06 0.9999996
g muzzle_glock_lone_wolf_compensator_9_9x19_LOD1_0
f 3/3/3 2/2/2 1/1/1
f 4/4/4 3/3/3 1/1/1
f 5/5/5 4/4/4 1/1/1
f 6/6/6 5/5/5 1/1/1
f 7/7/7 3/3/3 4/4/4
f 1/1/1 2/2/2 8/8/8
f 9/9/9 1/1/1 8/8/8
f 8/8/8 10/10/10 9/9/9
f 10/10/10 11/11/11 9/9/9
f 11/11/11 12/12/12 9/9/9
f 12/12/12 13/13/13 9/9/9
f 13/13/13 6/6/6 1/1/1
f 9/9/9 13/13/13 1/1/1
f 10/10/10 14/14/14 11/11/11
f 17/17/17 16/16/16 15/15/15
f 18/18/18 17/17/17 15/15/15
f 19/19/19 18/18/18 15/15/15
f 20/20/20 19/19/19 15/15/15
f 21/21/21 19/19/19 20/20/20
f 22/22/22 21/21/21 20/20/20
f 21/21/21 22/22/22 23/23/23
f 24/24/24 21/21/21 23/23/23
f 24/24/24 23/23/23 25/25/25
f 23/23/23 26/26/26 25/25/25
f 29/29/29 28/28/28 27/27/27
f 30/30/30 29/29/29 27/27/27
f 31/31/31 29/29/29 30/30/30
f 32/32/32 31/31/31 30/30/30
f 31/31/31 32/32/32 33/33/33
f 34/34/34 31/31/31 33/33/33
f 28/28/28 35/35/35 27/27/27
f 35/35/35 36/36/36 27/27/27
f 39/39/39 38/38/38 37/37/37
f 37/37/37 38/38/38 40/40/40
f 40/40/40 38/38/38 41/41/41
f 38/38/38 42/42/42 41/41/41
f 43/43/43 37/37/37 40/40/40
f 40/40/40 44/44/44 43/43/43
f 45/45/45 37/37/37 43/43/43
f 46/46/46 45/45/45 43/43/43
f 49/49/49 48/48/48 47/47/47
f 50/50/50 49/49/49 47/47/47
f 51/51/51 50/50/50 47/47/47
f 52/52/52 50/50/50 51/51/51
f 53/53/53 52/52/52 51/51/51
f 54/54/54 52/52/52 53/53/53
f 55/55/55 48/48/48 49/49/49
f 58/58/58 57/57/57 56/56/56
f 61/61/61 60/60/60 59/59/59
f 62/62/62 61/61/61 59/59/59
f 65/65/65 64/64/64 63/63/63
f 68/68/68 67/67/67 66/66/66
f 71/71/71 70/70/70 69/69/69
f 74/74/74 73/73/73 72/72/72
f 75/75/75 74/74/74 72/72/72
f 78/78/78 77/77/77 76/76/76
f 79/79/79 78/78/78 76/76/76
f 82/82/82 81/81/81 80/80/80
f 85/85/85 84/84/84 83/83/83
f 88/88/88 87/87/87 86/86/86
f 89/89/89 88/88/88 86/86/86
f 92/92/92 91/91/91 90/90/90
f 93/93/93 92/92/92 90/90/90
f 92/92/92 94/94/94 91/91/91
f 94/94/94 95/95/95 91/91/91
f 96/96/96 95/95/95 94/94/94
f 97/97/97 96/96/96 94/94/94
f 93/93/93 90/90/90 98/98/98
f 90/90/90 99/99/99 98/98/98
f 102/102/102 101/101/101 100/100/100
f 103/103/103 102/102/102 100/100/100
f 100/100/100 101/101/101 104/104/104
f 105/105/105 100/100/100 104/104/104
f 106/106/106 105/105/105 104/104/104
f 102/102/102 103/103/103 107/107/107
f 108/108/108 102/102/102 107/107/107
f 109/109/109 108/108/108 107/107/107
f 112/112/112 111/111/111 110/110/110
f 113/113/113 112/112/112 110/110/110
f 111/111/111 114/114/114 110/110/110
f 111/111/111 115/115/115 114/114/114
f 115/115/115 116/116/116 114/114/114
f 115/115/115 117/117/117 116/116/116
f 113/113/113 118/118/118 112/112/112
f 121/121/121 120/120/120 119/119/119
f 121/121/121 119/119/119 122/122/122
f 122/122/122 119/119/119 123/123/123
f 124/124/124 122/122/122 123/123/123
f 125/125/125 121/121/121 122/122/122
f 126/126/126 121/121/121 125/125/125
f 127/127/127 126/126/126 125/125/125
f 128/128/128 125/125/125 122/122/122
