g muzzle_ak_molot_vpo_209_366TKM_LOD1
v 0.008706635 2.662539E-05 -3.2077E-05
v 0.008706635 -0.01518833 -3.207642E-05
v 0.006163402 -0.01518834 0.006107852
v 0.006163403 2.66242E-05 0.006107853
v 2.351962E-05 -0.01518834 0.008651081
v 2.351917E-05 2.66242E-05 0.008651081
v -0.006116416 -0.01518834 0.006107852
v -0.006116416 2.66242E-05 0.00610785
v -0.008659649 -0.01518833 -3.207566E-05
v -0.008659649 2.662539E-05 -3.207568E-05
v -0.006116416 -0.01518833 -0.006171968
v -0.006116416 2.662659E-05 -0.006171974
v 2.351962E-05 -0.01518833 -0.0087152
v 2.352793E-05 2.662659E-05 -0.008715199
v 0.006163402 2.662659E-05 -0.006171975
v 0.006163402 -0.01518833 -0.006171968
v 2.352793E-05 2.662659E-05 -0.008715199
v 2.351962E-05 -0.01518833 -0.0087152
v -0.006116416 2.66242E-05 0.00610785
v -0.008659649 2.662539E-05 -3.207568E-05
v -0.006116416 2.662659E-05 -0.006171974
v 2.352793E-05 2.662659E-05 -0.008715199
v 2.351917E-05 2.66242E-05 0.008651081
v 0.006163402 -0.01518833 -0.006171968
v 0.006163402 -0.01518834 0.006107852
v 0.008706635 -0.01518833 -3.207642E-05
v 2.351962E-05 -0.01518834 0.008651081
v 2.351962E-05 -0.01518833 -0.0087152
v 2.352793E-05 2.662659E-05 -0.008715199
v 0.006163402 2.662659E-05 -0.006171975
v 0.006163403 2.66242E-05 0.006107853
v 2.351917E-05 2.66242E-05 0.008651081
v 0.008706635 2.662539E-05 -3.2077E-05
v 2.351962E-05 -0.01518833 -0.0087152
v -0.006116416 -0.01518833 -0.006171968
v -0.006116416 -0.01518834 0.006107852
v 2.351962E-05 -0.01518834 0.008651081
v -0.008659649 -0.01518833 -3.207566E-05
vt 0.2517651 0.003906369
vt 0.2517124 0.624589
vt 0.3755981 0.6245891
vt 0.3757038 0.003906488
vt 0.4994991 0.6245879
vt 0.4996222 0.0039078
vt 0.6233979 0.6245866
vt 0.623522 0.003909051
vt 0.7473296 0.6245866
vt 0.7474146 0.003909022
vt 0.8712709 0.6245866
vt 0.8713089 0.003909051
vt 0.9952341 0.6245866
vt 0.9952343 0.003909055
vt 0.1278308 0.00390625
vt 0.1278093 0.6245888
vt 0.00390625 0.00390625
vt 0.003906131 0.6245888
vt 0.7109498 0.7641239
vt 0.6041685 0.671791
vt 0.4973858 0.7641236
vt 0.4531561 0.9870343
vt 0.7551807 0.987034
vt 0.4720897 0.8441244
vt 0.273993 0.8441242
vt 0.3730415 0.9297689
vt 0.232966 0.6373597
vt 0.5131166 0.6373599
vt 0.6943242 0.6373599
vt 0.7385548 0.8602687
vt 0.9521182 0.8602684
vt 0.9963487 0.6373598
vt 0.845337 0.9525995
vt 0.2836568 0.9345997
vt 0.2426297 0.7278336
vt 0.04453349 0.7278331
vt 0.003506482 0.9345992
vt 0.1435818 0.6421885
vn 1 0 -1.088405E-06
vn 1 0 -9.857256E-07
vn 0.7071076 0 0.7071059
vn 0.7071075 0 0.7071059
vn 1.396445E-06 0 1
vn 1.375909E-06 0 1
vn -0.7071064 0 0.7071071
vn -0.7071065 0 0.707107
vn -1 0 -8.41974E-07
vn -1 0 -9.446538E-07
vn -0.7071058 0 -0.7071077
vn -0.7071056 0 -0.7071079
vn 1.560732E-06 -1.754613E-07 -1
vn 1.827699E-06 -1.754614E-07 -1
vn 0.7071068 -2.083604E-07 -0.7071066
vn 0.7071069 -2.083604E-07 -0.7071066
vn 1.827699E-06 -1.754614E-07 -1
vn 1.560732E-06 -1.754613E-07 -1
vn 0 1 1.663951E-07
vn 0 1 1.941548E-07
vn 0 1 1.663951E-07
vn 0 1 1.608431E-07
vn 0 1 1.608431E-07
vn 0 -1 -1.663951E-07
vn 0 -1 -1.66395E-07
vn 0 -1 -1.941548E-07
vn 0 -1 -1.608431E-07
vn 0 -1 -1.608431E-07
vn 0 1 1.608431E-07
vn 0 1 1.66395E-07
vn 0 1 1.66395E-07
vn 0 1 1.608431E-07
vn 0 1 1.941547E-07
vn 0 -1 -1.608431E-07
vn 0 -1 -1.663951E-07
vn 0 -1 -1.663951E-07
vn 0 -1 -1.608431E-07
vn 0 -1 -1.941548E-07
g muzzle_ak_molot_vpo_209_366TKM_LOD1_0
f 3/3/3 2/2/2 1/1/1
f 4/4/4 3/3/3 1/1/1
f 5/5/5 3/3/3 4/4/4
f 6/6/6 5/5/5 4/4/4
f 7/7/7 5/5/5 6/6/6
f 8/8/8 7/7/7 6/6/6
f 9/9/9 7/7/7 8/8/8
f 10/10/10 9/9/9 8/8/8
f 11/11/11 9/9/9 10/10/10
f 12/12/12 11/11/11 10/10/10
f 13/13/13 11/11/11 12/12/12
f 14/14/14 13/13/13 12/12/12
f 1/1/1 2/2/2 15/15/15
f 2/2/2 16/16/16 15/15/15
f 15/15/15 16/16/16 17/17/17
f 16/16/16 18/18/18 17/17/17
f 21/21/21 20/20/20 19/19/19
f 21/21/21 19/19/19 22/22/22
f 19/19/19 23/23/23 22/22/22
f 26/26/26 25/25/25 24/24/24
f 25/25/25 27/27/27 24/24/24
f 27/27/27 28/28/28 24/24/24
f 31/31/31 30/30/30 29/29/29
f 32/32/32 31/31/31 29/29/29
f 31/31/31 33/33/33 30/30/30
f 36/36/36 35/35/35 34/34/34
f 37/37/37 36/36/36 34/34/34
f 36/36/36 38/38/38 35/35/35
