g muzzle_ar10_odin_works_atlas_7_muzzle_brake_762x51_LOD1
v 0.01192884 -0.0006169224 0.0001474787
v 0.01192884 -0.07716463 0.0001474693
v 0.008436528 -0.07716464 0.008578647
v 0.008436531 -0.0006169224 0.008578657
v 0.008436539 -0.0006169224 -0.008283704
v 0.008436536 -0.07716463 -0.008283713
v 5.362055E-06 -0.0006169224 -0.01177601
v 5.35897E-06 -0.07716463 -0.01177603
v -0.008425817 -0.0006169224 -0.008283711
v -0.008425821 -0.07716463 -0.008283721
v -0.01191813 -0.0006169224 0.0001474663
v -0.01191813 -0.07716463 0.0001474569
v -0.008425827 -0.0006169224 0.008578649
v -0.008425831 -0.07716464 0.008578639
v 5.350021E-06 -0.0006169224 0.01207096
v 5.346935E-06 -0.07716464 0.01207095
v 0.008436531 -0.0006169224 0.008578657
v 0.008436528 -0.07716464 0.008578647
v -0.008425817 -0.0006169224 -0.008283711
v 5.362055E-06 -0.0006169224 -0.01177601
v 0.008436539 -0.0006169224 -0.008283704
v -0.01191813 -0.0006169224 0.0001474663
v 0.01192884 -0.0006169224 0.0001474787
v 0.008436536 -0.07716463 -0.008283713
v 5.35897E-06 -0.07716463 -0.01177603
v -0.008425821 -0.07716463 -0.008283721
v -0.01191813 -0.07716463 0.0001474569
v 0.01192884 -0.07716463 0.0001474693
v -0.008425827 -0.0006169224 0.008578649
v -0.01191813 -0.0006169224 0.0001474663
v 0.01192884 -0.0006169224 0.0001474787
v 0.008436531 -0.0006169224 0.008578657
v 5.350021E-06 -0.0006169224 0.01207096
v 0.01192884 -0.07716463 0.0001474693
v -0.01191813 -0.07716463 0.0001474569
v -0.008425831 -0.07716464 0.008578639
v 0.008436528 -0.07716464 0.008578647
v 5.346935E-06 -0.07716464 0.01207095
vt 0.8534418 0.01237553
vt 0.8534418 0.8024384
vt 0.9728478 0.8024384
vt 0.9728478 0.01237553
vt 0.7340358 0.01237553
vt 0.7340358 0.8024384
vt 0.6146299 0.01237553
vt 0.6146299 0.8024384
vt 0.4952241 0.01237553
vt 0.4952241 0.8024384
vt 0.3758183 0.01237553
vt 0.3758183 0.8024384
vt 0.2564125 0.01237553
vt 0.2564123 0.8024384
vt 0.1370065 0.01237553
vt 0.1370065 0.8024384
vt 0.01760066 0.01237553
vt 0.01760066 0.8024384
vt 0.06543899 0.9160461
vt 0.1557662 0.9510393
vt 0.2460935 0.9160461
vt 0.02802417 0.831565
vt 0.2835084 0.831565
vt 0.9263417 0.883519
vt 0.8360143 0.8485258
vt 0.7456871 0.883519
vt 0.7082722 0.9680001
vt 0.9637565 0.9680001
vt 0.2891126 0.8670294
vt 0.2516977 0.9515105
vt 0.5071819 0.9515105
vt 0.4697671 0.8670294
vt 0.3794398 0.8320361
vt 0.7386199 0.8431424
vt 0.4831358 0.8431424
vt 0.5205505 0.9276235
vt 0.7012052 0.9276235
vt 0.6108779 0.9626167
vn 1 0 4.51791E-07
vn 1 0 4.723269E-07
vn 0.7071064 -1.18041E-07 0.7071072
vn 0.7071064 -1.18041E-07 0.7071071
vn 0.7071071 0 -0.7071064
vn 0.707107 0 -0.7071065
vn 4.517909E-07 1.316056E-07 -1
vn 4.51791E-07 1.316056E-07 -1
vn -0.7071064 1.168866E-07 -0.7071072
vn -0.7071064 1.168866E-07 -0.7071072
vn -1 0 -5.339347E-07
vn -1 0 -5.133988E-07
vn -0.7071071 0 0.7071064
vn -0.7071071 0 0.7071064
vn -5.133989E-07 -1.318942E-07 1
vn -5.133988E-07 -1.318942E-07 1
vn 0.7071064 -1.18041E-07 0.7071071
vn 0.7071064 -1.18041E-07 0.7071072
vn 0 1 0
vn 0 1 0
vn 0 1 0
vn 0 1 0
vn 0 1 0
vn 0 -1 0
vn 0 -1 0
vn 0 -1 0
vn 0 -1 -2.413695E-07
vn 0 -1 -2.413695E-07
vn 0 1 0
vn 0 1 0
vn 0 1 0
vn 0 1 0
vn 0 1 0
vn 0 -1 -2.413695E-07
vn 0 -1 -2.413695E-07
vn 0 -1 -4.82739E-07
vn 0 -1 -4.82739E-07
vn 0 -1 -4.82739E-07
g muzzle_ar10_odin_works_atlas_7_muzzle_brake_762x51_LOD1_0
f 3/3/3 2/2/2 1/1/1
f 4/4/4 3/3/3 1/1/1
f 1/1/1 2/2/2 5/5/5
f 2/2/2 6/6/6 5/5/5
f 5/5/5 6/6/6 7/7/7
f 6/6/6 8/8/8 7/7/7
f 7/7/7 8/8/8 9/9/9
f 8/8/8 10/10/10 9/9/9
f 9/9/9 10/10/10 11/11/11
f 10/10/10 12/12/12 11/11/11
f 11/11/11 12/12/12 13/13/13
f 12/12/12 14/14/14 13/13/13
f 13/13/13 14/14/14 15/15/15
f 14/14/14 16/16/16 15/15/15
f 15/15/15 16/16/16 17/17/17
f 16/16/16 18/18/18 17/17/17
f 21/21/21 20/20/20 19/19/19
f 19/19/19 22/22/22 21/21/21
f 22/22/22 23/23/23 21/21/21
f 26/26/26 25/25/25 24/24/24
f 24/24/24 27/27/27 26/26/26
f 24/24/24 28/28/28 27/27/27
f 31/31/31 30/30/30 29/29/29
f 29/29/29 32/32/32 31/31/31
f 29/29/29 33/33/33 32/32/32
f 36/36/36 35/35/35 34/34/34
f 34/34/34 37/37/37 36/36/36
f 37/37/37 38/38/38 36/36/36
