g muzzle_ak_tactica_tula_ak_adapter_762x39_LOD1
v 0.00806376 0 0.008076584
v -0.01140395 0 1.278907E-05
v 0.01140385 0 1.278907E-05
v -0.00806382 0 -0.008050996
v -3.315508E-08 0 -0.01139109
v 0.00806376 0 -0.008050996
v -3.315508E-08 0 0.01141671
v -0.00806382 0 0.008076584
v -3.315508E-08 -0.011068 0.01296051
v -3.315508E-08 0 0.01141671
v 0.00915538 -0.011068 0.009168194
v 0.00806376 0 0.008076584
v 0.01294765 -0.011068 1.278907E-05
v 0.01140385 0 1.278907E-05
v 0.00915538 -0.011068 -0.009142616
v 0.00806376 0 -0.008050996
v -3.315508E-08 -0.011068 -0.01293489
v -3.315508E-08 0 -0.01139109
v 0.01295525 -0.02421799 1.278907E-05
v 0.01294765 -0.011068 1.278907E-05
v 0.009160719 -0.02421799 -0.009147956
v 0.00915538 -0.011068 -0.009142616
v 0.00915538 -0.011068 0.009168194
v 0.009160719 -0.02421799 0.009173544
v -3.315508E-08 -0.011068 0.01296051
v -3.315508E-08 -0.02421799 0.01296801
v -3.315508E-08 -0.02421799 -0.01294249
v -3.315508E-08 -0.011068 -0.01293489
v -0.01295525 -0.02421799 1.278907E-05
v -0.00916078 -0.02421799 0.009173544
v 0.009160719 -0.02421799 -0.009147956
v 0.01295525 -0.02421799 1.278907E-05
v -3.315508E-08 -0.02421799 0.01296801
v 0.009160719 -0.02421799 0.009173544
v -3.315508E-08 -0.02421799 -0.01294249
v -0.00916078 -0.02421799 -0.009147956
v -0.00916078 -0.02421799 0.009173544
v -0.00915543 -0.011068 0.009168194
v -3.315508E-08 -0.02421799 0.01296801
v -3.315508E-08 -0.011068 0.01296051
v -0.01294775 -0.011068 1.278907E-05
v -0.01295525 -0.02421799 1.278907E-05
v -0.00915543 -0.011068 -0.009142616
v -0.00916078 -0.02421799 -0.009147956
v -3.315508E-08 -0.011068 -0.01293489
v -3.315508E-08 -0.02421799 -0.01294249
v -0.00915543 -0.011068 -0.009142616
v -0.00806382 0 -0.008050996
v -0.01294775 -0.011068 1.278907E-05
v -0.01140395 0 1.278907E-05
v -3.315508E-08 0 -0.01139109
v -3.315508E-08 -0.011068 -0.01293489
v -0.00915543 -0.011068 0.009168194
v -0.00806382 0 0.008076584
v -3.315508E-08 -0.011068 0.01296051
v -3.315508E-08 0 0.01141671
v -0.0002948332 -0.008087005 0.01121581
v -0.0002596832 -0.00428299 0.01121581
v -2.755716E-05 -0.008087005 0.01540191
v -2.755716E-05 -0.00428299 0.01540191
v 0.0002596248 -0.00428299 0.01121581
v 0.0002947748 -0.008087005 0.01121581
vt 0.871799 0.86151
vt 0.596818 0.600952
vt 0.757899 0.969437
vt 0.482917 0.708879
vt 0.482917 0.861511
vt 0.596818 0.969437
vt 0.871799 0.708879
vt 0.757898 0.600952
vt 0.543414 0.577338
vt 0.738075 0.577338
vt 0.543414 0.441754
vt 0.738075 0.441754
vt 0.543414 0.306169
vt 0.738075 0.306169
vt 0.543414 0.170585
vt 0.738075 0.170585
vt 0.543414 0.035
vt 0.738075 0.035
vt 0.255776 0.323171
vt 0.035 0.323171
vt 0.255776 0.467256
vt 0.035 0.467256
vt 0.035 0.179085
vt 0.255776 0.179085
vt 0.035 0.035
vt 0.255776 0.035
vt 0.255776 0.611342
vt 0.035 0.611342
vt 0.455433 0.729812
vt 0.332291 0.632394
vt 0.158142 0.965
vt 0.035 0.867582
vt 0.158142 0.632394
vt 0.035 0.729812
vt 0.332291 0.965
vt 0.455433 0.867582
vt 0.509983 0.467256
vt 0.289207 0.467256
vt 0.509983 0.611341
vt 0.289207 0.611341
vt 0.289207 0.323171
vt 0.509983 0.323171
vt 0.289207 0.179085
vt 0.509983 0.179085
vt 0.289207 0.035
vt 0.509983 0.035
vt 0.77341 0.441754
vt 0.968072 0.441754
vt 0.77341 0.306169
vt 0.968072 0.306169
vt 0.968072 0.577338
vt 0.77341 0.577338
vt 0.77341 0.170585
vt 0.968072 0.170585
vt 0.77341 0.035
vt 0.968072 0.035
vt 0.973973 0.685321
vt 0.900542 0.685321
vt 0.973973 0.755449
vt 0.900542 0.755449
vt 0.900542 0.825576
vt 0.973973 0.825576
vn 0 1 0
vn 0 1 0
vn 0 1 0
vn 0 1 0
vn 0 1 0
vn 0 1 0
vn 0 1 0
vn 0 1 0
vn 0.379547 0.1278087 0.9163018
vn 0.3795458 0.1278076 0.9163024
vn 0.7003283 0.1381443 0.7003259
vn 0.7003282 0.1381444 0.7003261
vn 0.9904119 0.1381452 -4.66879E-07
vn 0.9904119 0.1381453 -6.844523E-07
vn 0.7003273 0.1381449 -0.7003268
vn 0.7003272 0.1381449 -0.7003269
vn 0.379542 0.1278081 -0.916304
vn 0.3795409 0.127809 -0.9163043
vn 0.9999999 0.0005769421 -9.807304E-07
vn 0.9999999 0.0005768479 -9.034542E-07
vn 0.7071072 0.0005753555 -0.7071061
vn 0.7071072 0.0005753559 -0.7071061
vn 0.7071077 0.0005758067 0.7071056
vn 0.7071054 0.0005734322 0.7071078
vn 0.3826832 0.0005294774 0.9238794
vn 0.38268 0.0005268906 0.9238808
vn 0.3826835 0.0005319511 -0.9238793
vn 0.3826811 0.0005339255 -0.9238803
vn 0 -1 0
vn 0 -1 0
vn 0 -1 0
vn 0 -1 0
vn 0 -1 0
vn 0 -1 0
vn 0 -1 0
vn 0 -1 0
vn -0.7071058 0.0005739098 0.7071075
vn -0.7071058 0.0005738827 0.7071074
vn -0.3826826 0.0005296505 0.9238797
vn -0.3826859 0.0005268891 0.9238783
vn -0.9999999 0.0005718598 -1.242253E-06
vn -0.9999999 0.0005717654 -1.335021E-06
vn -0.7071059 0.0005734584 -0.7071074
vn -0.7071081 0.0005758064 -0.7071052
vn -0.3826833 0.0005321245 -0.9238794
vn -0.3826855 0.0005339246 -0.9238786
vn -0.7003252 0.1381443 -0.700329
vn -0.7003253 0.1381444 -0.7003289
vn -0.9904119 0.1381452 4.668801E-07
vn -0.9904121 0.1381451 4.761415E-07
vn -0.3795422 0.1278079 -0.916304
vn -0.3795433 0.1278089 -0.9163033
vn -0.7003277 0.1381438 0.7003266
vn -0.7003278 0.1381439 0.7003266
vn -0.3795466 0.1278075 0.9163021
vn -0.379545 0.1278088 0.9163026
vn -0.9979255 0.009221059 0.06371601
vn -0.9981983 0.004897126 0.05980187
vn -0.006531445 0.0655335 0.997829
vn -0.006550629 0 0.9999785
vn 0.9973295 0.004895316 0.072869
vn 0.9970062 0.009212566 0.07677003
g muzzle_ak_tactica_tula_ak_adapter_762x39_LOD1_0
f 3/3/3 2/2/2 1/1/1
f 2/2/2 3/3/3 4/4/4
f 3/3/3 5/5/5 4/4/4
f 5/5/5 3/3/3 6/6/6
f 2/2/2 7/7/7 1/1/1
f 7/7/7 2/2/2 8/8/8
f 11/11/11 10/10/10 9/9/9
f 10/10/10 11/11/11 12/12/12
f 13/13/13 12/12/12 11/11/11
f 12/12/12 13/13/13 14/14/14
f 15/15/15 14/14/14 13/13/13
f 14/14/14 15/15/15 16/16/16
f 17/17/17 16/16/16 15/15/15
f 16/16/16 17/17/17 18/18/18
f 21/21/21 20/20/20 19/19/19
f 20/20/20 21/21/21 22/22/22
f 23/23/23 19/19/19 20/20/20
f 19/19/19 23/23/23 24/24/24
f 25/25/25 24/24/24 23/23/23
f 24/24/24 25/25/25 26/26/26
f 27/27/27 22/22/22 21/21/21
f 22/22/22 27/27/27 28/28/28
f 31/31/31 30/30/30 29/29/29
f 30/30/30 31/31/31 32/32/32
f 32/32/32 33/33/33 30/30/30
f 33/33/33 32/32/32 34/34/34
f 29/29/29 35/35/35 31/31/31
f 35/35/35 29/29/29 36/36/36
f 39/39/39 38/38/38 37/37/37
f 38/38/38 39/39/39 40/40/40
f 41/41/41 37/37/37 38/38/38
f 37/37/37 41/41/41 42/42/42
f 43/43/43 42/42/42 41/41/41
f 42/42/42 43/43/43 44/44/44
f 45/45/45 44/44/44 43/43/43
f 44/44/44 45/45/45 46/46/46
f 49/49/49 48/48/48 47/47/47
f 48/48/48 49/49/49 50/50/50
f 51/51/51 47/47/47 48/48/48
f 47/47/47 51/51/51 52/52/52
f 53/53/53 50/50/50 49/49/49
f 50/50/50 53/53/53 54/54/54
f 55/55/55 54/54/54 53/53/53
f 54/54/54 55/55/55 56/56/56
f 59/59/59 58/58/58 57/57/57
f 58/58/58 59/59/59 60/60/60
f 59/59/59 61/61/61 60/60/60
f 61/61/61 59/59/59 62/62/62
