g muzzle_ak_izhmash_akm_std_762x39_LOD1
v 0.003022422 -0.01639549 0.007579109
v 5.676024E-05 -0.0160495 0.008807529
v 5.676024E-05 -4.447937E-05 0.009116059
v 0.006508202 -4.447937E-05 0.006443779
v 0.006290042 -0.02088947 0.006225619
v 0.009180482 -4.447937E-05 -7.664636E-06
v 0.008394272 -0.0314315 0.001145559
v 0.006290042 -0.0314315 -0.006240941
v 0.006508202 -4.447937E-05 -0.00645911
v 5.676024E-05 -0.0314315 -0.00882285
v 5.676024E-05 -4.447937E-05 -0.00913138
v -0.006394678 -4.447937E-05 0.006443779
v -0.006176517 -0.01620647 0.006225619
v -0.009066958 -4.447937E-05 -7.664636E-06
v -0.008758428 -0.01625248 -7.664636E-06
v -0.006394678 -4.447937E-05 -0.00645911
v -0.006176517 -0.02671749 -0.006240941
v 5.676024E-05 -4.447937E-05 -0.00913138
v 5.676024E-05 -0.0314315 -0.00882285
v -0.003669368 -0.0314315 -0.007279441
v -0.006176517 -0.02671749 -0.006240941
v -0.008758428 -0.01625248 -7.664636E-06
v 0.006290042 -0.02088947 0.006225619
v 0.003022422 -0.01639549 0.007579109
v 0.008394272 -0.0314315 0.001145559
v -0.003669368 -0.0314315 -0.007279441
v -0.006176517 -0.01620647 0.006225619
v 5.676024E-05 -0.0160495 0.008807529
v 0.006508202 -4.447937E-05 0.006443779
v -0.009066958 -4.447937E-05 -7.664636E-06
v 0.009180482 -4.447937E-05 -7.664636E-06
v -0.006394678 -4.447937E-05 -0.00645911
v 5.676024E-05 -4.447937E-05 -0.00913138
v 0.006508202 -4.447937E-05 -0.00645911
v 5.676024E-05 -4.447937E-05 0.009116059
v -0.006394678 -4.447937E-05 0.006443779
v 0.008394272 -0.0314315 0.001145559
v 0.006290042 -0.0314315 -0.006240941
v -0.003669368 -0.0314315 -0.007279441
v 5.676024E-05 -0.0314315 -0.00882285
vt 0.353595 0.551974
vt 0.353595 0.500459
vt 0.0658872 0.500459
vt 0.0658872 0.610598
vt 0.46625 0.610598
vt 0.0658872 0.709359
vt 0.637656 0.709359
vt 0.637656 0.827244
vt 0.0658872 0.827244
vt 0.637656 0.937585
vt 0.0658872 0.937585
vt 0.0658872 0.39002
vt 0.353595 0.39002
vt 0.0658872 0.279603
vt 0.353595 0.279603
vt 0.0658872 0.172233
vt 0.551688 0.172233
vt 0.0658872 0.0635855
vt 0.637656 0.0635855
vt 0.637656 0.140638
vt 0.681827 0.190887
vt 0.681827 0.476345
vt 0.938612 0.343026
vt 0.938612 0.467416
vt 0.938612 0.0699713
vt 0.681827 0.0699713
vt 0.785996 0.561498
vt 0.894289 0.561498
vt 0.385759 0.461711
vt 0.654009 0.461711
vt 0.385759 0.363381
vt 0.654009 0.363382
vt 0.57544 0.293852
vt 0.464328 0.293852
vt 0.464328 0.531241
vt 0.57544 0.531241
vt 0.75437 0.926398
vt 0.907013 0.926398
vt 0.75437 0.619172
vt 0.907013 0.619172
vn 0.372925 -0.01534771 0.9277345
vn 0.009753229 -0.01920248 0.9997681
vn -0.0001177221 -0.0190949 0.9998177
vn 0.7061816 -0.01655515 0.7078371
vn 0.8484989 -0.01044821 0.529094
vn 0.9999038 -0.01381479 0.001291515
vn 0.9937043 -0.02886857 -0.1082518
vn 0.7411636 -0.02200318 -0.6709638
vn 0.7070722 -0.009829374 -0.707073
vn -0.001944758 -0.007924168 -0.9999667
vn -0.0004985866 -0.01056058 -0.9999441
vn -0.7069405 -0.01915594 0.7070136
vn -0.7096035 -0.01906506 0.7043433
vn -0.9998185 -0.01905236 1.493699E-05
vn -0.9957397 -0.01497223 -0.09098504
vn -0.708495 -0.01435774 -0.7055699
vn -0.5080347 -0.008619528 -0.8612936
vn -0.0004985866 -0.01056058 -0.9999441
vn -0.001944758 -0.007924168 -0.9999667
vn -0.3826828 1.293216E-06 -0.9238798
vn -0.4935603 -0.4806138 0.7248508
vn -0.3761204 -0.7267299 0.5748017
vn -0.4825989 -0.505559 0.7151981
vn -0.347646 -0.7597113 0.5495278
vn -0.5153213 -0.4501802 0.7292336
vn -0.5151486 -0.4364834 0.7376342
vn -0.02539285 -0.9991311 0.03305037
vn -0.04503956 -0.984655 0.1686001
vn 0 1 0
vn 0 1 0
vn 0 1 0
vn 0 1 0
vn 0 1 0
vn 0 1 0
vn 0 1 0
vn 0 1 0
vn 0 -1 0
vn 0 -1 0
vn 0 -1 0
vn 0 -1 0
g muzzle_ak_izhmash_akm_std_762x39_LOD1_0
f 3/3/3 2/2/2 1/1/1
f 3/3/3 1/1/1 4/4/4
f 1/1/1 5/5/5 4/4/4
f 5/5/5 6/6/6 4/4/4
f 6/6/6 5/5/5 7/7/7
f 8/8/8 6/6/6 7/7/7
f 6/6/6 8/8/8 9/9/9
f 10/10/10 9/9/9 8/8/8
f 9/9/9 10/10/10 11/11/11
f 12/12/12 2/2/2 3/3/3
f 2/2/2 12/12/12 13/13/13
f 14/14/14 13/13/13 12/12/12
f 13/13/13 14/14/14 15/15/15
f 16/16/16 15/15/15 14/14/14
f 15/15/15 16/16/16 17/17/17
f 16/16/16 18/18/18 17/17/17
f 19/19/19 17/17/17 18/18/18
f 17/17/17 19/19/19 20/20/20
f 23/23/23 22/22/22 21/21/21
f 22/22/22 23/23/23 24/24/24
f 21/21/21 25/25/25 23/23/23
f 25/25/25 21/21/21 26/26/26
f 24/24/24 27/27/27 22/22/22
f 27/27/27 24/24/24 28/28/28
f 31/31/31 30/30/30 29/29/29
f 30/30/30 31/31/31 32/32/32
f 31/31/31 33/33/33 32/32/32
f 33/33/33 31/31/31 34/34/34
f 30/30/30 35/35/35 29/29/29
f 35/35/35 30/30/30 36/36/36
f 39/39/39 38/38/38 37/37/37
f 38/38/38 39/39/39 40/40/40
