g muzzle_saiga12_css_monster_caw_large_12g_LOD1
v 0.01852518 -2.442144E-08 -0.1248513
v 0.01852517 0 0.005351644
v 0.009262585 0.01604327 0.005351644
v 0.009262595 0.01604325 -0.1248513
v 0.009262595 0.01604325 -0.1248513
v 0.009262585 0.01604327 0.005351644
v -0.009262587 0.01604327 0.005351644
v -0.009262577 0.01604325 -0.1248513
v -0.009262577 0.01604325 -0.1248513
v -0.009262587 0.01604327 0.005351644
v -0.01852517 -1.619522E-09 0.005351644
v -0.01852516 -2.442144E-08 -0.1248513
v -0.01852516 -2.442144E-08 -0.1248513
v -0.01852517 -1.619522E-09 0.005351644
v -0.009262585 -0.01604327 0.005351644
v -0.009262575 -0.01604329 -0.1248513
v -0.009262575 -0.01604329 -0.1248513
v -0.009262585 -0.01604327 0.005351644
v 0.009262585 -0.01604327 0.005351644
v 0.009262594 -0.01604329 -0.1248513
v 0.009262594 -0.01604329 -0.1248513
v 0.009262585 -0.01604327 0.005351644
v 0.01852517 0 0.005351644
v 0.01852518 -2.442144E-08 -0.1248513
v -0.009262587 0.01604327 0.005351644
v 0.01852517 0 0.005351644
v 0.009262585 -0.01604327 0.005351644
v -0.01852517 -1.619522E-09 0.005351644
v -0.009262585 -0.01604327 0.005351644
v 0.009262585 0.01604327 0.005351644
v -0.003699928 0.01384635 -0.1248902
v -0.003699928 0.01384634 -0.146878
v 0.007208033 0.0124662 -0.146878
v 0.00720803 0.01246621 -0.1248902
v 0.01394522 0.003777203 -0.146878
v 0.01394522 0.003777206 -0.1248902
v 0.01256508 -0.007130756 -0.146878
v 0.01256507 -0.00713075 -0.1248902
v 0.003876077 -0.01386794 -0.146878
v 0.003876077 -0.01386794 -0.1248902
v -0.007031885 -0.0124878 -0.146878
v -0.007031886 -0.01248779 -0.1248902
v -0.01238893 0.00710916 -0.1248902
v -0.01238893 0.007109155 -0.146878
v -0.01376907 -0.003798797 -0.1248902
v -0.01376907 -0.003798801 -0.146878
v -0.007031886 -0.01248779 -0.1248902
v -0.007031885 -0.0124878 -0.146878
v 0.01394522 0.003777203 -0.146878
v -0.003699928 0.01384634 -0.146878
v -0.01238893 0.007109155 -0.146878
v 0.01256508 -0.007130756 -0.146878
v 0.003876077 -0.01386794 -0.146878
v -0.01376907 -0.003798801 -0.146878
v -0.007031885 -0.0124878 -0.146878
v 0.007208033 0.0124662 -0.146878
v -0.009262577 0.01604325 -0.1248513
v -0.003699928 0.01384635 -0.1248902
v 0.00720803 0.01246621 -0.1248902
v 0.009262595 0.01604325 -0.1248513
v 0.01394522 0.003777206 -0.1248902
v 0.01852518 -2.442144E-08 -0.1248513
v 0.01256507 -0.00713075 -0.1248902
v -0.01238893 0.00710916 -0.1248902
v -0.01852516 -2.442144E-08 -0.1248513
v -0.01376907 -0.003798797 -0.1248902
v -0.009262575 -0.01604329 -0.1248513
v -0.007031886 -0.01248779 -0.1248902
v 0.009262594 -0.01604329 -0.1248513
v 0.003876077 -0.01386794 -0.1248902
vt 0.2909007 0.01567896
vt 0.290901 0.8307947
vt 0.406875 0.8307947
vt 0.4068749 0.01567896
vt 0.4068749 0.01567896
vt 0.406875 0.8307947
vt 0.5228489 0.8307947
vt 0.5228489 0.01567896
vt 0.5228489 0.01567896
vt 0.5228489 0.8307947
vt 0.6388228 0.8307947
vt 0.638823 0.01567896
vt 0.638823 0.01567896
vt 0.6388228 0.8307947
vt 0.7547969 0.8307947
vt 0.7547969 0.01567896
vt 0.7547969 0.01567896
vt 0.7547969 0.8307947
vt 0.8707711 0.8307947
vt 0.8707711 0.01567896
vt 0.8707711 0.01567896
vt 0.8707711 0.8307947
vt 0.9867454 0.8307947
vt 0.9867453 0.01567896
vt 0.08710694 0.7492468
vt 0.2606655 0.6490426
vt 0.2028127 0.5488386
vt 0.02925426 0.6490426
vt 0.08710712 0.5488386
vt 0.2028127 0.7492468
vt 0.7817976 0.9882208
vt 0.7817976 0.8508877
vt 0.7131248 0.8508877
vt 0.7131248 0.9882208
vt 0.644452 0.8508878
vt 0.644452 0.9882208
vt 0.5757792 0.8508878
vt 0.5757792 0.9882208
vt 0.5071063 0.8508878
vt 0.5071064 0.9882208
vt 0.4384335 0.8508878
vt 0.4384335 0.9882208
vt 0.8504704 0.9882208
vt 0.8504704 0.8508877
vt 0.9191432 0.9882208
vt 0.9191432 0.8508877
vt 0.987816 0.9882208
vt 0.987816 0.8508878
vt 0.206593 0.4002744
vt 0.206593 0.2733834
vt 0.1431476 0.2471036
vt 0.1431476 0.4265543
vt 0.07970215 0.4002744
vt 0.07970215 0.2733836
vt 0.05342226 0.3368291
vt 0.2328729 0.3368291
vt 0.2750229 0.4119317
vt 0.2276824 0.4190174
vt 0.1465941 0.4531969
vt 0.146707 0.4862134
vt 0.06509032 0.420033
vt 0.01822439 0.4122409
vt 0.03091507 0.3389519
vt 0.260855 0.3375155
vt 0.2748559 0.2636772
vt 0.2266792 0.2564342
vt 0.1463731 0.1897044
vt 0.1451758 0.2232703
vt 0.01805735 0.2639861
vt 0.06408763 0.25745
vn 0.8660254 0.5 0
vn 0.8660254 0.5 0
vn 0.8660254 0.5 0
vn 0.8660254 0.5 0
vn 0 1 -1.785352E-07
vn 0 1 -1.785352E-07
vn 0 1 -1.785352E-07
vn 0 1 -1.785352E-07
vn -0.8660254 0.4999999 -1.525928E-07
vn -0.8660254 0.5 -1.525928E-07
vn -0.8660254 0.4999999 -1.525928E-07
vn -0.8660254 0.4999999 -1.525927E-07
vn -0.8660253 -0.5000001 0
vn -0.8660253 -0.5000001 0
vn -0.8660253 -0.5000001 0
vn -0.8660253 -0.5000001 0
vn 0 -1 1.602239E-07
vn 0 -1 1.602239E-07
vn 0 -1 1.602239E-07
vn 0 -1 1.602239E-07
vn 0.8660253 -0.5000001 1.488861E-07
vn 0.8660253 -0.5000002 1.488861E-07
vn 0.8660253 -0.5000001 1.488861E-07
vn 0.8660253 -0.5000002 1.488861E-07
vn 0 0 1
vn 0 0 1
vn 0 0 1
vn 0 0 1
vn 0 0 1
vn 0 0 1
vn -0.2636864 0.9646085 -1.546978E-07
vn -0.2636864 0.9646085 -1.546978E-07
vn 0.4956265 0.8685357 0
vn 0.4956268 0.8685356 0
vn 0.9646084 0.2636864 0
vn 0.9646085 0.2636862 0
vn 0.8685355 -0.4956269 2.026501E-07
vn 0.8685355 -0.4956269 2.026501E-07
vn 0.2636865 -0.9646084 2.455986E-07
vn 0.2636864 -0.9646084 2.455986E-07
vn -0.495627 -0.8685355 1.70543E-07
vn -0.4956268 -0.8685355 1.70543E-07
vn -0.8685357 0.4956266 -1.442735E-07
vn -0.8685357 0.4956266 -1.442735E-07
vn -0.9646084 -0.2636864 0
vn -0.9646085 -0.2636861 0
vn -0.4956268 -0.8685355 1.70543E-07
vn -0.495627 -0.8685355 1.70543E-07
vn 5.11603E-07 -7.268845E-07 -1
vn 5.116029E-07 -7.268847E-07 -1
vn 6.755141E-07 -3.854797E-07 -1
vn 6.755141E-07 -3.854798E-07 -1
vn 3.243746E-07 -1.054983E-06 -1
vn 3.243744E-07 -1.054984E-06 -1
vn -1.431323E-06 -4.402501E-06 -1
vn -3.07952E-07 -2.433907E-06 -1
vn 0.0006502935 0.01386826 -0.9999037
vn 0.0006502935 0.01386826 -0.9999037
vn 0.0006502935 0.01386826 -0.9999037
vn 0.0006502934 0.01386826 -0.9999037
vn 0.01196177 0.007736756 -0.9998986
vn 0.01196177 0.007736756 -0.9998986
vn 0.01684338 -0.009700201 -0.9998111
vn -0.01709847 0.009284907 -0.9998108
vn -0.01139658 -0.007373434 -0.9999079
vn -0.01139658 -0.007373435 -0.9999079
vn -0.0006537077 -0.01394109 -0.9999026
vn -0.0006537077 -0.01394109 -0.9999026
vn 0.006364941 -0.006725117 -0.9999572
vn 0.004750717 -0.006127033 -0.99997
g muzzle_saiga12_css_monster_caw_large_12g_LOD1_0
f 3/3/3 2/2/2 1/1/1
f 4/4/4 3/3/3 1/1/1
f 7/7/7 6/6/6 5/5/5
f 8/8/8 7/7/7 5/5/5
f 11/11/11 10/10/10 9/9/9
f 12/12/12 11/11/11 9/9/9
f 15/15/15 14/14/14 13/13/13
f 16/16/16 15/15/15 13/13/13
f 19/19/19 18/18/18 17/17/17
f 20/20/20 19/19/19 17/17/17
f 23/23/23 22/22/22 21/21/21
f 24/24/24 23/23/23 21/21/21
f 27/27/27 26/26/26 25/25/25
f 28/28/28 27/27/27 25/25/25
f 29/29/29 27/27/27 28/28/28
f 30/30/30 25/25/25 26/26/26
f 33/33/33 32/32/32 31/31/31
f 34/34/34 33/33/33 31/31/31
f 35/35/35 33/33/33 34/34/34
f 36/36/36 35/35/35 34/34/34
f 37/37/37 35/35/35 36/36/36
f 38/38/38 37/37/37 36/36/36
f 39/39/39 37/37/37 38/38/38
f 40/40/40 39/39/39 38/38/38
f 41/41/41 39/39/39 40/40/40
f 42/42/42 41/41/41 40/40/40
f 31/31/31 32/32/32 43/43/43
f 32/32/32 44/44/44 43/43/43
f 43/43/43 44/44/44 45/45/45
f 44/44/44 46/46/46 45/45/45
f 45/45/45 46/46/46 47/47/47
f 46/46/46 48/48/48 47/47/47
f 51/51/51 50/50/50 49/49/49
f 52/52/52 51/51/51 49/49/49
f 51/51/51 52/52/52 53/53/53
f 54/54/54 51/51/51 53/53/53
f 55/55/55 54/54/54 53/53/53
f 56/56/56 49/49/49 50/50/50
f 59/59/59 58/58/58 57/57/57
f 60/60/60 59/59/59 57/57/57
f 61/61/61 59/59/59 60/60/60
f 62/62/62 61/61/61 60/60/60
f 63/63/63 61/61/61 62/62/62
f 58/58/58 64/64/64 57/57/57
f 57/57/57 64/64/64 65/65/65
f 64/64/64 66/66/66 65/65/65
f 65/65/65 66/66/66 67/67/67
f 66/66/66 68/68/68 67/67/67
f 67/67/67 68/68/68 69/69/69
f 69/69/69 63/63/63 62/62/62
f 70/70/70 63/63/63 69/69/69
f 68/68/68 70/70/70 69/69/69
