g muzzle_m1a_springfield_armory_socom_16_762x51_LOD1
v 0.01161098 -2.279417E-07 -1.367103E-06
v 0.008250571 -0.05620483 0.008111355
v 0.008250572 -2.302641E-07 0.008111363
v 0.01161098 -0.05620483 -1.375455E-06
v 0.0001378379 -2.31777E-07 0.01147176
v 0.0001378376 -0.05620483 0.01147175
v -0.007974892 -2.315939E-07 0.008111355
v -0.007974892 -0.05620483 0.008111347
v -0.01133529 -2.298223E-07 -1.380416E-06
v -0.01133529 -0.05620483 -1.388767E-06
v -0.007974883 -2.274998E-07 -0.008114112
v -0.007974882 -0.05620483 -0.00811412
v 0.0001378499 -2.25987E-07 -0.01147451
v 0.0001378495 -0.05620483 -0.01147452
v 0.008250579 -0.05620483 -0.008114112
v 0.008250579 -2.2617E-07 -0.008114103
v 0.0001378495 -0.05620483 -0.01147452
v 0.0001378499 -2.25987E-07 -0.01147451
v 0.0001378499 -2.25987E-07 -0.01147451
v -0.01133529 -2.298223E-07 -1.380416E-06
v -0.007974883 -2.274998E-07 -0.008114112
v 0.01161098 -2.279417E-07 -1.367103E-06
v 0.0001378379 -2.31777E-07 0.01147176
v -0.007974892 -2.315939E-07 0.008111355
v 0.008250572 -2.302641E-07 0.008111363
v 0.008250579 -2.2617E-07 -0.008114103
v 0.008250571 -0.05620483 0.008111355
v -0.007974892 -0.05620483 0.008111347
v 0.0001378376 -0.05620483 0.01147175
v 0.008250579 -0.05620483 -0.008114112
v -0.007974882 -0.05620483 -0.00811412
v -0.01133529 -0.05620483 -1.388767E-06
v 0.0001378495 -0.05620483 -0.01147452
v 0.01161098 -0.05620483 -1.375455E-06
v -0.007974872 -0.0001285104 -0.02927392
v -0.0103379 -0.008747323 -0.02116119
v -0.007974871 -0.008747322 -0.02927392
v -0.0103379 -0.0001285127 -0.02116119
v 0.0001378603 -0.0001285088 -0.03263431
v 0.0001378603 -0.00874732 -0.03263432
v 0.008250589 -0.000128509 -0.02927391
v 0.00825059 -0.008747321 -0.02927391
v 0.01061361 -0.0001285109 -0.02116117
v 0.0106136 -0.008747322 -0.02116118
v -0.008279146 -0.008747325 -0.01481221
v -0.008279147 -0.0001285139 -0.0148122
v 0.008554849 -0.0001285121 -0.01481219
v 0.008554849 -0.008747324 -0.01481219
v -0.01113957 -0.0001285164 -0.003880789
v -0.01113957 -0.008747328 -0.003880789
v 0.01141526 -0.008747326 -0.003880775
v 0.01141527 -0.0001285156 -0.003880774
v -0.01131523 -0.00874733 -0.0001676934
v -0.01131523 -0.0001285171 -0.0001676902
v 0.01159092 -0.0001285159 -0.000167675
v 0.01159092 -0.008747327 -0.0001676782
v 0.01141526 -0.008747326 -0.003880775
v -0.008279146 -0.008747325 -0.01481221
v -0.01113957 -0.008747328 -0.003880789
v 0.008554849 -0.008747324 -0.01481219
v 0.01159092 -0.008747327 -0.0001676782
v -0.01131523 -0.00874733 -0.0001676934
v 0.0106136 -0.008747322 -0.02116118
v 0.0001378603 -0.00874732 -0.03263432
v 0.00825059 -0.008747321 -0.02927391
v -0.0103379 -0.008747323 -0.02116119
v -0.007974871 -0.008747322 -0.02927392
v 0.01141527 -0.0001285156 -0.003880774
v -0.01131523 -0.0001285171 -0.0001676902
v -0.01113957 -0.0001285164 -0.003880789
v 0.01159092 -0.0001285159 -0.000167675
v 0.008554849 -0.0001285121 -0.01481219
v -0.008279147 -0.0001285139 -0.0148122
v 0.01061361 -0.0001285109 -0.02116117
v 0.0001378603 -0.0001285088 -0.03263431
v 0.008250589 -0.000128509 -0.02927391
v -0.007974872 -0.0001285104 -0.02927392
v -0.0103379 -0.0001285127 -0.02116119
v 0.005824389 -4.911621E-05 0.00827222
v 0.005824386 -0.01746912 0.01334208
v 0.005824387 -4.911727E-05 0.01334209
v 0.005824389 -0.01746912 0.008272218
v -0.005930452 -4.911673E-05 0.008272214
v -0.005930455 -0.01746912 0.01334208
v -0.005930452 -0.01746912 0.008272211
v -0.005930454 -4.911779E-05 0.01334208
v 0.005824389 -0.01746912 0.008272218
v -0.005930455 -0.01746912 0.01334208
v 0.005824386 -0.01746912 0.01334208
v -0.005930452 -0.01746912 0.008272211
v 0.005824386 -0.01746912 0.01334208
v -0.005930454 -4.911779E-05 0.01334208
v 0.005824387 -4.911727E-05 0.01334209
v -0.005930455 -0.01746912 0.01334208
v 0.005824387 -4.911727E-05 0.01334209
v -0.005930452 -4.911673E-05 0.008272214
v 0.005824389 -4.911621E-05 0.00827222
v -0.005930454 -4.911779E-05 0.01334208
vt 0.1806974 0.006250328
vt 0.2664406 0.6812842
vt 0.2664413 0.006250567
vt 0.1806967 0.6812842
vt 0.3521854 0.006250626
vt 0.3521847 0.6812842
vt 0.4379293 0.006250805
vt 0.4379286 0.6812842
vt 0.5236732 0.006250924
vt 0.5236726 0.6812842
vt 0.6094171 0.006250924
vt 0.6094165 0.6812841
vt 0.6951609 0.006250984
vt 0.6951604 0.6812841
vt 0.09495269 0.6812842
vt 0.09495352 0.006250328
vt 0.009208728 0.6812841
vt 0.009209502 0.006250209
vt 0.3566537 0.6973297
vt 0.4754055 0.8160815
vt 0.4406239 0.7321114
vt 0.2379022 0.8160815
vt 0.3566538 0.9348332
vt 0.4406238 0.9000517
vt 0.2726837 0.9000515
vt 0.2726837 0.7321114
vt 0.2083611 0.958283
vt 0.04042069 0.958283
vt 0.1243909 0.9930645
vt 0.2083611 0.7903427
vt 0.04042069 0.7903425
vt 0.00563921 0.8743128
vt 0.1243909 0.7555609
vt 0.2431425 0.8743128
vt 0.8924144 0.4709421
vt 0.9959291 0.5534523
vt 0.9959293 0.4709423
vt 0.8924137 0.5534516
vt 0.8924147 0.3851981
vt 0.9959293 0.3851978
vt 0.8924146 0.2994543
vt 0.9959286 0.2994536
vt 0.8924139 0.2169462
vt 0.9959275 0.2169445
vt 0.9959286 0.6186258
vt 0.892413 0.618625
vt 0.8924128 0.1517745
vt 0.9959258 0.1517721
vt 0.892412 0.7289606
vt 0.9959279 0.7289614
vt 0.9959229 0.04143982
vt 0.8924101 0.04144256
vt 0.9959275 0.7652592
vt 0.8924118 0.7652584
vt 0.8924094 0.005145956
vt 0.9959217 0.005143452
vt 0.4657879 0.7280672
vt 0.6460862 0.8281419
vt 0.6722725 0.7280672
vt 0.4919745 0.8281422
vt 0.4641801 0.6940745
vt 0.6738806 0.6940747
vt 0.4731272 0.8862661
vt 0.5690309 0.9913002
vt 0.4947605 0.9605366
vt 0.6649339 0.8862655
vt 0.6433012 0.9605361
vt 0.6710566 0.9422141
vt 0.8930096 0.978471
vt 0.8912945 0.9422142
vt 0.6693411 0.9784706
vt 0.6989873 0.835474
vt 0.8633637 0.8354737
vt 0.6788846 0.7734794
vt 0.781175 0.6614493
vt 0.701958 0.6942622
vt 0.8603919 0.6942618
vt 0.8834663 0.7734789
vt 0.8366115 0.009361625
vt 0.8861163 0.2185809
vt 0.8861163 0.009361625
vt 0.8366115 0.2185809
vt 0.8867495 0.2261444
vt 0.8372445 0.4353638
vt 0.8867495 0.4353638
vt 0.8372445 0.2261444
vt 0.7725698 0.2269346
vt 0.8220746 0.3417152
vt 0.8220748 0.2269346
vt 0.7725698 0.3417152
vt 0.7095416 0.2157159
vt 0.824322 0.006496662
vt 0.7095416 0.006496662
vt 0.8243222 0.2157159
vt 0.711245 0.2261776
vt 0.76075 0.3409581
vt 0.76075 0.2261776
vt 0.711245 0.3409581
vn 1 0 5.35511E-07
vn 0.7071038 0 0.7071097
vn 0.7071068 -1.251463E-07 0.7071068
vn 1 0 5.35511E-07
vn -4.656617E-07 -2.135496E-07 1
vn -5.587941E-07 0 1
vn -0.7071068 -1.782607E-07 0.7071068
vn -0.7071068 0 0.7071068
vn -1 0 -6.388298E-07
vn -1 0 -6.504713E-07
vn -0.7071068 1.155057E-07 -0.7071068
vn -0.7071068 0 -0.7071068
vn 5.587941E-07 1.979062E-07 -1
vn 4.656617E-07 0 -1
vn 0.7071097 0 -0.7071038
vn 0.7071068 1.686201E-07 -0.7071068
vn 4.656617E-07 0 -1
vn 5.587941E-07 1.979062E-07 -1
vn 0 1 0
vn 0 1 1.920853E-07
vn 0 1 0
vn 0 1 1.920853E-07
vn 0 1 0
vn 0 1 0
vn 0 1 0
vn 0 1 0
vn 0 -1 0
vn 0 -1 0
vn 0 -1 0
vn 0 -1 0
vn 0 -1 0
vn 0 -1 0
vn 0 -1 0
vn 0 -1 0
vn -0.7446696 1.862657E-07 -0.6674333
vn -0.9998865 0 0.01506798
vn -0.7446696 0 -0.6674333
vn -0.9998865 0 0.01506798
vn 5.587941E-07 3.725294E-07 -1
vn 4.656617E-07 0 -1
vn 0.7446696 3.725314E-07 -0.6674333
vn 0.7446696 0 -0.6674333
vn 0.9998865 0 0.01506798
vn 0.9998865 0 0.01506798
vn -0.9995849 0 0.02881297
vn -0.9995849 0 0.02881297
vn 0.9995849 0 0.02881297
vn 0.9995849 0 0.02881297
vn -0.9885302 0 -0.1510231
vn -0.9885307 0 -0.1510202
vn 0.9885307 0 -0.1510202
vn 0.9885302 0 -0.1510231
vn -0.9988828 0 -0.04725533
vn -0.9988828 0 -0.04725533
vn 0.9988829 0 -0.04725421
vn 0.9988829 0 -0.04725421
vn 0 -1 0
vn 0 -1 0
vn 0 -1 0
vn 0 -1 0
vn 0 -1 -1.862647E-07
vn 0 -1 -1.862647E-07
vn 0 -1 0
vn 0 -1 0
vn 0 -1 0
vn 0 -1 0
vn 0 -1 0
vn 0 1 0
vn 0 1 0
vn 0 1 0
vn 0 1 0
vn 0 1 0
vn 0 1 0
vn 0 1 0
vn 0 1 0
vn 0 1 0
vn 0 1 0
vn 0 1 0
vn 1 0 0
vn 1 0 0
vn 1 0 0
vn 1 0 0
vn -1 0 -5.96047E-06
vn -1 0 0
vn -1 0 0
vn -1 0 0
vn 0 -1 0
vn 0 -1 0
vn 0 -1 0
vn 0 -1 0
vn 0 0 1
vn 0 0 1
vn 0 0 1
vn 0 0 1
vn 0 1 0
vn 0 1 0
vn 0 1 0
vn 0 1 0
g muzzle_m1a_springfield_armory_socom_16_762x51_LOD1_0
f 3/3/3 2/2/2 1/1/1
f 4/4/4 1/1/1 2/2/2
f 3/3/3 5/5/5 2/2/2
f 6/6/6 2/2/2 5/5/5
f 5/5/5 7/7/7 6/6/6
f 8/8/8 6/6/6 7/7/7
f 7/7/7 9/9/9 8/8/8
f 10/10/10 8/8/8 9/9/9
f 9/9/9 11/11/11 10/10/10
f 12/12/12 10/10/10 11/11/11
f 11/11/11 13/13/13 12/12/12
f 14/14/14 12/12/12 13/13/13
f 4/4/4 15/15/15 1/1/1
f 16/16/16 1/1/1 15/15/15
f 15/15/15 17/17/17 16/16/16
f 18/18/18 16/16/16 17/17/17
f 21/21/21 20/20/20 19/19/19
f 20/20/20 22/22/22 19/19/19
f 23/23/23 22/22/22 20/20/20
f 24/24/24 23/23/23 20/20/20
f 25/25/25 22/22/22 23/23/23
f 19/19/19 22/22/22 26/26/26
f 29/29/29 28/28/28 27/27/27
f 28/28/28 30/30/30 27/27/27
f 31/31/31 30/30/30 28/28/28
f 32/32/32 31/31/31 28/28/28
f 33/33/33 30/30/30 31/31/31
f 27/27/27 30/30/30 34/34/34
f 37/37/37 36/36/36 35/35/35
f 38/38/38 35/35/35 36/36/36
f 35/35/35 39/39/39 37/37/37
f 40/40/40 37/37/37 39/39/39
f 39/39/39 41/41/41 40/40/40
f 42/42/42 40/40/40 41/41/41
f 41/41/41 43/43/43 42/42/42
f 44/44/44 42/42/42 43/43/43
f 36/36/36 45/45/45 38/38/38
f 46/46/46 38/38/38 45/45/45
f 43/43/43 47/47/47 44/44/44
f 48/48/48 44/44/44 47/47/47
f 46/46/46 45/45/45 49/49/49
f 50/50/50 49/49/49 45/45/45
f 48/48/48 47/47/47 51/51/51
f 52/52/52 51/51/51 47/47/47
f 50/50/50 53/53/53 49/49/49
f 54/54/54 49/49/49 53/53/53
f 52/52/52 55/55/55 51/51/51
f 56/56/56 51/51/51 55/55/55
f 59/59/59 58/58/58 57/57/57
f 60/60/60 57/57/57 58/58/58
f 57/57/57 61/61/61 59/59/59
f 62/62/62 59/59/59 61/61/61
f 60/60/60 58/58/58 63/63/63
f 63/63/63 58/58/58 64/64/64
f 65/65/65 63/63/63 64/64/64
f 58/58/58 66/66/66 64/64/64
f 64/64/64 66/66/66 67/67/67
f 70/70/70 69/69/69 68/68/68
f 71/71/71 68/68/68 69/69/69
f 68/68/68 72/72/72 70/70/70
f 73/73/73 70/70/70 72/72/72
f 72/72/72 74/74/74 73/73/73
f 74/74/74 75/75/75 73/73/73
f 76/76/76 75/75/75 74/74/74
f 75/75/75 77/77/77 73/73/73
f 73/73/73 77/77/77 78/78/78
f 81/81/81 80/80/80 79/79/79
f 82/82/82 79/79/79 80/80/80
f 85/85/85 84/84/84 83/83/83
f 86/86/86 83/83/83 84/84/84
f 89/89/89 88/88/88 87/87/87
f 90/90/90 87/87/87 88/88/88
f 93/93/93 92/92/92 91/91/91
f 94/94/94 91/91/91 92/92/92
f 97/97/97 96/96/96 95/95/95
f 98/98/98 95/95/95 96/96/96
