g muzzle_rpk16_izhmash_rpk16_std_545x39_LOD1
v -0.01263716 0.0002572298 3.41876E-05
v -0.01263717 -0.08439117 3.417832E-05
v -0.008960006 -0.08439117 -0.008911661
v -0.008959993 0.0002572298 -0.008911652
v -3.419253E-05 -0.08439117 -0.01263717
v -3.417973E-05 0.0002572298 -0.01263716
v -0.008911648 0.0002572298 0.008960002
v -0.008911662 -0.08439117 0.008959993
v 3.418926E-05 0.0002572298 0.01263717
v 3.417646E-05 -0.08439117 0.01263716
v 0.00896 0.0002572298 0.008911658
v 0.008959987 -0.08439118 0.00891165
v 0.01263717 0.0002572298 -3.418099E-05
v 0.01263716 -0.08439117 -3.419028E-05
v 0.008911659 0.0002572298 -0.008959994
v 0.008911646 -0.08439117 -0.008960003
v -3.417973E-05 0.0002572298 -0.01263716
v -3.419253E-05 -0.08439117 -0.01263717
v 0.00896 0.0002572298 0.008911658
v -0.008911648 0.0002572298 0.008960002
v -0.01263716 0.0002572298 3.41876E-05
v 0.01263717 0.0002572298 -3.418099E-05
v 0.008911659 0.0002572298 -0.008959994
v -0.008959993 0.0002572298 -0.008911652
v 3.418926E-05 0.0002572298 0.01263717
v -3.417973E-05 0.0002572298 -0.01263716
v 0.01263716 -0.08439117 -3.419028E-05
v -0.01263717 -0.08439117 3.417832E-05
v -0.008911662 -0.08439117 0.008959993
v 0.008959987 -0.08439118 0.00891165
v 3.417646E-05 -0.08439117 0.01263716
v -0.008960006 -0.08439117 -0.008911661
v 0.008911646 -0.08439117 -0.008960003
v -3.419253E-05 -0.08439117 -0.01263717
vt 0.8972743 0.5616521
vt 0.002000056 0.5616519
vt 0.002000056 0.6549272
vt 0.8972744 0.6549274
vt 0.002000001 0.7482026
vt 0.8972743 0.7482027
vt 0.8972741 0.4683767
vt 0.002000056 0.4683767
vt 0.897274 0.3751015
vt 0.002000056 0.3751015
vt 0.8972744 0.2818263
vt 0.00200011 0.2818261
vt 0.8972747 0.1885509
vt 0.00200011 0.1885507
vt 0.8972749 0.09527561
vt 0.002000137 0.09527539
vt 0.8972749 0.002000273
vt 0.002000192 0.002
vt 0.03843643 0.962317
vt 0.2111739 0.962317
vt 0.2469491 0.8759483
vt 0.002661164 0.8759482
vt 0.03843643 0.7895794
vt 0.2111739 0.7895793
vt 0.1248052 0.9980921
vt 0.124805 0.7538041
vt 0.2562842 0.8756999
vt 0.500572 0.8756999
vt 0.4647968 0.7893312
vt 0.2920593 0.7893312
vt 0.3784279 0.7535562
vt 0.4647969 0.9620688
vt 0.2920593 0.9620688
vt 0.3784281 0.997844
vn -0.9999964 1.563683E-07 0.002705119
vn -0.9999964 1.563683E-07 0.002705099
vn -0.709017 1.920745E-07 -0.7051914
vn -0.709017 1.920745E-07 -0.7051914
vn -0.002704935 1.191847E-07 -0.9999964
vn -0.002704954 1.191847E-07 -0.9999964
vn -0.7051914 0 0.709017
vn -0.7051914 0 0.709017
vn 0.002705078 -1.157372E-07 0.9999964
vn 0.002705098 -1.157372E-07 0.9999964
vn 0.7090169 -1.871495E-07 0.7051916
vn 0.7090169 -1.871495E-07 0.7051916
vn 0.9999964 -1.521821E-07 -0.002704934
vn 0.9999964 -1.521821E-07 -0.002704934
vn 0.7051915 0 -0.7090169
vn 0.7051914 0 -0.709017
vn -0.002704954 1.191847E-07 -0.9999964
vn -0.002704935 1.191847E-07 -0.9999964
vn 0 1 0
vn 0 1 0
vn 0 1 0
vn 0 1 0
vn 0 1 0
vn 0 1 0
vn 0 1 0
vn 0 1 0
vn -1.112381E-07 -1 -2.665111E-07
vn -1.112381E-07 -1 -2.665111E-07
vn -1.368763E-07 -1 -1.146162E-07
vn -1.368763E-07 -1 -1.146161E-07
vn -2.650677E-07 -1 6.44859E-07
vn -1.368763E-07 -1 -1.146162E-07
vn -1.368763E-07 -1 -1.146162E-07
vn -2.650677E-07 -1 6.448582E-07
g muzzle_rpk16_izhmash_rpk16_std_545x39_LOD1_0
f 3/3/3 2/2/2 1/1/1
f 4/4/4 3/3/3 1/1/1
f 5/5/5 3/3/3 4/4/4
f 6/6/6 5/5/5 4/4/4
f 1/1/1 2/2/2 7/7/7
f 2/2/2 8/8/8 7/7/7
f 7/7/7 8/8/8 9/9/9
f 8/8/8 10/10/10 9/9/9
f 9/9/9 10/10/10 11/11/11
f 10/10/10 12/12/12 11/11/11
f 11/11/11 12/12/12 13/13/13
f 12/12/12 14/14/14 13/13/13
f 13/13/13 14/14/14 15/15/15
f 14/14/14 16/16/16 15/15/15
f 15/15/15 16/16/16 17/17/17
f 16/16/16 18/18/18 17/17/17
f 21/21/21 20/20/20 19/19/19
f 22/22/22 21/21/21 19/19/19
f 21/21/21 22/22/22 23/23/23
f 24/24/24 21/21/21 23/23/23
f 25/25/25 19/19/19 20/20/20
f 26/26/26 24/24/24 23/23/23
f 29/29/29 28/28/28 27/27/27
f 30/30/30 29/29/29 27/27/27
f 31/31/31 29/29/29 30/30/30
f 27/27/27 28/28/28 32/32/32
f 33/33/33 27/27/27 32/32/32
f 34/34/34 33/33/33 32/32/32
