g muzzle_sa58_ds_arms_3_prong_trident_flash_hider_762x51_LOD1
v 0.004086176 -2.53439E-06 0.009859391
v 0.004086179 -0.05353894 0.009859383
v -0.004064649 -0.05353894 0.009859382
v -0.004064653 -2.53439E-06 0.00985939
v -0.009828155 -0.05353894 0.004095874
v -0.009828158 -2.53439E-06 0.004095882
v -0.009828153 -0.05353894 -0.004054956
v -0.009828156 -2.533197E-06 -0.004054949
v -0.004064645 -0.05353894 -0.009818463
v -0.004064648 -2.532005E-06 -0.009818455
v 0.004086183 -0.05353894 -0.009818462
v 0.00408618 -2.532005E-06 -0.009818455
v 0.009849688 -0.05353894 -0.004054954
v 0.009849686 -2.532005E-06 -0.004054946
v 0.009849687 -0.05353894 0.004095877
v 0.009849684 -2.533197E-06 0.004095885
v 0.004086179 -0.05353894 0.009859383
v 0.004086176 -2.53439E-06 0.009859391
v 0.009849684 -2.533197E-06 0.004095885
v 0.004086176 -2.53439E-06 0.009859391
v -0.004064653 -2.53439E-06 0.00985939
v -0.009828158 -2.53439E-06 0.004095882
v 0.009849686 -2.532005E-06 -0.004054946
v -0.009828156 -2.533197E-06 -0.004054949
v -0.004064648 -2.532005E-06 -0.009818455
v 0.00408618 -2.532005E-06 -0.009818455
v -0.009828153 -0.05353894 -0.004054956
v -0.009828155 -0.05353894 0.004095874
v 0.009849687 -0.05353894 0.004095877
v 0.009849688 -0.05353894 -0.004054954
v 0.004086179 -0.05353894 0.009859383
v -0.004064649 -0.05353894 0.009859382
v 0.004086183 -0.05353894 -0.009818462
v -0.004064645 -0.05353894 -0.009818463
vt 0.006619 0.283017
vt 0.006619 0.992035
vt 0.129963 0.992035
vt 0.129963 0.283017
vt 0.253311 0.992035
vt 0.253311 0.283017
vt 0.37666 0.992035
vt 0.37666 0.283017
vt 0.499999 0.992035
vt 0.499999 0.283017
vt 0.623348 0.992035
vt 0.623348 0.283017
vt 0.746689 0.992035
vt 0.746689 0.283017
vt 0.870038 0.992035
vt 0.870038 0.283017
vt 0.993381 0.992035
vt 0.993381 0.283017
vt 0.272022 0.085034
vt 0.195699 0.008676
vt 0.087752 0.008676
vt 0.011402 0.084976
vt 0.271997 0.192984
vt 0.011402 0.192922
vt 0.087705 0.269283
vt 0.195655 0.269283
vt 0.286669 0.081432
vt 0.286669 0.189378
vt 0.547276 0.189317
vt 0.547276 0.081366
vt 0.470964 0.265677
vt 0.363015 0.265677
vt 0.470924 0.005069
vt 0.362975 0.005069
vn 0.3826833 -1.037223E-07 0.9238796
vn 0.3826833 -1.037223E-07 0.9238796
vn -0.3826836 -1.462284E-07 0.9238794
vn -0.3826836 -1.462284E-07 0.9238794
vn -0.9238796 -1.040507E-07 0.3826832
vn -0.9238796 -1.040507E-07 0.3826832
vn -0.9238794 0 -0.3826836
vn -0.9238794 0 -0.3826835
vn -0.3826833 1.037223E-07 -0.9238795
vn -0.3826833 1.037223E-07 -0.9238795
vn 0.3826835 1.443804E-07 -0.9238794
vn 0.3826835 1.443804E-07 -0.9238794
vn 0.9238796 0 -0.3826832
vn 0.9238796 0 -0.3826832
vn 0.9238795 0 0.3826835
vn 0.9238794 0 0.3826835
vn 0.3826833 -1.037223E-07 0.9238796
vn 0.3826833 -1.037223E-07 0.9238796
vn 0 1 1.319752E-07
vn 0 1 1.034173E-07
vn 0 1 1.034173E-07
vn 0 1 1.319752E-07
vn 0 1 1.319752E-07
vn 0 1 1.319752E-07
vn 0 1 1.034173E-07
vn 0 1 1.034173E-07
vn 0 -1 0
vn 0 -1 0
vn 0 -1 0
vn 0 -1 0
vn 0 -1 0
vn 0 -1 0
vn 0 -1 0
vn 0 -1 0
g muzzle_sa58_ds_arms_3_prong_trident_flash_hider_762x51_LOD1_0
f 3/3/3 2/2/2 1/1/1
f 4/4/4 3/3/3 1/1/1
f 5/5/5 3/3/3 4/4/4
f 6/6/6 5/5/5 4/4/4
f 7/7/7 5/5/5 6/6/6
f 8/8/8 7/7/7 6/6/6
f 9/9/9 7/7/7 8/8/8
f 10/10/10 9/9/9 8/8/8
f 11/11/11 9/9/9 10/10/10
f 12/12/12 11/11/11 10/10/10
f 13/13/13 11/11/11 12/12/12
f 14/14/14 13/13/13 12/12/12
f 15/15/15 13/13/13 14/14/14
f 16/16/16 15/15/15 14/14/14
f 17/17/17 15/15/15 16/16/16
f 18/18/18 17/17/17 16/16/16
f 21/21/21 20/20/20 19/19/19
f 22/22/22 21/21/21 19/19/19
f 22/22/22 19/19/19 23/23/23
f 24/24/24 22/22/22 23/23/23
f 25/25/25 24/24/24 23/23/23
f 26/26/26 25/25/25 23/23/23
f 29/29/29 28/28/28 27/27/27
f 30/30/30 29/29/29 27/27/27
f 29/29/29 31/31/31 28/28/28
f 31/31/31 32/32/32 28/28/28
f 33/33/33 30/30/30 27/27/27
f 34/34/34 33/33/33 27/27/27
